<svg viewBox="0 0 128 128" width="128" height="128" xmlns="http://www.w3.org/2000/svg"><linearGradient id="a" x1="64" x2="64" y1="28.5" y2="99.895" gradientUnits="userSpaceOnUse"><stop stop-color="#616161" offset="0"/><stop stop-color="#5B5B5B" offset=".223"/><stop stop-color="#484848" offset=".536"/><stop stop-color="#2B2B2B" offset=".899"/><stop stop-color="#212121" offset="1"/></linearGradient><path d="M50.92 67.87L29.87 61.8c-1.04-.3-1.62-1.4-1.29-2.43l3.38-10.39a1.914 1.914 0 0 1 2.51-1.19l20.78 8.04c1.29.5 2.66-.49 2.6-1.87L56.81 30c-.05-1.09.82-2 1.91-2h11.05c1.09 0 1.96.91 1.91 2l-1.05 24.48c-.06 1.38 1.32 2.36 2.6 1.87l20.34-7.87c1.03-.4 2.18.16 2.52 1.21l3.34 10.62c.32 1.03-.27 2.12-1.3 2.41l-21.48 6.09a1.92 1.92 0 0 0-1.01 2.99L89.6 90.38c.64.85.46 2.06-.4 2.69l-8.96 6.55c-.9.66-2.16.41-2.75-.53L65.05 79.2c-.75-1.19-2.48-1.2-3.23-.02L49.55 98.41c-.59.92-1.82 1.16-2.71.54l-9.01-6.29a1.916 1.916 0 0 1-.43-2.73l14.5-19.06c.83-1.07.32-2.62-.98-3z" fill="url(#a)"/><path d="M68.64 31l-1 23.34c-.06 1.35.42 2.63 1.36 3.61.93.97 2.22 1.52 3.55 1.52.61 0 1.2-.11 1.77-.33l19.26-7.45 2.66 8.45-20.41 5.79a4.91 4.91 0 0 0-2.59 7.68l13.31 17.7-7.13 5.21-11.83-18.91a4.872 4.872 0 0 0-4.17-2.31c-1.69 0-3.23.85-4.14 2.27L47.63 95.84l-7.15-4.99L54.3 72.69c.98-1.29 1.26-2.98.75-4.52s-1.74-2.73-3.3-3.18l-19.97-5.76L34.46 51l19.71 7.63a4.927 4.927 0 0 0 5.33-1.19c.93-.97 1.41-2.26 1.36-3.61l-1-22.83h8.78m1.13-3H58.72c-1.09 0-1.96.91-1.91 2l1.05 23.97c.05 1.13-.87 2-1.91 2-.23 0-.46-.04-.69-.13L34.48 47.8c-.23-.09-.46-.13-.69-.13-.8 0-1.55.51-1.82 1.32l-3.38 10.39c-.34 1.03.25 2.13 1.29 2.43l21.05 6.07c1.29.37 1.81 1.93.99 3l-14.5 19.06c-.66.87-.46 2.1.43 2.73l9.01 6.29a1.9 1.9 0 0 0 2.7-.53l12.26-19.22c.38-.59.99-.88 1.61-.88s1.25.3 1.62.9l12.44 19.9a1.913 1.913 0 0 0 2.75.53l8.96-6.55a1.91 1.91 0 0 0 .4-2.69L75.63 71.8c-.81-1.07-.29-2.62 1.01-2.99l21.48-6.09a1.901 1.901 0 0 0 1.3-2.41l-3.34-10.62a1.923 1.923 0 0 0-1.83-1.34c-.23 0-.46.04-.69.13l-20.34 7.87c-.23.09-.46.13-.69.13-1.04 0-1.96-.87-1.91-2L71.68 30c.05-1.09-.82-2-1.91-2z" fill="#eee" opacity=".2"/></svg>