<svg viewBox="0 0 128 128" width="128" height="128" xmlns="http://www.w3.org/2000/svg"><linearGradient id="a" x1="62" x2="62" y1="25.192" y2="100.74" gradientUnits="userSpaceOnUse"><stop stop-color="#616161" offset="0"/><stop stop-color="#5B5B5B" offset=".223"/><stop stop-color="#484848" offset=".536"/><stop stop-color="#2B2B2B" offset=".899"/><stop stop-color="#212121" offset="1"/></linearGradient><path d="M82.26 74.91h5.34c1.14 0 2.06.92 2.06 2.06v6.07c0 1.14-.92 2.06-2.06 2.06h-5.34c-1.14 0-2.06.92-2.06 2.06v12.8c0 1.14-.92 2.06-2.06 2.06h-8.57c-1.14 0-2.06-.92-2.06-2.06v-12.8c0-1.14-.92-2.06-2.06-2.06h-28.8c-1.1 0-2-.86-2.05-1.96l-.24-5.11c-.02-.42.09-.84.32-1.2L66.5 26.97a2.06 2.06 0 0 1 1.73-.95h9.92c1.14 0 2.06.92 2.06 2.06v44.8c-.01 1.11.91 2.03 2.05 2.03zm-30.9 0h14.11c1.14 0 2.06-.92 2.06-2.06V43.17l-.94 1.67-16.97 26.92c-.87 1.37.12 3.15 1.74 3.15z" fill="url(#a)"/><path d="M77.2 29v43.85c0 2.79 2.27 5.06 5.06 5.06h4.39v4.18h-4.39c-2.79 0-5.06 2.27-5.06 5.06V99h-6.68V87.14c0-2.79-2.27-5.06-5.06-5.06H37.55l-.19-3.91L68.75 29h8.45M64 43.31L47.08 70.16c-.98 1.56-1.04 3.53-.15 5.14s2.59 2.61 4.43 2.61h14.11c2.79 0 5.06-2.27 5.06-5.06V43.17c0-1.36-.92-2.56-2.24-2.9-.25-.07-.51-.1-.76-.1a3 3 0 0 0-2.61 1.53L64 43.31M78.15 26h-9.92c-.7 0-1.36.36-1.73.95L34.67 76.81c-.23.36-.34.78-.32 1.2l.24 5.11c.05 1.1.96 1.96 2.05 1.96h28.82c1.14 0 2.06.92 2.06 2.06v12.8c0 1.14.92 2.06 2.06 2.06h8.57c1.14 0 2.06-.92 2.06-2.06v-12.8c0-1.14.92-2.06 2.06-2.06h5.34c1.14 0 2.06-.92 2.06-2.06v-6.07c0-1.14-.92-2.06-2.06-2.06h-5.34c-1.14 0-2.06-.92-2.06-2.06v-44.8A2.064 2.064 0 0 0 78.15 26zM51.36 74.91c-1.62 0-2.6-1.78-1.74-3.15l16.96-26.91.94-1.67v29.68c0 1.14-.92 2.06-2.06 2.06h-14.1v-.01z" fill="#eee" opacity=".2"/></svg>