<svg viewBox="0 0 128 128" width="128" height="128" xmlns="http://www.w3.org/2000/svg"><linearGradient id="a" x1="64" x2="64" y1="26" y2="101.76" gradientUnits="userSpaceOnUse"><stop stop-color="#616161" offset="0"/><stop stop-color="#5B5B5B" offset=".223"/><stop stop-color="#484848" offset=".536"/><stop stop-color="#2B2B2B" offset=".899"/><stop stop-color="#212121" offset="1"/></linearGradient><path d="M87.86 102H41.51c-1.12 0-2.03-.91-2.03-2.03v-5.78c0-.51.19-1 .53-1.37l24.44-26.66c3.6-4.02 6.17-7.37 7.7-10.07 1.53-2.69 2.29-5.4 2.29-8.11 0-3.57-1-6.45-3.01-8.65s-4.71-3.3-8.11-3.3c-4.05 0-7.19 1.24-9.42 3.71-1.89 2.1-2.98 4.85-3.27 8.25-.09 1.06-.95 1.89-2.02 1.89h-8.46c-1.18 0-2.12-1-2.03-2.17.28-3.71 1.29-7.09 3.03-10.16 2.08-3.66 5.05-6.5 8.91-8.52S58.38 26 63.42 26c7.28 0 13.02 1.83 17.22 5.48 4.2 3.66 6.31 8.71 6.31 15.16 0 3.74-1.06 7.66-3.17 11.77-2.11 4.1-5.57 8.76-10.38 13.98L58.27 88.6c-1.21 1.3-.29 3.41 1.48 3.41h28.11c1.12 0 2.03.91 2.03 2.03v5.93c0 1.12-.91 2.03-2.03 2.03z" fill="url(#a)"/><path d="M63.42 29c6.5 0 11.63 1.6 15.26 4.75 3.55 3.09 5.28 7.31 5.28 12.9 0 3.24-.95 6.74-2.83 10.39-1.98 3.84-5.31 8.32-9.9 13.3L56.08 86.55c-1.37 1.46-1.74 3.6-.94 5.44s2.61 3.03 4.61 3.03h27.14V99H42.48v-4.43l24.21-26.4c3.78-4.22 6.42-7.68 8.08-10.59 1.78-3.14 2.68-6.37 2.68-9.59 0-4.33-1.28-7.92-3.8-10.68-2.59-2.83-6.07-4.27-10.32-4.27-4.92 0-8.84 1.58-11.65 4.7-2.17 2.4-3.49 5.48-3.94 9.15h-6.51c.34-2.84 1.2-5.48 2.55-7.85 1.8-3.17 4.32-5.58 7.69-7.35C54.86 29.91 58.89 29 63.42 29m0-3c-5.05 0-9.5 1.01-13.36 3.04s-6.83 4.87-8.91 8.52c-1.74 3.07-2.75 6.45-3.03 10.16-.09 1.17.85 2.17 2.03 2.17h8.46c1.07 0 1.93-.83 2.02-1.89.29-3.4 1.38-6.16 3.27-8.25 2.23-2.47 5.37-3.71 9.42-3.71 3.4 0 6.1 1.1 8.11 3.3s3.01 5.08 3.01 8.65c0 2.71-.76 5.42-2.29 8.11-1.53 2.7-4.09 6.05-7.7 10.07L40.01 92.82c-.34.37-.53.86-.53 1.37v5.78c0 1.12.91 2.03 2.03 2.03h46.35c1.12 0 2.03-.91 2.03-2.03v-5.93c0-1.12-.91-2.03-2.03-2.03H59.75c-1.77 0-2.69-2.12-1.48-3.41l15.14-16.21c4.8-5.22 8.26-9.88 10.38-13.98 2.11-4.1 3.17-8.02 3.17-11.77 0-6.45-2.1-11.51-6.31-15.16S70.7 26 63.42 26z" fill="#eee" opacity=".2"/></svg>