<svg viewBox="0 0 128 128" width="128" height="128" xmlns="http://www.w3.org/2000/svg"><linearGradient id="a" x1="64" x2="64" y1="26.5" y2="102.24" gradientUnits="userSpaceOnUse"><stop stop-color="#616161" offset="0"/><stop stop-color="#5B5B5B" offset=".223"/><stop stop-color="#484848" offset=".536"/><stop stop-color="#2B2B2B" offset=".899"/><stop stop-color="#212121" offset="1"/></linearGradient><path d="M41.86 62.07l3.69-34.29c.11-1.01.96-1.77 1.98-1.77h36.49c1.1 0 1.99.89 1.99 1.99v6.84c0 1.1-.89 1.99-1.99 1.99h-26.1c-1.01 0-1.86.76-1.97 1.76L54.5 51.21c-.17 1.49 1.29 2.6 2.69 2.07 2.65-1.01 5.54-1.52 8.64-1.52 7.14 0 12.69 2.28 16.66 6.85 3.96 4.57 5.95 10.71 5.95 18.43 0 7.62-2.2 13.69-6.59 18.2-4.4 4.5-10.43 6.76-18.08 6.76-6.87 0-12.56-1.95-17.07-5.84-3.97-3.43-6.34-7.81-7.11-13.17-.17-1.19.77-2.26 1.98-2.26h8.23c.94 0 1.74.66 1.94 1.58.62 2.88 1.83 5.14 3.64 6.79 2.13 1.94 4.91 2.91 8.34 2.91 3.84 0 6.84-1.37 8.99-4.12 2.14-2.75 3.22-6.49 3.22-11.22 0-4.56-1.18-8.18-3.55-10.84s-5.63-3.99-9.78-3.99c-2.27 0-4.19.3-5.77.9-1.35.52-2.81 1.45-4.36 2.81-.5.44-1.17.62-1.81.46l-7.27-1.8a1.992 1.992 0 0 1-1.53-2.14z" fill="url(#a)"/><path d="M83.01 29v4.81H57.92c-2.54 0-4.67 1.9-4.95 4.42l-1.45 12.62c-.16 1.41.28 2.82 1.22 3.88a4.997 4.997 0 0 0 5.51 1.34c2.3-.88 4.85-1.32 7.58-1.32 6.29 0 10.99 1.9 14.39 5.82 3.46 3.98 5.21 9.52 5.21 16.47 0 6.87-1.88 12.14-5.74 16.11C75.85 97.08 70.64 99 63.77 99c-6.18 0-11.12-1.67-15.11-5.12-3.14-2.71-5.08-6.04-5.9-10.15h6.23c.8 3.13 2.27 5.67 4.37 7.58C56.05 93.76 59.53 95 63.72 95c4.8 0 8.62-1.77 11.35-5.27 2.56-3.27 3.85-7.67 3.85-13.07 0-5.3-1.45-9.62-4.31-12.83-2.95-3.31-7-4.99-12.02-4.99-2.62 0-4.92.37-6.83 1.1-1.59.6-3.2 1.6-4.9 3.04l-5.91-1.46L48.44 29h34.57m1.01-3H47.53c-1.02 0-1.87.77-1.98 1.77l-3.69 34.29c-.11.99.53 1.9 1.5 2.14l7.27 1.8c.15.04.31.06.47.06.49 0 .97-.18 1.35-.52 1.56-1.36 3.01-2.3 4.36-2.81 1.58-.6 3.5-.9 5.77-.9 4.15 0 7.41 1.33 9.78 3.99s3.55 6.27 3.55 10.84c0 4.74-1.07 8.48-3.22 11.22C70.54 90.63 67.55 92 63.7 92c-3.43 0-6.21-.97-8.34-2.91-1.81-1.65-3.02-3.91-3.64-6.79-.2-.92-1-1.58-1.94-1.58h-8.23c-1.2 0-2.15 1.07-1.98 2.26.77 5.35 3.14 9.74 7.11 13.17 4.51 3.9 10.2 5.84 17.07 5.84 7.66 0 13.68-2.26 18.07-6.77s6.59-10.58 6.59-18.2c0-7.72-1.98-13.87-5.95-18.43-3.96-4.56-9.52-6.85-16.66-6.85-3.11 0-5.99.51-8.64 1.52-.24.09-.48.13-.72.13-1.13 0-2.11-.98-1.97-2.21l1.45-12.62c.12-1 .96-1.76 1.97-1.76H84c1.1 0 1.99-.89 1.99-1.99v-6.84c.02-1.08-.87-1.97-1.97-1.97z" fill="#eee" opacity=".2"/></svg>