<svg viewBox="0 0 128 128" width="128" height="128" xmlns="http://www.w3.org/2000/svg"><linearGradient id="a" x1="64" x2="64" y1="26.333" y2="103.03" gradientUnits="userSpaceOnUse"><stop stop-color="#616161" offset="0"/><stop stop-color="#5B5B5B" offset=".223"/><stop stop-color="#484848" offset=".536"/><stop stop-color="#2B2B2B" offset=".899"/><stop stop-color="#212121" offset="1"/></linearGradient><path d="M75.34 74.48c.24-1.31-1.29-2.26-2.34-1.45-3.5 2.7-7.43 4.05-11.79 4.05-6.56 0-11.79-2.3-15.69-6.9s-5.85-10.64-5.85-18.13c0-4.92.99-9.38 2.97-13.38s4.8-7.11 8.46-9.33C54.76 27.11 59 26 63.82 26c7.52 0 13.49 2.8 17.9 8.41s6.62 13.11 6.62 22.51v3.49c0 13.47-3.04 23.74-9.13 30.82S64.04 101.9 51.97 102c-.82 0-1.48-.66-1.48-1.48v-7.34c0-.82.66-1.48 1.48-1.48h.31c7.35-.1 12.99-1.87 16.92-5.31 3.16-2.77 5.21-6.73 6.14-11.91zM64.09 67.3c2.37-.05 4.6-.76 6.69-2.13.02-.01.04-.03.06-.04 3.18-2.11 4.96-5.78 4.96-9.6v-1.08c0-5.45-1.12-9.83-3.35-13.15s-5.13-4.98-8.68-4.98-6.39 1.46-8.51 4.39-3.17 6.63-3.17 11.1c0 4.7 1.1 8.48 3.29 11.34 2.05 2.68 5.34 4.22 8.71 4.15z" fill="url(#a)"/><path d="M63.82 29c6.61 0 11.69 2.38 15.54 7.26 3.96 5.04 5.97 11.99 5.97 20.66v3.49c0 12.67-2.83 22.38-8.4 28.86-5.29 6.15-12.98 9.33-23.44 9.69v-4.31c7.5-.28 13.45-2.31 17.69-6.02 3.67-3.21 6.06-7.79 7.11-13.63.23-1.31-.12-2.64-.97-3.65a4.52 4.52 0 0 0-3.46-1.63c-.98 0-1.91.32-2.7.92-2.99 2.3-6.25 3.42-9.96 3.42-5.69 0-10.07-1.91-13.4-5.84-3.41-4.02-5.13-9.47-5.13-16.19 0-4.43.9-8.49 2.66-12.05 1.74-3.51 4.14-6.16 7.33-8.1C55.82 29.97 59.58 29 63.82 29m.05 41.3h.29c2.93-.06 5.71-.94 8.27-2.62l.08-.05c3.95-2.62 6.3-7.14 6.3-12.1v-1.08c0-6.03-1.3-11.02-3.86-14.83-2.78-4.12-6.64-6.3-11.17-6.3-4.49 0-8.27 1.95-10.94 5.64-2.48 3.44-3.74 7.76-3.74 12.85 0 5.36 1.32 9.79 3.91 13.17 2.55 3.33 6.61 5.32 10.86 5.32M63.82 26c-4.82 0-9.06 1.11-12.72 3.33s-6.48 5.33-8.46 9.33-2.97 8.46-2.97 13.38c0 7.49 1.95 13.53 5.85 18.13s9.13 6.9 15.69 6.9c4.36 0 8.29-1.35 11.79-4.05.27-.21.57-.3.87-.3.85 0 1.65.78 1.48 1.75-.93 5.18-2.97 9.14-6.13 11.91-3.93 3.44-9.57 5.21-16.92 5.31h-.31c-.82 0-1.48.66-1.48 1.48v7.34c0 .82.66 1.48 1.48 1.48 12.07-.1 21.14-3.69 27.23-10.77 6.08-7.08 9.13-17.35 9.13-30.82v-3.49c0-9.4-2.21-16.91-6.62-22.51-4.42-5.6-10.39-8.4-17.91-8.4zm.05 41.3c-3.29 0-6.48-1.53-8.49-4.15-2.19-2.86-3.29-6.64-3.29-11.34 0-4.47 1.06-8.17 3.17-11.1 2.12-2.93 4.95-4.39 8.51-4.39 3.55 0 6.45 1.66 8.68 4.98S75.8 49 75.8 54.45v1.08c0 3.81-1.79 7.49-4.96 9.6-.02.01-.04.03-.06.04-2.09 1.37-4.32 2.08-6.69 2.13h-.22z" fill="#eee" opacity=".2"/></svg>