<svg viewBox="0 0 128 128" width="128" height="128" xmlns="http://www.w3.org/2000/svg"><linearGradient id="a" x1="59.333" x2="59.333" y1="27.667" y2="102.05" gradientUnits="userSpaceOnUse"><stop stop-color="#616161" offset="0"/><stop stop-color="#5B5B5B" offset=".223"/><stop stop-color="#484848" offset=".536"/><stop stop-color="#2B2B2B" offset=".899"/><stop stop-color="#212121" offset="1"/></linearGradient><path d="M73.57 102.07H63.7c-.76 0-1.37-.61-1.37-1.37V43.03c0-.94-.92-1.6-1.81-1.3l-14.98 5.11c-.89.3-1.81-.36-1.81-1.3v-7.76c0-.57.36-1.09.9-1.29L73.1 26.02c.15-.06.31-.08.47-.08.76 0 1.37.61 1.37 1.37v73.39c0 .75-.61 1.37-1.37 1.37z" fill="url(#a)"/><path d="M71.94 29.64v69.43h-6.61V43.03a4.374 4.374 0 0 0-5.78-4.14l-12.82 4.37v-4.35l25.21-9.27m1.63-3.71c-.16 0-.32.03-.47.08L44.62 36.49c-.54.2-.9.71-.9 1.29v7.76c0 .78.64 1.37 1.37 1.37.15 0 .3-.02.44-.07l14.98-5.11a1.372 1.372 0 0 1 1.81 1.3v57.66c0 .76.61 1.37 1.37 1.37h9.87c.76 0 1.37-.61 1.37-1.37V27.31c.01-.76-.6-1.38-1.36-1.38z" fill="#eee" opacity=".2"/></svg>