<svg viewBox="0 0 128 128" width="128" height="128" xmlns="http://www.w3.org/2000/svg"><linearGradient id="a" x1="64" x2="64" y1="25.5" y2="103.03" gradientUnits="userSpaceOnUse"><stop stop-color="#616161" offset="0"/><stop stop-color="#5B5B5B" offset=".223"/><stop stop-color="#484848" offset=".536"/><stop stop-color="#2B2B2B" offset=".899"/><stop stop-color="#212121" offset="1"/></linearGradient><path d="M90.16 33.44L60.5 100.77c-.33.75-1.07 1.23-1.88 1.23h-8.76c-1.5 0-2.49-1.55-1.87-2.92l27.64-59.99c.63-1.36-.37-2.92-1.87-2.92H39.72c-1.14 0-2.06-.92-2.06-2.06v-6.07c0-1.14.92-2.06 2.06-2.06h48.56c1.14 0 2.06.92 2.06 2.06v4.56c-.01.3-.07.58-.18.84z" fill="url(#a)"/><path d="M87.33 29v3.42L58 99h-6.67l27.02-58.65a5.054 5.054 0 0 0-4.59-7.17H40.67V29h46.66m.95-3H39.72c-1.14 0-2.06.92-2.06 2.06v6.07c0 1.14.92 2.06 2.06 2.06h34.04c1.5 0 2.49 1.55 1.87 2.92L47.99 99.08c-.63 1.36.37 2.92 1.87 2.92h8.76c.81 0 1.55-.48 1.88-1.23l29.66-67.33c.12-.26.17-.54.17-.83v-4.56c0-1.13-.92-2.05-2.05-2.05z" fill="#eee" opacity=".2"/></svg>