<svg viewBox="0 0 128 128" width="128" height="128" xmlns="http://www.w3.org/2000/svg" xmlns:xlink="http://www.w3.org/1999/xlink"><linearGradient id="a" x1="54.345" x2="39.508" y1="49.168" y2="49.168" gradientUnits="userSpaceOnUse"><stop stop-color="#CCA47A" offset=".002"/><stop stop-color="#D1AA81" offset=".164"/><stop stop-color="#DCB790" offset=".622"/><stop stop-color="#E0BB95" offset="1"/></linearGradient><path d="M50.46 57c-1.95 0-3.5-.89-4.3-1.73-.04-.04-.08-.07-.12-.1l-8.59-8.32 3.71-3.97 8.6 6.54c.09.07.19.1.3.1.03 0 .06 0 .09-.01.14-.02.26-.1.33-.22l5.12-7.95 6.23 4.99c-.92 1.4-4.26 6.38-7 8.88-1.28 1.17-2.79 1.79-4.37 1.79z" fill="url(#a)"/><path d="M55.72 42.07l5.44 4.36c-1.16 1.75-4.18 6.13-6.67 8.41-1.21 1.1-2.56 1.66-4.03 1.66-1.79 0-3.24-.85-3.94-1.58-.05-.05-.11-.1-.17-.14l-8.2-7.95 3.07-3.28 8.24 6.27c.18.13.39.2.61.2.06 0 .12-.01.17-.02.27-.05.52-.21.67-.44l4.81-7.49m-.24-1.47l-5.42 8.42-8.96-6.82-4.36 4.66 9.04 8.76.01-.01c.99 1.03 2.72 1.88 4.66 1.88 1.53 0 3.19-.53 4.71-1.92 3.28-2.99 7.33-9.36 7.33-9.36l-7.01-5.61z" fill="#BA8F63"/><defs><path id="b" d="M30.06 42.49s1.02 2.36 4.04 4.27c2.32 1.47 4.15 1.31 4.15 1.31l-.27-.89s1.49-.36 2.92-1.51c.82-.66 1.61-1.48 1.61-1.48l.6-.29s1.56-1.9 1.18-3.18c-.74-2.53-3.08-5.48-6.51-5.37-3.42.09-7.72 7.14-7.72 7.14z"/></defs><clipPath id="c"><use xlink:href="#b"/></clipPath><g clip-path="url(#c)"><radialGradient id="d" cx="-390.29" cy="254.39" r="4.426" gradientTransform="matrix(-.0186 .9998 -1.0092 -.0188 287.42 437.32)" gradientUnits="userSpaceOnUse"><stop stop-color="#CCA47A" offset=".4"/><stop stop-color="#E0BB95" offset="1"/></radialGradient><path d="M38.24 47.58c-1.31 0-2.62-.59-3.59-1.62l-1.79-1.91c.28-1.01 5.12-4.69 6.26-4.96a.88.88 0 0 1 .17-.02c.81 0 2.17 1.11 2.81 2.71.4 1 .8 2.93-.99 4.64-.81.76-1.8 1.16-2.87 1.16z" fill="url(#d)"/><path d="M39.28 39.57c.56 0 1.76.93 2.34 2.4.43 1.08.63 2.67-.87 4.1-.7.67-1.57 1.02-2.51 1.02-1.18 0-2.35-.53-3.23-1.46l-1.54-1.64c.83-1.09 4.56-4.1 5.75-4.41.02-.01.04-.01.06-.01m0-1c-.1 0-.19.01-.28.03-1.26.3-7.42 4.83-6.58 5.72l1.86 1.99c1.05 1.12 2.51 1.78 3.96 1.78 1.13 0 2.26-.4 3.2-1.3 3.53-3.37-.05-8.22-2.16-8.22z" fill="#BA8F63"/></g><linearGradient id="e" x1="-31.589" x2="-24.884" y1="-206.53" y2="-206.53" gradientTransform="rotate(25.666 -539.967 58.893)" gradientUnits="userSpaceOnUse"><stop stop-color="#CCA47A" offset=".002"/><stop stop-color="#D6B088" offset=".258"/><stop stop-color="#DEB892" offset=".59"/><stop stop-color="#E0BB95" offset="1"/></linearGradient><path d="M40.13 39.26l-1.81-2.06c-.44-.5-1.2-.55-1.7-.11s-.63 1.08-.11 1.7l1.84 2.09-2.09-2.33a1.201 1.201 0 0 0-2.04 1.11c.04.15-.07.29-.23.28-.32 0-.65.12-.89.37l-.01.01c-.47.49-.45 1.26.03 1.73-.45-.08-.92.1-1.2.5-.37.56-.23 1.33.32 1.71l1.39.98c.55.39 1.31.25 1.69-.3.21-.3.26-.66.18-.98.35.03.72-.09.98-.37l.01-.01c.29-.3.4-.72.32-1.1.42.17.91.09 1.26-.24.38-.36.47-.9.27-1.36.44.46 1.17.49 1.65.07.53-.44.58-1.19.14-1.69z" clip-path="url(#c)" fill="url(#e)" stroke="#BA8F63" stroke-linecap="round" stroke-linejoin="round" stroke-miterlimit="10"/><path clip-path="url(#c)" fill="none" stroke="#BA8F63" stroke-linecap="round" stroke-linejoin="round" stroke-miterlimit="10" d="M34.31 39.99l2.77 2.67M33.17 42.08l2.29 1.96"/><g clip-path="url(#c)"><linearGradient id="f" x1="40.41" x2="31.716" y1="-63.357" y2="-67.062" gradientTransform="rotate(8.545 -683 26.531)" gradientUnits="userSpaceOnUse"><stop stop-color="#CCA47A" offset=".002"/><stop stop-color="#D6B088" offset=".258"/><stop stop-color="#DEB892" offset=".59"/><stop stop-color="#E0BB95" offset="1"/></linearGradient><path d="M37.27 38.01c.25.02 1.16.04 1.73.1.22.03.79.12.99.19.65.23 2.13 1.43 2.53 3.01.34 1.37.31 5.17-2.16 3.72-1.58-.86-.42-3.25-.65-3.87-.17-.47-.47-1.19-2.15-1.18-.47 0-1.17-.28-1.3-.73-.21-.79.28-1.31 1.01-1.24z" fill="url(#f)"/><path d="M36.05 38.08c.26-.34.69-.51 1.18-.46.08.01 1.69-.05 2.96.4 2.16.78 2.62 1.85 2.9 2.84.24.83.01 4.09-1.07 3.38-.58-.38 1.04-3.07-.24-4.43-.58-.62-1.39-1.01-1.95-1.22-.37-.13-.71-.15-.94-.18-.37-.05-.9-.07-1.28-.09-.21-.01-.38-.02-.47-.03-.27-.03-.49.04-.61.19-.1.13-.2.41-.13.65.07.25.68.54 1.11.55.61 0 1.28-.04 1.79.33.38.27.77.78.77 1.3 0 .51-.58 1.62-.22 2.56.15.39.69 1 .69 1s-.8-.1-1.11-.53c-.44-.6-.4-1.56-.25-2.29.06-.33.28-.86.23-.99-.15-.39-.28-.93-1.82-.94-.53 0-1.52-.18-1.7-.83-.14-.46-.08-.89.16-1.21z" fill="#BA8F63"/></g><path d="M58.87 51.82c-1.21-.14-5.79-1.03-7.99-6.67.6-.43 1.79-1.54 3.74-4.4 2.02-2.94 3.55-4.25 4.97-4.25.53 0 1.1.18 1.74.55l.83.49c1 .59 1.72 1.53 2.01 2.65s.13 2.3-.45 3.3l-4.85 8.33z" fill="#04A287"/><path d="M59.6 37c.44 0 .93.16 1.49.49l.83.48c.89.52 1.52 1.35 1.78 2.35s.12 2.03-.4 2.92l-4.69 8.04c-1.42-.24-5.15-1.32-7.12-5.96.73-.61 1.87-1.83 3.55-4.27C56.93 38.28 58.38 37 59.6 37m0-1c-1.57 0-3.19 1.27-5.38 4.47-2.8 4.08-3.94 4.46-3.94 4.46 2.57 7.19 8.87 7.41 8.87 7.41l5.02-8.6a4.86 4.86 0 0 0-1.74-6.64l-.83-.48c-.69-.4-1.34-.62-2-.62z" fill="#008F76"/><path d="M76.81 97.54h-.07c-.02 0-.04-.01-.07-.01-.44-.03-.86-.11-1.25-.23a5.543 5.543 0 0 1-3.21-2.56.407.407 0 0 0-.12-.14l-8.77-17.61 11.5-7.7L79.8 86.5c.06.22.26.36.48.36.03 0 .07 0 .1-.01l18.15-3.63 2.15 5.7-22.45 8.53c-.31.06-.71.1-1.11.1-.09 0-.2 0-.31-.01z" fill="#646464"/><path d="M74.54 70.08l4.79 16.56a1.005 1.005 0 0 0 1.16.7l17.73-3.55 1.83 4.84-21.91 8.32c-.33.06-.67.1-1.01.1-.1 0-.19 0-.29-.01H76.72c-.4-.03-.78-.1-1.14-.21a4.95 4.95 0 0 1-2.91-2.33 1.33 1.33 0 0 0-.14-.19l-8.54-17.15 10.55-7.08m.58-1.6l-12.43 8.33 9.06 18.2.04-.03a6.01 6.01 0 0 0 3.49 2.8c.45.14.9.22 1.36.25v.02l.15-.01c.11.01.23.01.34.01.44 0 .87-.04 1.29-.13l22.92-8.71-2.48-6.57-18.57 3.72-5.17-17.88z" fill="#4F4F4F"/><path d="M107.31 94.06c-.76 0-1.51-.26-2.11-.72l-4.84-4.21L97 83.49c.23-.62 1-2.5 2.19-3.2l2.37-1.42a.62.62 0 0 1 .86.22l7.88 13.2c.07.11.09.24.05.37a.48.48 0 0 1-.22.3l-1.08.63c-.53.31-1.13.47-1.74.47z" fill="#325599"/><path d="M101.87 79.28c.02 0 .08 0 .11.06l7.88 13.18-1.07.63a2.967 2.967 0 0 1-3.28-.2l-4.78-4.15-3.2-5.37c.32-.81 1.02-2.2 1.89-2.72l2.37-1.42c.04-.01.06-.01.08-.01m0-1c-.2 0-.4.05-.58.16l-2.37 1.42c-1.61.96-2.48 3.69-2.48 3.69l3.52 5.91 4.93 4.28a3.941 3.941 0 0 0 4.41.29l1.08-.63c.47-.28.63-.89.35-1.36l-7.88-13.2c-.22-.37-.59-.56-.98-.56z" fill="#224487"/><path d="M38.74 112.29c.86-2.8 4.77-15.63 6.4-21.29 1.76-6.13 4.12-8.14 4.15-8.16s.05-.05.08-.08l8.1-10.27c.1-.12.13-.28.09-.43l-.76-2.95 17.78-5.3c.43.91 1.48 3.29 1.74 5.13.27 1.86.34 6.56-4.88 10.05-1.25.83-14.91 12.14-15.49 12.62-.05.04-.09.09-.12.15l-11.25 21.48-5.84-.95z" fill="#7C7C7C"/><path d="M74.3 64.41c.48 1.06 1.29 3.04 1.52 4.6.26 1.77.32 6.23-4.66 9.56-1.24.83-14.07 11.45-15.53 12.65a.95.95 0 0 0-.25.31L44.31 112.7l-4.93-.81c1.11-3.64 4.7-15.4 6.23-20.75 1.71-5.94 3.96-7.89 3.98-7.9.06-.05.11-.1.16-.16l8.1-10.27c.19-.25.26-.57.18-.87l-.64-2.48 16.91-5.05m.54-1.2l-18.65 5.56.88 3.42-8.1 10.27s-2.47 2-4.31 8.4c-1.84 6.41-6.56 21.83-6.56 21.83l6.77 1.12L56.27 92s14.21-11.77 15.45-12.59c4.63-3.1 5.55-7.41 5.09-10.54-.35-2.43-1.97-5.66-1.97-5.66z" fill="#5B5B5B"/><linearGradient id="g" x1="56.197" x2="71.724" y1="192.58" y2="223.96" gradientTransform="rotate(-5.315 -1934.917 154.955)" gradientUnits="userSpaceOnUse"><stop stop-color="#E0BB95" offset=".55"/><stop stop-color="#CCA47A" offset=".83"/><stop stop-color="#C48E6A" offset="1"/></linearGradient><path d="M70.32 12.97c-2.25-4.23-7.74-7.76-12.51-7.3-5.34.52-8.43 4.14-9.5 8.92-.39 1.73-.45 3.48-.23 4.73.03.15.25 1.25.25 1.59.11 1.31-2.49 2.44-2.88 3.86-.29 1.07 1.92 1.9 2.08 2.11.82 1.03-.88 5.52 5.27 6.42 2.07.3 2.23.12 2.96.28 1.9.41 2.85 4.65 2.85 4.65s.89 4.21 5.06 3.22c4.76-1.14 3.63-5.42 3.63-5.42s-3.01-3.92.15-8.79c2.43-3.74 4.32-11.55 2.87-14.27z" fill="url(#g)"/><linearGradient id="h" x1="45.454" x2="70.664" y1="23.299" y2="23.81" gradientUnits="userSpaceOnUse"><stop stop-color="#BA8F63" offset="0"/><stop stop-color="#B07853" offset=".998"/></linearGradient><path d="M58.68 6.63c4 0 8.73 2.99 10.76 6.81 1.17 2.2-.39 9.5-2.82 13.24-3.12 4.81-.88 8.79-.25 9.73.07.4.18 1.5-.4 2.44-.47.77-1.32 1.31-2.53 1.6-.35.08-.68.13-.98.13-2.27 0-2.84-2.47-2.87-2.59-.18-.81-1.21-4.9-3.62-5.41-.4-.09-.68-.09-1-.1-.38-.01-.9-.02-2.03-.19-3.79-.55-3.96-2.47-4.11-4.16-.07-.75-.13-1.4-.52-1.89-.16-.2-.36-.31-.7-.5-.65-.36-1.04-.63-1.17-.81.16-.37.71-.87 1.16-1.27.85-.77 1.81-1.63 1.73-2.81-.01-.32-.1-.84-.23-1.58l-.03-.14c-.2-1.19-.12-2.81.22-4.35.62-2.79 2.57-7.55 8.62-8.14.25 0 .51-.01.77-.01m0-1c-.29 0-.58.01-.86.04-5.34.52-8.43 4.14-9.5 8.92-.39 1.73-.45 3.48-.23 4.73.03.15.25 1.25.25 1.59.11 1.31-2.49 2.44-2.88 3.86-.29 1.07 1.92 1.9 2.08 2.11.82 1.03-.88 5.52 5.27 6.42 2.07.3 2.23.12 2.96.28 1.9.41 2.85 4.65 2.85 4.65s.71 3.37 3.84 3.37c.37 0 .78-.05 1.22-.15 4.76-1.14 3.63-5.42 3.63-5.42s-3.01-3.92.15-8.79c2.42-3.72 4.31-11.54 2.86-14.26-2.11-3.99-7.09-7.35-11.64-7.35z" fill="url(#h)"/><path d="M47.99 29.49c.85.1 1.72-.04 2.48-.53.83-.54.33-1.23-.6-.9-.56.2-1.35.26-2.04.08l.16 1.35z" fill="#6D4C41"/><ellipse transform="rotate(-88.052 52.114 21.88)" cx="52.12" cy="21.88" rx="1.74" ry="1.14" fill="#5D4037"/><path d="M51.49 19.47c-1.09.38-1.39-.33-1.05-.94.25-.45.9-.85 2.2-.66 1.23.17 1.77.84 2.12 1.25s.34.84.06.89c-.38.07-1.99-1.01-3.33-.54z" fill="#AB872F"/><radialGradient id="i" cx="-.585" cy="58.363" r="11.388" gradientTransform="matrix(1.0687 .0339 -.0196 1.0119 58.835 -48.227)" gradientUnits="userSpaceOnUse"><stop stop-color="#BFA055" offset="0"/><stop stop-color="#AB872F" offset="1"/></radialGradient><path d="M60.08 22.15l1.02-1.38c.64-.78 1.22-1.46 1.98-1.27 2.25.57 1.73 4.52-.98 5.31 0 0 .35 3 3.19 3.86.3.09.56.15.8.18.77.11 1.4-.44 1.62-1.17 1.4-4.54 2.94-3.56 4.18-8.86 1.7-7.28-4.75-12.39-11.09-13.11-2.47-.28-5.05-.03-7.36.88-.98.37-4.4 1.96-5.2 3.49-1.02 1.96.13 3.73.13 3.73s6.65-.17 9.66.63c.4.1.84.26 1.01.63.07.16.08 1.17.08 1.35.05 2.28-.21 3.7.41 5.17.1.23.55.56.55.56z" fill="url(#i)"/><path d="M71.04 10.74c-2.11-2.93-6.2-5.04-10.2-5.5-2.69-.31-5.31.01-7.59.91-.04.02-4.39 1.77-5.45 3.71-1.14 2.08-.29 3.39-.08 3.63.37.43 1.15.32 1.15.32-.54-.62-.84-2.28-.2-3.51.69-1.32 3.86-2.85 4.95-3.26 2.14-.84 4.6-1.13 7.13-.85 3.73.42 7.55 2.38 9.51 5.1 1.57 2.18 2.08 4.75 1.45 7.43-.65 2.77-1.36 3.75-2.12 4.78-.68.93-1.65 1.89-2.32 4.05-.14.46-1.24 1.31-1.16 1.31 1.03.1 1.8-.09 2.09-1.03.62-2.01 1.51-2.87 2.18-3.78.78-1.07 1.59-2.17 2.28-5.12.68-2.94.12-5.78-1.62-8.19z" fill="#8F7635"/><linearGradient id="j" x1="72.856" x2="79.272" y1="50.975" y2="58.475" gradientUnits="userSpaceOnUse"><stop stop-color="#FFB300" offset="0"/><stop stop-color="#FFCA28" offset="1"/></linearGradient><path d="M73.73 65.36l9.89-6.67v-.01c3.79-5.18.6-7.58.6-7.58l-9.16-10.9-5.64 5.83 8.04 8.04-6.01 5.55 2.28 5.74z" fill="url(#j)"/><radialGradient id="k" cx="-208.9" cy="356.19" r="7.791" gradientTransform="matrix(-.096 -.3089 .5086 .1582 -133.29 -63.548)" gradientUnits="userSpaceOnUse"><stop stop-color="#FFC107" offset="0"/><stop stop-color="#FFA000" offset="1"/></radialGradient><path d="M71.3 61c.29-.55.09-1.23-.46-1.52l-3.73-1.99c-.55-.29-1.23-.09-1.52.46s-.09 1.23.46 1.52l3.73 1.99c.54.29 1.22.08 1.52-.46z" fill="url(#k)"/><radialGradient id="l" cx="365.58" cy="-146.11" r="9.56" gradientTransform="matrix(.2711 -.0252 -.0723 .3477 -43.237 117.77)" gradientUnits="userSpaceOnUse"><stop stop-color="#FFC107" offset="0"/><stop stop-color="#FFA000" offset="1"/></radialGradient><path d="M65.09 61.16c.55.29 1.23.09 1.52-.46l.93-1.74c.29-.55.09-1.23-.46-1.52s-1.23-.09-1.52.46l-.93 1.74c-.3.54-.09 1.23.46 1.52z" fill="url(#l)"/><radialGradient id="m" cx="-561.67" cy="-493.49" r="9.317" gradientTransform="matrix(-.3249 -.8091 -.8361 .3358 -526.66 -223.93)" gradientUnits="userSpaceOnUse"><stop stop-color="#FFC107" offset=".3"/><stop stop-color="#FFA000" offset="1"/></radialGradient><path d="M69.54 60.41l2.5 4.9-2.68 3.58s-2.22 1.18-2.89.54c-.22-.21-.23-.78-.34-.91-.29-.33-.85-.19-1.19-.64-.17-.22-.17-.82-.16-1.15.01-.22-.23-.5-.45-.54-.46-.09-.7-.22-.89-.55-.19-.34-.2-.75-.08-1.14.11-.39-.06-.9-.43-1.07-.32-.14-.66-.75-.36-1.33.33-.64 2.21-1.68 2.21-1.68l4.76-.01z" fill="url(#m)"/><linearGradient id="n" x1="-565.89" x2="-561.44" y1="-502" y2="-495.61" gradientTransform="matrix(-.3249 -.8091 -.8331 .3346 -525.66 -224.33)" gradientUnits="userSpaceOnUse"><stop stop-color="#FFB300" offset="0"/><stop stop-color="#FFCA28" offset="1"/></linearGradient><path d="M70.06 58.93l2.67.75 1.83 5.05s-5.54 5.7-6.55 4.15c-.08-.12-.2-.59-.24-.77-.05-.22-.2-.29-.41-.39-.33-.15-.71-.36-.83-.65s-.11-.69-.07-1.03c.03-.24-.14-.45-.38-.5-.51-.1-.84-.19-1.04-.69-.16-.4-.29-.87-.13-1.26.18-.41-.02-1.04-.4-1.28-.21-.14-.53-.61-.39-1.31.22-1.09 5.94-2.07 5.94-2.07z" fill="url(#n)"/><path fill="none" d="M63.42 63.92l1.37-.89"/><path d="M75 41.61c1.85 2.02 6.92 7.6 8.44 9.45 1 1.22 1.37 2.58 1.1 4.05-.27 1.48-1.12 2.53-1.42 2.7-.02.01-.05.03-.07.04l-.99.68-8.29 5.59-.15.12c-1.54 1.54-3.75 3.47-4.89 3.85-.04.01-.07.03-.11.04-.56.26-1.08.44-1.42.48-.06-.24-.12-.51-.33-.75-.33-.37-.73-.49-.99-.56l-.1-.03c-.01-.1-.02-.26-.01-.52.02-.7-.55-1.41-1.25-1.55-.17-.03-.22-.06-.21-.06-.04-.07-.04-.21.01-.37.25-.85-.13-1.81-.86-2.2.11-.15.62-.58 1.61-1.17.41-.24.6-.74.44-1.19a.17.17 0 0 1 0-.1l.93-1.74s.02-.02.07-.04a.3.3 0 0 0 .08-.04l.01-.01c.02-.01.04-.01.06-.01h.02l3.39 1.57c.33.21.73.31 1.19.31.48 0 .93-.12 1.1-.17.17-.04.32-.12.45-.24l5.35-4.95a1.007 1.007 0 0 0 .01-1.46l-7.84-7.39L75 41.61m.06-1.41l-6.22 5.75 8.62 8.12-5.35 4.95c-.04.01-.45.14-.87.14-.25 0-.5-.05-.69-.19l-3.53-1.63a.971.971 0 0 0-.37-.07c-.15 0-.29.03-.42.08-.01 0-.02 0-.03.01-.03.01-.06.03-.1.05-.23.1-.43.25-.56.49l-.93 1.74c-.15.29-.16.61-.06.9-.49.29-1.73 1.05-1.99 1.56-.3.57.04 1.18.36 1.33.37.16.54.68.43 1.07-.12.4-.11.81.08 1.14s.43.46.89.55c.22.04.45.32.45.54-.01.34-.01.93.16 1.15.34.45.9.31 1.19.64.12.13.12.7.34.91.15.14.36.19.61.19.65 0 1.52-.37 1.97-.58 1.64-.55 4.47-3.28 5.28-4.09l8.29-5.59.99-.68c1.13-.64 3.54-4.66.6-8.25-1.88-2.32-9.14-10.23-9.14-10.23z" fill="#EDA600"/><radialGradient id="o" cx="33.114" cy="-101.68" r="15.311" gradientTransform="rotate(15.747 -489.456 61.59)" gradientUnits="userSpaceOnUse"><stop stop-color="#00BFA5" offset=".364"/><stop stop-color="#00B29A" offset=".812"/><stop stop-color="#00AB94" offset="1"/></radialGradient><path d="M60.63 68.47c-1.82 0-3.37-.11-4.04-.17-2.18-8.75-2.9-15.68-2.28-21.77.63-6.11 3.42-10.62 7.46-12.05.93-.33 1.81-.49 2.64-.49 2.75 0 4.81 1.8 5.82 5.07.47 1.54.46 2.23.44 3.18-.01.72-.03 1.62.17 3.08-.05.77-.37 7.91 5.26 16.88-.24.73-1.73 3.86-9.62 5.72-1.52.37-3.49.55-5.85.55z" fill="url(#o)"/><path d="M64.42 34.49c3.38 0 4.8 2.96 5.34 4.72.45 1.46.44 2.08.42 3.03-.01.73-.03 1.64.17 3.11-.06 1.04-.25 8.11 5.21 16.92-.4.89-2.15 3.53-9.18 5.18-1.49.35-3.43.53-5.75.53-1.53 0-2.87-.08-3.64-.14-2.1-8.53-2.79-15.3-2.18-21.25.61-5.92 3.27-10.26 7.13-11.63.88-.31 1.71-.47 2.48-.47m0-1c-.87 0-1.8.17-2.81.52-3.75 1.32-7.08 5.48-7.8 12.47-.57 5.54-.1 12.45 2.38 22.29 0 0 1.96.2 4.44.2 1.92 0 4.14-.12 5.98-.55 9.48-2.22 10.05-6.29 10.05-6.29-5.94-9.35-5.3-16.82-5.3-16.82-.48-3.37.24-3.55-.64-6.4-1.01-3.27-3.19-5.42-6.3-5.42z" fill="#009984"/><linearGradient id="p" x1="74.259" x2="80.009" y1="52.627" y2="58.877" gradientUnits="userSpaceOnUse"><stop stop-color="#CCA47A" offset=".002"/><stop stop-color="#D6B088" offset=".258"/><stop stop-color="#DEB892" offset=".59"/><stop stop-color="#E0BB95" offset="1"/></linearGradient><path d="M73.73 65.36l9.89-6.67v-.01c3.79-5.18.6-7.58.6-7.58l-9.16-10.9-5.64 5.83 8.04 8.04-6.01 5.55 2.28 5.74z" fill="url(#p)"/><linearGradient id="q" x1="65.446" x2="71.429" y1="59.469" y2="59.469" gradientUnits="userSpaceOnUse"><stop stop-color="#CCA47A" offset=".4"/><stop stop-color="#E0BB95" offset="1"/></linearGradient><path d="M71.3 61c.29-.55.09-1.23-.46-1.52l-3.73-1.99c-.55-.29-1.23-.09-1.52.46s-.09 1.23.46 1.52l3.73 1.99c.54.29 1.22.08 1.52-.46z" fill="url(#q)"/><linearGradient id="r" x1="66.438" x2="64.969" y1="58.757" y2="60.975" gradientUnits="userSpaceOnUse"><stop stop-color="#CCA47A" offset=".4"/><stop stop-color="#E0BB95" offset="1"/></linearGradient><path d="M65.09 61.16c.55.29 1.23.09 1.52-.46l.93-1.74c.29-.55.09-1.23-.46-1.52s-1.23-.09-1.52.46l-.93 1.74c-.3.54-.09 1.23.46 1.52z" fill="url(#r)"/><linearGradient id="s" x1="62.958" x2="71.457" y1="65.011" y2="65.011" gradientUnits="userSpaceOnUse"><stop stop-color="#CCA47A" offset=".4"/><stop stop-color="#E0BB95" offset="1"/></linearGradient><path d="M67.08 69.12c-.2 0-.26-.05-.26-.05-.02-.04-.07-.23-.09-.33-.05-.21-.09-.4-.23-.55-.23-.26-.52-.34-.75-.41-.21-.06-.33-.1-.41-.21 0 0-.08-.17-.06-.83.01-.46-.39-.96-.85-1.05-.38-.08-.46-.15-.55-.31-.11-.19-.12-.46-.04-.75.2-.66-.12-1.41-.71-1.67-.07-.04-.28-.33-.12-.64.15-.3 1.08-.95 1.89-1.41h4.33l2.22 4.35-2.42 3.24c-.42.21-1.36.62-1.95.62z" fill="url(#s)"/><path d="M68.93 61.41l1.94 3.8-2.16 2.9c-.45.22-1.08.46-1.49.51-.06-.24-.12-.51-.33-.75-.33-.37-.73-.49-.99-.56l-.1-.03c-.01-.1-.02-.26-.01-.52.02-.7-.55-1.41-1.25-1.55-.17-.03-.22-.06-.21-.06-.04-.07-.04-.21.01-.37.25-.85-.13-1.81-.86-2.2.15-.21.87-.73 1.59-1.15l3.86-.02m.61-1l-4.76.01s-1.88 1.05-2.21 1.68c-.3.57.04 1.18.36 1.33.37.16.54.68.43 1.07-.12.4-.11.81.08 1.14s.43.46.89.55c.22.04.45.32.45.54-.01.34-.01.93.16 1.15.34.45.9.31 1.19.64.12.13.12.7.34.91.14.14.36.19.61.19.91 0 2.28-.73 2.28-.73l2.68-3.58-2.5-4.9z" fill="#BA8F63"/><linearGradient id="t" x1="-565.89" x2="-561.44" y1="-502" y2="-495.61" gradientTransform="matrix(-.3249 -.8091 -.8331 .3346 -525.66 -224.33)" gradientUnits="userSpaceOnUse"><stop stop-color="#CCA47A" offset=".002"/><stop stop-color="#D6B088" offset=".258"/><stop stop-color="#DEB892" offset=".59"/><stop stop-color="#E0BB95" offset="1"/></linearGradient><path d="M70.06 58.93l2.67.75 1.83 5.05s-5.54 5.7-6.55 4.15c-.08-.12-.2-.59-.24-.77-.05-.22-.2-.29-.41-.39-.33-.15-.71-.36-.83-.65s-.11-.69-.07-1.03c.03-.24-.14-.45-.38-.5-.51-.1-.84-.19-1.04-.69-.16-.4-.29-.87-.13-1.26.18-.41-.02-1.04-.4-1.28-.21-.14-.53-.61-.39-1.31.22-1.09 5.94-2.07 5.94-2.07z" fill="url(#t)"/><path fill="none" d="M63.42 63.92l1.37-.89"/><path d="M75 41.61c1.85 2.02 6.92 7.6 8.44 9.45 1 1.22 1.37 2.58 1.1 4.05-.27 1.48-1.12 2.53-1.42 2.7-.02.01-.05.03-.07.04l-.99.68-8.29 5.59-.15.12c-1.54 1.54-3.75 3.47-4.89 3.85-.04.01-.07.03-.11.04-.56.26-1.08.44-1.42.48-.06-.24-.12-.51-.33-.75-.33-.37-.73-.49-.99-.56l-.1-.03c-.01-.1-.02-.26-.01-.52.02-.7-.55-1.41-1.25-1.55-.17-.03-.22-.06-.21-.06-.04-.07-.04-.21.01-.37.25-.85-.13-1.81-.86-2.2.11-.15.62-.58 1.61-1.17.41-.24.6-.74.44-1.19a.17.17 0 0 1 0-.1l.93-1.74s.02-.02.07-.04a.3.3 0 0 0 .08-.04l.01-.01c.02-.01.04-.01.06-.01h.02l3.39 1.57c.33.21.73.31 1.19.31.48 0 .93-.12 1.1-.17.17-.04.32-.12.45-.24l5.35-4.95a1.007 1.007 0 0 0 .01-1.46l-7.84-7.39L75 41.61m.06-1.41l-6.22 5.75 8.62 8.12-5.35 4.95c-.04.01-.45.14-.87.14-.25 0-.5-.05-.69-.19l-3.53-1.63a.971.971 0 0 0-.37-.07c-.15 0-.29.03-.42.08-.01 0-.02 0-.03.01-.03.01-.06.03-.1.05-.23.1-.43.25-.56.49l-.93 1.74c-.15.29-.16.61-.06.9-.49.29-1.73 1.05-1.99 1.56-.3.57.04 1.18.36 1.33.37.16.54.68.43 1.07-.12.4-.11.81.08 1.14s.43.46.89.55c.22.04.45.32.45.54-.01.34-.01.93.16 1.15.34.45.9.31 1.19.64.12.13.12.7.34.91.15.14.36.19.61.19.65 0 1.52-.37 1.97-.58 1.64-.55 4.47-3.28 5.28-4.09l8.29-5.59.99-.68c1.13-.64 3.54-4.66.6-8.25-1.88-2.32-9.14-10.23-9.14-10.23z" fill="#BA8F63"/><path d="M73.87 51.36c-1.27-.85-5.67-3.88-7.19-5.7-2.18-2.61-2.64-4.99-1.36-7.08.59-.97 1.65-1.5 2.98-1.5s2.81.54 4.05 1.47c3.39 2.56 5.95 3.17 6.98 3.31-.2 3.72-4.33 8.31-5.46 9.5z" fill="#04A287"/><path d="M68.3 37.58c1.23 0 2.59.5 3.75 1.37 3.03 2.29 5.44 3.06 6.74 3.32-.42 2.95-3.32 6.63-4.99 8.43-1.57-1.07-5.37-3.73-6.74-5.37-2.03-2.43-2.47-4.61-1.32-6.5.64-1.03 1.75-1.25 2.56-1.25m0-1c-1.42 0-2.68.55-3.41 1.74-1.29 2.11-1.08 4.69 1.4 7.66 1.84 2.21 7.64 6.02 7.64 6.02s6.06-5.99 5.9-10.6c0 0-2.89-.01-7.19-3.26-1.34-1.01-2.92-1.56-4.34-1.56z" fill="#008F76"/><path d="M44.93 120.1l-15.17-2.48c-.13-.02-.24-.09-.32-.2s-.11-.24-.08-.36l.21-1.23a3.447 3.447 0 0 1 2.67-2.79l6.34-1 6.48 1.06c.33.58 1.27 2.37 1.04 3.74l-.44 2.73c-.05.31-.31.53-.62.53h-.11z" fill="#4568AD"/><path d="M38.58 112.55l6.17 1.01c.41.77 1.03 2.2.87 3.2l-.44 2.73c-.01.07-.07.11-.15.11h-.01l-15.16-2.46.21-1.23a2.95 2.95 0 0 1 2.26-2.38l6.25-.98m0-1.01l-6.45 1.01c-1.58.34-2.79 1.6-3.06 3.19l-.21 1.23c-.09.54.27 1.05.81 1.14l15.17 2.48c.06.01.12.01.18.01.54 0 1.02-.39 1.11-.95l.44-2.73c.3-1.85-1.22-4.27-1.22-4.27l-6.77-1.11z" fill="#315499"/></svg>