<svg viewBox="0 0 128 128" width="128" height="128" xmlns="http://www.w3.org/2000/svg" xmlns:xlink="http://www.w3.org/1999/xlink"><defs><path id="a" d="M4 4h120v120H4z"/></defs><clipPath id="b"><use xlink:href="#a"/></clipPath><radialGradient id="c" cx="25.719" cy="78.534" r="122.64" gradientTransform="matrix(.9091 -.4166 .0629 .1373 -2.604 78.464)" gradientUnits="userSpaceOnUse"><stop stop-color="#E1F5FE" offset=".334"/><stop stop-color="#B3E5FC" offset="1"/></radialGradient><path d="M102.12 51.29c-13.53 14.13-18.9 17.56-54.7 34.87-17.84 8.62-36.27 9.22-42.22 13.08-23.23 15.1-.89 18.65-.89 18.65h46.38l87.11-34.41-5.35-69.87c0 .01-11.89 18.44-30.33 37.68z" clip-path="url(#b)" fill="url(#c)" stroke="#B3E5FC" stroke-linecap="round" stroke-linejoin="round" stroke-miterlimit="10"/><g clip-path="url(#b)"><radialGradient id="d" cx="52.732" cy="91.108" r="157.91" gradientTransform="matrix(.8866 -.4625 .2243 .4299 -14.453 76.33)" gradientUnits="userSpaceOnUse"><stop stop-color="#fff" offset=".214"/><stop stop-color="#B3E5FC" offset="1"/></radialGradient><path d="M128 128H0v-12.32s13.72-8.48 29.28-17.63c18.73-11 46.38-12.78 77-42.81 12.05-11.81 32.41-19.03 32.41-19.03L128 128z" fill="url(#d)"/></g><path clip-path="url(#b)" fill="none" stroke="#94CDE8" stroke-linecap="round" stroke-linejoin="round" stroke-miterlimit="10" stroke-width="3" d="M128 46.43V128H0v-12.32"/><g clip-path="url(#b)"><path d="M110.16 85.16c-1.82-3.35-6.68-4.22-10.58-2.84-5.39 1.91-10.17 6.17-12.4 7.11L55.4 102.72c-4.39 1.28-10.24 1.28-14.9 2.62-5.65 1.61-7.26 4.69-7.33 9.36-.07 5.03 3.98 9.14 9 9.14 3.39 0 6.14-1.38 7.83-2.83 0 0 4.72-3.79 8.39-5.45l34.74-14.53c2.18-.91 5.88-1.49 9.32-2.24 13.22-2.9 9.56-10.93 7.71-13.63z" fill="#B3E5FC"/><linearGradient id="e" x1="34.326" x2="111.54" y1="102.09" y2="96.865" gradientUnits="userSpaceOnUse"><stop stop-color="#EF5350" offset=".171"/><stop stop-color="#EA4643" offset=".62"/><stop stop-color="#E53935" offset=".985"/></linearGradient><path d="M106.16 82.16c-1.82-3.35-6.68-4.22-10.58-2.84-5.39 1.91-10.17 6.17-12.4 7.11L51.4 99.72c-4.39 1.28-10.24 1.28-14.9 2.62-5.65 1.61-7.26 4.69-7.33 9.36-.07 5.03 3.98 9.14 9 9.14 3.39 0 6.14-1.38 7.83-2.83 0 0 4.72-3.79 8.39-5.45l34.74-14.53c2.18-.91 5.88-1.49 9.32-2.24 13.22-2.9 9.56-10.93 7.71-13.63z" fill="url(#e)" stroke="#B71C1C" stroke-linecap="round" stroke-linejoin="round" stroke-miterlimit="10"/><circle cx="56.29" cy="57.81" r="6.85" fill="#616161"/><g fill="#7C7C7C"><path d="M59.791 65.709L65.29 53.39l17.595 7.855-5.498 12.317z"/><path d="M73.516 69.188l13.136-3.064 4.635 19.865-13.136 3.065z"/><circle cx="80.08" cy="67.33" r="6.69"/><circle cx="62.43" cy="59.55" r="6.69"/></g><g fill="#7C7C7C"><path d="M45.044 67.64l13.142-7.291 7.81 14.078-13.142 7.29z"/><path d="M47.17 99.2l7.34-22.74 12.87 3.99-6.54 21.12z"/><circle cx="59.94" cy="78.93" r="7.59"/><path d="M55.13 70.43c-3.6 2-8.13.7-10.13-2.9s-3.06-10.37.54-12.36 10.5 1.54 12.49 5.13c2 3.6.7 8.14-2.9 10.13z"/></g><linearGradient id="f" x1="88.4" x2="100" y1="55.788" y2="55.788" gradientTransform="rotate(34.629 114.942 54.681)" gradientUnits="userSpaceOnUse"><stop stop-color="#5C4037" offset="0"/><stop stop-color="#63463D" offset=".158"/><stop stop-color="#6D5047" offset=".533"/><stop stop-color="#70534A" offset="1"/></linearGradient><path d="M100.75 47.7c-.56 0-1.24-.19-2.01-.41-.43-.12-.89-.25-1.37-.36-.04-.01-.07-.01-.11-.01h-.03c-.01 0-.46.02-1.09.02-1.47 0-2.58-.13-3.04-.35-.25-.12-2.42-1.26-1.78-4.11l.04-.18c.94-2.04 2.69-3.08 5.2-3.08 1.43 0 2.57.36 2.59.36 2.89 1.14 3.87 4.19 3.33 6.6l-.05.23c-.5 1.12-1.11 1.29-1.68 1.29z" fill="url(#f)"/><path d="M96.56 39.72c1.23 0 2.23.28 2.41.33 2.63 1.06 3.51 3.83 3.02 6.02l-.03.14c-.41.91-.81.99-1.2.99-.5 0-1.14-.18-1.88-.39-.44-.13-.9-.25-1.4-.37-.07-.02-.15-.02-.22-.02h-.05c-.01 0-.46.02-1.07.02-1.62 0-2.52-.16-2.82-.3-.21-.1-2.07-1.07-1.51-3.55l.03-.13c.84-1.82 2.43-2.74 4.72-2.74m0-1c-1.94 0-4.42.62-5.68 3.42l-.05.23c-.58 2.59.93 4.13 2.05 4.67.7.34 2.21.4 3.26.4.65 0 1.12-.02 1.12-.02 1.35.3 2.52.78 3.5.78.89 0 1.61-.39 2.16-1.67l.05-.23c.58-2.59-.46-5.92-3.67-7.19-.01 0-1.21-.39-2.74-.39z" fill="#4A2F27"/><radialGradient id="g" cx="53.114" cy="39.058" r="6.239" gradientTransform="rotate(-39.547 62.868 29.654)" gradientUnits="userSpaceOnUse"><stop stop-color="#00AB94" offset="0"/><stop stop-color="#00B29A" offset=".188"/><stop stop-color="#00BFA5" offset=".636"/></radialGradient><circle cx="61.34" cy="43.12" r="6.24" fill="url(#g)"/><path d="M62.43 53.87c.8 0 1.58.17 2.3.49l.1.05c.13.06.28.09.42.09h.07l16.95 7.57c.06.04.12.08.19.11a5.64 5.64 0 0 1 3.16 3.86c.01.04.02.09.02.13l.02.13c.01.07.03.14.06.2l4.37 18.73-11.19 2.62-3.31-14.19a4.642 4.642 0 0 0-2.61-3.16l-10.95-4.89a.978.978 0 0 0-.41-.09c-.27 0-.54.11-.74.32-.29.32-.35.78-.14 1.16l4.3 7.74c1.09 1.95 1.73 3.63 1.35 5.49-.01.03-.02.05-.02.08-.04.18-.08.36-.14.55-.06.18-.12.36-.19.53-.01.03-.02.05-.03.08l-5.91 19.08-11.29.09-.59-1.5 4.91-15.36c.47-1.47.31-3.09-.44-4.44L46 67.29c-.02-.05-.04-.11-.07-.16a.405.405 0 0 1-.05-.09c-1.84-3.32-2.73-9.41.15-11 .54-.3 1.22-.45 2.01-.45 2.22 0 5.14 1.23 7.28 3.06a.987.987 0 0 0 .95.19c.33-.1.58-.37.67-.7.09-.34.19-.64.31-.91.9-2.04 2.94-3.36 5.18-3.36m0-1c-2.56 0-5 1.48-6.11 3.96-.16.35-.27.71-.36 1.06-2.17-1.86-5.32-3.3-7.93-3.3-.92 0-1.77.18-2.49.58-3.6 2-2.53 8.77-.54 12.36.02.03.04.07.06.1l-.01.01 6.77 12.21c.62 1.12.75 2.44.36 3.65l-5.02 15.7.97 2.47 12.7-.1 6.13-19.78c.08-.2.16-.4.22-.61s.11-.42.16-.63l.03-.1c.46-2.23-.32-4.15-1.46-6.18l-4.3-7.74 10.95 4.89a3.58 3.58 0 0 1 2.04 2.47l3.54 15.16 13.14-3.07-4.63-19.86h-.01c-.02-.1-.03-.21-.06-.31a6.7 6.7 0 0 0-3.71-4.55l.01-.02-17.6-7.86-.05.11c-.03-.01-.06-.03-.09-.05-.87-.39-1.8-.57-2.71-.57z" fill="#5B5B5B"/><linearGradient id="h" x1="66.435" x2="99.332" y1="39.923" y2="47.556" gradientUnits="userSpaceOnUse"><stop stop-color="#ED6D23" offset=".189"/><stop stop-color="#F37F21" offset=".326"/><stop stop-color="#F78C1F" offset=".46"/></linearGradient><path d="M93.49 38.75l-12.72-.62s-14.5-5.7-16.93-5.78l-3.05 11.13s12.32 5.5 16.44 6.4c4.25.93 15.56-2.13 15.56-2.13 3.79-4.08.7-9 .7-9z" fill="url(#h)" stroke="#DA6727" stroke-linecap="round" stroke-linejoin="round" stroke-miterlimit="10"/><linearGradient id="i" x1="56.29" x2="56.916" y1="39.073" y2="67.675" gradientUnits="userSpaceOnUse"><stop stop-color="#ED6D23" offset=".189"/><stop stop-color="#F37F21" offset=".326"/><stop stop-color="#F78C1F" offset=".46"/></linearGradient><path d="M59.9 29.98l-8.89.33c-4.38.16-7.8 3.67-7.65 7.83l.11 18.73c.17 4.54 1.94 10.07 10.11 8.21 10.44-2.38 16.15-5.58 16.24-8.85.18-6.95-1.69-13.55-2.44-20.31-.15-4.16-3.1-6.1-7.48-5.94z" fill="url(#i)" stroke="#DA6727" stroke-linecap="round" stroke-linejoin="round" stroke-miterlimit="10"/><linearGradient id="j" x1="33.074" x2="33.074" y1="65.254" y2="73.924" gradientTransform="rotate(-12.674 17.733 91.833)" gradientUnits="userSpaceOnUse"><stop stop-color="#5C4037" offset="0"/><stop stop-color="#63463D" offset=".158"/><stop stop-color="#6D5047" offset=".533"/><stop stop-color="#70534A" offset="1"/></linearGradient><path d="M27.28 71.13c-1.96 0-3.67-.68-4.57-1.82-.73-.92-.93-2.09-.59-3.5.47-1.99 2.49-2.14 3.09-2.14h.17c.09 0 .18-.02.26-.07.03-.02 3.12-1.85 5.27-1.85.6 0 1.06.15 1.35.44l.72.71c.39 3.92.05 7.59-4.73 8.17-.32.04-.65.06-.97.06z" fill="url(#j)"/><path d="M30.9 62.25c.47 0 .8.1 1.01.3l.59.57c.39 4.12-.25 6.95-4.31 7.44-.3.04-.61.06-.92.06-1.81 0-3.37-.61-4.18-1.63-.63-.79-.79-1.83-.5-3.07.37-1.58 1.95-1.76 2.61-1.76h.17c.18 0 .36-.05.51-.14.83-.49 3.35-1.77 5.02-1.77m0-1c-2.32 0-5.53 1.92-5.53 1.92h-.17c-.65 0-3.03.17-3.58 2.53-.96 4.07 2.37 5.94 5.65 5.94.35 0 .7-.02 1.04-.06 5.4-.66 5.56-5 5.14-8.9l-.85-.83c-.41-.44-1.02-.6-1.7-.6z" fill="#4A2F27"/><radialGradient id="k" cx="34.96" cy="39.355" r="27.436" gradientTransform="rotate(24.77 48.403 43.532)" gradientUnits="userSpaceOnUse"><stop stop-color="#F78C1F" offset=".364"/><stop stop-color="#F37F21" offset=".678"/><stop stop-color="#ED6D23" offset="1"/></radialGradient><path d="M34.56 62.32s-2.15 1.98-4.71 2.34-4.48-1.49-4.48-1.49c-.74-4.94-.6-11.44.12-16.17l11.62 2.36-2.55 12.96z" fill="url(#k)"/><radialGradient id="l" cx="124.88" cy="-24.714" r="24.633" gradientTransform="rotate(45.725 7.988 -92.103)" gradientUnits="userSpaceOnUse"><stop stop-color="#F78C1F" offset=".364"/><stop stop-color="#F78C1F" offset="1"/></radialGradient><path d="M26.19 45.5l5.73 5.25 15.76-4.21-5.55-11.01c-6.12 1.8-13.51 4.47-15.94 9.97z" fill="url(#l)"/><radialGradient id="m" cx="35.434" cy="40.279" r="26.835" gradientTransform="rotate(24.77 48.403 43.532)" gradientUnits="userSpaceOnUse"><stop stop-color="#F78C1F" offset=".363"/><stop stop-color="#F37F21" offset=".678"/><stop stop-color="#ED6D23" offset="1"/></radialGradient><circle cx="30.48" cy="48.98" r="5.5" fill="url(#m)"/><circle cx="45.5" cy="40.77" r="6.24" fill="#F78C1F"/><defs><path id="n" d="M44.73 30.18l-3.25-.13s.73 1.25 1.29 2.5c1.14 2.57 3.28 5.19 7.96 4.33.42-.08-2.98-5.73-2.98-5.73l-3.02-.97z"/></defs><clipPath id="o"><use xlink:href="#n"/></clipPath><g clip-path="url(#o)"><path d="M39.53 33.03c1.92 1.83 5.58 2.52 7.53.4.74-.81-.16-1.61-.9-.8-1.31 1.42-4.44.51-5.65-.64-.8-.76-1.77.28-.98 1.04z" fill="#795548"/></g><ellipse transform="rotate(-4.095 46.958 26.215)" cx="46.95" cy="26.21" rx="1.26" ry="2.28" fill="#404040"/><path d="M45.59 23.2c-1.52.4-2-.41-1.55-1.08.32-.49 1.23-.92 3.09-.68 1.76.23 2.57.99 3.1 1.46.52.47.53.94.14.99-.54.08-2.89-1.18-4.78-.69z" fill="#6D4C41"/><radialGradient id="p" cx="69.913" cy="-96.646" r="14.656" gradientTransform="matrix(1.0187 -.107 .1089 .9812 -9.033 114.19)" gradientUnits="userSpaceOnUse"><stop stop-color="#6D4C41" offset="0"/><stop stop-color="#543930" offset="1"/></radialGradient><path d="M57.42 28.58l.12-5.64s4.46.78 3.52 4.67c-.64 2.64 1.21 5.44 2.42 5.64l.7.18c1.07-3.96 5.87-5.36 6.22-15.64.3-8.92-6.99-12.92-14.48-13.02-8.59-.11-15.57 5.51-14.66 13.24l6.69-.2c4.13.1 6.23 10.59 9.47 10.77z" fill="url(#p)"/><defs><path id="q" d="M45.85 13.34l19.36 9.9-1.81 7.36s-1.12 1.81-.91 2.1c.35.47 1.69.74 1.69.74 1.07-3.96 5.87-5.36 6.22-15.64.3-8.92-6.99-12.92-14.48-13.02-8.59-.11-15.57 5.51-14.66 13.24l2.07-.06-.22-1.91 2.74-2.71z"/></defs><clipPath id="r"><use xlink:href="#q"/></clipPath><g clip-path="url(#r)"><path d="M55.67 6.77h.23c4.15.05 7.79 1.41 10 3.72 1.77 1.85 2.61 4.28 2.51 7.23-.21 6.19-2.11 8.71-3.78 10.94-.43.57-.87 1.15-1.26 1.78-.32-.64-.56-1.51-.36-2.36.49-2.02-.08-3.47-.64-4.33-1.43-2.19-4.17-2.73-4.48-2.78l-2.29-.4-.05 2.33-.02.69c-.17-.31-.33-.6-.47-.86-1.73-3.21-3.7-6.84-7.05-6.92h-.1l-4.68.14c.15-1.88.9-3.61 2.2-5.08 2.28-2.56 6.11-4.1 10.24-4.1m0-2c-8.48 0-15.31 5.59-14.4 13.24l6.69-.2c4.12.09 6.22 10.59 9.46 10.77l.12-5.64s4.46.78 3.52 4.67c-.64 2.64 1.21 5.44 2.42 5.64l.7.18c1.07-3.96 5.87-5.36 6.22-15.64.3-8.92-6.99-12.92-14.48-13.02h-.25z" fill="#452B22"/></g><linearGradient id="s" x1="52.216" x2="74.479" y1="11.417" y2="34.153" gradientTransform="rotate(1.301 194.257 -195.452)" gradientUnits="userSpaceOnUse"><stop stop-color="#EF5350" offset=".176"/><stop stop-color="#EA4643" offset=".623"/><stop stop-color="#E53935" offset=".985"/></linearGradient><path d="M63.7 32.52c-.4 0-.85-.12-1.32-.35-.21-.1-.39-.19-.56-.26-.95-.44-.95-.44-.97-1.8-.01-.47.03-1.18.07-1.99.18-3.51.23-6.49-.92-7.41-1.7-1.37-7.62-1.41-13.35-1.45-3.2-.02-6.22-.04-8.04-.31-.44-.06-.69-.17-.75-.31-.07-.16.06-.45.36-.8.38-.45.89-.84 1.38-1.23.55-.43 1.12-.87 1.54-1.4.43-.53.64-1.16.84-1.76.1-.3.2-.6.33-.88 1.47-3.25 4.78-5.6 9.82-6.97 1.31-.35 2.69-.54 4.1-.54 4.84 0 9.86 2.09 13.1 5.45 6.44 6.67 1.52 14.31-.89 17.28-.44.54-.84 1.12-1.23 1.68-1.13 1.64-2.11 3.05-3.51 3.05z" fill="url(#s)"/><path d="M56.23 5.57c4.71 0 9.59 2.03 12.74 5.3 6.16 6.38 1.41 13.75-.91 16.62-.45.56-.86 1.14-1.25 1.71-1.05 1.51-1.96 2.82-3.11 2.82-.33 0-.7-.1-1.11-.3-.21-.1-.4-.19-.56-.27-.24-.11-.52-.24-.62-.31-.05-.18-.06-.72-.07-1.04-.01-.46.03-1.15.07-1.96.19-3.9.23-6.75-1.1-7.82-1.71-1.37-6.51-1.51-13.65-1.56-3.18-.02-6.19-.04-7.98-.3-.11-.02-.2-.03-.26-.05.04-.06.1-.14.18-.24.34-.4.81-.77 1.31-1.15.57-.44 1.16-.9 1.63-1.48.48-.6.72-1.3.93-1.92.1-.3.2-.58.31-.83.52-1.16 2.12-4.69 9.5-6.69 1.25-.35 2.58-.53 3.95-.53m0-1c-1.42 0-2.85.17-4.23.55-7.31 1.99-9.36 5.51-10.15 7.25-.39.85-.54 1.83-1.11 2.54-.77.96-2.09 1.63-2.92 2.62-.32.38-.63.88-.43 1.33.18.41.69.53 1.14.6 5.01.72 18.67-.34 21.15 1.65 1.37 1.1.62 6.98.66 9.02.04 1.9.1 1.67 1.81 2.5.57.27 1.08.4 1.54.4 2.22 0 3.42-2.78 5.14-4.9 4.02-4.96 6.57-12.03.86-17.94-3.17-3.31-8.29-5.62-13.46-5.62z" fill="#B71C1C"/><path d="M57.46 106.45c-.66 0-1.3-.07-1.91-.2-1.87-.41-4.61-1.42-6.58-2.2-.89-.35-1.47-1.2-1.47-2.17v-1.75c0-.47.34-.87.81-.95l13.23-1.8c2.45.36 3.33 2.41 2.87 6.61-.03.28-.21.54-.47.68-1.22.67-3.73 1.78-6.48 1.78z" fill="#4568AD"/><path d="M61.55 97.89c1.5.24 2.91 1.21 2.38 6.05-.01.12-.09.23-.21.29-.97.52-3.52 1.72-6.26 1.72-.62 0-1.23-.06-1.8-.19-1.94-.42-4.91-1.54-6.51-2.18-.7-.28-1.15-.94-1.15-1.7v-1.75c0-.23.16-.42.37-.45l13.18-1.79m.01-1.01l-13.31 1.81c-.71.11-1.23.72-1.23 1.44v1.75c0 1.16.7 2.2 1.78 2.63 1.84.73 4.71 1.8 6.66 2.22.68.15 1.35.21 2.01.21 2.91 0 5.56-1.21 6.73-1.84.4-.22.68-.61.73-1.06.37-3.4.04-6.7-3.37-7.16z" fill="#315499"/><path d="M90.04 92.39c-.25 0-.51-.01-.77-.02-2.21-.11-7.13-.68-9.86-1-.71-.08-1.25-.67-1.28-1.38l-.17-3.29 12.47-2.06c3.06.44 6.33 2.48 6.39 5.44.01.28-.13.55-.37.69-1.01.59-3.17 1.62-6.41 1.62z" fill="#4568AD"/><path d="M90.43 85.13c2.84.43 5.83 2.28 5.88 4.94 0 .11-.05.2-.13.25-.96.58-3.03 1.56-6.14 1.56-.24 0-.49-.01-.75-.02-2.22-.11-7.11-.68-9.83-1a.954.954 0 0 1-.84-.91l-.14-2.85 11.95-1.97m-.01-1.01l-12.98 2.15.19 3.73c.05.96.77 1.74 1.72 1.86 2.6.31 7.62.89 9.9 1.01.27.01.54.02.8.02 3.39 0 5.67-1.1 6.66-1.71.39-.24.62-.67.61-1.13-.07-3.24-3.51-5.47-6.9-5.93z" fill="#315499"/><path d="M79.49 26.73c-5.95 3.62-5.18 6.21-10.61 10.87-4.85 4.16-10.35 6.21-17.6 3.11-11.85-5.08-10.09-10.87-10.09-10.87s2.85 3.88 14.49 3.36c8.27-.37 10.09-2.85 13.46-6.21s1.04-5.69 8.28-9.32c7.25-3.62 15.01-2.59 15.01-2.59L102 23.1s-16.56 0-22.51 3.63z" fill="#039BE5"/><path d="M43.62 35.73c2.42 0 5.54 1.83 6.67 3.92.44.82.48 1.74.09 2.74-.58 1.53-2.01 2.83-3.05 3.21-2.16.78-10.25 3.57-10.33 3.6-.33.11-.57.39-.65.72l-2.9 12.75c-.62.41-2.24 1.35-4.23 1.35-1.21 0-2.36-.36-3.43-1.07-.06-2.29-.3-11.89.17-15.96.59-5.14 11.24-9.11 15.79-10.8.04-.02.09-.04.13-.06.5-.27 1.08-.4 1.74-.4m0-1c-.79 0-1.55.16-2.21.52-5.7 2.12-15.79 6-16.44 11.63-.54 4.75-.16 16.6-.16 16.6 1.52 1.15 3.04 1.54 4.41 1.54 2.91 0 5.12-1.76 5.12-1.76l2.98-13.12s8.16-2.82 10.35-3.6c2.19-.79 5.14-4.34 3.5-7.36-1.29-2.37-4.68-4.45-7.55-4.45z" fill="#DA6727"/><path d="M57.42 41.3c-2.4 0-4.74-.49-6.96-1.46-8.98-3.93-9.46-8.44-9.28-10.13 1.43.93 5.29 2.82 13 2.82.71 0 1.45-.02 2.23-.05 7.13-.32 8.87-2.22 11.27-4.86.45-.49.92-1.01 1.46-1.56 1.19-1.19 1.74-2.11 2.23-2.92.9-1.51 1.61-2.7 6.26-5.02 4.42-2.21 9.02-2.67 12.11-2.67 1.25 0 2.14.08 2.47.12l8.43 7.06c-4.12.08-16.36.6-21.42 3.68-3.41 2.08-4.71 3.88-6.08 5.78-1.1 1.53-2.25 3.12-4.6 5.13-3.06 2.63-7.02 4.08-11.12 4.08z" fill="#039BE5"/><path d="M89.75 15.94c1.07 0 1.88.06 2.27.1l7.3 6.12c-5.01.17-15.65.86-20.35 3.72-3.5 2.13-4.82 3.97-6.23 5.92-1.09 1.51-2.21 3.07-4.52 5.05-2.98 2.55-6.82 3.96-10.81 3.96-2.33 0-4.6-.48-6.75-1.42-7.55-3.3-8.9-6.91-9.01-8.82 1.9 1.02 5.78 2.47 12.53 2.47.73 0 1.49-.02 2.26-.05 7.34-.33 9.23-2.4 11.62-5.02.45-.5.92-1.01 1.45-1.54 1.23-1.23 1.8-2.18 2.3-3.02.86-1.44 1.54-2.58 6.06-4.83 4.32-2.18 8.84-2.64 11.88-2.64m0-1c-2.9 0-7.72.42-12.33 2.73-7.25 3.62-5.25 4.68-8.62 8.04-3.36 3.36-4.13 5.9-12.4 6.27-.77.03-1.51.05-2.21.05-9.93 0-13.33-3.19-13.33-3.19s-2.41 6.28 9.41 11.45a17.76 17.76 0 0 0 7.15 1.5c4.26 0 8.35-1.53 11.46-4.2 5.44-4.66 4.66-7.25 10.61-10.87S102 23.1 102 23.1l-9.58-8.02c.01 0-1.02-.14-2.67-.14z" fill="#0089CC"/></g><g clip-path="url(#b)" fill="#fff"><path d="M106.45 74.95c.01-.01.02-.01.03-.03 1.23-1.08.39-3.2-1.31-2.93-.05 0-.09.01-.13.02-.98.24-1.63 1.08-1.91 2.01-.14.48-.26.96-.36 1.45-.05.24-.11.49-.13.73-.01.14.06.39.22.42.23.05.65-.14.87-.22.97-.31 1.93-.76 2.72-1.45zM118.47 63.04c.01-.01.01-.02.03-.03 1.1-1.22 3.21-.35 2.91 1.35 0 .04-.02.09-.03.13-.25.98-1.1 1.62-2.04 1.89-.48.14-.97.25-1.46.34-.24.05-.49.1-.73.12-.14.01-.39-.07-.42-.23-.05-.23.15-.65.23-.86.35-.97.81-1.93 1.51-2.71zM100.5 62.29c.01-.01.01-.02.01-.04.68-1.69-1.22-3.38-2.77-2.25l-.12.09c-.85.72-1.09 1.89-.9 2.96.1.55.22 1.09.37 1.62.08.26.14.54.24.79.06.14.26.35.43.31.26-.06.57-.46.75-.65.83-.82 1.56-1.75 1.99-2.83zM113.85 53c.01-.01.01-.02.02-.03 1.1-1.16.1-3.14-1.53-2.73-.04.01-.09.02-.13.04-.93.31-1.49 1.19-1.68 2.11-.1.48-.17.96-.23 1.44-.02.24-.06.48-.06.72 0 .13.1.37.25.39.23.03.61-.19.82-.28.94-.41 1.84-.93 2.54-1.66zM112.59 62.13l.03-.03c1.37-1.48.07-3.96-1.97-3.41-.05.01-.11.03-.16.05-1.16.41-1.86 1.53-2.08 2.7-.11.6-.2 1.21-.25 1.82-.03.3-.07.61-.07.91.01.16.13.46.32.48.29.04.78-.25 1.03-.37 1.16-.54 2.28-1.21 3.15-2.15z"/></g><g clip-path="url(#b)"><path d="M54.32 20.49c2.3.07 4.39.49 4.53.95l.98 2.11c.08.18.26.29.45.29l9.49-.26-1.75 2.37-7.21 1.95a.5.5 0 0 0-.36.37l-.8 3.56c-.62.52-2.96 1.12-4.76 1.45l-.57-12.79z" fill="#616161"/><path d="M54.85 21.01c1.65.09 3.19.37 3.57.67 0 .01.01.02.01.03l.96 2.04c.17.35.52.58.91.58h.03l8.45-.23-1.03 1.4-7.04 1.91c-.36.1-.63.38-.71.75l-.76 3.38c-.55.33-2.12.8-3.84 1.15l-.55-11.68m-1.05-1.03l.64 13.89s4.81-.79 5.69-1.79l.83-3.71 7.38-2 2.46-3.33-10.5.29-.96-2.04c-.4-1.29-5.54-1.31-5.54-1.31zm16.99 3.06z" fill="#4F4F4F"/></g><g clip-path="url(#b)"><path d="M45.29 32.76c-.27-.46-.64-1.08-1.11-1.88l-1.33-.1c-.15.56-.82 2.42-1.33 2.7-.32.18-.99-.72-1.48-1.47-.37-.57-.44-1.28-.19-1.92.11-.29.23-.58.31-.78.22-.57.54-1.09.74-1.66.21-.6-.16-1.28-.33-1.88-.2-.67-.4-1.34-.6-2.02-.05-.18-.62-2.53-.75-2.53 0 0-.53-.01-.61-.66-.05-.4-.07-1.11 1.05-1.12l12.02.29c1.6.04 3.32.07 4.63 2.43 1 1.8.55 8.88.08 9.81-.23.46-.55 1.39-1.96 1.89-1.05.37-5.25.14-7.34-.01-.74-.03-1.41-.44-1.8-1.09z" fill="#E3F2FD"/><linearGradient id="t" x1="8.156" x2="18.503" y1="-23.531" y2="-23.531" gradientTransform="matrix(1.4567 .1565 -.1243 1.1564 23.825 51.134)" gradientUnits="userSpaceOnUse"><stop stop-color="#90CAF9" offset=".365"/><stop stop-color="#42A5F5" offset=".987"/></linearGradient><path d="M49.21 31.26a4.055 4.055 0 0 1-3.22-2.42c-.56-1.3-1.24-2.79-1.5-3.01-.47-.41-2.28-.34-2.5.08-.22.43-.85 3.33-1.42 4.31-2.24-4.95-1.53-8.87-1.53-8.87s2.48-.01 3.36 0c1.57.02 3.15.05 4.72.08 2.51.05 5.01-.44 6.07 2.46.84 2.31.28 7-.62 7.29-.85.3-2.19.23-3.36.08z" fill="url(#t)"/></g></svg>