<svg viewBox="0 0 128 128" width="128" height="128" xmlns="http://www.w3.org/2000/svg"><path fill="#E0E0E0" d="M63.165 51.017l-4.668 4.127-27.542-31.152 4.667-4.127z"/><path d="M35.33 22.55l25.01 28.29-1.67 1.48-25.01-28.29 1.67-1.48m.17-2.82l-4.67 4.13L58.5 55.15l4.67-4.13L35.5 19.73z" fill="#424242" opacity=".2"/><path d="M27.31 8.5L39.6 22.4l-7 6.2-12.29-13.9a3.117 3.117 0 1 0-4.67 4.13L16.67 20a4.672 4.672 0 0 1-.41 6.6 4.672 4.672 0 0 1-6.6-.41l-1.03-1.17c-4.56-5.16-4.08-13.04 1.08-17.6s13.04-4.07 17.6 1.08z" fill="#616161"/><path d="M17.97 7.29c2.71 0 5.3 1.17 7.1 3.2l10.3 11.65-2.51 2.22-10.3-11.65a6.11 6.11 0 0 0-8.63-.54c-2.53 2.23-2.77 6.11-.53 8.64l1.03 1.17c.61.69.55 1.75-.15 2.37-.39.35-.82.42-1.11.42-.28 0-.82-.07-1.26-.57l-1.03-1.17a9.418 9.418 0 0 1-2.36-6.85c.16-2.52 1.28-4.84 3.18-6.51a9.47 9.47 0 0 1 6.27-2.38m0-3c-2.94 0-5.88 1.03-8.25 3.13-5.16 4.56-5.64 12.44-1.08 17.6l1.03 1.17a4.643 4.643 0 0 0 3.51 1.58c1.1 0 2.21-.39 3.1-1.17 1.93-1.71 2.12-4.67.41-6.6l-1.03-1.17a3.117 3.117 0 0 1 2.33-5.18c.86 0 1.72.36 2.34 1.05L32.6 28.6l7.01-6.19L27.31 8.5a12.443 12.443 0 0 0-9.34-4.21z" fill="#424242" opacity=".2"/><path d="M120.73 123.33l1.26-1.11c.62-.55.68-1.5.13-2.12l-8-9.05c-.55-.62-1.5-.68-2.12-.13l-1.26 1.11c-.62.55-.68 1.5-.13 2.12l8 9.05c.56.62 1.5.68 2.12.13z" fill="#616161"/><linearGradient id="a" x1="75.91" x2="91.922" y1="41.479" y2="120.31" gradientTransform="scale(-1 1) rotate(41.481 .17 -100.268)" gradientUnits="userSpaceOnUse"><stop stop-color="#BA68C8" offset="0"/><stop stop-color="#9C27B0" offset="1"/></linearGradient><path d="M24.9 35.18c-.03-.04-.05-.08-.08-.11.03.03.07.06.1.09l-.02.02z" fill="url(#a)"/><linearGradient id="b" x1="57.086" x2="72.568" y1="41.396" y2="117.62" gradientTransform="scale(-1 1) rotate(41.481 .17 -100.268)" gradientUnits="userSpaceOnUse"><stop stop-color="#BA68C8" offset="0"/><stop stop-color="#9C27B0" offset="1"/></linearGradient><path d="M37.07 56.21c2.56-2.7 1.66-7.24.31-11.21-.48-1.4.71-2.61 2.08-2.09 4.02 1.53 8.88 2.34 11.49.03 2.6-2.3 2.41-7.18 1.39-11.34-.35-1.42 1-2.48 2.32-1.81 3.42 1.75 7.14 3.07 10.15 1.12 1.93-1.25 2.68-3.6 2.87-6.11.13-1.73 2.42-1.99 3.26-.38 10.1 19.35 36.98 70.83 44.11 84.48 1.04 1.99 1.66 5.38.14 6.72l.05.05c-1.51 1.34-4.84.25-6.69-1.01L30.43 61.11c-1.54-1.06-.94-3.32.84-3.2 2.29.17 4.41-.23 5.8-1.7z" fill="url(#b)"/><g fill="#424242" opacity=".2"><path d="M24.82 35.07c.03.03.05.07.08.11l.02-.02c-.03-.03-.07-.06-.1-.09zM115.05 108.9c-7.13-13.65-34-65.13-44.11-84.48-.38-.73-1.06-1.08-1.7-1.08-.77 0-1.49.51-1.57 1.45-.19 2.52-.95 4.87-2.87 6.11-1.06.69-2.2.97-3.4.97-2.19 0-4.53-.95-6.75-2.09-.28-.14-.56-.21-.82-.21s-.5.06-.71.17c-.1.02-.2.05-.27.11-.21.15-.33.36-.41.59-.16.33-.21.72-.11 1.15 1.01 4.16 1.21 9.04-1.39 11.34-1.17 1.03-2.78 1.44-4.57 1.44-2.22 0-4.7-.63-6.92-1.47-.22-.08-.44-.12-.65-.12-.97 0-1.68.87-1.5 1.91l-.09.11.15.15c.01.02.01.03.01.05 1.35 3.97 2.25 8.52-.31 11.21-1.2 1.27-2.95 1.74-4.89 1.74-.3 0-.61-.01-.92-.03h-.14c-1.67 0-2.2 2.17-.7 3.2l78.12 53.55c1.25.85 3.17 1.63 4.75 1.63.76 0 1.45-.18 1.94-.61l-.05-.05c1.55-1.36.92-4.75-.12-6.74zM66.44 33.43c1.59-1.03 2.75-2.55 3.46-4.53l36.39 69.7-48.27-64.22c1.1.3 2.24.51 3.4.51 1.85-.01 3.54-.5 5.02-1.46zm-13.5 11.76c2.44-2.16 3.13-5.42 3.1-8.51l57.02 75.74c.05.33.06.63.04.85-.48-.04-1.09-.22-1.68-.47L42.78 46.99c1.16.23 2.38.4 3.61.4 2.7 0 4.91-.74 6.55-2.2zM39.25 58.28c2.49-2.63 2.76-6.09 2.25-9.33l56.94 55.15-63.4-43.45c1.69-.42 3.1-1.2 4.21-2.37z"/></g><path d="M54.03 32.26l.92-.66c.45-.32.56-.96.24-1.41l-2.44-3.43a1.02 1.02 0 0 0-1.41-.24l-.92.66c-.45.32-.56.96-.24 1.41l2.44 3.43c.32.45.96.56 1.41.24zM39.81 44.83l-.76.84c-.38.41-1.02.44-1.43.06l-3.11-2.84c-.41-.38-.44-1.02-.06-1.43l.76-.84c.38-.41 1.02-.44 1.43-.06l3.11 2.84c.41.37.44 1.02.06 1.43zM69.38 25.89l1.02-.5c.5-.24.71-.85.47-1.35l-1.84-3.78c-.24-.5-.85-.71-1.35-.47l-1.02.5c-.5.24-.71.85-.47 1.35l1.84 3.78c.24.5.85.71 1.35.47zM31.38 59.49l-.62.95c-.3.47-.93.6-1.4.3l-3.53-2.29c-.47-.3-.6-.93-.3-1.4l.62-.95c.3-.47.93-.6 1.4-.3l3.53 2.29c.47.3.6.93.3 1.4z" fill="#616161"/></svg>