<svg xmlns="http://www.w3.org/2000/svg" viewBox="0 0 128 128" width="128" height="128"><linearGradient id="a" gradientUnits="userSpaceOnUse" x1="111.111" y1="23.424" x2="26.646" y2="45.75"><stop offset="0" stop-color="#616161"/><stop offset="1" stop-color="#212121"/></linearGradient><path d="M27.7 64c11.8 3 23.9 5.6 36.1 5.1C74 68.7 83.9 66 94 64.2c8.9-1.6 18-2.5 26.7-.5 1.5.3 2.8-1.1 2.3-2.5-3.4-10.9-13.9-43.8-16.4-51.8-.4-1.2-1.3-2-2.5-2.3C95 4.7 85.3 5.7 76 7.4c-10 1.8-20 4.5-30.2 4.9-12.2.5-24.3-2.1-36.1-5.1 0-.1 18 56.8 18 56.8z" fill="url(#a)"/><linearGradient id="b" gradientUnits="userSpaceOnUse" x1="22.718" y1="47.756" x2="110.765" y2="22.5"><stop offset=".001" stop-color="#bfbebe"/><stop offset=".197" stop-color="#212121" stop-opacity="0"/><stop offset=".75" stop-color="#212121" stop-opacity="0"/><stop offset="1" stop-color="#bfbebe"/></linearGradient><path d="M27.7 64c11.8 3 23.9 5.6 36.1 5.1C74 68.7 83.9 66 94 64.2c8.9-1.6 18-2.5 26.7-.5 1.5.3 2.8-1.1 2.3-2.5-3.4-10.9-13.9-43.8-16.4-51.8-.4-1.2-1.3-2-2.5-2.3C95 4.7 85.3 5.7 76 7.4c-10 1.8-20 4.5-30.2 4.9-12.2.5-24.3-2.1-36.1-5.1 0-.1 18 56.8 18 56.8z" opacity=".2" fill="url(#b)"/><linearGradient id="c" gradientUnits="userSpaceOnUse" x1="70.759" y1="69.064" x2="62.765" y2="5.524"><stop offset=".001" stop-color="#bfbebe"/><stop offset=".39" stop-color="#212121" stop-opacity="0"/><stop offset=".624" stop-color="#212121" stop-opacity="0"/><stop offset="1" stop-color="#bfbebe"/></linearGradient><path d="M27.7 64c11.8 3 23.9 5.6 36.1 5.1C74 68.7 83.9 66 94 64.2c8.9-1.6 18-2.5 26.7-.5 1.5.3 2.8-1.1 2.3-2.5-3.4-10.9-13.9-43.8-16.4-51.8-.4-1.2-1.3-2-2.5-2.3C95 4.7 85.3 5.7 76 7.4c-10 1.8-20 4.5-30.2 4.9-12.2.5-24.3-2.1-36.1-5.1 0-.1 18 56.8 18 56.8z" opacity=".2" fill="url(#c)"/><path d="M47.2 122.8l-3.8 1.2c-1.2.4-2.5-.3-2.9-1.5L5.3 9.6c-.7-2.3.6-4.7 2.9-5.4s4.7.6 5.4 2.8l35.2 112.9c.3 1.2-.4 2.5-1.6 2.9z" fill="#bfbebe"/></svg>