<svg viewBox="0 0 128 128" width="128" height="128" xmlns="http://www.w3.org/2000/svg" xmlns:xlink="http://www.w3.org/1999/xlink"><path fill="none" stroke="#FFA000" stroke-miterlimit="10" stroke-width="2.148" d="M114.98 40.58L67.99 114"/><path d="M114.14 40.26c.01 0 4.89 3.11 4.89 3.11l-47.6 74.71 3 3.27 47.86-75.11c2.15-3.63.92-5.19-.51-6.05-1.21-.72-2.15-.51-1.55-1.07.5-.47 1.32-1.13 1.02-1.68-.31-.57-.86-1.27-3.09-.12-2.44 1.27-4.13 2.87-4.02 2.94z" fill="#BF360C"/><path d="M120.1 37.72c.06 0 .1 0 .13.02-.14.17-.38.38-.51.51l-.18.16c-.41.39-.57.81-.47 1.25.15.66.76.85 1.16.98.29.09.65.2 1.03.43.76.45 2.16 1.29.18 4.65l-47.16 74.01-1.6-1.75 47.19-74.07.54-.84-.84-.54-3.83-2.44c.64-.52 1.64-1.23 2.88-1.87.85-.43 1.29-.5 1.48-.5m0-1c-.44 0-1.06.17-1.94.62-2.44 1.26-4.13 2.86-4.02 2.93.01 0 4.89 3.11 4.89 3.11l-47.6 74.71 3 3.27 47.86-75.11c2.15-3.63.92-5.19-.51-6.05-1.21-.72-2.15-.51-1.55-1.07.5-.47 1.32-1.13 1.02-1.68-.19-.34-.47-.73-1.15-.73z" fill="#424242" opacity=".2"/><path d="M70.87 123.39l-.29-.18c-.9-.56-1.23-1.64-.75-2.41l2.75-4.34 3.55 2.22-2.75 4.34c-.49.77-1.61.93-2.51.37z" fill="#212121"/><path d="M77.74 116.03c-1.2-.75-3.86-1.92-4.85-.28l-.06.1c-.35.56-.49.81-1.02.49l-2.16-1.3c-.38-.24-.55-.63-.2-1.19l.22-.35c.43-.67-.03-1.72-1.03-2.34l-.01-.06-2.8 4.42c-.39.61.05 1.63.95 2.19l7.21 4.36 3.75-6.04z" fill="#212121"/><path d="M59.12 105.92c.5-1.79 1.45-2.2 2.61-2.68 1.14-.46 1.81-1.21 1.77-2.33-.04-1.18-.61-1.6-1.46-2.33-.38-.32-5.12-3.87.48-11.64 2.83-3.93 7-4.35 9.33-2.97 2.18 1.29 2.82 1.62 3.98 1.16 1.08-.43 1.37-1.55 1.47-2.14.18-1.01-.94-4.4 2.31-5.42 7.49-2.36 21.94-15.04 2.48-34.32s-32-4.72-34.29 2.8c-1 3.26-4.39 2.17-5.4 2.36-.59.11-1.7.41-2.13 1.49-.46 1.17-.12 1.8 1.19 3.97 1.4 2.32 1.02 6.49-2.88 9.35-7.71 5.68-11.31.96-11.63.59-.74-.85-1.15-1.41-2.34-1.44-1.11-.03-1.86.65-2.31 1.79-.46 1.17-.87 2.12-2.65 2.64-2.34.68-14.27 5.53-15.05 17.77-.76 11.97 8.53 19.75 12.8 23.98S29.53 122 41.5 121.13c12.23-.89 16.96-12.87 17.62-15.21z" fill="#F4511E"/><path d="M63.69 33.68v2c5.26 0 10.97 3.03 17 9 7.2 7.14 10.24 14.08 8.79 20.07-1.47 6.05-7.06 9.84-10.47 10.92-4.05 1.28-3.8 5.09-3.71 6.53.01.17.03.4.02.5-.08.43-.2.57-.24.59-.11.04-.16.05-.16.06-.29-.03-1.35-.66-2.06-1.08-1.1-.65-2.42-.99-3.82-.99-3.11 0-6.08 1.64-8.15 4.51-3.16 4.38-4.87 10.45-.16 14.33l.14.12c.23.19.54.46.59.55 0 0 .02.05.02.2v.08c-.02.04-.16.17-.52.32-1.27.52-3.01 1.22-3.78 3.99-.04.13-3.94 12.89-15.85 13.75-.48.03-.96.05-1.43.05-9.25 0-15.67-6.53-19.92-10.85-.42-.43-.82-.83-1.19-1.2s-.78-.76-1.21-1.18c-4.35-4.2-11.63-11.23-11-21.26.77-11.9 13.5-15.93 13.62-15.97 2.76-.8 3.45-2.55 3.96-3.82.14-.37.28-.51.31-.52 0 0 .02-.01.08-.01.14 0 .2.02.2.02.1.05.36.36.56.59l.14.16C27 66.99 29.2 68 31.66 68c2.52 0 5.25-1.07 8.1-3.17 4.79-3.53 5.33-8.81 3.41-12-.42-.7-1.07-1.76-1.1-2.03 0 0 .01-.05.06-.17.02-.04.16-.16.62-.25-.02 0-.03.01-.02.01.14 0 .3.01.48.02.3.02.64.03.99.03 3.59 0 4.98-2.07 5.51-3.8C51 42.4 55.94 35.68 63.69 35.68v-2m0 0c-8.86 0-14.43 7.6-15.89 12.37-.64 2.08-2.25 2.39-3.59 2.39-.57 0-1.09-.05-1.47-.05-.13 0-.25.01-.34.02-.59.11-1.7.41-2.13 1.49-.46 1.17-.12 1.8 1.19 3.97 1.4 2.32 1.02 6.49-2.88 9.35-2.86 2.1-5.15 2.78-6.92 2.78-3.01 0-4.51-1.96-4.71-2.19-.74-.85-1.15-1.41-2.34-1.44h-.07c-1.08 0-1.8.67-2.24 1.8-.46 1.17-.87 2.12-2.65 2.64-2.34.67-14.27 5.52-15.05 17.76-.76 11.97 8.53 19.75 12.8 23.98 4.08 4.04 11.44 12.63 22.52 12.63.52 0 1.04-.02 1.58-.06 12.24-.89 16.97-12.86 17.63-15.21.5-1.79 1.45-2.2 2.61-2.68 1.14-.46 1.81-1.21 1.77-2.33-.04-1.18-.61-1.6-1.46-2.33-.38-.32-5.12-3.87.48-11.64 1.9-2.63 4.39-3.68 6.53-3.68 1.06 0 2.03.26 2.8.72 1.56.92 2.33 1.36 3.07 1.36.29 0 .58-.07.91-.2 1.08-.43 1.37-1.55 1.47-2.14.18-1.01-.94-4.4 2.31-5.42 7.49-2.36 21.94-15.04 2.48-34.32-7.12-7.04-13.31-9.57-18.41-9.57z" fill="#424242" opacity=".2"/><path d="M50.5 83.22s-2-1.33-4.37-3.75-3.52-4.15-3.52-4.15c-.35-.51-.15-1.04.28-1.39.3-.3.86-.47 1.26-.16 0 0 2.39 1.49 4.31 3.46s3.59 4.44 3.59 4.44c.28.48.14.97-.25 1.35-.31.31-.92.5-1.3.2z" fill="#212121"/><g fill="#212121"><path d="M63.38 75.94c1.02 1.15.62 2.95-.06 4.02-.67 1.13-1.56 1.89-2.41 2.64-.85.74-1.75 1.38-2.58 2.07-1.69 1.33-3.29 2.71-4.31 4.43-.25.45-.46.86-.55 1.32-.11.46-.08.95-.01 1.42.06.48.06.99.31 1.43-.56-.12-.97-.59-1.23-1.08-.66-1.22-.49-2.74 0-3.84.91-2.32 2.71-3.97 4.44-5.38.9-.68 1.79-1.35 2.68-1.97.87-.63 1.74-1.26 2.33-1.96.58-.72.87-1.73.83-2.68-.01-.33-.11-.64-.16-.96.26.07.53.33.72.54z"/><circle cx="62.09" cy="76.61" r="1.41"/><circle cx="54.17" cy="91.86" r="1.41"/><path d="M33.29 72.82c1.09 1.08 2.92.78 4.02.16 1.17-.61 1.97-1.46 2.76-2.26.79-.81 1.47-1.67 2.21-2.46 1.42-1.61 2.89-3.13 4.66-4.06.46-.23.89-.41 1.34-.48.47-.08.95-.02 1.42.06.48.09.99.12 1.41.39-.09-.56-.54-1-1.01-1.29-1.18-.73-2.71-.64-3.83-.21-2.37.78-4.11 2.49-5.61 4.14-.73.86-1.44 1.72-2.11 2.56-.67.83-1.36 1.67-2.08 2.22-.76.54-1.77.77-2.72.68-.32-.03-.63-.14-.95-.21.04.28.29.57.49.76z"/><circle cx="34.03" cy="71.57" r="1.41"/><circle cx="49.69" cy="64.5" r="1.41"/></g><radialGradient id="a" cx="118.11" cy="23.048" r="43.948" gradientTransform="matrix(.9847 .1175 .1175 .9847 -7.175 -17.564)" gradientUnits="userSpaceOnUse"><stop stop-color="#616161" offset="0"/><stop stop-color="#212121" offset="1"/></radialGradient><path d="M117.56 12.12l-3.81-3.81-57.87 52.33c-.43.4-.35 1.17.18 1.7l7.42 7.42c.53.53 1.29.61 1.7.18l52.38-57.82z" fill="url(#a)"/><path d="M113.69 11.08l1.12 1.12-50.42 55.63-6.4-6.4 55.7-50.35m.07-2.76L55.88 60.64c-.43.4-.35 1.17.18 1.7l7.42 7.42c.3.3.68.46 1.02.46.26 0 .5-.09.68-.28l52.39-57.81-3.81-3.81z" fill="#424242" opacity=".2"/><g fill="#212121"><path d="M95.49 9.81c-1.46 1.46-.95 3-.09 4.21.54.77 1.65.85 2.31.19l2.18-2.18c.66-.66.58-1.77-.19-2.31-1.21-.86-2.74-1.37-4.21.09z"/><path d="M98.319 11.41l4.511 4.51-1.23 1.23-4.511-4.51zM89.68 15.63c-1.46 1.46-.95 3-.09 4.21.54.77 1.65.85 2.31.19l2.18-2.18c.66-.66.58-1.77-.19-2.31-1.21-.87-2.75-1.37-4.21.09z"/><path d="M92.504 17.218l4.512 4.512-1.23 1.23-4.512-4.511zM113.71 32.61c1.46-1.46.95-3 .09-4.21-.54-.77-1.65-.85-2.31-.19l-2.18 2.18c-.66.66-.58 1.77.19 2.31 1.21.87 2.75 1.38 4.21-.09z"/><path d="M110.885 31.03l-4.512-4.512 1.23-1.23 4.512 4.511zM119.53 26.8c1.46-1.46.95-3 .09-4.21-.54-.77-1.65-.85-2.31-.19l-2.18 2.18c-.66.66-.58 1.77.19 2.31 1.21.86 2.74 1.37 4.21-.09z"/><path d="M116.701 25.202l-4.511-4.51 1.23-1.231 4.511 4.511z"/></g><defs><path id="b" d="M104.37 33.05l13.13-14.68-5.03-5.03-5.02-5.02-14.69 13.12z"/></defs><clipPath id="c"><use xlink:href="#b"/></clipPath><g clip-path="url(#c)"><path d="M106.77 14.46l4.6 4.6-10.62 11.53-5.5-5.5 11.52-10.63m.05-2.78L92.35 25.02l8.44 8.44 13.34-14.47-7.31-7.31z" fill="#BF360C"/></g><path d="M107.36 16.09l-4.01-4.01a.712.712 0 0 1 0-1.01l7.04-7.04c.28-.28.73-.28 1.01 0l4.01 4.01c.28.28.28.73 0 1.01l-7.04 7.04c-.28.28-.73.28-1.01 0z" fill="#BF360C"/><path d="M110.89 4.93l3.61 3.61-6.64 6.64-3.61-3.61 6.64-6.64m0-1.12c-.18 0-.37.07-.51.21l-7.04 7.04c-.28.28-.28.73 0 1.01l4.01 4.01a.728.728 0 0 0 1.02 0l7.04-7.04c.28-.28.28-.73 0-1.01l-4.01-4.01a.728.728 0 0 0-.51-.21z" fill="#424242" opacity=".2"/><path d="M110.36 19.09l3.34 3.34c.3.3.78.3 1.08 0l6.97-6.97c.3-.3.3-.78 0-1.08l-3.34-3.34a.76.76 0 0 0-1.08 0l-6.97 6.97c-.3.3-.3.78 0 1.08z" fill="#BF360C"/><path d="M117.16 11.2l3.72 3.72-6.64 6.64-3.72-3.72 6.64-6.64m0-1.12c-.18 0-.36.07-.5.21l-7.05 7.05a.7.7 0 0 0 0 1l4.14 4.14c.14.14.32.21.5.21s.36-.07.5-.21l7.05-7.05a.7.7 0 0 0 0-1l-4.14-4.14a.705.705 0 0 0-.5-.21z" fill="#424242" opacity=".2"/><path d="M112.54 20.83l7.54-11.62c.44-.68.47-1.41.08-1.8l-1.76-1.76c-.39-.39-1.12-.36-1.8.08l-11.62 7.54c-1.14.72-2.04 1.89-2.35 3.07-.26.97-.1 1.84.45 2.38l4.02 4.02c.54.54 1.41.71 2.38.45 1.17-.32 2.34-1.22 3.06-2.36z" fill="#F4511E"/><path d="M117.72 6.38l1.71 1.7c.01.04.02.26-.19.58l-7.55 11.63c-.59.93-1.54 1.67-2.48 1.92-.21.06-.42.09-.61.09-.24 0-.58-.05-.8-.27l-4.02-4.02c-.28-.28-.35-.81-.19-1.42.25-.94.99-1.89 1.93-2.49l11.62-7.54c.19-.12.38-.19.53-.19.02.01.03.01.05.01-.01 0 0 0 0 0m-.04-1c-.33 0-.71.12-1.07.35l-11.62 7.54c-1.14.72-2.04 1.89-2.35 3.07-.26.97-.1 1.84.45 2.38l4.02 4.02c.37.37.9.57 1.51.57.28 0 .57-.04.87-.12 1.18-.31 2.34-1.21 3.07-2.35l7.54-11.62c.44-.68.47-1.41.08-1.8l-1.76-1.76c-.2-.19-.45-.28-.74-.28z" fill="#424242" opacity=".2"/><radialGradient id="d" cx="47.792" cy="90.847" r="17.254" gradientTransform="matrix(1 0 0 .9636 -5.99 -2.438)" gradientUnits="userSpaceOnUse"><stop stop-color="#616161" offset="0"/><stop stop-color="#212121" offset="1"/></radialGradient><path d="M42.08 91.37c.47-.34.52-1.01.11-1.42l-6.32-6.32a.931.931 0 0 0-1.42.11c-.87 1.2-2.4 3.48-3.46 5.94-1.54 3.6-3.47 6.3-5.85 8.68-1.66 1.66-3.39 3.25-5.09 4.87-.88.83-1.75 1.66-2.61 2.51-.25.24-.72.57-.69.9.05.61 1.86 1.97 2.31 2.41.65.64 7.52-7.48 8.41-8.37 2.38-2.38 5.08-4.31 8.68-5.85 2.45-1.06 4.73-2.6 5.93-3.46z" fill="url(#d)"/><path d="M35.21 84.39l3.1 3.1s2.85 2.85 3.12 3.1c-1.14.82-3.34 2.3-5.7 3.31-3.5 1.5-6.35 3.42-8.99 6.06-1.56 1.56-3.06 3.2-4.52 4.79l-.57.63c-.27.29-.53.64-.78.97-.54.71-1.2 1.59-1.75 1.59-.16 0-.36-.07-.58-.22-.16-.1-.29-.33-.35-.62-.18-.83-.15-.86.62-1.55.39-.36.54-.47.7-.6.18-.14.37-.29.83-.71l.65-.59c1.61-1.48 3.28-3 4.86-4.58 2.64-2.64 4.56-5.49 6.06-8.99 1.01-2.35 2.48-4.55 3.3-5.69m-.01-1.03c-.29 0-.57.13-.75.38-.87 1.2-2.4 3.48-3.46 5.94-1.54 3.6-3.47 6.3-5.85 8.68-1.77 1.77-3.63 3.45-5.47 5.14-.85.78-.67.53-1.53 1.31-.88.8-1.21 1.16-.92 2.5.11.49.36.97.78 1.25.41.27.78.38 1.13.38 1.4 0 2.34-1.87 3.27-2.88 1.67-1.81 3.32-3.64 5.07-5.39 2.38-2.38 5.08-4.31 8.68-5.85 2.46-1.06 4.75-2.59 5.94-3.46.47-.34.52-1.01.11-1.42l-6.32-6.32c-.2-.17-.44-.26-.68-.26z" fill="#424242" opacity=".2"/><radialGradient id="e" cx="61.74" cy="85.522" r="22.543" gradientTransform="rotate(45.559 38.136 44.303)" gradientUnits="userSpaceOnUse"><stop stop-color="#616161" offset="0"/><stop stop-color="#212121" offset="1"/></radialGradient><path d="M5.89 78.57c.42-.96 1.36-1.23 2.4-1.11 2.22.26 6.4 1.33 9.29 4.91 3.6 4.46 2.23 9.38 1.03 12.69-1.07 2.96-1.52 6.8.39 9s2.99 2.11 4.36 4.64c.61 1.13.51 2.41.28 3.39-.2.81-.61 2.02-1.26 1.5-2.84-2.28-13.98-11.56-17.02-20.73-2.33-6.97-.74-11.41.53-14.29z" fill="url(#e)"/><path d="M7.84 79.44c.07 0 .15.01.22.01 1.53.18 5.36.95 7.97 4.18 2.79 3.46 1.99 7.21.7 10.75-1.62 4.47-1.34 8.57.75 10.99.89 1.03 1.64 1.63 2.24 2.12.78.63 1.25 1.01 1.87 2.16.14.27.21.57.22.88-4.23-3.62-12.19-11.13-14.57-18.3-1.94-5.85-.94-9.61.45-12.79h.15m0-2c-.85 0-1.58.32-1.94 1.13-1.27 2.88-2.86 7.32-.55 14.3 3.04 9.17 14.18 18.45 17.02 20.73.11.09.21.13.31.13.48 0 .79-.95.95-1.63.24-.98.33-2.27-.28-3.39-1.37-2.53-2.45-2.43-4.36-4.64-1.91-2.2-1.46-6.04-.39-9 1.2-3.31 2.57-8.23-1.03-12.69-2.89-3.58-7.07-4.65-9.29-4.91-.14-.03-.29-.03-.44-.03z" fill="#424242" opacity=".2"/></svg>