<svg viewBox="0 0 128 128" width="128" height="128" xmlns="http://www.w3.org/2000/svg"><linearGradient id="a" x1="4.49" x2="18.5" y1="58.215" y2="58.215" gradientUnits="userSpaceOnUse"><stop stop-color="#FFAF61" offset=".232"/><stop stop-color="#C46D3D" offset="1"/></linearGradient><path d="M10.91 65.03c-2.53 0-4-1.13-5.11-2.23-2.11-2.11-1.28-5.82-.25-7.14l.11-.15c.47-.62 1.7-2.28 3.95-4.01a.492.492 0 0 1 .46-.07c4.11 1.42 7.17 5.43 8.41 11.01a.5.5 0 0 1-.49.61h-.03c-.22.04-1.01.36-1.65.62-.9.36-1.91.78-2.61.96-.99.27-1.93.4-2.79.4z" fill="url(#a)"/><path d="M9.92 51.9c4.46 1.54 7.04 5.94 8.08 10.64h-.03c-.43 0-3.07 1.25-4.39 1.61-1.01.27-1.89.39-2.66.39-2.49 0-3.85-1.18-4.76-2.08-1.91-1.9-1.07-5.37-.21-6.48.3-.4 1.53-2.21 3.97-4.08m0-1c-.22 0-.43.07-.61.21-2.31 1.77-3.57 3.47-4.05 4.11l-.11.14c-1.12 1.44-2.02 5.49.3 7.8.71.71 2.38 2.37 5.46 2.37.9 0 1.89-.14 2.92-.42.72-.2 1.76-.62 2.67-.99.54-.22 1.26-.51 1.52-.59.25-.01.49-.1.67-.28.25-.24.36-.6.28-.94-1.27-5.75-4.46-9.9-8.73-11.37-.1-.02-.21-.04-.32-.04z" fill="#B05A2A"/><linearGradient id="b" x1="111.09" x2="111.09" y1="35.68" y2="70.19" gradientUnits="userSpaceOnUse"><stop stop-color="#C69C6D" offset=".001"/><stop stop-color="#C59B6C" offset=".007"/><stop stop-color="#7D542C" offset=".685"/><stop stop-color="#603813" offset="1"/></linearGradient><path d="M113.53 69.25c-.95 0-1.71-.21-2.19-.38-.61-.21-.98-.53-1.22-.74-.07-.08-.13-.14-.18-.19h.03l.46.08c.14.02.29.03.45.03l.14.01.27-.01c.17-.01.34-.02.54-.05 2.16-.37 3.9-1.85 4.33-3.67.28-1.19.05-2.47-.65-3.71-1.15-2.03-3.07-3.39-4.93-4.71-.4-.29-.81-.57-1.21-.87-.55-.41-1.11-.8-1.68-1.2-1.86-1.3-3.78-2.65-5.17-4.4-2.08-2.59-3.08-5.64-2.81-8.59.1-1.16.97-4.15 1.51-4.29.04.07.08.29.12.68.08.46.23.99.45 1.62 1.38 3.99 4.81 6.09 8.2 7.9l.6.32c3.25 1.73 6.6 3.51 8.88 6.14 2.76 3.18 3.7 6.81 2.59 9.96-1.18 3.34-4.58 5.88-8.08 6.06-.16 0-.31.01-.45.01z" fill="url(#b)"/><path d="M100.97 37.919999999999995c.08.33.2.69.34 1.11 1.44 4.16 4.96 6.32 8.44 8.18l.6.32c3.2 1.7 6.52 3.47 8.73 6.02 1.55 1.79 3.93 5.39 2.49 9.46-1.1 3.1-4.38 5.56-7.65 5.73-.14.01-.28.01-.41.01-.69 0-1.28-.12-1.71-.25.03 0 .07-.01.1-.02 2.36-.4 4.26-2.03 4.73-4.05.31-1.31.06-2.72-.7-4.07-1.2-2.12-3.17-3.52-5.07-4.87-.4-.28-.8-.57-1.2-.86-.55-.41-1.12-.81-1.69-1.21-1.83-1.28-3.72-2.61-5.07-4.3-1.16-1.44-3.04-4.43-2.7-8.23.06-.56.4-2 .77-2.97m.24-1.86c-1.1 0-1.94 4.08-2 4.75-.31 3.46 1.04 6.6 2.92 8.95 1.87 2.33 4.56 3.92 6.94 5.69 2.24 1.65 4.66 3.07 6 5.42.58 1.02.87 2.19.6 3.35-.39 1.68-2.04 2.97-3.92 3.29-.26.04-.48.04-.7.06-.2-.01-.39-.02-.53-.04-.3-.05-.46-.08-.46-.08l-.09-.01c-.03 0-.06-.01-.09-.01-.1 0-.21.03-.3.08-.23.14-.31.4-.16.59 0 0 .11.14.35.4.26.23.69.6 1.4.84.6.22 1.41.41 2.36.41.15 0 .31 0 .47-.02 3.89-.2 7.36-3.1 8.53-6.39 1.34-3.78-.19-7.58-2.68-10.45-2.48-2.86-6.17-4.73-9.62-6.57-3.25-1.74-6.63-3.77-7.96-7.62-.22-.63-.35-1.12-.42-1.51-.04-.43-.09-.66-.09-.66a.632.632 0 0 0-.21-.36.594.594 0 0 0-.34-.11z" fill="#734825"/><path d="M80.01 115.8c-1.2 2.82-1.03 7.36-.89 7.94.18.72 7.39-3.89 7.39-4.43 0-.49-.35-3.67-.41-4.24-2.21-.03-3.94.18-6.09.73z" fill="#603813" stroke="#4D290A" stroke-miterlimit="10"/><linearGradient id="c" x1="94.443" x2="89.943" y1="112.49" y2="95.743" gradientUnits="userSpaceOnUse"><stop stop-color="#FFAF61" offset=".232"/><stop stop-color="#FCAC5F" offset=".415"/><stop stop-color="#F3A159" offset=".572"/><stop stop-color="#E38F50" offset=".719"/><stop stop-color="#CD7742" offset=".86"/><stop stop-color="#C46D3D" offset=".905"/></linearGradient><path d="M105.07 102.8c.35-.22.61-.55.74-.94.34-1 .81-2.95-.23-3.86-1.43-1.25-8.76-13.59-8.04-14.48S81.45 84.6 81.45 84.6l3.22 2.68s5.01 6.79 8.22 9.65 4.83 4.29 2.86 6.26-12.81 8.22-14.49 9.55c-.52.41-1.13 2.15-1.25 3.06 2.15-.55 6.09-.82 6.09-.82l18.97-12.18z" fill="url(#c)" stroke="#B05A2A" stroke-miterlimit="10"/><linearGradient id="d" x1="21.043" x2="43.271" y1="81.203" y2="90.617" gradientUnits="userSpaceOnUse"><stop stop-color="#FFAF61" offset=".232"/><stop stop-color="#FCAC5F" offset=".415"/><stop stop-color="#F3A159" offset=".572"/><stop stop-color="#E38F50" offset=".719"/><stop stop-color="#CD7742" offset=".86"/><stop stop-color="#C46D3D" offset=".905"/></linearGradient><path d="M40.08 108.29c-.54-.25-1.09-.52-1.66-.79-.59-.29-1.21-.51-1.8-.72-1.45-.52-2.82-1.01-3.25-2.31-.44-1.3-5.36-5.97-6.86-7.28-1.55-1.35-2.11-3.43-1.51-5.57.49-1.73 1.67-3.02 2.93-3.23 2.86-.47 11.73-4.03 12.5-4.34 9.9-6.96 12.52-7.76 13.62-7.76.65 0 .95.31 1.09.56.62 1.14-.85 3.56-3.33 7.41-1.19 1.84-2.82 4.36-2.72 4.92.15.31.14.67-.03 1.01-.82 1.62-5.75 2.75-12.1 4.05-1.96.4-4.16.86-4.81 1.13.48 1.02 5.02 5.13 6.86 6.1.08.04.28.06.48.08.7.06 1.75.15 3.06 1.25l.29.24-.16.35c-.67 1.49-1.37 3.08-1.93 4.63l-.19.52-.48-.25z" fill="url(#d)"/><path d="M54.04 76.78c3.41 0-6.14 11.02-5.42 12.58 1.27 2.77-16.75 4.83-17 5.77s5.28 5.79 7.15 6.77c.55.29 1.75-.16 3.46 1.27-.7 1.56-1.39 3.11-1.95 4.67-.53-.25-1.09-.52-1.66-.79-2.03-.98-4.29-1.21-4.8-2.74s-5.84-6.48-7.01-7.5c-3.01-2.61-1.17-7.54 1.18-7.93 3.06-.5 12.66-4.4 12.66-4.4 8.08-5.68 11.93-7.7 13.39-7.7m0-1c-1.27 0-4 .89-13.87 7.82-1.05.42-9.59 3.84-12.34 4.29-1.47.24-2.78 1.65-3.33 3.59-.66 2.33-.04 4.6 1.66 6.08 2.15 1.87 6.37 6.04 6.71 7.06.51 1.53 2.06 2.08 3.56 2.62.58.21 1.19.43 1.76.7.57.28 1.13.54 1.67.8l.99.47.37-1.03c.55-1.53 1.22-3.05 1.92-4.6l.31-.69-.58-.49c-1.43-1.2-2.63-1.31-3.34-1.37-.12-.01-.29-.03-.34-.04-1.47-.77-5.03-3.89-6.22-5.37.94-.25 2.58-.59 4.08-.9 6.91-1.42 11.51-2.49 12.44-4.31.21-.42.25-.88.1-1.31.14-.71 1.63-3.03 2.63-4.57 2.89-4.48 4.09-6.58 3.35-7.92-.16-.32-.58-.83-1.53-.83z" fill="#B05A2A"/><path d="M46.03 111.92c-.16 0-.32-.03-.47-.09-1.14-.43-3.39-1.48-5.62-3.65l-.23-.22.11-.3c.57-1.58 1.28-3.19 1.96-4.7l.13-.29.32-.01c.43-.01.87-.02 1.32-.04.64-.02 1.29-.04 1.89-.04 1.9 0 2.85.24 3.28.83.16.22.31.61.13 1.16-.45 1.33-1.19 4.83-1.49 6.27-.14.63-.69 1.08-1.33 1.08z" fill="#603813"/><path d="M45.44 103.08c1.86 0 3.3.22 2.93 1.33-.45 1.33-1.17 4.69-1.51 6.33-.08.41-.44.68-.83.68-.1 0-.2-.02-.3-.05-1.18-.45-3.31-1.46-5.45-3.54.56-1.56 1.25-3.11 1.95-4.67 1.05-.01 2.19-.08 3.21-.08m0-1c-.61 0-1.26.02-1.91.05-.45.02-.89.03-1.32.04l-.63.01-.26.58c-.68 1.52-1.4 3.14-1.98 4.74l-.22.61.46.45c2.29 2.23 4.61 3.31 5.79 3.76.21.08.43.12.65.12.87 0 1.63-.62 1.81-1.48.3-1.44 1.04-4.92 1.48-6.21.27-.79-.01-1.35-.19-1.61-.61-.88-1.92-1.06-3.68-1.06z" fill="#4D290A"/><path d="M72.56 117.94c-.35-1.78-2.73-5.64-5.69-7.27-.19-.11-.59 0-.8.08-.75.31-1.92.85-3.45 2.09-.21.17-.31.44-.26.7.29 1.79.79 3.48 1.57 5.12.13.27.41.43.7.42l7.23-.27c.46-.01.79-.43.7-.87z" fill="#603813" stroke="#4D290A" stroke-miterlimit="10"/><path d="M83.79 106.42c-.23 0-.45-.09-.61-.26s-.24-.39-.22-.62c.09-1.44.41-4.92 1.48-6.25.63-.78.92-1.02 1.26-1.02.12 0 .33.04.48.25.99.49 2.06.72 3.36.72 1.05 0 2.12-.15 3.25-.3.39-.05.79-.11 1.19-.16l.81-.1-.27.76c-.01.02-.74 2.07-.9 2.76-.72 3.12-7.05 3.98-9.74 4.21l-.09.01z" fill="#603813"/><path d="M85.7 98.77c.12 0 .1.21.2.21.01 0 .03 0 .05-.02 1.18.59 2.37.78 3.59.78 1.46 0 2.95-.27 4.5-.46 0 0-.75 2.09-.92 2.81-.67 2.92-7.58 3.68-9.29 3.82h-.03c-.19 0-.34-.16-.33-.36.07-1.18.37-4.72 1.37-5.96.52-.65.74-.82.86-.82m0-1c-.58 0-.99.39-1.65 1.21-1.12 1.39-1.47 4.69-1.59 6.53-.02.37.11.73.36 1s.6.42.97.42H83.9c8.4-.71 9.92-3.45 10.18-4.59.13-.55.68-2.13.89-2.7l.55-1.53-1.61.2c-.4.05-.8.1-1.2.16-1.11.15-2.16.3-3.18.3-1.18 0-2.15-.2-3.04-.62-.29-.35-.66-.38-.79-.38z" fill="#4D290A"/><linearGradient id="e" x1="48.396" x2="89.151" y1="34.525" y2="112.92" gradientUnits="userSpaceOnUse"><stop stop-color="#FFAF61" offset="0"/><stop stop-color="#F7A65C" offset=".028"/><stop stop-color="#E18D4F" offset=".125"/><stop stop-color="#D17B45" offset=".226"/><stop stop-color="#C7703F" offset=".333"/><stop stop-color="#C46D3D" offset=".454"/><stop stop-color="#D27D46" offset=".62"/><stop stop-color="#F8A75C" offset=".942"/><stop stop-color="#FFAF61" offset="1"/></linearGradient><path d="M59.46 120.71c-.55 0-.93-.12-1.18-.35-.75-.72-10.25-8.55-11.62-9.15-2.24-.99-4.25-3.6-3.37-7 .86-3.3.64-12.02.6-13.54-2.22-1.82-4.23-4.46-6.14-8.09-1.28-2.44-4.74-13.88-6.41-22.71-2.69 1.19-11.3 3.2-13.07 3.2-.17 0-.29-.01-.4-.04a.499.499 0 0 1-.36-.38c-.69-3.13-2.6-8.64-7.62-10.37a.485.485 0 0 1-.33-.42c-.02-.19.08-.38.24-.48 3.18-1.87 8.03-8.41 10.63-11.92 1.15-1.55 1.76-2.38 2.07-2.65.24-.22 1.46-.94 4.26-2.58 1.14-.67 2.44-1.42 2.59-1.54.6-.45 1.51-1.05 2.5-1.05.91 0 1.73.49 2.43 1.46.04.05.08.11.11.16.39-.2.84-.37 1.29-.37.37 0 .7.1 1 .31 2.1 1.46 5.23 4.63 8.85 8.3 6.49 6.58 14.57 14.77 19.02 15.08 3.48.24 6.52.36 9.29.36 6.16 0 9.91-.58 13.87-1.2.98-.15 1.97-.31 3.01-.45.99-.14 2.06-.21 3.17-.21 8.76 0 18.54 4.11 19.74 15.65.91 8.83-3.28 13.59-7.19 16.08.3.31.59.63.86.93.51.56.96 1.04 1.26 1.31.65.58.68 1.73.5 2.6-.21 1.01-.84 2.23-1.96 2.61l-.55.18c-2.88.96-10.54 3.5-12.12 6.08-.08.13-.21.22-.37.24-.8.1-1.65.15-2.51.15-1.59 0-4.62-.18-7.02-1.38a.504.504 0 0 1-.28-.44c0-.19.1-.36.26-.45 1.02-.55 4.04-2.31 6.96-4.01 2.13-1.24 4.16-2.42 5.38-3.11-1.27-.8-4.03-2.5-6.25-3.64-.69-.04-1.33-.05-1.93-.05-4.16 0-6.13.87-8.64 1.96-2.01.88-4.28 1.88-8.17 2.71-4.88 1.04-8.85 1.26-11.31 1.26-1.72 0-2.91-.1-3.47-.16l-5.38 11.39 7.53 8.49c.63-.3 1.95-.86 2.91-.86.06 0 .13 0 .19.01.23.02.42.2.45.43.31 2.15.9 4.06 1.8 5.83.07.13.07.28.02.41s-.16.24-.29.29c-.12.02-3.17 1.12-4.85 1.12z" fill="url(#e)"/><path d="M31.85 32.12c.68 0 1.36.34 2.03 1.26.13.18.23.36.32.56.43-.27.97-.56 1.49-.56.24 0 .48.06.71.22 5.95 4.14 21.02 22.98 28.11 23.47 3.66.25 6.71.36 9.33.36 7.74 0 11.74-.92 16.94-1.65.93-.13 1.98-.21 3.1-.21 7.35 0 18 3.2 19.24 15.2.86 8.33-2.93 13.24-7.49 15.92 1.01 1.04 2.01 2.2 2.58 2.71.9.81.37 3.81-1.28 4.36-2.83.95-11.16 3.57-12.93 6.48-.76.09-1.59.14-2.45.14-2.34 0-4.9-.38-6.79-1.32 1.94-1.06 11.05-6.41 13.08-7.54 0 0-4.05-2.6-7.09-4.16-.74-.04-1.43-.06-2.06-.06-7.55 0-8.11 2.8-16.91 4.68-4.72 1.01-8.59 1.25-11.21 1.25-2.41 0-3.77-.21-3.77-.21l-5.68 12.02 8 9.03s1.89-.98 3.03-.98c.05 0 .1 0 .15.01.3 2.11.88 4.08 1.86 5.98 0 0-3.08 1.11-4.69 1.11-.38 0-.68-.06-.84-.21-.83-.8-10.3-8.6-11.77-9.25-2.07-.91-3.9-3.29-3.09-6.41.97-3.72.61-13.92.61-13.92-2.13-1.69-4.18-4.25-6.19-8.08-1.31-2.5-4.87-14.35-6.49-23.24-.59.78-11.27 3.47-13.43 3.47-.12 0-.21-.01-.27-.02-1.04-4.7-3.49-9.19-7.95-10.73 4.46-2.62 11.73-13.67 12.79-14.64.41-.38 6.4-3.77 6.82-4.09.7-.52 1.44-.95 2.19-.95m0-1c-1.14 0-2.14.66-2.8 1.15-.18.13-1.43.86-2.53 1.5-3.04 1.77-4.09 2.4-4.37 2.66-.34.31-.93 1.1-2.13 2.73-2.58 3.49-7.39 9.98-10.48 11.79-.34.2-.53.57-.49.96s.3.72.67.85c4.79 1.65 6.63 6.98 7.3 10 .08.37.36.66.72.75.15.04.32.06.53.06 1.23 0 9.21-1.67 12.69-3.01 1.74 8.91 5.05 19.78 6.35 22.25 1.89 3.59 3.88 6.24 6.09 8.1.06 2 .22 10.07-.59 13.18-.96 3.68 1.22 6.51 3.65 7.58 1.21.53 10.5 8.12 11.48 9.06.34.33.84.49 1.53.49 1.74 0 4.7-1.05 5.03-1.17.27-.1.49-.31.59-.57.11-.27.09-.57-.04-.82-.88-1.72-1.45-3.58-1.76-5.67a1 1 0 0 0-.91-.85c-.07-.01-.15-.01-.23-.01-.89 0-2.04.43-2.78.75l-7.06-7.97 5.09-10.78c.66.06 1.73.13 3.17.13 2.49 0 6.49-.22 11.42-1.27 3.94-.84 6.24-1.85 8.27-2.74 2.55-1.12 4.38-1.92 8.44-1.92.56 0 1.16.02 1.8.05 1.84.95 4.02 2.27 5.41 3.13-1.22.7-2.91 1.68-4.66 2.7-2.92 1.7-5.94 3.45-6.95 4-.33.18-.53.52-.52.9s.22.71.55.88c2.49 1.24 5.6 1.43 7.24 1.43.88 0 1.75-.05 2.57-.15.3-.04.57-.21.73-.47 1.48-2.43 9.01-4.93 11.85-5.87l.54-.18c1.13-.38 1.98-1.49 2.29-2.98.27-1.31.03-2.46-.66-3.07-.29-.26-.75-.76-1.23-1.28-.15-.16-.3-.33-.46-.49 3.88-2.65 7.82-7.51 6.92-16.22-.58-5.62-3.28-10.07-7.8-12.85-4.59-2.83-9.76-3.25-12.43-3.25-1.14 0-2.23.07-3.24.22-1.04.15-2.03.3-3.01.45-3.94.61-7.66 1.19-13.79 1.19-2.76 0-5.79-.12-9.26-.36-4.26-.29-12.6-8.76-18.7-14.93-3.64-3.69-6.78-6.87-8.92-8.36-.38-.26-.81-.4-1.28-.4-.4 0-.78.1-1.13.24-.78-1.03-1.69-1.54-2.71-1.54z" fill="#B05A2A"/><linearGradient id="f" x1="-13.593" x2="-13.593" y1="82.123" y2="95.098" gradientTransform="rotate(3.859 443.78 447.427)" gradientUnits="userSpaceOnUse"><stop stop-color="#FFF1C4" offset="0"/><stop stop-color="#FFE2A7" offset=".426"/><stop stop-color="#FFCA7B" offset="1"/></linearGradient><path d="M9.67 51.81c-2.11 2.12-3.46 3.75-3.73 4.16-1.21 1.86-1.7 4.58.21 6.48 1.18 1.18 3.16 2.84 7.42 1.7 1.36-.37 4.12-1.69 4.42-1.61-1.03-4.7-3.86-9.19-8.32-10.73z" fill="url(#f)"/><path d="M80.01 74.4c.04 3.63 1.74 7.21 4.53 9.53 1.82 1.52 7.08 4.32 7.08 4.32" fill="none" stroke="#B05A2A" stroke-linecap="round" stroke-miterlimit="10"/><ellipse transform="rotate(-69.714 25.765 46.925)" cx="25.76" cy="46.93" rx="3.06" ry="2.71" fill="#404040"/><linearGradient id="g" x1="65.954" x2="87.555" y1="50.884" y2="71.513" gradientUnits="userSpaceOnUse"><stop stop-color="#FBC02D" offset="0"/><stop stop-color="#FEDC36" offset=".687"/><stop stop-color="#FFEB3B" offset=".999"/></linearGradient><path d="M76.28 74.65c-3.85 0-6.92-.44-9.4-1.34-3.14-1.14-3.54-4.77-3.5-8.16.02-2.27.21-4.48.41-6.72.03-.37.04-.83.04-1.34 0-1.61 0-3.8 1.24-4.13.2-.05.42-.08.65-.08.99 0 2.11.5 3.1.95.38.17.75.34 1.1.47 2.17.84 4.91 1.3 7.7 1.3h.4c5.57-.09 8.13-1.67 9.83-2.72.75-.46 1.3-.8 1.8-.8.33 0 .69.15 1.12.46.62.46 1.1 1.09 1.46 1.91 1.55 3.59 3.79 12.32 2.37 15.51-1.53 3.42-9.68 4.26-12.15 4.43-1.97.13-4.06.26-6.17.26z" fill="url(#g)"/><path d="M89.64 52.56c.08 0 .32 0 .82.37.55.41.97.97 1.3 1.71 1.58 3.66 3.68 12.18 2.37 15.11-1.12 2.52-6.79 3.79-11.73 4.14-1.94.14-4.01.26-6.11.26-3.79 0-6.81-.43-9.23-1.31-2.85-1.04-3.2-4.47-3.17-7.69.02-2.25.2-4.44.41-6.68.04-.4.04-.88.04-1.39 0-1.36 0-3.42.87-3.64.16-.04.33-.06.52-.06.88 0 1.91.46 2.89.9.39.18.76.34 1.13.48 2.23.86 5.03 1.33 7.87 1.33h.41c5.71-.1 8.34-1.72 10.08-2.79.65-.42 1.17-.74 1.53-.74m0-1c-1.94 0-3.51 3.38-11.64 3.52h-.39c-2.47 0-5.23-.38-7.52-1.26-1.3-.5-2.89-1.45-4.38-1.45-.26 0-.52.03-.78.1-2.05.54-1.49 4.24-1.65 5.91-.2 2.27-.39 4.47-.41 6.76-.03 3.36.35 7.37 3.83 8.64 2.92 1.06 6.27 1.37 9.58 1.37 2.12 0 4.23-.13 6.18-.27 3.39-.24 10.99-1.18 12.57-4.73 1.55-3.46-.92-12.58-2.36-15.91-.41-.95-.96-1.63-1.62-2.12-.54-.39-.99-.56-1.41-.56z" fill="#E8AD1A"/><path d="M11.51 55.22c.55.19.9.79.89 1.38-.01.58-.32 1.13-.75 1.54-.51.48-1.2.38-1.32-.39-.06-.4.37-.89.3-1.33-.07-.5-1.56-.5-.6-.98.43-.23 1-.38 1.48-.22z" fill="#404040"/><linearGradient id="h" x1="25.722" x2="56.366" y1="27.555" y2="48.803" gradientUnits="userSpaceOnUse"><stop stop-color="#C69C6D" offset=".001"/><stop stop-color="#C59B6C" offset=".007"/><stop stop-color="#7D542C" offset=".685"/><stop stop-color="#603813" offset="1"/></linearGradient><path d="M59.97 59.25c-2.04 0-4.35-.72-7.05-2.2-5.87-3.21-7.89-6.26-10.45-10.12-.44-.66-.89-1.35-1.38-2.06-.78-1.13-1.64-2.42-2.47-3.67-1.51-2.27-2.82-4.22-3.4-4.88-.32-.37-.98-.49-2.13-.68-.67-.11-2.07-.35-2.22-.63.06-1.37.82-2.07 2.12-2.81 1.24-.71 2.6-1.06 4.04-1.06 1.59 0 2.97.44 3.82.8l-2.27 1.02a.5.5 0 0 0-.28.58c.05.22.26.38.49.38h.03c.13-.01.26-.01.39-.01 1.32 0 2.79.36 4.21.7 1.39.34 2.7.66 3.87.66.51 0 .96-.06 1.36-.19-.3 2.04-1.75 2.16-4 2.34-.23.02-.44.19-.48.42-.04.22.05.45.26.54 1.05.47 2.2.72 3.33.72.72 0 1.39-.1 2.01-.3.85-.28 1.54-.74 2.01-1.13.01.74-.22 1.84-1.41 2.76a.5.5 0 0 0-.11.67c.09.15.26.23.42.23.08 0 .16-.02.24-.06.01-.01 1.42-.75 3.08-.75.17 0 .34.01.51.02.37.04.73.09 1.09.14.59.09 1.2.18 1.8.18.39 0 .75-.04 1.1-.11.21 1.46-.34 3-1.45 3.98-.13.12-.19.29-.16.47.03.17.15.32.32.38.92.33 1.86.55 2.83.65-.53.32-1.08.61-1.65.86-.2.09-.32.31-.29.53s.2.39.42.42c1.28.19 2.59.28 3.89.28.89 0 1.8-.04 2.68-.13 2.81-.27 4.19-.54 4.89-.77.06 1.7-.66 3.4-1.4 4.87-.81 1.61-1.97 3.66-3.7 5.15-1.42 1.21-3.03 1.81-4.91 1.81z" fill="url(#h)"/><path d="M37.04 31.64c.92 0 1.77.16 2.47.36l-1.13.51c-.44.2-.68.68-.56 1.15.11.45.51.76.97.76h.06c.12-.01.24-.01.36-.01 1.26 0 2.7.35 4.09.69 1.42.34 2.76.67 3.99.67.24 0 .46-.01.68-.04-.41.89-1.41 1.03-3.36 1.19h-.05a.999.999 0 0 0-.32 1.91c1.11.5 2.33.76 3.53.76.77 0 1.5-.11 2.17-.33.43-.14.81-.32 1.16-.52-.18.42-.48.86-1.01 1.27-.41.32-.51.9-.22 1.33.19.29.51.46.84.46.16 0 .32-.04.47-.12.01-.01 1.32-.69 2.85-.69.15 0 .31.01.46.02.36.03.72.09 1.06.14.61.09 1.23.18 1.88.18.22 0 .43-.01.64-.03 0 1.13-.48 2.29-1.32 3.03a.992.992 0 0 0 .32 1.68c.48.18.97.32 1.47.43l-.33.15c-.4.18-.64.61-.57 1.05.06.44.41.78.85.85 1.31.19 2.64.29 3.97.29.91 0 1.83-.05 2.73-.13l.07-.01c2.08-.2 3.4-.41 4.26-.61-.12 1.38-.72 2.76-1.33 3.99-.79 1.57-1.91 3.56-3.58 5-1.34 1.15-2.84 1.71-4.6 1.71-1.96 0-4.19-.7-6.81-2.14-5.76-3.15-7.75-6.16-10.27-9.96-.44-.67-.9-1.35-1.39-2.06-.78-1.13-1.64-2.42-2.47-3.67-1.52-2.28-2.84-4.25-3.43-4.93-.45-.52-1.28-.65-2.42-.85-.5-.08-1.37-.23-1.77-.39.13-.98.74-1.5 1.84-2.12 1.12-.63 2.4-.97 3.75-.97m0-1c-1.33 0-2.8.29-4.29 1.13-1.25.71-2.3 1.51-2.37 3.24-.04 1.15 3.93 1.03 4.47 1.65.87.99 3.69 5.39 5.83 8.5 3.33 4.83 5 8.5 12 12.33 2.3 1.26 4.83 2.26 7.29 2.26 1.83 0 3.62-.55 5.25-1.96 1.66-1.43 2.84-3.35 3.82-5.31.93-1.85 1.74-3.92 1.37-5.96.12.63-4.81 1.09-5.35 1.15-.88.09-1.75.13-2.63.13-1.28 0-2.56-.09-3.82-.28 1.06-.49 2.08-1.08 3.03-1.77-.14.01-.28.01-.41.01-1.3 0-2.61-.23-3.83-.68 1.37-1.21 1.97-3.22 1.5-4.98-.5.18-.99.24-1.48.24-.92 0-1.85-.22-2.85-.32-.2-.01-.38-.02-.56-.02-1.82 0-3.32.81-3.32.81 2.3-1.79 1.44-4.19 1.44-4.19s-.95 1.19-2.5 1.69c-.58.19-1.22.28-1.86.28-1.06 0-2.16-.24-3.12-.67 2.52-.21 4.55-.35 4.57-3.67-.53.37-1.18.51-1.92.51-2.3 0-5.42-1.36-8.08-1.36-.14 0-.28 0-.42.01l3.24-1.46c-.01.01-2.16-1.31-5-1.31zm12.17 3.61zm12.43 11.51z" fill="#734825"/><path fill="none" stroke="#B05A2A" stroke-linecap="round" stroke-miterlimit="10" d="M43.77 90.62l-.58-13.38M57.44 93.31s1.82-5.43 3.25-8.69"/><path d="M10.14 51.5c4.07 1.56 7.52 4.47 7.37 11.16" fill="none" stroke="#4E342E" stroke-linecap="round" stroke-miterlimit="10" stroke-width="2"/><path d="M17.91 59.11C21.5 58 26.75 55.41 30.67 52M36.53 40.03l-4.95 4.8-1.7 14.8M31.36 44.55c-3.63-4.19-5.87-5.61-9.86-7.47M17.51 62.66c7.99 0 20.99-5.87 27.08-13.16" fill="none" stroke="#4E342E" stroke-linecap="round" stroke-linejoin="round" stroke-miterlimit="10" stroke-width="2"/><path d="M78 55.08l-4.55 3.09s1.45 4.83.75 9.75-2.12 9.79-2.12 9.79l-6.53-22.62 6.22-5.26.56 5.09 5.67.16z" fill="#262626" opacity=".2"/><path fill="none" d="M41 48.36l1.38-.56"/><radialGradient id="i" cx="2795.5" cy="3373.7" r="7.092" gradientTransform="matrix(-.0766 -.3143 .4978 .1895 -1419.1 282.23)" gradientUnits="userSpaceOnUse"><stop stop-color="#FFD29C" offset="0"/><stop stop-color="#FFD29C" offset=".747"/><stop stop-color="#FFD29C" offset=".87"/></radialGradient><path d="M48.99 46.54c.3-.48.15-1.11-.33-1.41l-3.28-2.02a1.023 1.023 0 1 0-1.08 1.74l3.28 2.02c.48.3 1.11.15 1.41-.33z" fill="url(#i)"/><radialGradient id="j" cx="6746.1" cy="-202.07" r="8.703" gradientTransform="matrix(.2709 .0274 -.1378 .3273 -1810.5 -75.134)" gradientUnits="userSpaceOnUse"><stop stop-color="#FFD29C" offset="0"/><stop stop-color="#FFD29C" offset=".747"/><stop stop-color="#FFD29C" offset=".87"/></radialGradient><path d="M42.97 46.18c.44.36 1.08.29 1.44-.15l1.13-1.39c.36-.44.29-1.08-.15-1.44s-1.08-.29-1.44.15l-1.13 1.39c-.35.44-.29 1.08.15 1.44z" fill="url(#j)"/><radialGradient id="k" cx="784.65" cy="-1708.5" r="4.582" gradientTransform="matrix(-.1634 -.8565 -.9429 .1799 -1438.3 1029)" gradientUnits="userSpaceOnUse"><stop stop-color="#FFD29C" offset="0"/><stop stop-color="#FFD29C" offset=".747"/><stop stop-color="#FFD29C" offset=".87"/></radialGradient><path d="M47.08 46.29l1.38 4.82-3.02 2.73s-2.19.67-2.68-.03c-.16-.23-.07-.73-.15-.87-.2-.35-.72-.32-.95-.78-.11-.23-.01-.76.06-1.06.04-.19-.12-.49-.31-.56-.4-.16-.59-.32-.7-.65s-.05-.7.13-1.04c.17-.33.11-.82-.2-1.03-.26-.18-.45-.78-.09-1.25.4-.51 2.27-1.12 2.27-1.12l4.26.84z" fill="url(#k)"/><linearGradient id="l" x1="780.34" x2="784.39" y1="-1722.5" y2="-1716.7" gradientTransform="matrix(-.1634 -.8565 -.8818 .1683 -1339 1010.1)" gradientUnits="userSpaceOnUse"><stop stop-color="#FFD29C" offset="0"/><stop stop-color="#FFD39E" offset=".024"/><stop stop-color="#FCD8AF" offset=".316"/><stop stop-color="#FADCBA" offset=".629"/><stop stop-color="#F9DDBD" offset="1"/></linearGradient><path d="M48.98 45.06l1.83 5.96s-5.95 4.12-6.58 2.56c-.05-.12-.07-.56-.08-.73-.01-.21-.12-.3-.3-.42-.27-.19-.57-.44-.63-.72-.05-.28.02-.64.12-.93.07-.21-.05-.42-.25-.51-.44-.18-.72-.32-.81-.8-.07-.39-.11-.83.11-1.14.23-.34.16-.93-.13-1.22-.16-.16-.37-.64-.12-1.24.39-.94 6.84-.81 6.84-.81z" fill="url(#l)"/><path d="M50.81 51.02l-1.83-5.96h-.43l-3.17-1.95c-.22-.14-.48-.17-.71-.13h-.02c-.03.01-.06.02-.1.03-.22.05-.43.15-.59.34l-1.13 1.39c-.19.23-.25.52-.21.79-.49.17-1.73.64-2.05 1.04-.36.46-.17 1.07.09 1.25.3.21.37.7.2 1.03s-.24.7-.13 1.04c.11.33.3.48.7.65.19.08.35.37.3.56-.07.3-.17.83-.06 1.06.23.46.75.44.95.78.08.14-.01.65.15.87.38.53 1.76.26 2.37.11 1.83-.24 5.67-2.9 5.67-2.9z" fill="none" stroke="#EDBD82" stroke-linecap="round" stroke-linejoin="round" stroke-miterlimit="10"/><linearGradient id="m" x1="77.277" x2="88.244" y1="-88.647" y2="-85.817" gradientTransform="rotate(-21.471 338.658 146.072)" gradientUnits="userSpaceOnUse"><stop stop-color="#FFD29C" offset="0"/><stop stop-color="#FFD39E" offset=".024"/><stop stop-color="#FCD8AF" offset=".316"/><stop stop-color="#FADCBA" offset=".629"/><stop stop-color="#F9DDBD" offset="1"/></linearGradient><path d="M46.96 29.85c-2.55 0-3.22-1.62-3.76-2.93-.24-.57-.42-1.03-.77-1.27-.12-.09-.27-.12-.55-.18-1.13-.25-1.37-.47-1.38-.61-.01-.42.34-.98.68-1.53.49-.78.99-1.6.69-2.37-.05-.2-.29-.67-.53-1.14l-.05-.1c-.45-.93-.77-2.28-.85-3.62-.26-4.22 1.57-7.33 5.17-8.77.88-.35 1.88-.53 2.96-.53 2.96 0 6.14 1.31 8.1 3.33 1.56 1.6 1.81 7.68.87 11.21-.09.33-.19.7 3.2 2.82l-3.31 5.09c-.74-.2-2.5-.61-4.46-.61-.78 0-1.52.07-2.2.2-.28.06-.5.17-.72.29-.37.2-.88.47-2.08.64-.35.05-.69.08-1.01.08z" fill="url(#m)"/><path d="M48.58 7.29c2.78 0 5.9 1.28 7.74 3.18 1.32 1.36 1.72 7.08.75 10.74-.16.61-.27 1.03 2.99 3.1l-2.84 4.37c-.89-.22-2.49-.54-4.24-.54-.82 0-1.59.07-2.3.21-.36.07-.63.21-.86.34-.36.19-.8.43-1.91.59-.34.05-.66.07-.95.07-2.22 0-2.79-1.39-3.3-2.62-.26-.62-.48-1.16-.94-1.49-.21-.14-.41-.19-.73-.26-.19-.04-.71-.16-.96-.29.09-.3.36-.75.58-1.1.52-.84 1.1-1.78.74-2.78-.08-.27-.28-.67-.56-1.22l-.05-.1c-.42-.88-.73-2.16-.81-3.44-.14-2.31.3-6.45 4.86-8.27a7.78 7.78 0 0 1 2.79-.49m0-1c-1.11 0-2.18.18-3.15.57-4.12 1.64-5.74 5.23-5.49 9.27.09 1.46.44 2.86.9 3.81.06.11.48.93.56 1.2.39 1.02-1.41 2.51-1.4 3.73.01.91 1.96 1.07 2.14 1.19.82.58.83 4.29 4.82 4.29.33 0 .7-.03 1.09-.08 1.95-.28 2.22-.82 2.83-.94.7-.14 1.41-.19 2.1-.19 2.5 0 4.68.7 4.68.7l3.8-5.84s-3.51-2.17-3.41-2.54c.94-3.55.78-9.86-1-11.69-2.04-2.09-5.38-3.48-8.47-3.48z" fill="#EDBD82"/><path d="M43.12 28.03c.7-.11 1.35-.43 1.84-.99.54-.62-.02-1.05-.68-.58-.4.29-1.01.52-1.6.54l.44 1.03z" fill="#444"/><ellipse transform="rotate(-14.222 44.636 21.036)" cx="44.64" cy="21.04" rx=".94" ry="1.44" fill="#312D2D"/><radialGradient id="n" cx="44.492" cy="18.609" r="1.537" gradientUnits="userSpaceOnUse"><stop stop-color="#454140" offset=".09"/><stop stop-color="#454140" offset="1"/></radialGradient><path d="M43.59 19.27c-.78.55-1.18.06-1.05-.5.09-.41.52-.88 1.6-1.03 1.02-.15 1.6.27 1.97.51s.46.59.25.69c-.29.14-1.81-.35-2.77.33z" fill="url(#n)"/><radialGradient id="o" cx="89.604" cy="-32.172" r="9.671" gradientTransform="matrix(1.0028 -.2704 .2661 .9642 -33.904 66.729)" gradientUnits="userSpaceOnUse"><stop stop-color="#454140" offset="0"/><stop stop-color="#312D2D" offset="1"/></radialGradient><path d="M52.47 19.88l.47-1.35c.32-.78.61-1.47 1.26-1.49 1.91-.09 2.44 3.22.49 4.51 0 0 .99 2.33 3.44 2.34.25 0 .48-.02.68-.05.63-.09 1-.69 1-1.33.02-3.99 1.47-3.57 1.18-8.13-.39-6.26-6.7-8.83-11.88-7.88-2.02.37-3.99 1.19-5.6 2.48-.69.54-3.01 2.63-3.27 4.06-.33 1.82 1 2.97 1 2.97s5.21-1.73 7.77-1.82c.34-.01.73 0 .94.26.1.11.34.92.39 1.06.58 1.82.71 3.03 1.56 4.06.13.15.57.31.57.31z" fill="url(#o)"/><path d="M57.98 7.15c-2.37-1.85-6.1-2.57-9.36-1.97-2.19.4-4.19 1.28-5.77 2.55-.03.02-3.04 2.48-3.42 4.3-.4 1.95.58 2.79.8 2.94.4.26.98-.02.98-.02-.57-.37-1.21-1.63-1-2.77.23-1.23 2.37-3.22 3.13-3.82 1.49-1.19 3.36-2.02 5.42-2.4 3.05-.56 6.53.1 8.72 1.81 1.76 1.38 2.77 3.33 2.92 5.63.15 2.38-.18 3.34-.53 4.36-.32.91-.64 1.85-.65 3.75 0 .41-.67 1.35-.6 1.34.84-.17 1.4-.51 1.4-1.33.01-1.77.3-2.61.61-3.49.36-1.04.74-2.12.58-4.67-.17-2.54-1.28-4.69-3.23-6.21z" fill="#1F1A1A"/><linearGradient id="p" x1="69.102" x2="56.916" y1="74.428" y2="99.908" gradientTransform="rotate(-4.083 -366.422 -18.429)" gradientUnits="userSpaceOnUse"><stop stop-color="#FFB300" offset=".195"/><stop stop-color="#FFCA28" offset=".691"/></linearGradient><path fill="url(#p)" d="M70.81 77.2l-5.99.5-4.2-23.34 9.91-.8z"/><linearGradient id="q" x1="57.844" x2="82.344" y1="52.319" y2="44.194" gradientUnits="userSpaceOnUse"><stop stop-color="#eee" offset=".083"/><stop stop-color="#BDBDBD" offset="1"/></linearGradient><path fill="url(#q)" d="M69.58 56.72l-7.09-6.77 19.46-13.92 7.12 11.41z"/><linearGradient id="r" x1="62.646" x2="87.146" y1="66.798" y2="58.673" gradientUnits="userSpaceOnUse"><stop stop-color="#eee" offset=".083"/><stop stop-color="#BDBDBD" offset="1"/></linearGradient><path fill="url(#r)" d="M70.81 77.2l-5.99.5-4.2-23.34 9.91-.8z"/><linearGradient id="s" x1="65.01" x2="52.824" y1="72.471" y2="97.951" gradientTransform="rotate(-4.083 -366.422 -18.429)" gradientUnits="userSpaceOnUse"><stop stop-color="#FFB300" offset=".195"/><stop stop-color="#FFCA28" offset=".691"/></linearGradient><circle cx="65.55" cy="53.81" r="4.97" fill="url(#s)"/><linearGradient id="t" x1="57.501" x2="82.001" y1="51.283" y2="43.158" gradientUnits="userSpaceOnUse"><stop stop-color="#eee" offset=".083"/><stop stop-color="#BDBDBD" offset="1"/></linearGradient><circle cx="85.94" cy="41.85" r="6.97" fill="url(#t)"/><linearGradient id="u" x1="59.053" x2="83.553" y1="55.963" y2="47.838" gradientUnits="userSpaceOnUse"><stop stop-color="#eee" offset=".083"/><stop stop-color="#BDBDBD" offset="1"/></linearGradient><circle cx="65.55" cy="53.81" r="4.97" fill="url(#u)"/><path d="M89.07 34.56c-2.04-1.99-4.86.03-7.07 1.54l-.04-.07-18.7 13.38a4.87 4.87 0 0 0-2.1 2.09c-.52.99-.66 2.08-.49 3.11l4.15 23.09 5.99-.5s1.25-15.64-.86-21.08c0 0 19.98-6.62 21.73-11.43 1.7-3.77-.06-7.63-2.61-10.13z" fill="none" stroke="#ABA59F" stroke-linecap="round" stroke-linejoin="round" stroke-miterlimit="10"/><path d="M73.34 82.5c.56-.09.85-1 .86-2.25s-1.48-4.55-1.48-4.55l-1.43-12.67-9.61 1.45 2.28 12.56-3.86 2.09a3.568 3.568 0 0 0-1.75 3.61l.17 1.12c.07.49.53.83 1.02.76l13.8-2.12z" fill="#444" stroke="#2D2E30" stroke-linecap="round" stroke-linejoin="round" stroke-miterlimit="10"/><radialGradient id="v" cx="59.538" cy="30.873" r="14.608" gradientUnits="userSpaceOnUse"><stop stop-color="#FB8C00" offset=".367"/><stop stop-color="#F67F00" offset=".672"/><stop stop-color="#EF6C00" offset="1"/></radialGradient><path d="M56.86 27.15c-.64 1.44-.56 6.21 2.67 6.58 9.81 1.15 14.65 7.08 14.65 7.08s8.74-4.88 16.33-5.07c-4.23-7.13-14.72-12.89-24-13.99-3.54-.41-8.47-.29-9.65 5.4z" fill="url(#v)" stroke="#DB6300" stroke-linecap="round" stroke-linejoin="round" stroke-miterlimit="10"/><circle cx="59.52" cy="44.16" r="3.24" fill="#FB8C00"/><path d="M56.73 44.64l6.57-.27 1.36-15.19a3.902 3.902 0 0 0-3.98-3.83h-.2a3.902 3.902 0 0 0-3.83 3.98l.08 15.31z" fill="#FB8C00"/><path fill="#FB8C00" d="M48.25 44.93l2.56 6.09 10.4-4.09-4.15-5.71z"/><path d="M50.83 22.13c.32 3.54-.07 5.72-.5 7.45 2.06-.32 2.41-3.82 2.66-6.62.24-2.79-.03-5.49-.03-5.49l-3.34-.29s1.05 3.07 1.21 4.95z" fill="#262626"/><radialGradient id="w" cx="48.055" cy="11.124" r="10.645" gradientUnits="userSpaceOnUse"><stop stop-color="#757575" offset="0"/><stop stop-color="#616161" offset="1"/></radialGradient><path d="M36.51 17.66c-1.38 0-1.79-.58-1.98-1.01-.23-.53.68-1.1 1.89-1.8.84-.49 1.57-.91 1.88-1.45 1.4-2.43 3-4.46 4.77-6.04 1.24-1.1 3.47-2.18 5.31-2.57.3-.07 1.15-.16 1.46-.18.27-.02.54-.02.8-.02 6.89 0 10.8 5.11 10.98 9.91.02.63-.11 1.41-.23 2.1l-.09.55c-.04.23-.15.3-.89.36l-.3.03c-.38.04-.75.07-1.12.07h-.16c-3.48-.08-6.55-.28-9.39-.64-.72-.09-1.46-.25-2.17-.4-.99-.21-2.01-.43-3.06-.49h-.16c-.83 0-1.95.33-3.25.7-1.43.41-3.04.88-4.29.88z" fill="url(#w)"/><path d="M50.63 5.09c6.58 0 10.31 4.86 10.48 9.43.02.57-.11 1.33-.22 1.99-.03.15-.05.3-.07.45-.13.02-.32.04-.46.05l-.32.03c-.43.05-.76.07-1.07.07h-.15c-3.46-.08-6.52-.28-9.34-.64-.7-.09-1.39-.24-2.13-.39-1.01-.22-2.05-.44-3.14-.5h-.18c-.9 0-2.06.34-3.39.72-1.39.4-2.96.86-4.14.86-1.17 0-1.4-.44-1.51-.68.16-.32 1.13-.88 1.67-1.19.87-.5 1.69-.97 2.07-1.63 1.37-2.38 2.94-4.37 4.67-5.91 1.18-1.05 3.31-2.08 5.08-2.45.26-.05 1.07-.15 1.39-.17.25-.03.51-.04.76-.04m0-1c-.27 0-.55.01-.83.03-.34.02-1.21.12-1.53.19-1.81.38-4.15 1.45-5.54 2.69-1.99 1.78-3.58 3.94-4.87 6.16-.65 1.12-4.47 2.12-3.8 3.69.42.98 1.32 1.31 2.44 1.31 2.43 0 5.86-1.58 7.54-1.58h.13c1.76.1 3.46.67 5.2.89 3.14.39 6.28.57 9.44.64h.17c.39 0 .78-.03 1.18-.08.7-.08 1.52-.02 1.64-.81.13-.85.35-1.89.32-2.75-.21-5.45-4.78-10.38-11.49-10.38z" fill="#444"/><linearGradient id="x" x1="17.219" x2="25.132" y1="32.955" y2="40.986" gradientUnits="userSpaceOnUse"><stop stop-color="#C69C6D" offset=".001"/><stop stop-color="#C59B6C" offset=".007"/><stop stop-color="#7D542C" offset=".685"/><stop stop-color="#603813" offset="1"/></linearGradient><path d="M18.33 42.9c-.85 0-1.77-.11-2.75-.32-2.13-.47-4.36-2.3-4.77-5.37.71.38 1.74.62 2.77.62 1.88 0 3.55-.75 4.71-2.12l.24-.28c1.04-1.23 2.62-3.09 3.92-3.61.96-.38 1.96-.58 2.96-.58 1.49 0 2.67.43 3.29.72-.62.94-1.15 2.09-1.71 3.31-1.64 3.56-3.49 7.63-8.66 7.63z" fill="url(#x)"/><path d="M25.4 31.73c1.05 0 1.93.23 2.55.45-.51.86-.96 1.84-1.42 2.86-1.65 3.61-3.35 7.35-8.2 7.35-.81 0-1.7-.1-2.65-.31-1.33-.29-3.49-1.46-4.21-4.06.64.19 1.36.3 2.1.3 2.03 0 3.84-.82 5.09-2.3l.23-.28c.95-1.12 2.54-3 3.72-3.48.92-.35 1.85-.53 2.79-.53m0-1c-.95 0-2.01.16-3.14.62-1.52.61-3.26 2.76-4.35 4.03-1.24 1.46-2.89 1.94-4.33 1.94-1.31 0-2.45-.4-2.94-.83a.24.24 0 0 0-.15-.06c-.12 0-.24.1-.23.25.22 3.79 2.94 5.88 5.22 6.37 1.05.23 2 .33 2.86.33 7.59 0 8.4-8.15 11.1-11.63-.01.02-1.64-1.02-4.04-1.02z" fill="#734825"/><path d="M64.67 29.17a3.902 3.902 0 0 0-3.98-3.83h-.2a3.902 3.902 0 0 0-3.83 3.98l.09 11.9-8.5 3.71 2.56 6.1 9.35-3.69c3-.94 3.27-3.52 3.27-3.52l1.24-14.65z" fill="none" stroke="#DB6300" stroke-linecap="round" stroke-linejoin="round" stroke-miterlimit="10"/><path d="M32.95 28.22c.6-.52 1.72-.1 1.9.71.87 3.94 2.08 12.53-4.56 10.27-6.54-2.22-.35-8.39 2.66-10.98z" fill="#FFAF61"/><path d="M27.75 37.42c-1.61-2.8 2.8-7.14 5.2-9.2.6-.52 1.72-.1 1.9.71.53 2.41 1.19 6.54.11 8.89" fill="none" stroke="#B05A2A" stroke-linecap="round" stroke-linejoin="round" stroke-miterlimit="10"/><linearGradient id="y" x1="3.56" x2="4.97" y1="4.885" y2="12.818" gradientTransform="rotate(30.843 -24.145 72.2)" gradientUnits="userSpaceOnUse"><stop stop-color="#D49151" offset="0"/><stop stop-color="#D28E4F" offset=".319"/><stop stop-color="#CE8349" offset=".593"/><stop stop-color="#C6713F" offset=".849"/><stop stop-color="#C46D3D" offset=".9"/></linearGradient><path d="M33.42 34.99c-.08.56-.22 1.13-.58 1.56s-1 .71-1.61.54c-.69-.18-1.16-.87-1.23-1.51-.08-.64.16-1.26.42-1.83.3-.66 1.86-2.63 3.09-3.7.37-.33 0 4.25-.09 4.94z" fill="url(#y)"/></svg>