<svg viewBox="0 0 128 128" width="128" height="128" xmlns="http://www.w3.org/2000/svg" xmlns:xlink="http://www.w3.org/1999/xlink"><circle cx="76.01" cy="50.39" r="3.74" fill="#FBC11B"/><linearGradient id="a" x1=".28" x2=".28" y1="54.07" y2="21.437" gradientTransform="matrix(-1 0 0 1 84.02 0)" gradientUnits="userSpaceOnUse"><stop stop-color="#8D5738" offset=".002"/><stop stop-color="#97603D" offset=".218"/><stop stop-color="#A26941" offset=".574"/><stop stop-color="#A56C43" offset="1"/></linearGradient><path d="M75.85 54.07c-.64 0-1.33-.29-2.17-.91-1.88-1.38-2.5-3.51-1.55-5.31 1.19-2.25 2.25-3.69 3.72-5.69.31-.42.64-.87.99-1.35.03-.03.05-.05.07-.08 2.07-3.31 5.02-6.05 8.1-7.52.13-.06.22-.17.26-.31 1.59-5.2 3.27-8.14 6.59-11.46l3.93 1.99c-.08 4.59-1.91 8.88-5.3 12.43-.05.06-.09.13-.12.2-1.04 3.44-3.21 7.46-5.66 10.5-.05.07-.09.14-.1.22-1.78 2.27-4.47 5.21-6.39 6.31-1.04.7-1.72.98-2.37.98z" fill="url(#a)"/><path d="M91.96 22.05l3.32 1.69c-.15 4.34-1.93 8.4-5.15 11.78-.11.11-.19.25-.23.4-1.02 3.38-3.16 7.34-5.57 10.33-.07.09-.13.2-.17.31-1.76 2.22-4.35 5.06-6.18 6.1-.02.01-.04.03-.06.04-.92.62-1.52.88-2.06.88-.53 0-1.12-.26-1.88-.81-1.69-1.24-2.24-3.08-1.4-4.68 1.17-2.22 2.22-3.65 3.68-5.63.3-.41.63-.85.97-1.32.04-.04.08-.09.11-.14 2.02-3.23 4.89-5.91 7.89-7.34.25-.12.44-.34.53-.61 1.51-4.99 3.11-7.85 6.2-11m-.2-1.22c-3.63 3.56-5.35 6.61-6.97 11.92-3.43 1.63-6.39 4.62-8.31 7.71-2.04 2.81-3.32 4.37-4.79 7.16-1.11 2.12-.31 4.48 1.7 5.95.95.7 1.72 1 2.47 1 .84 0 1.64-.39 2.62-1.05 2.07-1.18 4.88-4.3 6.68-6.62l-.05-.03c2.29-2.85 4.6-6.87 5.75-10.67 3.22-3.36 5.44-7.77 5.44-13.08l-4.54-2.29z" fill="#875334"/><defs><path id="b" d="M87.14 24.53l2.19.64 1.08-1.43 4.76.57-.06 1.66 2.79.63 3.03-9.56-12.75-2.86z"/></defs><clipPath id="c"><use xlink:href="#b"/></clipPath><g clip-path="url(#c)"><radialGradient id="d" cx="-8.835" cy="19.202" r="7.007" gradientTransform="matrix(.6992 .7149 .7216 -.7057 85.12 40.095)" gradientUnits="userSpaceOnUse"><stop stop-color="#8D5738" offset=".184"/><stop stop-color="#A56C43" offset=".556"/></radialGradient><path d="M93.04 25.77c-3.57 0-4.65-2.58-4.95-3.68-.48-1.78-.04-3.41.66-3.82.66-.38 4.37-1.02 7.14-1.02 1.5 0 1.97.2 2.09.27v3.04c0 3.07-2.02 5.21-4.93 5.22h-.01z" fill="url(#d)"/><path d="M95.89 17.75c.86 0 1.34.07 1.59.12v2.69c0 1.32-.42 2.51-1.18 3.36-.8.88-1.92 1.35-3.25 1.35-3.23 0-4.2-2.32-4.47-3.31-.43-1.59-.03-2.99.43-3.26.54-.31 4.08-.95 6.88-.95m0-1c-2.67 0-6.56.61-7.39 1.09-2.08 1.21-1.59 8.44 4.54 8.44h.01c3.39-.01 5.43-2.58 5.43-5.72l-.01-3.12c0-.5-1.1-.69-2.58-.69z" fill="#875334"/></g><radialGradient id="e" cx="92.016" cy="22.528" r=".148" gradientUnits="userSpaceOnUse"><stop stop-color="#8D5738" offset=".184"/><stop stop-color="#A56C43" offset=".556"/></radialGradient><path d="M92.1 22.72c-.04-.03-.08-.05-.1-.08-.02-.11-.04-.21-.06-.31.06.13.11.26.16.39z" fill="url(#e)"/><path d="M89.46 20.17c-.21 0-.38.12-.32.35.08.28.48.42.73.46.92.13 1.5.92 1.65 1.8.05.3.57.55.91.55.17 0 .3-.07.27-.23-.26-1.61-1.58-2.7-3.16-2.92-.02-.01-.05-.01-.08-.01z" fill="#875334"/><linearGradient id="f" x1="53.39" x2="53.39" y1="116.94" y2="73.582" gradientTransform="matrix(-1 0 0 1 130.83 0)" gradientUnits="userSpaceOnUse"><stop stop-color="#8D5738" offset="0"/><stop stop-color="#97603D" offset=".216"/><stop stop-color="#A26941" offset=".573"/><stop stop-color="#A56C43" offset="1"/></linearGradient><path d="M78.63 116.94c-.02-.94-.06-3.14-.15-5.88 0-.13-.03-.46-.08-.93-.19-2.07-.62-6.93-.31-10.79.1-1.26.34-2.51.71-3.71a.508.508 0 0 0-.2-.56c-2.55-1.69-4.74-3.3-6.33-4.67-3.35-2.88-6.12-7.5-6.83-8.74l7.51-8.06c1.17.79 5.09 3.54 8.35 6.99 2.04 2.16 4.37 4.66 6.15 6.58a7.508 7.508 0 0 1 1.82 6.75l-5.19 23.03-5.45-.01z" fill="url(#f)"/><path d="M73.02 74.24c1.46 1.01 4.96 3.55 7.91 6.68 2.1 2.22 4.5 4.8 6.15 6.57a7.02 7.02 0 0 1 1.7 6.3l-5.1 22.64-4.55.01c-.02-1.11-.07-3.07-.14-5.4 0-.14-.03-.47-.08-.96-.18-2.06-.62-6.89-.31-10.71.1-1.22.33-2.43.69-3.61.13-.42-.03-.88-.4-1.13-2.57-1.7-4.69-3.26-6.28-4.63-3.05-2.62-5.62-6.74-6.54-8.29l6.95-7.47m-.15-1.31l-8.05 8.64s3.13 5.76 7.12 9.19c1.95 1.68 4.39 3.39 6.38 4.71-.3.99-.6 2.28-.73 3.82-.38 4.78.36 11.08.39 11.78.12 3.66.16 6.37.16 6.37l6.34-.02L89.76 94c.58-2.57-.14-5.27-1.94-7.2-1.78-1.92-4.11-4.42-6.15-6.58-3.96-4.17-8.8-7.29-8.8-7.29z" fill="#875334"/><linearGradient id="g" x1="51.288" x2="51.288" y1="116.94" y2="73.582" gradientUnits="userSpaceOnUse"><stop stop-color="#8D5738" offset="0"/><stop stop-color="#97603D" offset=".216"/><stop stop-color="#A26941" offset=".573"/><stop stop-color="#A56C43" offset="1"/></linearGradient><path d="M44.66 116.92L39.47 93.9c-.54-2.41.13-4.94 1.82-6.75 1.78-1.92 4.11-4.42 6.15-6.58 3.26-3.45 7.17-6.19 8.35-6.99l7.51 8.06c-.71 1.24-3.48 5.86-6.83 8.74-1.59 1.36-3.78 2.98-6.33 4.67-.18.12-.27.35-.2.56.37 1.21.61 2.46.71 3.71.31 3.87-.13 8.72-.31 10.79-.04.47-.07.8-.08.93-.09 2.74-.13 4.94-.15 5.88h-5.45z" fill="url(#g)"/><path d="M55.71 74.24l6.97 7.48c-.91 1.55-3.48 5.67-6.54 8.29-1.59 1.37-3.71 2.93-6.28 4.63-.37.24-.53.7-.4 1.13.36 1.17.59 2.38.69 3.61.3 3.83-.13 8.65-.31 10.71-.04.49-.07.82-.08.96-.08 2.33-.12 4.29-.14 5.4l-4.55-.01-5.1-22.64c-.51-2.25.13-4.61 1.7-6.3 1.65-1.77 4.05-4.35 6.15-6.57 2.93-3.14 6.43-5.68 7.89-6.69m.15-1.31s-4.84 3.12-8.79 7.3c-2.04 2.16-4.37 4.66-6.15 6.58a7.983 7.983 0 0 0-1.94 7.2l5.28 23.42 6.34.02s.04-2.71.16-6.37c.02-.7.77-7 .39-11.78-.12-1.54-.43-2.83-.73-3.82 1.99-1.32 4.43-3.03 6.38-4.71 3.99-3.43 7.12-9.19 7.12-9.19l-8.06-8.65z" fill="#875334"/><path fill="#E0E0E0" d="M44.65 116.93l-1.35-5.36h6.94l-.13 5.37z"/><path d="M49.73 112.07l-.11 4.37-4.58-.01-1.1-4.35h5.79m1.02-1.01zm0 0h-8.09l1.6 6.35 6.34.02.15-6.37z" fill="#BFBFBF"/><path d="M35.83 123.5c-.14 0-.27-.05-.36-.15-.1-.1-.15-.23-.15-.36v-1.28c.01-1.46.89-2.75 2.25-3.28l5.88-2.08h7.41c.38.56 1.41 2.19 1.42 3.61l.01 2.84c0 .18-.07.34-.19.47s-.29.19-.47.2l-15.8.03z" fill="#4568AD"/><path d="M50.59 116.84c.48.74 1.18 2.05 1.18 3.11l.01 2.84c0 .06-.03.09-.05.11s-.06.05-.11.05l-15.8.04v-1.28c.01-1.25.76-2.36 1.9-2.81l5.82-2.06h7.05m.53-1h-7.75l-5.98 2.11a4.036 4.036 0 0 0-2.56 3.75v1.28c0 .56.45 1.02 1.01 1.02l15.79-.05c.64 0 1.16-.52 1.16-1.17l-.01-2.84c-.01-1.92-1.66-4.1-1.66-4.1z" fill="#315499"/><path fill="#E0E0E0" d="M78.49 111.57h6.94l-1.35 5.36-5.46.01z"/><path d="M84.79 112.07l-1.1 4.35-4.58.01-.11-4.36h5.79m1.28-1h-8.09l.16 6.37 6.34-.02 1.59-6.35z" fill="#BFBFBF"/><path d="M77.1 123.45a.665.665 0 0 1-.66-.67l.01-2.84c0-1.42 1.03-3.05 1.42-3.61h7.41l5.9 2.09c1.34.53 2.22 1.82 2.23 3.28v1.28c0 .14-.05.27-.15.36-.1.1-.23.15-.36.15l-15.8-.04z" fill="#4568AD"/><path d="M85.19 116.84l5.78 2.04c1.17.46 1.93 1.57 1.93 2.82v1.3l-15.79-.05c-.06 0-.09-.03-.11-.05s-.05-.06-.05-.11l.01-2.84c0-1.06.71-2.38 1.18-3.11h7.05m.18-1h-7.75s-1.66 2.18-1.66 4.11l-.01 2.84c0 .64.52 1.16 1.16 1.17l15.78.04c.56 0 1.01-.45 1.01-1.02v-1.28a4.051 4.051 0 0 0-2.56-3.75l-5.97-2.11z" fill="#315499"/><circle cx="52.05" cy="50.39" r="3.74" fill="#FBC11B"/><linearGradient id="h" x1="44.324" x2="44.324" y1="54.07" y2="21.437" gradientUnits="userSpaceOnUse"><stop stop-color="#8D5738" offset="0"/><stop stop-color="#97603D" offset=".216"/><stop stop-color="#A26941" offset=".573"/><stop stop-color="#A56C43" offset="1"/></linearGradient><path d="M52.21 54.07c-.65 0-1.33-.28-2.34-.96-1.96-1.12-4.66-4.08-6.44-6.35a.496.496 0 0 0-.08-.2c-2.45-3.04-4.62-7.06-5.66-10.5a.415.415 0 0 0-.12-.2c-3.39-3.55-5.22-7.84-5.3-12.43l3.93-1.99c3.32 3.32 5 6.26 6.59 11.46.04.13.14.25.26.31 3.08 1.47 6.04 4.21 8.1 7.52.02.03.04.06.07.09.35.48.68.93.99 1.35 1.47 2 2.53 3.44 3.72 5.69.95 1.8.33 3.94-1.55 5.31-.84.61-1.53.9-2.17.9z" fill="url(#h)"/><path d="M36.11 22.05c3.08 3.15 4.69 6.02 6.21 10.99.08.27.27.49.53.61 3 1.43 5.88 4.1 7.89 7.34.03.05.07.1.11.14.34.47.67.91.97 1.33 1.46 1.98 2.51 3.41 3.68 5.63.84 1.6.29 3.44-1.4 4.68-.75.55-1.35.81-1.88.81-.54 0-1.14-.25-2.06-.88-.02-.01-.04-.03-.06-.04-1.84-1.05-4.43-3.88-6.18-6.1-.04-.11-.09-.21-.17-.31-2.41-2.99-4.54-6.95-5.57-10.33-.05-.15-.13-.29-.23-.4-3.23-3.37-5-7.44-5.15-11.78l3.31-1.69m.19-1.22l-4.53 2.3c0 5.31 2.22 9.71 5.44 13.08 1.15 3.79 3.45 7.82 5.75 10.67l-.05.03c1.8 2.32 4.61 5.44 6.68 6.62.98.66 1.78 1.05 2.62 1.05.75 0 1.52-.31 2.47-1 2.01-1.47 2.81-3.84 1.7-5.95-1.47-2.79-2.75-4.35-4.79-7.16-1.92-3.09-4.88-6.08-8.31-7.71-1.63-5.33-3.35-8.37-6.98-11.93z" fill="#875334"/><linearGradient id="i" x1="64.032" x2="64.032" y1="48.559" y2="75.018" gradientUnits="userSpaceOnUse"><stop stop-color="#F78C1F" offset="0"/><stop stop-color="#F37F20" offset=".494"/><stop stop-color="#ED6D23" offset="1"/></linearGradient><path d="M54.58 73.22c-.71-2.4-4.74-16.14-5.49-19.8a.464.464 0 0 0-.12-.23c-.04-.04-3.47-3.85-5.34-6.19l7.86-5.84c.25.35.5.67.73.99 1.23 1.68 2.21 3 3.2 4.74.09.16.26.25.43.25.04 0 .08-.01.13-.02 1.21-.32 2.53-.48 3.94-.48h8.16c1.43 0 2.79.16 4.03.48.04.01.08.02.12.02.18 0 .34-.09.43-.25.99-1.74 1.96-3.06 3.2-4.74.23-.32.48-.65.73-.99L84.44 47c-1.82 2.29-5.14 6.07-5.17 6.11a.53.53 0 0 0-.11.21l-5.08 19.9h-19.5z" fill="url(#i)"/><path d="M76.69 41.86l7.03 5.23c-1.86 2.29-4.8 5.65-4.83 5.69-.1.12-.18.26-.22.41l-4.98 19.53H54.95c-.93-3.17-4.66-15.91-5.38-19.4-.04-.18-.12-.34-.24-.47-.03-.04-3.08-3.42-5-5.76l7.03-5.23c.15.2.29.4.43.59 1.22 1.66 2.19 2.97 3.16 4.68.18.32.52.5.87.5.08 0 .17-.01.25-.03 1.17-.31 2.45-.46 3.81-.46h8.16c1.39 0 2.71.16 3.91.47a1.016 1.016 0 0 0 1.12-.47c.98-1.71 1.94-3.02 3.16-4.69.17-.19.31-.39.46-.59m-.21-1.4c-1.79 2.46-2.99 3.97-4.25 6.18-1.23-.32-2.62-.5-4.16-.5H59.9c-1.51 0-2.86.18-4.06.49-1.26-2.21-2.46-3.72-4.25-6.18l-8.67 6.45c1.8 2.32 5.68 6.62 5.68 6.62.83 4.06 5.61 20.2 5.61 20.2h20.27l5.17-20.28s3.75-4.28 5.51-6.53l-8.68-6.45z" fill="#DA6727"/><path d="M63.68 49.35c-1.46 0-2.65-1.12-2.65-2.51v-3.17h5.93v3.17c0 1.38-1.19 2.51-2.65 2.51h-.63z" fill="#7A4C32"/><path d="M66.47 44.17v2.67c0 1.11-.97 2.01-2.15 2.01h-.63c-1.19 0-2.15-.9-2.15-2.01v-2.67h4.93m1-1h-6.94v3.67c0 1.66 1.41 3.01 3.15 3.01h.63c1.74 0 3.15-1.35 3.15-3.01v-3.67h.01z" fill="#663B22"/><radialGradient id="j" cx="-1825.5" cy="238.45" r="1.125" gradientTransform="matrix(.216 1.0286 .3102 -.0692 409.12 1912.3)" gradientUnits="userSpaceOnUse"><stop stop-color="#FFCA28" offset=".599"/><stop stop-color="#FFB300" offset="1"/></radialGradient><path d="M88.04 18.03c.14.75.86 1.24 1.6 1.1" fill="url(#j)" stroke="#EDA600" stroke-linecap="round" stroke-linejoin="round" stroke-miterlimit="10"/><radialGradient id="k" cx="64.082" cy="37.362" r="10.543" gradientUnits="userSpaceOnUse"><stop stop-color="#554138" offset="0"/><stop stop-color="#3C2C23" offset="1"/></radialGradient><path d="M74.21 40.68c-.48-.94.08-1.79 1-2.75 1.04-1.08 2.78-4.77.94-8.06-.35-.05-5.37.03-6.64.03H58.65c-1.27 0-6.3-.07-6.64-.03-1.84 3.29-.11 6.99.94 8.06.93.96 1.48 1.81 1 2.75-.32.61-.78.82-1.12.88.09.14.21.26.35.34.49.29 1.1.36 1.5.37.24.01.42.17.58.34 1.69 1.88 2.87 2.27 8.83 2.27s7.14-.39 8.83-2.27c.16-.18.33-.34.58-.34.4-.01 1.01-.08 1.5-.37.14-.08.26-.2.35-.34-.35-.07-.82-.27-1.14-.88z" fill="url(#k)"/><path d="M64.08 45.38c-5.96 0-7.34-.36-9.2-2.43-.13-.14-.19-.18-.22-.18-.48-.01-1.17-.1-1.74-.44-.21-.12-.38-.3-.52-.51l-.39-.62.71-.14c.34-.07.6-.27.78-.62.3-.58.05-1.17-.92-2.17-1.29-1.34-2.92-5.25-1.01-8.65l.12-.22.24-.04c.23-.03 1.6-.03 4.57 0 .92.01 1.73.02 2.14.02h10.85c.41 0 1.23-.01 2.14-.02 2.97-.03 4.34-.04 4.57 0l.24.04.12.22c1.91 3.41.28 7.32-1.01 8.65-.97 1-1.22 1.59-.92 2.17.18.35.43.55.78.62l.71.14-.39.62c-.13.21-.31.38-.52.5-.57.34-1.26.43-1.75.44-.04 0-.11.06-.22.18-1.82 2.07-3.2 2.44-9.16 2.44zm-10.27-3.74c.33.1.67.13.88.13.49.01.8.36.94.51 1.54 1.7 2.5 2.1 8.46 2.1s6.92-.4 8.46-2.1c.13-.15.44-.49.94-.51.21 0 .55-.03.88-.13-.23-.19-.43-.44-.58-.73-.65-1.27.18-2.39 1.09-3.33.8-.82 2.53-4.15.99-7.23-.72-.01-2.76.01-4.18.02-.92.01-1.74.02-2.15.02H58.66c-.42 0-1.23-.01-2.15-.02-1.42-.01-3.46-.03-4.18-.02-1.54 3.08.19 6.4.99 7.23.9.93 1.74 2.06 1.09 3.33-.17.29-.37.54-.6.73z" fill="#291D15"/><path d="M55.6 38.6c-1.55 0-2.82-1.36-2.82-3.03s1.26-3.03 2.82-3.03h16.92c1.55 0 2.82 1.36 2.82 3.03s-1.26 3.03-2.82 3.03H55.6z" fill="#7A4C32"/><path d="M72.52 33.04c1.28 0 2.32 1.14 2.32 2.53s-1.04 2.53-2.32 2.53H55.6c-1.28 0-2.32-1.14-2.32-2.53s1.04-2.53 2.32-2.53h16.92m0-1H55.6c-1.82 0-3.32 1.59-3.32 3.53s1.49 3.53 3.32 3.53h16.92c1.82 0 3.32-1.59 3.32-3.53s-1.5-3.53-3.32-3.53z" fill="#663B22"/><linearGradient id="l" x1="64.057" x2="64.057" y1="45.518" y2="20.581" gradientUnits="userSpaceOnUse"><stop stop-color="#8D5738" offset="0"/><stop stop-color="#97603D" offset=".216"/><stop stop-color="#A26941" offset=".573"/><stop stop-color="#A56C43" offset="1"/></linearGradient><path d="M64.06 45.72c-4.76 0-9.88-3.7-9.88-11.82 0-6.52 3.78-13.55 9.88-13.55s9.88 7.03 9.88 13.55c-.01 8.12-5.13 11.82-9.88 11.82z" fill="url(#l)"/><path d="M64.06 20.85c5.79 0 9.38 6.78 9.38 13.05 0 3.56-1.02 6.53-2.95 8.57-1.68 1.78-3.96 2.76-6.43 2.76-2.46 0-4.74-.98-6.43-2.76-1.93-2.04-2.95-5-2.95-8.57 0-6.28 3.59-13.05 9.38-13.05m0-1c-5.39 0-10.38 5.76-10.38 14.05 0 8.25 5.14 12.32 10.38 12.32s10.38-4.08 10.38-12.32c-.01-8.29-5-14.05-10.38-14.05z" fill="#875334"/><path d="M65.25 37.49l-.1-.03h-2.19c-.03 0-.07.01-.1.03-.2.08-.31.29-.21.51.09.22.53.83 1.41.83s1.31-.61 1.41-.83a.38.38 0 0 0-.22-.51z" fill="#875334"/><path d="M66.66 39.97c-.99.59-4.22.59-5.2 0-.57-.34-1.15.18-.91.69.23.51 2 1.68 3.52 1.68s3.27-1.17 3.5-1.68-.34-1.03-.91-.69z" fill="#473530"/><ellipse cx="59.04" cy="34.62" rx="1.5" ry="1.56" fill="#42312C"/><ellipse cx="69.08" cy="34.62" rx="1.5" ry="1.56" fill="#42312C"/><path d="M61.27 31.82c-.29-.38-.95-.93-2.23-.93-1.29 0-1.95.55-2.23.93-.13.17-.09.36-.01.48.08.11.32.21.59.12s.78-.36 1.65-.37c.87.01 1.39.27 1.65.37.27.09.51-.01.59-.12a.39.39 0 0 0-.01-.48zM71.31 31.82c-.29-.38-.95-.93-2.23-.93-1.29 0-1.95.55-2.23.93-.13.17-.09.36-.01.48.08.11.32.21.59.12s.78-.36 1.65-.37c.87.01 1.39.27 1.65.37.27.09.51-.01.59-.12a.39.39 0 0 0-.01-.48z" fill="#42312C"/><radialGradient id="m" cx="64.196" cy="27.406" r="11.2" gradientTransform="matrix(1 0 0 .8642 0 3.722)" gradientUnits="userSpaceOnUse"><stop stop-color="#554138" offset="0"/><stop stop-color="#3C2C23" offset="1"/></radialGradient><path d="M60.48 20.36c-3.78 1.34-4.15-1.03-4.15-1.03-2.05 1.02-.7 3.22-.7 3.22s-2.08-.15-2.97 1.65c-.93 1.88-.11 3.32-.11 3.32s-2 1.27-1.21 3.58c.52 1.53 2.08 2.15 2.08 2.15-.19 3.31.85 4.91.85 4.91s1.29-5.68 1.17-6.55c0 0 2.39-.47 5.1-2.03 1.83-1.05 3.08-2.28 5.14-2.74 3.13-.71 3.83 1.56 3.83 1.56s2.9-.56 3.78 3.47c.36 1.66.51 4.43.71 6.11-.02-.15 1.08-1.97 1.27-3.82.07-.69 1.11-2.36 1.42-3.61.68-2.71-.21-4.85-.64-5.48-.77-1.17-2.61-2.77-3.99-2.54.07-1.48-1.09-2.85-2.5-3.32-3.82-1.29-7.96.76-9.08 1.15z" fill="url(#m)"/><path d="M76.47 24.8c-.75-1.13-2.42-2.65-3.93-2.78-.18-1.42-1.31-2.77-2.81-3.28-3.55-1.19-7.31.31-8.91.96-.21.08-.38.15-.51.2-1.28.45-2.28.5-2.89.15-.51-.29-.6-.77-.6-.79l-.11-.67-.61.3c-.69.35-1.14.85-1.32 1.49-.18.63-.06 1.26.1 1.72-.8.12-2 .54-2.67 1.88-.74 1.5-.49 2.76-.28 3.38-.78.67-1.7 2.07-1.07 3.9.21.61.55 1.08.91 1.45 0 0 .06-.65.31-1.21 0 0-.21-.35-.28-.56-.65-1.9.94-2.95 1.01-3l.4-.26-.24-.41c-.01-.01-.68-1.23.12-2.85.63-1.28 1.99-1.37 2.38-1.37h.1l.97.07-.51-.83c0-.01-.52-.88-.31-1.64.06-.22.18-.4.35-.56.16.27.41.57.8.8.89.53 2.16.51 3.75-.06.14-.05.32-.12.55-.21 1.5-.6 5.02-2.01 8.22-.94 1.29.43 2.21 1.65 2.16 2.82l-.03.62.61-.1c1.07-.18 2.77 1.23 3.49 2.32.37.56 1.2 2.57.57 5.09-.05.19-.12.41-.2.62 0 0 .4.71.46 1.28s.15-.14.15-.14c.23-.51.45-1.03.57-1.51.7-2.76-.15-5.06-.7-5.88z" fill="#291D15"/><path fill="none" d="M50.51 17.72h27.73v40.06H50.51z"/><defs><path id="n" d="M40.92 24.53l-2.19.64-1.08-1.43-4.75.57.05 1.66-2.78.63-3.03-9.56 12.74-2.86z"/></defs><clipPath id="o"><use xlink:href="#n"/></clipPath><g clip-path="url(#o)"><radialGradient id="p" cx="35.131" cy="21.51" r="4.67" gradientUnits="userSpaceOnUse"><stop stop-color="#8D5738" offset=".184"/><stop stop-color="#A56C43" offset=".556"/></radialGradient><path d="M35.01 25.77c-2.91 0-4.93-2.15-4.93-5.22v-3.04c.12-.07.59-.27 2.09-.27 2.77 0 6.48.64 7.14 1.02.71.41 1.14 2.04.66 3.82-.3 1.11-1.38 3.68-4.95 3.68h-.01z" fill="url(#p)"/><path d="M32.17 17.75c2.8 0 6.34.64 6.89.95.46.27.86 1.67.43 3.26-.27 1-1.24 3.31-4.48 3.31-1.33 0-2.45-.47-3.24-1.35-.77-.85-1.19-2.04-1.18-3.36v-2.69c.25-.06.73-.12 1.58-.12m0-1c-1.48 0-2.58.19-2.58.69l-.01 3.12c-.01 3.14 2.04 5.71 5.43 5.72h.01c6.13 0 6.62-7.23 4.54-8.44-.82-.48-4.71-1.09-7.39-1.09z" fill="#875334"/></g><radialGradient id="q" cx="36.042" cy="22.543" r=".15" gradientUnits="userSpaceOnUse"><stop stop-color="#8D5738" offset=".184"/><stop stop-color="#A56C43" offset=".556"/></radialGradient><path d="M35.96 22.74c.04-.14.1-.27.16-.39-.03.11-.06.23-.08.35-.01.01-.04.02-.08.04z" fill="url(#q)"/><path d="M38.599999999999994 20.17c-.03 0-.05 0-.08.01-1.58.23-2.9 1.31-3.16 2.92-.03.16.1.23.27.23.33 0 .86-.25.91-.55.14-.88.73-1.67 1.65-1.8.25-.04.65-.18.73-.46.06-.23-.11-.35-.32-.35z" fill="#875334"/><linearGradient id="r" x1="64.103" x2="64.103" y1="16" y2="20.776" gradientTransform="matrix(1 0 0 1.25 0 -5.167)" gradientUnits="userSpaceOnUse"><stop stop-color="#BDBDBD" offset="0"/><stop stop-color="#757575" offset="1"/></linearGradient><path d="M122.46 16H5.75c-.91 0-1.64 1.12-1.64 2.5S4.85 21 5.75 21h116.71c.91 0 1.64-1.12 1.64-2.5s-.73-2.5-1.64-2.5z" fill="url(#r)"/><path fill="#646464" d="M38.05 21h-9.33l-.8-5h10.13zM90.15 20.99h9.33l.8-5H90.15z"/><path d="M122.46 17c.2 0 .64.57.64 1.5s-.45 1.5-.64 1.5H5.75c-.2 0-.64-.57-.64-1.5s.45-1.5.64-1.5h116.71m0-1H5.75c-.91 0-1.64 1.12-1.64 2.5S4.85 21 5.75 21h116.71c.91 0 1.64-1.12 1.64-2.5s-.73-2.5-1.64-2.5z" fill="#595959"/><radialGradient id="s" cx="-102.04" cy="10.167" r="24.348" gradientTransform="matrix(0 .9016 -.507 0 25.022 100.68)" gradientUnits="userSpaceOnUse"><stop stop-color="#9E9E9E" offset=".396"/><stop stop-color="#646464" offset=".79"/></radialGradient><path d="M19.92 32.99c3.31 0 6-2.69 6-6V10.14c0-3.31-2.69-6-6-6s-6 2.69-6 6v16.85c0 3.31 2.68 6 6 6z" fill="url(#s)"/><radialGradient id="t" cx="-174.46" cy="14.792" r="3.543" gradientTransform="matrix(1.3333 0 0 2.3062 240.83 -21.261)" gradientUnits="userSpaceOnUse"><stop stop-color="#9E9E9E" offset=".441"/><stop stop-color="#646464" offset=".985"/></radialGradient><path d="M8 27.22c2.21 0 4-1.79 4-4v-9.31c0-2.21-1.79-4-4-4s-4 1.79-4 4v9.31c0 2.21 1.79 4 4 4z" fill="url(#t)"/><path d="M19.92 5.14c2.76 0 5 2.24 5 5v16.85c0 2.76-2.24 5-5 5s-5-2.24-5-5V10.14c0-2.76 2.24-5 5-5m0-1c-3.31 0-6 2.69-6 6v16.85c0 3.31 2.69 6 6 6s6-2.69 6-6V10.14c0-3.32-2.69-6-6-6z" fill="#595959"/><path d="M8 10.91c1.65 0 3 1.35 3 3v9.31c0 1.65-1.35 3-3 3s-3-1.35-3-3v-9.31c0-1.66 1.35-3 3-3m0-1c-2.21 0-4 1.79-4 4v9.31c0 2.21 1.79 4 4 4s4-1.79 4-4v-9.31c0-2.21-1.79-4-4-4z" fill="#525252"/><radialGradient id="u" cx="-1251.7" cy="10.167" r="24.348" gradientTransform="matrix(0 .9016 .507 0 102.98 1137.3)" gradientUnits="userSpaceOnUse"><stop stop-color="#9E9E9E" offset=".396"/><stop stop-color="#646464" offset=".79"/></radialGradient><path d="M108.08 32.99c-3.31 0-6-2.69-6-6V10.14c0-3.31 2.69-6 6-6s6 2.69 6 6v16.85c0 3.31-2.68 6-6 6z" fill="url(#u)"/><radialGradient id="v" cx="-1209.1" cy="14.792" r="3.543" gradientTransform="matrix(-1.3333 0 0 2.3062 -1492.4 -21.261)" gradientUnits="userSpaceOnUse"><stop stop-color="#9E9E9E" offset=".441"/><stop stop-color="#646464" offset=".985"/></radialGradient><path d="M120 27.22c-2.21 0-4-1.79-4-4v-9.31c0-2.21 1.79-4 4-4s4 1.79 4 4v9.31c0 2.21-1.79 4-4 4z" fill="url(#v)"/><path d="M108.08 5.14c2.76 0 5 2.24 5 5v16.85c0 2.76-2.24 5-5 5s-5-2.24-5-5V10.14c0-2.76 2.25-5 5-5m0-1c-3.31 0-6 2.69-6 6v16.85c0 3.31 2.69 6 6 6s6-2.69 6-6V10.14c0-3.32-2.68-6-6-6z" fill="#595959"/><path d="M120 10.91c1.65 0 3 1.35 3 3v9.31c0 1.65-1.35 3-3 3s-3-1.35-3-3v-9.31c0-1.66 1.35-3 3-3m0-1c-2.21 0-4 1.79-4 4v9.31c0 2.21 1.79 4 4 4s4-1.79 4-4v-9.31c0-2.21-1.79-4-4-4z" fill="#525252"/><radialGradient id="w" cx="-168.33" cy="16.116" r="4.536" fx="-167.38" fy="11.679" gradientTransform="matrix(.00334 1.0512 -.3363 .00192 42.109 190.8)" gradientUnits="userSpaceOnUse"><stop stop-color="#A56C43" offset=".504"/><stop stop-color="#8D5738" offset="1"/></radialGradient><path d="M36.12 18.91c-.76 0-1.38-.62-1.37-1.38l.01-3.14c0-.76.62-1.38 1.38-1.37.76 0 1.38.62 1.37 1.38l-.01 3.14c0 .76-.62 1.37-1.38 1.37z" fill="url(#w)" stroke="#875334" stroke-linecap="round" stroke-linejoin="round" stroke-miterlimit="10"/><radialGradient id="x" cx="-179.14" cy="-11.908" r="4.043" gradientTransform="matrix(-.216 1.0286 -.3102 -.0692 -2.997 197.76)" gradientUnits="userSpaceOnUse"><stop stop-color="#A56C43" offset=".504"/><stop stop-color="#8D5738" offset="1"/></radialGradient><path d="M38.56 19.13c-.75-.14-1.24-.86-1.1-1.6l.57-3.08a1.372 1.372 0 1 1 2.7.5l-.57 3.08c-.14.75-.85 1.24-1.6 1.1z" fill="url(#x)" stroke="#875334" stroke-linecap="round" stroke-linejoin="round" stroke-miterlimit="10"/><radialGradient id="y" cx="-156.64" cy="-36.968" r="3.43" gradientTransform="matrix(.0628 1.0481 -.3974 .0259 28.423 179.82)" gradientUnits="userSpaceOnUse"><stop stop-color="#A56C43" offset=".504"/><stop stop-color="#8D5738" offset="1"/></radialGradient><path d="M33.54 18.69a1.41 1.41 0 0 1-1.48-1.34l-.13-2.58a1.42 1.42 0 0 1 1.34-1.47c.78-.04 1.44.56 1.48 1.34l.13 2.58c.03.77-.56 1.43-1.34 1.47z" fill="url(#y)" stroke="#875334" stroke-linecap="round" stroke-linejoin="round" stroke-miterlimit="10"/><radialGradient id="z" cx="-148.52" cy="26.825" r="4.461" gradientTransform="matrix(.1598 1.0375 -.3775 .0578 63.945 166.87)" gradientUnits="userSpaceOnUse"><stop stop-color="#A56C43" offset=".504"/><stop stop-color="#8D5738" offset="1"/></radialGradient><path d="M30.85 18.97a1.4 1.4 0 0 1-1.6-1.17l-.3-1.95a1.4 1.4 0 0 1 1.17-1.6 1.4 1.4 0 0 1 1.6 1.17l.3 1.95c.11.77-.41 1.48-1.17 1.6z" fill="url(#z)" stroke="#875334" stroke-linecap="round" stroke-linejoin="round" stroke-miterlimit="10"/><defs><path id="A" d="M38.57 20.67l-.83-1.04-5.56-1.94 2.43-4.28 6.77 4s.43 2.85.13 3.55c-.31.7-1.12 1.92-1.62 1.69-1.31-.6-1.32-1.98-1.32-1.98z"/></defs><clipPath id="B"><use xlink:href="#A"/></clipPath><g clip-path="url(#B)"><linearGradient id="C" x1="-267.53" x2="-257.6" y1="-394.52" y2="-394.52" gradientTransform="matrix(.7134 .3521 -.3846 .7794 73.061 418.95)" gradientUnits="userSpaceOnUse"><stop stop-color="#8D5738" offset="0"/><stop stop-color="#A56C43" offset=".807"/></linearGradient><path d="M36.02 15.48c-.93-.46-1.57.43-1.62 1.1-.05.66.42 1.38 1.04 1.62 2.21.85 2.59 1.43 2.58 2.14-.01.98.7 2.74 1.26 2.5 1.24-.52 1.97-2.09 1.74-3.37-.51-2.78-4.55-3.77-5-3.99z" fill="url(#C)" stroke="#875334" stroke-linecap="round" stroke-linejoin="round" stroke-miterlimit="10"/></g><radialGradient id="D" cx="-220.1" cy="16.185" r="4.536" fx="-219.16" fy="11.748" gradientTransform="matrix(-.00334 1.0512 .3363 .00192 85.759 245.23)" gradientUnits="userSpaceOnUse"><stop stop-color="#A56C43" offset=".504"/><stop stop-color="#8D5738" offset="1"/></radialGradient><path d="M91.95 18.91c.76 0 1.38-.62 1.37-1.38l-.01-3.14c0-.76-.62-1.38-1.38-1.37-.76 0-1.38.62-1.37 1.38l.01 3.14c0 .76.62 1.37 1.38 1.37z" fill="url(#D)" stroke="#875334" stroke-linecap="round" stroke-linejoin="round" stroke-miterlimit="10"/><radialGradient id="E" cx="-230.05" cy="-4.28" r="4.043" gradientTransform="matrix(.216 1.0286 .3102 -.0692 139.69 250.66)" gradientUnits="userSpaceOnUse"><stop stop-color="#A56C43" offset=".504"/><stop stop-color="#8D5738" offset="1"/></radialGradient><path d="M89.51 19.13c.75-.14 1.24-.86 1.1-1.6l-.57-3.08a1.372 1.372 0 1 0-2.7.5l.57 3.08c.13.75.85 1.24 1.6 1.1z" fill="url(#E)" stroke="#875334" stroke-linecap="round" stroke-linejoin="round" stroke-miterlimit="10"/><radialGradient id="F" cx="-208.18" cy="-39.044" r="3.43" gradientTransform="matrix(-.0628 1.0481 .3974 .0259 97.23 233.89)" gradientUnits="userSpaceOnUse"><stop stop-color="#A56C43" offset=".504"/><stop stop-color="#8D5738" offset="1"/></radialGradient><path d="M94.52 18.69c.78.04 1.44-.56 1.48-1.34l.13-2.58a1.41 1.41 0 0 0-1.34-1.48 1.41 1.41 0 0 0-1.48 1.34l-.13 2.58c-.03.78.57 1.44 1.34 1.48z" fill="url(#F)" stroke="#875334" stroke-linecap="round" stroke-linejoin="round" stroke-miterlimit="10"/><radialGradient id="G" cx="-198.87" cy="20.364" r="4.461" gradientTransform="matrix(-.1598 1.0375 .3775 .0578 58.513 219.49)" gradientUnits="userSpaceOnUse"><stop stop-color="#A56C43" offset=".504"/><stop stop-color="#8D5738" offset="1"/></radialGradient><path d="M97.22 18.97a1.4 1.4 0 0 0 1.6-1.17l.3-1.95a1.4 1.4 0 0 0-1.17-1.6 1.4 1.4 0 0 0-1.6 1.17l-.3 1.95c-.12.77.41 1.48 1.17 1.6z" fill="url(#G)" stroke="#875334" stroke-linecap="round" stroke-linejoin="round" stroke-miterlimit="10"/><defs><path id="H" d="M89.49 20.67l.83-1.04 5.56-1.94-2.43-4.28-6.77 4s-.43 2.85-.13 3.55c.31.7 1.12 1.92 1.62 1.69 1.31-.6 1.32-1.98 1.32-1.98z"/></defs><clipPath id="I"><use xlink:href="#H"/></clipPath><g clip-path="url(#I)"><linearGradient id="J" x1="-317.18" x2="-307.25" y1="-372.09" y2="-372.09" gradientTransform="matrix(-.7134 .3521 .3846 .7794 10.958 418.95)" gradientUnits="userSpaceOnUse"><stop stop-color="#8D5738" offset="0"/><stop stop-color="#A56C43" offset=".807"/></linearGradient><path d="M92.04 15.48c.93-.46 1.57.43 1.62 1.1s-.42 1.38-1.04 1.62c-2.21.85-2.59 1.43-2.58 2.14.01.98-.7 2.74-1.26 2.5-1.24-.52-1.97-2.09-1.74-3.37.51-2.78 4.55-3.77 5-3.99z" fill="url(#J)" stroke="#875334" stroke-linecap="round" stroke-linejoin="round" stroke-miterlimit="10"/></g><path d="M73.49 91.83c-1.4-1.17-6.52-5.45-7.03-5.91-.87-.79-1.94-.8-2.29-.81-.37.01-1.44.02-2.31.81-.51.46-5.62 4.73-7.03 5.9l-9.37-9.72 8.14-7.56c.08-.07.13-.17.15-.27l.3-1.59h20.32l.58 1.63c.03.08.07.14.13.2l8.14 7.6-9.73 9.72z" fill="#7C7C7C"/><path d="M74 73.16l.46 1.3c.05.15.14.29.26.39l7.76 7.25-9.03 9.05c-2.45-2.05-6.24-5.22-6.67-5.6-1.01-.91-2.22-.93-2.65-.94-.4.01-1.61.02-2.62.94-.42.38-4.2 3.55-6.65 5.59l-8.69-9.02 7.77-7.22a1 1 0 0 0 .3-.55l.22-1.19H74m.71-1H53.63l-.38 2-8.51 7.91L54.78 92.5s6.79-5.67 7.4-6.21c.67-.6 1.48-.67 1.97-.68.49.01 1.3.08 1.97.68.61.55 7.4 6.21 7.4 6.21l10.41-10.43-8.52-7.95-.7-1.96z" fill="#5B5B5B"/></svg>