<svg xmlns="http://www.w3.org/2000/svg" xmlns:xlink="http://www.w3.org/1999/xlink" viewBox="0 0 128 128" width="128" height="128"><defs><path id="a" d="M4 4h120v120H4z"/></defs><clipPath id="b"><use xlink:href="#a" overflow="visible"/></clipPath><path clip-path="url(#b)" fill="#bdbdbd" d="M123.9 4.3h.1V4H4v120h1.9v-.1h118z"/><defs><path id="c" d="M4 4h120v120H4z"/></defs><clipPath id="d"><use xlink:href="#c" overflow="visible"/></clipPath><g clip-path="url(#d)"><linearGradient id="e" gradientUnits="userSpaceOnUse" x1="-398.982" y1="770.671" x2="-398.982" y2="813.037" gradientTransform="matrix(-.999 .0437 .0387 .885 -388.705 -665.58)"><stop offset=".264" stop-color="#e0e0e0"/><stop offset=".918" stop-color="#9e9e9e"/></linearGradient><path d="M64.5 16.6v-1c-.2-4.8-2.7-8.9-6.6-11.8H34.4c-2.1 1.5-3.9 3.5-5 5.7C27 8 24.1 7.1 20.9 7.3c-7.4.4-13.2 6-12.9 12.6 0 1.2.3 2.3.7 3.4H7.3c-1.2.1-2.3.3-3.4.6v17.4c7.1 2.5 18.9 4.1 35.9 3.4 29.8-1.3 39.2-7.3 38.9-14.9-.3-7.1-6.5-12.7-14.2-13.2z" fill="url(#e)"/></g><defs><path id="f" d="M4 4h120v120H4z"/></defs><clipPath id="g"><use xlink:href="#f" overflow="visible"/></clipPath><g clip-path="url(#g)"><linearGradient id="h" gradientUnits="userSpaceOnUse" x1="93.811" y1="756.072" x2="93.811" y2="812.278" gradientTransform="matrix(.999 .0437 -.0387 .885 15.23 -665.58)"><stop offset=".264" stop-color="#e0e0e0"/><stop offset=".918" stop-color="#9e9e9e"/></linearGradient><path d="M107.6 9.6c-4.1-.2-8 .9-11.1 2.9C94.6 9 91.7 6 88.1 3.9H60.8c-6 3.7-10 9.7-10.3 16.6v1.3c-10.1.6-18.2 7.9-18.6 17.1-.4 9.8 11.9 17.8 51 19.5 18.1.8 31.6-.4 41.1-2.6V30.4h-.3l.3-.9v-8.3c-2.1-6.4-8.6-11.2-16.4-11.6z" fill="url(#h)"/></g><defs><path id="i" d="M4 4h120v120H4z"/></defs><clipPath id="j"><use xlink:href="#i" overflow="visible"/></clipPath><g clip-path="url(#j)"><linearGradient id="k" gradientUnits="userSpaceOnUse" x1="51.542" y1="783.996" x2="51.542" y2="826.86" gradientTransform="matrix(.999 .0437 -.0387 .885 15.23 -665.58)"><stop offset=".264" stop-color="#e0e0e0"/><stop offset=".918" stop-color="#9e9e9e"/></linearGradient><path d="M56.2 47.2h-1.4c.4-1.1.7-2.2.7-3.4.3-6.6-5.5-12.2-12.9-12.5-3.2-.1-6.1.7-8.5 2.2-2.9-5.3-8.9-9.1-15.9-9.4-5.6-.2-10.8 1.8-14.3 5.2v37.2c5.3 1 11.8 1.7 19.9 2 29.8 1.3 43.7-4.4 43.9-10.3.2-5.7-4.9-10.7-11.5-11z" fill="url(#k)"/></g><g><defs><path id="l" d="M4 4h120v120H4z"/></defs><clipPath id="m"><use xlink:href="#l" overflow="visible"/></clipPath><g clip-path="url(#m)"><linearGradient id="n" gradientUnits="userSpaceOnUse" x1="119.952" y1="822.168" x2="119.952" y2="865.035" gradientTransform="matrix(.999 .0437 -.0387 .885 15.23 -665.58)"><stop offset=".264" stop-color="#e0e0e0"/><stop offset=".918" stop-color="#9e9e9e"/></linearGradient><path d="M123.9 65.7c-3-2.1-6.6-3.4-10.7-3.6-10.2-.4-18.8 6.5-19.2 15.5v1c-7.7.5-13.9 6-14.2 13-.3 7.5 9.1 13.6 38.9 14.9 1.8.1 3.5.1 5.2.2v-41z" fill="url(#n)"/></g></g><g><defs><path id="o" d="M4 4h120v120H4z"/></defs><clipPath id="p"><use xlink:href="#o" overflow="visible"/></clipPath><ellipse cx="88.3" cy="60.7" rx="30" ry="27" clip-path="url(#p)" fill="#eee"/></g><g><defs><path id="q" d="M4 4h120v120H4z"/></defs><clipPath id="r"><use xlink:href="#q" overflow="visible"/></clipPath><circle cx="47.7" cy="58.3" r="29" clip-path="url(#r)" fill="#eee"/></g><g><defs><path id="s" d="M4 4h120v120H4z"/></defs><clipPath id="t"><use xlink:href="#s" overflow="visible"/></clipPath><linearGradient id="u" gradientUnits="userSpaceOnUse" x1="62.15" y1="763.922" x2="62.15" y2="839.44" gradientTransform="translate(0 -713.89)"><stop offset=".264" stop-color="#e0e0e0"/><stop offset=".918" stop-color="#9e9e9e"/></linearGradient><path d="M48.5 103c.7 0 1.3.1 2 .1 1.9 0 3.7-.2 5.5-.5v.5c0 8.1 3.6 15.5 9.3 20.9h45.8c5.8-5.4 9.3-12.7 9.3-20.9 0-16.4-14.4-29.7-32.2-29.7-3.5 0-6.8.5-9.9 1.4-1.4-13-13.3-23.1-27.8-23.1-9.4 0-17.6 4.2-22.7 10.8-1.1-.1-2.2-.2-3.3-.2-8.1 0-15.4 3.1-20.6 8.1v36.5c5.2 5 12.5 8.1 20.6 8.1 10.1-.1 18.9-4.8 24-12z" clip-path="url(#t)" fill="url(#u)"/></g><g><defs><path id="v" d="M4 4h120v120H4z"/></defs><clipPath id="w"><use xlink:href="#v" overflow="visible"/></clipPath><path d="M64.1 123.9c-2.9-12.2-13.9-21.4-27-21.4s-24.1 9.1-27 21.4h54z" clip-path="url(#w)" fill="#e0e0e0"/></g><g><path d="M101.7 123.9c1.3-2.5 2.1-5.2 2.3-8 1.1-14.1-12.6-26.7-30.6-28.1-18-1.4-33.4 8.9-34.5 23-.4 4.6.9 9.1 3.3 13h59.5v.1z" fill="#e0e0e0"/></g><g><defs><path id="x" d="M4 4h120v120H4z"/></defs><clipPath id="y"><use xlink:href="#x" overflow="visible"/></clipPath><path d="M123.9 106.1c-3.8-2.1-8.1-3.3-12.8-3.3-12.7 0-23.3 9.1-25.7 21.2h38.4v-17.9h.1z" clip-path="url(#y)" fill="#e0e0e0"/></g><g opacity=".2"><path d="M123.9 4.3h.1V4H4v120h1.9v-.1h118V4.3zM7 121V7h114v114H7z" fill="#424242"/></g></svg>