<svg viewBox="0 0 128 128" width="128" height="128" xmlns="http://www.w3.org/2000/svg"><path d="M60.46 60.5s-3.84-4.37-7.75-2.61c-5.23 2.35-1.65 8.22-8.64 10.64-7.63 2.64-13.04 7.67-10.43 13.78 2.8 6.55 13.97 6.92 14.5 23.73.25 8.05 6 7.85 8.54 5.2 4.46-4.65 4.02-19.05 8.63-24.18s16.04-3.82 20.18-13.38c0 0-7.1 7.13-16.12.1-4.27-3.34-4.22-8.9-4.22-8.9l-4.69-4.38z" fill="#FFFDE7"/><radialGradient id="a" cx="74.032" cy="56.615" r="45.443" gradientTransform="rotate(-1.812 751.183 889.447)" gradientUnits="userSpaceOnUse"><stop stop-color="#FF1744" offset="0"/><stop stop-color="#FD1641" offset=".256"/><stop stop-color="#F81338" offset=".425"/><stop stop-color="#EF0E29" offset=".57"/><stop stop-color="#E10714" offset=".7"/><stop stop-color="#D50000" offset=".793"/><stop stop-color="#D50000" offset="1"/></radialGradient><path d="M69.28 49.96s.47.48-.89-.69c-2.9-2.49-8.87 5.5-13.36 1.04-4.17-4.15 1.14-11.36 5.58-15.69 3.22-3.13.89-6.12-1.73-5.97-2.94.17-10.43 1.82-15.46 9.29-7.64 11.34-4.02 17.36-11.98 23.43-7.95 6.05-25.52 8.19-26.73 23.55-.69 8.81 3.4 13.83 8.64 20.27 3.63 4.46 12.34 12.17 18.83 15.41s13.68 5.04 20.32.61c14.69-9.79 12.06-20.92 14.54-27.36 2.85-7.38 11.83-5 19.08-11.92 4.79-4.57 5.21-8.51 4.88-11.76-.23-2.33-1.12-3.26-2.34-3.83-1.06-.5-2.85.19-3.75 2.02-2.28 4.63-5.94 7.34-10.78 3.52-3.91-3.09-.76-9.16-.76-9.16l-4.09-12.76z" fill="url(#a)"/><path d="M58.29 58.87c-.8-.6-5.06-3.31-8.76.1-3.99 3.67-.74 8.68-7.05 9.65-7.98 1.23-12.72 6.55-10.11 12.66 2.8 6.55 15.24 7.94 15.77 24.75.25 8.05 5.88 7.72 8.54 5.2 6.16-5.83 2.6-18.71 8.63-24.18 5.2-4.72 13.09-2.14 16.87-8.75.67-1.17.71-2.19-.89-1.53-2.95 1.23-6.63 1.85-10.64-2.08-3.28-3.22-2.3-7.09-2.3-7.09s-9.3-8.16-10.06-8.73z" fill="#FFFDE7"/><g fill="#212121" opacity=".26"><path d="M59.06 28.65v2c.46 0 .91.26 1.05.61.19.47-.15 1.19-.91 1.93-2.3 2.24-7.67 8.04-7.69 13.4-.01 1.99.72 3.77 2.11 5.15 1.31 1.3 2.87 1.96 4.63 1.96 2.14 0 4.12-.97 5.88-1.82 1.06-.51 2.26-1.1 2.87-1.1.06 0 .09.01.09.01.2.17.37.31.5.42l3.65 11.36c-1.28 2.97-2.09 7.9 1.67 10.87 1.89 1.49 3.79 2.24 5.65 2.24 2.28 0 5.54-1.12 8.16-6.45.37-.76.94-1.04 1.18-1.06.46.22.96.53 1.13 2.18.27 2.73-.02 6.06-4.27 10.12-2.98 2.84-6.29 3.95-9.49 5.02-4.02 1.34-8.18 2.73-10.07 7.64-.7 1.81-1.02 3.86-1.36 6.04-.95 6.03-2.13 13.53-12.41 20.38-2.33 1.55-4.8 2.31-7.57 2.31-3.14 0-6.66-.99-10.75-3.03-6.33-3.16-14.85-10.79-18.2-14.91-5.11-6.28-8.8-10.82-8.18-18.81.77-9.8 9.01-13.59 16.98-17.26 3.35-1.54 6.51-3 8.96-4.87 4.85-3.7 5.89-7.42 7.09-11.73.94-3.39 2.02-7.24 5.33-12.16 5.17-7.68 13.04-8.37 13.92-8.42h.08l-.03-2.02m0 0c-.07 0-.13 0-.2.01-2.94.18-10.43 1.83-15.46 9.3-7.63 11.33-4.01 17.36-11.97 23.42-7.94 6.05-25.51 8.2-26.72 23.56-.69 8.81 3.41 13.83 8.65 20.26 3.63 4.46 12.34 12.16 18.83 15.4 3.73 1.86 7.69 3.24 11.64 3.24 2.93 0 5.85-.76 8.68-2.64 14.69-9.79 12.05-20.92 14.53-27.37 2.85-7.38 11.82-5.01 19.07-11.93 4.79-4.57 5.2-8.52 4.88-11.76-.23-2.33-1.12-3.26-2.34-3.83-.22-.1-.48-.16-.75-.16-1.02 0-2.28.73-3 2.18-1.52 3.1-3.66 5.33-6.36 5.33-1.34 0-2.81-.55-4.41-1.81-3.91-3.09-.76-9.16-.76-9.16L69.3 50.02c-.1-.07-.35-.27-.92-.76-.41-.35-.87-.49-1.39-.49-2.33 0-5.63 2.92-8.75 2.92-1.11 0-2.2-.37-3.22-1.38-4.17-4.15 1.13-11.36 5.57-15.69 3.14-3.06 1-5.97-1.53-5.97zm10.21 21.3l.02.07c.03.02.05.03.05.03.03 0-.07-.1-.07-.1z"/><path d="M53.68 58.28c1.71 0 3.33.87 4.01 1.39.51.38 5.86 5.04 9.59 8.3-.16 1.35-.19 4.6 2.68 7.42 2.23 2.19 4.66 3.31 7.21 3.31 1.31 0 2.63-.27 4.12-.86-1.91 3.29-4.91 4.01-8.39 4.84-2.85.68-5.79 1.38-8.26 3.62-3.27 2.97-3.93 7.82-4.58 12.51-.61 4.43-1.23 9.01-4.07 11.69-.86.81-2.06 1.31-3.13 1.31-2.25 0-3.61-2.12-3.73-5.81-.36-11.56-6.15-16.13-10.8-19.81-2.25-1.78-4.2-3.31-5.05-5.3-.9-2.11-.84-4.19.17-6.01 1.49-2.68 4.83-4.6 9.17-5.26 4.34-.67 4.92-3.24 5.44-5.5.36-1.58.7-3.08 2.14-4.4 1.04-.96 2.2-1.44 3.48-1.44m0-1c-1.32 0-2.77.42-4.15 1.69-3.99 3.67-.74 8.68-7.05 9.65-7.98 1.23-12.72 6.55-10.11 12.66 2.8 6.55 15.24 7.94 15.77 24.75.16 5.02 2.41 6.78 4.73 6.78 1.4 0 2.81-.64 3.82-1.59 6.16-5.83 2.6-18.71 8.63-24.18 5.2-4.72 13.09-2.14 16.87-8.75.52-.91.66-1.74-.07-1.74-.2 0-.48.07-.83.21-1.25.52-2.64.94-4.12.94-2.01 0-4.21-.76-6.51-3.02-3.28-3.22-2.3-7.09-2.3-7.09s-9.31-8.15-10.06-8.71c-.51-.39-2.38-1.6-4.62-1.6z"/></g><circle cx="54.19" cy="106.24" r="2.64" fill="#424242"/><ellipse transform="rotate(-46.804 55.144 96.615)" cx="55.14" cy="96.61" rx="3.37" ry="3.33" fill="#424242"/><path d="M54.2 104.6c.42 0 .82.16 1.12.45.66.62.69 1.66.07 2.32-.31.33-.74.52-1.2.52-.42 0-.82-.16-1.12-.45-.66-.62-.69-1.66-.07-2.32.31-.33.74-.52 1.2-.52m0-1c-.7 0-1.41.28-1.93.83-1 1.06-.95 2.74.12 3.73.51.48 1.16.72 1.81.72.7 0 1.41-.28 1.93-.83 1-1.06.95-2.74-.12-3.73a2.67 2.67 0 0 0-1.81-.72zM55.18 94.26c.59 0 1.15.22 1.58.62.45.42.71 1 .73 1.63s-.21 1.23-.65 1.69c-.46.49-1.07.76-1.74.76-.59 0-1.15-.22-1.58-.62-.45-.42-.71-1-.73-1.63s.21-1.23.65-1.69a2.37 2.37 0 0 1 1.74-.76m0-1c-.9 0-1.8.36-2.47 1.07-1.27 1.36-1.22 3.48.12 4.74.64.6 1.45.9 2.27.9.9 0 1.8-.36 2.47-1.07 1.27-1.36 1.22-3.48-.12-4.74-.64-.6-1.45-.9-2.27-.9z" fill="#212121" opacity=".36"/><linearGradient id="b" x1="67.764" x2="67.072" y1="-68.056" y2="-3.439" gradientTransform="matrix(.7363 .6767 -.5637 .6134 34.875 -4.221)" gradientUnits="userSpaceOnUse"><stop stop-color="#616161" offset="0"/><stop stop-color="#3F3F3F" offset=".558"/><stop stop-color="#212121" offset="1"/></linearGradient><path d="M109.77 21.43l-4.34-3.94-4.29-3.99-43.92 44.35c-.45.44-.28 1.3.38 1.93l4.78 4.56 4.95 4.38c.68.6 1.56.7 1.95.21l40.49-47.5z" fill="url(#b)"/><path d="M101.19 16.28l2.89 2.69 2.91 2.64-38.65 45.34-4.61-4.08-4.45-4.25 41.91-42.34m-.05-2.78L57.22 57.85c-.45.44-.28 1.3.38 1.93l4.78 4.56 4.95 4.38c.39.34.84.52 1.23.52.29 0 .55-.1.72-.31l40.5-47.5-4.34-3.94-4.3-3.99z" fill="#212121" opacity=".52"/><linearGradient id="c" x1="145.63" x2="125.71" y1="-13.269" y2="6.652" gradientTransform="rotate(-2.431 572.647 683.682)" gradientUnits="userSpaceOnUse"><stop stop-color="#FF1744" offset="0"/><stop stop-color="#FD1641" offset=".256"/><stop stop-color="#F81338" offset=".425"/><stop stop-color="#EF0E29" offset=".57"/><stop stop-color="#E10714" offset=".7"/><stop stop-color="#D50000" offset=".793"/><stop stop-color="#D50000" offset="1"/></linearGradient><path d="M96.26 19.31a5037.29 5037.29 0 0 1 8.18 7.5s6.37 1.48 8.44-3.84l3.66-9.39s.99.92 2.63 1.06c2.51.22 5.07-2.76 4.23-5.45-1.05-3.36-2.68-4.72-8.78-3.05-2.19.6-13.68 3.73-13.68 3.73-6.23 1.98-5.77 8.45-4.68 9.44z" fill="url(#c)"/><path d="M118.89 7.44c1.42 0 1.96.32 2.6 2.36.25.81-.21 1.57-.43 1.86-.44.6-1.1 1.01-1.64 1.01h-.09c-.89-.08-1.44-.54-1.44-.54l-2.16-2-1.07 2.74-3.66 9.39c-.71 1.83-2.27 2.76-4.63 2.76-.41 0-.77-.03-1.03-.06l-.65-.6-2.57-2.35c-1.74-1.6-3.65-3.34-4.38-4.01-.17-.45-.3-1.79.26-3.16.6-1.45 1.77-2.46 3.49-3.01.75-.2 11.52-3.14 13.64-3.72 1.57-.46 2.84-.67 3.76-.67m0-2c-1.11 0-2.51.23-4.28.71-2.19.6-13.68 3.73-13.68 3.73-6.23 1.97-5.77 8.44-4.68 9.43a5037.29 5037.29 0 0 1 8.18 7.5s.81.19 1.95.19c2.05 0 5.16-.61 6.49-4.03l3.66-9.39s.99.92 2.63 1.06c.09.01.17.01.26.01 2.42 0 4.78-2.86 3.97-5.46-.73-2.38-1.77-3.75-4.5-3.75z" fill="#212121" opacity=".3"/><path d="M21.97 88.96c-.29.31-.36.71-.16.9l18.32 17.2c.2.19.6.09.89-.22l3.36-3.57c.29-.31.36-.71.16-.9l-18.32-17.2c-.2-.19-.6-.09-.89.22l-3.36 3.57z" fill="#424242"/><path d="M25.94 87.65l16.13 15.15-1.67 1.78-16.12-15.15 1.66-1.78m.01-2.58c-.2 0-.43.11-.62.31l-3.36 3.57c-.29.31-.36.71-.16.9l18.32 17.2c.07.07.16.1.27.1.2 0 .43-.11.62-.31l3.36-3.57c.29-.31.36-.71.16-.9l-18.32-17.2a.362.362 0 0 0-.27-.1z" fill="#212121" opacity=".52"/></svg>