<svg viewBox="0 0 128 128" width="128" height="128" xmlns="http://www.w3.org/2000/svg" xmlns:xlink="http://www.w3.org/1999/xlink"><defs><path id="a" d="M4 4h120v120H4z"/></defs><clipPath id="b"><use xlink:href="#a"/></clipPath><linearGradient id="c" x1="135.99" x2="45.239" y1="53.652" y2="117.4" gradientUnits="userSpaceOnUse"><stop stop-color="#0288D1" offset=".017"/><stop stop-color="#29B6F6" offset="1"/></linearGradient><path d="M126.23 125.17L1.5 126l.07-42.59C51.74 72.83 99.74 45.41 124 4l2.23 121.17z" clip-path="url(#b)" fill="url(#c)"/><g clip-path="url(#b)"><path d="M1.57 83.41c12.37-3.16 24.55-7.07 36.31-11.96 5.9-2.4 11.64-5.16 17.33-8 5.65-2.92 11.18-6.07 16.55-9.46 5.35-3.43 10.55-7.09 15.54-11 5.01-3.9 9.74-8.13 14.31-12.52 4.56-4.4 8.85-9.07 12.81-14.01 1.99-2.46 3.88-4.99 5.66-7.59 1.77-2.59 3.5-5.3 4.9-7.99l.02-.02a1.38 1.38 0 0 1 1.87-.59c.47.25.75.73.75 1.23l.09 30.92c.06 10.31-.03 20.61-.04 30.92l-.19 61.83v.01c0 .68-.56 1.23-1.24 1.23l-53.37-.1-26.69-.17c-8.9-.06-17.79-.13-26.69-.26 8.89-.24 17.79-.44 26.68-.61l26.68-.53 53.36-.82-1.24 1.25-.19-61.83c-.01-10.31-.1-20.61-.04-30.92l.09-30.92 2.63.61c-1.56 2.96-3.3 5.64-5.15 8.31-1.84 2.66-3.79 5.23-5.83 7.72-4.06 5.01-8.45 9.73-13.11 14.17-9.29 8.92-19.68 16.6-30.59 23.34-5.48 3.33-11.11 6.41-16.86 9.26-5.77 2.79-11.63 5.4-17.63 7.64A242.912 242.912 0 0 1 1.57 83.41z" fill="#007ABD"/></g><g clip-path="url(#b)"><linearGradient id="d" x1="55.066" x2="19.899" y1="96.189" y2="112.19" gradientTransform="matrix(.9849 -.0156 .0323 .9951 -2 2.062)" gradientUnits="userSpaceOnUse"><stop stop-color="#1C3AA9" offset="0"/><stop stop-color="#1C3AA9" stop-opacity=".089" offset=".911"/><stop stop-color="#1C3AA9" stop-opacity="0" offset="1"/></linearGradient><path d="M20.94 116.22c5.57 8.09 23.21 3.51 39.18-6.16 16.68-10.08 37.99-30.73 40.39-34.39 2.53-3.86 2.85-7.75 1.83-8.94-1.52-1.78-7.23-2.36-11.78-.75-5.18 1.84-32.63 12.97-44.2 19.59-21.42 12.27-29.96 24.06-25.42 30.65z" fill="url(#d)" opacity=".65"/><linearGradient id="e" x1="111.46" x2="121.76" y1="51.836" y2="51.836" gradientUnits="userSpaceOnUse"><stop stop-color="#1C3AA9" offset="0"/><stop stop-color="#1C3AA9" stop-opacity=".089" offset=".911"/><stop stop-color="#1C3AA9" stop-opacity="0" offset="1"/></linearGradient><path d="M111.46 56.16s4.25-9.01 8.16-8.63c7.79.76-8.16 8.63-8.16 8.63z" fill="url(#e)" opacity=".65"/><path d="M111.81 55.39s2.92-9.52 6.85-9.7c7.81-.37-6.85 9.7-6.85 9.7z" fill="#E3F2FD"/><linearGradient id="f" x1="77.445" x2="113.65" y1="83.06" y2="53.796" gradientTransform="matrix(1 .0098 -.0098 1 1.272 -.926)" gradientUnits="userSpaceOnUse"><stop stop-color="#1C3AA9" offset="0"/><stop stop-color="#1C3AA9" stop-opacity=".089" offset=".911"/><stop stop-color="#1C3AA9" stop-opacity="0" offset="1"/></linearGradient><path d="M59.31 85.44a130.73 130.73 0 0 1-23.24 9.05c4.8-4.13 14.8-18.07 18.37-18.06.58 0 1.9.36 2.48.43 2.43.27 2.72-3.6 5.97-4.86 1.87-.73 2.15 1.56 5.85 1.16 1.12-.12 2.2-.43 3.18-.99 2.01-1.14 2.87-2.25 4.16-4.17.78-1.16 2.5-4.27 4.24-4.48 1.8-.22.16 4.74 1.37 5.09S92.85 57.24 97.2 54.05c1.9-1.39 2.82-.44 2.53.9-.39 1.76-3.04 7.24-3.04 7.24s5.94-5.88 7.73-7.6c7.35-7.08 11.65-6.16 9.38-1.13-2.36 5.23-6.04 11.01-6.04 11.01s4.78-2.06 7.81-3.1c1.94-.66 3.43.08 3.84.34.77.48.71 2.56-1.52 5.03-3.46 3.84-10.59 9.15-10.59 9.15s4.64-.38 5.87-.3c4.32.27 5.93 3.06-4.32 6.36-2.19.7-7.31 1.97-8.2 3.13-.74.97.94 1.19.52 2.17-1.76 4.04-7.27 1.1-9.7 3.38-1.1 1.03 1.04 1.89-4.82 3.77-6.91 2.22-14 4.22-20.58 7.28 1.43-1.62 2.84-3.27 4.21-4.94" fill="url(#f)" opacity=".65"/><linearGradient id="g" x1="74.681" x2="110.88" y1="82.252" y2="52.988" gradientTransform="rotate(-1.403 67.954 54.673)" gradientUnits="userSpaceOnUse"><stop stop-color="#E3F2FD" offset="0"/><stop stop-color="#90CAF9" offset="1"/></linearGradient><path d="M56.85 85.27c-7.3 4-14.99 7.3-22.92 9.84 4.66-4.29 14.17-18.56 17.75-18.67.58-.02 1.91.3 2.49.34 2.44.19 2.6-3.69 5.8-5.06 1.85-.79 2.21 1.49 5.89.96 1.11-.16 2.18-.51 3.14-1.09 1.97-1.21 2.79-2.35 4.02-4.31.74-1.18 2.35-4.35 4.08-4.62 1.79-.28.32 4.73 1.54 5.04S89.4 55.96 93.65 52.62c1.85-1.45 2.81-.54 2.56.81-.33 1.77-2.79 7.34-2.79 7.34s5.74-6.08 7.47-7.86c7.1-7.32 11.44-6.55 9.33-1.45-2.18 5.3-5.66 11.21-5.66 11.21s4.7-2.22 7.7-3.36c1.92-.73 3.43-.03 3.85.21.79.46.79 2.54-1.35 5.08-3.33 3.95-10.27 9.5-10.27 9.5s4.63-.54 5.85-.5c4.33.12 6.03 2.86-4.1 6.5-2.16.78-7.24 2.22-8.09 3.41-.7.99.98 1.16.59 2.15-1.62 4.1-7.23 1.34-9.58 3.7-1.07 1.07 1.1 1.85-4.69 3.94-6.83 2.46-13.84 4.69-20.32 7.97 1.38-1.67 2.72-3.36 4.04-5.08" fill="url(#g)"/><linearGradient id="h" x1="26.59" x2="92.368" y1="104.06" y2="77.36" gradientTransform="rotate(-4.513 63.604 74.056)" gradientUnits="userSpaceOnUse"><stop stop-color="#FFF176" offset="0"/><stop stop-color="#FFEB3B" offset="1"/></linearGradient><path d="M17.56 113.17c5.25 8.3 23.37 4.26 40.05-4.93 17.41-9.59 40.04-29.63 42.65-33.23 2.75-3.79 3.27-7.69 2.29-8.91-1.46-1.83-6.95-2.73-12.45-.91-5.32 1.76-33.2 11.76-45.26 18.03-22.33 11.63-31.56 23.19-27.28 29.95z" fill="url(#h)"/><linearGradient id="i" x1="52.973" x2="17.718" y1="95.559" y2="111.6" gradientTransform="rotate(-1.403 67.954 54.673)" gradientUnits="userSpaceOnUse"><stop stop-color="#00BFA5" offset="0"/><stop stop-color="#65EEAE" offset=".457"/><stop stop-color="#B9F6CA" offset="1"/></linearGradient><path d="M103 68.25c.05-.96-.1-1.72-.44-2.15-.65-.81-2.14-1.42-4.02-1.71-11.02 5.47-58.1 28.47-77.64 37.5-1.38.64-2.53 1.37-3.16 3.16-1.42 3.36-1.72 5.68-.18 8.11 1.98 3.12 6.3 4.93 12.29 4.46 0 0 .45-1.34 1.61-2.11 1.16-.75 71.54-47.26 71.54-47.26z" fill="url(#i)"/><linearGradient id="j" x1="92.953" x2="29.023" y1="67.462" y2="104.75" gradientTransform="rotate(-1.403 67.954 54.673)" gradientUnits="userSpaceOnUse"><stop stop-color="#B9F6CA" offset="0"/><stop stop-color="#FFFDE7" offset="1"/></linearGradient><path d="M100.46 64.85c-8.06 4.26-63.04 32.77-81.3 42.28-1.11.58-2.62 2.17-2.62 2.17s-.23 1.91 1.02 3.88c.82 1.28 2.28 2.57 3.95 3.3 0 0 .79-1.45 1.52-1.89l79.53-48.48c-.41-.52-1.15-.94-2.1-1.26z" fill="url(#j)"/><path d="M95.61 65.29c2.89-.19 5.28.25 5.72 1.84.24.68.83 2.07-2.69 6.71-2.33 3.21-24.85 23.21-42 32.65-10.27 5.66-20.4 9-27.79 9.18-5.09.19-8.51-1.45-10.08-3.93-.76-1.2-1.15-2.34-.71-3.99 1.73-6.43 12.53-14.86 27.7-22.75 11.75-6.11 37.26-16.3 43.04-18.12 3.46-1.03 5.12-1.48 6.81-1.59zm-.14-1.09c-1.6.04-3.98.62-6.04 1.17-5.35 1.68-32.51 11.58-44.57 17.85-22.34 11.63-31.57 23.19-27.29 29.95 2.07 3.27 6.15 4.63 11.35 4.5 7.98-.19 18.6-3.87 28.7-9.43 17.41-9.59 40.04-29.63 42.65-33.23 2.75-3.79 3.27-7.69 2.29-8.91-.98-1.23-3.88-1.98-7.09-1.9z" fill="#FF9E00" opacity=".38"/><path d="M102.56 66.1c-.21-.26-.52-.5-.89-.71.15 3.51-.25 4.83-3.02 8.45-2.41 3.15-24.85 23.21-42 32.65-10.27 5.66-20.4 8.91-27.79 9.18-12.07.45-11.74-9.17-11.74-9.17-.89 2.52-.75 4.78.44 6.66 2.07 3.27 5.9 4.65 11.1 4.53 7.98-.19 18.85-3.89 28.95-9.46C75.02 98.64 97.65 78.6 100.26 75c2.76-3.78 3.27-7.67 2.3-8.9z" fill="#1C3AA9" opacity=".29"/><g stroke="#EDBD82" stroke-linecap="round" stroke-linejoin="round" stroke-miterlimit="10"><linearGradient id="k" x1="49.549" x2="32.549" y1="38.395" y2="56.645" gradientUnits="userSpaceOnUse"><stop stop-color="#FFD29C" offset="0"/><stop stop-color="#FFD39E" offset=".024"/><stop stop-color="#FCD8AF" offset=".316"/><stop stop-color="#FADCBA" offset=".629"/><stop stop-color="#F9DDBD" offset="1"/></linearGradient><path d="M57.01 39.32l-13.45 5.62c-1.09 2.25-4.9 7.98-5.49 9.37-.28.66.09 1.96.22 3.31.12 1.25-.88 3.26-1.17 3.36-.28.09-.86-.26-.92-.76-.1-.83.4-2.11 0-2.72-1.44 1.33-2.15 2.31-2.79 3.17s-.86 3.39-1.56 3.72c-1.12.53-1.43-.48-1.49-.64 0 0-.85-.33-1.01-1.43-.07-.47.06-1.37.06-1.37s-.16-1.41.85-3.37c.97-1.88 2.49-3.36 3.45-5.29.57-1.15 2.54-6.32 3.77-9.39.97-2.41 2.67-3.47 2.67-3.47s6.84-4.76 8.8-5.97c1.56-.96 6.83-2.47 8.95-2.16 2.11.31-.89 8.02-.89 8.02z" fill="url(#k)"/><linearGradient id="l" x1="30.658" x2="32.626" y1="61.064" y2="61.064" gradientUnits="userSpaceOnUse"><stop stop-color="#FFD29C" offset="0"/><stop stop-color="#FFD39E" offset=".024"/><stop stop-color="#FCD8AF" offset=".316"/><stop stop-color="#FADCBA" offset=".629"/><stop stop-color="#F9DDBD" offset="1"/></linearGradient><path d="M32.63 58.01c-2.16 2.78-1.96 6.11-1.96 6.11" fill="url(#l)" stroke-width=".75"/><linearGradient id="m" x1="29.472" x2="31.281" y1="59.438" y2="59.438" gradientUnits="userSpaceOnUse"><stop stop-color="#FFD29C" offset="0"/><stop stop-color="#FFD39E" offset=".024"/><stop stop-color="#FCD8AF" offset=".316"/><stop stop-color="#FADCBA" offset=".629"/><stop stop-color="#F9DDBD" offset="1"/></linearGradient><path d="M31.28 57.47c-1.4 1.37-1.81 3.94-1.81 3.94" fill="url(#m)" stroke-width=".75"/></g><linearGradient id="n" x1="39.502" x2="95.934" y1="91.114" y2="69.455" gradientTransform="matrix(.9519 -.2355 .0828 .8139 -.618 35.016)" gradientUnits="userSpaceOnUse"><stop stop-color="#1C3AA9" stop-opacity=".1" offset="0"/><stop stop-color="#1C3AA9" offset="1"/></linearGradient><path d="M85.62 76.22c-2.06-3.71-12.95-1.59-24.32 4.73-11.38 6.31-18.93 14.44-16.87 18.15s12.95 1.59 24.32-4.73 18.93-14.44 16.87-18.15z" fill="url(#n)" opacity=".53"/><linearGradient id="o" x1="51.719" x2="53.406" y1="89.383" y2="98.571" gradientUnits="userSpaceOnUse"><stop stop-color="#FFD29C" offset="0"/><stop stop-color="#FFD39E" offset=".024"/><stop stop-color="#FCD8AF" offset=".316"/><stop stop-color="#FADCBA" offset=".629"/><stop stop-color="#F9DDBD" offset="1"/></linearGradient><path d="M49.76 87.93c-.34.67-1.14 2.51-1.12 3.94.03 2.45.4 7.25.53 7.61.32.86.83.85 1.14.75.62-.19.38-1.3.38-1.3s.07 1.47.9 1.28c1.08-.26.44-1.56.41-1.72.05.18.56 1.86 1.14 1.71 1.02-.27.44-1.93.44-1.93s.26 2.04 1.27 1.71c1.11-.37.53-1.93.53-1.93s.5 1.51.7 1.77c.52.69 1.78-.03 1.79-.81.01-.63-.76-1.76-1.07-2.98-.83-3.18-1.9-4.84-.73-6.77" fill="url(#o)" stroke="#EDBD82" stroke-linecap="round" stroke-linejoin="round" stroke-miterlimit="10"/><path d="M83.9 78.39s.62-.04.53-.57c-.1-.7-.83-.75-.83-.75s.25-.1.2-.44c-.07-.47-3.93-1.96-5.68-2.63 1.49-2.59 5.26-7.13 6.64-9.93 1.97-3.99-.01-6.61-1.86-7.47-1.4-.65-12.15-4.1-12.15-4.1L66 60.64l11.1 3.75-4.3 10.7c-.62 1.59.05 3.2 1.06 3.41 2.68.53 5.1.5 7.61.93 2.98.5 3.14.07 3.15-.1.08-.86-.72-.94-.72-.94z" fill="#EDC391" stroke="#D9AC77" stroke-linecap="round" stroke-linejoin="round" stroke-miterlimit="10" stroke-width=".75"/><linearGradient id="p" x1="57.209" x2="57.209" y1="82.875" y2="74.5" gradientUnits="userSpaceOnUse"><stop stop-color="#FFD29C" offset="0"/><stop stop-color="#FFD39E" offset=".024"/><stop stop-color="#FCD8AF" offset=".316"/><stop stop-color="#FADCBA" offset=".629"/><stop stop-color="#F9DDBD" offset="1"/></linearGradient><path d="M55.66 90.19c.28-2.94 7.3-10.63 7.3-10.63 2.05-2.65 2.22-4.59 2.02-6.98l-1.39-14.62-11.43.82 2.34 16.65c-3.7 5.57-2.5 8.6-5.13 13.44" fill="url(#p)" stroke="#EDBD82" stroke-linecap="round" stroke-linejoin="round" stroke-miterlimit="10"/><path d="M54.13 72.86c-.46-1.79-2.33-9.18-2.65-11.56-.82-5.97 1.38-10.01 1.92-10.89l1.01-.12c2.98-.35 6.5-.74 10.07-.94l.49-.03c.74-.04 1.5-.09 2.25-.09.6 0 1.12.03 1.61.09.75.09.77.1.75.92-.03 1.25-.39 2.61-1.08 4.06-.54 1.13-1.22 2.23-1.89 3.28-.33.53-.67 1.06-.98 1.6-.56.95-1.15 2.09-1.22 3.3-.05.87.26 1.44.55 1.99.08.15.16.3.24.47.04.09.24.44.49.9.38.68 1.1 2 1.36 2.51-2.82 3.71-11.01 4.4-12.92 4.51z" fill="#7C7C7C"/><path d="M67.22 49.73c.58 0 1.08.03 1.54.09.14.02.24.03.31.05.01.08.01.19.01.37-.02 1.17-.37 2.47-1.03 3.85-.53 1.11-1.17 2.14-1.86 3.23-.34.54-.67 1.07-.99 1.62-.59 1-1.21 2.21-1.29 3.53-.06 1.01.3 1.67.61 2.26.08.14.15.29.23.45.04.09.24.45.5.93.32.57.89 1.61 1.2 2.21-2.47 2.83-8.81 3.83-11.95 4.04-.58-2.29-2.24-8.9-2.54-11.11-.75-5.43 1.08-9.22 1.72-10.36l.77-.09c2.97-.35 6.48-.74 10.04-.94l.51-.03c.74-.06 1.5-.1 2.22-.1m0-1c-.93 0-1.86.07-2.77.12-3.38.19-6.75.55-10.1.95l-1.25.15s-3.08 4.39-2.12 11.43c.38 2.76 2.77 12.01 2.77 12.01s10.69-.32 13.88-4.94c.07-.1-1.82-3.42-1.96-3.71-.38-.79-.8-1.28-.75-2.21.06-1.1.6-2.15 1.15-3.08.97-1.64 2.07-3.21 2.89-4.93.63-1.33 1.09-2.78 1.12-4.26.02-1.1-.2-1.31-1.19-1.43-.55-.08-1.11-.1-1.67-.1z" fill="#5B5B5B"/><path d="M54.13 72.86c-.46-1.79-2.33-9.18-2.65-11.56-.82-5.97 1.38-10.01 1.92-10.89 1.47-.18 9.55-1.16 13.86-1.16 2 0 2.36.22 2.39.24 2.6 2.98 7.06 3.68 8.38 3.82.85 4.21-3.1 8.81-4.03 9.82l-8.86-2.19c-.04-.01-.08-.01-.12-.01a.499.499 0 0 0-.5.45c-.27 2.51 1.82 6 2.49 7.04-2.86 3.64-10.98 4.33-12.88 4.44z" fill="#7C7C7C"/><path d="M67.26 49.75c1.41 0 1.93.11 2.09.16 2.52 2.8 6.57 3.63 8.25 3.86.49 3.63-2.66 7.56-3.77 8.81l-8.57-2.12a.986.986 0 0 0-.81.15c-.24.17-.39.43-.42.71-.26 2.47 1.52 5.69 2.37 7.06-2.52 2.77-8.77 3.75-11.88 3.96-.58-2.29-2.24-8.9-2.54-11.11-.75-5.43 1.08-9.22 1.72-10.36 1.95-.23 9.47-1.12 13.56-1.12m0-1c-4.82 0-14.16 1.19-14.16 1.19s-3.08 4.39-2.12 11.43c.38 2.76 2.77 12.01 2.77 12.01s10.69-.32 13.88-4.94c0 0-2.9-4.24-2.6-7.01l9.14 2.26s5.65-5.68 4.27-10.84c0 0-5.5-.35-8.43-3.71-.25-.28-1.3-.39-2.75-.39z" fill="#5B5B5B"/><path d="M72.31 38.69s4.07 2.21 7.16 3.57c2.12.94 3.24.92 5.25.77 1.91-.14 5-.42 7.28-.78 0 0 .37.72 2.1.94.46.06 3.51-.32 3.98-.41.7-.13.99-1.14.06-1.25-1.1-.13-2-.46-2-.46l2.33-.59s1.81-.04 2.36-.01c.75.04.96-.14 1.07-.5s-.15-.56-.24-.6c-1.01-.4-2.72-.79-3.78-.92s-5.21.72-6.47.48c-.46-.09-7.31-1.06-8.18-1.48 0 0-4.13-3.77-5.99-4.96-1.2-.77-2.66-1.53-5.47-.92" fill="#EDC391" stroke="#D9AC77" stroke-linecap="round" stroke-linejoin="round" stroke-miterlimit="10" stroke-width=".75"/><linearGradient id="q" x1="47.308" x2="81.9" y1="42.334" y2="42.334" gradientTransform="rotate(-1.985 71.51 63.972)" gradientUnits="userSpaceOnUse"><stop stop-color="#651FFF" offset="0"/><stop stop-color="#5914F2" offset=".705"/><stop stop-color="#530EEB" offset="1"/></linearGradient><path d="M54.85 55.84c-1.97 0-3.04-.52-3.47-.8.57-1.77 2.7-8.73 2.38-13.15a.505.505 0 0 0-.21-.37.521.521 0 0 0-.29-.09c-.04 0-.08 0-.12.02l-3.1.79c-.86-.93-4.32-4.93-3.73-9.07 1.22-.37 5.93-1.78 9.13-2.48 4.42-.97 7.63-1.03 10.45-1.08l.59-.01c.32-.01.62-.01.9-.01 1.89 0 3.18.16 5.47.45 3.57.46 7.06 3.19 8 3.97-.36 1.03-1.85 4.5-5.66 5.28-.19.04-.33.18-.38.36-.85 3.21-1.99 5.11-3.51 7.42-1.42 2.16-4.54 5.28-8.69 6.95-2.98 1.21-5.59 1.82-7.76 1.82z" fill="url(#q)"/><path d="M67.38 30.08c1.87 0 3.08.15 5.41.45 3.16.41 6.28 2.69 7.47 3.64-.48 1.21-1.92 3.96-5.17 4.63-.37.08-.67.36-.77.72-.83 3.14-1.95 5-3.44 7.28-1.38 2.1-4.42 5.14-8.46 6.76-2.93 1.18-5.48 1.78-7.57 1.78-1.46 0-2.38-.3-2.87-.54.71-2.26 2.58-8.72 2.28-12.95a.982.982 0 0 0-.41-.74 1.036 1.036 0 0 0-.84-.16l-2.81.71c-1.02-1.14-3.76-4.57-3.43-8.13 1.56-.47 5.82-1.73 8.78-2.38 4.37-.96 7.42-1.01 10.36-1.07l.59-.01c.31.01.6.01.88.01m0-1c-.29 0-.58 0-.91.01-3.06.06-6.37.06-11.14 1.1-3.74.82-9.46 2.58-9.46 2.58-.97 5.13 4.01 10.01 4.01 10.01l3.38-.86c.27 3.8-1.37 10-2.47 13.29 0 0 1.09 1.12 4.06 1.12 1.85 0 4.44-.44 7.95-1.85 4.38-1.76 7.56-5.06 8.92-7.14 1.45-2.22 2.69-4.21 3.57-7.57 4.84-1 6.14-5.93 6.14-5.93s-4.15-3.74-8.51-4.31c-2.39-.31-3.64-.45-5.54-.45z" fill="#4A00ED"/><linearGradient id="r" x1="72.001" x2="63.918" y1="33.224" y2="18.724" gradientUnits="userSpaceOnUse"><stop stop-color="#FFD29C" offset="0"/><stop stop-color="#FFD39E" offset=".024"/><stop stop-color="#FCD8AF" offset=".316"/><stop stop-color="#FADCBA" offset=".629"/><stop stop-color="#F9DDBD" offset="1"/></linearGradient><path d="M74.54 12.56C72.12 9.05 66.92 6.5 62.75 7.4c-4.66 1.01-7.02 4.52-7.47 8.84-.16 1.57-.04 3.12.28 4.2.04.13.34 1.07.38 1.38.23 1.15-1.95 2.41-2.15 3.7-.15.97 1.89 1.48 2.05 1.65.83.82-.49 4.67 4.99 5.37.47.06.95.09 1.44.09 0 0 1.08 2.87 4.52 1.59 2.71-1.01 2.63-2.75 2.81-4.04.26-1.83 1.31-3.15 2.07-4.22 2.28-3.22 4.43-11.15 2.87-13.4z" fill="url(#r)"/><radialGradient id="s" cx="86.407" cy="12.576" r="9.577" gradientUnits="userSpaceOnUse"><stop stop-color="#454140" offset="0"/><stop stop-color="#312D2D" offset="1"/></radialGradient><path d="M74.06 10.37c.85-2.37 3.87-3.99 7.4-2.65 1.9.72 3.22 1.55 4.71 2.04C95.56 12.84 98.75 7 98.75 7s-.16 2.27-1.59 4.72c-1.93 3.3-5.88 6.99-12.24 6.36-6.22-.61-9.08-3.5-9.08-3.5l-1.78-4.21z" fill="url(#s)"/><path d="M78.94 8.12c.72 0 1.46.14 2.21.43.87.33 1.62.69 2.34 1.03.81.39 1.58.75 2.41 1.02 1.91.63 3.71.94 5.38.94 2.58 0 4.47-.75 5.77-1.61-.18.42-.4.87-.66 1.33-1.05 1.8-4.13 5.99-10.07 5.99-.43 0-.87-.02-1.31-.07-5.12-.5-7.85-2.64-8.42-3.14l-1.55-3.69c.63-1.34 2.16-2.23 3.9-2.23M98.75 7s-1.99 3.66-7.47 3.66c-1.45 0-3.14-.26-5.1-.9-1.48-.49-2.81-1.32-4.71-2.04-.88-.34-1.73-.49-2.52-.49-2.38 0-4.24 1.36-4.88 3.14l1.77 4.22s2.87 2.89 9.08 3.5c.48.05.94.07 1.4.07 5.55 0 9.06-3.38 10.84-6.43C98.59 9.27 98.75 7 98.75 7z" fill="#1F1A1A"/><path d="M69.77 29.14s-.05 1.47-.48 2.66c-.68 1.87-2.73 2.71-4.17 2.69-.37-.01-.94-.09-1.31-.26-1.51-.68-1.89-1.62-1.89-1.62l-1.04-.07s.31 1.58 2.41 2.56c.48.23 1.32.35 1.81.35 1.73.03 4.36-.97 5.3-3.79.35-1.06.38-2.39.38-2.39l-1.01-.13z" fill="#4A00ED"/><path d="M74.54 12.56c-2.09-3.03-6.25-5.34-10.03-5.34-.6 0-1.19.06-1.76.18-4.66 1.01-7.02 4.52-7.47 8.84-.16 1.57-.04 3.12.28 4.2.04.13.34 1.07.38 1.38.23 1.15-1.95 2.41-2.15 3.7-.15.97 1.89 1.48 2.05 1.65.83.82-.49 4.67 4.99 5.37.13.02 1.09.07 1.09.07.8 1.47 2 1.66 2 1.66a4.22 4.22 0 0 1-.8-1.89 8.18 8.18 0 0 0 4.04-2.45c.16-.18.15-.47-.04-.63a.445.445 0 0 0-.63.04c-1.19 1.34-3.62 2.55-5.54 2.32-3.37-.41-3.62-2.04-3.85-3.45-.1-.64-.2-1.25-.63-1.67-.17-.16-.35-.24-.67-.37-.61-.25-.98-.44-1.11-.59.11-.34.54-.83.89-1.24.67-.76 1.43-1.63 1.24-2.66-.04-.28-.18-.76-.37-1.37l-.04-.11c-.3-1.03-.39-2.47-.25-3.86.26-2.52 1.5-6.92 6.77-8.07.5-.11 1.03-.16 1.57-.16 3.4 0 7.31 2.09 9.29 4.96 1.17 1.7-.56 8.81-2.76 12.17-1.04 1.59-1.55 3.19-2.08 5.63-.22 1.01-.66 2.34-.66 2.34s1.05-.63 1.63-2.6c.7-2.38.95-3.59 1.84-4.85 2.3-3.23 4.34-10.95 2.78-13.2z" fill="#EDBD82"/><path d="M56.52 29.43c.76.01 1.51-.21 2.13-.72.68-.56.17-1.12-.62-.73-.48.23-1.16.37-1.79.28l.28 1.17z" fill="#444"/><ellipse transform="rotate(-4.656 59.409 22.288)" cx="59.38" cy="22.29" rx="1.01" ry="1.55" fill="#312D2D"/><radialGradient id="t" cx="59.615" cy="19.55" r="1.619" gradientUnits="userSpaceOnUse"><stop stop-color="#454140" offset=".09"/><stop stop-color="#454140" offset="1"/></radialGradient><path d="M58.59 20.24c-.92.46-1.26-.14-1.03-.71.17-.42.7-.85 1.87-.83 1.1.02 1.65.55 2.01.87.35.32.39.7.15.78-.33.1-1.87-.68-3-.11z" fill="url(#t)"/><radialGradient id="u" cx="52.702" cy="109.12" r="10.256" gradientTransform="matrix(1.0483 -.084 .0877 .9983 -2.739 -93.302)" gradientUnits="userSpaceOnUse"><stop stop-color="#454140" offset="0"/><stop stop-color="#312D2D" offset="1"/></radialGradient><path d="M66.72 21.06c.11-.43.32-1.21.49-1.58.56-1.24 1.58-.85 1.58-.85 1.37.41 1.98 3.13-.16 4.85-.05.04-.17.14-.1.42.17.69.83 1.92 1.72 2.19.67.21 1.51-1.02 2.68-2.62 1.23-1.68 2.83-3.92 3.26-6.47 1.12-6.68-5-10.63-10.74-10.64-5.17-.01-11.98 2.57-11.44 9.12.1 1.2 1.21 1.42 1.21 1.42s.77-2.63 4.12-1.91c3.38.72 4.82-.07 4.82-.07-1 2.69.05 4.08.97 4.87.52.45 1.01.98 1.29 1.3.14.17.26.15.3-.03z" fill="url(#u)"/><path d="M74.71 9.79c-2.06-2.53-5.66-3.85-9.26-3.86-3.13-.01-7.37.95-9.88 3.64-1.51 1.62-2.35 3.7-1.99 5.94.22 1.35 1.62 2.14 1.62 2.14l.01-.75s-.66-.5-.77-1.46c-.24-2.08.42-3.86 1.76-5.29 2.32-2.49 6.3-3.37 9.24-3.36 3.31.01 6.77 1.24 8.61 3.57 2.42 3.07 1.69 6.63 1.24 7.65-1.18 2.67-2.82 4.22-3.53 6.34-.49 1.45-1.59 1.72-1.52 1.74 1.06.39 1.85.14 2.5-1.61.78-2.11 2.75-3.42 3.55-6.1.23-.74 1.46-4.86-1.58-8.59z" fill="#1F1A1A"/><path d="M75.11 36.33s.37 2.87-1.12 5.92" fill="none" stroke="#4A00ED" stroke-linecap="round" stroke-linejoin="round" stroke-miterlimit="10"/><linearGradient id="v" x1="103.42" x2="118.3" y1="85.497" y2="85.497" gradientUnits="userSpaceOnUse"><stop stop-color="#1C3AA9" offset="0"/><stop stop-color="#1C3AA9" stop-opacity=".089" offset=".911"/><stop stop-color="#1C3AA9" stop-opacity="0" offset="1"/></linearGradient><path d="M103.42 84.99s10.43-2.25 13.43-1.06c3 1.18 1.13 3.62-3.34 3.48s-10.09-2.42-10.09-2.42z" fill="url(#v)" opacity=".65"/><path d="M103.51 84.99s10.01-3.66 13.15-2.91c3.13.76 1.62 3.43-2.82 3.91-4.45.48-10.33-1-10.33-1z" fill="#E3F2FD"/></g></svg>