<svg viewBox="0 0 128 128" width="128" height="128" xmlns="http://www.w3.org/2000/svg"><linearGradient id="a" x1="65.904" x2="76.787" y1="81.338" y2="54.541" gradientUnits="userSpaceOnUse"><stop stop-color="#F9DDBD" offset=".601"/><stop stop-color="#FFD29C" offset="1"/></linearGradient><path d="M65.75 83.21c-.43 0-.84-.1-1.18-.3-1.02-.59-1.48-2.06-.98-3.15L68 68.7c1.28-2.97 4.06-12.17 4.83-14.76l6.99-.51.68 2.32-12.38 26.06c-.38.83-1.35 1.4-2.37 1.4z" fill="url(#a)"/><path d="M79.09 54.49l.34 1.17-12.22 25.75c-.21.46-.83.8-1.46.8-.26 0-.49-.06-.68-.17-.58-.33-.85-1.24-.57-1.87.01-.03.02-.06.04-.08l4.38-10.99c1.22-2.84 3.7-10.98 4.67-14.21l5.5-.4m1.46-2.11l-8.49.62s-3.53 11.93-5 15.33l-4.39 11.02c-.7 1.55-.08 3.58 1.39 4.43.51.29 1.09.43 1.68.43 1.35 0 2.71-.73 3.28-1.96l12.54-26.41-1.01-3.46z" fill="#EDBD82"/><radialGradient id="b" cx="91.137" cy="-2.078" r="21.79" gradientTransform="matrix(-1 0 0 1 127.46 0)" gradientUnits="userSpaceOnUse"><stop stop-color="#454140" offset="0"/><stop stop-color="#312D2D" offset=".999"/></radialGradient><path d="M36.19 4c18.19 0 18.04 16.82 18.04 17.08 0 10.89-.83 26.28-5.19 32.33-1.73 2.4-5.07 2.53-5.07 2.53l-7.53-.01-7.53.01s-3.34-.13-5.07-2.53c-4.36-6.05-5.19-21.44-5.19-32.33C18.66 20.82 18 4 36.19 4z" fill="url(#b)"/><path d="M36.19 6c5.03 0 8.97 1.39 11.7 4.13 4.3 4.31 4.34 10.68 4.34 10.95 0 15.78-1.71 26.85-4.81 31.16-1.06 1.47-3.25 1.68-3.5 1.7l-7.47-.01-7.47.01c-.25-.02-2.45-.24-3.5-1.7-3.1-4.31-4.81-15.38-4.81-31.16v-.07c-.01-.69-.02-6.81 4.05-10.96C27.34 7.36 31.2 6 36.19 6m0-2C18 4 18.66 20.82 18.66 21.08c0 10.89.83 26.28 5.19 32.33 1.73 2.4 5.07 2.53 5.07 2.53l7.53-.01 7.53.01s3.34-.13 5.07-2.53c4.36-6.05 5.19-21.44 5.19-32.33C54.23 20.82 54.37 4 36.19 4z" fill="#1F1A1A"/><linearGradient id="c" x1="122.3" x2="104.22" y1="83.476" y2="56.038" gradientTransform="matrix(-1 0 0 1 127.46 0)" gradientUnits="userSpaceOnUse"><stop stop-color="#F9DDBD" offset=".601"/><stop stop-color="#FFD29C" offset="1"/></linearGradient><path d="M5.4 86.97c-.57 0-1.49-.85-1.66-1.18-.16-.31-.62-1.54.12-4.35.63-2.38 1.03-2.95 2.79-4.74.04-.04.08-.09.11-.14 1.93-2.85 6.17-9.17 6.17-9.17.03-.05.06-.1.08-.15l5.72-12.7 7.99.49-.22 2.79-14.96 21.02a.95.95 0 0 0-.17.43l-.62 4.01c-.5.83-1.11 1.77-1.4 2.14v-.12c.02-.36.14-.78.24-1.14.19-.66.37-1.29.04-1.85-.18-.3-.46-.51-.81-.59-.12-.03-.23-.04-.35-.04-1.33 0-1.69 1.49-2.04 2.93-.2.83-.48 1.96-.84 2.29-.06.05-.11.07-.19.07z" fill="url(#c)"/><path d="M19.36 55.58l6.29.39-.12 1.5-14.81 20.79c-.18.25-.3.55-.35.86l-.33 2.15c-.28-.25-.62-.43-.99-.52-.19-.05-.39-.07-.58-.07-2.11 0-2.63 2.13-3.01 3.69-.09.37-.23.96-.38 1.38-.18-.14-.37-.31-.46-.44-.08-.18-.43-1.2.21-3.61.58-2.19.86-2.58 2.54-4.3.08-.09.16-.18.23-.28 1.93-2.85 6.17-9.18 6.17-9.18.06-.09.12-.19.16-.29l5.43-12.07M18.1 53.5s-4.5 10-6 13.33c0 0-4.24 6.32-6.17 9.17-1.88 1.92-2.36 2.62-3.04 5.19-.75 2.83-.4 4.38-.04 5.06.27.53 1.48 1.72 2.55 1.72.31 0 .61-.1.87-.34 1.2-1.11 1.15-4.95 2.2-4.95.04 0 .07 0 .11.01.6.15-.16 1.36-.23 2.56-.05.87.42 1.22.93 1.22.19 0 .39-.05.57-.14.33-.17 1.85-2.71 1.85-2.71l.65-4.21 15.13-21.24.32-4.08-9.7-.59z" fill="#EDBD82"/><linearGradient id="d" x1="96.17" x2="96.206" y1="84.066" y2="84.066" gradientTransform="translate(-93.25)" gradientUnits="userSpaceOnUse"><stop stop-color="#FFB300" offset="0"/><stop stop-color="#FFCA28" offset=".401"/></linearGradient><path d="M2.92 84.19c.02-.15.03-.26.03-.26s-.05.28-.03.26z" fill="url(#d)"/><path d="M2.96 83.94zm0 0s-.05.26-.03.26c.01-.16.03-.26.03-.26z" fill="#EDA600"/><linearGradient id="e" x1="58.842" x2="76.388" y1="86.877" y2="60.028" gradientTransform="matrix(-1 0 0 1 127.46 0)" gradientUnits="userSpaceOnUse"><stop stop-color="#F9DDBD" offset=".601"/><stop stop-color="#FFD29C" offset="1"/></linearGradient><path d="M68.82 88.17c-.56 0-.94 0-1.83-1.38-.38-.58-.62-1.08-.84-1.52-.49-.99-.96-1.93-2.38-2.1-.04 0-.15-.01-.18-.01-1.27 0-1.6 1.29-1.82 2.14-.07.29-.19.77-.3.94-.19.06-.35.09-.47.09-.86-.42-1.42-.71.42-5.47.11-.29.08-.6-.07-.87L48.33 57.87l-.22-2.78 7.33-.01c.97 2.37 4.4 10.62 6.15 13.38l4.68 8.35c.06.11.14.2.23.28.32.27.7.56 1.11.88 1.41 1.09 3.17 2.45 4.5 4.24.63.85.97 1.59-.38 3.44-.15.2-.3.44-.46.7-.66 1.06-1.19 1.81-2.05 1.81l-.4.01z" fill="url(#e)"/><path d="M54.78 56.09c1.22 2.95 4.27 10.21 5.94 12.87l4.68 8.35c.12.21.28.4.46.56.33.27.72.58 1.15.91 1.36 1.06 3.06 2.37 4.3 4.04.42.57.64.85-.38 2.25-.18.24-.34.51-.5.76-.35.56-.83 1.34-1.2 1.34h-.66c-.01-.01-.25-.14-.75-.92-.35-.54-.58-1.01-.79-1.42-.51-1.02-1.2-2.42-3.16-2.65-.1-.01-.2-.02-.3-.02-.88 0-1.48.38-1.89.87.16-.5.38-1.1.66-1.81.22-.57.17-1.21-.14-1.73L49.3 57.57l-.11-1.47 5.59-.01m1.34-2.01l-9.09.02.32 4.08L60.48 80.5c-1.83 4.75-1.63 5.88-.04 6.71.17.09.36.12.56.12.28 0 .57-.07.86-.17 1.03-.34.75-3 1.72-3h.07c1.31.15 1.25 1.23 2.5 3.17 1.11 1.72 1.8 1.84 2.67 1.84h.42c1.83 0 2.62-1.97 3.31-2.92 1.58-2.17 1.3-3.38.37-4.63-1.81-2.44-4.38-4.12-5.77-5.29l-4.71-8.4c-1.98-3.12-6.32-13.85-6.32-13.85z" fill="#EDBD82"/><linearGradient id="f" x1="90.843" x2="90.843" y1="122.69" y2="78.007" gradientTransform="matrix(-1 0 0 1 127.46 0)" gradientUnits="userSpaceOnUse"><stop stop-color="#616161" offset=".001"/><stop stop-color="#6B6B6B" offset=".446"/><stop stop-color="#6E6E6E" offset="1"/></linearGradient><path d="M50.6 78.01v44.68h-5.65l-7.87-38.21c-.04-.24-.24-.41-.46-.41s-.42.17-.46.41l-7.87 38.21h-5.65V78.01H50.6z" fill="url(#f)"/><path d="M45.83 121.69l-7.71-37.41c-.13-.69-.73-1.2-1.44-1.2s-1.31.51-1.44 1.22l-7.7 37.39h-3.83V75.61h25.95v46.08h-3.83z" fill="#7C7C7C"/><path d="M48.66 76.61v44.08h-2.02l-7.53-36.58c-.22-1.18-1.24-2.04-2.43-2.04s-2.21.86-2.42 2l-7.54 36.61H24.7V76.61h23.96m2-2H22.71v48.08h5.65l7.87-38.21c.04-.24.24-.41.46-.41s.42.17.46.41l7.87 38.21h5.65V74.61h-.01z" fill="#5B5B5B"/><g fill="#2B2D2D"><path d="M47.6 124h4.45c.82-.02 1.41-.96 1.17-1.78-.74-2.49-2.99-4.32-5.62-4.32-2.68 0-4.96 1.9-5.66 4.46-.22.82.39 1.63 1.21 1.63h4.45zM25.56 124h-4.45c-.82-.02-1.41-.96-1.17-1.78.74-2.49 2.99-4.32 5.62-4.32 2.68 0 4.96 1.9 5.66 4.46.22.82-.39 1.63-1.21 1.63h-4.45z"/></g><path d="M23.73 77V59.72c0-.41-.26-.79-.64-.93l-7.44-2.85c2.11-5.49 4.09-8.35 10.68-10.1 2.3-.61 6.45-1.03 10.32-1.03h.16c3.84 0 7.97.41 10.27 1.03 6.55 1.74 8.53 4.6 10.64 10.11l-7.35 2.84c-.39.15-.64.52-.64.93V77h-26z" fill="#651FFF"/><path d="M36.81 45.81c3.76 0 7.79.4 10.01.99 5.81 1.55 7.68 3.81 9.6 8.57L50 57.85c-.77.3-1.28 1.04-1.28 1.87V76h-24V59.72c0-.83-.51-1.57-1.29-1.87l-6.5-2.49c1.89-4.66 3.83-7.02 9.64-8.56 2.23-.59 6.27-.99 10.06-.99h.18m0-2h-.16c-3.98 0-8.17.42-10.57 1.06-7.55 2.01-9.46 5.56-11.71 11.65l8.37 3.2V78h28V59.72l8.28-3.2c-2.25-6.09-4.12-9.64-11.67-11.65-2.41-.64-6.56-1.06-10.54-1.06z" fill="#540EED"/><path d="M35.64 49.85c-2.23 0-4.05-1.72-4.05-3.84v-4.8h9v4.8c0 2.12-1.82 3.84-4.05 3.84h-.9z" fill="#EDC391"/><path d="M40.09 41.72v4.3c0 1.84-1.59 3.34-3.55 3.34h-.91c-1.95 0-3.55-1.5-3.55-3.34v-4.3h8.01m1-1h-10v5.3c0 2.4 2.04 4.34 4.55 4.34h.91c2.51 0 4.55-1.94 4.55-4.34v-5.3h-.01z" fill="#D9AC77"/><linearGradient id="g" x1="91.371" x2="91.371" y1="9.142" y2="43.612" gradientTransform="matrix(-1 0 0 1 127.46 0)" gradientUnits="userSpaceOnUse"><stop stop-color="#F9DDBD" offset=".601"/><stop stop-color="#FFD29C" offset="1"/></linearGradient><path d="M36.09 43.47c-1.01 0-2.15-.22-3.32-.62-5.02-1.77-10.88-7.21-10.88-16.75 0-12.7 7.65-17.2 14.19-17.2 6.55 0 14.19 4.51 14.19 17.2 0 9.53-5.85 14.97-10.86 16.75-1.15.4-2.3.62-3.32.62z" fill="url(#g)"/><path d="M36.09 9.39c6.32 0 13.69 4.37 13.69 16.7 0 9.26-5.67 14.56-10.52 16.28-1.12.39-2.21.6-3.17.6-.95 0-2.04-.21-3.15-.6-4.86-1.71-10.54-7-10.54-16.28 0-12.32 7.38-16.7 13.69-16.7m0-1c-7.63 0-14.69 5.67-14.69 17.7 0 9.67 6 15.39 11.21 17.23 1.23.43 2.43.65 3.48.65 1.06 0 2.26-.22 3.5-.66 5.21-1.84 11.19-7.56 11.19-17.22 0-12.03-7.06-17.7-14.69-17.7z" fill="#EDBD82"/><g fill="#312D2D"><ellipse cx="43.3" cy="28.33" rx="2.16" ry="2.24"/><ellipse cx="28.89" cy="28.33" rx="2.16" ry="2.24"/></g><path d="M34.4 32.4c.05-.02.09-.03.14-.04h3.1c.05.01.09.02.14.04.28.11.44.4.3.71-.13.31-.75 1.18-1.99 1.18s-1.86-.87-1.99-1.18c-.13-.3.02-.59.3-.71z" fill="#DBA689"/><radialGradient id="h" cx="43.297" cy="24.102" r="2.483" gradientUnits="userSpaceOnUse"><stop stop-color="#454140" offset=".09"/><stop stop-color="#454140" offset="1"/></radialGradient><path d="M40.09 24.32c.41-.54 1.36-1.34 3.21-1.34 1.84 0 2.8.79 3.21 1.34.18.24.14.52.01.69-.12.16-.46.3-.84.17s-1.13-.51-2.37-.52c-1.25.01-1.99.39-2.37.52s-.73-.02-.84-.17a.54.54 0 0 1-.01-.69z" fill="url(#h)"/><radialGradient id="i" cx="28.887" cy="24.102" r="2.483" gradientUnits="userSpaceOnUse"><stop stop-color="#454140" offset=".09"/><stop stop-color="#454140" offset="1"/></radialGradient><path d="M25.68 24.32c.41-.54 1.36-1.34 3.21-1.34 1.84 0 2.8.79 3.21 1.34.18.24.14.52.01.69-.12.16-.46.3-.84.17s-1.13-.51-2.37-.52c-1.25.01-1.99.39-2.37.52s-.73-.02-.84-.17a.54.54 0 0 1-.01-.69z" fill="url(#i)"/><radialGradient id="j" cx="124.57" cy="3.441" r="16.514" gradientTransform="matrix(0 1 -.9288 0 39.287 -121.13)" gradientUnits="userSpaceOnUse"><stop stop-color="#454140" offset="0"/><stop stop-color="#312D2D" offset="1"/></radialGradient><path d="M51.78 22.14c0-5.82-3.82-15.59-15.54-15.59-12.12 0-15.84 11.34-15.84 15.59 0 12.82 1.15 19.17 2.42 21.79.24.5.96.73 1.19-.47 0 0-.9-7.77-1-13.31-.02-1.29-.42-6.09 2.29-6.69 9.92-2.23 15.53-7.49 15.53-7.49 1.46 3.19 6.02 6.29 7.66 7.48 1.35.97 1.16 4.97 1.13 6.67l-1.35 13.32s.08 3.17 1.39.5c1.31-2.68 2.12-17.5 2.12-21.8z" fill="url(#j)"/><path d="M32.4 35.99c1.4.83 5.97.83 7.37 0 .8-.48 1.62.25 1.29.98-.33.72-2.82 2.38-4.98 2.38s-4.62-1.66-4.95-2.38c-.34-.73.47-1.46 1.27-.98z" fill="#424242"/><radialGradient id="k" cx="35.924" cy="-2.078" r="21.79" gradientTransform="matrix(-1 0 0 1 127.46 0)" gradientUnits="userSpaceOnUse"><stop stop-color="#454140" offset="0"/><stop stop-color="#312D2D" offset=".999"/></radialGradient><path d="M91.4 4c18.19 0 18.04 16.82 18.04 17.08 0 10.89-.83 26.28-5.19 32.33-1.73 2.4-5.07 2.53-5.07 2.53l-7.53-.01-7.53.01s-3.34-.13-5.07-2.53c-4.36-6.05-5.19-21.44-5.19-32.33C73.87 20.82 73.22 4 91.4 4z" fill="url(#k)"/><path d="M91.4 6c5.03 0 8.97 1.39 11.7 4.13 4.3 4.31 4.34 10.68 4.34 10.95 0 15.78-1.71 26.85-4.81 31.16-1.06 1.47-3.25 1.68-3.5 1.7l-7.47-.01-7.47.01c-.25-.02-2.45-.24-3.5-1.7-3.1-4.31-4.81-15.38-4.81-31.16v-.07c-.01-.69-.02-6.81 4.05-10.96C82.55 7.36 86.42 6 91.4 6m0-2C73.22 4 73.87 20.82 73.87 21.08c0 10.89.83 26.28 5.19 32.33 1.73 2.4 5.07 2.53 5.07 2.53l7.53-.01 7.53.01s3.34-.13 5.07-2.53c4.36-6.05 5.19-21.44 5.19-32.33-.01-.26.14-17.08-18.05-17.08z" fill="#1F1A1A"/><linearGradient id="l" x1="3.918" x2="22.294" y1="86.454" y2="55.827" gradientTransform="matrix(-1 0 0 1 127.46 0)" gradientUnits="userSpaceOnUse"><stop stop-color="#F9DDBD" offset=".601"/><stop stop-color="#FFD29C" offset="1"/></linearGradient><path d="M122.6 86.97c-.08 0-.13-.02-.19-.08-.36-.33-.64-1.46-.84-2.29-.35-1.44-.72-2.93-2.04-2.93-.12 0-.23.01-.35.04-.35.08-.64.29-.81.59-.33.57-.15 1.19.04 1.85.1.37.22.78.24 1.14v.11c-.29-.37-.89-1.31-1.4-2.14l-.62-4.01a.997.997 0 0 0-.17-.43L101.5 57.83l-.22-2.79 7.99-.49 5.72 12.7c.02.05.05.1.08.15 0 0 4.24 6.32 6.17 9.17.03.05.07.09.11.14 1.76 1.8 2.16 2.36 2.79 4.74.74 2.81.28 4.04.12 4.35-.17.31-1.08 1.17-1.66 1.17z" fill="url(#l)"/><path d="M108.64 55.58l5.43 12.07c.05.1.1.2.16.29 0 0 4.24 6.33 6.17 9.18.07.1.14.19.23.28 1.68 1.72 1.96 2.11 2.54 4.3.64 2.41.29 3.42.21 3.61-.09.13-.28.3-.46.44-.15-.42-.29-1.01-.38-1.38-.38-1.56-.9-3.69-3.01-3.69-.19 0-.39.02-.58.07-.38.09-.72.27-1 .52l-.33-2.15c-.05-.31-.17-.6-.35-.86l-14.81-20.78-.12-1.5 6.3-.4m1.26-2.08l-9.7.6.32 4.08 15.13 21.24.65 4.21s1.52 2.54 1.85 2.71c.18.09.37.14.57.14.51 0 .98-.35.93-1.22-.07-1.2-.83-2.42-.23-2.56.04-.01.08-.01.11-.01 1.05 0 1 3.84 2.2 4.95.26.24.56.34.87.34 1.07 0 2.27-1.18 2.55-1.72.35-.69.71-2.23-.04-5.06-.68-2.57-1.17-3.27-3.04-5.19-1.93-2.85-6.17-9.17-6.17-9.17-1.5-3.34-6-13.34-6-13.34z" fill="#EDBD82"/><linearGradient id="m" x1="2.383" x2="2.419" y1="84.066" y2="84.066" gradientTransform="matrix(-1 0 0 1 127.46 0)" gradientUnits="userSpaceOnUse"><stop stop-color="#FFB300" offset="0"/><stop stop-color="#FFCA28" offset=".401"/></linearGradient><path d="M125.08 84.19c-.02-.15-.03-.26-.03-.26s.05.28.03.26z" fill="url(#m)"/><path d="M125.04 83.94s.02.11.03.26c.02-.01-.03-.26-.03-.26z" fill="#EDA600"/><linearGradient id="n" x1="56.563" x2="59.358" y1="85.346" y2="85.346" gradientTransform="scale(-1 1) rotate(-13.68 -5.763 616.01)" gradientUnits="userSpaceOnUse"><stop stop-color="#FFB300" offset="0"/><stop stop-color="#FFCA28" offset=".401"/></linearGradient><path d="M70.44 86.79c-1.25-1.92-2.17-2.92-2.17-2.92" fill="url(#n)" stroke="#EDBD82" stroke-linecap="round" stroke-linejoin="round" stroke-miterlimit="10"/><linearGradient id="o" x1="55.359" x2="58.397" y1="83.625" y2="83.625" gradientTransform="scale(-1 1) rotate(-13.68 -5.763 616.01)" gradientUnits="userSpaceOnUse"><stop stop-color="#FFB300" offset="0"/><stop stop-color="#FFCA28" offset=".401"/></linearGradient><path d="M72.02 85.38c-1.25-1.92-2.42-2.92-2.42-2.92" fill="url(#o)" stroke="#EDBD82" stroke-linecap="round" stroke-linejoin="round" stroke-miterlimit="10"/><linearGradient id="p" x1="35.843" x2="35.843" y1="122.69" y2="78.007" gradientTransform="matrix(-1 0 0 1 127.46 0)" gradientUnits="userSpaceOnUse"><stop stop-color="#616161" offset=".001"/><stop stop-color="#6B6B6B" offset=".446"/><stop stop-color="#6E6E6E" offset="1"/></linearGradient><path d="M105.6 78.01v44.68h-5.65l-7.87-38.21c-.04-.24-.24-.41-.46-.41s-.42.17-.46.41l-7.87 38.21h-5.65V78.01h27.96z" fill="url(#p)"/><path d="M100.83 121.69l-7.71-37.41c-.13-.69-.73-1.2-1.44-1.2s-1.31.51-1.44 1.22l-7.7 37.39h-3.83V75.61h25.95v46.08h-3.83z" fill="#7C7C7C"/><path d="M103.66 76.61v44.08h-2.02l-7.53-36.58c-.22-1.18-1.24-2.04-2.43-2.04s-2.21.86-2.42 2l-7.54 36.61H79.7V76.61h23.96m2-2H77.71v48.08h5.65l7.87-38.21c.04-.24.24-.41.46-.41s.42.17.46.41l7.87 38.21h5.65V74.61h-.01z" fill="#5B5B5B"/><g fill="#2B2D2D"><path d="M102.6 124h4.45c.82-.02 1.41-.96 1.17-1.78-.74-2.49-2.99-4.32-5.62-4.32-2.68 0-4.96 1.9-5.66 4.46-.22.82.39 1.63 1.21 1.63h4.45zM80.56 124h-4.45c-.82-.02-1.41-.96-1.17-1.78.74-2.49 2.99-4.32 5.62-4.32 2.68 0 4.96 1.9 5.66 4.46.22.82-.39 1.63-1.21 1.63h-4.45z"/></g><linearGradient id="q" x1="35.851" x2="35.851" y1="44.814" y2="77" gradientTransform="matrix(-1 0 0 1 127.46 0)" gradientUnits="userSpaceOnUse"><stop stop-color="#a0f" offset="0"/><stop stop-color="#A100F2" offset=".419"/><stop stop-color="#9000D9" offset="1"/></linearGradient><path d="M78.66 77V59.72c0-.41-.26-.79-.64-.93l-7.44-2.85c2.11-5.49 4.09-8.35 10.68-10.1 2.3-.61 6.45-1.03 10.32-1.03h.16c3.84 0 7.97.41 10.27 1.03 6.55 1.74 8.53 4.6 10.64 10.11l-7.35 2.84c-.39.15-.64.52-.64.93V77h-26z" fill="url(#q)"/><path d="M91.74 45.81c3.76 0 7.79.4 10.01.99 5.81 1.55 7.68 3.81 9.6 8.57l-6.42 2.48c-.77.3-1.28 1.04-1.28 1.87V76h-24V59.72c0-.83-.51-1.57-1.29-1.87l-6.5-2.49c1.89-4.66 3.83-7.02 9.64-8.56 2.23-.59 6.27-.99 10.06-.99h.18m0-2h-.16c-3.98 0-8.17.42-10.57 1.06-7.55 2.01-9.46 5.56-11.71 11.65l8.37 3.2V78h28V59.72l8.28-3.2c-2.25-6.09-4.12-9.64-11.67-11.65-2.41-.64-6.57-1.06-10.54-1.06z" fill="#7F00BF"/><path d="M68.72 87.55c.19-.71-.15-1.48-.84-1.8-.11-.05-.22-.08-.33-.11l.02-.06c.27-.84-.2-1.75-1.04-2.02l-.03-.2a1.594 1.594 0 0 0-1.55-1.18c-.18 0-.36.04-.52.1-.16-.2-.35-.38-.59-.49l-.1-.04a1.626 1.626 0 0 0-2.14.82l-.41.92c-.07-.02-.14-.05-.21-.07-.22-.06-.45-.1-.67-.05-.72.16-.64 1.49-.64 2.06 0 .46.06 1.13.54 1.57.47.44 1.05.4 1.36.38.05 0 .11-.01.16-.01.1.09.2.19.32.33.35.39.84.94 1.89 1.23.7.2 1.31.08 1.76-.04.15.19.34.32.56.45 1.52.94 3.37.36 4.2-.5-.02-.01-1.3-1.04-1.74-1.29z" fill="#EDBD82"/><path d="M66.57 88.1c.35.16.76.01.92-.34l.18-.4c.16-.35.01-.76-.34-.92s-.76-.01-.92.34l-.18.4c-.17.35-.01.76.34.92zM65.01 87.27c.33.16.74.02.91-.31l.66-1.36c.16-.33.02-.74-.31-.91a.694.694 0 0 0-.91.31l-.66 1.36c-.16.34-.02.75.31.91zM63.32 86.44c.33.17.74.04.91-.29l1.1-2.12c.17-.33.04-.74-.29-.91s-.74-.04-.91.29l-1.1 2.12a.67.67 0 0 0 .29.91zM61.69 85.5l.04.02c.34.17.76.03.93-.31l.92-1.84c.17-.34.03-.76-.31-.93l-.04-.02a.697.697 0 0 0-.93.31l-.92 1.84a.68.68 0 0 0 .31.93z" fill="#F9DDBD"/><path d="M91.13 49.85c-2.23 0-4.04-1.72-4.04-3.84v-4.8h9v4.8c0 2.12-1.82 3.84-4.05 3.84h-.91z" fill="#EDC391"/><path d="M95.59 41.72v4.3c0 1.84-1.59 3.34-3.55 3.34h-.91c-1.95 0-3.55-1.5-3.55-3.34v-4.3h8.01m1-1h-10v5.3c0 2.4 2.04 4.34 4.55 4.34h.91c2.51 0 4.55-1.94 4.55-4.34v-5.3h-.01z" fill="#D9AC77"/><linearGradient id="r" x1="35.874" x2="35.874" y1="9.142" y2="43.612" gradientTransform="matrix(-1 0 0 1 127.46 0)" gradientUnits="userSpaceOnUse"><stop stop-color="#F9DDBD" offset=".601"/><stop stop-color="#FFD29C" offset="1"/></linearGradient><path d="M91.59 43.47c-1.01 0-2.15-.22-3.32-.62-5.02-1.77-10.88-7.21-10.88-16.75 0-12.7 7.65-17.2 14.19-17.2 6.55 0 14.19 4.51 14.19 17.2 0 9.52-5.85 14.97-10.86 16.75-1.15.4-2.31.62-3.32.62z" fill="url(#r)"/><path d="M91.59 9.39c6.32 0 13.69 4.37 13.69 16.7 0 9.26-5.67 14.56-10.52 16.28-1.12.39-2.21.6-3.17.6-.95 0-2.04-.21-3.15-.6-4.86-1.71-10.54-7-10.54-16.28 0-12.32 7.37-16.7 13.69-16.7m0-1c-7.63 0-14.69 5.67-14.69 17.7 0 9.67 6 15.39 11.21 17.23 1.23.43 2.43.65 3.48.65 1.06 0 2.26-.22 3.5-.66 5.21-1.84 11.19-7.56 11.19-17.22 0-12.03-7.06-17.7-14.69-17.7z" fill="#EDBD82"/><g fill="#312D2D"><ellipse cx="98.77" cy="28.33" rx="2.16" ry="2.24"/><ellipse cx="84.36" cy="28.33" rx="2.16" ry="2.24"/></g><path d="M89.88 32.4c.05-.02.09-.03.14-.04h3.1c.05.01.09.02.14.04.28.11.44.4.3.71-.13.31-.75 1.18-1.99 1.18s-1.86-.87-1.99-1.18c-.14-.3.02-.59.3-.71z" fill="#DBA689"/><radialGradient id="s" cx="98.773" cy="24.102" r="2.483" gradientUnits="userSpaceOnUse"><stop stop-color="#454140" offset=".09"/><stop stop-color="#454140" offset="1"/></radialGradient><path d="M95.57 24.32c.41-.54 1.36-1.34 3.21-1.34s2.8.79 3.21 1.34c.18.24.14.52.01.69-.12.16-.46.3-.84.17s-1.13-.51-2.37-.52c-1.25.01-1.99.39-2.37.52s-.73-.02-.84-.17a.528.528 0 0 1-.01-.69z" fill="url(#s)"/><radialGradient id="t" cx="84.362" cy="24.102" r="2.483" gradientUnits="userSpaceOnUse"><stop stop-color="#454140" offset=".09"/><stop stop-color="#454140" offset="1"/></radialGradient><path d="M81.15 24.32c.41-.54 1.36-1.34 3.21-1.34s2.8.79 3.21 1.34c.18.24.14.52.01.69-.12.16-.46.3-.84.17s-1.13-.51-2.37-.52c-1.25.01-1.99.39-2.37.52s-.73-.02-.84-.17a.554.554 0 0 1-.01-.69z" fill="url(#t)"/><radialGradient id="u" cx="182.14" cy="3.441" r="16.514" gradientTransform="matrix(0 1 -.9288 0 94.763 -178.7)" gradientUnits="userSpaceOnUse"><stop stop-color="#454140" offset="0"/><stop stop-color="#312D2D" offset="1"/></radialGradient><path d="M107.26 22.14c0-5.82-3.82-15.59-15.54-15.59-12.12 0-15.84 11.34-15.84 15.59 0 12.82 1.15 19.17 2.42 21.79.24.5.96.73 1.19-.47 0 0-.9-7.77-1-13.31-.02-1.29-.42-6.09 2.29-6.69 9.92-2.23 15.53-7.49 15.53-7.49 1.46 3.19 6.02 6.29 7.66 7.48 1.35.97 1.16 4.97 1.13 6.67l-1.35 13.32s.08 3.17 1.39.5c1.3-2.68 2.12-17.5 2.12-21.8z" fill="url(#u)"/><path d="M87.88 35.99c1.4.83 5.97.83 7.37 0 .8-.48 1.62.25 1.29.98-.33.72-2.82 2.38-4.98 2.38s-4.62-1.66-4.95-2.38c-.34-.73.47-1.46 1.27-.98z" fill="#424242"/></svg>