<svg viewBox="0 0 128 128" width="128" height="128" xmlns="http://www.w3.org/2000/svg" xmlns:xlink="http://www.w3.org/1999/xlink"><path d="M113.08 53.9c0-1.97-.93-3.73-2.39-4.86a6.133 6.133 0 0 0 2.08-4.61c0-2.47-1.46-4.6-3.58-5.59a6.137 6.137 0 0 0 1.32-3.79c0-2.4-1.38-4.48-3.4-5.51-.26-.92-.78-1.73-1.5-2.38.35-.66.56-1.39.56-2.18 0-2.56-2.11-4.66-4.84-5.02.04-.25.09-.51.09-.77 0-2.82-2.53-5.1-5.66-5.1-.09 0-.18.02-.27.02.02-.16.05-.31.05-.47 0-2.82-2.53-5.1-5.66-5.1-1.01 0-1.95.26-2.78.68-.22-2.63-2.64-4.71-5.62-4.71-1.5 0-2.85.53-3.86 1.39-.91-1.71-2.84-2.9-5.09-2.9-1.8 0-3.38.77-4.42 1.95-.99-1.46-2.76-2.45-4.81-2.45-1.74 0-3.28.72-4.32 1.84A6.004 6.004 0 0 0 55.19 3c-2.06 0-3.84 1-4.83 2.47-.93-.6-2.06-.96-3.29-.96-2.75 0-5.04 1.77-5.55 4.1-.77-.36-1.64-.58-2.56-.58-3.13 0-5.66 2.28-5.66 5.1 0 .1.03.2.03.31-.22-.02-.45-.06-.68-.06-3.13 0-5.66 2.28-5.66 5.1 0 .72.17 1.4.47 2.02-2.78.32-4.94 2.44-4.94 5.03 0 1.28.54 2.43 1.41 3.33-3.29.18-5.9 2.88-5.9 6.18 0 1.14.32 2.2.86 3.12-.19.35-.32.73-.37 1.14-1.66 1.12-2.75 3-2.75 5.13 0 1.83.81 3.47 2.08 4.61-1.45 1.14-2.39 2.89-2.39 4.86 0 2.3 1.26 4.3 3.14 5.37-.69 1-1.1 2.2-1.1 3.5 0 2.54 1.54 4.72 3.75 5.68-.5.89-.79 1.92-.79 3.02 0 3.1 2.3 5.66 5.31 6.12-.25.67-.39 1.39-.39 2.15 0 3.42 2.8 6.2 6.26 6.2.36 0 .72-.04 1.06-.1-.01.12-.02.23-.02.35 0 3.42 2.8 6.2 6.26 6.2.85 0 1.66-.17 2.4-.47.44 2.61 2.71 4.6 5.47 4.6 1.06 0 2.04-.3 2.89-.81 2.25 4.54 8.12 7.79 15.04 7.79 6.72 0 12.47-3.07 14.85-7.41.66.27 1.39.43 2.15.43 2.76 0 5.03-1.99 5.47-4.6.74.3 1.55.47 2.4.47 3.46 0 6.26-2.78 6.26-6.2 0-.12-.01-.24-.02-.35.35.06.7.1 1.06.1 3.46 0 6.26-2.78 6.26-6.2 0-.76-.14-1.48-.39-2.15 3-.46 5.31-3.02 5.31-6.12 0-1.1-.29-2.12-.79-3.02 2.21-.96 3.75-3.14 3.75-5.68 0-1.3-.41-2.5-1.1-3.5 1.87-1.07 3.13-3.07 3.13-5.37z" fill="#543930"/><defs><path id="a" d="M4 4h120v120H4z"/></defs><clipPath id="b"><use xlink:href="#a"/></clipPath><g clip-path="url(#b)"><linearGradient id="c" x1="64" x2="64" y1="95.946" y2="126.5" gradientUnits="userSpaceOnUse"><stop stop-color="#651FFF" offset="0"/><stop stop-color="#5914F2" offset=".705"/><stop stop-color="#530EEB" offset="1"/></linearGradient><path d="M14.04 126.5v-6.61c0-7.67 5.11-13.74 15.2-18.04 8.89-3.79 21.23-5.89 34.76-5.9h.13c24.76 0 49.83 8.22 49.83 23.94v6.61H14.04z" fill="url(#c)"/><path d="M64.13 97.45c12.86 0 25.3 2.24 34.12 6.14 6.49 2.87 14.22 8.03 14.22 16.3V125H15.54v-5.11c0-15.46 24.34-22.41 48.47-22.44h.12m0-3H64c-25.65.03-51.46 7.55-51.46 25.44V128h102.93v-8.11c-.01-16.87-25.57-25.44-51.34-25.44z" fill="#4A00ED"/></g><g clip-path="url(#b)"><path d="M63.17 107.23c-4 0-7.26-3.22-7.26-7.17v-8.98h16.16v8.98c0 3.96-3.26 7.17-7.26 7.17h-1.64z" fill="#E49800"/><path d="M71.08 92.08v7.98c0 3.4-2.81 6.17-6.26 6.17h-1.65c-3.45 0-6.26-2.77-6.26-6.17v-7.98h14.17m2-2H54.92v9.98c0 4.51 3.7 8.17 8.26 8.17h1.65c4.56 0 8.26-3.66 8.26-8.17v-9.98h-.01z" fill="#C78500"/></g><g clip-path="url(#b)"><linearGradient id="d" x1="63.818" x2="63.818" y1="92.592" y2="17.514" gradientUnits="userSpaceOnUse"><stop stop-color="#FFB300" offset="0"/><stop stop-color="#FFB809" offset=".102"/><stop stop-color="#FFC21A" offset=".371"/><stop stop-color="#FFC825" offset=".659"/><stop stop-color="#FFCA28" offset="1"/></linearGradient><path d="M63.82 93.14c-2.3 0-4.91-.5-7.56-1.43-11.34-4.01-24.57-16.34-24.57-37.89 0-12.4 3.3-22 9.82-28.53 5.62-5.63 13.33-8.6 22.31-8.6s16.69 2.97 22.31 8.6c6.52 6.53 9.82 16.13 9.82 28.53 0 21.58-13.26 33.9-24.61 37.9-2.64.93-5.24 1.42-7.52 1.42z" fill="url(#d)"/><path d="M63.82 17.69c11 0 17.82 4.52 21.6 8.31 6.32 6.34 9.53 15.7 9.53 27.83 0 21.06-12.9 33.07-23.94 36.96-2.53.89-5.01 1.36-7.19 1.36-2.19 0-4.69-.48-7.23-1.38-11.03-3.9-23.9-15.92-23.9-36.94 0-12.13 3.21-21.49 9.53-27.83 6.85-6.87 15.53-8.31 21.6-8.31m0-2c-17.2 0-33.13 11.01-33.13 38.14 0 21.79 13.49 34.67 25.23 38.83 2.8.99 5.5 1.49 7.9 1.49 2.38 0 5.07-.49 7.85-1.47 11.76-4.14 25.28-17.03 25.28-38.84 0-27.14-15.93-38.15-33.13-38.15z" fill="#EDA600"/></g><g clip-path="url(#b)" fill="#404040"><ellipse cx="47.72" cy="58.87" rx="4.87" ry="5.04"/><ellipse cx="80.58" cy="58.87" rx="4.87" ry="5.04"/></g><path d="M67.96 68.05c-.1-.04-.21-.07-.32-.08h-6.99c-.11.01-.21.04-.32.08-.63.26-.98.91-.68 1.61s1.69 2.66 4.49 2.66 4.19-1.96 4.49-2.66c.31-.69-.04-1.35-.67-1.61z" clip-path="url(#b)" fill="#E59600"/><g clip-path="url(#b)"><path d="M55.78 49.82c-.93-1.23-3.07-3.01-7.23-3.01s-6.31 1.79-7.23 3.01c-.41.54-.31 1.17-.02 1.55.26.35 1.04.68 1.9.39s2.54-1.16 5.35-1.18c2.81.02 4.49.89 5.35 1.18s1.64-.03 1.9-.39c.29-.38.39-1.01-.02-1.55z" fill="#6D4C41"/></g><g clip-path="url(#b)"><path d="M87.92 49.82c-.93-1.23-3.07-3.01-7.23-3.01s-6.31 1.79-7.23 3.01c-.41.54-.31 1.17-.02 1.55.26.35 1.04.68 1.9.39s2.54-1.16 5.35-1.18c2.81.02 4.49.89 5.35 1.18s1.64-.03 1.9-.39c.28-.38.39-1.01-.02-1.55z" fill="#6D4C41"/></g><path d="M72.05 76.14c-3.15 1.87-13.46 1.87-16.61 0-1.81-1.07-3.65.57-2.9 2.21.74 1.61 6.37 5.36 11.23 5.36 4.87 0 10.42-3.75 11.16-5.36.75-1.64-1.07-3.29-2.88-2.21z" clip-path="url(#b)" fill="#795548"/><radialGradient id="e" cx="64.587" cy="12.382" r="44.825" gradientUnits="userSpaceOnUse"><stop stop-color="#6D4C41" offset="0"/><stop stop-color="#543930" offset="1"/></radialGradient><path d="M107.51 48.43c.68-.66 1.07-1.56 1.02-2.53-.03-.56-.21-1.07-.5-1.52.92-.68 1.49-1.72 1.43-2.87-.07-1.26-.88-2.33-2.02-2.89.48-.61.76-1.36.72-2.18-.06-1.18-.78-2.2-1.81-2.78.58-.8.92-1.76.92-2.78 0-1.42-.64-2.71-1.68-3.64.35-.66.56-1.4.56-2.18 0-2.57-2.11-4.68-4.84-5.05.04-.25.09-.51.09-.78 0-2.83-2.53-5.12-5.66-5.12-.09 0-.18.02-.27.02.02-.16.05-.31.05-.47 0-2.83-2.53-5.12-5.66-5.12-1.01 0-1.95.26-2.78.68-.22-2.64-2.64-4.73-5.62-4.73-1.5 0-2.85.54-3.86 1.4-.91-1.72-2.84-2.92-5.09-2.92-1.8 0-3.38.77-4.42 1.95-.99-1.47-2.77-2.46-4.81-2.46-1.74 0-3.28.73-4.32 1.85-1-.83-2.33-1.34-3.79-1.34-2.05 0-3.84 1-4.83 2.48-.93-.6-2.06-.96-3.28-.96-2.75 0-5.03 1.77-5.55 4.12-.77-.36-1.64-.58-2.56-.58-3.12 0-5.66 2.29-5.66 5.12 0 .11.03.2.03.31-.22-.02-.45-.06-.68-.06-3.12 0-5.66 2.29-5.66 5.12 0 .72.17 1.41.47 2.03-2.78.32-4.94 2.45-4.94 5.05 0 1.33.58 2.54 1.5 3.45-2.21.33-3.91 2.05-3.91 4.15 0 1.23.59 2.33 1.52 3.1-1.81.37-3.17 1.82-3.17 3.57 0 1.16.6 2.17 1.53 2.85-1.37.53-2.34 1.76-2.34 3.2 0 1.55 1.13 2.85 2.68 3.3-.91.98-1.46 2.25-1.46 3.63 0 2.88 11.62 5.46 11.62 5.46.35-1.63 1.48-7.57 1.88-9.12 2.23-.37 3.93-2.13 3.93-4.26 0-.79-.25-1.53-.66-2.17.54.19 1.13.31 1.74.31 1.56 0 2.92-.68 3.79-1.72a7.818 7.818 0 0 0 4.78 1.63c2.74 0 5.15-1.4 6.56-3.52.98.55 2.11.87 3.32.87 3.03 0 5.6-1.97 6.5-4.7a6.83 6.83 0 0 0 5.25 2.45c.89 0 1.73-.18 2.51-.49 1.62 2.42 3.25 4.51 7.49 4.01s4.49-2.46 5.37-2.75c1.25 4.75 7.75 5.25 10.5 3.67-.41.64 9.22 18.77 10.72 16.39.29.05.58.07.88.06 2.12-.09 3.76-1.73 3.66-3.65-.04-.81-.4-1.53-.95-2.1.63-.65 1-1.52.95-2.45-.03-.92-.49-1.74-1.19-2.34z" fill="url(#e)"/><path d="M85.8 91.4c.09-.26.26-.48.47-.65-.22.17-.38.39-.47.65zm-43.06-.02zm46.86-.49c2.63 0 4.76-2.11 4.76-4.7 0 2.59-2.13 4.7-4.76 4.7zM89.58 90.89c-.62 0-1.23-.12-1.8-.36.57.23 1.17.36 1.8.36zm-49.38-.17a3.229 3.229 0 0 1 0 0zm-6.01-4.8c.03-.46-.16-.9-.5-1.2a1.486 1.486 0 0 0-1.25-.36c-.12.02-.24.04-.35.05.11-.01.23-.03.35-.05a1.536 1.536 0 0 1 1.25.36c.35.3.53.74.5 1.2 0 0-.01.25-.01.29l.01-.29zM94.35 85.91c-.03-.45.16-.88.5-1.19a1.486 1.486 0 0 1 1.25-.36c.29.05.55.07.8.07-.25 0-.51-.03-.8-.07a1.486 1.486 0 0 0-1.25.36c-.35.3-.53.74-.5 1.19zm2.56-1.48c2.63 0 4.76-2.11 4.76-4.7 0 2.59-2.14 4.7-4.76 4.7zm-65.28 0c-2.63 0-4.76-2.11-4.76-4.7 0 2.59 2.14 4.7 4.76 4.7zM101.67 79.73c0-.54-.1-1.09-.3-1.62-.16-.43-.12-.89.11-1.29.19-.33.49-.56.85-.67-.35.11-.66.35-.85.67-.23.39-.27.86-.11 1.28.2.54.3 1.09.3 1.63zm-74.5-1.62c.13-.36.12-.75-.02-1.1.15.35.16.74.02 1.1-.01.03-.02.06-.03.08.01-.02.02-.05.03-.08zm-.28-1.52zm75.82-.51c2.22-.42 3.87-2.37 3.87-4.61 0 2.27-1.62 4.19-3.87 4.61zm-76.89-.01c-2.25-.42-3.86-2.33-3.86-4.61 0 2.24 1.65 4.19 3.86 4.61zm-3.86-4.6c0-.81.2-1.58.6-2.28a1.508 1.508 0 0 1 0 0c-.4.7-.6 1.47-.6 2.28zm84.25-1.83c-.07-.15-.14-.31-.23-.45.08.14.16.29.23.45zm-85.18-3.02A4.658 4.658 0 0 1 19 62.81c.01 1.53.79 2.95 2.03 3.81zm88.51-3.85c0-.95-.29-1.86-.83-2.65-.04-.06-.08-.13-.11-.19.03.07.07.13.11.19.54.79.83 1.7.83 2.65zm-90.54 0c0-.95.29-1.86.83-2.65.06-.08.11-.17.15-.26-.04.09-.09.18-.14.26-.55.79-.84 1.7-.84 2.65zM109.61 50.08zm-90.68-.01c.13-.14.23-.3.3-.47-.06.17-.17.33-.3.47zm.38-1.36zm89.93-.02zM17.26 44.41a4.71 4.71 0 0 0 0 0zm2.12-3.89zM108.87 40.35c-.1-.06-.21-.11-.31-.16-.41-.19-.7-.55-.81-.98.11.43.41.79.81.98.11.05.21.11.31.16zm-88.85-.98c-.01.04-.02.13-.03.15 0-.01.02-.1.03-.15zm87.7-.31c-.06-.41.04-.82.3-1.15-.25.33-.36.75-.3 1.15zm-87.5-.21c0 .01-.02.03-.02.04 0-.01.01-.03.02-.04zM19.52 34.98c.03-2.22 1.64-4.09 3.79-4.53-2.15.44-3.75 2.31-3.79 4.53zm87.99-3.36a4.977 4.977 0 0 1 0 0zm-1.98-2.08c-.2-.47-.51-.9-.91-1.26-.52-.46-.65-1.21-.33-1.82.04-.07.07-.14.1-.21-.03.07-.07.14-.1.21-.32.61-.19 1.36.33 1.82.4.36.71.79.91 1.26zm-80.2-.13l.03-.09-.03.09c-.02.04-.03.08-.05.12.01-.04.03-.08.05-.12zm-1.09-2.74zM24.02 25.5c.02-1.77 1.57-3.27 3.62-3.5.04 0 .04 0 0 0-2.05.23-3.6 1.73-3.62 3.5zm77.92-3.87c-.26-.08-.53-.14-.8-.18-.05-.01-.05-.01 0 0 .28.03.55.09.8.18zm-73.1-.54c.17-.39.16-.84-.03-1.24-.05-.11-.1-.22-.14-.33.04.11.09.22.14.33.19.4.2.85.03 1.24zm71.29-.24c-.06-.09-.12-.18-.16-.28.04.1.09.19.16.28.02.03.04.06.07.08-.03-.02-.05-.05-.07-.08zm-.29-.71c-.02-.14-.01-.29.01-.43 0-.02.01-.04.01-.05 0 .02-.01.04-.01.05-.02.14-.02.29-.01.43zm.04-.56c.02-.12.03-.21.04-.31v-.02c-.01.11-.02.22-.04.33zM99.71 18.07c-.53-1.38-2.03-2.42-3.79-2.48h-.19c.02 0 .06-.01.06-.01 1.82.01 3.38 1.05 3.92 2.49zm-5.31-2.93l.11.11a.573.573 0 0 1-.11-.11zm-61.02-.19zm-.69-.06c.1 0 .19.02.28.03l.17.02c.01-.01-.44-.05-.45-.05zm1.82-.51zm59.51-.62c.01-.1.02-.19.01-.29v.17s-.02.11-.02.13l.01-.01zm.01-.38zm-59.23-.3c0-1.92 1.85-3.53 4.14-3.54-2.17.01-3.98 1.48-4.13 3.36-.01.1-.01.19 0 .29 0-.04-.01-.07-.01-.11zm52.06-2.37a1.43 1.43 0 0 1-.49-.17c-.41-.23-.69-.63-.75-1.09.07.46.35.86.75 1.09.16.08.33.14.49.17zm.74-.07c.07-.02.13-.05.19-.08.67-.34 1.38-.52 2.09-.52-.72 0-1.42.17-2.09.52-.06.03-.13.06-.19.08zm-46.08-.52c-.22 0-.43-.05-.63-.14-.38-.17-.76-.3-1.15-.37.39.07.77.19 1.15.37.2.09.42.14.63.14.01 0 .01 0 0 0zM42.31 9.89c.34-.21.59-.55.67-.95.08-.35.22-.69.4-1-.19.31-.32.64-.4 1-.08.4-.32.74-.67.95zm43.29-.66c-.23-1.81-2-3.22-4.11-3.22 2.11.01 3.89 1.41 4.11 3.22zM77.58 7.41c-.08 0-.16-.01-.24-.03a1.47 1.47 0 0 1-1.04-.77c-.68-1.28-2.16-2.11-3.76-2.11 1.6 0 3.08.83 3.76 2.11.21.4.6.68 1.04.77l.24.03zm.52-.08c.18-.06.35-.15.5-.28.27-.23.57-.42.89-.58-.32.16-.62.35-.9.58-.14.13-.31.22-.49.28zM68.51 6.4c.28-.08.53-.23.73-.45.21-.24.44-.44.69-.63-.25.18-.49.39-.69.63-.19.21-.45.37-.73.45zm-16.79-.25c.78-1.03 2.06-1.65 3.47-1.65-1.39 0-2.7.63-3.47 1.65zM58.94 5.84c-.24-.01-.58-.07-.91-.34-.79-.64-1.8-1-2.84-1 1.05 0 2.06.35 2.84 1 .27.22.59.33.91.34zm.09 0c.39-.01.77-.17 1.05-.48.43-.46.96-.82 1.56-1.05-.59.23-1.13.59-1.55 1.05-.29.3-.66.47-1.06.48zm7.73-.2C65.99 4.62 64.69 4 63.3 4c1.41 0 2.69.61 3.46 1.64z"/><path d="M63.3 2.5c-1.74 0-3.28.72-4.32 1.84A6.004 6.004 0 0 0 55.19 3c-2.06 0-3.84 1-4.83 2.47-.93-.6-2.06-.96-3.29-.96-2.75 0-5.04 1.77-5.55 4.1-.77-.36-1.64-.58-2.56-.58-3.13 0-5.66 2.28-5.66 5.1 0 .1.03.2.03.31-.22-.02-.45-.06-.68-.06-3.13 0-5.66 2.28-5.66 5.1 0 .72.17 1.4.47 2.02-2.78.32-4.94 2.44-4.94 5.03 0 1.28.54 2.43 1.41 3.33-3.29.18-5.9 2.88-5.9 6.18 0 1.14.32 2.2.86 3.12-.19.35-.32.73-.37 1.14-1.66 1.12-2.75 3-2.75 5.13 0 1.83.81 3.47 2.08 4.61-1.45 1.14-2.39 2.89-2.39 4.86 0 2.3 1.26 4.3 3.14 5.37-.69 1-1.1 2.2-1.1 3.5 0 2.54 1.54 4.72 3.75 5.68-.5.89-.79 1.92-.79 3.02 0 3.1 2.3 5.66 5.31 6.12-.25.67-.39 1.39-.39 2.15 0 3.42 2.8 6.2 6.26 6.2.36 0 .72-.04 1.06-.1-.01.12-.02.23-.02.35 0 3.42 2.8 6.2 6.26 6.2.85 0 1.66-.17 2.4-.47.32 1.92 1.64 3.5 3.41 4.2.24-.07 4.9-.59 5.65-.64.53-.37 1.05-.74 1.6-1.08-.02-.13-.03-.26-.03-.39v-.23a3.07 3.07 0 0 0-1.43-.94c-.28-.08-.56-.12-.84-.12-.54 0-1.08.15-1.55.43-.41.25-.86.37-1.34.37-1.25 0-2.31-.88-2.51-2.1-.15-.9-.7-1.68-1.5-2.12a3 3 0 0 0-1.46-.38c-.39 0-.77.07-1.14.22-.4.16-.82.25-1.26.25-1.8 0-3.26-1.44-3.26-3.17v-.08l.01-.13c.05-.91-.31-1.8-.99-2.41-.55-.5-1.27-.76-2-.76-.17 0-.33.01-.5.04-.21.04-.4.05-.56.05-1.8 0-3.26-1.44-3.26-3.2 0-.37.07-.73.2-1.1.32-.85.23-1.79-.22-2.57a3.014 3.014 0 0 0-2.14-1.45c-1.57-.24-2.76-1.59-2.76-3.15 0-.55.14-1.07.41-1.54.42-.74.5-1.62.23-2.43s-.87-1.46-1.65-1.8a3.205 3.205 0 0 1-1.95-2.93c0-.64.19-1.26.56-1.79.48-.69.65-1.55.46-2.37s-.71-1.52-1.44-1.94c-1.02-.58-1.63-1.62-1.63-2.76 0-.98.45-1.89 1.24-2.5a3.014 3.014 0 0 0 .15-4.61c-.69-.62-1.08-1.46-1.08-2.37 0-1.05.53-2.04 1.42-2.64.71-.48 1.18-1.24 1.3-2.08 0-.02.01-.06.04-.12.5-.92.48-2.04-.06-2.95-.29-.49-.44-1.03-.44-1.59 0-1.69 1.35-3.09 3.07-3.19 1.17-.07 2.2-.81 2.63-1.9s.18-2.34-.64-3.18c-.26-.27-.57-.7-.57-1.24 0-1.02.98-1.9 2.29-2.05.96-.11 1.82-.68 2.28-1.53a3 3 0 0 0 .08-2.75c-.11-.24-.17-.48-.17-.72 0-1.14 1.22-2.1 2.63-2.1.06 0 .11.01.17.02l.22.03c.11.01.22.02.32.02.77 0 1.51-.3 2.08-.83.64-.61.98-1.48.92-2.36-.01-.08-.01-.15-.02-.23.09-1.08 1.27-1.97 2.66-1.97.43 0 .87.1 1.31.3.4.18.83.28 1.26.28.46 0 .92-.1 1.34-.31.81-.4 1.4-1.16 1.6-2.04.22-1 1.34-1.75 2.62-1.75.6 0 1.17.17 1.66.48.5.32 1.07.48 1.62.48.97 0 1.91-.47 2.49-1.33.45-.73 1.35-1.17 2.32-1.17.7 0 1.37.23 1.89.66.56.45 1.23.68 1.9.68.81 0 1.61-.32 2.2-.96.52-.56 1.3-.88 2.13-.88.96 0 1.86.44 2.33 1.14.52.76 1.36 1.25 2.29 1.3.06 0 .13.01.19.01.86 0 1.68-.37 2.25-1.02.52-.59 1.31-.93 2.16-.93 1.06 0 2.02.52 2.44 1.31.43.8 1.19 1.36 2.08 1.53a3.033 3.033 0 0 0 2.5-.66c.52-.44 1.2-.68 1.93-.68 1.38 0 2.54.86 2.63 1.96a2.997 2.997 0 0 0 2.99 2.75c.47 0 .94-.11 1.37-.33.46-.23.93-.35 1.41-.35 1.4 0 2.59.9 2.66 2l-.03.26c-.09.87.2 1.73.8 2.36.57.6 1.36.94 2.18.94h.13c.08 0 .17-.01.25-.02 1.39.05 2.55.99 2.55 2.07-.01.1-.03.19-.04.29-.14.8.06 1.63.54 2.28a2.94 2.94 0 0 0 2.02 1.19c1.27.17 2.23 1.05 2.23 2.05 0 .25-.07.5-.21.78-.64 1.22-.37 2.72.66 3.64.3.27.51.6.61.95.23.81.78 1.48 1.53 1.86a3.17 3.17 0 0 1 1.76 2.84c0 .89-.37 1.55-.68 1.94-.56.72-.77 1.65-.56 2.54s.81 1.63 1.64 2.02c1.14.54 1.86 1.64 1.86 2.88 0 .91-.38 1.75-1.08 2.37a3.01 3.01 0 0 0 .15 4.61c.78.61 1.23 1.53 1.23 2.5 0 1.15-.61 2.18-1.63 2.76-.73.42-1.25 1.12-1.44 1.94s-.02 1.68.46 2.37c.37.53.56 1.15.56 1.79 0 1.26-.76 2.41-1.95 2.93-.78.34-1.38.99-1.65 1.8s-.19 1.69.23 2.43c.27.48.41 1 .41 1.54 0 1.56-1.19 2.91-2.76 3.15-.89.14-1.68.67-2.14 1.45s-.54 1.72-.22 2.57c.14.36.2.73.2 1.1 0 1.76-1.46 3.2-3.26 3.2-.16 0-.35-.02-.56-.05a3.021 3.021 0 0 0-2.5.72c-.68.61-1.05 1.5-.99 2.41l.01.13v.05c0 1.76-1.46 3.2-3.26 3.2-.43 0-.86-.08-1.26-.25a3.028 3.028 0 0 0-2.6.16c-.8.44-1.35 1.22-1.5 2.12-.2 1.22-1.26 2.1-2.51 2.1-.35 0-.68-.07-1-.2a2.88 2.88 0 0 0-1.15-.23c-.76 0-1.49.3-2.05.83.44.46.84.95 1.22 1.45.12.03 4.1.83 4.53.91 2.02-.59 3.56-2.27 3.92-4.36.74.3 1.55.47 2.4.47 3.46 0 6.26-2.78 6.26-6.2 0-.12-.01-.24-.02-.35.35.06.7.1 1.06.1 3.46 0 6.26-2.78 6.26-6.2 0-.76-.14-1.48-.39-2.15 3-.46 5.31-3.02 5.31-6.12 0-1.1-.29-2.12-.79-3.02 2.21-.96 3.75-3.14 3.75-5.68 0-1.3-.41-2.5-1.1-3.5 1.87-1.07 3.14-3.07 3.14-5.37 0-1.97-.93-3.73-2.39-4.86a6.133 6.133 0 0 0 2.08-4.61c0-2.47-1.46-4.6-3.58-5.59a6.137 6.137 0 0 0 1.32-3.79c0-2.4-1.38-4.48-3.4-5.51-.26-.92-.78-1.73-1.5-2.38.35-.66.56-1.39.56-2.18 0-2.56-2.11-4.66-4.84-5.02.04-.25.09-.51.09-.77 0-2.82-2.53-5.1-5.66-5.1-.09 0-.18.02-.27.02.02-.16.05-.31.05-.47 0-2.82-2.53-5.1-5.66-5.1-1.01 0-1.95.26-2.78.68-.22-2.63-2.64-4.71-5.62-4.71-1.5 0-2.85.53-3.87 1.39C76.71 4.19 74.78 3 72.53 3c-1.8 0-3.38.77-4.42 1.95-.99-1.46-2.76-2.45-4.81-2.45z" fill="#3F2720"/></svg>