<svg viewBox="0 0 128 128" width="128" height="128" xmlns="http://www.w3.org/2000/svg" xmlns:xlink="http://www.w3.org/1999/xlink"><g fill="#EF5350"><path d="M110.97 59.11s0-.02-.01-.04c.01.02.04.06.04.06s2.39 14.39 2.39 17.32c0 17.6-23.26 24.66-48.67 24.67V45.79c19.26.12 30.09 4.58 37.26 8.29 3.37 1.73 8.99 5.03 8.99 5.03zM17.03 59.11s0-.02.01-.04c-.01.02-.04.06-.04.06s-2.4 14.39-2.4 17.31c0 17.6 23.26 24.66 48.67 24.67V45.79c-19.26.12-30.09 4.58-37.26 8.29-3.36 1.73-8.98 5.03-8.98 5.03z"/></g><linearGradient id="a" x1="85.115" x2="85.115" y1="44.562" y2="97.293" gradientUnits="userSpaceOnUse"><stop stop-color="#B71C1C" offset=".255"/><stop stop-color="#D32F2F" offset="1"/></linearGradient><path d="M100.29 48.3c2.62 2.85 4.38 6.32 5.08 10.06 1.13 5.96 2.77 14.97 2.77 16.78 0 8.92-6.19 15.33-15.69 19.37-14.29 6.08-30.37-4.13-30.37-19.12V61.88c0-19.12 24.66-28.2 37.9-13.91.11.11.22.22.31.33z" fill="url(#a)"/><linearGradient id="b" x1="43.197" x2="43.197" y1="44.562" y2="97.293" gradientUnits="userSpaceOnUse"><stop stop-color="#B71C1C" offset=".255"/><stop stop-color="#D32F2F" offset="1"/></linearGradient><path d="M28.02 48.3c-2.62 2.85-4.38 6.32-5.08 10.06-1.13 5.96-2.77 14.97-2.77 16.78 0 8.92 6.19 15.33 15.69 19.37 14.29 6.08 30.37-4.13 30.37-19.12V61.88c0-19.12-24.66-28.2-37.9-13.91-.11.11-.21.22-.31.33z" fill="url(#b)"/><radialGradient id="c" cx="64.226" cy="31.504" r="34.136" gradientUnits="userSpaceOnUse"><stop stop-color="#444140" offset="0"/><stop stop-color="#232020" offset="1"/></radialGradient><path d="M48.03 120.05c-.07 0-7.13-.07-10.33-3.53-7.52-8.15-9.96-19.13-7.47-33.59 2.12-12.3 7.08-41.08 33.77-42.15 26.69 1.07 31.65 29.86 33.77 42.15 2.49 14.46.05 25.44-7.47 33.59-2.66 2.89-8.36 3.53-10.33 3.53L64 120.03l-15.97.02z" fill="url(#c)"/><path d="M64 42.28c10.75.45 18.7 5.42 24.29 15.19 5.11 8.94 6.99 19.85 8 25.71 2.44 14.16.19 24.43-7.09 32.32-2.28 2.47-7.44 3.04-9.22 3.05L64 118.53l-15.96.02c-1.8-.01-6.96-.58-9.24-3.05-7.28-7.89-9.53-18.16-7.09-32.32 1.01-5.86 2.89-16.77 8-25.71C45.3 47.7 53.25 42.73 64 42.28m0-3c-27.2 1.05-32.77 29.03-35.25 43.4-2.38 13.83-.64 25.66 7.85 34.86 3.69 4 11.43 4.01 11.43 4.01l15.97-.02 15.97.02s7.74-.01 11.43-4.01c8.49-9.2 10.23-21.03 7.85-34.86C96.77 68.31 91.2 40.33 64 39.28z" fill="#1F1D1B"/><defs><path id="d" d="M18 17.82h92V124H18z"/></defs><clipPath id="e"><use xlink:href="#d"/></clipPath><g clip-path="url(#e)"><radialGradient id="f" cx="64" cy="44.915" r="38.477" gradientUnits="userSpaceOnUse"><stop stop-color="#444140" offset="0"/><stop stop-color="#232020" offset="1"/></radialGradient><path d="M64 81.88c-23.14 0-39.94-14.29-39.94-33.98C24.06 26.62 42.73 7.96 64 7.96c21.28 0 39.94 18.66 39.94 39.94 0 19.68-16.8 33.98-39.94 33.98z" fill="url(#f)"/><path d="M64 9.46c10.07 0 19.72 4.21 27.15 11.85 7.17 7.37 11.29 17.06 11.29 26.59 0 9.31-3.82 17.4-11.05 23.4-7.07 5.86-16.79 9.09-27.39 9.09-10.59 0-20.32-3.23-27.39-9.09-7.23-5.99-11.05-14.08-11.05-23.4 0-9.53 4.11-19.22 11.29-26.59C44.28 13.66 53.93 9.46 64 9.46m0-3c-22.89 0-41.44 20.2-41.44 41.44S41.11 83.37 64 83.37s41.44-14.24 41.44-35.48S86.89 6.46 64 6.46z" fill="#1F1D1B"/></g><defs><path id="g" d="M4 4h120v120H4z"/></defs><clipPath id="h"><use xlink:href="#g"/></clipPath><g clip-path="url(#h)"><linearGradient id="i" x1="64" x2="64" y1="97.446" y2="130.56" gradientUnits="userSpaceOnUse"><stop stop-color="#F44336" offset="0"/><stop stop-color="#E73B32" offset=".359"/><stop stop-color="#C62828" offset="1"/></linearGradient><path d="M13.45 130.56v-9.57c0-17.33 27.23-23.52 50.56-23.54h.14c13.4 0 25.83 2.15 35.03 6.06 7.02 2.98 15.39 8.44 15.39 17.49v9.57H13.45z" fill="url(#i)"/><path d="M64.14 98.89c24.34 0 48.97 7.59 48.97 22.1v8.12H14.89v-8.12c0-7 4.91-12.56 14.58-16.52 8.76-3.58 21.02-5.57 34.53-5.58h.14m0-2.89H64c-25.65.03-52 7.1-52 24.99V132h104v-11.01C116 104.13 89.9 96 64.14 96z" fill="#CC2623"/></g><path d="M63.17 107.23c-4 0-7.26-3.22-7.26-7.17v-8.98h16.16v8.98c0 3.95-3.25 7.17-7.26 7.17h-1.64z" fill="#3C2B24"/><path d="M71.08 92.08v7.98c0 3.4-2.81 6.17-6.26 6.17h-1.65c-3.45 0-6.26-2.77-6.26-6.17v-7.98h14.17m2-2H54.92v9.98c0 4.51 3.7 8.17 8.26 8.17h1.65c4.56 0 8.26-3.66 8.26-8.17v-9.98h-.01z" fill="#291B16"/><defs><path id="j" d="M4 4h120v120H4z"/></defs><clipPath id="k"><use xlink:href="#j"/></clipPath><linearGradient id="l" x1="64" x2="64" y1="84" y2="127.83" gradientUnits="userSpaceOnUse"><stop stop-color="#FFEB3B" offset="0"/><stop stop-color="#FFDD12" offset=".635"/><stop stop-color="#FFD600" offset="1"/></linearGradient><path d="M91.52 115.4H66v-5.06l13.36-6.18c2.95-1.37 5.03-4.24 5.51-7.6l1.69-12.03-15.61 8.87c-4.05 2.42-6.71 6.7-7.22 11.46h-.17c-.51-4.77-3.17-9.05-7.22-11.46l-14.9-9.46 1.18 12.29c.34 3.55 2.47 6.62 5.56 8.05l13.27 6.13v4.98H36.48a2.48 2.48 0 0 0-2.48 2.48v10.06h60v-10.06c0-1.36-1.11-2.47-2.48-2.47z" clip-path="url(#k)" fill="url(#l)"/><path d="M36.03 72.26c-5.36 0-9.71-4.67-9.71-10.41s4.36-10.41 9.71-10.41h54.65c5.36 0 9.71 4.67 9.71 10.41s-4.36 10.41-9.71 10.41H36.03z" fill="#3C2B24"/><path d="M90.68 52.43c4.8 0 8.71 4.22 8.71 9.41s-3.91 9.41-8.71 9.41H36.03c-4.8 0-8.71-4.22-8.71-9.41s3.91-9.41 8.71-9.41h54.65m0-2H36.03c-5.89 0-10.71 5.14-10.71 11.41 0 6.28 4.82 11.41 10.71 11.41h54.65c5.89 0 10.71-5.14 10.71-11.41s-4.82-11.41-10.71-11.41z" fill="#291B16"/><linearGradient id="m" x1="63.66" x2="63.66" y1="95.332" y2="17.102" gradientUnits="userSpaceOnUse"><stop stop-color="#5C4037" offset="0"/><stop stop-color="#63463D" offset=".158"/><stop stop-color="#6D5047" offset=".533"/><stop stop-color="#70534A" offset="1"/></linearGradient><path d="M63.66 95.33c-2.3 0-4.91-.5-7.56-1.43-11.33-4.01-24.57-16.34-24.57-37.88 0-28.72 17.31-38.91 32.13-38.91S95.79 27.3 95.79 56.02c0 21.58-13.26 33.9-24.61 37.9-2.63.92-5.23 1.41-7.52 1.41z" fill="url(#m)"/><path d="M63.66 18.1c8.41 0 16.06 3.25 21.55 9.15 6.27 6.73 9.58 16.68 9.58 28.77 0 21.06-12.9 33.07-23.94 36.96-2.53.89-5.01 1.36-7.19 1.36-2.19 0-4.69-.48-7.23-1.38-11.03-3.9-23.9-15.92-23.9-36.94 0-12.09 3.31-22.03 9.58-28.77 5.49-5.9 13.14-9.15 21.55-9.15m0-2c-17.2 0-33.13 12.79-33.13 39.91 0 21.79 13.49 34.67 25.23 38.83 2.8.99 5.5 1.49 7.9 1.49 2.38 0 5.07-.49 7.85-1.47 11.76-4.14 25.28-17.03 25.28-38.84 0-27.13-15.93-39.92-33.13-39.92z" fill="#4A2F27"/><defs><path id="n" d="M20.1 87.25l8.15-49.78C28.26 20.52 44.03 11 60.98 11h4.93c16.95 0 32.54 9.52 32.54 26.47l9.45 51.18-87.8-1.4z"/></defs><clipPath id="o"><use xlink:href="#n"/></clipPath><g clip-path="url(#o)"><radialGradient id="p" cx="288.91" cy="-108.96" r="34.123" gradientTransform="matrix(.796 0 0 .796 -167.58 88.944)" gradientUnits="userSpaceOnUse"><stop stop-color="#444140" offset="0"/><stop stop-color="#232020" offset="1"/></radialGradient><path d="M99.3 42.04c0-5.25 2.97-34.91-35.86-34.91S25.46 42.71 25.46 42.71s.47 7.46 2.47 14.71 4.09 10.62 4.09 10.62-.1-4.16.32-9.1.31-11.88 6.4-13.25C61.11 40.66 73.76 28.8 73.76 28.8c3.29 7.19 13.58 14.19 17.27 16.86 3.03 2.19 4.53 21.79 4.53 21.79s3.74-5.12 3.74-25.41z" fill="url(#p)"/></g><path d="M67.81 68.05c-.1-.04-.21-.07-.32-.08H60.5c-.11.01-.21.04-.32.08-.63.26-.98.91-.68 1.61s1.69 2.66 4.49 2.66 4.19-1.96 4.49-2.66c.31-.69-.03-1.35-.67-1.61z" fill="#33251F"/><g fill="#1A1717"><ellipse cx="47.75" cy="58.87" rx="4.87" ry="5.04"/><ellipse cx="80.25" cy="58.87" rx="4.87" ry="5.04"/><path d="M54.98 49.82c-.93-1.23-3.07-3.01-7.23-3.01s-6.31 1.79-7.23 3.01c-.41.54-.31 1.17-.02 1.55.26.35 1.04.68 1.9.39s2.54-1.16 5.35-1.18c2.81.02 4.49.89 5.35 1.18s1.64-.03 1.9-.39c.29-.38.39-1.01-.02-1.55zM87.48 49.82c-.93-1.23-3.07-3.01-7.23-3.01s-6.31 1.79-7.23 3.01c-.41.54-.31 1.17-.02 1.55.26.35 1.04.68 1.9.39s2.54-1.16 5.35-1.18c2.81.02 4.49.89 5.35 1.18s1.64-.03 1.9-.39c.29-.38.39-1.01-.02-1.55z"/></g><path d="M72.32 76.14c-3.15 1.87-13.46 1.87-16.61 0-1.81-1.07-3.65.57-2.9 2.21.74 1.61 6.37 5.36 11.23 5.36s10.42-3.75 11.16-5.36c.75-1.64-1.08-3.29-2.88-2.21z" fill="#1A1717"/><defs><path id="r" d="M64.41 8C17.66 8 21.18 55.35 21.18 55.35s12.21-11.01 43.5-11.01 42.09 9.99 42.09 9.99S111.17 8 64.41 8z"/></defs><radialGradient id="q" cx="64" cy="31.675" r="34.638" gradientUnits="userSpaceOnUse"><stop stop-color="#F44336" offset="0"/><stop stop-color="#EB3E33" offset=".299"/><stop stop-color="#D3302C" offset=".784"/><stop stop-color="#C62828" offset=".998"/></radialGradient><use fill="url(#q)" xlink:href="#r"/><clipPath id="s"><use xlink:href="#r"/></clipPath><path d="M47.12 10.35L54.07 8v23.75c-1.41-10.26-3.43-17.69-6.95-21.4zM81.71 10.35L74.76 8v23.75c1.41-10.26 3.43-17.69 6.95-21.4z" clip-path="url(#s)" fill="#C62828"/><path d="M69.62 42.91h-10.6c-2.82 0-5.1-2.28-5.1-5.1V9.1c0-2.82 2.28-5.1 5.1-5.1h10.6c2.82 0 5.1 2.28 5.1 5.1v28.7c0 2.82-2.28 5.11-5.1 5.11z" fill="#E53935"/><path d="M69.62 7c1.11 0 2.02.88 2.08 2 .07 1.4 1.1 2.56 2.48 2.81 13.61 2.39 22.72 10.1 27.08 22.92 1.81 5.33 2.41 10.51 2.57 14.17-6.11-3.18-18.29-7.55-39.15-7.55-21.21 0-34.04 4.94-40.45 8.43.24-3.73.93-8.98 2.82-14.39 4.59-13.12 13.81-21.04 27.42-23.52 1.38-.25 2.4-1.43 2.46-2.83.05-1.15.97-2.04 2.09-2.04h10.6m0-3h-10.6c-2.75 0-4.97 2.18-5.08 4.9-35.73 6.52-32.76 46.45-32.76 46.45s12.21-11.01 43.5-11.01 42.09 9.99 42.09 9.99 3.72-39.2-32.08-45.49A5.079 5.079 0 0 0 69.62 4z" fill="#B21919"/><linearGradient id="t" x1="47.502" x2="80.497" y1="25.219" y2="25.219" gradientUnits="userSpaceOnUse"><stop stop-color="#FFEE58" offset="0"/><stop stop-color="#FEE84F" offset=".366"/><stop stop-color="#FDD937" offset=".961"/><stop stop-color="#FDD835" offset="1"/></linearGradient><path d="M64 41.28c-.08-.05-.16-.08-.25-.11l-.11-.03c-.44-.18-3.17-1.24-5.95-1.57-4.81-.57-8.09-2.33-9.48-5.1-1.2-2.39-.89-5.4.88-8.47 3.2-5.54.91-8.86-.5-10.21l3.1-3.96c.86.21 2.45.51 4.29.51.75 0 1.47-.05 2.16-.15 2.64-.39 4.77-2.04 5.85-3.03 1.08 1 3.21 2.64 5.85 3.03.69.1 1.41.15 2.16.15 1.84 0 3.43-.31 4.29-.51l3.1 3.96c-1.41 1.35-3.7 4.67-.5 10.21 1.77 3.07 2.08 6.07.88 8.47-1.39 2.77-4.67 4.53-9.48 5.1-2.78.33-5.51 1.39-5.95 1.57l-.11.03c-.07.02-.15.06-.23.11z" fill="url(#t)"/><path d="M64 10.48c1.28 1.05 3.29 2.34 5.7 2.7.73.11 1.51.16 2.3.16 1.55 0 2.93-.21 3.89-.4l2.19 2.79c-1.54 1.84-3.16 5.39-.06 10.76 1.6 2.77 1.9 5.44.85 7.52-1.21 2.42-4.3 4.04-8.7 4.56-2.8.33-5.56 1.38-6.15 1.61l-.02.02-.03-.01c-.6-.24-3.35-1.28-6.15-1.61-4.4-.52-7.49-2.14-8.7-4.56-1.04-2.08-.74-4.75.85-7.52 3.1-5.37 1.49-8.92-.06-10.76l2.19-2.79c.96.2 2.35.4 3.89.4.8 0 1.57-.06 2.3-.16 2.42-.36 4.43-1.66 5.71-2.71m.01-2.74s-.01 0 0 0c-.01.01-.02 0-.02 0v.02c-.17.19-2.67 2.96-5.98 3.45-.69.1-1.36.14-2.01.14-2.59 0-4.67-.65-4.67-.65l-4.11 5.25s4.89 2.88 1.03 9.56-1.49 13.78 9.34 15.06c2.87.34 5.74 1.52 5.74 1.52l.16.04v.29l.51-.14.52.15v-.29l.16-.04s2.88-1.19 5.74-1.52c10.83-1.28 13.2-8.38 9.34-15.06s1.03-9.56 1.03-9.56l-4.11-5.25s-2.08.65-4.67.65c-.65 0-1.33-.04-2.01-.14-3.31-.49-5.81-3.26-5.98-3.45l-.01-.03z" fill="#EBC620"/><ellipse cx="64" cy="25.58" rx="12.51" ry="11.83" fill="#6D4C41"/><g fill="#FFEB3B"><path d="M62.81 19.09c-.56-.51-.85-1.27-.75-2-.37.43-.54 1.01-.59 1.44-.21 1.93 2.03 2.54 2.07 2.5.07-.09.21-.33.04-.8-.26-.7.42-1.09.42-1.09s-.26.56-.07.8c.3.38.57.36.7.55.14.2-.02.52-.16.58 1.01-.08 1.81-.95 2.02-1.88s-.06-1.9-.46-2.78c-.06.71-.79 1.3-1.55 1.27.22-.27.57-1.02.35-1.83-.22-.82-1.51-1.26-1.51-1.26s.36.37.38 1.12c0 .75-1.75 1.62-.89 3.38zM69.3 32.68L59.37 23l-1.79 1.27 9.96 9.66c.14.14.38.22.63.22.26 0 .53-.07.74-.22.29-.2.5-.54.53-.83a.496.496 0 0 0-.14-.42z"/><path d="M60.21 21.94c-.14-.1-.42-.12-.58-.14.03-.06.33-.69.75-.81.35-.1.26-.54-.06-.65-.7-.23-2.15-.2-3.37.88-.14.12-1.97 1.79-2.88 2.65-.06.05-.13.09-.23.11-.54.13-.87.64-.74 1.13.13.47.45 1.2 1.16 1.68.68.46 1.91.76 1.94.76.51 0 .95-.22 1.1-.67.09-.27-.12-.43.17-.78 0 0 2.92-2.6 3.21-3s.05-.77-.47-1.16zM58.7 32.68L68.63 23l1.79 1.27-9.96 9.66c-.14.14-.38.22-.63.22-.26 0-.53-.07-.74-.22-.29-.2-.5-.54-.53-.83-.02-.21.06-.34.14-.42z"/><path d="M67.79 21.94c.14-.1.42-.12.58-.14-.03-.06-.33-.69-.75-.81-.35-.1-.26-.54.06-.65.7-.23 2.15-.2 3.37.88.14.12 1.97 1.79 2.88 2.65.06.05.13.09.23.11.54.13.87.64.74 1.13-.13.47-.45 1.2-1.16 1.68-.68.46-1.91.76-1.94.76-.51 0-.95-.22-1.1-.67-.09-.27.12-.43-.17-.78 0 0-2.92-2.6-3.21-3s-.05-.77.47-1.16z"/></g><g fill="#EF5350"><path d="M63.98 38.25c.23 0 .46 0 .69.01 17.35.09 28.22 3.36 35.02 7.29 9.99 5.77 11.19 12.96 11.27 13.52 0 .02.01.04.01.04l-4.58 2.5s-1.04-5.79-4.41-7.53c-7.18-3.71-18.03-8.17-37.31-8.29-.24 0-.47-.01-.71-.01v-7.52c0-.01.01-.01.02-.01z"/><path d="M64.14 38.25c-.23 0-.46 0-.69.01-17.4.09-28.3 3.36-35.11 7.29-10.02 5.77-11.22 12.96-11.3 13.52 0 .02-.01.04-.01.04l4.59 2.5s1.05-5.79 4.42-7.53c7.2-3.71 18.07-8.17 37.41-8.29.24 0 .47-.01.71-.01v-7.52c0-.01-.01-.01-.02-.01z"/></g><defs><filter id="u" x="14.6" y="38.25" width="98.79" height="62.85" filterUnits="userSpaceOnUse"><feColorMatrix values="1 0 0 0 0 0 1 0 0 0 0 0 1 0 0 0 0 0 1 0"/></filter></defs><mask id="v" x="14.6" y="38.25" width="98.79" height="62.85" maskUnits="userSpaceOnUse"><path d="M111.01 59.12s-.03-.04-.04-.06c-.08-.57-1.28-7.75-11.27-13.52-6.8-3.93-17.67-7.2-35.02-7.29h-1.21c-17.4.09-28.3 3.36-35.11 7.29-10.02 5.77-11.22 12.96-11.3 13.52-.01.02-.04.06-.04.06s-2.42 14.4-2.42 17.32c0 7.48 4.2 13.06 10.98 17 .27.15-.66-4.78-.38-4.64 4.32 2.36 59.19 5.93 59.19 5.93l16.25-3.71-.8 3.78s.23-.11.34-.17c8.08-3.98 13.21-9.92 13.21-18.19.01-2.92-2.38-17.32-2.38-17.32z" fill="#DB3E3C" filter="url(#u)"/></mask><g mask="url(#v)"><path d="M64.07 41.25H64.65c14.47.07 25.76 2.39 33.54 6.88 8.8 5.09 9.77 11.09 9.81 11.35.02.17.06.33.11.49.91 5.51 2.29 14.56 2.29 16.47 0 15.97-23.59 21.66-45.67 21.67h-1.46c-22.08 0-45.67-5.7-45.67-21.67 0-1.91 1.38-10.96 2.29-16.48.05-.16.09-.31.11-.48.04-.25 1.01-6.26 9.83-11.35 7.8-4.5 19.12-6.81 33.63-6.89h.56c.03.01.04.01.05.01m.07-3h-.69c-17.4.09-28.3 3.36-35.11 7.29-10.02 5.77-11.22 12.96-11.3 13.52-.01.02-.04.06-.04.06s-2.4 14.4-2.4 17.32c0 17.6 23.26 24.66 48.67 24.67h1.46c25.4-.01 48.67-7.07 48.67-24.67 0-2.92-2.39-17.32-2.39-17.32s-.03-.04-.04-.06c-.08-.57-1.28-7.75-11.27-13.52-6.8-3.93-17.67-7.2-35.02-7.29h-.54z" fill="#DB3B3B"/></g></svg>