<svg viewBox="0 0 128 128" width="128" height="128" xmlns="http://www.w3.org/2000/svg" xmlns:xlink="http://www.w3.org/1999/xlink"><defs><path id="a" d="M4 4h120v120H4z"/></defs><clipPath id="b"><use xlink:href="#a"/></clipPath><g clip-path="url(#b)"><path d="M63.17 111.23c-4 0-7.26-3.22-7.26-7.17V91.08h16.16v12.98c0 3.96-3.26 7.17-7.26 7.17h-1.64z" fill="#E59600"/><path d="M71.08 92.08v11.98c0 3.4-2.81 6.17-6.26 6.17h-1.65c-3.45 0-6.26-2.77-6.26-6.17V92.08h14.17m2-2H54.92v13.98c0 4.51 3.7 8.17 8.26 8.17h1.65c4.56 0 8.26-3.66 8.26-8.17V90.08h-.01z" fill="#D18100"/></g><g clip-path="url(#b)"><linearGradient id="c" x1="64" x2="64" y1="97.5" y2="130.5" gradientUnits="userSpaceOnUse"><stop stop-color="#3B78E7" offset=".003"/><stop stop-color="#386EDA" offset=".223"/><stop stop-color="#3052B8" offset=".629"/><stop stop-color="#283593" offset="1"/></linearGradient><path d="M13.5 130.5v-9.51c0-17.29 27.21-23.46 50.5-23.49h.14c13.39 0 25.82 2.15 35.01 6.05 7 2.98 15.35 8.42 15.35 17.44v9.51h-101z" fill="url(#c)"/><path d="M64.14 99c24.28 0 48.86 7.55 48.86 21.99V129H15v-8.01c0-6.95 4.88-12.47 14.52-16.42C38.26 100.99 50.51 99.02 64 99h.14m0-3H64c-25.65.03-52 7.1-52 24.99V132h104v-11.01C116 104.13 89.9 96 64.14 96z" fill="#2E51B0"/><defs><path id="d" d="M12 120.99V132h104v-11.01C116 104.1 89.81 95.97 64 96c-25.65.03-52 7.1-52 24.99z"/></defs><path d="M97.64 109.25c-2.16 0-4.57-.41-7.18-1.21-6.56-2.02-12.95-2.67-13.93-2.76-.84-.38-1.19-3.82-.79-7.58 14.51.35 26.51 6.75 29.86 8.71-1.02 1.06-3.4 2.84-7.96 2.84z" fill="#283593"/><path d="M76.65 98.73c12.44.53 22.89 5.48 27.2 7.84-1.18.82-3.16 1.68-6.22 1.68-2.06 0-4.37-.39-6.88-1.16-6.05-1.86-11.95-2.58-13.73-2.76-.4-.8-.54-3.13-.37-5.6m-1.8-2.04s-1.19 8.86 1.47 9.58c0 0 6.88.59 13.84 2.73 2.93.9 5.4 1.25 7.47 1.25 7.09 0 9.44-4.12 9.44-4.12s-14.22-9.32-32.22-9.44z" fill="#2E51B0"/><path d="M30.2 109.23c-4.65 0-7.09-1.86-8.13-2.95 3.38-1.94 15.44-8.23 29.94-8.58.39 3.77.05 7.21-.79 7.58-.98.09-7.37.74-13.93 2.76-2.57.79-4.95 1.19-7.09 1.19z" fill="#283593"/><path d="M51.09 98.73c.17 2.44.02 4.8-.37 5.6-1.78.18-7.68.9-13.73 2.76-2.47.76-4.76 1.15-6.8 1.15-3.16 0-5.19-.92-6.39-1.77 4.35-2.33 14.84-7.21 27.29-7.74m1.81-2.04c-18 .12-32.31 9.31-32.31 9.31s2.42 4.23 9.61 4.23c2.05 0 4.5-.35 7.39-1.23 6.96-2.14 13.84-2.73 13.84-2.73 2.66-.73 1.47-9.58 1.47-9.58z" fill="#2E51B0"/><linearGradient id="e" x1="116.38" x2="106.54" y1="119" y2="119" gradientUnits="userSpaceOnUse"><stop stop-color="#666" offset=".004"/><stop stop-color="#606060" offset=".099"/><stop stop-color="#3F3F3F" offset=".68"/><stop stop-color="#333" offset="1"/></linearGradient><path d="M113.88 113.16l-5 .08-2.34 4.29 5.02 6.71s4.74 1.46 4.8-.25c.26-7.37-2.48-10.83-2.48-10.83z" fill="url(#e)"/><path fill="none" stroke="#BDBDBD" stroke-linecap="round" stroke-miterlimit="10" stroke-width="1.5" d="M113.88 113.16l-5 .09-2.59 4.75 6.28 8.82"/><path fill="none" stroke="#BDBDBD" stroke-linecap="round" stroke-miterlimit="10" d="M115.2 116.06l-3.63.14-1.24 1.8 5.76 8.75"/><linearGradient id="f" x1="11.576" x2="21.414" y1="119" y2="119" gradientUnits="userSpaceOnUse"><stop stop-color="#666" offset=".004"/><stop stop-color="#606060" offset=".099"/><stop stop-color="#3F3F3F" offset=".68"/><stop stop-color="#333" offset="1"/></linearGradient><path d="M14.08 113.16l5 .08 2.34 4.29-5.02 6.71s-4.74 1.46-4.8-.25c-.27-7.37 2.48-10.83 2.48-10.83z" fill="url(#f)"/><path fill="none" stroke="#BDBDBD" stroke-linecap="round" stroke-miterlimit="10" stroke-width="1.5" d="M14.08 113.16l5 .09 2.58 4.75-6.28 8.82"/><path fill="none" stroke="#BDBDBD" stroke-linecap="round" stroke-miterlimit="10" d="M12.76 116.06l3.62.14 1.24 1.8-5.75 8.75"/><path fill="#212121" d="M53.41 104.86h19.9l-9.32 17.08z"/><path d="M63.17 111.23c-4 0-7.26-3.22-7.26-7.17V91.08h16.16v12.98c0 3.96-3.26 7.17-7.26 7.17h-1.64z" fill="#E59600"/><path d="M71.08 92.08v11.98c0 3.4-2.81 6.17-6.26 6.17h-1.65c-3.45 0-6.26-2.77-6.26-6.17V92.08h14.17m2-2H54.92v13.98c0 4.51 3.7 8.17 8.26 8.17h1.65c4.56 0 8.26-3.66 8.26-8.17V90.08h-.01z" fill="#D18100"/><path d="M50.62 109.37a1.015 1.015 0 0 0-.93-.2l-8.67 2.61 6.74-13.68 6.45-.75 7.61 21.45-11.2-9.43z" fill="#3674CE"/><path d="M53.53 98.44l6.11 17.22-8.37-7.06c-.37-.31-.82-.47-1.29-.47-.19 0-.39.03-.58.08l-6.47 1.95 5.49-11.13 5.11-.59m1.35-2.17l-7.78.91-8 16.23 10.88-3.27 14.01 11.81-9.11-25.68z" fill="#1C3AA9"/><path d="M73.8 97.36l6.45.75 6.73 13.66-7.88-2.42c-.1-.03-.2-.04-.29-.04-.22 0-.44.07-.62.21l-12.08 9.5 7.69-21.66z" fill="#3674CE"/><path d="M74.47 98.44l5.12.6 5.47 11.09-5.67-1.74c-.19-.06-.39-.09-.59-.09-.44 0-.88.15-1.24.43l-9.36 7.36 6.27-17.65m-1.35-2.17l-9.11 25.67L78.8 110.3l10.1 3.1-8-16.23-7.78-.9z" fill="#1C3AA9"/></g><g clip-path="url(#b)"><path d="M45.75 119.71H34.83c-1.2 0-2.17-.97-2.17-2.17s.97-2.17 2.17-2.17h10.92c1.2 0 2.17.97 2.17 2.17s-.97 2.17-2.17 2.17z" fill="#E0E0E0"/><path d="M45.75 116.38c.64 0 1.17.52 1.17 1.17 0 .64-.52 1.17-1.17 1.17H34.83c-.64 0-1.17-.52-1.17-1.17 0-.64.52-1.17 1.17-1.17h10.92m0-1H34.83c-1.2 0-2.17.97-2.17 2.17s.97 2.17 2.17 2.17h10.92c1.2 0 2.17-.97 2.17-2.17s-.97-2.17-2.17-2.17z" fill="#212121" opacity=".2"/></g><path d="M36.67 72.26c-5.36 0-9.71-4.67-9.71-10.41s4.36-10.41 9.71-10.41h54.65c5.36 0 9.71 4.67 9.71 10.41s-4.36 10.41-9.71 10.41H36.67z" fill="#E59600"/><path d="M91.33 52.43c4.8 0 8.71 4.22 8.71 9.41s-3.91 9.41-8.71 9.41H36.67c-4.8 0-8.71-4.22-8.71-9.41s3.91-9.41 8.71-9.41h54.66m0-2H36.67c-5.89 0-10.71 5.14-10.71 11.41 0 6.28 4.82 11.41 10.71 11.41h54.65c5.89 0 10.71-5.14 10.71-11.41.01-6.27-4.81-11.41-10.7-11.41z" fill="#D18100"/><linearGradient id="g" x1="64" x2="64" y1="94.591" y2="12.825" gradientUnits="userSpaceOnUse"><stop stop-color="#FFB300" offset="0"/><stop stop-color="#FFB809" offset=".102"/><stop stop-color="#FFC21A" offset=".371"/><stop stop-color="#FFC825" offset=".659"/><stop stop-color="#FFCA28" offset="1"/></linearGradient><path d="M64 95.27c-15.66 0-32.52-12.14-32.52-38.81 0-12.38 3.56-23.79 10.02-32.13 6.04-7.8 14.25-12.27 22.5-12.27s16.45 4.47 22.5 12.27c6.46 8.33 10.02 19.75 10.02 32.13 0 12.09-3.51 22.19-10.14 29.21-5.86 6.19-13.81 9.6-22.38 9.6z" fill="url(#g)"/><path d="M64 13.07c7.94 0 15.85 4.33 21.71 11.88 6.33 8.16 9.81 19.35 9.81 31.52 0 11.83-3.41 21.7-9.87 28.52-5.67 5.99-13.36 9.29-21.65 9.29s-15.98-3.3-21.65-9.29c-6.46-6.82-9.87-16.69-9.87-28.52 0-12.16 3.49-23.35 9.81-31.52C48.15 17.4 56.06 13.07 64 13.07m0-2c-17.4 0-33.52 18.61-33.52 45.39 0 26.64 16.61 39.81 33.52 39.81S97.52 83.1 97.52 56.46c0-26.78-16.12-45.39-33.52-45.39z" fill="#ED9E00"/><path d="M39.99 50.73s.13-.19.38-.51c.07-.08.12-.16.22-.26.11-.11.23-.22.37-.34s.28-.24.43-.38c.15-.13.31-.23.48-.35.17-.11.34-.24.53-.35.19-.1.4-.21.6-.32.21-.12.43-.21.66-.3s.47-.18.71-.27c.49-.14 1-.29 1.54-.36.53-.1 1.08-.11 1.63-.14.55.03 1.09.03 1.63.14.53.07 1.05.22 1.54.36.24.08.48.17.71.27.23.09.45.18.66.3.21.11.41.22.6.32.19.11.36.24.53.35.17.12.33.22.47.34s.27.24.4.35c.12.11.24.21.34.31s.18.21.26.29c.31.36.46.57.46.57.51.7.35 1.69-.36 2.19-.43.31-.96.37-1.43.21l-.29-.1s-.19-.07-.49-.2c-.08-.03-.15-.07-.25-.11-.1-.03-.19-.07-.3-.11-.21-.08-.44-.17-.7-.25-.13-.04-.26-.09-.4-.13-.14-.03-.28-.07-.43-.11l-.22-.06c-.08-.01-.15-.03-.23-.04-.16-.03-.31-.07-.47-.1-.33-.04-.66-.11-1-.12-.34-.04-.69-.03-1.03-.05-.35.02-.7.01-1.03.05-.34.02-.67.09-1 .12-.16.03-.31.07-.47.1-.08.01-.16.03-.23.04l-.22.06c-.15.04-.29.07-.43.11s-.27.09-.4.13-.25.08-.37.11c-.1.04-.2.07-.29.1l-.27.09c-.1.04-.2.1-.29.14-.36.18-.57.27-.57.27-.83.34-1.77-.05-2.11-.87-.24-.48-.16-1.06.13-1.49z" fill="#6D4C41"/><ellipse cx="47.56" cy="58.81" rx="4.93" ry="5.1" fill="#404040"/><path d="M86.05 53.13s-.22-.09-.57-.27c-.09-.04-.19-.1-.29-.14-.09-.02-.18-.06-.27-.09s-.19-.07-.29-.1c-.12-.04-.24-.07-.37-.11s-.26-.09-.4-.13-.28-.07-.43-.11l-.22-.06c-.08-.01-.15-.03-.23-.04-.16-.03-.31-.07-.47-.1-.33-.04-.66-.11-1-.12-.34-.04-.69-.03-1.03-.05-.35.02-.7.01-1.03.05-.34.02-.67.09-1 .12-.16.03-.31.07-.47.1-.08.01-.16.03-.23.04l-.22.06c-.15.04-.29.08-.43.11-.14.04-.27.09-.4.13-.26.07-.49.16-.7.25-.11.04-.2.08-.3.11-.09.04-.17.08-.25.11-.3.13-.49.2-.49.2l-.28.1c-.82.29-1.72-.15-2-.97-.17-.5-.08-1.03.21-1.44 0 0 .16-.22.46-.57.08-.09.16-.19.26-.29s.22-.2.34-.31.26-.23.4-.35.31-.22.47-.34c.17-.12.34-.24.53-.35.19-.1.4-.21.6-.32.21-.12.43-.21.66-.3s.46-.18.71-.27c.49-.14 1-.29 1.54-.36.53-.1 1.08-.11 1.63-.14.55.03 1.09.03 1.63.14.53.06 1.05.22 1.54.36.24.08.48.17.71.27.23.09.45.18.66.3.21.11.41.22.6.32.19.11.36.24.53.35.17.12.32.22.48.35.15.13.3.26.43.38s.26.23.37.34c.09.1.15.18.22.26.25.31.38.51.38.51.5.74.31 1.74-.43 2.25-.49.28-1.07.32-1.56.12z" fill="#6D4C41"/><ellipse cx="80.44" cy="58.81" rx="4.93" ry="5.1" fill="#404040"/><path d="M67.86 68.06c-.11-.04-.21-.07-.32-.08h-7.07c-.11.01-.22.04-.32.08-.64.26-.99.92-.69 1.63s1.71 2.69 4.55 2.69 4.25-1.99 4.55-2.69c.29-.71-.06-1.37-.7-1.63z" fill="#E59600"/><path d="M72.42 76.14c-3.19 1.89-13.63 1.89-16.81 0-1.83-1.09-3.7.58-2.94 2.24.75 1.63 6.45 5.42 11.37 5.42s10.55-3.79 11.3-5.42c.75-1.66-1.09-3.33-2.92-2.24z" fill="#795548"/><defs><path id="h" d="M64 4.03h-.04c-45.43.24-36.12 52.14-36.12 52.14s5.1 8.99 5.1 8.81c-.03-1.41.46-6.89.46-6.89l-2.68-2.92s3.89-25.44 6.79-24.91c4.45.81 26.54 2 26.57 2 7.83 0 14.92-.36 19.37-1.17 2.9-.53 9.64 1.7 10.68 4.45 1.33 3.54 3.13 19.71 3.13 19.71l-2.68 2.83s.49 5.51.46 6.89c0 .18 5.1-8.81 5.1-8.81S109.44 4.27 64 4.03z"/></defs><radialGradient id="i" cx="64.26" cy="4.274" r="48.85" gradientUnits="userSpaceOnUse"><stop stop-color="#6D4C41" offset="0"/><stop stop-color="#543930" offset="1"/></radialGradient><path d="M64.02 4.03h-.04c-45.43.24-36.13 52.14-36.13 52.14s5.1 8.99 5.1 8.81c-.16-7.25 2.74-20.09 4.8-25.55a6.075 6.075 0 0 1 6.79-3.83c4.46.8 11.55 1.8 19.38 1.8h.16c7.83 0 14.92-1 19.37-1.81 2.9-.53 5.76 1.08 6.79 3.83 2.06 5.47 4.96 18.3 4.8 25.55 0 .18 5.1-8.81 5.1-8.81s9.31-51.89-36.12-52.13z" fill="url(#i)"/><path d="M64.02 4.03h-.04c-45.43.24-36.13 52.14-36.13 52.14s5 8.81 5.1 8.81c-.03-1.48.07-3.2.26-5.03-.12-.29-2.46-4.75-2.48-4.79-.24-1.6-.93-6.98-.55-13.56.41-7.04 2.17-16.96 8.22-24.22 5.67-6.8 14.27-10.28 25.56-10.35H64c11.32.06 19.93 3.54 25.6 10.35 10.81 12.96 8.18 34.33 7.67 37.79-.02.04-2.46 4.58-2.49 4.65.2 1.89.31 3.65.27 5.17.09 0 5.1-8.81 5.1-8.81s9.3-51.91-36.13-52.15z" fill="#3F2720"/><linearGradient id="j" x1="63.967" x2="63.967" y1="25.818" y2="43.693" gradientUnits="userSpaceOnUse"><stop stop-color="#666" offset=".004"/><stop stop-color="#606060" offset=".099"/><stop stop-color="#3F3F3F" offset=".68"/><stop stop-color="#333" offset="1"/></linearGradient><path d="M63.74 44.18c-22.51-.15-33.39-6.6-36.54-8.89 2.22-2.56 10.66-9.57 36.54-9.57 25.68 0 34.55 6.52 37 9.01-3.29 2.45-14.51 9.3-37 9.45z" fill="url(#j)"/><path d="M63.74 27.22c21.68 0 31 4.67 34.57 7.37-1.37.87-3.33 1.96-5.96 3.06-5.39 2.24-14.74 4.94-28.59 5.03-19.39-.13-29.91-4.99-34.2-7.61 3.33-2.82 12.32-7.85 34.18-7.85m0-3c-33.25 0-38.58 11.36-38.58 11.36s10.25 9.91 38.58 10.1c28.33-.19 39.11-10.73 39.11-10.73s-5.86-10.73-39.11-10.73z" fill="#2A2A2B"/><linearGradient id="k" x1="64" x2="64" y1="4.352" y2="34.313" gradientUnits="userSpaceOnUse"><stop stop-color="#3B78E7" offset=".003"/><stop stop-color="#3B77E6" offset=".011"/><stop stop-color="#335BC2" offset=".298"/><stop stop-color="#2D46A8" offset=".568"/><stop stop-color="#293998" offset=".809"/><stop stop-color="#283593" offset="1"/></linearGradient><path d="M23.58 34.5c1.57 6.19 3.07 8.81 3.07 8.81 1.6-2 11.06-11.31 37.29-11.31h.14c26.22 0 35.26 9.36 36.85 11.36 0 0 1.9-2.8 3.47-8.99C108.05 20.05 90.01 4 64.05 4c-25.9 0-44.09 16.2-40.47 30.5z" fill="url(#k)"/><defs><path id="l" d="M23.58 34.5c1.57 6.19 3.07 8.81 3.07 8.81 1.6-2 11.06-11.31 37.29-11.31h.14c26.22 0 35.26 9.36 36.85 11.36 0 0 1.9-2.8 3.47-8.99C108.05 20.05 90.01 4 64.05 4c-25.9 0-44.09 16.2-40.47 30.5z"/></defs><clipPath id="m"><use xlink:href="#l"/></clipPath><path d="M97.06 35.56a4.647 4.647 0 0 0-1.6-2.76c-3.48-2.91-13.85-10.09-31.41-10.09-18.01 0-28.11 7.17-31.47 10.09-.81.7-1.35 1.65-1.53 2.71l-.01.06c-.58 3.3 2.44 6.12 5.68 5.29 6.33-1.62 16.35-3.6 27.33-3.63 10.98.02 20.99 2.01 27.33 3.63 3.24.81 6.26-2 5.68-5.3z" clip-path="url(#m)" fill="#3B78E7"/><path d="M64.06 28.82c-3.14 0-7.15-4.89-7.15-7.22v-3.48c0-.97-.24-1.94-.7-2.81-.19-.36-.15-.78.1-1.11l.31-.4c.05-.06.13-.1.21-.1.09 0 .17.04.22.11.72 1.09 1.77 1.63 3.21 1.63 1.64 0 2.75-1.47 3.35-2.27.1-.14.26-.21.42-.21s.32.08.42.21c.56.74 1.73 2.27 3.41 2.27 1.44 0 2.49-.53 3.21-1.63.04-.07.13-.11.22-.11s.17.04.21.1l.31.4c.25.33.29.75.1 1.11-.46.87-.7 1.84-.7 2.81v3.48c0 2.33-4.01 7.22-7.15 7.22z" fill="#fc0"/><path d="M64.03 13.46l.02.01c.61.8 1.88 2.47 3.81 2.47 1.5 0 2.62-.52 3.43-1.59l.12.16c.13.17.15.38.05.57-.5.94-.76 1.99-.76 3.04v3.48c0 2.11-3.8 6.72-6.65 6.72s-6.65-4.61-6.65-6.72v-3.48c0-1.05-.26-2.1-.76-3.04-.1-.19-.08-.4.05-.57l.12-.16c.81 1.07 1.94 1.59 3.43 1.59 1.89 0 3.1-1.6 3.74-2.47.02 0 .03-.01.05-.01m0-1c-.33 0-.63.16-.82.41-.6.79-1.56 2.07-2.95 2.07-1.43 0-2.24-.57-2.79-1.4a.76.76 0 0 0-.64-.33c-.24 0-.47.11-.61.29l-.31.4c-.37.48-.43 1.12-.15 1.65.42.8.64 1.68.64 2.57v3.48c0 2.54 4.14 7.72 7.65 7.72s7.65-5.19 7.65-7.72v-3.48c0-.89.22-1.77.64-2.57.28-.53.22-1.17-.15-1.65l-.31-.4a.786.786 0 0 0-1.25.04c-.55.84-1.36 1.4-2.79 1.4-1.39 0-2.4-1.28-3.01-2.07a.968.968 0 0 0-.8-.41z" fill="#F9A825"/><path d="M64.05 7.06c17.17 0 28.83 7.13 34.02 13.8 2.31 2.97 4.77 7.61 3.43 12.89-.51 1.99-1.04 3.86-1.53 5.11C95.07 35.15 84.46 30 64.05 30h-.11c-20.3 0-30.99 5.12-36 8.9-.45-1.29-.95-3.05-1.45-5.01-1.33-5.25 1.14-9.94 3.44-12.9 5.22-6.7 16.92-13.93 34.12-13.93m0-3c-25.9 0-44.09 16.13-40.47 30.44 1.57 6.19 3.22 9.53 3.22 9.53C28.39 42.03 37.71 33 63.94 33h.14c26.22 0 35.26 8.86 36.85 10.86 0 0 1.9-3.05 3.47-9.24C108.05 20.3 90.01 4.06 64.05 4.06z" fill="#2E51B0"/></svg>