<svg viewBox="0 0 128 128" width="128" height="128" xmlns="http://www.w3.org/2000/svg" xmlns:xlink="http://www.w3.org/1999/xlink"><defs><path id="a" d="M4.12 3.98h120v120h-120z"/></defs><clipPath id="b"><use xlink:href="#a"/></clipPath><g clip-path="url(#b)"><linearGradient id="c" x1="64.124" x2="64.124" y1="96.164" y2="129.38" gradientUnits="userSpaceOnUse"><stop stop-color="#00BFA5" offset="0"/><stop stop-color="#00B29A" offset=".705"/><stop stop-color="#00AB94" offset="1"/></linearGradient><path d="M14.49 129.38v-9.44c0-7.61 5.08-13.64 15.1-17.92 8.83-3.77 21.09-5.85 34.54-5.86h.13c24.6 0 49.5 8.17 49.5 23.78v9.44H14.49z" fill="url(#c)"/><path d="M64.25 97.66c12.78 0 25.13 2.22 33.89 6.1 6.44 2.85 14.11 7.97 14.11 16.18v7.94H15.99v-7.94c0-15.35 24.18-22.25 48.14-22.28h.12m0-3h-.13c-25.49.03-51.13 7.5-51.13 25.28v10.94h102.27v-10.94c0-16.75-25.4-25.28-51.01-25.28z" fill="#009984"/></g><g clip-path="url(#b)"><path d="M63.3 107.21c-4 0-7.26-3.22-7.26-7.17v-8.98H72.2v8.98c0 3.96-3.25 7.17-7.26 7.17H63.3z" fill="#7A4C32"/><path d="M71.21 92.06v7.98c0 3.4-2.81 6.17-6.26 6.17H63.3c-3.45 0-6.26-2.77-6.26-6.17v-7.98h14.17m2-2H55.05v9.98c0 4.51 3.7 8.17 8.26 8.17h1.65c4.56 0 8.26-3.66 8.26-8.17v-9.98h-.01z" fill="#663B22"/></g><g clip-path="url(#b)"><defs><path id="d" d="M108.12 95.53l-89.64-.25V3.98l89.64.25z"/></defs><clipPath id="e"><use xlink:href="#d"/></clipPath><g clip-path="url(#e)"><path d="M36.8 72.24c-5.36 0-9.71-4.67-9.71-10.41s4.36-10.41 9.71-10.41h54.65c5.36 0 9.71 4.67 9.71 10.41s-4.36 10.41-9.71 10.41H36.8z" fill="#7A4C32"/><path d="M91.45 52.42c4.8 0 8.71 4.22 8.71 9.41s-3.91 9.41-8.71 9.41H36.8c-4.8 0-8.71-4.22-8.71-9.41s3.91-9.41 8.71-9.41h54.65m0-2H36.8c-5.89 0-10.71 5.14-10.71 11.41 0 6.28 4.82 11.41 10.71 11.41h54.65c5.89 0 10.71-5.14 10.71-11.41 0-6.28-4.82-11.41-10.71-11.41z" fill="#663B22"/><linearGradient id="f" x1="64" x2="64" y1="93.576" y2="11.81" gradientUnits="userSpaceOnUse"><stop stop-color="#8D5738" offset="0"/><stop stop-color="#97603D" offset=".216"/><stop stop-color="#A26941" offset=".573"/><stop stop-color="#A56C43" offset="1"/></linearGradient><path d="M64 94.25c-15.66 0-32.52-12.14-32.52-38.81 0-12.38 3.56-23.79 10.02-32.13 6.04-7.79 14.25-12.27 22.5-12.27s16.45 4.47 22.5 12.27c6.46 8.34 10.02 19.75 10.02 32.13 0 12.09-3.51 22.19-10.14 29.21-5.86 6.19-13.81 9.6-22.38 9.6z" fill="url(#f)"/><path d="M64 12.05c7.94 0 15.85 4.33 21.71 11.88 6.33 8.16 9.81 19.35 9.81 31.52 0 11.83-3.41 21.7-9.87 28.52-5.67 5.99-13.36 9.29-21.65 9.29s-15.98-3.3-21.65-9.29c-6.46-6.82-9.87-16.69-9.87-28.52 0-12.16 3.49-23.35 9.81-31.52C48.15 16.38 56.06 12.05 64 12.05m0-2c-17.4 0-33.52 18.61-33.52 45.39 0 26.64 16.61 39.81 33.52 39.81s33.52-13.17 33.52-39.81c0-26.78-16.12-45.39-33.52-45.39z" fill="#875334"/><g fill="#42312C"><ellipse cx="47.49" cy="58.8" rx="4.93" ry="5.1"/><ellipse cx="80.75" cy="58.8" rx="4.93" ry="5.1"/></g><path d="M67.98 68.04c-.11-.04-.21-.07-.32-.08h-7.07c-.11.01-.22.04-.32.08-.64.26-.99.92-.69 1.63s1.71 2.69 4.55 2.69 4.25-1.99 4.55-2.69c.3-.71-.06-1.37-.7-1.63z" fill="#875334"/><path d="M72.34 76.13c-3.19 1.89-13.63 1.89-16.81 0-1.83-1.09-3.7.58-2.94 2.24.75 1.63 6.45 5.42 11.37 5.42S74.5 80 75.25 78.37c.76-1.67-1.09-3.33-2.91-2.24z" fill="#473530"/><path d="M55.11 49.8c-.93-1.23-3.07-3.01-7.23-3.01s-6.31 1.79-7.23 3.01c-.41.54-.31 1.17-.02 1.55.26.35 1.04.68 1.9.39s2.54-1.16 5.35-1.18c2.81.02 4.49.89 5.35 1.18s1.64-.03 1.9-.39c.28-.38.39-1.01-.02-1.55zM87.6 49.8c-.93-1.23-3.07-3.01-7.23-3.01s-6.31 1.79-7.23 3.01c-.41.54-.31 1.17-.02 1.55.26.35 1.04.68 1.9.39s2.54-1.16 5.35-1.18c2.81.02 4.49.89 5.35 1.18s1.64-.03 1.9-.39c.29-.38.39-1.01-.02-1.55z" fill="#42312C"/></g></g><radialGradient id="g" cx="64.898" cy="10.157" r="45.113" gradientUnits="userSpaceOnUse"><stop stop-color="#554138" offset="0"/><stop stop-color="#3C2C23" offset="1"/></radialGradient><path d="M102.54 47.37c.6-.64.96-1.49.91-2.43a3.32 3.32 0 0 0-.44-1.46c.82-.65 1.33-1.64 1.27-2.75-.06-1.21-.78-2.23-1.8-2.77.43-.59.68-1.31.64-2.09a3.322 3.322 0 0 0-1.61-2.67c.51-.77.82-1.68.82-2.67 0-1.36-.57-2.6-1.5-3.49.31-.64.5-1.34.5-2.09 0-2.47-1.88-4.49-4.31-4.84.04-.24.08-.49.08-.74 0-2.71-2.26-4.91-5.04-4.91-.08 0-.16.02-.24.02.01-.15.05-.3.05-.45 0-2.71-2.26-4.91-5.04-4.91-.9 0-1.74.25-2.47.66-.2-2.53-2.35-4.54-5-4.54-1.33 0-2.54.51-3.44 1.34a5.029 5.029 0 0 0-4.53-2.79c-1.6 0-3.01.74-3.93 1.87a5.06 5.06 0 0 0-4.29-2.36c-1.55 0-2.92.7-3.85 1.77-.9-.79-2.07-1.29-3.38-1.29-1.83 0-3.42.96-4.3 2.38-.84-.54-1.84-.89-2.94-.89-2.45 0-4.48 1.7-4.94 3.95-.69-.34-1.46-.56-2.28-.56-2.78 0-5.04 2.2-5.04 4.91 0 .1.02.19.03.29-.2-.02-.4-.06-.6-.06-2.78 0-5.04 2.2-5.04 4.91 0 .69.15 1.35.42 1.95-2.48.31-4.4 2.35-4.4 4.84 0 1.28.51 2.43 1.34 3.31-1.97.31-3.48 1.97-3.48 3.98 0 1.18.53 2.23 1.36 2.97-1.61.35-2.82 1.75-2.82 3.42 0 1.11.54 2.08 1.36 2.73-1.22.51-2.08 1.69-2.08 3.07 0 1.49 1.01 2.73 2.39 3.16-.81.94-1.3 2.15-1.3 3.48 0 2.76 2.12 5.03 4.86 5.37 1.12 1.91 4.75 8.13 4.75 7.98-.08-3.32.53-7.84 1.4-12.25.31-1.57.65-3.11 1.01-4.59 1.99-.35 3.5-2.04 3.5-4.08 0-.76-.23-1.46-.59-2.08.48.18 1 .29 1.55.29 1.98 0 3.63-1.32 4.12-3.11a4.27 4.27 0 0 0 3.76 2.23c2.25 0 4.08-1.7 4.24-3.85h.02c.28 2.03 2.05 3.61 4.21 3.61 1.68 0 3.13-.96 3.82-2.34a4.264 4.264 0 0 0 3.89 2.46c1.65 0 3.06-.92 3.78-2.25a4.261 4.261 0 0 0 3.71 2.13c2.16 0 3.92-1.56 4.21-3.58h.02c.18 2.14 1.99 3.83 4.24 3.83 1.64 0 3.05-.91 3.76-2.23.48 1.78 2.13 3.11 4.12 3.11.75 0 1.44-.2 2.05-.53-.36.61-.59 1.31-.59 2.07 0 1.92 1.34 3.51 3.15 3.99 1.41 5.71 2.61 12.59 2.5 17.18 0 .14 3.16-5.25 4.49-7.54.25.05.52.07.79.06 1.89-.09 3.35-1.65 3.26-3.5-.04-.78-.36-1.47-.84-2.01.56-.63.89-1.45.84-2.35-.08-.9-.49-1.69-1.11-2.27z" fill="url(#g)"/><path fill="#1F1D1B" d="M92.34 17.47h.01-.01"/><path d="M102.54 47.37c.6-.64.96-1.49.91-2.43a3.32 3.32 0 0 0-.44-1.46c.82-.65 1.33-1.64 1.27-2.75-.06-1.21-.78-2.23-1.8-2.77.43-.59.68-1.31.64-2.09a3.322 3.322 0 0 0-1.61-2.67c.51-.77.82-1.68.82-2.67 0-1.36-.57-2.6-1.5-3.48.31-.64.5-1.34.5-2.09 0-2.47-1.88-4.49-4.31-4.84.04-.24.08-.49.08-.74 0-2.71-2.26-4.91-5.04-4.91-.08 0-.16.02-.24.02.01-.15.05-.3.05-.45 0-2.71-2.26-4.91-5.04-4.91-.9 0-1.74.25-2.47.66-.2-2.53-2.35-4.54-5-4.54-1.33 0-2.54.51-3.44 1.34a5.029 5.029 0 0 0-4.53-2.79c-1.6 0-3.01.74-3.93 1.87a5.06 5.06 0 0 0-4.29-2.36c-1.55 0-2.92.7-3.85 1.77-.9-.79-2.07-1.29-3.38-1.29-1.83 0-3.42.96-4.3 2.38-.84-.55-1.84-.9-2.94-.9-2.45 0-4.48 1.7-4.94 3.95-.69-.34-1.46-.56-2.28-.56-2.78 0-5.04 2.2-5.04 4.91 0 .1.02.19.03.29-.2-.02-.4-.06-.6-.06-2.78 0-5.04 2.2-5.04 4.91 0 .69.15 1.35.42 1.95-2.48.31-4.4 2.35-4.4 4.84 0 1.28.51 2.43 1.34 3.31-1.97.31-3.48 1.97-3.48 3.98 0 1.18.53 2.23 1.36 2.97-1.61.35-2.82 1.75-2.82 3.42 0 1.11.54 2.08 1.36 2.73-1.22.51-2.08 1.69-2.08 3.07 0 1.49 1.01 2.73 2.39 3.16-.81.94-1.3 2.15-1.3 3.48 0 2.76 2.12 5.03 4.86 5.37 1.1 1.89 4.67 7.98 4.75 7.98-.04-1.74.11-3.81.39-6.03-1.21-1.7-2.4-4.64-4.77-4.93-1.27-.16-2.22-1.18-2.22-2.39 0-.71.31-1.22.57-1.52.66-.77.89-1.81.61-2.78s-1.03-1.74-1.99-2.04c-.14-.04-.28-.15-.28-.3s.13-.25.24-.3a3.01 3.01 0 0 0 .7-5.14c-.1-.07-.21-.2-.21-.37 0-.26.23-.44.46-.49 1.1-.24 1.98-1.08 2.27-2.17s-.06-2.25-.9-3a.98.98 0 0 1-.35-.73c0-.5.4-.92.95-1.01 1.1-.17 2.01-.94 2.37-1.99s.11-2.22-.66-3.03c-.24-.25-.52-.67-.52-1.25 0-.94.76-1.74 1.77-1.87a3.005 3.005 0 0 0 2.37-4.2c-.1-.24-.16-.48-.16-.73 0-1.04.89-1.89 2-1.91.03 0 .06.01.1.01l.2.03c.12.01.23.02.35.02a3 3 0 0 0 2.06-.82c.65-.61.99-1.48.93-2.36 0-.08-.01-.15-.02-.23.07-1 .95-1.79 2.04-1.79.31 0 .62.08.94.24a3.003 3.003 0 0 0 2.66.02c.84-.41 1.44-1.19 1.62-2.1.18-.9 1.02-1.55 2-1.55.54 0 .96.21 1.21.38.51.35 1.11.54 1.72.54.2 0 .4-.02.6-.06.81-.17 1.51-.66 1.94-1.35.38-.6 1.03-.96 1.75-.96.65 0 1.11.29 1.39.53.55.49 1.26.75 1.99.75.07 0 .14 0 .2-.01.8-.05 1.55-.43 2.07-1.04.23-.27.75-.73 1.57-.73.72 0 1.37.36 1.75.95.51.82 1.39 1.34 2.36 1.4.06 0 .12.01.18.01.9 0 1.75-.4 2.33-1.1.4-.49.98-.77 1.61-.77.95 0 1.57.58 1.84 1.12a2.984 2.984 0 0 0 2.69 1.67c.74 0 1.47-.28 2.02-.79.39-.36.89-.55 1.42-.55 1.05 0 1.93.78 2.01 1.77a3.007 3.007 0 0 0 4.44 2.4c.34-.19.68-.28 1.02-.28 1.09 0 1.99.81 2.04 1.82l-.03.26a2.991 2.991 0 0 0 2.98 3.28h.14c.07 0 .15-.01.22-.02 1.07.06 1.92.89 1.92 1.89-.01.1-.03.19-.04.29-.12.79.07 1.6.55 2.25s1.19 1.07 1.99 1.19c1 .14 1.73.93 1.73 1.87 0 .26-.06.51-.19.78a3 3 0 0 0 .61 3.47c.22.21.58.66.58 1.33 0 .35-.11.69-.31 1-.45.68-.61 1.52-.44 2.31.18.8.67 1.49 1.37 1.92.05.03.17.12.18.25 0 .05-.02.1-.07.17a3.003 3.003 0 0 0 1.03 4.43c.05.02.2.11.2.26.01.11-.08.2-.14.24a2.998 2.998 0 0 0-.74 3.85c.04.06.05.1.05.11 0 .03.01.11-.09.21-.55.58-.85 1.36-.82 2.17.03.8.38 1.56.97 2.11.07.06.11.13.11.2 0 .03.01.1-.08.2a2.997 2.997 0 0 0 0 4c.06.06.09.12.09.17 0 .03.01.11-.08.21-.05.05-.15.14-.32.14 0 0-.04 0-.12-.01-.18-.03-.35-.05-.53-.05-2.77 0-3.51 4.35-4.68 6.3.14 1.54.22 2.98.19 4.24.07 0 3.17-5.29 4.49-7.54.21.04.43.06.65.06h.14c1.89-.09 3.35-1.65 3.26-3.5-.04-.78-.36-1.47-.84-2.01.56-.63.89-1.45.84-2.35-.1-.9-.51-1.69-1.13-2.27z" fill="#291D15"/></svg>