<svg viewBox="0 0 128 128" width="128" height="128" xmlns="http://www.w3.org/2000/svg" xmlns:xlink="http://www.w3.org/1999/xlink"><defs><path id="a" d="M4 4h120v120H4z"/></defs><clipPath id="b"><use xlink:href="#a"/></clipPath><g clip-path="url(#b)"><path d="M49.17 109.53c-4 0-7.26-3.22-7.26-7.17v-8.98h16.16v8.98c0 3.95-3.25 7.17-7.26 7.17h-1.64z" fill="#E59600"/><path d="M57.08 94.37v7.98c0 3.4-2.81 6.17-6.26 6.17h-1.65c-3.45 0-6.26-2.77-6.26-6.17v-7.98h14.17m2-2H40.92v9.98c0 4.51 3.7 8.17 8.26 8.17h1.65c4.56 0 8.26-3.66 8.26-8.17v-9.98h-.01z" fill="#D18100"/></g><g clip-path="url(#b)"><radialGradient id="c" cx="11.502" cy="-130.39" r="57.168" gradientTransform="matrix(.826 0 0 .826 40.697 101.29)" gradientUnits="userSpaceOnUse"><stop stop-color="#554138" offset="0"/><stop stop-color="#3C2C23" offset="1"/></radialGradient><path d="M33.02 119.76s-6.8-.35-10.21-5.09c-7.55-10.48-12.73-39.56-8.33-70.07.06-.34 8.27-37.8 34.91-37.8 13.4 0 23.47 6.04 29.94 17.95 4.67 8.59 5.89 17.54 6.16 20.08l.02.2c3.44 23.15 1.24 56.36-8.33 69.65-3.33 4.62-9.8 5.06-10.25 5.09L50 119.73l-16.98.03z" fill="url(#c)"/><path d="M49.39 8.3c12.8 0 22.44 5.77 28.63 17.16 4.54 8.35 5.73 17.05 5.98 19.52.01.14.03.23.03.26 1.75 11.75 2 25.71.68 38.32-1.42 13.63-4.53 24.36-8.75 30.23-2.84 3.94-8.55 4.43-9.08 4.46l-16.9-.03-16.88.03c-.58-.04-6.25-.54-9.08-4.46-9.26-12.85-11.39-45.75-8.07-68.9.14-.63 2.32-10.03 7.69-19.14C30.47 14.17 39.13 8.3 49.39 8.3m0-3C21.67 5.3 13.09 43.79 13 44.39c-3.5 24.28-1.23 57.51 8.59 71.16 3.9 5.41 11.43 5.71 11.43 5.71l16.98-.03 16.97.03s7.53-.3 11.43-5.71C88.23 101.9 90.5 68.33 87 44.8c-.09-.59-3.17-39.5-37.61-39.5z" fill="#291D15"/></g><g clip-path="url(#b)"><defs><path id="d" d="M4 4h120v120H4z"/></defs><clipPath id="e"><use xlink:href="#d"/></clipPath><g clip-path="url(#e)"><linearGradient id="f" x1="50" x2="50" y1="97.258" y2="136.07" gradientUnits="userSpaceOnUse"><stop stop-color="#303F9F" offset=".003"/><stop stop-color="#273492" offset=".472"/><stop stop-color="#1A237E" offset="1"/></linearGradient><path d="M5.5 136.07v-15.26c0-7.61 4.6-13.6 13.68-17.83C27.1 99.3 38.04 97.26 50 97.25h.12c22.05 0 44.38 8.09 44.38 23.56v15.26h-89z" fill="url(#f)"/><path d="M50.12 98.76c11.32 0 22.3 2.17 30.13 5.95 5.82 2.81 12.75 7.88 12.75 16.11v13.76H7v-13.76c0-6.97 4.31-12.51 12.81-16.46 7.72-3.59 18.44-5.58 30.19-5.59l.12-.01m0-3H50c-22.55.03-46 7.28-46 25.06v16.76h92v-16.76c0-16.76-23.23-25.06-45.88-25.06z" fill="#1B2B8F"/></g><g clip-path="url(#e)"><path d="M49.17 109.53c-4 0-7.26-3.22-7.26-7.17v-8.98h16.16v8.98c0 3.95-3.25 7.17-7.26 7.17h-1.64z" fill="#7A4C32"/><path d="M57.08 94.37v7.98c0 3.4-2.81 6.17-6.26 6.17h-1.65c-3.45 0-6.26-2.77-6.26-6.17v-7.98h14.17m2-2H40.92v9.98c0 4.51 3.7 8.17 8.26 8.17h1.65c4.56 0 8.26-3.66 8.26-8.17v-9.98h-.01z" fill="#663B22"/></g><g clip-path="url(#e)"><path fill="#F5F5F5" d="M39.44 104.56h19.89l-9.32 26.05z"/><linearGradient id="g" x1="37.317" x2="37.317" y1="97.062" y2="125.17" gradientUnits="userSpaceOnUse"><stop stop-color="#5C6BC0" offset="0"/><stop stop-color="#3949AB" offset="1"/></linearGradient><path d="M36.83 109.27a.999.999 0 0 0-1.2-.37l-8.55 3.37L33.8 97.8l6.36-.74 7.39 28.11-10.72-15.9z" fill="url(#g)"/><path d="M39.41 98.16l5.67 21.57-7.43-11.01a2.01 2.01 0 0 0-1.66-.88c-.25 0-.49.05-.73.14l-6.22 2.46 5.42-11.7 4.95-.58m1.5-2.19l-7.78.91-8 17.25 10.87-4.3 14.01 20.78-9.1-34.64z" fill="#5C6BC0"/><linearGradient id="h" x1="-262.86" x2="-262.86" y1="97.062" y2="125.63" gradientTransform="matrix(-1 0 0 1 -200.19 0)" gradientUnits="userSpaceOnUse"><stop stop-color="#5C6BC0" offset="0"/><stop stop-color="#3949AB" offset="1"/></linearGradient><path d="M59.9 97.06l6.36.74 6.69 14.43-7.74-3.16a.986.986 0 0 0-.38-.07c-.31 0-.62.15-.81.42l-11.64 16.21 7.52-28.57z" fill="url(#h)"/><path d="M60.64 98.16l4.94.58 5.39 11.62-5.38-2.2c-.25-.1-.5-.15-.76-.15-.63 0-1.24.3-1.63.83l-8.48 11.82 5.92-22.5m-1.49-2.19l-9.11 34.64L64.83 110l10.1 4.12-8-17.25-7.78-.9z" fill="#5C6BC0"/></g><g clip-path="url(#e)"><linearGradient id="i" x1="106.46" x2="106.46" y1="107.07" y2="136.06" gradientUnits="userSpaceOnUse"><stop stop-color="#303F9F" offset=".003"/><stop stop-color="#273492" offset=".472"/><stop stop-color="#1A237E" offset="1"/></linearGradient><path d="M99.18 136.06l6.05-28.99c5.65 3.84 8.52 8.45 8.52 13.73v15.26H99.18z" fill="url(#i)"/><path d="M106.22 109.67c4 3.24 6.03 6.98 6.03 11.13v13.76h-11.23l5.2-24.89m-2.01-5.02l-6.88 32.91h17.92V120.8c0-6.75-4.27-12.14-11.04-16.15z" fill="#1B2B8F"/></g><g clip-path="url(#e)"><defs><path id="j" d="M-2 120.8v16.76h104V120.8c0-16.79-26.35-25.09-52-25.06-25.49.03-52 7.28-52 25.06z"/></defs></g><g clip-path="url(#e)"><linearGradient id="k" x1="105.8" x2="99.128" y1="25.651" y2="100.74" gradientTransform="rotate(5.19 -217.851 85.966)" gradientUnits="userSpaceOnUse"><stop stop-color="#90A4AE" offset="0"/><stop stop-color="#889DA8" offset=".267"/><stop stop-color="#78909C" offset=".584"/><stop stop-color="#607D8B" offset="1"/></linearGradient><path d="M96.56 131.79c-.38 0-.77-.06-1.14-.17-1.97-.58-3.21-2.72-2.81-4.88l7.8-42.23c.5-2.7-.42-5.46-2.45-7.39-3.83-3.64-5.52-9.04-4.53-14.42.7-3.76 2.66-7.15 5.54-9.53.14-.12.29-.17.45-.17.21 0 .42.1.56.26.13.15.17.34.13.56l-1.46 7.9c-.16.84.1 1.72.69 2.34l6.16 6.5c.51.53 1.22.84 1.95.84.4 0 .8-.09 1.16-.26l8.08-3.87c.77-.37 1.33-1.09 1.49-1.94l1.46-7.9c.08-.42.42-.56.68-.56.15 0 .44.05.62.37 1.83 3.26 2.46 7.12 1.77 10.88-1 5.39-4.5 9.82-9.38 11.85-2.59 1.08-4.43 3.33-4.93 6.03l-7.85 42.46a4.053 4.053 0 0 1-3.99 3.33z" fill="url(#k)"/><path d="M98.98 54.5l-1.3 7.04c-.21 1.16.14 2.36.95 3.21l6.16 6.5c.69.73 1.67 1.15 2.68 1.15.55 0 1.1-.13 1.59-.36l8.08-3.87c1.06-.51 1.82-1.5 2.04-2.66l1.3-7.04c1.41 2.89 1.86 6.22 1.26 9.46-.93 5.05-4.22 9.21-8.78 11.11-2.9 1.21-4.97 3.74-5.53 6.77l-7.85 42.46a3.076 3.076 0 0 1-3.88 2.39c-1.49-.43-2.41-2.07-2.1-3.73l7.8-42.23c.56-3.03-.47-6.13-2.74-8.3-3.58-3.41-5.17-8.46-4.23-13.52.59-3.24 2.19-6.19 4.55-8.38m.45-2.5c-.37 0-.75.12-1.09.4-2.95 2.45-5.12 5.97-5.89 10.12-1.09 5.9.91 11.61 4.82 15.33 1.76 1.68 2.6 4.1 2.16 6.49l-7.8 42.23c-.48 2.6.98 5.28 3.51 6.02.48.14.96.2 1.42.2 2.39 0 4.54-1.71 4.99-4.15l7.85-42.46c.44-2.39 2.09-4.35 4.33-5.29 4.98-2.08 8.89-6.69 9.98-12.59.77-4.15 0-8.22-1.88-11.56-.34-.6-.92-.88-1.49-.88-.76 0-1.5.49-1.67 1.38l-1.46 7.9c-.1.53-.45.99-.93 1.22l-8.08 3.87c-.23.11-.48.17-.73.17-.45 0-.9-.18-1.23-.53l-6.16-6.5c-.37-.39-.53-.94-.44-1.47l1.46-7.9c.21-1.14-.69-2-1.67-2z" fill="#587D8C"/></g><path d="M94.51 117.35l-1.92 2.14s-5.66-1.21-4.99-4.49c.16-.78 1.56-2.44 1.56-2.44s-2.85-2.35-2.4-3.94c.45-1.57 3.17-2.79 3.17-2.79s-2.11-1.26-1.28-3.63c.57-1.62 3.53-2.16 3.53-2.16s-2.76-4.05 2.85-4.97c1.77-.29 5.74.3 9.3 2.93s5.19 4.21 6.83 7.67c2.5 5.25-1.92 14.25-5.31 14.33-2.83.06-11.34-2.65-11.34-2.65z" clip-path="url(#e)" fill="#A56C43" stroke="#875334" stroke-linecap="round" stroke-linejoin="round" stroke-miterlimit="10" stroke-width="1.937"/></g><g clip-path="url(#b)"><linearGradient id="l" x1="50.39" x2="50.39" y1="95.27" y2="17.04" gradientUnits="userSpaceOnUse"><stop stop-color="#8D5738" offset="0"/><stop stop-color="#97603D" offset=".216"/><stop stop-color="#A26941" offset=".573"/><stop stop-color="#A56C43" offset="1"/></linearGradient><path d="M50.39 95.27c-2.3 0-4.91-.5-7.56-1.43-11.34-4.01-24.57-16.34-24.57-37.89 0-28.72 17.31-38.91 32.13-38.91s32.13 10.19 32.13 38.91c0 21.58-13.26 33.9-24.61 37.9-2.63.93-5.23 1.42-7.52 1.42z" fill="url(#l)"/><path d="M50.39 18.04c8.41 0 16.06 3.25 21.55 9.15 6.27 6.73 9.58 16.68 9.58 28.77 0 21.06-12.9 33.07-23.94 36.96-2.53.89-5.01 1.36-7.19 1.36-2.19 0-4.69-.48-7.23-1.38-11.03-3.9-23.9-15.92-23.9-36.94 0-12.09 3.31-22.03 9.58-28.77 5.49-5.9 13.14-9.15 21.55-9.15m0-2c-17.2 0-33.13 12.79-33.13 39.91 0 21.79 13.49 34.67 25.23 38.83 2.8.99 5.5 1.49 7.9 1.49 2.38 0 5.07-.49 7.85-1.47C70 90.66 83.52 77.77 83.52 55.95c0-27.12-15.93-39.91-33.13-39.91z" fill="#875334"/><path d="M54.2 68.05c-.1-.04-.21-.07-.32-.08H46.9c-.11.01-.21.04-.32.08-.63.26-.98.91-.68 1.61s1.69 2.66 4.49 2.66 4.19-1.96 4.49-2.66c.3-.69-.04-1.35-.68-1.61z" fill="#875334"/><g fill="#42312C"><ellipse cx="35.14" cy="58.87" rx="4.87" ry="5.04"/><ellipse cx="65.64" cy="58.87" rx="4.87" ry="5.04"/><path d="M41.37 49.82c-.93-1.23-3.07-3.01-7.23-3.01s-6.31 1.79-7.23 3.01c-.41.54-.31 1.17-.02 1.55.26.35 1.04.68 1.9.39s2.54-1.16 5.35-1.18c2.81.02 4.49.89 5.35 1.18s1.64-.03 1.9-.39c.29-.38.39-1.01-.02-1.55zM73.87 49.82c-.93-1.23-3.07-3.01-7.23-3.01s-6.31 1.79-7.23 3.01c-.41.54-.31 1.17-.02 1.55.26.35 1.04.68 1.9.39s2.54-1.16 5.35-1.18c2.81.02 4.49.89 5.35 1.18s1.64-.03 1.9-.39c.29-.38.39-1.01-.02-1.55z"/></g><path d="M58.46 76.14c-3.15 1.87-13.46 1.87-16.61 0-1.81-1.07-3.65.57-2.9 2.21.74 1.61 6.37 5.36 11.23 5.36s10.42-3.75 11.16-5.36c.75-1.64-1.08-3.29-2.88-2.21z" fill="#473530"/><defs><path id="m" d="M16.37 88.85L15.75 39c0-16.95 14.66-31.83 31.61-31.83h4.93c16.95 0 32.33 14.51 32.33 31.46l-1.07 49.96-67.18.26z"/></defs><clipPath id="n"><use xlink:href="#m"/></clipPath><g clip-path="url(#n)"><radialGradient id="o" cx="15.6" cy="-123.13" r="48.206" gradientTransform="matrix(.796 0 0 .796 37.541 97.597)" gradientUnits="userSpaceOnUse"><stop stop-color="#554138" offset="0"/><stop stop-color="#3C2C23" offset="1"/></radialGradient><path d="M87.85 42.65S88.87 7.08 50.04 7.08 12.07 42.65 12.07 42.65s.33 45.48 3.2 51.39 7.2 5.71 7.2 5.71-2.03-26.54-2.26-39.04c-.06-2.92-.94-13.73 5.16-15.09 22.36-5.02 35.01-16.89 35.01-16.89 3.29 7.19 13.58 14.19 17.27 16.86 3.03 2.19 2.61 11.2 2.55 15.03l-3.05 39.06s4.68.37 7.65-5.64c2.96-6.02 3.05-51.39 3.05-51.39z" fill="url(#o)"/></g></g><g clip-path="url(#b)"><linearGradient id="p" x1="50" x2="50" y1="38.879" y2="-1.338" gradientUnits="userSpaceOnUse"><stop stop-color="#0068B5" offset="0"/><stop stop-color="#4C8EEA" offset=".807"/><stop stop-color="#5E97F6" offset="1"/></linearGradient><path d="M49.73 4.59C67.67 4.59 84.14 16.25 87 44.8c0 0-9.75-8.02-36.77-8.02-29.25 0-37.33 8.53-37.23 7.6 3.12-28.52 19.59-39.8 37.23-39.8h-.5z" fill="url(#p)"/><linearGradient id="q" x1="49.731" x2="49.731" y1="45.463" y2="19.707" gradientUnits="userSpaceOnUse"><stop stop-color="#0068B5" offset="0"/><stop stop-color="#5E97F6" offset="1"/></linearGradient><path d="M26.93 34.45c0-18.74 8.97-28.81 22.8-28.81s22.8 10.47 22.8 28.81c0 14.9-10.77 3.17-22.8 3.17s-22.8 11.74-22.8-3.17z" fill="url(#q)"/><path d="M50.23 4.59h-.5.5z" fill="#072D83" opacity=".5"/><path d="M49.98 6.59c19.41 0 31.31 12 34.59 34.76-8.12-3.8-19.65-5.73-34.34-5.73-14.45 0-26.15 1.88-34.82 5.59 1.67-11.59 5.55-20.4 11.56-26.21 5.77-5.58 13.51-8.41 23.01-8.41m0-2C31.22 4.59 16 15.25 13 44.39c-.01.05.02.08.07.08.85 0 9.79-6.85 37.16-6.85 27.8 0 36.14 7.23 36.74 7.23.03 0 .04-.01.03-.04C84.08 15.36 68.74 4.59 49.98 4.59z" fill="#0D47A1"/><path d="M50.09 28.48c-21.77 0-32.21 11.89-32.21 11.89-.02 1.97 2.2 5.52 7.25 6.33 6.95 1.12 11.44-4.5 24.85-4.5h.07v-.03l.04.03h.07c13.41 0 17.89 5.61 24.85 4.5 5.05-.81 6.89-3.85 6.87-5.81-.01 0-9.76-12.41-31.79-12.41z" fill="#5E97F6"/><path d="M49.97 29.98c20.36 0 29.02 9.27 30.64 11.26-.03.42-.22.89-.54 1.33-.57.77-2.04 2.14-5.5 2.57-.58.07-1.13.11-1.68.11-2.52 0-4.61-.74-7.25-1.68-3.68-1.31-8.26-2.94-15.66-2.94S38 42.26 34.32 43.57c-2.64.94-4.73 1.68-7.25 1.68-.55 0-1.11-.04-1.68-.11-3.47-.44-4.93-1.8-5.5-2.57-.33-.44-.51-.91-.54-1.34.7-.88 2.74-3.16 6.5-5.42 4.4-2.66 12.18-5.83 24.12-5.83m0-2c-24.31 0-32.59 12.52-32.59 12.52-.45 2.46 1.83 5.88 7.74 6.63.67.08 1.32.12 1.93.12 6.74 0 10.63-4.62 22.91-4.62s16.17 4.62 22.91 4.62c.62 0 1.26-.04 1.93-.12 5.92-.74 8.19-4.17 7.74-6.63.02 0-8.37-12.52-32.57-12.52z" fill="#0D47A1"/></g></svg>