<svg viewBox="0 0 128 128" width="128" height="128" xmlns="http://www.w3.org/2000/svg" xmlns:xlink="http://www.w3.org/1999/xlink"><defs><path id="a" d="M4 4h121.66v120.02H4z"/></defs><clipPath id="b"><use xlink:href="#a"/></clipPath><g clip-path="url(#b)"><defs><path id="c" d="M4.5 3.5h119V124H4.5z"/></defs><clipPath id="d"><use xlink:href="#c"/></clipPath><g clip-path="url(#d)"><linearGradient id="e" x1="57.55" x2="57.55" y1="33.767" y2="88.756" gradientUnits="userSpaceOnUse"><stop stop-color="#8D6E63" offset=".003"/><stop stop-color="#6D4C41" offset="1"/></linearGradient><path d="M22.6 137c-5.55 0-10.27-4.97-10.51-11.08L6.51 34.35c-.16-3.74 1.11-7.32 3.48-9.79 1.89-1.97 4.34-3.06 6.91-3.06h81.3c2.56 0 5.02 1.09 6.91 3.06 2.37 2.47 3.64 6.05 3.48 9.82l-5.57 91.52c-.25 6.13-4.97 11.1-10.52 11.1H22.6z" fill="url(#e)"/><path d="M98.2 23c2.76 0 4.69 1.41 5.83 2.6 2.08 2.17 3.2 5.34 3.06 8.69l-5.57 91.52v.06c-.21 5.31-4.26 9.64-9.02 9.64H22.6c-4.76 0-8.8-4.32-9.02-9.64v-.06L8.01 34.29c-.14-3.35.98-6.52 3.06-8.69 1.14-1.18 3.07-2.6 5.83-2.6h81.3m0-3H16.9c-6.87 0-12.22 6.54-11.88 14.44l5.57 91.55c.28 6.91 5.68 12.51 12.01 12.51h69.9c6.33 0 11.73-5.6 12.01-12.51l5.57-91.55c.34-7.9-5.01-14.44-11.88-14.44z" fill="#6D4C41"/></g><linearGradient id="f" x1="50" x2="50" y1="97.5" y2="130.5" gradientUnits="userSpaceOnUse"><stop stop-color="#616161" offset=".003"/><stop stop-color="#545454" offset=".277"/><stop stop-color="#323232" offset=".783"/><stop stop-color="#212121" offset="1"/></linearGradient><path d="M-.5 130.5v-9.51C-.5 103.7 26.71 97.53 50 97.5h.14c13.39 0 25.82 2.15 35.01 6.05 7 2.98 15.35 8.42 15.35 17.44v9.51H-.5z" fill="url(#f)"/><path d="M50.14 99C74.42 99 99 106.55 99 120.99V129H1v-8.01c0-6.95 4.88-12.47 14.52-16.42C24.26 100.99 36.51 99.02 50 99h.14m0-3H50c-25.65.03-52 7.1-52 24.99V132h104v-11.01C102 104.13 75.9 96 50.14 96z" fill="#404042"/><path d="M90.8 104.77c-1.2 1.26-3.41 3.33-6.78 5.49-.32.11-5.23 3.04-12.05 5.56-3.21 1.19-13.11 3.08-21.95 2.88-15.88-.38-27.44-5.31-34.09-8.77-2.51-1.3-5.48-3.91-7.05-5.38l-1.93 1.26c1.24 1.21 3.67 3.34 7.45 5.61-4.85 5.32-5.65 12.89-5.68 13.24l1.99.19c.01-.08.79-7.56 5.46-12.41 2.61 1.44 5.76 2.88 9.48 4.16-2.4 3.77-2.44 7.48-2.44 7.66h2c0-.04.04-3.59 2.42-7.02 6.03 1.86 13.43 3.24 22.35 3.45.69.02 1.37.02 2.04.02 8.08 0 14.81-1.17 20.34-2.86 1.97 3.21 2.01 6.37 2.01 6.4h2c0-.17-.04-3.49-2.07-7.04 3.75-1.3 6.89-2.83 9.47-4.38 4.34 4.84 5.09 11.93 5.1 12.01l1.99-.19c-.03-.34-.79-7.6-5.37-12.9 3.6-2.37 5.9-4.64 7.07-5.93l-1.76-1.05z" fill="#fff" opacity=".19"/><path d="M49.17 107.23c-4 0-7.26-3.22-7.26-7.17v-8.98h16.16v8.98c0 3.96-3.26 7.17-7.26 7.17h-1.64z" fill="#C48E6A"/><path d="M57.08 92.08v7.98c0 3.4-2.81 6.17-6.26 6.17h-1.65c-3.45 0-6.26-2.77-6.26-6.17v-7.98h14.17m2-2H40.92v9.98c0 4.51 3.7 8.17 8.26 8.17h1.65c4.56 0 8.26-3.66 8.26-8.17v-9.98h-.01z" fill="#B07853"/><defs><path id="g" d="M-6 120.99V132h112v-11.01C106 104.1 77.8 95.97 50 96c-27.62.03-56 7.1-56 24.99z"/></defs><clipPath id="h"><use xlink:href="#g"/></clipPath><g clip-path="url(#h)"><defs><path id="i" d="M64.56 96.37s-8.62-1.05-9.12-1.05L50 94.69l-5.44.62c-.5 0-9.12 1.05-9.12 1.05C36.5 111.12 50 118.25 50 118.25s12.88-6.81 14.56-21.88z"/></defs><clipPath id="j"><use xlink:href="#i"/></clipPath><path d="M35.69 109.12c2.17 3.67 8.58 10.19 14.31 13.75 0 0 14.26-9.7 12.81-14.25 0 0-13.3-3.3-12.81-2.62l-14.31 3.12z" clip-path="url(#j)" fill="#D8D8D8"/><g clip-path="url(#j)"><path d="M40.76 95.84S42.13 100.19 50 106l-8.93 8.62c-7-7.94-6.12-18.26-6.12-18.26l5.81-.52z" fill="#fff"/></g><g clip-path="url(#j)"><path d="M59.23 95.84s-1.37 4.35-9.24 10.16l8.93 8.62c7-7.94 6.12-18.26 6.12-18.26l-5.81-.52z" fill="#fff"/></g></g><path d="M22.67 72.26c-5.36 0-9.71-4.67-9.71-10.41s4.36-10.41 9.71-10.41h54.65c5.36 0 9.71 4.67 9.71 10.41s-4.36 10.41-9.71 10.41H22.67z" fill="#C48E6A"/><path d="M77.33 52.43c4.8 0 8.71 4.22 8.71 9.41s-3.91 9.41-8.71 9.41H22.67c-4.8 0-8.71-4.22-8.71-9.41s3.91-9.41 8.71-9.41h54.66m0-2H22.67c-5.89 0-10.71 5.14-10.71 11.41 0 6.28 4.82 11.41 10.71 11.41h54.65c5.89 0 10.71-5.14 10.71-11.41.01-6.27-4.81-11.41-10.7-11.41z" fill="#B07853"/><linearGradient id="k" x1="50" x2="50" y1="94.591" y2="12.825" gradientUnits="userSpaceOnUse"><stop stop-color="#CCA47A" offset=".002"/><stop stop-color="#D6B088" offset=".258"/><stop stop-color="#DEB892" offset=".59"/><stop stop-color="#E0BB95" offset="1"/></linearGradient><path d="M50 95.27c-15.66 0-32.52-12.14-32.52-38.81 0-12.38 3.56-23.79 10.02-32.13 6.04-7.8 14.25-12.27 22.5-12.27s16.45 4.47 22.5 12.27c6.46 8.33 10.02 19.75 10.02 32.13 0 12.09-3.51 22.19-10.14 29.21-5.86 6.19-13.81 9.6-22.38 9.6z" fill="url(#k)"/><path d="M50 13.07c7.94 0 15.85 4.33 21.71 11.88 6.33 8.16 9.81 19.35 9.81 31.52 0 11.83-3.41 21.7-9.87 28.52-5.67 5.99-13.36 9.29-21.65 9.29s-15.98-3.3-21.65-9.29c-6.46-6.82-9.87-16.69-9.87-28.52 0-12.16 3.49-23.35 9.81-31.52C34.15 17.4 42.06 13.07 50 13.07m0-2c-17.4 0-33.52 18.61-33.52 45.39 0 26.64 16.61 39.81 33.52 39.81S83.52 83.1 83.52 56.46c0-26.78-16.12-45.39-33.52-45.39z" fill="#BA8F63"/><path d="M25.99 50.73s.13-.19.38-.51c.07-.08.12-.16.22-.26.11-.11.23-.22.37-.34s.28-.24.43-.38c.15-.13.31-.23.48-.35.17-.11.34-.24.53-.35.19-.1.4-.21.6-.32.21-.12.43-.21.66-.3s.47-.18.71-.27c.49-.14 1-.29 1.54-.36.53-.1 1.08-.11 1.63-.14.55.03 1.09.03 1.63.14.53.07 1.05.22 1.54.36.24.08.48.17.71.27.23.09.45.18.66.3.21.11.41.22.6.32.19.11.36.24.53.35.17.12.33.22.47.34s.27.24.4.35c.12.11.24.21.34.31s.18.21.26.29c.31.36.46.57.46.57.51.7.35 1.69-.36 2.19-.43.31-.96.37-1.43.21l-.29-.1s-.19-.07-.49-.2c-.08-.03-.15-.07-.25-.11-.1-.03-.19-.07-.3-.11-.21-.08-.44-.17-.7-.25-.13-.04-.26-.09-.4-.13-.14-.03-.28-.07-.43-.11l-.22-.06c-.08-.01-.15-.03-.23-.04-.16-.03-.31-.07-.47-.1-.33-.04-.66-.11-1-.12-.34-.04-.69-.03-1.03-.05-.35.02-.7.01-1.03.05-.34.02-.67.09-1 .12-.16.03-.31.07-.47.1-.08.01-.16.03-.23.04l-.22.06c-.15.04-.29.07-.43.11s-.27.09-.4.13-.25.08-.37.11c-.1.04-.2.07-.29.1l-.27.09c-.1.04-.2.1-.29.14-.36.18-.57.27-.57.27-.83.34-1.77-.05-2.11-.87-.24-.48-.16-1.06.13-1.49z" fill="#AB872F"/><ellipse cx="33.56" cy="58.81" rx="4.93" ry="5.1" fill="#5D4037"/><path d="M72.05 53.13s-.22-.09-.57-.27c-.09-.04-.19-.1-.29-.14-.09-.02-.18-.06-.27-.09s-.19-.07-.29-.1c-.12-.04-.24-.07-.37-.11s-.26-.09-.4-.13-.28-.07-.43-.11l-.22-.06c-.08-.01-.15-.03-.23-.04-.16-.03-.31-.07-.47-.1-.33-.04-.66-.11-1-.12-.34-.04-.69-.03-1.03-.05-.35.02-.7.01-1.03.05-.34.02-.67.09-1 .12-.16.03-.31.07-.47.1-.08.01-.16.03-.23.04l-.22.06c-.15.04-.29.08-.43.11-.14.04-.27.09-.4.13-.26.07-.49.16-.7.25-.11.04-.2.08-.3.11-.09.04-.17.08-.25.11-.3.13-.49.2-.49.2l-.28.1c-.82.29-1.72-.15-2-.97-.17-.5-.08-1.03.21-1.44 0 0 .16-.22.46-.57.08-.09.16-.19.26-.29s.22-.2.34-.31.26-.23.4-.35.31-.22.47-.34c.17-.12.34-.24.53-.35.19-.1.4-.21.6-.32.21-.12.43-.21.66-.3s.46-.18.71-.27c.49-.14 1-.29 1.54-.36.53-.1 1.08-.11 1.63-.14.55.03 1.09.03 1.63.14.53.06 1.05.22 1.54.36.24.08.48.17.71.27.23.09.45.18.66.3.21.11.41.22.6.32.19.11.36.24.53.35.17.12.32.22.48.35.15.13.3.26.43.38s.26.23.37.34c.09.1.15.18.22.26.25.31.38.51.38.51.5.74.31 1.74-.43 2.25-.49.28-1.07.32-1.56.12z" fill="#AB872F"/><ellipse cx="66.44" cy="58.81" rx="4.93" ry="5.1" fill="#5D4037"/><path d="M57.77 77.88H42.23c-3.31 0-2.72 1.94-1.12 2.62 2.51 1.07 6.06 1.36 8.87 1.37h.04c2.81-.01 6.36-.3 8.87-1.37 1.6-.68 2.19-2.62-1.12-2.62z" fill="#6D4C41"/><path d="M53.86 68.06c-.11-.04-.21-.07-.32-.08h-7.07c-.11.01-.22.04-.32.08-.64.26-.99.92-.69 1.63s1.71 2.69 4.55 2.69 4.25-1.99 4.55-2.69c.29-.71-.06-1.37-.7-1.63z" fill="#C48E6A"/><defs><path id="l" d="M50 4.03h-.04c-45.43.24-36.12 52.14-36.12 52.14s5.1 8.99 5.1 8.81c-.03-1.41.46-6.89.46-6.89l-2.68-2.92s3.89-25.44 6.79-24.91c4.45.81 26.54 2 26.57 2 7.83 0 14.92-.36 19.37-1.17 2.9-.53 9.64 1.7 10.68 4.45 1.33 3.54 3.13 19.71 3.13 19.71l-2.68 2.83s.49 5.51.46 6.89c0 .18 5.1-8.81 5.1-8.81S95.44 4.27 50 4.03z"/></defs><radialGradient id="m" cx="50.26" cy="4.274" r="48.85" gradientUnits="userSpaceOnUse"><stop stop-color="#BFA055" offset="0"/><stop stop-color="#AB872F" offset="1"/></radialGradient><path d="M50.02 4.03h-.04c-45.43.24-36.13 52.14-36.13 52.14s5.1 8.99 5.1 8.81c-.16-7.25 2.74-20.09 4.8-25.55a6.075 6.075 0 0 1 6.79-3.83c4.46.8 11.55 1.8 19.38 1.8h.16c7.83 0 14.92-1 19.37-1.81 2.9-.53 5.76 1.08 6.79 3.83 2.06 5.47 4.96 18.3 4.8 25.55 0 .18 5.1-8.81 5.1-8.81S95.45 4.27 50.02 4.03z" fill="url(#m)"/><path d="M50.02 4.03h-.04c-45.43.24-36.13 52.14-36.13 52.14s5 8.81 5.1 8.81c-.03-1.48.07-3.2.26-5.03-.12-.29-2.46-4.75-2.48-4.79-.24-1.6-.93-6.98-.55-13.56.41-7.04 2.17-16.96 8.22-24.22 5.67-6.8 14.27-10.28 25.56-10.35H50c11.32.06 19.93 3.54 25.6 10.35 10.81 12.96 8.18 34.33 7.67 37.79-.02.04-2.46 4.58-2.49 4.65.2 1.89.31 3.65.27 5.17.09 0 5.1-8.81 5.1-8.81s9.3-51.91-36.13-52.15z" fill="#8F7635"/><path d="M103.5 127c-.09 0-.19 0-.29-.01l-1.06-.11a2.75 2.75 0 0 1-1.9-1.05c-.46-.6-.66-1.35-.54-2.1l5.07-27.53c.06-.39.08-.76.05-1.12l-.67-8.86c-.04-.47.03-.81.21-1 .16-.18.57-.39 1.57-.39.34 0 .7.02 1.08.06 1.73.18 2.32.55 2.51.83.15.22.15.57.02 1.04l-2.46 8.54c-.1.35-.16.71-.18 1.08l-.66 28.04a2.765 2.765 0 0 1-2.75 2.58z" fill="#DD8A3E"/><path d="M105.93 85.83c.28 0 .6.02.98.06 1.07.11 1.54.28 1.72.37-.01.05-.02.13-.05.23l-2.46 8.54c-.12.42-.2.86-.22 1.3v.05l-.66 27.98a1.75 1.75 0 0 1-1.74 1.64c-.06 0-.12 0-.18-.01l-1.06-.11c-.48-.05-.91-.29-1.21-.67-.29-.38-.41-.84-.35-1.31l5.06-27.53c0-.02.01-.04.01-.05.07-.44.09-.88.05-1.32l-.67-8.86a.862.862 0 0 1 0-.23c.13-.04.37-.08.78-.08m0-2c-1.72 0-2.92.54-2.77 2.46l.67 8.86c.02.29.01.58-.03.86l-5.07 27.56a3.736 3.736 0 0 0 3.32 4.3l1.06.11c.13.01.26.02.39.02 1.97 0 3.64-1.55 3.74-3.56l.66-28.01c.01-.29.06-.57.14-.85l2.46-8.54c.65-2.24-1.06-2.9-3.38-3.14-.42-.05-.82-.07-1.19-.07z" fill="#B2713B"/><path d="M108.39 83.32c-.07 0-.15 0-.22-.01l-2.34-.24c-.56-.06-1.07-.33-1.43-.78s-.53-1-.47-1.56l.06-.56a2.15 2.15 0 0 1 2.34-1.91l2.34.24c.56.06 1.07.33 1.44.78.36.44.53 1 .47 1.56l-.06.57c-.12 1.06-1.05 1.91-2.13 1.91z" fill="#DD8A3E"/><path d="M106.1 79.24c.04 0 .08 0 .12.01l2.34.24c.61.06 1.08.63 1.01 1.25l-.06.56c-.06.57-.55 1.02-1.13 1.02-.04 0-.08 0-.12-.01l-2.34-.24c-.61-.06-1.08-.63-1.01-1.25l.06-.56c.06-.57.56-1.02 1.13-1.02m0-2c-1.58 0-2.95 1.21-3.12 2.82l-.06.56a3.14 3.14 0 0 0 2.8 3.44l2.34.24c.11.01.21.02.32.02 1.58 0 2.95-1.21 3.12-2.81l.06-.56a3.14 3.14 0 0 0-2.8-3.44l-2.34-.24c-.1-.02-.21-.03-.32-.03z" fill="#B2713B"/><path fill="#995F33" d="M96.883 74.051l1.27-12.385 23.508 2.412-1.271 12.386z"/><path d="M112.42 76.98l-9.62-.99a2.501 2.501 0 0 1-2.23-2.74l1.04-10.16a2.501 2.501 0 0 1 2.74-2.23l9.62.99c1.37.14 2.37 1.37 2.23 2.74l-1.04 10.16a2.507 2.507 0 0 1-2.74 2.23zM99.35 67.99c.59-5.76.62-7.94-1.62-8.17s-4.42 3.13-4.87 7.51 1 8.11 3.24 8.34 2.66-1.92 3.25-7.68zM117.42 69.85c.59-5.76 1.01-7.9 3.25-7.67s3.69 3.96 3.24 8.34-2.63 7.74-4.87 7.51-2.21-2.42-1.62-8.18z" fill="#DD8A3E" stroke="#B2713B" stroke-linecap="round" stroke-linejoin="round" stroke-miterlimit="10" stroke-width="2"/><path d="M110.55 122.65l-7.17.5c-6.28 0-10.88-3.2-10.83-10.74.12-16.37 18.4-12.86 20.55-7.77 3.22 7.62.26 18.01-2.55 18.01z" fill="#E0BB95" stroke="#BA8F63" stroke-linecap="round" stroke-linejoin="round" stroke-miterlimit="10" stroke-width="1.937"/><path d="M103.68 119.93a2.796 2.796 0 0 0 2.63 2.95l3.93.22a2.796 2.796 0 0 0 .32-5.58l-3.93-.22a2.77 2.77 0 0 0-2.95 2.63z" fill="#E0BB95" stroke="#BA8F63" stroke-linecap="round" stroke-linejoin="round" stroke-miterlimit="10" stroke-width="1.669"/><path d="M104.35 115.84a2.818 2.818 0 0 0 2.67 2.96l5.16.27a2.818 2.818 0 1 0 .29-5.63l-5.16-.27a2.818 2.818 0 0 0-2.96 2.67z" fill="#E0BB95" stroke="#BA8F63" stroke-linecap="round" stroke-linejoin="round" stroke-miterlimit="10" stroke-width="1.937"/><path d="M104.19 111.98c0 1.52 1.23 2.75 2.75 2.75h6.27c1.52 0 2.75-1.23 2.75-2.75s-1.23-2.75-2.75-2.75h-6.27c-1.51 0-2.75 1.23-2.75 2.75z" fill="#E0BB95" stroke="#BA8F63" stroke-linecap="round" stroke-linejoin="round" stroke-miterlimit="10" stroke-width="1.937"/><path d="M103.63 107.09a2.753 2.753 0 0 0 2.9 2.6l6.26-.34a2.753 2.753 0 0 0 2.6-2.9 2.753 2.753 0 0 0-2.9-2.6l-6.26.34a2.765 2.765 0 0 0-2.6 2.9z" fill="#E0BB95" stroke="#BA8F63" stroke-linecap="round" stroke-linejoin="round" stroke-miterlimit="10" stroke-width="1.937"/><path d="M112.55 100c-.7-.1-3.18-.63-4.79-.83-.61-.07-2.23-.2-2.84-.15-1.95.16-7.93 3.06-9.23 4.64-.64.77-.98 1.68-1.06 2.59.31-.4-2.98 8.79 5.6 6.31 3.61-.84 2.19-5.14 3.28-6.49.83-1.03 2.17-2.56 6.75-1.5 1.28.3 3.4.07 4.08-.95 1.18-1.78.26-3.32-1.79-3.62z" fill="#E0BB95"/><path d="M115.82 100.93c-.44-.97-1.48-1.64-2.86-1.83-.24-.03-.68-.11-1.22-.21-1.08-.2-2.56-.47-3.67-.59-.57-.07-2.3-.21-3.06-.15-5.94.47-8.48 2.74-10.03 4.9-1.02 1.41-.51 3.69-.24 3.22.53-.91 3.06-3.67 5.42-4.86 2.08-1.04 3.32-1.42 5-1.56.52-.04 2.05.07 2.69.14 1.05.12 2.5.39 3.55.58.57.1 1.04.19 1.29.22.76.11 1.31.41 1.5.84.17.37.23 1.1-.14 1.63-.38.55-2.26.89-3.44.62-1.67-.37-3.47-.88-5.13-.32-1.25.42-2.69 1.4-3.08 2.66-.38 1.23.35 4.25-1.35 6.28-.7.83-2.63 1.97-2.63 1.97s2.26.26 3.42-.57c1.65-1.17 2.27-3.5 2.43-5.33.07-.82-.1-2.24.12-2.51.7-.85 1.48-2.07 5.68-1.13 1.45.33 4.27.5 5.27-.94.74-1.06.9-2.14.48-3.06z" fill="#BA8F63"/></g></svg>