<svg viewBox="0 0 128 128" width="128" height="128" xmlns="http://www.w3.org/2000/svg" xmlns:xlink="http://www.w3.org/1999/xlink"><defs><path id="a" d="M4 4h120v120H4z"/></defs><clipPath id="b"><use xlink:href="#a"/></clipPath><g clip-path="url(#b)"><linearGradient id="c" x1="64" x2="64" y1="95.946" y2="126.5" gradientUnits="userSpaceOnUse"><stop stop-color="#651FFF" offset="0"/><stop stop-color="#5914F2" offset=".705"/><stop stop-color="#530EEB" offset="1"/></linearGradient><path d="M14.04 126.5v-6.61c0-7.67 5.11-13.74 15.2-18.04 8.89-3.79 21.23-5.89 34.76-5.9h.13c24.76 0 49.83 8.22 49.83 23.94v6.61H14.04z" fill="url(#c)"/><path d="M64.13 97.45c12.86 0 25.3 2.24 34.12 6.14 6.49 2.87 14.22 8.03 14.22 16.3V125H15.54v-5.11c0-15.46 24.34-22.41 48.47-22.44h.12m0-3H64c-25.65.03-51.46 7.55-51.46 25.44V128h102.93v-8.11c-.01-16.87-25.57-25.44-51.34-25.44z" fill="#4A00ED"/></g><g clip-path="url(#b)"><path d="M63.17 107.23c-4 0-7.26-3.22-7.26-7.17v-8.98h16.16v8.98c0 3.96-3.26 7.17-7.26 7.17h-1.64z" fill="#99674F"/><path d="M71.08 92.08v7.98c0 3.4-2.81 6.17-6.26 6.17h-1.65c-3.45 0-6.26-2.77-6.26-6.17v-7.98h14.17m2-2H54.92v9.98c0 4.51 3.7 8.17 8.26 8.17h1.65c4.56 0 8.26-3.66 8.26-8.17v-9.98h-.01z" fill="#875740"/></g><g clip-path="url(#b)"><linearGradient id="d" x1="28.5" x2="99.5" y1="62.5" y2="62.5" gradientUnits="userSpaceOnUse"><stop stop-color="#A47B62" offset="0"/><stop stop-color="#AD8264" offset=".191"/><stop stop-color="#B78A67" offset=".551"/><stop stop-color="#BA8D68" offset="1"/></linearGradient><path d="M37.78 71c-5.12 0-9.28-3.81-9.28-8.5s4.16-8.5 9.28-8.5h52.44c5.12 0 9.28 3.81 9.28 8.5S95.34 71 90.22 71H37.78z" fill="url(#d)"/><path d="M90.22 55c4.57 0 8.28 3.36 8.28 7.5S94.79 70 90.22 70H37.78c-4.57 0-8.28-3.36-8.28-7.5s3.71-7.5 8.28-7.5h52.44m0-2H37.78c-5.65 0-10.28 4.27-10.28 9.5S32.13 72 37.78 72h52.44c5.65 0 10.28-4.27 10.28-9.5S95.87 53 90.22 53z" fill="#91674D"/><linearGradient id="e" x1="63.818" x2="63.818" y1="92.558" y2="12.789" gradientUnits="userSpaceOnUse"><stop stop-color="#A47B62" offset="0"/><stop stop-color="#AD8264" offset=".191"/><stop stop-color="#B78A67" offset=".551"/><stop stop-color="#BA8D68" offset="1"/></linearGradient><path d="M63.82 93.14c-2.3 0-4.91-.5-7.56-1.43-11.83-4.19-24.57-18.14-24.57-38.88 0-26.38 11.48-40.91 32.31-40.91 20.6 0 31.95 14.53 31.95 40.91 0 20.77-12.76 34.73-24.61 38.9-2.64.92-5.24 1.41-7.52 1.41z" fill="url(#e)"/><path d="M64 12.91c19.96 0 30.95 14.17 30.95 39.91 0 9.49-2.72 18.27-7.85 25.38-4.26 5.9-10.12 10.48-16.1 12.58-2.53.89-5.01 1.36-7.19 1.36-2.19 0-4.69-.48-7.23-1.38-5.97-2.11-11.82-6.7-16.07-12.59-5.13-7.11-7.83-15.88-7.83-25.35.01-25.73 11.13-39.91 31.32-39.91m0-2c-21 0-33.31 14.79-33.31 41.91 0 21.79 13.49 35.67 25.23 39.83 2.8.99 5.5 1.49 7.9 1.49 2.38 0 5.07-.49 7.85-1.47 11.76-4.14 25.28-18.03 25.28-39.84C96.95 25.7 85 10.91 64 10.91z" fill="#91674D"/><g fill="#49362E"><ellipse cx="47.72" cy="58.87" rx="4.87" ry="5.04"/><ellipse cx="80.58" cy="58.87" rx="4.87" ry="5.04"/></g><path d="M67.96 68.05c-.1-.04-.21-.07-.32-.08h-6.99c-.11.01-.21.04-.32.08-.63.26-.98.91-.68 1.61s1.69 2.66 4.49 2.66 4.19-1.96 4.49-2.66c.31-.69-.04-1.35-.67-1.61z" fill="#99674F"/><path d="M55.78 49.82c-.93-1.23-3.07-3.01-7.23-3.01s-6.31 1.79-7.23 3.01c-.41.54-.31 1.17-.02 1.55.26.35 1.04.68 1.9.39s2.54-1.16 5.35-1.18c2.81.02 4.49.89 5.35 1.18s1.64-.03 1.9-.39c.29-.38.39-1.01-.02-1.55zM87.92 49.82c-.93-1.23-3.07-3.01-7.23-3.01s-6.31 1.79-7.23 3.01c-.41.54-.31 1.17-.02 1.55.26.35 1.04.68 1.9.39s2.54-1.16 5.35-1.18c2.81.02 4.49.89 5.35 1.18s1.64-.03 1.9-.39c.28-.38.39-1.01-.02-1.55z" fill="#613E31"/><path d="M72.05 76.14c-3.15 1.87-13.46 1.87-16.61 0-1.81-1.07-3.65.57-2.9 2.21.74 1.61 6.37 5.36 11.23 5.36 4.87 0 10.42-3.75 11.16-5.36.75-1.64-1.07-3.29-2.88-2.21z" fill="#5D4037"/></g></svg>