<svg viewBox="0 0 128 128" width="128" height="128" xmlns="http://www.w3.org/2000/svg" xmlns:xlink="http://www.w3.org/1999/xlink"><linearGradient id="a" x1="35.229" x2="35.229" y1="28.717" y2="92.891" gradientUnits="userSpaceOnUse"><stop stop-color="#7BBF33" offset="0"/><stop stop-color="#74B632" offset=".274"/><stop stop-color="#639E30" offset=".72"/><stop stop-color="#558B2F" offset="1"/></linearGradient><path d="M51.6 93.87c-2.55 0-6.31-.77-9.76-4.41-3.75-3.96-7.99-12.44-7.23-30.41-1.27-.18-2.77-.32-4.33-.46-9.08-.82-22.83-2.06-23.22-15.95-.12-4.36 1.54-8.55 4.68-11.78 3.31-3.41 7.94-5.36 12.69-5.36l4.63.04c1.71-1.17 3.7-1.79 5.78-1.79 2.35.02 4.55.79 6.32 2.18 8.17 1.53 14.23 8.79 14.17 17.05-.01 1.25-.22 2.55-.62 3.88-.5 4.69.71 23.36 7.17 32.52 1.79 2.54 2 5.57.57 8.32-1.9 3.69-6.26 6.17-10.85 6.17z" fill="url(#a)"/><path d="M34.85 25.25h.07c2.14.02 4.1.8 5.61 2.09 7.57 1.24 13.37 7.8 13.31 15.63-.01 1.22-.23 2.42-.59 3.58-.6 4.99.66 24.11 7.42 33.69 3.9 5.53-2.04 12.12-9.06 12.12-7.77 0-16.88-8.07-15.42-34.58C28.24 56.15 9 58.22 8.56 42.6 8.32 33.99 15.76 27 24.43 27h.13l4.98.04a8.755 8.755 0 0 1 5.31-1.79m0-3c-2.23 0-4.36.61-6.22 1.78L24.59 24h-.16c-5.16 0-10.17 2.12-13.77 5.82-3.43 3.52-5.24 8.09-5.1 12.86.43 15.22 15.56 16.58 24.6 17.4 1.02.09 2 .18 2.91.28-.42 14.16 2.16 24.29 7.69 30.13 3.82 4.03 8.01 4.88 10.85 4.88 5.13 0 10.03-2.8 12.19-6.98 1.69-3.27 1.45-6.86-.68-9.87-6.18-8.77-7.38-26.63-6.92-31.36.41-1.41.63-2.81.64-4.16.07-8.86-6.34-16.66-15.04-18.47a11.767 11.767 0 0 0-6.85-2.27l-.1-.01zM92.45 92.67c2.28 0 4.6.76 6.06 2.49 1.77 2.08 2.09 13.26 2.18 15.99.08 2.68.1 5.59-1.5 7.74-1.25 1.68-3.32 2.6-5.39 2.9-.69.1-1.38.14-2.07.14-1.39 0-2.8-.16-4.18-.33-1.92-.23-3.88-.46-5.61-1.32-1.73-.85-3.22-2.46-3.39-4.38-.21-2.41 1.6-4.48 3.29-6.21 1.01-1.03 1.92-10.35 2.55-11.66.41-.84.38-1.88.8-2.68.98-1.88 4.3-2.43 6.23-2.62.34-.04.69-.06 1.03-.06m0-3c-.44 0-.89.02-1.33.07-4.54.46-7.34 1.84-8.59 4.22-.4.78-.56 1.52-.69 2.12-.05.23-.11.54-.16.64-.42.86-.64 2.11-1.18 5.44-.27 1.68-.76 4.7-1.1 5.73-1.61 1.66-4.17 4.53-3.84 8.27.24 2.79 2.18 5.4 5.05 6.81 2.21 1.09 4.54 1.37 6.59 1.61 1.38.16 2.95.35 4.53.35.89 0 1.71-.06 2.51-.17 3.13-.46 5.74-1.9 7.36-4.08 2.3-3.09 2.18-7.02 2.1-9.63v-.11c-.41-13.06-1.63-16.24-2.88-17.72-1.93-2.26-4.97-3.55-8.37-3.55z" fill="#397A26"/><path d="M57.29 90.64c1.92 0 3.83.56 5.21 1.87 2 1.88 3.56 13 3.95 15.71.38 2.67.72 5.57-.64 7.9-1.06 1.81-3.02 2.96-5.05 3.49-1.74.46-3.55.52-5.36.52h-.91c-1.94-.01-3.92-.03-5.75-.69s-3.49-2.1-3.87-4c-.48-2.38 1.1-4.65 2.59-6.57.89-1.14.76-10.55 1.25-11.93.31-.89.18-1.92.5-2.76.77-1.98 4.02-2.9 5.92-3.31.71-.15 1.44-.23 2.16-.23m0-3c-.92 0-1.86.1-2.77.3-4.47.96-7.12 2.65-8.09 5.16-.32.82-.39 1.58-.45 2.19-.02.23-.05.55-.09.66-.32.9-.41 2.17-.58 5.56-.08 1.71-.24 4.78-.46 5.84-1.42 1.84-3.66 4.98-2.91 8.68.55 2.75 2.77 5.14 5.79 6.23 2.33.84 4.68.86 6.75.87h.93c1.83 0 3.96-.05 6.12-.61 3.07-.8 5.51-2.54 6.88-4.88 1.95-3.33 1.39-7.25 1.02-9.83l-.02-.11c-1.86-12.99-3.43-16.02-4.85-17.36-1.84-1.74-4.42-2.7-7.27-2.7z" fill="#397A26"/><linearGradient id="b" x1="70.262" x2="87.29" y1="146.2" y2="129.81" gradientTransform="rotate(-36.621 42.606 106.583)" gradientUnits="userSpaceOnUse"><stop stop-color="#7CB342" offset="0"/><stop stop-color="#52882D" offset=".546"/><stop stop-color="#33691E" offset="1"/></linearGradient><path d="M81.84 109.68c-1.69 1.73-3.5 3.8-3.29 6.21.17 1.92 1.66 3.53 3.39 4.38s3.69 1.09 5.61 1.32c2.08.24 4.19.49 6.26.19s4.14-1.22 5.39-2.9c1.6-2.15 1.59-5.06 1.5-7.74-.09-2.73-.41-13.9-2.18-15.99-1.68-1.98-4.51-2.7-7.1-2.43-1.93.19-5.25.74-6.23 2.62-.42.8-.39 1.84-.8 2.68-.64 1.31-1.55 10.63-2.55 11.66z" fill="url(#b)"/><ellipse cx="11.64" cy="39.07" rx="2.44" ry="1.48"/><linearGradient id="c" x1="46.207" x2="63.31" y1="118.9" y2="102.43" gradientTransform="rotate(-42.986 52.605 107.913)" gradientUnits="userSpaceOnUse"><stop stop-color="#7CB342" offset="0"/><stop stop-color="#52882D" offset=".546"/><stop stop-color="#33691E" offset="1"/></linearGradient><path d="M47.47 108.87c-1.49 1.92-3.07 4.18-2.59 6.57.38 1.9 2.05 3.34 3.87 4s3.81.68 5.75.69c2.1.01 4.23.02 6.27-.51 2.03-.53 3.99-1.68 5.05-3.49 1.36-2.33 1.02-5.23.64-7.9-.39-2.72-1.96-13.83-3.95-15.71-1.9-1.79-4.8-2.19-7.35-1.64-1.9.41-5.16 1.33-5.92 3.31-.33.85-.19 1.88-.5 2.76-.51 1.38-.38 10.78-1.27 11.92z" fill="url(#c)"/><linearGradient id="d" x1="36.78" x2="55.613" y1="123.44" y2="105.31" gradientTransform="rotate(-36.621 42.606 106.583)" gradientUnits="userSpaceOnUse"><stop stop-color="#92C755" offset="0"/><stop stop-color="#87BD4E" offset=".221"/><stop stop-color="#689F38" offset=".922"/></linearGradient><path d="M51.55 123.64c-1.5 0-3.03-.18-4.38-.34-1.94-.23-4.14-.49-6.12-1.47-2.41-1.19-4.03-3.34-4.23-5.62-.26-3.01 1.73-5.37 3.65-7.34.4-.78.96-4.25 1.3-6.34.46-2.83.71-4.34 1.06-5.05.12-.25.2-.61.28-.99.11-.54.24-1.15.55-1.74.99-1.91 3.42-3.03 7.43-3.43.39-.04.79-.06 1.19-.06 2.97 0 5.6 1.1 7.23 3.03.97 1.15 2.14 4.1 2.54 16.86v.12c.08 2.55.19 6.04-1.81 8.72-1.38 1.86-3.65 3.1-6.4 3.5-.72.1-1.47.15-2.29.15z" fill="url(#d)"/><path d="M52.27 92.76c2.29 0 4.62.77 6.09 2.5 1.77 2.09 2.1 13.31 2.19 16.06.08 2.69.1 5.62-1.51 7.78-1.26 1.69-3.33 2.61-5.41 2.91-.69.1-1.38.14-2.08.14-1.4 0-2.81-.16-4.2-.33-1.93-.23-3.9-.46-5.63-1.32-1.74-.86-3.23-2.47-3.4-4.4-.21-2.42 1.6-4.5 3.3-6.24 1.01-1.04 1.92-10.4 2.56-11.71.41-.85.39-1.88.81-2.69.98-1.89 4.32-2.44 6.25-2.63.34-.05.68-.07 1.03-.07m0-3c-.44 0-.9.02-1.34.07-4.55.46-7.37 1.84-8.61 4.23-.4.78-.56 1.53-.69 2.13-.05.23-.11.54-.16.64-.42.86-.65 2.11-1.19 5.46-.27 1.69-.76 4.72-1.11 5.76-1.61 1.67-4.19 4.55-3.86 8.3.24 2.79 2.18 5.41 5.06 6.83 2.22 1.1 4.55 1.37 6.61 1.61 1.39.16 2.96.35 4.55.35.9 0 1.72-.06 2.51-.17 3.14-.46 5.76-1.91 7.38-4.09 2.31-3.1 2.18-7.05 2.1-9.66v-.11c-.41-13.12-1.63-16.3-2.89-17.79-1.9-2.26-4.95-3.56-8.36-3.56z" fill="#397A26"/><linearGradient id="e" x1="76.156" x2="94.987" y1="150.5" y2="132.37" gradientTransform="rotate(-60.079 64.626 112.647)" gradientUnits="userSpaceOnUse"><stop stop-color="#92C755" offset="0"/><stop stop-color="#87BD4E" offset=".221"/><stop stop-color="#689F38" offset=".922"/></linearGradient><path d="M96.63 122.7c-.17 0-.34 0-.51-.01-2.69-.13-5.03-1.46-6.12-3.47-1.44-2.66-.55-5.61.42-8.19.06-.88-.81-4.28-1.33-6.33-.71-2.78-1.07-4.26-1.04-5.06.01-.27-.06-.63-.14-1.01-.11-.54-.24-1.15-.19-1.82.15-2.14 1.94-4.14 5.45-6.11 1.66-.93 3.54-1.44 5.29-1.44 1.31 0 2.52.27 3.62.81 1.35.66 3.59 2.91 9.04 14.45l.05.11c1.09 2.31 2.58 5.47 1.81 8.72-.53 2.25-2.12 4.3-4.47 5.76-1.97 1.22-4.12 1.87-6.2 2.49-1.7.51-3.65 1.1-5.68 1.1z" fill="url(#e)"/><path d="M98.47 90.75c1.02 0 2.03.2 2.95.66 2.46 1.21 7.23 11.38 8.4 13.86 1.15 2.44 2.33 5.11 1.71 7.73-.48 2.05-2.02 3.72-3.8 4.82-1.79 1.11-3.83 1.72-5.84 2.33-1.72.52-3.47 1.04-5.26 1.04-.14 0-.29 0-.43-.01-1.94-.1-3.95-.98-4.87-2.69-1.16-2.14-.32-4.76.54-7.04.51-1.36-2.37-10.3-2.31-11.77.04-.94-.4-1.88-.33-2.79.15-2.12 2.99-3.95 4.69-4.9 1.37-.76 2.98-1.24 4.55-1.24m0-3c-2.03 0-4.11.57-6.02 1.63-3.99 2.23-6.03 4.62-6.22 7.31-.06.87.09 1.62.22 2.23.05.23.11.54.11.65-.04.96.25 2.2 1.09 5.48.42 1.65 1.18 4.64 1.27 5.72-.81 2.17-2.03 5.84-.23 9.15 1.34 2.47 4.16 4.09 7.36 4.25.19.01.39.01.58.01 2.25 0 4.31-.62 6.13-1.17 2.07-.62 4.42-1.33 6.55-2.65 2.7-1.67 4.52-4.05 5.14-6.69.88-3.76-.8-7.33-1.92-9.7l-.05-.1c-5.6-11.87-7.99-14.3-9.74-15.17a9.792 9.792 0 0 0-4.27-.95z" fill="#397A26"/><linearGradient id="f" x1="37.866" x2="54.969" y1="122.4" y2="105.93" gradientTransform="rotate(-36.621 42.606 106.583)" gradientUnits="userSpaceOnUse"><stop stop-color="#92C755" offset="0"/><stop stop-color="#87BD4E" offset=".221"/><stop stop-color="#689F38" offset=".922"/></linearGradient><path d="M41.61 109.85c-1.7 1.74-3.51 3.82-3.3 6.24.17 1.93 1.66 3.55 3.4 4.4s3.71 1.1 5.63 1.32c2.09.25 4.2.49 6.28.19s4.15-1.23 5.41-2.91c1.61-2.16 1.59-5.08 1.51-7.78-.09-2.74-.41-13.96-2.19-16.06-1.69-1.99-4.53-2.71-7.13-2.44-1.94.2-5.27.75-6.25 2.63-.42.81-.4 1.84-.81 2.69-.63 1.33-1.54 10.68-2.55 11.72z" fill="url(#f)"/><linearGradient id="g" x1="77.242" x2="94.345" y1="149.45" y2="132.99" gradientTransform="rotate(-60.079 64.626 112.647)" gradientUnits="userSpaceOnUse"><stop stop-color="#92C755" offset="0"/><stop stop-color="#87BD4E" offset=".221"/><stop stop-color="#689F38" offset=".922"/></linearGradient><path d="M91.86 111.47c-.86 2.27-1.7 4.9-.54 7.04.92 1.7 2.94 2.59 4.87 2.69 1.94.1 3.84-.47 5.7-1.03 2.01-.61 4.05-1.22 5.84-2.33s3.32-2.78 3.8-4.82c.62-2.62-.56-5.3-1.71-7.73-1.17-2.48-5.94-12.65-8.4-13.86-2.34-1.16-5.23-.68-7.51.6-1.7.95-4.54 2.78-4.69 4.9-.06.91.37 1.85.33 2.79-.06 1.44 2.83 10.39 2.31 11.75z" fill="url(#g)"/><linearGradient id="h" x1="35.231" x2="35.231" y1="30.005" y2="91.433" gradientUnits="userSpaceOnUse"><stop stop-color="#7BBF33" offset="0"/><stop stop-color="#74B632" offset=".274"/><stop stop-color="#639E30" offset=".72"/><stop stop-color="#558B2F" offset="1"/></linearGradient><path d="M60.67 80.25c-6.76-9.58-8.02-28.7-7.42-33.69.36-1.16.58-2.36.59-3.58.07-7.83-5.74-14.4-13.31-15.63a8.768 8.768 0 0 0-10.99-.3L24.57 27c-8.73-.07-16.25 6.95-16.01 15.6C9 58.22 28.24 56.15 36.18 57.79c-2.76 50.46 32.71 34.12 24.49 22.46z" fill="url(#h)"/><linearGradient id="i" x1="105.24" x2="123.56" y1="97.72" y2="97.72" gradientTransform="matrix(.5883 .7654 -.7207 .554 115.54 -44.979)" gradientUnits="userSpaceOnUse"><stop stop-color="#92C755" offset="0"/><stop stop-color="#87BD4E" offset=".221"/><stop stop-color="#689F38" offset=".922"/></linearGradient><path d="M113.82 102.96c-2.19 0-4.41-.44-6.43-1.28l-.12-.05-.11-.07c-.86-.54-5.14-3.41-5.12-6.43 0-.84.32-2.04 1.82-2.96 1.14-.7 2.37-1.06 3.68-1.06 2.53 0 4.61 1.37 5.38 1.95l6.43 1.56c.79.19 2.65.64 3.34 2.32.45 1.09.21 2.41-.59 3.37-.63.75-1.45 1.16-2.17 1.46-1.91.79-3.96 1.19-6.11 1.19z" fill="url(#i)"/><path d="M107.54 92.61c2.62 0 4.7 1.83 4.7 1.83 2.25.54 4.5 1.09 6.75 1.63.9.22 1.95.55 2.31 1.43.26.62.06 1.35-.36 1.84-.41.49-1 .79-1.59 1.04-1.73.72-3.62 1.08-5.53 1.08-1.98 0-3.99-.39-5.86-1.17 0 0-7.1-4.5-3.31-6.85.98-.6 1.97-.83 2.89-.83m0-3a8.4 8.4 0 0 0-4.47 1.28c-2.19 1.36-2.53 3.23-2.53 4.23-.02 3.61 4.06 6.59 5.82 7.7l.22.14.24.1c2.2.91 4.62 1.4 7.01 1.4 2.35 0 4.6-.44 6.69-1.32.83-.35 1.89-.87 2.73-1.88 1.18-1.41 1.5-3.29.83-4.91-.98-2.38-3.45-2.98-4.38-3.2l-6.13-1.49c-1.07-.75-3.3-2.05-6.03-2.05z" fill="#397A26"/><circle cx="35.07" cy="35.96" r="6.25" stroke="#fff" stroke-miterlimit="10" stroke-width="2.378"/><defs><path id="j" d="M58.32 75.98c-6.76-9.58-5.67-24.43-5.07-29.42.36-1.16.58-2.36.59-3.58.07-7.83-5.74-14.4-13.31-15.63a8.768 8.768 0 0 0-10.99-.3L24.57 27c-8.73-.07-16.25 6.95-16.01 15.6C9 58.22 28.24 56.15 36.18 57.79 33.8 96.95 73.17 99 73.17 99s-6.63-11.36-14.85-23.02z"/></defs><path d="M7.89 47.2c3.87 5.58 13.94 6.66 20.61 2.17" fill="none" stroke="#397A26" stroke-linecap="round" stroke-linejoin="round" stroke-miterlimit="10" stroke-width="2.479"/><path d="M77.92 57c-3.5-.75-18.37-4.08-30.75 4.25-13.75 9.25-10.43 24.03-9.3 27.87 2.81 9.58 12.1 15.12 21.68 17.96 6.71 1.99 13.57 2.66 18.45 2.45 6.35-.27 14.08-1.3 20.95-3.04 8.94-2.26 16.44-5.71 17.58-10.2 1.24-4.94 1.85-30.62-38.61-39.29z" fill="#33691E"/><linearGradient id="k" x1="86.115" x2="71.698" y1="57.517" y2="106.54" gradientUnits="userSpaceOnUse"><stop stop-color="#579155" offset="0"/><stop stop-color="#6BA139" offset="1"/></linearGradient><path d="M43.62 71.65S50.39 51.79 80 56.34c31.65 4.87 35.02 26.66 34.81 34.88-.22 8.78-21.67 13.53-35.72 14.19-14.04.65-48.85-5.24-35.47-33.76z" fill="url(#k)"/><defs><path id="l" d="M43.62 71.65s7.97-20.43 37.39-14.85c32.65 6.2 34 26.19 33.79 34.42-.22 8.78-21.67 13.53-35.72 14.19-14.03.65-48.84-5.24-35.46-33.76z"/></defs><clipPath id="m"><use xlink:href="#l"/></clipPath><g clip-path="url(#m)"><linearGradient id="n" x1="74.789" x2="66.472" y1="56.301" y2="104.74" gradientUnits="userSpaceOnUse"><stop stop-color="#2E7D32" offset="0"/><stop stop-color="#1B5E20" offset="1"/></linearGradient><path d="M75.4 70.72c.41-.52 1.18-.65 1.74-.28l.47.31c.93-5.65 2.33-11.27 4.21-16.73.06-.04.12-.09.17-.14.34-.33.43-.78.29-1.18.12-.32.23-.64.35-.96.16-.43.04-.91-.31-1.22s-.87-.39-1.32-.21a2.27 2.27 0 0 0-1.38 2.57 103.81 103.81 0 0 0-4.56 17.99c-3.13.37-6.2 1.07-9.18 2.07-.52 1-1.04 2.01-1.55 3.02 3.81-1.53 7.82-2.49 11.91-2.88.14-.01.27-.04.39-.1l-.97-.65a1.1 1.1 0 0 1-.26-1.61z" fill="url(#n)"/><linearGradient id="o" x1="56.996" x2="48.679" y1="53.245" y2="101.68" gradientUnits="userSpaceOnUse"><stop stop-color="#2E7D32" offset="0"/><stop stop-color="#1B5E20" offset="1"/></linearGradient><path d="M54.79 55.97c-.21-.61-.91-.92-1.56-.72-.65.21-1.02.87-.81 1.47a61.29 61.29 0 0 0 4.31 9.78c.75-.34 1.51-.68 2.27-1a60.005 60.005 0 0 1-4.21-9.53z" fill="url(#o)"/><linearGradient id="p" x1="63.428" x2="55.111" y1="54.35" y2="102.79" gradientUnits="userSpaceOnUse"><stop stop-color="#2E7D32" offset="0"/><stop stop-color="#1B5E20" offset="1"/></linearGradient><path d="M60.17 67.53c-.76.32-1.52.65-2.28.99 1.3 2.17 2.73 4.27 4.29 6.3.41-.81.83-1.61 1.24-2.42-1.16-1.57-2.25-3.2-3.25-4.87z" fill="url(#p)"/><linearGradient id="q" x1="84.462" x2="76.145" y1="57.962" y2="106.4" gradientUnits="userSpaceOnUse"><stop stop-color="#2E7D32" offset="0"/><stop stop-color="#1B5E20" offset="1"/></linearGradient><path d="M77.61 70.75c-.07.44-.16.88-.23 1.31a1.2 1.2 0 0 1-.74.92l9.29 6.19c.04.02.09.05.13.08l-.03-2.9-8.42-5.6z" fill="url(#q)"/><linearGradient id="r" x1="106.14" x2="97.823" y1="61.684" y2="110.12" gradientUnits="userSpaceOnUse"><stop stop-color="#2E7D32" offset="0"/><stop stop-color="#1B5E20" offset="1"/></linearGradient><path d="M112.02 59.47c-.24-.44-.76-.68-1.29-.59l-1.17.19h-.02c-.67.12-1.13.71-1.03 1.34.01.07.03.14.06.21-3.01 2.84-6.16 5.57-9.4 8.18.41.68.82 1.36 1.22 2.04 3.97-3.18 7.78-6.52 11.4-10.03.39-.35.48-.9.23-1.34z" fill="url(#r)"/><linearGradient id="s" x1="95.982" x2="87.665" y1="59.94" y2="108.38" gradientUnits="userSpaceOnUse"><stop stop-color="#2E7D32" offset="0"/><stop stop-color="#1B5E20" offset="1"/></linearGradient><path d="M88.51 76.69l.03 2.78c.19-.1.35-.2.47-.28 3.23-2.15 6.37-4.42 9.43-6.8-.41-.68-.81-1.36-1.22-2.04-2.83 2.2-5.74 4.32-8.71 6.34z" fill="url(#s)"/><linearGradient id="t" x1="78.795" x2="70.478" y1="56.989" y2="105.42" gradientUnits="userSpaceOnUse"><stop stop-color="#2E7D32" offset="0"/><stop stop-color="#1B5E20" offset="1"/></linearGradient><path d="M77.38 72.06c.07-.44.16-.88.23-1.31l-.47-.31c-.55-.37-1.33-.24-1.74.28-.41.53-.29 1.25.26 1.62l.97.65c.39-.17.68-.52.75-.93z" fill="url(#t)"/><linearGradient id="u" x1="50.973" x2="42.656" y1="52.211" y2="100.65" gradientUnits="userSpaceOnUse"><stop stop-color="#2E7D32" offset="0"/><stop stop-color="#1B5E20" offset="1"/></linearGradient><path d="M38.27 77.83c-.35.28-.68.55-1.01.71-.61.3-.87 1-.56 1.57.25.46.79.69 1.31.6.12-.02.24-.06.35-.11.59-.29 1.07-.67 1.55-1.05a84.915 84.915 0 0 1 17.98-11.01c-.4-.67-.79-1.34-1.16-2.02-6.61 3-12.8 6.78-18.46 11.31z" fill="url(#u)"/><linearGradient id="v" x1="60.703" x2="52.386" y1="53.882" y2="102.32" gradientUnits="userSpaceOnUse"><stop stop-color="#2E7D32" offset="0"/><stop stop-color="#1B5E20" offset="1"/></linearGradient><path d="M59 65.5c-.76.32-1.52.66-2.27 1 .37.68.76 1.36 1.16 2.02.75-.34 1.51-.67 2.28-.99-.41-.66-.79-1.34-1.17-2.03z" fill="url(#v)"/><linearGradient id="w" x1="62.588" x2="54.27" y1="54.206" y2="102.64" gradientUnits="userSpaceOnUse"><stop stop-color="#2E7D32" offset="0"/><stop stop-color="#1B5E20" offset="1"/></linearGradient><path d="M64 76.06c-.45.08-.92-.08-1.2-.43-.21-.26-.41-.54-.61-.8-5.13 10.13-9.8 20.55-13.92 31.03-.24.61.09 1.27.73 1.47.21.07.42.08.63.04.43-.07.81-.35.97-.76 4.07-10.35 8.68-20.63 13.74-30.64-.02.01-.04.02-.06.02-.1.03-.19.06-.28.07z" fill="url(#w)"/><linearGradient id="x" x1="67.274" x2="58.956" y1="55.01" y2="103.45" gradientUnits="userSpaceOnUse"><stop stop-color="#2E7D32" offset="0"/><stop stop-color="#1B5E20" offset="1"/></linearGradient><path d="M64.24 73.5c-.28-.36-.54-.73-.81-1.1-.42.81-.83 1.61-1.24 2.42.21.27.4.54.61.8.28.35.75.51 1.2.43.09-.02.18-.04.27-.08.02-.01.04-.02.06-.02.51-1.01 1.03-2.02 1.55-3.02-.55.19-1.1.37-1.64.57z" fill="url(#x)"/><linearGradient id="y" x1="93.534" x2="85.217" y1="59.52" y2="107.96" gradientUnits="userSpaceOnUse"><stop stop-color="#2E7D32" offset="0"/><stop stop-color="#1B5E20" offset="1"/></linearGradient><path d="M87.62 79.72c-.7.04-1.23-.25-1.56-.47l.35 31.17c.01.64.57 1.14 1.25 1.12.06 0 .13-.01.19-.02.6-.1 1.05-.6 1.04-1.18l-.34-30.88c-.19.1-.42.19-.69.23-.08.02-.16.03-.24.03z" fill="url(#y)"/><linearGradient id="z" x1="90.526" x2="82.208" y1="59.003" y2="107.44" gradientUnits="userSpaceOnUse"><stop stop-color="#2E7D32" offset="0"/><stop stop-color="#1B5E20" offset="1"/></linearGradient><path d="M87.6 77.3c-.02.01-.05.03-.08.05-.05-.03-.1-.07-.13-.08l-1.38-.92.03 2.9c.33.22.87.52 1.56.47.08-.01.16-.01.24-.03.26-.05.49-.13.69-.23l-.03-2.78c-.29.21-.59.42-.9.62z" fill="url(#z)"/><linearGradient id="A" x1="111.13" x2="102.81" y1="62.541" y2="110.98" gradientUnits="userSpaceOnUse"><stop stop-color="#2E7D32" offset="0"/><stop stop-color="#1B5E20" offset="1"/></linearGradient><path d="M113.43 99.82c.24.48.79.73 1.33.63.11-.02.21-.05.32-.1.62-.28.9-.98.61-1.55-4.69-9.47-9.84-18.84-15.29-27.96-.65.52-1.3 1.03-1.95 1.54 5.34 8.96 10.38 18.16 14.98 27.44z" fill="url(#A)"/><linearGradient id="B" x1="100.51" x2="92.19" y1="60.717" y2="109.15" gradientUnits="userSpaceOnUse"><stop stop-color="#2E7D32" offset="0"/><stop stop-color="#1B5E20" offset="1"/></linearGradient><path d="M97.22 70.35c.41.68.82 1.36 1.22 2.04.65-.51 1.31-1.02 1.95-1.54-.41-.68-.81-1.36-1.22-2.04-.64.52-1.29 1.03-1.95 1.54z" fill="url(#B)"/></g></svg>