<svg viewBox="0 0 128 128" width="128" height="128" xmlns="http://www.w3.org/2000/svg" xmlns:xlink="http://www.w3.org/1999/xlink"><defs><path id="a" d="M4 4h120v120H4z"/></defs><clipPath id="b"><use xlink:href="#a"/></clipPath><radialGradient id="c" cx="63.654" cy="49.111" r="34.55" gradientUnits="userSpaceOnUse"><stop stop-color="#6D4C41" offset="0"/><stop stop-color="#543930" offset="1"/></radialGradient><path d="M83.96 68.68c-.71 0-1.41.04-2.09.11 0-.07.01-.13.01-.2 0-11.02-8.94-19.96-19.96-19.96s-19.96 8.94-19.96 19.96c0 .07.01.13.01.2C31.4 69.92 23.29 79.28 24.2 90.33c.8 9.77 8.85 15.78 18.63 16.38 9.59.59 18.61-3.58 21.16-12.21.24-.82-.24-.82 0 0 2.45 8.27 10.95 12.28 20.03 12.25 10.46-.04 19.31-6.57 19.87-17.02.62-11.52-8.54-21.05-19.93-21.05z" clip-path="url(#b)" fill="url(#c)"/><path d="M83.96 65.87c-.71 0-1.41.04-2.09.11 0-.07.01-.13.01-.2 0-11.02-8.94-19.96-19.96-19.96s-19.96 8.94-19.96 19.96c0 .07.01.13.01.2C31.4 67.1 23.29 76.46 24.2 87.51c.8 9.77 8.85 17.64 18.63 18.24 9.59.59 18.61-3.68 21.16-12.32.24-.82-.24-.82 0 0 2.45 8.27 10.95 12.38 20.03 12.35 10.46-.04 19.31-8.43 19.87-18.88.62-11.5-8.54-21.03-19.93-21.03z" clip-path="url(#b)" fill="none" stroke="#402720" stroke-miterlimit="10" stroke-width="3"/><g clip-path="url(#b)"><path d="M76.86 94.63c-6.52-.1-11.73-5.88-11.62-12.88.11-6.89 5.42-12.5 11.84-12.5l68.12 1.09c3.12.05 6.06 1.41 8.25 3.83 2.22 2.44 3.42 5.66 3.36 9.05-.11 6.89-5.42 12.5-11.84 12.5l-68.11-1.09z" fill="#E59600"/><path d="M77.09 70.75h.15l9.16.15 49.62.8 9.16.15c5.69.09 10.24 5.18 10.14 11.35-.1 6.08-4.74 11.02-10.35 11.02h-.15l-9.16-.15-49.62-.8-9.16-.15c-2.71-.04-5.25-1.23-7.17-3.34-1.96-2.16-3.02-5.01-2.97-8.02.1-6.06 4.74-11.01 10.35-11.01m0-3c-7.24 0-13.22 6.24-13.34 13.98-.13 7.8 5.77 14.28 13.09 14.4l9.16.15 49.62.8 9.16.15h.2c7.24 0 13.22-6.24 13.34-13.98.13-7.8-5.77-14.28-13.09-14.4l-9.16-.15-49.62-.8-9.16-.15h-.2z" fill="#CC8600"/><linearGradient id="d" x1="109.19" x2="109.19" y1="-8.234" y2="95.157" gradientTransform="rotate(4.93 -220.921 71.043)" gradientUnits="userSpaceOnUse"><stop stop-color="#FFCA28" offset=".599"/><stop stop-color="#FFB300" offset="1"/></linearGradient><path d="M109.24 123.5c-1.11 0-2.23-.05-3.34-.14-10.55-.91-19.96-5.95-26.52-14.19-7.43-9.34-10.67-22.17-9.39-37.08 1.26-14.65 6.51-27.95 14.79-37.47 7.81-8.98 17.57-13.93 27.47-13.93.83 0 1.67.04 2.49.11 10.14.88 19.75 7.25 26.36 17.48 7.09 10.97 10.26 25.43 8.95 40.71-1.22 14.12-6.15 25.77-14.27 33.69-7.15 6.98-16.58 10.82-26.54 10.82z" fill="url(#d)"/><path d="M112.25 22.19c.79 0 1.58.03 2.36.1 9.68.83 18.87 6.96 25.23 16.8 6.91 10.69 10 24.81 8.71 39.77-1.19 13.75-5.97 25.08-13.83 32.75-6.87 6.7-15.92 10.4-25.49 10.4-1.07 0-2.15-.05-3.21-.14-10.13-.87-19.18-5.71-25.47-13.63-7.19-9.04-10.32-21.49-9.07-36.02 1.24-14.33 6.36-27.33 14.42-36.61 7.53-8.65 16.89-13.42 26.35-13.42m0-3c-20.69 0-41.01 20.93-43.75 52.77-2.85 33 16.32 51.09 37.27 52.9 1.15.1 2.31.15 3.47.15 19.85 0 39.62-14.7 42.31-45.88 2.86-33.18-15.12-57.96-36.68-59.81-.87-.09-1.75-.13-2.62-.13z" fill="#EDA600"/><path d="M80.86 63.21c1.37-1.31 4.29-3.04 9.14-2.13 4.86.91 6.95 3.59 7.75 5.3.35.76.09 1.51-.33 1.91-.39.38-1.37.61-2.31.06s-2.7-1.99-5.98-2.63c-3.29-.59-5.45.11-6.53.28-1.07.17-1.9-.4-2.13-.89-.24-.53-.21-1.32.39-1.9zM117.26 67.05c1.37-1.31 4.29-3.04 9.14-2.13 4.86.91 6.95 3.59 7.75 5.3.35.76.09 1.51-.33 1.91-.39.38-1.37.61-2.31.06s-2.7-1.99-5.98-2.63c-3.29-.59-5.45.11-6.53.28-1.07.17-1.9-.4-2.13-.89-.24-.52-.22-1.32.39-1.9z" fill="#6D4C41"/><radialGradient id="e" cx="-345.91" cy="103.48" r="19.862" gradientTransform="rotate(-5.285 -128.178 -5018.945)" gradientUnits="userSpaceOnUse"><stop stop-color="#EC407A" stop-opacity=".4" offset=".069"/><stop stop-color="#EC407A" stop-opacity=".15" offset=".547"/><stop stop-color="#FFB300" stop-opacity="0" offset=".778"/><stop stop-color="#FFB300" stop-opacity="0" offset=".971"/></radialGradient><circle cx="126.79" cy="101.76" r="17.82" fill="url(#e)"/><radialGradient id="f" cx="-387.26" cy="92.643" r="19.862" gradientTransform="rotate(-5.285 -128.178 -5018.945)" gradientUnits="userSpaceOnUse"><stop stop-color="#EC407A" stop-opacity=".4" offset=".069"/><stop stop-color="#EC407A" stop-opacity=".15" offset=".547"/><stop stop-color="#FFB300" stop-opacity="0" offset=".778"/><stop stop-color="#FFB300" stop-opacity="0" offset=".971"/></radialGradient><circle cx="84.63" cy="94.78" r="17.82" fill="url(#f)"/><path d="M78.93 73.42c-.58.08-1.01 1.53-.5 4.09.61 3.09 2.76 5.43 4.71 6.39 2.44 1.21 7.29 2.04 11.14-.66 4.43-3.09 3.12-5.65 1.52-5.07-1.63.6-4.58 1.23-7.01 1.08-2.53-.16-5.26-1.38-7.02-3-1.3-1.18-2.21-2.92-2.84-2.83zM115.06 79.9c-.58.08-1.01 1.53-.5 4.09.61 3.09 2.76 5.43 4.71 6.39 2.44 1.21 7.29 2.04 11.14-.66 4.43-3.09 3.12-5.65 1.52-5.07-1.63.6-4.58 1.23-7.01 1.08-2.53-.16-5.26-1.38-7.02-3-1.3-1.18-2.21-2.91-2.84-2.83z" fill="#444"/><path d="M97.05 93.27c2.84.21 2.82-1.48 3.75-.45 1.81 2 2.21 3.31 1.86 3.95-.53.97-1.53.97-4.44.35s-5.9-1.87-5.99-2.97c-.06-.74.11-1.99 1.18-3.24.53-.61.81 2.15 3.64 2.36z" fill="#E59600"/><radialGradient id="g" cx="-64.184" cy="84.247" r="9.38" gradientTransform="matrix(-.7326 -.1212 -.0816 .6179 55.012 43.89)" gradientUnits="userSpaceOnUse"><stop stop-color="#543930" offset="0"/><stop stop-color="#543930" offset=".992"/></radialGradient><path d="M99.55 100.91c-.22-.06-5.9-1.97-7.22.96-1.2 2.66 3.44 3.95 3.44 3.95s-4.53-.9-5.21 2.39c-.69 3.28 6.45 4.78 6.45 4.78" fill="none" stroke="url(#g)" stroke-linecap="round" stroke-linejoin="round" stroke-miterlimit="10" stroke-width="3"/><radialGradient id="h" cx="110.64" cy="46.046" r="46.152" gradientTransform="matrix(1 0 0 .8642 0 6.253)" gradientUnits="userSpaceOnUse"><stop stop-color="#6D4C41" offset="0"/><stop stop-color="#543930" offset="1"/></radialGradient><path d="M103 14c-13 3-19-4-19-4-8.34 4.16-8.25 17.64-8.25 17.64s-8.46-.63-12.08 6.69c-3.78 7.65-.45 13.51-.45 13.51S55.09 53 58.28 62.4c2.12 6.24 7.84 12.11 7.84 12.11 1.36 11.17 3.17 16.62 3.17 16.62S70 67 73 62c0 0 4.71-.44 15.74-6.76 7.46-4.27 9.55-9.28 17.93-11.16C119.42 41.21 124 51 124 51s20.07-1.83 23.63 14.56c1.47 6.74 2.09 18.01 2.89 24.86-.07-.6 4.38-8.01 5.16-15.54.29-2.8 4.52-9.61 5.79-14.68 2.77-11.03-.87-19.72-2.58-22.31-3.14-4.75-10.64-11.28-16.25-10.32C142 24 135.39 15.69 130 13c-14-7-22.64-.01-27 1z" fill="url(#h)"/><path d="M160.15 37.07c-3.12-4.71-10.21-11.09-16.36-11.09h-.05c-1.7-4.42-7.84-11.71-13.06-14.32-11.76-5.88-20.08-2.34-25.05-.23-1.18.5-2.2.94-2.96 1.11-11.87 2.74-17.3-3.26-17.52-3.51l-.76-.89-1.05.52c-7.43 3.71-8.78 13.68-9.03 17.49-2.86.18-8.9 1.31-11.97 7.51-3.09 6.24-1.84 11.4-.97 13.67-2.95 2.4-6.61 7.54-4.82 14.41h3.12c-2.61-8.02 4.08-12.46 4.37-12.65l1.21-.77-.71-1.24c-.03-.05-2.9-5.24.49-12.1 3.12-6.3 10.32-5.88 10.62-5.86l1.62.12-.01-1.63c0-.12 0-11.55 6.52-15.77 2.23 1.93 8.57 6.14 19.57 3.6 1.02-.24 2.15-.72 3.46-1.27 4.78-2.03 12.01-5.11 22.54.15 5.12 2.56 11.3 10.51 11.84 13.5l.26 1.46 1.46-.25c4.65-.79 11.72 5.1 14.74 9.67.06.08 5.53 8.58 2.38 21.12-.61 2.44-2.01 5.43-3.24 8.06-1.3 2.79-2.43 5.2-2.59 6.82-.55 5.29-3.08 10.7-4.29 13.29-.73 1.57-.93 1.99-.86 2.57l2.98-.35c.03.26-.02.44-.03.45.06-.18.36-.83.63-1.4 1.29-2.75 3.96-8.46 4.56-14.26.12-1.12 1.24-3.53 2.33-5.86 1.29-2.76 2.75-5.88 3.43-8.6 2.76-11.02-.63-20.17-2.8-23.47z" fill="#402720"/></g><g clip-path="url(#b)"><path d="M-18.4 95.72c-6.42 0-11.73-5.61-11.84-12.5-.11-7 5.1-12.77 11.62-12.88l68.12-1.09c6.42 0 11.73 5.61 11.84 12.5.05 3.39-1.14 6.6-3.36 9.05-2.2 2.42-5.13 3.78-8.25 3.83l-68.13 1.09z" fill="#E59600"/><path d="M49.49 70.75c5.61 0 10.25 4.95 10.34 11.02.05 3.01-1.01 5.86-2.97 8.02-1.92 2.11-4.46 3.29-7.17 3.34l-9.16.15-49.62.8-9.16.15h-.15c-5.61 0-10.25-4.94-10.35-11.02-.05-3.01 1.01-5.86 2.97-8.02 1.92-2.11 4.46-3.29 7.17-3.34l9.16-.15 49.62-.8 9.16-.15h.16m0-3h-.2l-9.16.15-49.62.8-9.16.15c-7.33.12-13.22 6.6-13.09 14.4.12 7.73 6.11 13.98 13.34 13.98h.2l9.16-.15 49.62-.8 9.16-.15c7.33-.12 13.22-6.6 13.09-14.4-.12-7.73-6.1-13.98-13.34-13.98z" fill="#CC8600"/><linearGradient id="i" x1="202.29" x2="202.29" y1="-16.262" y2="87.128" gradientTransform="scale(-1 1) rotate(4.928 -330.943 -2485.76)" gradientUnits="userSpaceOnUse"><stop stop-color="#FFCA28" offset=".599"/><stop stop-color="#FFB300" offset="1"/></linearGradient><path d="M17.34 123.5c-9.96 0-19.39-3.84-26.54-10.82-8.12-7.92-13.06-19.58-14.27-33.69-1.32-15.28 1.86-29.74 8.95-40.71C-7.91 28.05 1.69 21.67 11.84 20.8c.82-.07 1.66-.11 2.49-.11 9.91 0 19.66 4.95 27.47 13.93 8.27 9.51 13.52 22.82 14.79 37.47 1.29 14.92-1.96 27.74-9.39 37.08-6.55 8.24-15.97 13.28-26.52 14.19-1.11.1-2.23.14-3.34.14z" fill="url(#i)"/><path d="M14.33 22.19c9.47 0 18.82 4.76 26.34 13.41 8.07 9.28 13.19 22.28 14.42 36.61 1.25 14.53-1.88 26.98-9.07 36.02-6.29 7.91-15.34 12.75-25.47 13.63-1.06.09-2.14.14-3.21.14-9.57 0-18.63-3.69-25.49-10.4-7.86-7.67-12.64-18.99-13.83-32.75-1.29-14.95 1.8-29.08 8.71-39.77 6.36-9.84 15.56-15.97 25.23-16.8.79-.05 1.58-.09 2.37-.09m0-3c-.87 0-1.75.04-2.62.11-21.56 1.86-39.54 26.64-36.67 59.81C-22.28 110.3-2.51 125 17.34 125c1.16 0 2.31-.05 3.47-.15 20.95-1.81 40.12-19.9 37.27-52.9-2.74-31.83-23.07-52.76-43.75-52.76z" fill="#EDA600"/><path d="M45.72 63.21c-1.37-1.31-4.29-3.04-9.14-2.13-4.86.91-6.95 3.59-7.75 5.3-.35.76-.09 1.51.33 1.91.39.38 1.37.61 2.31.06s2.7-1.99 5.98-2.63c3.29-.59 5.45.11 6.53.28 1.07.17 1.9-.4 2.13-.89.23-.53.21-1.32-.39-1.9zM9.32 67.05c-1.37-1.31-4.29-3.04-9.14-2.13-4.86.91-6.95 3.59-7.75 5.3-.35.76-.09 1.51.33 1.91.39.38 1.37.61 2.31.06s2.7-1.99 5.98-2.63c3.29-.59 5.45.11 6.53.28 1.07.17 1.9-.4 2.13-.89.24-.52.22-1.32-.39-1.9z" fill="#6D4C41"/><radialGradient id="j" cx="-252.86" cy="112.09" r="19.862" gradientTransform="scale(-1 1) rotate(-5.285 -238.199 -2634.989)" gradientUnits="userSpaceOnUse"><stop stop-color="#EC407A" stop-opacity=".4" offset=".069"/><stop stop-color="#EC407A" stop-opacity=".15" offset=".547"/><stop stop-color="#FFB300" stop-opacity="0" offset=".778"/><stop stop-color="#FFB300" stop-opacity="0" offset=".971"/></radialGradient><circle cx="-.21" cy="101.76" r="17.82" fill="url(#j)"/><radialGradient id="k" cx="-294.2" cy="101.25" r="19.862" gradientTransform="scale(-1 1) rotate(-5.285 -238.199 -2634.989)" gradientUnits="userSpaceOnUse"><stop stop-color="#EC407A" stop-opacity=".4" offset=".069"/><stop stop-color="#EC407A" stop-opacity=".15" offset=".547"/><stop stop-color="#FFB300" stop-opacity="0" offset=".778"/><stop stop-color="#FFB300" stop-opacity="0" offset=".971"/></radialGradient><circle cx="41.95" cy="94.78" r="17.82" fill="url(#k)"/><path d="M47.65 73.42c.58.08 1.01 1.53.5 4.09-.61 3.09-2.76 5.43-4.71 6.39-2.44 1.2-7.29 2.03-11.14-.66-4.43-3.09-3.12-5.65-1.52-5.07 1.63.6 4.58 1.23 7.01 1.08 2.53-.16 5.26-1.38 7.02-3 1.29-1.18 2.21-2.92 2.84-2.83zM11.52 79.9c.58.08 1.01 1.53.5 4.09-.61 3.09-2.76 5.43-4.71 6.39-2.44 1.21-7.29 2.04-11.14-.66-4.43-3.09-3.12-5.65-1.52-5.07 1.63.6 4.58 1.23 7.01 1.08 2.53-.16 5.26-1.38 7.02-3 1.29-1.18 2.21-2.91 2.84-2.83z" fill="#444"/><path d="M29.52 93.27c-2.84.21-2.82-1.48-3.75-.45-1.81 2-2.21 3.31-1.86 3.95.53.97 1.53.97 4.44.35s5.9-1.87 5.99-2.97c.06-.74-.11-1.99-1.18-3.24-.52-.61-.8 2.15-3.64 2.36z" fill="#E59600"/><radialGradient id="l" cx="-189.02" cy="60.164" r="9.38" gradientTransform="matrix(.7326 -.1212 .0816 .6179 165.02 43.89)" gradientUnits="userSpaceOnUse"><stop stop-color="#543930" offset="0"/><stop stop-color="#543930" offset=".992"/></radialGradient><path d="M27.03 100.91c.22-.06 5.9-1.97 7.22.96 1.2 2.66-3.44 3.95-3.44 3.95s4.53-.9 5.21 2.39c.69 3.28-6.45 4.78-6.45 4.78" fill="none" stroke="url(#l)" stroke-linecap="round" stroke-linejoin="round" stroke-miterlimit="10" stroke-width="3"/><radialGradient id="m" cx="204.09" cy="46.046" r="46.152" gradientTransform="matrix(-1 0 0 .8642 220.03 6.253)" gradientUnits="userSpaceOnUse"><stop stop-color="#6D4C41" offset="0"/><stop stop-color="#543930" offset="1"/></radialGradient><path d="M23.58 14c13 3 19-4 19-4 8.34 4.16 8.25 17.64 8.25 17.64s8.46-.63 12.08 6.69c3.78 7.65.45 13.51.45 13.51S71.49 53 68.3 62.4c-2.12 6.24-7.84 12.11-7.84 12.11-1.36 11.17-3.17 16.62-3.17 16.62S56.58 67 53.58 62c0 0-4.71-.44-15.74-6.76-7.46-4.27-9.55-9.28-17.93-11.16C7.16 41.21 2.58 51 2.58 51s-20.07-1.83-23.63 14.56c-1.47 6.74-2.09 18.01-2.89 24.86.07-.6-4.38-8.01-5.16-15.54-.29-2.8-4.52-9.61-5.79-14.68-2.77-11.03.87-19.72 2.58-22.31 3.14-4.75 10.64-11.28 16.25-10.32C-15.42 24-8.81 15.69-3.42 13c14-7 22.64-.01 27 1z" fill="url(#m)"/><path d="M65.22 47.34c.87-2.27 2.12-7.44-.97-13.67-3.07-6.21-9.12-7.34-11.97-7.51-.25-3.82-1.6-13.79-9.03-17.49l-1.05-.53-.76.89c-.22.25-5.65 6.25-17.52 3.51-.76-.17-1.78-.61-2.96-1.11-4.97-2.12-13.29-5.65-25.05.23-5.22 2.61-11.37 9.91-13.06 14.32h-.05c-6.15 0-13.25 6.38-16.36 11.09-2.18 3.3-5.56 12.45-2.79 23.51.68 2.72 2.14 5.84 3.43 8.6 1.09 2.33 2.21 4.74 2.33 5.86.6 5.8 3.28 11.51 4.56 14.26.27.57.57 1.22.63 1.4 0-.01-.06-.19-.03-.45l2.98.35c.07-.58-.13-1-.86-2.57-1.22-2.6-3.75-8-4.29-13.29-.17-1.62-1.29-4.03-2.59-6.82-1.23-2.64-2.62-5.62-3.24-8.06-3.15-12.55 2.33-21.04 2.38-21.12 3.02-4.57 10.09-10.47 14.74-9.67l1.46.25.26-1.46c.54-2.99 6.72-10.94 11.84-13.5C7.78 9.08 15 12.15 19.78 14.19c1.31.56 2.44 1.04 3.46 1.27 11 2.54 17.34-1.67 19.57-3.6 6.52 4.22 6.52 15.65 6.52 15.77l-.01 1.63 1.62-.12c.3-.02 7.51-.44 10.62 5.86 3.39 6.86.52 12.05.49 12.1l-.71 1.24 1.21.77c.29.18 7.08 4.68 4.32 12.81-.24.7-.53 1.4-.85 2.08h3.01v.61c.25-.57.48-1.14.68-1.73 2.53-7.43-1.38-13.01-4.49-15.54z" fill="#402720"/></g><g clip-path="url(#b)"><linearGradient id="n" x1="64.22" x2="64.22" y1="-4.38" y2="54.603" gradientUnits="userSpaceOnUse"><stop stop-color="#F48FB1" offset="0"/><stop stop-color="#EC407A" offset="1"/></linearGradient><path d="M64.22 70.89c-.66 0-1.28-.26-1.75-.73-1.16-1.17-2.64-2.66-4.33-4.36-8.42-8.45-22.51-22.58-26.83-29-2.03-3.03-3.26-5.96-3.76-8.95-.55-3.29-.52-7.96.77-10.97C31.37 9.75 37.53 5.5 44.79 5.5l.94.02c2.79.05 5.6.65 8.37 1.81 1.88.79 3.4 1.87 5 3.01.81.58 1.66 1.18 2.57 1.76.74.47 1.62.72 2.55.72s1.8-.25 2.54-.72c.91-.58 1.74-1.17 2.55-1.75 1.61-1.15 3.14-2.24 5.03-3.03 2.76-1.15 5.57-1.76 8.35-1.8l.96-.02c7.26 0 13.42 4.25 16.47 11.38 1.29 3.01 1.32 7.68.77 10.97-.51 3.02-1.75 5.95-3.76 8.94-4.31 6.43-18.43 20.58-26.86 29.03-1.68 1.69-3.15 3.16-4.3 4.33-.47.48-1.09.74-1.75.74z" fill="url(#n)"/><path d="M44.79 7h.06c.15 0 .3.01.45.01.13 0 .26 0 .42.01 2.58.04 5.21.61 7.79 1.69 1.73.73 3.11 1.71 4.71 2.85.83.59 1.69 1.2 2.64 1.81.98.62 2.14.95 3.35.95s2.37-.33 3.35-.95c.94-.6 1.79-1.2 2.61-1.79 1.61-1.15 3-2.14 4.73-2.87 2.59-1.08 5.21-1.65 7.83-1.69.13 0 .26-.01.39-.01.15 0 .3 0 .45-.01h.06c6.74 0 12.24 3.82 15.09 10.47 1.16 2.72 1.16 7.16.67 10.12-.48 2.81-1.63 5.55-3.53 8.37-4.23 6.3-18.27 20.38-26.67 28.8-1.69 1.69-3.16 3.17-4.31 4.34a.941.941 0 0 1-1.36 0c-1.16-1.17-2.64-2.66-4.33-4.36-8.39-8.41-22.42-22.48-26.65-28.78-1.91-2.86-3.06-5.59-3.53-8.36-.5-2.98-.5-7.42.67-10.14C32.55 10.82 38.05 7 44.79 7m38.86-3h-.11c-.3.01-.58.01-.88.02-3.08.05-6.07.74-8.9 1.92-3.03 1.27-5.11 3.18-7.8 4.89-.51.32-1.12.48-1.74.48s-1.24-.16-1.74-.48c-2.7-1.71-4.77-3.62-7.8-4.89-2.83-1.18-5.82-1.87-8.9-1.92-.29-.01-.59-.01-.88-.02h-.11c-7.83 0-14.51 4.48-17.85 12.29-1.42 3.32-1.45 8.32-.87 11.81.58 3.47 2.04 6.61 3.99 9.54 5.26 7.82 24.32 26.44 31.33 33.57.77.79 1.79 1.18 2.81 1.18s2.04-.39 2.81-1.18c7.01-7.13 26.08-25.75 31.33-33.57 1.97-2.92 3.41-6.06 4-9.54.58-3.49.56-8.49-.87-11.81C98.15 8.48 91.47 4 83.65 4z" fill="#D92E67"/></g></svg>