<svg viewBox="0 0 128 128" width="128" height="128" xmlns="http://www.w3.org/2000/svg" xmlns:xlink="http://www.w3.org/1999/xlink"><defs><path id="a" d="M4 4h120v120H4z"/></defs><clipPath id="b"><use xlink:href="#a"/></clipPath><g clip-path="url(#b)"><linearGradient id="c" x1="64" x2="64" y1="97.5" y2="126.5" gradientUnits="userSpaceOnUse"><stop stop-color="#3B78E7" offset=".003"/><stop stop-color="#386EDA" offset=".223"/><stop stop-color="#3052B8" offset=".629"/><stop stop-color="#283593" offset="1"/></linearGradient><path d="M13.5 126.5v-5.51c0-17.29 27.21-23.46 50.5-23.49h.14c13.39 0 25.82 2.15 35.01 6.05 7 2.98 15.35 8.42 15.35 17.44v5.51h-101z" fill="url(#c)"/><path d="M64.14 99c24.28 0 48.86 7.55 48.86 21.99V125H15v-4.01c0-6.95 4.88-12.47 14.52-16.42C38.26 100.99 50.51 99.02 64 99h.14m0-3H64c-25.65.03-52 7.1-52 24.99V128h104v-7.01C116 104.13 89.9 96 64.14 96z" fill="#2E51B0"/><defs><path id="d" d="M12 120.99V127h104v-6.01C116 104.1 89.81 95.97 64 96c-25.65.03-52 7.1-52 24.99z"/></defs><path d="M97.64 109.25c-2.16 0-4.57-.41-7.18-1.21-6.56-2.02-12.95-2.67-13.93-2.76-.84-.38-1.19-3.82-.79-7.58 14.51.35 26.51 6.75 29.86 8.71-1.02 1.06-3.4 2.84-7.96 2.84z" fill="#283593"/><path d="M76.65 98.73c12.44.53 22.89 5.48 27.2 7.84-1.18.82-3.16 1.68-6.22 1.68-2.06 0-4.37-.39-6.88-1.16-6.05-1.86-11.95-2.58-13.73-2.76-.4-.8-.54-3.13-.37-5.6m-1.8-2.04s-1.19 8.86 1.47 9.58c0 0 6.88.59 13.84 2.73 2.93.9 5.4 1.25 7.47 1.25 7.09 0 9.44-4.12 9.44-4.12s-14.22-9.32-32.22-9.44z" fill="#2E51B0"/><path d="M30.2 109.23c-4.65 0-7.09-1.86-8.13-2.95 3.38-1.94 15.44-8.23 29.94-8.58.39 3.77.05 7.21-.79 7.58-.98.09-7.37.74-13.93 2.76-2.57.79-4.95 1.19-7.09 1.19z" fill="#283593"/><path d="M51.1 98.73c.17 2.46.03 4.8-.37 5.6-1.78.18-7.68.9-13.73 2.76-2.47.76-4.76 1.15-6.8 1.15-3.16 0-5.19-.92-6.39-1.77 4.34-2.33 14.84-7.21 27.29-7.74m1.8-2.04c-18 .12-32.31 9.31-32.31 9.31s2.42 4.23 9.61 4.23c2.05 0 4.5-.35 7.39-1.23 6.96-2.14 13.84-2.73 13.84-2.73 2.66-.73 1.47-9.58 1.47-9.58z" fill="#2E51B0"/><linearGradient id="e" x1="116.38" x2="106.54" y1="119" y2="119" gradientUnits="userSpaceOnUse"><stop stop-color="#666" offset=".004"/><stop stop-color="#606060" offset=".099"/><stop stop-color="#3F3F3F" offset=".68"/><stop stop-color="#333" offset="1"/></linearGradient><path d="M113.88 113.16l-5 .08-2.34 4.29 5.02 6.71s4.74 1.46 4.8-.25c.26-7.37-2.48-10.83-2.48-10.83z" fill="url(#e)"/><path fill="none" stroke="#BDBDBD" stroke-linecap="round" stroke-miterlimit="10" stroke-width="1.5" d="M113.88 113.16l-5 .09-2.59 4.75 6.28 8.82"/><path fill="none" stroke="#BDBDBD" stroke-linecap="round" stroke-miterlimit="10" d="M115.2 116.06l-3.63.14-1.24 1.8 5.76 8.75"/><linearGradient id="f" x1="11.576" x2="21.414" y1="119" y2="119" gradientUnits="userSpaceOnUse"><stop stop-color="#666" offset=".004"/><stop stop-color="#606060" offset=".099"/><stop stop-color="#3F3F3F" offset=".68"/><stop stop-color="#333" offset="1"/></linearGradient><path d="M14.08 113.16l5 .08 2.34 4.29-5.02 6.71s-4.74 1.46-4.8-.25c-.27-7.37 2.48-10.83 2.48-10.83z" fill="url(#f)"/><path fill="none" stroke="#BDBDBD" stroke-linecap="round" stroke-miterlimit="10" stroke-width="1.5" d="M14.08 113.16l5 .09 2.58 4.75-6.28 8.82"/><path fill="none" stroke="#BDBDBD" stroke-linecap="round" stroke-miterlimit="10" d="M12.76 116.06l3.62.14 1.24 1.8-5.75 8.75"/><path fill="#212121" d="M53.41 104.86h19.9l-9.32 17.08z"/><path d="M63.17 111.23c-4 0-7.26-3.22-7.26-7.17V91.08h16.16v12.98c0 3.96-3.26 7.17-7.26 7.17h-1.64z" fill="#7A4C32"/><path d="M71.08 92.08v11.98c0 3.4-2.81 6.17-6.26 6.17h-1.65c-3.45 0-6.26-2.77-6.26-6.17V92.08h14.17m2-2H54.92v13.98c0 4.51 3.7 8.17 8.26 8.17h1.65c4.56 0 8.26-3.66 8.26-8.17V90.08h-.01z" fill="#663B22"/><path d="M50.62 109.37a1.015 1.015 0 0 0-.93-.2l-8.67 2.61 6.74-13.68 6.45-.75 7.61 21.45-11.2-9.43z" fill="#3674CE"/><path d="M53.53 98.44l6.11 17.22-8.37-7.06c-.37-.31-.82-.47-1.29-.47-.19 0-.39.03-.58.08l-6.47 1.95 5.49-11.13 5.11-.59m1.35-2.17l-7.78.91-8 16.23 10.88-3.27 14.01 11.81-9.11-25.68z" fill="#1C3AA9"/><path d="M73.8 97.36l6.45.75 6.73 13.66-7.88-2.42c-.1-.03-.2-.04-.29-.04-.22 0-.44.07-.62.21l-12.08 9.5 7.69-21.66z" fill="#3674CE"/><path d="M74.47 98.44l5.12.6 5.47 11.09-5.67-1.74c-.19-.06-.39-.09-.59-.09-.44 0-.88.15-1.24.43l-9.36 7.36 6.27-17.65m-1.35-2.17l-9.11 25.67L78.8 110.3l10.1 3.1-8-16.23-7.78-.9z" fill="#1C3AA9"/></g><g clip-path="url(#b)"><radialGradient id="g" cx="66.784" cy="48.812" r="24.793" gradientUnits="userSpaceOnUse"><stop stop-color="#554138" offset="0"/><stop stop-color="#3C2C23" offset="1"/></radialGradient><path d="M93.38 87.11c.53-.58 1.11-1.11 1.91-1.13 1.32-.03 3.36-.25 4.97-1.22.47-.28.87-.67 1.17-1.14-1.13-.23-2.68-.89-3.73-2.93-1.6-3.1.25-5.95 3.32-9.12 3.46-3.57 9.21-15.82 3.1-26.74L103 39c-5.59.02-33.79 0-38.9 0v55.62c19.76 0 23.67-1.29 29.28-7.51z" fill="url(#g)"/></g><g clip-path="url(#b)"><radialGradient id="h" cx="57.485" cy="48.478" r="25.682" gradientUnits="userSpaceOnUse"><stop stop-color="#554138" offset="0"/><stop stop-color="#3C2C23" offset="1"/></radialGradient><path d="M34.82 87.11c-.53-.58-1.11-1.11-1.91-1.13-1.32-.03-3.36-.25-4.97-1.22a3.54 3.54 0 0 1-1.17-1.14c1.13-.23 2.75-.86 3.73-2.93 1.6-3.35-.67-6.33-3.32-9.12-4.33-4.57-9.21-15.82-3.1-26.74C28 41 26 36 26 36s32.99 3 38.1 3v55.62c-19.76 0-23.67-1.29-29.28-7.51z" fill="url(#h)"/></g><g clip-path="url(#b)"><path d="M104.7 51.2c1.42 6.43-.09 14.51-4.76 19.33-2.96 3.05-5.7 6.73-3.58 10.85.55 1.07 1.27 1.93 2.13 2.56-1.18.42-2.47.52-3.24.54-1.56.04-2.56 1.15-2.99 1.63-3.4 3.77-5.97 5.63-13.09 6.45 0 0-3.69 1.89-6.24 2.53V96c12.46-.45 16.47-2.23 21.56-7.88.39-.44.65-.63.83-.64 1.58-.04 3.9-.22 5.7-1.43 1.81-1.22 2.83-3.48 2.83-3.48s-3.36-.32-4.83-2.57c-1.24-1.89-.2-4.01 3.07-7.39 1.1-1.13 2.02-2.44 2.81-3.8 1.96-3.37 3.16-7.22 3.38-11.13.12-2.26-.17-4.53-.66-6.74-.82-3.73-3.6-6.97-3.6-6.97l.97-2.01s-2.66-1.84-2.73-1.89L100 44s4 4 4.7 7.2z" fill="#291D15"/></g><g clip-path="url(#b)"><path d="M23.04 51.41c-1.42 6.43.09 14.51 4.76 19.33 2.96 3.05 5.7 6.73 3.58 10.85-.55 1.07-1.27 1.93-2.13 2.56 1.18.42 2.47.52 3.24.54 1.56.04 2.56 1.15 2.99 1.63 3.4 3.77 7.36 5.9 14.48 6.72 0 0 2.52 1.32 5.08 1.96l-.23 1.21c-12.46-.45-16.47-2.23-21.56-7.88-.39-.44-.65-.63-.83-.64-1.58-.04-3.89-.24-5.7-1.43-2.31-1.52-2.83-3.48-2.83-3.48s3.37.08 4.83-2.57c1.09-1.98.2-4.01-3.07-7.39-1.1-1.13-2.02-2.44-2.81-3.8-1.96-3.37-3.16-7.22-3.38-11.13-.12-2.26.17-4.53.66-6.74.82-3.73 3.6-6.97 3.6-6.97l-.97-2.01s2.66-1.84 2.73-1.89l2.26 3.93c.01.01-3.99 4.01-4.7 7.2z" fill="#291D15"/></g><g clip-path="url(#b)"><path d="M36.67 72.26c-5.36 0-9.71-4.67-9.71-10.41s4.36-10.41 9.71-10.41h54.65c5.36 0 9.71 4.67 9.71 10.41s-4.36 10.41-9.71 10.41H36.67z" fill="#7A4C32"/><path d="M91.33 52.43c4.8 0 8.71 4.22 8.71 9.41s-3.91 9.41-8.71 9.41H36.67c-4.8 0-8.71-4.22-8.71-9.41s3.91-9.41 8.71-9.41h54.66m0-2H36.67c-5.89 0-10.71 5.14-10.71 11.41 0 6.28 4.82 11.41 10.71 11.41h54.65c5.89 0 10.71-5.14 10.71-11.41.01-6.27-4.81-11.41-10.7-11.41z" fill="#663B22"/><linearGradient id="i" x1="64" x2="64" y1="94.591" y2="12.825" gradientUnits="userSpaceOnUse"><stop stop-color="#8D5738" offset="0"/><stop stop-color="#97603D" offset=".216"/><stop stop-color="#A26941" offset=".573"/><stop stop-color="#A56C43" offset="1"/></linearGradient><path d="M64 95.27c-15.66 0-32.52-12.14-32.52-38.81 0-12.38 3.56-23.79 10.02-32.13 6.04-7.8 14.25-12.27 22.5-12.27s16.45 4.47 22.5 12.27c6.46 8.33 10.02 19.75 10.02 32.13 0 12.09-3.51 22.19-10.14 29.21-5.86 6.19-13.81 9.6-22.38 9.6z" fill="url(#i)"/><path d="M64 13.07c7.94 0 15.85 4.33 21.71 11.88 6.33 8.16 9.81 19.35 9.81 31.52 0 11.83-3.41 21.7-9.87 28.52-5.67 5.99-13.36 9.29-21.65 9.29s-15.98-3.3-21.65-9.29c-6.46-6.82-9.87-16.69-9.87-28.52 0-12.16 3.49-23.35 9.81-31.52C48.15 17.4 56.06 13.07 64 13.07m0-2c-17.4 0-33.52 18.61-33.52 45.39 0 26.64 16.61 39.81 33.52 39.81S97.52 83.1 97.52 56.46c0-26.78-16.12-45.39-33.52-45.39z" fill="#875334"/><g fill="#42312C"><ellipse cx="47.56" cy="58.81" rx="4.93" ry="5.1"/><ellipse cx="80.44" cy="58.81" rx="4.93" ry="5.1"/></g><path d="M67.86 68.06c-.11-.04-.21-.07-.32-.08h-7.07c-.11.01-.22.04-.32.08-.64.26-.99.92-.69 1.63s1.71 2.69 4.55 2.69 4.25-1.99 4.55-2.69c.29-.71-.06-1.37-.7-1.63z" fill="#875334"/><path d="M72.42 76.14c-3.19 1.89-13.63 1.89-16.81 0-1.83-1.09-3.7.58-2.94 2.24.75 1.63 6.45 5.42 11.37 5.42s10.55-3.79 11.3-5.42c.75-1.66-1.09-3.33-2.92-2.24z" fill="#473530"/><g fill="#42312C"><path d="M54.8 49.82c-.93-1.23-3.07-3.01-7.23-3.01s-6.31 1.79-7.23 3.01c-.41.54-.31 1.17-.02 1.55.26.35 1.04.68 1.9.39s2.54-1.16 5.35-1.18c2.81.02 4.49.89 5.35 1.18s1.64-.03 1.9-.39c.28-.38.39-1.01-.02-1.55zM87.67 49.82c-.93-1.23-3.07-3.01-7.23-3.01s-6.31 1.79-7.23 3.01c-.41.54-.31 1.17-.02 1.55.26.35 1.04.68 1.9.39s2.54-1.16 5.35-1.18c2.81.02 4.49.89 5.35 1.18s1.64-.03 1.9-.39c.28-.38.39-1.01-.02-1.55z"/></g><radialGradient id="j" cx="64.807" cy="33.52" r="34.906" gradientTransform="matrix(1 0 0 .8642 0 4.552)" gradientUnits="userSpaceOnUse"><stop stop-color="#554138" offset="0"/><stop stop-color="#3C2C23" offset="1"/></radialGradient><path d="M52.25 10.65c-12.26 4.35-15.77 7.1-15.77 7.1s-6.75-.5-9.64 5.34c-3.02 6.11-.36 10.78-.36 10.78s.56 2.49 2.15 10.25c.93 4.56.66 8.36.66 8.36-.62 10.74 2.77 15.95 2.77 15.95s4.21-18.45 3.81-21.27c0 0 7.76-1.54 16.57-6.58 5.95-3.41 10.02-7.41 16.71-8.91 10.18-2.29 12.45 5.08 12.45 5.08s9.42-1.81 12.26 11.27c1.17 5.38 1.67 14.37 2.31 19.84-.06-.48 3.5-6.4 4.12-12.4.23-2.23-1.3-7.42-.29-11.47 2.21-8.8 4.22-15.99 2.85-18.06-2.5-3.79-8.49-9-12.97-8.24.23-4.8-3.55-9.25-8.1-10.78-12.45-4.18-25.87 2.44-29.53 3.74z" fill="url(#j)"/></g><g clip-path="url(#b)"><linearGradient id="k" x1="64.02" x2="64.02" y1="25.825" y2="43.685" gradientUnits="userSpaceOnUse"><stop stop-color="#666" offset=".004"/><stop stop-color="#606060" offset=".099"/><stop stop-color="#3F3F3F" offset=".68"/><stop stop-color="#333" offset="1"/></linearGradient><path d="M63.79 44.17c-22.85-.15-33.76-6.58-36.93-8.88 2.25-2.57 10.79-9.57 36.93-9.57 25.91 0 34.89 6.5 37.38 9-3.34 2.47-14.68 9.3-37.38 9.45z" fill="url(#k)"/><path d="M63.79 27.24c21.84 0 31.27 4.64 34.91 7.35-4.53 2.82-15.41 7.95-34.89 8.08-19.56-.13-30.19-4.97-34.54-7.6 3.38-2.83 12.49-7.83 34.52-7.83m0-3.02c-33.6 0-38.98 11.36-38.98 11.36s10.36 9.91 38.98 10.1c28.63-.19 39.51-10.73 39.51-10.73s-5.91-10.73-39.51-10.73z" fill="#2A2A2B"/><linearGradient id="l" x1="64" x2="64" y1="4.352" y2="34.313" gradientUnits="userSpaceOnUse"><stop stop-color="#3B78E7" offset=".003"/><stop stop-color="#3B77E6" offset=".011"/><stop stop-color="#335BC2" offset=".298"/><stop stop-color="#2D46A8" offset=".568"/><stop stop-color="#293998" offset=".809"/><stop stop-color="#283593" offset="1"/></linearGradient><path d="M19.96 34.5c1.71 6.19 3.35 8.81 3.35 8.81C25.04 41.31 35.36 32 63.93 32h.16c28.58 0 38.42 9.36 40.16 11.36 0 0 2.07-2.8 3.78-8.99C112 20.05 92.35 4 64.06 4c-28.23 0-48.05 16.2-44.1 30.5z" fill="url(#l)"/><defs><path id="m" d="M19.96 34.5c1.71 6.19 3.35 8.81 3.35 8.81C25.04 41.31 35.36 32 63.93 32h.16c28.58 0 38.42 9.36 40.16 11.36 0 0 2.07-2.8 3.78-8.99C112 20.05 92.35 4 64.06 4c-28.23 0-48.05 16.2-44.1 30.5z"/></defs><clipPath id="n"><use xlink:href="#m"/></clipPath><path d="M100.04 35.61a4.564 4.564 0 0 0-1.74-2.8c-3.78-2.9-15.09-10.1-34.24-10.1-19.65 0-30.66 7.19-34.3 10.09-.87.69-1.46 1.67-1.67 2.75l-.01.06c-.63 3.29 2.38 6.14 5.67 5.36 6.87-1.64 18.03-3.73 30.31-3.75 12.28.02 23.45 2.12 30.31 3.75 3.29.78 6.3-2.07 5.67-5.36z" clip-path="url(#n)" fill="#3B78E7"/><path d="M64.06 28.82c-3.14 0-7.15-4.89-7.15-7.22v-3.48c0-.97-.24-1.94-.7-2.81-.19-.36-.15-.78.1-1.11l.31-.4c.05-.06.13-.1.21-.1.09 0 .17.04.22.11.72 1.09 1.77 1.63 3.21 1.63 1.64 0 2.75-1.47 3.35-2.27.1-.14.26-.21.42-.21s.32.08.42.21c.56.74 1.73 2.27 3.41 2.27 1.44 0 2.49-.53 3.21-1.63.04-.07.13-.11.22-.11s.17.04.21.1l.31.4c.25.33.29.75.1 1.11-.46.87-.7 1.84-.7 2.81v3.48c0 2.33-4.01 7.22-7.15 7.22z" fill="#fc0"/><path d="M64.03 13.46l.02.01c.61.8 1.88 2.47 3.81 2.47 1.5 0 2.62-.52 3.43-1.59l.12.16c.13.17.15.38.05.57-.5.94-.76 1.99-.76 3.04v3.48c0 2.11-3.8 6.72-6.65 6.72-2.86 0-6.65-4.61-6.65-6.72v-3.48c0-1.05-.26-2.1-.76-3.04-.1-.19-.08-.4.05-.57l.12-.16c.81 1.07 1.94 1.59 3.43 1.59 1.89 0 3.1-1.6 3.75-2.47.01 0 .02-.01.04-.01m0-1c-.33 0-.63.16-.82.41-.6.79-1.56 2.07-2.95 2.07-1.43 0-2.24-.57-2.79-1.4a.76.76 0 0 0-.64-.33c-.24 0-.47.11-.61.29l-.31.4c-.37.48-.43 1.12-.15 1.65.42.8.64 1.68.64 2.57v3.48c0 2.54 4.14 7.72 7.65 7.72s7.65-5.19 7.65-7.72v-3.48c0-.89.22-1.77.64-2.57.28-.53.22-1.17-.15-1.65l-.31-.4a.786.786 0 0 0-1.25.04c-.55.84-1.36 1.4-2.79 1.4-1.39 0-2.4-1.28-3.01-2.07a.968.968 0 0 0-.8-.41z" fill="#F9A825"/><path d="M64.06 7.08c16.3 0 31.26 5.82 38.11 14.83 2.08 2.74 4.29 7.01 2.96 11.79-.59 2.13-1.22 3.83-1.78 5.12-1.8-1.31-4.39-2.85-7.98-4.3-8.25-3.33-18.77-5.03-31.31-5.03h-.12c-12.51 0-23.1 1.68-31.49 4.99-3.58 1.41-6.18 2.9-8 4.17-.48-1.28-1.03-2.93-1.58-4.95-1.31-4.74.9-8.99 2.98-11.72 6.88-9.05 21.88-14.9 38.21-14.9m0-3.02c-28.23 0-48.05 16.13-44.1 30.44 1.71 6.19 3.35 9.06 3.35 9.06 1.74-2 12.05-11.06 40.63-11.06h.16c28.58 0 38.42 9.11 40.16 11.11 0 0 2.07-2.92 3.78-9.11C112 20.18 92.35 4.06 64.06 4.06z" fill="#2E51B0"/></g><g clip-path="url(#b)"><path d="M45.75 119.71H34.83c-1.2 0-2.17-.97-2.17-2.17s.97-2.17 2.17-2.17h10.92c1.2 0 2.17.97 2.17 2.17s-.97 2.17-2.17 2.17z" fill="#E0E0E0"/><path d="M45.75 116.38c.64 0 1.17.52 1.17 1.17 0 .64-.52 1.17-1.17 1.17H34.83c-.64 0-1.17-.52-1.17-1.17 0-.64.52-1.17 1.17-1.17h10.92m0-1H34.83c-1.2 0-2.17.97-2.17 2.17s.97 2.17 2.17 2.17h10.92c1.2 0 2.17-.97 2.17-2.17s-.97-2.17-2.17-2.17z" fill="#212121" opacity=".2"/></g></svg>