<svg xmlns="http://www.w3.org/2000/svg" viewBox="0 0 128 128" width="128" height="128"><linearGradient id="a" gradientUnits="userSpaceOnUse" x1="78.055" y1="4.832" x2="78.055" y2="57.046"><stop offset="0" stop-color="#bfbebe"/><stop offset="1" stop-color="#f2f2f2"/></linearGradient><path d="M108.39 48.19H47.72c-1.97 0-3.57-1.6-3.57-3.57V7.6c0-1.97 1.6-3.57 3.57-3.57h60.67c1.97 0 3.57 1.6 3.57 3.57v37.02c0 1.97-1.6 3.57-3.57 3.57z" fill="url(#a)"/><linearGradient id="b" gradientUnits="userSpaceOnUse" x1="63.99" y1="4.18" x2="63.99" y2="84.26" gradientTransform="matrix(1 0 0 -1 0 128)"><stop offset="0" stop-color="#212121"/><stop offset=".352" stop-color="#3d3d3d"/><stop offset=".758" stop-color="#575757"/><stop offset="1" stop-color="#616161"/></linearGradient><path d="M114.88 123.82H13.1c-4.89 0-8.89-4-8.89-8.89v-62.3c0-4.89 4-8.89 8.89-8.89h101.78c4.89 0 8.89 4 8.89 8.89v62.3c0 4.89-4 8.89-8.89 8.89z" fill="url(#b)"/><linearGradient id="c" gradientUnits="userSpaceOnUse" x1="63.99" y1="4.18" x2="63.99" y2="84.26" gradientTransform="matrix(1 0 0 -1 0 128)"><stop offset=".001" stop-color="#bfbebe"/><stop offset=".2" stop-color="#212121" stop-opacity="0"/><stop offset=".8" stop-color="#212121" stop-opacity="0"/><stop offset="1" stop-color="#bfbebe"/></linearGradient><path d="M114.88 123.82H13.1c-4.89 0-8.89-4-8.89-8.89v-62.3c0-4.89 4-8.89 8.89-8.89h101.78c4.89 0 8.89 4 8.89 8.89v62.3c0 4.89-4 8.89-8.89 8.89z" opacity=".5" fill="url(#c)"/><linearGradient id="d" gradientUnits="userSpaceOnUse" x1="4.21" y1="44.22" x2="123.77" y2="44.22" gradientTransform="matrix(1 0 0 -1 0 128)"><stop offset=".001" stop-color="#bfbebe"/><stop offset=".05" stop-color="#212121" stop-opacity="0"/><stop offset=".95" stop-color="#212121" stop-opacity="0"/><stop offset="1" stop-color="#bfbebe"/></linearGradient><path d="M114.88 123.82H13.1c-4.89 0-8.89-4-8.89-8.89v-62.3c0-4.89 4-8.89 8.89-8.89h101.78c4.89 0 8.89 4 8.89 8.89v62.3c0 4.89-4 8.89-8.89 8.89z" opacity=".2" fill="url(#d)"/><linearGradient id="e" gradientUnits="userSpaceOnUse" x1="27.98" y1="13" x2="27.98" y2="93" gradientTransform="matrix(1 0 0 -1 0 128)"><stop offset="0" stop-color="#212121"/><stop offset=".716" stop-color="#4e4e4e"/><stop offset="1" stop-color="#616161"/></linearGradient><path d="M27.98 115c-6.57 0-11.95-5.38-11.95-11.95v-56.1c0-6.57 5.38-11.95 11.95-11.95s11.95 5.38 11.95 11.95v56.09c0 6.58-5.38 11.96-11.95 11.96z" fill="url(#e)"/><linearGradient id="f" gradientUnits="userSpaceOnUse" x1="73.935" y1="64.12" x2="73.935" y2="76.13" gradientTransform="matrix(1 0 0 -1 0 128)"><stop offset=".003" stop-color="#7cb342"/><stop offset="1" stop-color="#558b2f"/></linearGradient><path d="M93.95 63.88H53.93c-3.3 0-6-2.7-6-6v-.01c0-3.3 2.7-6 6-6h40.01c3.3 0 6 2.7 6 6v.01c0 3.3-2.69 6-5.99 6z" fill="url(#f)"/><circle cx="52.34" cy="74.38" r="4.4" fill="#bfbebe"/><circle cx="81.79" cy="74.38" r="4.4" fill="#bfbebe"/><circle cx="67.31" cy="74.38" r="4.4" fill="#bfbebe"/><circle cx="52.34" cy="86.05" r="4.4" fill="#bfbebe"/><circle cx="81.79" cy="86.05" r="4.4" fill="#bfbebe"/><circle cx="67.31" cy="86.05" r="4.4" fill="#bfbebe"/><circle cx="52.34" cy="97.73" r="4.4" fill="#bfbebe"/><circle cx="81.79" cy="97.73" r="4.4" fill="#bfbebe"/><circle cx="67.31" cy="97.73" r="4.4" fill="#bfbebe"/><circle cx="52.34" cy="109.58" r="4.4" fill="#bfbebe"/><circle cx="81.79" cy="109.58" r="4.4" fill="#bfbebe"/><circle cx="67.31" cy="109.58" r="4.4" fill="#bfbebe"/><path d="M112.15 78.1H95.72c-2.05 0-3.72-1.67-3.72-3.72s1.67-3.72 3.72-3.72h16.43c2.05 0 3.72 1.67 3.72 3.72.01 2.05-1.67 3.72-3.72 3.72zM112.15 89.77H95.72c-2.05 0-3.72-1.67-3.72-3.72s1.67-3.72 3.72-3.72h16.43c2.05 0 3.72 1.67 3.72 3.72.01 2.05-1.67 3.72-3.72 3.72zM112.15 101.45H95.72c-2.05 0-3.72-1.67-3.72-3.72s1.67-3.72 3.72-3.72h16.43c2.05 0 3.72 1.67 3.72 3.72.01 2.04-1.67 3.72-3.72 3.72zM112.15 113.3H95.72c-2.05 0-3.72-1.67-3.72-3.72s1.67-3.72 3.72-3.72h16.43c2.05 0 3.72 1.67 3.72 3.72.01 2.04-1.67 3.72-3.72 3.72z" fill="#90a4ae"/><g opacity=".2"><circle cx="107.47" cy="52.97" r=".89"/><circle cx="110" cy="52.97" r=".89"/><circle cx="112.54" cy="52.97" r=".89"/><circle cx="107.47" cy="63.11" r=".89"/><circle cx="110" cy="63.11" r=".89"/><circle cx="112.54" cy="63.11" r=".89"/><circle cx="107.47" cy="55.51" r=".89"/><circle cx="104.94" cy="55.51" r=".89"/><circle cx="110" cy="55.51" r=".89"/><circle cx="112.54" cy="55.51" r=".89"/><circle cx="115.07" cy="55.51" r=".89"/><circle cx="107.47" cy="58.04" r=".89"/><circle cx="104.94" cy="58.04" r=".89"/><circle cx="110" cy="58.04" r=".89"/><circle cx="112.54" cy="58.04" r=".89"/><circle cx="115.07" cy="58.04" r=".89"/><circle cx="107.47" cy="60.58" r=".89"/><circle cx="104.94" cy="60.58" r=".89"/><circle cx="110" cy="60.58" r=".89"/><circle cx="112.54" cy="60.58" r=".89"/><circle cx="115.07" cy="60.58" r=".89"/></g><path opacity=".7" fill="none" stroke="#757575" stroke-width="2" stroke-linecap="round" stroke-linejoin="round" stroke-miterlimit="10" d="M52 16.11h52M52 26.11h52M52 36.11h52"/><radialGradient id="g" cx="27.894" cy="46.746" r="11.838" gradientUnits="userSpaceOnUse"><stop offset=".376" stop-color="#212121" stop-opacity="0"/><stop offset=".901" stop-color="#bfbebe"/></radialGradient><path d="M39.94 46.96c0-6.6-5.35-11.96-11.96-11.96s-11.96 5.35-11.96 11.96" opacity=".2" fill="url(#g)"/><radialGradient id="h" cx="27.894" cy="43.449" r="11.838" gradientTransform="matrix(1 0 0 -1 0 146.703)" gradientUnits="userSpaceOnUse"><stop offset=".376" stop-color="#212121" stop-opacity="0"/><stop offset=".901" stop-color="#bfbebe"/></radialGradient><path d="M39.94 103.04c0 6.6-5.35 11.96-11.96 11.96s-11.96-5.35-11.96-11.96" opacity=".2" fill="url(#h)"/><linearGradient id="i" gradientUnits="userSpaceOnUse" x1="16.03" y1="74.995" x2="39.93" y2="74.995"><stop offset=".045" stop-color="#bfbebe"/><stop offset=".322" stop-color="#212121" stop-opacity="0"/><stop offset=".718" stop-color="#212121" stop-opacity="0"/><stop offset=".943" stop-color="#bfbebe"/></linearGradient><path opacity=".2" fill="url(#i)" d="M16.03 46.95h23.9v56.09h-23.9z"/></svg>