<svg viewBox="0 0 128 128" width="128" height="128" xmlns="http://www.w3.org/2000/svg" xmlns:xlink="http://www.w3.org/1999/xlink"><linearGradient id="a" x1="101.06" x2="101.06" y1="22.036" y2="68.128" gradientUnits="userSpaceOnUse"><stop stop-color="#FFC559" offset="0"/><stop stop-color="#D47500" offset=".999"/></linearGradient><path d="M98.32 67.55c-.55 0-1.1-.01-1.65-.01-.5-.01-.93-.37-1.02-.87s.19-.99.66-1.17c.21-.08.46-.17.74-.27 4.28-1.57 14.3-5.23 11.54-16.88-.71-3.01-2.28-4.42-5.58-5.01a6.73 6.73 0 0 0-1.23-.12c-2.34 0-4.25 1.41-6.6 4.86-1.18 1.73-3.37 2.73-6 2.73-4.02 0-8.53-2.35-9.36-6.83-1.14-6.16.83-9.79 3.5-12.45-.16.02-.31.04-.43.06-.06.01-.11.01-.17.01-.38 0-.73-.2-.92-.54-.22-.38-.17-.86.12-1.2 1.49-1.75 3.85-3.07 6.22-3.89-.41-.14-.79-.26-1.08-.35a1.053 1.053 0 1 1-.13-1.97c1.29-.58 2.82-.87 4.55-.87 1.49 0 3.08.23 4.59.64l-.43-.66c-.23-.35-.23-.81.01-1.17.2-.29.53-.47.88-.47.07 0 .13.01.2.02 5.43 1.05 12.15 2.69 15.96 6.01 3.74 3.03 15.38 14.25 6.97 30.57-4.45 8.64-12.89 9.83-21.34 9.83z" fill="url(#a)"/><path d="M96.52 22.18c4.82.94 11.75 2.53 15.46 5.77 7.02 5.68 13.46 16.23 6.73 29.29-4.19 8.14-12.34 9.25-20.4 9.25-.55 0-1.09-.01-1.63-.01 3.38-1.3 16.1-5 12.93-18.38-.83-3.52-2.86-5.17-6.42-5.8-.49-.09-.96-.13-1.41-.13-2.74 0-4.96 1.63-7.48 5.33-1.04 1.53-3.01 2.27-5.13 2.27-3.58 0-7.6-2.1-8.32-5.97-1.35-7.24 1.89-10.72 5.72-13.66-.91.14-2.95.28-3.86.42 2.03-2.39 6.09-3.99 9.2-4.43-1.11-.34-3.44-1.17-4.56-1.51 1.22-.54 2.64-.78 4.12-.78 2.57 0 5.28.71 7.25 1.73-.72-1.13-1.46-2.26-2.2-3.39m0-2.11c-.69 0-1.35.34-1.75.93-.2.3-.32.63-.35.98-.99-.17-1.99-.26-2.94-.26-1.88 0-3.55.32-4.98.96-.8.36-1.3 1.18-1.24 2.06.03.41.17.79.4 1.11-1.77.85-3.4 1.96-4.55 3.32-.57.67-.66 1.63-.23 2.4.13.22.29.42.48.58-2.27 2.82-3.59 6.51-2.57 12.01.94 5.05 5.94 7.69 10.4 7.69 2.99 0 5.5-1.16 6.87-3.19 2.63-3.87 4.31-4.4 5.73-4.4.32 0 .67.03 1.04.1 2.89.52 4.13 1.62 4.74 4.21 2.24 9.46-4.24 13.22-10.88 15.65-.28.1-.54.2-.75.28-.94.36-1.5 1.34-1.32 2.34s1.03 1.73 2.05 1.74c.55.01 1.11.01 1.67.01 8.37 0 17.56-1.23 22.27-10.39 8.75-16.99-3.29-28.66-7.25-31.87-4-3.47-10.87-5.15-16.42-6.23-.15-.02-.28-.03-.42-.03z" fill="#D3914F"/><path d="M119.11 56.52c6.19-12.6-.51-23.35-7.51-28.87-3.7-3.15-10.17-4.44-14.98-5.35l2.2 3.28c-3.1-1.55-8-2.37-11.34-.92 1.11.33 3.43 1.14 4.54 1.46-3.1.42-7.15 1.98-9.18 4.3.91-.14 2.94-.27 3.85-.41-3.82 2.85-7.26 6.23-5.92 13.27.28 1.47.92 3.38 2.37 3.81 1.07.32 2.64.09 3.3-2.16 1.32-4.51.75-8.99 8.49-13.49s19.21.13 22.31 11.57c2.16 8-2.16 19.03-2.35 19.17 1.7-1.26 3.11-3.4 4.22-5.66z" fill="#FFECB3"/><linearGradient id="b" x1="25.708" x2="25.708" y1="122.29" y2="90.488" gradientUnits="userSpaceOnUse"><stop stop-color="#ED8300" offset=".001"/><stop stop-color="#F59F25" offset=".237"/><stop stop-color="#FAB442" offset=".462"/><stop stop-color="#FEC053" offset=".658"/><stop stop-color="#FFC559" offset=".803"/><stop stop-color="#FFC559" offset="1"/></linearGradient><path d="M16.09 122.94c-.24 0-.39-.13-.46-.2a.587.587 0 0 1-.15-.47c.03-.25.05-.53.08-.82.26-2.96.68-5.64 2.95-5.76 1.16-.06 2-.07 2.6-.08 1.32-.02 2.56-.04 2.62-1.52.05-1.21.05-1.33-.13-1.97-.06-.22-.15-.53-.28-1.12-.79-3.65-2.03-7.99-3.35-12.58-1.75-6.12-3.56-12.44-4.35-17.39.49.47 1.06 1.07 1.54 1.57 1.87 1.96 3.99 4.19 5.98 4.92.99.36 1.66.77 2.31 1.16 1.04.63 2.02 1.23 3.74 1.23 1.04 0 2.28-.22 3.9-.69.01 0 .09-.02.27-.02.98 0 2.25.5 2.58.84-1.36 10.28-3.97 27.38-4.74 32.39-.05.3-.3.51-.6.51H16.09z" fill="url(#b)"/><path d="M17.32 84.28999999999999c1.71 1.77 3.58 3.53 5.46 4.22.89.33 1.52.71 2.12 1.07 1.07.65 2.27 1.38 4.29 1.38 1.13 0 2.45-.23 4.13-.71h.04c.44 0 1.03.16 1.44.33-1.35 10.11-3.77 25.98-4.59 31.3H16.57l.03-.35c.31-3.48.82-4.74 1.96-4.8s1.96-.07 2.56-.08c1.24-.02 3.56-.05 3.66-2.55.05-1.23.06-1.48-.17-2.28-.06-.21-.14-.5-.26-1.06-.8-3.68-2.04-8.04-3.36-12.65-1.35-4.73-2.75-9.59-3.67-13.82m-2.48-5.06c-.36 0-.49.48-.31 1.67 1.34 8.71 5.89 21.69 7.75 30.31.42 1.93.45 1.11.38 2.83-.03.71-.43.39-4.22.59-3.76.2-3.77 5.17-4.02 7.52v.01c-.1.99.67 1.84 1.66 1.84H30.6c.82 0 1.52-.59 1.65-1.41.77-5.01 3.4-22.23 4.76-32.56.13-1.02-2.25-1.88-3.64-1.88-.22 0-.41.02-.57.07-1.58.46-2.72.64-3.6.64-2.38 0-2.98-1.33-5.68-2.33-3.16-1.15-7.39-7.3-8.68-7.3z" fill="#D3914F"/><linearGradient id="c" x1="89.119" x2="89.119" y1="122.31" y2="91.619" gradientUnits="userSpaceOnUse"><stop stop-color="#ED8300" offset=".001"/><stop stop-color="#F59F25" offset=".237"/><stop stop-color="#FAB442" offset=".462"/><stop stop-color="#FEC053" offset=".658"/><stop stop-color="#FFC559" offset=".803"/><stop stop-color="#FFC559" offset="1"/></linearGradient><path d="M82.31 122.94c-.24 0-.39-.13-.46-.2a.587.587 0 0 1-.15-.47c0-.01.05-.54.08-.82.26-2.97.68-5.64 2.95-5.76 1.16-.06 2-.07 2.6-.08 1.32-.02 2.56-.04 2.62-1.52.05-1.21.05-1.33-.13-1.97-.06-.22-.15-.53-.28-1.12-1.6-7.39-8.26-23.52-10.36-28.5h19.83c.03 5.97.14 35.55-.54 39.95-.05.3-.3.51-.6.51H82.31z" fill="url(#c)"/><path d="M97.97 83.54c.05 10.89.04 33.61-.48 38.35H82.8l.03-.35c.31-3.48.82-4.74 1.96-4.8s1.96-.07 2.56-.08c1.24-.02 3.56-.05 3.66-2.55.05-1.23.06-1.48-.17-2.28-.06-.21-.14-.5-.26-1.06-1.48-6.86-7.24-21.05-9.8-27.22h17.19m2.1-2.12H77.6s9.06 21.16 10.92 29.78c.42 1.93.45 1.11.38 2.83-.03.71-.43.39-4.22.59-3.76.2-3.77 5.17-4.02 7.52v.01c-.1.99.67 1.84 1.66 1.84h15.57c.82 0 1.52-.59 1.65-1.41.76-5 .53-41.16.53-41.16z" fill="#D3914F"/><linearGradient id="d" x1="64.973" x2="64.973" y1="37.055" y2="101.79" gradientUnits="userSpaceOnUse"><stop stop-color="#FFC559" offset=".263"/><stop stop-color="#FEC356" offset=".465"/><stop stop-color="#FCBC4D" offset=".611"/><stop stop-color="#F8AF3D" offset=".739"/><stop stop-color="#F29E27" offset=".857"/><stop stop-color="#EB880A" offset=".967"/><stop stop-color="#E88000" offset="1"/></linearGradient><path d="M104.27 122.83c-1.8 0-2.37-.24-2.53-.44-.32-.41.07-2.03.2-2.56.04-.13.17-.5.3-.83.11-.29.21-.56.24-.68.68-2.16 1.79-2.34 2.97-2.34.18 0 .36.01.53.01.17.01.33.01.49.01.4 0 1.34 0 1.85-.75.53-.77.25-1.78-.1-2.67-.59-1.53-14.73-15.32-18.23-18.4-2.32-2.04-5.2-3.07-8.58-3.07-3.2 0-6.86.93-10.9 2.77-9.77 4.46-18.5 8.15-26.31 8.15-1.97 0-3.79-.23-5.56-.69C20.1 96.47 11.46 84.89 11.46 64.9c0-17.76 7.94-28.36 21.25-28.36 8.1 0 12.57 0 16.72 6.92 6.55 8.95 14.63 12.74 27.05 12.74h.42c1.81-.01 3.94-.31 6.41-.65 3.14-.43 6.69-.92 10.4-.92 5.8 0 10.6 1.24 14.68 3.78 6.43 4.01 10.11 17.25 8.18 29.53-1.63 10.42.47 24.55 1.87 32.04.13.7-.06 1.42-.51 1.97-.46.55-1.13.87-1.85.87l-11.81.01z" fill="url(#d)"/><path d="M32.71 37.59c8.22 0 11.97 0 15.82 6.4.03.05.07.11.11.16 6.72 9.18 15.05 13.09 27.85 13.09h.43c1.88-.01 4.04-.31 6.55-.66 3.1-.43 6.62-.91 10.25-.91 5.59 0 10.21 1.18 14.13 3.62 5.33 3.32 9.78 15.15 7.7 28.47-1.65 10.58.46 24.84 1.87 32.4.1.54-.14.92-.28 1.1-.15.18-.48.49-1.04.49l-11.81.02c-.86 0-1.34-.06-1.59-.11.02-.26.08-.73.28-1.55.05-.16.17-.47.27-.76.12-.31.22-.59.25-.71.5-1.59 1.11-1.6 1.96-1.6h.01c.17 0 .34.01.49.01.18.01.36.01.52.01.47 0 1.9 0 2.73-1.21.91-1.33.28-2.96.01-3.65-.77-1.99-16.11-16.69-18.52-18.81-2.51-2.21-5.64-3.33-9.28-3.33-3.35 0-7.16.96-11.33 2.87-9.66 4.41-18.27 8.06-25.88 8.06-1.88 0-3.61-.22-5.3-.66-18.01-4.74-26.4-16-26.4-35.43 0-8.32 1.8-15.23 5.21-19.97 3.5-4.87 8.54-7.34 14.99-7.34M32.71 35.48c-14.78 0-22.3 12.09-22.3 29.42 0 24.13 12.67 33.45 27.97 37.47 1.9.5 3.84.73 5.83.73 7.98 0 16.72-3.67 26.75-8.25 3.47-1.58 7.09-2.68 10.46-2.68 2.9 0 5.61.81 7.88 2.81 4.4 3.87 17.52 16.9 17.94 17.99.69 1.78.19 1.99-.77 1.99-.3 0-.64-.02-1.01-.02-1.39 0-3.11.29-3.98 3.08-.08.25-.5 1.33-.56 1.57-.82 3.37-.41 4.3 3.36 4.3l11.82-.02c2.16 0 3.79-1.96 3.39-4.08-1.29-6.93-3.49-21.28-1.86-31.69 2.05-13.11-2.07-26.48-8.67-30.59-4.92-3.06-10.23-3.94-15.24-3.94-6.64 0-12.78 1.54-16.82 1.57h-.41c-13.38 0-20.57-4.62-26.15-12.23-4.47-7.43-9.33-7.43-17.63-7.43z" fill="#D3914F"/><path d="M56.63 59.95c0 9.54-9.92 24.54-22.16 24.54s-22.16-15-22.16-24.54 9.92-13.64 22.16-13.64 22.16 4.1 22.16 13.64zM34.61 91.23c6.47.46 9.37.29 9.37.29l3.5 8.67s-9.16-.24-15.04-3.1c-5.02-2.44-3.17-6.24 2.17-5.86zM69.56 87.46c-6.27 1.65-9.15 2.03-9.15 2.03s-.81 5.76-.74 7.03c.01.2 6.49-2.99 13.01-5.7 2.19-.91 2.06-4.73-3.12-3.36z" fill="#FFECB3"/><linearGradient id="e" x1="50.252" x2="50.252" y1="122.94" y2="97.05" gradientUnits="userSpaceOnUse"><stop stop-color="#ED8300" offset=".077"/><stop stop-color="#F3991E" offset=".417"/><stop stop-color="#FFC559" offset="1"/></linearGradient><path d="M39.87 89.52c5.1 8.27 7.33 24.58 4.93 25.18-1.06.26.78.1-2.99.56-2.08.26-3.42 4.07-3.67 6.38v.01c-.1.97.67 1.82 1.66 1.82l14.6-.09c.82 0 1.52-.58 1.65-1.39.77-4.95 6.35-32.65 6.35-32.65" fill="url(#e)" stroke="#D3914F" stroke-linecap="round" stroke-linejoin="round" stroke-miterlimit="10" stroke-width="2.111"/><path d="M11.42 5.67c.87 0 1.95.46 3.18 1.41l6.44 4.89s.01.01.02.01h.01c3.43-1.05 12.64-1.42 12.64-1.42 4.98.02 9.1.59 12.5 1.62h.01c.01 0 .01 0 .02-.01l6.44-4.89c1.23-.95 2.3-1.41 3.18-1.41 1.45 0 2.35 1.26 2.46 3.62l1.35 15.36v.01c1.04 3.05 1.54 6.46 1.72 10.07.17 1.36.25 2.75.25 4.17 0 15.58-15.59 27.92-27.99 27.92-12.66 0-27.99-12.34-27.99-27.92 0-1.35.08-2.68.23-3.99.17-3.76.67-7.3 1.74-10.46v-.01L8.97 9.29c.11-2.36 1-3.62 2.45-3.62m0-2v2-2c-2.02 0-4.25 1.44-4.45 5.49L5.65 24.24c-1 3.01-1.58 6.52-1.77 10.72a36.22 36.22 0 0 0-.24 4.15c0 7.79 3.51 15.34 9.89 21.26 5.83 5.42 13.35 8.65 20.1 8.65 13.58 0 29.99-13.34 29.99-29.92 0-1.45-.09-2.91-.26-4.34-.21-4.02-.78-7.4-1.75-10.32L60.29 9.36c-.2-4.04-2.43-5.49-4.45-5.49-1.36 0-2.84.62-4.4 1.84L45.8 9.98c-3.46-.94-7.52-1.42-12.09-1.43h-.09c-.89.04-8.17.36-12.13 1.25l-5.68-4.31c-1.55-1.21-3.03-1.82-4.39-1.82z" fill="#D3914F"/><linearGradient id="f" x1="33.701" x2="33.701" y1="12.228" y2="66.636" gradientUnits="userSpaceOnUse"><stop stop-color="#FFC559" offset="0"/><stop stop-color="#D47500" offset=".999"/></linearGradient><path d="M59.71 24.86L58.37 9.49c-.18-3.78-2.37-4.75-5.63-2.21l-6.44 4.89h-.02c-3.39-1.04-7.51-1.61-12.5-1.62 0 0-9.21.38-12.64 1.42h-.02l-6.44-4.89c-3.26-2.54-5.46-1.57-5.63 2.21L7.69 24.65v.01c-1.29 3.79-1.76 8.12-1.81 12.73-.18 15.54 12.24 28.76 27.75 28.87v.02c15.58-.04 28.07-13.1 27.9-28.69-.06-4.61-.52-8.94-1.82-12.73z" fill="url(#f)"/><path fill="#E59242" d="M19.17 10.68"/><defs><path id="g" d="M61.62 39.11c0 15.58-15.59 27.92-27.99 27.92-12.66 0-27.99-12.34-27.99-27.92s10.1-28.2 27.99-28.2 27.99 12.62 27.99 28.2z"/></defs><clipPath id="h"><use xlink:href="#g"/></clipPath><linearGradient id="i" x1="33.631" x2="33.631" y1="42.754" y2="66.69" gradientUnits="userSpaceOnUse"><stop stop-color="#FFF8E1" offset=".158"/><stop stop-color="#D8D3BF" offset=".707"/><stop stop-color="#C9C4B2" offset="1"/></linearGradient><path d="M57.72 34.78c-2.84-.61-7.72-.1-10.19 7.83-.54 1.72-2.23 3.78-3.93 3.82-3.37.08-4.05-4.06-10.07-4.06s-6.45 4.14-9.83 4.06c-1.7-.04-3.45-2.1-3.98-3.82-2.47-7.93-7.35-8.44-10.19-7.83-12.15 2.61-2.63 20.66 2.14 25.76 11.4 12.19 32.21 12.55 43.95 0 4.78-5.1 14.25-23.15 2.1-25.76z" clip-path="url(#h)" fill="url(#i)"/><ellipse cx="22.65" cy="34.51" rx="3.48" ry="4.02"/><ellipse cx="44.61" cy="34.51" rx="3.48" ry="4.02"/><linearGradient id="j" x1="33.631" x2="33.631" y1="52.042" y2="42.722" gradientUnits="userSpaceOnUse"><stop offset="0"/><stop stop-color="#262626" offset=".355"/><stop stop-color="#575757" offset=".837"/></linearGradient><path d="M33.79 52.22c-2.59 0-6.05-1.96-6.05-4.35v-.12c0-2.39 2.36-4.94 4.95-4.94h1.88c2.59 0 4.95 2.55 4.95 4.94v.06c0 2.39-3.14 4.41-5.73 4.41z" fill="url(#j)"/><path d="M48.45 50.37c-.06-.1-.18-.17-.42-.16-.66.02-1.04.57-1.42.97-.34.36-.66.75-.99 1.12-.9.98-1.99 1.74-3.27 2.33-2.75 1.27-4.04.84-4.04.84-.43-.15-.9-.18-1.34-.35-1.12-.44-1.98-1.02-3.28-1.03-.83-.01-1.65.18-2.37.53-.75.37-1.48.73-2.35.85 0 0-1.26.43-4.01-.84-1.05-.49-2.02-1.09-2.82-1.86-.76-.74-1.36-1.58-2.18-2.27-.13-.11-.27-.22-.43-.28-.23-.08-.57-.05-.7.15-.14.2 0 .45.12.66 1.47 2.69 5.08 11.91 14.68 11.91s13.16-9.14 14.68-11.91c.12-.22.24-.49.14-.66z"/><defs><path id="k" d="M38.99 57.07c0 2.68.54 9.61-5.36 9.61s-5.89-6.92-5.89-9.61v-.84c0-2.68 2.18-4.86 4.86-4.86h1.53c2.68 0 4.86 2.18 4.86 4.86v.84z"/></defs><clipPath id="l"><use xlink:href="#k"/></clipPath><path d="M24.29 61.6c0-2.93 4.3-6.08 9.6-6.08s9.6 3.14 9.6 6.08c0 2.93-4.3 5.31-9.6 5.31s-9.6-2.37-9.6-5.31z" clip-path="url(#l)" fill="#FF8282"/><g fill="#FFF5B5"><path d="M13.02 8.53l4.55 3.7c.62.51.5 1.49-.23 1.82l-4.74 2.16c-.73.33-1.55-.22-1.53-1.02l.19-5.86c.03-.89 1.06-1.36 1.76-.8zM54.25 8.53l-4.55 3.7c-.62.51-.5 1.49.23 1.82l4.74 2.16c.73.33 1.55-.22 1.53-1.02L56 9.34c-.02-.9-1.06-1.37-1.75-.81z"/></g></svg>