<svg viewBox="0 0 128 128" width="128" height="128" xmlns="http://www.w3.org/2000/svg" xmlns:xlink="http://www.w3.org/1999/xlink"><defs><path id="a" d="M124 124H4L3.75 3.75 124 4z"/></defs><clipPath id="b"><use xlink:href="#a"/></clipPath><linearGradient id="c" x1="55.428" x2="104.99" y1="43.694" y2="43.694" gradientUnits="userSpaceOnUse"><stop stop-color="#E0E0E0" offset=".178"/><stop stop-color="#9E9E9E" offset=".755"/></linearGradient><path d="M55.43 47.28l38.43.24c2.52.02 4.73-1.31 5.97-3.31l5.13.03.03-4.11-4.11-.03-37.94-.24c-4.12-.02-7.49 3.3-7.51 7.42z" clip-path="url(#b)" fill="url(#c)"/><g clip-path="url(#b)" fill="#DD5322"><path d="M100.853 44.213l.026-4.11 4.11.026-.026 4.11z"/><path d="M113.31 32.32h.28c2.72 0 5.28 1.05 7.2 2.97 1.93 1.92 2.99 4.47 2.99 7.19s-1.05 5.28-2.97 7.2-4.45 2.97-7.19 2.99c-2.72 0-5.28-1.05-7.2-2.97a10.072 10.072 0 0 1-2.99-7.2c0-2.72 1.05-5.28 2.97-7.2 1.85-1.85 4.3-2.91 6.91-2.98zm.46 15.91c1.47-.04 2.85-.64 3.9-1.68a5.686 5.686 0 0 0 1.67-4.06c0-1.53-.6-2.97-1.69-4.06a5.686 5.686 0 0 0-4.06-1.67c-1.56-.02-2.97.6-4.06 1.69a5.686 5.686 0 0 0-1.67 4.06c0 1.53.6 2.97 1.69 4.06a5.686 5.686 0 0 0 4.06 1.67c.06 0 .11-.01.16-.01z"/></g><g clip-path="url(#b)" opacity=".2"><path d="M113.61 32.32v1c2.45 0 4.75.95 6.48 2.68 1.74 1.73 2.7 4.04 2.7 6.49s-.95 4.76-2.68 6.5c-1.72 1.72-4.03 2.68-6.5 2.7-2.45 0-4.75-.95-6.48-2.68a9.097 9.097 0 0 1-2.56-4.93.99.99 0 0 0-.98-.83l-2.73-.02-1.02-.01h-.01c-.35 0-.67.18-.85.47a5.95 5.95 0 0 1-5.11 2.84l-37.35-.24c.5-3.07 3.18-5.42 6.42-5.42l37.94.24 2.84.02h.01c.46 0 .87-.32.97-.77a9.17 9.17 0 0 1 8.66-7.04h.25v-1m.03 16.92h.16c1.73-.05 3.35-.75 4.58-1.98 1.27-1.28 1.97-2.97 1.97-4.77s-.71-3.49-1.98-4.76l-.03-.03a6.683 6.683 0 0 0-4.72-1.94h-.09c-1.75 0-3.42.7-4.69 1.98s-1.97 2.97-1.97 4.77.71 3.49 1.98 4.76 2.96 1.97 4.75 1.97h.04m-.03-16.92H113.31c-2.62.07-5.06 1.13-6.92 2.99a10.157 10.157 0 0 0-2.68 4.81l-2.84-.02-37.94-.24h-.05c-4.1 0-7.44 3.31-7.46 7.42l38.43.24h.04c2.5 0 4.7-1.33 5.92-3.31l1.02.01 2.73.02a10.01 10.01 0 0 0 2.84 5.47c1.92 1.92 4.47 2.97 7.19 2.97h.02c2.74-.02 5.27-1.07 7.19-2.99 1.92-1.93 2.98-4.48 2.97-7.2 0-2.72-1.07-5.27-2.99-7.19a10.01 10.01 0 0 0-7.17-2.98zm-.01 15.92c-1.53 0-2.97-.59-4.05-1.67a5.712 5.712 0 0 1-1.69-4.06c0-1.53.59-2.97 1.67-4.06 1.07-1.07 2.45-1.69 3.98-1.69h.08c1.53 0 2.96.59 4.05 1.67s1.68 2.52 1.69 4.06c0 1.53-.59 2.97-1.67 4.06a5.682 5.682 0 0 1-3.9 1.68h-.16c.01.01.01.01 0 .01z" fill="#424242"/></g><g clip-path="url(#b)"><linearGradient id="d" x1="47.134" x2="47.134" y1="97.5" y2="130.5" gradientUnits="userSpaceOnUse"><stop stop-color="#F78C1F" offset="0"/><stop stop-color="#F37F20" offset=".494"/><stop stop-color="#ED6D23" offset="1"/></linearGradient><path d="M-3.37 130.5v-9.44c0-16.24 25.36-23.53 50.5-23.56h.13c25.03 0 50.37 8.09 50.37 23.56v9.44h-101z" fill="url(#d)"/><path d="M47.27 99c12.9 0 25.42 2.19 34.36 6 6.62 2.83 14.51 7.91 14.51 16.05V129h-98v-7.94c0-15.2 24.61-22.03 49-22.06h.13m0-3h-.13c-25.49.03-52 7.28-52 25.06V132h104v-10.94C99.13 104.3 72.87 96 47.27 96z" fill="#DA6727"/><path d="M46.31 107.23c-4 0-7.26-3.22-7.26-7.17v-8.98h16.16v8.98c0 3.96-3.25 7.17-7.26 7.17h-1.64z" fill="#99674F"/><path d="M54.22 92.08v7.98c0 3.4-2.81 6.17-6.26 6.17h-1.65c-3.45 0-6.26-2.77-6.26-6.17v-7.98h14.17m2-2H38.06v9.98c0 4.51 3.7 8.17 8.26 8.17h1.65c4.56 0 8.26-3.66 8.26-8.17v-9.98h-.01z" fill="#875740"/><radialGradient id="e" cx="53.143" cy="52.556" r="26.606" gradientUnits="userSpaceOnUse"><stop stop-color="#6D4C41" offset="0"/><stop stop-color="#523329" offset="1"/></radialGradient><path d="M47.35 44.91v49.71c19.76 0 23.67-1.29 29.28-7.51.53-.58 1.11-1.11 1.91-1.13 1.32-.03 3.36-.25 4.97-1.22.47-.28.87-.67 1.17-1.14-1.13-.23-2.68-.89-3.73-2.93-2.4-4.67 3.12-7.48 5.49-10.75 3-4.12 2.88-7.31 1.94-13.31 4.94 1.12 12.44-2.06 13.56-7.06-7.12-.5-8.75-.5-12.41-4.22-1.1-1.12-2.47-2.01-3.97-2.46s-33.1 2.02-38.21 2.02z" fill="url(#e)"/><radialGradient id="f" cx="40.699" cy="54.352" r="23.115" gradientUnits="userSpaceOnUse"><stop stop-color="#6D4C41" offset="0"/><stop stop-color="#523329" offset="1"/></radialGradient><path d="M18.07 87.11c-.53-.58-1.11-1.11-1.91-1.13-1.32-.03-3.36-.25-4.97-1.22a3.54 3.54 0 0 1-1.17-1.14c1.13-.23 2.75-.86 3.73-2.93 1.6-3.35-.67-6.33-3.32-9.12C6.1 67 1.81 57.04 7.92 46.12c1.15-.17 17.22-1.21 21.44-1.21h17.99v49.71c-19.76 0-23.67-1.29-29.28-7.51z" fill="url(#f)"/><path d="M9 71.67c3.02 3.37 4.36 5.96 3.33 8.33-1.06 2.46-4.75 2.57-4.75 2.57s1.83 5.68 8.54 4.9c.18-.02.44.2.83.64 5.07 5.62 9.06 7.42 21.39 7.88v-.95c-2.15-.6-6.08-2.48-6.08-2.48-7.12-.82-9.69-2.68-13.09-6.45-.43-.48-1.43-1.59-2.99-1.63-.76-.02-2.78.36-4.28-.81 0 0 2.67-.83 3.25-3.08 1.3-5.01-1.89-8.01-4.08-10.5-4.33-4.92-6.33-12.83-.75-22.42l-1.37-.07-2.45.07c.02.06-7.42 12.91 2.5 24zM97.82 47.75c-2.68-.52-1.94 2.75-1.94 2.75l4.19.81C97.38 56.25 87.33 56 87.33 56s2.5 7.5-2.11 13.06c-.61.74-1.37 1.56-2.21 2.39-2.39 2.33-5.66 5.53-3.4 9.93.55 1.06 1.27 1.93 2.13 2.56-1.18.42-2.47.52-3.24.54-1.56.04-2.56 1.15-2.99 1.63-4.24 4.7-7.18 6.43-19.27 6.88v3.02c12.67-.43 16.36-2.2 21.49-7.89.39-.44.65-.63.83-.64 1.58-.04 3.98-.11 5.7-1.43 1.97-1.51 2.83-3.48 2.83-3.48s-3.15.39-4.83-2.57c-1.22-2.14.06-3.71 2.83-6.41.9-.88 1.83-1.79 2.54-2.77 3.03-4.16 3.5-6.97 2.85-11.76 3.34.13 7.04-1.5 9.69-3.81 3.26-2.85 2.81-7.75 2.81-7.75s-1.29 1-5.16.25z" fill="#402720"/><path d="M19.92 72.26c-5.36 0-9.71-4.67-9.71-10.41s4.36-10.41 9.71-10.41h54.65c5.36 0 9.71 4.67 9.71 10.41s-4.36 10.41-9.71 10.41H19.92z" fill="#99674F"/><path d="M74.58 52.43c4.8 0 8.71 4.22 8.71 9.41s-3.91 9.41-8.71 9.41H19.92c-4.8 0-8.71-4.22-8.71-9.41s3.91-9.41 8.71-9.41h54.66m0-2H19.92c-5.89 0-10.71 5.14-10.71 11.41 0 6.28 4.82 11.41 10.71 11.41h54.65c5.89 0 10.71-5.14 10.71-11.41.01-6.27-4.81-11.41-10.7-11.41z" fill="#875740"/><linearGradient id="g" x1="47.25" x2="47.25" y1="94.591" y2="12.825" gradientUnits="userSpaceOnUse"><stop stop-color="#A47B62" offset="0"/><stop stop-color="#AD8264" offset=".191"/><stop stop-color="#B78A67" offset=".551"/><stop stop-color="#BA8D68" offset="1"/></linearGradient><path d="M47.25 95.27c-15.66 0-32.52-12.14-32.52-38.81 0-12.38 3.56-23.79 10.02-32.13 6.04-7.8 14.25-12.27 22.5-12.27s16.45 4.47 22.5 12.27c6.46 8.33 10.02 19.75 10.02 32.13 0 12.09-3.51 22.19-10.14 29.21-5.86 6.19-13.81 9.6-22.38 9.6z" fill="url(#g)"/><path d="M47.25 13.07c7.94 0 15.85 4.33 21.71 11.88 6.33 8.16 9.81 19.35 9.81 31.52 0 11.83-3.41 21.7-9.87 28.52-5.67 5.99-13.36 9.29-21.65 9.29s-15.98-3.3-21.65-9.29c-6.46-6.82-9.87-16.69-9.87-28.52 0-12.16 3.49-23.35 9.81-31.52 5.86-7.55 13.77-11.88 21.71-11.88m0-2c-17.4 0-33.52 18.61-33.52 45.39 0 26.64 16.61 39.81 33.52 39.81S80.77 83.1 80.77 56.46c0-26.78-16.12-45.39-33.52-45.39z" fill="#91674D"/><ellipse cx="30.81" cy="58.81" rx="4.93" ry="5.1" fill="#49362E"/><ellipse cx="63.69" cy="58.81" rx="4.93" ry="5.1" fill="#49362E"/><g fill="#613E31"><path d="M38.23 49.82c-.93-1.23-3.07-3.01-7.23-3.01s-6.31 1.79-7.23 3.01c-.41.54-.31 1.17-.02 1.55.26.35 1.04.68 1.9.39s2.54-1.16 5.35-1.18c2.81.02 4.49.89 5.35 1.18s1.64-.03 1.9-.39c.29-.38.39-1.01-.02-1.55zM70.73 49.82c-.93-1.23-3.07-3.01-7.23-3.01s-6.31 1.79-7.23 3.01c-.41.54-.31 1.17-.02 1.55.26.35 1.04.68 1.9.39s2.54-1.16 5.35-1.18c2.81.02 4.49.89 5.35 1.18s1.64-.03 1.9-.39c.29-.38.39-1.01-.02-1.55z"/></g><path d="M51.11 68.06c-.11-.04-.21-.07-.32-.08h-7.07c-.11.01-.22.04-.32.08-.64.26-.99.92-.69 1.63s1.71 2.69 4.55 2.69 4.25-1.99 4.55-2.69c.29-.71-.06-1.37-.7-1.63z" fill="#99674F"/><path d="M55.67 76.14c-3.19 1.89-13.63 1.89-16.81 0-1.83-1.09-3.7.58-2.94 2.24.75 1.63 6.45 5.42 11.37 5.42s10.55-3.79 11.3-5.42c.75-1.66-1.09-3.33-2.92-2.24z" fill="#5D4037"/><radialGradient id="h" cx="47.08" cy="33.679" r="36.056" gradientTransform="matrix(1 0 0 .8642 0 4.574)" gradientUnits="userSpaceOnUse"><stop stop-color="#6D4C41" offset="0"/><stop stop-color="#523329" offset="1"/></radialGradient><path d="M35.5 10.65C23.23 15 22.01 7.3 22.01 7.3c-6.66 3.32-2.28 10.45-2.28 10.45s-6.75-.5-9.64 5.34c-3.03 6.11-.37 10.79-.37 10.79S3.23 38 5.78 45.5c1.69 4.98 6.75 6.98 6.75 6.98-.62 10.74 2.77 15.95 2.77 15.95s4.21-18.45 3.81-21.27c0 0 7.76-1.54 16.57-6.58 5.95-3.41 10.02-7.41 16.71-8.91 10.18-2.29 12.45 5.08 12.45 5.08s9.42-1.81 12.26 11.27c1.17 5.38 1.67 14.37 2.31 19.84-.06-.48 3.5-6.4 4.12-12.4.23-2.23 2.7-7.42 3.71-11.47 2.21-8.8-1.13-16.3-2.5-18.38-2.5-3.79-7.14-8.69-11.62-7.93.23-4.8-5.2-8.91-9.75-10.45-12.44-4.17-24.21 2.12-27.87 3.42z" fill="url(#h)"/><path d="M8.92 50.62s.9-1.88 1.58-2.62c0 0-2.21-1.38-3.08-4-2.09-6.27 2.89-8.72 3.11-8.86l1.18-.76-.68-1.23c-.09-.17-2.21-4.12.4-9.38 2.33-4.71 7.75-3.73 7.98-3.69l2.95.59-1.31-2.71c-.1-.22-2.19-4.67.33-8.01.55 1.01 1.43 2.15 2.84 3 2.85 1.73 6.8 1.72 11.75-.03.79-.28 1.68-.76 2.8-1.38 4.53-2.47 13.1-6.41 24.12-2.81 6.46 2.11 9.17 10.33 9.17 10.33l2.44-2.69s-2.8-7.73-10.7-10.5c-12.11-4.25-21.84.51-26.47 3.04-.96.53-1.79.98-2.36 1.18-3.97 1.41-7.13 1.52-9.15.32-1.97-1.17-2.32-3.23-2.33-3.31l-.34-2.43-2.01 1.41c-4.24 2.99-4.4 7.63-3.6 10.88-2.93.12-6.77 1.36-8.8 5.47-2.42 4.9-1.56 8.99-.86 10.95C3.12 36.79 3 43.17 5.25 46.5c1.91 2.83 3.67 4.12 3.67 4.12z" fill="#402720"/><path d="M92.43 49.84c-6.44-1.41-6.86-6.47-7.4-12.87-.17-2.04-.37-4.36-.76-6.86-.75-4.74-5.7-11.22-12.09-10.98l-.1-3c.14 0 .29-.01.43-.01 8.12 0 13.84 7.92 14.73 13.52.41 2.61.61 4.98.79 7.08.55 6.58.94 9.29 5.05 10.19l-.65 2.93z" fill="#402720"/></g><path clip-path="url(#b)" fill="none" d="M-1.65 2.67h102.42v93.3H-1.65z"/><linearGradient id="i" x1="96.49" x2="96.49" y1="30.794" y2="79.132" gradientUnits="userSpaceOnUse"><stop stop-color="#9E9E9E" offset="0"/><stop stop-color="#E0E0E0" offset="1"/></linearGradient><path d="M96.07 30.8l.01 5.13c-2 1.23-3.35 3.43-3.34 5.95l.06 38.43c4.12-.01 7.46-3.35 7.45-7.47l-.06-37.94-.01-4.11-4.11.01z" fill="url(#i)"/><path fill="#DD5322" d="M96.067 30.803l4.11-.006.006 4.11-4.11.006z"/><path d="M105.1 15.04c.07.06.13.13.2.19 1.93 1.92 2.99 4.47 2.99 7.19s-1.05 5.28-2.97 7.2c-1.92 1.93-4.48 2.99-7.2 2.99s-5.25-1.04-7.2-2.97c-1.93-1.92-2.99-4.47-2.99-7.19s1.05-5.28 2.97-7.2c1.92-1.93 4.47-2.99 7.19-2.99 2.63 0 5.11.98 7.01 2.78zM94.17 26.62a5.675 5.675 0 0 0 3.95 1.56c1.53 0 2.97-.6 4.05-1.69s1.68-2.53 1.67-4.06c0-1.53-.6-2.97-1.69-4.05-1.09-1.12-2.53-1.68-4.06-1.68s-2.97.6-4.05 1.69-1.68 2.53-1.68 4.06.6 2.97 1.69 4.05c.05.04.09.08.12.12z" fill="#DD5322"/><circle cx="96.55" cy="43.04" r="1.65" fill="#6E6E6E"/><path d="M98.11 12.26v1c2.36 0 4.59.89 6.3 2.5l.18.18a9.14 9.14 0 0 1 2.7 6.49c0 2.45-.95 4.76-2.68 6.5a9.146 9.146 0 0 1-4.63 2.51c-.47.1-.8.51-.8.98v2.49l.06 37.94c0 1.73-.67 3.35-1.89 4.57-.98.98-2.22 1.61-3.57 1.82l-.06-37.36c0-2.09 1.07-4 2.86-5.1.3-.18.48-.51.48-.85v-3.52c0-.47-.34-.88-.8-.98-1.74-.35-3.34-1.22-4.64-2.49-1.74-1.73-2.69-4.03-2.7-6.49 0-2.45.95-4.76 2.68-6.5s4.03-2.69 6.49-2.7l.02-.99m0 16.92s.01 0 0 0c1.81 0 3.5-.71 4.77-1.98s1.97-2.97 1.97-4.77v-.04a6.678 6.678 0 0 0-1.97-4.71c-1.24-1.28-2.94-1.98-4.78-1.98-1.8 0-3.49.71-4.76 1.98s-1.97 2.97-1.97 4.77.71 3.49 1.97 4.75l.14.14a6.725 6.725 0 0 0 4.63 1.84m0-16.92h-.01c-2.72 0-5.27 1.07-7.19 2.99a10.146 10.146 0 0 0-2.97 7.2c0 2.72 1.07 5.27 2.99 7.19 1.45 1.43 3.22 2.37 5.14 2.76v3.52c-2 1.23-3.35 3.43-3.34 5.95l.06 38.43c4.12-.01 7.46-3.35 7.45-7.47l-.06-37.94V32.4c1.94-.4 3.71-1.35 5.14-2.78 1.92-1.93 2.97-4.49 2.97-7.2 0-2.72-1.07-5.27-2.99-7.19-.07-.07-.13-.13-.2-.19-1.9-1.79-4.37-2.78-6.99-2.78zm0 15.92c-1.48 0-2.87-.55-3.94-1.56-.04-.04-.08-.07-.11-.11a5.706 5.706 0 0 1-1.69-4.05c0-1.53.59-2.98 1.68-4.06a5.706 5.706 0 0 1 4.05-1.69h.01c1.53 0 2.97.56 4.05 1.68a5.706 5.706 0 0 1 1.69 4.05c0 1.53-.59 2.97-1.67 4.06a5.708 5.708 0 0 1-4.07 1.68c.01 0 .01 0 0 0z" fill="#424242" opacity=".2"/></svg>