<svg viewBox="0 0 128 128" width="128" height="128" xmlns="http://www.w3.org/2000/svg" xmlns:xlink="http://www.w3.org/1999/xlink"><defs><path id="a" d="M4 4h120v120H4z"/></defs><clipPath id="b"><use xlink:href="#a"/></clipPath><g clip-path="url(#b)"><linearGradient id="c" x1="8.536" x2="8.536" y1="97.471" y2="130.47" gradientUnits="userSpaceOnUse"><stop stop-color="#67B730" offset="0"/><stop stop-color="#64AF2E" offset=".242"/><stop stop-color="#5A9B2A" offset=".607"/><stop stop-color="#4D7D23" offset="1"/></linearGradient><path d="M-41.96 130.47v-9.44c0-16.23 25.36-23.53 50.5-23.56h.13c25.03 0 50.36 8.09 50.36 23.56v9.44H-41.96z" fill="url(#c)"/><path d="M8.67 98.97c12.9 0 25.42 2.19 34.36 6 6.62 2.83 14.51 7.91 14.51 16.05v7.94h-98v-7.94c0-15.2 24.61-22.03 49-22.06l.13.01m0-3h-.13c-25.49.03-52 7.28-52 25.06v10.94h104v-10.94c0-16.76-26.27-25.06-51.87-25.06z" fill="#518626"/></g><g clip-path="url(#b)"><linearGradient id="d" x1="119.87" x2="119.87" y1="97.471" y2="130.47" gradientUnits="userSpaceOnUse"><stop stop-color="#FF8530" offset="0"/><stop stop-color="#FD7D2A" offset=".248"/><stop stop-color="#F86918" offset=".622"/><stop stop-color="#F24D00" offset="1"/></linearGradient><path d="M69.37 130.47v-9.44c0-16.23 25.36-23.53 50.5-23.56h.13c25.03 0 50.36 8.09 50.36 23.56v9.44H69.37z" fill="url(#d)"/><path d="M120 98.97c12.9 0 25.42 2.19 34.36 6 6.62 2.83 14.51 7.91 14.51 16.05v7.94h-98v-7.94c0-15.2 24.61-22.03 49-22.06l.13.01m0-3h-.13c-25.49.03-52 7.28-52 25.06v10.94h104v-10.94c0-16.76-26.27-25.06-51.87-25.06z" fill="#DB5200"/><path d="M119.04 107.2c-4 0-7.26-3.22-7.26-7.17v-8.98h16.16v8.98c0 3.95-3.26 7.17-7.26 7.17h-1.64z" fill="#E59600"/><path d="M126.95 92.05v7.98c0 3.4-2.81 6.17-6.26 6.17h-1.65c-3.45 0-6.26-2.77-6.26-6.17v-7.98h14.17m2-2h-18.16v9.98c0 4.51 3.7 8.17 8.26 8.17h1.65c4.56 0 8.26-3.66 8.26-8.17v-9.98h-.01z" fill="#D18100"/><path d="M149.38 87.11c.53-.58 1.11-1.11 1.91-1.13 1.32-.03 3.36-.25 4.97-1.22.47-.28.87-.67 1.17-1.14-1.13-.23-2.68-.89-3.73-2.93-1.6-3.1.25-5.95 3.32-9.12 3.46-3.57 9.21-15.82 3.1-26.74-1.15-.17-17.81.08-22.03.08H120.1v49.71c19.76 0 23.67-1.29 29.28-7.51z" fill="#543930"/><path d="M90.82 87.11c-.53-.58-1.11-1.11-1.91-1.13-1.32-.03-3.36-.25-4.97-1.22a3.54 3.54 0 0 1-1.17-1.14c1.13-.23 2.75-.86 3.73-2.93 1.6-3.35-.67-6.33-3.32-9.12-4.33-4.57-9.21-15.82-3.1-26.74 1.15-.17 17.81.08 22.03.08h17.99v49.71c-19.76 0-23.67-1.29-29.28-7.51z" fill="#543930"/><path d="M158.88 46.67l.26.5c5.42 10.4-.55 20.63-3.19 23.36-2.96 3.05-5.7 6.73-3.58 10.85.55 1.07 1.27 1.93 2.13 2.56-1.18.42-2.47.52-3.24.54-1.56.04-2.56 1.15-2.99 1.63-3.4 3.77-5.97 5.63-13.09 6.45 0 0-3.69 1.89-6.24 2.53V96c12.46-.45 16.47-2.23 21.56-7.88.39-.44.65-.63.83-.64 1.58-.04 3.84-.32 5.7-1.43.67-.4 1.24-.96 1.67-1.63l1.17-1.85-2.14-.43c-1.19-.24-2.07-.94-2.69-2.14-1.04-2.01-.2-4.01 3.07-7.39 4.05-4.18 9.28-14.94 3.97-25.89 0 0 0-.02.01-.05h-3.21zM81.38 72.33c2.71 2.86 3.42 4.92 2.33 7.46-1.27 2.97-3.37 2.78-3.37 2.78l1.17 1.85c.42.67 1 1.23 1.67 1.63 1.86 1.11 4.13 1.39 5.7 1.43.18 0 .44.2.83.64 5.07 5.62 9.06 7.42 21.39 7.88v-.95c-2.15-.6-6.08-2.48-6.08-2.48-7.12-.82-9.69-2.68-13.09-6.45-.43-.48-1.43-1.59-2.99-1.63-.76-.02-2.86.73-4.86-.81 0 0 7.46-4.33-.04-12.33-3.82-4.07-7.8-14.35-3.58-23.92l.29-.65-.05-.09h-3.32c.02.06.04.11.07.17-4.36 10.67-.38 20.93 3.93 25.47z" fill="#402720"/><path d="M92.67 72.26c-5.36 0-9.71-4.67-9.71-10.41s4.36-10.41 9.71-10.41h54.65c5.36 0 9.71 4.67 9.71 10.41s-4.36 10.41-9.71 10.41H92.67z" fill="#E59600"/><path d="M147.33 52.43c4.8 0 8.71 4.22 8.71 9.41s-3.91 9.41-8.71 9.41H92.68c-4.8 0-8.71-4.22-8.71-9.41s3.91-9.41 8.71-9.41h54.65m0-2H92.68c-5.89 0-10.71 5.14-10.71 11.41 0 6.28 4.82 11.41 10.71 11.41h54.65c5.89 0 10.71-5.14 10.71-11.41s-4.82-11.41-10.71-11.41z" fill="#D18100"/><linearGradient id="e" x1="120" x2="120" y1="94.591" y2="12.825" gradientUnits="userSpaceOnUse"><stop stop-color="#FFB300" offset="0"/><stop stop-color="#FFB809" offset=".102"/><stop stop-color="#FFC21A" offset=".371"/><stop stop-color="#FFC825" offset=".659"/><stop stop-color="#FFCA28" offset="1"/></linearGradient><path d="M120 95.27c-15.66 0-32.52-12.14-32.52-38.81 0-12.38 3.56-23.79 10.02-32.13 6.04-7.8 14.25-12.27 22.5-12.27s16.45 4.47 22.5 12.27c6.46 8.33 10.02 19.75 10.02 32.13 0 12.09-3.51 22.19-10.14 29.21-5.86 6.19-13.81 9.6-22.38 9.6z" fill="url(#e)"/><path d="M120 13.07c7.94 0 15.85 4.33 21.71 11.88 6.33 8.16 9.81 19.35 9.81 31.52 0 11.83-3.41 21.7-9.87 28.52-5.67 5.99-13.36 9.29-21.65 9.29s-15.98-3.3-21.65-9.29c-6.46-6.82-9.87-16.69-9.87-28.52 0-12.16 3.49-23.35 9.81-31.52 5.86-7.55 13.77-11.88 21.71-11.88m0-2c-17.4 0-33.52 18.61-33.52 45.39 0 26.64 16.61 39.81 33.52 39.81s33.52-13.17 33.52-39.81c0-26.78-16.12-45.39-33.52-45.39z" fill="#ED9E00"/><ellipse cx="103.56" cy="58.81" rx="4.93" ry="5.1" fill="#404040"/><ellipse cx="136.44" cy="58.81" rx="4.93" ry="5.1" fill="#404040"/><g fill="#6D4C41"><path d="M110.98 49.82c-.93-1.23-3.07-3.01-7.23-3.01s-6.31 1.79-7.23 3.01c-.41.54-.31 1.17-.02 1.55.26.35 1.04.68 1.9.39s2.54-1.16 5.35-1.18c2.81.02 4.49.89 5.35 1.18s1.64-.03 1.9-.39c.29-.38.39-1.01-.02-1.55zM143.48 49.82c-.93-1.23-3.07-3.01-7.23-3.01s-6.31 1.79-7.23 3.01c-.41.54-.31 1.17-.02 1.55.26.35 1.04.68 1.9.39s2.54-1.16 5.35-1.18c2.81.02 4.49.89 5.35 1.18s1.64-.03 1.9-.39c.29-.38.39-1.01-.02-1.55z"/></g><path d="M123.86 68.06c-.11-.04-.21-.07-.32-.08h-7.07c-.11.01-.22.04-.32.08-.64.26-.99.92-.69 1.63s1.71 2.69 4.55 2.69 4.25-1.99 4.55-2.69c.29-.71-.06-1.37-.7-1.63z" fill="#E59600"/><path d="M128.42 76.14c-3.19 1.89-13.63 1.89-16.81 0-1.83-1.09-3.7.58-2.94 2.24.75 1.63 6.45 5.42 11.37 5.42s10.55-3.79 11.3-5.42c.75-1.66-1.09-3.33-2.92-2.24z" fill="#795548"/><radialGradient id="f" cx="120.33" cy="33.466" r="36.396" gradientTransform="matrix(1 0 0 .8642 0 4.545)" gradientUnits="userSpaceOnUse"><stop stop-color="#6D4C41" offset="0"/><stop stop-color="#543930" offset="1"/></radialGradient><path d="M113 10c-12.26 4.35-13-3-13-3-6.66 3.32-6 11-6 11s-8.28-.75-11.17 5.09c-3.02 6.11-.36 10.78-.36 10.78S75.98 38 78.53 45.5c1.69 4.98 6.26 9.67 6.26 9.67 1.08 8.92 3.26 13.27 3.26 13.27s4.21-18.45 3.81-21.27c0 0 7.76-1.54 16.57-6.58 5.95-3.41 10.02-7.41 16.71-8.91 10.18-2.29 12.45 5.08 12.45 5.08s9.42-1.81 12.26 11.27c1.17 5.38 1.67 14.37 2.31 19.84-.06-.48 3.5-6.4 4.12-12.4.23-2.23 3.61-7.67 4.63-11.72 2.21-8.8-.69-15.74-2.06-17.81-2.5-3.79-8.49-9-12.97-8.24.23-4.8-3.55-9.25-8.1-10.78C125.33 2.73 116.66 8.7 113 10z" fill="url(#f)"/><path d="M77.11 45.98c.08.22.17.45.27.68l2.28 2.89 1.1-2.79-.32-.63c-.21-.42-.36-.77-.48-1.11-2.13-6.26 3.11-9.73 3.33-9.88l1.18-.76-.68-1.23c-.09-.17-2.21-4.12.4-9.38 2.33-4.71 12.91-3.57 12.91-3.57S95 12.19 99 9c.55 1.01 3.71 7.94 13.72 3.91.78-.31 1.68-.76 2.8-1.38 4.53-2.47 8.11-6.61 20.12-2.81 4.34 1.38 8.92 5.17 8.74 8.89l-.09 1.87 1.84-.31c3.6-.6 9.1 4.01 11.47 7.59 1.22 1.84 3.98 9.5 1.92 17.71-.11.45-.26.94-.46 1.5l-.22.62.04.08 1.09 1.9 2.11-1.9c.05-.23.27-1.14.35-1.46 2.24-8.93-.56-17.42-2.32-20.09-2.44-3.7-7.91-8.64-12.82-8.97-.79-4.72-5.84-8.72-10.73-10.27-13.23-4.19-17.84-.49-22.47 2.03-.96.53-1.82.93-2.36 1.18-4.51 2.1-8.06 1.6-9.72-1.09-1.58-2.55-1.35-4.06-1.35-4.06s-8.12 2.25-6.56 12.69c-2.93.12-10.56 1.69-12.6 5.8-2.42 4.9-1.56 8.99-.86 10.95-2.53 2.14-5.55 6.64-3.53 12.6z" fill="#402720"/><path d="M7.71 107.2c-4 0-7.26-3.22-7.26-7.17v-8.98h16.16v8.98c0 3.95-3.25 7.17-7.26 7.17H7.71z" fill="#E59600"/><path d="M15.62 92.05v7.98c0 3.4-2.81 6.17-6.26 6.17H7.71c-3.45 0-6.26-2.77-6.26-6.17v-7.98h14.17m2-2H-.54v9.98c0 4.51 3.7 8.17 8.26 8.17h1.65c4.56 0 8.26-3.66 8.26-8.17v-9.98h-.01z" fill="#D18100"/><path d="M-20.9 87.11c-.53-.58-1.11-1.11-1.91-1.13-1.32-.03-3.36-.25-4.97-1.22a3.54 3.54 0 0 1-1.17-1.14c1.13-.23 2.68-.89 3.73-2.93 1.6-3.1-.25-5.95-3.32-9.12C-32 68-37.75 55.75-31.65 44.83c1.15-.17 17.81.08 22.03.08H8.37v49.71c-19.76 0-23.66-1.29-29.27-7.51zM37.66 87.11c.53-.58 1.11-1.11 1.91-1.13 1.32-.03 3.36-.25 4.97-1.22.47-.28.87-.67 1.17-1.14-1.13-.23-2.75-.86-3.73-2.93-1.6-3.35.67-6.33 3.32-9.12 4.33-4.57 9.21-15.82 3.1-26.74-1.15-.17-17.81.08-22.03.08H8.38v49.71c19.76 0 23.66-1.29 29.28-7.51z" fill="#543930"/><path d="M-30.4 46.67l-.26.5c-5.42 10.4.55 20.63 3.19 23.36 2.96 3.05 5.7 6.73 3.58 10.85-.55 1.07-1.27 1.93-2.13 2.56 1.18.42 2.47.52 3.24.54 1.56.04 2.56 1.15 2.99 1.63 3.4 3.77 5.97 5.63 13.09 6.45 0 0 3.69 1.89 6.24 2.53V96c-12.46-.45-16.47-2.23-21.56-7.88-.39-.44-.65-.63-.83-.64-1.58-.04-3.84-.32-5.7-1.43-.67-.4-1.24-.96-1.67-1.63l-1.17-1.85 2.14-.43c1.19-.24 2.07-.94 2.69-2.14 1.04-2.01.2-4.01-3.07-7.39-4.05-4.18-9.28-14.94-3.97-25.89 0 0 0-.02-.01-.05h3.21zM47.1 72.33c-2.71 2.86-3.42 4.92-2.33 7.46 1.27 2.97 3.37 2.78 3.37 2.78l-1.17 1.85c-.42.67-1 1.23-1.67 1.63-1.86 1.11-4.13 1.39-5.7 1.43-.18 0-.44.2-.83.64-5.07 5.62-9.06 7.42-21.39 7.88v-.95c2.15-.6 6.08-2.48 6.08-2.48 7.12-.82 9.69-2.68 13.09-6.45.43-.48 1.43-1.59 2.99-1.63.76-.02 2.86.73 4.86-.81 0 0-7.46-4.33.04-12.33 3.82-4.07 7.8-14.35 3.58-23.92l-.29-.65.05-.09h3.32c-.02.06-.04.11-.07.17 4.35 10.67.38 20.93-3.93 25.47z" fill="#402720"/><path d="M-18.85 72.26c-5.36 0-9.71-4.67-9.71-10.41s4.36-10.41 9.71-10.41H35.8c5.36 0 9.71 4.67 9.71 10.41s-4.36 10.41-9.71 10.41h-54.65z" fill="#E59600"/><path d="M35.8 52.43c4.8 0 8.71 4.22 8.71 9.41s-3.91 9.41-8.71 9.41h-54.65c-4.8 0-8.71-4.22-8.71-9.41s3.91-9.41 8.71-9.41H35.8m0-2h-54.65c-5.89 0-10.71 5.14-10.71 11.41 0 6.28 4.82 11.41 10.71 11.41H35.8c5.89 0 10.71-5.14 10.71-11.41S41.69 50.43 35.8 50.43z" fill="#D18100"/><linearGradient id="g" x1="44.901" x2="44.901" y1="94.591" y2="12.825" gradientTransform="matrix(-1 0 0 1 53.375 0)" gradientUnits="userSpaceOnUse"><stop stop-color="#FFB300" offset="0"/><stop stop-color="#FFB809" offset=".102"/><stop stop-color="#FFC21A" offset=".371"/><stop stop-color="#FFC825" offset=".659"/><stop stop-color="#FFCA28" offset="1"/></linearGradient><path d="M8.47 95.27c-15.66 0-32.52-12.14-32.52-38.81 0-12.38 3.56-23.79 10.02-32.13 6.05-7.8 14.25-12.27 22.5-12.27s16.45 4.47 22.5 12.27c6.46 8.33 10.02 19.75 10.02 32.13 0 12.09-3.51 22.19-10.14 29.21-5.86 6.19-13.81 9.6-22.38 9.6z" fill="url(#g)"/><path d="M8.47 13.07c7.94 0 15.85 4.33 21.71 11.88 6.33 8.16 9.81 19.35 9.81 31.52 0 11.83-3.41 21.7-9.87 28.52-5.67 5.99-13.36 9.29-21.65 9.29s-15.98-3.3-21.65-9.29c-6.46-6.82-9.87-16.69-9.87-28.52 0-12.16 3.49-23.35 9.81-31.52C-7.38 17.4.53 13.07 8.47 13.07m0-2c-17.4 0-33.52 18.61-33.52 45.39 0 26.64 16.61 39.81 33.52 39.81S41.99 83.1 41.99 56.46c0-26.78-16.11-45.39-33.52-45.39z" fill="#ED9E00"/><ellipse cx="24.91" cy="58.81" rx="4.93" ry="5.1" fill="#404040"/><ellipse cx="-7.96" cy="58.81" rx="4.93" ry="5.1" fill="#404040"/><g fill="#6D4C41"><path d="M17.49 49.82c.93-1.23 3.07-3.01 7.23-3.01s6.31 1.79 7.23 3.01c.41.54.31 1.17.02 1.55-.26.35-1.04.68-1.9.39s-2.54-1.16-5.35-1.18c-2.81.02-4.49.89-5.35 1.18s-1.64-.03-1.9-.39c-.29-.38-.39-1.01.02-1.55zM-15.01 49.82c.93-1.23 3.07-3.01 7.23-3.01s6.31 1.79 7.23 3.01c.41.54.31 1.17.02 1.55-.26.35-1.04.68-1.9.39s-2.54-1.16-5.35-1.18c-2.81.02-4.49.89-5.35 1.18s-1.64-.03-1.9-.39c-.28-.38-.39-1.01.02-1.55z"/></g><path d="M4.61 68.06c.11-.04.21-.07.32-.08H12c.11.01.22.04.32.08.64.26.99.92.69 1.63s-1.71 2.69-4.55 2.69-4.25-1.99-4.55-2.69c-.29-.71.06-1.37.7-1.63z" fill="#E59600"/><path d="M.05 76.14c3.19 1.89 13.63 1.89 16.81 0 1.83-1.09 3.7.58 2.94 2.24-.75 1.63-6.45 5.42-11.37 5.42s-10.55-3.79-11.3-5.42c-.75-1.66 1.1-3.33 2.92-2.24z" fill="#795548"/><radialGradient id="h" cx="45.227" cy="33.466" r="36.396" gradientTransform="matrix(-1 0 0 .8642 53.375 4.545)" gradientUnits="userSpaceOnUse"><stop stop-color="#6D4C41" offset="0"/><stop stop-color="#543930" offset="1"/></radialGradient><path d="M15.47 10c12.26 4.35 13-3 13-3 6.66 3.32 6 11 6 11s8.28-.75 11.17 5.09c3.02 6.11.36 10.79.36 10.79S52.49 38 49.94 45.5c-1.69 4.98-6.26 9.67-6.26 9.67-1.08 8.92-3.26 13.27-3.26 13.27s-4.21-18.45-3.81-21.27c0 0-7.76-1.54-16.57-6.58-5.95-3.41-10.02-7.41-16.71-8.91-10.18-2.29-12.45 5.08-12.45 5.08s-9.42-1.81-12.26 11.27c-1.17 5.38-1.67 14.37-2.31 19.84.06-.48-3.5-6.4-4.12-12.4-.23-2.23-3.61-7.67-4.63-11.72-2.21-8.8.69-15.74 2.06-17.81 2.5-3.79 8.49-9 12.97-8.24-.23-4.8 3.55-9.25 8.1-10.78C3.14 2.73 11.81 8.7 15.47 10z" fill="url(#h)"/><path d="M51.36 45.98c-.08.22-.17.45-.27.68l-2.28 2.89-1.1-2.79.32-.63c.21-.42.36-.77.48-1.11 2.13-6.26-3.11-9.73-3.33-9.88L44 34.38l.68-1.23c.09-.17 2.21-4.12-.4-9.38-2.33-4.71-12.91-3.57-12.91-3.57s2.08-8-1.92-11.19c-.55 1.01-3.71 7.94-13.72 3.91-.78-.31-1.68-.76-2.8-1.38-4.51-2.47-8.09-6.61-20.1-2.81-4.34 1.38-8.92 5.17-8.74 8.89l.09 1.87-1.84-.31c-3.6-.6-9.1 4.01-11.47 7.59-1.22 1.84-3.98 9.5-1.92 17.71.11.45.26.94.46 1.5l.22.62-.04.08-1.09 1.9-2.11-1.9c-.05-.23-.27-1.14-.35-1.46-2.24-8.93.56-17.42 2.32-20.09 2.44-3.7 7.91-8.64 12.82-8.97.79-4.72 5.84-8.72 10.73-10.27C5.15 1.68 9.76 5.38 14.39 7.91c.96.53 1.82.93 2.36 1.18 4.51 2.1 8.06 1.6 9.72-1.09 1.58-2.55 1.35-4.06 1.35-4.06s8.12 2.25 6.56 12.69c2.93.12 10.56 1.69 12.6 5.8 2.42 4.9 1.56 8.99.86 10.95 2.53 2.14 5.55 6.64 3.52 12.6z" fill="#402720"/></g><g clip-path="url(#b)"><linearGradient id="i" x1="64.22" x2="64.22" y1="-4.38" y2="54.603" gradientUnits="userSpaceOnUse"><stop stop-color="#F48FB1" offset="0"/><stop stop-color="#EC407A" offset="1"/></linearGradient><path d="M64.22 70.89c-.66 0-1.28-.26-1.75-.73-1.16-1.17-2.64-2.66-4.33-4.36-8.42-8.45-22.51-22.58-26.83-29-2.03-3.03-3.26-5.96-3.76-8.95-.55-3.29-.52-7.96.77-10.97C31.37 9.75 37.53 5.5 44.79 5.5l.94.02c2.79.05 5.6.65 8.37 1.81 1.88.79 3.4 1.87 5 3.01.81.58 1.66 1.18 2.57 1.76.74.47 1.62.72 2.55.72s1.8-.25 2.54-.72c.91-.58 1.74-1.17 2.55-1.75 1.61-1.15 3.14-2.24 5.03-3.03 2.76-1.15 5.57-1.76 8.35-1.8l.96-.02c7.26 0 13.42 4.25 16.47 11.38 1.29 3.01 1.32 7.68.77 10.97-.51 3.02-1.75 5.95-3.76 8.94-4.31 6.43-18.43 20.58-26.86 29.03-1.68 1.69-3.15 3.16-4.3 4.33-.47.48-1.09.74-1.75.74z" fill="url(#i)"/><path d="M44.79 7h.06c.15 0 .3.01.45.01.13 0 .26 0 .42.01 2.58.04 5.21.61 7.79 1.69 1.73.73 3.11 1.71 4.71 2.85.83.59 1.69 1.2 2.64 1.81.98.62 2.14.95 3.35.95s2.37-.33 3.35-.95c.94-.6 1.79-1.2 2.61-1.79 1.61-1.15 3-2.14 4.73-2.87 2.59-1.08 5.21-1.65 7.83-1.69.13 0 .26-.01.39-.01.15 0 .3 0 .45-.01h.06c6.74 0 12.24 3.82 15.09 10.47 1.16 2.72 1.16 7.16.67 10.12-.48 2.81-1.63 5.55-3.53 8.37-4.23 6.3-18.27 20.38-26.67 28.8-1.69 1.69-3.16 3.17-4.31 4.34a.941.941 0 0 1-1.36 0c-1.16-1.17-2.64-2.66-4.33-4.36-8.39-8.41-22.42-22.48-26.65-28.78-1.91-2.86-3.06-5.59-3.53-8.36-.5-2.98-.5-7.42.67-10.14C32.55 10.82 38.05 7 44.79 7m38.86-3h-.11c-.3.01-.58.01-.88.02-3.08.05-6.07.74-8.9 1.92-3.03 1.27-5.11 3.18-7.8 4.89-.51.32-1.12.48-1.74.48s-1.24-.16-1.74-.48c-2.7-1.71-4.77-3.62-7.8-4.89-2.83-1.18-5.82-1.87-8.9-1.92-.29-.01-.59-.01-.88-.02h-.11c-7.83 0-14.51 4.48-17.85 12.29-1.42 3.32-1.45 8.32-.87 11.81.58 3.47 2.04 6.61 3.99 9.54 5.26 7.82 24.32 26.44 31.33 33.57.77.79 1.79 1.18 2.81 1.18s2.04-.39 2.81-1.18c7.01-7.13 26.08-25.75 31.33-33.57 1.97-2.92 3.41-6.06 4-9.54.58-3.49.56-8.49-.87-11.81C98.15 8.48 91.47 4 83.65 4z" fill="#D92E67"/></g></svg>