<svg viewBox="0 0 128 128" width="128" height="128" xmlns="http://www.w3.org/2000/svg" xmlns:xlink="http://www.w3.org/1999/xlink"><linearGradient id="a" x1="64" x2="64" y1="11.395" y2="88.489" gradientUnits="userSpaceOnUse"><stop stop-color="#26A69A" offset="0"/><stop stop-color="#00796B" offset="1"/></linearGradient><path fill="url(#a)" d="M6.36 10.9h115.29v77.52H6.36z"/><linearGradient id="b" x1="64" x2="64" y1="8.545" y2="90.776" gradientUnits="userSpaceOnUse"><stop stop-color="#8D6E63" offset="0"/><stop stop-color="#795548" offset=".779"/></linearGradient><path d="M119.29 13.26v72.81H8.71V13.26h110.58M124 8.54H4v82.23h120V8.54z" fill="url(#b)"/><radialGradient id="c" cx="124.18" cy="-33.18" r="57.903" gradientTransform="matrix(.826 0 0 .826 -38.317 19.676)" gradientUnits="userSpaceOnUse"><stop stop-color="#6D4C41" offset="0"/><stop stop-color="#543930" offset="1"/></radialGradient><path d="M47.02 119.76s-6.8-.35-10.21-5.09c-7.37-10.23-11.42-35.81-11.42-72.02 0-1.66.26-16.41 10.66-26.83C42.8 9.05 52.4 5.62 64.57 5.62c12.08 0 21.52 3.38 28.05 10.04 9.82 10.02 10.04 24.16 9.99 26.89 0 36.31-4.06 61.89-11.42 72.12-3.3 4.59-9.79 5.06-10.25 5.09L64 119.73l-16.98.03z" fill="url(#c)"/><path d="M64.57 7.12c11.66 0 20.74 3.23 26.98 9.59 9.6 9.8 9.59 24.2 9.56 25.81v.12c0 35.9-3.96 61.17-11.14 71.15-2.84 3.94-8.55 4.43-9.08 4.46l-16.9-.03-16.89.03c-.54-.04-6.24-.53-9.08-4.46-7.18-9.98-11.14-35.24-11.14-71.17 0-.63.08-15.58 10.22-25.75 6.47-6.46 15.71-9.75 27.47-9.75m0-3c-41.01 0-40.68 37.92-40.68 38.52 0 24.56 1.88 59.25 11.71 72.9 3.9 5.41 11.43 5.71 11.43 5.71l16.97-.02 16.97.03s7.53-.3 11.43-5.71c9.83-13.65 11.71-48.34 11.71-72.9-.01-.61 1.47-38.53-39.54-38.53z" fill="#3F2720"/><defs><path id="d" d="M4 4h120v120H4z"/></defs><clipPath id="e"><use xlink:href="#d"/></clipPath><g clip-path="url(#e)"><path d="M63.17 109.48c-4 0-7.26-3.22-7.26-7.17v-8.98h16.16v8.98c0 3.96-3.25 7.17-7.26 7.17h-1.64z" fill="#E59600"/><path d="M71.08 94.33v7.98c0 3.4-2.81 6.17-6.26 6.17h-1.65c-3.45 0-6.26-2.77-6.26-6.17v-7.98h14.17m2-2H54.92v9.98c0 4.51 3.7 8.17 8.26 8.17h1.65c4.56 0 8.26-3.66 8.26-8.17v-9.98h-.01z" fill="#D18100"/></g><g clip-path="url(#e)"><linearGradient id="f" x1="63.648" x2="64.119" y1="95.955" y2="139.27" gradientUnits="userSpaceOnUse"><stop stop-color="#B3E5FC" offset="0"/><stop stop-color="#70AFE3" offset="1"/></linearGradient><path d="M13.5 136.01v-15.26c0-16.24 25.36-23.53 50.5-23.56h.13c25.03 0 50.36 8.09 50.36 23.56v15.26H13.5z" fill="url(#f)"/><path d="M64.13 98.7c12.9 0 25.42 2.19 34.36 6 6.62 2.83 14.51 7.91 14.51 16.05v13.76H15v-13.76c0-15.2 24.61-22.03 49-22.06l.13.01m0-3H64c-25.49.03-52 7.28-52 25.06v16.76h104v-16.76C116 104 89.74 95.7 64.13 95.7z" fill="#3488C1"/></g><g clip-path="url(#e)"><linearGradient id="g" x1="29.837" x2="30.054" y1="105.84" y2="125.85" gradientUnits="userSpaceOnUse"><stop stop-color="#651FFF" offset="0"/><stop stop-color="#5914F2" offset=".705"/><stop stop-color="#530EEB" offset="1"/></linearGradient><path d="M13.5 136.01v-15.26c.67-14.89 17.28-19.32 32.92-22.78-1.34 4.39-3.48 14.63-3.48 35.29 0 .95.04 1.87.12 2.74H13.5z" fill="url(#g)"/><path d="M44.3 100.01c-1.32 5.46-2.86 15.6-2.86 33.26 0 .42.01.84.02 1.24H15v-13.69c.59-12.29 12.75-16.94 29.3-20.81m4.48-4.09C31.83 99.62 12.75 104 12 120.75v16.76h32.76c-.21-1.26-.32-2.66-.32-4.24 0-29.39 4.34-37.35 4.34-37.35z" fill="#4A00ED"/><linearGradient id="h" x1="44.764" x2="44.764" y1="137.51" y2="137.51" gradientUnits="userSpaceOnUse"><stop stop-color="#651FFF" offset="0"/><stop stop-color="#5914F2" offset=".705"/><stop stop-color="#530EEB" offset="1"/></linearGradient><linearGradient id="i" x1="-613.38" x2="-613.16" y1="105.84" y2="125.85" gradientTransform="matrix(-1 0 0 1 -514.82 0)" gradientUnits="userSpaceOnUse"><stop stop-color="#651FFF" offset="0"/><stop stop-color="#5914F2" offset=".705"/><stop stop-color="#530EEB" offset="1"/></linearGradient><path d="M85.33 136.01c.08-.88.12-1.8.12-2.74 0-20.66-2.14-30.9-3.48-35.29 15.63 3.46 32.25 7.89 32.92 22.84v15.19H85.33z" fill="url(#i)"/><path d="M84.09 100.01c16.54 3.87 28.71 8.52 29.3 20.82v13.69H86.93c.02-.41.02-.82.02-1.24 0-17.67-1.53-27.81-2.86-33.27m-4.48-4.09s4.34 7.95 4.34 37.34c0 1.58-.12 2.99-.32 4.24h32.76v-16.76c-.75-16.74-19.83-21.12-36.78-24.82z" fill="#4A00ED"/><linearGradient id="j" x1="-598.45" x2="-598.45" y1="137.51" y2="137.51" gradientTransform="matrix(-1 0 0 1 -514.82 0)" gradientUnits="userSpaceOnUse"><stop stop-color="#651FFF" offset="0"/><stop stop-color="#5914F2" offset=".705"/><stop stop-color="#530EEB" offset="1"/></linearGradient><linearGradient id="k" x1="39" x2="39" y1="99" y2="122.58" gradientUnits="userSpaceOnUse"><stop stop-color="#D1C4E9" stop-opacity=".2" offset="0"/><stop stop-color="#D1C4E9" stop-opacity=".6" offset=".785"/></linearGradient><path d="M35.44 124c.01-4.87.51-14.69 3.75-25.91l3.38-.82c-3.55 11.48-4.09 21.82-4.12 26.74l-3.01-.01z" fill="url(#k)"/><linearGradient id="l" x1="-547.35" x2="-547.35" y1="97.763" y2="122.39" gradientTransform="matrix(-1 0 0 1 -458.35 0)" gradientUnits="userSpaceOnUse"><stop stop-color="#D1C4E9" stop-opacity=".2" offset="0"/><stop stop-color="#D1C4E9" stop-opacity=".6" offset=".785"/></linearGradient><path d="M92.56 124c-.01-4.87-.51-14.69-3.75-25.91l-3.38-.82c3.55 11.48 4.09 21.82 4.12 26.74l3.01-.01z" fill="url(#l)"/></g><g clip-path="url(#e)"><path d="M63.17 109.48c-4 0-7.26-3.22-7.26-7.17v-8.98h16.16v8.98c0 3.96-3.25 7.17-7.26 7.17h-1.64z" fill="#99674F"/><path d="M71.08 94.33v7.98c0 3.4-2.81 6.17-6.26 6.17h-1.65c-3.45 0-6.26-2.77-6.26-6.17v-7.98h14.17m2-2H54.92v9.98c0 4.51 3.7 8.17 8.26 8.17h1.65c4.56 0 8.26-3.66 8.26-8.17v-9.98h-.01z" fill="#875740"/></g><g clip-path="url(#e)"><linearGradient id="m" x1="54.286" x2="54.286" y1="95.283" y2="106.59" gradientUnits="userSpaceOnUse"><stop stop-color="#E1F5FE" offset="0"/><stop stop-color="#81D4FA" offset="1"/></linearGradient><path fill="url(#m)" d="M46.99 97.58l6.62-3.76 7.97 10.23-12.66 5.18z"/><path d="M53.23 95.76l5.96 7.65-9.09 3.72-1.45-8.76 4.58-2.61M54 91.88l-8.66 4.92 2.41 14.54 16.23-6.65L54 91.88zm10.21 12.64l-.22.17c.16-.13.22-.17.22-.17z" fill="#66C0E8"/></g><g clip-path="url(#e)"><linearGradient id="n" x1="-573.04" x2="-573.04" y1="95.283" y2="106.59" gradientTransform="matrix(-1 0 0 1 -499.12 0)" gradientUnits="userSpaceOnUse"><stop stop-color="#E1F5FE" offset="0"/><stop stop-color="#81D4FA" offset="1"/></linearGradient><path fill="url(#n)" d="M66.62 104.05l7.97-10.23 6.63 3.76-1.94 11.65z"/><path d="M74.98 95.76l4.59 2.61-1.45 8.76-9.09-3.72 5.95-7.65m-.77-3.88l-9.98 12.81 16.23 6.65 2.41-14.54-8.66-4.92zM64 104.52s.06.04.22.17l-.22-.17z" fill="#66C0E8"/></g><linearGradient id="o" x1="78.493" x2="72.16" y1="106.73" y2="133.39" gradientUnits="userSpaceOnUse"><stop stop-color="#212121" stop-opacity=".2" offset=".002"/><stop stop-color="#212121" stop-opacity=".6" offset="1"/></linearGradient><path d="M102.42 111.85c0-.02-.01-.03-.01-.05a.3.3 0 0 0-.04-.1c-.17-.54-.56-.97-1.09-1.13l-.15-.04h-.01l-3.75-1.08-34.93-10.03c-.05-.01-.09-.01-.14-.03a6.177 6.177 0 0 0-7.51 4.27l-1.44 5.03c-.1.34-.21.71-.32 1.11l-1.32 4.61-8.43 29.38c0 .01-.01.03-.01.04l-1.7 5.92-.61 2.14c-.48 1.66-.22 3.35.58 4.73.01.01.01.02.02.03.09.15.18.3.28.45.04.06.09.12.14.18.07.09.13.18.2.26.11.13.22.25.34.36l.04.04c.73.72 1.64 1.28 2.7 1.58l18.05 5.14 21.78 6.25 2.23.64.01-.05.06.02 7.46-26.21 6.9-24.03.63-2.19-.06-.02.01-.05-1.55-.44 1.64-5.72c.1-.34.09-.69 0-1.01z" clip-path="url(#e)" fill="url(#o)"/><g clip-path="url(#e)"><path d="M104.46 109.53l-38.69-11.1a6.19 6.19 0 0 0-7.65 4.24L46.6 142.79a6.19 6.19 0 0 0 4.24 7.65l40.51 11.63 14.4-50.19c.29-1.01-.29-2.06-1.29-2.35z" fill="#424242"/><linearGradient id="p" x1="82.111" x2="76.945" y1="110.81" y2="128.14" gradientUnits="userSpaceOnUse"><stop stop-color="#EF5350" offset="0"/><stop stop-color="#E53935" offset="1"/></linearGradient><path d="M103.46 117.45l-41.52-11.9c-4.53-1.3-5.32 2.35-6.59 6.78L44.9 148.75c-1.27 4.43 1.37 9.07 5.89 10.37l37.61 10.79c1.25.36 2.54-.34 2.89-1.56l13.79-48.04c.35-1.22-.38-2.5-1.62-2.86z" fill="url(#p)"/><path d="M60.26 107.33c.31 0 .69.06 1.12.19l41.54 11.9c.1.03.16.09.19.14s.04.11.02.16L89.32 167.8c-.03.11-.15.16-.25.16-.03 0-.06 0-.09-.01l-37.65-10.8a6.525 6.525 0 0 1-3.9-3.05 6.137 6.137 0 0 1-.58-4.77l10.47-36.46.17-.61c1.07-3.76 1.59-4.93 2.77-4.93m0-2.04c-3.06 0-3.81 3.22-4.9 7.03l-10.47 36.46c-1.27 4.42 1.36 9.05 5.88 10.34l37.65 10.8c.22.06.44.09.65.09 1 0 1.92-.64 2.21-1.64l13.81-48.08c.35-1.21-.37-2.47-1.61-2.83l-41.54-11.9c-.63-.19-1.19-.27-1.68-.27z" fill="#424242" opacity=".2"/><path d="M64.33 101.57c.19 0 .38.02.59.07l37.25 10.7-.31 1.08c-11.79-3.29-34.29-9.62-38.94-11.16.24-.33.71-.69 1.41-.69m0-3.33c-4.52 0-6.78 5.57-3.12 6.94 4.03 1.51 42.93 12.32 42.93 12.32l1.58-5.52c.3-1.06-.19-2.14-1.11-2.4L65.77 98.42c-.5-.12-.98-.18-1.44-.18z" fill="#424242" opacity=".2"/><linearGradient id="q" x1="-18.033" x2="25.412" y1="425.84" y2="425.84" gradientTransform="matrix(.9612 .2758 .3192 -1.1123 -57.672 581.17)" gradientUnits="userSpaceOnUse"><stop stop-color="#BDBDBD" offset=".01"/><stop stop-color="#F5F5F5" offset=".987"/></linearGradient><path d="M103.37 112.12l-39.8-11.42c-1.08-.31-2.26.46-2.62 1.71l-.07.22c-.36 1.25.23 2.53 1.31 2.84L102 116.88s-.34-.83.07-2.3 1.3-2.46 1.3-2.46z" fill="url(#q)"/><defs><path id="r" d="M105.71 118.1L63.53 106c-3.25-.93-6.63.94-7.56 4.19l-11.69 40.7a6.12 6.12 0 0 0 4.19 7.57l42.18 12.1 15.06-52.46z"/></defs><defs><path id="s" d="M105.67 118.03l-44.5-12.66c-3.53-1-3.9.22-4.81 3.43L44.3 151.02c-.91 3.21 1.01 6.58 4.29 7.51l42.14 11.99 14.94-52.49z"/></defs><clipPath id="t"><use xlink:href="#s"/></clipPath><linearGradient id="u" x1="53.062" x2="57.437" y1="122.21" y2="108.46" gradientUnits="userSpaceOnUse"><stop stop-color="#212121" offset="0"/><stop stop-color="#424242" offset="1"/></linearGradient><path clip-path="url(#t)" fill="url(#u)" d="M63.63 96.95L57.2 95.1l-18.07 62.95 6.43 1.84z"/></g><linearGradient id="v" x1="64.306" x2="64.306" y1="94.708" y2="17.885" gradientUnits="userSpaceOnUse"><stop stop-color="#A47B62" offset="0"/><stop stop-color="#AD8264" offset=".191"/><stop stop-color="#B78A67" offset=".551"/><stop stop-color="#BA8D68" offset="1"/></linearGradient><path d="M64.31 95.27c-2.3 0-4.91-.5-7.57-1.43-11.33-4.01-24.57-16.34-24.57-37.89 0-28.72 17.31-38.91 32.13-38.91s32.13 10.19 32.13 38.91c0 21.58-13.26 33.9-24.61 37.9-2.63.93-5.23 1.42-7.51 1.42z" fill="url(#v)"/><path d="M64.31 18.04c8.41 0 16.06 3.25 21.55 9.15 6.27 6.73 9.58 16.68 9.58 28.77 0 21.06-12.9 33.07-23.94 36.96-2.53.89-5.01 1.36-7.19 1.36-2.19 0-4.69-.48-7.23-1.38-11.03-3.9-23.9-15.92-23.9-36.94 0-12.09 3.31-22.03 9.58-28.77 5.48-5.9 13.14-9.15 21.55-9.15m0-2c-17.2 0-33.13 12.79-33.13 39.91 0 21.79 13.49 34.67 25.23 38.83 2.8.99 5.5 1.49 7.9 1.49 2.38 0 5.07-.49 7.85-1.47 11.76-4.14 25.28-17.03 25.28-38.84 0-27.13-15.93-39.92-33.13-39.92z" fill="#91674D"/><defs><path id="w" d="M30.41 88.85l-1.5-51.44c0-16.95 15.78-29.85 32.73-29.85h4.93c16.95 0 32.54 12.9 32.54 29.85l-1.5 51.18-67.2.26z"/></defs><clipPath id="x"><use xlink:href="#w"/></clipPath><g clip-path="url(#x)"><radialGradient id="y" cx="149.59" cy="-24.331" r="48.206" gradientTransform="matrix(.796 0 0 .796 -55.078 18.947)" gradientUnits="userSpaceOnUse"><stop stop-color="#6D4C41" offset="0"/><stop stop-color="#543930" offset="1"/></radialGradient><path d="M101.89 42.65s1.02-35.57-37.81-35.57-37.97 35.57-37.97 35.57.33 45.48 3.2 51.39 7.2 5.71 7.2 5.71-2.03-26.54-2.26-39.04c-.06-2.92-.94-13.73 5.16-15.09 22.36-5.02 35.01-16.89 35.01-16.89C77.71 35.92 88 42.92 91.69 45.59c3.03 2.19 2.61 11.2 2.55 15.03l-3.05 39.06s4.68.37 7.65-5.64c2.96-6.02 3.05-51.39 3.05-51.39z" fill="url(#y)"/></g><path d="M68.37 68.05c-.1-.04-.21-.07-.32-.08h-6.99c-.11.01-.21.04-.32.08-.63.26-.98.91-.68 1.61s1.69 2.66 4.49 2.66 4.19-1.96 4.49-2.66c.31-.69-.04-1.35-.67-1.61z" fill="#99674F"/><ellipse cx="49.31" cy="58.87" rx="4.87" ry="5.04" fill="#49362E"/><ellipse cx="79.8" cy="58.87" rx="4.87" ry="5.04" fill="#49362E"/><path d="M55.54 49.82c-.93-1.23-3.07-3.01-7.23-3.01S42 48.6 41.08 49.82c-.41.54-.31 1.17-.02 1.55.26.35 1.04.68 1.9.39s2.54-1.16 5.35-1.18c2.81.02 4.49.89 5.35 1.18s1.64-.03 1.9-.39c.29-.38.39-1.01-.02-1.55zM88.04 49.82c-.93-1.23-3.07-3.01-7.23-3.01s-6.31 1.79-7.23 3.01c-.41.54-.31 1.17-.02 1.55.26.35 1.04.68 1.9.39s2.54-1.16 5.35-1.18c2.81.02 4.49.89 5.35 1.18s1.64-.03 1.9-.39c.28-.38.39-1.01-.02-1.55z" fill="#613E31"/><path d="M72.62 76.14c-3.15 1.87-13.46 1.87-16.61 0-1.81-1.07-3.65.57-2.9 2.21.74 1.61 6.37 5.36 11.23 5.36 4.87 0 10.42-3.75 11.16-5.36.75-1.64-1.07-3.29-2.88-2.21z" fill="#5D4037"/><path d="M93.93 52.93c-.07-1.19-.12-1.31-1.69-1.81-1.23-.39-7.95-.94-13.01-.66-.36.02-.71.04-1.05.07-4.59.39-10.1 2.24-14.24 2.34-1.76.04-9.01-1.86-14.14-2.26-.33-.02-.66-.05-1-.06-5.07-.26-11.82.34-13.05.73-1.57.5-1.62.63-1.68 1.82-.07 1.19.13 2.2 1.06 2.51 1.27.41 1.28 2 2.13 6.54.77 4.14 2.62 7.41 10.57 7.98.34.02.66.04.98.04 7.03.1 9.45-4.53 10.25-6.07 1.5-2.86 1.02-6.8 4.96-6.81s3.55 3.86 5.07 6.71c.81 1.53 3.17 6.18 10.14 6.08.34-.01.69-.02 1.05-.05 7.94-.62 9.78-3.9 10.52-8.04.82-4.55.83-6.13 2.09-6.56.92-.3 1.11-1.31 1.04-2.5zM53.37 68.17c-1.21.57-2.85.86-4.57.85-3.59-.01-7.57-1.27-9.01-3.81-2.04-3.62-2.57-10.94.03-12.47 1.14-.67 4.99-1.13 8.97-.96 4.13.18 8.41 1.04 9.94 3.06 2.56 3.34-1.5 11.51-5.36 13.33zm34.9-3.1c-1.43 2.56-5.44 3.85-9.05 3.86-1.7.01-3.31-.27-4.51-.83-3.87-1.8-7.97-9.94-5.45-13.3 1.53-2.04 5.82-2.92 9.96-3.12 3.97-.19 7.81.25 8.94.91 2.62 1.53 2.13 8.85.11 12.48z" fill="#212121" stroke="#212121" stroke-miterlimit="10" stroke-width=".55"/></svg>