<svg viewBox="0 0 128 128" width="128" height="128" xmlns="http://www.w3.org/2000/svg" xmlns:xlink="http://www.w3.org/1999/xlink"><defs><path id="a" d="M4 4h120v120H4z"/></defs><clipPath id="b"><use xlink:href="#a"/></clipPath><g clip-path="url(#b)"><path d="M49.17 109.53c-4 0-7.26-3.22-7.26-7.17v-8.98h16.16v8.98c0 3.95-3.26 7.17-7.26 7.17h-1.64z" fill="#E59600"/><path d="M57.08 94.37v7.98c0 3.4-2.81 6.17-6.26 6.17h-1.65c-3.45 0-6.26-2.77-6.26-6.17v-7.98h14.17m2-2H40.92v9.98c0 4.51 3.7 8.17 8.26 8.17h1.65c4.56 0 8.26-3.66 8.26-8.17v-9.98h-.01z" fill="#D18100"/></g><g clip-path="url(#b)"><defs><path id="c" d="M4 4h120v120H4z"/></defs><clipPath id="d"><use xlink:href="#c"/></clipPath><g clip-path="url(#d)"><linearGradient id="e" x1="50" x2="50" y1="97.258" y2="136.07" gradientUnits="userSpaceOnUse"><stop stop-color="#303F9F" offset=".003"/><stop stop-color="#273492" offset=".472"/><stop stop-color="#1A237E" offset="1"/></linearGradient><path d="M5.5 136.07v-15.26c0-7.61 4.6-13.6 13.68-17.83C27.1 99.3 38.04 97.26 50 97.25h.12c22.05 0 44.38 8.09 44.38 23.56v15.26h-89z" fill="url(#e)"/><path d="M50.12 98.76c11.32 0 22.3 2.17 30.13 5.95 5.82 2.81 12.75 7.88 12.75 16.11v13.76H7v-13.76c0-6.97 4.31-12.51 12.81-16.46 7.72-3.59 18.44-5.58 30.19-5.59l.12-.01m0-3H50c-22.55.03-46 7.28-46 25.06v16.76h92v-16.76c0-16.76-23.23-25.06-45.88-25.06z" fill="#1B2B8F"/></g><g clip-path="url(#d)"><path d="M49.17 109.53c-4 0-7.26-3.22-7.26-7.17v-8.98h16.16v8.98c0 3.95-3.26 7.17-7.26 7.17h-1.64z" fill="#99674F"/><path d="M57.08 94.37v7.98c0 3.4-2.81 6.17-6.26 6.17h-1.65c-3.45 0-6.26-2.77-6.26-6.17v-7.98h14.17m2-2H40.92v9.98c0 4.51 3.7 8.17 8.26 8.17h1.65c4.56 0 8.26-3.66 8.26-8.17v-9.98h-.01z" fill="#875740"/></g><g clip-path="url(#d)"><path fill="#F5F5F5" d="M39.44 104.56h19.89l-9.32 26.05z"/><linearGradient id="f" x1="37.317" x2="37.317" y1="97.062" y2="125.17" gradientUnits="userSpaceOnUse"><stop stop-color="#5C6BC0" offset="0"/><stop stop-color="#3949AB" offset="1"/></linearGradient><path d="M36.83 109.27a.999.999 0 0 0-1.2-.37l-8.55 3.37L33.8 97.8l6.36-.74 7.39 28.11-10.72-15.9z" fill="url(#f)"/><path d="M39.41 98.16l5.67 21.57-7.43-11.01a2.01 2.01 0 0 0-1.66-.88c-.25 0-.49.05-.73.14l-6.22 2.46 5.42-11.7 4.95-.58m1.5-2.19l-7.78.91-8 17.25 10.87-4.3 14.01 20.78-9.1-34.64z" fill="#5C6BC0"/><linearGradient id="g" x1="-607.34" x2="-607.34" y1="97.062" y2="125.63" gradientTransform="matrix(-1 0 0 1 -544.67 0)" gradientUnits="userSpaceOnUse"><stop stop-color="#5C6BC0" offset="0"/><stop stop-color="#3949AB" offset="1"/></linearGradient><path d="M59.89 97.06l6.36.74 6.69 14.43-7.74-3.16a.986.986 0 0 0-.38-.07c-.31 0-.62.15-.81.42l-11.64 16.21 7.52-28.57z" fill="url(#g)"/><path d="M60.64 98.16l4.94.58 5.39 11.62-5.38-2.2c-.25-.1-.5-.15-.76-.15-.63 0-1.24.3-1.63.83l-8.48 11.82 5.92-22.5m-1.49-2.19l-9.11 34.64L64.83 110l10.1 4.12-8-17.25-7.78-.9z" fill="#5C6BC0"/></g><g clip-path="url(#d)"><linearGradient id="h" x1="106.46" x2="106.46" y1="107.07" y2="136.06" gradientUnits="userSpaceOnUse"><stop stop-color="#303F9F" offset=".003"/><stop stop-color="#273492" offset=".472"/><stop stop-color="#1A237E" offset="1"/></linearGradient><path d="M99.18 136.06l6.05-28.99c5.65 3.84 8.52 8.45 8.52 13.73v15.26H99.18z" fill="url(#h)"/><path d="M106.22 109.67c4 3.24 6.03 6.98 6.03 11.13v13.76h-11.23l5.2-24.89m-2.01-5.02l-6.88 32.91h17.92V120.8c0-6.75-4.27-12.14-11.04-16.15z" fill="#1B2B8F"/></g><g clip-path="url(#d)"><defs><path id="i" d="M-2 120.8v16.76h104V120.8c0-16.79-26.35-25.09-52-25.06-25.49.03-52 7.28-52 25.06z"/></defs></g><g clip-path="url(#d)"><linearGradient id="j" x1="105.09" x2="98.422" y1="10.065" y2="85.158" gradientTransform="rotate(5.19 -390.073 85.96)" gradientUnits="userSpaceOnUse"><stop stop-color="#90A4AE" offset="0"/><stop stop-color="#889DA8" offset=".267"/><stop stop-color="#78909C" offset=".584"/><stop stop-color="#607D8B" offset="1"/></linearGradient><path d="M96.56 131.79c-.38 0-.77-.06-1.14-.17-1.97-.58-3.21-2.72-2.81-4.88l7.8-42.23c.5-2.69-.42-5.46-2.45-7.39-3.83-3.64-5.52-9.04-4.53-14.42.7-3.76 2.66-7.15 5.54-9.53.14-.12.29-.17.45-.17.21 0 .42.1.56.26.13.15.17.34.13.56l-1.46 7.9c-.16.84.1 1.72.69 2.34l6.16 6.5c.5.53 1.22.84 1.95.84.4 0 .8-.09 1.16-.26l8.08-3.87c.77-.37 1.33-1.09 1.49-1.94l1.46-7.9c.08-.42.42-.56.68-.56.15 0 .44.05.62.37 1.83 3.26 2.46 7.12 1.77 10.88-1 5.39-4.5 9.82-9.38 11.85-2.59 1.08-4.43 3.33-4.93 6.03l-7.85 42.46a4.053 4.053 0 0 1-3.99 3.33z" fill="url(#j)"/><path d="M98.98 54.5l-1.3 7.04c-.21 1.16.14 2.36.95 3.21l6.16 6.5c.69.73 1.67 1.15 2.68 1.15.55 0 1.1-.13 1.59-.36l8.08-3.87c1.06-.51 1.82-1.5 2.04-2.66l1.3-7.04c1.41 2.89 1.86 6.22 1.26 9.46-.93 5.05-4.22 9.21-8.78 11.11-2.9 1.21-4.97 3.74-5.53 6.77l-7.85 42.46a3.076 3.076 0 0 1-3.88 2.39c-1.49-.43-2.41-2.07-2.1-3.73l7.8-42.23c.56-3.03-.47-6.13-2.74-8.3-3.58-3.41-5.17-8.46-4.23-13.52.59-3.24 2.19-6.19 4.55-8.38m.45-2.5c-.37 0-.75.12-1.09.4-2.95 2.45-5.12 5.97-5.89 10.12-1.09 5.9.91 11.61 4.82 15.33 1.76 1.68 2.6 4.1 2.16 6.49l-7.8 42.23c-.48 2.6.98 5.28 3.51 6.02.48.14.96.2 1.42.2 2.39 0 4.54-1.71 4.99-4.15l7.85-42.46c.44-2.39 2.09-4.35 4.33-5.29 4.98-2.08 8.89-6.69 9.98-12.59.77-4.15 0-8.22-1.88-11.56-.34-.6-.92-.88-1.49-.88-.76 0-1.5.49-1.67 1.38l-1.46 7.9c-.1.53-.45.99-.93 1.22l-8.08 3.87c-.23.11-.48.17-.73.17-.45 0-.9-.18-1.23-.53l-6.16-6.5c-.37-.39-.53-.94-.44-1.47l1.46-7.9c.21-1.14-.69-2-1.67-2z" fill="#587D8C"/></g><path d="M94.51 117.35l-2.03 2.11s-5.54-1.17-4.88-4.46c.16-.78 1.56-2.44 1.56-2.44s-2.85-2.35-2.4-3.94c.45-1.57 3.17-2.79 3.17-2.79s-2.11-1.26-1.28-3.63c.57-1.62 3.53-2.16 3.53-2.16s-2.76-4.05 2.85-4.97c1.77-.29 5.74.3 9.3 2.93s5.19 4.21 6.83 7.67c2.5 5.25-1.92 14.25-5.31 14.33-2.83.06-11.34-2.65-11.34-2.65z" clip-path="url(#d)" fill="#BA8D68" stroke="#91674D" stroke-linecap="round" stroke-linejoin="round" stroke-miterlimit="10" stroke-width="1.937"/></g><g clip-path="url(#b)"><path d="M22.67 72.3c-5.36 0-9.71-4.67-9.71-10.41s4.36-10.41 9.71-10.41h54.65c5.36 0 9.71 4.67 9.71 10.41S82.67 72.3 77.32 72.3H22.67z" fill="#99674F"/><path d="M77.33 52.48c4.8 0 8.71 4.22 8.71 9.41s-3.91 9.41-8.71 9.41H22.67c-4.8 0-8.71-4.22-8.71-9.41s3.91-9.41 8.71-9.41h54.66m0-2H22.67c-5.89 0-10.71 5.14-10.71 11.41 0 6.28 4.82 11.41 10.71 11.41h54.65c5.89 0 10.71-5.14 10.71-11.41.01-6.28-4.81-11.41-10.7-11.41z" fill="#875740"/><linearGradient id="k" x1="50" x2="50" y1="94.638" y2="12.872" gradientUnits="userSpaceOnUse"><stop stop-color="#A47B62" offset="0"/><stop stop-color="#AD8264" offset=".191"/><stop stop-color="#B78A67" offset=".551"/><stop stop-color="#BA8D68" offset="1"/></linearGradient><path d="M50 95.32c-15.66 0-32.52-12.14-32.52-38.81 0-12.38 3.56-23.79 10.02-32.13 6.04-7.8 14.25-12.27 22.5-12.27s16.45 4.47 22.5 12.27c6.46 8.34 10.02 19.75 10.02 32.13 0 12.09-3.51 22.19-10.14 29.21-5.86 6.19-13.81 9.6-22.38 9.6z" fill="url(#k)"/><path d="M50 13.11c7.94 0 15.85 4.33 21.71 11.88 6.33 8.16 9.81 19.35 9.81 31.52 0 11.83-3.41 21.7-9.87 28.52-5.67 5.99-13.36 9.29-21.65 9.29s-15.98-3.3-21.65-9.29c-6.46-6.82-9.87-16.69-9.87-28.52 0-12.16 3.49-23.35 9.81-31.52C34.15 17.44 42.06 13.11 50 13.11m0-2c-17.4 0-33.52 18.61-33.52 45.39 0 26.64 16.61 39.81 33.52 39.81S83.52 83.14 83.52 56.5c0-26.78-16.12-45.39-33.52-45.39z" fill="#91674D"/><path d="M25.99 50.77s.13-.19.38-.51c.07-.08.12-.16.22-.26.11-.11.23-.22.37-.34s.28-.24.43-.38c.15-.13.31-.23.48-.35.17-.11.34-.24.53-.35.19-.1.4-.21.6-.32.21-.12.43-.21.66-.3s.47-.18.71-.27c.49-.14 1-.29 1.54-.36.53-.1 1.08-.11 1.63-.14.55.03 1.09.03 1.63.14.53.07 1.05.22 1.54.36.24.08.48.17.71.27.23.09.45.18.66.3.21.11.41.22.6.32.19.11.36.24.53.35.17.12.33.22.47.34s.27.24.4.35c.12.11.24.21.34.31s.18.21.26.29c.31.36.46.57.46.57.51.7.35 1.69-.36 2.19-.43.31-.96.37-1.43.21l-.29-.1s-.19-.07-.49-.2c-.08-.03-.15-.07-.25-.11-.1-.03-.19-.07-.3-.11-.21-.08-.44-.17-.7-.25-.13-.04-.26-.09-.4-.13-.14-.03-.28-.07-.43-.11l-.22-.06c-.08-.01-.15-.03-.23-.04-.16-.03-.31-.07-.47-.1-.33-.04-.66-.11-1-.12-.34-.04-.69-.03-1.03-.05-.35.02-.7.01-1.03.05-.34.02-.67.09-1 .12-.16.03-.31.07-.47.1-.08.01-.16.03-.23.04l-.22.06c-.15.04-.29.07-.43.11s-.27.09-.4.13-.25.08-.37.11c-.1.04-.2.07-.29.1l-.27.09c-.1.04-.2.1-.29.14-.36.18-.57.27-.57.27-.83.34-1.77-.05-2.11-.87-.24-.48-.16-1.05.13-1.49z" fill="#613E31"/><ellipse cx="34.19" cy="58.86" rx="4.93" ry="5.1" fill="#49362E"/><path d="M72.05 53.18s-.22-.09-.57-.27c-.09-.04-.19-.1-.29-.14-.09-.02-.18-.06-.27-.09s-.19-.07-.29-.1c-.12-.04-.24-.07-.37-.11s-.26-.09-.4-.13-.28-.07-.43-.11l-.22-.06c-.08-.01-.15-.03-.23-.04-.16-.03-.31-.07-.47-.1-.33-.04-.66-.11-1-.12-.34-.04-.69-.03-1.03-.05-.35.02-.7.01-1.03.05-.34.02-.67.09-1 .12-.16.03-.31.07-.47.1-.08.01-.16.03-.23.04l-.22.06c-.15.04-.29.08-.43.11-.14.04-.27.09-.4.13-.26.07-.49.16-.7.25-.11.04-.2.08-.3.11-.09.04-.17.08-.25.11-.3.13-.49.2-.49.2l-.28.1c-.82.29-1.72-.15-2-.97-.17-.5-.08-1.03.21-1.44 0 0 .16-.22.46-.57.08-.09.16-.19.26-.29s.22-.2.34-.31.26-.23.4-.35.31-.22.47-.34c.17-.12.34-.24.53-.35.19-.1.4-.21.6-.32.21-.12.43-.21.66-.3s.46-.18.71-.27c.49-.14 1-.29 1.54-.36.53-.1 1.08-.11 1.63-.14.55.03 1.09.03 1.63.14.53.06 1.05.22 1.54.36.24.08.48.17.71.27.23.09.45.18.66.3.21.11.41.22.6.32.19.11.36.24.53.35.17.12.32.22.48.35.15.13.3.26.43.38s.26.23.37.34c.09.1.15.18.22.26.25.31.38.51.38.51.5.74.31 1.74-.43 2.25-.49.28-1.07.31-1.56.12z" fill="#613E31"/><ellipse cx="65.33" cy="58.86" rx="4.93" ry="5.1" fill="#49362E"/><path d="M53.86 68.1c-.11-.04-.21-.07-.32-.08h-7.07c-.11.01-.22.04-.32.08-.64.26-.99.92-.69 1.63s1.71 2.69 4.55 2.69 4.25-1.99 4.55-2.69c.29-.7-.06-1.37-.7-1.63z" fill="#99674F"/><path d="M58.53 76.19c-3.19 1.89-13.63 1.89-16.81 0-1.83-1.09-3.7.58-2.94 2.24.75 1.63 6.45 5.42 11.37 5.42s10.55-3.79 11.3-5.42c.75-1.67-1.09-3.33-2.92-2.24z" fill="#5D4037"/><radialGradient id="l" cx="50.267" cy="5.613" r="47.926" gradientUnits="userSpaceOnUse"><stop stop-color="#6D4C41" offset="0"/><stop stop-color="#523329" offset="1"/></radialGradient><path d="M50.02 5.38h-.04c-42.32 0-36.13 50.84-36.13 50.84s5.1 8.99 5.1 8.81c-.16-7.25 2.74-20.09 4.8-25.55a6.075 6.075 0 0 1 6.79-3.83c4.45.81 11.55 1.81 19.37 1.81h.16c7.83 0 14.92-1 19.37-1.81 2.9-.53 5.76 1.08 6.79 3.83 2.06 5.47 4.96 18.3 4.8 25.55 0 .18 5.1-8.81 5.1-8.81S92.5 5.38 50.02 5.38z" fill="url(#l)"/><defs><path id="m" d="M6 67c0-.5 7.07-23.18 7.07-23.18l11.27-12.15h54.5l12 19.17v18.83L6 67z"/></defs><clipPath id="n"><use xlink:href="#m"/></clipPath><g clip-path="url(#n)"><path d="M50.02 5.38h-.04c-45.43.24-36.13 50.84-36.13 50.84s5 8.81 5.1 8.81c-.03-1.48.07-3.2.26-5.03-.12-.29-2.46-4.75-2.48-4.79-.24-1.6-.93-6.98-.55-13.56.41-7.04 2.17-16.96 8.22-24.22 5.67-6.8 14.27-8.98 25.56-9.05H50c11.32.06 18.91 3.15 24.58 9.96 10.81 12.96 9.2 33.41 8.69 36.87-.02.04-2.46 4.58-2.49 4.65.2 1.89.31 3.65.27 5.17.1 0 5.1-8.81 5.1-8.81s9.3-50.84-36.13-50.84z" fill="#402821"/></g><linearGradient id="o" x1="50" x2="50" y1="38.879" y2="-1.338" gradientUnits="userSpaceOnUse"><stop stop-color="#0068B5" offset="0"/><stop stop-color="#4C8EEA" offset=".807"/><stop stop-color="#5E97F6" offset="1"/></linearGradient><path d="M49.73 4.59C67.67 4.59 84.14 16.25 87 44.8c0 0-9.75-8.02-36.77-8.02-29.25 0-37.33 8.53-37.23 7.6 3.12-28.52 19.59-39.8 37.23-39.8h-.5z" fill="url(#o)"/><linearGradient id="p" x1="49.731" x2="49.731" y1="45.463" y2="19.707" gradientUnits="userSpaceOnUse"><stop stop-color="#0068B5" offset="0"/><stop stop-color="#5E97F6" offset="1"/></linearGradient><path d="M26.93 34.45c0-18.74 8.97-28.81 22.8-28.81s22.8 10.47 22.8 28.81c0 14.9-10.77 3.17-22.8 3.17s-22.8 11.74-22.8-3.17z" fill="url(#p)"/><path d="M50.23 4.59h-.5.5z" fill="#072D83" opacity=".5"/><path d="M49.98 6.59c19.41 0 31.31 12 34.59 34.76-8.12-3.8-19.65-5.73-34.34-5.73-14.45 0-26.15 1.88-34.82 5.59 1.67-11.59 5.55-20.4 11.56-26.21 5.77-5.58 13.51-8.41 23.01-8.41m0-2C31.22 4.59 16 15.25 13 44.39c-.01.05.02.08.07.08.85 0 9.79-6.85 37.16-6.85 27.8 0 36.14 7.23 36.74 7.23.03 0 .04-.01.03-.04C84.08 15.36 68.74 4.59 49.98 4.59z" fill="#0D47A1"/><path d="M50.09 28.48c-21.77 0-32.21 11.89-32.21 11.89-.02 1.97 2.2 5.52 7.25 6.33 6.95 1.12 11.44-4.5 24.85-4.5h.07v-.03l.04.03h.07c13.41 0 17.89 5.61 24.85 4.5 5.05-.81 6.89-3.85 6.87-5.81-.01 0-9.76-12.41-31.79-12.41z" fill="#5E97F6"/><path d="M49.97 29.98c20.36 0 29.02 9.27 30.64 11.26-.03.42-.22.89-.54 1.33-.57.77-2.04 2.14-5.5 2.57-.58.07-1.13.11-1.68.11-2.52 0-4.61-.74-7.25-1.68-3.68-1.31-8.26-2.94-15.66-2.94S38 42.26 34.32 43.57c-2.64.94-4.73 1.68-7.25 1.68-.55 0-1.11-.04-1.68-.11-3.47-.44-4.93-1.8-5.5-2.57-.33-.44-.51-.91-.54-1.34.7-.88 2.74-3.16 6.5-5.42 4.4-2.66 12.18-5.83 24.12-5.83m0-2c-24.31 0-32.59 12.52-32.59 12.52-.45 2.46 1.83 5.88 7.74 6.63.67.08 1.32.12 1.93.12 6.74 0 10.63-4.62 22.91-4.62s16.17 4.62 22.91 4.62c.62 0 1.26-.04 1.93-.12 5.92-.74 8.19-4.17 7.74-6.63.02 0-8.37-12.52-32.57-12.52z" fill="#0D47A1"/></g></svg>