<svg viewBox="0 0 128 128" width="128" height="128" xmlns="http://www.w3.org/2000/svg" xmlns:xlink="http://www.w3.org/1999/xlink"><defs><path id="a" d="M4 4h120v120H4z"/></defs><clipPath id="b"><use xlink:href="#a"/></clipPath><g clip-path="url(#b)"><linearGradient id="c" x1="64" x2="64" y1="96.18" y2="129.4" gradientUnits="userSpaceOnUse"><stop stop-color="#00BFA5" offset="0"/><stop stop-color="#00B29A" offset=".705"/><stop stop-color="#00AB94" offset="1"/></linearGradient><path d="M14.37 129.4v-9.44c0-7.61 5.08-13.64 15.1-17.92 8.83-3.77 21.09-5.85 34.54-5.86h.13c24.6 0 49.5 8.17 49.5 23.78v9.44H14.37z" fill="url(#c)"/><path d="M64.13 97.68c12.78 0 25.13 2.22 33.89 6.1 6.44 2.85 14.12 7.97 14.12 16.18v7.94H15.87v-7.94c0-15.35 24.18-22.25 48.14-22.28h.12m0-3H64c-25.49.03-51.13 7.5-51.13 25.28v10.94h102.27v-10.94c-.01-16.76-25.41-25.28-51.01-25.28z" fill="#009984"/></g><g clip-path="url(#b)"><path d="M63.17 107.23c-4 0-7.26-3.22-7.26-7.17v-8.98h16.16v8.98c0 3.96-3.26 7.17-7.26 7.17h-1.64z" fill="#99674F"/><path d="M71.08 92.08v7.98c0 3.4-2.81 6.17-6.26 6.17h-1.65c-3.45 0-6.26-2.77-6.26-6.17v-7.98h14.17m2-2H54.92v9.98c0 4.51 3.7 8.17 8.26 8.17h1.65c4.56 0 8.26-3.66 8.26-8.17v-9.98h-.01z" fill="#875740"/></g><g clip-path="url(#b)"><defs><path id="d" d="M108 95.55l-89.65-.25V4l89.65.25z"/></defs><clipPath id="e"><use xlink:href="#d"/></clipPath><g clip-path="url(#e)"><path d="M36.67 72.26c-5.36 0-9.71-4.67-9.71-10.41s4.36-10.41 9.71-10.41h54.65c5.36 0 9.71 4.67 9.71 10.41s-4.36 10.41-9.71 10.41H36.67z" fill="#99674F"/><path d="M91.33 52.43c4.8 0 8.71 4.22 8.71 9.41s-3.91 9.41-8.71 9.41H36.67c-4.8 0-8.71-4.22-8.71-9.41s3.91-9.41 8.71-9.41h54.66m0-2H36.67c-5.89 0-10.71 5.14-10.71 11.41 0 6.28 4.82 11.41 10.71 11.41h54.65c5.89 0 10.71-5.14 10.71-11.41.01-6.27-4.81-11.41-10.7-11.41z" fill="#875740"/><linearGradient id="f" x1="64" x2="64" y1="93.6" y2="12.816" gradientUnits="userSpaceOnUse"><stop stop-color="#A47B62" offset="0"/><stop stop-color="#AD8264" offset=".191"/><stop stop-color="#B78A67" offset=".551"/><stop stop-color="#BA8D68" offset="1"/></linearGradient><path d="M64 94.27c-8.29 0-16.44-3.85-22.35-10.56-6.65-7.55-10.17-18-10.17-30.21 0-27.88 10.64-41.43 32.52-41.43S96.52 25.62 96.52 53.5c0 12.21-3.52 22.66-10.17 30.21C80.44 90.42 72.3 94.27 64 94.27z" fill="url(#f)"/><path d="M64 13.07c21.5 0 31.52 12.85 31.52 40.43 0 11.97-3.43 22.19-9.92 29.55-5.72 6.5-13.59 10.22-21.6 10.22s-15.88-3.72-21.6-10.22c-6.49-7.37-9.92-17.58-9.92-29.55 0-27.21 10.31-40.43 31.52-40.43m0-2c-24 0-33.52 16.09-33.52 42.43 0 26.64 16.61 41.77 33.52 41.77S97.52 80.14 97.52 53.5C97.52 26.72 88 11.07 64 11.07z" fill="#91674D"/><g fill="#49362E"><ellipse cx="47.37" cy="58.81" rx="4.93" ry="5.1"/><ellipse cx="80.63" cy="58.81" rx="4.93" ry="5.1"/></g><path d="M67.86 68.06c-.11-.04-.21-.07-.32-.08h-7.07c-.11.01-.22.04-.32.08-.64.26-.99.92-.69 1.63s1.71 2.69 4.55 2.69 4.25-1.99 4.55-2.69c.29-.71-.06-1.37-.7-1.63z" fill="#99674F"/><path d="M72.21 76.14c-3.19 1.89-13.63 1.89-16.81 0-1.83-1.09-3.7.58-2.94 2.24.75 1.63 6.45 5.42 11.37 5.42s10.55-3.79 11.3-5.42c.75-1.66-1.09-3.33-2.92-2.24z" fill="#5D4037"/><defs><path id="g" d="M64 4.03h-.04c-45.43.24-36.12 52.14-36.12 52.14s5.1 8.99 5.1 8.81c-.03-1.41.46-6.89.46-6.89l-2.68-2.92s3.89-25.44 6.79-24.91c4.45.81 26.54 2 26.57 2 7.83 0 14.92-.36 19.37-1.17 2.9-.53 9.64 1.7 10.68 4.45 1.33 3.54 3.13 19.71 3.13 19.71l-2.68 2.83s.49 5.51.46 6.89c0 .18 5.1-8.81 5.1-8.81S109.44 4.27 64 4.03z"/></defs><path d="M54.98 49.82c-.93-1.23-3.07-3.01-7.23-3.01s-6.31 1.79-7.23 3.01c-.41.54-.31 1.17-.02 1.55.26.35 1.04.68 1.9.39s2.54-1.16 5.35-1.18c2.81.02 4.49.89 5.35 1.18s1.64-.03 1.9-.39c.29-.38.39-1.01-.02-1.55zM87.48 49.82c-.93-1.23-3.07-3.01-7.23-3.01s-6.31 1.79-7.23 3.01c-.41.54-.31 1.17-.02 1.55.26.35 1.04.68 1.9.39s2.54-1.16 5.35-1.18c2.81.02 4.49.89 5.35 1.18s1.64-.03 1.9-.39c.29-.38.39-1.01-.02-1.55z" fill="#613E31"/></g></g></svg>