<svg viewBox="0 0 128 128" width="128" height="128" xmlns="http://www.w3.org/2000/svg"><path d="M98.47 35.38c4.62-.16 9.12 1.45 12.52 4.37 3.41 2.94 5.52 7.11 5.98 11.42.26 2.18-.02 4.34-.36 6.27-.34 1.94-.73 3.78-.75 5.55-.03 1.75.3 3.56 1.03 5.14.73 1.57 1.93 2.89 3.55 3.4l-.43 1.57c-2.19-.47-3.97-2.13-5.01-3.98-1.07-1.87-1.63-3.93-1.78-6.06-.15-2.12.12-4.13.28-6.03.17-1.91.22-3.66-.12-5.33-.65-3.36-2.62-6.43-5.28-8.33-2.66-1.93-6.09-2.77-9.21-2.38l-.42-5.61z" fill="#786047"/><path d="M116.81 78.98c2.19 3.86.18 5.99.18 7.81.71-.55 2.27-3.27 2.58-4.11-.79 2.43-.59 5.17.57 7.45.19-1.63.37-3.26.56-4.88.3 1.96 1.37 3.79 2.93 5.02-1.11-2.28-.84-4.97-.37-7.46s1.03-5.02.57-7.51c-.42-2.31-3.18-6.39-6.02-5.1-3.23 1.46-2.54 6.07-1 8.78z" fill="#603813"/><linearGradient id="a" x1="35.929" x2="35.929" y1="59.556" y2="119.97" gradientUnits="userSpaceOnUse"><stop stop-color="#DEA978" offset=".003"/><stop stop-color="#D7A474" offset=".165"/><stop stop-color="#C39769" offset=".406"/><stop stop-color="#A28257" offset=".695"/><stop stop-color="#877148" offset=".895"/></linearGradient><path d="M31.9 122.54c-3.88 0-6.73-.71-7.24-1.82-.34-.74.5-1.91 1.03-2.54.97-1.16 2.29-1.68 3.35-2.1.63-.25 1.17-.46 1.57-.78 2.46-1.96 2.74-3.21 3.06-5.42.09-.65.2-1.38.4-2.28.84-3.74 1.81-9.43.53-15.58-.34-1.64-1.04-3.5-1.84-5.65-1.44-3.86-3.24-8.66-4.34-15.37-1.09-6.67-1.38-10.82 6.17-12.1.37-.06.75-.09 1.13-.09 2.25 0 4.55 1.08 6.15 2.88 2.14 2.41 3.56 4.54 3.55 7.11-.01 1.42.45 3.14.92 4.96.57 2.17 1.22 4.64.83 6.09-1.64 6-1.78 9.54-1.94 13.64-.08 2.11-.17 4.29-.46 7.07-.54 5.06-2.22 9.73-3.46 13.13-.84 2.32-1.44 4-1.47 5.13-.05 2.79-.74 2.89-2.41 3.13-.46.07-.97.14-1.5.28-.47.11-1.97.31-4.03.31z" fill="url(#a)"/><path d="M35.71 59.86c1.93 0 3.98.97 5.36 2.52 1.98 2.23 3.29 4.17 3.28 6.4-.01 1.56.46 3.35.96 5.23.51 1.95 1.15 4.37.83 5.54-1.68 6.12-1.82 9.71-1.98 13.88-.08 2.09-.17 4.26-.46 7-.52 4.93-2.19 9.53-3.4 12.89-.91 2.51-1.5 4.16-1.53 5.46-.03 1.53-.33 1.84-.33 1.84-.12.11-.78.21-1.18.26-.49.07-1.04.15-1.63.31-.33.09-1.74.29-3.75.29-4.04 0-5.93-.77-6.26-1.18.02-.13.14-.58.86-1.44.8-.95 1.93-1.4 2.93-1.8.68-.27 1.32-.52 1.84-.94 2.76-2.2 3.11-3.75 3.45-6.09.09-.63.19-1.34.39-2.2.86-3.84 1.85-9.68.53-16.03-.36-1.71-1.07-3.61-1.89-5.81-1.43-3.81-3.2-8.56-4.28-15.17-1.08-6.57-1.3-9.77 5.31-10.89.31-.05.63-.07.95-.07m0-2.11c-.43 0-.87.04-1.3.11-8.82 1.49-8.05 7.13-7.03 13.31 1.75 10.67 5.29 16.75 6.19 21.06 1.23 5.93.31 11.41-.53 15.14-.84 3.74-.09 4.72-3.09 7.11-.84.67-3.36.99-5.07 3.03-4.17 4.97 2.19 6.09 7.02 6.09 1.94 0 3.63-.18 4.3-.36 2.33-.63 4.61.2 4.7-4.41.05-2.48 4.02-9.72 4.91-18.17.88-8.25-.07-11.62 2.37-20.54.81-2.96-1.73-8.25-1.71-11.32s-1.78-5.52-3.81-7.81c-1.75-1.97-4.34-3.24-6.95-3.24z" fill="#786047"/><linearGradient id="b" x1="86.086" x2="86.086" y1="59.075" y2="119.95" gradientUnits="userSpaceOnUse"><stop stop-color="#DEA978" offset=".003"/><stop stop-color="#D7A474" offset=".165"/><stop stop-color="#C39769" offset=".406"/><stop stop-color="#A28257" offset=".695"/><stop stop-color="#877148" offset=".895"/></linearGradient><path d="M80.79 122.46c-3.81 0-4.77-.42-5-.58-.01-.69.89-2.57 1.93-4.01.83-1.15 1.62-1.99 2.41-2.58 5.46-4.09 9.18-9.57 10.75-15.86 1.21-4.84-2.29-9.86-5.67-14.71-1.39-1.99-2.82-4.05-3.9-6.05-4.6-8.55-5.29-14.58-6.25-22.94l-.12-1.08c-.48-4.14-1.71-7.21-2.61-9.46-.72-1.79-1.29-3.21-.9-3.86.71-1.18 4.95-1.78 8.56-2.17.54-.06 1.08-.09 1.62-.09 6.9 0 11.79 4.88 12.67 8.41 3.68 14.73 3.76 15.18 4.53 19.42.15.81.32 1.77.55 2.98 1.94 10.39 2 17.93.21 23.72-.77 2.49-1.99 5.01-3.16 7.45-1.66 3.46-3.23 6.72-3.55 9.78-.05.48-.1 1.04-.16 1.65-.23 2.52-.55 5.97-1.19 7.76-.58 1.6-1.7 2.11-4.63 2.11-.72 0-1.6.03-2.56.05-1.11.02-2.34.06-3.53.06.01 0 .01 0 0 0z" fill="url(#b)"/><path d="M81.61 40.11c6.36 0 10.85 4.42 11.65 7.61 3.67 14.69 3.75 15.13 4.51 19.35.15.82.32 1.77.55 2.99 1.91 10.22 1.98 17.59.23 23.21-.75 2.41-1.95 4.9-3.1 7.31-1.7 3.54-3.31 6.88-3.65 10.12-.05.48-.1 1.05-.16 1.66-.21 2.33-.53 5.84-1.13 7.5-.32.88-.72 1.42-3.64 1.42-.74 0-1.64.03-2.59.06-1.09.03-2.33.07-3.5.07-1.99 0-3.11-.11-3.73-.23.3-.74.88-1.82 1.52-2.7.77-1.06 1.49-1.83 2.19-2.36 5.66-4.23 9.51-9.92 11.14-16.45 1.32-5.3-2.31-10.52-5.83-15.57-1.37-1.97-2.79-4.01-3.84-5.95-4.51-8.37-5.15-14.01-6.13-22.56l-.12-1.08c-.49-4.28-1.76-7.43-2.68-9.73-.42-1.05-.99-2.47-.95-2.94.35-.35 1.83-1.01 7.75-1.65.51-.05 1.01-.08 1.51-.08m0-2.11c-.57 0-1.14.03-1.73.09-16.14 1.76-7.44 4.02-5.99 16.66 1.05 9.13 1.6 15.31 6.49 24.4 3.69 6.85 11.04 13.77 9.48 20.01s-5.2 11.42-10.36 15.27c-1.02.76-1.88 1.78-2.63 2.81s-2.33 3.66-2.11 4.91c.2 1.12 3 1.35 6.03 1.35 2.2 0 4.53-.12 6.09-.12 2.62 0 4.73-.34 5.62-2.81.85-2.36 1.14-7.16 1.4-9.65.53-5 4.8-11 6.67-17.03s1.76-13.87-.18-24.22c-1.42-7.64-.7-4.91-5.09-22.47-1-4.04-6.34-9.2-13.69-9.2z" fill="#786047"/><g fill="#42210B"><ellipse cx="31.41" cy="120.48" rx="3.75" ry="2.36"/><ellipse cx="36.05" cy="120.48" rx="3.75" ry="2.36"/></g><g fill="#42210B"><ellipse cx="79.86" cy="121.06" rx="4.83" ry="2.46"/><ellipse cx="85.04" cy="121.24" rx="4.83" ry="2.46"/></g><linearGradient id="c" x1="64.047" x2="64.047" y1="14.548" y2="122.77" gradientUnits="userSpaceOnUse"><stop stop-color="#DEA978" offset=".003"/><stop stop-color="#D7A474" offset=".165"/><stop stop-color="#C39769" offset=".406"/><stop stop-color="#A28257" offset=".695"/><stop stop-color="#877148" offset=".895"/></linearGradient><path d="M96.22 122.77c-3.8 0-7.45-.28-8.04-.53-.58-.25-.87-.46-.93-.65-.04-.14-.1-.71.86-2.2.22-.34 1.02-.73 1.66-1.04.75-.36 1.53-.74 2.05-1.28 3.61-3.72 4.72-8.54 5.9-13.65.22-.97.45-1.95.7-2.95 1.58-6.32-1.08-9.37-4.76-13.6l-.9-1.04c-1.6-1.86-2.96-6.02-3.63-9.02l-.29-1.27-1.18.55c-1.18.55-2.29 1.08-3.35 1.6-5.47 2.64-9.42 4.55-15.56 4.55-3.06 0-6.58-.48-10.76-1.48l-.85-.2-.35.8c-.05.11-.13.38-.25.79-.49 1.69-1.77 6.17-4.91 10.62-3.04 4.31-3.6 11.88-3.53 17.47.02 1.2.34 3.15.68 5.21.38 2.29.8 4.88.73 6.12-.01.18-.31 1.1-5.21 1.1-1.69 0-3.6-.1-5.45-.2-.9-.05-1.79-.09-2.65-.13-1.28-.05-1.46-.54-1.52-.7-.32-.89.42-2.41.73-2.69 3.51-2.8 6.27-15.76 6.87-20.16l.04-.3c.37-2.67.79-5.69-1.45-8.87-2.04-2.88-4.85-8.4-6.21-13.7l-.11-.42-.38-.22c-1.41-.83-2.57-1.72-3.45-2.64C26.39 68.06 21 58.3 18.89 52.38c-2.87-8.04-1.85-13.54-.56-20.5.38-2.06.78-4.19 1.09-6.53.9-6.67 2.96-9.05 4.58-9.05 2.09 0 4.59 3.5 4.68 8.02.41 18.68 6.63 28.63 10.97 28.63.77 0 1.46-.29 2.02-.85.96-.97 1.44-2.65 1.43-4.99-.06-11.08 3.03-12.92 5.29-14.26.85-.5 1.65-.98 2.15-1.84.9-1.54 1.53-3.71 2.19-6.01 1.47-5.09 2.99-10.35 7.46-10.45h.23c5.34 0 6.72 4.2 8.09 10.14.85 3.67 1.65 7.13 4.65 7.24.1 0 .21.01.31.01 3.46 0 4.18-2.35 4.76-4.24.1-.31.19-.63.3-.95.66-1.86 1.13-3.54 1.55-5.01 1.43-5.09 2.03-7.2 6.95-7.2.17 0 .35 0 .53.01 3.82.11 5 3.26 6.59 8.38 1.28 4.1 2.73 8.75 6.85 10.98 5.54 3 6.53 10.4 7.12 14.83.19 1.4.34 2.5.59 3.21 2.04 5.64 1.62 7.98 1.13 10.68-.5 2.78-1.07 5.92.6 12.74 1.6 6.55-.23 12.12-2 17.51-.27.83-.54 1.65-.79 2.46-1.97 6.36-2.56 11.9-3.03 16.35-.11 1.01-.07 2.14-.03 3.33.06 1.79.11 3.65-.35 4.93-.58 1.59-2.27 2.46-5.33 2.73-.62.06-1.55.09-2.69.09z" fill="url(#c)"/><path d="M87.02 15.6c.16 0 .33 0 .5.01 2.96.09 3.98 2.39 5.62 7.64 1.34 4.3 2.86 9.16 7.35 11.59 5.06 2.74 6.01 9.81 6.58 14.04.2 1.52.35 2.61.64 3.43 1.94 5.38 1.56 7.47 1.08 10.13-.52 2.88-1.11 6.14.61 13.18 1.53 6.26-.25 11.69-1.97 16.93-.28.84-.55 1.66-.8 2.48-2 6.45-2.59 12.05-3.07 16.55-.11 1.09-.08 2.3-.04 3.48.05 1.62.11 3.45-.29 4.54-.15.42-.62 1.7-4.43 2.04-.57.05-1.49.08-2.59.08-3.44 0-6.91-.24-7.67-.46-.08-.03-.14-.06-.19-.09.08-.22.25-.6.62-1.16.19-.18.86-.51 1.26-.7.83-.4 1.69-.82 2.35-1.5 3.81-3.93 4.96-8.89 6.17-14.14.22-.96.45-1.94.7-2.94 1.71-6.85-1.25-10.25-4.99-14.54-.29-.33-.59-.68-.9-1.03-1.38-1.6-2.7-5.45-3.4-8.57l-.57-2.55-2.37 1.1c-1.19.55-2.3 1.09-3.37 1.6-5.35 2.58-9.21 4.44-15.11 4.44-2.97 0-6.42-.47-10.52-1.45l-1.7-.4-.71 1.6c-.1.22-.17.46-.3.92-.47 1.64-1.73 6-4.76 10.3-3.21 4.54-3.79 12.34-3.72 18.09.02 1.28.34 3.27.69 5.37.32 1.93.71 4.29.72 5.54-.39.16-1.46.45-4.16.45-1.66 0-3.56-.1-5.39-.2-.9-.05-1.8-.1-2.66-.13-.32-.01-.5-.06-.59-.09-.03-.36.25-1.17.5-1.5 4.01-3.37 6.72-17.44 7.18-20.77l.04-.3c.38-2.72.85-6.1-1.64-9.63-1.98-2.81-4.72-8.19-6.05-13.36l-.22-.84-.75-.44c-1.32-.78-2.41-1.61-3.22-2.46-4.25-4.46-9.53-14.04-11.61-19.86-2.78-7.77-1.78-13.15-.51-19.95.39-2.07.78-4.22 1.1-6.58.81-5.97 2.56-8.14 3.54-8.14 1.37 0 3.54 3 3.63 6.99C28.02 42.66 34.16 54 39.64 54c1.05 0 2.01-.4 2.76-1.16 1.17-1.17 1.75-3.1 1.74-5.74-.05-10.48 2.74-12.14 4.78-13.35.88-.52 1.88-1.12 2.52-2.21.97-1.66 1.61-3.89 2.29-6.25 1.62-5.62 3.04-9.61 6.47-9.69h.21c4.57 0 5.76 3.69 7.06 9.32.9 3.89 1.83 7.91 5.63 8.06.12 0 .23.01.35.01 4.24 0 5.2-3.12 5.77-4.98.09-.3.18-.6.29-.9.67-1.9 1.15-3.59 1.57-5.08 1.5-5.31 1.96-6.43 5.94-6.43M87.02 13.49c-7.34 0-6.56 4.61-9.49 12.91-.77 2.18-.91 4.48-4.08 4.48-.09 0-.18 0-.27-.01-5.38-.21-1.64-17.38-12.78-17.38h-.25c-7.51.17-7.77 12.24-10.53 16.98-1.47 2.52-7.66 1.14-7.58 16.63.02 3.2-.97 4.78-2.4 4.78-3.47 0-9.52-9.38-9.9-27.6-.1-4.91-2.89-9.05-5.73-9.05-2.31 0-4.65 2.72-5.63 9.96-1.37 10.13-4.33 16.77-.49 27.53 2.19 6.15 7.62 15.95 12.07 20.61 1.01 1.06 2.27 1.99 3.67 2.82C35.02 81.56 37.9 87.21 40 90.2c2.09 2.96 1.59 5.77 1.23 8.43-.7 5.09-3.49 17.09-6.49 19.48-.84.67-2.81 5.09 1.4 5.27 2.66.11 5.61.33 8.14.33 3.47 0 6.15-.41 6.25-2.09.15-2.47-1.37-8.93-1.4-11.41-.07-5.65.52-12.87 3.34-16.85 3.87-5.49 5.02-11.02 5.27-11.59 4.43 1.05 7.97 1.5 11.01 1.5 7.6 0 12.04-2.84 19.36-6.24.68 3.03 2.08 7.41 3.86 9.48 4.2 4.87 7 7.45 5.44 13.69s-2.28 11.94-6.34 16.12c-.89.91-3.15 1.42-3.84 2.49-1.93 2.98-.88 3.77.53 4.39.87.38 5.22.61 8.46.61 1.12 0 2.1-.03 2.77-.09 2.61-.23 5.34-.96 6.23-3.42.85-2.36.18-6.02.44-8.51.53-5 1.11-10.12 2.98-16.15s4.74-12.64 2.81-20.54c-3.3-13.49 2.42-11.96-1.76-23.52-.97-2.68-.45-14.41-8.21-18.61-8.03-4.34-5-19.22-13.91-19.48-.18.01-.37 0-.55 0z" fill="#786047"/><path d="M89.51 77.75c-.58-3.25-.52-6.61.18-9.83" fill="none" stroke="#786047" stroke-linecap="round" stroke-linejoin="round" stroke-miterlimit="10" stroke-width="2.106"/><path d="M56.52 82.4c2.11-5.13 3.38-10.36 3.63-16.24" fill="none" stroke="#786047" stroke-linecap="round" stroke-miterlimit="10" stroke-width="2.106"/><path d="M38.24 78.75c-1.04-3.86-.99-8.01.12-11.85" fill="none" stroke="#786047" stroke-linecap="round" stroke-miterlimit="10" stroke-width="2"/><g fill="#42210B"><ellipse cx="38.35" cy="120.88" rx="4.83" ry="2.46"/><ellipse cx="43.53" cy="121.06" rx="4.83" ry="2.46"/></g><g fill="#42210B"><ellipse cx="91.84" cy="121.37" rx="4.83" ry="2.46"/><ellipse cx="97.02" cy="121.54" rx="4.83" ry="2.46"/></g><path d="M12.92 16.45s-5.07.11-7.45-2.71-1.16-7.5-1.16-7.5 5.07-.11 7.45 2.71 1.16 7.5 1.16 7.5zM33.96 16.45s5.07.11 7.45-2.71 1.16-7.5 1.16-7.5-5.07-.11-7.45 2.71-1.16 7.5-1.16 7.5z" fill="#D1A77D" stroke="#A67C52" stroke-miterlimit="10" stroke-width="1.579"/><linearGradient id="d" x1="22.572" x2="22.572" y1="5.487" y2="45.525" gradientUnits="userSpaceOnUse"><stop stop-color="#DEA978" offset=".003"/><stop stop-color="#D7A474" offset=".165"/><stop stop-color="#C39769" offset=".406"/><stop stop-color="#A28257" offset=".695"/><stop stop-color="#877148" offset=".895"/></linearGradient><path d="M21.06 45.26c-4.1 0-8.66-6.76-9.96-10.38l-3.9-11-.03-.05c-.87-1.65-.85-4.2.06-6.81 1.26-3.63 3.93-6.64 7.15-8.07l.23-.1.13-.22c1.37-2.27 4.45-3.74 7.83-3.74 3.32 0 6.37 1.43 7.77 3.64l.13.21.23.1c6.34 2.66 9.05 11.05 7.46 15.13l-3.89 10.92c-1.3 3.62-5.86 10.38-9.96 10.38h-3.25z" fill="url(#d)"/><path d="M22.57 5.68c3.05 0 5.83 1.28 7.09 3.27l.27.42.46.19c6.33 2.65 8.34 10.73 7.01 14.14l-3.88 10.9c-.56 1.57-1.95 4.12-3.78 6.29-1.94 2.3-3.87 3.56-5.43 3.56h-3.25c-1.56 0-3.49-1.27-5.43-3.56-1.83-2.17-3.21-4.72-3.77-6.28L7.97 23.66l-.04-.11-.05-.1c-.76-1.44-.72-3.81.11-6.18 1.19-3.42 3.7-6.26 6.72-7.6l.46-.2.26-.43c1.22-2.04 4.03-3.36 7.14-3.36m0-1.6c-3.79 0-7.05 1.7-8.52 4.13-6.83 3.02-9.83 11.75-7.59 15.98l3.89 10.95c1.27 3.54 5.99 10.91 10.71 10.91h3.25c4.72 0 9.45-7.38 10.71-10.91l3.89-10.9c1.73-4.43-1.02-13.28-7.9-16.16-1.5-2.36-4.71-4-8.44-4z" fill="#786047"/><path d="M22.56 46.23c-5.97 0-9.83-3.97-9.83-10.12 0-6.39 4.29-13.81 9.83-13.81s9.83 7.43 9.83 13.81c0 6.14-3.86 10.12-9.83 10.12z" fill="#D1A77D"/><path d="M22.56 23.08c4.99 0 9.04 6.85 9.04 13.02s-4.05 9.33-9.04 9.33-9.04-3.16-9.04-9.33 4.05-13.02 9.04-13.02m0-1.58c-6.08 0-10.62 7.71-10.62 14.6 0 6.52 4.27 10.91 10.62 10.91s10.62-4.38 10.62-10.91c0-6.89-4.54-14.6-10.62-14.6z" fill="#998675"/><path d="M25.74 29.88H19.4c-2.28 0-3.82-2.44-3.46-5.15l1.16-8.7c.22-1.67 1.69-2.94 3.27-2.94h4.4c1.58 0 3.05 1.27 3.27 2.94l1.16 8.7c.36 2.7-1.18 5.15-3.46 5.15z" fill="#D1A77D"/><path fill="none" stroke="#595959" stroke-linecap="round" stroke-linejoin="round" stroke-miterlimit="10" stroke-width="1.429" d="M22.57 28.17V39.3"/><path d="M14.45 25.13l5.53-7.19c1.1-1.43 3.9-1.42 5.03.03l5.67 7.25c1.13 1.45-.25 4.57-2.48 4.56l-3.19.62c-1.62.32-3.27.31-4.89-.03L17 29.71c-2.24-.01-3.65-3.15-2.55-4.58z" fill="#EDBD8E"/><path d="M15.18 37.99c2.12 1.47 4.74 2.3 7.37 2.33s5.26-.75 7.42-2.18" fill="none" stroke="#595959" stroke-linecap="round" stroke-linejoin="round" stroke-miterlimit="10" stroke-width="1.443"/><ellipse transform="rotate(-61.582 18.459 27.506)" cx="18.46" cy="27.5" rx="1.22" ry="3.59" fill="#736357"/><ellipse transform="rotate(-28.418 26.772 27.503)" cx="26.77" cy="27.5" rx="3.59" ry="1.22" fill="#736357"/><ellipse transform="rotate(-23.992 11.61 21.227)" cx="11.61" cy="21.23" rx="3.29" ry="4.21" fill="#404040"/><ellipse transform="rotate(-66.009 33.343 21.23)" cx="33.34" cy="21.23" rx="4.21" ry="3.29" fill="#404040"/><path d="M10.04 16.71c-2.11.78-3.16 3.03-2.35 5.04l7.65-2.81c-.81-2.01-3.19-3.01-5.3-2.23zM35.03 16.71c2.11.78 3.16 3.03 2.35 5.04l-7.65-2.81c.81-2.01 3.19-3.01 5.3-2.23z" fill="#D1A77D"/></svg>