<svg viewBox="0 0 128 128" width="128" height="128" xmlns="http://www.w3.org/2000/svg" xmlns:xlink="http://www.w3.org/1999/xlink"><linearGradient id="a" x1="162.87" x2="176.29" y1="-220.54" y2="-193.42" gradientTransform="rotate(-6.465 2183.263 898.537)" gradientUnits="userSpaceOnUse"><stop stop-color="#70534A" offset=".552"/><stop stop-color="#5C4037" offset="1"/></linearGradient><path d="M59.12 44c-.37-1.81-1.35-5.63-3.11-5.77-.07-.01-.15-.01-.23-.01-.24 0-.54.03-.88.06-.46.04-1.02.09-1.69.09-.5 0-.98-.03-1.48-.08-4.25-.48-4.51-2.85-4.69-4.57-.08-.71-.14-1.27-.45-1.65-.1-.12-.26-.2-.56-.36-.4-.21-1.61-.84-1.49-1.29.13-.53.74-1.1 1.32-1.65.8-.76 1.63-1.54 1.53-2.5 0-.25-.13-.87-.26-1.5l-.03-.14c-.24-1.26-.19-2.98.14-4.61 1.04-5.13 4.24-8.27 9.01-8.83.33-.04.67-.06 1.01-.06 4.25 0 9.11 2.98 11.32 6.94 1.41 2.52 1.11 8.21-1.39 11.76-1.98 2.83-.69 7.64-.25 9.03L59.12 44z" fill="url(#a)"/><path d="M57.24 11.63c4.01 0 8.79 2.94 10.88 6.69 1.34 2.39 1.03 7.82-1.36 11.23-1.96 2.79-.95 7.31-.43 9.1l-6.88 4.53c-.51-2.25-1.55-5.3-3.41-5.45-.09-.01-.18-.01-.27-.01-.28 0-.58.03-.92.06-.47.04-1 .09-1.64.09-.48 0-.95-.03-1.43-.08-3.85-.44-4.07-2.4-4.25-4.13-.08-.76-.15-1.42-.57-1.92-.17-.2-.37-.31-.71-.49-.67-.35-1.08-.62-1.21-.8.15-.38.7-.9 1.15-1.32.84-.79 1.79-1.69 1.69-2.87-.01-.32-.12-.87-.27-1.59l-.03-.13c-.23-1.2-.18-2.85.14-4.41.57-2.84 2.45-7.71 8.58-8.44.3-.04.62-.06.94-.06m0-1c-.36 0-.71.02-1.07.06-5.4.64-8.46 4.37-9.44 9.23-.36 1.76-.38 3.53-.14 4.8.03.15.28 1.26.28 1.6.14 1.33-2.47 2.53-2.84 3.97-.28 1.09 1.98 1.89 2.15 2.09.85 1.02-.78 5.69 5.48 6.4.57.06 1.08.09 1.54.09 1.17 0 2-.15 2.57-.15.07 0 .13 0 .19.01 1.8.15 2.8 6.11 2.8 6.11l8.75-5.76s-2.09-5.87.07-8.95c2.59-3.69 2.94-9.57 1.42-12.3-2.2-3.93-7.2-7.2-11.76-7.2z" fill="#4A2F27"/><path d="M49.34 32.14l-2.44.27s.2 1.12.32 1.58c.64 2.49 2.19 5.16 6.53 5.08.39-.01-1.84-5.6-1.84-5.6l-2.57-1.33z" fill="none"/><path d="M46.71 35.04c.87.09 1.74-.08 2.5-.59.83-.56.31-1.25-.63-.9-.57.21-1.36.29-2.07.13l.2 1.36z" fill="#1A1717"/><ellipse transform="rotate(-89.209 50.735 27.235)" cx="50.73" cy="27.24" rx="1.77" ry="1.15" fill="#1A1717"/><path d="M49.96 24.58c-1.15.22-1.34-.55-.91-1.1.32-.41 1.03-.71 2.31-.32 1.21.36 1.64 1.12 1.93 1.59.29.46.21.89-.08.9-.39 0-1.83-1.33-3.25-1.07z" fill="#1A1717"/><radialGradient id="b" cx="115.78" cy="-142.38" r="12.118" gradientTransform="matrix(1.0385 .0161 -.00956 1.0002 -65.556 155.78)" gradientUnits="userSpaceOnUse"><stop stop-color="#444140" offset="0"/><stop stop-color="#232020" offset="1"/></radialGradient><path d="M59.26 27.11l1.04-1.47c.65-.83 1.24-1.55 2.03-1.37 2.33.56 1.83 4.73-.96 5.6 0 0 .4 3.14 3.33 4 .31.09.58.15.83.18.79.1 1.44-.49 1.67-1.26 1.4-4.79 3-3.79 4.23-9.39 1.69-7.68-5.03-12.94-11.6-13.59-2.56-.25-5.22.05-7.6 1.05-1.01.41-4.53 2.13-5.34 3.76-1.03 2.08.17 3.92.17 3.92s6.87-.29 9.99.49c.41.1.87.25 1.05.64.08.17.1 1.23.1 1.42.07 2.4-.18 3.89.47 5.43.12.25.59.59.59.59z" fill="url(#b)"/><path d="M64.71 33.88c.31.09.58.15.83.18.79.1 1.44-.49 1.67-1.26 1.4-4.79 3-3.79 4.23-9.39 1.69-7.68-5.03-12.94-11.6-13.59-2.56-.25-5.22.05-7.6 1.05-1.01.41-4.53 2.13-5.34 3.76-1.03 2.08.17 3.92.17 3.92s6.87-.29 9.99.49c.41.1.87.25 1.05.64.08.17.1 1.23.1 1.42" fill="none"/><path d="M70.19 14.92c-2.21-3.05-6.16-5.2-10.3-5.6-2.78-.27-5.49.1-7.84 1.09-.04.02-4.52 1.94-5.6 4-1.16 2.21-.27 3.57-.05 3.82.39.45 1.19.31 1.19.31-.56-.64-.89-2.38-.24-3.68.7-1.4 3.97-3.07 5.08-3.52 2.2-.92 4.74-1.27 7.36-1.02 3.86.38 7.53 2.37 9.58 5.2 1.65 2.27 2.19 4.96 1.57 7.79-.64 2.92-1.37 3.96-2.15 5.06-.69.99-1.41 2-2.08 4.29-.14.49-1.27 1.39-1.19 1.4 1.07.09 1.86-.13 2.15-1.12.62-2.13 1.26-3.04 1.94-4 .8-1.13 1.62-2.31 2.3-5.42.7-3.12.1-6.09-1.72-8.6z" fill="#1F1D1B"/><path d="M34.78 105.13L41.53 83c2.32-9.17 8.04-9.65 12.63-10.03.41-.03.82-.07 1.21-.11l7.9-.18c.26-.01.48-.21.49-.47l.11-2.17 16.2-3.45c.67 2.26 3.58 12.85.59 17.62-.81 1.29-1.97 2.03-3.54 2.24-3.66.5-8.46.75-14.26.75-4.8 0-8.83-.17-10.34-.25h-.1c-.44 0-.86.02-8.69 21.3l-8.95-3.12z" fill="#7C7C7C"/><path d="M79.71 67.17c.83 2.91 3.24 12.43.51 16.77-.73 1.16-1.77 1.82-3.18 2.01-3.64.49-8.42.74-14.2.74-4.83 0-8.83-.18-10.33-.25h-.11c-.89 0-1.01 0-5.32 11.36-1.52 4-3.02 8.04-3.67 9.81l-8.02-2.79 6.62-21.72c2.22-8.8 7.52-9.24 12.18-9.63.4-.03.8-.07 1.18-.1l7.9-.18c.52-.01.95-.43.98-.95l.09-1.79 15.37-3.28m.7-1.17l-17.02 3.62-.13 2.55-7.93.18c-4.87.48-11.67.17-14.27 10.49l-6.89 22.59 9.85 3.43s7.89-21.43 8.4-21.43c.27.01 4.81.26 10.44.26 4.62 0 9.99-.16 14.33-.75C86.78 85.64 80.41 66 80.41 66z" fill="#5B5B5B"/><radialGradient id="c" cx="66.975" cy="55.088" r="13.789" gradientTransform="rotate(-18.158 67.42 53.944)" gradientUnits="userSpaceOnUse"><stop stop-color="#00BFA5" offset=".364"/><stop stop-color="#00B29A" offset=".812"/><stop stop-color="#00AB94" offset="1"/></radialGradient><path d="M67.88 71.21c-2.73 0-5.03-.33-5.97-.49 1.01-8.28-.05-10.88-1.51-14.45-.59-1.46-1.27-3.11-1.88-5.4-1.03-3.88.41-8.33 1.85-10.06 1.75-2.11 4.43-2.33 5.5-2.33 1.9 0 3.27.61 3.65 1.21 3.8 6.03 10.92 23.74 11.79 25.93-2.64 4.61-8.74 5.59-13.43 5.59z" fill="url(#c)"/><path d="M65.88 38.98c1.78 0 2.98.58 3.22.98 3.66 5.82 10.47 22.65 11.66 25.62-2.6 4.23-8.41 5.13-12.89 5.13-2.31 0-4.31-.24-5.42-.41.92-8.04-.19-10.78-1.6-14.22-.59-1.44-1.26-3.08-1.86-5.34-.99-3.71.38-7.97 1.75-9.61 1.64-1.94 4.14-2.15 5.14-2.15m0-1c-2.05 0-4.38.7-5.89 2.51-1.58 1.89-3.01 6.5-1.95 10.5 2.1 7.89 4.86 8.04 3.31 20.12 0 0 2.87.58 6.53.58 4.93 0 11.3-1.06 14-6.05 0 0-7.82-19.72-11.92-26.23-.54-.83-2.19-1.43-4.08-1.43z" fill="#009984"/><path d="M41.05 115.23c-.07 0-.13-.01-.2-.03l-14.84-4.75a.504.504 0 0 1-.32-.63l.39-1.2a3.495 3.495 0 0 1 3.1-2.4l6.51-.05 6.34 2.04c.24.63.92 2.57.49 3.91l-.85 2.67c-.09.26-.34.44-.62.44z" fill="#3C469A"/><path d="M35.61 106.67l6.04 1.94c.3.83.71 2.37.39 3.35l-.85 2.67c-.02.06-.08.1-.16.1H41l-14.84-4.75.39-1.2a2.977 2.977 0 0 1 2.63-2.05l6.43-.06m.15-1l-6.61.05c-1.63.1-3.04 1.19-3.55 2.74l-.39 1.2c-.17.53.12 1.09.65 1.26l14.84 4.75c.12.04.23.05.35.05.49 0 .94-.31 1.09-.8l.85-2.67c.58-1.81-.59-4.47-.59-4.47l-6.64-2.11z" fill="#232B84"/><linearGradient id="d" x1="89.144" x2="81.421" y1="76.238" y2="76.238" gradientUnits="userSpaceOnUse"><stop stop-color="#141111" offset="0"/><stop stop-color="#4E4545" offset="1"/></linearGradient><path d="M80.82 83.05l.88-19.03c0-2.34.43-3.52 2.79-3.52h2.23c2 0 2.46.22 2.46 2.35l-.23 29.12-8.13-8.92z" fill="url(#d)"/><path d="M86.72 61c1.77 0 1.96.06 1.96 1.85l-.22 27.85-7.13-7.82L82.2 64c0-2.38.47-3 2.29-3h2.23m0-1h-2.23c-2.79 0-3.29 1.56-3.29 4l-.89 19.24 9.12 10.02.24-30.4c.01-2.47-.74-2.86-2.95-2.86z" fill="#655C5A"/><linearGradient id="e" x1="72.648" x2="72.648" y1="88.856" y2="94.474" gradientUnits="userSpaceOnUse"><stop stop-color="#141111" offset="0"/><stop stop-color="#4E4545" offset="1"/></linearGradient><path d="M59.19 90.88a2.24 2.24 0 0 1-2.13-2.23l.29-3.36c.17-1.35 1.16-2.14 2.72-2.14l20.01.58 8.15 8.95-29.04-1.8z" fill="url(#e)"/><path d="M60.06 83.65l19.79.57 7.18 7.88-27.83-1.73c-.91-.04-1.62-.78-1.64-1.69l.28-3.32c.19-1.48 1.47-1.71 2.22-1.71m.02-1c-1.73 0-3.01.91-3.22 2.6l-.29 3.4c0 1.45 1.14 2.65 2.6 2.72l30.28 1.88-9.12-10.02-20.25-.58z" fill="#655C5A"/><path fill="none" stroke="#F31612" stroke-linejoin="round" stroke-miterlimit="10" stroke-width="4" d="M77.18 100.32v-7.14"/><linearGradient id="f" x1="39.339" x2="22.988" y1="117.35" y2="112.35" gradientUnits="userSpaceOnUse"><stop stop-color="#141111" offset="0"/><stop stop-color="#1F1B1B" offset=".275"/><stop stop-color="#3C3535" offset=".758"/><stop stop-color="#4E4545" offset="1"/></linearGradient><path d="M40.63 119.62c-.18 0-.36-.03-.53-.08l-15.98-5.19a1.704 1.704 0 0 1-1.1-2.16 1.717 1.717 0 0 1 2.16-1.11l15.98 5.19c.9.29 1.39 1.26 1.1 2.16-.23.71-.88 1.19-1.63 1.19z" fill="url(#f)"/><path d="M24.65 111.49c.13 0 .25.02.38.06L41 116.74c.31.1.56.32.71.6.15.29.17.62.07.93a1.216 1.216 0 0 1-1.54.78l-15.98-5.19a1.21 1.21 0 0 1-.78-1.53c.17-.5.64-.84 1.17-.84m0-1c-.93 0-1.8.6-2.11 1.53-.38 1.16.26 2.41 1.42 2.79L39.94 120c.23.07.46.11.69.11.93 0 1.8-.6 2.11-1.53.38-1.16-.26-2.41-1.42-2.79l-15.98-5.19a2.42 2.42 0 0 0-.69-.11z" fill="#655C5A"/><radialGradient id="g" cx="42.473" cy="118.32" r="7.37" gradientTransform="translate(4)" gradientUnits="userSpaceOnUse"><stop stop-color="#AFB8B6" offset=".341"/><stop stop-color="#A4AEAD" offset=".453"/><stop stop-color="#869295" offset=".649"/><stop stop-color="#57656F" offset=".904"/><stop stop-color="#43535F" offset="1"/></radialGradient><path d="M46.25 124.22c-3.33 0-6.03-2.71-6.03-6.03s2.71-6.03 6.03-6.03c3.33 0 6.03 2.71 6.03 6.03s-2.7 6.03-6.03 6.03z" fill="url(#g)"/><path d="M46.25 112.65c3.05 0 5.53 2.48 5.53 5.53s-2.48 5.53-5.53 5.53-5.53-2.48-5.53-5.53 2.48-5.53 5.53-5.53m0-1c-3.61 0-6.53 2.93-6.53 6.53s2.93 6.53 6.53 6.53c3.61 0 6.53-2.93 6.53-6.53s-2.92-6.53-6.53-6.53z" fill="#2F3B4B"/><path fill="none" stroke="#F31612" stroke-linecap="round" stroke-linejoin="round" stroke-miterlimit="10" stroke-width="3" d="M90.22 61.83l-.79 31.43M88.42 93.83L55.6 91.92c-8.36 0-12.02 3.02-15.15 12.83l-4.78 13.87"/><path fill="none" stroke="#B80000" stroke-miterlimit="10" d="M75.18 93.18h4v7.14h-4z"/><path d="M88.42 93.83L55.6 91.92c-8.36 0-12.02 3.02-15.15 12.83l-4.78 13.87" fill="none" stroke="#F31612" stroke-linecap="round" stroke-linejoin="round" stroke-miterlimit="10" stroke-width="3"/><path d="M39.7 106.75c3.62 0 6.55 2.93 6.55 6.55v4.88" fill="none" stroke="#F31612" stroke-linecap="round" stroke-linejoin="round" stroke-miterlimit="10" stroke-width="3"/><path d="M89.02 62.48l-.26 29.73-33.16-1.79c-9.09 0-13.27 3.5-16.56 13.84l-.57 1.64c-.15.21-.23.47-.25.74l-3.96 11.49c-.27.78.15 1.64.93 1.91a1.511 1.511 0 0 0 1.91-.93l3.7-10.73c2.26.5 3.96 2.51 3.96 4.92v4.88c0 .83.67 1.5 1.5 1.5s1.5-.67 1.5-1.5v-4.88c0-3.72-2.54-6.85-5.98-7.77l.11-.33c2.91-9.14 5.99-11.78 13.63-11.79l32.82 1.91c1.17 0 1.67-.12 2.24-.79.59-.71.68-1.91.68-2.17l.38-30.19c0-1.08-.36-1.8-1.31-1.8-.77.02-1.31.41-1.31 2.11z" fill="none" stroke="#B80000" stroke-miterlimit="10"/><radialGradient id="h" cx="60.215" cy="72.088" r="23.868" gradientTransform="translate(4)" gradientUnits="userSpaceOnUse"><stop stop-color="#FA6E6B" offset="0"/><stop stop-color="#F96360" offset=".197"/><stop stop-color="#F74643" offset=".542"/><stop stop-color="#F31613" offset=".993"/><stop stop-color="#F31612" offset="1"/></radialGradient><path d="M88.42 94.56s2.16.12 2.16-1.97.34-15.09.34-15.09c-3.17-2.91-32.45-12.37-40.07 15.72l4.22-.45 12.51.69c2.2-3.66 5.83-6.01 11.6-5.79 4.15.15 7.97 2.68 9.24 6.89z" fill="url(#h)"/><defs><path id="i" d="M51.42 93.78l.36-1.32 13.01.29 1.85-.81.62 2.68 21.75.73-.59-1.31 1.79-4.93-.06-.86-1.13-2.59 1.27-8.11 1.1.59-.16-3.79-13.59-3.23-17.63 3.81-8.5 7.82-1.73 11.32z"/></defs><clipPath id="j"><use xlink:href="#i"/></clipPath><path d="M90.41 93.22l.82-15.62c-1.8-1.63-11.11-6.09-20.95-3.57-7.97 2.05-16.29 6.76-20.08 20.3l17.38-.25c2.56-7.33 17.31-10.86 20.76 1.24.22.82 1.42-2.7 2.07-2.1z" clip-path="url(#j)" fill="none" stroke="#B80000" stroke-miterlimit="10"/><path d="M46.23 119.84c-.76 0-1.35-.49-1.47-1.23l-.32-3.32c-.02-.14.03-.24.08-.29.09-.1.23-.16.38-.16h2.54c.15 0 .28.06.37.16.05.05.1.14.09.26l-.12 3.42c-.02.6-.78 1.16-1.55 1.16z" fill="#2F2829"/><path d="M47.38 115.34l-.12 3.35c0 .24-.5.65-1.04.65-.5 0-.88-.31-.97-.78l-.32-3.22h2.45m.05-1h-2.54c-.58 0-1.03.47-.95 1l.33 3.35c.17.99.97 1.65 1.96 1.65s2.04-.74 2.04-1.65l.12-3.39c.05-.51-.4-.96-.96-.96z" fill="#141111"/><radialGradient id="k" cx="73.177" cy="100.32" r="1.106" gradientTransform="translate(4)" gradientUnits="userSpaceOnUse"><stop stop-color="#6E7D85" offset="0"/><stop stop-color="#50606B" offset=".619"/><stop stop-color="#43535F" offset="1"/></radialGradient><circle cx="77.18" cy="100.32" r="1.11" fill="url(#k)"/><path d="M77.18 99.72c.33 0 .61.27.61.61s-.27.61-.61.61-.61-.27-.61-.61.27-.61.61-.61m0-1a1.609 1.609 0 1 0 0 3.22 1.609 1.609 0 1 0 0-3.22z" fill="#8A9799"/><path fill="none" stroke="#8A9799" stroke-miterlimit="10" d="M77.18 79.61v41.42M91.82 85.68l-29.29 29.29M91.82 114.97L62.53 85.68M56.47 100.32h41.42"/><radialGradient id="l" cx="63.218" cy="86.775" r="40.144" gradientTransform="translate(4)" gradientUnits="userSpaceOnUse"><stop stop-color="#AFB8B6" offset=".017"/><stop stop-color="#A4AEAD" offset=".183"/><stop stop-color="#869295" offset=".475"/><stop stop-color="#57656F" offset=".857"/><stop stop-color="#43535F" offset="1"/></radialGradient><path d="M77.18 124.22c-13.17 0-23.89-10.72-23.89-23.89S64 76.43 77.18 76.43c13.17 0 23.89 10.72 23.89 23.89s-10.72 23.9-23.89 23.9zm0-44.14c-11.16 0-20.24 9.08-20.24 20.24s9.08 20.24 20.24 20.24 20.24-9.08 20.24-20.24-9.08-20.24-20.24-20.24z" fill="url(#l)"/><path d="M77.18 76.93c12.9 0 23.39 10.49 23.39 23.39s-10.49 23.39-23.39 23.39-23.39-10.49-23.39-23.39 10.49-23.39 23.39-23.39m0 44.14c11.44 0 20.74-9.31 20.74-20.74s-9.31-20.74-20.74-20.74-20.74 9.31-20.74 20.74 9.3 20.74 20.74 20.74m0-45.14c-13.47 0-24.39 10.92-24.39 24.39s10.92 24.39 24.39 24.39 24.39-10.92 24.39-24.39-10.92-24.39-24.39-24.39zm0 44.14c-10.9 0-19.74-8.84-19.74-19.74s8.84-19.74 19.74-19.74 19.74 8.84 19.74 19.74-8.84 19.74-19.74 19.74z" fill="#2F3B4B"/><circle cx="77.18" cy="100.32" r="3.57" fill="#2F2829" stroke="#141111" stroke-linecap="round" stroke-linejoin="round" stroke-miterlimit="10"/><circle cx="77.18" cy="100.32" r="1.11" fill="url(#k)"/><path d="M77.18 99.72c.33 0 .61.27.61.61s-.27.61-.61.61-.61-.27-.61-.61.27-.61.61-.61m0-1a1.609 1.609 0 1 0 0 3.22 1.609 1.609 0 1 0 0-3.22z" fill="#8A9799"/><path fill="none" stroke="#8A9799" stroke-miterlimit="10" d="M77.18 79.61v41.42M91.82 85.68l-29.29 29.29M91.82 114.97L62.53 85.68M56.47 100.32h41.42"/><path d="M77.18 124.22c-13.17 0-23.89-10.72-23.89-23.89S64 76.43 77.18 76.43c13.17 0 23.89 10.72 23.89 23.89s-10.72 23.9-23.89 23.9zm0-44.14c-11.16 0-20.24 9.08-20.24 20.24s9.08 20.24 20.24 20.24 20.24-9.08 20.24-20.24-9.08-20.24-20.24-20.24z" fill="url(#l)"/><path d="M77.18 76.93c12.9 0 23.39 10.49 23.39 23.39s-10.49 23.39-23.39 23.39-23.39-10.49-23.39-23.39 10.49-23.39 23.39-23.39m0 44.14c11.44 0 20.74-9.31 20.74-20.74s-9.31-20.74-20.74-20.74-20.74 9.31-20.74 20.74 9.3 20.74 20.74 20.74m0-45.14c-13.47 0-24.39 10.92-24.39 24.39s10.92 24.39 24.39 24.39 24.39-10.92 24.39-24.39-10.92-24.39-24.39-24.39zm0 44.14c-10.9 0-19.74-8.84-19.74-19.74s8.84-19.74 19.74-19.74 19.74 8.84 19.74 19.74-8.84 19.74-19.74 19.74z" fill="#2F3B4B"/><circle cx="77.18" cy="100.32" r="3.57" fill="#2F2829" stroke="#655C5A" stroke-linecap="round" stroke-linejoin="round" stroke-miterlimit="10"/><path d="M77.18 83.6c9.22 0 16.73 7.5 16.73 16.73s-7.5 16.73-16.73 16.73-16.73-7.5-16.73-16.73 7.5-16.73 16.73-16.73m0-1c-9.79 0-17.73 7.94-17.73 17.73s7.94 17.73 17.73 17.73 17.73-7.94 17.73-17.73S86.97 82.6 77.18 82.6z" fill="#141111"/><radialGradient id="m" cx="78.581" cy="69.091" r="23.043" gradientTransform="matrix(.9961 -.0885 .0939 1.0565 -5.374 2.577)" gradientUnits="userSpaceOnUse"><stop stop-color="#70534A" offset=".007"/><stop stop-color="#5C4037" offset=".755"/></radialGradient><path d="M72.12 46.08l-5.16 5.54 9.88 6.89-3.68 13.42 4.41 1.78s5.14-11.34 6.1-13.23c1.58-3.14 1.44-5.08-.53-7.32-1.05-1.18-11.02-7.08-11.02-7.08z" fill="url(#m)"/><path d="M70.56 45.12l9.9 6.56c3.26 2.16 4.51 3.69 3.36 7.04-.5 1.46-4.26 9.66-6.47 14.42l-3.24-.98 3.7-13.38c.11-.41-.05-.85-.4-1.09l-10.53-7.24 3.68-5.33m-.26-1.38l-4.81 6.97 11.36 7.81-3.96 14.32 5.01 1.52s6.19-13.3 6.88-15.3c1.38-4-.31-5.92-3.75-8.2-1.67-1.11-10.73-7.12-10.73-7.12z" fill="#4A2F27"/><defs><path id="n" d="M74.37 71.31l.36-1.45s.03-.68-1.06.01c-.92.46-3.74 1.36-4.39 2.55s-1.28 3.39-1.36 4.55c-.02.36-.33 3 1.68 4.4s5.46 2.64 8.38-2.38c.55-.52.91-1.92 1.32-3.2l.18-1.66c.01-.64-1.49-2.37-1.49-2.37l-.47.98-3.15-1.43z"/></defs><clipPath id="o"><use xlink:href="#n"/></clipPath><g clip-path="url(#o)"><linearGradient id="p" x1="72.205" x2="71.238" y1="161.79" y2="165.78" gradientTransform="rotate(15.629 381.078 121.097)" gradientUnits="userSpaceOnUse"><stop stop-color="#5C4037" offset=".003"/><stop stop-color="#70534A" offset="1"/></linearGradient><path d="M77.9 72.43c-.23-.18-.43-.35-.62-.51-.39-.33-.76-.65-1.35-1.01-.72-.44-4.15.93-4.93 1.22-.26.1-.5.19-.72.28-.3.13-.53.36-.63.63-.03.05-.08.11-.12.2a.36.36 0 0 0-.02.11c0 .01-.25 1.51-.65 2.31-.16.31-.07.84.26.96 0 0-.19.77-.33 1.16-.17.46-.12.61-.14.82-.04.36.1.63.36.8.32.21.45.08.59.19s.1.29.14.5c.11.56.58.71.77.73.62.06.8-.33.91-.33.2.01.24.18.26.31.06.28.36.43.64.52.73.08 1.26-.54 1.28-.44.08.37.72.65 1.09.5.31-.13.49.12 2.35-2.72.37-.5.97-1.84 1.37-3.12l.19-.61c.31-.95.03-1.93-.7-2.5z" fill="url(#p)"/><linearGradient id="q" x1="84.585" x2="79.436" y1="232.29" y2="232.25" gradientTransform="rotate(19.387 537.985 144.397)" gradientUnits="userSpaceOnUse"><stop stop-color="#5C4037" offset=".002"/><stop stop-color="#70534A" offset="1"/></linearGradient><path d="M77.81 72.66c-.72-.56-1.26-.82-2.01-1.55-.68-.66-4.3.53-5.51 1.58-.44.19-.83.69-.64 1.13s.3.53.75.34c0 0 0 .43.03.53.14.54.76.57.95.6.34.05.52.13.53.48.01.33.23.7.52.87.32.18.57.22.96.12.18-.05.28.06.34.24.08.24.28.59.49.69.38.2.64.16.92.15.18 0 .26.02.38.16.09.12.09.58.39.76 1.32.78 1.94-2.2 2.5-3.92.25-.79.06-1.66-.6-2.18z" fill="url(#q)"/><path fill="none" stroke="#EF9B03" stroke-linecap="round" stroke-linejoin="round" stroke-miterlimit="10" d="M58.86 81.39l1.61-3.53M60.82 82.14l1.48-3.08"/><path fill="none" stroke="#4A2F27" stroke-linecap="round" stroke-linejoin="round" stroke-miterlimit="10" stroke-width=".75" d="M73.64 80.93l1.03-2.17M71.49 80.57l1.34-2.55M69.73 79.58l1.24-2.99"/><path d="M74.43 81.8c-.22 0-.44-.06-.64-.16-.13-.07-.24-.15-.33-.25-.3.18-.69.36-1.18.31-.53-.16-.83-.39-.94-.7-.19.12-.46.24-.87.2a1.24 1.24 0 0 1-1.1-1.03c-.02-.08-.02-.15-.03-.22v-.03c-.14-.01-.31-.05-.53-.19-.39-.25-.58-.68-.52-1.16 0-.04.01-.08.01-.12.01-.17.01-.38.16-.78.08-.23.19-.62.25-.87-.08-.09-.15-.19-.2-.32-.12-.31-.11-.69.03-.97.37-.75.61-2.18.61-2.19 0-.04.01-.11.04-.19.05-.13.12-.22.16-.28.11-.29.41-.6.79-.76.23-.1.48-.19.74-.29.77-.29 2.48-.94 2.48-.94.31-.13 1.93-.76 2.78-.24.62.38 1 .7 1.4 1.04.05.05.12.09.18.13.16.11.36.24.51.46 1.47 2.22-.61 6.3-.88 6.66-1.71 2.62-2.07 2.72-2.45 2.83-.17.03-.32.06-.47.06zm-.85-1.3c.04 0 .09.01.14.03.12.05.21.16.24.28.01.03.06.1.18.17.15.08.32.1.39.07.05-.02.09-.03.14-.05.16-.05.47-.13 2.04-2.53.35-.48 2-4.11.87-5.82-.06-.1-.17-.17-.3-.25-.09-.06-.18-.12-.26-.18-.38-.32-.73-.63-1.3-.97-.39-.24-1.46.03-2.11.3-.01 0-1.72.66-2.49.95-.25.09-.49.18-.71.28-.2.08-.36.24-.43.42-.01.03-.03.06-.05.09-.03.04-.05.07-.07.11 0 .01-.25 1.57-.69 2.45a.45.45 0 0 0 0 .36c.02.05.04.08.06.08.18.07.28.25.24.44-.01.03-.19.8-.34 1.2-.1.29-.11.42-.11.55 0 .06 0 .12-.01.19-.02.2.04.34.19.44.1.07.14.07.22.07.09.01.24.02.39.13.23.18.25.43.26.59 0 .04.01.09.01.14.07.38.4.42.44.43.28.02.4-.07.51-.17.09-.07.21-.16.39-.16.23.01.51.13.61.61.01.06.12.15.38.23.29.02.61-.19.8-.32.12-.08.23-.16.37-.16z" fill="#4A2F27"/></g><path d="M64.11 50.83c-1.14-.71-1.94-1.83-2.24-3.14s-.08-2.66.64-3.8a5.033 5.033 0 0 1 6.95-1.6l7.92 4.96-5.34 8.54-7.93-4.96z" fill="#04A287"/><path d="M66.79 42.02c.85 0 1.68.24 2.4.69l7.5 4.69-4.81 7.7-7.5-4.69c-2.12-1.33-2.77-4.13-1.44-6.25a4.5 4.5 0 0 1 3.85-2.14m0-1c-1.85 0-3.65.92-4.7 2.6a5.54 5.54 0 0 0 1.76 7.63l8.35 5.22 5.87-9.39-8.35-5.22c-.92-.57-1.93-.84-2.93-.84z" fill="#008F76"/></svg>