<svg viewBox="0 0 128 128" width="128" height="128" xmlns="http://www.w3.org/2000/svg" xmlns:xlink="http://www.w3.org/1999/xlink"><defs><path id="a" d="M4 4h120v120H4z"/></defs><clipPath id="b"><use xlink:href="#a"/></clipPath><g clip-path="url(#b)"><linearGradient id="c" x1="64" x2="64" y1="97.5" y2="130.5" gradientUnits="userSpaceOnUse"><stop stop-color="#E3E3E3" offset=".001"/><stop stop-color="#C9C9C9" offset="1"/></linearGradient><path d="M13.5 130.5v-9.51c0-17.29 27.21-23.46 50.5-23.49h.14c13.39 0 25.82 2.15 35.01 6.05 7 2.98 15.35 8.42 15.35 17.44v9.51h-101z" fill="url(#c)"/><path d="M64.14 99c24.28 0 48.86 7.55 48.86 21.99V129H15v-8.01c0-6.95 4.88-12.47 14.52-16.42C38.26 100.99 50.51 99.02 64 99h.14m0-3H64c-25.65.03-52 7.1-52 24.99V132h104v-11.01C116 104.13 89.9 96 64.14 96z" fill="#BBBDBF"/></g><g clip-path="url(#b)" fill="#B9BBBD"><path d="M62.75 113.81h2.51c6.93 0 12.54-4.44 12.54-9.91v-6.17c-4.32-.68-8.86-1.02-13.42-1.01-4.79.01-9.59.35-14.18 1.04v6.13c0 5.48 5.62 9.92 12.55 9.92z"/><path d="M61.78 111.5h4.54v17.95h-4.54z"/></g><path d="M63.17 107.23c-4 0-7.26-3.22-7.26-7.17v-8.98h16.17v8.98c0 3.95-3.26 7.17-7.26 7.17h-1.65z" fill="#3C2B24"/><path d="M71.08 92.08v7.98c0 3.4-2.81 6.17-6.26 6.17h-1.65c-3.45 0-6.26-2.77-6.26-6.17v-7.98h14.17m2-2H54.92v9.98c0 4.51 3.7 8.17 8.26 8.17h1.65c4.56 0 8.26-3.66 8.26-8.17v-9.98h-.01z" fill="#291B16"/><radialGradient id="d" cx="84.455" cy="69.769" r="22.717" gradientUnits="userSpaceOnUse"><stop stop-color="#444140" offset="0"/><stop stop-color="#232020" offset="1"/></radialGradient><path d="M93.38 87.11c.53-.58 1.11-1.11 1.91-1.13 1.32-.03 3.36-.25 4.97-1.22.47-.28.87-.67 1.17-1.14-1.13-.23-2.68-.89-3.73-2.93-1.6-3.1.25-5.95 3.32-9.12 3.46-3.57 6.34-13.11.24-24.03-1.15-.17-14.94-2.62-19.16-2.62H64.11v49.71c19.75-.01 23.66-1.3 29.27-7.52z" fill="url(#d)"/><path d="M102.88 46.67l-2.09 7.54c5.33 9.55 3.38 13.88-.69 17.56-3.15 2.86-5.81 6.18-3.69 10.3.55 1.07 1.27 1.93 2.13 2.56-1.18.42-2.47.52-3.24.54-1.56.04-2.56 1.15-2.99 1.63-3.4 3.77-6.78 4.9-13.15 5.75 0 0-3.69 1.89-6.24 2.53V96c10.92-.1 16.52-1.53 21.62-7.18.39-.44.65-.63.83-.64 1.58-.04 3.9-.23 5.7-1.43 2.01-1.34 2.83-3.48 2.83-3.48s-3.45-.11-4.32-2.24-.34-3.97 3.15-7.12c4.25-3.83 6.42-11.5 2-17.83 0 0-.76-3.63-.75-3.67l-1.1-5.74z" fill="#1F1D1B"/><radialGradient id="e" cx="43.574" cy="69.769" r="22.717" gradientUnits="userSpaceOnUse"><stop stop-color="#444140" offset="0"/><stop stop-color="#232020" offset="1"/></radialGradient><path d="M34.65 87.11c-.53-.58-1.11-1.11-1.91-1.13-1.32-.03-3.36-.25-4.97-1.22a3.54 3.54 0 0 1-1.17-1.14c1.13-.23 2.68-.89 3.73-2.93 1.6-3.1-.25-5.95-3.32-9.12-3.46-3.57-6.34-13.11-.24-24.03 1.15-.17 14.94-2.62 19.16-2.62h17.99v49.71c-19.75-.01-23.66-1.3-29.27-7.52z" fill="url(#e)"/><path d="M25.15 46.67l2.09 7.54c-5.33 9.55-3.38 13.88.69 17.56 3.15 2.86 5.81 6.18 3.69 10.3-.55 1.07-1.27 1.93-2.13 2.56 1.18.42 2.47.52 3.24.54 1.56.04 2.56 1.15 2.99 1.63 3.4 3.77 6.78 4.9 13.15 5.75 0 0 3.69 1.89 6.24 2.53V96c-10.92-.1-16.52-1.53-21.62-7.18-.39-.44-.65-.63-.83-.64-1.58-.04-3.9-.23-5.7-1.43-2.01-1.34-2.83-3.48-2.83-3.48s3.45-.11 4.32-2.24.34-3.97-3.15-7.12c-4.25-3.83-6.42-11.5-2-17.83 0 0 .76-3.63.75-3.67l1.1-5.74z" fill="#1F1D1B"/><path d="M36.67 72.26c-5.36 0-9.71-4.67-9.71-10.41s4.36-10.41 9.71-10.41h54.65c5.36 0 9.71 4.67 9.71 10.41s-4.36 10.41-9.71 10.41H36.67z" fill="#3C2B24"/><path d="M91.33 52.43c4.8 0 8.71 4.22 8.71 9.41s-3.91 9.41-8.71 9.41H36.67c-4.8 0-8.71-4.22-8.71-9.41s3.91-9.41 8.71-9.41h54.66m0-2H36.67c-5.89 0-10.71 5.14-10.71 11.41s4.82 11.41 10.71 11.41h54.65c5.89 0 10.71-5.14 10.71-11.41s-4.81-11.41-10.7-11.41z" fill="#291B16"/><linearGradient id="f" x1="64" x2="64" y1="94.592" y2="12.826" gradientUnits="userSpaceOnUse"><stop stop-color="#5C4037" offset="0"/><stop stop-color="#63463D" offset=".158"/><stop stop-color="#6D5047" offset=".533"/><stop stop-color="#70534A" offset="1"/></linearGradient><path d="M64 95.27c-15.66 0-32.52-12.14-32.52-38.81 0-12.38 3.56-23.79 10.02-32.13 6.05-7.8 14.25-12.27 22.5-12.27s16.45 4.47 22.5 12.27c6.46 8.33 10.02 19.75 10.02 32.13 0 12.09-3.51 22.19-10.14 29.21-5.86 6.19-13.81 9.6-22.38 9.6z" fill="url(#f)"/><path d="M64 13.07c7.94 0 15.85 4.33 21.71 11.88 6.33 8.16 9.81 19.35 9.81 31.52 0 11.83-3.41 21.7-9.87 28.52-5.67 5.99-13.36 9.29-21.65 9.29s-15.98-3.3-21.65-9.29c-6.46-6.82-9.87-16.69-9.87-28.52 0-12.16 3.49-23.35 9.81-31.52C48.15 17.4 56.06 13.07 64 13.07m0-2c-17.4 0-33.52 18.61-33.52 45.39 0 26.64 16.61 39.81 33.52 39.81S97.52 83.1 97.52 56.46c0-26.78-16.12-45.39-33.52-45.39z" fill="#4A2F27"/><defs><path id="g" d="M21.17 23.17h86.17v54H21.17z"/></defs><clipPath id="h"><use xlink:href="#g"/></clipPath><g clip-path="url(#h)"><defs><path id="i" d="M64.04 5.83H64c-45.43.25-36.16 50.34-36.16 50.34s5.1 8.99 5.1 8.81c-.03-1.41.46-6.89.46-6.89l-2.68-2.92s3.89-25.44 6.79-24.91c4.45.81 26.54 2 26.57 2 7.83 0 14.92-.36 19.37-1.17 2.9-.53 9.64 1.7 10.68 4.45 1.33 3.54 3.13 19.71 3.13 19.71l-2.68 2.83s.49 5.51.46 6.89c0 .18 5.1-8.81 5.1-8.81s9.34-50.08-36.1-50.33z"/></defs></g><g clip-path="url(#h)"><radialGradient id="j" cx="64.326" cy="33.52" r="36.373" gradientTransform="matrix(1 0 0 .8642 0 4.552)" gradientUnits="userSpaceOnUse"><stop stop-color="#444140" offset="0"/><stop stop-color="#232020" offset="1"/></radialGradient><path d="M52.25 10.65C39.98 15 40.27 6.38 40.27 6.38c-6.66 3.32-3.8 11.38-3.8 11.38s-6.75-.5-9.64 5.34c-3.02 6.11-.36 10.78-.36 10.78S19.98 38 22.53 45.5c1.69 4.98 6.26 9.67 6.26 9.67 1.08 8.92 3.26 13.27 3.26 13.27s4.21-18.45 3.81-21.27c0 0 7.76-1.54 16.57-6.58 5.95-3.41 10.02-7.41 16.71-8.91 10.18-2.29 12.45 5.08 12.45 5.08s9.42-1.81 12.26 11.27c1.17 5.38 1.67 14.37 2.31 19.84-.06-.48 3.5-6.4 4.12-12.4.23-2.23 3.61-7.67 4.63-11.72 2.21-8.8-.69-15.74-2.06-17.81-2.5-3.79-8.49-9-12.97-8.24.23-4.8-3.55-9.25-8.1-10.78-12.45-4.19-25.87 2.43-29.53 3.73z" fill="url(#j)"/></g><ellipse cx="47.56" cy="57.91" rx="4.93" ry="5.1" fill="#1A1717"/><g fill="#1A1717"><path d="M54.98 49.82c-.93-1.23-3.07-3.01-7.23-3.01s-6.31 1.79-7.23 3.01c-.41.54-.31 1.17-.02 1.55.26.35 1.04.68 1.9.39s2.54-1.16 5.35-1.18c2.81.02 4.49.89 5.35 1.18s1.64-.03 1.9-.39c.29-.38.39-1.01-.02-1.55zM87.48 49.82c-.93-1.23-3.07-3.01-7.23-3.01s-6.31 1.79-7.23 3.01c-.41.54-.31 1.17-.02 1.55.26.35 1.04.68 1.9.39s2.54-1.16 5.35-1.18c2.81.02 4.49.89 5.35 1.18s1.64-.03 1.9-.39c.29-.38.39-1.01-.02-1.55z"/></g><ellipse cx="80.44" cy="57.91" rx="4.93" ry="5.1" fill="#1A1717"/><path d="M67.86 68.06c-.11-.04-.21-.07-.32-.08h-7.07c-.11.01-.22.04-.32.08-.64.26-.99.92-.69 1.63s1.71 2.69 4.55 2.69 4.25-1.99 4.55-2.69c.29-.71-.06-1.37-.7-1.63z" fill="#33251F"/><path d="M72.42 76.14c-3.19 1.89-13.63 1.89-16.81 0-1.83-1.09-3.7.58-2.94 2.24.75 1.63 6.45 5.42 11.37 5.42s10.55-3.79 11.3-5.42c.75-1.66-1.09-3.33-2.92-2.24z" fill="#1A1717"/><defs><path id="k" d="M64.04 5.83H64c-45.43.25-36.16 50.34-36.16 50.34s5.1 8.99 5.1 8.81c-.03-1.41.46-6.89.46-6.89l-2.68-2.92s3.89-25.44 6.79-24.91c4.45.81 26.54 2 26.57 2 7.83 0 14.92-.36 19.37-1.17 2.9-.53 9.64 1.7 10.68 4.45 1.33 3.54 3.13 19.71 3.13 19.71l-2.68 2.83s.49 5.51.46 6.89c0 .18 5.1-8.81 5.1-8.81s9.34-50.08-36.1-50.33z"/></defs><defs><path id="l" d="M64.98 39.18c-24.5-5.1-39.41-6.43-44.23-1.89-.65-6.69.82-11.26 2.72-13.87 2.18-3.01 6.41-7.14 9.49-9.25C43.88 6.67 53.2 4 64.02 4c10.59 0 23.57 6.24 33.19 12.73 3.09 2.09 5.18 3.69 7.36 6.69 8.29 11.42-3.24 34.26-3.24 34.26s-7.68-12.54-36.35-18.5z"/></defs><use fill="#C4C6C7" xlink:href="#l"/><clipPath id="m"><use xlink:href="#l"/></clipPath><path d="M65.26 41.37c24.5-5.1 40.34-5.86 45.15-1.31.65-6.69-1.6-11.83-3.49-14.45-2.18-3.01-4.27-4.6-7.36-6.69-9.63-6.49-22.53-12.73-33.35-12.73-10.59 0-23.57 6.24-33.19 12.73-3.09 2.09-5.18 3.69-7.36 6.69-8.29 11.42.32 34.26.32 34.26s.84-3.39 4.76-4.73c-.09-3.63 5.84-7.8 34.52-13.77z" clip-path="url(#m)" fill="#B9BBBD"/><path d="M107.67 43.89s-6.08-8.44-32.83-16.69C53.68 20.67 33 20.89 24.41 22.01c0 0-.27.23-.97 1.25 0 0 25.34-2.79 53.64 7.57 10.4 3.81 24.27 8.57 30.01 16.47l.58-3.41z" clip-path="url(#m)" fill="#B9BBBD"/><linearGradient id="n" x1="62.492" x2="62.492" y1="4.251" y2="56.24" gradientUnits="userSpaceOnUse"><stop stop-color="#eee" offset=".017"/><stop stop-color="#E3E3E3" offset=".328"/><stop stop-color="#C5C5C5" offset=".879"/><stop stop-color="#BDBDBD" offset="1"/></linearGradient><path d="M104.57 23.42C95.88 12.75 74.69 4 63.87 4c-10.59 0-30.5 5.09-40.55 19.42-8.11 11.55 3.3 34.49 3.3 34.49s5.21-12.08 33.96-17.38" fill="url(#n)"/><defs><path id="o" d="M64.98 39.18c-24.5-5.1-39.52-6.6-44.33-2.06-.65-6.69.93-11.09 2.83-13.7 2.18-3.01 6.41-7.14 9.49-9.25C43.88 6.67 53.2 4 64.02 4c10.59 0 23.57 6.24 33.19 12.73 3.09 2.09 5.18 3.69 7.36 6.69 8.29 11.42-3.24 34.26-3.24 34.26s-7.68-12.54-36.35-18.5z"/></defs><use fill="#C4C6C7" xlink:href="#o"/><clipPath id="p"><use xlink:href="#o"/></clipPath><path d="M63.58 40.53c29-3.62 32.95-4.63 44.59-.53.65-6.69-.74-11.44-2.32-14.58-1.67-3.32-3.21-4.4-6.31-6.5-9.61-6.49-22.51-12.73-33.33-12.73-10.59 0-23.57 6.24-33.19 12.73-3.09 2.09-5.18 3.69-7.36 6.69-8.29 11.42-2.02 32.06-2.02 32.06s10.88-13.51 39.94-17.14z" clip-path="url(#p)" fill="#B9BBBD"/><path d="M107.67 43.89s-6.08-8.44-32.83-16.69C53.68 20.67 33 20.89 24.41 22.01c0 0-.27.23-.97 1.25 0 0 25.34-2.79 53.64 7.57 10.4 3.81 24.27 8.57 30.01 16.47l.58-3.41z" clip-path="url(#p)" fill="#B9BBBD"/><linearGradient id="q" x1="64.021" x2="64.021" y1="4.25" y2="56.01" gradientUnits="userSpaceOnUse"><stop stop-color="#eee" offset=".017"/><stop stop-color="#E3E3E3" offset=".328"/><stop stop-color="#C5C5C5" offset=".879"/><stop stop-color="#BDBDBD" offset="1"/></linearGradient><path d="M59.75 38.42c8.17-2.33 41.18-5.33 47.74-1.97.65-6.69-.97-10.55-2.91-13.13C96.55 12.64 76.34 4 64 4 50.84 4 33.38 9.09 23.32 23.42c-8.11 11.55 3.26 34.26 3.26 34.26s-2.76-9 33.17-19.26z" fill="url(#q)"/><path d="M21.38 42.65s4.93-7.2 31.68-15.45c21.15-6.52 41.84-6.31 50.42-5.19 0 0 .34.24 1.04 1.26 0 0-25.41-2.79-53.71 7.57-10.4 3.81-22.9 7.12-28.64 15.02l-.79-3.21zM20.76 29.88s6.2-7.17 23.73-14.01c16.72-6.53 35.08-7.72 40.46-6.56l1.87.86c-7.95-.17-25.36 1.18-40.65 7.54-7.83 3.26-23.5 11.9-25.77 15.92.09-1.27.12-2.59.36-3.75z" fill="#B9BBBD"/><path d="M63.91 7h.05c.46 0 .97.02 1.58.06l.15.01.18.01c10.7.78 27.43 7.74 35.27 16.86.04.05.08.09.12.13.38.39.73.83 1.06 1.35.02.03.03.05.05.08 2.21 3.19 2.84 7.8 1.87 13.68-.47 2.83-1.28 5.87-2.49 9.31-.48 1.37-.93 2.57-1.37 3.68-4.45-4.24-13.83-10.93-31.47-15.15a3.266 3.266 0 0 0-1.08-.06c-1.5.19-3.06.39-4.72.6-21.47 2.68-31.34 10.71-35.79 14.59-.64-1.59-1.2-3.1-1.63-4.31-.63-1.74-1.02-3.81-1.39-5.81-.09-.47-.18-.93-.26-1.38-.53-2.7-.76-4.91-.72-6.96 0-.08.01-.16.01-.25v-.08c.11-3.22.97-6.09 2.56-8.55 6.58-10.14 19-14.59 25.82-16.34C55.52 7.48 59.5 7.01 63.87 7h.04m0-3h-.04c-4.48 0-8.7.48-12.89 1.55-10.48 2.69-21.53 8.26-27.6 17.62-1.97 3.04-2.92 6.48-3.04 10.08-.01.13-.01.26-.02.37-.05 2.55.28 5.1.78 7.6.49 2.49.92 5.24 1.78 7.63 1.07 2.96 2.33 6.24 3.74 9.07 0 0 .8-1.77 2.17-3.06 4.29-3.77 13.51-11.67 34.7-14.32l4.73-.6c25.92 6.2 33.02 17.74 33.02 17.74-.12-.2.99-2.14 1.09-2.37.83-1.91 1.56-3.86 2.25-5.82 1.03-2.92 2.04-6.33 2.62-9.82.92-5.6.72-11.42-2.36-15.87-.45-.7-.92-1.29-1.43-1.81-8.13-9.46-25.46-17.04-37.32-17.9-.12-.01-.24-.01-.36-.02-.61-.04-1.2-.07-1.77-.07h-.05z" fill="#B9BBBD"/></svg>