<svg viewBox="0 0 128 128" width="128" height="128" xmlns="http://www.w3.org/2000/svg" xmlns:xlink="http://www.w3.org/1999/xlink"><defs><path id="a" d="M4 4h120v120H4z"/></defs><clipPath id="b"><use xlink:href="#a"/></clipPath><g clip-path="url(#b)"><radialGradient id="c" cx="85.45" cy="69.699" r="23.207" gradientUnits="userSpaceOnUse"><stop stop-color="#FFEE58" offset="0"/><stop stop-color="#FDD835" offset="1"/></radialGradient><path d="M93.38 87.11c.53-.58 1.11-1.11 1.91-1.13 1.32-.03 3.36-.25 4.97-1.22.47-.28.87-.67 1.17-1.14-1.13-.23-2.68-.89-3.73-2.93-1.6-3.1.25-5.95 3.32-9.12 3.46-3.57 9.21-15.82 3.1-26.74-1.15-.17-17.81.08-22.03.08H64.1v49.71c19.76 0 23.67-1.29 29.28-7.51z" fill="url(#c)"/><radialGradient id="d" cx="42.652" cy="69.699" r="23.25" gradientUnits="userSpaceOnUse"><stop stop-color="#FFEE58" offset="0"/><stop stop-color="#FDD835" offset="1"/></radialGradient><path d="M34.82 87.11c-.53-.58-1.11-1.11-1.91-1.13-1.32-.03-3.36-.25-4.97-1.22a3.54 3.54 0 0 1-1.17-1.14c1.13-.23 2.75-.86 3.73-2.93 1.6-3.35-.67-6.33-3.32-9.12-4.33-4.57-9.21-15.82-3.1-26.74 1.15-.17 17.81.08 22.03.08H64.1v49.71c-19.76 0-23.67-1.29-29.28-7.51z" fill="url(#d)"/><path d="M106.07 46.67zm0 0h-3.2l.26.5c5.42 10.4-.55 20.63-3.19 23.36-2.96 3.05-5.7 6.73-3.58 10.85.55 1.07 1.27 1.93 2.13 2.56-1.18.42-2.47.52-3.24.54-1.56.04-2.56 1.15-2.99 1.63-3.4 3.77-5.97 5.63-13.09 6.45 0 0-3.69 1.89-6.24 2.53V96c12.46-.45 16.47-2.23 21.56-7.88.39-.44.65-.63.83-.64 1.58-.04 3.84-.32 5.7-1.43.67-.4 1.24-.96 1.67-1.63l1.17-1.85-2.14-.43c-1.19-.24-2.07-.94-2.69-2.14-1.04-2.01-.2-4.01 3.07-7.39 4.05-4.18 9.28-14.94 3.97-25.89-.01 0 0-.02 0-.05zM24.7 46.67h-3.32c.02.06.04.11.07.17-4.35 10.69-.38 20.95 3.93 25.49 2.71 2.86 3.42 4.92 2.33 7.46-1.12 2.63-2.9 2.78-3.3 2.78h-.08l1.17 1.85c.42.67 1 1.23 1.67 1.63 1.86 1.11 4.13 1.39 5.7 1.43.18 0 .44.2.83.64 5.07 5.62 9.06 7.42 21.39 7.88v-.95c-2.15-.6-6.08-2.48-6.08-2.48-7.12-.82-9.69-2.68-13.09-6.45-.43-.48-1.43-1.59-2.99-1.63h-.03c-.38 0-1.06.17-1.89.17-.88 0-1.93-.19-2.95-.98 0 0 7.46-4.33-.04-12.33-3.82-4.07-7.8-14.35-3.58-23.92l.29-.65-.03-.11z" fill="#FBB914"/></g><g clip-path="url(#b)"><linearGradient id="e" x1="14.366" x2="113.63" y1="112.79" y2="112.79" gradientUnits="userSpaceOnUse"><stop stop-color="#F78C1F" offset="0"/><stop stop-color="#F37F20" offset=".494"/><stop stop-color="#ED6D23" offset="1"/></linearGradient><path d="M14.37 129.4v-9.44c0-7.61 5.08-13.64 15.1-17.92 8.83-3.77 21.09-5.85 34.54-5.86h.13c24.6 0 49.5 8.17 49.5 23.78v9.44H14.37z" fill="url(#e)"/><path d="M64.13 97.68c12.78 0 25.13 2.22 33.89 6.1 6.44 2.85 14.12 7.97 14.12 16.18v7.94H15.87v-7.94c0-15.35 24.18-22.25 48.14-22.28h.12m0-3H64c-25.49.03-51.13 7.5-51.13 25.28v10.94h102.27v-10.94c-.01-16.76-25.41-25.28-51.01-25.28z" fill="#DA6727"/></g><g clip-path="url(#b)"><path d="M63.17 107.23c-4 0-7.26-3.22-7.26-7.17v-8.98h16.16v8.98c0 3.96-3.25 7.17-7.26 7.17h-1.64z" fill="#C48E6A"/><path d="M71.08 92.08v7.98c0 3.4-2.81 6.17-6.26 6.17h-1.65c-3.45 0-6.26-2.77-6.26-6.17v-7.98h14.17m2-2H54.92v9.98c0 4.51 3.7 8.17 8.26 8.17h1.65c4.56 0 8.26-3.66 8.26-8.17v-9.98h-.01z" fill="#B07853"/></g><g clip-path="url(#b)"><defs><path id="f" d="M18.35 4h91.3v94.5h-91.3z"/></defs><clipPath id="g"><use xlink:href="#f"/></clipPath><g clip-path="url(#g)"><path d="M36.67 72.26c-5.36 0-9.71-4.67-9.71-10.41s4.36-10.41 9.71-10.41h54.65c5.36 0 9.71 4.67 9.71 10.41s-4.36 10.41-9.71 10.41H36.67z" fill="#C48E6A"/><path d="M91.33 52.43c4.8 0 8.71 4.22 8.71 9.41s-3.91 9.41-8.71 9.41H36.67c-4.8 0-8.71-4.22-8.71-9.41s3.91-9.41 8.71-9.41h54.66m0-2H36.67c-5.89 0-10.71 5.14-10.71 11.41 0 6.28 4.82 11.41 10.71 11.41h54.65c5.89 0 10.71-5.14 10.71-11.41.01-6.27-4.81-11.41-10.7-11.41z" fill="#B07853"/><linearGradient id="h" x1="64" x2="64" y1="94.591" y2="12.825" gradientUnits="userSpaceOnUse"><stop stop-color="#CCA47A" offset="0"/><stop stop-color="#D6B088" offset=".257"/><stop stop-color="#DEB892" offset=".589"/><stop stop-color="#E0BB95" offset="1"/></linearGradient><path d="M64 95.27c-15.66 0-32.52-12.14-32.52-38.81 0-12.38 3.56-23.79 10.02-32.13 6.05-7.8 14.25-12.27 22.5-12.27s16.45 4.47 22.5 12.27c6.46 8.33 10.02 19.75 10.02 32.13 0 12.09-3.51 22.19-10.14 29.21-5.86 6.19-13.81 9.6-22.38 9.6z" fill="url(#h)"/><path d="M64 13.07c7.94 0 15.85 4.33 21.71 11.88 6.33 8.16 9.81 19.35 9.81 31.52 0 11.83-3.41 21.7-9.87 28.52-5.67 5.99-13.36 9.29-21.65 9.29s-15.98-3.3-21.65-9.29c-6.46-6.82-9.87-16.69-9.87-28.52 0-12.16 3.49-23.35 9.81-31.52C48.15 17.4 56.06 13.07 64 13.07m0-2c-17.4 0-33.52 18.61-33.52 45.39 0 26.64 16.61 39.81 33.52 39.81S97.52 83.1 97.52 56.46c0-26.78-16.12-45.39-33.52-45.39z" fill="#BA8F63"/><g fill="#AB872F"><path d="M54.98 49.82c-.93-1.23-3.07-3.01-7.23-3.01s-6.31 1.79-7.23 3.01c-.41.54-.31 1.17-.02 1.55.26.35 1.04.68 1.9.39s2.54-1.16 5.35-1.18c2.81.02 4.49.89 5.35 1.18s1.64-.03 1.9-.39c.29-.38.39-1.01-.02-1.55zM87.48 49.82c-.93-1.23-3.07-3.01-7.23-3.01s-6.31 1.79-7.23 3.01c-.41.54-.31 1.17-.02 1.55.26.35 1.04.68 1.9.39s2.54-1.16 5.35-1.18c2.81.02 4.49.89 5.35 1.18s1.64-.03 1.9-.39c.29-.38.39-1.01-.02-1.55z"/></g><g fill="#5D4037"><ellipse cx="47.37" cy="58.81" rx="4.93" ry="5.1"/><ellipse cx="80.63" cy="58.81" rx="4.93" ry="5.1"/></g><path d="M67.86 68.06c-.11-.04-.21-.07-.32-.08h-7.07c-.11.01-.22.04-.32.08-.64.26-.99.92-.69 1.63s1.71 2.69 4.55 2.69 4.25-1.99 4.55-2.69c.29-.71-.06-1.37-.7-1.63z" fill="#C48E6A"/><path d="M72.21 76.14c-3.19 1.89-13.63 1.89-16.81 0-1.83-1.09-3.7.58-2.94 2.24.75 1.63 6.45 5.42 11.37 5.42s10.55-3.79 11.3-5.42c.75-1.66-1.09-3.33-2.92-2.24z" fill="#6D4C41"/></g></g><g clip-path="url(#b)"><radialGradient id="i" cx="63.828" cy="36.989" r="37.036" gradientUnits="userSpaceOnUse"><stop stop-color="#FFEE58" offset="0"/><stop stop-color="#FDD835" offset="1"/></radialGradient><path d="M52.25 10.65C39.98 15 40.27 6.38 40.27 6.38c-6.66 3.32-3.8 11.38-3.8 11.38s-6.75-.5-9.64 5.34c-3.02 6.11-.36 10.78-.36 10.78S19.98 38 22.53 45.5c1.69 4.98 6.26 9.67 6.26 9.67 1.08 8.92 3.26 13.27 3.26 13.27s4.21-18.45 3.81-21.27c0 0 7.76-1.54 16.57-6.58 5.95-3.41 10.02-7.41 16.71-8.91 10.18-2.29 12.45 5.08 12.45 5.08s9.42-1.81 12.26 11.27c1.17 5.38 1.67 14.37 2.31 19.84-.06-.48 3.5-6.4 4.12-12.4.23-2.23 3.61-7.67 4.63-11.72 2.21-8.8-.69-15.74-2.06-17.81-2.5-3.79-8.49-9-12.97-8.24.23-4.8-3.55-9.25-8.1-10.78-12.45-4.19-25.87 2.43-29.53 3.73z" fill="url(#i)"/></g><g clip-path="url(#b)"><path d="M41.65 3.94zm0 0s-8.12 2.25-6.56 12.69c-2.93.12-7.56 1.69-9.6 5.8-2.42 4.9-1.56 8.99-.86 10.95-2.52 2.14-5.54 6.64-3.52 12.6.08.22.17.45.27.68l2.28 2.89 1.1-2.79-.32-.63c-.21-.42-.36-.77-.48-1.11-2.13-6.26 3.11-9.73 3.33-9.88l1.18-.76-.68-1.23c-.09-.17-2.21-4.12.4-9.38 1.57-3.17 5.52-3.69 7.93-3.69 1.17 0 1.98.12 1.98.12s-1.72-7 1.5-11c.43.78 2.06 5 7.43 5 1.57 0 3.45-.36 5.72-1.27.78-.31 1.68-.76 2.8-1.38C58.76 9.8 63.51 7.2 70.29 7.2c2.78 0 5.89.43 9.38 1.54 4.34 1.38 8.92 5.17 8.74 8.89l-.09 1.87 1.84-.31c.22-.04.44-.05.67-.05 3.58 0 8.57 4.28 10.8 7.64 1.22 1.84 3.98 9.5 1.92 17.71-.11.45-.26.94-.46 1.5l-.22.62.04.08 1.09 1.9 2.11-1.9c.05-.23.27-1.14.35-1.46 2.24-8.93-.56-17.42-2.32-20.09-2.44-3.7-7.91-8.64-12.82-8.97-.79-4.72-5.84-8.72-10.73-10.27-3.8-1.2-7.21-1.67-10.27-1.67-7.58 0-12.9 2.9-16.2 4.71-.96.53-1.82.93-2.36 1.18-1.49.69-2.89.99-4.14.99-2.54 0-4.45-1.21-5.25-2.76-1.41-2.71-.72-4.41-.72-4.41z" fill="#FBB914"/></g></svg>