<svg viewBox="0 0 128 128" width="128" height="128" xmlns="http://www.w3.org/2000/svg"><linearGradient id="a" x1="29.2" x2="40.8" y1="116.2" y2="116.2" gradientUnits="userSpaceOnUse"><stop stop-color="#40C0E7" offset="0"/><stop stop-color="#40C0E7" offset="1"/></linearGradient><path fill="url(#a)" d="M29.2 110.4h11.6V122H29.2z"/><linearGradient id="b" x1="29.2" x2="40.8" y1="11.8" y2="11.8" gradientUnits="userSpaceOnUse"><stop stop-color="#f0f" offset="0"/><stop stop-color="#f0f" offset="1"/></linearGradient><path fill="url(#b)" d="M29.2 6h11.6v11.6H29.2z"/><linearGradient id="c" x1="87.2" x2="98.8" y1="116.2" y2="116.2" gradientUnits="userSpaceOnUse"><stop stop-color="#40C0E7" offset="0"/><stop stop-color="#40C0E7" offset="1"/></linearGradient><path fill="url(#c)" d="M87.2 110.4h11.6V122H87.2z"/><linearGradient id="d" x1="64" x2="64" y1="110.4" y2="17.6" gradientUnits="userSpaceOnUse"><stop stop-color="#792D85" offset=".072"/><stop stop-color="#AC1CB3" offset=".305"/><stop stop-color="#D90DDC" offset=".542"/><stop stop-color="#F503F6" offset=".725"/><stop stop-color="#f0f" offset=".831"/></linearGradient><path d="M110.4 52.37v-11.6H98.8V29.2H87.2V17.6H75.6v11.6H52.4V17.6H40.8v11.6H29.2v11.57H17.6v11.6H6v46.4h11.6V64h11.6v34.78h11.58l.03.02v11.6h11.6V91.07H40.8v-11.6h46.4v11.6H75.6v19.33h11.6V98.8l.03-.02H98.8V64h11.6v34.77H122v-46.4h-11.6zm-69.6-11.6h11.6v11.6H40.8v-11.6zm46.4 11.6H75.6v-11.6h11.6v11.6z" fill="url(#d)"/><linearGradient id="e" x1="87.2" x2="98.8" y1="11.8" y2="11.8" gradientUnits="userSpaceOnUse"><stop stop-color="#f0f" offset="0"/><stop stop-color="#f0f" offset="1"/></linearGradient><path fill="url(#e)" d="M87.2 6h11.6v11.6H87.2z"/><g stroke="#6F21A1" stroke-miterlimit="10" stroke-width="4"><path fill="#792D85" d="M29.2 110.4h11.6V122H29.2z"/><path fill="none" d="M29.2 6h11.6v11.6H29.2z"/><path fill="#792D85" d="M98.8 122H87.2v-11.6h11.6z"/><path d="M110.4 52.37v-11.6H98.8V29.2H87.2V17.6H75.6v11.6H52.4V17.6H40.8v11.6H29.2v11.57H17.6v11.6H6v46.4h11.6V64h11.6v34.78h11.58l.03 11.62h11.6V91.07H40.8v-11.6h46.4v11.6H75.6v19.33h11.6V98.8l11.6-.02V64h11.6v34.77H122v-46.4h-11.6zm-69.6-11.6h11.6v11.6H40.8v-11.6zm46.4 11.6H75.6v-11.6h11.6v11.6zM98.8 17.6H87.2V6h11.6z" fill="none"/></g><linearGradient id="f" x1="-66.009" x2="-66.009" y1="-124.14" y2="-43.085" gradientUnits="userSpaceOnUse"><stop stop-color="#792D85" offset=".076"/><stop stop-color="#AC1CB3" offset=".308"/><stop stop-color="#D90DDC" offset=".543"/><stop stop-color="#F503F6" offset=".725"/><stop stop-color="#f0f" offset=".831"/></linearGradient><path d="M-66.01-36.05c-24.57 0-51.01-15.38-51.01-49.15s26.44-49.15 51.01-49.15c13.62 0 26.23 4.51 35.5 12.69C-20.36-112.7-15-100.09-15-85.2c0 14.83-5.36 27.41-15.51 36.39-9.3 8.23-21.9 12.76-35.5 12.76z" fill="url(#f)"/><path d="M-66.01-132.35c13.13 0 25.27 4.33 34.18 12.19C-22.13-111.59-17-99.5-17-85.2c0 14.24-5.13 26.31-14.83 34.89-8.93 7.9-21.07 12.26-34.18 12.26-13.17 0-25.31-4.3-34.18-12.09-9.7-8.53-14.83-20.65-14.83-35.06 0-14.47 5.13-26.62 14.82-35.12 8.85-7.75 20.99-12.03 34.19-12.03m0-4c-27.52 0-53.01 17.68-53.01 51.15 0 33.29 25.49 51.15 53.01 51.15S-13-52.36-13-85.2c0-33.02-25.49-51.15-53.01-51.15z" fill="#6F21A1"/></svg>