<svg xmlns="http://www.w3.org/2000/svg" viewBox="0 0 128 128" width="128" height="128"><path d="M39.08 107.24c.6.19 1.24-.14 1.43-.73l.85-2.64c.58-1.79-.58-4.42-.58-4.42l-6.57-2.11-6.54.05c-1.61.1-3 1.18-3.51 2.71l-.39 1.19c-.17.52.12 1.08.64 1.25l14.67 4.7z" fill="#4568ad"/><path d="M82.3 65.74H63.83l-1.18 3.46-12.15 2.11c-4.32.8-7.91 1.28-11.08 8.78l-6.81 16.98 9.46 3.94 9.06-17.64s15.1.78 24.63-.51c9.5-1.28 6.54-17.12 6.54-17.12z" fill="#7c7c7c"/><path d="M93.36 13.42c-2.37-4.24-8-7.71-12.82-7.14-5.4.64-8.46 4.37-9.44 9.23-.36 1.76-.38 3.53-.14 4.8.03.15.28 1.26.28 1.6.14 1.33-2.47 2.52-2.84 3.97-.28 1.09 1.98 1.89 2.15 2.09.85 1.02-.79 5.69 5.47 6.4 2.18.25 1.64 0 2.39.06l-1.57 3.7 10.32.74s-.61-4.55 5-12.15c2.68-3.62 2.73-10.58 1.2-13.3z" fill="#e0bb95"/><path d="M71.08 30.62c.87.09 1.74-.08 2.5-.59.83-.56.31-1.25-.63-.9-.57.21-1.36.29-2.07.13l.2 1.36z" fill="#6d4c41"/><ellipse transform="rotate(-89.209 75.102 22.824)" cx="75.1" cy="22.82" rx="1.77" ry="1.15" fill="#5d4037"/><path d="M74.32 20.17c-1.15.22-1.34-.55-.91-1.1.32-.41 1.03-.71 2.31-.32 1.21.36 1.64 1.12 1.93 1.59s.21.89-.08.9c-.38 0-1.82-1.33-3.25-1.07z" fill="#ab872f"/><radialGradient id="a" cx="76.88" cy="77.609" r="15.522" gradientTransform="scale(1 -1) rotate(-12.545 -520.92 17.327)" gradientUnits="userSpaceOnUse"><stop offset=".369" stop-color="#00bfa5"/><stop offset="1" stop-color="#009e89"/></radialGradient><path d="M62.02 69.2s1.85-13.5 6.8-22.98c2.78-5.32 4.62-7.38 7.1-8.92 2.83-1.76 8.75-2.92 11.1-.12 2.32 2.76 1.66 4.01 1.24 7.04L81.74 73.4c-10.71.94-19.72-4.2-19.72-4.2z" fill="url(#a)"/><path d="M83.63 22.56l1.04-1.47c.65-.83 1.24-1.55 2.03-1.37 2.33.56 1.83 4.73-.96 5.6 0 0 .29 5.01 2.54 5.74.3.1.75.33 1.36.01.71-.37 1.71-2.07 1.93-2.84 1.4-4.79 3-3.79 4.23-9.39 1.69-7.68-5.03-12.94-11.6-13.59-2.56-.25-5.22.05-7.6 1.05-1.01.41-4.53 2.13-5.34 3.76-1.02 2.09.18 3.94.18 3.94s6.87-.29 9.99.49c.41.1.87.25 1.05.64.08.17.1 1.23.1 1.42.07 2.4-.18 3.89.47 5.43.11.24.58.58.58.58z" fill="#ab872f"/><radialGradient id="b" cx="82.153" cy="18.807" r="12.82" gradientUnits="userSpaceOnUse"><stop offset=".699" stop-color="#bfa055" stop-opacity="0"/><stop offset="1" stop-color="#bfa055"/></radialGradient><path d="M83.63 22.56l1.04-1.47c.65-.83 1.24-1.55 2.03-1.37 2.33.56 1.83 4.73-.96 5.6 0 0 .29 5.01 2.54 5.74.3.1.75.33 1.36.01.71-.37 1.71-2.07 1.93-2.84 1.4-4.79 3-3.79 4.23-9.39 1.69-7.68-5.03-12.94-11.6-13.59-2.56-.25-5.22.05-7.6 1.05-1.01.41-4.53 2.13-5.34 3.76-1.02 2.09.18 3.94.18 3.94s6.87-.29 9.99.49c.41.1.87.25 1.05.64.08.17.1 1.23.1 1.42.07 2.4-.18 3.89.47 5.43.11.24.58.58.58.58z" fill="url(#b)"/><g><linearGradient id="c" gradientUnits="userSpaceOnUse" x1="92.323" y1="100.86" x2="92.323" y2="106.361" gradientTransform="translate(0 .11)"><stop offset="0" stop-color="#bfbebe"/><stop offset=".4" stop-color="#212121" stop-opacity="0"/><stop offset=".6" stop-color="#212121" stop-opacity="0"/><stop offset="1" stop-color="#bfbebe"/></linearGradient><path opacity=".5" fill="url(#c)" d="M85.37 100.97h13.91v5.5H85.37z"/><path d="M42.82 109.93c-.82 0-1.48-.12-1.83-.23l-18.34-6.13c-.43-.14-.78-.44-.99-.84s-.24-.86-.1-1.29c.23-.7.87-1.17 1.61-1.17.18 0 .35.03.52.08l17.7 5.87c.05.02.1.03.16.03.14 0 .28-.06.38-.17l9.62-10.94 1.85 4.77c-1.19 1.41-7.55 8.94-7.75 9.17-.47.53-1.5.85-2.83.85z" fill="#504f4f"/><radialGradient id="d" cx="44.163" cy="112.15" r="9.476" gradientTransform="translate(0 .11)" gradientUnits="userSpaceOnUse"><stop offset=".017" stop-color="#afb8b6"/><stop offset=".183" stop-color="#a4aead"/><stop offset=".475" stop-color="#869295"/><stop offset=".857" stop-color="#57656f"/><stop offset="1" stop-color="#43535f"/></radialGradient><path d="M47.59 123.31c-3.76 0-6.82-3.06-6.82-6.82s3.06-6.82 6.82-6.82 6.82 3.06 6.82 6.82-3.06 6.82-6.82 6.82z" fill="url(#d)"/><path d="M47.59 119.41c-1.61 0-2.92-1.31-2.92-2.92s1.31-2.92 2.92-2.92 2.92 1.31 2.92 2.92-1.31 2.92-2.92 2.92z" fill="#282323"/><path d="M47.59 114.07c1.33 0 2.42 1.08 2.42 2.42s-1.08 2.42-2.42 2.42-2.42-1.08-2.42-2.42 1.09-2.42 2.42-2.42m0-1c-1.89 0-3.42 1.53-3.42 3.42s1.53 3.42 3.42 3.42 3.42-1.53 3.42-3.42-1.53-3.42-3.42-3.42z" fill="#504f4f"/><path d="M47.59 117.7c-.76 0-1.38-.62-1.38-1.38V99.69h2.75v16.63c.01.76-.61 1.38-1.37 1.38z" fill="#43535f"/><linearGradient id="e" gradientUnits="userSpaceOnUse" x1="50.488" y1="98.791" x2="50.488" y2="106.53" gradientTransform="translate(0 .11)"><stop offset=".351" stop-color="#b80000"/><stop offset=".52" stop-color="#ad0000"/><stop offset=".817" stop-color="#8f0000"/><stop offset="1" stop-color="#7a0000"/></linearGradient><path d="M47.29 106.73c-1.57 0-2.85-1.28-2.85-2.85v-1.4c0-.77.32-1.52.88-2.06l8.5-8.14 2.72 14.44-9.25.01z" fill="url(#e)"/><g opacity=".2"><radialGradient id="f" cx="53.883" cy="99.395" r="5.445" gradientTransform="translate(0 .11)" gradientUnits="userSpaceOnUse"><stop offset=".15" stop-color="#2f2829"/><stop offset=".574" stop-color="#241e1f"/><stop offset="1" stop-color="#141111"/></radialGradient><path fill="url(#f)" d="M54.13 106.73l-2.91-11.95 2.61-2.5 2.72 14.45z"/><path d="M53.5 93.28l2.44 12.94h-1.42l-2.75-11.29 1.73-1.65" fill="#141111"/></g><radialGradient id="g" cx="96.353" cy="112.15" r="9.476" gradientTransform="translate(0 .11)" gradientUnits="userSpaceOnUse"><stop offset=".017" stop-color="#afb8b6"/><stop offset=".183" stop-color="#a4aead"/><stop offset=".475" stop-color="#869295"/><stop offset=".857" stop-color="#57656f"/><stop offset="1" stop-color="#43535f"/></radialGradient><circle cx="99.78" cy="116.49" r="6.82" fill="url(#g)"/><circle cx="99.78" cy="116.49" r="2.92" fill="#282323"/><path d="M99.78 114.07c1.33 0 2.42 1.08 2.42 2.42s-1.08 2.42-2.42 2.42-2.42-1.08-2.42-2.42 1.09-2.42 2.42-2.42m0-1c-1.89 0-3.42 1.53-3.42 3.42s1.53 3.42 3.42 3.42 3.42-1.53 3.42-3.42-1.53-3.42-3.42-3.42z" fill="#504f4f"/><linearGradient id="h" gradientUnits="userSpaceOnUse" x1="85.368" y1="103.61" x2="99.278" y2="103.61" gradientTransform="translate(0 .11)"><stop offset=".158" stop-color="#655c5a"/><stop offset=".335" stop-color="#5a5250"/><stop offset=".646" stop-color="#3d3736"/><stop offset="1" stop-color="#141111"/></linearGradient><path fill="url(#h)" d="M85.37 100.97h13.91v5.5H85.37z"/><linearGradient id="i" gradientUnits="userSpaceOnUse" x1="69.558" y1="83.53" x2="69.558" y2="66.23" gradientTransform="translate(0 .11)"><stop offset="0" stop-color="#6d6c6b"/><stop offset="1" stop-color="#444343"/></linearGradient><path d="M68.46 86.09c-.73-.96-2.49-3.92-2.49-10.13 0-6.22 1.77-9.18 2.5-10.14l4.47 1.95c-.68 1.05-1.97 3.64-1.97 8.19 0 4.52 1.4 6.96 2.18 7.96l-4.69 2.17z" fill="url(#i)"/><linearGradient id="j" gradientUnits="userSpaceOnUse" x1="71.478" y1="107.79" x2="71.478" y2="90.829" gradientTransform="translate(0 .11)"><stop offset="0" stop-color="#cb0a05"/><stop offset=".271" stop-color="#f31612"/><stop offset=".892" stop-color="#f31612"/><stop offset=".956" stop-color="#d80e09"/><stop offset="1" stop-color="#cb0a05"/></linearGradient><path d="M58.32 109.24c-2.27 0-2.8-1.33-3.14-4.31l-2.15-15.06h36.9l-2.14 15.04c-.34 2.99-.88 4.32-3.14 4.32l-26.33.01z" fill="url(#j)"/><g opacity=".2"><radialGradient id="k" cx="71.478" cy="90.513" r="13.057" gradientTransform="translate(0 .11)" gradientUnits="userSpaceOnUse"><stop offset=".15" stop-color="#2f2829"/><stop offset=".574" stop-color="#241e1f"/><stop offset="1" stop-color="#141111"/></radialGradient><path fill="url(#k)" d="M53.25 91.38l-.22-1.51h36.9l-.22 1.51z"/></g><linearGradient id="l" gradientUnits="userSpaceOnUse" x1="71.534" y1="83.724" x2="71.534" y2="90.49" gradientTransform="translate(0 .11)"><stop offset=".358" stop-color="#212121" stop-opacity="0"/><stop offset="1" stop-color="#bfbebe"/></linearGradient><path d="M53.05 90.14a1.47 1.47 0 01-1.46-1.49l.08-4.61c.01-.79.66-1.44 1.46-1.45l38.16-.19.19 5.44c.02.64-.22 1.25-.67 1.72s-1.05.72-1.7.72l-36.06-.14z" opacity=".5" fill="url(#l)"/><linearGradient id="m" gradientUnits="userSpaceOnUse" x1="71.483" y1="93.16" x2="71.483" y2="104.87" gradientTransform="translate(0 .11)"><stop offset=".533" stop-color="#9f0b00"/><stop offset=".976" stop-color="#9f0b00" stop-opacity="0"/></linearGradient><path d="M57.15 104.98h28.67s-.88-11.71-13.93-11.71-14.74 11.71-14.74 11.71z" fill="url(#m)"/><radialGradient id="n" cx="66.403" cy="100.3" r="17.005" gradientTransform="translate(0 .11)" gradientUnits="userSpaceOnUse"><stop offset=".017" stop-color="#afb8b6"/><stop offset=".183" stop-color="#a4aead"/><stop offset=".475" stop-color="#869295"/><stop offset=".857" stop-color="#57656f"/><stop offset="1" stop-color="#43535f"/></radialGradient><path d="M71.48 122.81c-7.07 0-12.82-5.75-12.82-12.82s5.75-12.82 12.82-12.82 12.82 5.75 12.82 12.82-5.75 12.82-12.82 12.82z" fill="url(#n)"/><path d="M71.48 115.92c-3.42 0-6.2-2.78-6.2-6.2s2.78-6.2 6.2-6.2 6.2 2.78 6.2 6.2-2.78 6.2-6.2 6.2z" fill="#afb8b6"/><path d="M71.48 104.01c3.15 0 5.7 2.56 5.7 5.7 0 3.15-2.56 5.7-5.7 5.7s-5.7-2.56-5.7-5.7 2.56-5.7 5.7-5.7m0-1a6.7 6.7 0 100 13.4 6.7 6.7 0 000-13.4z" fill="#2f3b4b"/><path d="M71.48 111.7c-1.09 0-1.99-.89-1.99-1.98s.89-1.98 1.99-1.98c1.09 0 1.98.89 1.98 1.98s-.88 1.98-1.98 1.98z" fill="#2f2829"/><path d="M71.48 108.23c.82 0 1.48.67 1.48 1.48s-.67 1.48-1.48 1.48-1.48-.67-1.48-1.48.66-1.48 1.48-1.48m0-1a2.48 2.48 0 102.48 2.48c.01-1.37-1.11-2.48-2.48-2.48z" fill="#141111"/><path d="M99.78 117.7c-.76 0-1.38-.62-1.38-1.38V99.69h2.75v16.63c.01.76-.61 1.38-1.37 1.38z" fill="#43535f"/><path d="M55.38 65.86l-.1-.86c-.1-.83-.05-1.94.38-2.66.09-.15.16-.33.21-.52.21-.93-.38-1.84-1.31-2.05s-1.84.38-2.05 1.31c-.12.56.03 1.1.39 1.51.58.66.72 1.31.83 2.18l.09.76c.03.22.49.52.7.56.05.01.1.02.16.01.29-.03.73.03.7-.24z" fill="#504f4f"/><path d="M59.25 63.62l-1.72 1.8h-6.92L44.01 62c-.37-.19-1.5.39-.53 1.2l7.65 5.43c.45.32 1 .49 1.55.49h2.45c1.54 0 2.35-.84 3.17-2.16.31-.51.94-1.76.94-1.76v-1.58z" fill="#504f4f"/><radialGradient id="o" cx="38.9" cy="-27.892" r="5.596" gradientTransform="matrix(1.6234 .3557 -.1877 .8569 25.694 42.1)" gradientUnits="userSpaceOnUse"><stop offset=".017" stop-color="#afb8b6"/><stop offset=".183" stop-color="#a4aead"/><stop offset=".475" stop-color="#869295"/><stop offset=".857" stop-color="#57656f"/><stop offset="1" stop-color="#43535f"/></radialGradient><path fill="url(#o)" d="M90.76 42.57l3.37-15.37 2.98.66-3.36 15.36z"/><ellipse cx="99.78" cy="99.69" rx="1.37" ry=".55" fill="#504f4f"/><linearGradient id="p" gradientUnits="userSpaceOnUse" x1="90.776" y1="24.451" x2="100.703" y2="25.974" gradientTransform="translate(0 .11)"><stop offset=".406" stop-color="#212121" stop-opacity="0"/><stop offset="1" stop-color="#bfbebe"/></linearGradient><path d="M96.54 34.33c-.14 0-.28-.01-.42-.03l-3.79-.59c-.72-.11-1.35-.5-1.77-1.08-.43-.59-.6-1.3-.49-2.02l1.89-12.05a2.693 2.693 0 012.68-2.29c.14 0 .28.01.42.03l3.79.59c1.48.23 2.49 1.62 2.26 3.1l-1.89 12.05a2.734 2.734 0 01-2.68 2.29z" opacity=".5" fill="url(#p)"/><linearGradient id="q" gradientUnits="userSpaceOnUse" x1="83.756" y1="70.563" x2="94.5" y2="69.167" gradientTransform="matrix(1 0 0 -1 0 130)"><stop offset=".426" stop-color="#212121" stop-opacity="0"/><stop offset="1" stop-color="#bfbebe"/></linearGradient><path d="M89.53 84.19c-.12 0-.25-.01-.38-.03-3.71-.62-9.85-2.86-9.34-10.85.7-11.05 4.83-24.6 8.16-32.85.99-2.46 2.67-3.87 4.6-3.87 1.09 0 2.12.47 2.9 1.32.97 1.06 1.43 2.58 1.29 4.28-.6 7.3-3.69 30.43-4.99 40.04a2.272 2.272 0 01-2.24 1.96z" opacity=".5" fill="url(#q)"/><linearGradient id="r" gradientUnits="userSpaceOnUse" x1="59.547" y1="65.08" x2="110.387" y2="65.08" gradientTransform="translate(0 .11)"><stop offset="0" stop-color="#504f4f"/><stop offset="1" stop-color="#141111"/></linearGradient><path d="M62.71 67.74c-3.23-.17-3.72-.7-3.84-2.58-.17-2.58 1.39-2.92 3.77-3.15l.47-.05c1.2-.13 3.13-.19 5.73-.19 5.8 0 13.04.33 13.11.33 1.66 0 2.81.36 3.46 1.07.54.59.77 1.48.67 2.64-.16 1.86-1.96 2.8-5.35 2.8l-18.02-.87z" fill="url(#r)"/><linearGradient id="s" gradientUnits="userSpaceOnUse" x1="101.427" y1="103.409" x2="86.915" y2="106.618" gradientTransform="matrix(1 0 0 -1 0 130)"><stop offset="0" stop-color="#504f4f"/><stop offset="1" stop-color="#141111"/></linearGradient><path d="M96.54 34.33c-.14 0-.28-.01-.42-.03l-3.79-.59c-.72-.11-1.35-.5-1.77-1.08-.43-.59-.6-1.3-.49-2.02l1.89-12.05a2.693 2.693 0 012.68-2.29c.14 0 .28.01.42.03l3.79.59c1.48.23 2.49 1.62 2.26 3.1l-1.89 12.05a2.734 2.734 0 01-2.68 2.29z" fill="url(#s)"/><linearGradient id="t" gradientUnits="userSpaceOnUse" x1="71.534" y1="79.897" x2="71.534" y2="88.935" gradientTransform="translate(0 .11)"><stop offset="0" stop-color="#504f4f"/><stop offset="1" stop-color="#141111"/></linearGradient><path d="M53.05 90.14a1.47 1.47 0 01-1.46-1.49l.08-4.61c.01-.79.66-1.44 1.46-1.45l38.16-.19.19 5.44c.02.64-.22 1.25-.67 1.72s-1.05.72-1.7.72l-36.06-.14z" fill="url(#t)"/><linearGradient id="u" gradientUnits="userSpaceOnUse" x1="93.818" y1="69.004" x2="79.307" y2="72.213" gradientTransform="matrix(1 0 0 -1 0 130)"><stop offset="0" stop-color="#504f4f"/><stop offset="1" stop-color="#141111"/></linearGradient><path d="M89.53 84.19c-.12 0-.25-.01-.38-.03-3.71-.62-9.85-2.86-9.34-10.85.7-11.05 4.83-24.6 8.16-32.85.99-2.46 2.67-3.87 4.6-3.87 1.09 0 2.12.47 2.9 1.32.97 1.06 1.43 2.58 1.29 4.28-.6 7.3-3.69 30.43-4.99 40.04a2.272 2.272 0 01-2.24 1.96z" fill="url(#u)"/></g><radialGradient id="v" cx="59.523" cy="70.311" r="22.787" gradientTransform="matrix(1 0 0 -1 0 130)" gradientUnits="userSpaceOnUse"><stop offset=".5" stop-color="#e0bb95"/><stop offset="1" stop-color="#cca47a"/></radialGradient><path d="M84 49.15c.12-.3.2-.49.2-.49l-1.26-.24c-.35-.21-.64-.38-.64-.38l-7.95-1.49c-.01 0 .58.34.58.35l-2.99 7.38L63 56.46s-1.69.23-2.67.33-5.22-.91-5.22-.91c-.65-.11-1.57.06-2.06.5 0 0-1.94 1.51-4.63 3.35-1.45 1-.4 2.9 1.08 2.28 1.22-.5 3.98-1.83 3.98-1.83l2.15.5s1.03 1.55 3.48 1.67c.52.03 1.32-.18 1.87-.33l12.21-.33c5.31 0 6.05-1.51 7.06-3.54.72-1.45 2.93-6.93 3.68-8.82.21.02.2-.05.07-.18z" fill="url(#v)"/><g><path d="M72.65 49.96l10.17 4.09 3.63-9.04c1.13-2.81-.23-6-3.04-7.13s-6 .23-7.13 3.04l-3.63 9.04z" fill="#008f76"/></g></svg>