<svg viewBox="0 0 128 128" width="128" height="128" xmlns="http://www.w3.org/2000/svg" xmlns:xlink="http://www.w3.org/1999/xlink"><radialGradient id="a" cx="64.622" cy="24.541" r="63.255" gradientUnits="userSpaceOnUse"><stop stop-color="#FF80AB" offset=".475"/><stop stop-color="#FF4081" offset=".913"/></radialGradient><path d="M100.43 9.99c-19.77-7.23-35.87 13.8-35.87 13.8S49.15 3.72 29.05 9.95C-2.44 19.71.1 58.72 15.6 78.77 30.43 97.95 61 117.42 64 119.37v.12c0 .02.29.03.29.03s.16-.03.2-.06c.04.03-.23.06-.23.06s-.26-.01-.26-.03v-.12c4-1.95 34.02-22.93 48.85-42.11 15.51-20.06 18.22-56.06-12.42-67.27z" fill="url(#a)"/><defs><path id="b" d="M100.43 9.99c-19.77-7.23-35.87 13.8-35.87 13.8S49.15 3.72 29.05 9.95C-2.44 19.71.1 58.72 15.6 78.77 30.43 97.95 61 117.42 64 119.37v.12c0 .02.29.03.29.03s.16-.03.2-.06c.04.03-.23.06-.23.06s-.26-.01-.26-.03v-.12c4-1.95 34.02-22.93 48.85-42.11 15.51-20.06 18.22-56.06-12.42-67.27z"/></defs><clipPath id="c"><use xlink:href="#b"/></clipPath><linearGradient id="d" x1="11.024" x2="119.69" y1="34.626" y2="55.292" gradientTransform="rotate(180 64.51 44.798)" gradientUnits="userSpaceOnUse"><stop stop-color="#ff0" offset="0"/><stop stop-color="#FFCA28" offset="1"/></linearGradient><path clip-path="url(#c)" fill="url(#d)" d="M1.02 34.36H128v20.87H1.02z"/><path d="M92.01 11.48c2.49 0 4.98.45 7.39 1.33 10.42 3.81 17.44 11.08 20.31 21.01 3.73 12.94.04 29.66-9.19 41.6-13.27 17.16-39.7 35.72-46.48 40.35-10.65-6.98-33.91-23.17-46.03-38.84-9.45-12.22-13.04-30.3-8.72-43.96C12.44 23 19.58 16.03 29.94 12.82c2.28-.71 4.61-1.07 6.93-1.07 14.43 0 25.21 13.84 25.31 13.97.57.74 1.45 1.28 2.38 1.28s1.81-.54 2.38-1.28c.11-.14 10.99-14.24 25.07-14.24m0-3c-15.72 0-27.44 15.31-27.44 15.31S53.01 8.75 36.87 8.75c-2.51 0-5.12.36-7.82 1.2C-2.44 19.71.1 58.72 15.6 78.77 30.43 97.95 61 117.42 64 119.37v.12-.12c3-1.95 34.02-22.93 48.85-42.11 15.5-20.05 18.2-56.05-12.44-67.26a24 24 0 0 0-8.4-1.52zm-27.5 110.98c-.03.02-.09.04-.14.05.07-.01.16-.03.14-.05zm-.45.03c0 .02.23.03.23.03h.01c-.06-.01-.24-.01-.24-.03zm.31.02c-.03 0-.05.01-.06.01h.02s.01 0 .04-.01z" fill="#424242" opacity=".2"/><linearGradient id="e" x1="116.02" x2="101.02" y1="58.794" y2="82.294" gradientTransform="scale(-1 1) rotate(-6.183 -7.853 1652.315)" gradientUnits="userSpaceOnUse"><stop stop-color="#FFCA28" offset=".269"/><stop stop-color="#ff0" offset=".722"/></linearGradient><path d="M65.96 94.26l4.96-9.34c.41-.76 1.32-1.1 2.12-.79l8.92 3.43c.98.12 1.64-.98 1.07-1.78 0 0-4.09-12.54-12.41-24.14s-16-16.46-16-16.46l-9.79 3.88s5.56 5.29 11.27 20.16 7.73 25.16 7.73 25.16c.41.98 1.83.91 2.13-.12z" fill="url(#e)"/><linearGradient id="f" x1="130.74" x2="135.24" y1="64.223" y2="96.723" gradientTransform="scale(-1 1) rotate(-17.505 7.71 620.569)" gradientUnits="userSpaceOnUse"><stop stop-color="#FFCA28" offset=".269"/><stop stop-color="#ff0" offset=".722"/></linearGradient><path d="M32.16 95.26l-5.18-9.22a1.707 1.707 0 0 0-2.14-.74L16 88.94c-.98.14-1.66-.94-1.11-1.76 0 0 3.79-12.64 11.84-24.42s15.62-16.83 15.62-16.83l9.88 3.65S46.79 55 41.44 70 34.3 95.34 34.3 95.34c-.38.98-1.81.94-2.14-.08z" fill="url(#f)"/><path d="M54.21 48.57c2.39 1.81 8.03 6.53 13.99 14.82 5.32 7.42 8.88 15.32 10.66 19.76l-4.73-1.82c-.54-.21-1.11-.31-1.69-.31-1.75 0-3.34.96-4.16 2.5l-2.73 5.14c-1.17-4.51-3.28-11.7-6.65-20.51-3.42-8.93-6.85-14.59-9.16-17.8l4.47-1.78m.41-3.39l-9.79 3.88s5.56 5.29 11.27 20.16c5.7 14.87 7.73 25.16 7.73 25.16.2.47.62.7 1.05.7.47 0 .93-.28 1.09-.81l4.96-9.34a1.708 1.708 0 0 1 2.12-.8l8.92 3.43c.05.01.1.01.15.01.9 0 1.46-1.03.92-1.79 0 0-4.09-12.54-12.41-24.14S54.62 45.18 54.62 45.18z" fill="#424242" opacity=".2"/><path d="M42.85 49.3l4.51 1.67c-2.23 3.27-5.52 9.01-8.74 18.01-3.17 8.89-5.11 16.13-6.17 20.66l-2.85-5.07a4.72 4.72 0 0 0-4.11-2.4c-.62 0-1.22.12-1.79.36l-4.69 1.93c1.68-4.48 5.05-12.47 10.2-20.01 5.76-8.43 11.29-13.29 13.64-15.15m-.49-3.38s-7.58 5.05-15.62 16.83C18.69 74.54 14.9 87.17 14.9 87.17c-.51.77.06 1.77.94 1.77.06 0 .12 0 .18-.01l8.84-3.64a1.714 1.714 0 0 1 2.14.74l5.18 9.22c.17.52.63.79 1.08.79.43 0 .87-.24 1.06-.72 0 0 1.79-10.34 7.14-25.34 5.35-14.99 10.79-20.42 10.79-20.42l-9.89-3.64z" fill="#424242" opacity=".2"/><path d="M76.94 56.65c4.82.35 7.06-2.65 6-6.97l-1-4.07a59.094 59.094 0 0 1-1.68-16.27c.12-3.35-2.46-6.1-5.32-5.66-4 .61-9.66 2.03-15.19 5.3-3.56 2.1-6.96 4.69-9.88 7.17-3.3 2.8-3.03 10.17 4.43 13.59 12.05 5.52 17.24 6.52 22.64 6.91z" fill="#FFEA00"/><path d="M22.85 63.88c-4.56 1.61-7.51-.7-7.62-5.15l-.1-4.19a58.813 58.813 0 0 0-2.66-16.14c-1-3.2.77-6.53 3.65-6.86 4.02-.46 9.85-.58 16.05 1.12 3.99 1.09 7.95 2.7 11.42 4.32 3.92 1.84 5.6 9.02-.7 14.28-10.19 8.5-14.93 10.83-20.04 12.62z" fill="#FFEA00"/><path d="M75.54 26.63c.44 0 .8.31.97.49.5.52.78 1.3.75 2.11-.21 5.75.38 11.5 1.76 17.1l1 4.07c.28 1.14.22 2.09-.17 2.59-.48.61-1.56.7-2.17.7-.17 0-.35-.01-.53-.02-4.62-.34-9.43-1.07-21.62-6.65-2.65-1.21-4.35-3.17-4.65-5.38-.18-1.31.18-2.57.91-3.19 3.3-2.8 6.49-5.11 9.47-6.88 5.21-3.08 10.55-4.37 14.12-4.92.06-.02.11-.02.16-.02m0-3c-.2 0-.4.01-.6.05-4 .61-9.66 2.03-15.19 5.3-3.56 2.1-6.96 4.69-9.88 7.17-3.3 2.8-3.03 10.17 4.43 13.59 12.06 5.52 17.25 6.52 22.65 6.91.26.02.51.03.75.03 4.31 0 6.26-2.91 5.25-7l-1-4.07a59.094 59.094 0 0 1-1.68-16.27c.1-3.11-2.12-5.71-4.73-5.71z" fill="#424242" opacity=".2"/><path d="M21.3 34.25c3.51 0 6.9.44 10.08 1.31 3.34.92 7.03 2.31 10.94 4.14.87.41 1.55 1.52 1.72 2.84.29 2.21-.83 4.55-3.07 6.42-10.29 8.59-14.74 10.56-19.11 12.09-.64.23-1.22.34-1.72.34s-1.84 0-1.91-2.74l-.1-4.19a61.749 61.749 0 0 0-2.8-16.96c-.31-.99-.07-1.87.25-2.37.17-.26.45-.57.88-.62 1.6-.17 3.23-.26 4.84-.26m0-3c-1.93 0-3.68.12-5.18.3-2.88.33-4.65 3.66-3.65 6.86a58.813 58.813 0 0 1 2.66 16.14l.1 4.19c.09 3.49 1.92 5.66 4.91 5.66.82 0 1.73-.16 2.71-.51 5.1-1.8 9.85-4.12 20.04-12.62 6.3-5.26 4.62-12.44.7-14.28-3.47-1.62-7.43-3.23-11.42-4.32-3.89-1.07-7.63-1.42-10.87-1.42z" fill="#424242" opacity=".2"/><path d="M64.78 41.32c.27 2.01-2.44 4.03-6.06 4.51-3.61.48-9.08-2.48-9.08-2.48s4.5-4.3 8.11-4.78 6.76.74 7.03 2.75zM28.76 45.59c.27 2.01 3.42 3.24 7.03 2.76s8.11-4.78 8.11-4.78-5.47-2.97-9.08-2.48c-3.62.48-6.33 2.49-6.06 4.5z" fill="#FFC600"/><path d="M48.56 52.62a6.283 6.283 0 0 0 5.39-7.05l-.76-5.65a6.283 6.283 0 0 0-7.05-5.39 6.283 6.283 0 0 0-5.39 7.05l.76 5.65a6.269 6.269 0 0 0 7.05 5.39z" fill="#ff0"/><path d="M46.98 36.48c2.13 0 3.94 1.59 4.23 3.71l.76 5.65a4.277 4.277 0 0 1-3.67 4.8c-.19.03-.38.04-.57.04-2.13 0-3.94-1.59-4.23-3.71l-.76-5.65c-.15-1.13.15-2.25.84-3.16s1.7-1.49 2.83-1.64c.18-.03.38-.04.57-.04m0-2c-.28 0-.56.02-.84.06a6.283 6.283 0 0 0-5.39 7.05l.76 5.65a6.27 6.27 0 0 0 6.21 5.44c.28 0 .56-.02.84-.06a6.283 6.283 0 0 0 5.39-7.05l-.76-5.65c-.42-3.15-3.12-5.44-6.21-5.44z" fill="#424242" opacity=".2"/></svg>