<svg viewBox="0 0 128 128" width="128" height="128" xmlns="http://www.w3.org/2000/svg" xmlns:xlink="http://www.w3.org/1999/xlink"><defs><path id="a" d="M4 4h120v120H4z"/></defs><clipPath id="b"><use xlink:href="#a"/></clipPath><g clip-path="url(#b)"><linearGradient id="c" x1="64" x2="64" y1="97.5" y2="130.5" gradientUnits="userSpaceOnUse"><stop stop-color="#E3E3E3" offset=".001"/><stop stop-color="#C9C9C9" offset="1"/></linearGradient><path d="M13.5 130.5v-9.51c0-17.29 27.21-23.46 50.5-23.49h.14c13.39 0 25.82 2.15 35.01 6.05 7 2.98 15.35 8.42 15.35 17.44v9.51h-101z" fill="url(#c)"/><path d="M64.14 99c24.28 0 48.86 7.55 48.86 21.99V129H15v-8.01c0-6.95 4.88-12.47 14.52-16.42C38.26 100.99 50.51 99.02 64 99h.14m0-3H64c-25.65.03-52 7.1-52 24.99V132h104v-11.01C116 104.13 89.9 96 64.14 96z" fill="#BBBDBF"/></g><g clip-path="url(#b)" fill="#B9BBBD"><path d="M62.75 113.81h2.51c6.93 0 12.54-4.44 12.54-9.91v-6.17c-4.32-.68-8.86-1.02-13.42-1.01-4.79.01-9.59.35-14.18 1.04v6.13c0 5.48 5.62 9.92 12.55 9.92z"/><path d="M61.78 111.5h4.54v17.95h-4.54z"/></g><path d="M63.17 107.23c-4 0-7.26-3.22-7.26-7.17v-8.98h16.16v8.98c0 3.95-3.25 7.17-7.26 7.17h-1.64z" fill="#E59600"/><path d="M71.08 92.08v7.98c0 3.4-2.81 6.17-6.26 6.17h-1.65c-3.45 0-6.26-2.77-6.26-6.17v-7.98h14.17m2-2H54.92v9.98c0 4.51 3.7 8.17 8.26 8.17h1.65c4.56 0 8.26-3.66 8.26-8.17v-9.98h-.01z" fill="#D18100"/><path d="M63.17 107.23c-4 0-7.26-3.22-7.26-7.17v-8.98h16.16v8.98c0 3.95-3.25 7.17-7.26 7.17h-1.64z" fill="#E59600"/><path d="M71.08 92.08v7.98c0 3.4-2.81 6.17-6.26 6.17h-1.65c-3.45 0-6.26-2.77-6.26-6.17v-7.98h14.17m2-2H54.92v9.98c0 4.51 3.7 8.17 8.26 8.17h1.65c4.56 0 8.26-3.66 8.26-8.17v-9.98h-.01z" fill="#D18100"/><path d="M93.38 87.11c.53-.58 1.11-1.11 1.91-1.13 1.32-.03 3.36-.25 4.97-1.22.47-.28.87-.67 1.17-1.14-1.13-.23-2.68-.89-3.73-2.93-1.6-3.1.25-5.95 3.32-9.12 3.46-3.57 6.34-13.11.24-24.03-1.15-.17-14.94-2.62-19.16-2.62H64.11v49.71c19.75-.01 23.66-1.3 29.27-7.52z" fill="#543930"/><path d="M102.88 46.67l-2.09 7.54c5.33 9.55 3.38 13.88-.69 17.56-3.15 2.86-5.8 6.18-3.69 10.3.55 1.07 1.27 1.93 2.13 2.56-1.18.42-2.47.52-3.24.54-1.56.04-2.56 1.15-2.99 1.63-3.4 3.77-6.78 4.9-13.15 5.75 0 0-3.69 1.89-6.24 2.53V96c10.92-.1 16.52-1.53 21.62-7.18.39-.44.65-.63.83-.64 1.58-.04 3.9-.23 5.7-1.43 2.01-1.34 2.83-3.48 2.83-3.48s-3.45-.11-4.32-2.24-.34-3.97 3.15-7.12c4.25-3.83 6.42-11.5 2-17.83 0 0-.76-3.63-.75-3.67l-1.1-5.74z" fill="#402720"/><path d="M34.65 87.11c-.53-.58-1.11-1.11-1.91-1.13-1.32-.03-3.36-.25-4.97-1.22a3.54 3.54 0 0 1-1.17-1.14c1.13-.23 2.68-.89 3.73-2.93 1.6-3.1-.25-5.95-3.32-9.12-3.46-3.57-6.34-13.11-.24-24.03 1.15-.17 14.94-2.62 19.16-2.62h17.99v49.71c-19.75-.01-23.66-1.3-29.27-7.52z" fill="#543930"/><path d="M25.15 46.67l2.09 7.54c-5.33 9.55-3.38 13.88.69 17.56 3.15 2.86 5.81 6.18 3.69 10.3-.55 1.07-1.27 1.93-2.13 2.56 1.18.42 2.47.52 3.24.54 1.56.04 2.56 1.15 2.99 1.63 3.4 3.77 6.78 4.9 13.15 5.75 0 0 3.69 1.89 6.24 2.53V96c-10.92-.1-16.52-1.53-21.62-7.18-.39-.44-.65-.63-.83-.64-1.58-.04-3.9-.23-5.7-1.43-2.01-1.34-2.83-3.48-2.83-3.48s3.45-.11 4.32-2.24.34-3.97-3.15-7.12c-4.25-3.83-6.42-11.5-2-17.83 0 0 .76-3.63.75-3.67l1.1-5.74z" fill="#402720"/><path d="M36.67 72.26c-5.36 0-9.71-4.67-9.71-10.41s4.36-10.41 9.71-10.41h54.65c5.36 0 9.71 4.67 9.71 10.41s-4.36 10.41-9.71 10.41H36.67z" fill="#E59600"/><path d="M91.33 52.43c4.8 0 8.71 4.22 8.71 9.41s-3.91 9.41-8.71 9.41H36.67c-4.8 0-8.71-4.22-8.71-9.41s3.91-9.41 8.71-9.41h54.66m0-2H36.67c-5.89 0-10.71 5.14-10.71 11.41s4.82 11.41 10.71 11.41h54.65c5.89 0 10.71-5.14 10.71-11.41s-4.81-11.41-10.7-11.41z" fill="#D18100"/><linearGradient id="d" x1="64" x2="64" y1="94.592" y2="12.826" gradientUnits="userSpaceOnUse"><stop stop-color="#FFB300" offset="0"/><stop stop-color="#FFB809" offset=".102"/><stop stop-color="#FFC21A" offset=".371"/><stop stop-color="#FFC825" offset=".659"/><stop stop-color="#FFCA28" offset="1"/></linearGradient><path d="M64 95.27c-15.66 0-32.52-12.14-32.52-38.81 0-12.38 3.56-23.79 10.02-32.13 6.05-7.8 14.25-12.27 22.5-12.27s16.45 4.47 22.5 12.27c6.46 8.33 10.02 19.75 10.02 32.13 0 12.09-3.51 22.19-10.14 29.21-5.86 6.19-13.81 9.6-22.38 9.6z" fill="url(#d)"/><path d="M64 13.07c7.94 0 15.85 4.33 21.71 11.88 6.33 8.16 9.81 19.35 9.81 31.52 0 11.83-3.41 21.7-9.87 28.52-5.67 5.99-13.36 9.29-21.65 9.29s-15.98-3.3-21.65-9.29c-6.46-6.82-9.87-16.69-9.87-28.52 0-12.16 3.49-23.35 9.81-31.52C48.15 17.4 56.06 13.07 64 13.07m0-2c-17.4 0-33.52 18.61-33.52 45.39 0 26.64 16.61 39.81 33.52 39.81S97.52 83.1 97.52 56.46c0-26.78-16.12-45.39-33.52-45.39z" fill="#ED9E00"/><ellipse cx="47.56" cy="58.81" rx="4.93" ry="5.1" fill="#404040"/><ellipse cx="80.44" cy="58.81" rx="4.93" ry="5.1" fill="#404040"/><g fill="#6D4C41"><path d="M54.98 49.82c-.93-1.23-3.07-3.01-7.23-3.01s-6.31 1.79-7.23 3.01c-.41.54-.31 1.17-.02 1.55.26.35 1.04.68 1.9.39s2.54-1.16 5.35-1.18c2.81.02 4.49.89 5.35 1.18s1.64-.03 1.9-.39c.29-.38.39-1.01-.02-1.55zM87.48 49.82c-.93-1.23-3.07-3.01-7.23-3.01s-6.31 1.79-7.23 3.01c-.41.54-.31 1.17-.02 1.55.26.35 1.04.68 1.9.39s2.54-1.16 5.35-1.18c2.81.02 4.49.89 5.35 1.18s1.64-.03 1.9-.39c.29-.38.39-1.01-.02-1.55z"/></g><path d="M67.86 68.06c-.11-.04-.21-.07-.32-.08h-7.07c-.11.01-.22.04-.32.08-.64.26-.99.92-.69 1.63s1.71 2.69 4.55 2.69 4.25-1.99 4.55-2.69c.29-.71-.06-1.37-.7-1.63z" fill="#E59600"/><path d="M72.42 76.14c-3.19 1.89-13.63 1.89-16.81 0-1.83-1.09-3.7.58-2.94 2.24.75 1.63 6.45 5.42 11.37 5.42s10.55-3.79 11.3-5.42c.75-1.66-1.09-3.33-2.92-2.24z" fill="#795548"/><defs><path id="e" d="M20.42 24.33h86.25v48H20.42z"/></defs><clipPath id="f"><use xlink:href="#e"/></clipPath><radialGradient id="g" cx="64.326" cy="33.52" r="36.373" gradientTransform="matrix(1 0 0 .8642 0 4.552)" gradientUnits="userSpaceOnUse"><stop stop-color="#6D4C41" offset="0"/><stop stop-color="#543930" offset="1"/></radialGradient><path d="M52.25 10.65C39.98 15 40.27 6.38 40.27 6.38c-6.66 3.32-3.8 11.38-3.8 11.38s-6.75-.5-9.64 5.34c-3.02 6.11-.36 10.78-.36 10.78S19.98 38 22.53 45.5c1.69 4.98 6.26 9.67 6.26 9.67 1.08 8.92 3.26 13.27 3.26 13.27s4.21-18.45 3.81-21.27c0 0 7.76-1.54 16.57-6.58 5.95-3.41 10.02-7.41 16.71-8.91 10.18-2.29 12.45 5.08 12.45 5.08s9.42-1.81 12.26 11.27c1.17 5.38 1.67 14.37 2.31 19.84-.06-.48 3.5-6.4 4.12-12.4.23-2.23 3.61-7.67 4.63-11.72 2.21-8.8-.69-15.74-2.06-17.81-2.5-3.79-8.49-9-12.97-8.24.23-4.8-3.55-9.25-8.1-10.78-12.45-4.19-25.87 2.43-29.53 3.73z" clip-path="url(#f)" fill="url(#g)"/><defs><path id="h" d="M64.98 39.18c-24.5-5.1-39.73-6.41-44.54-1.87-.65-6.69 1.14-11.28 3.04-13.89 2.18-3.01 6.41-7.14 9.49-9.25C43.88 6.67 53.2 4 64.02 4c10.59 0 23.57 6.24 33.19 12.73 3.09 2.09 5.18 3.69 7.36 6.69 8.29 11.42-.32 34.26-.32 34.26s-10.6-12.54-39.27-18.5z"/></defs><use fill="#C4C6C7" xlink:href="#h"/><clipPath id="i"><use xlink:href="#h"/></clipPath><path d="M65.26 41.37c24.5-5.1 40.34-5.86 45.15-1.31.65-6.69-1.6-11.83-3.49-14.45-2.18-3.01-4.27-4.6-7.36-6.69-9.63-6.49-22.53-12.73-33.35-12.73-10.59 0-23.57 6.24-33.19 12.73-3.09 2.09-5.18 3.69-7.36 6.69-8.29 11.42.32 34.26.32 34.26s.84-3.39 4.76-4.73c-.09-3.63 5.84-7.8 34.52-13.77z" clip-path="url(#i)" fill="#B9BBBD"/><path d="M107.67 43.89s-6.08-8.44-32.83-16.69C53.68 20.67 33 20.89 24.41 22.01c0 0-.27.23-.97 1.25 0 0 25.34-2.79 53.64 7.57 10.4 3.81 24.27 8.57 30.01 16.47l.58-3.41z" clip-path="url(#i)" fill="#B9BBBD"/><linearGradient id="j" x1="64.043" x2="64.043" y1="4.25" y2="56.01" gradientUnits="userSpaceOnUse"><stop stop-color="#eee" offset=".017"/><stop stop-color="#E3E3E3" offset=".328"/><stop stop-color="#C5C5C5" offset=".879"/><stop stop-color="#BDBDBD" offset="1"/></linearGradient><path d="M60.58 40.53c24.61-4.54 39.81-7.4 47.59-3.08.65-6.69-1.56-11.53-3.6-14.03C95.88 12.75 74.69 4 63.87 4c-10.59 0-30.5 5.09-40.55 19.42-8.11 11.55.32 34.26.32 34.26s8.19-11.85 36.94-17.15z" fill="url(#j)"/><path d="M20.23 43.89s6.08-8.44 32.83-16.69c21.15-6.52 41.84-6.31 50.42-5.19 0 0 .27.23.97 1.25 0 0-25.34-2.79-53.64 7.57-10.4 3.81-24.27 8.57-30.01 16.47l-.57-3.41zM20.32 30.57s6.64-7.86 24.18-14.71c16.72-6.53 34.6-7.51 39.98-6.35l1.83.83c-7.95-.17-24.84 1-40.14 7.37-7.83 3.26-24.09 12.59-26.36 16.61.09-1.27.26-2.58.51-3.75z" fill="#B9BBBD"/><defs><path id="k" d="M64.98 39.18c-24.5-5.1-39.73-6.41-44.54-1.87-.65-6.69 1.14-11.28 3.04-13.89 2.18-3.01 6.41-7.14 9.49-9.25C43.88 6.67 53.2 4 64.02 4c10.59 0 23.57 6.24 33.19 12.73 3.09 2.09 5.18 3.69 7.36 6.69 8.29 11.42-.32 34.26-.32 34.26s-10.6-12.54-39.27-18.5z"/></defs><use fill="#C4C6C7" xlink:href="#k"/><clipPath id="l"><use xlink:href="#k"/></clipPath><path d="M63.58 40.53c29-3.62 32.95-4.63 44.59-.53.65-6.69-.74-11.44-2.32-14.58-1.67-3.32-3.21-4.4-6.31-6.5-9.61-6.49-22.51-12.73-33.33-12.73-10.59 0-23.57 6.24-33.19 12.73-3.09 2.09-5.18 3.69-7.36 6.69-8.29 11.42-2.02 32.06-2.02 32.06s10.88-13.51 39.94-17.14z" clip-path="url(#l)" fill="#B9BBBD"/><path d="M107.67 43.89s-6.08-8.44-32.83-16.69C53.68 20.67 33 20.89 24.41 22.01c0 0-.27.23-.97 1.25 0 0 25.34-2.79 53.64 7.57 10.4 3.81 24.27 8.57 30.01 16.47l.58-3.41z" clip-path="url(#l)" fill="#B9BBBD"/><linearGradient id="m" x1="64.069" x2="64.069" y1="4.25" y2="56.01" gradientUnits="userSpaceOnUse"><stop stop-color="#eee" offset=".017"/><stop stop-color="#E3E3E3" offset=".328"/><stop stop-color="#C5C5C5" offset=".879"/><stop stop-color="#BDBDBD" offset="1"/></linearGradient><path d="M59.75 38.42c8.17-2.33 41.92-5.02 48.48-1.66.65-6.69-1.72-10.76-3.66-13.34C96.54 12.75 76.21 4 63.87 4c-13.16 0-30.5 5.09-40.55 19.42-8.11 11.55.32 34.26.32 34.26s.18-9 36.11-19.26z" fill="url(#m)"/><path d="M20.23 43.89s6.08-8.44 32.83-16.69c21.15-6.52 41.84-6.31 50.42-5.19 0 0 .27.23.97 1.25 0 0-25.34-2.79-53.64 7.57-10.4 3.81-24.27 8.57-30.01 16.47l-.57-3.41zM21.15 29.69s5.81-6.98 23.35-13.83C61.22 9.33 79.58 8.14 84.96 9.3l1.87.86c-7.95-.17-25.36 1.18-40.65 7.54-7.83 3.26-23.67 11.98-25.94 16 .08-1.26.66-2.85.91-4.01z" fill="#B9BBBD"/><path d="M63.31 7.01c8.63 0 16.88 2.54 26.74 8.25 4.55 2.63 8.61 5.18 12.23 9.76 5.1 6.45 2.86 19.44.6 27.28C98 48.32 87.95 41.78 70.86 37.45c-.14-.04-.28-.06-.42-.08-.64-.07-1.26-.1-1.91-.1-1.17 0-2.19.11-3.27.22l-.47.05C43.06 39.76 30.7 47.5 25.06 52.16c-2.51-8.92-4.42-19.69.72-27.02l-.01.01c.06-.08.12-.16.2-.27.38-.55.55-.74.56-.75l.18-.21C34.23 14.08 44.85 10 52.47 8.29c1.49-.36 3.08-.65 4.73-.87 2.07-.27 4.12-.41 6.11-.41m0-3c-2.11 0-4.27.14-6.5.44-1.69.22-3.38.53-5.04.93-9.95 2.22-20.29 7.37-27.45 16.73-.12.13-.38.44-.82 1.07-.06.08-.13.16-.19.25-6.19 8.82-3.56 21.36-.76 30.92.06.22 1.17 3.17 1.08 3.33.23-.29 11.43-14.09 41.44-17.14 1.21-.12 2.27-.25 3.44-.25.51 0 1.03.02 1.59.08 24.81 6.29 34.15 17.31 34.15 17.31s9.03-23.55.37-34.51c-3.92-4.95-8.29-7.73-13.08-10.5-9.33-5.41-18.17-8.66-28.23-8.66zM23.64 57.67z" fill="#B9BBBD"/></svg>