<svg viewBox="0 0 128 128" width="128" height="128" xmlns="http://www.w3.org/2000/svg" xmlns:xlink="http://www.w3.org/1999/xlink"><defs><path id="a" d="M4 4h120v120H4z"/></defs><clipPath id="b"><use xlink:href="#a"/></clipPath><g clip-path="url(#b)"><linearGradient id="c" x1="64" x2="64" y1="97.281" y2="136.1" gradientUnits="userSpaceOnUse"><stop stop-color="#448AFF" offset=".003"/><stop stop-color="#3B7DFF" offset=".404"/><stop stop-color="#2962FF" offset="1"/></linearGradient><path d="M13.5 136.1v-15.26c0-16.23 25.36-23.53 50.5-23.56h.13c25.03 0 50.36 8.09 50.36 23.56v15.26H13.5z" fill="url(#c)"/><path d="M64.13 98.78c12.9 0 25.42 2.19 34.36 6 6.62 2.83 14.51 7.91 14.51 16.05v13.76H15v-13.76c0-15.2 24.61-22.03 49-22.06l.13.01m0-3H64c-25.49.03-52 7.28-52 25.06v16.76h104v-16.76c0-16.76-26.26-25.06-51.87-25.06z" fill="#4073D4"/></g><g clip-path="url(#b)"><path d="M63.17 109.56c-4 0-7.26-3.22-7.26-7.17v-8.98h16.16v8.98c0 3.95-3.26 7.17-7.26 7.17h-1.64z" fill="#C48E6A"/><path d="M71.08 94.41v7.98c0 3.4-2.81 6.17-6.26 6.17h-1.65c-3.45 0-6.26-2.77-6.26-6.17v-7.98h14.17m2-2H54.92v9.98c0 4.51 3.7 8.17 8.26 8.17h1.65c4.56 0 8.26-3.66 8.26-8.17v-9.98h-.01z" fill="#B07853"/></g><g clip-path="url(#b)"><defs><path id="d" d="M12 120.84v16.76h104v-16.76c0-16.79-26.35-25.09-52-25.06-25.49.03-52 7.28-52 25.06z"/></defs><clipPath id="e"><use xlink:href="#d"/></clipPath><g clip-path="url(#e)"><linearGradient id="f" x1="45.928" x2="45.928" y1="95.94" y2="136.89" gradientUnits="userSpaceOnUse"><stop stop-color="#FF9100" offset=".003"/><stop stop-color="#FF8400" offset=".44"/><stop stop-color="#FF6D00" offset="1"/></linearGradient><path d="M29.55 100.57v37.03h32.76L50.18 94.11c-7.72 1.24-14.88 3.35-20.63 6.46z" fill="url(#f)"/><linearGradient id="g" x1="44.757" x2="44.757" y1="96.019" y2="137.59" gradientUnits="userSpaceOnUse"><stop stop-color="#ff0" offset=".003"/><stop stop-color="#FFF200" offset=".678"/><stop stop-color="#FFEA00" offset="1"/></linearGradient><path d="M35.13 98.03l1.77 39.57h17.48L43.8 95.38a67.63 67.63 0 0 0-8.67 2.65z" fill="url(#g)"/><linearGradient id="h" x1="-247.83" x2="-247.83" y1="95.94" y2="136.89" gradientTransform="matrix(-1 0 0 1 -165.76 0)" gradientUnits="userSpaceOnUse"><stop stop-color="#FF9100" offset=".003"/><stop stop-color="#FF8400" offset=".44"/><stop stop-color="#FF6D00" offset="1"/></linearGradient><path d="M98.45 100.57v37.03H65.69l12.12-43.48c7.73 1.23 14.89 3.34 20.64 6.45z" fill="url(#h)"/><linearGradient id="i" x1="-249" x2="-249" y1="96.019" y2="137.59" gradientTransform="matrix(-1 0 0 1 -165.76 0)" gradientUnits="userSpaceOnUse"><stop stop-color="#ff0" offset=".003"/><stop stop-color="#FFF200" offset=".678"/><stop stop-color="#FFEA00" offset="1"/></linearGradient><path d="M92.87 98.03L91.1 137.6H73.62L84.2 95.38c3.05.72 5.96 1.61 8.67 2.65z" fill="url(#i)"/></g></g><g clip-path="url(#b)"><path d="M18 52.5c0 9.34 20.59 16.92 46 16.92s46-7.57 46-16.92-92-9.35-92 0z" fill="#FFEA00"/><path d="M105.38 52.49c-8.12-5.32-19.54-9.71-41.38-9.72-21.85.01-33.27 4.4-41.38 9.72-.62.41-.78 1.21-.32 1.8 4.45 5.83 23.46 11.57 41.7 11.59 18.24-.02 38-6.62 41.71-11.58.44-.6.3-1.4-.33-1.81z" fill="#EDBF00"/><path fill="none" d="M25 20.08h78v84H25z"/><defs><path id="j" d="M22 32.04h84v76H22z"/></defs><clipPath id="k"><use xlink:href="#j"/></clipPath><g clip-path="url(#k)"><path d="M36.67 72.34c-5.36 0-9.71-4.67-9.71-10.41s4.36-10.41 9.71-10.41h54.65c5.36 0 9.71 4.67 9.71 10.41s-4.36 10.41-9.71 10.41H36.67z" fill="#C48E6A"/><path d="M91.33 52.52c4.8 0 8.71 4.22 8.71 9.41s-3.91 9.41-8.71 9.41H36.67c-4.8 0-8.71-4.22-8.71-9.41s3.91-9.41 8.71-9.41h54.66m0-2H36.67c-5.89 0-10.71 5.14-10.71 11.41 0 6.28 4.82 11.41 10.71 11.41h54.65c5.89 0 10.71-5.14 10.71-11.41.01-6.28-4.81-11.41-10.7-11.41z" fill="#B07853"/><linearGradient id="l" x1="64" x2="64" y1="94.676" y2="12.91" gradientUnits="userSpaceOnUse"><stop stop-color="#CCA47A" offset="0"/><stop stop-color="#D6B088" offset=".257"/><stop stop-color="#DEB892" offset=".589"/><stop stop-color="#E0BB95" offset="1"/></linearGradient><path d="M64 95.36c-15.66 0-32.52-12.14-32.52-38.81 0-12.38 3.56-23.79 10.02-32.13 6.04-7.8 14.25-12.27 22.5-12.27s16.45 4.47 22.5 12.27c6.46 8.34 10.02 19.75 10.02 32.13 0 12.09-3.51 22.19-10.14 29.21-5.86 6.19-13.81 9.6-22.38 9.6z" fill="url(#l)"/><path d="M64 13.15c7.94 0 15.85 4.33 21.71 11.88 6.33 8.16 9.81 19.35 9.81 31.52 0 11.83-3.41 21.7-9.87 28.52-5.67 5.99-13.36 9.29-21.65 9.29s-15.98-3.3-21.65-9.29c-6.46-6.82-9.87-16.69-9.87-28.52 0-12.16 3.49-23.35 9.81-31.52C48.15 17.48 56.06 13.15 64 13.15m0-2c-17.4 0-33.52 18.61-33.52 45.39 0 26.64 16.61 39.81 33.52 39.81s33.52-13.17 33.52-39.81c0-26.78-16.12-45.39-33.52-45.39z" fill="#BA8F63"/><path d="M39.99 50.81s.13-.19.38-.51c.07-.08.12-.16.22-.26.11-.11.23-.22.37-.34s.28-.24.43-.38c.15-.13.31-.23.48-.35.17-.11.34-.24.53-.35.19-.1.4-.21.6-.32.21-.12.43-.21.66-.3s.47-.18.71-.27c.49-.14 1-.29 1.54-.36.53-.1 1.08-.11 1.63-.14.55.03 1.09.03 1.63.14.53.07 1.05.22 1.54.36.24.08.48.17.71.27.23.09.45.18.66.3.21.11.41.22.6.32.19.11.36.24.53.35.17.12.33.22.47.34s.27.24.4.35c.12.11.24.21.34.31s.18.21.26.29c.31.36.46.57.46.57.51.7.35 1.69-.36 2.19-.43.31-.96.37-1.43.21l-.29-.1s-.19-.07-.49-.2c-.08-.03-.15-.07-.25-.11-.1-.03-.19-.07-.3-.11-.21-.08-.44-.17-.7-.25-.13-.04-.26-.09-.4-.13-.14-.03-.28-.07-.43-.11l-.22-.06c-.08-.01-.15-.03-.23-.04-.16-.03-.31-.07-.47-.1-.33-.04-.66-.11-1-.12-.34-.04-.69-.03-1.03-.05-.35.02-.7.01-1.03.05-.34.02-.67.09-1 .12-.16.03-.31.07-.47.1-.08.01-.16.03-.23.04l-.22.06c-.15.04-.29.07-.43.11s-.27.09-.4.13-.25.08-.37.11c-.1.04-.2.07-.29.1l-.27.09c-.1.04-.2.1-.29.14-.36.18-.57.27-.57.27-.83.34-1.77-.05-2.11-.87-.24-.48-.16-1.05.13-1.49z" fill="#AB872F"/><ellipse cx="48.19" cy="58.9" rx="4.93" ry="5.1" fill="#5D4037"/><path d="M86.05 53.22s-.22-.09-.57-.27c-.09-.04-.19-.1-.29-.14-.09-.02-.18-.06-.27-.09s-.19-.07-.29-.1c-.12-.04-.24-.07-.37-.11s-.26-.09-.4-.13-.28-.07-.43-.11l-.22-.06c-.08-.01-.15-.03-.23-.04-.16-.03-.31-.07-.47-.1-.33-.04-.66-.11-1-.12-.34-.04-.69-.03-1.03-.05-.35.02-.7.01-1.03.05-.34.02-.67.09-1 .12-.16.03-.31.07-.47.1-.08.01-.16.03-.23.04l-.22.06c-.15.04-.29.08-.43.11-.14.04-.27.09-.4.13-.26.07-.49.16-.7.25-.11.04-.2.08-.3.11-.09.04-.17.08-.25.11-.3.13-.49.2-.49.2l-.28.1c-.82.29-1.72-.15-2-.97-.17-.5-.08-1.03.21-1.44 0 0 .16-.22.46-.57.08-.09.16-.19.26-.29s.22-.2.34-.31.26-.23.4-.35.31-.22.47-.34c.17-.12.34-.24.53-.35.19-.1.4-.21.6-.32.21-.12.43-.21.66-.3s.46-.18.71-.27c.49-.14 1-.29 1.54-.36.53-.1 1.08-.11 1.63-.14.55.03 1.09.03 1.63.14.53.06 1.05.22 1.54.36.24.08.48.17.71.27.23.09.45.18.66.3.21.11.41.22.6.32.19.11.36.24.53.35.17.12.32.22.48.35.15.13.3.26.43.38s.26.23.37.34c.09.1.15.18.22.26.25.31.38.51.38.51.5.74.31 1.74-.43 2.25-.49.28-1.07.31-1.56.12z" fill="#AB872F"/><ellipse cx="79.33" cy="58.9" rx="4.93" ry="5.1" fill="#5D4037"/><path d="M67.86 68.14c-.11-.04-.21-.07-.32-.08h-7.07c-.11.01-.22.04-.32.08-.64.26-.99.92-.69 1.63s1.71 2.69 4.55 2.69 4.25-1.99 4.55-2.69c.29-.7-.06-1.37-.7-1.63z" fill="#C48E6A"/><path d="M72.53 76.23c-3.19 1.89-13.63 1.89-16.81 0-1.83-1.09-3.7.58-2.94 2.24.75 1.63 6.45 5.42 11.37 5.42s10.55-3.79 11.3-5.42c.75-1.67-1.09-3.33-2.92-2.24z" fill="#6D4C41"/><defs><path id="m" d="M64 4.12h-.04c-45.43.24-36.12 52.13-36.12 52.13s5.1 8.99 5.1 8.81c-.03-1.41.46-6.89.46-6.89l-2.68-2.92s3.89-25.44 6.79-24.91c4.45.81 26.54 2 26.57 2 7.83 0 14.92-.36 19.37-1.17 2.9-.53 9.64 1.7 10.68 4.45 1.33 3.54 3.13 19.71 3.13 19.71l-2.68 2.83s.49 5.51.46 6.89c0 .18 5.1-8.81 5.1-8.81S109.44 4.36 64 4.12z"/></defs><radialGradient id="n" cx="64.26" cy="4.359" r="48.85" gradientUnits="userSpaceOnUse"><stop stop-color="#BFA055" offset="0"/><stop stop-color="#AB872F" offset="1"/></radialGradient><path d="M64.02 4.12h-.04c-45.43.24-36.13 52.13-36.13 52.13s5.1 8.99 5.1 8.81c-.16-7.25 2.74-20.09 4.8-25.55a6.075 6.075 0 0 1 6.79-3.83c4.45.81 11.55 1.81 19.37 1.81h.16c7.83 0 14.92-1 19.37-1.81 2.9-.53 5.76 1.08 6.79 3.83 2.06 5.47 4.96 18.3 4.8 25.55 0 .18 5.1-8.81 5.1-8.81s9.32-51.89-36.11-52.13z" fill="url(#n)"/><path d="M64.02 4.12h-.04c-45.43.24-36.13 52.13-36.13 52.13s5 8.81 5.1 8.81c-.03-1.48.07-3.2.26-5.03-.12-.29-2.46-4.75-2.48-4.79-.24-1.6-.93-6.98-.55-13.56.41-7.04 2.17-16.96 8.22-24.22 5.67-6.8 14.27-10.28 25.56-10.35H64c11.32.06 19.93 3.54 25.6 10.35 10.81 12.96 8.18 34.33 7.67 37.79-.02.04-2.46 4.58-2.49 4.65.2 1.89.31 3.65.27 5.17.1 0 5.1-8.81 5.1-8.81s9.3-51.9-36.13-52.14z" fill="#8F7635"/></g><radialGradient id="o" cx="64" cy="31.676" r="34.638" gradientTransform="matrix(1 0 0 .9806 0 .078)" gradientUnits="userSpaceOnUse"><stop stop-color="#ff0" offset="0"/><stop stop-color="#FFF600" offset=".325"/><stop stop-color="#FFDE00" offset=".854"/><stop stop-color="#FFD600" offset=".998"/></radialGradient><path d="M64.41 7.92c-46.76 0-43.24 46.43-43.24 46.43s12.21-10.8 43.5-10.8 42.09 9.8 42.09 9.8 4.41-45.43-42.35-45.43z" fill="url(#o)"/><linearGradient id="p" x1="64.321" x2="64.321" y1="4.735" y2="41.773" gradientUnits="userSpaceOnUse"><stop stop-color="#ff0" offset="0"/><stop stop-color="#FFF900" offset=".446"/><stop stop-color="#FFEA00" offset="1"/></linearGradient><path d="M74.72 42.15h-20.8V9.05c0-2.79 2.26-5.05 5.05-5.05h10.7c2.79 0 5.05 2.26 5.05 5.05v33.1z" fill="url(#p)"/><defs><path id="q" d="M64.41 7.92c-46.76 0-43.24 46.43-43.24 46.43s12.21-10.8 43.5-10.8 42.09 9.8 42.09 9.8 4.41-45.43-42.35-45.43z"/></defs><clipPath id="r"><use xlink:href="#q"/></clipPath><path d="M47.12 10.23l6.95-2.3v23.29c-1.41-10.07-3.43-17.35-6.95-20.99zM81.71 10.23l-6.95-2.3v23.29c1.41-10.07 3.43-17.35 6.95-20.99z" clip-path="url(#r)" fill="#EDBF00" opacity=".5"/><path d="M69.62 7c1.11 0 2.03.84 2.08 1.91.07 1.4 1.1 2.57 2.49 2.8 13.61 2.34 22.72 9.9 27.07 22.45 1.8 5.19 2.4 10.24 2.56 13.81-6.1-3.12-18.28-7.41-39.14-7.41-21.22 0-34.04 4.85-40.44 8.27.24-3.65.94-8.76 2.82-14.03 4.58-12.85 13.81-20.6 27.42-23.04a3.005 3.005 0 0 0 2.47-2.83C56.98 7.85 57.9 7 59.02 7h10.6m0-3h-10.6c-2.75 0-4.97 2.14-5.08 4.81-35.73 6.4-32.76 45.55-32.76 45.55s12.21-10.8 43.5-10.8 42.09 9.8 42.09 9.8 3.72-38.44-32.08-44.6C74.56 6.11 72.35 4 69.62 4z" fill="#EDBF00"/><path d="M109.53 50.99c-.25-.42-.63-.74-1.07-.99C90.36 39.59 64 39.93 64 39.93S37.64 39.59 19.54 50c-.44.25-.82.57-1.07.99-.53.9-.97 2.61.75 5.08 0 0 10.95-10.85 44.78-11.54 33.82.68 44.78 11.54 44.78 11.54 1.72-2.47 1.28-4.18.75-5.08z" fill="#FFEA00"/></g></svg>