<svg xmlns="http://www.w3.org/2000/svg" viewBox="0 0 128 128" width="128" height="128"><path d="M31.24 18.76c-.33-.34-.68-.68-1.11-.98-2.51-1.75-5.65 1.54-4.27 4.07.41.76.96 1.42 1.58 2 2.5-.53 3.88-2.48 3.8-5.09z" fill="#f44336"/><path d="M80.4 4.7c-10.18-.51-17.33 6.91-25.27 12.02-5.23 3.36-10.89 5.32-17.18 4.74-1.49-.14-3.02-.35-4.41-.92-1.04-.42-1.64-1.1-2.29-1.77.07 2.62-1.31 4.56-3.79 5.09 3.03 2.81 8.17 3.58 11.92 3.67 9.89.25 17.43-4.52 25.12-10.12 4.93-3.6 16.74-11.53 21.83-3.91 2.7 4.04-.04 13.03-4.73 14.68-3.62 1.28-2.06 7.08 1.59 5.79 6.22-2.2 9.77-9.39 10.11-15.67.42-7.93-5.18-13.21-12.9-13.6z" fill="#212121"/><path d="M80.4 4.7c-10.18-.51-17.33 6.91-25.27 12.02-5.23 3.36-10.89 5.32-17.18 4.74-1.49-.14-3.02-.35-4.41-.92-1.04-.42-1.64-1.1-2.29-1.77.07 2.62-1.31 4.56-3.79 5.09 3.03 2.81 8.17 3.58 11.92 3.67 9.89.25 17.43-4.52 25.12-10.12 4.93-3.6 16.74-11.53 21.83-3.91 2.7 4.04-.04 13.03-4.73 14.68-3.62 1.28-2.06 7.08 1.59 5.79 6.22-2.2 9.77-9.39 10.11-15.67.42-7.93-5.18-13.21-12.9-13.6z" fill="#504f4f"/><radialGradient id="a" cx="60.375" cy="60.967" r="47.649" gradientTransform="scale(1 -1) rotate(-17.002 -366.389 -3.876)" gradientUnits="userSpaceOnUse"><stop offset=".231" stop-color="#616161"/><stop offset=".928" stop-color="#212121"/></radialGradient><path d="M99.96 44.22l-3.23-11.43c-.56-2.13-2.31-3.39-4.42-4.03l-12.69-3.88c-2.11-.64-4.26-.58-5.92.87l-9.14 7.89C47.31 35.77 32.1 47.63 26.69 65.33c-7.33 23.99 6.18 49.32 30.17 56.66 23.99 7.33 49.39-6.19 56.72-30.18 5.43-17.7-.5-36.18-13.62-47.59z" fill="url(#a)"/><radialGradient id="b" cx="71.611" cy="78.309" r="44.23" gradientUnits="userSpaceOnUse"><stop offset=".75" stop-color="#504f4f" stop-opacity="0"/><stop offset="1" stop-color="#504f4f"/></radialGradient><path d="M99.96 44.22l-3.23-11.43c-.56-2.13-2.31-3.39-4.42-4.03l-12.69-3.88c-2.11-.64-4.26-.58-5.92.87l-9.14 7.89C47.31 35.77 32.1 47.63 26.69 65.33c-7.33 23.99 6.18 49.32 30.17 56.66 23.99 7.33 49.39-6.19 56.72-30.18 5.43-17.7-.5-36.18-13.62-47.59z" fill="url(#b)"/><linearGradient id="c" gradientUnits="userSpaceOnUse" x1="75.978" y1="53.765" x2="101.931" y2="-7.072"><stop offset="0" stop-color="#616161"/><stop offset=".488" stop-color="#333"/><stop offset="1" stop-color="#616161"/></linearGradient><path d="M100.01 44.22l-3.23-11.43c-.56-2.13-2.31-3.39-4.42-4.03l-12.69-3.88c-2.11-.64-4.26-.58-5.92.87l-9.14 7.89 35.4 10.58z" fill="url(#c)"/><linearGradient id="d" gradientUnits="userSpaceOnUse" x1="28.663" y1="125.311" x2="28.83" y2="113.979" gradientTransform="matrix(1 0 0 -1 0 128)"><stop offset=".362" stop-color="#ff9100"/><stop offset=".454" stop-color="#ff8a04"/><stop offset=".589" stop-color="#ff760f"/><stop offset=".751" stop-color="#ff5621"/><stop offset=".931" stop-color="#ff2a39"/><stop offset="1" stop-color="#ff1744"/></linearGradient><path fill="url(#d)" d="M28.67 2.67l1.66 11.31-3 .04z"/><linearGradient id="e" gradientUnits="userSpaceOnUse" x1="13.25" y1="114.175" x2="24.47" y2="114.175" gradientTransform="matrix(1 0 0 -1 0 128)"><stop offset=".362" stop-color="#ff9100"/><stop offset=".454" stop-color="#ff8a04"/><stop offset=".589" stop-color="#ff760f"/><stop offset=".751" stop-color="#ff5621"/><stop offset=".931" stop-color="#ff2a39"/><stop offset="1" stop-color="#ff1744"/></linearGradient><path fill="url(#e)" d="M13.25 9.88l11.22 5.35-1.61 2.54z"/><linearGradient id="f" gradientUnits="userSpaceOnUse" x1="13.52" y1="102.679" x2="23.02" y2="105.346" gradientTransform="matrix(1 0 0 -1 0 128)"><stop offset=".362" stop-color="#ff9100"/><stop offset=".454" stop-color="#ff8a04"/><stop offset=".589" stop-color="#ff760f"/><stop offset=".751" stop-color="#ff5621"/><stop offset=".931" stop-color="#ff2a39"/><stop offset="1" stop-color="#ff1744"/></linearGradient><path fill="url(#f)" d="M11.5 25.17l11.3-4.01.65 2.93z"/><linearGradient id="g" gradientUnits="userSpaceOnUse" x1="19.647" y1="91.653" x2="26.147" y2="100.82" gradientTransform="matrix(1 0 0 -1 0 128)"><stop offset=".362" stop-color="#ff9100"/><stop offset=".454" stop-color="#ff8a04"/><stop offset=".589" stop-color="#ff760f"/><stop offset=".751" stop-color="#ff5621"/><stop offset=".931" stop-color="#ff2a39"/><stop offset="1" stop-color="#ff1744"/></linearGradient><path fill="url(#g)" d="M27.34 28.09l-7.66 8.47 5.19-10.17z"/><linearGradient id="h" gradientUnits="userSpaceOnUse" x1="29.576" y1="89.403" x2="34.901" y2="96.913" gradientTransform="scale(1 -1) rotate(45.113 183.945 29.245)"><stop offset=".362" stop-color="#ff9100"/><stop offset=".454" stop-color="#ff8a04"/><stop offset=".589" stop-color="#ff760f"/><stop offset=".751" stop-color="#ff5621"/><stop offset=".931" stop-color="#ff2a39"/><stop offset="1" stop-color="#ff1744"/></linearGradient><path fill="url(#h)" d="M32.04 28.43l.48 9.34-2.9-8.89z"/><linearGradient id="i" gradientUnits="userSpaceOnUse" x1="34.527" y1="113.414" x2="41.527" y2="121.414" gradientTransform="matrix(1 0 0 -1 0 128)"><stop offset="0" stop-color="#ff1744"/><stop offset=".069" stop-color="#ff2a39"/><stop offset=".249" stop-color="#ff5621"/><stop offset=".411" stop-color="#ff760f"/><stop offset=".546" stop-color="#ff8a04"/><stop offset=".638" stop-color="#ff9100"/></linearGradient><path fill="url(#i)" d="M33.04 14.01l8.63-7.51-6.38 9.49z"/><circle cx="22.94" cy="10.19" r=".94" fill="#f44336"/><circle cx="17.75" cy="19.38" r="1" fill="#f44336"/><circle cx="38" cy="17.38" r="1" fill="#f44336"/><circle cx="26.33" cy="32.92" r=".57" fill="#f44336"/><circle cx="17.38" cy="29.5" r="1" fill="#f44336"/></svg>