<svg viewBox="0 0 128 128" width="128" height="128" xmlns="http://www.w3.org/2000/svg" xmlns:xlink="http://www.w3.org/1999/xlink"><defs><path id="a" d="M4 4h120v120H4z"/></defs><clipPath id="b"><use xlink:href="#a"/></clipPath><g clip-path="url(#b)"><radialGradient id="c" cx="-20.104" cy="-130.75" r="59.009" gradientTransform="matrix(.826 0 0 .826 66.856 101.29)" gradientUnits="userSpaceOnUse"><stop stop-color="#454140" offset="0"/><stop stop-color="#312D2D" offset="1"/></radialGradient><path d="M33.02 123.42s-6.8-.35-10.21-5.09c-7.37-10.23-11.42-35.81-11.42-72.02 0-.75.09-17.96 11.37-29.27 6.7-6.72 16.06-10.12 27.81-10.12 11.66 0 20.87 3.36 27.37 9.98 10.71 10.92 10.71 27.47 10.67 29.33 0 36.31-4.06 61.89-11.42 72.12-3.3 4.59-9.8 5.06-10.25 5.09L50 123.4l-16.98.02z" fill="url(#c)"/><path d="M50.57 8.42c11.25 0 20.09 3.21 26.3 9.53C87.15 28.43 87.15 44.41 87.11 46.2v.12c0 35.9-3.96 61.17-11.14 71.15-2.84 3.94-8.55 4.43-9.08 4.46l-16.9-.03-16.88.03c-.58-.04-6.25-.54-9.08-4.46-7.18-9.98-11.14-35.24-11.14-71.17 0-.7.09-17.32 10.94-28.19 6.41-6.44 15.4-9.69 26.74-9.69m0-3c-41.01 0-40.68 40.29-40.68 40.9 0 24.56 1.88 59.25 11.71 72.9 3.9 5.41 11.43 5.71 11.43 5.71L50 124.9l16.97.03s7.53-.3 11.43-5.71c9.83-13.65 11.71-48.34 11.71-72.9-.01-.61 1.47-40.9-39.54-40.9z" fill="#1F1A1A"/></g><g clip-path="url(#b)"><linearGradient id="d" x1="110.72" x2="110.72" y1="100.68" y2="135.72" gradientUnits="userSpaceOnUse"><stop stop-color="#448AFF" offset=".003"/><stop stop-color="#3B7DFF" offset=".404"/><stop stop-color="#2962FF" offset="1"/></linearGradient><path d="M105.09 133.59l1.41-32.91c5.74 5.19 8.87 15.67 8.87 21.82v.11l.98 13.11-11.26-2.13z" fill="url(#d)"/><path d="M107.84 104.41c4.02 5.46 6.03 13.7 6.03 18.09 0 .07 0 .15.01.22l.83 11.16-8.07-1.53 1.2-27.94m-2.72-6.62l-1.59 37.03 14.47 2.74-1.12-15.06c0-6.76-3.88-20-11.76-24.71z" fill="#4073D4"/></g><g clip-path="url(#b)"><linearGradient id="e" x1="50" x2="50" y1="97.243" y2="136.06" gradientUnits="userSpaceOnUse"><stop stop-color="#448AFF" offset=".003"/><stop stop-color="#3B7DFF" offset=".404"/><stop stop-color="#2962FF" offset="1"/></linearGradient><path d="M5.5 136.06V120.8c0-7.61 4.6-13.6 13.68-17.82C27.1 99.3 38.04 97.26 50 97.25h.12c22.05 0 44.38 8.09 44.38 23.56v15.26h-89z" fill="url(#e)"/><path d="M50.12 98.74c11.32 0 22.3 2.17 30.13 5.95C86.07 107.5 93 112.57 93 120.8v13.76H7V120.8c0-6.97 4.31-12.51 12.81-16.46 7.72-3.59 18.44-5.58 30.19-5.59l.12-.01m0-3H50c-22.55.03-46 7.28-46 25.06v16.76h92V120.8c0-16.75-23.23-25.06-45.88-25.06z" fill="#4073D4"/></g><g clip-path="url(#b)"><defs><path id="f" d="M-2 120.8v16.76h104V120.8c0-16.79-26.35-25.09-52-25.06-25.49.03-52 7.28-52 25.06z"/></defs></g><g clip-path="url(#b)"><g stroke-miterlimit="10"><path d="M117.96 54.78l-11.11-.32c-4.2-.09-7.67 3.39-7.74 7.79l-.64 36.36 3.8.09.64-36.36c.04-2.19 1.78-3.94 3.87-3.89l11.11.32.07-3.99z" fill="#9E9E9E" stroke="#757575"/><path d="M106.64 60.14l-1.49-.02c-1.11-.02-2-.97-1.99-2.13l.02-2.21c.01-1.16.92-2.09 2.03-2.07l1.49.02c1.11.02 2 .97 1.99 2.13l-.02 2.21c-.01 1.16-.92 2.08-2.03 2.07zM103.48 90.19c.01-1.05-1.33-1.92-3-1.95-1.67-.02-3.03.81-3.04 1.86L97 127.92l6.05.08.43-37.81z" fill="#616161" stroke="#424242" stroke-width=".973"/></g><path d="M98.15 125.39l3.78.05c1.54.02 2.8-1.36 2.82-3.08l.33-27.34c.02-1.88-1.33-3.42-3.01-3.45l-3.26-.04c-1.68-.02-3.07 1.48-3.09 3.36l-.33 27.34c-.01 1.73 1.22 3.14 2.76 3.16z" fill="#424242" stroke="#212121" stroke-miterlimit="10" stroke-width=".973"/><path d="M112.5 61.5c-2.73 0-5.66-1.72-5.66-5.5 0-4.14 3.19-5.25 5.08-5.25 4.5 0 9.18 3.78 10.85 5.28-1.73 1.53-6.54 5.47-10.27 5.47z" fill="#40C4FF"/><path d="M111.92 51.59c3.69 0 7.59 2.79 9.57 4.44-2.28 1.91-6.15 4.62-8.99 4.62-1.79 0-4.82-.98-4.82-4.66 0-3.47 2.66-4.4 4.24-4.4m0-1.67c-2.56 0-5.92 1.67-5.92 6.08s3.5 6.33 6.5 6.33c5 0 11.5-6.29 11.5-6.29s-6.08-6.12-12.08-6.12z" fill="#2962FF"/><path d="M112.62 53.67c3.51 1.22 5.22 2.32 5.22 2.32s-1.12 1.21-4.74 2.01c-2.69.59-4.44-.41-4.42-2.13.04-1.71 2.13-2.84 3.94-2.2z" fill="#84FFFF"/></g><path d="M95.3 117.14l-1.32 2.29s-6.26-1.36-5.59-4.65c.16-.78 1.56-2.44 1.56-2.44s-2.85-2.35-2.4-3.94c.45-1.57 3.17-2.79 3.17-2.79s-2.11-1.26-1.28-3.63c.57-1.62 3.53-2.16 3.53-2.16s-2.76-4.05 2.85-4.97c1.77-.29 5.74.3 9.3 2.93s5.16 5.19 6.62 8.73c.48 1.16.9 2.36 1.03 3.61.2 2.03-.48 4.12-1.77 5.7-1.24 1.5-2.42 3.28-4.35 3.95-1.38.49-11.35-2.63-11.35-2.63z" clip-path="url(#b)" fill="#FF7043" stroke="#E03B0E" stroke-linecap="round" stroke-linejoin="round" stroke-miterlimit="10" stroke-width="2"/><g clip-path="url(#b)"><path d="M49.17 109.53c-4 0-7.26-3.22-7.26-7.17v-8.98h16.16v8.98c0 3.95-3.26 7.17-7.26 7.17h-1.64z" fill="#EDC391"/><path d="M57.08 94.37v7.98c0 3.4-2.81 6.17-6.26 6.17h-1.65c-3.45 0-6.26-2.77-6.26-6.17v-7.98h14.17m2-2H40.92v9.98c0 4.51 3.7 8.17 8.26 8.17h1.65c4.56 0 8.26-3.66 8.26-8.17v-9.98h-.01z" fill="#D9AC77"/></g><g clip-path="url(#b)"><defs><path id="g" d="M16.41 88.91l-1.5-51.44c0-16.95 15.78-29.85 32.73-29.85h4.93c16.95 0 32.54 12.9 32.54 29.85l-1.5 51.18-67.2.26z"/></defs></g><g clip-path="url(#b)"><defs><path id="h" d="M4 20.05h96v88H4z"/></defs><clipPath id="i"><use xlink:href="#h"/></clipPath><g clip-path="url(#i)"><defs><path id="j" d="M14.9 37.45C14.9 20.5 30.68 7.6 47.63 7.6h4.93c16.95 0 32.54 12.9 32.54 29.85"/></defs><clipPath id="k"><use xlink:href="#j"/></clipPath><g clip-path="url(#k)"><radialGradient id="l" cx="-22.869" cy="-123.08" r="48.206" gradientTransform="matrix(.796 0 0 .796 68.204 97.599)" gradientUnits="userSpaceOnUse"><stop stop-color="#6D4C41" offset="0"/><stop stop-color="#543930" offset="1"/></radialGradient><path d="M12.28 53.71h8.09c.42-3.61 1.65-7.29 5.03-8.05 22.36-5.02 35.01-16.89 35.01-16.89 3.29 7.19 13.58 14.19 17.27 16.86 1.71 1.24 2.32 4.65 2.52 8.08h7.57c.11-6.44.12-11.02.12-11.02S88.91 7.12 50.08 7.12 12.11 42.69 12.11 42.69s.03 4.58.17 11.02z" fill="url(#l)"/></g></g><g clip-path="url(#i)"><linearGradient id="m" x1="50.203" x2="50.203" y1="95.27" y2="17.04" gradientUnits="userSpaceOnUse"><stop stop-color="#FFD29C" offset="0"/><stop stop-color="#FFD39E" offset=".024"/><stop stop-color="#FCD8AF" offset=".316"/><stop stop-color="#FADCBA" offset=".629"/><stop stop-color="#F9DDBD" offset="1"/></linearGradient><path d="M50.2 95.27c-2.3 0-4.91-.5-7.56-1.43-11.33-4.01-24.57-16.34-24.57-37.89 0-28.72 17.31-38.91 32.13-38.91s32.13 10.19 32.13 38.91c0 21.58-13.26 33.9-24.61 37.9-2.63.93-5.23 1.42-7.52 1.42z" fill="url(#m)"/><path d="M50.2 18.04c8.41 0 16.06 3.25 21.55 9.15 6.27 6.73 9.58 16.68 9.58 28.77 0 21.06-12.9 33.07-23.94 36.96-2.53.89-5.01 1.36-7.19 1.36-2.19 0-4.69-.48-7.23-1.38-11.03-3.9-23.9-15.92-23.9-36.94 0-12.09 3.31-22.03 9.58-28.77 5.49-5.9 13.15-9.15 21.55-9.15m0-2c-17.2 0-33.13 12.79-33.13 39.91 0 21.79 13.49 34.67 25.23 38.83 2.8.99 5.5 1.49 7.9 1.49 2.38 0 5.07-.49 7.85-1.47 11.76-4.14 25.28-17.03 25.28-38.84 0-27.13-15.93-39.92-33.13-39.92z" fill="#EDBD82"/><path d="M54.02 68.05c-.1-.04-.21-.07-.32-.08h-6.99c-.11.01-.21.04-.32.08-.63.26-.98.91-.68 1.61s1.69 2.66 4.49 2.66 4.19-1.96 4.49-2.66c.31-.69-.04-1.35-.67-1.61z" fill="#DBA689"/><ellipse cx="34.96" cy="58.87" rx="4.87" ry="5.04" fill="#312D2D"/><ellipse cx="65.45" cy="58.87" rx="4.87" ry="5.04" fill="#312D2D"/><radialGradient id="n" cx="33.955" cy="49.333" r="5.6" gradientUnits="userSpaceOnUse"><stop stop-color="#454140" offset=".09"/><stop stop-color="#454140" offset="1"/></radialGradient><path d="M41.19 49.82c-.93-1.23-3.07-3.01-7.23-3.01s-6.31 1.79-7.23 3.01c-.41.54-.31 1.17-.02 1.55.26.35 1.04.68 1.9.39s2.54-1.16 5.35-1.18c2.81.02 4.49.89 5.35 1.18s1.64-.03 1.9-.39c.28-.38.39-1.01-.02-1.55z" fill="url(#n)"/><radialGradient id="o" cx="66.45" cy="49.333" r="5.6" gradientUnits="userSpaceOnUse"><stop stop-color="#454140" offset=".09"/><stop stop-color="#454140" offset="1"/></radialGradient><path d="M73.68 49.82c-.93-1.23-3.07-3.01-7.23-3.01s-6.31 1.79-7.23 3.01c-.41.54-.31 1.17-.02 1.55.26.35 1.04.68 1.9.39s2.54-1.16 5.35-1.18c2.81.02 4.49.89 5.35 1.18s1.64-.03 1.9-.39c.29-.38.39-1.01-.02-1.55z" fill="url(#o)"/><path d="M58.27 76.14c-3.15 1.87-13.46 1.87-16.61 0-1.81-1.07-3.65.57-2.9 2.21.74 1.61 6.37 5.36 11.23 5.36s10.42-3.75 11.16-5.36c.75-1.64-1.07-3.29-2.88-2.21z" fill="#424242"/><defs><path id="p" d="M16.18 88.85L15.56 39c0-16.95 14.66-31.83 31.61-31.83h4.93c16.95 0 32.33 14.51 32.33 31.46l-1.07 49.96-67.18.26z"/></defs><clipPath id="q"><use xlink:href="#p"/></clipPath><g clip-path="url(#q)"><radialGradient id="r" cx="-23.156" cy="-123.13" r="48.206" gradientTransform="matrix(.796 0 0 .796 68.204 97.597)" gradientUnits="userSpaceOnUse"><stop stop-color="#454140" offset="0"/><stop stop-color="#312D2D" offset="1"/></radialGradient><path d="M87.66 42.65S88.68 7.08 49.85 7.08 11.88 42.65 11.88 42.65s.33 45.48 3.2 51.39 7.2 5.71 7.2 5.71-2.03-26.54-2.26-39.04c-.06-2.92-.94-13.73 5.16-15.09 22.36-5.02 35.01-16.89 35.01-16.89 3.29 7.19 13.58 14.19 17.27 16.86 3.03 2.19 2.61 11.2 2.55 15.03l-3.05 39.06s4.68.37 7.65-5.64c2.96-6.02 3.05-51.39 3.05-51.39z" fill="url(#r)"/></g></g></g><path d="M78.7 21.68H21.3V6.34s7.49-2.28 28.78-2.28C63.23 4.06 78.7 6.5 78.7 6.5v15.18z" clip-path="url(#b)" fill="#423F3E" opacity=".74"/><g clip-path="url(#b)"><linearGradient id="s" x1="10" x2="10" y1="28.952" y2="45.093" gradientUnits="userSpaceOnUse"><stop stop-color="#BDBDBD" offset="0"/><stop stop-color="#757575" offset="1"/></linearGradient><path d="M8 43.06c-1.65 0-3-1.35-3-3v-8c0-1.65 1.35-3 3-3h4c1.65 0 3 1.35 3 3v8c0 1.65-1.35 3-3 3H8z" fill="url(#s)"/><path d="M12 30.06c1.1 0 2 .9 2 2v8c0 1.1-.9 2-2 2H8c-1.1 0-2-.9-2-2v-8c0-1.1.9-2 2-2h4m0-2H8c-2.21 0-4 1.79-4 4v8c0 2.21 1.79 4 4 4h4c2.21 0 4-1.79 4-4v-8c0-2.21-1.79-4-4-4z" fill="#807978"/><linearGradient id="t" x1="90" x2="90" y1="28.952" y2="45.093" gradientUnits="userSpaceOnUse"><stop stop-color="#BDBDBD" offset="0"/><stop stop-color="#757575" offset="1"/></linearGradient><path d="M88 43.06c-1.65 0-3-1.35-3-3v-8c0-1.65 1.35-3 3-3h4c1.65 0 3 1.35 3 3v8c0 1.65-1.35 3-3 3h-4z" fill="url(#t)"/><path d="M92 30.06c1.1 0 2 .9 2 2v8c0 1.1-.9 2-2 2h-4c-1.1 0-2-.9-2-2v-8c0-1.1.9-2 2-2h4m0-2h-4c-2.21 0-4 1.79-4 4v8c0 2.21 1.79 4 4 4h4c2.21 0 4-1.79 4-4v-8c0-2.21-1.79-4-4-4z" fill="#807978"/><path d="M49.6 32.84c-13.33 0-31.05 6.41-39.1 10.97v9.88c7.55-6.43 22.78-11.47 39.1-11.47 16.5 0 29.01 6.27 39.82 11.62.05-2.14.36-10.2-.69-12.75-8.05-4.66-25.64-8.25-39.13-8.25z" fill="#807978"/><linearGradient id="u" x1="50" x2="50" y1="4.395" y2="51.564" gradientUnits="userSpaceOnUse"><stop stop-color="#BDBDBD" offset="0"/><stop stop-color="#757575" offset="1"/></linearGradient><path d="M89.96 31.59a9.535 9.535 0 0 0-.68-3.12l-7.8-19.35c-.58-1.18-1.64-2.18-3.03-3.04-.2-.13-.47.04-.47.29v9.07c0 .97-.77 1.75-1.73 1.75H23.76c-.96 0-1.73-.78-1.73-1.75V6.19c0-.18-.18-.29-.32-.2-1.46.88-2.57 1.91-3.17 3.13l-7.8 19.35c-.4.99-.63 2.05-.68 3.12L6 56.2s.02.15.08.38c.15.62.57 1.86 1.67 2.48 0 0 11.21-19.36 40.58-21.58 1.11-.08 2.23-.08 3.34 0 29.37 2.22 40.58 21.58 40.58 21.58 1.1-.62 1.52-1.86 1.67-2.48.06-.23.08-.38.08-.38l-4.04-24.61z" fill="url(#u)"/><g fill="#807978"><path d="M67.59 28.08c-.55 0-1-.34-1-.76v-4.7c0-.42.45-.76 1-.76s1 .34 1 .76v4.7c0 .42-.45.76-1 .76zM58.26 29.93c-.55 0-1-.34-1-.76v-8.4c0-.42.45-.76 1-.76s1 .34 1 .76v8.4c0 .42-.44.76-1 .76zM50 28.43c-.55 0-1-.34-1-.76v-5.4c0-.42.45-.76 1-.76s1 .34 1 .76v5.4c0 .42-.45.76-1 .76zM32.41 28.08c-.55 0-1-.34-1-.76v-4.7c0-.42.45-.76 1-.76s1 .34 1 .76v4.7c0 .42-.45.76-1 .76zM41.74 29.93c-.55 0-1-.34-1-.76v-8.4c0-.42.45-.76 1-.76s1 .34 1 .76v8.4c-.01.42-.45.76-1 .76z"/></g><g fill="#807978"><path d="M22.02 6.16c-.03-.11-.12-.19-.22-.19-.03 0-.07.01-.1.03-1.46.88-2.57 1.91-3.17 3.13l-7.8 19.35c-.4.99-.63 2.05-.68 3.12L6 56.2s.02.15.08.38c.15.62.58 1.86 1.67 2.48 0 0 .75-1.28 2.35-3.21.18-.22-.22-2.29-.31-4.21L13 32.08c.02-.11.03-.23.04-.34.04-.74.19-1.46.47-2.14l7.75-19.22c.16-.3.43-.6.76-.9V6.16zM89.96 31.59a9.535 9.535 0 0 0-.68-3.12l-7.8-19.35c-.58-1.18-1.64-2.18-3.03-3.04a.282.282 0 0 0-.15-.04c-.08 0-.24.03-.3.09v3.44c.28.27.61.54.75.8l7.75 19.22c.28.68.43 1.41.47 2.14.01.12.02.23.04.34l3.21 19.57c-.35-.37-.73-.76-1.13-1.15v4.38c2.17 2.47 3.17 4.18 3.17 4.18 1.1-.62 1.52-1.86 1.67-2.48.05-.22.07-.37.07-.37l-4.04-24.61z"/></g><linearGradient id="v" x1="50" x2="50" y1="33.302" y2="59.242" gradientUnits="userSpaceOnUse"><stop stop-color="#BDBDBD" offset="0"/><stop stop-color="#757575" offset="1"/></linearGradient><path d="M7.75 59.06S19.28 38.97 50 37.37c30.72 1.6 42.25 21.69 42.25 21.69 1.1-.62 1.52-1.86 1.67-2.48-2.9-5.7-12.64-17.79-36.45-22.74-3.44-.72-11.33-.72-14.77 0C18.89 38.79 8.97 50.88 6.08 56.58c.15.63.57 1.87 1.67 2.48z" fill="url(#v)"/></g><g clip-path="url(#b)"><path fill="#F5F5F5" d="M39.44 104.56h19.89l-9.32 26.05z"/><linearGradient id="w" x1="37.317" x2="37.317" y1="97.062" y2="125.17" gradientUnits="userSpaceOnUse"><stop stop-color="#1565C0" offset="0"/><stop stop-color="#0D47A1" offset=".682"/><stop stop-color="#0D47A1" offset="1"/></linearGradient><path d="M36.83 109.27a.999.999 0 0 0-1.2-.37l-8.55 3.37L33.8 97.8l6.36-.74 7.39 28.11-10.72-15.9z" fill="url(#w)"/><path d="M39.41 98.16l5.67 21.57-7.43-11.01a2.01 2.01 0 0 0-1.66-.88c-.25 0-.49.05-.73.14l-6.22 2.46 5.42-11.7 4.95-.58m1.5-2.19l-7.78.91-8 17.25 10.87-4.3 14.01 20.78-9.1-34.64z" fill="#004EA3"/><linearGradient id="x" x1="37.804" x2="37.804" y1="97.062" y2="125.63" gradientTransform="matrix(-1 0 0 1 100.47 0)" gradientUnits="userSpaceOnUse"><stop stop-color="#1565C0" offset="0"/><stop stop-color="#0D47A1" offset=".682"/><stop stop-color="#0D47A1" offset="1"/></linearGradient><path d="M59.89 97.06l6.36.74 6.69 14.43-7.74-3.16a.986.986 0 0 0-.38-.07c-.31 0-.62.15-.81.42l-11.64 16.21 7.52-28.57z" fill="url(#x)"/><path d="M60.64 98.16l4.94.58 5.39 11.62-5.38-2.2c-.25-.1-.5-.15-.76-.15-.63 0-1.24.3-1.63.83l-8.48 11.82 5.92-22.5m-1.49-2.19l-9.11 34.64L64.83 110l10.1 4.12-8-17.25-7.78-.9z" fill="#004EA3"/></g><path fill="none" d="M-57.4 20.05h96v88h-96z"/></svg>