<svg viewBox="0 0 128 128" width="128" height="128" xmlns="http://www.w3.org/2000/svg"><path fill="none" stroke="#F57C00" stroke-linecap="round" stroke-linejoin="round" stroke-miterlimit="10" stroke-width="6" d="M74.76 75.15L9.69 9.41"/><radialGradient id="a" cx="63.846" cy="26.514" r="58.932" gradientTransform="matrix(1 0 0 .964 0 4.306)" gradientUnits="userSpaceOnUse"><stop stop-color="#FF80AB" offset=".473"/><stop stop-color="#FF4081" offset=".92"/></radialGradient><path d="M90.76 28.88c-14.47-5.1-26.26 9.74-26.26 9.74s-11.28-14.17-26-9.77c-23.06 6.89-21.24 34.42-9.88 48.57C39.46 90.96 64 106.18 64 106.17c0 0 24.95-16.27 35.81-29.81 11.35-14.16 13.38-39.57-9.05-47.48z" fill="url(#a)"/><path d="M84.59 30.81c1.74 0 3.48.3 5.17.9 7.48 2.64 12.47 7.67 14.43 14.54 2.51 8.79-.17 20.14-6.65 28.23-9.4 11.71-27.94 24.4-33.44 28.04-7.94-5.04-24.45-16.2-33.09-26.97-6.63-8.27-9.23-20.53-6.33-29.83 2.16-6.93 7.24-11.77 14.67-13.99 1.6-.48 3.24-.72 4.87-.72 10.19 0 17.86 9.4 17.93 9.49.57.71 1.43 1.13 2.34 1.13s1.77-.42 2.34-1.13c.09-.11 7.87-9.69 17.76-9.69m0-3c-11.51 0-20.09 10.81-20.09 10.81S56.04 28 44.22 28c-1.84 0-3.75.26-5.73.85-23.06 6.89-21.17 34.42-9.82 48.57 10.86 13.54 33.27 27.28 35.46 28.66v.09-.09c2.19-1.38 24.89-16.19 35.75-29.72 11.35-14.15 13.31-39.56-9.12-47.48-2.13-.75-4.19-1.07-6.17-1.07zm-20.14 78.34c-.02.01-.07.03-.1.03.05-.01.12-.02.1-.03zm-.32.02c0 .01.17.02.17.02h.01c-.05-.01-.18-.01-.18-.02zm.22.01c-.02 0-.04 0-.05.01h.01s.02-.01.04-.01z" fill="#424242" opacity=".2"/><linearGradient id="b" x1="119.97" x2="82.639" y1="109.41" y2="101.41" gradientUnits="userSpaceOnUse"><stop stop-color="#FBC02D" offset=".055"/><stop stop-color="#FFEB3B" offset=".829"/></linearGradient><path d="M107.72 123.13c5.59-1.88 0-15.67 0-15.67s12.79 3.73 15-1.67c3.45-8.46-7.49-14.6-15.56-16.81-7.72-2.11-18.49-1.32-19.56-1.25l-.03-.03-.06.05s-.02.04-.02.05c-.02 0 .03-.06.03-.06s.05-.05.06-.04l.03.03c-.26 1.26-.56 12.31 1.55 20.03 2.2 8.08 9.89 18.29 18.56 15.37z" fill="url(#b)"/><path d="M93.59 89.54c3.64 0 8.86.24 13.04 1.38 5.54 1.52 12.05 4.9 14.09 9.03.82 1.66.87 3.33.15 5.09-.6 1.46-3.26 1.68-4.79 1.68-3.7 0-7.76-1.17-7.8-1.18-.18-.05-.37-.08-.56-.08-.56 0-1.1.23-1.48.66-.51.57-.66 1.38-.37 2.09 1.38 3.41 3.13 9.75 1.97 12.29-.23.5-.51.65-.75.74-.8.27-1.61.41-2.42.41-5.95 0-11.68-7.48-13.58-14.4-1.67-6.1-1.75-14.23-1.62-17.6 1.03-.07 2.46-.11 4.12-.11m0-2c-3.16 0-5.52.17-5.99.2l-.03-.03.03.03c-.26 1.26-.56 12.31 1.55 20.03 1.94 7.11 8.14 15.88 15.51 15.88 1 0 2.02-.16 3.06-.51 5.59-1.88 0-15.67 0-15.67s4.31 1.26 8.36 1.26c2.93 0 5.72-.66 6.64-2.92 3.45-8.46-7.49-14.6-15.56-16.81-4.32-1.19-9.58-1.46-13.57-1.46zm-6.02.16c-.01 0-.05.04-.05.04s.04-.04.05-.04zm-.06.05c-.01 0-.01.01-.01.02 0-.01.01-.02.01-.02zm-.01.02c-.01.02-.02.04-.01.04-.01-.01 0-.03.01-.04z" fill="#424242" opacity=".2"/><path d="M68.16 67.77c1.45-1.35 2.6-1.67 2.6-1.67l46.9 47.19c1.25 1.26 1.24 3.16.07 4.33a3 3 0 0 1-4.24-.01L66.47 70.3s.24-1.18 1.69-2.53z" fill="#FFC107"/><path d="M66.26 76.04s-2.01-4.92 1.31-8.27c3.85-3.89 8.35-1.81 8.35-1.81" fill="none" opacity=".3" stroke="#424242" stroke-linecap="round" stroke-linejoin="round" stroke-miterlimit="10" stroke-width="3"/><radialGradient id="c" cx="19.476" cy="19.66" r="17.785" gradientUnits="userSpaceOnUse"><stop stop-color="#FFEB3B" offset=".171"/><stop stop-color="#FBC02D" offset=".945"/></radialGradient><path d="M27.63 8.8c-2.93-2.89-8.36-3.36-8.36-3.36L4.06 3.92l-.02.02 1.52 15.21s.47 5.43 3.36 8.36c2.21 2.24 7.28 1.66 8.77-1.32 1.73-3.45.73-7.32.49-8.13.81.24 4.68 1.24 8.13-.49 2.98-1.49 3.56-6.56 1.32-8.77z" fill="url(#c)"/><path d="M6.27 6.15l12.82 1.28c3.24.19 5.62.94 7.13 2.79 1.15 1.44.82 4.48-.81 5.56-2.83 1.55-9.6-.09-9.6-.09s1.72 6.53.09 9.6c-.46.93-1.81 1.58-3.27 1.58-1.96-.2-4.42-2.25-5.07-7.92L6.27 6.15M4.06 3.92l-.02.02 1.52 15.21s.47 5.43 3.36 8.36c.9.92 2.29 1.36 3.71 1.36 2.05 0 4.18-.92 5.06-2.68 1.73-3.45.73-7.32.49-8.13.45.13 1.86.5 3.61.5 1.39 0 2.99-.23 4.52-.99 2.98-1.49 3.56-6.56 1.32-8.77-2.93-2.89-8.36-3.36-8.36-3.36L4.06 3.92z" fill="#424242" opacity=".2"/></svg>