<svg viewBox="0 0 128 128" width="128" height="128" xmlns="http://www.w3.org/2000/svg" xmlns:xlink="http://www.w3.org/1999/xlink"><defs><path id="a" d="M4 4h120v120H4z"/></defs><clipPath id="b"><use xlink:href="#a"/></clipPath><g clip-path="url(#b)"><linearGradient id="c" x1="110.72" x2="110.72" y1="100.68" y2="135.72" gradientUnits="userSpaceOnUse"><stop stop-color="#448AFF" offset=".003"/><stop stop-color="#3B7DFF" offset=".404"/><stop stop-color="#2962FF" offset="1"/></linearGradient><path d="M105.09 133.59l1.41-32.91c5.74 5.19 8.87 15.67 8.87 21.82v.11l.98 13.11-11.26-2.13z" fill="url(#c)"/><path d="M107.84 104.41c4.02 5.46 6.03 13.7 6.03 18.09 0 .07 0 .15.01.22l.83 11.16-8.07-1.53 1.2-27.94m-2.71-6.62l-1.59 37.03 14.47 2.74-1.12-15.06c-.01-6.76-3.89-20-11.76-24.71z" fill="#4073D4"/></g><g clip-path="url(#b)"><linearGradient id="d" x1="50" x2="50" y1="97.243" y2="136.06" gradientUnits="userSpaceOnUse"><stop stop-color="#448AFF" offset=".003"/><stop stop-color="#3B7DFF" offset=".404"/><stop stop-color="#2962FF" offset="1"/></linearGradient><path d="M5.5 136.06V120.8c0-7.61 4.6-13.6 13.68-17.82C27.1 99.3 38.04 97.26 50 97.25h.12c22.05 0 44.38 8.09 44.38 23.56v15.26h-89z" fill="url(#d)"/><path d="M50.12 98.74c11.32 0 22.3 2.17 30.13 5.95C86.07 107.5 93 112.57 93 120.8v13.76H7V120.8c0-6.97 4.31-12.51 12.81-16.46 7.72-3.59 18.44-5.58 30.19-5.59l.12-.01m0-3H50c-22.55.03-46 7.28-46 25.06v16.76h92V120.8c0-16.75-23.23-25.06-45.88-25.06z" fill="#4073D4"/></g><g clip-path="url(#b)"><g stroke-miterlimit="10"><path d="M117.96 54.78l-11.11-.32c-4.2-.09-7.67 3.39-7.74 7.79l-.64 36.36 3.8.09.64-36.36c.04-2.19 1.78-3.94 3.87-3.89l11.11.32.07-3.99z" fill="#9E9E9E" stroke="#757575"/><path d="M106.64 60.14l-1.49-.02c-1.11-.02-2-.97-1.99-2.13l.02-2.21c.01-1.16.92-2.09 2.03-2.07l1.49.02c1.11.02 2 .97 1.99 2.13l-.02 2.21c-.01 1.16-.92 2.08-2.03 2.07zM103.48 90.19c.01-1.05-1.33-1.92-3-1.95-1.67-.02-3.03.81-3.04 1.86L97 127.92l6.05.08.43-37.81z" fill="#616161" stroke="#424242" stroke-width=".973"/></g><path d="M98.15 125.39l3.78.05c1.54.02 2.8-1.36 2.82-3.08l.33-27.34c.02-1.88-1.33-3.42-3.01-3.45l-3.26-.04c-1.68-.02-3.07 1.48-3.09 3.36l-.33 27.34c-.01 1.73 1.22 3.14 2.76 3.16z" fill="#424242" stroke="#212121" stroke-miterlimit="10" stroke-width=".973"/><path d="M112.5 61.5c-2.73 0-5.66-1.72-5.66-5.5 0-4.14 3.19-5.25 5.08-5.25 4.5 0 9.18 3.78 10.85 5.28-1.73 1.53-6.54 5.47-10.27 5.47z" fill="#40C4FF"/><path d="M111.92 51.59c3.69 0 7.59 2.79 9.57 4.44-2.28 1.91-6.15 4.62-8.99 4.62-1.79 0-4.82-.98-4.82-4.66 0-3.47 2.66-4.4 4.24-4.4m0-1.67c-2.56 0-5.92 1.67-5.92 6.08s3.5 6.33 6.5 6.33c5 0 11.5-6.29 11.5-6.29s-6.08-6.12-12.08-6.12z" fill="#2962FF"/><path d="M112.62 53.67c3.51 1.22 5.22 2.32 5.22 2.32s-1.12 1.21-4.74 2.01c-2.69.59-4.44-.41-4.42-2.13.04-1.71 2.13-2.84 3.94-2.2z" fill="#84FFFF"/></g><path d="M95.3 117.14l-1.32 2.29s-6.26-1.36-5.59-4.65c.16-.78 1.56-2.44 1.56-2.44s-2.85-2.35-2.4-3.94c.45-1.57 3.17-2.79 3.17-2.79s-2.11-1.26-1.28-3.63c.57-1.62 3.53-2.16 3.53-2.16s-2.76-4.05 2.85-4.97c1.77-.29 5.74.3 9.3 2.93s5.16 5.19 6.62 8.73c.48 1.16.9 2.36 1.03 3.61.2 2.03-.48 4.12-1.77 5.7-1.24 1.5-2.42 3.28-4.35 3.95-1.38.49-11.35-2.63-11.35-2.63z" clip-path="url(#b)" fill="#FF7043" stroke="#E03B0E" stroke-linecap="round" stroke-linejoin="round" stroke-miterlimit="10" stroke-width="2"/><g clip-path="url(#b)"><path d="M49.17 109.53c-4 0-7.26-3.22-7.26-7.17v-8.98h16.16v8.98c0 3.95-3.26 7.17-7.26 7.17h-1.64z" fill="#E59600"/><path d="M57.08 94.37v7.98c0 3.4-2.81 6.17-6.26 6.17h-1.65c-3.45 0-6.26-2.77-6.26-6.17v-7.98h14.17m2-2H40.92v9.98c0 4.51 3.7 8.17 8.26 8.17h1.65c4.56 0 8.26-3.66 8.26-8.17v-9.98h-.01z" fill="#D18100"/></g><g clip-path="url(#b)"><path d="M49.17 109.53c-4 0-7.26-3.22-7.26-7.17v-8.98h16.17v8.98c0 3.95-3.26 7.17-7.26 7.17h-1.65z" fill="#99674F"/><path d="M57.08 94.37v7.98c0 3.4-2.81 6.17-6.26 6.17h-1.65c-3.45 0-6.26-2.77-6.26-6.17v-7.98h14.17m2-2H40.92v9.98c0 4.51 3.7 8.17 8.26 8.17h1.65c4.56 0 8.26-3.66 8.26-8.17v-9.98h-.01z" fill="#875740"/></g><g clip-path="url(#b)"><defs><path id="e" d="M4 1.75h96v106.3H4z"/></defs><clipPath id="f"><use xlink:href="#e"/></clipPath><g clip-path="url(#f)"><defs><path id="g" d="M14.9 37.45C14.9 20.5 30.68 7.6 47.63 7.6h4.93c16.95 0 32.54 12.9 32.54 29.85"/></defs><clipPath id="h"><use xlink:href="#g"/></clipPath><g clip-path="url(#h)"><radialGradient id="i" cx="55.683" cy="-123.08" r="48.206" gradientTransform="matrix(.796 0 0 .796 5.675 97.599)" gradientUnits="userSpaceOnUse"><stop stop-color="#6D4C41" offset="0"/><stop stop-color="#543930" offset="1"/></radialGradient><path d="M12.28 53.71h8.09c.42-3.61 1.65-7.29 5.03-8.05 22.36-5.02 35.01-16.89 35.01-16.89 3.29 7.19 13.58 14.19 17.27 16.86 1.71 1.24 2.32 4.65 2.52 8.08h7.57c.11-6.44.12-11.02.12-11.02S88.91 7.12 50.08 7.12 12.11 42.69 12.11 42.69s.03 4.58.17 11.02z" fill="url(#i)"/></g></g><g clip-path="url(#f)"><path d="M22.67 72.3c-5.36 0-9.71-4.67-9.71-10.41s4.36-10.41 9.71-10.41h54.65c5.36 0 9.71 4.67 9.71 10.41S82.67 72.3 77.32 72.3H22.67z" fill="#99674F"/><path d="M77.33 52.48c4.8 0 8.71 4.22 8.71 9.41s-3.91 9.41-8.71 9.41H22.67c-4.8 0-8.71-4.22-8.71-9.41s3.91-9.41 8.71-9.41h54.66m0-2H22.67c-5.89 0-10.71 5.14-10.71 11.41 0 6.28 4.82 11.41 10.71 11.41h54.65c5.89 0 10.71-5.14 10.71-11.41.01-6.28-4.81-11.41-10.7-11.41z" fill="#875740"/><linearGradient id="j" x1="50" x2="50" y1="94.638" y2="12.872" gradientUnits="userSpaceOnUse"><stop stop-color="#A47B62" offset="0"/><stop stop-color="#AD8264" offset=".191"/><stop stop-color="#B78A67" offset=".551"/><stop stop-color="#BA8D68" offset="1"/></linearGradient><path d="M50 95.32c-15.66 0-32.52-12.14-32.52-38.81 0-12.38 3.56-23.79 10.02-32.13 6.05-7.8 14.25-12.27 22.5-12.27s16.45 4.47 22.5 12.27c6.46 8.34 10.02 19.75 10.02 32.13 0 12.09-3.51 22.19-10.14 29.21-5.86 6.19-13.81 9.6-22.38 9.6z" fill="url(#j)"/><path d="M50 13.11c7.94 0 15.85 4.33 21.71 11.88 6.33 8.16 9.81 19.35 9.81 31.52 0 11.83-3.41 21.7-9.87 28.52-5.67 5.99-13.36 9.29-21.65 9.29s-15.98-3.3-21.65-9.29c-6.46-6.82-9.87-16.69-9.87-28.52 0-12.16 3.49-23.35 9.81-31.52C34.15 17.44 42.06 13.11 50 13.11m0-2c-17.4 0-33.52 18.61-33.52 45.39 0 26.64 16.61 39.81 33.52 39.81S83.52 83.14 83.52 56.5c0-26.78-16.12-45.39-33.52-45.39z" fill="#91674D"/><path d="M25.99 50.77s.13-.19.38-.51c.07-.08.12-.16.22-.26.11-.11.23-.22.37-.34s.28-.24.43-.38c.15-.13.31-.23.48-.35.17-.11.34-.24.53-.35.19-.1.4-.21.6-.32.21-.12.43-.21.66-.3s.47-.18.71-.27c.49-.14 1-.29 1.54-.36.53-.1 1.08-.11 1.63-.14.55.03 1.09.03 1.63.14.53.07 1.05.22 1.54.36.24.08.48.17.71.27.23.09.45.18.66.3.21.11.41.22.6.32.19.11.36.24.53.35.17.12.33.22.47.34s.27.24.4.35c.12.11.24.21.34.31s.18.21.26.29c.31.36.46.57.46.57.51.7.35 1.69-.36 2.19-.43.31-.96.37-1.43.21l-.29-.1s-.19-.07-.49-.2c-.08-.03-.15-.07-.25-.11-.1-.03-.19-.07-.3-.11-.21-.08-.44-.17-.7-.25-.13-.04-.26-.09-.4-.13-.14-.03-.28-.07-.43-.11l-.22-.06c-.08-.01-.15-.03-.23-.04-.16-.03-.31-.07-.47-.1-.33-.04-.66-.11-1-.12-.34-.04-.69-.03-1.03-.05-.35.02-.7.01-1.03.05-.34.02-.67.09-1 .12-.16.03-.31.07-.47.1-.08.01-.16.03-.23.04l-.22.06c-.15.04-.29.07-.43.11s-.27.09-.4.13-.25.08-.37.11c-.1.04-.2.07-.29.1l-.27.09c-.1.04-.2.1-.29.14-.36.18-.57.27-.57.27-.83.34-1.77-.05-2.11-.87-.24-.48-.16-1.05.13-1.49z" fill="#613E31"/><ellipse cx="34.19" cy="58.86" rx="4.93" ry="5.1" fill="#49362E"/><path d="M72.05 53.18s-.22-.09-.57-.27c-.09-.04-.19-.1-.29-.14-.09-.02-.18-.06-.27-.09s-.19-.07-.29-.1c-.12-.04-.24-.07-.37-.11s-.26-.09-.4-.13-.28-.07-.43-.11l-.22-.06c-.08-.01-.15-.03-.23-.04-.16-.03-.31-.07-.47-.1-.33-.04-.66-.11-1-.12-.34-.04-.69-.03-1.03-.05-.35.02-.7.01-1.03.05-.34.02-.67.09-1 .12-.16.03-.31.07-.47.1-.08.01-.16.03-.23.04l-.22.06c-.15.04-.29.08-.43.11-.14.04-.27.09-.4.13-.26.07-.49.16-.7.25-.11.04-.2.08-.3.11-.09.04-.17.08-.25.11-.3.13-.49.2-.49.2l-.28.1c-.82.29-1.72-.15-2-.97-.17-.5-.08-1.03.21-1.44 0 0 .16-.22.46-.57.08-.09.16-.19.26-.29s.22-.2.34-.31.26-.23.4-.35.31-.22.47-.34c.17-.12.34-.24.53-.35.19-.1.4-.21.6-.32.21-.12.43-.21.66-.3s.46-.18.71-.27c.49-.14 1-.29 1.54-.36.53-.1 1.08-.11 1.63-.14.55.03 1.09.03 1.63.14.53.06 1.05.22 1.54.36.24.08.48.17.71.27.23.09.45.18.66.3.21.11.41.22.6.32.19.11.36.24.53.35.17.12.32.22.48.35.15.13.3.26.43.38s.26.23.37.34c.09.1.15.18.22.26.25.31.38.51.38.51.5.74.31 1.74-.43 2.25-.49.28-1.07.31-1.56.12z" fill="#613E31"/><ellipse cx="65.33" cy="58.86" rx="4.93" ry="5.1" fill="#49362E"/><path d="M53.86 68.1c-.11-.04-.21-.07-.32-.08h-7.07c-.11.01-.22.04-.32.08-.64.26-.99.92-.69 1.63s1.71 2.69 4.55 2.69 4.25-1.99 4.55-2.69c.29-.7-.06-1.37-.7-1.63z" fill="#99674F"/><path d="M58.53 76.19c-3.19 1.89-13.63 1.89-16.81 0-1.83-1.09-3.7.58-2.94 2.24.75 1.63 6.45 5.42 11.37 5.42s10.55-3.79 11.3-5.42c.75-1.67-1.09-3.33-2.92-2.24z" fill="#5D4037"/><defs><path id="k" d="M50 4.08h-.04c-45.43.24-36.12 52.14-36.12 52.14s5.1 8.99 5.1 8.81c-.03-1.41.46-6.89.46-6.89l-2.68-2.92s3.89-25.44 6.79-24.91c4.45.81 26.54 2 26.57 2 7.83 0 14.92-.36 19.37-1.17 2.9-.53 9.64 1.7 10.68 4.45 1.33 3.54 3.13 19.71 3.13 19.71l-2.68 2.83s.49 5.51.46 6.89c0 .18 5.1-8.81 5.1-8.81S95.44 4.32 50 4.08z"/></defs><radialGradient id="l" cx="50.26" cy="4.32" r="48.85" gradientTransform="matrix(1 0 0 .9684 0 2.052)" gradientUnits="userSpaceOnUse"><stop stop-color="#6D4C41" offset="0"/><stop stop-color="#523329" offset="1"/></radialGradient><path d="M50.02 6h-.04c-45.43.24-36.13 50.49-36.13 50.49s5.1 8.7 5.1 8.53c-.16-7.02 2.74-19.45 4.8-24.75 1.04-2.67 3.9-4.22 6.79-3.71 4.45.78 11.55 1.75 19.37 1.75h.16c7.83 0 14.92-.97 19.37-1.75 2.9-.51 5.76 1.04 6.79 3.71 2.06 5.29 4.96 17.72 4.8 24.75 0 .17 5.1-8.53 5.1-8.53S95.45 6.24 50.02 6z" fill="url(#l)"/><path d="M50.02 6h-.04c-45.43.24-36.13 50.49-36.13 50.49s5 8.53 5.1 8.53c-.03-1.43.07-3.1.26-4.87-.12-.28-2.46-4.6-2.48-4.63-.24-1.55-.93-6.76-.55-13.14.41-6.82 2.17-16.42 8.22-23.46 5.67-6.59 14.27-9.96 25.56-10.02H50c11.32.06 19.93 3.43 25.6 10.02 10.81 12.55 8.18 33.24 7.67 36.59-.02.04-2.46 4.44-2.49 4.5.2 1.83.31 3.54.27 5 .1 0 5.1-8.53 5.1-8.53S95.45 6.24 50.02 6z" fill="#402821"/><path d="M78.7 21.68H21.3V6.34s7.49-2.28 28.78-2.28C63.23 4.06 78.7 6.5 78.7 6.5v15.18z" fill="#423F3E" opacity=".74"/></g></g><g clip-path="url(#b)"><linearGradient id="m" x1="10" x2="10" y1="28.952" y2="45.093" gradientUnits="userSpaceOnUse"><stop stop-color="#BDBDBD" offset="0"/><stop stop-color="#757575" offset="1"/></linearGradient><path d="M8 43.06c-1.65 0-3-1.35-3-3v-8c0-1.65 1.35-3 3-3h4c1.65 0 3 1.35 3 3v8c0 1.65-1.35 3-3 3H8z" fill="url(#m)"/><path d="M12 30.06c1.1 0 2 .9 2 2v8c0 1.1-.9 2-2 2H8c-1.1 0-2-.9-2-2v-8c0-1.1.9-2 2-2h4m0-2H8c-2.21 0-4 1.79-4 4v8c0 2.21 1.79 4 4 4h4c2.21 0 4-1.79 4-4v-8c0-2.21-1.79-4-4-4z" fill="#807978"/><linearGradient id="n" x1="90" x2="90" y1="28.952" y2="45.093" gradientUnits="userSpaceOnUse"><stop stop-color="#BDBDBD" offset="0"/><stop stop-color="#757575" offset="1"/></linearGradient><path d="M88 43.06c-1.65 0-3-1.35-3-3v-8c0-1.65 1.35-3 3-3h4c1.65 0 3 1.35 3 3v8c0 1.65-1.35 3-3 3h-4z" fill="url(#n)"/><path d="M92 30.06c1.1 0 2 .9 2 2v8c0 1.1-.9 2-2 2h-4c-1.1 0-2-.9-2-2v-8c0-1.1.9-2 2-2h4m0-2h-4c-2.21 0-4 1.79-4 4v8c0 2.21 1.79 4 4 4h4c2.21 0 4-1.79 4-4v-8c0-2.21-1.79-4-4-4z" fill="#807978"/><path d="M49.6 32.84c-13.33 0-31.05 6.41-39.1 10.97v9.88c7.55-6.43 22.78-11.47 39.1-11.47 16.5 0 29.01 6.27 39.82 11.62.05-2.14.36-10.2-.69-12.75-8.05-4.66-25.64-8.25-39.13-8.25z" fill="#807978"/><linearGradient id="o" x1="50" x2="50" y1="4.395" y2="51.564" gradientUnits="userSpaceOnUse"><stop stop-color="#BDBDBD" offset="0"/><stop stop-color="#757575" offset="1"/></linearGradient><path d="M89.96 31.59a9.535 9.535 0 0 0-.68-3.12l-7.8-19.35c-.58-1.18-1.64-2.18-3.03-3.04-.2-.13-.47.04-.47.29v9.07c0 .97-.77 1.75-1.73 1.75H23.76c-.96 0-1.73-.78-1.73-1.75V6.19c0-.18-.18-.29-.32-.2-1.46.88-2.57 1.91-3.17 3.13l-7.8 19.35c-.4.99-.63 2.05-.68 3.12L6 56.2s.02.15.08.38c.15.62.57 1.86 1.67 2.48 0 0 11.21-19.36 40.58-21.58 1.11-.08 2.23-.08 3.34 0 29.37 2.22 40.58 21.58 40.58 21.58 1.1-.62 1.52-1.86 1.67-2.48.06-.23.08-.38.08-.38l-4.04-24.61z" fill="url(#o)"/><g fill="#807978"><path d="M67.59 28.08c-.55 0-1-.34-1-.76v-4.7c0-.42.45-.76 1-.76s1 .34 1 .76v4.7c0 .42-.45.76-1 .76zM58.26 29.93c-.55 0-1-.34-1-.76v-8.4c0-.42.45-.76 1-.76s1 .34 1 .76v8.4c0 .42-.44.76-1 .76zM50 28.43c-.55 0-1-.34-1-.76v-5.4c0-.42.45-.76 1-.76s1 .34 1 .76v5.4c0 .42-.45.76-1 .76zM32.41 28.08c-.55 0-1-.34-1-.76v-4.7c0-.42.45-.76 1-.76s1 .34 1 .76v4.7c0 .42-.45.76-1 .76zM41.74 29.93c-.55 0-1-.34-1-.76v-8.4c0-.42.45-.76 1-.76s1 .34 1 .76v8.4c-.01.42-.45.76-1 .76z"/></g><g fill="#807978"><path d="M22.02 6.16c-.03-.11-.12-.19-.22-.19-.03 0-.07.01-.1.03-1.46.88-2.57 1.91-3.17 3.13l-7.8 19.35c-.4.99-.63 2.05-.68 3.12L6 56.2s.02.15.08.38c.15.62.58 1.86 1.67 2.48 0 0 .75-1.28 2.35-3.21.18-.22-.22-2.29-.31-4.21L13 32.08c.02-.11.03-.23.04-.34.04-.74.19-1.46.47-2.14l7.75-19.22c.16-.3.43-.6.76-.9V6.16zM89.96 31.59a9.535 9.535 0 0 0-.68-3.12l-7.8-19.35c-.58-1.18-1.64-2.18-3.03-3.04a.282.282 0 0 0-.15-.04c-.08 0-.24.03-.3.09v3.44c.28.27.61.54.75.8l7.75 19.22c.28.68.43 1.41.47 2.14.01.12.02.23.04.34l3.21 19.57c-.35-.37-.73-.76-1.13-1.15v4.38c2.17 2.47 3.17 4.18 3.17 4.18 1.1-.62 1.52-1.86 1.67-2.48.05-.22.07-.37.07-.37l-4.04-24.61z"/></g><linearGradient id="p" x1="50" x2="50" y1="33.302" y2="59.242" gradientUnits="userSpaceOnUse"><stop stop-color="#BDBDBD" offset="0"/><stop stop-color="#757575" offset="1"/></linearGradient><path d="M7.75 59.06S19.28 38.97 50 37.37c30.72 1.6 42.25 21.69 42.25 21.69 1.1-.62 1.52-1.86 1.67-2.48-2.9-5.7-12.64-17.79-36.45-22.74-3.44-.72-11.33-.72-14.77 0C18.89 38.79 8.97 50.88 6.08 56.58c.15.63.57 1.87 1.67 2.48z" fill="url(#p)"/></g><g clip-path="url(#b)"><path fill="#F5F5F5" d="M39.44 104.56h19.89l-9.32 26.05z"/><linearGradient id="q" x1="37.316" x2="37.316" y1="97.062" y2="125.17" gradientUnits="userSpaceOnUse"><stop stop-color="#1565C0" offset="0"/><stop stop-color="#0D47A1" offset=".682"/><stop stop-color="#0D47A1" offset="1"/></linearGradient><path d="M36.83 109.27a.999.999 0 0 0-1.2-.37l-8.55 3.37L33.8 97.8l6.36-.74 7.39 28.11-10.72-15.9z" fill="url(#q)"/><path d="M39.41 98.16l5.67 21.57-7.43-11.01a2.01 2.01 0 0 0-1.66-.88c-.25 0-.49.05-.73.14l-6.22 2.46 5.42-11.7 4.95-.58m1.5-2.19l-7.78.91-8 17.25 10.87-4.3 14.01 20.78-9.1-34.64z" fill="#004EA3"/><linearGradient id="r" x1="-575.32" x2="-575.32" y1="97.062" y2="125.63" gradientTransform="matrix(-1 0 0 1 -512.66 0)" gradientUnits="userSpaceOnUse"><stop stop-color="#1565C0" offset="0"/><stop stop-color="#0D47A1" offset=".682"/><stop stop-color="#0D47A1" offset="1"/></linearGradient><path d="M59.9 97.06l6.36.74 6.69 14.43-7.74-3.16a.986.986 0 0 0-.38-.07c-.31 0-.62.15-.81.42l-11.64 16.21 7.52-28.57z" fill="url(#r)"/><path d="M60.64 98.16l4.94.58 5.39 11.62-5.38-2.2c-.25-.1-.5-.15-.76-.15-.63 0-1.24.3-1.63.83l-8.48 11.82 5.92-22.5m-1.49-2.19l-9.11 34.64L64.83 110l10.1 4.12-8-17.25-7.78-.9z" fill="#004EA3"/></g></svg>