<svg viewBox="0 0 128 128" width="128" height="128" xmlns="http://www.w3.org/2000/svg" xmlns:xlink="http://www.w3.org/1999/xlink"><path d="M123.62 65.87s-12.89 37.5-59.54 37.5-59.54-37.5-59.54-37.5 13.75-41.24 59.54-41.24 59.54 41.24 59.54 41.24z" fill="#fff"/><defs><path id="a" d="M123.62 65.87s-12.89 37.5-59.54 37.5-59.54-37.5-59.54-37.5S11.63 56.36 13 53.7c5.18-10.07 23-25.17 51.08-26.33 25.4-1.06 45.08 15.06 51.25 26 2.16 3.81 8.29 12.5 8.29 12.5z"/></defs><clipPath id="b"><use xlink:href="#a"/></clipPath><g clip-path="url(#b)" opacity=".2"><path d="M64 22.7c33.03 0 51.32 27.85 56.13 36.38.93 1.65.15 4.38-.18 5.19l-.12.3c-.03.09-3.03 8.64-11.37 17.27C97.23 93.47 82.3 99.37 64.08 99.37c-18.08 0-32.93-5.81-44.14-17.28C12.21 74.18 8.92 66.13 8.4 64.77c-.48-2.42-.62-5.36-.3-6.15C12.43 50.19 29.26 22.7 64 22.7m0-4c-36.22 0-54.28 28.01-59.46 38.08-1.37 2.66 0 9.08 0 9.08s12.89 37.5 59.54 37.5 59.54-37.5 59.54-37.5 2.15-4.94 0-8.75C117.44 46.18 97.96 18.7 64 18.7z" fill="#424242"/></g><linearGradient id="c" x1="64" x2="64" y1="96.869" y2="34.869" gradientUnits="userSpaceOnUse"><stop stop-color="#B27E60" offset="0"/><stop stop-color="#AC795D" offset=".168"/><stop stop-color="#9B6D54" offset=".396"/><stop stop-color="#7E5846" offset=".658"/><stop stop-color="#573A32" offset=".944"/><stop stop-color="#4E342E" offset="1"/></linearGradient><circle cx="64" cy="65.87" r="31" fill="url(#c)"/><path d="M64 37.87c15.44 0 28 12.56 28 28s-12.56 28-28 28-28-12.56-28-28 12.56-28 28-28m0-3c-17.12 0-31 13.88-31 31s13.88 31 31 31 31-13.88 31-31-13.88-31-31-31z" fill="#424242" opacity=".2"/><circle cx="64" cy="65.87" r="14.43" fill="#212121"/><circle cx="47.16" cy="55.44" r="7.22" fill="#eee"/><path d="M123.36 64.53c-4.08-10.3-20.73-39.86-58.92-39.9h-.08c-.12 0-.24.01-.36.01s-.24-.01-.36-.01h-.08c-38.18.04-54.84 29.6-58.92 39.9-.09.24-.35 1.16-.31 1.72.03.36.07.44.2.61s.52.14.85-.28c8.72-11.09 26.46-33.2 58.22-33.21.13 0 .26.01.4.01.13 0 .26-.01.4-.01 31.76.02 49.5 22.12 58.22 33.21.33.42.73.45.85.28s.17-.24.2-.61c.04-.55-.22-1.48-.31-1.72z" fill="#424242"/><defs><path id="d" d="M123.36 64.53c-4.08-10.3-20.73-39.86-58.92-39.9h-.08c-.12 0-.24.01-.36.01s-.24-.01-.36-.01h-.08c-38.18.04-54.84 29.6-58.92 39.9-.09.24-.35 1.16-.31 1.72.03.36.07.44.2.61s.52.14.85-.28c8.72-11.09 26.46-33.2 58.22-33.21.13 0 .26.01.4.01.13 0 .26-.01.4-.01 31.76.02 49.5 22.12 58.22 33.21.33.42.73.45.85.28s.17-.24.2-.61c.04-.55-.22-1.48-.31-1.72z"/></defs><clipPath id="e"><use xlink:href="#d"/></clipPath><g clip-path="url(#e)" opacity=".2"><path d="M63.61 28.63H63.68c.1 0 .2.01.34.01.1 0 .2 0 .3-.01H64.43c15.39.02 28.7 5.08 39.54 15.05 9.16 8.42 13.74 17.78 15.32 21.5-6.13 5.1-31.43 24.69-57.55 24.69-.25 0-.25 0-11.24 1.01-4.61.43-9.79.9-10.73.99C15.06 91.8 9.6 72.36 8.51 66.39c-.03-.15-.06-.31-.11-.5 1.23-3.07 5.8-13.19 15.61-22.21 10.85-9.97 24.15-15.03 39.54-15.05h.06m.83-4h-.08c-.12 0-.24.01-.36.01s-.24-.01-.36-.01h-.08c-38.18.04-54.84 29.6-58.92 39.9-.09.24-.35 1.16-.31 1.72.03.36.07.44.2.61.12.17 3.65 29.01 35.39 29.01h.03c.13 0 21.67-2 21.81-2h.03c31.75 0 61.57-26.84 61.69-27.01s.17-.24.2-.61c.04-.56-.22-1.49-.31-1.72-4.09-10.3-20.75-39.85-58.93-39.9z" fill="#424242"/></g></svg>