<svg viewBox="0 0 128 128" width="128" height="128" xmlns="http://www.w3.org/2000/svg" xmlns:xlink="http://www.w3.org/1999/xlink"><defs><path id="a" d="M4 4h121.66v120.02H4z"/></defs><clipPath id="b"><use xlink:href="#a"/></clipPath><g clip-path="url(#b)"><linearGradient id="c" x1="57.55" x2="57.55" y1="33.767" y2="88.756" gradientUnits="userSpaceOnUse"><stop stop-color="#8D6E63" offset=".003"/><stop stop-color="#6D4C41" offset="1"/></linearGradient><path d="M22.6 137c-5.55 0-10.27-4.97-10.51-11.08L6.51 34.35c-.16-3.74 1.11-7.32 3.48-9.79 1.89-1.97 4.34-3.06 6.91-3.06h81.3c2.56 0 5.02 1.09 6.91 3.06 2.37 2.47 3.64 6.05 3.48 9.82l-5.57 91.52c-.25 6.13-4.97 11.1-10.52 11.1H22.6z" fill="url(#c)"/><path d="M98.2 23c2.76 0 4.69 1.41 5.83 2.6 2.08 2.17 3.2 5.34 3.06 8.69l-5.57 91.52v.06c-.21 5.31-4.26 9.64-9.02 9.64H22.6c-4.76 0-8.8-4.32-9.02-9.64v-.06L8.01 34.29c-.14-3.35.98-6.52 3.06-8.69 1.14-1.18 3.07-2.6 5.83-2.6h81.3m0-3H16.9c-6.87 0-12.22 6.54-11.88 14.44l5.57 91.55c.28 6.91 5.68 12.51 12.01 12.51h69.9c6.33 0 11.73-5.6 12.01-12.51l5.57-91.55c.34-7.9-5.01-14.44-11.88-14.44z" fill="#6D4C41"/><radialGradient id="d" cx="103.78" cy="-33.391" r="57.903" gradientTransform="matrix(.826 0 0 .826 -35.461 19.85)" gradientUnits="userSpaceOnUse"><stop stop-color="#BFA055" offset="0"/><stop stop-color="#AB872F" offset="1"/></radialGradient><path d="M33.03 119.76s-6.8-.35-10.21-5.09C15.46 104.44 11.4 78.86 11.4 42.65c0-1.66.26-16.41 10.66-26.83 6.75-6.77 16.35-10.2 28.52-10.2C62.66 5.62 72.1 9 78.63 15.67c9.82 10.02 10.04 24.16 9.99 26.89 0 36.31-4.06 61.89-11.42 72.12-3.33 4.62-9.8 5.06-10.25 5.09l-16.93-.03-16.99.02z" fill="url(#d)"/><path d="M50.58 7.12c11.66 0 20.74 3.23 26.98 9.59 9.6 9.8 9.59 24.2 9.56 25.81v.12c0 35.9-3.96 61.17-11.14 71.15-2.84 3.94-8.55 4.43-9.08 4.46l-16.9-.02-16.88.03c-.58-.04-6.25-.54-9.08-4.46-7.18-9.98-11.14-35.24-11.14-71.17 0-.63.08-15.58 10.22-25.75 6.46-6.47 15.7-9.76 27.46-9.76m0-3C9.57 4.12 9.9 42.04 9.9 42.65c0 24.56 1.88 59.25 11.71 72.9 3.9 5.41 11.43 5.71 11.43 5.71l16.97-.03 16.97.03s7.53-.3 11.43-5.71c9.83-13.65 11.71-48.34 11.71-72.9-.01-.61 1.47-38.53-39.54-38.53z" fill="#8F7635"/><defs><path id="e" d="M4.5 3.5h119V124H4.5z"/></defs><path d="M103.5 127c-.09 0-.19 0-.29-.01l-1.06-.11a2.75 2.75 0 0 1-1.9-1.05c-.46-.6-.66-1.35-.54-2.1l5.07-27.53c.06-.39.08-.76.05-1.12l-.67-8.86c-.04-.47.03-.81.21-1 .16-.18.57-.39 1.57-.39.34 0 .7.02 1.08.06 1.73.18 2.32.55 2.51.83.15.22.15.57.02 1.04l-2.46 8.54c-.1.35-.16.71-.18 1.08l-.66 28.04a2.765 2.765 0 0 1-2.75 2.58z" fill="#DD8A3E"/><path d="M105.93 85.83c.28 0 .6.02.98.06 1.07.11 1.54.28 1.72.37-.01.05-.02.13-.05.23l-2.46 8.54c-.12.42-.2.86-.22 1.3v.05l-.66 27.98a1.75 1.75 0 0 1-1.74 1.64c-.06 0-.12 0-.18-.01l-1.06-.11c-.48-.05-.91-.29-1.21-.67-.29-.38-.41-.84-.35-1.31l5.06-27.53c0-.02.01-.04.01-.05.07-.44.09-.88.05-1.32l-.67-8.86a.862.862 0 0 1 0-.23c.13-.04.37-.08.78-.08m0-2c-1.72 0-2.92.54-2.77 2.46l.67 8.86c.02.29.01.58-.03.86l-5.07 27.56a3.736 3.736 0 0 0 3.32 4.3l1.06.11c.13.01.26.02.39.02 1.97 0 3.64-1.55 3.74-3.56l.66-28.01c.01-.29.06-.57.14-.85l2.46-8.54c.65-2.24-1.06-2.9-3.38-3.14-.42-.05-.82-.07-1.19-.07z" fill="#B2713B"/><path d="M108.39 83.32c-.07 0-.15 0-.22-.01l-2.34-.24c-.56-.06-1.07-.33-1.43-.78s-.53-1-.47-1.56l.06-.56a2.15 2.15 0 0 1 2.34-1.91l2.34.24c.56.06 1.07.33 1.44.78.36.44.53 1 .47 1.56l-.06.57c-.12 1.06-1.05 1.91-2.13 1.91z" fill="#DD8A3E"/><path d="M106.1 79.24c.04 0 .08 0 .12.01l2.34.24c.61.06 1.08.63 1.01 1.25l-.06.56c-.06.57-.55 1.02-1.13 1.02-.04 0-.08 0-.12-.01l-2.34-.24c-.61-.06-1.08-.63-1.01-1.25l.06-.56c.06-.57.56-1.02 1.13-1.02m0-2c-1.58 0-2.95 1.21-3.12 2.82l-.06.56a3.14 3.14 0 0 0 2.8 3.44l2.34.24c.11.01.21.02.32.02 1.58 0 2.95-1.21 3.12-2.81l.06-.56a3.14 3.14 0 0 0-2.8-3.44l-2.34-.24c-.1-.02-.21-.03-.32-.03z" fill="#B2713B"/><path fill="#995F33" d="M96.883 74.051l1.27-12.385 23.508 2.412-1.271 12.386z"/><path d="M112.42 76.98l-9.62-.99a2.501 2.501 0 0 1-2.23-2.74l1.04-10.16a2.501 2.501 0 0 1 2.74-2.23l9.62.99c1.37.14 2.37 1.37 2.23 2.74l-1.04 10.16a2.507 2.507 0 0 1-2.74 2.23zM99.35 67.99c.59-5.76.62-7.94-1.62-8.17s-4.42 3.13-4.87 7.51 1 8.11 3.24 8.34 2.66-1.92 3.25-7.68zM117.42 69.85c.59-5.76 1.01-7.9 3.25-7.67s3.69 3.96 3.24 8.34-2.63 7.74-4.87 7.51-2.21-2.42-1.62-8.18z" fill="#DD8A3E" stroke="#B2713B" stroke-linecap="round" stroke-linejoin="round" stroke-miterlimit="10" stroke-width="2"/><linearGradient id="f" x1="50" x2="50" y1="97.5" y2="130.5" gradientUnits="userSpaceOnUse"><stop stop-color="#616161" offset=".003"/><stop stop-color="#545454" offset=".277"/><stop stop-color="#323232" offset=".783"/><stop stop-color="#212121" offset="1"/></linearGradient><path d="M-.5 130.5v-9.51C-.5 103.7 26.71 97.53 50 97.5h.14c13.39 0 25.82 2.15 35.01 6.05 7 2.98 15.35 8.42 15.35 17.44v9.51H-.5z" fill="url(#f)"/><path d="M50.14 99C74.42 99 99 106.55 99 120.99V129H1v-8.01c0-6.95 4.88-12.47 14.52-16.42C24.26 100.99 36.51 99.02 50 99h.14m0-3H50c-25.65.03-52 7.1-52 24.99V132h104v-11.01C102 104.13 75.9 96 50.14 96z" fill="#404042"/><path d="M90.8 104.77c-1.2 1.26-3.41 3.33-6.78 5.49-.32.11-5.23 3.04-12.05 5.56-3.21 1.19-13.11 3.08-21.95 2.88-15.88-.38-27.44-5.31-34.09-8.77-2.51-1.3-5.48-3.91-7.05-5.38l-1.93 1.26c1.24 1.21 3.67 3.34 7.45 5.61-4.85 5.32-5.65 12.89-5.68 13.24l1.99.19c.01-.08.79-7.56 5.46-12.41 2.61 1.44 5.76 2.88 9.48 4.16-2.4 3.77-2.44 7.48-2.44 7.66h2c0-.04.04-3.59 2.42-7.02 6.03 1.86 13.43 3.24 22.35 3.45.69.02 1.37.02 2.04.02 8.08 0 14.81-1.17 20.34-2.86 1.97 3.21 2.01 6.37 2.01 6.4h2c0-.17-.04-3.49-2.07-7.04 3.75-1.3 6.89-2.83 9.47-4.38 4.34 4.84 5.09 11.93 5.1 12.01l1.99-.19c-.03-.34-.79-7.6-5.37-12.9 3.6-2.37 5.9-4.64 7.07-5.93l-1.76-1.05z" fill="#fff" opacity=".19"/><path d="M49.17 107.23c-4 0-7.26-3.22-7.26-7.17v-8.98h16.16v8.98c0 3.96-3.26 7.17-7.26 7.17h-1.64z" fill="#C48E6A"/><path d="M57.08 92.08v7.98c0 3.4-2.81 6.17-6.26 6.17h-1.65c-3.45 0-6.26-2.77-6.26-6.17v-7.98h14.17m2-2H40.92v9.98c0 4.51 3.7 8.17 8.26 8.17h1.65c4.56 0 8.26-3.66 8.26-8.17v-9.98h-.01z" fill="#B07853"/><defs><path id="g" d="M-6 120.99V132h112v-11.01C106 104.1 77.8 95.97 50 96c-27.62.03-56 7.1-56 24.99z"/></defs><clipPath id="h"><use xlink:href="#g"/></clipPath><g clip-path="url(#h)"><defs><path id="i" d="M64.56 96.37s-8.62-1.05-9.12-1.05L50 94.69l-5.44.62c-.5 0-9.12 1.05-9.12 1.05C36.5 111.12 50 118.25 50 118.25s12.88-6.81 14.56-21.88z"/></defs><clipPath id="j"><use xlink:href="#i"/></clipPath><path d="M35.69 109.12c2.17 3.67 8.58 10.19 14.31 13.75 0 0 14.26-9.7 12.81-14.25 0 0-13.3-3.3-12.81-2.62l-14.31 3.12z" clip-path="url(#j)" fill="#D8D8D8"/><g clip-path="url(#j)"><path d="M40.76 95.84S42.13 100.19 50 106l-8.93 8.62c-7-7.94-6.12-18.26-6.12-18.26l5.81-.52z" fill="#fff"/></g><g clip-path="url(#j)"><path d="M59.23 95.84s-1.37 4.35-9.24 10.16l8.93 8.62c7-7.94 6.12-18.26 6.12-18.26l-5.81-.52z" fill="#fff"/></g></g><linearGradient id="k" x1="50.01" x2="50.01" y1="94.708" y2="17.885" gradientUnits="userSpaceOnUse"><stop stop-color="#CCA47A" offset=".002"/><stop stop-color="#D6B088" offset=".258"/><stop stop-color="#DEB892" offset=".59"/><stop stop-color="#E0BB95" offset="1"/></linearGradient><path d="M50.01 95.27c-2.3 0-4.91-.5-7.56-1.43-11.34-4.01-24.57-16.34-24.57-37.89 0-28.72 17.31-38.91 32.13-38.91s32.13 10.19 32.13 38.91c0 21.58-13.26 33.9-24.61 37.9-2.63.93-5.23 1.42-7.52 1.42z" fill="url(#k)"/><path d="M50.01 18.04c8.41 0 16.06 3.25 21.55 9.15 6.27 6.73 9.58 16.68 9.58 28.77 0 21.06-12.9 33.07-23.94 36.96-2.53.89-5.01 1.36-7.19 1.36-2.19 0-4.69-.48-7.23-1.38-11.03-3.9-23.9-15.92-23.9-36.94 0-12.09 3.31-22.03 9.58-28.77 5.49-5.9 13.14-9.15 21.55-9.15m0-2c-17.2 0-33.13 12.79-33.13 39.91 0 21.79 13.49 34.67 25.23 38.83 2.8.99 5.5 1.49 7.9 1.49 2.38 0 5.07-.49 7.85-1.47 11.76-4.14 25.28-17.03 25.28-38.84 0-27.13-15.93-39.92-33.13-39.92z" fill="#BA8F63"/><defs><path id="l" d="M16.42 88.85l-1.5-51.44c0-16.95 15.78-29.85 32.73-29.85h4.93c16.95 0 32.54 12.9 32.54 29.85l-1.5 51.18-67.2.26z"/></defs><clipPath id="m"><use xlink:href="#l"/></clipPath><radialGradient id="n" cx="127.81" cy="-24.542" r="48.206" gradientTransform="matrix(.796 0 0 .796 -51.73 19.115)" gradientUnits="userSpaceOnUse"><stop stop-color="#BFA055" offset="0"/><stop stop-color="#AB872F" offset="1"/></radialGradient><path d="M87.9 42.65S88.92 7.08 50.09 7.08 12.12 42.65 12.12 42.65s.33 45.48 3.2 51.39 7.2 5.71 7.2 5.71-2.03-26.54-2.26-39.04c-.06-2.92-.94-13.73 5.16-15.09 22.36-5.02 35.01-16.89 35.01-16.89 3.28 7.19 13.57 14.2 17.26 16.86 3.03 2.19 2.61 11.2 2.55 15.03L77.2 99.68s4.68.37 7.65-5.64c2.96-6.02 3.05-51.39 3.05-51.39z" clip-path="url(#m)" fill="url(#n)"/><ellipse cx="33.76" cy="58.87" rx="4.87" ry="5.04" fill="#5D4037"/><ellipse cx="66.26" cy="58.87" rx="4.87" ry="5.04" fill="#5D4037"/><path d="M40.99 49.82c-.93-1.23-3.07-3.01-7.23-3.01s-6.31 1.79-7.23 3.01c-.41.54-.31 1.17-.02 1.55.26.35 1.04.68 1.9.39s2.54-1.16 5.35-1.18c2.81.02 4.49.89 5.35 1.18s1.64-.03 1.9-.39c.29-.38.39-1.01-.02-1.55zM73.49 49.82c-.93-1.23-3.07-3.01-7.23-3.01s-6.31 1.79-7.23 3.01c-.41.54-.31 1.17-.02 1.55.26.35 1.04.68 1.9.39s2.54-1.16 5.35-1.18c2.81.02 4.49.89 5.35 1.18s1.64-.03 1.9-.39c.29-.38.39-1.01-.02-1.55z" fill="#AB872F"/><path d="M57.78 77.88H42.24c-3.31 0-2.72 1.94-1.12 2.62 2.51 1.07 6.06 1.36 8.87 1.37h.04c2.81-.01 6.36-.3 8.87-1.37 1.6-.68 2.19-2.62-1.12-2.62z" fill="#6D4C41"/><path d="M53.82 68.05c-.1-.04-.21-.07-.32-.08h-6.99c-.11.01-.21.04-.32.08-.63.26-.98.91-.68 1.61s1.69 2.66 4.49 2.66 4.19-1.96 4.49-2.66c.31-.69-.03-1.35-.67-1.61z" fill="#C48E6A"/><path d="M110.55 122.65l-7.17.5c-6.28 0-10.88-3.2-10.83-10.74.12-16.37 18.4-12.86 20.55-7.77 3.22 7.62.26 18.01-2.55 18.01z" fill="#E0BB95" stroke="#BA8F63" stroke-linecap="round" stroke-linejoin="round" stroke-miterlimit="10" stroke-width="1.937"/><path d="M103.68 119.93a2.796 2.796 0 0 0 2.63 2.95l3.93.22a2.796 2.796 0 0 0 .32-5.58l-3.93-.22a2.77 2.77 0 0 0-2.95 2.63z" fill="#E0BB95" stroke="#BA8F63" stroke-linecap="round" stroke-linejoin="round" stroke-miterlimit="10" stroke-width="1.669"/><path d="M104.35 115.84a2.818 2.818 0 0 0 2.67 2.96l5.16.27a2.818 2.818 0 1 0 .29-5.63l-5.16-.27a2.818 2.818 0 0 0-2.96 2.67z" fill="#E0BB95" stroke="#BA8F63" stroke-linecap="round" stroke-linejoin="round" stroke-miterlimit="10" stroke-width="1.937"/><path d="M104.19 111.98c0 1.52 1.23 2.75 2.75 2.75h6.27c1.52 0 2.75-1.23 2.75-2.75s-1.23-2.75-2.75-2.75h-6.27c-1.51 0-2.75 1.23-2.75 2.75z" fill="#E0BB95" stroke="#BA8F63" stroke-linecap="round" stroke-linejoin="round" stroke-miterlimit="10" stroke-width="1.937"/><path d="M103.63 107.09a2.753 2.753 0 0 0 2.9 2.6l6.26-.34a2.753 2.753 0 0 0 2.6-2.9 2.753 2.753 0 0 0-2.9-2.6l-6.26.34a2.765 2.765 0 0 0-2.6 2.9z" fill="#E0BB95" stroke="#BA8F63" stroke-linecap="round" stroke-linejoin="round" stroke-miterlimit="10" stroke-width="1.937"/><path d="M112.55 100c-.7-.1-3.18-.63-4.79-.83-.61-.07-2.23-.2-2.84-.15-1.95.16-7.93 3.06-9.23 4.64-.64.77-.98 1.68-1.06 2.59.31-.4-2.98 8.79 5.6 6.31 3.61-.84 2.19-5.14 3.28-6.49.83-1.03 2.17-2.56 6.75-1.5 1.28.3 3.4.07 4.08-.95 1.18-1.78.26-3.32-1.79-3.62z" fill="#E0BB95"/><path d="M115.82 100.93c-.44-.97-1.48-1.64-2.86-1.83-.24-.03-.68-.11-1.22-.21-1.08-.2-2.56-.47-3.67-.59-.57-.07-2.3-.21-3.06-.15-5.94.47-8.48 2.74-10.03 4.9-1.02 1.41-.51 3.69-.24 3.22.53-.91 3.06-3.67 5.42-4.86 2.08-1.04 3.32-1.42 5-1.56.52-.04 2.05.07 2.69.14 1.05.12 2.5.39 3.55.58.57.1 1.04.19 1.29.22.76.11 1.31.41 1.5.84.17.37.23 1.1-.14 1.63-.38.55-2.26.89-3.44.62-1.67-.37-3.47-.88-5.13-.32-1.25.42-2.69 1.4-3.08 2.66-.38 1.23.35 4.25-1.35 6.28-.7.83-2.63 1.97-2.63 1.97s2.26.26 3.42-.57c1.65-1.17 2.27-3.5 2.43-5.33.07-.82-.1-2.24.12-2.51.7-.85 1.48-2.07 5.68-1.13 1.45.33 4.27.5 5.27-.94.74-1.06.9-2.14.48-3.06z" fill="#BA8F63"/></g></svg>