<svg viewBox="0 0 128 128" width="128" height="128" xmlns="http://www.w3.org/2000/svg"><radialGradient id="a" cx="64.321" cy="24.778" r="65.427" gradientTransform="matrix(1 0 0 1.0362 0 -4.503)" gradientUnits="userSpaceOnUse"><stop stop-color="#FCE4EC" offset=".474"/><stop stop-color="#F8BBD0" offset=".889"/></radialGradient><path d="M100.13 5.59C80.36-1.9 64.26 15.75 64.26 15.75S48.85-.91 28.75 5.55C-2.74 15.66-.2 56.08 15.3 76.85c14.83 19.87 45.4 45.22 48.4 47.25v.13c0 .02.29.03.29.03s.16-.03.2-.06c.04.03-.23.06-.23.06s-.26-.01-.26-.03v-.13c4-2.02 34.02-28.94 48.85-48.81 15.51-20.78 18.22-58.08-12.42-69.7z" fill="url(#a)"/><radialGradient id="b" cx="64.245" cy="-3.259" r="69.522" gradientUnits="userSpaceOnUse"><stop stop-color="#F8BBD0" offset=".477"/><stop stop-color="#FF80AB" offset=".913"/></radialGradient><path d="M94.67 20.26c-16.78-6.14-30.45 9.32-30.45 9.32s-13.08-14.64-30.14-9.35C7.35 28.5 9.51 61.61 22.67 78.63c12.59 16.28 38.53 37.05 41.08 38.7v.1c0 .02.25.02.25.02s.13-.02.17-.05c.03.02-.2.05-.2.05s-.22-.01-.22-.02v-.1c3.4-1.66 28.88-23.71 41.47-39.99 13.15-17.01 15.45-47.57-10.55-57.08z" fill="url(#b)"/><radialGradient id="c" cx="64.213" cy="45.867" r="43.302" gradientUnits="userSpaceOnUse"><stop stop-color="#FF80AB" offset=".48"/><stop stop-color="#FF4081" offset=".914"/></radialGradient><path d="M87.96 35.74C74.85 30.94 64.17 45 64.17 45s-10.22-13.43-23.55-9.29c-20.88 6.47-19.19 32.33-8.91 45.63 9.83 12.72 30.1 28.94 32.09 30.23v.08c0 .01.19.02.19.02s.1-.02.13-.04c.03.02-.15.04-.15.04s-.17-.01-.17-.02v-.08c2.65-1.3 22.56-18.52 32.39-31.24 10.28-13.29 12.08-37.16-8.23-44.59z" fill="url(#c)"/><path d="M82.41 37.74c1.52 0 3.04.27 4.52.81 6.68 2.44 11 6.9 12.83 13.25 2.39 8.29.01 19.02-5.93 26.7-8.57 11.09-24.7 25.42-29.93 29.4-5.27-4.11-21.53-17.7-29.8-28.4-6.07-7.85-8.38-19.45-5.61-28.22 2.02-6.38 6.4-10.66 13.04-12.71 1.4-.43 2.84-.66 4.26-.66 9.07 0 15.95 8.82 16.01 8.9l2.39 3.14 2.39-3.14c.05-.08 6.98-9.07 15.83-9.07m0-3C71.96 34.74 64.17 45 64.17 45s-7.67-10.08-18.4-10.08c-1.65 0-3.37.24-5.15.79-20.88 6.47-19.19 32.33-8.91 45.63 9.83 12.72 30.1 28.94 32.09 30.23v.08-.08c2.65-1.3 22.56-18.52 32.39-31.24 10.28-13.3 12.08-37.17-8.24-44.6-1.9-.69-3.76-.99-5.54-.99zm-18.28 76.89c-.02.01-.06.02-.09.03.04 0 .1-.01.09-.03zm-.33.02c0 .01.17.02.17.02h.01c-.05 0-.18-.01-.18-.02zm.23.01c-.02 0-.05.01-.06.01h.02s.02 0 .04-.01z" opacity=".2"/></svg>