<svg viewBox="0 0 128 128" width="128" height="128" xmlns="http://www.w3.org/2000/svg"><path d="M109.07 76.57c.02.04.05.08.07.12l-.01.01c-.02-.04-.04-.08-.06-.13z" fill="#EF9A9A"/><path d="M116.61 75.73c.03.05.06.1.08.16l-.01.01c-.02-.06-.05-.11-.07-.17z" fill="#EF5350"/><path d="M44.51 19.77c.81.31.55 1.52-.32 1.46-4.19-.26-13.38-.57-21.73 4.28C13 31 7.83 38.39 5.45 42.41c-.44.74-1.57.28-1.39-.56 1.07-4.95 3.07-13.6 15.42-20.45C31 15 39.83 17.95 44.51 19.77z" fill="#FF4081"/><path d="M33.27 10.77c.72.2.58 1.26-.17 1.27-3.37.06-10.1.96-15.62 3.59C10.96 18.75 7.17 23.78 5.2 26.5c-.4.56-1.29.17-1.16-.51.72-3.56 3.03-9.75 10.44-13.69 6.49-3.45 14.88-2.64 18.79-1.53z" fill="#FF80AB"/><path d="M23.15 4.14c.79.16.73 1.3-.06 1.4-2.68.32-7.42 1.08-11 2.83C8.76 10 6.3 12.22 4.7 13.96c-.54.59-1.48-.01-1.18-.75 1.09-2.7 3.5-5.78 7.53-8.02C15 3 20.38 3.59 23.15 4.14z" fill="#FF9FC4"/><path d="M82.95 19.77c-.81.31-.55 1.52.32 1.46 4.19-.26 13.38-.57 21.73 4.28 9.46 5.49 14.63 12.88 17.02 16.9.44.74 1.57.28 1.39-.56-1.07-4.95-3.07-13.6-15.42-20.45-11.53-6.4-20.36-3.45-25.04-1.63z" fill="#FF4081"/><path d="M94.19 10.77c-.72.2-.58 1.26.17 1.27 3.36.06 10.1.96 15.61 3.6 6.52 3.11 10.31 8.14 12.29 10.86.4.56 1.29.17 1.16-.51-.72-3.56-3.03-9.75-10.44-13.69-6.49-3.45-14.88-2.64-18.79-1.53z" fill="#FF80AB"/><path d="M104.31 4.14c-.79.16-.73 1.3.06 1.4 2.68.32 7.42 1.08 11 2.83 3.33 1.63 5.79 3.85 7.39 5.59.54.59 1.48-.01 1.18-.75-1.09-2.7-3.5-5.78-7.53-8.02-3.95-2.19-9.33-1.6-12.1-1.05z" fill="#FF9FC4"/><radialGradient id="a" cx="63.568" cy="19.456" r="66.227" gradientTransform="matrix(.9985 0 0 .9337 .099 4.247)" gradientUnits="userSpaceOnUse"><stop stop-color="#FF80AB" offset=".472"/><stop stop-color="#FF4081" offset="1"/></radialGradient><path d="M89.9 29c-18.92 0-25.87 22.62-25.87 22.62S57.17 29 38.12 29C23.8 29 7.47 40.35 13.5 66.14s50.35 57.8 50.35 57.8.23-.09.23-.23c0 .14.15.21.15.21s44.24-31.98 50.27-57.77C120.53 40.35 104.22 29 89.9 29z" fill="url(#a)"/><path d="M89.9 32c7.16 0 13.9 3.11 18.02 8.31 4.81 6.07 6.08 14.77 3.65 25.15-5.08 21.74-39.74 48.96-47.55 54.87-7.87-5.94-42.52-33.14-47.6-54.87-2.42-10.38-1.16-19.07 3.66-25.14C24.21 35.11 30.95 32 38.12 32c16.57 0 22.98 20.29 23.04 20.49L64 61.84l2.9-9.33c.06-.21 6.56-20.51 23-20.51m0-3c-18.92 0-25.87 22.62-25.87 22.62S57.17 29 38.12 29C23.8 29 7.47 40.35 13.5 66.14s50.35 57.8 50.35 57.8.23-.09.23-.23c0 .14.15.21.15.21s44.24-31.98 50.27-57.77C120.53 40.35 104.22 29 89.9 29z" fill="#424242" opacity=".2"/></svg>