<svg viewBox="0 0 128 128" width="128" height="128" xmlns="http://www.w3.org/2000/svg" xmlns:xlink="http://www.w3.org/1999/xlink"><defs><path id="a" d="M4 4h120v120H4z"/></defs><clipPath id="b"><use xlink:href="#a"/></clipPath><g clip-path="url(#b)"><linearGradient id="c" x1="48" x2="48" y1="97.5" y2="130.5" gradientUnits="userSpaceOnUse"><stop stop-color="#F78C1F" offset="0"/><stop stop-color="#F37F20" offset=".494"/><stop stop-color="#ED6D23" offset="1"/></linearGradient><path d="M1.5 130.5v-9.38c0-16.28 23.54-23.6 46.87-23.62h.12c22.87 0 46.01 8.12 46.01 23.62v9.38h-93z" fill="url(#c)"/><path d="M48.49 99C70.61 99 93 106.6 93 121.12V129H3v-7.88C3 105.88 25.79 99.03 48.37 99h.12m0-3h-.12C24.44 96.03 0 103.46 0 121.12V132h96v-10.88C96 104.47 72.52 96 48.49 96z" fill="#DA6727"/><path d="M47.19 103.1c-4 0-7.26-3.22-7.26-7.17v-8.98H56.1v8.98c0 3.95-3.26 7.17-7.26 7.17h-1.65z" fill="#E59600"/><path d="M55.1 87.95v7.98c0 3.4-2.81 6.17-6.26 6.17h-1.65c-3.45 0-6.26-2.77-6.26-6.17v-7.98H55.1m2-2H38.94v9.98c0 4.51 3.7 8.17 8.26 8.17h1.65c4.56 0 8.26-3.66 8.26-8.17v-9.98h-.01z" fill="#D18100"/><path d="M77.63 87.11c.53-.58 1.11-1.11 1.91-1.13 1.32-.03 3.36-.25 4.97-1.22.47-.28.87-.67 1.17-1.14-1.13-.23-2.68-.89-3.73-2.93-1.6-3.1.25-5.95 3.32-9.12 3.46-3.57 9.21-15.82 3.1-26.74-1.15-.17-17.81.08-22.03.08H48.35v49.71c19.77 0 23.67-1.29 29.28-7.51zM19.07 87.11c-.53-.58-1.11-1.11-1.91-1.13-1.32-.03-3.36-.25-4.97-1.22a3.54 3.54 0 0 1-1.17-1.14c1.13-.23 2.75-.86 3.73-2.93 1.6-3.35-.67-6.33-3.32-9.12C7.1 67 2.23 55.75 8.33 44.83c1.15-.17 17.81.08 22.03.08h17.99v49.71c-19.76 0-23.66-1.29-29.28-7.51z" fill="#543930"/><path d="M87.13 46.67l.26.5c5.42 10.4-.55 20.63-3.19 23.36-2.96 3.05-5.7 6.73-3.58 10.85.55 1.07 1.27 1.93 2.13 2.56-1.18.42-2.47.52-3.24.54-1.56.04-2.56 1.15-2.99 1.63-3.4 3.77-6.17 5.61-13.29 6.43 0 0-3.65 1.72-6.21 2.36l.09 1.12c12.46-.45 16.55-2.25 21.64-7.9.39-.44.65-.63.83-.64 1.58-.04 3.84-.32 5.7-1.43.67-.4 1.24-.96 1.67-1.63l1.17-1.85-2.14-.43c-1.19-.24-2.07-.94-2.69-2.14-1.04-2.01-.2-4.01 3.07-7.39 4.05-4.18 9.28-14.94 3.97-25.89 0 0 0-.02.01-.05h-3.21zM10.34 72.6c2.71 2.86 4.17 5.1 3.06 7.44-.56 1.17-1.43 1.86-2.67 2.1l-2.14.43 1.17 1.85c.42.67 1 1.23 1.67 1.63 1.86 1.11 4.13 1.39 5.7 1.43.18 0 .44.2.83.64 5.07 5.62 9.06 7.42 21.39 7.88v-.95c-2.15-.6-6.08-2.48-6.08-2.48-7.12-.82-9.69-2.68-13.09-6.45-.43-.48-1.43-1.59-2.99-1.63-.76-.02-2.04-.12-3.21-.53.89-.65 1.61-1.53 2.13-2.61 2.22-4.67-1.56-8.66-3.59-10.8C8.68 66.5 4.49 57 8.72 47.43l.29-.65-.05-.09H5.63c.02.06.04.11.07.17-4.35 10.67.34 21.2 4.64 25.74z" fill="#402720"/><path d="M20.93 72.26c-5.36 0-9.71-4.67-9.71-10.41s4.36-10.41 9.71-10.41h54.65c5.36 0 9.71 4.67 9.71 10.41s-4.36 10.41-9.71 10.41H20.93z" fill="#E59600"/><path d="M75.58 52.43c4.8 0 8.71 4.22 8.71 9.41s-3.91 9.41-8.71 9.41H20.93c-4.8 0-8.71-4.22-8.71-9.41s3.91-9.41 8.71-9.41h54.65m0-2H20.93c-5.89 0-10.71 5.14-10.71 11.41 0 6.28 4.82 11.41 10.71 11.41h54.65c5.89 0 10.71-5.14 10.71-11.41s-4.82-11.41-10.71-11.41z" fill="#D18100"/><linearGradient id="d" x1="48.254" x2="48.254" y1="94.591" y2="12.825" gradientUnits="userSpaceOnUse"><stop stop-color="#FFB300" offset="0"/><stop stop-color="#FFB809" offset=".102"/><stop stop-color="#FFC21A" offset=".371"/><stop stop-color="#FFC825" offset=".659"/><stop stop-color="#FFCA28" offset="1"/></linearGradient><path d="M48.25 95.27c-15.66 0-32.52-12.14-32.52-38.81 0-12.38 3.56-23.79 10.02-32.13 6.04-7.8 14.24-12.27 22.5-12.27 8.25 0 16.45 4.47 22.5 12.27 6.46 8.34 10.02 19.75 10.02 32.13 0 12.09-3.51 22.19-10.14 29.21-5.86 6.19-13.8 9.6-22.38 9.6z" fill="url(#d)"/><path d="M48.25 13.07c7.94 0 15.85 4.33 21.71 11.88 6.33 8.16 9.81 19.35 9.81 31.52 0 11.83-3.41 21.7-9.87 28.52-5.67 5.99-13.36 9.29-21.65 9.29s-15.98-3.3-21.65-9.29c-6.46-6.82-9.87-16.69-9.87-28.52 0-12.16 3.49-23.35 9.81-31.52 5.86-7.55 13.77-11.88 21.71-11.88m0-2c-17.4 0-33.52 18.61-33.52 45.39 0 26.64 16.61 39.81 33.52 39.81S81.77 83.1 81.77 56.46c0-26.78-16.11-45.39-33.52-45.39z" fill="#ED9E00"/><ellipse cx="31.82" cy="58.81" rx="4.93" ry="5.1" fill="#404040"/><ellipse cx="64.69" cy="58.81" rx="4.93" ry="5.1" fill="#404040"/><g fill="#6D4C41"><path d="M39.24 49.82c-.93-1.23-3.07-3.01-7.23-3.01s-6.31 1.79-7.23 3.01c-.41.54-.31 1.17-.02 1.55.26.35 1.04.68 1.9.39s2.54-1.16 5.35-1.18c2.81.02 4.49.89 5.35 1.18s1.64-.03 1.9-.39c.28-.38.39-1.01-.02-1.55zM71.73 49.82c-.93-1.23-3.07-3.01-7.23-3.01s-6.31 1.79-7.23 3.01c-.41.54-.31 1.17-.02 1.55.26.35 1.04.68 1.9.39s2.54-1.16 5.35-1.18c2.81.02 4.49.89 5.35 1.18s1.64-.03 1.9-.39c.29-.38.39-1.01-.02-1.55z"/></g><path d="M52.11 68.06c-.11-.04-.21-.07-.32-.08h-7.07c-.11.01-.22.04-.32.08-.64.26-.99.92-.69 1.63s1.71 2.69 4.55 2.69 4.25-1.99 4.55-2.69c.3-.71-.06-1.37-.7-1.63z" fill="#E59600"/><path d="M56.67 76.14c-3.19 1.89-13.63 1.89-16.81 0-1.83-1.09-3.7.58-2.94 2.24.75 1.63 6.45 5.42 11.37 5.42s10.55-3.79 11.3-5.42c.76-1.66-1.09-3.33-2.92-2.24z" fill="#795548"/><radialGradient id="e" cx="48.579" cy="33.52" r="36.373" gradientTransform="matrix(1 0 0 .8642 0 4.552)" gradientUnits="userSpaceOnUse"><stop stop-color="#6D4C41" offset="0"/><stop stop-color="#543930" offset="1"/></radialGradient><path d="M36.5 10.65C24.24 15 23.01 7.3 23.01 7.3c-6.66 3.32-2.28 10.45-2.28 10.45s-6.75-.5-9.64 5.34c-3.02 6.11-.36 10.78-.36 10.78S4.24 38 6.79 45.5c1.69 4.98 6.75 6.98 6.75 6.98-.62 10.74 2.77 15.95 2.77 15.95s4.21-18.45 3.81-21.27c0 0 7.76-1.54 16.57-6.58 5.95-3.41 10.02-7.41 16.71-8.91 10.18-2.29 12.45 5.08 12.45 5.08s9.42-1.81 12.26 11.27c1.17 5.38 1.67 14.37 2.31 19.84-.06-.48 3.5-6.4 4.12-12.4.23-2.23 3.61-7.67 4.63-11.72 2.21-8.8-.69-15.74-2.06-17.81-2.5-3.79-8.49-9-12.97-8.24.23-4.8-3.55-9.25-8.1-10.78-12.46-4.18-25.88 2.44-29.54 3.74z" fill="url(#e)"/><path d="M5.37 45.98c.08.22.17.45.27.68l2.28 2.89 1.1-2.79-.32-.63c-.21-.42-.36-.77-.48-1.11-2.13-6.26 3.11-9.73 3.33-9.88l1.18-.76-.68-1.23c-.09-.17-2.21-4.12.4-9.38 2.33-4.71 7.75-3.73 7.98-3.69l2.95.59-1.31-2.71c-.1-.22-2.19-4.67.33-8.01.55 1.01 1.43 2.15 2.84 3 2.85 1.73 6.8 1.72 11.75-.03.79-.28 1.68-.76 2.8-1.38 4.53-2.47 12.11-6.61 24.12-2.81 4.34 1.38 8.92 5.17 8.74 8.89l-.09 1.87 1.84-.31c3.6-.6 9.1 4.01 11.47 7.59 1.22 1.84 3.98 9.5 1.92 17.71-.11.45-.26.94-.46 1.5l-.22.62.04.08 1.09 1.9 2.11-1.9c.05-.23.27-1.14.35-1.46 2.24-8.93-.56-17.42-2.32-20.09-2.44-3.7-7.91-8.64-12.82-8.97-.79-4.72-5.84-8.72-10.73-10.27-13.26-4.21-21.87.49-26.49 3.02-.96.53-1.79.98-2.36 1.18-3.97 1.41-7.13 1.52-9.15.32-1.97-1.17-2.32-3.23-2.33-3.31l-.34-2.43-2.01 1.41c-4.24 2.99-4.4 7.63-3.6 10.88-2.93.12-6.77 1.36-8.8 5.47-2.42 4.9-1.56 8.99-.86 10.95-2.53 2.14-5.55 6.64-3.52 12.6z" fill="#402720"/></g><g clip-path="url(#b)"><defs><path id="f" d="M4.41 0h91.38v91.38H4.41z"/></defs></g><linearGradient id="g" x1="79.315" x2="70.338" y1="113.47" y2="111.55" gradientUnits="userSpaceOnUse"><stop stop-color="#ED6D23" offset="0"/><stop stop-color="#ED6D23" stop-opacity="0" offset="1"/></linearGradient><path clip-path="url(#b)" fill="url(#g)" d="M78.33 124h-9.5l5.48-24.37 7.23 3.04z"/><g clip-path="url(#b)"><linearGradient id="h" x1="129.78" x2="101.75" y1="62.358" y2="66.457" gradientUnits="userSpaceOnUse"><stop stop-color="#FFB300" offset="0"/><stop stop-color="#FFB809" offset=".102"/><stop stop-color="#FFC21A" offset=".371"/><stop stop-color="#FFC825" offset=".659"/><stop stop-color="#FFCA28" offset="1"/></linearGradient><path d="M90.63 72.21c-2.31 0-3.33-1.7-3.49-3.15-.21-1.83.77-3.95 3.42-4.56l10.6-2.44c.57-.14 1.22-.21 1.84-.21 1.21 0 2.19.29 2.6.77.09.1.36.42.24 1.2a.997.997 0 0 0 1.2 1.13c.08-.02 7.94-1.7 12.86-1.7 1.39 0 2.17.14 2.6.26.23.14.47.69.5 1.49.05 1.07-.3 1.85-.49 1.96-3.49.73-7.29 1.41-10.65 2-3.02.53-5.62 1-7.35 1.39-3.45.78-9.09 1.73-13.68 1.87l-.2-.01z" fill="url(#h)"/><path d="M102.99 62.84c1.08 0 1.7.26 1.84.42.03.04.05.17.01.4-.1.65.12 1.31.6 1.76.37.35.87.55 1.37.55.14 0 .28-.01.42-.05.08-.02 7.83-1.68 12.65-1.68.99 0 1.62.07 2 .15.14.41.13 1.21-.02 1.66-3.37.7-6.99 1.34-10.2 1.91-3.03.54-5.65 1-7.4 1.4-3.4.77-8.98 1.71-13.51 1.84h-.15c-1.65 0-2.37-1.17-2.5-2.26-.15-1.29.46-2.97 2.65-3.47l10.61-2.45c.53-.11 1.09-.18 1.63-.18m0-2c-.73 0-1.46.09-2.06.23l-10.6 2.44c-6.04 1.39-5.29 9.69.3 9.69h.23c4.57-.13 10.25-1.07 13.87-1.89s11.34-1.99 18.01-3.39c1.53-.32 1.8-4.61.13-5.35-.74-.23-1.77-.33-2.97-.33-5.09 0-13.07 1.72-13.07 1.72.37-2.39-1.77-3.12-3.84-3.12z" fill="#EDA600"/></g><g clip-path="url(#b)"><linearGradient id="i" x1="89.5" x2="89.5" y1="72.735" y2="130.5" gradientUnits="userSpaceOnUse"><stop stop-color="#F78C1F" offset="0"/><stop stop-color="#F37F20" offset=".494"/><stop stop-color="#ED6D23" offset="1"/></linearGradient><path d="M75.74 130.5l12.13-57.41a.59.59 0 0 0 .02-.14c.01-.13.12-.22.25-.22l12.75.76c.11.01.21.11.22.24l2.16 56.77H75.74z" fill="url(#i)"/><path d="M89.14 74.3l10.5.62L101.7 129H77.59l11.55-54.7m-1.01-3.06c-.88 0-1.63.66-1.73 1.55L73.89 132h30.93l-2.22-58.31c-.03-.9-.73-1.63-1.63-1.69l-12.72-.76h-.12z" fill="#DA6727"/></g></svg>