<svg viewBox="0 0 128 128" width="128" height="128" xmlns="http://www.w3.org/2000/svg"><linearGradient id="a" x1="3.972" x2="98.962" y1="41.026" y2="41.026" gradientUnits="userSpaceOnUse"><stop stop-color="#F8BBD0" offset=".475"/><stop stop-color="#FF4081" offset=".913"/></linearGradient><path d="M99.53 18.89c-21.34-5.6-42.65-6.09-59.99-1.38C21.93 22.29 10.37 31.89 7 44.54c-1.2 4.51-1.32 9.22-.35 14.01l1.86 9.19 1.1-9.31c.13-1.13.37-2.33.73-3.66 3.01-11.29 13.49-20.02 29.53-24.6 16.25-4.64 36.35-4.5 56.6.39l1.42.34 3.1-11.63-1.46-.38z" fill="url(#a)"/><linearGradient id="b" x1="39.825" x2="134.81" y1="75.046" y2="75.046" gradientUnits="userSpaceOnUse"><stop stop-color="#FF4081" offset=".087"/><stop stop-color="#F8BBD0" offset=".525"/></linearGradient><path d="M123.35 57.52l-1.86-9.19-1.1 9.31c-.13 1.13-.37 2.33-.73 3.66-3.01 11.29-13.49 20.02-29.53 24.6-16.25 4.64-36.35 4.5-56.6-.39l-1.42-.34-3.1 11.63 1.46.38c11.64 3.05 23.27 4.59 34.25 4.59 9.15 0 17.85-1.07 25.73-3.2 17.62-4.78 29.18-14.38 32.55-27.03 1.2-4.52 1.32-9.23.35-14.02z" fill="url(#b)"/><radialGradient id="c" cx="59.403" cy="122.69" r=".021" gradientUnits="userSpaceOnUse"><stop stop-color="#E53935" offset=".475"/><stop stop-color="#C62828" offset=".913"/></radialGradient><path d="M59.39 122.71l.04-.02-.06.02h.02z" fill="url(#c)"/><radialGradient id="d" cx="59.288" cy="122.71" r=".048" gradientUnits="userSpaceOnUse"><stop stop-color="#E53935" offset=".475"/><stop stop-color="#C62828" offset=".913"/></radialGradient><path d="M59.36 122.71s.01 0 0 0c-.04.01-.16.03-.16.02.01.01.16-.02.16-.02z" fill="url(#d)"/><radialGradient id="e" cx="59.469" cy="122.66" r=".026" gradientUnits="userSpaceOnUse"><stop stop-color="#E53935" offset=".475"/><stop stop-color="#C62828" offset=".913"/></radialGradient><path d="M59.5 122.65c-.01.01-.04.02-.07.04.04-.01.08-.03.07-.04z" fill="url(#e)"/><radialGradient id="f" cx="43.997" cy="52.887" r="51.674" gradientTransform="matrix(.9985 0 0 .9337 .099 -5.566)" gradientUnits="userSpaceOnUse"><stop stop-color="#FF80AB" offset=".481"/><stop stop-color="#FF4081" offset="1"/></radialGradient><path d="M64.55 48.95c-14.75 0-20.17 17.63-20.17 17.63s-5.35-17.63-20.2-17.63C13.03 48.95.3 57.8 5 77.9s39.24 45.05 39.24 45.05l.15.09.15-.11S79.02 98 83.72 77.9s-8.01-28.95-19.17-28.95z" fill="url(#f)"/><path d="M64.55 51.95c5.38 0 10.44 2.33 13.53 6.23 3.62 4.57 4.56 11.15 2.72 19.04-3.83 16.39-29.67 36.95-36.42 42.09-2.9-2.2-9.28-7.21-15.93-13.52C16.81 94.75 9.71 84.87 7.93 77.22c-1.84-7.88-.9-14.47 2.72-19.03 3.1-3.9 8.16-6.23 13.55-6.23 5.1 0 9.52 2.51 13.15 7.45 2.9 3.95 4.17 8.02 4.18 8.05l2.85 9.41 2.89-9.39c.03-.17 4.9-15.53 17.28-15.53m0-3c-14.75 0-20.17 17.63-20.17 17.63s-5.35-17.63-20.2-17.63C13.03 48.95.3 57.8 5 77.9s39.24 45.05 39.24 45.05l.15.09.15-.11S79.02 98 83.72 77.9s-8.01-28.95-19.17-28.95z" fill="#424242" opacity=".2"/><radialGradient id="g" cx="94.984" cy="7.25" r="37.712" gradientTransform="matrix(.9985 0 0 .9337 .099 -5.566)" gradientUnits="userSpaceOnUse"><stop stop-color="#FF80AB" offset=".478"/><stop stop-color="#FF4081" offset="1"/></radialGradient><path d="M109.92 4.95c-10.76 0-14.72 11-14.72 11s-3.9-11-14.74-11c-8.14 0-17.43 6.45-14 21.13C69.89 40.75 95.1 58.95 95.1 58.95l.11.07.11-.08s25.16-18.19 28.59-32.86c3.42-14.67-5.85-21.13-13.99-21.13z" fill="url(#g)"/><path d="M109.92 7.95c3.68 0 7.13 1.58 9.24 4.24 2.48 3.13 3.12 7.7 1.83 13.21-2.41 10.32-18.13 24.05-25.79 29.89-7.67-5.84-23.4-19.57-25.81-29.89-1.29-5.5-.65-10.07 1.83-13.2 2.11-2.66 5.56-4.24 9.25-4.24 8.53 0 11.76 8.64 11.89 9l2.76 7.81L98 16.98c.14-.36 3.44-9.03 11.92-9.03m0-3c-10.76 0-14.73 11-14.73 11s-3.88-11-14.72-11c-8.14 0-17.43 6.45-14 21.13C69.89 40.75 95.1 58.95 95.1 58.95l.11.07.11-.08s25.16-18.19 28.59-32.86c3.42-14.67-5.85-21.13-13.99-21.13z" fill="#424242" opacity=".2"/></svg>