<svg viewBox="0 0 128 128" width="128" height="128" xmlns="http://www.w3.org/2000/svg" xmlns:xlink="http://www.w3.org/1999/xlink"><defs><path id="a" d="M4 4h120v120H4z"/></defs><clipPath id="b"><use xlink:href="#a"/></clipPath><g clip-path="url(#b)"><radialGradient id="c" cx="66.827" cy="47.105" r="22.199" gradientUnits="userSpaceOnUse"><stop stop-color="#554138" offset="0"/><stop stop-color="#3C2C23" offset="1"/></radialGradient><path d="M92.87 87.67c.52-.55 1.09-1.04 1.88-1.06 1.29-.03 3.3-.24 4.88-1.14.46-.26.85-.63 1.15-1.07-1.11-.21-2.64-.84-3.67-2.75-1.57-2.91.25-5.57 3.26-8.55 3.4-3.34 9.05-14.82 3.05-25.05-1.13-.15-17.5.08-21.65.08H64.09v46.58c19.43 0 23.26-1.21 28.78-7.04z" fill="url(#c)"/><radialGradient id="d" cx="62.524" cy="50.855" r="22.243" gradientUnits="userSpaceOnUse"><stop stop-color="#554138" offset="0"/><stop stop-color="#3C2C23" offset="1"/></radialGradient><path d="M35.33 87.67c-.52-.55-1.09-1.04-1.88-1.06-1.29-.03-3.3-.24-4.88-1.14-.46-.26-.85-.63-1.15-1.07 1.11-.21 2.7-.81 3.67-2.75 1.57-3.14-.66-5.93-3.26-8.55-4.26-4.28-9.05-14.82-3.05-25.05 1.13-.15 17.5.08 21.65.08h17.68v46.58c-19.43 0-23.27-1.21-28.78-7.04z" fill="url(#d)"/><path d="M102.2 49.77l.25.46c5.32 9.74-.54 19.33-3.14 21.89-2.91 2.86-5.6 6.31-3.52 10.17.54 1 1.24 1.81 2.09 2.4-1.16.4-2.43.49-3.18.51-1.53.04-2.52 1.08-2.94 1.52-3.34 3.54-5.86 5.27-12.86 6.04 0 0-3.62 1.77-6.13 2.37V96c12.24-.42 16.18-2.09 21.19-7.39.39-.41.64-.59.82-.6 1.55-.04 3.77-.3 5.6-1.34.66-.37 1.22-.9 1.64-1.53l1.15-1.73-2.11-.4c-1.17-.22-2.03-.88-2.64-2.01-1.02-1.89-.2-3.76 3.01-6.92 3.98-3.92 9.12-14 3.9-24.26 0 0 0-.02.01-.05h-3.14zM26.75 74.07c2.67 2.68 4.1 4.78 3 6.97-.55 1.09-1.4 1.74-2.62 1.97l-2.11.4 1.15 1.73c.42.63.98 1.15 1.64 1.53 1.83 1.04 4.06 1.3 5.6 1.34.18 0 .43.19.82.6 4.98 5.27 8.91 6.95 21.02 7.38v-.89c-2.11-.56-5.97-2.33-5.97-2.33-7-.77-9.52-2.51-12.86-6.04-.42-.45-1.41-1.49-2.94-1.53-.75-.02-2-.11-3.16-.5.87-.61 1.58-1.43 2.09-2.45 2.18-4.37-1.53-8.11-3.53-10.12-3.77-3.8-7.89-12.7-3.74-21.67l.28-.61-.05-.09H22.1c.02.06.04.11.07.16-4.26 10.03.35 19.9 4.58 24.15z" fill="#291D15"/></g><g clip-path="url(#b)"><linearGradient id="e" x1="64" x2="64" y1="97.5" y2="130.5" gradientUnits="userSpaceOnUse"><stop stop-color="#F78C1F" offset="0"/><stop stop-color="#F37F20" offset=".494"/><stop stop-color="#ED6D23" offset="1"/></linearGradient><path d="M13.5 130.5v-9.44c0-16.24 25.36-23.53 50.5-23.56h.13c25.03 0 50.37 8.09 50.37 23.56v9.44h-101z" fill="url(#e)"/><path d="M64.13 99c12.9 0 25.42 2.19 34.36 6 6.62 2.83 14.51 7.91 14.51 16.05V129H15v-7.94c0-15.2 24.61-22.03 49-22.06h.13m0-3H64c-25.49.03-52 7.28-52 25.06V132h104v-10.94C116 104.3 89.74 96 64.13 96z" fill="#DA6727"/></g><g clip-path="url(#b)"><path d="M63.17 107.23c-4 0-7.26-3.22-7.26-7.17v-8.98h16.17v8.98c0 3.96-3.26 7.17-7.26 7.17h-1.65z" fill="#E59600"/><path d="M71.08 92.08v7.98c0 3.4-2.81 6.17-6.26 6.17h-1.65c-3.45 0-6.26-2.77-6.26-6.17v-7.98h14.17m2-2H54.92v9.98c0 4.51 3.7 8.17 8.26 8.17h1.65c4.56 0 8.26-3.66 8.26-8.17v-9.98h-.01z" fill="#D18100"/></g><g clip-path="url(#b)"><path d="M36.67 72.26c-5.36 0-9.71-4.67-9.71-10.41s4.36-10.41 9.71-10.41h54.65c5.36 0 9.71 4.67 9.71 10.41s-4.36 10.41-9.71 10.41H36.67z" fill="#7A4C32"/><path d="M91.33 52.43c4.8 0 8.71 4.22 8.71 9.41s-3.91 9.41-8.71 9.41H36.67c-4.8 0-8.71-4.22-8.71-9.41s3.91-9.41 8.71-9.41h54.66m0-2H36.67c-5.89 0-10.71 5.14-10.71 11.41 0 6.28 4.82 11.41 10.71 11.41h54.65c5.89 0 10.71-5.14 10.71-11.41.01-6.27-4.81-11.41-10.7-11.41z" fill="#663B22"/></g><g clip-path="url(#b)"><path d="M63.17 107.23c-4 0-7.26-3.22-7.26-7.17v-8.98h16.16v8.98c0 3.96-3.26 7.17-7.26 7.17h-1.64z" fill="#7A4C32"/><path d="M71.08 92.08v7.98c0 3.4-2.81 6.17-6.26 6.17h-1.65c-3.45 0-6.26-2.77-6.26-6.17v-7.98h14.17m2-2H54.92v9.98c0 4.51 3.7 8.17 8.26 8.17h1.65c4.56 0 8.26-3.66 8.26-8.17v-9.98h-.01z" fill="#663B22"/></g><g clip-path="url(#b)"><linearGradient id="f" x1="64" x2="64" y1="94.591" y2="12.825" gradientUnits="userSpaceOnUse"><stop stop-color="#8D5738" offset="0"/><stop stop-color="#97603D" offset=".216"/><stop stop-color="#A26941" offset=".573"/><stop stop-color="#A56C43" offset="1"/></linearGradient><path d="M64 95.27c-15.66 0-32.52-12.14-32.52-38.81 0-12.38 3.56-23.79 10.02-32.13 6.04-7.8 14.25-12.27 22.5-12.27s16.45 4.47 22.5 12.27c6.46 8.34 10.02 19.75 10.02 32.13 0 12.09-3.51 22.19-10.14 29.21-5.86 6.19-13.81 9.6-22.38 9.6z" fill="url(#f)"/><path d="M64 13.07c7.94 0 15.85 4.33 21.71 11.88 6.33 8.16 9.81 19.35 9.81 31.52 0 11.83-3.41 21.7-9.87 28.52-5.67 5.99-13.36 9.29-21.65 9.29s-15.98-3.3-21.65-9.29c-6.46-6.82-9.87-16.69-9.87-28.52 0-12.16 3.49-23.35 9.81-31.52C48.15 17.4 56.06 13.07 64 13.07m0-2c-17.4 0-33.52 18.61-33.52 45.39 0 26.64 16.61 39.81 33.52 39.81S97.52 83.1 97.52 56.46c0-26.78-16.12-45.39-33.52-45.39z" fill="#875334"/></g><g clip-path="url(#b)"><path d="M67.86 68.06c-.11-.04-.21-.07-.32-.08h-7.07c-.11.01-.22.04-.32.08-.64.26-.99.92-.69 1.63s1.71 2.69 4.55 2.69 4.25-1.99 4.55-2.69c.29-.71-.06-1.37-.7-1.63z" fill="#875334"/><path d="M72.42 76.14c-3.19 1.89-13.63 1.89-16.81 0-1.83-1.09-3.7.58-2.94 2.24.75 1.63 6.45 5.42 11.37 5.42s10.55-3.79 11.3-5.42c.75-1.66-1.09-3.33-2.92-2.24z" fill="#795548"/></g><g clip-path="url(#b)"><defs><path id="g" d="M64 4.03h-.04c-45.43.24-36.12 52.14-36.12 52.14s5.1 8.99 5.1 8.81c-.03-1.41.46-6.89.46-6.89l-2.68-2.92s3.89-25.44 6.79-24.91c4.45.81 26.54 2 26.57 2 7.83 0 14.92-.36 19.37-1.17 2.9-.53 9.64 1.7 10.68 4.45 1.33 3.54 3.13 19.71 3.13 19.71l-2.68 2.83s.49 5.51.46 6.89c0 .18 5.1-8.81 5.1-8.81S109.44 4.27 64 4.03z"/></defs></g><g clip-path="url(#b)"><radialGradient id="h" cx="64.326" cy="33.596" r="36.34" gradientTransform="matrix(1 0 0 .8642 0 4.562)" gradientUnits="userSpaceOnUse"><stop stop-color="#554138" offset="0"/><stop stop-color="#3C2C23" offset="1"/></radialGradient><path d="M52.04 11.75c-12.26 4.35-11-4.25-11-4.25-6.66 3.32-2.28 10.45-2.28 10.45s-9.03-.7-11.92 5.15c-3.02 6.11-.36 10.78-.36 10.78S19.98 38 22.53 45.5c1.69 4.98 6.75 6.98 6.75 6.98-.62 10.74 2.77 15.95 2.77 15.95s4.21-18.45 3.81-21.27c0 0 7.76-1.54 16.57-6.58 5.95-3.41 10.02-7.41 16.71-8.91 10.18-2.29 13.65 7.58 13.65 7.58s9.49-.58 12.33 12.5c1.17 5.38.75 10.25 1.04 16.12-.06-.48 3.5-6.4 4.12-12.4.23-2.23 3.61-7.67 4.63-11.72 2.21-8.8-.69-15.74-2.06-17.81-2.5-3.79-8.49-9-12.97-8.24.23-4.8-3.55-9.25-8.1-10.78-12.45-4.19-26.08 3.53-29.74 4.83z" fill="url(#h)"/></g><path d="M23.81 45.98c.07.22.16.45.26.68l2.21 2.89 1.06-2.79-.31-.63c-.2-.42-.35-.77-.46-1.11-2.06-6.26 3.01-9.73 3.22-9.88l1.15-.76-.66-1.23c-.09-.17-2.14-4.12.38-9.38 2.26-4.71 7.51-3.73 7.73-3.69l2.86.59-1.26-2.71c-.1-.22-2.13-4.67.32-8.01.53 1.01 1.39 2.15 2.75 3 2.76 1.73 6.59 1.72 11.38-.03.77-.28 1.63-.76 2.71-1.38 4.39-2.47 11.73-6.61 23.37-2.81 4.21 1.38 8.64 5.17 8.46 8.89l-.09 1.87 1.78-.31c3.49-.6 8.81 4.01 11.11 7.59 1.18 1.84 3.85 9.5 1.86 17.71-.11.45-.26.94-.45 1.5l-.21.62.04.08 1.06 1.9 2.04-1.9c.05-.23.26-1.14.34-1.46 2.17-8.93-.54-17.42-2.25-20.09-2.36-3.7-7.66-8.64-12.42-8.97-.76-4.72-5.66-8.72-10.39-10.27-12.83-4.21-21.17.49-25.65 3.02-.93.53-1.74.98-2.29 1.18-3.84 1.41-6.91 1.52-8.86.32-1.91-1.17-2.24-3.23-2.26-3.31l-.33-2.43-1.94 1.41c-4.11 2.99-4.27 7.63-3.49 10.88-2.84.12-6.56 1.36-8.53 5.47-2.35 4.9-1.51 8.99-.83 10.95-2.45 2.14-5.37 6.64-3.41 12.6z" clip-path="url(#b)" fill="#291D15"/><g clip-path="url(#b)"><path d="M72.32 76.14c-3.15 1.87-13.46 1.87-16.61 0-1.81-1.07-3.65.57-2.9 2.21.74 1.61 6.37 5.36 11.23 5.36 4.87 0 10.42-3.75 11.16-5.36.75-1.64-1.08-3.29-2.88-2.21z" fill="#473530"/><g fill="#42312C"><path d="M47.63 60.3c-2.06 0-3.9-.5-5.18-1.29-.55-.34-.87-.14-.77.5.37 2.48 2.9 4.4 5.95 4.4 3.06 0 5.58-1.92 5.95-4.4.1-.64-.22-.84-.77-.5-1.28.79-3.12 1.29-5.18 1.29zM80.25 60.3c-2.06 0-3.9-.5-5.18-1.29-.55-.34-.87-.14-.77.5.37 2.48 2.9 4.4 5.95 4.4 3.06 0 5.58-1.92 5.95-4.4.1-.64-.22-.84-.77-.5-1.28.79-3.13 1.29-5.18 1.29z"/></g></g><g clip-path="url(#b)"><path d="M43.92 33.2a2.511 2.511 0 0 0-2.12-1.37c-.68-.18-4.78-1.3-6.57-3.21-.2-.21-.41-.47-.62-.78-1.62-2.31-2.28-5.22-1.86-8.21L35.5.14c.04-.29-.05-.58-.24-.8-.2-.21-.47-.34-.76-.34H21.94c-.54 0-.98.42-1 .96l-.74 16.48-1.99 11.65c-.01.07-.02.13-.01.2l.53 15.63 2.13 18.49a2.928 2.928 0 0 0 2.71 2.69 4.09 4.09 0 0 0 3.06-1.07 4.07 4.07 0 0 0 1.29-2.97V43.45c0-2.09 1.24-4 3.15-4.85.31-.13 1.51-.29 1.77-.24.08.03.17.06.26.07l4.31.57c2.28.3 4.53-.67 5.87-2.53l.45-.62c.55-.78.62-1.79.19-2.65z" fill="#A56C43"/><path d="M33.34 1l-2.59 18.35c-.49 3.49.29 6.91 2.21 9.63.27.38.54.72.8 1 2.1 2.24 6.29 3.46 7.53 3.78.13.03.26.05.4.06.19.01.36.12.44.29.09.18.08.39-.04.56l-.45.62c-.8 1.1-2.08 1.76-3.44 1.76-.18 0-.37-.01-.55-.04l-4.2-.55c-.08-.03-.17-.05-.25-.07-.16-.03-.32-.04-.52-.04-.5 0-1.77.14-2.44.42a7.311 7.311 0 0 0-4.33 6.68v17.61c0 .57-.24 1.12-.66 1.5-.38.35-.88.55-1.4.55-.05 0-.11 0-.15-.01a.917.917 0 0 1-.86-.86c0-.02 0-.04-.01-.07l-2.12-18.41-.51-15.44 1.97-11.54.03-.25L22.89 1h10.45m1.16-2H21.94c-.54 0-.98.42-1 .96l-.74 16.48-1.99 11.65c-.01.07-.02.13-.01.2l.53 15.63 2.13 18.49a2.928 2.928 0 0 0 2.71 2.69 4.09 4.09 0 0 0 3.06-1.07 4.07 4.07 0 0 0 1.29-2.97V43.45c0-2.09 1.24-4 3.15-4.85.27-.11 1.22-.25 1.63-.25.06 0 .11 0 .14.01.08.03.17.06.26.07l4.31.57c.27.04.55.05.82.05 1.99 0 3.87-.95 5.06-2.58l.45-.62c.56-.78.64-1.79.2-2.64a2.511 2.511 0 0 0-2.12-1.37c-.68-.18-4.78-1.3-6.57-3.21-.2-.21-.41-.47-.62-.78-1.62-2.31-2.28-5.22-1.86-8.21L35.52.15c.04-.29-.05-.58-.24-.8-.22-.22-.49-.35-.78-.35z" fill="#875334"/><path d="M109.79 28.09l-1.99-11.65-.74-16.49c-.02-.53-.46-.96-1-.96H93.5c-.29 0-.56.13-.75.34-.19.22-.28.51-.24.8l2.75 19.49c.42 2.99-.24 5.9-1.86 8.21-.22.31-.43.57-.62.78-1.79 1.91-5.89 3.04-6.57 3.21-.9.05-1.71.56-2.12 1.37-.44.85-.36 1.86.2 2.64l.45.62a6.241 6.241 0 0 0 5.87 2.53l4.31-.57c.09-.01.12-.02.2-.05.31-.07 1.52.09 1.83.22 1.91.85 3.15 2.76 3.15 4.85v17.61c0 1.12.47 2.21 1.29 2.97.75.7 1.74 1.08 2.76 1.08.1 0 .2 0 .3-.01 1.45-.11 2.59-1.24 2.7-2.65l2.14-18.6.52-15.55c0-.06-.01-.13-.02-.19z" fill="#A56C43"/><path d="M105.11 1l.69 15.53c0 .08.01.17.03.25l1.97 11.54-.52 15.37-2.13 18.52c0 .02 0 .04-.01.07a.91.91 0 0 1-.85.82c-.05 0-.11.01-.16.01-.51 0-1.02-.2-1.4-.55-.42-.39-.66-.93-.66-1.5V43.45c0-2.88-1.7-5.5-4.37-6.69-.65-.28-1.89-.39-2.38-.39-.25 0-.45.02-.65.06l-.13.03-4.22.55c-.18.02-.37.04-.56.04-1.35 0-2.64-.66-3.43-1.76l-.45-.62a.502.502 0 0 1-.04-.55c.09-.17.25-.28.44-.29.13-.01.27-.03.4-.06 1.23-.32 5.42-1.54 7.53-3.78.26-.28.53-.62.8-1 1.91-2.72 2.7-6.15 2.21-9.64L94.66 1h10.45m.95-2H93.5c-.29 0-.56.13-.75.34-.19.22-.28.51-.24.8l2.75 19.49c.42 2.99-.24 5.9-1.86 8.21-.22.31-.43.57-.62.78-1.79 1.91-5.89 3.04-6.57 3.21-.9.05-1.71.56-2.12 1.37-.44.85-.36 1.86.2 2.64l.45.62a6.227 6.227 0 0 0 5.05 2.59c.27 0 .55-.02.82-.05l4.31-.57c.09-.01.12-.02.2-.05.05-.01.13-.02.22-.02.47 0 1.35.13 1.6.24 1.91.85 3.15 2.76 3.15 4.85v17.61c0 1.12.47 2.21 1.29 2.97.75.7 1.74 1.08 2.76 1.08.1 0 .2 0 .3-.01 1.45-.11 2.59-1.24 2.7-2.65l2.14-18.6.52-15.55c0-.07 0-.14-.01-.2l-1.99-11.65-.74-16.49a.995.995 0 0 0-1-.96z" fill="#875334"/></g><g clip-path="url(#b)" fill="#42312C"><path d="M54.98 49.82c-.93-1.23-3.07-3.01-7.23-3.01s-6.31 1.79-7.23 3.01c-.41.54-.31 1.17-.02 1.55.26.35 1.04.68 1.9.39s2.54-1.16 5.35-1.18c2.81.02 4.49.89 5.35 1.18s1.64-.03 1.9-.39c.29-.38.39-1.01-.02-1.55zM87.48 49.82c-.93-1.23-3.07-3.01-7.23-3.01s-6.31 1.79-7.23 3.01c-.41.54-.31 1.17-.02 1.55.26.35 1.04.68 1.9.39s2.54-1.16 5.35-1.18c2.81.02 4.49.89 5.35 1.18s1.64-.03 1.9-.39c.29-.38.39-1.01-.02-1.55z"/></g></svg>