<svg viewBox="0 0 128 128" width="128" height="128" xmlns="http://www.w3.org/2000/svg"><radialGradient id="a" cx="64.538" cy="47.344" r="55.854" gradientTransform="matrix(0 1 -1.0267 0 113.15 -17.194)" gradientUnits="userSpaceOnUse"><stop stop-color="#ECEFF1" offset="0"/><stop stop-color="#E8ECEE" offset=".186"/><stop stop-color="#DCE2E6" offset=".369"/><stop stop-color="#C9D2D7" offset=".551"/><stop stop-color="#ADBCC3" offset=".73"/><stop stop-color="#90A4AE" offset=".88"/></radialGradient><path d="M64 4.55c-27.76 0-56 23.51-56 51.27s44.33 67.68 56.17 67.68c13.17 0 55.83-39.92 55.83-67.68S91.76 4.55 64 4.55z" fill="url(#a)"/><path d="M64 8.55c12.55 0 25.58 5.18 35.76 14.21C110.08 31.93 116 43.98 116 55.82c0 11.02-8.2 26.55-21.93 41.55-12.51 13.67-25.27 22.13-29.9 22.13-3.64 0-16.27-7.89-29.6-22.16C20.23 81.98 12 66.85 12 55.82c0-11.84 5.92-23.89 16.24-33.05C38.42 13.74 51.45 8.55 64 8.55m0-4c-27.76 0-56 23.51-56 51.27s44.33 67.68 56.17 67.68c13.17 0 55.83-39.92 55.83-67.68S91.76 4.55 64 4.55z" opacity=".2"/><linearGradient id="b" x1="36.576" x2="36.576" y1="81.167" y2="45.665" gradientUnits="userSpaceOnUse"><stop stop-color="#414042" offset="0"/><stop stop-color="#29292A" offset=".344"/><stop offset="1"/></linearGradient><path d="M54.05 81.56c-2.99 3.89-17.71 3.89-28.85-6.36-10.1-9.29-9.46-25.64-6.13-28.94 3.33-3.31 19.19-3.38 28.85 6.36 9.66 9.75 9.8 25.3 6.13 28.94z" fill="url(#b)"/><linearGradient id="c" x1="91.364" x2="91.364" y1="83.167" y2="47.642" gradientUnits="userSpaceOnUse"><stop stop-color="#414042" offset="0"/><stop stop-color="#29292A" offset=".344"/><stop offset="1"/></linearGradient><path d="M80.08 52.58c9.66-9.69 25.52-9.61 28.85-6.32 3.33 3.28 3.53 19.11-6.13 28.8-9.67 9.69-25.16 9.95-28.85 6.32-3.67-3.63-3.53-19.1 6.13-28.8z" fill="url(#c)"/><path d="M64 102.35c-9.37 0-16.06-5.52-18.07-8.58-.78-1.18-.93-2.47-.41-3.43.39-.73 1.11-1.15 1.97-1.15.29 0 .58.05.88.14 4.72 1.48 8.85 3.63 15.63 3.63 6.85 0 10.92-2.15 15.63-3.63.3-.1.6-.14.89-.14.86 0 1.57.42 1.97 1.15.52.97.37 2.25-.41 3.43-2.02 3.06-8.71 8.58-18.08 8.58z" fill="#242424"/></svg>