<svg viewBox="0 0 128 128" width="128" height="128" xmlns="http://www.w3.org/2000/svg" xmlns:xlink="http://www.w3.org/1999/xlink"><defs><path id="a" d="M4 4h120v120H4z"/></defs><clipPath id="b"><use xlink:href="#a"/></clipPath><g clip-path="url(#b)"><radialGradient id="c" cx="66.236" cy="54.077" r="37.303" gradientUnits="userSpaceOnUse"><stop stop-color="#454140" offset="0"/><stop stop-color="#312D2D" offset="1"/></radialGradient><path d="M48.03 120.05c-.07 0-7.13-.07-10.33-3.53-7.52-8.15-9.96-19.13-7.47-33.59 2.12-12.3 7.08-41.08 33.77-42.15 26.69 1.07 31.65 29.85 33.77 42.15 2.49 14.46.05 25.44-7.47 33.59-3.19 3.45-10.22 3.53-10.33 3.53L64 120.03l-15.97.02z" fill="url(#c)"/><path d="M64 42.28c10.75.45 18.7 5.42 24.29 15.19 5.11 8.94 6.99 19.85 8 25.71 2.44 14.16.19 24.43-7.09 32.32-2.28 2.47-7.44 3.04-9.22 3.05L64 118.53l-15.96.02c-1.67 0-6.94-.57-9.23-3.05-7.28-7.89-9.53-18.16-7.09-32.32 1.01-5.86 2.89-16.77 8-25.71C45.3 47.7 53.25 42.73 64 42.28m0-3c-27.2 1.05-32.77 29.03-35.25 43.4-2.38 13.83-.64 25.66 7.85 34.86 3.69 4 11.43 4.01 11.43 4.01l15.97-.02 15.97.02s7.74-.01 11.43-4.01c8.49-9.2 10.23-21.03 7.85-34.86C96.77 68.31 91.2 40.33 64 39.28z" fill="#1F1A1A"/><linearGradient id="d" x1="64" x2="64" y1="97.5" y2="130.5" gradientUnits="userSpaceOnUse"><stop stop-color="#3B78E7" offset=".003"/><stop stop-color="#386EDA" offset=".223"/><stop stop-color="#3052B8" offset=".629"/><stop stop-color="#283593" offset="1"/></linearGradient><path d="M13.5 130.5v-9.51c0-17.29 27.21-23.46 50.5-23.49h.14c13.39 0 25.82 2.15 35.01 6.05 7 2.98 15.35 8.42 15.35 17.44v9.51h-101z" fill="url(#d)"/><path d="M64.14 99c24.28 0 48.86 7.55 48.86 21.99V129H15v-8.01c0-6.95 4.88-12.47 14.52-16.42C38.26 100.99 50.51 99.02 64 99h.14m0-3H64c-25.65.03-52 7.1-52 24.99V132h104v-11.01C116 104.13 89.9 96 64.14 96z" fill="#2E51B0"/><defs><path id="e" d="M12 120.99V132h104v-11.01C116 104.1 89.81 95.97 64 96c-25.65.03-52 7.1-52 24.99z"/></defs><path d="M97.64 109.25c-2.16 0-4.57-.41-7.18-1.21-6.56-2.02-12.95-2.67-13.93-2.76-.84-.38-1.19-3.82-.79-7.58 14.51.35 26.51 6.75 29.86 8.71-1.02 1.06-3.4 2.84-7.96 2.84z" fill="#283593"/><path d="M76.65 98.73c12.44.53 22.89 5.48 27.2 7.84-1.18.82-3.16 1.68-6.22 1.68-2.06 0-4.37-.39-6.88-1.16-6.05-1.86-11.95-2.58-13.73-2.76-.4-.8-.54-3.13-.37-5.6m-1.8-2.04s-1.19 8.86 1.47 9.58c0 0 6.88.59 13.84 2.73 2.93.9 5.4 1.25 7.47 1.25 7.09 0 9.44-4.12 9.44-4.12s-14.22-9.32-32.22-9.44z" fill="#2E51B0"/><path d="M30.2 109.23c-4.65 0-7.09-1.86-8.13-2.95 3.38-1.94 15.44-8.23 29.94-8.58.39 3.77.05 7.21-.79 7.58-.98.09-7.37.74-13.93 2.76-2.57.79-4.95 1.19-7.09 1.19z" fill="#283593"/><path d="M51.1 98.73c.17 2.46.03 4.8-.37 5.6-1.78.18-7.68.9-13.73 2.76-2.47.76-4.76 1.15-6.8 1.15-3.16 0-5.19-.92-6.39-1.77 4.34-2.33 14.84-7.21 27.29-7.74m1.8-2.04c-18 .12-32.31 9.31-32.31 9.31s2.42 4.23 9.61 4.23c2.05 0 4.5-.35 7.39-1.23 6.96-2.14 13.84-2.73 13.84-2.73 2.66-.73 1.47-9.58 1.47-9.58z" fill="#2E51B0"/><linearGradient id="f" x1="116.38" x2="106.54" y1="119" y2="119" gradientUnits="userSpaceOnUse"><stop stop-color="#666" offset=".004"/><stop stop-color="#606060" offset=".099"/><stop stop-color="#3F3F3F" offset=".68"/><stop stop-color="#333" offset="1"/></linearGradient><path d="M113.88 113.16l-5 .08-2.34 4.29 5.02 6.71s4.74 1.46 4.8-.25c.26-7.37-2.48-10.83-2.48-10.83z" fill="url(#f)"/><path fill="none" stroke="#BDBDBD" stroke-linecap="round" stroke-miterlimit="10" stroke-width="1.5" d="M113.88 113.16l-5 .09-2.59 4.75 6.28 8.82"/><path fill="none" stroke="#BDBDBD" stroke-linecap="round" stroke-miterlimit="10" d="M115.2 116.06l-3.63.14-1.24 1.8 5.76 8.75"/><linearGradient id="g" x1="11.576" x2="21.414" y1="119" y2="119" gradientUnits="userSpaceOnUse"><stop stop-color="#666" offset=".004"/><stop stop-color="#606060" offset=".099"/><stop stop-color="#3F3F3F" offset=".68"/><stop stop-color="#333" offset="1"/></linearGradient><path d="M14.08 113.16l5 .08 2.34 4.29-5.02 6.71s-4.74 1.46-4.8-.25c-.27-7.37 2.48-10.83 2.48-10.83z" fill="url(#g)"/><path fill="none" stroke="#BDBDBD" stroke-linecap="round" stroke-miterlimit="10" stroke-width="1.5" d="M14.08 113.16l5 .09 2.58 4.75-6.28 8.82"/><path fill="none" stroke="#BDBDBD" stroke-linecap="round" stroke-miterlimit="10" d="M12.76 116.06l3.62.14 1.24 1.8-5.75 8.75"/><path fill="#212121" d="M53.41 104.86h19.9l-9.32 17.08z"/><path d="M63.17 111.23c-4 0-7.26-3.22-7.26-7.17V91.08h16.16v12.98c0 3.96-3.26 7.17-7.26 7.17h-1.64z" fill="#EDC391"/><path d="M71.08 92.08v11.98c0 3.4-2.81 6.17-6.26 6.17h-1.65c-3.45 0-6.26-2.77-6.26-6.17V92.08h14.17m2-2H54.92v13.98c0 4.51 3.7 8.17 8.26 8.17h1.65c4.56 0 8.26-3.66 8.26-8.17V90.08h-.01z" fill="#D9AC77"/><path d="M50.62 109.37a1.015 1.015 0 0 0-.93-.2l-8.67 2.61 6.74-13.68 6.45-.75 7.61 21.45-11.2-9.43z" fill="#3674CE"/><path d="M53.53 98.44l6.11 17.22-8.37-7.06c-.37-.31-.82-.47-1.29-.47-.19 0-.39.03-.58.08l-6.47 1.95 5.49-11.13 5.11-.59m1.35-2.17l-7.78.91-8 16.23 10.88-3.27 14.01 11.81-9.11-25.68z" fill="#1C3AA9"/><path d="M73.8 97.36l6.45.75 6.73 13.66-7.88-2.42c-.1-.03-.2-.04-.29-.04-.22 0-.44.07-.62.21l-12.08 9.5 7.69-21.66z" fill="#3674CE"/><path d="M74.47 98.44l5.12.6 5.47 11.09-5.67-1.74c-.19-.06-.39-.09-.59-.09-.44 0-.88.15-1.24.43l-9.36 7.36 6.27-17.65m-1.35-2.17l-9.11 25.67L78.8 110.3l10.1 3.1-8-16.23-7.78-.9z" fill="#1C3AA9"/><path d="M45.75 119.71H34.83c-1.2 0-2.17-.97-2.17-2.17s.97-2.17 2.17-2.17h10.92c1.2 0 2.17.97 2.17 2.17s-.97 2.17-2.17 2.17z" fill="#E0E0E0"/><path d="M45.75 116.38c.64 0 1.17.52 1.17 1.17 0 .64-.52 1.17-1.17 1.17H34.83c-.64 0-1.17-.52-1.17-1.17 0-.64.52-1.17 1.17-1.17h10.92m0-1H34.83c-1.2 0-2.17.97-2.17 2.17s.97 2.17 2.17 2.17h10.92c1.2 0 2.17-.97 2.17-2.17s-.97-2.17-2.17-2.17z" fill="#212121" opacity=".2"/></g><g clip-path="url(#b)"><radialGradient id="h" cx="64" cy="47.738" r="39.879" gradientTransform="matrix(1 0 0 .9281 0 .608)" gradientUnits="userSpaceOnUse"><stop stop-color="#454140" offset="0"/><stop stop-color="#312D2D" offset="1"/></radialGradient><path d="M64 81.88c-23.14 0-39.94-14.29-39.94-33.98C24.06 26.62 42.72 7.96 64 7.96s39.94 18.66 39.94 39.94c0 19.68-16.8 33.98-39.94 33.98z" fill="url(#h)"/><path d="M64 9.46c10.07 0 19.72 4.21 27.15 11.85 7.17 7.37 11.29 17.06 11.29 26.59 0 9.31-3.82 17.4-11.05 23.4-7.07 5.86-16.79 9.09-27.39 9.09s-20.32-3.23-27.39-9.09c-7.23-5.99-11.05-14.08-11.05-23.4 0-9.53 4.11-19.22 11.29-26.59C44.28 13.66 53.93 9.46 64 9.46m0-3c-22.89 0-41.44 20.2-41.44 41.44S41.11 83.38 64 83.38s41.44-14.24 41.44-35.48c0-21.25-18.55-41.44-41.44-41.44z" fill="#1F1A1A"/></g><linearGradient id="i" x1="64" x2="64" y1="95.27" y2="17.04" gradientUnits="userSpaceOnUse"><stop stop-color="#FFD29C" offset="0"/><stop stop-color="#FFD39E" offset=".024"/><stop stop-color="#FCD8AF" offset=".316"/><stop stop-color="#FADCBA" offset=".629"/><stop stop-color="#F9DDBD" offset="1"/></linearGradient><path d="M64 95.27c-2.3 0-4.91-.5-7.56-1.43C45.1 89.83 31.87 77.5 31.87 55.95c0-28.72 17.31-38.91 32.13-38.91s32.13 10.19 32.13 38.91c0 21.58-13.26 33.9-24.61 37.9-2.63.93-5.23 1.42-7.52 1.42z" fill="url(#i)"/><path d="M64 18.04c8.41 0 16.06 3.25 21.55 9.15 6.27 6.73 9.58 16.68 9.58 28.77 0 21.06-12.9 33.07-23.94 36.96-2.53.89-5.01 1.36-7.19 1.36-2.19 0-4.69-.48-7.23-1.38-11.03-3.9-23.9-15.92-23.9-36.94 0-12.09 3.31-22.03 9.58-28.77 5.49-5.9 13.14-9.15 21.55-9.15m0-2c-17.2 0-33.13 12.79-33.13 39.91 0 21.79 13.49 34.67 25.23 38.83 2.8.99 5.5 1.49 7.9 1.49 2.38 0 5.07-.49 7.85-1.47 11.76-4.14 25.28-17.03 25.28-38.84 0-27.13-15.93-39.92-33.13-39.92z" fill="#EDBD82"/><defs><path id="j" d="M20.75 87.25l8.15-49.78c0-16.95 15.78-29.85 32.73-29.85h4.93c16.95 0 32.54 12.9 32.54 29.85l9.45 51.18-87.8-1.4z"/></defs><clipPath id="k"><use xlink:href="#j"/></clipPath><g clip-path="url(#k)"><radialGradient id="l" cx="280.76" cy="-21.356" r="34.123" gradientTransform="matrix(.796 0 0 .796 -160.45 19.21)" gradientUnits="userSpaceOnUse"><stop stop-color="#454140" offset="0"/><stop stop-color="#312D2D" offset="1"/></radialGradient><path d="M99.94 42.04c0-5.25 2.97-34.91-35.86-34.91S26.11 42.71 26.11 42.71s.47 7.46 2.47 14.71 4.09 10.62 4.09 10.62-.1-4.16.32-9.1.31-11.88 6.4-13.25C61.76 40.66 74.41 28.8 74.41 28.8c3.29 7.19 13.58 14.19 17.27 16.86 3.03 2.19 4.53 21.79 4.53 21.79s3.73-5.12 3.73-25.41z" fill="url(#l)"/></g><path d="M67.81 68.05c-.1-.04-.21-.07-.32-.08H60.5c-.11.01-.21.04-.32.08-.63.26-.98.91-.68 1.61s1.69 2.66 4.49 2.66 4.19-1.96 4.49-2.66c.31-.69-.03-1.35-.67-1.61z" fill="#DBA689"/><ellipse cx="47.75" cy="58.87" rx="4.87" ry="5.04" fill="#312D2D"/><ellipse cx="80.25" cy="58.87" rx="4.87" ry="5.04" fill="#312D2D"/><radialGradient id="m" cx="47.752" cy="49.333" r="5.6" gradientUnits="userSpaceOnUse"><stop stop-color="#454140" offset=".09"/><stop stop-color="#454140" offset="1"/></radialGradient><path d="M54.98 49.82c-.93-1.23-3.07-3.01-7.23-3.01s-6.31 1.79-7.23 3.01c-.41.54-.31 1.17-.02 1.55.26.35 1.04.68 1.9.39s2.54-1.16 5.35-1.18c2.81.02 4.49.89 5.35 1.18s1.64-.03 1.9-.39c.29-.38.39-1.01-.02-1.55z" fill="url(#m)"/><radialGradient id="n" cx="80.248" cy="49.333" r="5.6" gradientUnits="userSpaceOnUse"><stop stop-color="#454140" offset=".09"/><stop stop-color="#454140" offset="1"/></radialGradient><path d="M87.48 49.82c-.93-1.23-3.07-3.01-7.23-3.01s-6.31 1.79-7.23 3.01c-.41.54-.31 1.17-.02 1.55.26.35 1.04.68 1.9.39s2.54-1.16 5.35-1.18c2.81.02 4.49.89 5.35 1.18s1.64-.03 1.9-.39c.29-.38.39-1.01-.02-1.55z" fill="url(#n)"/><path d="M72.32 76.14c-3.15 1.87-13.46 1.87-16.61 0-1.81-1.07-3.65.57-2.9 2.21.74 1.61 6.37 5.36 11.23 5.36s10.42-3.75 11.16-5.36c.75-1.64-1.08-3.29-2.88-2.21z" fill="#424242"/><linearGradient id="o" x1="64.02" x2="64.02" y1="25.825" y2="43.685" gradientUnits="userSpaceOnUse"><stop stop-color="#666" offset=".004"/><stop stop-color="#606060" offset=".099"/><stop stop-color="#3F3F3F" offset=".68"/><stop stop-color="#333" offset="1"/></linearGradient><path d="M63.79 44.17c-22.85-.15-33.76-6.58-36.93-8.88 2.25-2.57 10.79-9.57 36.93-9.57 25.91 0 34.89 6.5 37.38 9-3.34 2.47-14.68 9.3-37.38 9.45z" fill="url(#o)"/><path d="M63.79 27.24c21.84 0 31.27 4.64 34.91 7.35-4.53 2.82-15.41 7.95-34.89 8.08-19.56-.13-30.19-4.97-34.54-7.6 3.38-2.83 12.49-7.83 34.52-7.83m0-3.02c-33.6 0-38.98 11.36-38.98 11.36s10.36 9.91 38.98 10.1c28.63-.19 39.51-10.73 39.51-10.73s-5.91-10.73-39.51-10.73z" fill="#2A2A2B"/><linearGradient id="p" x1="64" x2="64" y1="4.352" y2="34.313" gradientUnits="userSpaceOnUse"><stop stop-color="#3B78E7" offset=".003"/><stop stop-color="#3B77E6" offset=".011"/><stop stop-color="#335BC2" offset=".298"/><stop stop-color="#2D46A8" offset=".568"/><stop stop-color="#293998" offset=".809"/><stop stop-color="#283593" offset="1"/></linearGradient><path d="M19.96 34.5c1.71 6.19 3.35 8.81 3.35 8.81C25.04 41.31 35.36 32 63.93 32h.16c28.58 0 38.42 9.36 40.16 11.36 0 0 2.07-2.8 3.78-8.99C112 20.05 92.35 4 64.06 4c-28.23 0-48.05 16.2-44.1 30.5z" fill="url(#p)"/><defs><path id="q" d="M19.96 34.5c1.71 6.19 3.35 8.81 3.35 8.81C25.04 41.31 35.36 32 63.93 32h.16c28.58 0 38.42 9.36 40.16 11.36 0 0 2.07-2.8 3.78-8.99C112 20.05 92.35 4 64.06 4c-28.23 0-48.05 16.2-44.1 30.5z"/></defs><clipPath id="r"><use xlink:href="#q"/></clipPath><path d="M100.04 35.61a4.564 4.564 0 0 0-1.74-2.8c-3.78-2.9-15.09-10.1-34.24-10.1-19.65 0-30.66 7.19-34.3 10.09-.87.69-1.46 1.67-1.67 2.75l-.01.06c-.63 3.29 2.38 6.14 5.67 5.36 6.87-1.64 18.03-3.73 30.31-3.75 12.28.02 23.45 2.12 30.31 3.75 3.29.78 6.3-2.07 5.67-5.36z" clip-path="url(#r)" fill="#3B78E7"/><path d="M64.06 28.82c-3.14 0-7.15-4.89-7.15-7.22v-3.48c0-.97-.24-1.94-.7-2.81-.19-.36-.15-.78.1-1.11l.31-.4c.05-.06.13-.1.21-.1.09 0 .17.04.22.11.72 1.09 1.77 1.63 3.21 1.63 1.64 0 2.75-1.47 3.35-2.27.1-.14.26-.21.42-.21s.32.08.42.21c.56.74 1.73 2.27 3.41 2.27 1.44 0 2.49-.53 3.21-1.63.04-.07.13-.11.22-.11s.17.04.21.1l.31.4c.25.33.29.75.1 1.11-.46.87-.7 1.84-.7 2.81v3.48c0 2.33-4.01 7.22-7.15 7.22z" fill="#fc0"/><path d="M64.03 13.46l.02.01c.61.8 1.88 2.47 3.81 2.47 1.5 0 2.62-.52 3.43-1.59l.12.16c.13.17.15.38.05.57-.5.94-.76 1.99-.76 3.04v3.48c0 2.11-3.8 6.72-6.65 6.72-2.86 0-6.65-4.61-6.65-6.72v-3.48c0-1.05-.26-2.1-.76-3.04-.1-.19-.08-.4.05-.57l.12-.16c.81 1.07 1.94 1.59 3.43 1.59 1.89 0 3.1-1.6 3.75-2.47.01 0 .02-.01.04-.01m0-1c-.33 0-.63.16-.82.41-.6.79-1.56 2.07-2.95 2.07-1.43 0-2.24-.57-2.79-1.4a.76.76 0 0 0-.64-.33c-.24 0-.47.11-.61.29l-.31.4c-.37.48-.43 1.12-.15 1.65.42.8.64 1.68.64 2.57v3.48c0 2.54 4.14 7.72 7.65 7.72s7.65-5.19 7.65-7.72v-3.48c0-.89.22-1.77.64-2.57.28-.53.22-1.17-.15-1.65l-.31-.4a.786.786 0 0 0-1.25.04c-.55.84-1.36 1.4-2.79 1.4-1.39 0-2.4-1.28-3.01-2.07a.968.968 0 0 0-.8-.41z" fill="#F9A825"/><path d="M64.06 7.08c16.3 0 31.26 5.82 38.11 14.83 2.08 2.74 4.29 7.01 2.96 11.79-.59 2.13-1.22 3.83-1.78 5.12-1.8-1.31-4.39-2.85-7.98-4.3-8.25-3.33-18.77-5.03-31.31-5.03h-.12c-12.51 0-23.1 1.68-31.49 4.99-3.58 1.41-6.18 2.9-8 4.17-.48-1.28-1.03-2.93-1.58-4.95-1.31-4.74.9-8.99 2.98-11.72 6.88-9.05 21.88-14.9 38.21-14.9m0-3.02c-28.23 0-48.05 16.13-44.1 30.44 1.71 6.19 3.35 9.06 3.35 9.06 1.74-2 12.05-11.06 40.63-11.06h.16c28.58 0 38.42 9.11 40.16 11.11 0 0 2.07-2.92 3.78-9.11C112 20.18 92.35 4.06 64.06 4.06z" fill="#2E51B0"/></svg>