<svg viewBox="0 0 128 128" width="128" height="128" xmlns="http://www.w3.org/2000/svg"><ellipse cx="64" cy="64.64" rx="53" ry="56.58"/><radialGradient id="a" cx="64.244" cy="48.868" r="57.452" gradientTransform="matrix(.9391 0 0 1.0904 3.817 -6.124)" gradientUnits="userSpaceOnUse"><stop stop-color="red" offset="0"/><stop stop-color="#FD0100" offset=".51"/><stop stop-color="#F60300" offset=".714"/><stop stop-color="#EA0700" offset=".863"/><stop stop-color="#D90D00" offset=".986"/><stop stop-color="#D60E00" offset="1"/></radialGradient><path d="M64 122c-23.71 0-43-25.11-43-55.97 0-3.86-.12-7.62-.23-11.26-.45-14.6-.83-27.21 6.76-35.04 6.31-6.51 18.24-9.67 36.47-9.67s30.16 3.16 36.47 9.67c7.59 7.83 7.21 20.44 6.76 35.04-.11 3.64-.23 7.4-.23 11.26C107 96.89 87.71 122 64 122z" fill="url(#a)"/><path d="M64 12.05c17.66 0 29.12 2.96 35.03 9.06 7 7.22 6.63 19.44 6.2 33.59-.11 3.65-.23 7.43-.23 11.32C105 95.79 86.61 120 64 120S23 95.79 23 66.03c0-3.89-.12-7.67-.23-11.32-.43-14.15-.81-26.37 6.2-33.59 5.91-6.1 17.37-9.07 35.03-9.07m0-4c-53 0-45 25.96-45 57.97S39.15 124 64 124s45-25.96 45-57.97 8-57.98-45-57.98z" fill="#B71C1C"/><path d="M34.38 24.05l2.54-2.79a2.7 2.7 0 0 1 4.48.75c2.64 6.04 8.08 16.91 12.72 16.34 6.41-.79 2.48-10.09 2.48-10.09.99 0 7.08 14.66-1.51 16.34-10.58 2.08-17.12-6.21-21.25-17.73a2.79 2.79 0 0 1 .54-2.82zM93.48 24.05l-2.54-2.79a2.7 2.7 0 0 0-4.48.75c-2.64 6.04-8.08 16.91-12.72 16.34-6.41-.79-2.48-10.09-2.48-10.09-.99 0-7.08 14.66 1.51 16.34 10.58 2.08 17.12-6.21 21.25-17.73.36-.97.16-2.06-.54-2.82z"/><path d="M44.79 61.49l-7.64-1.48c-5.28-1.02-8.78-6.23-7.77-11.57.57-3.01 3.48-5.01 6.46-4.43l11.82 2.28c3.33.64 5.53 3.92 4.89 7.28L52 56.55c-.64 3.36-3.88 5.59-7.21 4.94z" fill="#F6E56A"/><path d="M41.49 47.55c-2.29 0-4.38 1.96-4.38 5.21s2.09 5.21 4.38 5.21 4.38-1.96 4.38-5.21-2.08-5.21-4.38-5.21z"/><path d="M81.29 60.77l7.32-1.42c5.07-.98 8.42-5.97 7.45-11.09-.55-2.89-3.33-4.8-6.19-4.25L78.54 46.2c-3.19.62-5.3 3.76-4.69 6.98l.54 2.84c.6 3.23 3.71 5.36 6.9 4.75z" fill="#F6E56A"/><path d="M84.7 47.4c-2.2 0-4.2 1.88-4.2 5s2 5 4.2 5 4.2-1.88 4.2-5-2-5-4.2-5zM27.56 80.96s.67 7.72 10.67 9.92c9.09 2 21.22-.36 24.22-1.81s5.45-2.04-.67-2.16-20.22-2.95-23.11-9.36c-2.89-6.42-12.44-6.15-11.11 3.41z"/><path d="M100.44 80.96s-.67 7.72-10.67 9.92c-9.09 2-21.22-.36-24.22-1.81s-5.45-2.04.67-2.16 20.22-2.95 23.11-9.36c2.89-6.42 12.44-6.15 11.11 3.41z"/><radialGradient id="b" cx="62.954" cy="65.198" r="17.094" gradientTransform="matrix(1 0 0 1.0106 0 -.045)" gradientUnits="userSpaceOnUse"><stop stop-color="red" offset="0"/><stop stop-color="#FD0100" offset=".51"/><stop stop-color="#F60300" offset=".714"/><stop stop-color="#EA0700" offset=".863"/><stop stop-color="#D90D00" offset=".986"/><stop stop-color="#D60E00" offset="1"/></radialGradient><ellipse cx="64" cy="72.72" rx="15" ry="15.16" fill="url(#b)" stroke="#8A1515" stroke-miterlimit="10" stroke-width="4.236"/><path d="M86.82 109.64s-.04-.25-.12-.71l-.15-.86c-.03-.17-.06-.35-.1-.54-.05-.18-.11-.36-.17-.56-.12-.39-.24-.82-.4-1.28-.21-.45-.42-.94-.64-1.46-.27-.5-.6-1-.92-1.54-.39-.49-.77-1.04-1.23-1.54-.51-.47-.95-1.03-1.57-1.46-.29-.23-.58-.47-.88-.71-.32-.21-.65-.42-.98-.64-.32-.23-.67-.43-1.04-.61-.36-.19-.73-.38-1.1-.57-.79-.3-1.54-.71-2.39-.96-1.64-.62-3.44-.96-5.27-1.3-1.84-.3-3.74-.4-5.63-.4-1.89.04-3.8.14-5.63.49-.46.06-.91.17-1.36.27s-.9.17-1.34.29c-.87.25-1.75.46-2.57.79-1.67.58-3.19 1.32-4.56 2.14-.66.44-1.32.85-1.88 1.34-.61.44-1.11.95-1.59 1.44-.52.47-.85 1.04-1.27 1.52-.36.51-.65 1.04-.96 1.51-.24.52-.46 1-.66 1.45-.21.45-.29.9-.43 1.3-.28.79-.32 1.46-.42 1.9-.08.45-.12.69-.12.69l-.01.07a.513.513 0 1 1-1.02-.07l-.03-.75c.01-.49-.12-1.22.04-2.14.07-.46.08-.98.22-1.53s.3-1.14.5-1.77c.27-.6.52-1.26.86-1.92.19-.32.39-.64.59-.98s.42-.68.68-.98c.5-.64 1.03-1.32 1.68-1.91.6-.65 1.33-1.18 2.06-1.76 1.5-1.08 3.19-2.1 5.05-2.83 1.84-.78 3.82-1.38 5.87-1.77 2.05-.42 4.16-.57 6.27-.65 2.11.02 4.23.18 6.29.54 2.06.37 4.05.93 5.91 1.72.94.34 1.82.83 2.68 1.27.42.25.82.52 1.23.77s.8.51 1.16.81c1.52 1.08 2.72 2.44 3.7 3.74.47.67.86 1.36 1.23 2 .29.69.58 1.33.8 1.95.17.64.34 1.23.47 1.78.09.57.14 1.1.19 1.57.02.23.05.45.07.66-.01.2-.01.38-.02.55-.02.34-.03.63-.04.87l-.03.72c-.01.29-.25.51-.54.5a.552.552 0 0 1-.48-.45z"/><ellipse cx="63.66" cy="12.31" rx="13.09" ry="8.06"/><ellipse transform="rotate(-61.693 55.666 117.424)" cx="55.66" cy="117.42" rx="4.77" ry="7.77"/><ellipse transform="rotate(-28.309 72.648 117.412)" cx="72.66" cy="117.42" rx="7.77" ry="4.77"/></svg>