<svg viewBox="0 0 128 128" width="128" height="128" xmlns="http://www.w3.org/2000/svg" xmlns:xlink="http://www.w3.org/1999/xlink"><linearGradient id="a" x1="115.13" x2="115.13" y1="54.088" y2="75.049" gradientUnits="userSpaceOnUse"><stop stop-color="#E0C3A0" offset=".226"/><stop stop-color="#D8BC9A" offset=".398"/><stop stop-color="#C2A98A" offset=".665"/><stop stop-color="#9F8A71" offset=".991"/><stop stop-color="#9E8970" offset=".998"/></linearGradient><path d="M119.84 77.73c-2.39-.67-3.24-3.11-4.11-6.35-.43-1.62-.81-3.01-1.6-3.83-.19-.2-.46-.3-.72-.3-.18 0-.36.05-.52.14-.4.24-.58.72-.44 1.17.07.21.08.96.09 1.53-1.31-1.51-2.51-3.95-3.58-7.28-.95-2.95-1.38-6.75-.47-8 .2-.27.44-.39.82-.39.23 0 .51.05.81.14 3.48 1.05 6.57 3.23 8.93 6.32 1.98 2.59 2.44 6.3 2.8 9.27.14 1.1.25 2.04.43 2.81-.73-.35-1.14-1.02-1.68-1.88l-.23-.37a1.001 1.001 0 0 0-1.09-.44c-.42.1-.73.46-.77.89-.25 2.86-.1 4.42 1.33 6.57z" fill="url(#a)"/><path d="M109.31 55.43c.08 0 .25.01.52.1 3.28.98 6.19 3.05 8.42 5.96 1.68 2.21 2.18 5.44 2.53 8.18-.35-.28-.8-.44-1.25-.44-.16 0-.31.02-.47.06-.84.2-1.46.92-1.53 1.78-.08.91-.12 1.7-.1 2.43-.25-.7-.47-1.49-.71-2.37-.47-1.75-.88-3.27-1.86-4.27a2.007 2.007 0 0 0-2.48-.32c-.24.15-.45.34-.61.56-.6-1.15-1.23-2.65-1.85-4.59-1.05-3.27-1.11-6.43-.64-7.07 0-.01.01-.01.03-.01m-.01-2.02c-3.55 0-2.23 6.83-1.31 9.7 1.01 3.14 2.79 7.65 5.68 9.23-.24-.77-.03-3.32-.27-4.09 1.94 1.98 1.21 10.66 7.87 10.66.23 0 .46-.01.71-.03-2.52-3.02-2.77-4.28-2.46-7.65.95 1.5 1.65 3 4.17 3 .1 0 .2 0 .31-.01-1.65-1.07-.5-9.19-4.15-13.97-2.41-3.16-5.65-5.53-9.44-6.67a4.35 4.35 0 0 0-1.11-.17z" fill="#AB9479"/><linearGradient id="b" x1="41.542" x2="41.542" y1="66.443" y2="116.53" gradientUnits="userSpaceOnUse"><stop stop-color="#E0C3A0" offset=".226"/><stop stop-color="#DCC09D" offset=".421"/><stop stop-color="#D1B695" offset=".608"/><stop stop-color="#BDA587" offset=".792"/><stop stop-color="#A38D73" offset=".972"/><stop stop-color="#9E8970" offset=".998"/></linearGradient><path d="M48.49 91.98c.14-1.08-13.69-7.84-13.69-7.84 4.7 8.73 1.17 20.47-1.43 30.12 5.46 0 10.87-.03 16.33-.03-.83-7.54-1.76-17.89-1.21-22.25z" fill="url(#b)" stroke="#AB9479" stroke-miterlimit="10" stroke-width="2.014"/><path d="M33.33 114.23c-1.01 5.13-2.3 9.34-2.3 9.34l19.72-.17s-.49-4.21-1.04-9.17H33.33z" fill="#575757" stroke="#AB9479" stroke-miterlimit="10" stroke-width="2.014"/><linearGradient id="c" x1="101.17" x2="101.17" y1="65.926" y2="116.53" gradientUnits="userSpaceOnUse"><stop stop-color="#E0C3A0" offset=".226"/><stop stop-color="#DCC09D" offset=".421"/><stop stop-color="#D1B695" offset=".608"/><stop stop-color="#BDA587" offset=".792"/><stop stop-color="#A38D73" offset=".972"/><stop stop-color="#9E8970" offset=".998"/></linearGradient><path d="M108.56 92.23c.14-1.12-16.11-8.43-16.11-8.43 9.14 5.79 3.61 26.18.75 32.38h16.69c-.86-7.83-1.9-19.25-1.33-23.95z" fill="url(#c)" stroke="#AB9479" stroke-miterlimit="10" stroke-width="2.014"/><path d="M93.04 116.77c-1.26 2.27-2.52 6.4-2.52 6.4l20.3-.05s-.44-2.85-.94-6.76c-5.6-.01-11.07.41-16.84.41zM38.42 123.4h16.99s-.76-3.5-1.4-8.39H39.95c-.74 4.86-1.53 8.39-1.53 8.39z" fill="#575757" stroke="#AB9479" stroke-miterlimit="10" stroke-width="2.014"/><path d="M99.13 116.01c-1.01 4.25-2.19 7.17-2.19 7.17h19.51s-.55-3.06-1.18-7.17H99.13z" fill="#575757" stroke="#AB9479" stroke-miterlimit="10" stroke-width="2.014"/><linearGradient id="d" x1="71.896" x2="71.896" y1="42.642" y2="107.69" gradientUnits="userSpaceOnUse"><stop stop-color="#E0C3A0" offset=".226"/><stop stop-color="#DCC09D" offset=".421"/><stop stop-color="#D1B695" offset=".608"/><stop stop-color="#BDA587" offset=".792"/><stop stop-color="#A38D73" offset=".972"/><stop stop-color="#9E8970" offset=".998"/></linearGradient><path d="M112.67 95.88c-.5-11.07 2.66-16.31 3.35-27.69.32-5.28-3.68-25.04-22.22-19.13-22.9 7.3-25.92 5.54-34.23 4.03-6.2-1.13-31.81-22.9-31.81 3.86 0 15.53 5.97 27.52 13.02 36.58 1.1 6.09.18 14.98-.82 21.48h14.06c-.88-6.68-1.89-17.29-.15-23.83 27.52 12.42 33.9-3.61 44.97 3.82 4.03 3.9 1.7 15.16.3 21.02h16.14c-.97-6.27-2.18-10.83-2.61-20.14z" fill="url(#d)" stroke="#AB9479" stroke-miterlimit="10" stroke-width="2.014"/><g stroke="#8C6239" stroke-linecap="round" stroke-linejoin="round" stroke-miterlimit="10"><path d="M14.83 6.26c-.14-.6.59-1.02 1.04-.59 5.17 4.98 14.92 13.6 14.77 15.43-.28 3.48-8.98 7.52-10.7 3.54-2.2-5.08-3.79-12.56-5.11-18.38zM56.25 6.26c.14-.6-.59-1.02-1.04-.59-5.17 4.98-14.92 13.6-14.77 15.43.28 3.48 8.98 7.52 10.7 3.54 2.2-5.08 3.79-12.56 5.11-18.38z" fill="#C98B4D" stroke-width="2"/><path d="M17.12 14.22c1.09-.43 2.17-.85 3.26-1.28M19.95 17.25c1.81-.12 3.52-1.27 4.32-2.91M21.6 20.92a9.398 9.398 0 0 0 5.36-3.9M46 19.25c1.07 1.94 3.33 3.16 5.54 2.99M48.89 14.74c.69 1.5 2.22 2.58 3.87 2.74M50.91 10.03c.77 1.17 2.1 1.95 3.49 2.06" fill="none" stroke-width="1.641"/></g><path d="M19.33 25.14s-7.52-5.33-14.9 1.37c-3.26 2.95 12.99 7.25 14.22 5.06 1.33-2.38 2.05-4.25.68-6.43zM50.68 25.14s7.52-5.33 14.9 1.37c3.26 2.95-12.99 7.25-14.22 5.06-1.33-2.38-2.05-4.25-.68-6.43z" fill="#B07F45" stroke="#BDA486" stroke-miterlimit="10" stroke-width="2"/><path d="M55 36.97c0-12.51-7.81-19.95-19.47-19.95s-19.47 7.44-19.47 19.95c0 12.65 7.71 27.68 19.47 27.68C48.17 64.65 55 47.96 55 36.97z" fill="#E0C3A0"/><defs><path id="e" d="M55 36.97c0-12.51-7.81-19.95-19.47-19.95s-19.47 7.44-19.47 19.95c0 12.65 7.71 27.68 19.47 27.68C48.17 64.65 55 47.96 55 36.97z"/></defs><clipPath id="f"><use xlink:href="#e"/></clipPath><circle cx="35.76" cy="62.19" r="20.37" clip-path="url(#f)" fill="#fff"/><g fill="none" stroke="#595959" stroke-linecap="round" stroke-linejoin="round" stroke-miterlimit="10" stroke-width="1.149"><path d="M35.43 51.96c0 3.7-1.27 5.02-2.83 5.02s-2.83-1.29-2.83-2.88M41.28 54.1c0 1.59-1.27 2.88-2.83 2.88s-2.8-1.69-2.8-5.06"/></g><ellipse cx="35.51" cy="49" rx="4.87" ry="2.61" fill="#EEC7B3"/><ellipse cx="24.52" cy="37.12" rx="3.51" ry="3.41" fill="#404040"/><ellipse cx="46.12" cy="37.12" rx="3.51" ry="3.41" fill="#404040"/><path d="M40.38 67.46c.18.14 2.22 1.18 2.22 1.11a11.77 11.77 0 0 1-.86-5.86c-.79.27-1.82.47-2.5.89-.94.03-1.82.18-3.19.26-1.71.1-3.41-.33-4.87-1.02-.23 4.41 2.94 7.58 5.66 8.6-.34-1.24-.41-1.91-.23-2.83 1.24 1.55 2.04 2.83 4.53 4.3-.75-1.65-1.05-3.69-1.04-5.68.11.09.2.17.28.23z" fill="#6E5F4D"/><path d="M35.39 19.02C46.25 19.02 53 25.9 53 36.97c0 10.72-6.7 25.68-17.61 25.68-6.37 0-10.61-5.12-12.56-8.18-3.16-4.93-5.05-11.48-5.05-17.51 0-11.06 6.74-17.94 17.61-17.94m0-2c-11.74 0-19.61 7.44-19.61 19.95 0 12.65 7.77 27.68 19.61 27.68C48.12 64.65 55 47.96 55 36.97c0-12.51-7.87-19.95-19.61-19.95z" fill="#AB9479"/></svg>