<svg viewBox="0 0 128 128" width="128" height="128" xmlns="http://www.w3.org/2000/svg"><path d="M52.62 65.62l-.27-.81c-.27-.8-.47-1.88-.2-2.68a1.72 1.72 0 1 0-3.35-.55c0 .57.28 1.07.7 1.39.71.52.99 1.12 1.28 1.95l.25.73c.07.21.59.4.8.4.05 0 .11-.01.16-.03.28-.09.72-.13.63-.4z" stroke="#655C5A" stroke-linecap="round" stroke-linejoin="round" stroke-miterlimit="10"/><path d="M36.43 106.65c-.07 0-.13-.01-.19-.03l-14.68-4.7a.53.53 0 0 1-.29-.24.48.48 0 0 1-.03-.37l.39-1.19a3.44 3.44 0 0 1 3.07-2.37l6.44-.05 6.27 2.02c.24.62.91 2.54.48 3.86l-.84 2.64a.67.67 0 0 1-.62.43z" fill="#3C469A"/><path d="M31.05 98.2l5.97 1.92c.29.82.7 2.33.39 3.31l-.84 2.64c-.02.06-.07.09-.14.09h-.02l-14.68-4.69.39-1.19c.38-1.15 1.4-1.94 2.6-2.02l6.33-.06m.15-1.01l-6.54.05c-1.61.1-3 1.18-3.51 2.71l-.39 1.19c-.17.52.12 1.08.64 1.25l14.68 4.7c.12.04.23.05.35.05.48 0 .93-.31 1.08-.79l.84-2.64c.58-1.79-.58-4.42-.58-4.42l-6.57-2.1z" fill="#232B84"/><path d="M30.26 96.66l6.62-16.52c2.98-7.05 6.24-7.65 10.38-8.42l.33-.06 12.14-2.11c.18-.03.33-.16.39-.33l1.07-3.12h17.69c.28 1.84 1.2 9.42-1.76 13.52-1.07 1.48-2.55 2.36-4.42 2.61-3.62.49-8.47.74-14.39.74-5.58 0-10.1-.23-10.15-.23h-.03c-.19 0-.36.1-.44.27l-8.84 17.23-8.59-3.58z" fill="#7C7C7C"/><path d="M78.44 66.6c.32 2.32.94 9.03-1.74 12.73-1 1.38-2.33 2.17-4.08 2.41-3.6.49-8.42.74-14.32.74-5.56 0-10.08-.23-10.12-.23h-.05c-.37 0-.72.21-.89.54L38.6 99.6l-7.7-3.21 6.43-16.05c2.88-6.81 5.87-7.36 10.01-8.13l.32-.06 12.15-2.11c.36-.06.66-.32.78-.66l.95-2.79h16.9m.86-.99H60.83l-1.18 3.46-12.15 2.11c-4.32.8-7.91 1.28-11.08 8.78l-6.81 16.98 9.46 3.95 9.06-17.64s4.52.23 10.17.23c4.68 0 10.14-.16 14.46-.75 9.5-1.28 6.54-17.12 6.54-17.12z" fill="#5B5B5B"/><linearGradient id="a" x1="184.02" x2="196.43" y1="-222.17" y2="-197.1" gradientTransform="rotate(-6.465 2183.263 898.537)" gradientUnits="userSpaceOnUse"><stop stop-color="#E0BB95" offset=".557"/><stop stop-color="#CCA47A" offset="1"/></linearGradient><path d="M74.14 37.33c1.25-2.36 1.12-2.76 1.08-2.93a.668.668 0 0 0-.29-.35c-.16-.08-.32-.12-.51-.12-.08 0-.16.01-.27.01-.15.01-.34.03-.63.03-.41 0-.91-.03-1.47-.1-4.14-.47-4.17-2.51-4.19-4.15-.01-.7-.01-1.3-.36-1.71-.1-.12-.26-.2-.56-.36-.4-.21-1.61-.84-1.49-1.29.13-.53.74-1.1 1.32-1.65.8-.76 1.63-1.54 1.53-2.5 0-.25-.12-.87-.26-1.5l-.03-.14c-.24-1.26-.19-2.98.14-4.61 1.04-5.13 4.24-8.27 9.01-8.83.33-.04.67-.06 1.01-.06 4.24 0 9.11 2.99 11.32 6.94 1.49 2.67 1.59 8.76-1.33 11.7-3.22 3.24-5.1 8.54-5.53 9.84l-8.49 1.78z" fill="url(#a)"/><path d="M78.17 7.58c4.01 0 8.79 2.94 10.88 6.69 1.38 2.48 1.47 8.37-1.25 11.1-3.1 3.12-4.98 8.08-5.56 9.76l-7.19 1.5c.83-1.73.72-2.1.64-2.37a1.05 1.05 0 0 0-.53-.65c-.23-.12-.47-.18-.74-.18-.09 0-.19.01-.31.02-.14.01-.32.03-.59.03-.39 0-.87-.03-1.42-.09-3.7-.42-3.72-1.99-3.74-3.66-.01-.76-.02-1.48-.47-2.03-.17-.2-.37-.31-.71-.49-.67-.35-1.08-.62-1.21-.8.15-.38.7-.9 1.15-1.32.84-.79 1.79-1.69 1.69-2.87-.01-.32-.12-.87-.27-1.59l-.03-.13c-.23-1.2-.18-2.85.14-4.41.57-2.84 2.45-7.71 8.58-8.44.3-.05.62-.07.94-.07m0-1c-.36 0-.71.02-1.07.06-5.4.64-8.46 4.37-9.44 9.23-.36 1.76-.38 3.53-.14 4.8.03.15.28 1.26.28 1.6.14 1.33-2.47 2.53-2.84 3.97-.28 1.09 1.98 1.89 2.15 2.09.85 1.02-1.39 5.33 4.87 6.04.69.08 1.17.1 1.53.1.49 0 .73-.04.9-.04.1 0 .18.02.28.06.36.19-1.51 3.54-1.51 3.54l9.83-2.05s1.93-6.33 5.5-9.91c3.18-3.19 2.94-9.57 1.42-12.3-2.19-3.92-7.2-7.19-11.76-7.19z" fill="#BA8F63"/><path d="M70.27 28.09l-2.44.27s.2 1.12.32 1.58c.64 2.49 2.19 5.16 6.53 5.08.39-.01-1.84-5.6-1.84-5.6l-2.57-1.33z" fill="none"/><path d="M67.64 30.99c.87.09 1.74-.08 2.5-.59.83-.56.31-1.25-.63-.9-.57.21-1.36.29-2.07.13l.2 1.36z" fill="#5B3026"/><ellipse transform="rotate(-89.209 71.667 23.183)" cx="71.67" cy="23.18" rx="1.77" ry="1.15" fill="#4A261F"/><path d="M70.89 20.53c-1.15.22-1.34-.55-.91-1.1.32-.41 1.03-.71 2.31-.32 1.21.36 1.64 1.12 1.93 1.59.29.46.21.89-.08.9-.39 0-1.83-1.33-3.25-1.07z" fill="#AB872F"/><radialGradient id="b" cx="135.45" cy="-146.75" r="12.251" gradientTransform="matrix(1.0385 .0161 -.00956 1.0002 -65.556 155.78)" gradientUnits="userSpaceOnUse"><stop stop-color="#BFA055" offset="0"/><stop stop-color="#AB872F" offset="1"/></radialGradient><path d="M80.91 22.84c.17-.49.5-1.36.74-1.77.78-1.37 1.9-.81 1.91-.81 1.53.62 1.92 3.84-.72 5.59-.06.04-.21.14-.16.47.12.81.65 2.82 2.97 3.5.31.09.58.15.83.18.79.1 1.51-.47 1.67-1.26.97-4.8 3.01-3.28 4.23-9.39 1.55-7.71-5.03-12.94-11.6-13.59-5.92-.58-13.99 1.64-14.11 9.28-.02 1.4.78 2.23.78 2.23s1.61-3.4 5.37-2.2c3.78 1.21 5.52.45 5.52.45-1.45 3-.06 4.66.9 5.68.55.58 1.05 1.25 1.33 1.64.14.21.27.21.34 0z" fill="url(#b)"/><path d="M90.98 10.75c-2.24-3.03-6.04-5.08-10.16-5.49-3.58-.36-8.54.28-11.72 3.12-1.91 1.71-3.11 4.02-2.94 6.66.1 1.59 1.2 2.37 1.2 2.37l.25-.44s-.41-.55-.45-1.91c-.07-2.43.91-4.41 2.6-5.92 2.94-2.62 7.58-3.2 10.95-2.87 3.78.37 7.41 2.32 9.45 5.09 1.69 2.28 2.28 5.02 1.7 7.91-.62 3.12-1.45 4.15-2.25 5.15-.74.92-1.31 1.7-1.86 4.07-.28 1.2-1.38 1.52-1.3 1.53 1.32.15 2.08-.36 2.28-1.34.43-2.14.93-2.74 1.66-3.64.83-1.04 1.78-2.22 2.45-5.57.66-3.19.01-6.2-1.86-8.72z" fill="#8F7635"/><linearGradient id="c" x1="64.41" x2="83.819" y1="52.665" y2="52.665" gradientTransform="rotate(12.545 69.448 46.671)" gradientUnits="userSpaceOnUse"><stop stop-color="#651FFF" offset="0"/><stop stop-color="#5914F2" offset=".705"/><stop stop-color="#530EEB" offset="1"/></linearGradient><path d="M76.08 72.88c-8.22 0-15.03-3.31-16.51-4.09.33-2.16 2.28-14.02 6.69-22.47 2.86-5.47 4.7-7.34 6.92-8.72 1.38-.86 3.87-1.73 6.31-1.73 1.31 0 3.1.26 4.14 1.5 1.85 2.19 1.67 3.28 1.31 5.46-.06.37-.12.76-.18 1.19L78.33 72.8c-.74.05-1.49.08-2.25.08z" fill="url(#c)"/><path d="M79.5 36.36c1.21 0 2.84.23 3.76 1.32 1.7 2.02 1.55 2.91 1.2 5.05-.06.36-.12.74-.18 1.16L77.93 72.3c-.61.04-1.23.06-1.85.06-7.61 0-14.02-2.9-15.96-3.87.45-2.85 2.41-13.95 6.59-21.96 2.82-5.4 4.54-7.16 6.74-8.53 1.32-.81 3.7-1.64 6.05-1.64m-.01-1c-2.38 0-4.97.8-6.58 1.8-2.47 1.54-4.32 3.6-7.1 8.92-4.95 9.47-6.8 22.98-6.8 22.98s7.56 4.31 17.06 4.31c.87 0 1.76-.04 2.66-.12l6.52-29.18c.42-3.02 1.08-4.28-1.24-7.04-1.01-1.2-2.7-1.67-4.52-1.67z" fill="#4A00ED"/><radialGradient id="d" cx="63.254" cy="54.237" r="13.776" gradientTransform="rotate(1.621 67.391 50.97)" gradientUnits="userSpaceOnUse"><stop stop-color="#E0BB95" offset=".002"/><stop stop-color="#CCA47A" offset=".755"/></radialGradient><path d="M79.3 47.9l-7.95-1.49c-.01 0 .58.34.58.35-.08.29-2.49 7.61-2.49 7.61l-11.77 2.84s-5.15-.98-5.9-.93c-1.42.09-2.53.94-3.44 1.88-1.03 1.05-2.94 1.04-3.15 2.5-.17 1.2 2.87.29 3.38-.33.18-.22 1.49-.77 1.85-.71.57.1 1.22.38 1.79.48.93.16 1.78 1.08 2.65 1.44.63.26 1.37.43 2.04.24.31-.09.51-.23.83-.25.24-.01 10.01-.51 14.02-.37 4.78.16 5.42-4.01 6.16-5.5.67-1.37 2.26-6.7 2.59-6.59 1.89.6-1.18-1.17-1.19-1.17z" fill="url(#d)"/><path d="M72.55 47.89l7.27 1.38c-.88 2.2-2.82 6.98-3.47 8.29-.92 1.85-1.48 2.97-6.19 2.97l-12.21.33c-.08 0-.17.01-.25.04-.89.25-1.32.29-1.53.29h-.01c-1.88-.1-2.67-1.19-2.7-1.23-.14-.21-.36-.36-.61-.42l-2.14-.5a.852.852 0 0 0-.23-.03c-.15 0-.3.03-.43.1-.03.01-2.76 1.33-3.93 1.81-.07.03-.14.04-.19.04-.14 0-.18-.1-.2-.15-.06-.18.13-.35.25-.43 2.68-1.83 4.66-3.37 4.68-3.38.02-.02.04-.03.06-.05.15-.13.55-.27.97-.27.08 0 .16.01.22.02.54.13 4.02.93 5.27.93.09 0 .17 0 .24-.01.92-.09 2.41-.29 2.71-.33.03 0 .07-.01.1-.02l8.94-2.18c.31-.08.57-.3.69-.6l2.69-6.6m-.62-1.13l-2.99 7.38L60 56.32s-1.69.23-2.66.33c-.04 0-.09.01-.15.01-1.2 0-5.07-.91-5.07-.91-.13-.02-.27-.03-.42-.03-.58 0-1.25.18-1.64.53 0 0-1.94 1.51-4.63 3.35-1.26.86-.64 2.4.51 2.4.18 0 .37-.04.57-.12 1.21-.5 3.98-1.83 3.98-1.83l2.14.5s1.03 1.55 3.48 1.67h.1c.52 0 1.26-.19 1.77-.33l12.21-.33c5.31 0 6.05-1.51 7.06-3.54.87-1.76 3.95-9.48 3.95-9.48l-9.27-1.78z" fill="#BA8F63"/><path d="M70.3 49.68l3.45-8.57c.76-1.9 2.58-3.12 4.62-3.12.64 0 1.26.12 1.86.36 1.23.5 2.2 1.44 2.72 2.67.52 1.22.54 2.58.04 3.81l-3.45 8.57-9.24-3.72z" fill="#3615AF"/><path d="M78.37 38.49c.57 0 1.13.11 1.67.32 1.11.45 1.98 1.3 2.45 2.4s.48 2.32.04 3.43l-3.26 8.11-8.31-3.34 3.26-8.11a4.44 4.44 0 0 1 4.15-2.81m0-1c-2.17 0-4.23 1.3-5.09 3.44l-3.63 9.04 10.17 4.09 3.63-9.04c1.13-2.81-.23-6-3.04-7.13-.67-.28-1.36-.4-2.04-.4z" fill="#27089C"/><linearGradient id="e" x1="82.335" x2="96.243" y1="104.35" y2="104.35" gradientUnits="userSpaceOnUse"><stop stop-color="#655C5A" offset=".158"/><stop stop-color="#5A5250" offset=".335"/><stop stop-color="#3D3736" offset=".646"/><stop stop-color="#141111" offset="1"/></linearGradient><path fill="url(#e)" d="M82.33 102.05h13.91v4.61H82.33z"/><path d="M95.74 102.55v3.61H82.83v-3.61h12.91m1-1H81.83v5.61h14.91v-5.61z" fill="#655C5A"/><linearGradient id="f" x1="28.816" x2="32.762" y1="116.56" y2="106.93" gradientUnits="userSpaceOnUse"><stop stop-color="#4E4545" offset=".21"/><stop stop-color="#433C3D" offset=".441"/><stop stop-color="#252529" offset=".844"/><stop stop-color="#181A20" offset="1"/></linearGradient><path d="M39.78 112.12c-.82 0-1.48-.12-1.83-.23l-18.34-6.13c-.43-.14-.78-.44-.99-.84s-.24-.86-.1-1.29c.23-.7.87-1.17 1.61-1.17.18 0 .35.03.52.08l17.7 5.87c.05.02.1.03.16.03.14 0 .28-.06.38-.17l9.62-10.94 1.85 4.77c-1.19 1.41-7.55 8.94-7.75 9.17-.47.53-1.5.85-2.83.85z" fill="url(#f)"/><path d="M48.34 98.26l1.44 3.72c-1.56 1.85-7.37 8.72-7.56 8.94-.36.43-1.3.69-2.45.69-.76 0-1.38-.11-1.67-.21l-18.35-6.14a1.186 1.186 0 0 1-.76-1.5c.16-.49.62-.82 1.13-.82.12 0 .25.02.36.06l17.71 5.87a.996.996 0 0 0 1.06-.29l9.09-10.32m.34-1.9l-10.16 11.56-17.71-5.87c-.23-.07-.45-.11-.68-.11-.92 0-1.78.59-2.09 1.52-.37 1.15.26 2.39 1.41 2.76l18.34 6.14c.46.15 1.19.26 1.98.26 1.21 0 2.55-.26 3.21-1.05l7.94-9.4-2.24-5.81z" fill="#4E4545"/><radialGradient id="g" cx="41.125" cy="112.45" r="9.476" gradientUnits="userSpaceOnUse"><stop stop-color="#AFB8B6" offset=".017"/><stop stop-color="#A4AEAD" offset=".183"/><stop stop-color="#869295" offset=".475"/><stop stop-color="#57656F" offset=".857"/><stop stop-color="#43535F" offset="1"/></radialGradient><path d="M44.55 123.5c-3.76 0-6.82-3.06-6.82-6.82s3.06-6.82 6.82-6.82 6.82 3.06 6.82 6.82-3.06 6.82-6.82 6.82z" fill="url(#g)"/><path d="M44.55 110.36c3.49 0 6.32 2.84 6.32 6.32S48.04 123 44.55 123s-6.32-2.84-6.32-6.32 2.84-6.32 6.32-6.32m0-1c-4.04 0-7.32 3.28-7.32 7.32s3.28 7.32 7.32 7.32 7.32-3.28 7.32-7.32-3.27-7.32-7.32-7.32z" fill="#2F3B4B"/><path d="M44.55 119.6c-1.61 0-2.92-1.31-2.92-2.92s1.31-2.92 2.92-2.92 2.92 1.31 2.92 2.92-1.31 2.92-2.92 2.92z" fill="#141111"/><path d="M44.55 114.26c1.33 0 2.42 1.08 2.42 2.42s-1.08 2.42-2.42 2.42-2.42-1.08-2.42-2.42 1.09-2.42 2.42-2.42m0-1c-1.89 0-3.42 1.53-3.42 3.42s1.53 3.42 3.42 3.42 3.42-1.53 3.42-3.42-1.53-3.42-3.42-3.42z" fill="#2F2829"/><path d="M44.55 116.85c-.76 0-1.38-.62-1.38-1.38v-10.72h2.75v10.72c.01.76-.61 1.38-1.37 1.38z" fill="#43535F"/><path d="M45.43 105.25v10.22c0 .48-.39.88-.88.88s-.88-.39-.88-.88v-10.22h1.76m1-1h-3.75v11.22c0 1.04.84 1.88 1.88 1.88s1.88-.84 1.88-1.88v-11.22h-.01z" fill="#2F3B4B"/><linearGradient id="h" x1="47.455" x2="47.455" y1="99.091" y2="106.83" gradientUnits="userSpaceOnUse"><stop stop-color="#B80000" offset=".351"/><stop stop-color="#AD0000" offset=".52"/><stop stop-color="#8F0000" offset=".817"/><stop stop-color="#7A0000" offset="1"/></linearGradient><path d="M44.25 106.92c-1.57 0-2.85-1.28-2.85-2.85v-1.4c0-.77.32-1.52.88-2.06l8.5-8.14 2.72 14.44h-9.25z" fill="url(#h)"/><path d="M50.46 93.47l2.44 12.94h-8.65c-1.3 0-2.35-1.05-2.35-2.35v-1.4c0-.64.26-1.26.72-1.7l7.84-7.49m.65-2l-9.17 8.78a3.35 3.35 0 0 0-1.03 2.42v1.4c0 1.85 1.5 3.35 3.35 3.35h9.86l-3.01-15.95z" fill="#7A0000"/><g opacity=".2"><radialGradient id="i" cx="50.842" cy="99.696" r="5.443" gradientUnits="userSpaceOnUse"><stop stop-color="#2F2829" offset=".15"/><stop stop-color="#241E1F" offset=".574"/><stop stop-color="#141111" offset="1"/></radialGradient><path fill="url(#i)" d="M51.09 106.92l-2.91-11.95 2.61-2.5 2.72 14.45z"/><path d="M50.46 93.47l2.44 12.94h-1.42l-2.75-11.29 1.73-1.65m.68-1.84l-.2.01-3.31 3.17 3.08 12.61h3.41l-2.98-15.79z" fill="#141111"/></g><radialGradient id="j" cx="93.315" cy="112.45" r="9.476" gradientUnits="userSpaceOnUse"><stop stop-color="#AFB8B6" offset=".017"/><stop stop-color="#A4AEAD" offset=".183"/><stop stop-color="#869295" offset=".475"/><stop stop-color="#57656F" offset=".857"/><stop stop-color="#43535F" offset="1"/></radialGradient><circle cx="96.74" cy="116.68" r="6.82" fill="url(#j)"/><path d="M96.74 110.36c3.49 0 6.32 2.84 6.32 6.32s-2.84 6.32-6.32 6.32-6.32-2.84-6.32-6.32 2.84-6.32 6.32-6.32m0-1c-4.04 0-7.32 3.28-7.32 7.32S92.7 124 96.74 124s7.32-3.28 7.32-7.32-3.27-7.32-7.32-7.32z" fill="#2F3B4B"/><circle cx="96.74" cy="116.68" r="2.92" fill="#141111"/><path d="M96.74 114.26c1.33 0 2.42 1.08 2.42 2.42s-1.08 2.42-2.42 2.42-2.42-1.08-2.42-2.42 1.09-2.42 2.42-2.42m0-1c-1.89 0-3.42 1.53-3.42 3.42s1.53 3.42 3.42 3.42 3.42-1.53 3.42-3.42-1.53-3.42-3.42-3.42z" fill="#2F2829"/><radialGradient id="k" cx="68.192" cy="94.795" r="3.089" gradientUnits="userSpaceOnUse"><stop stop-color="#AFB8B6" offset=".017"/><stop stop-color="#A4AEAD" offset=".183"/><stop stop-color="#869295" offset=".475"/><stop stop-color="#57656F" offset=".857"/><stop stop-color="#43535F" offset="1"/></radialGradient><path fill="url(#k)" d="M66.49 90.77h3.4v8.05h-3.4z"/><path d="M69.39 91.27v7.05h-2.4v-7.05h2.4m1-1h-4.4v9.05h4.4v-9.05z" fill="#2F3B4B"/><linearGradient id="l" x1="66.517" x2="66.517" y1="87.479" y2="70.178" gradientUnits="userSpaceOnUse"><stop stop-color="#4E4545" offset="0"/><stop stop-color="#433B3B" offset=".269"/><stop stop-color="#252021" offset=".74"/><stop stop-color="#141111" offset=".977"/></linearGradient><path d="M65.42 86.28c-.73-.96-2.49-3.92-2.49-10.13 0-6.22 1.77-9.18 2.5-10.14l4.47 1.95c-.68 1.05-1.97 3.64-1.97 8.19 0 4.52 1.4 6.96 2.18 7.96l-4.69 2.17z" fill="url(#l)"/><path d="M65.6 66.64l3.58 1.56c-.74 1.33-1.75 3.91-1.75 7.96 0 4.02 1.1 6.47 1.93 7.76l-3.76 1.74c-.75-1.15-2.16-4.04-2.16-9.5-.01-5.49 1.42-8.39 2.16-9.52m-.32-1.24c-.48.53-2.85 3.52-2.85 10.74s2.37 10.22 2.85 10.74l5.65-2.61s-2.5-2.18-2.5-8.13c0-5.9 2.24-8.4 2.24-8.4l-5.39-2.34z" fill="#655C5A"/><linearGradient id="m" x1="68.442" x2="68.442" y1="108.09" y2="91.13" gradientUnits="userSpaceOnUse"><stop stop-color="#CB0A05" offset="0"/><stop stop-color="#F31612" offset=".271"/><stop stop-color="#F31612" offset=".892"/><stop stop-color="#D80E09" offset=".956"/><stop stop-color="#CB0A05" offset="1"/></linearGradient><path d="M55.28 109.43c-2.27 0-2.8-1.33-3.14-4.31l-2.15-15.06h36.9l-2.14 15.05c-.34 2.99-.88 4.32-3.14 4.32H55.28z" fill="url(#m)"/><path d="M86.31 90.56l-2.07 14.51c-.35 3.07-.89 3.86-2.64 3.86H55.28c-1.75 0-2.29-.79-2.65-3.89l-2.06-14.48h35.74m1.16-1H49.42l2.23 15.62c.31 2.75.81 4.75 3.64 4.75H81.6c2.82 0 3.32-2.01 3.64-4.75l2.23-15.62z" fill="#B80000"/><g opacity=".2"><radialGradient id="n" cx="68.442" cy="90.814" r="13.055" gradientUnits="userSpaceOnUse"><stop stop-color="#2F2829" offset=".15"/><stop stop-color="#241E1F" offset=".574"/><stop stop-color="#141111" offset="1"/></radialGradient><path fill="url(#n)" d="M50.21 91.57l-.22-1.51h36.9l-.22 1.51z"/><path d="M86.31 90.56l-.07.51h-35.6l-.07-.51h35.74m1.16-1zm0 0H49.42l.36 2.51h37.33l.36-2.51z" fill="#141111"/></g><linearGradient id="o" x1="68.492" x2="68.492" y1="80.198" y2="89.236" gradientUnits="userSpaceOnUse"><stop stop-color="#4E4545" offset="0"/><stop stop-color="#433B3B" offset=".136"/><stop stop-color="#2F2829" offset=".303"/><stop stop-color="#241E1F" offset=".65"/><stop stop-color="#141111" offset="1"/></linearGradient><path d="M50.01 90.33a1.47 1.47 0 0 1-1.46-1.49l.08-4.61c.01-.79.66-1.44 1.46-1.45l38.16-.19.19 5.44c.02.64-.22 1.25-.67 1.72-.45.46-1.05.72-1.7.72l-36.06-.14z" fill="url(#o)"/><path d="M87.76 83.11l.17 4.95c.02.51-.17.99-.53 1.36-.35.37-.83.57-1.35.57L50 89.85c-.26 0-.5-.1-.68-.29s-.28-.43-.28-.69l.08-4.61c.01-.52.44-.95.96-.95l37.68-.2m.97-1.01l-38.65.2c-1.07.01-1.94.87-1.95 1.94l-.08 4.61c-.02 1.09.86 1.99 1.96 1.99l36.05.14h.01c1.62 0 2.91-1.34 2.87-2.95l-.21-5.93z" fill="#655C5A"/><linearGradient id="p" x1="68.442" x2="68.442" y1="93.466" y2="105.17" gradientUnits="userSpaceOnUse"><stop stop-color="#9F0B00" offset=".533"/><stop stop-color="#9F0B00" stop-opacity="0" offset=".976"/></linearGradient><path d="M54.11 105.17h28.67s-.88-11.71-13.93-11.71-14.74 11.71-14.74 11.71z" fill="url(#p)"/><radialGradient id="q" cx="63.365" cy="100.6" r="17.005" gradientUnits="userSpaceOnUse"><stop stop-color="#AFB8B6" offset=".017"/><stop stop-color="#A4AEAD" offset=".183"/><stop stop-color="#869295" offset=".475"/><stop stop-color="#57656F" offset=".857"/><stop stop-color="#43535F" offset="1"/></radialGradient><path d="M68.44 123c-7.07 0-12.82-5.75-12.82-12.82s5.75-12.82 12.82-12.82 12.82 5.75 12.82 12.82S75.51 123 68.44 123z" fill="url(#q)"/><path d="M68.44 98.36c6.52 0 11.82 5.3 11.82 11.82S74.96 122 68.44 122s-11.82-5.3-11.82-11.82 5.31-11.82 11.82-11.82m0-2c-7.63 0-13.82 6.19-13.82 13.82S60.81 124 68.44 124s13.82-6.19 13.82-13.82-6.19-13.82-13.82-13.82z" fill="#2F3B4B"/><path d="M68.44 116.11c-3.42 0-6.2-2.78-6.2-6.2s2.78-6.2 6.2-6.2 6.2 2.78 6.2 6.2-2.78 6.2-6.2 6.2z" fill="#AFB8B6"/><path d="M68.44 104.2c3.15 0 5.7 2.56 5.7 5.7s-2.56 5.7-5.7 5.7-5.7-2.56-5.7-5.7 2.56-5.7 5.7-5.7m0-1a6.7 6.7 0 1 0 0 13.4 6.7 6.7 0 0 0 0-13.4z" fill="#2F3B4B"/><path d="M68.44 111.89c-1.09 0-1.99-.89-1.99-1.98s.89-1.98 1.99-1.98c1.09 0 1.98.89 1.98 1.98s-.88 1.98-1.98 1.98z" fill="#2F2829"/><path d="M68.44 108.42c.82 0 1.48.67 1.48 1.48s-.67 1.48-1.48 1.48-1.48-.67-1.48-1.48.66-1.48 1.48-1.48m0-1a2.48 2.48 0 1 0 0 4.96 2.48 2.48 0 0 0 0-4.96z" fill="#141111"/><path d="M96.74 116.85c-.76 0-1.38-.62-1.38-1.38V99.84h2.75v15.63c.01.76-.61 1.38-1.37 1.38z" fill="#43535F"/><path d="M97.62 100.34v15.13c0 .48-.39.88-.88.88s-.88-.39-.88-.88v-15.13h1.76m1-1h-3.75v16.13c0 1.04.84 1.88 1.88 1.88s1.88-.84 1.88-1.88V99.34h-.01z" fill="#2F3B4B"/><ellipse cx="96.74" cy="99.45" rx="1.88" ry=".75" fill="#070606"/><path d="M55.78 64.26L54.5 65.6h-6.92l-6.6-3.42c-.37-.19-1.5.39-.53 1.2l7.65 5.43c.45.32 1 .49 1.55.49h2.45c1.54 0 2.35-.84 3.17-2.16.31-.51.6-1.09.6-1.09l-.09-1.79z" stroke="#655C5A" stroke-linecap="round" stroke-linejoin="round" stroke-miterlimit="10"/><radialGradient id="r" cx="86.951" cy="32.185" r="4.689" gradientTransform="matrix(1.6234 .3557 -.214 .9768 -43.436 -29.126)" gradientUnits="userSpaceOnUse"><stop stop-color="#AFB8B6" offset=".017"/><stop stop-color="#A4AEAD" offset=".183"/><stop stop-color="#869295" offset=".475"/><stop stop-color="#57656F" offset=".857"/><stop stop-color="#43535F" offset="1"/></radialGradient><path fill="url(#r)" d="M88.24 41.57l2.82-12.88 2.5.55-2.82 12.88z"/><path d="M91.44 29.29l1.53.33-2.61 11.9-1.53-.33 2.61-11.9m-.76-1.19l-3.04 13.85 3.48.76 3.04-13.85-3.48-.76z" fill="#2F3B4B"/><linearGradient id="s" x1="87.738" x2="97.665" y1="24.75" y2="26.272" gradientUnits="userSpaceOnUse"><stop stop-color="#4E4545" offset=".15"/><stop stop-color="#494141" offset=".203"/><stop stop-color="#231E1F" offset=".726"/><stop stop-color="#141111" offset="1"/></linearGradient><path d="M93.5 34.52c-.14 0-.28-.01-.42-.03l-3.79-.59c-.72-.11-1.35-.5-1.77-1.08-.43-.59-.6-1.3-.49-2.02l1.89-12.05a2.693 2.693 0 0 1 2.68-2.29c.14 0 .28.01.42.03l3.79.59c1.48.23 2.49 1.62 2.26 3.1l-1.89 12.05a2.734 2.734 0 0 1-2.68 2.29z" fill="url(#s)"/><path d="M91.59 16.95c.11 0 .23.01.35.03l3.79.59c1.21.19 2.03 1.32 1.84 2.53l-1.89 12.05a2.229 2.229 0 0 1-2.18 1.87c-.12 0-.23-.01-.35-.03l-3.79-.59c-.58-.09-1.1-.41-1.45-.88s-.49-1.06-.4-1.65l1.89-12.05a2.231 2.231 0 0 1 2.19-1.87m0-1a3.21 3.21 0 0 0-3.17 2.72l-1.89 12.05c-.27 1.75.92 3.4 2.68 3.67l3.79.59a3.21 3.21 0 0 0 3.67-2.68l1.89-12.05c.27-1.75-.92-3.4-2.68-3.67l-3.79-.59c-.17-.03-.34-.04-.5-.04z" fill="#655C5A"/><linearGradient id="t" x1="79.873" x2="91.553" y1="58.665" y2="61.407" gradientUnits="userSpaceOnUse"><stop stop-color="#4E4545" offset="0"/><stop stop-color="#2F2929" offset=".502"/><stop stop-color="#141111" offset="1"/></linearGradient><path d="M86.49 84.38c-.12 0-.25-.01-.38-.03-3.71-.62-9.85-2.86-9.34-10.85.7-11.05 4.83-24.6 8.16-32.85.99-2.46 2.67-3.87 4.6-3.87 1.09 0 2.12.47 2.9 1.32.97 1.06 1.43 2.58 1.29 4.28-.6 7.3-3.69 30.43-4.99 40.04a2.272 2.272 0 0 1-2.24 1.96z" fill="url(#t)"/><path d="M89.53 37.28c.95 0 1.85.41 2.54 1.15.88.95 1.29 2.34 1.16 3.9-.62 7.54-3.97 32.53-4.98 40.01-.12.88-.87 1.54-1.75 1.54-.1 0-.2-.01-.3-.02-8.25-1.38-9.13-7.06-8.93-10.33.7-10.99 4.81-24.48 8.13-32.7.91-2.26 2.41-3.55 4.13-3.55m0-1c-1.88 0-3.88 1.26-5.06 4.18-3.64 9.03-7.53 22.5-8.2 33.01-.53 8.41 5.99 10.75 9.76 11.38.16.03.31.04.46.04 1.36 0 2.55-1.01 2.74-2.4 1.09-8.06 4.37-32.55 4.99-40.06.31-3.74-2.08-6.15-4.69-6.15z" fill="#655C5A"/><linearGradient id="u" x1="46.338" x2="86.479" y1="65.378" y2="65.378" gradientUnits="userSpaceOnUse"><stop stop-color="#4E4545" offset="0"/><stop stop-color="#433B3B" offset=".211"/><stop stop-color="#2F2829" offset=".47"/><stop stop-color="#241E1F" offset=".722"/><stop stop-color="#141111" offset=".977"/></linearGradient><path d="M59.67 67.93c-3.23-.17-3.72-.7-3.84-2.58-.17-2.58 1.39-2.92 3.77-3.15l.47-.05c1.2-.13 3.13-.19 5.72-.19 5.8 0 13.04.33 13.12.33 1.66 0 2.81.36 3.46 1.07.54.59.77 1.48.67 2.64-.16 1.86-1.96 2.8-5.35 2.8l-18.02-.87z" fill="url(#u)"/><path d="M65.8 62.46c5.78 0 13.02.33 13.14.33 1.49 0 2.52.3 3.07.9.45.49.63 1.23.54 2.26-.13 1.55-1.77 2.34-4.81 2.34l-18.04-.86c-3.1-.16-3.27-.6-3.37-2.12-.13-2.08.86-2.38 3.32-2.62l.47-.05c1.19-.12 3.1-.18 5.68-.18m0-1c-2.32 0-4.42.05-5.78.2-2.08.22-4.91.22-4.69 3.72.15 2.38 1.14 2.89 4.31 3.05l18.04.87c2.25 0 5.61-.42 5.86-3.26.25-2.93-1.39-4.25-4.6-4.25 0 0-7.27-.33-13.14-.33z" fill="#655C5A"/><radialGradient id="v" cx="75.117" cy="36.629" r="8.343" gradientUnits="userSpaceOnUse"><stop stop-color="#BFA055" offset="0"/><stop stop-color="#AB872F" offset="1"/></radialGradient><path d="M82.54 40.68c-2.02-.3-3.58-.77-5.62-.62-4.44.31-5.76 2.28-5.76 2.28s.79-2.96 2.38-5.09c3.09-4.15 6.54-3.07 8.96-3.31 5.12-.5 3.4-4.09 3.4-4.09l.88-1.71s3.54 2.75 3.29 6.55c-.22 3.3-2.91 6.68-7.53 5.99z" fill="url(#v)"/><path d="M87.67 28.96s1.89 2.8 1.39 5.66c-.43 2.53-2.06 5.15-5.36 5.15-.33 0-.68-.03-1.03-.08-.53-.08-1.02-.17-1.51-.26-1.15-.21-2.25-.41-3.51-.41-.27 0-.55.01-.83.03-1.53.11-2.73.4-3.66.76.32-.67.71-1.36 1.16-1.97 1.98-2.65 3.97-2.87 6.02-2.87h1.11c.31 0 .73-.01 1.13-.04 2.09-.2 3.62-.85 4.16-2.12.5-1.17-.12-2.5-.6-3.05-.29-.33-.47-.15-.47-.15s1.94 3.82-3.19 4.32c-.33.03-.67.04-1.03.04s-.73-.01-1.11-.01c-2.1 0-4.56.23-6.82 3.28-1.59 2.13-2.38 5.09-2.38 5.09s1.32-1.97 5.76-2.28c.26-.02.51-.03.76-.03 1.69 0 3.1.39 4.87.65.41.06.8.09 1.18.09 3.9 0 6.16-3.07 6.36-6.08.17-2.65-1.42-4.72-2.4-5.72z" fill="#8F7635"/></svg>