<svg viewBox="0 0 128 128" width="128" height="128" xmlns="http://www.w3.org/2000/svg"><radialGradient id="a" cx="89.871" cy="25.203" r="10.57" gradientTransform="rotate(-5.616 80.901 20.972)" gradientUnits="userSpaceOnUse"><stop stop-color="#BFA055" offset="0"/><stop stop-color="#AB872F" offset="1"/></radialGradient><path d="M81.6 13.52s5.22-3.75 10.38-.63c7.19 4.34 1.68 13.53 3.25 18.68.88 2.88 3.72 4.32 3.72 4.32s-4.59 3.04-8.96-2.67c-3.2-4.18-1.54-10.59-3.54-14.98-1.2-2.64-4.66-2.99-4.66-2.99l-.19-1.73z" fill="url(#a)"/><path d="M95.94 37.17c-1.8 0-4.12-.75-6.34-3.66-1.91-2.5-2.17-5.69-2.41-8.78-.18-2.31-.36-4.49-1.19-6.3-1.07-2.34-4.23-2.7-4.26-2.7a.51.51 0 0 1-.45-.44l-.19-1.71c-.02-.18.06-.36.21-.46.06-.04 5.55-3.9 10.93-.66 4.95 2.99 4.23 8.11 3.6 12.63-.33 2.38-.65 4.62-.12 6.32.81 2.65 3.44 4 3.46 4.02.16.08.26.24.27.42s-.07.35-.22.45c-.02.01-1.36.87-3.29.87zM82.25 14.8c1.01.19 3.6.88 4.66 3.22.9 1.97 1.09 4.34 1.27 6.63.24 2.94.48 5.99 2.21 8.25 3.07 4.01 6.16 3.47 7.54 2.93-.96-.67-2.53-2.04-3.17-4.12-.59-1.92-.26-4.27.09-6.75.62-4.42 1.26-8.99-3.12-11.64-4.22-2.55-8.55-.2-9.59.46l.11 1.02z" fill="#8F7635"/><linearGradient id="b" x1="147.08" x2="160.87" y1="-80.57" y2="-52.691" gradientTransform="rotate(-12.088 531.657 367.198)" gradientUnits="userSpaceOnUse"><stop stop-color="#E0BB95" offset=".546"/><stop stop-color="#CCA47A" offset="1"/></linearGradient><path d="M72.16 37.55c-.36-1.31-1.31-4.22-2.87-4.52-.33-.06-.79-.09-1.49-.09-.48 0-1.11.01-1.93.05-.13.01-.25.01-.37.01-3.48 0-3.96-2.09-4.36-3.76-.16-.7-.29-1.25-.63-1.59-.12-.11-.27-.18-.58-.3-.4-.16-1.63-.66-1.56-1.09.08-.52.61-1.13 1.12-1.72.71-.81 1.44-1.65 1.25-2.58-.03-.24-.2-.83-.39-1.43l-.04-.14c-.35-1.2-.47-2.87-.3-4.48.52-5.07 3.32-8.42 7.89-9.42.59-.13 1.23-.2 1.88-.2 3.92 0 8.43 2.39 10.72 5.69 1.62 2.34.69 11.43-1.14 15.19-1.25 2.56-.18 6.86.25 8.34l-7.45 2.04z" fill="url(#b)"/><path d="M69.76 6.79c3.77 0 8.11 2.3 10.31 5.48 1.41 2.03.71 10.82-1.18 14.69-1.21 2.49-.42 6.35.08 8.21l-6.46 1.77c-.48-1.59-1.48-4.08-3.13-4.4-.36-.07-.84-.1-1.58-.1-.52 0-1.16.02-1.96.05-.12 0-.24.01-.35.01-3.08 0-3.48-1.72-3.87-3.38-.17-.74-.32-1.39-.77-1.83-.19-.18-.4-.27-.74-.41-.67-.27-1.08-.49-1.23-.65.12-.38.59-.92.98-1.37.74-.85 1.58-1.82 1.37-2.97-.04-.31-.19-.82-.41-1.52l-.04-.13c-.34-1.14-.44-2.74-.29-4.28.29-2.8 1.64-7.69 7.5-8.98a7.81 7.81 0 0 1 1.77-.19m0-1c-.68 0-1.34.07-1.99.21-5.18 1.14-7.79 5.05-8.28 9.85-.18 1.74-.03 3.46.32 4.67.04.15.39 1.19.43 1.53.26 1.28-2.16 2.69-2.38 4.12-.16 1.08 2.1 1.64 2.29 1.82.9.89.07 5.5 5.34 5.5.13 0 .26 0 .39-.01.82-.03 1.44-.05 1.92-.05.76 0 1.15.04 1.39.08 1.6.31 2.61 4.65 2.61 4.65l8.42-2.31s-1.85-5.55-.43-8.46c1.92-3.95 2.84-13.2 1.1-15.7-2.32-3.34-6.94-5.9-11.13-5.9z" fill="#BA8F63"/><path d="M63.19 27.46l-2.34.5s.3 1.07.46 1.5c.86 2.35 2.62 4.79 6.82 4.3.38-.04-2.32-5.25-2.32-5.25l-2.62-1.05z" fill="none"/><path d="M60.98 30.56a3.6 3.6 0 0 0 2.34-.84c.75-.62.18-1.24-.69-.81-.53.26-1.29.42-1.99.32l.34 1.33z" fill="#6D4C41"/><ellipse transform="rotate(-4.836 64.037 22.556)" cx="64.07" cy="22.57" rx="1.12" ry="1.72" fill="#5D4037"/><path d="M63.07 20.07c-1.09.32-1.35-.4-.98-.98.27-.43.93-.78 2.21-.53 1.2.24 1.7.93 2.02 1.35s.28.84.01.88c-.38.04-1.91-1.11-3.26-.72z" fill="#AB872F"/><radialGradient id="c" cx="81.604" cy="-168.67" r="11.941" gradientTransform="matrix(1.035 -.0857 .0885 .9963 -1.92 185.51)" gradientUnits="userSpaceOnUse"><stop stop-color="#BFA055" offset="0"/><stop stop-color="#AB872F" offset="1"/></radialGradient><path d="M73.01 21.35c.12-.49.36-1.37.54-1.79.63-1.41 1.77-.97 1.77-.97 1.54.46 2.23 3.55-.17 5.49-.06.05-.19.16-.11.47.2.78.9 2.67 3.21 3.11.31.06.58.09.82.09.78.03 1.42-.6 1.5-1.38.48-4.75 2.6-3.47 3.21-9.51.77-7.61-6.1-12.06-12.53-12.06-5.79 0-13.42 2.93-12.8 10.35.11 1.36.97 2.09.97 2.09s1.24-3.45 5-2.65c3.78.81 5.4-.09 5.4-.09-1.12 3.04.39 4.53 1.41 5.42.59.51 1.14 1.11 1.44 1.47.16.19.29.17.34-.04z" fill="url(#c)"/><path d="M81.63 8.66c-2.47-2.72-6.35-4.35-10.38-4.35-3.51 0-8.26 1.09-11.07 4.14-1.69 1.84-2.63 4.2-2.21 6.74.25 1.53 1.39 2.18 1.39 2.18l.2-.45s-.45-.5-.62-1.81c-.3-2.35.46-4.37 1.96-6 2.6-2.82 7.05-3.83 10.35-3.83 3.71 0 7.41 1.54 9.66 4.03 1.86 2.05 2.69 4.65 2.4 7.51-.31 3.08-1.01 4.16-1.69 5.21-.63.96-1.11 1.78-1.41 4.12-.15 1.19-1.2 1.61-1.11 1.61 1.3.02 1.99-.54 2.08-1.51.21-2.11.64-2.75 1.26-3.69.71-1.09 1.52-2.32 1.85-5.64.3-3.13-.62-5.99-2.66-8.26z" fill="#8F7635"/><path d="M80.67 100.6a15.425 15.425 0 0 1-5.73-9.08L70.2 69.01l14.35-1.58 1.34 21.83c.09 1.42.65 2.8 1.59 3.87l13.68 15.61-4.43 4.15-16.06-12.29z" fill="#646464"/><path d="M84.09 67.98l1.31 21.3c.09 1.53.7 3.01 1.72 4.17l13.36 15.24-3.76 3.53-15.74-12.02a14.902 14.902 0 0 1-5.54-8.78l-4.63-21.98 13.28-1.46m.93-1.11l-15.42 1.7 4.86 23.06c.79 3.73 2.88 7.06 5.91 9.37l16.41 12.53 5.09-4.77-14-15.97a5.964 5.964 0 0 1-1.47-3.57l-1.38-22.35z" fill="#4F4F4F"/><path d="M64.09 119.1L62.5 96.44c-.27-3.78.01-7.57.84-11.27l4.42-19.93 16.64-1.52c.27 2.41.83 7.41.83 8 0 5.12-3.41 7.45-7.09 9.19-.24.12-.34.16-5.4 13.61l-.03.12-2.88 24.46h-5.74z" fill="#7C7C7C"/><path d="M83.96 64.27c.33 2.96.77 6.97.77 7.46 0 5.09-3.51 7.18-6.81 8.74-.5.24-.53.25-5.65 13.89-.03.08-.05.15-.06.23l-2.83 24.02h-4.82L63 96.41c-.26-3.73.02-7.48.83-11.13l4.34-19.57 15.79-1.44m.88-1.09l-17.49 1.6-4.5 20.29c-.83 3.74-1.12 7.59-.85 11.42l1.63 23.12h6.64l2.94-24.9s4.98-13.26 5.14-13.33c3.26-1.55 7.38-3.89 7.38-9.64-.01-.82-.89-8.56-.89-8.56z" fill="#5B5B5B"/><path d="M55.85 123.5c-.13 0-.26-.05-.35-.15s-.14-.22-.14-.35v-1.26c.01-1.43.88-2.69 2.21-3.21l6.15-2.03h6.63c.42.52 1.65 2.15 1.65 3.55v2.79c0 .17-.07.33-.19.45s-.28.19-.45.19l-15.51.02z" fill="#4568AD"/><path d="M70.1 117c.55.71 1.39 2.02 1.39 3.05v2.79c0 .05-.02.08-.04.1s-.05.04-.1.04l-15.49.02.01-1.26c.01-1.22.74-2.29 1.87-2.74l6.07-2h6.29m.48-1h-6.94l-6.25 2.06a4 4 0 0 0-2.53 3.68V123c0 .55.44 1 .99 1l15.51-.02c.63 0 1.14-.51 1.14-1.14v-2.79c-.01-1.89-1.92-4.05-1.92-4.05z" fill="#315499"/><path d="M94.57 122.67a.47.47 0 0 1-.35-.15l-.89-.89c-1-1.02-1.28-2.52-.71-3.83l2.91-5.78 4.69-4.69c.67.07 2.69.36 3.68 1.34l1.97 1.97c.12.12.19.28.19.45s-.07.33-.19.45l-10.95 10.98a.47.47 0 0 1-.35.15z" fill="#325599"/><path d="M100.41 107.85c.89.11 2.41.44 3.14 1.18l1.97 1.97c.03.03.04.07.04.1s-.01.07-.04.1l-10.95 10.98-.88-.89c-.85-.87-1.1-2.14-.62-3.26l2.87-5.71 4.47-4.47m-.38-1.04l-4.91 4.91-2.96 5.88a3.99 3.99 0 0 0 .81 4.39l.89.89c.19.2.45.29.71.29.25 0 .51-.1.7-.29l10.95-10.98c.45-.45.44-1.17 0-1.61l-1.97-1.97c-1.34-1.34-4.22-1.51-4.22-1.51z" fill="#224487"/><radialGradient id="d" cx="76.099" cy="54.512" r="15.007" gradientUnits="userSpaceOnUse"><stop stop-color="#651FFF" offset=".364"/><stop stop-color="#5914F2" offset=".812"/><stop stop-color="#530EEB" offset="1"/></radialGradient><path d="M69.76 73.27c-1.98 0-3.59-1.95-3.59-4.34l2.14-22.34c.47-4.47 2.08-7.84 4.42-9.23 2.48-1.48 3.5-1.6 4.4-1.6.25 0 .49.01.75.02l.3.01c2.13.09 2.79.6 3.84 2.2.89 1.35 1.33 2.93 1.57 5.62l2.45 25.35c0 3.79-1.2 4.3-2.38 4.3h-13.9z" fill="url(#d)"/><path d="M77.12 36.26c.24 0 .47.01.72.02l.3.01c1.94.08 2.47.49 3.45 1.97.84 1.27 1.26 2.79 1.49 5.4l2.44 25.29c-.01 3.8-1.18 3.8-1.88 3.8h-13.9c-1.69 0-3.07-1.7-3.09-3.79l2.14-22.33c.46-4.32 1.98-7.55 4.18-8.86 2.38-1.39 3.32-1.51 4.15-1.51m0-1c-1.11 0-2.24.23-4.65 1.67-2.79 1.66-4.23 5.52-4.66 9.61l-2.14 22.39c0 2.67 1.83 4.84 4.09 4.84h13.9c2.26 0 2.88-1.97 2.88-4.85l-2.45-25.34c-.23-2.59-.65-4.34-1.65-5.86-1.15-1.74-1.96-2.32-4.24-2.42-.39-.02-.73-.04-1.08-.04z" fill="#4A00ED"/><linearGradient id="e" x1="72.246" x2="74.871" y1="50.705" y2="62.58" gradientUnits="userSpaceOnUse"><stop stop-color="#CCA47A" offset=".001"/><stop stop-color="#D9B38B" offset=".539"/><stop stop-color="#E0BB95" offset="1"/></linearGradient><path d="M83.61 57.33l-1.8-9.96-8 .86 2.46 9.94-9.36 9.69c-2.65 2.67 2.19 5.23 3.9 4.14l8.52-6.9c1.52-1.29 4.73-3.5 4.28-7.77z" fill="url(#e)"/><linearGradient id="f" x1="51.741" x2="50.863" y1="124.47" y2="70.891" gradientTransform="rotate(40.149 52.232 89.47)" gradientUnits="userSpaceOnUse"><stop stop-color="#eee" offset="0"/><stop stop-color="#E1E1E1" offset=".152"/><stop stop-color="#C7C7C7" offset=".504"/><stop stop-color="#BDBDBD" offset=".714"/><stop stop-color="#BDBDBD" offset=".992"/></linearGradient><path fill="url(#f)" d="M26.11 121.24l-2.22-1.88 42.06-49.82 2.22 1.88z"/><path fill="#FF3D00" d="M23.896 119.368l11.729-13.904 2.224 1.876-11.729 13.904z"/><linearGradient id="g" x1="51.34" x2="51.34" y1="79.44" y2="69.435" gradientTransform="rotate(40.149 52.232 89.47)" gradientUnits="userSpaceOnUse"><stop stop-color="#757575" offset="0"/><stop stop-color="#646464" offset="1"/></linearGradient><path fill="url(#g)" d="M56.87 80.26l2.23 1.88 9.81-11.5-2.22-1.87z"/><linearGradient id="h" x1="26.695" x2="22.734" y1="118.74" y2="122.7" gradientUnits="userSpaceOnUse"><stop stop-color="#E0E0E0" offset=".47"/><stop stop-color="#BDBDBD" offset=".992"/></linearGradient><circle cx="24.26" cy="121.18" r="2.82" fill="url(#h)"/><path d="M66.78 69.82l1.08.91-7.04 8.24-34.46 40.82-.27.32.14.4c.13.38.15.78.06 1.16a2.073 2.073 0 0 1-2.51 1.52 2.08 2.08 0 0 1-1.52-2.51 2.058 2.058 0 0 1 2.34-1.53l.42.07.27-.32 10.43-12.37h.01l.48-.57 21.27-25.19.39-.48 1.89-2.21 6.3-7.47.04.04.48-.57.2-.26m-.09-1.05l-.69.81-.05-.04-6.79 8.04-2.29 2.68.02.01-21.27 25.19h-.01L24.7 118.4c-.15-.02-.3-.04-.44-.04-1.27 0-2.42.85-2.73 2.14a2.817 2.817 0 0 0 2.75 3.49c1.27 0 2.42-.86 2.74-2.15.13-.54.09-1.09-.07-1.58l34.46-40.82 7.52-8.81-2.24-1.86z" fill="#212121" opacity=".37"/><path d="M81 48.47l1.62 9c.34 3.38-1.33 4.76-2.8 5.99-.13.11-.26.22-.36.3l-9.21 7.41c-.07.03-.21.08-.47.08-1.01 0-2.26-.71-2.57-1.46-.07-.16-.24-.57.45-1.27l8.76-9.75c.21-.23.3-.55.24-.85L75 49.11l6-.64m.82-1.09l-8 .86 1.86 9.88-8.76 9.75c-2.22 2.24.81 4.4 2.86 4.4.4 0 .76-.08 1.04-.26l9.27-7.45c1.52-1.3 3.98-2.94 3.53-7.22l-1.8-9.96z" fill="#BA8F63"/><linearGradient id="i" x1="66.208" x2="66.208" y1="76.255" y2="71.024" gradientUnits="userSpaceOnUse"><stop stop-color="#CCA47A" offset=".003"/><stop stop-color="#E0BB95" offset="1"/></linearGradient><path d="M67.8 68.17c-1.24.29-5.86 1.75-5.89 2.35-.06 1.19-.3 4.17-.3 4.17l1.87-2.13c-.06.89-.14 3-.17 3.79-.04 1.33.98 1.86 2.35 1.12 2.06-1.11 3.26-1.39 4.19-2.88.3-.48.78-3.59.96-4.24" fill="url(#i)"/><path d="M63.56 72.33s-.21 2.96-.25 4.03c-.04 1.33.98 1.86 2.35 1.12 2.06-1.11 3.26-1.39 4.19-2.88.3-.48.78-3.59.96-4.24" fill="none" stroke="#BA8F63" stroke-linecap="round" stroke-linejoin="round" stroke-miterlimit="10"/><path d="M62.16 74.09l-1.01 1.1s.01-2.28.04-3.6c.04-1.75 1.46-2.32 1.93-2.5 1.64-.65 4.47-1.57 4.49-1.58.26-.09.55.06.63.32s-.06.54-.32.63c-.02.01-2.82.92-4.43 1.56-.67.26-1.28.64-1.3 1.59-.03 1.32-.03 2.48-.03 2.48z" fill="#BA8F63"/><path d="M74.78 73.04c-1.11-3.09-4.92-6.54-7.79-6.14-.27.04-.47.29-.43.56s.29.48.56.43c2.33-.29 5.76 2.83 6.72 5.49.37 1.04.55 2.45-.75 3.26-.18.11-.36.13-.56.06-.6-.22-1.34-1.33-1.99-2.49 0 0-.14.5-.29.71-.1.13-.36.55-.36.55.63 1.03 1.5 1.89 2.31 2.18.19.07.39.1.58.1.3 0 .59-.08.85-.25 1.42-.91 1.85-2.53 1.15-4.46z" fill="#444"/><path d="M71.89 43.6c-.49-2.7 1.31-5.3 4.01-5.79a4.976 4.976 0 0 1 5.85 4l1.66 9.18-9.86 1.79-1.66-9.18z" fill="#3615AF"/><path d="M76.85 38.21c2.17 0 4.02 1.55 4.4 3.68l1.57 8.68-8.88 1.61-1.57-8.68c-.21-1.18.04-2.37.73-3.35.68-.98 1.71-1.64 2.89-1.86l.05-.01c.27-.04.55-.07.81-.07m0-1c-.32 0-.65.03-.98.09l-.05.01a5.482 5.482 0 0 0-4.42 6.37l1.75 9.67L84 51.39l-1.75-9.67a5.507 5.507 0 0 0-5.4-4.51z" fill="#27089C"/></svg>