<svg viewBox="0 0 128 128" width="128" height="128" xmlns="http://www.w3.org/2000/svg" xmlns:xlink="http://www.w3.org/1999/xlink"><linearGradient id="a" x1="64" x2="64" y1="11.395" y2="88.489" gradientUnits="userSpaceOnUse"><stop stop-color="#26A69A" offset="0"/><stop stop-color="#00796B" offset="1"/></linearGradient><path fill="url(#a)" d="M6.36 10.9h115.29v77.52H6.36z"/><linearGradient id="b" x1="64" x2="64" y1="8.545" y2="90.776" gradientUnits="userSpaceOnUse"><stop stop-color="#8D6E63" offset="0"/><stop stop-color="#795548" offset=".779"/></linearGradient><path d="M119.29 13.26v72.81H8.71V13.26h110.58M124 8.54H4v82.23h120V8.54z" fill="url(#b)"/><defs><path id="c" d="M4 4h120v120H4z"/></defs><clipPath id="d"><use xlink:href="#c"/></clipPath><g clip-path="url(#d)"><linearGradient id="e" x1="64" x2="64" y1="100.88" y2="129.36" gradientUnits="userSpaceOnUse"><stop stop-color="#E1F5FE" offset="0"/><stop stop-color="#81D4FA" offset="1"/></linearGradient><path d="M13.5 136.01v-15.26c0-16.24 25.36-23.53 50.5-23.56h.13c25.03 0 50.36 8.09 50.36 23.56v15.26H13.5z" fill="url(#e)"/><path d="M64.13 98.7c12.9 0 25.42 2.19 34.36 6 6.62 2.83 14.51 7.91 14.51 16.05v13.76H15v-13.76c0-15.2 24.61-22.03 49-22.06l.13.01m0-3H64c-25.49.03-52 7.28-52 25.06v16.76h104v-16.76C116 104 89.74 95.7 64.13 95.7z" fill="#81D4FA"/></g><g clip-path="url(#d)"><path d="M63.14 109.48c-4.21 0-7.63-3.53-7.63-7.87v-9.83H72.5v9.83c0 4.34-3.42 7.87-7.63 7.87h-1.73z" fill="#99674F"/><path d="M71.5 92.78v8.83c0 3.79-2.98 6.87-6.63 6.87h-1.73c-3.66 0-6.63-3.08-6.63-6.87v-8.83H71.5m2-2h-19v10.83c0 4.9 3.86 8.87 8.63 8.87h1.73c4.77 0 8.63-3.97 8.63-8.87V90.78h.01z" fill="#875740"/></g><g clip-path="url(#d)"><linearGradient id="f" x1="63.567" x2="63.567" y1="104.5" y2="126.36" gradientUnits="userSpaceOnUse"><stop stop-color="#00BFA5" offset="0"/><stop stop-color="#00AB94" offset="1"/></linearGradient><path d="M24.97 136.01c-.51-4.1-1.67-17.86 3.37-32.8 1.83-.85 8.14-3.6 15.76-4.74l2.52 15.15 17.18-9.01h.54l17.18 9.01 2.52-15.15c7.62 1.14 13.92 3.88 15.75 4.74 5.06 15.12 2.13 28.97 1.13 32.8H24.97z" fill="url(#f)"/><path d="M85.25 100.2c6.11 1.1 11.17 3.16 13.3 4.11 4.25 13.26 2.26 25.47 1.17 30.21H26.3c-.51-5.02-1.04-17.06 3.25-30.2 2.12-.95 7.19-3.01 13.3-4.11l1.93 11.63.68 4.09 3.67-1.93 14.91-7.82L78.95 114l3.67 1.93.68-4.09 1.95-11.64m-2.48-3.4l-2.41 14.54-15.67-8.22h-1.27l-15.67 8.22-2.41-14.54c-10.09 1.2-18.21 5.34-18.21 5.34-6.48 18.62-3.46 35.38-3.46 35.38h78.37s5.42-16.76-1.05-35.38c0-.01-8.13-4.14-18.22-5.34z" fill="#009984"/></g><g clip-path="url(#d)"><linearGradient id="g" x1="54.332" x2="54.332" y1="95.215" y2="106.42" gradientUnits="userSpaceOnUse"><stop stop-color="#E1F5FE" offset="0"/><stop stop-color="#81D4FA" offset="1"/></linearGradient><path fill="url(#g)" d="M46.99 97.58l6.72-3.82 7.97 8.57-12.79 6.71z"/><path d="M53.42 95.66l5.82 6.26-9.21 4.83-1.39-8.38 4.78-2.71m.58-3.78l-8.66 4.92 2.41 14.54 16.36-8.58L54 91.88z" fill="#66C0E8"/></g><g clip-path="url(#d)"><linearGradient id="h" x1="-573.62" x2="-573.62" y1="95.216" y2="106.42" gradientTransform="matrix(-1 0 0 1 -499.84 0)" gradientUnits="userSpaceOnUse"><stop stop-color="#E1F5FE" offset="0"/><stop stop-color="#81D4FA" offset="1"/></linearGradient><path fill="url(#h)" d="M66.44 102.33l7.96-8.56 6.72 3.81-1.9 11.46z"/><path d="M74.69 95.66l4.78 2.71-1.39 8.38-9.21-4.83 5.82-6.26m-.58-3.78L64 102.75l16.36 8.58 2.41-14.54-8.66-4.91z" fill="#66C0E8"/></g><linearGradient id="i" x1="78.493" x2="72.16" y1="106.73" y2="133.39" gradientUnits="userSpaceOnUse"><stop stop-color="#212121" stop-opacity=".2" offset=".002"/><stop stop-color="#212121" stop-opacity=".6" offset="1"/></linearGradient><path d="M102.42 111.85c0-.02-.01-.03-.01-.05a.3.3 0 0 0-.04-.1c-.17-.54-.56-.97-1.09-1.13l-.15-.04h-.01l-3.75-1.08-34.93-10.03c-.05-.01-.09-.01-.14-.03a6.177 6.177 0 0 0-7.51 4.27l-1.44 5.03c-.1.34-.21.71-.32 1.11l-1.32 4.61-8.43 29.38c0 .01-.01.03-.01.04l-1.7 5.92-.61 2.14c-.48 1.66-.22 3.35.58 4.73.01.01.01.02.02.03.09.15.18.3.28.45.04.06.09.12.14.18.07.09.13.18.2.26.11.13.22.25.34.36l.04.04c.73.72 1.64 1.28 2.7 1.58l18.05 5.14 21.78 6.25 2.23.64.01-.05.06.02 7.46-26.21 6.9-24.03.63-2.19-.06-.02.01-.05-1.55-.44 1.64-5.72c.1-.34.09-.69 0-1.01z" clip-path="url(#d)" fill="url(#i)"/><g clip-path="url(#d)"><linearGradient id="j" x1="32.529" x2="32.529" y1="95.394" y2="123.06" gradientUnits="userSpaceOnUse"><stop stop-color="#B2DFDB" stop-opacity=".2" offset="0"/><stop stop-color="#B2DFDB" stop-opacity=".6" offset=".767"/></linearGradient><path d="M28.71 126.22c-.07-4.86 1.05-14.86 4.1-26.14l3.54-1.21c-3.36 11.53-4.69 22.38-4.63 27.3l-3.01.05z" fill="url(#j)"/><linearGradient id="k" x1="-598.84" x2="-598.84" y1="95.394" y2="123.06" gradientTransform="matrix(-1 0 0 1 -503.37 0)" gradientUnits="userSpaceOnUse"><stop stop-color="#B2DFDB" stop-opacity=".2" offset="0"/><stop stop-color="#B2DFDB" stop-opacity=".6" offset=".767"/></linearGradient><path d="M99.29 126.22c.07-4.86-1.05-14.86-4.1-26.14l-3.54-1.21c3.36 11.53 4.69 22.38 4.63 27.3l3.01.05z" fill="url(#k)"/><path d="M104.46 109.53l-38.69-11.1a6.19 6.19 0 0 0-7.65 4.24L46.6 142.79a6.19 6.19 0 0 0 4.24 7.65l40.51 11.63 14.4-50.19c.29-1.01-.29-2.06-1.29-2.35z" fill="#424242"/><linearGradient id="l" x1="82.111" x2="76.945" y1="110.81" y2="128.14" gradientUnits="userSpaceOnUse"><stop stop-color="#EF5350" offset="0"/><stop stop-color="#E53935" offset="1"/></linearGradient><path d="M103.46 117.45l-41.52-11.9c-4.53-1.3-5.32 2.35-6.59 6.78L44.9 148.75c-1.27 4.43 1.37 9.07 5.89 10.37l37.61 10.79c1.25.36 2.54-.34 2.89-1.56l13.79-48.04c.35-1.22-.38-2.5-1.62-2.86z" fill="url(#l)"/><path d="M60.26 107.33c.31 0 .69.06 1.12.19l41.54 11.9c.1.03.16.09.19.14s.04.11.02.16L89.32 167.8c-.03.11-.15.16-.25.16-.03 0-.06 0-.09-.01l-37.65-10.8a6.525 6.525 0 0 1-3.9-3.05 6.137 6.137 0 0 1-.58-4.77l10.47-36.46.17-.61c1.07-3.76 1.59-4.93 2.77-4.93m0-2.04c-3.06 0-3.81 3.22-4.9 7.03l-10.47 36.46c-1.27 4.42 1.36 9.05 5.88 10.34l37.65 10.8c.22.06.44.09.65.09 1 0 1.92-.64 2.21-1.64l13.81-48.08c.35-1.21-.37-2.47-1.61-2.83l-41.54-11.9c-.63-.19-1.19-.27-1.68-.27z" fill="#424242" opacity=".2"/><path d="M64.33 101.57c.19 0 .38.02.59.07l37.25 10.7-.31 1.08c-11.79-3.29-34.29-9.62-38.94-11.16.24-.33.71-.69 1.41-.69m0-3.33c-4.52 0-6.78 5.57-3.12 6.94 4.03 1.51 42.93 12.32 42.93 12.32l1.58-5.52c.3-1.06-.19-2.14-1.11-2.4L65.77 98.42c-.5-.12-.98-.18-1.44-.18z" fill="#424242" opacity=".2"/><linearGradient id="m" x1="-18.084" x2="25.361" y1="426.16" y2="426.16" gradientTransform="matrix(.9612 .2758 .3192 -1.1123 -57.724 581.53)" gradientUnits="userSpaceOnUse"><stop stop-color="#BDBDBD" offset=".01"/><stop stop-color="#F5F5F5" offset=".987"/></linearGradient><path d="M103.37 112.12l-39.8-11.42c-1.08-.31-2.26.46-2.62 1.71l-.07.22c-.36 1.25.23 2.53 1.31 2.84L102 116.88s-.34-.83.07-2.3 1.3-2.46 1.3-2.46z" fill="url(#m)"/><defs><path id="n" d="M105.71 118.1L63.53 106c-3.25-.93-6.63.94-7.56 4.19l-11.69 40.7a6.12 6.12 0 0 0 4.19 7.57l42.18 12.1 15.06-52.46z"/></defs><defs><path id="o" d="M105.67 118.03l-44.5-12.66c-3.53-1-3.9.22-4.81 3.43L44.3 151.02c-.91 3.21 1.01 6.58 4.29 7.51l42.14 11.99 14.94-52.49z"/></defs><clipPath id="p"><use xlink:href="#o"/></clipPath><linearGradient id="q" x1="53.062" x2="57.437" y1="122.21" y2="108.46" gradientUnits="userSpaceOnUse"><stop stop-color="#212121" offset="0"/><stop stop-color="#424242" offset="1"/></linearGradient><path clip-path="url(#p)" fill="url(#q)" d="M63.63 96.95L57.2 95.1l-18.07 62.95 6.43 1.84z"/></g><path d="M36.67 72.26c-5.36 0-9.71-4.67-9.71-10.41s4.36-10.41 9.71-10.41h54.65c5.36 0 9.71 4.67 9.71 10.41s-4.36 10.41-9.71 10.41H36.67z" fill="#99674F"/><path d="M91.33 52.43c4.8 0 8.71 4.22 8.71 9.41s-3.91 9.41-8.71 9.41H36.67c-4.8 0-8.71-4.22-8.71-9.41s3.91-9.41 8.71-9.41h54.66m0-2H36.67c-5.89 0-10.71 5.14-10.71 11.41 0 6.28 4.82 11.41 10.71 11.41h54.65c5.89 0 10.71-5.14 10.71-11.41.01-6.27-4.81-11.41-10.7-11.41z" fill="#875740"/><linearGradient id="r" x1="64" x2="64" y1="94.591" y2="12.825" gradientUnits="userSpaceOnUse"><stop stop-color="#A47B62" offset="0"/><stop stop-color="#AD8264" offset=".191"/><stop stop-color="#B78A67" offset=".551"/><stop stop-color="#BA8D68" offset="1"/></linearGradient><path d="M64 95.27c-15.66 0-32.52-12.14-32.52-38.81 0-12.38 3.56-23.79 10.02-32.13 6.04-7.8 14.24-12.27 22.5-12.27 8.25 0 16.45 4.47 22.5 12.27 6.46 8.33 10.02 19.75 10.02 32.13 0 12.09-3.51 22.19-10.14 29.21-5.86 6.19-13.81 9.6-22.38 9.6z" fill="url(#r)"/><path d="M64 13.07c7.94 0 15.85 4.33 21.71 11.88 6.33 8.16 9.81 19.35 9.81 31.52 0 11.83-3.41 21.7-9.87 28.52-5.67 5.99-13.36 9.29-21.65 9.29s-15.98-3.3-21.65-9.29c-6.46-6.82-9.87-16.69-9.87-28.52 0-12.16 3.49-23.35 9.81-31.52C48.15 17.4 56.06 13.07 64 13.07m0-2c-17.4 0-33.52 18.61-33.52 45.39 0 26.64 16.61 39.81 33.52 39.81S97.52 83.1 97.52 56.46c0-26.78-16.12-45.39-33.52-45.39z" fill="#91674D"/><path d="M39.99 50.73s.13-.19.38-.51c.07-.08.12-.16.22-.26.11-.11.23-.22.37-.34s.28-.24.43-.38c.15-.13.31-.23.48-.35.17-.11.34-.24.53-.35.19-.1.4-.21.6-.32.21-.12.43-.21.66-.3s.47-.18.71-.27c.49-.14 1-.29 1.54-.36.53-.1 1.08-.11 1.63-.14.55.03 1.09.03 1.63.14.53.07 1.05.22 1.54.36.24.08.48.17.71.27.23.09.45.18.66.3.21.11.41.22.6.32.19.11.36.24.53.35.17.12.33.22.47.34s.27.24.4.35c.12.11.24.21.34.31s.18.21.26.29c.31.36.46.57.46.57.51.7.35 1.69-.36 2.19-.43.31-.96.37-1.43.21l-.29-.1s-.19-.07-.49-.2c-.08-.03-.15-.07-.25-.11-.1-.03-.19-.07-.3-.11-.21-.08-.44-.17-.7-.25-.13-.04-.26-.09-.4-.13-.14-.03-.28-.07-.43-.11l-.22-.06c-.08-.01-.15-.03-.23-.04-.16-.03-.31-.07-.47-.1-.33-.04-.66-.11-1-.12-.34-.04-.69-.03-1.03-.05-.35.02-.7.01-1.03.05-.34.02-.67.09-1 .12-.16.03-.31.07-.47.1-.08.01-.16.03-.23.04l-.22.06c-.15.04-.29.07-.43.11s-.27.09-.4.13-.25.08-.37.11c-.1.04-.2.07-.29.1l-.27.09c-.1.04-.2.1-.29.14-.36.18-.57.27-.57.27-.83.34-1.77-.05-2.11-.87-.24-.48-.16-1.06.13-1.49z" fill="#613E31"/><ellipse cx="48.19" cy="58.81" rx="4.93" ry="5.1" fill="#49362E"/><path d="M86.05 53.13s-.22-.09-.57-.27c-.09-.04-.19-.1-.29-.14-.09-.02-.18-.06-.27-.09s-.19-.07-.29-.1c-.12-.04-.24-.07-.37-.11s-.26-.09-.4-.13-.28-.07-.43-.11l-.22-.06c-.08-.01-.15-.03-.23-.04-.16-.03-.31-.07-.47-.1-.33-.04-.66-.11-1-.12-.34-.04-.69-.03-1.03-.05-.35.02-.7.01-1.03.05-.34.02-.67.09-1 .12-.16.03-.31.07-.47.1-.08.01-.16.03-.23.04l-.22.06c-.15.04-.29.08-.43.11-.14.04-.27.09-.4.13-.26.07-.49.16-.7.25-.11.04-.2.08-.3.11-.09.04-.17.08-.25.11-.3.13-.49.2-.49.2l-.28.1c-.82.29-1.72-.15-2-.97-.17-.5-.08-1.03.21-1.44 0 0 .16-.22.46-.57.08-.09.16-.19.26-.29s.22-.2.34-.31.26-.23.4-.35.31-.22.47-.34c.17-.12.34-.24.53-.35.19-.1.4-.21.6-.32.21-.12.43-.21.66-.3s.46-.18.71-.27c.49-.14 1-.29 1.54-.36.53-.1 1.08-.11 1.63-.14.55.03 1.09.03 1.63.14.53.06 1.05.22 1.54.36.24.08.48.17.71.27.23.09.45.18.66.3.21.11.41.22.6.32.19.11.36.24.53.35.17.12.32.22.48.35.15.13.3.26.43.38s.26.23.37.34c.09.1.15.18.22.26.25.31.38.51.38.51.5.74.31 1.74-.43 2.25-.49.28-1.07.32-1.56.12z" fill="#613E31"/><ellipse cx="79.33" cy="58.81" rx="4.93" ry="5.1" fill="#49362E"/><path d="M67.86 68.06c-.11-.04-.21-.07-.32-.08h-7.07c-.11.01-.22.04-.32.08-.64.26-.99.92-.69 1.63s1.71 2.69 4.55 2.69 4.25-1.99 4.55-2.69c.29-.71-.06-1.37-.7-1.63z" fill="#99674F"/><path d="M72.53 76.14c-3.19 1.89-13.63 1.89-16.81 0-1.83-1.09-3.7.58-2.94 2.24.75 1.63 6.45 5.42 11.37 5.42s10.55-3.79 11.3-5.42c.75-1.66-1.09-3.33-2.92-2.24z" fill="#5D4037"/><defs><path id="s" d="M64 4.03h-.04c-45.43.24-36.12 52.14-36.12 52.14s5.1 8.99 5.1 8.81c-.03-1.41.46-6.89.46-6.89l-2.68-2.92s3.89-25.44 6.79-24.91c4.45.81 26.54 2 26.57 2 7.83 0 14.92-.36 19.37-1.17 2.9-.53 9.64 1.7 10.68 4.45 1.33 3.54 3.13 19.71 3.13 19.71l-2.68 2.83s.49 5.51.46 6.89c0 .18 5.1-8.81 5.1-8.81S109.44 4.27 64 4.03z"/></defs><radialGradient id="t" cx="64.26" cy="4.274" r="48.85" gradientUnits="userSpaceOnUse"><stop stop-color="#6D4C41" offset="0"/><stop stop-color="#523329" offset="1"/></radialGradient><path d="M64.02 4.03h-.04c-45.43.24-36.13 52.14-36.13 52.14s5.1 8.99 5.1 8.81c-.16-7.25 2.74-20.09 4.8-25.55a6.075 6.075 0 0 1 6.79-3.83c4.46.8 11.55 1.8 19.38 1.8h.16c7.83 0 14.92-1 19.37-1.81 2.9-.53 5.76 1.08 6.79 3.83 2.06 5.47 4.96 18.3 4.8 25.55 0 .18 5.1-8.81 5.1-8.81s9.31-51.89-36.12-52.13z" fill="url(#t)"/><path d="M64.02 4.03h-.04c-45.43.24-36.13 52.14-36.13 52.14s5 8.81 5.1 8.81c-.03-1.48.07-3.2.26-5.03-.12-.29-2.46-4.75-2.48-4.79-.24-1.6-.93-6.98-.55-13.56.41-7.04 2.17-16.96 8.22-24.22 5.67-6.8 14.27-10.28 25.56-10.35H64c11.32.06 19.93 3.54 25.6 10.35 10.81 12.96 8.18 34.33 7.67 37.79-.02.04-2.46 4.58-2.49 4.65.2 1.89.31 3.65.27 5.17.1 0 5.1-8.81 5.1-8.81s9.3-51.91-36.13-52.15z" fill="#402821"/><path d="M93.93 52.93c-.07-1.19-.12-1.31-1.69-1.81-1.23-.39-7.95-.94-13.01-.66-.36.02-.71.04-1.05.07-4.59.39-10.1 2.24-14.24 2.34-1.76.04-9.01-1.86-14.14-2.26-.33-.02-.66-.05-1-.06-5.07-.26-11.82.34-13.05.73-1.57.5-1.62.63-1.68 1.82-.07 1.19.13 2.2 1.06 2.51 1.27.41 1.28 2 2.13 6.54.77 4.14 2.62 7.41 10.57 7.98.34.02.66.04.98.04 7.03.1 9.45-4.53 10.25-6.07 1.5-2.86 1.02-6.8 4.96-6.81s3.55 3.86 5.07 6.71c.81 1.53 3.17 6.18 10.14 6.08.34-.01.69-.02 1.05-.05 7.94-.62 9.78-3.9 10.52-8.04.82-4.55.83-6.13 2.09-6.56.92-.3 1.11-1.31 1.04-2.5zM53.37 68.17c-1.21.57-2.85.86-4.57.85-3.59-.01-7.57-1.27-9.01-3.81-2.04-3.62-2.57-10.94.03-12.47 1.14-.67 4.99-1.13 8.97-.96 4.13.18 8.41 1.04 9.94 3.06 2.56 3.34-1.5 11.51-5.36 13.33zm34.9-3.1c-1.43 2.56-5.44 3.85-9.05 3.86-1.7.01-3.31-.27-4.51-.83-3.87-1.8-7.97-9.94-5.45-13.3 1.53-2.04 5.82-2.92 9.96-3.12 3.97-.19 7.81.25 8.94.91 2.62 1.53 2.13 8.85.11 12.48z" fill="#212121" stroke="#212121" stroke-miterlimit="10" stroke-width=".55"/></svg>