<svg viewBox="0 0 128 128" width="128" height="128" xmlns="http://www.w3.org/2000/svg"><linearGradient id="a" x1="92.176" x2="112.66" y1="61.369" y2="30.48" gradientUnits="userSpaceOnUse"><stop stop-color="#ED8300" offset=".077"/><stop stop-color="#F3991E" offset=".417"/><stop stop-color="#FFC559" offset="1"/></linearGradient><path d="M107.03 62.41c-.25 0-.5-.01-.74-.03l-.85-.08c-3.51-.32-6.28-.57-9.57-2.69-.32-.2-.49-.57-.45-.94s.29-.7.64-.83c.64-.25 1.63-.39 3-.59 3.52-.51 8.84-1.27 11.19-4.45 1.06-1.44 1.41-3.23 1.06-5.47-1.11-7.12-5.79-8.19-8.47-8.19-2.83 0-5.49 1.14-6.56 2.22-2.83 2.85-4.67 4.07-6.18 4.07-.81 0-2.21-.37-2.6-2.87-.62-4 1.42-6.97 3.13-8.7-.46-.04-.9-.07-1.21-.07-.09 0-.17 0-.23.01-.05.01-.1.01-.16.01-.33 0-.65-.17-.84-.45-.21-.33-.22-.76 0-1.09 1.2-1.86 2.83-2.87 4.26-3.41a.98.98 0 0 1-.6-.84c-.03-.41.18-.8.55-.98 1.3-.64 2.71-.97 4.18-.97 1.07 0 2.07.17 2.93.41-.18-.29-.21-.65-.07-.96.15-.31.44-.53.78-.57.04 0 .97-.12 2.43-.12 3.64 0 10.39.71 14.75 5.47 10.12 11.04 4.24 21.73 2.2 24.74-3.24 4.84-8.78 7.37-12.57 7.37z" fill="url(#a)"/><path d="M102.68 25.84c3.43 0 9.9.66 14.01 5.15 7.93 8.66 5.96 17.82 2.11 23.51-3.11 4.59-8.31 6.91-11.77 6.91-.22 0-.44-.01-.65-.03-3.86-.36-6.64-.46-9.98-2.61 2.77-1.06 17.62-.44 15.89-11.59-1.07-6.9-5.39-9.03-9.46-9.03-3.06 0-5.97 1.21-7.27 2.51-1.95 1.96-4.04 3.77-5.47 3.77-.8 0-1.39-.58-1.62-2.03-.92-5.91 4.78-9.42 4.78-9.42-.1.02-.23.02-.38.02-.88 0-2.57-.21-3.46-.21-.16 0-.29.01-.38.02 2.24-3.47 6.15-3.58 6.62-3.58h.05s-1.94-1.01-2.86-1.29c1.28-.64 2.56-.87 3.74-.87 3.14 0 5.59 1.64 5.59 1.64l-1.81-2.77c.01.01.91-.1 2.32-.1m0-2c-1.52 0-2.52.12-2.56.13-.68.09-1.28.52-1.57 1.14-.02.04-.04.09-.06.13-.6-.1-1.24-.16-1.91-.16-1.63 0-3.19.36-4.63 1.07a2.006 2.006 0 0 0-1.05 2.32 9.397 9.397 0 0 0-3.56 3.27c-.43.66-.42 1.51.01 2.18.28.43.71.73 1.19.85-1.41 1.92-2.57 4.61-2.05 7.96.54 3.45 2.89 3.72 3.59 3.72 1.82 0 3.81-1.27 6.89-4.37.79-.8 3.13-1.92 5.85-1.92 2.89 0 6.54 1.27 7.49 7.34.31 1.96.02 3.51-.88 4.72-2.1 2.84-7.38 3.6-10.53 4.05-1.43.21-2.46.35-3.21.64-.7.27-1.2.91-1.27 1.66s.27 1.48.91 1.89c3.5 2.25 6.53 2.52 10.03 2.84l.85.08c.27.02.55.04.83.04 3.92 0 9.8-2.44 13.42-7.79 4.42-6.52 6.14-16.78-2.29-25.98-4.62-5.06-11.69-5.81-15.49-5.81z" fill="#B88049"/><linearGradient id="b" x1="89.548" x2="117.46" y1="45.806" y2="45.806" gradientUnits="userSpaceOnUse"><stop stop-color="#212121" offset="0"/><stop stop-color="#242322" stop-opacity=".767" offset=".291"/><stop stop-color="#2D2826" stop-opacity=".599" offset=".501"/><stop stop-color="#3D312D" stop-opacity=".452" offset=".685"/><stop stop-color="#533D36" stop-opacity=".317" offset=".854"/><stop stop-color="#6D4C41" stop-opacity=".2" offset="1"/></linearGradient><path d="M115.75 52.93c3.85-6.07 1.09-17.28-7.06-19.59-12.15-3.44-18.72 4.79-19.14 12.86 0 0 .2.14.58.23 1.81-.01 3.8-1.28 6.86-4.36.79-.8 3.13-1.92 5.85-1.92 2.89 0 6.54 1.27 7.49 7.34.31 1.96.02 3.51-.88 4.72-2.1 2.84-7.38 3.6-10.53 4.05-.77.11-1.42.21-1.98.32 1.46.78 4.19 1.97 7.94 2.42 4.84.58 8.48-2.3 10.87-6.07z" fill="url(#b)" opacity=".85"/><linearGradient id="c" x1="58.708" x2="58.708" y1="122.21" y2="91.811" gradientUnits="userSpaceOnUse"><stop stop-color="#ED8E18" offset=".079"/><stop stop-color="#DF701A" offset=".829"/><stop stop-color="#DB691A" offset=".997"/></linearGradient><path d="M49.44 122.84c-.18 0-.29-.09-.34-.15a.406.406 0 0 1-.11-.33c.22-2.02 1.31-4.56 2.33-4.69 1.99-.24 2.46-.3 2.72-.51 1.54-.38 1.91-2.71 1.41-8.9-.02-.27-.04-.47-.04-.58-.13-2.6-.37-5.21-.6-7.73-.25-2.68-.5-5.44-.62-8.19-.08-1.84-.03-4.2 1.06-6.1.86-1.48 2.31-2.54 3.9-2.82.29-.05.59-.08.9-.08 2.1 0 4.39 1.32 5.84 3.36 3.83 5.39 2.49 12.57 1.3 18.92-.13.71-.26 1.41-.38 2.09-.13.74-.26 1.52-.39 2.31l-.26 1.58c-.62 3.71-1.45 7.93-3.39 10.99l-.07.11c-.18.28-.4.64-.52.64l-12.74.08z" fill="url(#c)"/><path d="M60.06 83.77c1.78 0 3.76 1.15 5.02 2.94 3.58 5.04 2.34 11.7 1.13 18.15-.13.71-.26 1.41-.39 2.1-.13.76-.26 1.55-.4 2.37-.08.5-.17 1.02-.25 1.54-.61 3.62-1.41 7.72-3.25 10.62l-.07.11c-.03.05-.07.11-.11.17l-11.67.07c.3-1.52 1.01-2.92 1.42-3.18 1.79-.22 2.52-.31 2.98-.58 2.28-.73 2.45-3.94 1.97-9.89-.02-.25-.04-.44-.04-.55-.13-2.62-.37-5.24-.6-7.77-.24-2.67-.5-5.42-.62-8.14-.11-2.53.18-4.25.93-5.55.7-1.21 1.93-2.11 3.21-2.33.25-.06.49-.08.74-.08m0-2c-.36 0-.71.03-1.07.09-1.92.34-3.62 1.62-4.59 3.3-1.14 1.97-1.3 4.36-1.2 6.64.23 5.34.95 10.57 1.22 15.92.05.95.83 8.1-.61 8.46-.92.23.68.09-2.61.49-1.82.22-2.98 3.55-3.2 5.57-.09.85.58 1.59 1.45 1.59l12.74-.08c.72 0 1.06-.61 1.44-1.21 2-3.16 2.86-7.4 3.53-11.35.23-1.35.43-2.66.65-3.89 1.25-7.05 3.42-15.41-1.09-21.76-1.54-2.15-4.06-3.77-6.66-3.77z" fill="#B88049"/><linearGradient id="d" x1="89.378" x2="89.378" y1="122.16" y2="89.351" gradientUnits="userSpaceOnUse"><stop stop-color="#ED8E18" offset=".079"/><stop stop-color="#DF701A" offset=".829"/><stop stop-color="#DB691A" offset=".997"/></linearGradient><path d="M86.66 122.84c-.18 0-.29-.09-.34-.15a.452.452 0 0 1-.12-.34c0-.01.05-.48.07-.73.22-2.55.58-4.85 2.5-4.95 1.01-.05 1.74-.06 2.27-.07 1.19-.02 2.31-.03 2.36-1.41.04-1.04.04-1.17-.11-1.74-.05-.19-.13-.46-.24-.97-.69-3.21-3.55-7.24-6.58-11.51-4.35-6.14-9.28-13.09-8.42-18.47.31-1.92 2.58-2.9 6.75-2.9 5.27 0 11.8 1.64 13.88 2.2.95 13.03 2.52 37.37 2.01 40.67-.03.22-.22.38-.45.38H86.66z" fill="url(#d)"/><path d="M84.81 80.59c4.67 0 10.38 1.33 12.93 1.98 1.03 14.26 2.31 34.96 2.01 39.27H87.26c0-.04.01-.09.01-.14.25-2.9.68-3.99 1.56-4.04.99-.05 1.71-.06 2.23-.07 1.06-.02 3.26-.05 3.35-2.38.04-1.07.05-1.32-.15-2.04a19.4 19.4 0 0 1-.23-.92c-.74-3.4-3.52-7.33-6.74-11.88-4.24-5.98-9.04-12.76-8.24-17.73.28-1.78 3.73-2.05 5.76-2.05m0-2c-3.96 0-7.28.89-7.74 3.74-1.54 9.62 13.38 22.83 15.01 30.35.36 1.68.39.97.33 2.47-.02.62-.38.34-3.68.52-3.28.17-3.29 4.51-3.51 6.56-.09.86.58 1.61 1.45 1.61h13.58c.72 0 1.33-.52 1.44-1.23.67-4.37-2.05-41.6-2.05-41.6s-8.29-2.42-14.83-2.42z" fill="#B88049"/><linearGradient id="e" x1="63.037" x2="63.037" y1="21.27" y2="126.62" gradientUnits="userSpaceOnUse"><stop stop-color="#FFC559" offset="0"/><stop stop-color="#FAB546" offset=".169"/><stop stop-color="#ED8E18" offset=".496"/><stop stop-color="#F5A736" offset=".743"/><stop stop-color="#FFC559" offset="1"/></linearGradient><path d="M108.87 123c-1.68 0-2.06-.25-2.14-.35-.12-.15-.18-.65.19-2.17.03-.12.16-.45.26-.74.09-.25.17-.47.2-.56.58-1.84 1.52-1.99 2.52-1.99.16 0 .75.02.88.02.36 0 1.21 0 1.68-.69.48-.7.23-1.61-.08-2.41-.47-1.2-10.84-18.16-14.8-21.65-3.1-2.72-8.34-4.35-14.03-4.35-2.46 0-4.84.3-7.07.9-.52.14-1.28.52-2.81 1.3-4.13 2.11-11.81 6.03-18.83 6.03-1.03 0-2.1-.06-3.29-.17l-.75-.07-.27.72c-7.39 19.96-9.39 24.35-9.92 25.19l-.07.11c-.18.28-.4.64-.52.64l-12.75.08c-.18 0-.29-.09-.34-.15a.406.406 0 0 1-.11-.33c.22-2.02 1.31-4.56 2.33-4.69 1.99-.24 2.46-.3 2.72-.51.81-.2 1.58-.39 4.53-26.09l.07-.58-.48-.34c-3.11-2.23-4.8-4.63-6.83-7.78-2.75-4.25-3.24-10.14-1.62-19.11.14-.77.25-1.56.33-2.33.01-.01.13-.2.2-.32.25-.4.54-.86.51-1.41l-.05-1.3-1.24.38s-.42.12-.98.12c-.51 0-.96-.09-1.35-.28.44-.56.94-1.43 1.4-2.75 1.33-4.56.1-7.71-.28-8.24l-.27-.39-.5-.06c-4.75-.33-14.23-1.12-16.12-1.79-1.79-.66-3.75-6.17-4.29-10.66-.08-.67.35-1.28 1.01-1.42 14.34-2.94 17.12-4.39 21.93-8.84 1.68-1.56 5.35-1.73 6.86-1.73.6 0 .99.03 1 .03l.97.07.09-.97c.01-.09.83-8.71 1.82-11.65.29-.85.61-1.12.71-1.12.07 0 .21.06.52.32 2.66 2.21 5.42 7.35 8.2 15.27l.05.13c1.38 3.94 2.19 7.78 2.97 11.49.35 1.67.68 3.24 1.05 4.75.87 3.55 3.14 6.11 4.39 7.3-.84.85-2.03 2.08-2.03 2.08l.25.61c.03.08.85 2.02 2.53 2.96 1.34.76 8.79 3.57 16.2 3.57.35 0 .69-.01 1.04-.02 3.99-.15 7.49-.91 10.88-1.65 3.22-.7 6.26-1.36 9.28-1.36 3.81 0 7.17 1.08 10.58 3.4 10.93 7.43 12.45 23.95 13.27 32.83.07.73.13 1.42.19 2.05.37 3.67.7 8.07 1.01 12.32.46 6.26.91 12.18 1.47 15.92.1.63-.08 1.27-.48 1.73-.38.44-.91.68-1.49.68l-10.3.02z" fill="url(#e)"/><path d="M39.55 10c1.74 1.65 4.37 5.51 7.54 14.51l.04.13c1.36 3.87 2.16 7.68 2.93 11.37.35 1.68.68 3.26 1.06 4.78.78 3.17 2.6 5.61 3.96 7.07-.52.53-.89.91-.89.91l-.92.95.51 1.22c.1.24 1.02 2.35 2.96 3.45 1.44.82 8.98 3.7 16.69 3.7.36 0 .72-.01 1.08-.02 4.08-.15 7.62-.92 11.06-1.67 3.17-.69 6.16-1.34 9.06-1.34 3.6 0 6.78 1.03 10.02 3.23 10.54 7.17 12.03 23.38 12.84 32.09.07.74.13 1.43.2 2.06.37 3.66.69 8.05 1.01 12.29.47 6.28.91 12.22 1.48 16 .05.35-.04.69-.25.93-.13.15-.36.33-.73.33l-10.32.01c-.6 0-.99-.03-1.22-.07.03-.23.09-.6.23-1.18.05-.14.15-.41.23-.65.1-.27.19-.52.23-.63.4-1.28.84-1.29 1.56-1.29h.01c.15 0 .29 0 .43.01.16 0 .31.01.46.01.43 0 1.74 0 2.51-1.13.84-1.23.27-2.7.03-3.33-.44-1.12-10.83-18.3-15.07-22.03-3.27-2.88-8.76-4.6-14.69-4.6-2.55 0-5.01.31-7.33.93-.61.16-1.41.56-3 1.38-4.05 2.07-11.6 5.92-18.38 5.92-1 0-2.04-.06-3.19-.17l-1.54-.15-.54 1.45c-7.63 20.62-9.41 24.36-9.82 25l-.07.11c-.03.05-.07.11-.11.17l-11.67.07c.3-1.52 1-2.92 1.42-3.18 1.76-.22 2.5-.31 2.96-.57 1.38-.36 1.78-.98 3.55-14.33.82-6.23 1.55-12.5 1.56-12.57l.13-1.17-.96-.69c-2.74-1.96-4.24-3.9-6.57-7.51-2.6-4.02-3.05-9.69-1.47-18.39.13-.71.23-1.43.31-2.17.03-.04.06-.09.08-.13.28-.45.7-1.12.66-1.98l-.08-2.6-2.48.76s-.17.05-.43.07c.24-.47.48-1.03.71-1.68l.02-.05.01-.05c1.44-4.94.02-8.39-.44-9.05l-.57-.81-.95-.07c-6.59-.45-14.38-1.21-15.85-1.74-1.14-.41-3.08-5.12-3.65-9.83-.02-.15.08-.29.22-.32 14.27-2.93 17.43-4.48 22.41-9.09.97-.9 3.34-1.46 6.18-1.46.57 0 .93.02.93.02l1.95.14.18-1.94c.22-2.38.98-9.08 1.78-11.42-.01.02 0 0 0-.01m-.25-2.4c-.86 0-1.38.97-1.66 1.8-1.04 3.08-1.87 11.88-1.87 11.88s-.41-.03-1.07-.03c-1.85 0-5.63.23-7.54 1.99-4.52 4.18-7.09 5.65-21.45 8.6a2.27 2.27 0 0 0-1.8 2.52C4.4 38.4 6.28 44.9 8.87 45.83c2.54.91 16.38 1.85 16.39 1.85.09.01 1.46 2.96.18 7.37-.94 2.71-2 3.15-2 3.15.89.98 2.03 1.2 2.9 1.2.74 0 1.27-.16 1.27-.16.02.45-.68 1.14-.71 1.59-.08.76-.18 1.51-.32 2.25-1.45 8-1.5 14.79 1.76 19.83 2.22 3.44 3.93 5.79 7.09 8.05 0 0-2.88 25.01-3.78 25.23-.92.23.68.09-2.61.49-1.82.22-2.98 3.55-3.2 5.57-.09.85.58 1.59 1.45 1.59l12.74-.08c.72 0 1.06-.61 1.44-1.21 1.24-1.97 6.34-15.47 10.01-25.38 1.12.11 2.25.18 3.39.18 9.48 0 20.04-6.87 21.9-7.37 2.19-.59 4.52-.87 6.81-.87 5.27 0 10.38 1.47 13.36 4.1 3.84 3.38 14.16 20.31 14.53 21.26.6 1.55.17 1.74-.67 1.74-.26 0-.56-.02-.88-.02-1.21 0-2.71.25-3.47 2.69-.07.22-.44 1.16-.49 1.37-.71 2.94-.35 3.76 2.93 3.76l10.31-.01c1.89 0 3.24-1.7 2.96-3.56-.95-6.3-1.57-19.25-2.47-28.2-.86-8.53-1.67-27.29-13.9-35.61-3.97-2.7-7.58-3.58-11.15-3.58-6.28 0-12.44 2.72-20.19 3.01-.33.01-.67.02-1 .02-7.12 0-14.38-2.69-15.71-3.44-1.39-.79-2.09-2.47-2.09-2.47s1.21-1.24 2.31-2.35c0 0-3.74-2.88-4.87-7.49-1.17-4.79-2.01-10.53-4.05-16.33-.88-2.52-4.26-12.27-8.55-15.84-.32-.27-.69-.53-1.12-.55-.04-.01-.05-.01-.07-.01z" fill="#B88049"/><linearGradient id="f" x1="51.474" x2="96.667" y1="91.09" y2="91.09" gradientUnits="userSpaceOnUse"><stop stop-color="#FFEBC0" stop-opacity=".971" offset=".294"/><stop stop-color="#FFF8E1" stop-opacity=".971" offset="1"/></linearGradient><path d="M86 85.83c-6.33-1.55-13.85-1.5-22 1.58-4.79 1.81-10.17 2.5-10.17 2.5l-2.36 7.25c1.12.11 2.25.18 3.38.18 9.48 0 20.04-6.87 21.9-7.37 5.23-1.4 12.62-2.31 19.91 1.52.01.01-1.83-3.49-10.66-5.66z" fill="url(#f)"/><linearGradient id="g" x1="25.782" x2="36.843" y1="75.923" y2="75.923" gradientUnits="userSpaceOnUse"><stop stop-color="#FFEBC0" stop-opacity=".971" offset=".294"/><stop stop-color="#FFF8E1" stop-opacity=".971" offset="1"/></linearGradient><path d="M35.46 90.97c.01-.05.01-.09.02-.14.3-2.32.53-4.65.78-6.97l.58-7.59-4.09 2.32s-3.69-8.78.75-17.71c0 0-4.29.63-6.81 1.37-.04.27-.07.55-.12.83-1.45 8-.95 14.75 1.76 19.83 1.92 3.62 3.93 5.79 7.09 8.05.01-.01.02 0 .04.01z" fill="url(#g)"/><path d="M39.55 10c1.74 1.65 4.37 5.51 7.54 14.51l.04.13c1.36 3.87 2.16 7.68 2.93 11.37.35 1.68.68 3.26 1.06 4.78.78 3.17 2.6 5.61 3.96 7.07-.52.53-.89.91-.89.91l-.92.95.51 1.22c.1.24 1.02 2.35 2.96 3.45 1.44.82 8.98 3.7 16.69 3.7.36 0 .72-.01 1.08-.02 4.08-.15 7.62-.92 11.06-1.67 3.17-.69 6.16-1.34 9.06-1.34 3.6 0 6.78 1.03 10.02 3.23 10.54 7.17 12.03 23.38 12.84 32.09.07.74.13 1.43.2 2.06.37 3.66.69 8.05 1.01 12.29.47 6.28.91 12.22 1.48 16 .05.35-.04.69-.25.93-.13.15-.36.33-.73.33l-10.32.01c-.6 0-.99-.03-1.22-.07.03-.23.09-.6.23-1.18.05-.14.15-.41.23-.65.1-.27.19-.52.23-.63.4-1.28.84-1.29 1.56-1.29h.01c.15 0 .29 0 .43.01.16 0 .31.01.46.01.43 0 1.74 0 2.51-1.13.84-1.23.27-2.7.03-3.33-.44-1.12-10.83-18.3-15.07-22.03-3.27-2.88-8.76-4.6-14.69-4.6-2.55 0-5.01.31-7.33.93-.61.16-1.41.56-3 1.38-4.05 2.07-11.6 5.92-18.38 5.92-1 0-2.04-.06-3.19-.17l-1.54-.15-.54 1.45c-7.63 20.62-9.41 24.36-9.82 25l-.07.11c-.03.05-.07.11-.11.17l-11.67.07c.3-1.52 1-2.92 1.42-3.18 1.76-.22 2.5-.31 2.96-.57 1.38-.36 1.78-.98 3.55-14.33.82-6.23 1.55-12.5 1.56-12.57l.13-1.17-.96-.69C33.44 87.05 31.63 85 30.14 82c-2.44-4.92-2.96-11-1.59-18.59.13-.71.23-1.43.31-2.17.03-.04.06-.09.08-.13.28-.45.7-1.12.66-1.98l-.08-2.6-2.48.76s-.17.05-.43.07c.24-.47.48-1.03.71-1.68l.02-.05.01-.05c1.44-4.94.02-8.39-.44-9.05l-.57-.81-.95-.07c-6.59-.45-14.38-1.21-15.85-1.74-1.14-.41-3.08-5.12-3.65-9.83-.02-.15.08-.29.22-.32 14.27-2.93 17.43-4.48 22.41-9.09.97-.9 3.34-1.46 6.18-1.46.57 0 .93.02.93.02l1.95.14.18-1.94c.22-2.38.98-9.08 1.78-11.42 0 .02.01 0 .01-.01m-.25-2.4c-.86 0-1.38.97-1.66 1.8-1.04 3.08-1.87 11.88-1.87 11.88s-.41-.03-1.07-.03c-1.85 0-5.63.23-7.54 1.99-4.52 4.18-7.09 5.65-21.45 8.6a2.27 2.27 0 0 0-1.8 2.52C4.4 38.4 6.28 44.9 8.87 45.83c2.54.91 16.38 1.85 16.39 1.85.09.01 1.46 2.96.18 7.37-.94 2.71-2 3.15-2 3.15.89.98 2.03 1.2 2.9 1.2.74 0 1.27-.16 1.27-.16.02.45-.68 1.14-.71 1.59-.08.76-.18 1.51-.32 2.25-1.45 8-.91 14.45 1.76 19.83 1.75 3.52 3.93 5.79 7.09 8.05 0 0-2.88 25.01-3.78 25.23-.92.23.68.09-2.61.49-1.82.22-2.98 3.55-3.2 5.57-.09.85.58 1.59 1.45 1.59l12.74-.08c.72 0 1.06-.61 1.44-1.21 1.24-1.97 6.34-15.47 10.01-25.38 1.12.11 2.25.18 3.39.18 9.48 0 20.04-6.87 21.9-7.37 2.19-.59 4.52-.87 6.81-.87 5.27 0 10.38 1.47 13.36 4.1 3.84 3.38 14.16 20.31 14.53 21.26.6 1.55.17 1.74-.67 1.74-.26 0-.56-.02-.88-.02-1.21 0-2.71.25-3.47 2.69-.07.22-.44 1.16-.49 1.37-.71 2.94-.35 3.76 2.93 3.76l10.31-.01c1.89 0 3.24-1.7 2.96-3.56-.95-6.3-1.57-19.25-2.47-28.2-.86-8.53-1.67-27.29-13.9-35.61-3.97-2.7-7.58-3.58-11.15-3.58-6.28 0-12.44 2.72-20.19 3.01-.33.01-.67.02-1 .02-7.12 0-14.38-2.69-15.71-3.44-1.39-.79-2.09-2.47-2.09-2.47s1.21-1.24 2.31-2.35c0 0-3.74-2.88-4.87-7.49-1.17-4.79-2.01-10.53-4.05-16.33-.88-2.52-4.26-12.27-8.55-15.84-.32-.27-.69-.53-1.12-.55-.04-.01-.05-.01-.07-.01z" fill="#B88049"/><radialGradient id="h" cx="80.513" cy="27.172" r="59.427" gradientTransform="matrix(.8436 .537 -.5164 .8113 26.624 -38.105)" gradientUnits="userSpaceOnUse"><stop stop-color="#212121" offset=".034"/><stop stop-color="#242322" stop-opacity=".767" offset=".315"/><stop stop-color="#2D2826" stop-opacity=".599" offset=".518"/><stop stop-color="#3D312D" stop-opacity=".452" offset=".696"/><stop stop-color="#533D36" stop-opacity=".317" offset=".859"/><stop stop-color="#6D4C41" stop-opacity=".2" offset="1"/></radialGradient><path d="M53.06 40.31c-1.17-4.79-2.01-10.53-4.05-16.33-.88-2.52-4.26-12.27-8.55-15.84-.32-.27-.69-.53-1.12-.55-.89-.03-1.42.96-1.71 1.8-.87 2.57-1.59 9.06-1.8 11.18.92 1.9 2.48 4.57 5.16 8.34 5.96 8.38 2.98 15.06-1.05 21.83C35 59.08 36.59 65.8 36.59 65.8s9.33-5.62 14.08-4.39C63.02 64.58 56.56 79 73.5 82.34c26.52 5.23 34.86-22.97 34.96-23.55a.435.435 0 0 0-.07-.06c-.48-.38-1.7-1.42-2.36-1.92-.09-.06-.17-.13-.26-.19-10.97-7.42-19.18-1.02-31.34-.57-7.42.28-14.39-1.97-15.78-2.76-.26-.15-.53-.36-.8-.59l-.14-.07c-1.39-.79-2.09-2.47-2.09-2.47s1.21-1.24 2.31-2.35c0-.01-3.74-2.89-4.87-7.5z" fill="url(#h)" opacity=".9"/><linearGradient id="i" x1="2.681" x2="27.552" y1="26.384" y2="38.486" gradientUnits="userSpaceOnUse"><stop stop-color="#212121" offset="0"/><stop stop-color="#242322" stop-opacity=".767" offset=".291"/><stop stop-color="#2D2826" stop-opacity=".599" offset=".501"/><stop stop-color="#3D312D" stop-opacity=".452" offset=".685"/><stop stop-color="#533D36" stop-opacity=".317" offset=".854"/><stop stop-color="#6D4C41" stop-opacity=".2" offset="1"/></linearGradient><path d="M25.84 46.34c-.03-2.72-3.17-4.35-3.9-5.23-.74-.88-1.3-1.91-1.4-3.06-.52-5.84 4.99-4.6 7.04-5.48 3.36-1.44 2.32-6.83.58-10.08-.32.19-.63.39-.89.64-4.52 4.18-7.09 5.65-21.45 8.6a2.27 2.27 0 0 0-1.8 2.52c.49 4.04 2.37 10.54 4.96 11.47 2.54.91 16.38 1.85 16.39 1.85s.48-.41.47-1.23z" fill="url(#i)" opacity=".85"/><ellipse transform="rotate(-47.156 26.478 30.62)" cx="26.48" cy="30.62" rx="2.41" ry="2.13"/><linearGradient id="j" x1="7.673" x2="7.673" y1="35.983" y2="32.471" gradientTransform="rotate(-7.735 18.979 39.376)" gradientUnits="userSpaceOnUse"><stop offset=".314"/><stop stop-color="#050403" stop-opacity=".723" offset=".746"/></linearGradient><path d="M4.66 38.22s5.41-2.14 4.73-7.15c0 0-2.41.49-3.68.76-1.13.24-1.98.81-1.78 2.56s.73 3.83.73 3.83z" fill="url(#j)"/><path d="M42.76 26.77s-2.5-2.41-2.92-4.63c-.28-1.5.38-7.79.38-7.79 3.56 4.18 2.54 12.42 2.54 12.42z" fill="#DD7052"/><linearGradient id="k" x1="72.902" x2="72.137" y1="85.391" y2="51.077" gradientUnits="userSpaceOnUse"><stop stop-color="#B71C1C" offset="0"/><stop stop-color="#C22321" offset=".165"/><stop stop-color="#DE342E" offset=".451"/><stop stop-color="#EF3F36" offset=".599"/><stop stop-color="#E33832" offset=".75"/><stop stop-color="#C62828" offset=".995"/></linearGradient><path d="M58.42 76.82c-6.1 0-10.77-5.26-6.29-12.12 3.41-5.23 6.04-10.63 8.52-11 2.84-.42 33.15-.66 33.15-.66 3.38 3.42-8.29 7.1-8.29 11.17 0 3.23.39 4.53.39 4.53.34 5.04-3.64 8.02-8.69 8.04-7.94.03-18.17.04-18.79.04z" fill="url(#k)"/><path d="M94.01 53.29c0 5.16-4.92 5.77-7.48 8.72-.61.7-.97 1.73-.95 3.05l.32 3.69c.34 5.04-3.64 8.02-8.69 8.04-7.94.03-18.17.03-18.79.03-6.1 0-10.77-5.26-6.29-12.12 3.41-5.23 6.04-10.63 8.52-11" fill="none" stroke="#212121" stroke-linecap="round" stroke-miterlimit="10" stroke-width="2"/><linearGradient id="l" x1="67.846" x2="67.846" y1="95.499" y2="52.63" gradientUnits="userSpaceOnUse"><stop stop-color="#616161" offset="0"/><stop stop-color="#555" offset=".267"/><stop stop-color="#343434" offset=".751"/><stop stop-color="#212121" offset="1"/></linearGradient><path d="M69.88 93.95l-3.56 1.5a.66.66 0 0 1-.91-.61V53.29c0-.36.29-.66.66-.66h3.56c.36 0 .66.29.66.66v40.05c-.01.27-.16.5-.41.61z" fill="url(#l)"/><linearGradient id="m" x1="24.524" x2="55.384" y1="69.813" y2="69.813" gradientUnits="userSpaceOnUse"><stop stop-color="#616161" offset="0"/><stop stop-color="#555" offset=".267"/><stop stop-color="#343434" offset=".751"/><stop stop-color="#212121" offset="1"/></linearGradient><path d="M24.52 70.61v-1.6c0-1.3.33-1.64 1.24-1.64H54.6c.43 0 .79.35.79.79v3.3c0 .43-.35.79-.79.79H25.76c-.9 0-1.24-.17-1.24-1.64z" fill="url(#m)"/><path d="M69.28 53.63v39.48l-2.88 1.21V53.63h2.88m.35-1h-3.56a.66.66 0 0 0-.66.66v41.55c0 .38.31.66.66.66.08 0 .17-.02.26-.05l3.56-1.5c.24-.1.4-.34.4-.61V53.29a.666.666 0 0 0-.66-.66zM54.38 68.37v2.88H25.56c-.02-.11-.04-.31-.04-.64v-1.6c0-.35.03-.54.05-.63.04 0 .1-.01.19-.01h28.62m.22-1H25.76c-.91 0-1.24.34-1.24 1.64v1.6c0 1.47.33 1.64 1.24 1.64H54.6c.43 0 .79-.35.79-.79v-3.3a.805.805 0 0 0-.79-.79z" fill="#212121" opacity=".41"/><path d="M56.56 49.68c.22-2.25 5.21-4.18 6.24-1.27 1.26 3.58-3.14 4.63-5.08 4.21" fill="none" stroke="#757575" stroke-linecap="square" stroke-miterlimit="10"/><linearGradient id="n" x1="82.881" x2="49.548" y1="25.936" y2="61.77" gradientUnits="userSpaceOnUse"><stop stop-color="#00897B" offset="0"/><stop stop-color="#00695C" offset=".946"/></linearGradient><path d="M62.8 49.92a1.505 1.505 0 0 1-.95-2.67c14.33-11.62 29.6-29.63 36.31-42.81.38-.74 1.28-1.03 2.02-.66.74.38 1.03 1.28.66 2.02-6.88 13.51-22.48 31.92-37.09 43.78-.28.23-.62.34-.95.34z" fill="url(#n)"/><linearGradient id="o" x1="25.406" x2="58.651" y1="56.397" y2="56.397" gradientUnits="userSpaceOnUse"><stop stop-color="#C62828" offset="0"/><stop stop-color="#EF3F36" offset=".529"/><stop stop-color="#EF3F36" offset=".533"/><stop stop-color="#E33832" offset=".711"/><stop stop-color="#C62828" offset="1"/></linearGradient><path d="M25.55 62.11l-.14-1.54c-.06-.66.4-1.25 1.05-1.33 3.9-.53 16.95-2.7 29.61-9.52.59-.32 1.33-.11 1.66.47l.75 1.34c.34.6.12 1.36-.49 1.69-13.43 7.24-26.93 9.46-31.07 9.99-.68.1-1.3-.4-1.37-1.1z" fill="url(#o)"/><path d="M56.67 50.57c.03 0 .14.01.2.11l.75 1.34c.04.08.03.15.02.18-.01.04-.04.1-.11.14-13.35 7.2-26.89 9.39-30.76 9.89-.12 0-.21-.09-.23-.21l-.14-1.54c-.01-.13.07-.23.19-.25 3.78-.51 17.1-2.71 29.95-9.63.05-.02.09-.03.13-.03m0-1c-.2 0-.4.05-.59.15-12.67 6.82-25.71 9-29.61 9.52-.65.09-1.12.68-1.05 1.33l.14 1.54c.06.64.6 1.12 1.22 1.12.05 0 .11 0 .16-.01 4.14-.54 17.64-2.75 31.07-9.99.6-.33.82-1.09.49-1.69l-.75-1.34a1.23 1.23 0 0 0-1.08-.63zM67.75 46.18c.5-.44.99-.86 1.49-1.31.48-.43.96-.89 1.44-1.33.44-.4.87-.8 1.31-1.21.58-.55 1.16-1.13 1.75-1.7.32-.32.65-.63.98-.95.65-.65 1.3-1.31 1.94-1.97.25-.25.5-.5.75-.76.72-.75 1.44-1.51 2.15-2.28.16-.17.33-.34.49-.52.78-.84 1.54-1.69 2.3-2.55l.27-.3c.82-.93 1.64-1.87 2.43-2.81.02-.03.04-.05.06-.07C91.67 20.69 97.28 12.74 100.74 6c.03-.06.07-.13.1-.19.28-.55.19-1.2-.19-1.65-.74 1.41-2.09 3.77-2.26 4.07-7.43 13.05-21.77 29.62-35.27 40.57-.11.09-.23.11-.31.11a.508.508 0 0 1-.5-.56c.01-.08.04-.22.18-.34C75.88 37.16 90.1 20.75 97.48 7.81c.21-.36 1.5-2.91 2.04-4.18-.55 0-1.09.29-1.35.81-.42.82-.87 1.67-1.36 2.53-.09.16-.2.33-.29.49-3.26 5.69-7.84 12.04-13.09 18.29-.62.74-1.25 1.48-1.89 2.21-1.2 1.38-2.41 2.75-3.66 4.11-1.62 1.75-3.27 3.47-4.95 5.14-.1.1-.19.2-.29.3-3.55 3.53-7.19 6.83-10.77 9.74a1.505 1.505 0 0 0 1.89 2.34c.91-.74 1.83-1.5 2.74-2.29.41-.37.83-.75 1.25-1.12z" fill="#212121" opacity=".2"/><path fill="none" opacity=".2" stroke="#212121" stroke-miterlimit="10" d="M60.03 54.16l34.39-.58"/><path d="M37.15 93.04l-1.82-.87.98-8.8c.02-.21.29-.28.42-.12.5.63 1.27 2.59 1.08 4.79-.13 1.52-.66 5-.66 5zM50.67 99.29l-1.86-.74s1.66-4.76 2.58-6.82c1.17-2.61 2.96-3.25 2.96-3.25.21-.07.4.13.32.33l-4 10.48z" fill="#B88049"/></svg>