<svg viewBox="0 0 128 128" width="128" height="128" xmlns="http://www.w3.org/2000/svg" xmlns:xlink="http://www.w3.org/1999/xlink"><defs><path id="a" d="M3.73 4h120v120h-120z"/></defs><clipPath id="b"><use xlink:href="#a"/></clipPath><g clip-path="url(#b)"><linearGradient id="c" x1="94.982" x2="94.982" y1="68.76" y2="127.02" gradientUnits="userSpaceOnUse"><stop stop-color="#FF8530" offset="0"/><stop stop-color="#FD7D2A" offset=".248"/><stop stop-color="#F86918" offset=".622"/><stop stop-color="#F24D00" offset="1"/></linearGradient><path d="M64.48 127.34V88.72c0-9.31 7.37-16.61 19.71-19.54 4.28-1.02 8.34-1.51 12.42-1.51 2.85 0 5.74.25 8.61.75 9.79 1.69 20.25 7.91 20.25 20.31v38.64l-60.99-.03z" fill="url(#c)"/><path d="M96.62 69.17c2.76 0 5.57.24 8.36.72 5.59.96 10.31 3.14 13.66 6.28 3.55 3.33 5.35 7.55 5.35 12.54v37.14l-58-.01V88.72c0-12.69 14.2-17.05 18.56-18.08 4.16-.99 8.11-1.47 12.07-1.47m0-3c-4.4 0-8.62.57-12.77 1.55-11.23 2.67-20.86 9.63-20.86 21v40.12l64 .02V88.72c0-12.28-9.62-19.73-21.5-21.78-3.05-.53-6-.77-8.87-.77z" fill="#DB5200"/><linearGradient id="d" x1="120.98" x2="120.98" y1="98.824" y2="128.82" gradientUnits="userSpaceOnUse"><stop stop-color="#FFB300" offset="0"/><stop stop-color="#FFCA28" offset=".401"/></linearGradient><path fill="url(#d)" d="M115.98 98.82h10v30h-10z"/><path d="M124.98 99.82v28h-8v-28h8m2-2h-12v32h12v-32z" fill="#EDA600"/></g><g clip-path="url(#b)"><defs><path id="e" d="M-.27 0h128v128h-128z"/></defs><clipPath id="f"><use xlink:href="#e"/></clipPath><g clip-path="url(#f)"><linearGradient id="g" x1="31.732" x2="31.732" y1="69.078" y2="130.45" gradientUnits="userSpaceOnUse"><stop stop-color="#67B730" offset="0"/><stop stop-color="#64AF2E" offset=".242"/><stop stop-color="#5A9B2A" offset=".607"/><stop stop-color="#4D7D23" offset="1"/></linearGradient><path d="M1.23 127.34V88.72c0-9.31 7.37-16.61 19.71-19.54 4.28-1.02 8.35-1.51 12.42-1.51 2.85 0 5.74.25 8.61.75 9.79 1.69 20.25 7.91 20.25 20.31v38.64l-60.99-.03z" fill="url(#g)"/><path d="M33.37 69.17c2.76 0 5.57.24 8.36.72 5.59.96 10.31 3.14 13.66 6.28 3.55 3.33 5.35 7.55 5.35 12.54v37.14l-58-.01V88.72c0-12.69 14.2-17.05 18.56-18.08 4.16-.99 8.11-1.47 12.07-1.47m0-3c-4.4 0-8.62.57-12.77 1.55-11.23 2.67-20.86 9.63-20.86 21v40.12l64 .02V88.72c0-12.28-9.62-19.73-21.5-21.78-3.05-.53-6-.77-8.87-.77z" fill="#518626"/><linearGradient id="h" x1="5.732" x2="5.732" y1="97.824" y2="127.82" gradientUnits="userSpaceOnUse"><stop stop-color="#FFB300" offset="0"/><stop stop-color="#FFCA28" offset=".401"/></linearGradient><path fill="url(#h)" d="M.73 97.82h10v30h-10z"/><path d="M9.73 98.82v28h-8v-28h8m2-2h-12v32h12v-32z" fill="#EDA600"/></g><radialGradient id="i" cx="63.982" cy="88.863" r="27.917" gradientTransform="matrix(1 0 0 2.3255 0 -117.79)" gradientUnits="userSpaceOnUse"><stop stop-color="#212121" offset="0"/><stop stop-color="#2B2B2B" stop-opacity=".754" offset=".246"/><stop stop-color="#474747" stop-opacity=".335" offset=".665"/><stop stop-color="#616161" stop-opacity="0" offset="1"/></radialGradient><path d="M84.83 67.62c-11.88 2.05-21.08 9.5-21.08 21.78 0-12.28-9.67-20.35-21.55-22.4-1.84-.32-3.47-.53-5.47-.65v63.18l27 .01 27-.01V66.95c-2 .11-3.93.33-5.9.67z" clip-path="url(#f)" fill="url(#i)" opacity=".4"/><g clip-path="url(#f)"><path d="M42.91 138.12c-.09-2.59.01-10.85.1-16.12 0-9.25 12.38-12.16 15.88-12.16h9.38c3.5 0 15.87 2.91 15.87 12.14 0 0 0 .6.01 1.06.16 9.99.14 13.71.09 15.08H42.91z" fill="#9B40D0"/><path d="M68.28 110.84c3.28 0 14.87 2.67 14.87 11.14v.28c0 .04 0 .33.01.8.13 8.28.14 12.2.11 14.06H43.89c-.04-3.16.03-10.11.12-15.14 0-8.47 11.6-11.14 14.88-11.14h9.39m0-2H58.9c-4.35 0-16.88 3.3-16.88 13.14 0 0-.31 17.14 0 17.14h43.12c.31 0 0-16.51 0-16.86v-.28c0-9.84-12.51-13.14-16.86-13.14z" fill="#8838B5"/><path d="M63.57 115.8c-2.31 0-4.19-1.88-4.19-4.19v-3.1h8.39v3.1c0 2.31-1.88 4.19-4.2 4.19z" fill="#E59600"/><path d="M67.27 109.01v2.6c0 2.04-1.66 3.69-3.69 3.69-2.04 0-3.69-1.66-3.69-3.69v-2.6h7.38m1-1h-9.39v3.6a4.69 4.69 0 0 0 9.38 0v-3.6h.01z" fill="#D18100"/><defs><path id="j" d="M40.28 64.24h46.9v46.9h-46.9z"/></defs><clipPath id="k"><use xlink:href="#j"/></clipPath><g clip-path="url(#k)"><path d="M49.09 99.84c-2.91 0-5.28-2.27-5.28-5.06s2.37-5.06 5.28-5.06h29.48c2.91 0 5.28 2.27 5.28 5.06s-2.37 5.06-5.28 5.06H49.09z" fill="#E59600"/><path d="M78.57 90.21c2.64 0 4.78 2.05 4.78 4.56 0 2.52-2.14 4.56-4.78 4.56H49.08c-2.64 0-4.78-2.05-4.78-4.56 0-2.52 2.14-4.56 4.78-4.56h29.49m0-1H49.08c-3.18 0-5.78 2.5-5.78 5.56s2.6 5.56 5.78 5.56h29.49c3.18 0 5.78-2.5 5.78-5.56s-2.61-5.56-5.78-5.56z" fill="#CC8600"/><linearGradient id="l" x1="63.714" x2="63.714" y1="110.62" y2="66.445" gradientUnits="userSpaceOnUse"><stop stop-color="#FFB300" offset="0"/><stop stop-color="#FFB809" offset=".102"/><stop stop-color="#FFC21A" offset=".371"/><stop stop-color="#FFC825" offset=".659"/><stop stop-color="#FFCA28" offset="1"/></linearGradient><path d="M63.71 110.62c-8.41 0-17.46-6.4-17.46-20.45 0-11.25 6.68-23.4 17.46-23.4 10.79 0 17.46 12.14 17.46 23.4.01 14.05-9.05 20.45-17.46 20.45z" fill="url(#l)"/><path d="M63.71 67.27c4.28 0 8.54 2.29 11.69 6.28 3.4 4.3 5.27 10.2 5.27 16.61 0 6.24-1.83 11.44-5.3 15.04-3.05 3.17-7.19 4.91-11.66 4.91s-8.61-1.74-11.66-4.91c-3.47-3.6-5.3-8.8-5.3-15.04 0-6.41 1.87-12.31 5.27-16.61 3.15-3.99 7.41-6.28 11.69-6.28m0-1c-9.33 0-17.96 9.8-17.96 23.9 0 14.02 8.9 20.95 17.96 20.95s17.96-6.93 17.96-20.95c.01-14.11-8.63-23.9-17.96-23.9z" fill="#EDA600"/><path d="M65.72 96.72a.471.471 0 0 0-.17-.04h-3.63c-.06.01-.11.02-.17.04-.33.13-.51.47-.35.84.16.36.88 1.38 2.34 1.38s2.18-1.02 2.34-1.38c.15-.37-.04-.71-.36-.84z" fill="#E59600"/><g fill="#6D4C41"><path d="M51.5 89.41s.07-.1.2-.26c.03-.04.06-.08.11-.13.06-.06.12-.11.19-.17s.14-.13.22-.19.16-.12.25-.18l.27-.18c.1-.05.2-.11.31-.17s.22-.11.34-.15c.12-.05.24-.09.36-.14.25-.07.52-.15.79-.18.27-.05.55-.06.84-.07.28.01.56.02.84.07.27.03.54.11.79.18.12.04.25.09.36.14.12.05.23.09.34.15s.21.11.31.17.19.12.27.18c.09.06.17.11.24.18.07.06.14.12.2.18s.12.11.17.16.09.11.13.15c.16.18.24.3.24.3.26.36.18.87-.18 1.13a.8.8 0 0 1-.73.11l-.15-.05s-.1-.03-.25-.1c-.04-.02-.08-.04-.13-.06l-.15-.06c-.11-.04-.23-.09-.36-.13-.07-.02-.13-.05-.2-.07l-.22-.06-.11-.03c-.04-.01-.08-.01-.12-.02-.08-.01-.16-.04-.24-.05-.17-.02-.34-.05-.51-.06-.17-.02-.35-.02-.53-.03-.18.01-.36 0-.53.03-.18.01-.35.04-.51.06-.08.01-.16.04-.24.05-.04.01-.08.01-.12.02s-.08.02-.11.03c-.08.02-.15.04-.22.06s-.14.05-.2.07c-.07.02-.13.04-.19.06-.05.02-.1.04-.15.05-.05.02-.09.03-.14.04-.05.02-.1.05-.15.07-.18.09-.29.14-.29.14a.83.83 0 0 1-1.09-.45c-.14-.27-.1-.57.05-.79zM74.96 90.64s-.11-.05-.29-.14c-.04-.02-.1-.05-.15-.07-.05-.01-.09-.03-.14-.04-.05-.02-.1-.03-.15-.05-.06-.02-.12-.04-.19-.06s-.13-.05-.2-.07l-.22-.06-.11-.03c-.04-.01-.08-.01-.12-.02-.08-.01-.16-.04-.24-.05-.17-.02-.34-.05-.51-.06-.17-.02-.35-.02-.53-.03-.18.01-.36 0-.53.03-.18.01-.35.04-.51.06-.08.01-.16.04-.24.05-.04.01-.08.01-.12.02s-.08.02-.11.03c-.08.02-.15.04-.22.06s-.14.05-.2.07c-.13.04-.25.08-.36.13l-.15.06c-.05.02-.09.04-.13.06-.15.07-.25.1-.25.1l-.14.05a.811.811 0 0 1-.92-1.24s.08-.11.24-.3c.04-.05.08-.1.13-.15s.11-.1.17-.16.13-.12.2-.18.16-.11.24-.18l.27-.18c.1-.05.2-.11.31-.17s.22-.11.34-.15c.12-.05.24-.09.36-.14.25-.07.52-.15.79-.18.27-.05.55-.06.83-.07.28.01.56.02.83.07.27.03.54.11.79.18.12.04.25.09.36.14.12.05.23.09.34.15s.21.11.31.17.19.12.27.18c.09.06.17.11.25.18l.22.19c.07.06.13.12.19.17.05.05.08.09.11.13.13.16.2.26.2.26.26.38.16.9-.22 1.15-.25.17-.55.19-.8.09z"/></g><g fill="#404040"><ellipse cx="55.19" cy="94.07" rx="2.53" ry="2.62"/><ellipse cx="72.28" cy="94.07" rx="2.53" ry="2.62"/></g><radialGradient id="m" cx="72.286" cy="66.239" r="24.009" gradientTransform="translate(-11.966 -2.86) scale(1.0432)" gradientUnits="userSpaceOnUse"><stop stop-color="#6D4C41" offset="0"/><stop stop-color="#543930" offset=".901"/></radialGradient><path d="M79.36 69.83c-2.33-2.43-4.54-3.46-4.76-3.49-2.71-1.24-6.2-2.18-10.72-2.18-19.87 0-21.25 16.27-20.45 23.4.7 6.29 3.98 7.84 3.98 7.84s-.64-5.49.4-9.47c.83-3.16 2.8-5.5 2.8-5.5s3.58 3.12 10.27 5.15c3.22.98 7.35.49 7.35.49l-2.32-4.1s3.78 2.79 6.14 3.32c3.02.68 5.24.39 5.24.39l-1.11-4.33s1.92 1.26 3.36 4.71.55 9.34.55 9.34 3.46-1.54 4.01-7.84c.69-7.89-.26-12.62-4.74-17.73z" fill="url(#m)"/><path d="M63.88 66.16c3.67 0 6.99.67 9.88 2l.28.13.06.01c.56.27 2.34 1.27 3.75 2.85 3.9 4.45 4.94 8.4 4.25 16.24l-.03.34c-.15-.85-.37-1.68-.69-2.43-1.63-3.9-3.86-5.45-4.1-5.61l-4.32-2.85 1.29 5.02.47 1.84c-.64-.06-1.4-.16-2.22-.35-1.41-.32-4.06-2-5.4-2.98l-7.51-5.53 4.59 8.12.69 1.22c-1.31-.05-2.48-.23-3.4-.51-6.14-1.86-9.51-4.72-9.53-4.74l-1.53-1.34-1.31 1.56c-.09.11-2.27 2.73-3.2 6.28-.19.71-.32 1.46-.42 2.21-.01-.1-.02-.2-.04-.3-.26-2.35-.74-10.43 4.15-15.9 3.11-3.5 7.92-5.28 14.29-5.28m0-2c-19.87 0-21.25 16.27-20.45 23.4.7 6.29 3.98 7.84 3.98 7.84s-.64-5.49.4-9.47c.83-3.16 2.8-5.5 2.8-5.5s3.58 3.12 10.27 5.15c1.61.49 3.44.61 4.87.61 1.44 0 2.48-.12 2.48-.12l-2.32-4.1s3.78 2.79 6.14 3.32c1.63.37 3.02.45 3.96.45.81 0 1.28-.06 1.28-.06l-1.11-4.33s1.92 1.26 3.36 4.71.55 9.34.55 9.34 3.46-1.54 4.01-7.84c.69-7.89-.25-12.62-4.74-17.74-1.98-2.21-4.54-3.46-4.76-3.49-2.71-1.23-6.2-2.17-10.72-2.17z" fill="#402720"/><defs><path id="n" d="M57.72 67.64S45.65 80.56 45.31 86.06c-.26 4.13 2.94 7.38 2.94 7.38.61 2.18-.84 1.97-.84 1.97s-.64-5.49.4-9.47c.83-3.16 2.8-5.5 2.8-5.5s3.58 3.12 10.27 5.15c3.22.98 7.35.49 7.35.49l-2.32-4.1s3.78 2.79 6.14 3.32c3.02.68 5.24.39 5.24.39l-1.11-4.33s1.92 1.26 3.36 4.71-2.66 9.34-2.66 9.34 4.76-1.53 5.31-7.83c.69-7.9-19.95-19.94-24.47-19.94z"/></defs><clipPath id="o"><use xlink:href="#n"/></clipPath><g clip-path="url(#o)"><path d="M79.36 69.83c-2.33-2.43-4.54-3.46-4.76-3.49-2.71-1.24-6.2-2.18-10.72-2.18-19.87 0-21.25 16.27-20.45 23.4.7 6.29 3.98 7.84 3.98 7.84s-.64-5.49.4-9.47c.83-3.16 2.8-5.5 2.8-5.5s3.58 3.12 10.27 5.15c3.22.98 7.35.49 7.35.49l-2.32-4.1s3.78 2.79 6.14 3.32c3.02.68 5.24.39 5.24.39l-1.11-4.33s1.92 1.26 3.36 4.71.55 9.34.55 9.34 3.46-1.54 4.01-7.84c.69-7.89-.26-12.62-4.74-17.73z" fill="url(#m)"/></g><path d="M68.04 100.89c-1.64.97-7 .97-8.64 0-.94-.56-1.9.3-1.51 1.15.38.84 3.31 2.79 5.84 2.79s5.42-1.95 5.8-2.79c.39-.86-.55-1.71-1.49-1.15z" fill="#795548"/></g></g></g><path d="M116.92 56.6c-1.04-1.91.16-3.66 2.16-5.61 2.25-2.19 5.99-9.73 2.02-16.45-.75-.1-11.6.05-14.35.05H83.31c-2.75 0-13.6-.15-14.35-.05-3.97 6.72-.23 14.25 2.02 16.45 2 1.95 3.2 3.7 2.16 5.61-.68 1.25-1.69 1.66-2.43 1.8.19.29.45.53.76.7 1.05.59 2.38.73 3.24.75.52.01.9.34 1.24.7 3.66 3.83 6.2 4.62 19.07 4.62s15.41-.79 19.07-4.62c.34-.36.72-.68 1.24-.7.86-.02 2.19-.16 3.24-.75.31-.17.57-.42.76-.7-.71-.14-1.72-.55-2.41-1.8z" fill="#543930"/><path d="M116.92 56.6c-1.04-1.91.16-3.66 2.16-5.61 2.25-2.19 5.99-9.73 2.02-16.45-.75-.1-11.6.05-14.35.05H83.31c-2.75 0-13.6-.15-14.35-.05-3.97 6.72-.23 14.25 2.02 16.45 2 1.95 3.2 3.7 2.16 5.61-.68 1.25-1.69 1.66-2.43 1.8.19.29.45.53.76.7 1.05.59 2.38.73 3.24.75.52.01.9.34 1.24.7 3.66 3.83 6.2 4.62 19.07 4.62s15.41-.79 19.07-4.62c.34-.36.72-.68 1.24-.7.86-.02 2.19-.16 3.24-.75.31-.17.57-.42.76-.7-.71-.14-1.72-.55-2.41-1.8z" fill="none" stroke="#402720" stroke-miterlimit="10" stroke-width="2"/><path d="M94.98 74.12c-3.31 0-6-2.69-6-6V62.7h12v5.42c0 3.31-2.69 6-6 6z" fill="#E59600"/><path d="M99.98 63.7v4.42c0 2.76-2.24 5-5 5s-5-2.24-5-5V63.7h10m2-2h-14v6.42c0 3.87 3.13 7 7 7s7-3.13 7-7V61.7z" fill="#D18100"/><path d="M77.02 49.97c-3.47 0-6.3-3.03-6.3-6.76s2.82-6.76 6.3-6.76h35.99c3.47 0 6.3 3.03 6.3 6.76s-2.82 6.76-6.3 6.76H77.02z" fill="#E59600"/><path d="M113.01 37.22c3.05 0 5.54 2.69 5.54 6s-2.48 6-5.54 6H77.03c-3.05 0-5.54-2.69-5.54-6s2.48-6 5.54-6h35.98m0-1.52H77.03c-3.88 0-7.05 3.38-7.05 7.51s3.17 7.51 7.05 7.51h35.98c3.88 0 7.05-3.38 7.05-7.51.01-4.12-3.17-7.51-7.05-7.51z" fill="#D18100"/><linearGradient id="p" x1="95.019" x2="95.019" y1="64.684" y2="11.04" gradientUnits="userSpaceOnUse"><stop stop-color="#FFB300" offset="0"/><stop stop-color="#FFB809" offset=".102"/><stop stop-color="#FFC21A" offset=".371"/><stop stop-color="#FFC825" offset=".659"/><stop stop-color="#FFCA28" offset="1"/></linearGradient><path d="M95.02 65.13c-5.62 0-10.82-2.23-14.66-6.29-4.35-4.6-6.65-11.23-6.65-19.16 0-8.13 2.34-15.62 6.58-21.09 3.96-5.11 9.33-8.04 14.73-8.04s10.77 2.93 14.73 8.04c4.24 5.47 6.58 12.96 6.58 21.09 0 7.94-2.3 14.56-6.65 19.16-3.84 4.06-9.05 6.29-14.66 6.29z" fill="url(#p)"/><path d="M95.02 11.3c5.17 0 10.32 2.82 14.13 7.74 4.14 5.34 6.42 12.67 6.42 20.63 0 7.74-2.23 14.19-6.44 18.64-3.69 3.9-8.7 6.05-14.11 6.05s-10.42-2.15-14.11-6.05c-4.22-4.46-6.44-10.9-6.44-18.64 0-7.96 2.28-15.29 6.42-20.63 3.81-4.92 8.96-7.74 14.13-7.74m0-1.52c-11.46 0-22.07 12.26-22.07 29.89 0 17.54 10.93 26.21 22.07 26.21s22.07-8.67 22.07-26.21c0-17.63-10.61-29.89-22.07-29.89z" fill="#ED9E00"/><path d="M98.03 47.35c-.08-.03-.17-.05-.25-.06h-5.51c-.08.01-.17.03-.25.06-.5.2-.77.72-.54 1.27.24.55 1.33 2.1 3.54 2.1s3.31-1.55 3.54-2.1c.24-.55-.04-1.07-.53-1.27z" fill="#E59600"/><path d="M100.75 53.2c-1.97 1.42-9.47 1.42-11.44 0-1.13-.82-2.58-.21-2.27.82.31 1.02 4.21 3.98 8.01 3.98s7.64-2.96 7.95-3.98c.31-1.03-1.12-1.64-2.25-.82z" fill="#795548"/><ellipse cx="84.28" cy="42.16" rx="3.24" ry="3.36" fill="#404040"/><ellipse cx="105.93" cy="42.16" rx="3.24" ry="3.36" fill="#404040"/><radialGradient id="q" cx="95.116" cy="24.538" r="24.35" gradientTransform="matrix(1 0 0 .8642 0 3.332)" gradientUnits="userSpaceOnUse"><stop stop-color="#6D4C41" offset="0"/><stop stop-color="#543930" offset="1"/></radialGradient><path d="M87.03 9.23C78.82 12.14 78 6.99 78 6.99c-4.46 2.22-1.53 6.99-1.53 6.99s-4.52-.33-6.45 3.58c-2.02 4.09-.24 7.22-.24 7.22s-4.34 2.76-2.64 7.78c1.13 3.33 4.52 4.67 4.52 4.67-.41 7.19 1.85 10.68 1.85 10.68s2.82-12.35 2.55-14.24c0 0 5.2-1.03 11.09-4.41 3.98-2.28 6.71-4.96 11.19-5.97 6.81-1.53 8.34 3.4 8.34 3.4s6.31-1.21 8.21 7.55c.78 3.6 1.12 9.62 1.55 13.28-.04-.32 2.34-4.28 2.76-8.3.15-1.49 2.42-5.14 3.1-7.84 1.48-5.89-.46-10.54-1.38-11.92-1.68-2.54-5.69-6.03-8.68-5.52.16-3.21-2.38-6.19-5.43-7.22-8.34-2.8-17.33 1.64-19.78 2.51z" fill="url(#q)"/><defs><path id="r" d="M74.09 2.94L65.92 17l-1.27 17.15 4.32 2.8 1.84-3.83 32-17.11 14.16 11.68 4 8.87 3.88-4.54-1.39-29.08z"/></defs><clipPath id="s"><use xlink:href="#r"/></clipPath><g clip-path="url(#s)"><path d="M87.03 9.23C78.82 12.14 78 6.99 78 6.99c-4.46 2.22-1.53 6.99-1.53 6.99s-4.52-.33-6.45 3.58c-2.02 4.09-.24 7.22-.24 7.22s-4.34 2.76-2.64 7.78c1.13 3.33 4.52 4.67 4.52 4.67-.41 7.19 1.85 10.68 1.85 10.68s2.82-12.35 2.55-14.24c0 0 5.2-1.03 11.09-4.41 3.98-2.28 6.71-4.96 11.19-5.97 6.81-1.53 8.34 3.4 8.34 3.4s6.31-1.21 8.21 7.55c.78 3.6 1.12 9.62 1.55 13.28-.04-.32 2.34-4.28 2.76-8.3.15-1.49 2.42-5.14 3.1-7.84 1.48-5.89-.46-10.54-1.38-11.92-1.68-2.54-5.69-6.03-8.68-5.52.16-3.21-2.38-6.19-5.43-7.22-8.34-2.8-17.33 1.64-19.78 2.51z" fill="none" stroke="#402720" stroke-miterlimit="10" stroke-width="2"/></g><path d="M110.91 36.83c-.63-.83-2.08-2.05-4.89-2.05s-4.27 1.21-4.89 2.05c-.28.37-.21.79-.02 1.05.18.24.7.46 1.29.26.58-.2 1.72-.79 3.62-.8 1.9.01 3.04.6 3.62.8s1.11-.02 1.29-.26c.19-.25.26-.68-.02-1.05zM79.67 36.83c.63-.83 2.08-2.05 4.89-2.05s4.27 1.21 4.89 2.05c.28.37.21.79.02 1.05-.18.24-.7.46-1.29.26-.58-.2-1.72-.79-3.62-.8-1.9.01-3.04.6-3.62.8s-1.11-.02-1.29-.26a.869.869 0 0 1 .02-1.05z" fill="#6D4C41"/><path d="M55.27 56.6c-1.04-1.91.16-3.66 2.16-5.61 2.25-2.19 5.99-9.73 2.02-16.45-.75-.1-11.6.05-14.35.05H21.66c-2.75 0-13.6-.15-14.35-.05-3.97 6.72-.23 14.25 2.02 16.45 2 1.95 3.2 3.7 2.16 5.61-.68 1.25-1.69 1.66-2.43 1.8.19.29.45.53.76.7 1.05.59 2.38.73 3.24.75.52.01.9.34 1.24.7 3.66 3.83 6.2 4.62 19.07 4.62s15.41-.79 19.07-4.62c.34-.36.72-.68 1.24-.7.86-.02 2.19-.16 3.24-.75.31-.17.57-.42.76-.7-.71-.14-1.72-.55-2.41-1.8z" fill="#543930"/><path d="M55.27 56.6c-1.04-1.91.16-3.66 2.16-5.61 2.25-2.19 5.99-9.73 2.02-16.45-.75-.1-11.6.05-14.35.05H21.66c-2.75 0-13.6-.15-14.35-.05-3.97 6.72-.23 14.25 2.02 16.45 2 1.95 3.2 3.7 2.16 5.61-.68 1.25-1.69 1.66-2.43 1.8.19.29.45.53.76.7 1.05.59 2.38.73 3.24.75.52.01.9.34 1.24.7 3.66 3.83 6.2 4.62 19.07 4.62s15.41-.79 19.07-4.62c.34-.36.72-.68 1.24-.7.86-.02 2.19-.16 3.24-.75.31-.17.57-.42.76-.7-.71-.14-1.72-.55-2.41-1.8z" fill="none" stroke="#402720" stroke-miterlimit="10" stroke-width="2"/><path d="M33.33 74.12c-3.31 0-6-2.69-6-6V62.7h12v5.42c0 3.31-2.69 6-6 6z" fill="#E59600"/><path d="M38.33 63.7v4.42c0 2.76-2.24 5-5 5s-5-2.24-5-5V63.7h10m2-2h-14v6.42c0 3.87 3.13 7 7 7s7-3.13 7-7V61.7z" fill="#D18100"/><path d="M15.37 49.97c-3.47 0-6.3-3.03-6.3-6.76s2.82-6.76 6.3-6.76h35.99c3.47 0 6.3 3.03 6.3 6.76s-2.82 6.76-6.3 6.76H15.37z" fill="#E59600"/><path d="M51.36 37.22c3.05 0 5.54 2.69 5.54 6s-2.48 6-5.54 6H15.38c-3.05 0-5.54-2.69-5.54-6s2.48-6 5.54-6h35.98m0-1.52H15.38c-3.88 0-7.05 3.38-7.05 7.51s3.17 7.51 7.05 7.51h35.98c3.88 0 7.05-3.38 7.05-7.51.01-4.12-3.17-7.51-7.05-7.51z" fill="#D18100"/><linearGradient id="t" x1="33.368" x2="33.368" y1="64.684" y2="11.04" gradientUnits="userSpaceOnUse"><stop stop-color="#FFB300" offset="0"/><stop stop-color="#FFB809" offset=".102"/><stop stop-color="#FFC21A" offset=".371"/><stop stop-color="#FFC825" offset=".659"/><stop stop-color="#FFCA28" offset="1"/></linearGradient><path d="M33.37 65.13c-5.62 0-10.82-2.23-14.66-6.29-4.35-4.6-6.65-11.23-6.65-19.16 0-8.13 2.34-15.62 6.58-21.09 3.96-5.11 9.33-8.04 14.73-8.04s10.77 2.93 14.73 8.04c4.24 5.47 6.58 12.96 6.58 21.09 0 7.94-2.3 14.56-6.65 19.16-3.84 4.06-9.05 6.29-14.66 6.29z" fill="url(#t)"/><path d="M33.37 11.3c5.17 0 10.32 2.82 14.13 7.74 4.14 5.34 6.42 12.67 6.42 20.63 0 7.74-2.23 14.19-6.44 18.64-3.69 3.9-8.7 6.05-14.11 6.05s-10.42-2.15-14.11-6.05c-4.22-4.46-6.44-10.9-6.44-18.64 0-7.96 2.28-15.29 6.42-20.63 3.81-4.92 8.96-7.74 14.13-7.74m0-1.52c-11.46 0-22.07 12.26-22.07 29.89 0 17.54 10.93 26.21 22.07 26.21s22.07-8.67 22.07-26.21c0-17.63-10.61-29.89-22.07-29.89z" fill="#ED9E00"/><path d="M36.37 47.35c-.08-.03-.17-.05-.25-.06h-5.51c-.08.01-.17.03-.25.06-.5.2-.77.72-.54 1.27.24.55 1.33 2.1 3.54 2.1s3.31-1.55 3.54-2.1c.25-.55-.03-1.07-.53-1.27z" fill="#E59600"/><path d="M39.1 53.2c-1.97 1.42-9.47 1.42-11.44 0-1.13-.82-2.58-.21-2.27.82C25.7 55.04 29.6 58 33.4 58s7.64-2.96 7.95-3.98c.31-1.03-1.12-1.64-2.25-.82z" fill="#795548"/><ellipse cx="22.63" cy="42.16" rx="3.24" ry="3.36" fill="#404040"/><ellipse cx="44.28" cy="42.16" rx="3.24" ry="3.36" fill="#404040"/><radialGradient id="u" cx="33.466" cy="24.538" r="24.35" gradientTransform="matrix(1 0 0 .8642 0 3.332)" gradientUnits="userSpaceOnUse"><stop stop-color="#6D4C41" offset="0"/><stop stop-color="#543930" offset="1"/></radialGradient><path d="M25.38 9.23c-8.21 2.91-9.03-2.24-9.03-2.24-4.46 2.22-1.53 6.99-1.53 6.99s-4.52-.33-6.45 3.58c-2.02 4.09-.24 7.22-.24 7.22s-4.34 2.76-2.64 7.78c1.13 3.33 4.52 4.67 4.52 4.67-.41 7.19 1.85 10.68 1.85 10.68s2.82-12.35 2.55-14.24c0 0 5.2-1.03 11.09-4.41 3.98-2.28 6.71-4.96 11.19-5.97 6.81-1.53 8.34 3.4 8.34 3.4s6.31-1.21 8.21 7.55c.78 3.6 1.12 9.62 1.55 13.28-.04-.32 2.34-4.28 2.76-8.3.15-1.49 2.42-5.14 3.1-7.84 1.48-5.89-.46-10.54-1.38-11.92-1.68-2.54-5.69-6.03-8.68-5.52.16-3.21-2.38-6.19-5.43-7.22-8.34-2.8-17.33 1.64-19.78 2.51z" fill="url(#u)"/><defs><path id="v" d="M12.44 2.94L4.27 17 3 34.15l4.32 2.8 1.84-3.83 32-17.11 14.16 11.68 4 8.87 3.88-4.54-1.39-29.08z"/></defs><clipPath id="w"><use xlink:href="#v"/></clipPath><g clip-path="url(#w)"><path d="M25.38 9.23c-8.21 2.91-9.03-2.24-9.03-2.24-4.46 2.22-1.53 6.99-1.53 6.99s-4.52-.33-6.45 3.58c-2.02 4.09-.24 7.22-.24 7.22s-4.34 2.76-2.64 7.78c1.13 3.33 4.52 4.67 4.52 4.67-.41 7.19 1.85 10.68 1.85 10.68s2.82-12.35 2.55-14.24c0 0 5.2-1.03 11.09-4.41 3.98-2.28 6.71-4.96 11.19-5.97 6.81-1.53 8.34 3.4 8.34 3.4s6.31-1.21 8.21 7.55c.78 3.6 1.12 9.62 1.55 13.28-.04-.32 2.34-4.28 2.76-8.3.15-1.49 2.42-5.14 3.1-7.84 1.48-5.89-.46-10.54-1.38-11.92-1.68-2.54-5.69-6.03-8.68-5.52.16-3.21-2.38-6.19-5.43-7.22-8.34-2.8-17.33 1.64-19.78 2.51z" fill="none" stroke="#402720" stroke-miterlimit="10" stroke-width="2"/></g><path d="M49.26 36.83c-.63-.83-2.08-2.05-4.89-2.05S40.1 36 39.48 36.83c-.28.37-.21.79-.02 1.05.18.24.7.46 1.29.26.58-.2 1.72-.79 3.62-.8 1.9.01 3.04.6 3.62.8s1.11-.02 1.29-.26c.19-.25.26-.68-.02-1.05zM18.02 36.83c.63-.83 2.08-2.05 4.89-2.05s4.27 1.21 4.89 2.05c.28.37.21.79.02 1.05-.18.24-.7.46-1.29.26-.58-.2-1.72-.79-3.62-.8-1.9.01-3.04.6-3.62.8s-1.11-.02-1.29-.26a.869.869 0 0 1 .02-1.05z" fill="#6D4C41"/></svg>