<svg xmlns="http://www.w3.org/2000/svg" viewBox="0 0 128 128" width="128" height="128"><linearGradient id="a" gradientUnits="userSpaceOnUse" x1="90.379" y1="703.62" x2="90.379" y2="747.347" gradientTransform="translate(.883 -711.444)"><stop offset="0" stop-color="#b0bec5"/><stop offset="1" stop-color="#78909c"/></linearGradient><path d="M107.1 5.3c-1.6-1.6-4.3-1.6-5.9 0L79 24.4c-1.7 1.5-3.4 3-5 4.6l-3.3 3.3c-.1.1-.1.3 0 .4 1.1 1.1 2.9 1.1 4 0l2.1-2.1c.4-.4.6-.8.7-1.3.2-.7.6-1.4 1.1-1.8L100.5 9c.8-.8 2.9-1.6 3.7-.7l4.8 4.8 2.9-2.9c0-.1-4.8-4.8-4.8-4.9z" fill="url(#a)"/><linearGradient id="b" gradientUnits="userSpaceOnUse" x1="20.45" y1="808.468" x2="20.45" y2="834.34" gradientTransform="translate(0 -713.89)"><stop offset="0" stop-color="#eee"/><stop offset=".995" stop-color="#bdbdbd"/></linearGradient><path d="M11.4 122c5.4-2.8 13.2-8.3 23.5-16.8L22.7 93.1c-8.4 10.2-13.9 18-16.7 23.5 3 .1 5.3 2.5 5.4 5.4z" fill="url(#b)"/><linearGradient id="c" gradientUnits="userSpaceOnUse" x1="245.773" y1="559.862" x2="245.773" y2="589.912" gradientTransform="rotate(45.001 690.231 66.221)"><stop offset="0" stop-color="#e0e0e0"/><stop offset=".995" stop-color="#9e9e9e"/></linearGradient><path d="M4.4 123.6c.8.8 2.6.5 5.3-.8.5-.2 1.1-.5 1.6-.8-.1-2.9-2.4-5.3-5.4-5.4-.3.6-.6 1.1-.8 1.6-1.2 2.7-1.4 4.6-.7 5.4z" fill="url(#c)"/><path d="M4.4 123.6c.8.8 2.6.5 5.3-.8.5-.2 1.1-.5 1.6-.8-.1-2.9-2.4-5.3-5.4-5.4-.3.6-.6 1.1-.8 1.6-1.2 2.7-1.4 4.6-.7 5.4z" fill="#757575"/><path d="M23 97.6l7.4 7.4c-11.8 9.5-18.4 13.4-21.9 15.1-.4.2-.8.3-1.1.4.1-.3.3-.7.4-1.1 1.7-3.4 5.7-10 15.2-21.8m-.3-4.5c-9.3 11.3-15 19.6-17.5 25.1-1.2 2.7-1.5 4.5-.8 5.3.3.3.7.4 1.3.4 1 0 2.3-.4 4-1.2 5.5-2.5 13.8-8.2 25.1-17.6 0 .2-12.1-12-12.1-12z" fill="#424242" opacity=".2"/><linearGradient id="d" gradientUnits="userSpaceOnUse" x1="51" y1="757.635" x2="51" y2="828.43" gradientTransform="translate(0 -713.89)"><stop offset="0" stop-color="#03a9f4"/><stop offset="1" stop-color="#0288d1"/></linearGradient><path d="M73.6 54.4l-7.7-7.7c-38.2 38.7-45.3 49-45.3 49l11.8 11.8s10.3-7.1 49-45.3l-7.8-7.8z" fill="url(#d)"/><path d="M65.9 50.9l5.6 5.6 5.6 5.6C49.5 89.3 37 100 32.6 103.5l-4-4-4-4c3.4-4.4 14-16.9 41.3-44.6m0-4.2c-38.2 38.7-45.3 49-45.3 49l11.8 11.8s10.3-7.1 49-45.3l-7.7-7.7-7.8-7.8z" fill="#424242" opacity=".2"/><linearGradient id="e" gradientUnits="userSpaceOnUse" x1="93.339" y1="717.135" x2="93.339" y2="777.893" gradientTransform="translate(0 -713.89)"><stop offset="0" stop-color="#29b6f6"/><stop offset="1" stop-color="#039be5"/></linearGradient><path d="M123.7 16.1l-.1-.1c1.2-2.6-.4-5.6-3.2-8.3s-5.8-4.4-8.3-3.2l-.1-.1S88.4 20.9 63.2 47.3c-.7.8-.7 2 0 2.7l15 15c.7.7 1.9.8 2.7 0 26.3-25.3 42.8-48.9 42.8-48.9z" fill="url(#e)"/><linearGradient id="f" gradientUnits="userSpaceOnUse" x1="113.2" y1="720.885" x2="113.2" y2="740.766" gradientTransform="translate(0 -713.89)"><stop offset="0" stop-color="#cfd8dc"/><stop offset=".995" stop-color="#90a4ae"/></linearGradient><path d="M108.5 6.8c-.9.7-2.1 1.6-3.3 2.5l13.5 13.5c1-1.3 1.8-2.4 2.5-3.4 0 .1-12.7-12.6-12.7-12.6z" fill="url(#f)"/><path d="M113.9 7c.4 0 1.8.2 4.4 2.7 2.1 2.1 3.1 3.9 2.6 4.9l-.4.8c-3.5 4.8-18.6 25.1-41 46.6l-6.8-6.8-6.7-6.7c21.4-22.3 41.8-37.5 46.6-41l.8-.4c.1-.1.3-.1.5-.1m0-3c-.6 0-1.2.1-1.8.4l-.1-.1S88.4 20.8 63.2 47.2c-.7.8-.7 2 0 2.7l15 15c.4.4.9.6 1.4.6s1-.2 1.3-.5c26.3-25.2 42.8-48.8 42.8-48.8l-.1-.1c1.2-2.6-.4-5.6-3.2-8.3-2.1-2.3-4.4-3.8-6.5-3.8z" fill="#424242" opacity=".2"/><path d="M123.7 16.1l-.1-.1c1.2-2.6-.4-5.6-3.2-8.3s-5.8-4.4-8.3-3.2l-.1-.1S88.4 20.9 63.2 47.3c-.7.8-.7 2 0 2.7l15 15c.7.7 1.9.8 2.7 0 26.3-25.3 42.8-48.9 42.8-48.9z" fill="none"/><linearGradient id="g" gradientUnits="userSpaceOnUse" x1="73.3" y1="66.53" x2="73.3" y2="83.739" gradientTransform="matrix(1 0 0 -1 0 127.89)"><stop offset=".005" stop-color="#90a4ae"/><stop offset="1" stop-color="#cfd8dc"/></linearGradient><path fill="url(#g)" d="M65 45.2l17.8 17.9-1.2 1.1-17.8-17.8z"/></svg>