<svg viewBox="0 0 128 128" width="128" height="128" xmlns="http://www.w3.org/2000/svg" xmlns:xlink="http://www.w3.org/1999/xlink"><radialGradient id="a" cx="71.863" cy="69.699" r="23.397" gradientUnits="userSpaceOnUse"><stop stop-color="#454140" offset="0"/><stop stop-color="#312D2D" offset="1"/></radialGradient><path d="M79.94 87.11c.54-.58 1.13-1.11 1.95-1.13 1.34-.03 3.43-.25 5.07-1.22.48-.28.89-.67 1.19-1.14-1.15-.23-2.73-.89-3.8-2.93-1.63-3.1.25-5.95 3.39-9.12 3.52-3.57 9.38-15.82 3.16-26.74-1.17-.17-18.15.08-22.46.08H50.1v49.71c20.14 0 24.12-1.29 29.84-7.51z" fill="url(#a)"/><radialGradient id="b" cx="28.241" cy="69.699" r="23.442" gradientUnits="userSpaceOnUse"><stop stop-color="#454140" offset="0"/><stop stop-color="#312D2D" offset="1"/></radialGradient><path d="M20.26 87.11c-.54-.58-1.13-1.11-1.95-1.13-1.34-.03-3.43-.25-5.07-1.22-.48-.28-.89-.67-1.19-1.14 1.15-.23 2.8-.86 3.8-2.93 1.63-3.35-.69-6.33-3.39-9.12C8.06 67 3.09 55.75 9.31 44.83c1.17-.17 18.15.08 22.46.08h18.34v49.71c-20.15 0-24.13-1.29-29.85-7.51z" fill="url(#b)"/><path d="M90.09 47.19c5.06 10.66-.76 20.6-3.46 23.34-3.02 3.05-5.81 6.73-3.65 10.85.56 1.07 1.29 1.93 2.17 2.56-1.2.42-2.52.52-3.3.54-1.59.04-2.61 1.15-3.05 1.63-3.47 3.77-6.08 5.63-13.34 6.45 0 0-3.76 1.89-6.36 2.53V96c12.7-.45 16.78-2.23 21.98-7.88.4-.44.66-.63.85-.64 1.61-.04 3.92-.32 5.81-1.43.68-.4 1.27-.96 1.7-1.63l1.19-1.85-2.18-.43c-1.21-.24-2.11-.94-2.74-2.14-1.06-2.01-.21-4.01 3.12-7.39 4.13-4.18 9.58-15.06 4.17-26.02 0 0-.85-1.65-.84-1.69l-2.07 2.29zM11.36 72.6c2.77 2.86 4.25 5.1 3.12 7.44-.57 1.17-1.46 1.86-2.72 2.1l-2.18.43 1.19 1.85c.43.67 1.02 1.23 1.7 1.63 1.9 1.11 4.21 1.39 5.81 1.43.19 0 .45.2.85.64 5.17 5.62 9.24 7.42 21.81 7.88v-.95c-2.19-.6-6.19-2.48-6.19-2.48-7.26-.82-9.88-2.68-13.34-6.45-.44-.48-1.46-1.59-3.05-1.63-.78-.02-2.08-.12-3.27-.53.91-.65 1.64-1.53 2.17-2.61 2.27-4.67-1.59-8.66-3.66-10.8-3.92-4.05-7.51-13.52-3.21-23.09l.29-.65-.72-.13-2.53-.21C2.44 58.5 6.97 68.06 11.36 72.6z" fill="#1F1A1A"/><defs><path id="c" d="M4 4h120v120H4z"/></defs><clipPath id="d"><use xlink:href="#c"/></clipPath><g clip-path="url(#d)"><linearGradient id="e" x1="50" x2="50" y1="97.051" y2="135.87" gradientUnits="userSpaceOnUse"><stop stop-color="#606060" offset=".161"/><stop stop-color="#606060" offset=".288"/><stop stop-color="#595959" offset=".449"/><stop stop-color="#464646" offset=".684"/><stop stop-color="#262626" offset=".962"/><stop stop-color="#212121" offset="1"/></linearGradient><path d="M-.5 135.87v-15.26c0-16.23 25.36-23.53 50.5-23.56h.13c25.03 0 50.37 8.09 50.37 23.56v15.26H-.5z" fill="url(#e)"/><path d="M50.13 98.55c12.9 0 25.42 2.19 34.36 6C91.11 107.38 99 112.46 99 120.6v13.76H1V120.6c0-15.2 24.61-22.03 49-22.06l.13.01m0-3H50c-25.49.03-52 7.28-52 25.06v16.76h104v-16.76c0-16.76-26.26-25.06-51.87-25.06z" fill="#404042"/></g><path d="M80.59 87.04c0 2.14-2.26 4.12-6.08 5.71-5.58 2.33-16.6 32.6-26.63 32.6-6.53 0-10.47-29.41-15.43-30.5-7.88-1.73-13.03-4.58-13.03-7.81 0-5.27 13.69-9.54 30.59-9.54s30.58 4.27 30.58 9.54z" clip-path="url(#d)" fill="#212121"/><g clip-path="url(#d)"><path d="M49.17 109.33c-4 0-7.26-3.22-7.26-7.17v-8.98h16.16v8.98c0 3.96-3.26 7.17-7.26 7.17h-1.64z" fill="#EDC391"/><path d="M57.08 94.18v7.98c0 3.4-2.81 6.17-6.26 6.17h-1.65c-3.45 0-6.26-2.77-6.26-6.17v-7.98h14.17m2-2H40.92v9.98c0 4.51 3.7 8.17 8.26 8.17h1.65c4.56 0 8.26-3.66 8.26-8.17v-9.98h-.01z" fill="#D9AC77"/></g><path clip-path="url(#d)" fill="#BDBDBD" d="M39.43 105l3.59 28h14.35l3.2-28z"/><g clip-path="url(#d)"><defs><path id="f" d="M5.62 29.43h89.3v74.36H5.62z"/></defs><clipPath id="g"><use xlink:href="#f"/></clipPath><g clip-path="url(#g)"><path d="M22.67 72.11c-5.36 0-9.71-4.67-9.71-10.41s4.36-10.41 9.71-10.41h54.65c5.36 0 9.71 4.67 9.71 10.41s-4.36 10.41-9.71 10.41H22.67z" fill="#FFD29C"/><path d="M77.33 52.29c4.8 0 8.71 4.22 8.71 9.41s-3.91 9.41-8.71 9.41H22.67c-4.8 0-8.71-4.22-8.71-9.41s3.91-9.41 8.71-9.41h54.66m0-2H22.67c-5.89 0-10.71 5.14-10.71 11.41s4.82 11.41 10.71 11.41h54.65c5.89 0 10.71-5.14 10.71-11.41s-4.81-11.41-10.7-11.41z" fill="#EDBD82"/><linearGradient id="h" x1="50" x2="50" y1="94.447" y2="12.68" gradientUnits="userSpaceOnUse"><stop stop-color="#FFD29C" offset="0"/><stop stop-color="#FFD39E" offset=".024"/><stop stop-color="#FCD8AF" offset=".316"/><stop stop-color="#FADCBA" offset=".629"/><stop stop-color="#F9DDBD" offset="1"/></linearGradient><path d="M50 95.13c-15.66 0-32.52-12.14-32.52-38.81 0-12.38 3.56-23.79 10.02-32.13 6.04-7.8 14.25-12.27 22.5-12.27s16.45 4.47 22.5 12.27c6.46 8.34 10.02 19.75 10.02 32.13 0 12.09-3.51 22.19-10.14 29.21-5.86 6.19-13.81 9.6-22.38 9.6z" fill="url(#h)"/><path d="M50 12.92c7.94 0 15.85 4.33 21.71 11.88 6.33 8.16 9.81 19.35 9.81 31.52 0 11.83-3.41 21.7-9.87 28.52-5.67 5.99-13.36 9.29-21.65 9.29s-15.98-3.3-21.65-9.29c-6.46-6.82-9.87-16.69-9.87-28.52 0-12.16 3.49-23.35 9.81-31.52C34.15 17.25 42.06 12.92 50 12.92m0-2c-17.4 0-33.52 18.61-33.52 45.39 0 26.64 16.61 39.81 33.52 39.81s33.52-13.17 33.52-39.81c0-26.78-16.12-45.39-33.52-45.39z" fill="#EDBD82"/><radialGradient id="i" cx="34.512" cy="49.333" r="5.6" gradientUnits="userSpaceOnUse"><stop stop-color="#454140" offset=".09"/><stop stop-color="#454140" offset="1"/></radialGradient><path d="M41.74 49.82c-.93-1.23-3.07-3.01-7.23-3.01s-6.31 1.79-7.23 3.01c-.41.54-.31 1.17-.02 1.55.26.35 1.04.68 1.9.39s2.54-1.16 5.35-1.18c2.81.02 4.49.89 5.35 1.18s1.64-.03 1.9-.39c.29-.38.39-1.01-.02-1.55z" fill="url(#i)"/><radialGradient id="j" cx="66.803" cy="49.779" r="6.716" gradientUnits="userSpaceOnUse"><stop stop-color="#454140" offset=".09"/><stop stop-color="#454140" offset="1"/></radialGradient><path d="M75.48 50.36c-1.11-1.47-3.68-3.61-8.67-3.61s-7.56 2.14-8.67 3.61c-.49.65-.37 1.4-.03 1.86.32.42 1.25.81 2.28.46s3.05-1.39 6.42-1.42c3.37.02 5.39 1.07 6.42 1.42s1.96-.04 2.28-.46c.33-.46.46-1.21-.03-1.86z" fill="url(#j)"/><ellipse cx="34.19" cy="58.67" rx="4.93" ry="5.1" fill="#312D2D"/><path d="M53.86 67.91c-.11-.04-.21-.07-.32-.08h-7.07c-.11.01-.22.04-.32.08-.64.26-.99.92-.69 1.63s1.71 2.69 4.55 2.69 4.25-1.99 4.55-2.69c.29-.7-.06-1.37-.7-1.63z" fill="#DBA689"/><path d="M58.53 76c-3.19 1.89-13.63 1.89-16.81 0-1.83-1.09-3.7.58-2.94 2.24.75 1.63 6.45 5.42 11.37 5.42s10.55-3.79 11.3-5.42c.75-1.67-1.09-3.33-2.92-2.24z" fill="#424242"/><defs><path id="k" d="M50 3.89h-.04c-45.43.24-36.12 52.13-36.12 52.13s5.1 8.99 5.1 8.81c-.03-1.41.46-6.89.46-6.89l-2.68-2.92s3.89-25.44 6.79-24.91c4.45.81 26.54 2 26.57 2 7.83 0 14.92-.36 19.37-1.17 2.9-.53 9.64 1.7 10.68 4.45 1.33 3.54 3.13 19.71 3.13 19.71l-2.68 2.83s.49 5.51.46 6.89c0 .18 5.1-8.81 5.1-8.81S95.44 4.13 50 3.89z"/></defs><radialGradient id="l" cx="50.326" cy="33.52" r="36.373" gradientTransform="matrix(1 0 0 .8642 0 4.552)" gradientUnits="userSpaceOnUse"><stop stop-color="#454140" offset="0"/><stop stop-color="#312D2D" offset="1"/></radialGradient><path d="M38.25 10.65C25.98 15 24.76 7.3 24.76 7.3c-6.66 3.32-2.28 10.45-2.28 10.45s-6.75-.5-9.64 5.34c-3.02 6.11-.36 10.78-.36 10.78S5.98 38 8.53 45.5c1.69 4.98 6.75 6.98 6.75 6.98-.62 10.74 2.77 15.95 2.77 15.95s4.21-18.45 3.81-21.27c0 0 7.76-1.54 16.57-6.58 5.95-3.41 10.02-7.41 16.71-8.91 10.18-2.29 12.45 5.08 12.45 5.08s9.42-1.81 12.26 11.27c1.17 5.38 1.67 14.37 2.31 19.84-.06-.48 3.5-6.4 4.12-12.4.23-2.23 3.61-7.67 4.63-11.72 2.21-8.8-.69-15.74-2.06-17.81-2.5-3.79-8.49-9-12.97-8.24.23-4.8-3.55-9.25-8.1-10.78-12.45-4.18-25.87 2.44-29.53 3.74z" fill="url(#l)"/><path d="M7.11 45.98c.97 2.85 2.54 3.57 2.54 3.57l1.1-2.79-.32-.63c-.21-.42-.36-.77-.48-1.11-2.13-6.26 3.11-9.73 3.33-9.88l1.18-.76-.68-1.23c-.09-.17-2.21-4.12.4-9.38 2.33-4.71 7.75-3.73 7.98-3.69l2.95.59-1.31-2.71c-.1-.22-2.19-4.67.33-8.01.55 1.01 1.43 2.15 2.84 3 2.85 1.73 6.8 1.72 11.75-.03.79-.28 1.68-.76 2.8-1.38 4.53-2.47 12.11-6.61 24.12-2.81 4.34 1.38 8.92 5.17 8.74 8.89l-.09 1.87 1.84-.31c3.6-.6 9.1 4.01 11.47 7.59 1.22 1.84 3.98 9.5 1.92 17.71-.11.45-.39 1.03-.39 1.03s1.72 3.31 2.09 4.56l1.2-4.86c2.24-8.93-.56-17.42-2.32-20.09-2.44-3.7-7.91-8.64-12.82-8.97-.79-4.72-5.84-8.72-10.73-10.27-13.23-4.2-21.84.5-26.47 3.03-.96.53-1.79.98-2.36 1.18-3.97 1.41-7.13 1.52-9.15.32-1.97-1.17-2.32-3.23-2.33-3.31l-.34-2.44-2.01 1.41c-4.24 2.99-4.4 7.63-3.6 10.88-2.93.12-6.77 1.36-8.8 5.47-2.42 4.9-1.56 8.99-.86 10.95-2.52 2.15-5.55 6.65-3.52 12.61z" fill="#1F1A1A"/></g></g><ellipse cx="65.8" cy="60.05" rx="6" ry="6.21" clip-path="url(#d)" fill="#312D2D"/><g clip-path="url(#d)"><path d="M93.37 137.25s0-3.88 2-12.38c1.69-7.16 2.54-10.28 2.54-10.28.5-3.32 3.75-5.48 7.01-4.67l9.93 2.48 4.25 24-25.73.85z" fill="#616161"/><path d="M114.85 112.41h-3.16c-.01 1.01.37 1.99.23 3h.41l3.19 18H98.73c-1.26.35-2.52.68-3.78 1.03l-.35 1.97h24.5l-4.25-24z" fill="#404042"/></g><ellipse cx="106.51" cy="114.41" rx="8.74" ry="8" clip-path="url(#d)" fill="#212121"/><g clip-path="url(#d)"><path d="M6.15 104.52c-.52.62-.68 1.45-.16 2.07l3.11 3.74c.52.62 1.65 1.46 2.32 1 3.12-2.17 10.62-7.21 16.25-5.38l-3.8-7.73c0 .01-11.33-1.3-17.72 6.3z" fill="gray" stroke="#575757" stroke-miterlimit="10" stroke-width="2"/><circle cx="11.29" cy="105.46" r="2.69" fill="#757575" stroke="#9E9E9E" stroke-miterlimit="10"/><g fill="#424242"><circle cx="12.22" cy="105.59" r=".55"/><circle cx="10.36" cy="105.32" r=".55"/></g></g><g clip-path="url(#d)"><path d="M91.88 104.52c.52.62.68 1.45.16 2.07l-3.11 3.74c-.52.62-1.65 1.46-2.32 1-3.12-2.17-10.62-7.21-16.25-5.38l3.8-7.73c0 .01 11.32-1.3 17.72 6.3z" fill="gray" stroke="#575757" stroke-miterlimit="10" stroke-width="2"/><circle cx="86.73" cy="105.46" r="2.69" fill="#757575" stroke="#9E9E9E" stroke-miterlimit="10"/><g fill="#424242"><circle cx="85.8" cy="105.59" r=".55"/><circle cx="87.67" cy="105.32" r=".55"/></g></g><g clip-path="url(#d)"><linearGradient id="m" x1="34.671" x2="34.671" y1="94.816" y2="136.17" gradientUnits="userSpaceOnUse"><stop stop-color="#757575" offset=".125"/><stop stop-color="#707070" offset=".3"/><stop stop-color="#626262" offset=".502"/><stop stop-color="#4B4B4B" offset=".718"/><stop stop-color="#2B2B2B" offset=".942"/><stop stop-color="#212121" offset="1"/></linearGradient><path d="M36.89 136.67L21.25 90c3.5 1.95 10.46 5.16 18.26 5.16.79 0 1.58-.03 2.35-.1h.01c.73 0 1.36.63 1.52 1.44l4.71 40.17H36.89z" fill="url(#m)"/><path d="M22.99 92.03c3.93 1.91 9.93 4.14 16.52 4.14.82 0 1.64-.04 2.44-.11.08 0 .34.21.44.58l4.58 39.03h-9.35L22.99 92.03m-3.55-4.3l16.73 49.94h13.04L44.36 96.3c-.25-1.24-1.24-2.25-2.41-2.25-.06 0-.12 0-.18.01-.76.07-1.51.1-2.26.1-10.76 0-20.07-6.43-20.07-6.43z" fill="#575757"/><linearGradient id="n" x1="65.277" x2="65.277" y1="94.789" y2="136.17" gradientUnits="userSpaceOnUse"><stop stop-color="#757575" offset=".125"/><stop stop-color="#707070" offset=".3"/><stop stop-color="#626262" offset=".502"/><stop stop-color="#4B4B4B" offset=".718"/><stop stop-color="#2B2B2B" offset=".942"/><stop stop-color="#212121" offset="1"/></linearGradient><path d="M51.8 136.67l4.83-40.25c.15-.74.76-1.37 1.38-1.37.04 0 .07 0 .11.01.85.1 1.74.15 2.64.15 7.4 0 14.45-3.28 18-5.24l-15.64 46.7H51.8z" fill="url(#n)"/><path d="M77.02 91.99l-14.63 43.68h-9.46l4.68-39.03c.09-.36.33-.57.39-.59.89.1 1.82.15 2.76.15 6.28.01 12.3-2.28 16.26-4.21m3.54-4.26zm0 0s-9.67 6.48-19.8 6.48c-.84 0-1.69-.04-2.53-.14-.07-.01-.15-.01-.22-.01-1.15 0-2.13 1.03-2.37 2.25l-4.96 41.37h13.16l16.72-49.95z" fill="#575757"/></g><radialGradient id="o" cx="54.395" cy="30.42" r="59.394" gradientTransform="matrix(.9534 0 0 .7823 -1.86 9.943)" gradientUnits="userSpaceOnUse"><stop stop-color="#757575" offset=".003"/><stop stop-color="#686868" offset=".333"/><stop stop-color="#464646" offset=".941"/><stop stop-color="#424242" offset="1"/></radialGradient><path d="M83.49 25.84c-4.5-1.07-10.9-2.03-17.03-2.58-5.08-.46-10.68.5-16.46.5s-11.38-.96-16.46-.51c-6.13.55-13.68 2.62-18.18 3.69C7.46 28.83 4 30.78 4 33.61s4.11 4.11 12.02 5.99c4.5 1.07 7.95 3.59 15.94 4.54 5.06.61 13.57-1.2 19.34-1.2 5.78 0 13.42 1.78 18.5 1.33 6.13-.55 9.69-2.89 14.19-3.96 7.9-1.88 12.01-3.87 12.01-6.7s-4.6-5.89-12.51-7.77z" fill="url(#o)"/><radialGradient id="p" cx="47.389" cy="7.481" r="32.196" gradientTransform="matrix(0 .9331 -1.4673 0 60.307 -37.487)" gradientUnits="userSpaceOnUse"><stop stop-color="#757575" offset=".003"/><stop stop-color="#686868" offset=".333"/><stop stop-color="#464646" offset=".941"/><stop stop-color="#424242" offset="1"/></radialGradient><path d="M64.56 4.35c-2.83-.71-7.39-.45-10.25.03-7.14 1.21-6.11.52-12.77-.13-2.67-.26-6.29-.48-8.86.3-9.95 3-11.13 11.44-17.43 24.47.14 11.87 70.02 11.76 69.88 0C79.05 16.59 75.01 6.96 64.56 4.35z" fill="url(#p)"/><path d="M38.81 9.99c3.2 2.22 7.12 3.27 10.95 2.84 3.53-.39 6.9-1.7 10.14-3.24.55-.26 1.11.31.89.9-.49 1.31-5.46 6.16-11.44 6.16-5.53 0-9.23-2.29-11.15-5.63-.26-.44-.06-1.49.61-1.03z" fill="#eee" opacity=".2"/><path d="M82.05 22.58c-11.57 6.57-52.32 6.59-63.78-.06-.97 2.13-1.96 4.32-3.02 6.5.14 11.87 70.02 11.75 69.88 0-1.03-2.12-2.05-4.29-3.08-6.44z" fill="#404042"/><path d="M83.62 25.87c-.52-1.1-1.05-2.2-1.57-3.29-.02.01-.04.02-.05.03-4.61-9.25-8.87-16.11-17.44-18.26-2.83-.71-7.39-.45-10.25.03-7.14 1.21-6.11.52-12.77-.13-2.67-.26-6.29-.48-8.86.3C23.33 7.37 21.72 15 16.34 26.72c-.34.08-.67.16-.98.24C7.46 28.83 4 30.78 4 33.61s4.11 4.11 12.02 5.99c4.5 1.07 7.95 3.59 15.94 4.54 5.06.61 13.57-1.2 19.34-1.2 5.78 0 13.42 1.78 18.5 1.33 6.13-.55 9.69-2.89 14.19-3.96 7.9-1.88 12.01-3.87 12.01-6.7 0-2.81-4.55-5.85-12.38-7.74z" fill="none" stroke="#575757" stroke-linecap="round" stroke-linejoin="round" stroke-miterlimit="10" stroke-width="3"/><g opacity=".6"><radialGradient id="q" cx="56.55" cy="21.792" r="41.908" gradientTransform="rotate(6.367 -117.997 74.271)" gradientUnits="userSpaceOnUse"><stop stop-color="#FAFAFA" offset="0"/><stop stop-color="#eee" offset="1"/></radialGradient><path d="M90.28 43.38c7.33 9.22 5.83 22.68-3.35 30.06s-22.57 5.89-29.9-3.34-5.83-22.68 3.35-30.06 22.57-5.88 29.9 3.34z" fill="url(#q)"/></g><path d="M99.86 85.01l-3.51-4.43.27-.22c.66-.53.76-1.49.24-2.14l-.45-.56c-.52-.66-1.48-.76-2.13-.24l-.27.22-3.11-3.92c8.51-8.72 9.41-22.65 1.64-32.42-8.4-10.56-23.73-12.27-34.24-3.82-10.52 8.45-12.24 23.87-3.84 34.43 7.7 9.68 21.22 11.92 31.52 5.72l3.14 3.96-.63.5c-.66.53-.76 1.49-.24 2.14l.45.56c.52.66 1.48.76 2.13.24l.62-.5 3.51 4.43 4.9-3.95zM58.04 68.93c-6.8-8.55-5.4-21.03 3.11-27.87s20.93-5.46 27.72 3.09c6.8 8.55 5.4 21.03-3.11 27.87s-20.92 5.46-27.72-3.09z" fill="none" stroke="#919191" stroke-miterlimit="10" stroke-width="2.903"/><path fill="#C7C7C7" d="M99.86 85.01l-4.9 3.93L84.14 75.3l4.9-3.94z"/><radialGradient id="r" cx="72.931" cy="32.029" r="48.964" gradientTransform="rotate(-1.341 84.983 69.37)" gradientUnits="userSpaceOnUse"><stop stop-color="#E0E0E0" offset="0"/><stop stop-color="#DBDBDB" offset=".227"/><stop stop-color="#CDCDCD" offset=".494"/><stop stop-color="#B5B5B5" offset=".779"/><stop stop-color="#9E9E9E" offset="1"/></radialGradient><path d="M92.54 41.29c-8.4-10.56-23.73-12.27-34.24-3.82-10.52 8.45-12.24 23.87-3.84 34.43s23.73 12.27 34.24 3.82 12.24-23.87 3.84-34.43zm-6.78 30.73c-8.51 6.84-20.93 5.46-27.72-3.09-6.8-8.55-5.4-21.03 3.11-27.87s20.93-5.46 27.72 3.09c6.8 8.55 5.4 21.03-3.11 27.87z" fill="url(#r)"/><radialGradient id="s" cx="94.766" cy="55.446" r="24.778" gradientTransform="rotate(6.367 -117.997 74.271)" gradientUnits="userSpaceOnUse"><stop stop-color="#FFA726" offset="0"/><stop stop-color="#FFA623" offset=".04"/><stop stop-color="#FF9800" offset=".517"/><stop stop-color="#FB8C00" offset="1"/></radialGradient><path d="M108.61 105.49c-.36 0-.69-.16-.91-.44l-.41-.51a.985.985 0 0 0-.44-.31c-3.17-1.11-6.94-4.14-10.08-8.09-2.79-3.52-4.78-7.37-5.45-10.57-.21-.99-.67-1.96-1.35-2.81l-.23-.29 4.73-3.8.22.28c.67.85 1.52 1.52 2.43 1.94 2.96 1.36 6.25 4.16 9.05 7.67 3.15 3.96 5.25 8.32 5.63 11.67.02.18.09.35.2.49l.41.51c.4.51.32 1.25-.18 1.66l-.92.74c-.06.04-.11.09-.15.15-.1.13-.21.24-.33.34s-.25.18-.4.25c-.06.03-.12.07-.18.11l-.92.74c-.21.18-.46.27-.72.27z" fill="url(#s)"/><path d="M94.34 80.02c.69.74 1.5 1.34 2.38 1.75 2.82 1.3 5.99 4 8.7 7.4 3.04 3.82 5.07 8 5.43 11.18.04.36.18.7.41.99l.41.51c.07.09.06.23-.03.3l-.92.74c-.11.09-.21.19-.3.3-.06.08-.12.14-.19.19-.06.05-.14.1-.22.14-.13.06-.24.14-.35.23l-.92.74c-.04.03-.08.04-.12.04s-.1-.01-.15-.07l-.41-.51c-.23-.29-.53-.5-.87-.62-3-1.05-6.61-3.96-9.64-7.78-2.7-3.4-4.62-7.11-5.26-10.17-.2-.95-.6-1.88-1.18-2.73l3.23-2.63m.29-2.71l-6.24 5.01.83 1.04c.56.7.97 1.52 1.15 2.4.67 3.22 2.64 7.2 5.64 10.97 3.39 4.26 7.3 7.28 10.52 8.4l.41.51c.42.53 1.04.8 1.67.8.47 0 .94-.15 1.33-.47l.92-.74c.21-.1.4-.22.58-.37.18-.14.34-.31.48-.49l.92-.74c.92-.74 1.07-2.09.34-3.01l-.41-.51c-.38-3.4-2.45-7.91-5.83-12.17-3-3.78-6.42-6.58-9.4-7.95a5.89 5.89 0 0 1-2.08-1.66l-.83-1.02z" fill="#EB6A1F"/><path d="M96.62 80.36l-5.8 4.66c-.66.53-1.61.42-2.13-.24l-.45-.56c-.52-.66-.42-1.62.24-2.14l5.8-4.66c.66-.53 1.61-.42 2.13.24l.45.56c.52.65.42 1.61-.24 2.14z" fill="#ABABAB"/><path d="M120.2 109.68l-5.85 5.75c-5.45 4.65-11.81 5.28-17.32-1.32-11.98-14.33 6.47-24.83 12.09-21.99 8.41 4.24 13.51 15.48 11.08 17.56z" fill="#FFD29C"/><path d="M105.98 119.98c-.29 0-.57-.01-.85-.04-3.22-.27-6.2-2.02-8.86-5.21-5.04-6.03-5.54-12.51-1.37-17.76 3.83-4.83 10.96-7.62 14.67-5.75 7.05 3.56 11.68 11.63 12.18 15.85.23 1.89-.34 2.85-.87 3.32l-5.83 5.73c-2.98 2.56-6.08 3.86-9.07 3.86zm.86-27.34c-3.01 0-7.63 2.1-10.39 5.58-2.08 2.62-4.67 8.08 1.34 15.25 2.31 2.76 4.83 4.28 7.5 4.5 2.73.23 5.62-.91 8.42-3.3l5.8-5.7.05-.05c.17-.15.33-.66.22-1.6-.46-3.87-4.92-11.19-11.11-14.32-.49-.24-1.11-.36-1.83-.36z" fill="#E3B57C"/><path d="M112.22 112.4a3.178 3.178 0 0 0 4.46.62l3.58-2.72c1.4-1.07 1.68-3.07.62-4.48s-3.06-1.68-4.46-.62l-3.58 2.72a3.203 3.203 0 0 0-.62 4.48z" fill="#FFD29C"/><path d="M114.77 114.52c-.18 0-.37-.01-.56-.04-1.07-.15-2.02-.7-2.67-1.57a4.067 4.067 0 0 1 .78-5.67l3.58-2.72c.86-.65 1.93-.93 2.99-.79 1.07.15 2.02.71 2.67 1.57 1.34 1.78.99 4.32-.78 5.67l-3.58 2.72c-.71.55-1.56.83-2.43.83zm-1.87-2.63c.38.5.92.82 1.54.9.62.09 1.23-.08 1.72-.45l3.58-2.72c1.03-.78 1.23-2.25.45-3.28-.38-.5-.92-.82-1.54-.9s-1.23.08-1.73.45l-3.58 2.72a2.359 2.359 0 0 0-.44 3.28z" fill="#E3B57C"/><path d="M109.79 108.35a3.206 3.206 0 0 0 4.5.6l4.67-3.59c1.41-1.08 1.67-3.1.6-4.51a3.206 3.206 0 0 0-4.5-.6l-4.67 3.59c-1.41 1.07-1.68 3.09-.6 4.51z" fill="#FFD29C"/><path d="M112.34 110.6c-.19 0-.37-.01-.56-.04a4.18 4.18 0 0 1-2.78-1.61 4.216 4.216 0 0 1 .78-5.9l4.67-3.59c.89-.68 1.99-.98 3.11-.83 1.11.15 2.1.72 2.78 1.61a4.216 4.216 0 0 1-.78 5.9l-4.67 3.59c-.74.57-1.63.87-2.55.87zm4.67-10.03c-.48 0-.95.16-1.34.46l-4.67 3.59c-.97.75-1.16 2.15-.41 3.12.36.47.88.77 1.47.85.58.08 1.17-.08 1.64-.44l4.67-3.59c.97-.75 1.16-2.15.41-3.12-.36-.47-.88-.77-1.47-.85-.11-.01-.21-.02-.3-.02z" fill="#E3B57C"/><path d="M106.81 105.11a3.137 3.137 0 0 0 4.42.36l5.44-4.65c1.32-1.13 1.48-3.11.36-4.43s-3.1-1.48-4.42-.36l-5.44 4.65a3.149 3.149 0 0 0-.36 4.43z" fill="#FFD29C"/><path d="M109.2 107.21c-.11 0-.23 0-.34-.01-1.1-.09-2.1-.6-2.81-1.44a4.154 4.154 0 0 1 .47-5.83l5.44-4.65c.84-.72 1.91-1.07 3.01-.97 1.1.09 2.1.6 2.81 1.44a4.154 4.154 0 0 1-.47 5.83l-5.44 4.65c-.75.64-1.69.98-2.67.98zm5.44-10.94c-.51 0-.99.18-1.38.51l-5.44 4.65c-.9.77-1.01 2.13-.25 3.04.37.44.89.7 1.46.75s1.12-.13 1.56-.51l5.44-4.65c.9-.77 1.01-2.13.25-3.04-.37-.44-.89-.7-1.46-.75-.06.01-.12 0-.18 0z" fill="#E3B57C"/><path d="M102.71 101.27a3.13 3.13 0 0 0 4.43.12l5.18-4.94c1.26-1.2 1.31-3.19.12-4.45s-3.18-1.31-4.43-.12l-5.18 4.94a3.155 3.155 0 0 0-.12 4.45z" fill="#FFD29C"/><path d="M104.99 103.25h-.11c-1.1-.03-2.13-.49-2.89-1.29-1.56-1.65-1.5-4.28.15-5.85l5.18-4.94c.8-.76 1.86-1.16 2.95-1.14 1.1.03 2.13.49 2.89 1.29 1.56 1.65 1.5 4.28-.15 5.85l-5.18 4.94a4.14 4.14 0 0 1-2.84 1.14zm5.18-11.23c-.55 0-1.07.21-1.47.59l-5.18 4.94c-.86.82-.9 2.18-.08 3.05.39.42.92.65 1.49.67.57-.01 1.12-.19 1.53-.59l5.18-4.94c.86-.82.9-2.18.08-3.05-.39-.42-.92-.65-1.5-.67h-.05z" fill="#E3B57C"/><path d="M105.21 88.49c-.69.43-3.22 1.81-4.77 2.83-.59.39-2.09 1.48-2.58 1.97-1.58 1.59-4.61 8.54-4.58 10.87.02 1.14.39 2.18.99 3.04-.03-.58 3.91 9.85 9.51 1.34 2.51-3.4-1.89-6.1-1.95-8.07-.04-1.51-.01-3.84 4.74-6.3 1.33-.69 3-2.46 2.84-3.86-.26-2.42-2.2-3.08-4.2-1.82z" fill="#FFD29C"/><path d="M108.73 86.87c-1.1-.52-2.5-.33-3.83.52-.23.15-.67.4-1.21.72-1.08.63-2.56 1.49-3.62 2.2-.54.37-2.16 1.51-2.77 2.14-4.37 4.57-5.45 9.29-5.21 12.32.16 1.98 2.49 3.39 2.36 2.79-.71-3.18-.61-5.26.86-8.69 1.05-2.44 2.02-3.68 3.38-5.05.42-.42 1.83-1.46 2.44-1.87 1-.67 2.45-1.51 3.51-2.13.57-.33 1.04-.61 1.28-.76.74-.47 1.44-.61 1.92-.39.42.2 1.01.79 1.08 1.52.07.76-1.31 2.45-2.53 3.09-1.72.91-3.66 1.8-4.69 3.52-.78 1.3-1.3 3.22-.71 4.59.58 1.36 3.44 3.44 3.46 6.46.01 1.25-.83 3.66-.83 3.66s2.15-1.45 2.55-3.04c.56-2.24-.61-4.72-1.83-6.44-.54-.77-1.74-1.88-1.74-2.27-.02-1.26-.24-2.9 4.09-5.19 1.5-.79 4.07-2.73 3.88-4.73-.14-1.41-.79-2.47-1.84-2.97z" fill="#E3B57C"/></svg>