<svg viewBox="0 0 128 128" width="128" height="128" xmlns="http://www.w3.org/2000/svg" xmlns:xlink="http://www.w3.org/1999/xlink"><pattern id="f" width="15.83" height="15.5" overflow="visible" patternUnits="userSpaceOnUse" viewBox="0 -15.5 15.83 15.5"><path fill="none" d="M0-15.5h15.83V0H0z"/><path fill="#49C0D6" d="M0-15.5h15.83V0H0z"/></pattern><path d="M68 27.64V24c0-2.21-1.79-4-4-4s-4 1.79-4 4v3.64L20 64v60h88V64L68 27.64z" fill="#49C0D6"/><radialGradient id="a" cx="63.5" cy="36" r="89.002" gradientUnits="userSpaceOnUse"><stop stop-color="#eee" offset="0"/><stop stop-color="#E4E4E4" offset=".299"/><stop stop-color="#C9C9C9" offset=".805"/><stop stop-color="#BDBDBD" offset="1"/></radialGradient><path d="M61.31 37.04L20 74.59V124h88V74.59L66.69 37.04a3.992 3.992 0 00-5.38 0z" fill="url(#a)"/><linearGradient id="b" x1="108" x2="87.071" y1="72" y2="72" gradientUnits="userSpaceOnUse"><stop stop-color="#757575" offset="0"/><stop stop-color="#757575" stop-opacity="0" offset="1"/></linearGradient><path d="M68 27.64V24c0-2.21-1.79-4-4-4v104h44V64L68 27.64z" fill="url(#b)" opacity=".7"/><linearGradient id="c" x1="20" x2="43.382" y1="72" y2="72" gradientUnits="userSpaceOnUse"><stop stop-color="#757575" offset="0"/><stop stop-color="#757575" stop-opacity="0" offset="1"/></linearGradient><path d="M60 24v3.64L20 64v60h44V20c-2.21 0-4 1.79-4 4z" fill="url(#c)" opacity=".7"/><circle cx="16" cy="24" r="12" fill="#49C0D6"/><path d="M22.11 23.9c0 5.71-4.46 10.02-6.11 10.02-2.11 0-6.11-4.31-6.11-10.02 0-7.27 3.76-10.65 6.11-10.65 3.13 0 6.11 3.43 6.11 10.65z" fill="#3A99AB"/><path d="M15.03 4.76L14 11.88h4l-1.03-7.12c-.25-1.01-1.69-1.01-1.94 0z" fill="#49C0D6"/><circle cx="16" cy="11" r="4" fill="#49C0D6"/><path d="M64 23c.55 0 1 .45 1 1v3.64c0 .85.36 1.65.98 2.22L105 65.33V121H23V65.32l39.02-35.47c.63-.57.98-1.37.98-2.22V24c0-.55.45-1 1-1m0-3c-2.21 0-4 1.79-4 4v3.64L20 64v60h88V64L68 27.64V24c0-2.21-1.79-4-4-4zM16 8.74c.19.17.41.3.66.39a1.99 1.99 0 011.18 2.66c-.22.52-.22 1.11.02 1.62.23.51.67.9 1.21 1.08A9.958 9.958 0 0126 24c0 5.51-4.49 10-10 10S6 29.51 6 24c0-4.36 2.79-8.18 6.94-9.52.54-.17.98-.56 1.21-1.08.23-.51.24-1.1.02-1.62-.12-.24-.17-.51-.17-.78 0-.84.54-1.59 1.34-1.87.25-.09.47-.22.66-.39M16 4a.98.98 0 00-.97.76l-.36 2.49A3.973 3.973 0 0012 11c0 .56.12 1.09.33 1.58C7.5 14.13 4 18.65 4 24c0 6.63 5.37 12 12 12s12-5.37 12-12c0-5.35-3.5-9.87-8.33-11.42.21-.49.33-1.02.33-1.58 0-1.74-1.12-3.21-2.67-3.76l-.36-2.49A.98.98 0 0016 4z" fill="#424242" opacity=".2"/><circle cx="112" cy="24" r="12" fill="#49C0D6"/><path d="M105.89 23.9c0 5.71 4.46 10.02 6.11 10.02 2.11 0 6.11-4.31 6.11-10.02 0-7.27-3.76-10.65-6.11-10.65-3.13 0-6.11 3.43-6.11 10.65z" fill="#3A99AB"/><path d="M112.97 4.76l1.03 7.12h-4l1.03-7.12c.25-1.01 1.69-1.01 1.94 0z" fill="#49C0D6"/><circle cx="112" cy="11" r="4" fill="#49C0D6"/><path d="M112 8.74c.19.17.41.3.66.39A2 2 0 01114 11c0 .27-.05.54-.16.79-.22.52-.22 1.11.02 1.62.23.51.67.9 1.21 1.08a9.967 9.967 0 016.94 9.52c0 5.51-4.49 10-10 10s-10-4.49-10-10c0-4.36 2.79-8.18 6.94-9.52.54-.17.98-.56 1.21-1.08.23-.51.24-1.1.02-1.62-.13-.25-.18-.52-.18-.79 0-.84.54-1.59 1.34-1.87.25-.09.47-.22.66-.39M112 4a.98.98 0 00-.97.76l-.36 2.49A3.973 3.973 0 00108 11c0 .56.12 1.09.33 1.58C103.5 14.13 100 18.65 100 24c0 6.63 5.37 12 12 12s12-5.37 12-12c0-5.35-3.5-9.87-8.33-11.42.21-.48.33-1.02.33-1.58 0-1.74-1.12-3.21-2.67-3.76l-.36-2.49A.98.98 0 00112 4z" fill="#424242" opacity=".2"/><radialGradient id="d" cx="15.667" cy="32.167" r="73.667" gradientTransform="matrix(0 1 -.414 0 28.984 16.5)" gradientUnits="userSpaceOnUse"><stop stop-color="#eee" offset="0"/><stop stop-color="#D6D6D6" offset=".528"/><stop stop-color="#BDBDBD" offset="1"/></radialGradient><path d="M4 124h24V34c0-1.1-.9-2-2-2H6c-1.1 0-2 .9-2 2v90z" fill="url(#d)"/><path fill="#9E9E9E" d="M4 116h24v8H4z"/><path fill="#BDBDBD" d="M4 84h24v2H4z"/><radialGradient id="e" cx="111.67" cy="32.167" r="73.667" gradientTransform="matrix(0 1 .414 0 99.016 -79.5)" gradientUnits="userSpaceOnUse"><stop stop-color="#eee" offset="0"/><stop stop-color="#D6D6D6" offset=".528"/><stop stop-color="#BDBDBD" offset="1"/></radialGradient><path d="M124 124h-24V34c0-1.1.9-2 2-2h20c1.1 0 2 .9 2 2v90z" fill="url(#e)"/><path fill="#9E9E9E" d="M124 124h-24v-8h24z"/><path fill="#BDBDBD" d="M124 86h-24v-2h24z"/><g fill="#424242"><ellipse transform="rotate(-19.986 15.112 117.502)" cx="15.11" cy="117.5" rx="1.26" ry=".59" opacity=".2"/><ellipse transform="rotate(-34.3 14.924 121.656)" cx="14.93" cy="121.66" rx="1.02" ry=".53" opacity=".2"/><ellipse cx="16.66" cy="119.51" rx="1.55" ry=".68" opacity=".08"/><ellipse cx="10.76" cy="117.27" rx="1.55" ry=".68" opacity=".08"/><ellipse cx="18.83" cy="122.04" rx="1.07" ry=".59" opacity=".08"/><ellipse cx="19.37" cy="117.53" rx="1.3" ry=".72" opacity=".08"/><ellipse cx="22.98" cy="119.34" rx="1.07" ry=".47" opacity=".08"/><ellipse transform="rotate(-82.623 11.362 122.318)" cx="11.36" cy="122.32" rx=".56" ry="1.28" opacity=".08"/><ellipse transform="rotate(-78.644 24.993 117.977)" cx="24.99" cy="117.97" rx=".76" ry="1.67" opacity=".2"/><ellipse transform="rotate(-60.246 7.113 117.813)" cx="7.11" cy="117.82" rx=".53" ry="1.25" opacity=".2"/><ellipse transform="rotate(-22.066 26.124 122.738)" cx="26.13" cy="122.75" rx="1.27" ry=".46" opacity=".2"/><ellipse transform="rotate(-19.986 20.406 119.622)" cx="20.4" cy="119.62" rx="1.34" ry=".62" opacity=".2"/><ellipse cx="5.58" cy="119.82" rx="1.13" ry=".62" opacity=".08"/><ellipse transform="rotate(-78.644 22.533 121.528)" cx="22.53" cy="121.52" rx=".81" ry="1.77" opacity=".2"/><ellipse transform="rotate(-60.246 12.827 119.223)" cx="12.83" cy="119.23" rx=".56" ry="1.33" opacity=".2"/><ellipse transform="rotate(-22.066 8.46 121.13)" cx="8.46" cy="121.15" rx="2.32" ry=".85" opacity=".2"/></g><path d="M18.39 100.72h-5.3c-.44 0-.79-.38-.79-.86v-2.4c0-.47.36-.86.79-.86h5.3c.44 0 .79.38.79.86v2.4c0 .48-.35.86-.79.86zM85.14 110.85h-5.3c-.44 0-.79-.38-.79-.86v-2.4c0-.47.36-.86.79-.86h5.3c.44 0 .79.38.79.86v2.4c0 .47-.35.86-.79.86zM9.21 113.44H5.12c-.34 0-.61-.31-.61-.69v-1.92c0-.38.27-.69.61-.69h4.09c.34 0 .61.31.61.69v1.92c0 .38-.27.69-.61.69z" fill="#BDBDBD" opacity=".5"/><path d="M13.77 108.88H6.76c-.58 0-1.05-.4-1.05-.9v-2.51c0-.5.47-.9 1.05-.9h7.01c.58 0 1.05.4 1.05.9v2.51c0 .5-.47.9-1.05.9zM80.89 117.25h-7.01c-.58 0-1.05-.4-1.05-.9v-2.51c0-.5.47-.9 1.05-.9h7.01c.58 0 1.05.4 1.05.9v2.51c0 .5-.47.9-1.05.9zM42.46 112.82h-8.21c-.68 0-1.23-.47-1.23-1.05v-2.94c0-.58.55-1.05 1.23-1.05h8.21c.68 0 1.23.47 1.23 1.05v2.94c0 .58-.55 1.05-1.23 1.05zM10.57 95.87H6.06c-.55 0-1-.53-1-1.19v-1.9c0-.66.45-1.19 1-1.19h4.51c.55 0 1 .53 1 1.19v1.9c0 .65-.45 1.19-1 1.19z" fill="#BDBDBD" opacity=".2"/><path d="M12.08 59.95h-5.3c-.44 0-.79-.38-.79-.86v-2.4c0-.47.36-.86.79-.86h5.3c.44 0 .79.38.79.86v2.4c.01.47-.35.86-.79.86z" fill="#BDBDBD" opacity=".5"/><path d="M14.79 66.01h-4.51c-.55 0-1-.53-1-1.19v-1.9c0-.66.45-1.19 1-1.19h4.51c.55 0 1 .53 1 1.19v1.9c0 .66-.45 1.19-1 1.19zM27.18 47.53h-3.16c-.39 0-.7-.53-.7-1.19v-1.9c0-.66.31-1.19.7-1.19h3.16c.39 0 .7.53.7 1.19v1.9c0 .66-.31 1.19-.7 1.19z" fill="#BDBDBD" opacity=".2"/><pattern id="g" xlink:href="#f" patternTransform="translate(6.375 -4.875)"/><path d="M12 78l-1.5-1.5L9 78c-.63.63-1 1.62-1 2.67V84h5v-3.33c0-1.05-.37-2.04-1-2.67z" fill="url(#g)"/><pattern id="h" xlink:href="#f" patternTransform="translate(6.375 -4.875)"/><path d="M23 78l-1.5-1.5L20 78c-.63.63-1 1.62-1 2.67V84h5v-3.33c0-1.05-.37-2.04-1-2.67z" fill="url(#h)"/><pattern id="i" xlink:href="#f" patternTransform="translate(6.375 -4.875)"/><path d="M17.5 46L16 44.5 14.5 46c-.63.63-1 1.62-1 2.67V52h5v-3.33c0-1.05-.37-2.04-1-2.67z" fill="url(#i)"/><path d="M26 34v88H6V34h20m0-2H6c-1.1 0-2 .9-2 2v90h24V34c0-1.1-.9-2-2-2z" fill="#424242" opacity=".2"/><g fill="#424242"><ellipse transform="rotate(-70.014 112.885 117.5)" cx="112.89" cy="117.5" rx=".59" ry="1.26" opacity=".2"/><ellipse transform="rotate(-55.702 113.069 121.658)" cx="113.07" cy="121.66" rx=".53" ry="1.02" opacity=".2"/><ellipse cx="111.34" cy="119.51" rx="1.55" ry=".68" opacity=".08"/><ellipse cx="117.24" cy="117.27" rx="1.55" ry=".68" opacity=".08"/><ellipse cx="109.17" cy="122.04" rx="1.07" ry=".59" opacity=".08"/><ellipse cx="108.63" cy="117.53" rx="1.3" ry=".72" opacity=".08"/><ellipse cx="105.02" cy="119.34" rx="1.07" ry=".47" opacity=".08"/><ellipse transform="rotate(-7.387 116.64 122.353)" cx="116.64" cy="122.32" rx="1.28" ry=".56" opacity=".08"/><ellipse transform="rotate(-11.363 102.976 117.96)" cx="103.01" cy="117.97" rx="1.67" ry=".76" opacity=".2"/><ellipse transform="rotate(-29.754 120.875 117.807)" cx="120.89" cy="117.82" rx="1.25" ry=".53" opacity=".2"/><ellipse transform="rotate(-67.934 101.87 122.747)" cx="101.87" cy="122.75" rx=".46" ry="1.27" opacity=".2"/><ellipse transform="rotate(-70.014 107.59 119.62)" cx="107.6" cy="119.62" rx=".62" ry="1.34" opacity=".2"/><ellipse cx="122.42" cy="119.82" rx="1.13" ry=".62" opacity=".08"/><ellipse transform="rotate(-11.363 105.431 121.51)" cx="105.47" cy="121.52" rx="1.77" ry=".81" opacity=".2"/><ellipse transform="rotate(-29.754 115.16 119.216)" cx="115.17" cy="119.23" rx="1.33" ry=".56" opacity=".2"/><ellipse transform="rotate(-67.934 119.536 121.14)" cx="119.54" cy="121.15" rx=".85" ry="2.32" opacity=".2"/></g><path d="M109.61 100.72h5.3c.44 0 .79-.38.79-.86v-2.4c0-.47-.36-.86-.79-.86h-5.3c-.44 0-.79.38-.79.86v2.4c0 .48.35.86.79.86zM118.79 113.44h4.09c.34 0 .61-.31.61-.69v-1.92c0-.38-.27-.69-.61-.69h-4.09c-.34 0-.61.31-.61.69v1.92c0 .38.27.69.61.69z" fill="#BDBDBD" opacity=".5"/><path d="M114.23 108.88h7.01c.58 0 1.05-.4 1.05-.9v-2.51c0-.5-.47-.9-1.05-.9h-7.01c-.58 0-1.05.4-1.05.9v2.51c0 .5.47.9 1.05.9zM117.43 95.87h4.51c.55 0 1-.53 1-1.19v-1.9c0-.66-.45-1.19-1-1.19h-4.51c-.55 0-1 .53-1 1.19v1.9c0 .65.45 1.19 1 1.19z" fill="#BDBDBD" opacity=".2"/><path d="M29.31 118.88h6.21c.51 0 .93-.45.93-1v-2.81c0-.55-.42-1-.93-1h-6.21c-.51 0-.93.45-.93 1v2.81c0 .55.41 1 .93 1z" fill="#BDBDBD" opacity=".5"/><path d="M31.22 106.15h5.28c.65 0 1.17-.62 1.17-1.39v-2.22c0-.77-.52-1.39-1.17-1.39h-5.28c-.65 0-1.17.62-1.17 1.39v2.22c-.01.77.52 1.39 1.17 1.39z" fill="#BDBDBD" opacity=".2"/><path d="M115.92 59.95h5.3c.44 0 .79-.38.79-.86v-2.4c0-.47-.36-.86-.79-.86h-5.3c-.44 0-.79.38-.79.86v2.4c-.01.47.35.86.79.86z" fill="#BDBDBD" opacity=".5"/><path d="M113.21 66.01h4.51c.55 0 1-.53 1-1.19v-1.9c0-.66-.45-1.19-1-1.19h-4.51c-.55 0-1 .53-1 1.19v1.9c0 .66.45 1.19 1 1.19z" fill="#BDBDBD" opacity=".2"/><path d="M89.29 79.07h5.3c.44 0 .79-.38.79-.86v-2.4c0-.47-.36-.86-.79-.86h-5.3c-.44 0-.79.38-.79.86v2.4c0 .48.35.86.79.86z" fill="#BDBDBD" opacity=".5"/><path d="M93.58 85.01h4.51c.55 0 1-.53 1-1.19v-1.9c0-.66-.45-1.19-1-1.19h-4.51c-.55 0-1 .53-1 1.19v1.9c0 .66.45 1.19 1 1.19zM100.82 47.53h3.16c.39 0 .7-.53.7-1.19v-1.9c0-.66-.31-1.19-.7-1.19h-3.16c-.39 0-.7.53-.7 1.19v1.9c0 .66.31 1.19.7 1.19z" fill="#BDBDBD" opacity=".2"/><pattern id="j" xlink:href="#f" patternTransform="translate(6.375 -4.875)"/><path d="M116 78l1.5-1.5L119 78c.63.63 1 1.62 1 2.67V84h-5v-3.33c0-1.05.37-2.04 1-2.67z" fill="url(#j)"/><pattern id="k" xlink:href="#f" patternTransform="translate(6.375 -4.875)"/><path d="M105 78l1.5-1.5L108 78c.63.63 1 1.62 1 2.67V84h-5v-3.33c0-1.05.37-2.04 1-2.67z" fill="url(#k)"/><pattern id="l" xlink:href="#f" patternTransform="translate(6.375 -4.875)"/><path d="M110.5 46l1.5-1.5 1.5 1.5c.63.63 1 1.62 1 2.67V52h-5v-3.33c0-1.05.37-2.04 1-2.67z" fill="url(#l)"/><path d="M122 34v88h-20V34h20m0-2h-20c-1.1 0-2 .9-2 2v90h24V34c0-1.1-.9-2-2-2z" fill="#424242" opacity=".2"/><pattern id="m" xlink:href="#f" patternTransform="translate(6.375 -4.875)"/><path fill="url(#m)" d="M-18.96 27.46v15.5"/><pattern id="n" xlink:href="#f" patternTransform="translate(6.375 -4.875)"/><path d="M64.2 87.28c-10.75 0-19.5-8.75-19.5-19.5s8.75-19.5 19.5-19.5 19.5 8.75 19.5 19.5-8.74 19.5-19.5 19.5z" fill="url(#n)"/><path d="M64.2 49.28c10.2 0 18.5 8.3 18.5 18.5s-8.3 18.5-18.5 18.5-18.5-8.3-18.5-18.5 8.3-18.5 18.5-18.5m0-2c-11.32 0-20.5 9.18-20.5 20.5s9.18 20.5 20.5 20.5 20.5-9.18 20.5-20.5-9.17-20.5-20.5-20.5z" fill="#34A4A8"/><path d="M74.8 67.76l4.54-7.43c.15-.25.16-.57.02-.83a.828.828 0 00-.72-.42H69.5l-4.59-7.81c-.3-.5-1.1-.5-1.41.01l-4.58 7.8h-9.14c-.3 0-.57.16-.72.42s-.14.58.02.83l4.54 7.43-4.54 7.43c-.16.26-.16.57-.02.83.15.26.42.42.72.42h9.14l4.59 7.81c.15.25.41.39.7.39s.55-.15.71-.4l4.58-7.8h9.14c.3 0 .57-.16.72-.42s.14-.58-.02-.83l-4.54-7.43zm-8.82 8.69l-1.78 3.12-1.78-3.12h3.56zm-3.55-17.37l1.78-3.12 1.78 3.12h-3.56zm12.3 14.35h-3.39l1.7-2.78 1.69 2.78zm-3.4-11.33h3.39l-1.7 2.78-1.69-2.78zm-.07 5.66l-3.46 5.67h-7.19l-3.46-5.67 3.46-5.67h7.19l3.46 5.67zm-15.88 2.9l1.7 2.78h-3.39l1.69-2.78zm-1.7-8.56h3.39l-1.7 2.78-1.69-2.78z" fill="#FFEA00"/><pattern id="o" xlink:href="#f" patternTransform="translate(6.375 -4.875)"/><path d="M71.2 102.3L64 96l-7.2 6.3c-3.02 2.64-4.8 6.79-4.8 11.2V124h24v-10.5c0-4.41-1.78-8.56-4.8-11.2z" fill="url(#o)"/><path d="M64 98.66l5.88 5.15c2.58 2.26 4.12 5.88 4.12 9.69v8.5H54v-8.5c0-3.81 1.54-7.44 4.12-9.69L64 98.66M64 96l-7.2 6.3c-3.02 2.64-4.8 6.79-4.8 11.2V124h24v-10.5c0-4.41-1.78-8.56-4.8-11.2L64 96z" fill="#424242" opacity=".2"/></svg>