<svg viewBox="0 0 128 128" width="128" height="128" xmlns="http://www.w3.org/2000/svg" xmlns:xlink="http://www.w3.org/1999/xlink"><defs><path id="a" d="M4 4h120v120H4z"/></defs><clipPath id="b"><use xlink:href="#a"/></clipPath><g clip-path="url(#b)"><linearGradient id="c" x1="64" x2="64" y1="29.208" y2="133.63" gradientUnits="userSpaceOnUse"><stop stop-color="#BCAAA4" offset=".215"/><stop stop-color="#8D6E63" offset="1"/></linearGradient><path d="M.5 127.5V75.14c.64-1.74 11.29-30.41 23.03-32.63.6-.11 1.22-.17 1.84-.17 3.63 0 6.99 1.91 10.55 3.94 3.62 2.06 7.37 4.19 11.5 4.19h.15c6.28-.08 11.17-5.17 15.26-9.94 8.43-9.83 13.48-15.42 15.02-16.6 3.65-2.81 8.34-4.36 13.2-4.36 16.28 0 35.19 32.39 36.44 34.57v73.38H.5z" fill="url(#c)"/><path d="M91.06 20.05c15.76 0 34.22 31.23 35.94 34.21V127H1V75.22c.88-2.38 11.3-30.08 22.62-32.23.57-.11 1.16-.16 1.75-.16 3.5 0 6.8 1.88 10.31 3.87 3.68 2.09 7.49 4.26 11.75 4.26h.15c6.49-.08 11.47-5.26 15.63-10.11 10.48-12.22 13.91-15.74 14.95-16.54 3.57-2.75 8.15-4.26 12.9-4.26m0-1c-4.83 0-9.68 1.52-13.51 4.47-2.35 1.81-12.14 13.22-15.1 16.68-3.99 4.65-8.76 9.69-14.89 9.76h-.14c-7.92 0-14.46-8.12-22.06-8.13-.64 0-1.28.06-1.94.18C10.97 44.38 0 75.05 0 75.05V128h128V53.99s-19.7-34.94-36.94-34.94z" fill="#A1887F"/></g><g clip-path="url(#b)"><defs><path id="d" d="M4 4h120v120H4z"/></defs><clipPath id="e"><use xlink:href="#d"/></clipPath><g clip-path="url(#e)"><path d="M66.37 91.4a.51.51 0 0 1-.43-.23l-.73-1.06a3.558 3.558 0 0 1-.02-4.01l3.99-5.31 5.59-3.89c.66.19 2.66.85 3.48 2.03l1.63 2.34c.21.3.14.72-.17.93l-13.05 9.1c-.08.07-.18.1-.29.1z" fill="#4568AD"/><path d="M74.86 77.45c.88.27 2.37.89 2.98 1.77l1.63 2.34c.03.05.03.1.03.13-.01.03-.02.08-.07.11l-13.08 9.09-.73-1.06a3.064 3.064 0 0 1-.03-3.43l3.94-5.25 5.33-3.7m-.19-1.09l-5.85 4.06-4.06 5.4c-.93 1.39-.92 3.2.03 4.57l.73 1.06c.2.29.52.44.84.44.2 0 .4-.06.58-.18l13.05-9.1c.53-.37.66-1.1.29-1.63l-1.63-2.34c-1.1-1.59-3.98-2.28-3.98-2.28z" fill="#315499"/></g><g clip-path="url(#e)"><linearGradient id="f" x1="41.097" x2="51.097" y1="19.189" y2="28.064" gradientUnits="userSpaceOnUse"><stop stop-color="#A56C43" offset=".55"/><stop stop-color="#8D5738" offset=".83"/><stop stop-color="#7A4C32" offset="1"/></linearGradient><path d="M51.68 10.35c-3.24-3.37-9.33-5.24-13.7-3.56-4.89 1.88-6.85 6.07-6.6 10.81.09 1.72.49 3.37 1.03 4.49.06.13.56 1.1.65 1.42.45 1.2-1.7 2.93-1.7 4.36 0 1.07 2.31 1.28 2.51 1.43 1.04.75.63 5.39 6.66 4.62 2.03-.26 2.13-.47 2.86-.51 1.9-.12 7.26 1.63 7.26 1.63s-1.4 5.68 2.26 3.66c4.18-2.31 1.99-6.02 1.99-6.02s-3.87-2.88-2.17-8.25c1.31-4.12 1.03-11.92-1.05-14.08z" fill="url(#f)"/><linearGradient id="g" x1="30.988" x2="54.835" y1="26.514" y2="20.368" gradientUnits="userSpaceOnUse"><stop stop-color="#875334" offset="0"/><stop stop-color="#663B22" offset="1"/></linearGradient><path d="M41.59 7.16c3.38 0 7.14 1.56 9.37 3.88 1.67 1.74 2.13 8.96.83 13.08-1.45 4.59.8 7.93 2.34 9.21.17.36.54 1.34.26 2.35-.24.84-.89 1.56-1.95 2.14-.51.28-.77.31-.87.32-.24-.23-.26-1.57.05-2.86a.992.992 0 0 0-.66-1.19c-.53-.17-5.23-1.69-7.38-1.69-.09 0-.17 0-.26.01-.4.02-.67.09-.97.17-.36.09-.85.21-1.96.35-.4.05-.78.08-1.13.08-2.72 0-3.27-1.46-3.81-2.88-.26-.69-.49-1.28-1-1.65-.21-.15-.43-.2-.79-.29-.68-.16-1.12-.3-1.29-.44.06-.38.44-.97.75-1.45.6-.94 1.28-2.01.89-3.11-.09-.3-.31-.77-.64-1.42l-.06-.12c-.5-1.05-.85-2.59-.93-4.11-.15-2.76.43-7.7 5.96-9.83.96-.36 2.06-.55 3.25-.55m0-1c-1.27 0-2.49.2-3.61.63-4.89 1.88-6.85 6.07-6.6 10.81.09 1.72.49 3.37 1.03 4.49.06.13.56 1.1.65 1.42.45 1.2-1.7 2.93-1.7 4.36 0 1.07 2.31 1.28 2.52 1.43.96.69.68 4.71 5.4 4.71.39 0 .8-.03 1.26-.08 2.03-.26 2.13-.47 2.86-.51.06 0 .13-.01.19-.01 2.04 0 7.07 1.64 7.07 1.64s-1.01 4.09.93 4.09c.34 0 .78-.13 1.34-.43 4.18-2.31 1.99-6.02 1.99-6.02s-3.87-2.88-2.17-8.25c1.3-4.11 1.02-11.91-1.06-14.08-2.42-2.52-6.41-4.2-10.1-4.2z" fill="url(#g)"/><path d="M35.01 31.63c.83-.12 1.61-.48 2.19-1.14.64-.72-.01-1.23-.8-.69-.48.33-1.2.6-1.9.61l.51 1.22z" fill="#473530"/><ellipse transform="rotate(-13.952 36.887 23.436)" cx="36.88" cy="23.43" rx="1.11" ry="1.69" fill="#42312C"/><path d="M35.65 21.34c-.93.64-1.39.05-1.23-.61.12-.48.63-1.02 1.91-1.19 1.2-.15 1.89.34 2.32.63.44.29.53.7.28.82-.34.17-2.13-.44-3.28.35z" fill="#42312C"/><radialGradient id="h" cx="46.402" cy="27.456" r="10.152" gradientTransform="matrix(1.044 -.074 .0752 1.0362 -14.303 -14.216)" gradientUnits="userSpaceOnUse"><stop stop-color="#554138" offset="0"/><stop stop-color="#3C2C23" offset="1"/></radialGradient><path d="M53.13 12.16c-.43-.58-.9-1.12-1.44-1.6-.76-.68-1.64-1.21-2.56-1.64-2.44-1.13-5.24-1.5-7.88-.96s-5.08 2.02-6.73 4.15c-1.27 1.65-2.05 3.91-1.25 5.83.99-.29 1.72-1.15 2.8-1.37 1.4-.3 2.93-.32 4.12-1.11.46-.3.85-.71 1.28-1.05.11-.03.18-.04.18-.04 1.91.55.5 5.03 2.91 6.98.48.39 1.04.71 1.04.71s-.41-3.16 1.61-3.19c2.1-.03 2.27 2.12 1.67 3.95-.62 1.9-1.69 1.23-1.31 1.86.62 1.03 3.81 1.33 4.81 1.12 1.34-.27 2.2-1.73 3-2.84.93-1.28.85-2.8.71-4.38-.16-1.74-.99-3.35-1.91-4.84-.33-.55-.68-1.08-1.05-1.58z" fill="url(#h)"/><path d="M43.69 8.69c1.71 0 3.45.39 5.02 1.11.91.42 1.69.92 2.32 1.48.44.4.87.87 1.3 1.45.31.42.63.89 1 1.5.79 1.29 1.62 2.83 1.77 4.41.14 1.51.18 2.74-.53 3.72-.11.15-.21.3-.32.46-.63.91-1.29 1.84-2.08 2-.05.01-.23.04-.61.04-.98 0-1.91-.18-2.52-.38.27-.3.54-.74.75-1.39.26-.79.75-2.77-.25-4.15-.36-.5-1.05-1.09-2.3-1.09h-.06c-.72.01-1.35.29-1.8.82-.35.4-.55.9-.67 1.4-.57-.8-.71-1.95-.86-3.07-.19-1.48-.41-3.16-1.94-3.61a.842.842 0 0 0-.27-.04c-.07 0-.14.01-.22.02l-.18.04c-.14.03-.27.09-.38.18-.18.14-.36.3-.54.45-.24.21-.46.4-.68.55-.7.47-1.63.61-2.61.77-.39.06-.78.12-1.16.2-.76.16-1.34.53-1.86.86-.03.02-.05.03-.08.05-.09-1.36.58-2.8 1.36-3.81 1.47-1.9 3.71-3.29 6.15-3.79.74-.11 1.49-.18 2.25-.18m0-.98c-.82 0-1.64.08-2.44.25-2.64.54-5.08 2.02-6.73 4.15-1.27 1.65-2.05 3.91-1.25 5.83.99-.29 1.72-1.15 2.8-1.37 1.4-.3 2.93-.32 4.12-1.11.46-.3.85-.71 1.28-1.05.11-.03.18-.04.18-.04 1.91.55.5 5.03 2.91 6.98.48.39 1.04.71 1.04.71s-.41-3.16 1.61-3.19h.05c2.05 0 2.22 2.13 1.63 3.95-.62 1.9-1.69 1.23-1.31 1.86.5.83 2.66 1.19 4.01 1.19.33 0 .61-.02.8-.06 1.34-.27 2.2-1.73 3-2.84.93-1.28.85-2.8.71-4.38-.16-1.74-.99-3.35-1.91-4.84-.33-.54-.67-1.07-1.05-1.57-.43-.58-.9-1.12-1.44-1.6-.76-.68-1.64-1.21-2.56-1.64-1.71-.81-3.58-1.23-5.45-1.23z" fill="#291D15"/><linearGradient id="i" x1="50.824" x2="82.875" y1="59.363" y2="59.363" gradientUnits="userSpaceOnUse"><stop stop-color="#7A4C32" offset="0"/><stop stop-color="#8D5738" offset="1"/></linearGradient><path d="M51.94 60s-.02-.03-.03-.04c-.2-.25-.35-.49-.48-.73-.64-1.2-.77-2.59-.37-3.89.4-1.31 1.28-2.38 2.49-3.02.03-.02.06-.03.08-.05l23.53-13.61 5.72 10.76-18.83 9.16c-.13.06-.23.18-.26.32-.04.14-.01.29.07.41l11.11 16.15-6.31 4.64L51.94 60z" fill="url(#i)"/><path d="M76.96 39.34l5.23 9.85-18.37 8.94c-.26.13-.46.36-.53.64s-.02.58.14.82l10.83 15.75-5.54 4.07-16.26-19.57c-.04-.05-.08-.09-.13-.15-.01-.01-.02-.03-.03-.04a3.89 3.89 0 0 1-.43-.66c-.58-1.09-.7-2.33-.34-3.51s1.16-2.14 2.24-2.72c.04-.02.09-.05.13-.08l23.06-13.34m.39-1.39L53.3 51.86v.01c-2.74 1.45-3.77 4.85-2.32 7.59.15.29.33.55.53.8l.04.05c.05.06.1.12.15.19l16.86 20.27 7.08-5.21-11.38-16.55 19.3-9.39-6.21-11.67z" fill="#663B22"/><circle cx="80.46" cy="43.79" r="6.61" fill="#FBC11B"/><path d="M60.58 46.83l16.49-9.58c.02-.01.03-.01.05-.02a7.362 7.362 0 0 1 9.96 3.05c.92 1.74 1.12 3.73.54 5.61s-1.85 3.43-3.59 4.35l-16.87 8.97-6.58-12.38z" fill="#646464"/><path d="M80.57 36.86c2.55 0 4.87 1.4 6.07 3.64 1.78 3.34.5 7.51-2.84 9.29l-16.43 8.74-6.12-11.51 16.04-9.32.06-.03c.99-.53 2.1-.81 3.22-.81m0-1c-1.25 0-2.51.3-3.69.92v-.01l-16.97 9.86 7.04 13.24 17.31-9.21c3.84-2.04 5.29-6.8 3.25-10.64-1.4-2.64-4.13-4.16-6.94-4.16z" fill="#4F4F4F"/><path fill="#E0E0E0" stroke="#CCC7BD" stroke-linecap="round" stroke-linejoin="round" stroke-miterlimit="10" d="M71.3 69.26l-7.64 5.62 4.9 5.89 7.08-5.21z"/><radialGradient id="j" cx="88.214" cy="81.891" r="37.047" gradientUnits="userSpaceOnUse"><stop stop-color="#78909C" offset="0"/><stop stop-color="#617A86" offset=".562"/><stop stop-color="#546E7A" offset="1"/></radialGradient><path d="M97.53 122.57c-12.59 0-22.84-10.24-22.84-22.83s10.25-22.83 22.84-22.83 22.83 10.24 22.83 22.83c-.01 12.59-10.25 22.83-22.83 22.83zm-.01-38.33c-8.55 0-15.51 6.95-15.51 15.5s6.96 15.5 15.51 15.5 15.5-6.95 15.5-15.5-6.95-15.5-15.5-15.5z" fill="url(#j)"/><path d="M97.52 77.41c12.31 0 22.33 10.02 22.33 22.33s-10.02 22.33-22.33 22.33c-12.32 0-22.34-10.02-22.34-22.33.01-12.32 10.03-22.33 22.34-22.33m0 38.33c8.82 0 16-7.18 16-16s-7.18-16-16-16c-8.83 0-16.01 7.18-16.01 16 .01 8.82 7.19 16 16.01 16m0-39.33c-12.87 0-23.34 10.47-23.34 23.33 0 12.87 10.47 23.33 23.34 23.33 12.86 0 23.33-10.47 23.33-23.33 0-12.87-10.46-23.33-23.33-23.33zm0 38.33c-8.26 0-15.01-6.73-15.01-15s6.74-15 15.01-15 15 6.73 15 15-6.73 15-15 15z" fill="#405966"/><radialGradient id="k" cx="21.174" cy="81.891" r="37.047" gradientUnits="userSpaceOnUse"><stop stop-color="#78909C" offset="0"/><stop stop-color="#617A86" offset=".562"/><stop stop-color="#546E7A" offset="1"/></radialGradient><path d="M30.49 122.57c-12.59 0-22.84-10.24-22.84-22.83S17.9 76.91 30.49 76.91s22.83 10.24 22.83 22.83c-.01 12.59-10.25 22.83-22.83 22.83zm-.01-38.33c-8.55 0-15.51 6.95-15.51 15.5s6.96 15.5 15.51 15.5 15.5-6.95 15.5-15.5-6.95-15.5-15.5-15.5z" fill="url(#k)"/><path d="M30.48 77.41c12.31 0 22.33 10.02 22.33 22.33s-10.02 22.33-22.33 22.33c-12.32 0-22.34-10.02-22.34-22.33.01-12.32 10.03-22.33 22.34-22.33m0 38.33c8.82 0 16-7.18 16-16s-7.18-16-16-16c-8.83 0-16.01 7.18-16.01 16 .01 8.82 7.19 16 16.01 16m0-39.33c-12.87 0-23.34 10.47-23.34 23.33 0 12.87 10.47 23.33 23.34 23.33 12.86 0 23.33-10.47 23.33-23.33 0-12.87-10.46-23.33-23.33-23.33zm0 38.33c-8.26 0-15.01-6.73-15.01-15s6.74-15 15.01-15 15 6.73 15 15-6.73 15-15 15z" fill="#405966"/><linearGradient id="l" x1="53.027" x2="88.271" y1="66.011" y2="85.007" gradientUnits="userSpaceOnUse"><stop stop-color="#D8EB21" offset=".224"/><stop stop-color="#D6E921" offset=".24"/><stop stop-color="#B8C721" offset=".606"/><stop stop-color="#ADBA21" offset=".804"/></linearGradient><path d="M77.15 74.57c-.13 0-.26-.01-.4-.03l-36.42-5.26c-1.5-.22-2.54-1.6-2.32-3.1s1.64-2.55 3.11-2.32l36.42 5.26c1.5.22 2.54 1.61 2.32 3.11a2.74 2.74 0 0 1-2.71 2.34z" fill="url(#l)"/><linearGradient id="m" x1="51.442" x2="86.692" y1="68.952" y2="87.952" gradientUnits="userSpaceOnUse"><stop stop-color="#D8EB21" offset=".224"/><stop stop-color="#D6E921" offset=".24"/><stop stop-color="#B8C721" offset=".606"/><stop stop-color="#ADBA21" offset=".804"/></linearGradient><path d="M64.44 101.78c-.87 0-1.7-.42-2.22-1.12L38.51 68.18c-.9-1.22-.63-2.94.6-3.83 1.22-.89 2.94-.62 3.83.6L63.9 93.64 78.94 60.9c.63-1.38 2.26-1.98 3.64-1.35s1.99 2.26 1.35 3.64l-17 36.99c-.4.88-1.25 1.48-2.22 1.58-.09.01-.18.02-.27.02z" fill="url(#m)"/><linearGradient id="n" x1="48.916" x2="84.166" y1="73.638" y2="92.638" gradientUnits="userSpaceOnUse"><stop stop-color="#D8EB21" offset=".224"/><stop stop-color="#D6E921" offset=".24"/><stop stop-color="#B8C721" offset=".606"/><stop stop-color="#ADBA21" offset=".804"/></linearGradient><path d="M97.35 101.78H64.44c-1.51 0-2.74-1.23-2.74-2.74s1.23-2.74 2.74-2.74H91.9L74.94 73.47a2.745 2.745 0 0 1 4.41-3.27l20.2 27.2a2.743 2.743 0 1 1-2.2 4.38z" fill="url(#n)"/><linearGradient id="o" x1="43.529" x2="78.779" y1="83.632" y2="102.63" gradientUnits="userSpaceOnUse"><stop stop-color="#D8EB21" offset=".224"/><stop stop-color="#D6E921" offset=".24"/><stop stop-color="#B8C721" offset=".606"/><stop stop-color="#ADBA21" offset=".804"/></linearGradient><path d="M31 102.87c-.24 0-.47-.03-.71-.09a2.752 2.752 0 0 1-1.95-3.35L39.1 58.72c.4-1.46 1.9-2.34 3.35-1.95 1.47.39 2.35 1.89 1.96 3.35l-10.75 40.71a2.761 2.761 0 0 1-2.66 2.04z" fill="url(#o)"/><path d="M41.75 57.67a1.78 1.78 0 0 1 1.51.87c.23.4.3.87.18 1.32l-1.07 4.05c-.07.28-.02.57.13.81.16.24.41.4.69.44l31.98 4.62c.05.01.1.01.14.01a1 1 0 0 0 .91-.58l3.63-7.89c.28-.62.9-1.01 1.59-1.01.25 0 .49.05.72.16.43.2.75.54.91.98s.14.91-.05 1.33l-3.74 8.13c-.15.33-.11.72.11 1.01L98.75 98c.4.53.46 1.23.15 1.83-.29.59-.89.96-1.55.96H64.44c-.12 0-.24-.02-.38-.05-.03-.01-.07-.02-.11-.03a1.91 1.91 0 0 1-.26-.09c-.03-.01-.05-.03-.11-.06-.07-.04-.14-.08-.2-.13-.04-.03-.08-.06-.11-.09-.06-.05-.1-.11-.15-.17-.03-.04-.07-.08-.11-.12L42.08 71.38a1 1 0 0 0-.81-.41c-.06 0-.12.01-.19.02a.99.99 0 0 0-.78.73l-7.62 28.87c-.2.76-.89 1.3-1.68 1.3a1.75 1.75 0 0 1-1.69-2.19L40.06 59c.21-.79.9-1.33 1.69-1.33M63.9 94.64c.03 0 .07 0 .1-.01.35-.04.66-.26.81-.58l9.03-19.65c.13-.29.12-.62-.03-.9s-.42-.47-.74-.51l-26.14-3.78c-.05-.01-.1-.01-.14-.01-.35 0-.67.18-.86.48-.21.34-.19.78.05 1.11l17.11 23.43c.19.27.49.42.81.42m4.82 2.65H91.9c.38 0 .72-.21.89-.55s.13-.74-.09-1.05L78.38 76.41a.985.985 0 0 0-.8-.4c-.03 0-.07 0-.1.01-.35.04-.66.26-.8.58l-8.86 19.28c-.14.31-.12.67.07.96.17.28.49.45.83.45M41.75 56.67c-1.21 0-2.32.81-2.65 2.04L28.35 99.43c-.38 1.46.49 2.96 1.95 3.35a2.75 2.75 0 0 0 3.36-1.95l7.62-28.86 20.95 28.69c.04.05.09.09.13.14.08.09.15.18.24.26l.18.15c.1.08.2.15.31.21.06.03.12.07.18.1.13.06.27.11.4.15.05.02.1.04.16.05.19.04.4.07.6.07h32.92c1.04 0 1.99-.58 2.45-1.51.47-.92.38-2.04-.25-2.87L80.19 71.32l3.74-8.13c.64-1.38.03-3.01-1.35-3.64a2.742 2.742 0 0 0-3.64 1.35l-3.63 7.89-31.98-4.62 1.07-4.05c.39-1.46-.48-2.96-1.96-3.35-.23-.07-.46-.1-.69-.1zM63.9 93.64L46.79 70.21l26.14 3.78-9.03 19.65zm4.82 2.65l8.86-19.28L91.9 96.29H68.72z" fill="#9E9D24"/><path d="M62.21 99.76c-1.67.74-3.47 2.72-2.65 4.66 1.03 2.41 2.77 1.46 4.67.8s5.26-1.28 6.38-3.16c.83-1.39-.31-3.72-1.9-3.98-.96-.16-5.6 1.28-6.5 1.68z" clip-rule="evenodd" fill="#444" fill-rule="evenodd" stroke="#30302D" stroke-linecap="round" stroke-linejoin="round" stroke-miterlimit="10"/><radialGradient id="p" cx="38.248" cy="57.884" r="5.154" gradientUnits="userSpaceOnUse"><stop stop-color="#78909C" offset="0"/><stop stop-color="#617A86" offset=".562"/><stop stop-color="#546E7A" offset="1"/></radialGradient><path d="M42.52 61.15c-.18 0-.35-.02-.52-.06l-8.54-2.05a2.247 2.247 0 0 1 1.05-4.37l8.54 2.05c1.2.29 1.95 1.5 1.66 2.71a2.256 2.256 0 0 1-2.19 1.72z" fill="url(#p)"/><path d="M33.98 55.12c.14 0 .27.02.4.05l8.54 2.05a1.74 1.74 0 0 1 1.29 2.1 1.744 1.744 0 0 1-2.11 1.29l-8.54-2.05c-.45-.11-.84-.39-1.08-.78-.24-.4-.32-.87-.21-1.32.2-.79.9-1.34 1.71-1.34m0-1c-1.24 0-2.37.84-2.67 2.1a2.74 2.74 0 0 0 2.03 3.31l8.54 2.05c.21.05.42.08.64.08 1.24 0 2.36-.84 2.67-2.1.35-1.47-.56-2.95-2.03-3.31l-8.54-2.05a2.34 2.34 0 0 0-.64-.08z" fill="#405966"/><path d="M84.22 65.17c-.28 0-.57-.02-.84-.06-1.67-.23-3.35-.67-4.98-1.1-.67-.18-1.33-.35-1.99-.51l-.33-.08c-1.98-.48-4.03-.98-5.83-1.95-1.81-.98-2.4-2-1.91-3.29.46-1.2 1.71-2.11 2.9-2.11h.14c.78.04 1.56.05 2.34.05.52 0 1.04-.01 1.55-.01.52-.01 1.03-.01 1.55-.01 1.03 0 1.85.02 2.6.07 1.57.1 3.15.17 4.71.25h.12c.29.01.58.02.86.02.97.01 1.88.02 2.68.47.1.06.23.14.34.23 1.79 1.39 2.24 3.85 1.04 5.61-1.01 1.5-2.91 2.42-4.95 2.42z" clip-rule="evenodd" fill="#444" fill-rule="evenodd"/><path d="M71.24 56.57h.11c.69.04 1.44.05 2.37.05.52 0 1.04-.01 1.55-.01.51-.01 1.03-.01 1.54-.01 1.02 0 1.84.02 2.58.07 1.54.1 3.12.17 4.64.24l.2.01c.29.01.59.02.88.02.94.01 1.76.02 2.4.39.1.06.21.13.32.22 1.57 1.22 1.98 3.39.92 4.93-.92 1.35-2.66 2.19-4.54 2.19-.26 0-.52-.02-.77-.05-1.64-.22-3.31-.66-4.92-1.09-.67-.18-1.34-.35-2.01-.52l-.32-.08c-1.95-.47-3.97-.96-5.71-1.91-1.97-1.06-1.97-1.91-1.68-2.67.4-1.01 1.45-1.78 2.44-1.78m0-1c-1.47 0-2.86 1.11-3.37 2.43-.72 1.87.55 3.05 2.14 3.91 1.95 1.06 4.14 1.56 6.27 2.08 2.32.56 4.64 1.3 7.02 1.62.3.04.6.06.91.06 2.06 0 4.19-.91 5.36-2.62 1.4-2.04.82-4.76-1.13-6.28-.13-.1-.27-.2-.41-.28-1.15-.65-2.44-.5-3.76-.56-1.6-.08-3.22-.15-4.82-.25-.88-.06-1.76-.07-2.64-.07-1.03 0-2.07.02-3.09.02-.78 0-1.55-.01-2.32-.05-.04-.01-.1-.01-.16-.01z" fill="#30302D"/><linearGradient id="q" x1="73.624" x2="73.624" y1="46.917" y2="92.5" gradientUnits="userSpaceOnUse"><stop stop-color="#A56C43" offset="0"/><stop stop-color="#8D5738" offset="1"/></linearGradient><path d="M86.54 46.67L75.3 39.71 61.53 63.85h.01a5.572 5.572 0 0 0-.74 3.95l2.77 25.84 6.79-.09 1.48-24.9 14.7-21.98z" fill="url(#q)"/><circle cx="80.92" cy="43.19" r="6.61" fill="#FBC11B"/><path d="M75.66 41.1l9.48 5.87L71 68.09c-.1.15-.16.32-.17.5L69.4 92.56l-4.94.06-2.67-24.93c0-.02-.01-.05-.01-.07-.2-1.13.01-2.28.61-3.24.03-.04.05-.09.07-.13l13.2-23.15m-.36-1.39L61.53 63.85h.01a5.572 5.572 0 0 0-.74 3.95l2.77 25.84 6.79-.09 1.48-24.9 14.72-21.98-11.26-6.96z" fill="#875334"/><path fill="#E0E0E0" d="M63.15 86.49l7.26-.09-.52 6.65-5.89.08z"/><path d="M69.87 86.91l-.44 5.65-4.98.06-.72-5.64 6.14-.07m1.08-1.01zm0 0l-8.36.09.98 7.64 6.79-.09.59-7.64z" fill="#CCC7BD"/><path d="M64.85 56.19l9.84-16.93c.01-.02.02-.03.04-.05A7.34 7.34 0 0 1 81 35.72c1.36 0 2.7.38 3.87 1.1 3.63 2.24 4.05 7.02 2.37 10.17-1.06 1.98-8.91 14.17-10.47 16.58l-11.92-7.38z" fill="#7C7C7C"/><path d="M81 36.21c1.27 0 2.52.36 3.61 1.03 3.38 2.09 3.77 6.56 2.19 9.51-1 1.87-8.16 12.99-10.18 16.14l-11.09-6.86 9.58-16.49c.02-.02.03-.04.04-.07A6.848 6.848 0 0 1 81 36.21m0-1c-2.63 0-5.21 1.32-6.7 3.73L64.17 56.35l12.75 7.89s9.56-14.8 10.76-17.03c1.93-3.6 1.15-8.54-2.55-10.83A7.894 7.894 0 0 0 81 35.21z" fill="#5B5B5B"/><path d="M57.7 102.75c-.23 0-.44-.16-.5-.38l-.34-1.25c-.38-1.42.13-2.91 1.31-3.79l5.53-3.69 6.56-1.81c.56.4 2.23 1.68 2.61 3.07l.77 2.75c.05.17.03.35-.06.51s-.23.27-.4.32l-15.33 4.26c-.06 0-.11.01-.15.01z" fill="#4568AD"/><path d="M70.15 92.37c.74.55 1.94 1.63 2.23 2.66l.77 2.75c.02.06 0 .1-.02.13s-.05.06-.1.08l-15.35 4.24-.34-1.24c-.33-1.22.11-2.49 1.11-3.25l5.46-3.64 6.24-1.73m.19-1.09l-6.86 1.9-5.61 3.75c-1.33 1-1.92 2.71-1.49 4.33l.34 1.25c.12.45.54.75.98.75.09 0 .18-.01.27-.04l15.33-4.26c.62-.17.99-.82.81-1.44l-.77-2.75c-.51-1.88-3-3.49-3-3.49z" fill="#315499"/><radialGradient id="r" cx="67.387" cy="35.952" r="15.164" gradientUnits="userSpaceOnUse"><stop stop-color="#00BFA5" offset=".364"/><stop stop-color="#00B29A" offset=".812"/><stop stop-color="#00AB94" offset="1"/></radialGradient><path d="M71.52 48.12c-1.35 0-2.74-.33-4.13-.97-2.01-.93-3.19-1.89-4.44-2.92-2.02-1.65-4.11-3.36-9.74-5.14-1.28-.41-2.32-1.39-2.93-2.78-.73-1.68-.74-3.68-.01-5.22.44-.91.4-1.38.32-1.9-.06-.33-.1-.59.19-1.25 1.4-2.59 4.34-4.16 7.84-4.16.8 0 1.6.09 2.38.25 9.8 2.15 17.88 6.37 24.05 12.54-3.44 5.77-7.72 11.55-13.53 11.55z" fill="url(#r)"/><path d="M58.62 24.28c.77 0 1.53.08 2.27.24 9.55 2.1 17.46 6.18 23.52 12.13-3.33 5.53-7.45 10.96-12.89 10.96-1.28 0-2.6-.31-3.92-.93-1.95-.9-3.11-1.85-4.33-2.85-1.96-1.6-4.18-3.42-9.9-5.23-1.14-.36-2.07-1.25-2.62-2.5-.67-1.53-.67-3.41-.02-4.8.5-1.04.46-1.64.36-2.2-.05-.28-.07-.43.14-.93 1.33-2.43 4.09-3.89 7.39-3.89m0-1c-3.27 0-6.63 1.37-8.3 4.46-.73 1.62.29 1.48-.5 3.14-1.41 2.99-.26 7.58 3.24 8.68 9.09 2.89 8.84 5.59 14.12 8.04 1.53.71 2.98 1.02 4.34 1.02 6.66 0 11.37-7.4 14.15-12.12-6.11-6.23-14.25-10.69-24.57-12.96-.8-.17-1.63-.26-2.48-.26z" fill="#009984"/><path fill="#FBC11B" d="M36.02 53.85l3.45 4.21 10.98-7.01-4.41-5.65z"/><path fill="#FBC11B" d="M51.66 49.27l-6.87-2.04 4.89-18.22 7.8 2.31z"/><circle cx="48.22" cy="48.25" r="3.59" fill="#FBC11B"/><circle cx="53.58" cy="30.16" r="4.06" fill="#FBC11B"/><path d="M34.14 60.04c-.36-.3.35-1.18.66-2.04.43-1.2.21-1.76-.55-2.39-.4-.33-2.43-.17-2.43-.17s-.64.64-1.01 1.27c-.32.53.41 1.78-.27 2.23-1.31.88-2.69-.73-2.56-1.19l-.19-2.56s1.94-1.97 2.78-2.48c.84-.5 4.95-.13 7 .87 1.35.66 2.81 3.87 2.52 4.29-.83 1.18-1.9.61-3.04 1.76-1.35 1.33-1.89 1.24-2.91.41z" fill="#FBC11B"/><linearGradient id="s" x1="28.297" x2="56.847" y1="44.893" y2="44.893" gradientUnits="userSpaceOnUse"><stop stop-color="#8D5738" offset="0"/><stop stop-color="#97603D" offset=".216"/><stop stop-color="#A26941" offset=".573"/><stop stop-color="#A56C43" offset="1"/></linearGradient><path d="M35.37 60.15c-.2 0-.44-.12-.82-.42.05-.16.2-.45.3-.66.15-.29.3-.6.42-.9.48-1.31.28-2.13-.69-2.95-.19-.16-.54-.32-1.7-.32-.57 0-1.09.04-1.09.04-.12.01-.23.06-.31.15-.03.03-.68.69-1.09 1.37-.23.38-.16.83-.1 1.27.05.32.1.71-.02.8-.17.12-.35.17-.54.17-.64 0-1.22-.68-1.26-.9l-.17-2.42c.62-.62 1.93-1.89 2.52-2.24.09-.06.46-.15 1.23-.15 1.19 0 3.04.23 4.52.73a.472.472 0 0 0 .48-.09l8.33-7.02c.08-.07.13-.15.16-.25l4.5-16.73 6.81 2.02-5.66 17.46c-.18.62-.54 1.15-1.04 1.55l-10.87 7.3c-.23.16-.5.24-.8.33-.51.15-1.15.34-1.79.98-.62.61-1.02.88-1.32.88z" fill="url(#s)"/><path d="M50.38 30.26l5.83 1.73-5.51 17c-.15.5-.44.93-.84 1.26l-10.87 7.3c-.16.11-.38.18-.66.26-.54.16-1.27.38-2 1.11s-.95.73-.96.73-.06-.01-.2-.09c.04-.09.09-.18.13-.26.15-.29.32-.62.44-.96.55-1.51.29-2.55-.85-3.5-.37-.31-.96-.44-2.02-.44-.59 0-1.11.04-1.13.04a1 1 0 0 0-.63.29c-.07.07-.73.75-1.16 1.46-.32.53-.23 1.12-.16 1.6.02.11.04.27.05.38-.05.01-.08.02-.11.02-.3 0-.63-.31-.75-.49v-.03l-.15-2.11c.74-.73 1.8-1.72 2.23-1.99 0 0 .24-.1 1-.1 1.35 0 3.14.29 4.36.71.11.04.22.05.32.05.23 0 .46-.08.64-.24l8.33-7.02c.16-.13.27-.31.32-.51l4.35-16.2m-.7-1.25l-4.63 17.22-8.33 7.02c-1.43-.49-3.34-.76-4.68-.76-.69 0-1.24.07-1.49.22-.84.5-2.78 2.48-2.78 2.48l.19 2.56c-.1.37.74 1.44 1.75 1.44.26 0 .54-.07.81-.26.68-.45-.05-1.7.27-2.23.38-.63 1.01-1.27 1.01-1.27s.5-.04 1.05-.04c.56 0 1.18.04 1.38.21.76.63.98 1.19.55 2.39-.31.86-1.02 1.75-.66 2.04.47.38.84.61 1.23.61.46 0 .94-.31 1.66-1.03.92-.92 1.79-.74 2.52-1.25l10.9-7.32c.56-.44.99-1.05 1.21-1.78l5.82-17.95-7.78-2.3z" fill="#875334"/><path d="M46.54 38.97l2.41-8.96c.01-.01.01-.03.02-.05.6-2.03 2.5-3.45 4.62-3.45a4.815 4.815 0 0 1 4.62 6.19l-2.88 8.87-8.79-2.6z" fill="#04A287"/><path d="M53.59 27.01c.41 0 .83.06 1.23.18 2.29.68 3.59 3.09 2.92 5.35l-2.73 8.42-7.86-2.33 2.27-8.46c.01-.02.01-.04.02-.06.55-1.82 2.25-3.1 4.15-3.1m0-1c-2.3 0-4.42 1.5-5.1 3.81l-2.55 9.49 9.73 2.88 3.03-9.35c.83-2.82-.77-5.78-3.59-6.61-.51-.15-1.02-.22-1.52-.22z" fill="#008F76"/><linearGradient id="t" x1="71.093" x2="71.093" y1="-8.114" y2="3.057" gradientTransform="rotate(4.98 -224.04 -266.975)" gradientUnits="userSpaceOnUse"><stop stop-color="#646464" offset="0"/><stop stop-color="#262626" offset=".995"/></linearGradient><path d="M45.93 27.8c.11 1.66-2.8 5.42-2.88 5.65-.16.38 1.43.44 1.78.08s3.57-3.53 5.64-7.49c.93-1.78 3.03-6.51 3.03-6.51l-2.93-1.43s-.86 8.22-2.93 8.19c-2.08-.03-2.04-7.99-2.04-7.99l-4.67 1.94s4.94 6.53 5 7.56z" fill="url(#t)"/><radialGradient id="u" cx="34.001" cy="13.451" r="20.983" gradientUnits="userSpaceOnUse"><stop stop-color="#81D4FA" offset="0"/><stop stop-color="#5EB3E7" offset=".36"/><stop stop-color="#3C92D3" offset=".775"/><stop stop-color="#2F85CC" offset="1"/></radialGradient><path d="M53.64 22.41c-.92 0-1.91-.71-2.7-1.96-1.05-1.64-2.13-2.43-3.32-2.43-.17 0-.34.02-.49.04-.86.15-1.31.59-1.83 1.09-.26.25-.55.54-.95.84-.78.6-1.45.89-2.06.89-.63 0-1.19-.3-1.83-.76-.04-.03-.09-.07-.15-.12-.52-.42-1.74-1.4-3.36-1.4-.12 0-.24.01-.37.02-.46.04-1.25.32-2.5.77-.79.28-1.6.57-2.04.67-.2.04-.36.06-.51.06-.33 0-.59-.11-.8-.34-.48-.52-.69-1.72-.56-3.2.14-1.54.66-3.22 1.55-5.01 1.85-3.7 6.23-5.85 7.62-6.32 1.52-.51 3.1-.76 4.71-.76 3.54 0 6.83 1.24 9.25 3.48 2.75 2.55 3.34 5.55 3.36 7.62.02 3.15-1.24 5.74-1.89 6.36-.31.31-.7.46-1.13.46z" fill="url(#u)"/><path d="M44.06 4.99c3.42 0 6.58 1.19 8.9 3.35 2.62 2.43 3.18 5.29 3.2 7.26.02 3.07-1.22 5.5-1.74 6-.21.2-.48.31-.78.31-.75 0-1.58-.63-2.28-1.73-1.15-1.79-2.37-2.66-3.74-2.66-.19 0-.38.02-.57.05-1.01.18-1.54.69-2.09 1.23-.26.25-.53.52-.91.8-.69.53-1.26.79-1.75.79-.5 0-.98-.27-1.54-.67-.03-.02-.08-.06-.13-.1-.56-.45-1.88-1.51-3.67-1.51-.13 0-.27.01-.41.02-.52.05-1.34.33-2.62.79-.77.28-1.57.56-1.98.65-.16.04-.3.05-.41.05-.2 0-.32-.05-.43-.18-.38-.41-.54-1.51-.43-2.82.13-1.48.64-3.1 1.5-4.83 1.81-3.61 6.24-5.7 7.33-6.07 1.46-.48 2.99-.73 4.55-.73m0-1c-1.64 0-3.3.26-4.87.79-1.44.48-5.97 2.71-7.91 6.57-.81 1.62-1.45 3.39-1.61 5.19-.09.98-.1 2.73.69 3.59.35.38.77.5 1.17.5.21 0 .42-.03.62-.07 1.05-.23 3.7-1.35 4.49-1.43.11-.01.21-.01.32-.01 1.66 0 2.89 1.19 3.22 1.43.67.48 1.34.86 2.12.86.67 0 1.43-.27 2.36-.99 1.21-.93 1.48-1.65 2.56-1.84.12-.02.26-.04.4-.04.73 0 1.73.38 2.9 2.2.99 1.54 2.14 2.19 3.12 2.19.57 0 1.08-.21 1.47-.59 1.49-1.42 4.39-9.27-1.47-14.71-2.6-2.44-6.08-3.64-9.58-3.64z" fill="#007EB5"/></g><g clip-path="url(#e)"><radialGradient id="v" cx="32.935" cy="56.546" r="2.339" gradientUnits="userSpaceOnUse"><stop stop-color="#78909C" offset="0"/><stop stop-color="#617A86" offset=".562"/><stop stop-color="#546E7A" offset="1"/></radialGradient><path d="M32.94 58.89c-1.29 0-2.34-1.05-2.34-2.34s1.05-2.34 2.34-2.34 2.34 1.05 2.34 2.34a2.35 2.35 0 0 1-2.34 2.34z" clip-rule="evenodd" fill="url(#v)" fill-rule="evenodd"/><path d="M32.94 54.71c1.01 0 1.84.83 1.84 1.84s-.82 1.84-1.84 1.84c-1.01 0-1.84-.83-1.84-1.84 0-1.02.82-1.84 1.84-1.84m0-1c-1.57 0-2.84 1.27-2.84 2.84s1.27 2.84 2.84 2.84 2.84-1.27 2.84-2.84-1.28-2.84-2.84-2.84z" fill="#405966"/></g><path d="M11.95 127.5c-.52-1.75-.93-3.74-.8-4.23.67-.39 1.6-1.21 2.58-2.08.92-.82 1.88-1.66 2.46-1.98l.55-.31c1.24-.7 2.53-1.42 3.88-1.42.16 0 .32.01.49.03.91.12 1.86.46 2.78.78.53.19 1.06.37 1.58.52s1.04.3 1.57.46c1.14.35 2.33.7 3.52.95.39.08.81.12 1.25.12 1.63 0 3.36-.53 4.89-1 .38-.12.75-.23 1.1-.33.67-.19 1.33-.39 2-.59 1.91-.58 3.89-1.17 5.89-1.45.19-.03.37-.04.55-.04.8 0 1.48.25 2.27.55.31.12.63.24.98.35 1.52.49 3.08.86 4.58 1.21.98.23 1.97.46 2.94.73 1.23.33 2.43.49 3.68.49 2.53 0 4.95-.7 7-1.39l.41-.14c1.11-.37 2.36-.79 3.37-.98.26-.05.54-.07.84-.07 1.18 0 2.45.38 3.69.75.51.15 1.01.3 1.49.42 1.52.37 2.96.63 4.4.78.34.04.68.09 1.02.15.45.08.92.16 1.39.19.08 0 .15.01.23.01.67 0 1.27-.2 1.84-.38l.3-.1c1.73-.55 3.4-1.32 5.02-2.07l1.03-.47c.39-.18.73-.26 1.07-.26.56 0 1.1.23 1.75.53.91.42 1.86.75 2.78 1.06.48.17.97.33 1.45.51.41.15.82.34 1.23.54.88.41 1.8.83 2.79.96.13.02.26.03.39.03.89 0 1.67-.39 2.42-.78.44-.22.86-.44 1.27-.55.24-.07.48-.1.73-.1 1.04 0 2.07.6 3.03 1.22.48.3.98.56 1.47.81.72.37 1.41.72 2 1.2 1.26 1.04 2.16 3.9 1.82 5.05-.08.25-.18.29-.24.3H11.95z" fill="#6D4C41"/><path d="M93.76 117.22c.41 0 .84.16 1.54.49.93.43 1.9.76 2.83 1.08.48.16.96.33 1.43.51.39.15.78.33 1.2.52.92.42 1.87.86 2.93 1 .15.02.31.03.46.03 1.01 0 1.88-.44 2.65-.83.42-.21.81-.41 1.18-.52.19-.06.39-.08.59-.08.91 0 1.86.56 2.77 1.14.5.32 1.01.58 1.51.83.7.36 1.36.69 1.91 1.14 1.2.99 1.9 3.69 1.68 4.47H12.32c-.41-1.44-.69-2.85-.7-3.44.69-.45 1.54-1.2 2.43-1.99.86-.76 1.84-1.63 2.36-1.92.18-.1.37-.2.55-.31 1.19-.67 2.42-1.36 3.63-1.36.14 0 .28.01.42.03.86.11 1.75.43 2.68.75.53.18 1.07.37 1.61.53.52.15 1.03.3 1.55.46 1.16.35 2.35.71 3.57.96.42.09.88.13 1.35.13 1.7 0 3.47-.54 5.04-1.02.38-.11.74-.23 1.08-.32.67-.19 1.34-.39 2.01-.59 1.98-.6 3.85-1.16 5.81-1.43.16-.02.32-.03.48-.03.71 0 1.32.23 2.09.52.32.12.65.24 1 .36 1.54.5 3.11.87 4.62 1.22.96.23 1.96.46 2.92.72 1.27.34 2.51.51 3.81.51 2.6 0 5.08-.71 7.16-1.41l.4-.13c1.09-.37 2.34-.79 3.32-.97.23-.04.48-.06.75-.06 1.11 0 2.35.37 3.54.73.5.15 1.02.3 1.51.43 1.54.38 3 .64 4.47.79.32.03.64.09.98.15.46.08.94.16 1.44.19.09.01.18.01.26.01.75 0 1.38-.21 1.99-.41l.3-.1c1.75-.56 3.43-1.33 5.06-2.08.35-.16.7-.32 1.04-.48.37-.16.65-.22.91-.22m0-1c-.39 0-.8.09-1.28.3-1.97.89-3.93 1.86-5.99 2.52-.67.21-1.29.46-1.99.46-.06 0-.13 0-.2-.01-.81-.05-1.59-.25-2.39-.34-1.47-.15-2.88-.41-4.34-.77-1.64-.4-3.54-1.18-5.29-1.18-.32 0-.63.03-.93.08-1.18.22-2.62.72-3.85 1.14-2.37.8-4.57 1.36-6.84 1.36-1.15 0-2.32-.14-3.55-.48-2.5-.68-5.03-1.14-7.5-1.93-1.24-.4-2.17-.92-3.4-.92-.2 0-.4.01-.62.04-2.73.37-5.33 1.31-7.96 2.05-1.74.49-3.9 1.3-5.85 1.3-.4 0-.78-.03-1.15-.11-1.7-.35-3.37-.93-5.05-1.4-1.45-.41-2.95-1.11-4.43-1.31-.19-.03-.37-.04-.55-.04-1.69 0-3.23 1-4.67 1.79-1.26.69-3.86 3.42-5.11 4.1-.71.39.75 5.12.75 5.12H116.7c1.62-.17.48-4.78-1.3-6.24-1.05-.86-2.37-1.32-3.52-2.04-1.02-.65-2.12-1.3-3.3-1.3-.28 0-.57.04-.87.12-1.18.34-2.29 1.31-3.56 1.31-.11 0-.21-.01-.32-.02-1.37-.18-2.64-.99-3.91-1.47-1.4-.53-2.85-.93-4.2-1.56-.71-.33-1.31-.57-1.96-.57z" fill="#593A2F"/></g></svg>