<svg viewBox="0 0 128 128" width="128" height="128" xmlns="http://www.w3.org/2000/svg" xmlns:xlink="http://www.w3.org/1999/xlink"><linearGradient id="a" x1="64" x2="64" y1="19.717" y2="107.7" gradientUnits="userSpaceOnUse"><stop stop-color="#F6A323" offset=".566"/><stop stop-color="#FEE133" offset=".917"/></linearGradient><path d="M64 119.89C36.07 119.89 6 102.4 6 64S36.07 8.11 64 8.11c15.48 0 29.81 5.12 40.36 14.43C115.9 32.72 122 47.06 122 64c0 16.86-6.1 31.17-17.64 41.39-10.58 9.35-24.91 14.5-40.36 14.5z" fill="url(#a)"/><path d="M64 10.11c14.99 0 28.86 4.95 39.03 13.93C114.13 33.83 120 47.65 120 64c0 16.27-5.87 30.07-16.97 39.89-10.21 9.03-24.07 14-39.03 14-15.04 0-28.9-4.91-39.04-13.82C13.86 94.32 8 80.46 8 64c0-16.54 5.86-30.42 16.96-40.15C35.07 14.99 48.93 10.11 64 10.11m0-4c-31.15 0-60 20-60 57.89 0 37.68 28.85 57.89 60 57.89s60-20.73 60-57.89c0-37.37-28.85-57.89-60-57.89z" fill="#EB8F00"/><defs><path id="b" d="M64 62.72c-14.91 0-31.09 15.05-31.09 33.62 0 5.19 4.94 8.21 9.35 6.1 5.45-2.61 13.48-5.22 21.75-5.22s16.3 2.62 21.75 5.22c4.41 2.11 9.35-.91 9.35-6.1C95.09 77.77 77.78 62.72 64 62.72z"/></defs><clipPath id="c"><use xlink:href="#b"/></clipPath><path d="M64.35 62.72C49.44 62.46 33 77.23 32.68 95.8c-.09 5.19 4.8 8.3 9.24 6.26 5.49-2.51 13.57-4.99 21.83-4.84s16.25 2.9 21.65 5.6c4.37 2.19 9.36-.75 9.45-5.94.33-18.57-16.72-33.91-30.5-34.16z" clip-path="url(#c)" fill="#242424"/><path d="M64 75.66c10.93 0 21.07 1.71 29.07 4.84V50.13H34.93V80.5c8-3.12 18.14-4.84 29.07-4.84z" clip-path="url(#c)" fill="#fff"/><g clip-path="url(#c)"><defs><path id="d" d="M64 75.66c10.93 0 21.07 1.71 29.07 4.84V50.13H34.93V80.5c8-3.12 18.14-4.84 29.07-4.84z"/></defs><clipPath id="e"><use xlink:href="#d"/></clipPath><g clip-path="url(#e)"><path d="M64 66.93c5.66 0 12.45 3.3 17.73 8.6 5.9 5.93 9.15 13.32 9.15 20.81 0 1.77-1.15 2.57-2.22 2.57-.36 0-.73-.09-1.1-.27C84.02 96.94 74.63 93 64 93s-20.02 3.94-23.56 5.64c-.37.18-.74.27-1.1.27-1.07 0-2.22-.8-2.22-2.57 0-16.56 14.45-29.41 26.88-29.41m0-4.21c-14.91 0-31.09 15.05-31.09 33.62 0 4.05 3.01 6.78 6.43 6.78a6.8 6.8 0 0 0 2.92-.68c5.45-2.61 13.48-5.22 21.75-5.22s16.3 2.62 21.75 5.22a6.8 6.8 0 0 0 2.92.68c3.42 0 6.43-2.73 6.43-6.78C95.09 77.77 77.78 62.72 64 62.72z" fill="#EB8F00"/></g></g><path d="M51.1 23.05s-.01.28-.05.77c-.02.13-.01.24-.05.42-.03.18-.09.37-.14.58s-.11.43-.17.67c-.07.22-.16.43-.24.66-.16.47-.39.95-.66 1.44-.26.5-.59.99-.95 1.49-.39.47-.77.99-1.24 1.42-.45.47-.96.87-1.47 1.29-.55.36-1.08.74-1.65 1.04-.55.33-1.16.55-1.72.79-.58.2-1.15.38-1.7.49-.55.12-1.08.2-1.57.23-.49.06-.94.05-1.34.02-.4-.01-.74-.05-1.03-.1-.57-.1-.88-.18-.88-.18-.95-.24-1.54-1.2-1.3-2.15.15-.62.62-1.09 1.19-1.27l.3-.09s.24-.07.64-.17c.2-.04.44-.12.71-.2.27-.07.57-.17.89-.29.32-.1.66-.26 1.02-.4.36-.13.71-.35 1.09-.52.37-.21.75-.41 1.12-.65.39-.21.73-.5 1.1-.75.35-.28.72-.53 1.03-.84.33-.29.64-.59.94-.88.26-.32.58-.6.81-.9.24-.3.48-.58.67-.86.21-.29.38-.52.51-.72.07-.1.14-.2.21-.29.07-.1.13-.24.19-.34.23-.43.38-.68.38-.68.52-.86 1.64-1.14 2.5-.62.56.33.88.96.86 1.59zM80.28 22.06s.15.24.38.68c.06.1.12.25.19.34s.14.19.21.29c.13.2.3.43.51.72.19.28.43.56.67.86.23.31.54.58.81.9.3.29.61.6.94.88.31.31.68.56 1.03.84.37.25.72.54 1.1.75.37.24.75.45 1.12.65.38.16.74.38 1.09.52.36.14.69.3 1.02.4.32.12.62.22.89.29.27.08.51.16.71.2.4.1.64.17.64.17l.29.09c.94.29 1.46 1.29 1.16 2.23a1.77 1.77 0 0 1-1.27 1.19s-.31.08-.88.18c-.28.06-.63.09-1.03.1-.4.03-.85.04-1.34-.02-.5-.02-1.02-.1-1.57-.23-.56-.1-1.12-.29-1.7-.49-.56-.24-1.17-.45-1.72-.79-.57-.3-1.11-.68-1.65-1.04-.5-.42-1.02-.82-1.47-1.29-.48-.43-.85-.95-1.24-1.42-.36-.5-.7-.99-.95-1.49-.27-.49-.5-.97-.66-1.44-.09-.23-.18-.44-.24-.66-.06-.23-.12-.46-.17-.67s-.1-.4-.14-.58c-.03-.17-.03-.29-.05-.42-.04-.49-.05-.77-.05-.77-.03-1.01.77-1.84 1.77-1.87.67 0 1.27.36 1.6.9z" fill="#6D4C41"/><path d="M32.19 55.8l12.17-2.36-12.55-5.21c-.14-.07-.28-.15-.42-.23-2.61-1.6-3.06-4.89-.72-6.93 1.81-1.58 4.76-1.6 6.88-.3 4.98 3.05 16.7 10.24 21.27 13.04.82.5.7 1.58-.22 1.93l-22.91 8.6c-.15.06-.32.11-.48.16-3.03.84-6.32-.89-6.79-3.78-.35-2.2 1.35-4.25 3.77-4.92zM95.81 55.55l-12.17-2.36 12.55-5.21c.14-.07.28-.15.42-.23 2.61-1.6 3.06-4.89.72-6.93-1.81-1.58-4.76-1.6-6.88-.3-4.98 3.05-16.7 10.24-21.27 13.04-.82.5-.7 1.58.22 1.93l22.91 8.6c.15.06.32.11.48.16 3.03.84 6.32-.89 6.79-3.78.35-2.2-1.35-4.25-3.77-4.92z" fill="#242424"/></svg>