<svg xmlns="http://www.w3.org/2000/svg" viewBox="0 0 128 128" width="128" height="128"><linearGradient id="a" gradientUnits="userSpaceOnUse" x1="108.54" y1="122.883" x2="108.54" y2="76.558"><stop offset=".356" stop-color="#bfbebe"/><stop offset="1" stop-color="#504f4f"/></linearGradient><path d="M112.51 124h-7.94c-1.66 0-3-1.34-3-3V77.27h13.94V121c0 1.66-1.34 3-3 3z" fill="url(#a)"/><linearGradient id="b" gradientUnits="userSpaceOnUse" x1="20.27" y1="122.883" x2="20.27" y2="76.558"><stop offset=".356" stop-color="#bfbebe"/><stop offset="1" stop-color="#504f4f"/></linearGradient><path d="M24.24 124H16.3c-1.66 0-3-1.34-3-3V77.27h13.94V121c0 1.66-1.34 3-3 3z" fill="url(#b)"/><linearGradient id="c" gradientUnits="userSpaceOnUse" x1="64" y1="88.808" x2="64" y2="46.98" gradientTransform="matrix(1 0 0 -1 0 128)"><stop offset=".026" stop-color="#ffee58"/><stop offset=".487" stop-color="#fdd642"/><stop offset="1" stop-color="#fbc02d"/></linearGradient><path d="M120 82.17H8c-2.21 0-4-1.79-4-4V44.63c0-2.21 1.79-4 4-4h112c2.21 0 4 1.79 4 4v33.54c0 2.21-1.79 4-4 4z" fill="url(#c)"/><radialGradient id="d" cx="20.35" cy="31.4" r="9.04" gradientUnits="userSpaceOnUse"><stop offset=".571" stop-color="#f44336"/><stop offset=".999" stop-color="#e12400"/></radialGradient><circle cx="20.35" cy="31.4" r="9.04" fill="url(#d)"/><radialGradient id="e" cx="108.54" cy="31.4" r="9.04" gradientUnits="userSpaceOnUse"><stop offset=".571" stop-color="#f44336"/><stop offset=".999" stop-color="#e12400"/></radialGradient><circle cx="108.54" cy="31.4" r="9.04" fill="url(#e)"/><path d="M12.1 40.63L4 54.66V44.63c0-2.21 1.79-4 4-4h4.1zM48.54 40.63L24.55 82.17H8c-.45 0-.88-.08-1.29-.22l23.86-41.32h17.97zM84.98 40.63L60.99 82.17H43.02l23.99-41.54zM121.29 40.85L97.43 82.17H79.46l23.99-41.54H120c.45 0 .88.08 1.29.22zM124 68.14v10.03c0 2.21-1.79 4-4 4h-4.1l8.1-14.03z"/><linearGradient id="f" gradientUnits="userSpaceOnUse" x1="4" y1="61.4" x2="124" y2="61.4"><stop offset=".001" stop-color="#bfbebe"/><stop offset=".05" stop-color="#212121" stop-opacity="0"/><stop offset=".95" stop-color="#212121" stop-opacity="0"/><stop offset="1" stop-color="#bfbebe"/></linearGradient><path d="M124 44.63v33.54c0 2.21-1.79 4-4 4H8c-.45 0-.88-.08-1.29-.22A3.979 3.979 0 014 78.17V44.63c0-2.21 1.79-4 4-4h112c.45 0 .88.08 1.29.22 1.58.53 2.71 2.02 2.71 3.78z" opacity=".2" fill="url(#f)"/><linearGradient id="g" gradientUnits="userSpaceOnUse" x1="64" y1="41.995" x2="64" y2="81.428" gradientTransform="matrix(1 0 0 -1 0 122.8)"><stop offset=".001" stop-color="#bfbebe"/><stop offset=".3" stop-color="#212121" stop-opacity="0"/><stop offset=".85" stop-color="#212121" stop-opacity="0"/><stop offset="1" stop-color="#bfbebe"/></linearGradient><path d="M124 78.17V44.63c0-2.21-1.79-4-4-4H8c-.45 0-.88.08-1.29.22A3.979 3.979 0 004 44.63v33.54c0 2.21 1.79 4 4 4h112c.45 0 .88-.08 1.29-.22a3.979 3.979 0 002.71-3.78z" opacity=".3" fill="url(#g)"/></svg>