<svg xmlns="http://www.w3.org/2000/svg" viewBox="0 0 128 128" width="128" height="128"><path d="M120.8 104.2H20c-39.6 0 17.2-76.1 60.1-76.1 39.5 0 40.8 16.2 40.8 16.2l-.1 59.9z" fill="#504f4f"/><path d="M36.2 58.5L21.8 69.8c-.6.4-1.8.2-1.5-.9.4-1.8 2.4-5.1 6-8.1 4.7-4 8.6-3.7 9.4-3.7.7 0 1.1.9.5 1.4z" fill="#ffeb3b"/><linearGradient id="a" gradientUnits="userSpaceOnUse" x1="4.739" y1="15.25" x2="124" y2="15.25" gradientTransform="matrix(1 0 0 -1 0 128)"><stop offset="0" stop-color="#616161"/><stop offset="1" stop-color="#323232"/></linearGradient><path d="M124 101.7l-110-.1c-1.4 1.4-17.6 22.3-3.6 22.3H124v-22.2z" fill="url(#a)"/><linearGradient id="b" gradientUnits="userSpaceOnUse" x1="6.867" y1="66.144" x2="121.298" y2="66.144"><stop offset="0" stop-color="#fff"/><stop offset=".991" stop-color="#bdbdbd"/></linearGradient><path d="M124 104.5l-104.9-.2c-2.8 0-5.7-.5-8.2-1.8C-20.2 87.9 74 26.8 100 27.8h24v76.7z" fill="url(#b)"/><radialGradient id="c" cx="105.486" cy="123.945" r="131.977" gradientUnits="userSpaceOnUse"><stop offset=".484" stop-color="#fff" stop-opacity="0"/><stop offset=".991" stop-color="#595858"/></radialGradient><path d="M124 104.5l-104.9-.2c-2.8 0-5.7-.5-8.2-1.8C-20.2 87.9 74 26.8 100 27.8h24v76.7z" fill="url(#c)"/><linearGradient id="d" gradientUnits="userSpaceOnUse" x1="43.5" y1="39.502" x2="124" y2="39.502" gradientTransform="matrix(1 0 0 -1 0 128)"><stop offset="0" stop-color="#0288d1"/><stop offset="1" stop-color="#025ca0"/></linearGradient><path d="M124 72.4c-6 0-16.5.1-24.1 0-29.5-.4-56.4 32-56.4 32l80.4.2.1-32.2z" fill="url(#d)"/></svg>