<svg viewBox="0 0 128 128" width="128" height="128" xmlns="http://www.w3.org/2000/svg"><linearGradient id="a" x1="64" x2="64" y1="969.72" y2="1057.7" gradientTransform="translate(0 -950)" gradientUnits="userSpaceOnUse"><stop stop-color="#FEE133" offset=".5"/><stop stop-color="#FEDE32" offset=".612"/><stop stop-color="#FCD32F" offset=".708"/><stop stop-color="#FAC12B" offset=".797"/><stop stop-color="#F7A924" offset=".883"/><stop stop-color="#F6A323" offset=".9"/></linearGradient><path d="M64 119.9c-27.9 0-58-17.5-58-55.9S36.1 8.1 64 8.1c15.5 0 29.8 5.1 40.4 14.4C115.9 32.7 122 47.1 122 64s-6.1 31.2-17.6 41.4c-10.6 9.3-25 14.5-40.4 14.5z" fill="url(#a)"/><path d="M64 10.1c15 0 28.9 4.9 39 13.9 11.1 9.8 17 23.6 17 40 0 16.3-5.9 30.1-17 39.9-10.2 9-24.1 14-39 14-15 0-28.9-4.9-39-13.8C13.9 94.3 8 80.5 8 64s5.9-30.4 17-40.2C35.1 15 48.9 10.1 64 10.1m0-4C32.8 6.1 4 26.1 4 64c0 37.7 28.8 57.9 60 57.9s60-20.7 60-57.9c0-37.4-28.8-57.9-60-57.9z" fill="#EB8F00"/><radialGradient id="b" cx="63.91" cy="1094.1" r="19.444" gradientTransform="matrix(.9791 0 0 .9301 -35.324 -939.46)" gradientUnits="userSpaceOnUse"><stop stop-color="#ED7770" offset="0"/><stop stop-color="#ED7770" stop-opacity="0" offset=".9"/></radialGradient><circle cx="27.2" cy="78.2" r="17.5" fill="url(#b)" opacity=".8"/><radialGradient id="c" cx="138.98" cy="1094.1" r="19.444" gradientTransform="matrix(.9791 0 0 .9301 -35.324 -939.46)" gradientUnits="userSpaceOnUse"><stop stop-color="#ED7770" offset="0"/><stop stop-color="#ED7770" stop-opacity="0" offset=".9"/></radialGradient><circle cx="100.8" cy="78.2" r="17.5" fill="url(#c)" opacity=".8"/><circle cx="89.2" cy="59.2" r="21.4" fill="#fff"/><path d="M89.2 41.8c9.6 0 17.4 7.8 17.4 17.4s-7.8 17.4-17.4 17.4-17.4-7.8-17.4-17.4 7.9-17.4 17.4-17.4m0-4c-11.8 0-21.4 9.6-21.4 21.4s9.6 21.4 21.4 21.4 21.4-9.6 21.4-21.4-9.5-21.4-21.4-21.4z" fill="#EB8F00"/><ellipse cx="89.2" cy="59.2" rx="7.5" ry="7.6" fill="#242424"/><circle cx="38.7" cy="59.1" r="21.4" fill="#fff"/><path d="M38.7 41.7c9.6 0 17.4 7.8 17.4 17.4s-7.8 17.4-17.4 17.4-17.4-7.8-17.4-17.4 7.9-17.4 17.4-17.4m0-4c-11.8 0-21.4 9.6-21.4 21.4s9.6 21.4 21.4 21.4 21.4-9.6 21.4-21.4-9.6-21.4-21.4-21.4z" fill="#EB8F00"/><ellipse cx="38.7" cy="59.1" rx="7.5" ry="7.6" fill="#242424"/><path d="M62.7 81.1c-12.7 0-24.5-1.1-34.4-2.9-2.5-.4-4.6 1.7-4.1 4.1 3.3 16 19.1 29.2 38.5 29.2 21.3 0 35.6-13.6 38.5-29.3.5-2.4-1.7-4.5-4.1-4.1-9.9 1.9-21.7 2.9-34.4 3z" fill="none"/><path d="M62.7 81.1c-12.7 0-24.5-1.1-34.4-2.9-2.5-.4-4.6 1.7-4.1 4.1 3.3 16 19.1 29.2 38.5 29.2 21.3 0 35.6-13.6 38.5-29.3.5-2.4-1.7-4.5-4.1-4.1-9.9 1.9-21.7 2.9-34.4 3z" fill="none"/><path d="M46.56 27.27l.1.02c2.14.54 3.52-2.38 1.26-3.45-1.7-.78-3.64-1.29-5.63-1.5-5.56-.68-10.89 1-14.8 3.92-1.96 1.51.06 4.06 2.04 3.06 5.04-2.44 11.17-3.39 17.03-2.05zM80.86 27.27l-.1.02c-2.14.54-3.52-2.38-1.26-3.45 1.7-.78 3.64-1.29 5.63-1.5 5.56-.68 10.89 1 14.8 3.92 1.96 1.51-.06 4.06-2.04 3.06-5.05-2.44-11.17-3.39-17.03-2.05z" fill="#EB8F00" stroke="#EB8F00" stroke-miterlimit="10"/><path fill="none" stroke="#242424" stroke-linecap="round" stroke-linejoin="round" stroke-miterlimit="10" stroke-width="8" d="M56 96h15"/></svg>