<svg viewBox="0 0 128 128" width="128" height="128" xmlns="http://www.w3.org/2000/svg"><linearGradient id="a" x1="64" x2="64" y1="19.717" y2="107.7" gradientUnits="userSpaceOnUse"><stop stop-color="#F6A323" offset=".566"/><stop stop-color="#FEE133" offset=".917"/></linearGradient><path d="M64 119.89C36.07 119.89 6 102.4 6 64S36.07 8.11 64 8.11c15.48 0 29.81 5.12 40.36 14.43C115.9 32.72 122 47.06 122 64c0 16.86-6.1 31.17-17.64 41.39-10.58 9.35-24.91 14.5-40.36 14.5z" fill="url(#a)"/><path d="M64 10.11c14.99 0 28.86 4.95 39.03 13.93C114.13 33.83 120 47.65 120 64c0 16.27-5.87 30.07-16.97 39.89-10.21 9.03-24.07 14-39.03 14-15.04 0-28.9-4.91-39.04-13.82C13.86 94.32 8 80.46 8 64c0-16.54 5.86-30.42 16.96-40.15C35.07 14.99 48.93 10.11 64 10.11m0-4c-31.15 0-60 20-60 57.89 0 37.68 28.85 57.89 60 57.89s60-20.73 60-57.89c0-37.37-28.85-57.89-60-57.89z" fill="#EB8F00"/><path d="M64 84.3c10.54 0 18.06 8.82 20.32 12.9.87 1.58 1.05 3.29.46 4.58-.44.97-1.25 1.53-2.21 1.53-.32 0-.66-.06-.99-.19-5.31-1.97-11.4-6.51-17.61-6.51-6.17 0-12.24 4.54-17.53 6.51-.34.13-.67.19-1 .19-.96 0-1.77-.56-2.21-1.53-.59-1.29-.42-3 .46-4.58 2.25-4.08 9.77-12.9 20.31-12.9z" fill="#242424"/><g fill="#242424"><path d="M49.61 64.03l-.2.2c-.11.11-.36.39-.51.5-.19.16-.42.35-.69.57-.29.22-.62.46-.98.71-.37.23-.77.47-1.2.68-.42.23-.9.39-1.37.57-.48.17-.99.26-1.5.37-.51.08-1.04.12-1.57.12h.14H41.42l-.31-.01c-.26 0-.3-.02-.4-.03-.16 0-.45-.05-.7-.09-.51-.11-1.02-.2-1.5-.37-.47-.18-.95-.34-1.38-.57-.43-.22-.83-.45-1.2-.68-.72-.48-1.31-.96-1.7-1.32-.4-.36-.63-.58-.63-.58l-.25-.25c-1.21-1.17-3.25-1.24-4.57-.17-1.04.85-1.3 2.16-.78 3.25l.15.3c.1.19.22.49.44.84.41.71 1.09 1.71 2.17 2.76.54.52 1.17 1.07 1.91 1.57.73.52 1.58.99 2.52 1.4.94.4 1.96.75 3.04.97.55.1 1.06.2 1.73.26.31.03.68.06.84.07l.77.03a19.5 19.5 0 0 0 3.34-.35c1.08-.22 2.1-.57 3.04-.97.93-.41 1.79-.88 2.52-1.4.75-.5 1.37-1.04 1.92-1.57.54-.52.97-1.04 1.33-1.51.17-.24.33-.46.48-.67.14-.23.28-.44.4-.63.27-.42.29-.58.39-.77l.11-.25c.67-1.49-.14-3.18-1.81-3.78-1.32-.46-2.79-.1-3.68.8zM94.51 64.03l-.2.2c-.11.11-.36.39-.51.5-.19.16-.42.35-.69.57-.29.22-.62.46-.98.71-.37.23-.77.47-1.2.68-.42.23-.9.39-1.38.57-.48.17-.99.26-1.5.37-.51.08-1.04.12-1.57.12h.14H86.31l-.31-.01c-.26 0-.3-.02-.4-.03-.16 0-.45-.05-.7-.09-.51-.11-1.02-.2-1.5-.37-.47-.18-.95-.34-1.37-.57-.43-.22-.83-.45-1.2-.68-.72-.48-1.31-.96-1.7-1.32-.4-.36-.63-.58-.63-.58l-.25-.25c-1.21-1.17-3.25-1.24-4.57-.17-1.04.85-1.3 2.16-.78 3.25l.15.3c.1.19.22.49.44.84.41.71 1.09 1.71 2.17 2.76.54.52 1.17 1.07 1.92 1.57.73.52 1.58.99 2.52 1.4.94.4 1.96.75 3.04.97.55.1 1.06.2 1.73.26.31.03.68.06.84.07l.77.03a19.5 19.5 0 0 0 3.34-.35c1.08-.22 2.1-.57 3.04-.97.93-.41 1.79-.88 2.52-1.4.75-.5 1.37-1.04 1.91-1.57.54-.52.97-1.04 1.33-1.51.17-.24.33-.46.48-.67.14-.23.28-.44.39-.63.27-.42.29-.58.39-.77l.11-.25c.67-1.49-.14-3.18-1.81-3.78-1.31-.46-2.78-.1-3.67.8z"/></g><path d="M31.62 57.92c-7.68 0-13.63-7.49-13.63-13.94 0-4.39 1.92-9.36 4.57-16.24.38-.99.78-2.02 1.18-3.08 2.28-5.99 5.67-12.49 7.76-16.29 1.82 3.74 4.85 10.05 7.67 16.39 4.72 10.58 6.08 14.89 6.08 19.22 0 6.45-5.96 13.94-13.63 13.94z" fill="#5F7AFF"/><path d="M31.4 12.78c1.72 3.59 3.88 8.19 5.94 12.8 4.58 10.28 5.91 14.41 5.91 18.4 0 5.41-5.19 11.94-11.63 11.94s-11.63-6.53-11.63-11.94c0-4.02 1.86-8.84 4.43-15.52.38-.99.78-2.02 1.19-3.09 1.65-4.34 3.9-8.96 5.79-12.59m.22-8.7s-6.17 10.46-9.75 19.86c-3.27 8.58-5.88 14.6-5.88 20.03 0 7.76 7 15.94 15.63 15.94s15.63-8.18 15.63-15.94c0-4.88-1.58-9.55-6.25-20.03-4.47-10.02-9.38-19.86-9.38-19.86z" fill="#4864ED"/></svg>