<svg viewBox="0 0 128 128" width="128" height="128" xmlns="http://www.w3.org/2000/svg"><linearGradient id="a" x1="64" x2="64" y1="19.717" y2="107.7" gradientUnits="userSpaceOnUse"><stop stop-color="#FEE133" offset=".5"/><stop stop-color="#FEDE32" offset=".612"/><stop stop-color="#FCD32F" offset=".708"/><stop stop-color="#FAC12B" offset=".797"/><stop stop-color="#F7A924" offset=".883"/><stop stop-color="#F6A323" offset=".9"/></linearGradient><path d="M64 119.89C36.07 119.89 6 102.4 6 64S36.07 8.11 64 8.11c15.48 0 29.81 5.12 40.36 14.43C115.9 32.72 122 47.06 122 64c0 16.86-6.1 31.17-17.64 41.39-10.58 9.35-24.91 14.5-40.36 14.5z" fill="url(#a)"/><path d="M64 10.11c14.99 0 28.86 4.95 39.03 13.93C114.13 33.83 120 47.65 120 64c0 16.27-5.87 30.07-16.97 39.89-10.21 9.03-24.07 14-39.03 14-15.04 0-28.9-4.91-39.04-13.82C13.86 94.32 8 80.46 8 64c0-16.54 5.86-30.42 16.96-40.15C35.07 14.99 48.93 10.11 64 10.11m0-4c-31.15 0-60 20-60 57.89 0 37.68 28.85 57.89 60 57.89s60-20.73 60-57.89c0-37.37-28.85-57.89-60-57.89z" fill="#EB8F00"/><path d="M62.42 76.54c11.49-2.26 20.86 2.1 24.07 5.37 1.24 1.27 1.73 2.8 1.33 4.11-.31.99-1.08 1.68-2.13 1.88-.35.07-.73.08-1.12.04-6.15-.68-12.98-.33-19.75 1-6.73 1.32-13.16 3.58-18.58 6.53-.35.19-.7.32-1.05.39-1.05.21-2.03-.14-2.69-.94-.87-1.06-.99-2.67-.33-4.31 1.73-4.24 8.75-11.81 20.25-14.07zM82.74 43.19c4.19 0 8 3.54 8 9.42s-3.81 9.42-8 9.42-8-3.54-8-9.42 3.81-9.42 8-9.42zM45.2 43.19c-4.19 0-8 3.54-8 9.42s3.81 9.42 8 9.42 8-3.54 8-9.42-3.81-9.42-8-9.42z" fill="#242424"/></svg>