<svg viewBox="0 0 128 128" width="128" height="128" xmlns="http://www.w3.org/2000/svg"><linearGradient id="a" x1="63.992" x2="63.992" y1="19.717" y2="107.7" gradientUnits="userSpaceOnUse"><stop stop-color="#FEE133" offset=".5"/><stop stop-color="#FEDE32" offset=".612"/><stop stop-color="#FCD32F" offset=".708"/><stop stop-color="#FAC12B" offset=".797"/><stop stop-color="#F7A924" offset=".883"/><stop stop-color="#F6A323" offset=".9"/></linearGradient><path d="M63.99 119.89c-27.93 0-58-17.49-58-55.89s30.07-55.89 58-55.89c15.48 0 29.81 5.12 40.36 14.43 11.54 10.19 17.64 24.52 17.64 41.46 0 16.86-6.1 31.17-17.64 41.39-10.57 9.35-24.91 14.5-40.36 14.5z" fill="url(#a)"/><path d="M63.99 10.11c14.99 0 28.86 4.95 39.03 13.93 11.1 9.8 16.97 23.61 16.97 39.96 0 16.27-5.87 30.07-16.97 39.89-10.21 9.03-24.07 14-39.03 14-15.04 0-28.9-4.91-39.04-13.82C13.86 94.32 7.99 80.46 7.99 64c0-16.54 5.86-30.42 16.96-40.15 10.11-8.86 23.97-13.74 39.04-13.74m0-4c-31.15 0-60 20.01-60 57.89 0 37.68 28.85 57.89 60 57.89s60-20.73 60-57.89c0-37.37-28.85-57.89-60-57.89z" fill="#EB8F00"/><path d="M46.63 94.31c3.92-.51 7.74-.67 11.47-.88 3.73-.23 7.4-.42 10.85-.95 3.44-.48 6.72-1.3 9.19-2.66 2.43-1.4 3.99-3.23 4.86-6.23l.04-.14a3.388 3.388 0 0 1 4.18-2.32c1.49.43 2.46 1.8 2.45 3.28-.02 2.32-.63 4.8-1.87 7.05-1.24 2.24-3.07 4.14-5.07 5.51-4.04 2.75-8.39 3.77-12.48 4.42-4.13.58-8.13.67-12.05.54-3.92-.12-7.75-.46-11.49-.9h-.03a3.39 3.39 0 0 1-2.97-3.75 3.377 3.377 0 0 1 2.92-2.97z" fill="#242424"/><path d="M23.62 49.7c-.7-.14-1.27-.6-1.54-1.22s-.19-1.32.21-1.96c2.34-3.63 6.17-6.29 10.53-7.3 1.62-.38 3.26-.52 4.89-.4.12.01.22.03.32.05 1.03.21 1.69 1.05 1.65 2.07-.04.93-.74 1.95-1.98 2.09l-.18-.62.08.63c-4.5.59-8.85 2.78-11.94 6.01-.54.56-1.28.81-2.04.65zM88.61 41.21c-.3-.65-.27-1.38.08-1.97.34-.58.95-.93 1.71-.99 4.31-.26 8.72 1.26 12.12 4.17a16.47 16.47 0 0 1 3.22 3.71c.06.1.11.19.15.28.44.96.16 1.98-.7 2.55-.78.52-2.01.56-2.85-.36l.39-.51-.46.44c-3.13-3.28-7.47-5.49-11.91-6.07-.79-.09-1.43-.55-1.75-1.25z" fill="#EB8F00" stroke="#EB8F00" stroke-miterlimit="10"/><path d="M48.16 55.81c-5.73-1.73-13.75-1.15-18.36.7-2.51 1.05-1.13 4.39 1.28 3.89 2.38-.46 4.69-.59 7.2-.41-.01.06 0 .39 0 .39 0 4.9 3.17 7.85 6.67 7.85 1.73 0 3.46-.73 4.75-2.06 2.09-2.15 2.46-5.49 1.05-8.13-.12-.21-.92-1.73-2.59-2.23zM96.03 55.81c-5.73-1.73-13.75-1.15-18.36.7-2.51 1.05-1.13 4.39 1.28 3.89 2.38-.46 4.69-.59 7.2-.41-.01.06 0 .39 0 .39 0 4.9 3.17 7.85 6.67 7.85 1.73 0 3.46-.73 4.75-2.06 2.09-2.15 2.46-5.49 1.05-8.13-.13-.21-.93-1.73-2.59-2.23z" fill="#242424"/></svg>