<svg viewBox="0 0 128 128" width="128" height="128" xmlns="http://www.w3.org/2000/svg" xmlns:xlink="http://www.w3.org/1999/xlink"><defs><path id="a" d="M4 4h120v120H4z"/></defs><clipPath id="b"><use xlink:href="#a"/></clipPath><g clip-path="url(#b)"><radialGradient id="c" cx="68.284" cy="48.032" r="23.207" gradientUnits="userSpaceOnUse"><stop stop-color="#6D4C41" offset="0"/><stop stop-color="#523329" offset="1"/></radialGradient><path d="M93.38 87.11c.53-.58 1.11-1.11 1.91-1.13 1.32-.03 3.36-.25 4.97-1.22.47-.28.87-.67 1.17-1.14-1.13-.23-2.68-.89-3.73-2.93-1.6-3.1.25-5.95 3.32-9.12 3.46-3.57 9.21-15.82 3.1-26.74-1.15-.17-17.81.08-22.03.08H64.1v49.71c19.76 0 23.67-1.29 29.28-7.51z" fill="url(#c)"/><radialGradient id="d" cx="66.152" cy="45.532" r="23.25" gradientUnits="userSpaceOnUse"><stop stop-color="#6D4C41" offset="0"/><stop stop-color="#523329" offset="1"/></radialGradient><path d="M34.82 87.11c-.53-.58-1.11-1.11-1.91-1.13-1.32-.03-3.36-.25-4.97-1.22a3.54 3.54 0 0 1-1.17-1.14c1.13-.23 2.75-.86 3.73-2.93 1.6-3.35-.67-6.33-3.32-9.12-4.33-4.57-9.21-15.82-3.1-26.74 1.15-.17 17.81.08 22.03.08H64.1v49.71c-19.76 0-23.67-1.29-29.28-7.51z" fill="url(#d)"/><path d="M102.88 46.67l.26.5c5.42 10.4-.55 20.63-3.19 23.36-2.96 3.05-5.7 6.73-3.58 10.85.55 1.07 1.27 1.93 2.13 2.56-1.18.42-2.47.52-3.24.54-1.56.04-2.56 1.15-2.99 1.63-3.4 3.77-5.97 5.63-13.09 6.45 0 0-3.69 1.89-6.24 2.53V96c12.46-.45 16.47-2.23 21.56-7.88.39-.44.65-.63.83-.64 1.58-.04 3.84-.32 5.7-1.43.67-.4 1.24-.96 1.67-1.63l1.17-1.85-2.14-.43c-1.19-.24-2.07-.94-2.69-2.14-1.04-2.01-.2-4.01 3.07-7.39 4.05-4.18 9.28-14.94 3.97-25.89 0 0 0-.02.01-.05h-3.21zM25.38 72.33c2.71 2.86 3.42 4.92 2.33 7.46-1.27 2.97-3.37 2.78-3.37 2.78l1.17 1.85c.42.67 1 1.23 1.67 1.63 1.86 1.11 4.13 1.39 5.7 1.43.18 0 .44.2.83.64 5.07 5.62 9.06 7.42 21.39 7.88v-.95c-2.15-.6-6.08-2.48-6.08-2.48-7.12-.82-9.69-2.68-13.09-6.45-.43-.48-1.43-1.59-2.99-1.63-.76-.02-2.86.73-4.86-.81 0 0 7.46-4.33-.04-12.33-3.82-4.07-7.8-14.35-3.58-23.92l.29-.65-.05-.09h-3.32c.02.06.04.11.07.17-4.36 10.67-.38 20.93 3.93 25.47z" fill="#402821"/></g><g clip-path="url(#b)"><linearGradient id="e" x1="60.834" x2="60.834" y1="70.053" y2="114.78" gradientUnits="userSpaceOnUse"><stop stop-color="#F78C1F" offset="0"/><stop stop-color="#F37F20" offset=".494"/><stop stop-color="#ED6D23" offset="1"/></linearGradient><path d="M116 121.06c0-16.79-26.35-25.09-52-25.06-4.32 0-8.68.22-12.92.66l-9.37-.34c-.36-.01-.72-.05-1.08-.09-4.62-.59-8.49-3.93-9.95-8.42l-1.32-4.05H5.23s7.33 40.69 8.77 45.54l102.43.62-.43-8.86z" fill="url(#e)"/></g><g clip-path="url(#b)"><path d="M63.17 107.23c-4 0-7.26-3.22-7.26-7.17v-8.98h16.17v8.98c0 3.96-3.26 7.17-7.26 7.17h-1.65z" fill="#99674F"/><path d="M71.08 92.08v7.98c0 3.4-2.81 6.17-6.26 6.17h-1.65c-3.45 0-6.26-2.77-6.26-6.17v-7.98h14.17m2-2H54.92v9.98c0 4.51 3.7 8.17 8.26 8.17h1.65c4.56 0 8.26-3.66 8.26-8.17v-9.98h-.01z" fill="#875740"/></g><g clip-path="url(#b)"><path d="M36.67 72.26c-5.36 0-9.71-4.67-9.71-10.41s4.36-10.41 9.71-10.41h54.65c5.36 0 9.71 4.67 9.71 10.41s-4.36 10.41-9.71 10.41H36.67z" fill="#99674F"/><path d="M91.33 52.43c4.8 0 8.71 4.22 8.71 9.41s-3.91 9.41-8.71 9.41H36.67c-4.8 0-8.71-4.22-8.71-9.41s3.91-9.41 8.71-9.41h54.66m0-2H36.67c-5.89 0-10.71 5.14-10.71 11.41 0 6.28 4.82 11.41 10.71 11.41h54.65c5.89 0 10.71-5.14 10.71-11.41.01-6.27-4.81-11.41-10.7-11.41z" fill="#875740"/></g><g clip-path="url(#b)"><linearGradient id="f" x1="64" x2="64" y1="94.591" y2="12.825" gradientUnits="userSpaceOnUse"><stop stop-color="#A47B62" offset="0"/><stop stop-color="#AD8264" offset=".191"/><stop stop-color="#B78A67" offset=".551"/><stop stop-color="#BA8D68" offset="1"/></linearGradient><path d="M64 95.27c-15.66 0-32.52-12.14-32.52-38.81 0-12.38 3.56-23.79 10.02-32.13 6.04-7.8 14.24-12.27 22.5-12.27 8.25 0 16.45 4.47 22.5 12.27 6.46 8.34 10.02 19.75 10.02 32.13 0 12.09-3.51 22.19-10.14 29.21-5.86 6.19-13.81 9.6-22.38 9.6z" fill="url(#f)"/><path d="M64 13.07c7.94 0 15.85 4.33 21.71 11.88 6.33 8.16 9.81 19.35 9.81 31.52 0 11.83-3.41 21.7-9.87 28.52-5.67 5.99-13.36 9.29-21.65 9.29s-15.98-3.3-21.65-9.29c-6.46-6.82-9.87-16.69-9.87-28.52 0-12.16 3.49-23.35 9.81-31.52C48.15 17.4 56.06 13.07 64 13.07m0-2c-17.4 0-33.52 18.61-33.52 45.39 0 26.64 16.61 39.81 33.52 39.81S97.52 83.1 97.52 56.46c0-26.78-16.12-45.39-33.52-45.39z" fill="#91674D"/></g><g clip-path="url(#b)"><ellipse cx="47.56" cy="58.81" rx="4.93" ry="5.1" fill="#49362E"/><g fill="#613E31"><path d="M54.98 49.82c-.93-1.23-3.07-3.01-7.23-3.01s-6.31 1.79-7.23 3.01c-.41.54-.31 1.17-.02 1.55.26.35 1.04.68 1.9.39s2.54-1.16 5.35-1.18c2.81.02 4.49.89 5.35 1.18s1.64-.03 1.9-.39c.29-.38.39-1.01-.02-1.55zM87.48 49.82c-.93-1.23-3.07-3.01-7.23-3.01s-6.31 1.79-7.23 3.01c-.41.54-.31 1.17-.02 1.55.26.35 1.04.68 1.9.39s2.54-1.16 5.35-1.18c2.81.02 4.49.89 5.35 1.18s1.64-.03 1.9-.39c.29-.38.39-1.01-.02-1.55z"/></g><ellipse cx="80.44" cy="58.81" rx="4.93" ry="5.1" fill="#49362E"/><path d="M67.86 68.06c-.11-.04-.21-.07-.32-.08h-7.07c-.11.01-.22.04-.32.08-.64.26-.99.92-.69 1.63s1.71 2.69 4.55 2.69 4.25-1.99 4.55-2.69c.29-.71-.06-1.37-.7-1.63z" fill="#99674F"/><path d="M72.42 76.14c-3.19 1.89-13.63 1.89-16.81 0-1.83-1.09-3.7.58-2.94 2.24.75 1.63 6.45 5.42 11.37 5.42s10.55-3.79 11.3-5.42c.75-1.66-1.09-3.33-2.92-2.24z" fill="#5D4037"/></g><g clip-path="url(#b)"><defs><path id="g" d="M64 4.03h-.04c-45.43.24-36.12 52.14-36.12 52.14s5.1 8.99 5.1 8.81c-.03-1.41.46-6.89.46-6.89l-2.68-2.92s3.89-25.44 6.79-24.91c4.45.81 26.54 2 26.57 2 7.83 0 14.92-.36 19.37-1.17 2.9-.53 9.64 1.7 10.68 4.45 1.33 3.54 3.13 19.71 3.13 19.71l-2.68 2.83s.49 5.51.46 6.89c0 .18 5.1-8.81 5.1-8.81S109.44 4.27 64 4.03z"/></defs></g><g clip-path="url(#b)"><radialGradient id="h" cx="64.326" cy="33.52" r="36.373" gradientTransform="matrix(1 0 0 .8642 0 4.552)" gradientUnits="userSpaceOnUse"><stop stop-color="#6D4C41" offset="0"/><stop stop-color="#523329" offset="1"/></radialGradient><path d="M52.25 10.65C39.98 15 40.27 6.38 40.27 6.38c-6.66 3.32-3.8 11.38-3.8 11.38s-6.75-.5-9.64 5.34c-3.02 6.11-.36 10.78-.36 10.78S19.98 38 22.53 45.5c1.69 4.98 6.26 9.67 6.26 9.67 1.08 8.92 3.26 13.27 3.26 13.27s4.21-18.45 3.81-21.27c0 0 7.76-1.54 16.57-6.58 5.95-3.41 10.02-7.41 16.71-8.91 10.18-2.29 12.45 5.08 12.45 5.08s9.42-1.81 12.26 11.27c1.17 5.38 1.67 14.37 2.31 19.84-.06-.48 3.5-6.4 4.12-12.4.23-2.23 3.61-7.67 4.63-11.72 2.21-8.8-.69-15.74-2.06-17.81-2.5-3.79-8.49-9-12.97-8.24.23-4.8-3.55-9.25-8.1-10.78-12.45-4.19-25.87 2.43-29.53 3.73z" fill="url(#h)"/></g><path d="M21.11 45.98c.08.22.17.45.27.68l2.28 2.89 1.1-2.79-.32-.63c-.21-.42-.36-.77-.48-1.11-2.13-6.26 3.11-9.73 3.33-9.88l1.18-.76-.68-1.23c-.09-.17-2.21-4.12.4-9.38 2.33-4.71 9.91-3.57 9.91-3.57s-1.72-7 1.5-11c.55 1.01 3.12 7.75 13.14 3.73.78-.31 1.68-.76 2.8-1.38 4.53-2.47 12.11-6.61 24.12-2.81 4.34 1.38 8.92 5.17 8.74 8.89l-.09 1.87 1.84-.31c3.6-.6 9.1 4.01 11.47 7.59 1.22 1.84 3.98 9.5 1.92 17.71-.11.45-.26.94-.46 1.5l-.22.62.04.08 1.09 1.9 2.11-1.9c.05-.23.27-1.14.35-1.46 2.24-8.93-.56-17.42-2.32-20.09-2.44-3.7-7.91-8.64-12.82-8.97-.79-4.72-5.84-8.72-10.73-10.27-13.26-4.22-21.87.48-26.5 3.01-.96.53-1.82.93-2.36 1.18-4.51 2.1-8.2.54-9.39-1.77-1.37-2.67-.69-4.38-.69-4.38s-8.12 2.25-6.56 12.69c-2.93.12-7.56 1.69-9.6 5.8-2.42 4.9-1.56 8.99-.86 10.95-2.51 2.14-5.53 6.64-3.51 12.6z" clip-path="url(#b)" fill="#402821"/><g clip-path="url(#b)"><path d="M46.19 27.82c-.52-1.04-2.07-1.94-4.46-1.62-2.4.32-3.78 2.58-5.35 3.33-.5.24-1.04-.26-.84-.79 1.31-3.47 6-16.28 6-16.28.66-1.72.14-3.5-1.61-3.95-1.39-.35-2.63.64-3.18 2.08l-4.7 11.35c-.06.15-.21.23-.36.19h-.01a.302.302 0 0 1-.19-.38l3.49-13.84c.41-1.48.13-2.99-1.18-3.57-1.63-.73-3.15.36-3.64 2.14l-4.11 13.55c-.09.33-.41.54-.72.47h-.01c-.32-.07-.52-.41-.44-.75 0 0 1.89-10.04 2.18-11.48s.02-3.28-1.75-3.67-2.6.88-3.04 2.46c-.37 1.35-2.03 8.95-2.51 11.14a.62.62 0 0 1-.72.48.627.627 0 0 1-.51-.65l.39-6.54c.1-1.62-.29-2.88-1.68-3.23-1.73-.43-3 .75-3.21 2.58L12.36 21.7s-1.16 6.94-1.66 9.81c-1.31 7.55.77 11.24 1.54 11.69 1.15.67 7.82 1.79 9.49 2.31 9.36 2.92 11.37-4.68 14.21-8.32 1.75-2.24 6.11-5.73 8.41-5.76 2.3-.04 2.28-2.74 1.84-3.61z" fill="#BA8D68"/><path d="M32.77 5.1c.2 0 .41.05.62.14 1.09.49.71 2.08.61 2.42l-3.48 13.81a1.301 1.301 0 0 0 1.24 1.66c.54 0 1.01-.33 1.2-.82l4.71-11.37c.35-.92 1.02-1.51 1.69-1.51.1 0 .21.01.31.04.44.11.76.35.95.71.26.5.25 1.2-.03 1.92-.05.13-4.7 12.85-6 16.27a1.634 1.634 0 0 0 1.51 2.21c.24 0 .47-.05.69-.16.71-.34 1.32-.87 1.97-1.44.92-.81 1.88-1.64 3.08-1.8.28-.04.56-.06.82-.06 1.51 0 2.36.61 2.62 1.13.15.29.22 1.2-.11 1.74-.12.19-.32.42-.86.42-2.91.04-7.53 4.02-9.18 6.15-.58.74-1.1 1.6-1.65 2.51-1.82 2.99-3.71 6.08-7.9 6.08-1.07 0-2.27-.2-3.56-.61-.69-.22-2.08-.5-3.68-.84-1.89-.39-5.05-1.05-5.58-1.36-.42-.34-2.32-3.56-1.09-10.67.5-2.87 1.66-9.81 1.66-9.83L15 10.94c.1-.86.55-1.78 1.52-1.78.14 0 .3.02.45.06.34.08 1.04.26.92 2.2l-.39 6.54c-.05.82.52 1.54 1.32 1.69.1.02.2.03.3.03.76 0 1.42-.54 1.59-1.28 1.02-4.67 2.2-10.04 2.5-11.09.5-1.79 1.2-1.8 1.46-1.8.12 0 .26.02.4.05 1.36.3 1.06 2.13.99 2.49-.29 1.43-2.11 11.08-2.18 11.46-.19.88.35 1.75 1.22 1.95.11.02.22.04.34.04.72 0 1.37-.5 1.56-1.19l4.12-13.57c.27-.98.93-1.64 1.65-1.64m0-1c-1.21 0-2.23.98-2.62 2.37l-4.11 13.55c-.08.29-.33.48-.6.48-.04 0-.08 0-.12-.01h-.01c-.32-.07-.52-.41-.44-.75 0 0 1.89-10.04 2.18-11.48s.02-3.28-1.75-3.67a2.72 2.72 0 0 0-.61-.07c-1.36 0-2.04 1.14-2.43 2.53-.37 1.35-2.03 8.95-2.51 11.14a.62.62 0 0 1-.61.49c-.04 0-.08 0-.11-.01a.627.627 0 0 1-.51-.65l.39-6.54c.1-1.62-.29-2.88-1.68-3.23-.24-.06-.47-.09-.7-.09-1.37 0-2.33 1.1-2.52 2.67L12.36 21.7s-1.16 6.94-1.66 9.81c-1.31 7.55.77 11.24 1.54 11.69 1.15.67 7.82 1.79 9.49 2.31 1.45.45 2.73.65 3.86.65 6.14 0 7.95-5.9 10.35-8.97 1.75-2.24 6.11-5.73 8.41-5.76s2.29-2.74 1.85-3.61c-.44-.89-1.65-1.69-3.51-1.69-.3 0-.62.02-.95.07-2.4.32-3.78 2.58-5.35 3.33a.66.66 0 0 1-.27.06c-.41 0-.74-.42-.58-.85 1.31-3.47 6-16.28 6-16.28.66-1.72.14-3.5-1.61-3.95-.19-.05-.38-.07-.56-.07-1.15 0-2.14.91-2.62 2.15l-4.7 11.35c-.05.12-.16.2-.28.2-.03 0-.05 0-.08-.01h-.01a.302.302 0 0 1-.19-.38l3.49-13.84c.41-1.48.13-2.99-1.18-3.57-.35-.17-.7-.24-1.03-.24z" fill="#91674D"/><path d="M34.87 29.27c-4.15.08-8.07 3.08-10.35 6.76-.35.56.2.92.55.36 1.97-3.18 6.29-5.68 9.92-5.53.49.02 1.82-.43 1.82-.43l-.91-.67s-.3-.36-1.03-.49z" fill="#91674D"/></g><g clip-path="url(#b)"><linearGradient id="i" x1="16.841" x2="16.841" y1="64.206" y2="128.02" gradientUnits="userSpaceOnUse"><stop stop-color="#F78C1F" offset=".001"/><stop stop-color="#F37F20" offset=".494"/><stop stop-color="#ED6D23" offset="1"/></linearGradient><path d="M29.14 83.06c-.48-1.94-.66-3.94-.54-5.93l.63-29.18c.05-.8-.37-1.52-1.03-1.88-.24-.15-.51-.26-.8-.3l-15.97-3.7c-1.03-.13-1.99.55-2.21 1.56L4.77 71.02a19.82 19.82 0 0 0-.3 6.65l.77 6.08h24.13l-.23-.69z" fill="url(#i)"/></g><path d="M116 121.06c0-14.8-20.49-23.01-42.92-24.72v3.01c19.91 1.56 39.93 8.87 39.93 21.71V129H44.92c-.96 0-1.86.46-2.43 1.23s-.72 1.77-.43 2.69l4.39 13.6-9.74.09c-1.01-.26-2-.49-2.96-.72-8.08-1.92-11.91-3.31-16.05-14.9-.15-.43-.4-.81-.71-1.12v-.57c0-.29-.04-.58-.13-.86-1.45-4.88-8.66-45.06-8.66-45.06l-.76-6.07c-.23-1.89-.14-3.79.26-5.66.01-.05.02-.1.03-.16l4.24-26.22 14.23 3.3-.61 28.44c0 5.23 2.23 11.72 2.23 11.72 1.83 5.63 6.7 9.73 12.42 10.47.02 0 .04 0 .06.01.38.04.83.09 1.3.1 0 0 11.48.32 13.3.02v-2.95s-10.17.32-14.27-.16c-4.63-.55-8.49-3.93-9.95-8.42 0 0-2.09-6.39-2.09-10.68l.63-29.18c.05-.8-.37-1.52-1.03-1.88-.24-.15-.51-.26-.8-.3l-15.97-3.7c-.09-.01-.17-.02-.26-.02-.93 0-1.75.65-1.95 1.58l-4.44 27.4a19.82 19.82 0 0 0-.3 6.65l.77 6.08s7.33 40.69 8.77 45.54v2.7h.89c5.29 14.82 11.75 15.08 21.47 17.62l14.21-.13L44.92 132H116v-10.94z" clip-path="url(#b)" fill="#DA6727"/></svg>