<svg viewBox="0 0 128 128" width="128" height="128" xmlns="http://www.w3.org/2000/svg"><path fill="#BDBDBD" d="M3.77 108.02h120.31V124H3.77z"/><path d="M46 12H10c-1.1 0-2 .9-2 2s.9 2 2 2h16.49l-11.45 9.53c-.35.29-.55.73-.54 1.18.01.46.22.88.58 1.16l12.08 9.32c.27.21.59.31.92.31s.65-.11.92-.32l11.92-9.32c.36-.28.57-.7.58-1.15s-.19-.88-.53-1.17L29.67 16H46c1.1 0 2-.9 2-2s-.9-2-2-2zM28.08 34.1l-9.68-7.46 9.68-8.06 9.55 8.06-9.55 7.46z" fill="#757575"/><path d="M46 13c.55 0 1 .45 1 1s-.45 1-1 1H29.67c-.42 0-.8.26-.94.66-.14.39-.03.84.29 1.11l11.3 9.54c.12.1.18.24.18.39s-.07.29-.19.38L28.39 36.4c-.11.09-.23.11-.31.11s-.19-.02-.31-.1l-12.08-9.32c-.12-.09-.19-.23-.19-.38s.06-.3.18-.4l11.45-9.53c.32-.27.44-.71.3-1.11s-.52-.66-.94-.66H10c-.55 0-1-.45-1-1s.45-1 1-1h36M28.08 35.1c.22 0 .43-.07.62-.21l9.55-7.46c.24-.19.38-.47.38-.77s-.12-.59-.35-.78l-9.55-8.06c-.19-.16-.42-.24-.65-.24s-.45.08-.64.23l-9.68 8.06c-.23.19-.37.48-.36.79.01.3.15.59.39.77l9.68 7.46c.18.14.39.21.61.21M46 12H10c-1.1 0-2 .9-2 2s.9 2 2 2h16.49l-11.45 9.53c-.35.29-.55.73-.54 1.18.01.46.22.88.58 1.16l12.08 9.32c.27.21.59.31.92.31s.65-.11.92-.32l11.92-9.32c.36-.28.57-.7.58-1.15s-.19-.88-.53-1.17L29.67 16H46c1.1 0 2-.9 2-2s-.9-2-2-2zM28.08 34.1l-9.68-7.46 9.68-8.06 9.55 8.06-9.55 7.46z" fill="#424242" opacity=".2"/><path d="M119 12H83c-1.1 0-2 .9-2 2s.9 2 2 2h16.49l-11.45 9.53c-.35.29-.55.73-.54 1.18.01.46.22.88.58 1.16l12.08 9.32c.27.21.59.31.92.31s.65-.11.92-.32l11.92-9.32c.36-.28.57-.7.58-1.15s-.19-.88-.53-1.17L102.67 16H119c1.1 0 2-.9 2-2s-.9-2-2-2zm-17.92 22.1l-9.68-7.46 9.68-8.06 9.55 8.06-9.55 7.46z" fill="#757575"/><path d="M119 13c.55 0 1 .45 1 1s-.45 1-1 1h-16.33c-.42 0-.8.26-.94.66-.14.39-.03.84.29 1.11l11.3 9.54c.12.1.18.24.18.39s-.07.29-.19.38l-11.92 9.32c-.11.09-.23.11-.31.11s-.19-.02-.31-.1l-12.08-9.32c-.12-.09-.19-.23-.19-.38s.06-.3.18-.4l11.45-9.53c.32-.27.44-.71.3-1.11s-.52-.66-.94-.66H83c-.55 0-1-.45-1-1s.45-1 1-1h36M101.08 35.1c.22 0 .43-.07.62-.21l9.55-7.46c.24-.19.38-.47.38-.77s-.12-.59-.35-.78l-9.55-8.06c-.19-.16-.42-.24-.65-.24s-.45.08-.64.23l-9.68 8.06c-.23.19-.37.48-.36.79.01.3.15.59.39.77l9.68 7.46c.18.14.39.21.61.21M119 12H83c-1.1 0-2 .9-2 2s.9 2 2 2h16.49l-11.45 9.53c-.35.29-.55.73-.54 1.18.01.46.22.88.58 1.16l12.08 9.32c.27.21.59.31.92.31s.65-.11.92-.32l11.92-9.32c.36-.28.57-.7.58-1.15s-.19-.88-.53-1.17L102.67 16H119c1.1 0 2-.9 2-2s-.9-2-2-2zm-17.92 22.1l-9.68-7.46 9.68-8.06 9.55 8.06-9.55 7.46z" fill="#424242" opacity=".2"/><path fill="#424242" d="M3.77 108h120.31v7.98H3.77z"/><path d="M122 110v12H6v-12h116m2-2H4v16h120v-16z" fill="#424242" opacity=".2"/><circle cx="18" cy="105" r="6"/><circle cx="30" cy="105" r="6"/><circle cx="42" cy="105" r="6"/><circle cx="86" cy="105" r="6"/><circle cx="98" cy="105" r="6"/><circle cx="110" cy="105" r="6"/><path d="M124 42c0-3.3-2.7-6-6-6H10c-3.3 0-6 2.7-6 6v1.75h120V42z" fill="#6D4C41"/><linearGradient id="a" x1="64" x2="64" y1="121.92" y2="61" gradientUnits="userSpaceOnUse"><stop stop-color="#FBC02D" offset=".006"/><stop stop-color="#FFEB3B" offset=".983"/></linearGradient><path d="M4 43.75v54.92c0 3.3 2.7 6 6 6h108c3.3 0 6-2.7 6-6V43.75H4z" fill="url(#a)"/><path fill="#eee" d="M4 43.75h120V76H4z"/><path d="M46.72 72.12H36.31c-2.21 0-4-1.79-4-4V52.04c0-2.21 1.79-4 4-4h10.41c2.21 0 4 1.79 4 4v16.08c0 2.21-1.79 4-4 4z" fill="#4FC3F7"/><path d="M118 39c1.49 0 3 .91 3 2.67v56.95c0 1.79-1.51 3.38-3 3.38H10.29C8.71 102 7 100.31 7 98.62V41.67C7 39.91 8.51 39 10 39h108m0-3H10c-3.3 0-6 2.69-6 5.67v56.95c0 3.32 2.99 6.13 6.29 6.13l107.71-.08c3.3 0 6-2.73 6-6.05V42c0-3.32-2.7-6-6-6z" fill="#424242" opacity=".2"/><path d="M23.09 72.12H12.91c-2.19 0-3.97-1.78-3.97-3.97V52.01c0-2.19 1.78-3.97 3.97-3.97H23.1c2.19 0 3.97 1.78 3.97 3.97v16.15a3.973 3.973 0 0 1-3.98 3.96z" fill="#4FC3F7"/><path d="M23.09 50.03c1.09 0 1.98.89 1.98 1.98v16.15c0 1.09-.89 1.98-1.98 1.98H12.91c-1.09 0-1.98-.89-1.98-1.98V52.01c0-1.09.89-1.98 1.98-1.98h10.18m0-1.99H12.91c-2.19 0-3.97 1.78-3.97 3.97v16.15c0 2.19 1.78 3.97 3.97 3.97H23.1c2.19 0 3.97-1.78 3.97-3.97V52.01a3.982 3.982 0 0 0-3.98-3.97zM46.72 50.04c1.1 0 2 .9 2 2v16.08c0 1.1-.9 2-2 2H36.31c-1.1 0-2-.9-2-2V52.04c0-1.1.9-2 2-2h10.41m0-2H36.31c-2.21 0-4 1.79-4 4v16.08c0 2.21 1.79 4 4 4h10.41c2.21 0 4-1.79 4-4V52.04c0-2.21-1.79-4-4-4z" fill="#424242" opacity=".2"/><path d="M71.94 72.12H61.75c-2.19 0-3.97-1.78-3.97-3.97V52.01c0-2.19 1.78-3.97 3.97-3.97h10.19c2.19 0 3.97 1.78 3.97 3.97v16.15c0 2.19-1.78 3.96-3.97 3.96z" fill="#4FC3F7"/><path d="M71.94 50.03c1.09 0 1.98.89 1.98 1.98v16.15c0 1.09-.89 1.98-1.98 1.98H61.75c-1.09 0-1.98-.89-1.98-1.98V52.01c0-1.09.89-1.98 1.98-1.98h10.19m0-1.99H61.75c-2.19 0-3.97 1.78-3.97 3.97v16.15c0 2.19 1.78 3.97 3.97 3.97h10.19c2.19 0 3.97-1.78 3.97-3.97V52.01c0-2.19-1.78-3.97-3.97-3.97z" fill="#424242" opacity=".2"/><path d="M93.23 72.12H83.05c-2.19 0-3.97-1.78-3.97-3.97V52.01c0-2.19 1.78-3.97 3.97-3.97h10.19c2.19 0 3.97 1.78 3.97 3.97v16.15a3.973 3.973 0 0 1-3.98 3.96z" fill="#4FC3F7"/><path d="M93.23 50.03c1.09 0 1.98.89 1.98 1.98v16.15c0 1.09-.89 1.98-1.98 1.98H83.05c-1.09 0-1.98-.89-1.98-1.98V52.01c0-1.09.89-1.98 1.98-1.98h10.18m0-1.99H83.05c-2.19 0-3.97 1.78-3.97 3.97v16.15c0 2.19 1.78 3.97 3.97 3.97h10.19c2.19 0 3.97-1.78 3.97-3.97V52.01a3.982 3.982 0 0 0-3.98-3.97z" fill="#424242" opacity=".2"/><path d="M114.53 72.12h-10.19c-2.19 0-3.97-1.78-3.97-3.97V52.01c0-2.19 1.78-3.97 3.97-3.97h10.19c2.19 0 3.97 1.78 3.97 3.97v16.15c0 2.19-1.78 3.96-3.97 3.96z" fill="#4FC3F7"/><path d="M114.53 50.03c1.09 0 1.98.89 1.98 1.98v16.15c0 1.09-.89 1.98-1.98 1.98h-10.19c-1.09 0-1.98-.89-1.98-1.98V52.01c0-1.09.89-1.98 1.98-1.98h10.19m0-1.99h-10.19c-2.19 0-3.97 1.78-3.97 3.97v16.15c0 2.19 1.78 3.97 3.97 3.97h10.19c2.19 0 3.97-1.78 3.97-3.97V52.01c0-2.19-1.78-3.97-3.97-3.97z" fill="#424242" opacity=".2"/><path fill="#757575" d="M29.28 90.69h26v5.88h-26z"/><linearGradient id="b" x1="42.276" x2="42.276" y1="103.46" y2="64.196" gradientUnits="userSpaceOnUse"><stop stop-color="#FBC02D" offset=".006"/><stop stop-color="#FFEB3B" offset=".983"/></linearGradient><path d="M50.6 96.06H33.95a4.68 4.68 0 0 1-4.68-4.68V52.74a4.68 4.68 0 0 1 4.68-4.68H50.6a4.68 4.68 0 0 1 4.68 4.68v38.65c0 2.58-2.1 4.67-4.68 4.67z" fill="url(#b)"/><path d="M37.83 92.64h-3.19c-1.03 0-1.86-.83-1.86-1.86V53.5c0-1.03.83-1.86 1.86-1.86h3.19c1.03 0 1.86.83 1.86 1.86v37.29c0 1.02-.83 1.85-1.86 1.85z" fill="#4FC3F7"/><path d="M37.85 52.54c.52 0 .94.42.94.94V90.8c0 .52-.42.94-.94.94h-3.23c-.52 0-.94-.42-.94-.94V53.48c0-.52.42-.94.94-.94h3.23m0-.91h-3.23c-1.02 0-1.84.83-1.84 1.84V90.8c0 1.02.83 1.84 1.84 1.84h3.23c1.02 0 1.84-.83 1.84-1.84V53.48c0-1.02-.82-1.85-1.84-1.85z" fill="#424242" opacity=".2"/><path d="M50 92.64h-3.2c-1.03 0-1.86-.83-1.86-1.86V53.5c0-1.03.83-1.86 1.86-1.86H50c1.03 0 1.86.83 1.86 1.86v37.29c0 1.02-.83 1.85-1.86 1.85z" fill="#4FC3F7"/><path d="M50.02 52.54c.52 0 .94.42.94.94V90.8c0 .52-.42.94-.94.94h-3.23c-.52 0-.94-.42-.94-.94V53.48c0-.52.42-.94.94-.94h3.23m0-.91h-3.23c-1.02 0-1.84.83-1.84 1.84V90.8c0 1.02.83 1.84 1.84 1.84h3.23c1.02 0 1.84-.83 1.84-1.84V53.48c0-1.02-.83-1.85-1.84-1.85z" fill="#424242" opacity=".2"/><path fill="#939393" d="M29.28 96.06h26v4.57h-26z"/><path fill="#757575" d="M29.28 99.44h26v1.74h-26z"/><path fill="#BDBDBD" d="M29.28 100.9h26v3.77h-26z"/><path d="M54.24 97.1v6.53H30.31V97.1h23.93m1.04-1.04h-26v8.6h26v-8.6z" fill="#757575"/><path d="M50.8 48.06H33.74c-2.71 0-4.47 2.02-4.47 4.51v38.97c0 2.49 2.17 4.51 4.84 4.51h16.32c2.67 0 4.84-2.02 4.84-4.51V52.58c.01-2.5-1.76-4.52-4.47-4.52zm-9.52 42.88v.16c0 .55 0 3.11-2.84 3.11h-4.31c-1.57 0-2.84-1.19-2.84-2.65V52.58c0-1.46 1.28-2.65 2.84-2.65h4.31c2.84 0 2.84 2.74 2.84 3.26v37.75zm12 .61c0 1.46-1.28 2.65-2.84 2.65h-4.31c-2.84 0-2.84-2.55-2.84-3.11v-37.9c0-.52 0-3.26 2.84-3.26h4.31c1.57 0 2.84 1.19 2.84 2.65v38.97z" fill="#F2A600"/></svg>