<svg viewBox="0 0 128 128" width="128" height="128" xmlns="http://www.w3.org/2000/svg"><linearGradient id="a" x1="64" x2="64" y1="121.75" y2="6.25" gradientUnits="userSpaceOnUse"><stop stop-color="#F6A323" offset=".044"/><stop stop-color="#FAC52C" offset=".268"/><stop stop-color="#FDD931" offset=".453"/><stop stop-color="#FEE133" offset=".576"/><stop stop-color="#F0DD3C" offset=".598"/><stop stop-color="#B5CB65" offset=".7"/><stop stop-color="#85BC85" offset=".794"/><stop stop-color="#63B29D" offset=".877"/><stop stop-color="#4FABAB" offset=".945"/><stop stop-color="#47A9B0" offset=".99"/></linearGradient><ellipse cx="64" cy="64" rx="59.85" ry="57.75" fill="url(#a)"/><path d="M64 10.25c15 0 28.83 4.9 38.94 13.78C114 33.76 119.85 47.58 119.85 64c0 16.49-5.85 30.34-16.91 40.04-10.08 8.84-23.91 13.71-38.94 13.71-14.95 0-28.78-4.93-38.93-13.89C14 94.09 8.15 80.31 8.15 64c0-16.23 5.85-29.99 16.92-39.78C35.25 15.21 49.08 10.25 64 10.25m0-4C32.93 6.25 4.15 26.92 4.15 64c0 37.28 28.78 57.75 59.85 57.75s59.85-19.96 59.85-57.75c0-37.59-28.78-57.75-59.85-57.75z" fill="url(#a)" opacity=".4"/><path d="M52.66 102.96c-3.38 0-6.51-1.77-8.17-4.61-1.65-2.84-1.49-6.17.44-8.88 4.28-6.03 10.87-9.21 19.06-9.21 8.2 0 14.79 3.19 19.06 9.21 1.93 2.72 2.09 6.04.44 8.89-1.65 2.84-4.78 4.61-8.17 4.61-1.05 0-2.1-.17-3.13-.5-2.66-.86-5.42-1.3-8.2-1.3s-5.54.44-8.2 1.3c-1.02.32-2.08.49-3.13.49zM84.74 49.94c4.19 0 8 3.54 8 9.42s-3.81 9.42-8 9.42-8-3.54-8-9.42 3.81-9.42 8-9.42zM43.2 49.94c-4.19 0-8 3.54-8 9.42s3.81 9.42 8 9.42 8-3.54 8-9.42-3.81-9.42-8-9.42z" fill="#242424"/><path d="M83.4 31.31l-.1-.01c-2.21-.05-2.76-3.23-.29-3.66 1.84-.3 3.85-.27 5.83.05 5.54.82 10.23 3.87 13.22 7.72 1.49 1.98-1.14 3.9-2.79 2.4-4.21-3.68-9.86-6.23-15.87-6.5zM44.85 31.31l.1-.01c2.21-.05 2.76-3.23.29-3.66-1.84-.3-3.85-.27-5.83.05-5.54.82-10.23 3.87-13.22 7.72-1.49 1.98 1.14 3.9 2.79 2.4 4.21-3.68 9.87-6.23 15.87-6.5z" fill="#6D4C41"/></svg>