<svg viewBox="0 0 128 128" width="128" height="128" xmlns="http://www.w3.org/2000/svg"><linearGradient id="a" x1="64.05" x2="64.05" y1="970.17" y2="1057.3" gradientTransform="translate(0 -950)" gradientUnits="userSpaceOnUse"><stop stop-color="#FEE133" offset=".5"/><stop stop-color="#FEDE32" offset=".612"/><stop stop-color="#FCD32F" offset=".708"/><stop stop-color="#FAC12B" offset=".797"/><stop stop-color="#F7A924" offset=".883"/><stop stop-color="#F6A323" offset=".9"/></linearGradient><path d="M64 119.3C36.3 119.3 6.6 102 6.6 64S36.3 8.7 64 8.7c15.3 0 29.5 5.1 40 14.3 11.4 10.1 17.5 24.3 17.5 41s-6 30.9-17.5 41c-10.5 9.2-24.7 14.3-40 14.3z" fill="url(#a)"/><path d="M64 10.7c14.8 0 28.5 4.9 38.6 13.8 11 9.7 16.8 23.4 16.8 39.5s-5.8 29.8-16.8 39.5c-10.1 8.9-23.8 13.9-38.6 13.9-14.9 0-28.6-4.9-38.6-13.7C14.4 94 8.6 80.3 8.6 64c0-16.4 5.8-30.1 16.8-39.7 10-8.8 23.7-13.6 38.6-13.6m0-4C33.1 6.7 4.6 26.5 4.6 64c0 37.3 28.6 57.3 59.4 57.3 30.9 0 59.4-20.5 59.4-57.3 0-37-28.6-57.3-59.4-57.3z" fill="#EB8F00"/><g fill="#242424"><path d="M73.9 50.1s.1 0 .2.1c.1 0 .2.1.2.2.1 0 .1 0 .2.1.2.1.4.2.7.3l.9.3c.7.2 1.6.5 2.5.6.5.1 1 .1 1.5.2s1.1.1 1.6.1h1.6c.5 0 1-.1 1.5-.2 1-.2 1.8-.4 2.5-.6s1.2-.5 1.6-.6.6-.3.6-.3l.5-.2c1.4-.8 3.2-.2 4 1.2.6 1.1.4 2.4-.3 3.3 0 0-.1.1-.2.3s-.3.4-.6.7c-.6.6-1.4 1.3-2.5 2-1 .4-2.4 1-3.8 1.4-.8.2-1.5.4-2.3.5-.4 0-.8.1-1.3.1h-1.2c-.8 0-1.6-.1-2.4-.2s-1.6-.3-2.3-.5c-1.5-.4-2.8-1-3.9-1.7-.6-.3-1-.7-1.5-1-.4-.3-.7-.6-1.1-1l-.4-.4c-.1-.1-.1-.2-.2-.2l-.2-.2c-1-1.3-.7-3.2.6-4.2 1.1-.7 2.5-.7 3.5-.1zM37.1 50.1s.1 0 .2.1c.1 0 .2.1.2.2.1 0 .1 0 .2.1.2.1.4.2.7.3l.9.3c.7.2 1.6.5 2.5.6.5.1 1 .1 1.5.2s1 .1 1.6.1h1.6c.5 0 1-.1 1.5-.2 1-.2 1.8-.4 2.5-.6s1.2-.5 1.6-.6.6-.3.6-.3l.5-.2c1.4-.8 3.2-.2 4 1.2.6 1.1.4 2.4-.3 3.3 0 0-.1.1-.2.3s-.3.4-.6.7c-.5.6-1.4 1.3-2.5 2s-2.5 1.3-4 1.7c-.8.2-1.5.4-2.3.5-.4 0-.8.1-1.3.1h-1.2c-.8 0-1.6-.1-2.4-.2s-1.6-.3-2.3-.5c-1.5-.4-2.8-1-4-1.7-.5-.3-1-.7-1.5-1-.4-.3-.7-.6-1.1-1l-.4-.4c-.1-.1-.1-.2-.2-.2l-.2-.2c-1-1.3-.7-3.2.6-4.2 1.4-1 2.8-1 3.8-.4z"/></g><path d="M83.9 90.7c-.4 0-.7-.1-1.1-.3-5.5-3.2-11.9-4.8-18.8-4.8s-13.3 1.7-18.8 4.8c-.3.2-.7.3-1 .3-.8 0-1.5-.5-1.9-1.2-.3-.7-.2-1.6.3-2.2 5.3-6.2 13.1-9.7 21.4-9.7s16.1 3.5 21.4 9.7c.5.6.7 1.4.3 2.2-.3.7-1 1.2-1.8 1.2z" fill="#242424"/><path d="M91.2 90.9c-.1-6.9 5.2-12.8 12.1-13.4h.2c1.9-3 5.4-5 9.4-4.8 4.5.2 8.5 3.5 9.5 7.9.7 2.8.2 5.5-1.1 7.7-.6 1.1-.5 2.5.3 3.4 1.7 2 2.6 4.6 2.4 7.4-.3 4.6-3.6 8.5-8.1 9.5-3 .7-6 0-8.2-1.6-1.1-.8-2.6-.7-3.7.2-1.9 1.6-4.4 2.5-7.2 2.4-4.7-.2-8.8-3.8-9.6-8.4-.9-4.1.9-8 4-10.3z" fill="#fff"/><path d="M112.2 72.7h.6c4.5.2 8.5 3.5 9.5 7.9.7 2.8.2 5.5-1.1 7.7-.6 1.1-.5 2.5.3 3.4 1.7 2 2.6 4.6 2.4 7.4-.3 4.6-3.6 8.5-8.1 9.5-.8.2-1.6.3-2.4.3-2.2 0-4.2-.7-5.9-1.8-.5-.3-1.1-.5-1.7-.5-.7 0-1.4.2-2 .7-1.8 1.5-4.1 2.4-6.7 2.4h-.6c-4.7-.2-8.8-3.8-9.6-8.4-.8-4.2.9-8.1 4-10.4 5.3-4.5 7.9-6.3 12-13 0 0 .2-.4.3-.4 2.1-2.8 5.3-4.8 9-4.8m0-4c-4.9 0-9.4 2.4-12.1 6.5-.2.3-.4.6-.5.7-3.2 5.3-5.3 7-9.4 10.5-.5.4-1.1.9-1.7 1.4-4.4 3.3-6.5 8.8-5.5 14.3 1.2 6.4 6.9 11.3 13.4 11.6h.8c3.2 0 6.2-1 8.7-2.9 2.3 1.4 4.8 2.1 7.5 2.1 1.1 0 2.2-.1 3.2-.4 6.2-1.4 10.8-6.8 11.2-13.1.2-3.5-.8-6.9-2.9-9.7 1.6-3.1 2-6.6 1.2-10.1-1.5-6.1-6.9-10.7-13.2-11-.1.1-.4.1-.7.1z" fill="#EB8F00"/><path fill="#fff" d="M91.8 92.7l12.8-14.6-23.9-9zM37.2 90.9c.1-6.9-5.2-12.8-12.1-13.4H25c-1.9-3-5.4-5-9.4-4.8-4.6.3-8.5 3.5-9.6 7.9-.7 2.8-.2 5.5 1.1 7.7.6 1.1.5 2.5-.3 3.4-1.7 2-2.6 4.6-2.4 7.4.3 4.6 3.6 8.5 8.1 9.5 3 .7 6 0 8.2-1.6 1.1-.8 2.6-.7 3.7.2 1.9 1.6 4.5 2.5 7.2 2.4 4.7-.2 8.8-3.8 9.6-8.4.8-4.1-.9-8-4-10.3z"/><path d="M16.1 72.7c3.8 0 7 2 8.8 4.8l.3.4c4.1 6.6 6.7 8.4 12 13 3.1 2.3 4.8 6.2 4 10.4-.9 4.6-4.9 8.2-9.6 8.4H31c-2.6 0-4.9-.9-6.7-2.4-.6-.5-1.3-.7-2-.7-.6 0-1.2.2-1.7.5-1.6 1.2-3.6 1.9-5.8 1.9-.8 0-1.6-.1-2.4-.3-4.4-1-7.8-4.9-8.1-9.5-.2-2.9.8-5.5 2.4-7.4.8-.9.9-2.3.3-3.4-1.3-2.2-1.8-4.9-1.1-7.7 1.1-4.4 5-7.7 9.5-7.9l.7-.1m0-4h-.8c-6.3.4-11.7 4.9-13.2 11-.8 3.4-.4 7 1.2 10.1C1.2 92.6.1 96 .4 99.5c.4 6.3 5 11.7 11.2 13.1 1.1.2 2.2.4 3.2.4 2.7 0 5.2-.7 7.5-2.1 2.5 1.9 5.5 2.9 8.7 2.9h.8c6.5-.3 12.1-5.2 13.4-11.6 1.1-5.5-1-10.9-5.5-14.3-.6-.5-1.1-1-1.7-1.4-4.1-3.5-6.2-5.2-9.4-10.5-.1-.2-.3-.4-.5-.7-2.6-4.2-7.1-6.6-12-6.6z" fill="#EB8F00"/><path fill="#fff" d="M36.5 92.7L23.8 78.1l23.8-9z"/><path d="M75.52 37.89c-.03.04-.06.08-.1.13-1.46 2.02-4.79.51-3.63-2 .94-1.95 2.2-3.81 3.76-5.49 4.28-4.62 10.14-7.2 15.67-7.5 2.76-.11 2.91 3.55.49 4.12-6.15 1.53-12.07 5.29-16.19 10.74zM54.42 38.89c.03.04.06.08.1.13 1.46 2.02 4.79.51 3.63-2-.94-1.95-2.2-3.81-3.76-5.49-4.28-4.62-10.14-7.2-15.67-7.5-2.76-.11-2.91 3.55-.49 4.12 6.14 1.53 12.06 5.29 16.19 10.74z" fill="#EB8F00" stroke="#EB8F00" stroke-miterlimit="10" stroke-width="1.133"/></svg>