<svg viewBox="0 0 128 128" width="128" height="128" xmlns="http://www.w3.org/2000/svg" xmlns:xlink="http://www.w3.org/1999/xlink"><circle cx="64" cy="22.6" r="4.94" fill="#FFA000"/><circle cx="64" cy="20.95" r="2.88" fill="#FFCA28"/><path d="M61.12 11.09c0-2.64 2.88-7.01 2.88-7.01s2.88 4.25 2.88 7.01a2.88 2.88 0 0 1-5.76 0z" fill="#FFA000"/><path d="M62.17 9.7c0-2.11 1.83-5.61 1.83-5.61s1.83 3.4 1.83 5.61c0 1.27-.82 2.3-1.83 2.3s-1.83-1.03-1.83-2.3zM62.01 13.69h3.83c1.15 0 2.08.93 2.08 2.08s-.93 2.08-2.08 2.08h-3.83c-1.15 0-2.08-.93-2.08-2.08-.01-1.15.93-2.08 2.08-2.08z" fill="#FFCA28"/><path d="M59.95 16a2.08 2.08 0 0 0 2.06 1.86h3.83c1.07 0 1.95-.81 2.06-1.86h-7.95z" fill="#FFA000"/><linearGradient id="a" x1="64" x2="64" y1="8.208" y2="24.751" gradientUnits="userSpaceOnUse"><stop stop-color="#F57C00" offset=".366"/><stop stop-color="#E65100" offset="1"/></linearGradient><path d="M64.01 5.93c.51.85 1.12 2 1.41 3.04l.02.06c.29.82.44 1.51.44 2.05 0 .73-.41 1.38-1.08 1.69 0 0-.37.14-.79.14s-.79-.14-.79-.14c-.67-.31-1.08-.96-1.08-1.69 0-.5.14-1.16.42-1.96l.01-.03.01-.04c.28-1.03.91-2.23 1.43-3.12m1.83 8.76c.6 0 1.08.49 1.08 1.11l-.01.09c-.05.48-.38.97-.99.97h-3.91c-.6 0-1.08-.49-1.08-1.08 0-.6.49-1.08 1.08-1.08h3.83m-.8 4.12c1.71.47 2.9 2.03 2.9 3.78 0 2.17-1.77 3.94-3.94 3.94s-3.94-1.77-3.94-3.94c0-1.76 1.19-3.31 2.9-3.78 0 0 .54-.16 1.04-.16s1.04.16 1.04.16zM64 4.08s-1.81 2.58-2.4 4.72c-.29.81-.48 1.61-.48 2.29 0 1.15.68 2.13 1.65 2.59H62c-1.15 0-2.08.93-2.08 2.08s.93 2.08 2.08 2.08h.69c-2.09.58-3.64 2.47-3.64 4.75 0 2.73 2.21 4.94 4.94 4.94s4.94-2.21 4.94-4.94c0-2.27-1.54-4.17-3.64-4.75h.61c1.07 0 1.87-.81 1.98-1.86.01-.08.02-.15.02-.23 0-1.15-.93-2.08-2.08-2.08h-.62c.97-.46 1.65-1.44 1.65-2.59 0-.73-.2-1.56-.5-2.39C65.78 6.55 64 4.08 64 4.08z" fill="url(#a)"/><path fill="#93240A" d="M44 72.44l-11.46-.27.69-7.42H44.4z"/><path fill="#7A230F" d="M40.22 124.16H24.04l.2-21.19h15.98z"/><path fill="#93240A" d="M41.14 102.96H25.96l.34-10.6h14.84zM44.14 92.36H28.65l.2-10.6h15.29z"/><path fill="#93240A" d="M45.89 82.26l-15.24-.51.2-8.6 15.04-1.49z"/><path d="M42.15 61.69c-.61-.27-1.07-.75-1.34-1.33a3.654 3.654 0 0 0-2.74-2.04c.46-.2.79-.63.79-1.13 0-.69-.6-1.24-1.34-1.24s-1.34.56-1.34 1.24c0 .5.32.93.79 1.13-1.22.19-2.23.97-2.74 2.04-.28.59-.71 1.1-1.32 1.4-.53.26-1.07.72-1.1 1.52-.04 1.09.98 1.99 2.16 1.99h7.23c1.11 0 2.03-.81 2.06-1.84 0-.99-.56-1.49-1.11-1.74z" fill="#93240A" stroke="#3E2723" stroke-miterlimit="10"/><path d="M37.94 67.77c-3.24 16.06-3.05 46.2-2.93 54.39H26l.24-18.08v-.21h1.65l.07-1.93.3-8.43.01-.25h2.36l.04-1.96.15-7.81v-.24h1.83l.06-1.94.22-7.17 1.44-.08.16-1.72.42-4.57c.81.01 1.96.01 2.99 0m-4.79-2.13l-.61 6.53-1.55.08-.28 9.01h-2.06c-.6 0-1.09.49-1.09 1.09 0 .59.4 1.09 1.26 1.11l-.15 7.81H26.3c-.6 0-1.09.49-1.09 1.09 0 .55.41 1.03 1.06 1.09l-.3 8.43h-1.72c-.6 0-1.09.49-1.09 1.09s.51 1.04 1.09 1.09l-.26 20.1h13.07s-.91-41.28 3.4-58.41c0 0-3.88.03-5.66.03-.42 0-.72 0-.83-.01-.6-.02-.82-.13-.82-.13z" fill="#212121" opacity=".2"/><g fill="none" stroke="#3E2723" stroke-linecap="round" stroke-miterlimit="10" stroke-width="2.185"><path d="M24.24 102.97H43.3M26.3 92.36h18.29M28.65 82.35H45.1M30.85 73.15h12.96"/></g><path fill="#93240A" d="M84 72.44l11.46-.27-.69-7.42H83.6z"/><path fill="#7A230F" d="M87.78 124.16h16.18l-.2-21.19H87.78z"/><path fill="#93240A" d="M86.86 102.96h15.18l-.34-10.6H86.86zM83.86 92.36h15.49l-.2-10.6H83.86z"/><path fill="#93240A" d="M82.11 82.26l15.24-.51-.2-8.6-15.04-1.49z"/><path d="M85.85 61.69c.61-.27 1.07-.75 1.34-1.33a3.654 3.654 0 0 1 2.74-2.04c-.46-.2-.79-.63-.79-1.13 0-.69.6-1.24 1.34-1.24s1.34.56 1.34 1.24c0 .5-.32.93-.79 1.13 1.22.19 2.23.97 2.74 2.04.28.59.71 1.1 1.32 1.4.53.26 1.07.72 1.1 1.52.04 1.09-.98 1.99-2.16 1.99H86.8c-1.11 0-2.03-.81-2.06-1.84 0-.99.56-1.49 1.11-1.74z" fill="#93240A" stroke="#3E2723" stroke-miterlimit="10"/><path d="M90.06 67.77c1.04.01 2.18.01 2.98.01l.42 4.57.16 1.72 1.44.08.22 7.17.06 1.94h1.83v.24l.15 7.81.04 1.96h2.36l.01.25.3 8.43.07 1.93h1.65v.21l.24 18.08h-9.01c.12-8.2.32-38.34-2.92-54.4m4.79-2.13s-.22.12-.8.14c-.11 0-.41.01-.83.01-1.78 0-5.66-.03-5.66-.03 4.31 17.13 3.4 58.41 3.4 58.41h13.07l-.26-20.1c.59-.05 1.09-.49 1.09-1.09s-.49-1.09-1.09-1.09h-1.72l-.3-8.43c.64-.06 1.06-.54 1.06-1.09 0-.6-.49-1.09-1.09-1.09h-2.37l-.15-7.81c.85-.02 1.26-.52 1.26-1.11 0-.6-.49-1.09-1.09-1.09h-2.06l-.28-9.01-1.55-.08-.63-6.54z" fill="#212121" opacity=".2"/><g fill="none" stroke="#3E2723" stroke-linecap="round" stroke-miterlimit="10" stroke-width="2.185"><path d="M103.76 102.97H84.7M101.7 92.36H83.41M99.35 82.35H82.9M97.15 73.15H84.19"/></g><path d="M52.27 33.75s1.29-8.6 11.55-8.6 11.55 8.6 11.55 8.6h-23.1z" fill="#BF360C" stroke="#91240A" stroke-miterlimit="10" stroke-width="2"/><path fill="#3E2723" d="M51.09 35.85h25.82v6.9H51.09z"/><defs><path id="b" d="M86.57 50.39c-4.05-8.08-6.23-8.63-6.23-8.63H46.76s-1.32.48-5.33 8.63C36.18 61.05 34.9 74.1 34.9 84.61v39.55h58.2V84.61c0-10.51-1.21-23.6-6.53-34.22z"/></defs><clipPath id="c"><use xlink:href="#b"/></clipPath><g clip-path="url(#c)"><linearGradient id="d" x1="64.003" x2="64.003" y1="115.25" y2="51.15" gradientUnits="userSpaceOnUse"><stop stop-color="#B33712" offset="0"/><stop stop-color="#BF360C" offset=".207"/><stop stop-color="#F4511E" offset="1"/></linearGradient><path d="M86.57 50.39c-5.17-10.7-6.23-8.63-6.23-8.63H47.66s-1.06-2.07-6.23 8.63-6.53 18.23-6.53 28.75v45.02h58.2V79.14c0-10.51-1.36-18.05-6.53-28.75z" fill="url(#d)"/></g><g clip-path="url(#c)"><linearGradient id="e" x1="55.867" x2="55.867" y1="111" y2="26.713" gradientUnits="userSpaceOnUse"><stop stop-color="#FF7043" stop-opacity="0" offset="0"/><stop stop-color="#FF7043" offset=".489"/><stop stop-color="#FFAB91" offset="1"/></linearGradient><path fill="url(#e)" d="M53.39 62.57h3.79l1.16-1.79H53.8z"/><linearGradient id="f" x1="54.22" x2="54.22" y1="111" y2="26.713" gradientUnits="userSpaceOnUse"><stop stop-color="#FF7043" stop-opacity="0" offset="0"/><stop stop-color="#FF7043" offset=".489"/><stop stop-color="#FFAB91" offset="1"/></linearGradient><path fill="url(#f)" d="M51.87 70.89h3.73l.97-1.79h-4.46z"/><linearGradient id="g" x1="45.424" x2="45.424" y1="111" y2="26.713" gradientUnits="userSpaceOnUse"><stop stop-color="#FF7043" stop-opacity="0" offset="0"/><stop stop-color="#FF7043" offset=".489"/><stop stop-color="#FFAB91" offset="1"/></linearGradient><path fill="url(#g)" d="M42.95 85.73h4.96v1.8h-4.96z"/><linearGradient id="h" x1="82.703" x2="82.703" y1="111" y2="26.713" gradientUnits="userSpaceOnUse"><stop stop-color="#FF7043" stop-opacity="0" offset="0"/><stop stop-color="#FF7043" offset=".489"/><stop stop-color="#FFAB91" offset="1"/></linearGradient><path d="M93.1 87.53v-1.8h-4.16v-1.56c0-1.71-.03-3.36-.08-4.96h4.06v-1.8h-4.13c-.11-2.28-.29-4.45-.53-6.52h4l-.24-1.8h-3.99c-.31-2.29-.71-4.46-1.2-6.52h3.91l-.41-1.8h-3.96c-.62-2.29-1.35-4.45-2.2-6.52h4.09l-.75-1.8h-4.13c-.11-.23-.21-.47-.32-.69-1.04-2.17-2.03-4.11-2.95-5.83h4.23l-.89-1.8h-4.33c-3.34-5.18-5.29-5.36-5.41-5.52l-1.41 1.11c.04.05 4.09 2.24 9.14 12.8 3.99 8.35 5.69 17.81 5.69 31.63v39.99h1.8V95.85h4.16v-1.8h-4.16v-6.52h4.17z" fill="url(#h)"/><linearGradient id="i" x1="64.003" x2="64.003" y1="111" y2="26.713" gradientUnits="userSpaceOnUse"><stop stop-color="#FF7043" stop-opacity="0" offset="0"/><stop stop-color="#FF7043" offset=".489"/><stop stop-color="#FFAB91" offset="1"/></linearGradient><path fill="url(#i)" d="M71.39 52.46H64.9v-4.54h-1.79v4.54h-6.49l-.75 1.8h16.27z"/><linearGradient id="j" x1="72.14" x2="72.14" y1="111" y2="26.713" gradientUnits="userSpaceOnUse"><stop stop-color="#FF7043" stop-opacity="0" offset="0"/><stop stop-color="#FF7043" offset=".489"/><stop stop-color="#FFAB91" offset="1"/></linearGradient><path fill="url(#j)" d="M74.21 60.78h-4.55l1.16 1.79h3.8z"/><linearGradient id="k" x1="73.786" x2="73.786" y1="111" y2="26.713" gradientUnits="userSpaceOnUse"><stop stop-color="#FF7043" stop-opacity="0" offset="0"/><stop stop-color="#FF7043" offset=".489"/><stop stop-color="#FFAB91" offset="1"/></linearGradient><path fill="url(#k)" d="M71.44 69.1l.96 1.79h3.73l-.24-1.79z"/><linearGradient id="l" x1="75.784" x2="75.784" y1="111" y2="26.713" gradientUnits="userSpaceOnUse"><stop stop-color="#FF7043" stop-opacity="0" offset="0"/><stop stop-color="#FF7043" offset=".489"/><stop stop-color="#FFAB91" offset="1"/></linearGradient><path d="M84.87 79.21v-1.8H79.8V70.89h4.42l-.24-1.8h-4.22c-.1-2.21-.38-4.4-.79-6.52h3.74l-.41-1.8h-3.71a59.08 59.08 0 0 0-1.9-6.52h3.54l-.75-1.8h-3.45c-.92-2.39-1.91-4.59-2.87-6.52h3.16l-.89-1.8h-3.2c-2.77-3.6-3.88-3.51-4.07-3.77L66.7 41.4c.11.17 11.3 13.14 11.3 29.53v10.11l1.8 3v-4.83h5.07z" fill="url(#l)"/><linearGradient id="m" x1="82.582" x2="82.582" y1="111" y2="26.713" gradientUnits="userSpaceOnUse"><stop stop-color="#FF7043" stop-opacity="0" offset="0"/><stop stop-color="#FF7043" offset=".489"/><stop stop-color="#FFAB91" offset="1"/></linearGradient><path fill="url(#m)" d="M80.1 85.73h4.96v1.8H80.1z"/><linearGradient id="n" x1="45.304" x2="45.304" y1="111" y2="26.713" gradientUnits="userSpaceOnUse"><stop stop-color="#FF7043" stop-opacity="0" offset="0"/><stop stop-color="#FF7043" offset=".489"/><stop stop-color="#FFAB91" offset="1"/></linearGradient><path d="M55.7 39.74l-1.41-1.11c-.12.16-2.21.33-5.41 5.52h-4.33l-.89 1.8h4.23c-.93 1.72-1.92 3.66-2.95 5.83-.11.23-.21.46-.32.69H40.5l-.75 1.8h4.09c-.85 2.07-1.59 4.23-2.2 6.52h-3.96l-.41 1.8h3.91c-.49 2.06-.88 4.23-1.2 6.52h-3.99l-.24 1.8h4c-.24 2.07-.41 4.24-.53 6.52h-4.13v1.8h4.06c-.06 1.6-.08 3.25-.08 4.96v1.56h-4.16v1.8h4.16v6.52h-4.16v1.8h4.16v28.32h1.8V84.17c0-13.82 1.7-23.28 5.69-31.63 5.04-10.56 9.1-12.75 9.14-12.8z" fill="url(#n)"/><linearGradient id="o" x1="52.223" x2="52.223" y1="111" y2="26.713" gradientUnits="userSpaceOnUse"><stop stop-color="#FF7043" stop-opacity="0" offset="0"/><stop stop-color="#FF7043" offset=".489"/><stop stop-color="#FFAB91" offset="1"/></linearGradient><path d="M61 39.96c-.18.26-1.94.5-5.22 4.18h-3.2l-.89 1.8h3.16c-.96 1.94-1.96 4.13-2.87 6.52h-3.45l-.75 1.8h3.54c-.73 2.07-1.38 4.26-1.9 6.52h-3.71l-.41 1.8h3.74c-.41 2.13-.69 4.31-.79 6.52h-4.22l-.24 1.8h4.42V77.42h-5.08v1.8h5.08v4.83l1.8-3.34v-9.78c0-16.4 11.19-29.36 11.31-29.52L61 39.96z" fill="url(#o)"/><linearGradient id="p" x1="64.003" x2="64.003" y1="111" y2="26.713" gradientUnits="userSpaceOnUse"><stop stop-color="#FF7043" stop-opacity="0" offset="0"/><stop stop-color="#FF7043" offset=".489"/><stop stop-color="#FFAB91" offset="1"/></linearGradient><path fill="url(#p)" d="M59.78 45.93h8.44l-.88-1.79H64.9v-2.38h-1.79v2.38h-2.44z"/></g><g clip-path="url(#c)" opacity=".27"><linearGradient id="q" x1="64.003" x2="64.003" y1="124.16" y2="41.601" gradientUnits="userSpaceOnUse"><stop stop-color="#212121" stop-opacity=".3" offset="0"/><stop stop-color="#212121" offset=".839"/></linearGradient><path d="M79.86 44.12c.59.72 2.09 2.9 4.29 7.45 5.26 10.89 6.26 18.1 6.26 27.58v42.33H37.6V79.14c0-9.48 1-16.68 6.26-27.58 2.2-4.55 3.47-6.39 4.06-7.38l31.94-.06zm.8-2.52c-.23 0-.31.16-.31.16H47.66s-.08-.16-.31-.16c-.6 0-2.19 1.08-5.91 8.79-5.17 10.7-6.53 18.23-6.53 28.75v45.02H93.1V79.14c0-10.51-1.36-18.05-6.53-28.75-3.72-7.71-5.31-8.79-5.91-8.79z" fill="url(#q)"/></g><path fill="#FF7043" d="M59.48 64.45h9.05v7.63h-9.05z"/><path fill="#F4511E" d="M68.58 72.08h-9.16L48.83 92.79h30.34z"/><linearGradient id="r" x1="64.003" x2="64.003" y1="124.16" y2="98.047" gradientUnits="userSpaceOnUse"><stop stop-color="#FF7043" offset=".588"/><stop stop-color="#F4511E" offset="1"/></linearGradient><path fill="url(#r)" d="M44.2 98.05h39.61v26.12H44.2z"/><path d="M59.5 63.93c0-1.96 2.01-3.54 4.5-3.54s4.5 1.59 4.5 3.54h-9z" fill="#FF8A65"/><path d="M69.15 62.95h-10.3c-.92 0-1.67.75-1.67 1.67s.75 1.67 1.67 1.67h10.3c.92 0 1.67-.75 1.67-1.67 0-.93-.74-1.67-1.67-1.67zM80.73 89.29l-33.22-.44-4.89 9.2h42.76zM74.39 77.34l-20.72-.11-4.16 7.83H78.5zM69.51 68.31H58.5l-2.9 5.44h16.8z" fill="#FFAB91"/><path fill="none" d="M56.65 97.88l14.71-27.67"/><path d="M85.38 98.05l-4.65-8.76-3.37-.04-2.14-4.18h3.27l-4.1-7.72-3.13-.02-1.82-3.57h2.96l-2.89-5.44h-.98V66.3h.62c.92 0 1.67-.75 1.67-1.67s-.75-1.67-1.67-1.67h-.85c-.46-1.25-1.76-2.22-3.4-2.49.5-.31.85-.85.85-1.49 0-2.3-3.48-2.3-3.48 0 0 .63.34 1.18.85 1.49-1.64.26-2.94 1.23-3.4 2.49h-.85c-.92 0-1.67.75-1.67 1.67s.75 1.67 1.67 1.67h.62v2.02h-.99l-2.89 5.44h2.96l-1.78 3.49-3.11-.02-4.16 7.83h3.27l-1.96 3.83-3.31-.04-4.88 9.19h1.57v23.43h39.61V98.05h1.56z" fill="none" opacity=".2"/><circle cx="64.02" cy="58.1" r="1.99" fill="#FFAB91"/><path d="M77.46 31.32H50.55a3.171 3.171 0 0 0 0 6.34h26.91a3.171 3.171 0 0 0 0-6.34z" fill="#F4511E"/><path d="M77.46 33.11c.75 0 1.37.61 1.37 1.37s-.61 1.37-1.37 1.37H50.55c-.75 0-1.37-.61-1.37-1.37s.61-1.37 1.37-1.37h26.91m0-1.79H50.55a3.171 3.171 0 0 0 0 6.34h26.91a3.171 3.171 0 0 0 0-6.34zM44.2 121.47h39.61v2.68H44.2z" fill="#212121" opacity=".2"/><path fill="#6D4C41" d="M54.89 106.19h18.22v16.97H54.89z"/><path d="M72.11 107.19v14.97H55.89v-14.97h16.22m2-2H53.89v18.97h20.22v-18.97z" fill="#3E2723"/></svg>