<svg viewBox="0 0 128 128" width="128" height="128" xmlns="http://www.w3.org/2000/svg" xmlns:xlink="http://www.w3.org/1999/xlink"><linearGradient id="a" x1="119.43" x2="134.44" y1="150.82" y2="181.16" gradientTransform="rotate(-10.068 -716.034 489.039)" gradientUnits="userSpaceOnUse"><stop stop-color="#FFCA28" offset=".545"/><stop stop-color="#FFB300" offset=".834"/><stop stop-color="#E59600" offset=".995"/></linearGradient><path d="M66.93 12.98c-2.59-4.02-8.32-7.07-13.02-6.21-5.26.96-8.03 4.81-8.7 9.64-.24 1.75-.16 3.49.16 4.72.04.15.35 1.22.37 1.56.22 1.3-2.27 2.63-2.54 4.07-.2 1.08 2.06 1.73 2.24 1.92.9.95-.42 5.59 5.77 5.94 2.38.14 2.22.2 2.47.38 1.27.91 1.01 4.29 1.01 4.29s1.28 4.43 5.34 3.09c4.63-1.52 3.97-5.12 3.97-5.12s-1.41-3.88.24-8.15c1.59-4.14 4.35-13.54 2.69-16.13z" fill="url(#a)"/><linearGradient id="b" x1="43.101" x2="67.994" y1="25.497" y2="23.933" gradientUnits="userSpaceOnUse"><stop stop-color="#EDA600" offset="0"/><stop stop-color="#D18900" offset=".871"/></linearGradient><path d="M55.56 7.62c3.84 0 8.37 2.54 10.53 5.9.79 1.22.25 7.34-2.79 15.22-1.63 4.22-.51 8.05-.28 8.75.04.39.16 2.8-3.3 3.94-.41.13-.79.2-1.14.2-1.85 0-2.68-1.91-2.88-2.47.05-.97.07-3.9-1.46-4.99-.45-.36-.78-.42-2.97-.54-3.8-.22-4.13-2.11-4.42-3.78-.13-.74-.24-1.38-.68-1.85-.18-.19-.39-.28-.73-.44-.67-.3-1.08-.53-1.23-.7.13-.38.63-.92 1.04-1.35.78-.83 1.66-1.77 1.49-2.94-.03-.32-.16-.83-.36-1.55l-.04-.13c-.3-1.16-.35-2.78-.14-4.33.39-2.82 1.93-7.7 7.89-8.79.47-.1.96-.15 1.47-.15m0-1c-.56 0-1.11.05-1.65.15-5.26.96-8.03 4.81-8.7 9.64-.24 1.75-.16 3.49.16 4.72.04.15.35 1.22.37 1.56.22 1.3-2.27 2.63-2.54 4.07-.2 1.08 2.06 1.73 2.24 1.92.9.95-.42 5.59 5.77 5.94 2.38.14 2.22.2 2.47.38 1.27.91 1.01 4.29 1.01 4.29s.97 3.34 3.89 3.34c.44 0 .92-.08 1.46-.25 4.63-1.52 3.97-5.12 3.97-5.12s-1.41-3.88.24-8.15c1.59-4.13 4.36-13.54 2.7-16.12-2.31-3.56-7.07-6.37-11.39-6.37z" fill="url(#b)"/><path d="M46.12 31.24c.86.03 1.7-.18 2.41-.73.78-.6.23-1.25-.67-.85-.54.24-1.32.37-2.02.25l.28 1.33z" fill="#795548"/><ellipse transform="rotate(-2.807 49.547 23.32)" cx="49.59" cy="23.34" rx="1.13" ry="1.74" fill="#49362E"/><path d="M48.66 20.79c-1.11.28-1.35-.45-.96-1.03.29-.42.97-.76 2.25-.46 1.2.28 1.68 1 1.99 1.44s.26.86-.02.89c-.38.03-1.88-1.19-3.26-.84z" fill="#613E31"/><radialGradient id="c" cx="53.864" cy="163.47" r="14.893" gradientTransform="rotate(-1.146 -7790.29 -806.45)" gradientUnits="userSpaceOnUse"><stop stop-color="#5B3127" offset="0"/><stop stop-color="#40211B" offset="1"/></radialGradient><path d="M81.02 38.22c-1.6-.09-5.12-.99-8.62-6.65-2.27-3.67-2.22-8.35-2.18-11.77.02-2.17.04-3.74-.48-4.61-.21-.36-.56-.74-.96-1.19-1.51-1.7-2.66-3.25-1.39-4.94.47-.62 2.5-1.49 4.75-1.49 1.5 0 3.55.38 4.84 2.21 3.09 4.39 2.29 7.17 1.29 10.69-.53 1.84-1.12 3.94-1.21 6.51-.2 5.58 2.58 9.61 3.96 11.24z" fill="url(#c)"/><path d="M72.14 8.08c1.38 0 3.26.35 4.43 2 2.95 4.19 2.22 6.74 1.22 10.26-.53 1.87-1.14 3.99-1.23 6.63-.17 4.8 1.81 8.49 3.29 10.56-1.73-.46-4.37-1.92-7.03-6.22-2.19-3.54-2.14-8.14-2.1-11.5.02-2.26.04-3.89-.55-4.88-.24-.4-.6-.8-1.01-1.27-1.46-1.64-2.41-2.92-1.37-4.3.33-.43 2.17-1.28 4.35-1.28m0-1c-2.34 0-4.55.9-5.15 1.68-2.11 2.79 1.49 5.3 2.32 6.69 1.22 2.05-1.03 10.41 2.66 16.39 3.81 6.16 7.69 6.89 9.32 6.89.51 0 .8-.07.8-.07S77.3 34.08 77.55 27c.26-7.36 4.73-10.54-.17-17.5-1.26-1.81-3.3-2.42-5.24-2.42z" fill="#301712"/><radialGradient id="d" cx="67.471" cy="49.944" r="11.907" gradientTransform="matrix(1.038 -.036 .0406 .9994 -18.415 -36.173)" gradientUnits="userSpaceOnUse"><stop stop-color="#5B3127" offset="0"/><stop stop-color="#40211B" offset="1"/></radialGradient><path d="M58.17 22.5c.15-.48.42-1.35.63-1.75.69-1.37 1.81-.88 1.81-.88 1.51.53 2.05 3.64-.43 5.47-.06.04-.2.15-.13.47.16.78 1.09 2.63 3.37 3.17.3.07.57.11.81.13.78.06 1.44-.53 1.56-1.3.71-4.71 2.76-3.33 3.65-9.32 1.12-7.56-5.51-12.32-11.92-12.63-5.77-.28-13.5 2.28-13.24 9.7.05 1.36.87 2.12.87 2.12s1.4-3.38 5.1-2.4c3.73.99 5.38.17 5.38.17-1.26 2.98-.15 4.61.83 5.54.56.53 1.08 1.16 1.37 1.53.15.19.28.18.34-.02z" fill="url(#d)"/><path d="M67.68 10.2c-2.33-2.83-6.11-4.64-10.13-4.83-3.49-.17-8.28.69-11.22 3.6-1.77 1.75-2.82 4.05-2.53 6.6.17 1.53 1.28 2.24 1.28 2.24l.22-.44s-.43-.52-.53-1.84c-.19-2.36.67-4.33 2.24-5.88 2.72-2.69 7.21-3.47 10.49-3.32 3.69.18 7.3 1.89 9.43 4.48 1.75 2.14 2.46 4.76 2.04 7.59-.45 3.06-1.21 4.1-1.94 5.1-.67.93-1.64 1.72-2.06 4.03-.21 1.18-1.27 1.55-1.19 1.55 1.29.08 2-.45 2.15-1.41.31-2.09 1.22-2.7 1.88-3.61.76-1.05 1.62-2.24 2.11-5.53.47-3.09-.31-5.98-2.24-8.33z" fill="#301712"/><path d="M63.96 100.48a15.516 15.516 0 0 1-5.76-9.12l-4.77-22.63 14.43-1.59 1.34 21.94c.09 1.43.66 2.81 1.6 3.89l13.75 15.69-4.45 4.17-16.14-12.35z" fill="#646464"/><path d="M67.4 67.69l1.31 21.41c.09 1.54.71 3.03 1.72 4.19l13.43 15.32-3.79 3.55-15.82-12.08a15.034 15.034 0 0 1-5.57-8.83l-4.65-22.09 13.37-1.47m.94-1.11l-15.5 1.71 4.88 23.17c.79 3.75 2.9 7.09 5.94 9.42l16.49 12.6 5.11-4.79-14.07-16.06c-.88-1-1.4-2.26-1.48-3.59l-1.37-22.46z" fill="#4F4F4F"/><path d="M47.3 119.08L45.7 96.3c-.27-3.8.02-7.61.84-11.33l4.45-20.03 16.73-1.53c.27 2.43.83 7.45.83 8.05 0 5.15-3.43 7.49-7.13 9.24-.24.12-.34.16-5.42 13.68l-.03.12-2.9 24.58H47.3z" fill="#7C7C7C"/><path d="M67.27 63.96c.34 2.98.77 7.01.77 7.5 0 5.12-3.53 7.22-6.85 8.79-.5.24-.53.25-5.68 13.95-.03.08-.05.15-.06.23l-2.85 24.14h-4.85l-1.55-22.3c-.26-3.75.02-7.51.83-11.19L51.4 65.4l15.87-1.44m.88-1.09l-17.58 1.6-4.53 20.39a39.83 39.83 0 0 0-.85 11.47l1.63 23.24h6.67l2.95-25.03s5.01-13.32 5.17-13.4c3.28-1.55 7.42-3.9 7.42-9.69.01-.8-.88-8.58-.88-8.58z" fill="#5B5B5B"/><linearGradient id="e" x1="49.38" x2="68.504" y1="54.206" y2="54.206" gradientUnits="userSpaceOnUse"><stop stop-color="#651FFF" offset="0"/><stop stop-color="#5914F2" offset=".705"/><stop stop-color="#530EEB" offset="1"/></linearGradient><path d="M53 73.01c-1.99 0-3.62-1.96-3.62-4.36l2.15-22.45c.45-4.27 2.62-7.95 4.42-9.23 1.84-1.31 4.54-1.54 4.57-1.55.15-.01.3-.02.47-.02 1.06 0 3.04.28 4.33 2.17.77 1.12 1.43 3.49 1.58 5.64l1.61 25.48c0 2.37-1.62 4.33-3.62 4.33H53z" fill="url(#e)"/><path d="M60.99 35.9c1.18 0 2.82.34 3.92 1.95.72 1.06 1.35 3.32 1.49 5.38L68 68.68c-.01 2.12-1.41 3.83-3.11 3.83h-11.9c-1.71 0-3.1-1.71-3.11-3.82l2.15-22.44c.42-3.98 2.47-7.64 4.22-8.88 1.72-1.22 4.29-1.45 4.31-1.46.13 0 .28-.01.43-.01m0-1c-.18 0-.34.01-.5.02 0 0-2.84.23-4.82 1.64-2.1 1.5-4.2 5.48-4.63 9.59l-2.15 22.5c0 2.69 1.84 4.86 4.12 4.86H64.9c2.27 0 4.11-2.18 4.11-4.86L67.4 43.17c-.14-2.14-.79-4.62-1.66-5.88-1.3-1.9-3.26-2.39-4.75-2.39z" fill="#4A00ED"/><linearGradient id="f" x1="61.116" x2="61.116" y1="46.691" y2="82.045" gradientUnits="userSpaceOnUse"><stop stop-color="#FFB300" offset="0"/><stop stop-color="#FFCA28" offset="1"/></linearGradient><path d="M66.51 60.29l-2.25-13.83-6.97 1.13 2.15 13.19-3.34 9.3c-.84 1.92-.62 3.58 1.17 4.36s3.42-.37 4.26-2.29l4.67-9.35h-.01c.42-.8.52-1.69.32-2.51z" fill="url(#f)"/><path d="M63.43 47.61l2.09 12.84c0 .03.01.05.02.08.15.6.06 1.24-.23 1.8-.02.04-.04.08-.05.12l-4.52 9.02c-.01.02-.02.03-.02.05-.65 1.49-2.57 3.42-3.72 3.42-.1 0-.19-.02-.27-.05-.82-.36-.45-2.69.4-4.64l.03-.06 3.23-9.06c.06-.16.07-.33.05-.5l-1.99-12.2 4.98-.82m.82-1.15l-6.97 1.14 2.15 13.19-3.23 9.06c-.82 1.87-1.67 5.18.12 5.96.21.09.43.13.67.13 1.73 0 3.92-2.37 4.64-4.02l4.57-9.11h-.01c.42-.79.52-1.68.32-2.51l-2.26-13.84z" fill="#EDA600"/><path d="M55.14 43.22c-.24-1.32.05-2.66.82-3.77a5.007 5.007 0 0 1 4.14-2.17c2.43 0 4.52 1.74 4.95 4.14l1.67 9.2-9.91 1.8-1.67-9.2z" fill="#3615AF"/><path d="M60.1 37.78c2.19 0 4.07 1.57 4.46 3.73l1.58 8.7-8.93 1.62-1.58-8.7c-.22-1.19.04-2.4.74-3.39s1.73-1.66 2.92-1.88c.27-.05.54-.08.81-.08m0-1a5.538 5.538 0 0 0-5.45 6.53L56.41 53l10.9-1.98-1.76-9.69a5.552 5.552 0 0 0-5.45-4.55z" fill="#27089C"/><defs><path id="g" d="M56.86 71.03l.25-.72s-1.09-1.15-2.03-.26c-.82.63-3.4 2.07-3.8 3.36-.41 1.29-.59 3.58-.44 4.72.05.35.26 3 2.51 3.99 2.25.98 5.87 1.51 7.75-3.99.44-.62.52-2.06.66-3.4l-.15-1.66c-.11-.63-.99-1.32-.99-1.32l-.45.87-3.31-1.59z"/></defs><clipPath id="h"><use xlink:href="#g"/></clipPath><g clip-path="url(#h)"><linearGradient id="i" x1="55.979" x2="54.369" y1="62.139" y2="68.781" gradientTransform="rotate(4.289 -97.473 77.267)" gradientUnits="userSpaceOnUse"><stop stop-color="#FFB300" offset="0"/><stop stop-color="#FFCA28" offset="1"/></linearGradient><path d="M59.73 71.73c-.27-.13-.49-.26-.71-.38-.45-.25-.87-.48-1.52-.72-.8-.29-3.89 1.73-4.59 2.16-.23.14-.45.28-.65.42-.27.18-.44.46-.5.74-.02.05-.06.13-.08.22-.01.04-.01.07 0 .11 0 .01.05 1.52-.18 2.39-.09.34.1.84.44.89 0 0-.03.79-.09 1.2-.07.48 0 .62.02.84.03.36.22.6.51.71.35.14.45-.01.61.07s.15.27.23.47c.22.53.71.59.9.57.62-.07.72-.48.83-.5.2-.03.27.13.32.25.11.26.44.35.73.38.73-.07 1.13-.77 1.17-.68.15.35.83.5 1.16.28.28-.19.51.02 1.77-3.13.26-.56.59-2 .73-3.33l.07-.63c.12-1.01-.34-1.92-1.17-2.33z" fill="url(#i)"/><linearGradient id="j" x1="51.805" x2="54.748" y1="48.901" y2="53.126" gradientTransform="rotate(8.048 -97.654 77.714)" gradientUnits="userSpaceOnUse"><stop stop-color="#FFB300" offset="0"/><stop stop-color="#FFCA28" offset="1"/></linearGradient><path d="M59.69 71.98c-.82-.41-1.39-.56-2.27-1.12-.8-.52-4.11 1.36-5.09 2.63-.4.27-.68.84-.4 1.24.27.4.4.46.8.18 0 0 .09.42.13.52.24.5.86.41 1.05.4.35-.02.53.03.62.37.08.32.37.64.68.75.35.12.6.11.96-.07.17-.08.29 0 .38.17.13.22.39.52.62.58.42.12.65.03.93-.03.18-.04.26-.03.4.08.12.1.2.55.53.67 1.44.51 1.47-2.53 1.68-4.33.09-.86-.27-1.67-1.02-2.04z" fill="url(#j)"/><path fill="none" stroke="#EDA600" stroke-linecap="round" stroke-linejoin="round" stroke-miterlimit="10" d="M42.83 84.25l.88-3.77M44.89 84.6l.85-3.31"/><path fill="none" stroke="#EDA600" stroke-linecap="round" stroke-linejoin="round" stroke-miterlimit="10" stroke-width=".75" d="M57.22 80.9l.59-2.33M55.05 80.97l.81-2.77M53.13 80.34l.62-3.17"/><path d="M43.61 80.34c-.55-.05-.88-.22-1.06-.5-.17.16-.42.32-.82.37-.34.04-1-.09-1.29-.8-.03-.07-.05-.15-.07-.21 0-.01 0-.02-.01-.03-.14.01-.32.01-.56-.08-.43-.17-.7-.55-.74-1.03-.02-.29.21-2.01.25-2.33.04-.27.13-.74.18-1.05a.899.899 0 0 1-.22-.25c-.18-.28-.25-.65-.16-.96.22-.81.17-2.26.17-2.28a.472.472 0 0 1 .01-.2c.02-.13.07-.23.1-.29.05-.32.29-.67.63-.91.2-.14.43-.28.67-.43.67-.42 1.44-.89 2.16-1.78 1.06-.94 1.91-.73 2.76-.42.67.25 1.1.49 1.56.74.23.13.45.25.71.38.97.48 1.52 1.54 1.38 2.7l-.07.63c-.15 1.34-.47 2.83-.77 3.45-1.21 3.12-1.75 3.99-2.32 4.5-.36.32-.84.46-1.24.37a.854.854 0 0 1-.24-.09c-.21.23-.53.46-1.01.5zm-1.03-1.38c.27 0 .47.16.61.48.02.06.15.13.42.16.29-.03.49-.28.6-.43.08-.1.21-.25.43-.23.13.02.25.11.3.23.21.06.45.02.65-.17.48-.42.98-1.24 2.13-4.23.23-.49.56-1.86.71-3.24l.07-.64c.1-.84-.28-1.6-.97-1.94-.27-.13-.5-.26-.73-.39a9.23 9.23 0 0 0-1.47-.7c-.75-.28-1.25-.39-1.96.23-.75.94-1.57 1.45-2.3 1.9-.23.14-.44.27-.64.41-.18.12-.3.31-.34.5l-.03.1c-.02.04-.03.08-.04.11 0 .04.06 1.6-.19 2.54-.03.1 0 .25.07.35.03.05.06.07.07.07.1.02.19.07.25.15s.08.19.06.29c0 0-.17.9-.23 1.31-.09.56-.26 1.97-.25 2.16.02.2.1.33.27.39.11.04.16.04.23.03.09-.01.24-.03.41.05.29.15.35.39.4.55.01.04.02.09.04.13.15.36.47.34.51.33.28-.03.37-.15.47-.26.07-.09.17-.21.35-.24h.1zM56.04 81.92c-.55-.05-.89-.22-1.06-.5-.17.16-.41.32-.82.37-.34.04-1-.09-1.29-.8-.03-.07-.05-.15-.07-.21 0-.01 0-.02-.01-.03-.14.01-.32.01-.56-.08-.43-.17-.7-.55-.74-1.03 0-.04-.01-.08-.02-.12-.03-.17-.06-.38 0-.8.04-.24.06-.65.08-.91-.1-.07-.18-.16-.26-.27-.18-.28-.25-.66-.16-.96.22-.81.17-2.26.17-2.27a.472.472 0 0 1 .01-.2c.02-.13.07-.24.1-.3.05-.31.29-.67.63-.9.2-.14.42-.27.65-.42.72-.45 2.26-1.43 2.26-1.43.28-.19 1.75-1.12 2.67-.78.68.25 1.13.5 1.57.75.22.12.44.24.7.37.97.48 1.51 1.54 1.38 2.7l-.07.63c-.15 1.35-.48 2.83-.77 3.45-1.16 2.9-1.49 3.07-1.84 3.25-.32.21-.72.25-1.09.14-.14-.04-.26-.1-.37-.18-.25.23-.61.49-1.09.53zM55 80.54c.27 0 .47.16.61.48.02.06.15.13.42.16.3-.03.56-.31.72-.47.12-.12.25-.25.46-.21.12.02.24.11.29.23.01.02.08.08.21.12.17.05.33.03.4-.01.04-.03.09-.05.13-.08.15-.08.43-.22 1.5-2.89.23-.49.56-1.85.71-3.23l.08-.64c.1-.84-.28-1.6-.97-1.94-.27-.13-.5-.26-.73-.39-.43-.24-.84-.47-1.47-.7-.43-.16-1.43.32-2.01.71-.01 0-1.55.99-2.26 1.42-.24.15-.45.28-.64.41-.18.12-.31.31-.34.5l-.03.1c-.02.04-.04.08-.04.12s.06 1.6-.19 2.54c-.03.1 0 .25.07.35.03.05.06.07.07.07.19.03.33.2.32.39 0 .03-.03.82-.1 1.24-.05.3-.03.43 0 .56l.03.18c.02.2.11.33.27.4.11.04.16.04.23.03.09-.01.24-.03.41.05.26.13.33.37.37.53.01.04.02.09.04.13.15.37.5.34.51.33.28-.03.38-.15.47-.26.07-.09.17-.21.35-.24.05.01.08.01.11.01z" fill="#EDA600"/></g><path d="M39.02 123.5a.51.51 0 0 1-.51-.5v-1.27a3.47 3.47 0 0 1 2.22-3.23l6.18-2.04h6.66c.42.52 1.66 2.17 1.66 3.57v2.8c0 .17-.07.33-.19.46s-.28.19-.46.19l-15.56.02z" fill="#4568AD"/><path d="M53.35 116.96c.55.71 1.4 2.03 1.4 3.07v2.8c0 .05-.02.08-.04.1s-.05.04-.1.04l-15.59.03.01-1.26a2.99 2.99 0 0 1 1.88-2.76l6.1-2.01h6.34m.47-1.01h-6.98l-6.28 2.07c-1.52.6-2.53 2.06-2.54 3.69l-.01 1.27c0 .55.45 1 1 1l15.59-.02c.63 0 1.15-.51 1.15-1.15v-2.8c0-1.89-1.93-4.06-1.93-4.06z" fill="#315499"/><path d="M77.93 122.66c-.13 0-.26-.05-.36-.15l-.89-.9a3.497 3.497 0 0 1-.72-3.86l2.93-5.81 4.71-4.71c.67.07 2.71.36 3.7 1.35l1.98 1.98c.25.25.25.66 0 .91L78.27 122.5a.4.4 0 0 1-.34.16z" fill="#325599"/><path d="M83.79 107.76c.89.11 2.43.45 3.16 1.18l1.98 1.98c.04.04.04.08.04.1 0 .03-.01.07-.04.1l-11.01 11.03-.89-.9a2.98 2.98 0 0 1-.62-3.28l2.89-5.74 4.49-4.47m-.37-1.04l-4.93 4.93-2.97 5.91c-.65 1.5-.33 3.24.82 4.41l.89.9c.2.2.45.3.71.3s.51-.1.71-.29l11.01-11.03c.45-.45.45-1.17 0-1.62l-1.98-1.98c-1.36-1.36-4.26-1.53-4.26-1.53z" fill="#224487"/></svg>