<svg xmlns="http://www.w3.org/2000/svg" xmlns:xlink="http://www.w3.org/1999/xlink" viewBox="0 0 128 128" width="128" height="128"><path d="M122.06 19H5.94C4.87 19 4 18.06 4 17s.87-2 1.94-2h116.13c1.07 0 1.94.94 1.94 2s-.88 2-1.95 2z" fill="#504f4f"/><path d="M108 16H91.96c-.26 0-.51.07-.73.19l-26 27.46c-.18.1-.34.35-.46.35H54c-1.1 0-2 .98-2 2.08v.83c0 1.1.9 2.08 2 2.08h23.92c1.1 0 2.08-.98 2.08-2.08v-.83c0-1.1-.98-2.08-2.08-2.08h-7.24l22.94-25H108c.83 0 1.5-.67 1.5-1.5s-.67-1.5-1.5-1.5z" fill="#787676"/><linearGradient id="a" gradientUnits="userSpaceOnUse" x1="64" y1="79.361" x2="64" y2="24.25" gradientTransform="matrix(1 0 0 -1 0 128)"><stop offset=".007" stop-color="#fff8e1"/><stop offset=".184" stop-color="#fff7dc"/><stop offset=".405" stop-color="#fff3cc"/><stop offset=".65" stop-color="#ffecb3"/><stop offset=".909" stop-color="#ffe490"/><stop offset=".998" stop-color="#ffe082"/></linearGradient><path d="M118 115.75H10c-3.3 0-6-2.7-6-6V54c0-3.3 2.7-6 6-6h108c3.3 0 6 2.7 6 6v55.75c0 3.3-2.7 6-6 6z" fill="url(#a)"/><path d="M29.95 81.92H16.03c-1.66 0-3-1.34-3-3V58.87c0-1.66 1.34-3 3-3h13.92c1.66 0 3 1.34 3 3v20.05c0 1.66-1.34 3-3 3zM49.87 75.67h-9.84c-1.66 0-3-1.34-3-3v-13.8c0-1.66 1.34-3 3-3h9.84c1.66 0 3 1.34 3 3v13.8c0 1.66-1.34 3-3 3zM69.82 75.67h-9.84c-1.66 0-3-1.34-3-3v-13.8c0-1.66 1.34-3 3-3h9.84c1.66 0 3 1.34 3 3v13.8c0 1.66-1.34 3-3 3zM89.96 75.67h-9.84c-1.66 0-3-1.34-3-3v-13.8c0-1.66 1.34-3 3-3h9.84c1.66 0 3 1.34 3 3v13.8c0 1.66-1.34 3-3 3zM109.92 75.67h-9.84c-1.66 0-3-1.34-3-3v-13.8c0-1.66 1.34-3 3-3h9.84c1.66 0 3 1.34 3 3v13.8c0 1.66-1.34 3-3 3z" fill="#4fc3f7"/><defs><path id="b" d="M118 115.75H10c-3.3 0-6-2.7-6-6V54c0-3.3 2.7-6 6-6h108c3.3 0 6 2.7 6 6v55.75c0 3.3-2.7 6-6 6z"/></defs><clipPath id="c"><use xlink:href="#b" overflow="visible"/></clipPath><path clip-path="url(#c)" fill="#66bb6a" d="M3.88 89.1H124v29.05H3.88z"/><path d="M4.87 90.75c-.3 0-.59.04-.87.1v10.3c.28.06.57.1.87.1a3.97 3.97 0 003.96-3.96v-2.58a3.97 3.97 0 00-3.96-3.96z" fill="#ffeb3b"/><circle cx="27" cy="112" r="12" fill="#553a30"/><circle cx="27" cy="112" r="5.14" fill="#bdbdbd"/><circle cx="101" cy="112" r="12" fill="#553a30"/><circle cx="101" cy="112" r="5.14" fill="#bdbdbd"/></svg>