<svg viewBox="0 0 128 128" width="128" height="128" xmlns="http://www.w3.org/2000/svg"><linearGradient id="a" x1="64" x2="64" y1="121.75" y2="6.25" gradientUnits="userSpaceOnUse"><stop stop-color="#F6A323" offset=".044"/><stop stop-color="#FAC52C" offset=".268"/><stop stop-color="#FDD931" offset=".453"/><stop stop-color="#FEE133" offset=".576"/><stop stop-color="#F0DD3C" offset=".598"/><stop stop-color="#B5CB65" offset=".7"/><stop stop-color="#85BC85" offset=".794"/><stop stop-color="#63B29D" offset=".877"/><stop stop-color="#4FABAB" offset=".945"/><stop stop-color="#47A9B0" offset=".99"/></linearGradient><ellipse cx="64" cy="64" rx="59.85" ry="57.75" fill="url(#a)"/><path d="M64 10.25c15 0 28.83 4.9 38.94 13.78C114 33.76 119.85 47.58 119.85 64c0 16.49-5.85 30.34-16.91 40.04-10.08 8.84-23.91 13.71-38.94 13.71-14.95 0-28.78-4.93-38.93-13.89C14 94.09 8.15 80.31 8.15 64c0-16.23 5.85-29.99 16.92-39.78C35.25 15.21 49.08 10.25 64 10.25m0-4C32.93 6.25 4.15 26.92 4.15 64c0 37.28 28.78 57.75 59.85 57.75s59.85-19.96 59.85-57.75c0-37.59-28.78-57.75-59.85-57.75z" fill="url(#a)" opacity=".4"/><path d="M19.01 102.73C13.37 102.73 9 97.22 9 92.48c0-3.25 1.04-6.52 4.63-14.58 1.98-4.43 4.08-8.85 5.5-11.77 1.6 2.96 3.91 7.48 5.5 11.67.31.82.62 1.61.91 2.38 2.02 5.24 3.48 9.02 3.48 12.31 0 4.73-4.37 10.24-10.01 10.24z" fill="#5F7AFF"/><path d="M19.2 70.6c1.23 2.44 2.54 5.25 3.56 7.91.31.82.62 1.62.91 2.38 1.94 5.04 3.34 8.67 3.34 11.59 0 3.74-3.57 8.25-8.01 8.25s-8.01-4.51-8.01-8.25c0-2.92 1-6 4.46-13.76 1.28-2.85 2.6-5.69 3.75-8.12m2.41-4.08c-1.06-2.01-3.95-1.95-4.94.1a436.64 436.64 0 0 0-4.87 10.46C8.21 85.14 7 88.73 7 92.48c0 5.96 5.38 12.25 12.01 12.25s12.01-6.29 12.01-12.25c0-4.18-2.01-8.8-4.52-15.39-1.41-3.71-3.34-7.63-4.89-10.57z" fill="#4864ED"/><path d="M64 99.9c3.85 0 7.66.66 11.3 1.93 7.7 2.69 14.37-5.99 9.9-12.8-4.66-7.08-11.91-9-21.19-9s-16.53 1.91-21.19 9c-4.48 6.81 2.2 15.48 9.9 12.8 3.62-1.27 7.43-1.93 11.28-1.93z" fill="#242424"/><path d="M27.39 39.77c-2.2.39-2.31 3.59.09 3.7 4.9.12 10.21-1.66 14.32-5.45 1.5-1.29 2.81-2.89 3.72-4.49 1.21-2.2-1.59-3.71-2.99-2.11l-.1.1c-4.03 4.49-9.54 7.37-15.04 8.25zM86.12 31.52l-.1-.1c-1.41-1.59-4.2-.08-2.99 2.11.91 1.6 2.21 3.19 3.72 4.49 4.11 3.78 9.42 5.57 14.32 5.45 2.4-.11 2.29-3.31.09-3.7-5.51-.88-11.02-3.76-15.04-8.25z" fill="#6D4C41"/><path d="M82.74 49.94c4.19 0 8 3.54 8 9.42s-3.81 9.42-8 9.42-8-3.54-8-9.42 3.81-9.42 8-9.42zM45.2 49.94c-4.19 0-8 3.54-8 9.42s3.81 9.42 8 9.42 8-3.54 8-9.42-3.81-9.42-8-9.42z" fill="#242424"/></svg>