<svg viewBox="0 0 128 128" width="128" height="128" xmlns="http://www.w3.org/2000/svg"><linearGradient id="a" x1="64" x2="64" y1="969.72" y2="1057.7" gradientTransform="translate(0 -950)" gradientUnits="userSpaceOnUse"><stop stop-color="#FEE133" offset=".5"/><stop stop-color="#FEDE32" offset=".612"/><stop stop-color="#FCD32F" offset=".708"/><stop stop-color="#FAC12B" offset=".797"/><stop stop-color="#F7A924" offset=".883"/><stop stop-color="#F6A323" offset=".9"/></linearGradient><path d="M64 119.9c-27.9 0-58-17.5-58-55.9S36.1 8.1 64 8.1c15.5 0 29.8 5.1 40.4 14.4C115.9 32.7 122 47.1 122 64s-6.1 31.2-17.6 41.4c-10.6 9.3-25 14.5-40.4 14.5z" fill="url(#a)"/><path d="M64 10.1c15 0 28.9 5 39 13.9 11.1 9.8 17 23.6 17 40 0 16.3-5.9 30.1-17 39.9-10.2 9-24.1 14-39 14-15 0-28.9-4.9-39-13.8C13.9 94.3 8 80.5 8 64s5.9-30.4 17-40.1C35.1 15 48.9 10.1 64 10.1m0-4C32.8 6.1 4 26.1 4 64c0 37.7 28.8 57.9 60 57.9s60-20.7 60-57.9c0-37.4-28.8-57.9-60-57.9z" fill="#EB8F00"/><path d="M52.7 103c-3.4 0-6.5-1.8-8.2-4.6s-1.5-6.2.4-8.9c4.3-6 10.9-9.2 19.1-9.2s14.8 3.2 19.1 9.2c1.9 2.7 2.1 6 .4 8.9-1.7 2.8-4.8 4.6-8.2 4.6-1.1 0-2.1-.2-3.1-.5-2.7-.9-5.4-1.3-8.2-1.3s-5.5.4-8.2 1.3c-1 .3-2.1.5-3.1.5zM84.7 49.9c4.2 0 8 3.5 8 9.4s-3.8 9.4-8 9.4-8-3.5-8-9.4 3.8-9.4 8-9.4zM43.2 49.9c-4.2 0-8 3.5-8 9.4s3.8 9.4 8 9.4 8-3.5 8-9.4-3.8-9.4-8-9.4z" fill="#242424"/><path d="M83.4 31.31l-.1-.01c-2.21-.05-2.76-3.23-.29-3.66 1.84-.3 3.85-.27 5.83.05 5.54.82 10.23 3.87 13.22 7.72 1.49 1.98-1.14 3.9-2.79 2.4-4.21-3.68-9.86-6.23-15.87-6.5zM44.85 31.31l.1-.01c2.21-.05 2.76-3.23.29-3.66-1.84-.3-3.85-.27-5.83.05-5.54.82-10.23 3.87-13.22 7.72-1.49 1.98 1.14 3.9 2.79 2.4 4.21-3.68 9.87-6.23 15.87-6.5z" fill="#EB8F00" stroke="#EB8F00" stroke-miterlimit="10"/></svg>