<svg viewBox="0 0 128 128" width="128" height="128" xmlns="http://www.w3.org/2000/svg" xmlns:xlink="http://www.w3.org/1999/xlink"><linearGradient id="a" x1="64" x2="64" y1="19.717" y2="107.7" gradientUnits="userSpaceOnUse"><stop stop-color="#FEE133" offset=".5"/><stop stop-color="#FEDE32" offset=".612"/><stop stop-color="#FCD32F" offset=".708"/><stop stop-color="#FAC12B" offset=".797"/><stop stop-color="#F7A924" offset=".883"/><stop stop-color="#F6A323" offset=".9"/></linearGradient><path d="M64 119.89C36.07 119.89 6 102.4 6 64S36.07 8.11 64 8.11c15.48 0 29.81 5.12 40.36 14.43C115.9 32.72 122 47.06 122 64c0 16.86-6.1 31.17-17.64 41.39-10.58 9.35-24.91 14.5-40.36 14.5z" fill="url(#a)"/><path d="M64 10.11c14.99 0 28.86 4.95 39.03 13.93C114.13 33.83 120 47.65 120 64c0 16.27-5.87 30.07-16.97 39.89-10.21 9.03-24.07 14-39.03 14-15.04 0-28.9-4.91-39.04-13.82C13.86 94.32 8 80.46 8 64c0-16.54 5.86-30.42 16.96-40.15C35.07 14.99 48.93 10.11 64 10.11m0-4c-31.15 0-60 20-60 57.89 0 37.68 28.85 57.89 60 57.89s60-20.73 60-57.89c0-37.37-28.85-57.89-60-57.89z" fill="#EB8F00"/><path d="M44.05 36.4c.05 0 .09-.01.14-.01 2.2-.14 2.64-3.33.22-3.66-1.89-.22-3.88-.16-5.87.21-5.47 1.01-10.16 4.16-12.99 8.14-1.39 2.01 1.28 3.85 2.85 2.31 4.03-3.85 9.63-6.48 15.65-6.99zM82.95 36.4c-.05 0-.09-.01-.14-.01-2.2-.14-2.64-3.33-.22-3.66 1.89-.22 3.88-.16 5.87.21 5.47 1.01 10.16 4.16 12.99 8.14 1.39 2.01-1.28 3.85-2.85 2.31-4.03-3.85-9.63-6.48-15.65-6.99z" fill="#EB8F00" stroke="#EB8F00" stroke-miterlimit="10"/><defs><path id="b" d="M94.51 54.37l-.2.2c-.11.11-.36.39-.51.5-.19.16-.42.35-.69.57-.29.22-.62.46-.98.71-.37.23-.77.47-1.2.68-.42.23-.9.39-1.38.57-.48.17-.99.26-1.5.37-.51.08-1.04.12-1.57.12h.14H86.31l-.31-.01c-.26 0-.3-.02-.4-.03-.16 0-.45-.05-.7-.09-.51-.11-1.02-.2-1.5-.37-.47-.18-.95-.34-1.37-.57-.43-.22-.83-.45-1.2-.68-.72-.48-1.31-.96-1.7-1.32-.4-.36-.63-.58-.63-.58l-.25-.25c-1.21-1.17-3.25-1.24-4.57-.17-1.04.85-1.3 2.16-.78 3.25l.15.3c.1.19.22.49.44.84.41.71 1.09 1.71 2.17 2.76.54.52 1.17 1.07 1.92 1.57.73.52 1.58.99 2.52 1.4.94.4 1.96.75 3.04.97.55.1 1.06.2 1.73.26.31.03.68.06.84.07l.77.03a19.5 19.5 0 0 0 3.34-.35c1.08-.22 2.1-.57 3.04-.97.93-.41 1.79-.88 2.52-1.4.75-.5 1.37-1.04 1.91-1.57.54-.52.97-1.04 1.33-1.51.17-.24.33-.46.48-.67.14-.23.28-.44.39-.63.27-.42.29-.58.39-.77l.11-.25c.67-1.49-.14-3.18-1.81-3.78-1.31-.47-2.78-.11-3.67.8z"/></defs><use fill="#242424" xlink:href="#b"/><defs><path id="c" d="M49.51 54.37l-.2.2c-.11.11-.36.39-.51.5-.19.16-.42.35-.69.57-.29.22-.62.46-.98.71-.37.23-.77.47-1.2.68-.42.23-.9.39-1.38.57-.48.17-.99.26-1.5.37-.51.08-1.04.12-1.57.12h.14H41.31l-.31-.01c-.26 0-.3-.02-.4-.03-.16 0-.45-.05-.7-.09-.51-.11-1.02-.2-1.5-.37-.47-.18-.95-.34-1.37-.57-.43-.22-.83-.45-1.2-.68-.72-.48-1.31-.96-1.7-1.32-.4-.36-.63-.58-.63-.58l-.25-.25c-1.21-1.17-3.25-1.24-4.57-.17-1.04.85-1.3 2.16-.78 3.25l.15.3c.1.19.22.49.44.84.41.71 1.09 1.71 2.17 2.76.54.52 1.17 1.07 1.92 1.57.73.52 1.58.99 2.52 1.4.94.4 1.96.75 3.04.97.55.1 1.06.2 1.73.26.31.03.68.06.84.07l.77.03a19.5 19.5 0 0 0 3.34-.35c1.08-.22 2.1-.57 3.04-.97.93-.41 1.79-.88 2.52-1.4.75-.5 1.37-1.04 1.91-1.57.54-.52.97-1.04 1.33-1.51.17-.24.33-.46.48-.67.14-.23.28-.44.39-.63.27-.42.29-.58.39-.77l.11-.25c.67-1.49-.14-3.18-1.81-3.78-1.31-.47-2.78-.11-3.67.8z"/></defs><clipPath id="d"><use xlink:href="#c"/></clipPath><path clip-path="url(#d)" fill="#242424" d="M25 53h33v13H25z"/><path d="M64 101c-8.54 0-14.63-6.29-16.47-9.78-.71-1.35-.85-2.81-.37-3.91.36-.83 1.01-1.31 1.79-1.31.26 0 .53.06.81.16 4.3 1.68 8.07 4.14 14.24 4.14 6.24 0 9.95-2.45 14.24-4.14.28-.11.55-.16.81-.16.78 0 1.43.48 1.79 1.31.48 1.1.34 2.56-.37 3.91C78.63 94.71 72.54 101 64 101z" fill="#242424"/></svg>