<svg viewBox="0 0 128 128" width="128" height="128" xmlns="http://www.w3.org/2000/svg"><linearGradient id="a" x1="64" x2="64" y1="-1028.9" y2="-1116.9" gradientTransform="matrix(1 0 0 -1 0 -1009.2)" gradientUnits="userSpaceOnUse"><stop stop-color="#FEE133" offset=".5"/><stop stop-color="#FEDE32" offset=".612"/><stop stop-color="#FCD32F" offset=".708"/><stop stop-color="#FAC12B" offset=".797"/><stop stop-color="#F7A924" offset=".883"/><stop stop-color="#F6A323" offset=".9"/></linearGradient><path d="M64 119.9c-27.9 0-58-17.5-58-55.9S36.1 8.1 64 8.1c15.5 0 29.8 5.1 40.4 14.4C115.9 32.7 122 47.1 122 64s-6.1 31.2-17.6 41.4c-10.6 9.3-25 14.5-40.4 14.5z" fill="url(#a)"/><path d="M64 10.1c15 0 28.9 4.9 39 13.9 11.1 9.8 17 23.6 17 40 0 16.3-5.9 30.1-17 39.9-10.2 9-24.1 14-39 14-15 0-28.9-4.9-39-13.8C13.9 94.3 8 80.5 8 64s5.9-30.4 17-40.2C35.1 15 48.9 10.1 64 10.1m0-4C32.8 6.1 4 26.1 4 64c0 37.7 28.8 57.9 60 57.9s60-20.7 60-57.9c0-37.4-28.8-57.9-60-57.9z" fill="#EB8F00"/><path d="M27.4 34.8c-2.2.4-2.3 3.6.1 3.7 4.9.1 10.2-1.7 14.3-5.5 1.5-1.3 2.8-2.9 3.7-4.5 1.2-2.2-1.6-3.7-3-2.1l-.1.1c-4 4.5-9.5 7.4-15 8.3zM84.5 26.4c-1.4-1.7-4.2-.1-3 2.1.9 1.6 2.2 3.2 3.7 4.5 4 3.7 9.4 5.6 14.3 5.5 2.5-.1 2.3-3.3.1-3.7-5.6-.9-11.1-3.8-15.1-8.4" fill="#EB8F00" stroke="#EB8F00" stroke-miterlimit="10"/><g fill="#242424"><path d="M84 48.9c4.2 0 8 3.5 8 9.4s-3.8 9.4-8 9.4-8-3.5-8-9.4 3.8-9.4 8-9.4zM43.5 48.9c-4.2 0-8 3.5-8 9.4s3.8 9.4 8 9.4 8-3.5 8-9.4-3.8-9.4-8-9.4z"/></g><path d="M63.89 82c-10.49 0-17.97 6.29-20.22 9.78-.87 1.35-1.04 2.81-.46 3.91.44.83 1.24 1.31 2.2 1.31.32 0 .65-.06.99-.16 5.29-1.68 9.91-4.14 17.49-4.14 7.67 0 12.22 2.45 17.49 4.14.34.11.67.16.99.16.96 0 1.76-.48 2.2-1.31.58-1.1.41-2.56-.46-3.91C81.86 88.29 74.37 82 63.89 82z" fill="#242424"/></svg>