<svg viewBox="0 0 128 128" width="128" height="128" xmlns="http://www.w3.org/2000/svg" xmlns:xlink="http://www.w3.org/1999/xlink"><defs><path id="a" d="M4 4h120v120H4z"/></defs><clipPath id="b"><use xlink:href="#a"/></clipPath><g clip-path="url(#b)"><linearGradient id="c" x1="64" x2="64" y1="89.201" y2="130.5" gradientUnits="userSpaceOnUse"><stop stop-color="#F78C1F" offset="0"/><stop stop-color="#F37F20" offset=".494"/><stop stop-color="#ED6D23" offset="1"/></linearGradient><path d="M17.5 130.5v-12.62c0-18.33 16.34-25.29 30.04-27.89 2.51-.48 8.97-.79 16.46-.79s13.94.31 16.46.79c13.71 2.6 30.04 9.55 30.04 27.89v12.62h-93z" fill="url(#c)"/><path d="M64 90.7c7.4 0 13.74.3 16.18.76 13.15 2.5 28.82 9.11 28.82 26.41V129H19v-11.12c0-17.31 15.67-23.92 28.82-26.41C50.26 91 56.6 90.7 64 90.7m0-3c-6.94 0-13.88.27-16.74.81C29.22 91.94 16 100.9 16 117.88V132h96v-14.12c0-16.98-13.22-25.94-31.26-29.36-2.86-.55-9.8-.82-16.74-.82z" fill="#DA6727"/></g><g clip-path="url(#b)"><radialGradient id="d" cx="61.652" cy="56.204" r="22.17" gradientUnits="userSpaceOnUse"><stop stop-color="#554138" offset="0"/><stop stop-color="#3C2C23" offset="1"/></radialGradient><path d="M34.82 93.35c-.53-.54-1.11-1.02-1.91-1.04-1.32-.03-3.36-.23-4.97-1.12-.47-.26-.87-.62-1.17-1.05 1.13-.21 2.75-.79 3.73-2.69 1.6-3.08-.67-5.81-3.32-8.37-4.33-4.19-9.21-14.52-3.1-24.53 1.15-.15 17.81.08 22.03.08H64.1v45.61c-19.76 0-23.67-1.18-29.28-6.89z" fill="url(#d)"/><path d="M26.09 80.03c3.08 2.62 3.68 4.62 2.72 6.84-.9 2.08-4.48 2.31-4.48 2.31s1.92 4.75 8.54 4.5c.18-.01.44.18.83.58 5.07 5.16 9.06 6.81 21.39 7.23v-.87c-2.15-.55-6.08-2.28-6.08-2.28-7.12-.75-9.69-2.46-13.09-5.92-.43-.44-1.43-1.46-2.99-1.49-.76-.02-2.47.07-3.72-.49.89-.59 1.92-1.47 2.44-2.47 2.22-4.28-1.27-7.96-3.39-9.83-5.06-4.47-7.92-13.83-3.69-22.61l.36-.59s-3.41.01-3.38.07c-4.35 9.8-1.47 19.91 4.54 25.02z" fill="#291D15"/></g><g clip-path="url(#b)"><radialGradient id="e" cx="64.243" cy="55.537" r="22.17" gradientUnits="userSpaceOnUse"><stop stop-color="#554138" offset="0"/><stop stop-color="#3C2C23" offset="1"/></radialGradient><path d="M93.41 93.35c.53-.54 1.11-1.02 1.91-1.04 1.32-.03 3.36-.23 4.97-1.12.47-.26.87-.62 1.17-1.05-1.13-.21-2.75-.79-3.73-2.69-1.6-3.08.67-5.81 3.32-8.37 4.33-4.19 9.21-14.52 3.1-24.53-1.15-.15-17.81.08-22.03.08H64.13v45.61c19.76 0 23.67-1.18 29.28-6.89z" fill="url(#e)"/><path d="M102.14 80.03c-3.08 2.62-3.68 4.62-2.72 6.84.9 2.08 4.48 2.31 4.48 2.31s-1.92 4.75-8.54 4.5c-.18-.01-.44.18-.83.58-5.07 5.16-9.06 6.81-21.39 7.23v-.87c2.15-.55 6.08-2.28 6.08-2.28 7.12-.75 9.69-2.46 13.09-5.92.43-.44 1.43-1.46 2.99-1.49.76-.02 2.47.07 3.72-.49-.89-.59-1.92-1.47-2.44-2.47-2.22-4.28 1.27-7.96 3.39-9.83 5.06-4.47 7.92-13.83 3.69-22.61l-.36-.59s3.03-.78 3-.73c.31.56.69 1.53.84 1.9 3.66 9.45.78 19-5 23.92z" fill="#291D15"/></g><g clip-path="url(#b)"><path d="M67.96 76.05c-.1-.04-.21-.07-.32-.08h-6.99c-.11.01-.21.04-.32.08-.63.26-.98.91-.68 1.61s1.69 2.66 4.49 2.66 4.19-1.96 4.49-2.66c.31-.69-.04-1.35-.67-1.61z" fill="#E59600"/><path d="M56.95 89.77c4.63-1.45 10.27-1.38 14.66 0 .8.25 1.2-.57.65-1.41-.78-1.19-3.67-3.46-7.98-3.46s-7.2 2.28-7.98 3.46c-.55.85-.15 1.67.65 1.41z" fill="#795548"/><path d="M43.68 67.27c.01-.52.1-1.02.22-1.5.97-.13 2-.33 3.15-.67a9.873 9.873 0 0 0 3.91-2.24c1.07 1.02 1.76 2.62 1.72 4.43-.07 3.06-2.13 5.54-4.62 5.53s-4.44-2.49-4.38-5.55zM84.89 67.27c-.01-.52-.1-1.02-.22-1.5-.97-.13-2-.33-3.15-.67a9.873 9.873 0 0 1-3.91-2.24c-1.07 1.02-1.76 2.62-1.72 4.43.07 3.06 2.13 5.54 4.62 5.53s4.44-2.49 4.38-5.55z" fill="#444"/><path d="M55.41 58.42c-1.19-1.04-3.75-2.4-8.12-1.63s-6.31 2.93-7.07 4.31c-.34.61-.12 1.21.25 1.53.34.3 1.21.48 2.06.03s2.46-1.61 5.42-2.15c2.96-.5 4.87.04 5.83.17.95.13 1.71-.34 1.93-.73.22-.43.22-1.07-.3-1.53zM88.14 61.13c-.76-1.38-2.7-3.54-7.07-4.31s-6.93.59-8.12 1.63c-.52.46-.52 1.1-.29 1.52.22.4.98.86 1.93.73s2.87-.67 5.83-.17c2.95.54 4.56 1.71 5.42 2.15.85.45 1.72.27 2.06-.03.35-.31.57-.91.24-1.52z" fill="#6D4C41"/></g><g clip-path="url(#b)"><path d="M63.17 111c-4 0-7.26-3.22-7.26-7.17v-8.98h16.16v8.98c0 3.96-3.26 7.17-7.26 7.17h-1.64z" fill="#7A4C32"/><path d="M71.08 95.85v7.98c0 3.4-2.81 6.17-6.26 6.17h-1.65c-3.45 0-6.26-2.77-6.26-6.17v-7.98h14.17m2-2H54.92v9.98c0 4.51 3.7 8.17 8.26 8.17h1.65c4.56 0 8.26-3.66 8.26-8.17v-9.98h-.01z" fill="#663B22"/></g><g clip-path="url(#b)"><path d="M36.67 80.26c-5.36 0-9.71-4.67-9.71-10.41s4.36-10.41 9.71-10.41h54.65c5.36 0 9.71 4.67 9.71 10.41s-4.36 10.41-9.71 10.41H36.67z" fill="#7A4C32"/><path d="M91.33 60.43c4.8 0 8.71 4.22 8.71 9.41s-3.91 9.41-8.71 9.41H36.67c-4.8 0-8.71-4.22-8.71-9.41s3.91-9.41 8.71-9.41h54.66m0-2H36.67c-5.89 0-10.71 5.14-10.71 11.41 0 6.28 4.82 11.41 10.71 11.41h54.65c5.89 0 10.71-5.14 10.71-11.41.01-6.27-4.81-11.41-10.7-11.41z" fill="#663B22"/><linearGradient id="f" x1="64" x2="64" y1="102.59" y2="20.825" gradientUnits="userSpaceOnUse"><stop stop-color="#8D5738" offset="0"/><stop stop-color="#97603D" offset=".216"/><stop stop-color="#A26941" offset=".573"/><stop stop-color="#A56C43" offset="1"/></linearGradient><path d="M64 103.27c-15.66 0-32.52-12.14-32.52-38.81 0-12.38 3.56-23.79 10.02-32.13 6.04-7.8 14.25-12.27 22.5-12.27s16.45 4.47 22.5 12.27c6.46 8.34 10.02 19.75 10.02 32.13 0 12.09-3.51 22.19-10.14 29.21-5.86 6.19-13.81 9.6-22.38 9.6z" fill="url(#f)"/><path d="M64 21.07c7.94 0 15.85 4.33 21.71 11.88 6.33 8.16 9.81 19.35 9.81 31.52 0 11.83-3.41 21.7-9.87 28.52-5.67 5.99-13.36 9.29-21.65 9.29s-15.98-3.3-21.65-9.29c-6.46-6.82-9.87-16.69-9.87-28.52 0-12.16 3.49-23.35 9.81-31.52C48.15 25.4 56.06 21.07 64 21.07m0-2c-17.4 0-33.52 18.61-33.52 45.39 0 26.64 16.61 39.81 33.52 39.81S97.52 91.1 97.52 64.46c0-26.78-16.12-45.39-33.52-45.39z" fill="#875334"/><radialGradient id="g" cx="64.497" cy="41.52" r="36.285" gradientTransform="matrix(1 0 0 .8642 0 5.638)" gradientUnits="userSpaceOnUse"><stop stop-color="#554138" offset="0"/><stop stop-color="#3C2C23" offset="1"/></radialGradient><path d="M52.25 18.65C39.98 23 38.76 15.3 38.76 15.3c-6.66 3.32-2.28 10.45-2.28 10.45s-6.75-.5-9.64 5.34c-3.02 6.11-.36 10.78-.36 10.78s-6.12 2.19-3.57 9.69c1.69 4.98 6.59 8.25 6.59 8.25-.62 10.74 2.55 16.62 2.55 16.62s4.21-18.45 3.81-21.27c0 0 7.76-1.54 16.57-6.58 5.95-3.41 10.02-7.41 16.71-8.91 10.18-2.29 12.45 5.08 12.45 5.08s9.42-1.81 12.26 11.27c1.17 5.38 1.67 14.37 2.31 19.84-.06-.48 3.5-6.4 4.12-12.4.23-2.23 3.61-7.67 4.63-11.72 2.21-8.8-.69-15.74-2.06-17.81-2.5-3.79-8.49-9-12.97-8.24.23-4.8-3.55-9.25-8.1-10.78-12.45-4.18-25.87 2.44-29.53 3.74z" fill="url(#g)"/><path d="M21.11 53.98c.87 2.52 2.53 3.88 2.53 3.88s.81-2.27 1.34-2.86l-.55-.87c-.21-.42-.36-.77-.48-1.11-2.13-6.26 3.11-9.73 3.33-9.88l1.18-.76-.68-1.23c-.09-.17-2.21-4.12.4-9.38 2.33-4.71 7.75-3.73 7.98-3.69l2.95.59-1.31-2.71c-.1-.22-2.19-4.67.33-8.01.55 1.01 1.43 2.15 2.84 3 2.85 1.73 6.8 1.72 11.75-.03.79-.28 1.68-.76 2.8-1.38 4.53-2.47 12.11-6.61 24.12-2.81 4.34 1.38 8.92 5.17 8.74 8.89l-.09 1.87 1.84-.31c3.6-.6 9.4 3.83 11.47 7.59 5.99 10.9 1.53 20.03 1.53 20.03l1.5 3.06s1.1-1.04 1.92-3.35c3.38-9.62-.25-18.25-2.44-21.39-2.54-3.63-7.91-8.64-12.82-8.97-.79-4.72-5.84-8.72-10.73-10.27-13.23-4.19-21.84.51-26.47 3.03-.96.53-1.79.98-2.36 1.18-3.97 1.41-7.13 1.52-9.15.32-1.97-1.17-2.32-3.23-2.33-3.31l-.34-2.43-2.01 1.41c-4.24 2.99-4.4 7.63-3.6 10.88-2.93.12-6.77 1.36-8.8 5.47-2.42 4.9-1.56 8.99-.86 10.95-2.53 2.14-5.59 6.65-3.53 12.6z" fill="#291D15"/></g><path d="M67.81 78.05c-.1-.04-.21-.07-.32-.08H60.5c-.11.01-.21.04-.32.08-.63.26-.98.91-.68 1.61s1.69 2.66 4.49 2.66 4.19-1.96 4.49-2.66c.31-.69-.03-1.35-.67-1.61z" fill="#875334"/><path d="M56.67 91.77c4.63-1.45 10.27-1.38 14.66 0 .8.25 1.2-.57.65-1.41-.78-1.18-3.67-3.46-7.98-3.46s-7.2 2.28-7.98 3.46c-.55.85-.15 1.67.65 1.41z" fill="#473530"/><g fill="#42312C"><path d="M43.33 68.27c.01-.52.1-1.02.22-1.5.97-.13 2-.33 3.15-.67a9.873 9.873 0 0 0 3.91-2.24c1.07 1.02 1.76 2.62 1.72 4.43-.07 3.06-2.13 5.54-4.62 5.53-2.48-.01-4.44-2.49-4.38-5.55zM84.67 68.27c-.01-.52-.1-1.02-.22-1.5-.97-.13-2-.33-3.15-.67a9.873 9.873 0 0 1-3.91-2.24c-1.07 1.02-1.76 2.62-1.72 4.43.07 3.06 2.13 5.54 4.62 5.53 2.48-.01 4.44-2.49 4.38-5.55z"/></g><g fill="#42312C"><path d="M55.39 58.29c-1.2-1.14-3.8-2.64-8.22-1.79s-6.39 3.22-7.16 4.74c-.34.67-.12 1.33.25 1.68.34.33 1.23.52 2.09.03s2.5-1.78 5.49-2.37c3-.55 4.94.05 5.9.19.97.14 1.74-.37 1.95-.81.23-.47.23-1.17-.3-1.67zM88 61.26c-.77-1.52-2.74-3.89-7.16-4.74s-7.02.65-8.22 1.79a1.43 1.43 0 0 0-.3 1.67c.22.44.99.95 1.95.81.97-.14 2.91-.74 5.9-.19 2.99.6 4.62 1.88 5.49 2.37.86.49 1.75.3 2.09-.03.37-.35.59-1 .25-1.68z"/></g></svg>