<svg viewBox="0 0 128 128" width="128" height="128" xmlns="http://www.w3.org/2000/svg" xmlns:xlink="http://www.w3.org/1999/xlink"><linearGradient id="a" x1="79.869" x2="94.529" y1="143.31" y2="172.94" gradientTransform="rotate(-9.056 -777.208 279.376)" gradientUnits="userSpaceOnUse"><stop stop-color="#FFCA28" offset=".545"/><stop stop-color="#FFB300" offset=".834"/><stop stop-color="#E59600" offset=".995"/></linearGradient><path d="M67.17 13.34c-2.51-4.06-8.2-7.22-12.91-6.44-5.27.87-8.11 4.67-8.86 9.49-.27 1.75-.22 3.49.08 4.72.04.15.33 1.22.35 1.56.2 1.3-2.32 2.59-2.61 4.02-.22 1.08 2.03 1.77 2.21 1.96.88.97-.51 5.58 5.66 6.04 2.37.18 1.91.03 2.61.3 1.09.42.99 3.32.99 3.32s.61 4.78 4.69 3.51c4.66-1.44 4.84-4.74 4.84-4.74s-1.73-4.6 1.05-9.38c2.21-3.82 3.52-11.75 1.9-14.36z" fill="url(#a)"/><linearGradient id="b" x1="43.107" x2="68.218" y1="25.03" y2="23.893" gradientUnits="userSpaceOnUse"><stop stop-color="#EDA600" offset="0"/><stop stop-color="#D18900" offset=".871"/></linearGradient><path d="M55.74 7.78c3.89 0 8.44 2.62 10.58 6.08 1.32 2.13.24 9.61-1.93 13.34-2.64 4.54-1.55 8.9-1.21 9.99-.11.58-.73 2.63-4.12 3.68-.36.11-.7.17-1 .17-1.85 0-2.32-2.34-2.39-2.78.03-1.14-.09-3.61-1.63-4.2l-.08-.03c-.49-.19-.6-.2-1.23-.23-.3-.01-.78-.04-1.58-.1-3.8-.28-4.09-2.18-4.35-3.86-.12-.74-.22-1.39-.65-1.86-.18-.19-.38-.29-.73-.45-.67-.31-1.07-.55-1.21-.72.14-.38.65-.9 1.07-1.33.79-.82 1.69-1.74 1.54-2.91-.03-.32-.16-.86-.34-1.56l-.03-.13c-.28-1.16-.3-2.79-.06-4.33.44-2.81 2.06-7.67 8.04-8.65.41-.08.85-.12 1.31-.12m0-1c-.5 0-.99.04-1.48.12-5.27.87-8.11 4.67-8.86 9.49-.27 1.75-.22 3.49.08 4.72.04.15.33 1.22.35 1.56.2 1.3-2.32 2.59-2.61 4.02-.22 1.08 2.03 1.77 2.21 1.96.88.97-.51 5.58 5.66 6.04 2.37.18 1.91.03 2.61.3 1.09.42.99 3.32.99 3.32s.47 3.72 3.4 3.72c.39 0 .82-.07 1.29-.21 4.66-1.44 4.84-4.74 4.84-4.74s-1.73-4.6 1.05-9.38c2.23-3.83 3.53-11.76 1.92-14.37-2.28-3.64-7.08-6.55-11.45-6.55z" fill="url(#b)"/><path d="M46.05 31.23c.86.05 1.7-.15 2.43-.69.79-.59.25-1.24-.66-.86-.55.23-1.32.35-2.02.22l.25 1.33z" fill="#795548"/><ellipse transform="rotate(-1.812 49.632 23.391)" cx="49.65" cy="23.39" rx="1.13" ry="1.74" fill="#49362E"/><path d="M48.77 20.82c-1.12.26-1.34-.48-.94-1.04.29-.42.98-.74 2.25-.42 1.2.3 1.66 1.03 1.97 1.47.3.44.24.86-.04.89-.38.02-1.86-1.22-3.24-.9z" fill="#613E31"/><radialGradient id="c" cx="46.529" cy="7.699" r="13.237" gradientTransform="rotate(7.759 55.054 22.572)" gradientUnits="userSpaceOnUse"><stop stop-color="#5B3127" offset="0"/><stop stop-color="#40211B" offset="1"/></radialGradient><path d="M70.23 13.7c-1.48-3.71-4.82-4.34-4.82-4.34s-1.29-5.8-9.56-4.44c-2.54.42-4.15 2.04-5.66 2.76-1.3.62-2.67.5-2.94-1.78-1.74.93-2.5 2.36-1.55 4.74-1.65.41-2.25 1.86-2.59 3.52-.37 1.85.62 3.56 2.31 4.31.38-1.83 2.47-2.64 4.13-2.65 1.46 0 2.99.29 4.34-.26.52-.21 1-.54 1.5-.78h.18c1.78.95-.56 5.16 1.42 7.62.39.49.72.31.72.31l.79-1.17c.6-.8 1.15-1.49 1.9-1.33 2.22.49 1.82 4.45-.81 5.32-.26.09.94 2.2 1.05 2.32 1.52 1.54 2 1.93 4.06 2.02 1.9.08 3.46-1.68 3.46-1.68s-2.32-1.08.49-3.59c2.78-2.48 1.03-5.33 1.03-5.33s1.7-2.69.55-5.57z" fill="url(#c)"/><path d="M58.22 4.26c-.74 0-1.55.07-2.44.21-1.83.3-3.17 1.17-4.35 1.94-.51.33-.98.65-1.43.86-.25.12-.65.27-1.03.27-.18 0-.35-.03-.51-.12-.49-.27-.68-1-.74-1.57l-.08-.67-.6.32c-1.99 1.06-2.63 2.69-1.93 4.85-1.49.66-2.18 2.24-2.44 3.73-.36 2.03.63 3.96 2.58 4.83l.32-.88c-1.24-.77-2.22-2.34-2-3.77.3-1.89 1.05-2.87 2.24-3.17l.52-.13-.2-.49c-.69-1.74-.45-2.94.79-3.82.2.76.56 1.29 1.09 1.58.28.16.61.24.96.24.44 0 .92-.12 1.43-.37.51-.24 1.01-.57 1.55-.92 1.1-.72 2.35-1.54 3.99-1.81.85-.14 1.61-.2 2.31-.2 5.67 0 6.68 4.09 6.72 4.29l.07.29.3.06c.13.02 3.11.64 4.47 4.06 1.04 2.62-.47 5.14-.48 5.16l-.15.24.14.24c.06.1 1.5 2.56-.94 4.75-1.67 1.49-1.69 2.6-1.42 3.27.12.3.33.56.54.75-.9 1.24-3.57 1.29-3.57 1.29.41.31 1.08.35 1.45.35.13 0 .23-.01.26-.01 2.91-.07 3.59-2.22 3.59-2.22s-.17.04-.39.04c-.38 0-.91-.12-1.08-.76-.14-.53.35-1.25 1.23-2.03 2.54-2.26 1.62-4.86 1.25-5.67.39-.75 1.46-3.17.43-5.76-1.32-3.31-4-4.31-4.88-4.55-.37-1.04-2.03-4.7-7.57-4.7z" fill="#301712"/><path d="M63.96 100.48a15.516 15.516 0 0 1-5.76-9.12l-4.77-22.63 14.43-1.59 1.34 21.94c.09 1.43.66 2.81 1.6 3.89l13.75 15.69-4.45 4.17-16.14-12.35z" fill="#646464"/><path d="M67.4 67.69l1.31 21.41c.09 1.54.71 3.03 1.72 4.19l13.43 15.32-3.79 3.55-15.82-12.08a15.034 15.034 0 0 1-5.57-8.83l-4.65-22.09 13.37-1.47m.94-1.11l-15.5 1.71 4.88 23.17c.79 3.75 2.9 7.09 5.94 9.42l16.49 12.6 5.11-4.79-14.07-16.06c-.88-1-1.4-2.26-1.48-3.59l-1.37-22.46z" fill="#4F4F4F"/><path d="M47.3 119.08l-1.6-22.77c-.27-3.8.02-7.61.84-11.33l4.45-20.03 16.73-1.53c.27 2.43.83 7.45.83 8.05 0 5.15-3.43 7.49-7.13 9.24-.24.12-.34.16-5.42 13.68l-.03.12-2.9 24.58H47.3z" fill="#7C7C7C"/><path d="M67.27 63.96c.34 2.98.77 7.01.77 7.5 0 5.12-3.53 7.22-6.85 8.79-.5.24-.53.25-5.68 13.95-.03.08-.05.15-.06.23l-2.85 24.14h-4.85l-1.55-22.3c-.26-3.75.02-7.51.83-11.19L51.4 65.4l15.87-1.44m.88-1.09l-17.58 1.6-4.53 20.39a39.83 39.83 0 0 0-.85 11.47l1.63 23.24h6.67l2.95-25.03s5.01-13.32 5.17-13.4c3.28-1.55 7.42-3.9 7.42-9.69.01-.8-.88-8.58-.88-8.58z" fill="#5B5B5B"/><radialGradient id="d" cx="58.942" cy="54.206" r="14.918" gradientUnits="userSpaceOnUse"><stop stop-color="#F78C1F" offset=".367"/><stop stop-color="#F37F21" offset=".68"/><stop stop-color="#ED6D23" offset="1"/></radialGradient><path d="M53 73.01c-1.99 0-3.62-1.96-3.62-4.36l2.15-22.45c.45-4.27 2.62-7.95 4.42-9.23 1.83-1.31 4.54-1.54 4.57-1.55.14-.01.3-.02.46-.02 1.06 0 3.04.28 4.33 2.17.77 1.12 1.43 3.49 1.58 5.64l1.61 25.48c0 2.37-1.62 4.33-3.62 4.33H53z" fill="url(#d)"/><path d="M60.99 35.9c1.18 0 2.82.34 3.92 1.95.72 1.06 1.35 3.32 1.49 5.38L68 68.68c-.01 2.12-1.41 3.83-3.11 3.83h-11.9c-1.71 0-3.1-1.71-3.11-3.82l2.15-22.44c.42-3.98 2.47-7.64 4.22-8.88 1.72-1.22 4.29-1.45 4.31-1.46.13 0 .28-.01.43-.01m0-1c-.18 0-.34.01-.5.02 0 0-2.84.23-4.82 1.64-2.1 1.5-4.2 5.48-4.63 9.59l-2.15 22.5c0 2.69 1.84 4.86 4.12 4.86H64.9c2.27 0 4.11-2.18 4.11-4.86L67.4 43.17c-.14-2.14-.79-4.62-1.66-5.88-1.3-1.9-3.26-2.39-4.75-2.39z" fill="#DA6727"/><linearGradient id="e" x1="61.918" x2="61.918" y1="48.367" y2="79.004" gradientUnits="userSpaceOnUse"><stop stop-color="#FFB300" offset="0"/><stop stop-color="#FFCA28" offset="1"/></linearGradient><path fill="url(#e)" d="M59.58 61.7l6.97-1.14-2.3-14.1-6.97 1.14z"/><linearGradient id="f" x1="63.037" x2="63.037" y1="48.367" y2="79.004" gradientUnits="userSpaceOnUse"><stop stop-color="#FFB300" offset="0"/><stop stop-color="#FFCA28" offset="1"/></linearGradient><circle cx="63.04" cy="61.14" r="3.58" fill="url(#f)"/><linearGradient id="g" x1="65.234" x2="65.234" y1="39.567" y2="67.717" gradientTransform="matrix(1.0283 -.065 -.065 1.149 -2.44 5.592)" gradientUnits="userSpaceOnUse"><stop stop-color="#FFB300" offset="0"/><stop stop-color="#FFCA28" offset="1"/></linearGradient><path d="M57.26 74.44c1.79.78 3.42-.37 4.26-2.29l4.67-9.35-6.47-2.82-3.62 10.11c-.84 1.91-.62 3.57 1.16 4.35z" fill="url(#g)"/><path d="M63.43 47.61l2.09 12.84c0 .03.01.05.02.08.15.6.06 1.24-.23 1.8-.02.04-.04.08-.05.12l-4.52 9.02c-.01.02-.02.03-.02.05-.65 1.49-2.57 3.42-3.72 3.42-.1 0-.19-.02-.27-.05-.82-.36-.45-2.69.4-4.64l.03-.06 3.23-9.06c.06-.16.07-.33.05-.5l-1.99-12.2 4.98-.82m.82-1.15l-6.97 1.14 2.15 13.19-3.23 9.06c-.82 1.87-1.67 5.18.12 5.96.21.09.43.13.67.13 1.73 0 3.92-2.37 4.64-4.02l4.57-9.11h-.01c.42-.79.52-1.68.32-2.51l-2.26-13.84z" fill="#EDA600"/><path d="M55.14 43.22c-.24-1.32.05-2.66.82-3.77a5.007 5.007 0 0 1 4.14-2.17c2.43 0 4.52 1.74 4.95 4.14l1.67 9.2-9.91 1.8-1.67-9.2z" fill="#ED6D23"/><path d="M60.1 37.78c2.19 0 4.07 1.57 4.46 3.73l1.58 8.7-8.93 1.62-1.58-8.7c-.22-1.19.04-2.4.74-3.39s1.73-1.66 2.92-1.88c.27-.05.54-.08.81-.08m0-1a5.538 5.538 0 0 0-5.45 6.53L56.41 53l10.9-1.98-1.76-9.69a5.552 5.552 0 0 0-5.45-4.55z" fill="#DA6727"/><defs><path id="h" d="M56.86 71.03l.25-.72s-1.09-1.15-2.03-.26c-.82.63-3.4 2.07-3.8 3.36-.41 1.29-.59 3.58-.44 4.72.05.35.26 3 2.51 3.99 2.25.98 5.87 1.51 7.75-3.99.44-.62.52-2.06.66-3.4l-.15-1.66c-.11-.63-.99-1.32-.99-1.32l-.45.87-3.31-1.59z"/></defs><clipPath id="i"><use xlink:href="#h"/></clipPath><g clip-path="url(#i)"><linearGradient id="j" x1="66.359" x2="64.749" y1="61.752" y2="68.395" gradientTransform="rotate(4.289 -97.459 -61.307)" gradientUnits="userSpaceOnUse"><stop stop-color="#FFB300" offset="0"/><stop stop-color="#FFCA28" offset="1"/></linearGradient><path d="M59.73 71.73c-.27-.13-.49-.26-.71-.38-.45-.25-.87-.48-1.52-.72-.8-.29-3.89 1.73-4.59 2.16-.23.14-.45.28-.65.42-.27.18-.44.46-.5.74-.02.05-.06.13-.08.22-.01.04-.01.07 0 .11 0 .01.05 1.52-.18 2.39-.09.34.1.84.44.89 0 0-.03.79-.09 1.2-.07.48 0 .62.02.84.03.36.22.6.51.71.35.14.45-.01.61.07s.15.27.23.47c.22.53.71.59.9.57.62-.07.72-.48.83-.5.2-.03.27.13.32.25.11.26.44.35.73.38.73-.07 1.13-.77 1.17-.68.15.35.83.5 1.16.28.28-.19.51.02 1.77-3.13.26-.56.59-2 .73-3.33l.07-.63c.12-1.01-.34-1.92-1.17-2.33z" fill="url(#j)"/><linearGradient id="k" x1="71.219" x2="74.163" y1="47.538" y2="51.764" gradientTransform="rotate(8.048 -97.653 -60.959)" gradientUnits="userSpaceOnUse"><stop stop-color="#FFB300" offset="0"/><stop stop-color="#FFCA28" offset="1"/></linearGradient><path d="M59.69 71.98c-.82-.41-1.39-.56-2.27-1.12-.8-.52-4.11 1.36-5.09 2.63-.4.27-.68.84-.4 1.24.27.4.4.46.8.18 0 0 .09.42.13.52.24.5.86.41 1.05.4.35-.02.53.03.62.37.08.32.37.64.68.75.35.12.6.11.96-.07.17-.08.29 0 .38.17.13.22.39.52.62.58.42.12.65.03.93-.03.18-.04.26-.03.4.08.12.1.2.55.53.67 1.44.51 1.47-2.53 1.68-4.33.09-.85-.27-1.67-1.02-2.04z" fill="url(#k)"/><path fill="none" stroke="#EDA600" stroke-linecap="round" stroke-linejoin="round" stroke-miterlimit="10" d="M42.83 84.26l.88-3.77M44.89 84.61l.85-3.31"/><path fill="none" stroke="#EDA600" stroke-linecap="round" stroke-linejoin="round" stroke-miterlimit="10" stroke-width=".75" d="M57.22 80.9l.59-2.33M55.05 80.97l.81-2.76M53.13 80.35l.62-3.18"/><path d="M43.61 80.35c-.55-.05-.88-.22-1.06-.5-.17.16-.42.32-.82.37-.34.04-1-.09-1.29-.8-.03-.07-.05-.15-.07-.21 0-.01 0-.02-.01-.03-.14.01-.32.01-.56-.08-.43-.17-.7-.55-.74-1.03-.02-.29.21-2.01.25-2.33.04-.26.13-.74.18-1.05a.899.899 0 0 1-.22-.25c-.18-.28-.25-.65-.16-.96.22-.81.17-2.26.17-2.28a.472.472 0 0 1 .01-.2c.02-.13.07-.24.1-.3.05-.31.29-.67.63-.9.2-.14.43-.28.67-.43.67-.42 1.44-.89 2.16-1.78 1.06-.94 1.91-.73 2.76-.42.68.25 1.11.49 1.57.75.24.13.45.25.7.37.97.48 1.51 1.54 1.38 2.7l-.07.63c-.15 1.34-.47 2.83-.77 3.45-1.21 3.12-1.75 3.99-2.32 4.5-.36.32-.84.46-1.24.37a.854.854 0 0 1-.24-.09c-.21.22-.53.45-1.01.5zm-1.03-1.39c.27 0 .47.16.61.48.02.06.15.13.42.16.29-.03.49-.28.6-.43.08-.1.21-.25.43-.23.13.02.25.11.3.23.21.06.45.02.65-.17.48-.42.98-1.24 2.13-4.23.23-.49.56-1.86.71-3.24l.07-.63c.1-.84-.28-1.6-.97-1.94-.26-.13-.49-.25-.7-.37-.46-.26-.87-.49-1.49-.71-.75-.27-1.25-.39-1.96.23-.75.94-1.57 1.45-2.3 1.9-.23.14-.44.27-.64.41-.18.12-.31.31-.34.5l-.03.1c-.02.04-.04.08-.04.12s.06 1.6-.19 2.54c-.03.1 0 .25.07.35.03.05.06.07.07.07.1.02.19.07.25.15s.08.19.06.29c0 0-.17.9-.23 1.31-.09.56-.26 1.97-.25 2.16.02.2.1.33.27.39.11.04.16.04.23.03.09-.01.24-.03.41.05.28.12.34.36.39.52.01.04.02.09.04.13.15.36.47.34.51.33.28-.03.37-.15.47-.26.07-.09.17-.21.35-.24.04.01.07 0 .1 0zM56.04 81.92c-.55-.05-.89-.22-1.06-.5-.17.16-.42.32-.82.37-.35.03-1-.09-1.29-.8-.03-.07-.05-.15-.07-.21 0-.01 0-.02-.01-.03-.14.01-.32.01-.56-.08-.43-.17-.7-.55-.74-1.03 0-.04-.01-.08-.02-.12-.03-.17-.06-.38 0-.8.04-.24.06-.65.08-.91-.1-.07-.18-.16-.26-.27-.18-.28-.25-.66-.16-.96.22-.81.17-2.26.17-2.27a.472.472 0 0 1 .01-.2c.02-.13.07-.23.1-.29.05-.32.29-.67.63-.91.2-.14.43-.28.67-.43.7-.43 2.24-1.41 2.24-1.41.28-.19 1.75-1.12 2.67-.78.68.25 1.13.5 1.57.75.22.12.44.24.7.37.97.48 1.51 1.54 1.38 2.7l-.07.63c-.15 1.35-.48 2.83-.77 3.45-1.16 2.9-1.49 3.07-1.84 3.25-.32.21-.72.25-1.09.14-.14-.04-.26-.1-.37-.18-.25.23-.61.48-1.09.52zm-1.03-1.38c.27 0 .47.16.61.48.02.06.15.13.42.16.3-.03.56-.31.72-.47.12-.12.25-.25.46-.21.12.02.24.11.29.23.01.02.08.08.21.12.17.05.34.03.4-.01.04-.03.09-.05.13-.08.15-.08.43-.22 1.5-2.89.23-.49.56-1.85.71-3.23l.07-.64c.1-.84-.28-1.6-.97-1.94-.27-.13-.5-.26-.73-.39-.43-.24-.84-.47-1.47-.7-.42-.16-1.43.32-2.01.71-.01 0-1.55.99-2.26 1.42-.23.14-.44.27-.64.41-.18.12-.31.31-.34.5l-.03.1c-.02.04-.03.08-.04.11 0 .04.06 1.6-.19 2.54-.03.1 0 .25.07.35.05.07.08.09.08.09.19.03.33.2.32.39 0 .03-.03.82-.1 1.24-.05.3-.03.43 0 .56.01.06.02.12.03.19.02.2.1.33.27.4.11.04.16.04.23.03.09-.01.24-.03.41.05.26.13.33.37.37.53.01.04.02.09.04.13.15.37.5.34.51.33.28-.03.37-.15.47-.26.07-.09.17-.21.35-.24.04-.01.07-.01.11-.01z" fill="#EDA600"/></g><path d="M39.02 123.5a.51.51 0 0 1-.51-.5v-1.27a3.47 3.47 0 0 1 2.22-3.23l6.18-2.04h6.66c.42.52 1.66 2.17 1.66 3.57v2.8c0 .17-.07.33-.19.46s-.28.19-.46.19l-15.56.02z" fill="#4568AD"/><path d="M53.35 116.96c.54.7 1.4 2.04 1.4 3.07v2.8c0 .05-.02.08-.04.1s-.05.04-.1.04l-15.59.03.01-1.26a2.99 2.99 0 0 1 1.88-2.76l6.1-2.01h6.34m.47-1.01h-6.98l-6.28 2.07c-1.52.6-2.53 2.06-2.54 3.69l-.01 1.27c0 .55.45 1 1 1l15.59-.02c.63 0 1.15-.51 1.15-1.15v-2.8c0-1.89-1.93-4.06-1.93-4.06z" fill="#315499"/><path d="M77.93 122.66c-.13 0-.26-.05-.36-.15l-.89-.9a3.497 3.497 0 0 1-.72-3.86l2.93-5.81 4.71-4.71c.67.07 2.71.36 3.7 1.35l1.98 1.98c.25.25.25.66 0 .91L78.27 122.5a.4.4 0 0 1-.34.16z" fill="#325599"/><path d="M83.79 107.76c.88.11 2.43.45 3.16 1.18l1.98 1.98c.04.04.04.08.04.1 0 .03-.01.07-.04.1l-11.01 11.03-.89-.9a2.98 2.98 0 0 1-.62-3.28l2.89-5.74 4.49-4.47m-.37-1.04l-4.93 4.93-2.97 5.91c-.65 1.5-.33 3.24.82 4.41l.89.9c.2.2.45.3.71.3s.51-.1.71-.29l11.01-11.03c.45-.45.45-1.17 0-1.62l-1.98-1.98c-1.36-1.36-4.26-1.53-4.26-1.53z" fill="#224487"/></svg>