<svg viewBox="0 0 128 128" width="128" height="128" xmlns="http://www.w3.org/2000/svg"><linearGradient id="a" x1="64" x2="64" y1="19.717" y2="107.7" gradientUnits="userSpaceOnUse"><stop stop-color="#F6A323" offset=".566"/><stop stop-color="#FEE133" offset=".917"/></linearGradient><path d="M64 119.89C36.07 119.89 6 102.4 6 64S36.07 8.11 64 8.11c15.48 0 29.81 5.12 40.36 14.43C115.9 32.72 122 47.06 122 64c0 16.86-6.1 31.17-17.64 41.39-10.58 9.35-24.91 14.5-40.36 14.5z" fill="url(#a)"/><path d="M64 10.11c14.99 0 28.86 4.95 39.03 13.93C114.13 33.83 120 47.65 120 64c0 16.27-5.87 30.07-16.97 39.89-10.21 9.03-24.07 14-39.03 14-15.04 0-28.9-4.91-39.04-13.82C13.86 94.32 8 80.46 8 64c0-16.54 5.86-30.42 16.96-40.15C35.07 14.99 48.93 10.11 64 10.11m0-4c-31.15 0-60 20-60 57.89 0 37.68 28.85 57.89 60 57.89s60-20.73 60-57.89c0-37.37-28.85-57.89-60-57.89z" fill="#EB8F00"/><path fill="none" stroke="#242424" stroke-linecap="round" stroke-linejoin="round" stroke-miterlimit="10" stroke-width="8" d="M35.34 88.1l9.55 9.17 9.55-9.17 9.55 9.17 9.55-9.17 9.56 9.17 9.56-9.17"/><path d="M32.19 69.05l12.17-2.36-12.55-5.21c-.14-.07-.28-.15-.42-.23-2.61-1.6-3.06-4.89-.72-6.93 1.81-1.58 4.76-1.6 6.88-.3 4.98 3.05 16.7 10.24 21.27 13.04.82.5.7 1.58-.22 1.93l-22.91 8.6c-.15.06-.32.11-.48.16-3.03.84-6.32-.89-6.79-3.78-.35-2.2 1.35-4.25 3.77-4.92zM95.81 68.8l-12.17-2.36 12.55-5.21c.14-.07.28-.15.42-.23 2.61-1.6 3.06-4.89.72-6.93-1.81-1.58-4.76-1.6-6.88-.3-4.98 3.05-16.7 10.24-21.27 13.04-.82.5-.7 1.58.22 1.93l22.91 8.6c.15.06.32.11.48.16 3.03.84 6.32-.89 6.79-3.78.35-2.2-1.35-4.25-3.77-4.92z" fill="#242424"/></svg>