<svg viewBox="0 0 128 128" width="128" height="128" xmlns="http://www.w3.org/2000/svg" xmlns:xlink="http://www.w3.org/1999/xlink"><path fill="none" stroke="#424242" stroke-linecap="round" stroke-linejoin="round" stroke-miterlimit="10" stroke-width="4" d="M78.76 31.75l9.65-13.34M49.66 31.66L40.6 20.05M64.04 27.84l.04-18.22"/><defs><path id="a" d="M4 6h120v118H4z"/></defs><clipPath id="b"><use xlink:href="#a"/></clipPath><g clip-path="url(#b)"><radialGradient id="c" cx="168.9" cy="56.948" r="63.947" gradientUnits="userSpaceOnUse"><stop stop-color="#FFCA28" offset=".353"/><stop stop-color="#FFB300" offset=".872"/></radialGradient><path d="M194.71 124.7s-1.75-12.71-.09-14.95c2.3-3.11 8.56-11.02 7.97-21.05l-2-34s-.19-5.28-3.19-6.11c-2.52-.7-3.39-.27-3.39-.27l-.67-4.54c-.25-2.88-1.89-4.86-4.48-4.68-3.27.23-4.35 1.84-4.35 1.84l.15-3.06c-.19-4.69-3.28-6.38-6.16-6.18-2.89.21-5.4 1.91-5.4 6.49 0 3.29-.04 4.11-.04 4.11s-1.69-2.6-5.21-1.74c-2.06.5-3.66 3.45-3.81 6.94 0 .03-1.44 19.18-1.44 28.18 0 3-1.3 3.52-2 2-.16-.35-1.55-5.8-4.54-9.01-7.46-7.99-14.27.5-11.05 2.88 5.59 4.13 6.96 8.1 8.59 13.13 1.36 4.21 1.39 10.34 3 14s5.03 7.26 9.2 10c3.17 2.08.8 16 .8 16h28.11z" fill="url(#c)"/><path d="M195.42 110.35l.33-.44c2.52-3.38 8.42-11.31 7.84-21.27 0 0-1.37-33.57-1.94-36.63-1.12-6.09-5.43-5.47-6.84-5.1 0 0 .28-8.38-5.9-8.81-1.43-.1-2.6.34-3.47.84 0-.07-.31-5.03-2.46-6.85-1.19-1-2.63-1.51-4.55-1.37-4.02.29-6.33 3.02-6.33 7.49v1.8c-1.15-.71-2.73-1.09-4.61-.36-2.46.95-3.91 3.49-4.44 7.73-.01.1-1.45 19.37-1.45 28.33 0 .67-.07 1.11-.14 1.41-.01-.04-.03-.08-.04-.13-.47-1.5-1.89-6.05-4.62-8.97-3.87-4.15-7.36-3.9-9.09-3.39-2.27.67-4.1 2.56-4.45 4.6-.23 1.29.2 2.45 1.17 3.16 5.44 4.02 6.67 7.82 8.24 12.63.59 1.83.94 4.13 1.27 6.35.41 2.77.84 5.63 1.77 7.75 1.64 3.71 5.12 7.51 9.57 10.43 1.62 1.06 1.45 8.61.36 15l-.2 1.17h30.46l-.16-1.14c-.85-5.93-1.19-13.05-.32-14.23zM188.8 40.1c2.76.15 3.83 2.64 3.91 5.19l.04 29.94c-1.8-.94-4.27-2.02-7.33-2.9v-30.9c.39-.38 1.61-1.42 3.38-1.33zm-14.71-1.9c0-3.43 1.5-5.28 4.47-5.49 1.36-.09 2.33.17 3.05.84 1 .94 1.61 2.73 1.81 5.31V71.8c-2.64-.62-5.66-1.06-9.02-1.16 0 0-.31-29.16-.31-32.44zm20.05 70.51l-.33.44c-1.58 2.14-.74 10.62-.24 14.54h-25.81c2-12.85-.82-15.44-1.42-15.84-4.13-2.71-7.35-6.2-8.84-9.57-.83-1.87-1.23-4.6-1.62-7.23-.34-2.3-.7-4.68-1.34-6.67-1.61-4.95-2.99-9.23-8.95-13.62-.35-.26-.48-.66-.38-1.21.2-1.11 1.31-2.5 3.05-3.02 2.22-.66 4.73.35 7.06 2.84 2.42 2.59 3.85 6.79 4.18 8.2.26 1.12.83 2.25 2.93 2.54 2.75.38 5.44 1.3 8.6 3.77 2.41 1.88 6.34 6.02 7.31 13.38.16 1.19.89 1.12.94 1.11.82-.08.55-.47.53-1.3-.28-10.06-6.76-17.58-16.09-19.79 0 0 1.3-29.51 1.31-29.64.5-4.13 1.47-5.47 3.18-6.13 2.49-.96 4.2 1.28 4.2 3.11s-.13 26.56-.13 26.99c0 .91 1 1 1 1 12.25.66 21.7 6.32 21.78 6.38.18.14.4.21.62.21.3 0 .59-.13.79-.38a.992.992 0 0 0-.17-1.4c-.08-.06-.61-.47-1.54-1.04V50.45c.21-2.31 4.86-3.03 5.27 3.75l1.56 34.56c.54 9.23-5.06 16.74-7.45 19.95z" fill="#EDA600"/></g><g clip-path="url(#b)"><radialGradient id="d" cx="-98.952" cy="65.908" r="58.969" gradientTransform="matrix(-1 0 0 1 -56.431 0)" gradientUnits="userSpaceOnUse"><stop stop-color="#FFCA28" offset=".434"/><stop stop-color="#FFB300" offset=".872"/></radialGradient><path d="M12.04 125.69s1.71-18.42.09-20.61c-2.24-3.03-7.35-10.74-6.77-20.52.98-16.59 1.95-30.16 1.95-30.16s.18-5.14 3.11-5.96c2.45-.68 3.31-.26 3.31-.26l.65-4.42c.25-2.81 1.85-4.74 4.37-4.57 3.19.22 4.24 1.8 4.24 1.8l-.14-2.98c.18-4.57 3.19-6.22 6.01-6.02 2.81.2 5.27 1.86 5.27 6.33 0 3.21.04 4.01.04 4.01s1.64-2.53 5.08-1.7c2.01.49 3.57 3.37 3.71 6.77.18 4.43.55 33.3.55 33.3s2.26-7.56 13.59-7.56c5.85 0 4.88 6.18 1.69 7.27-8.75 2.99-7.25 8.34-9.2 13.21-3.78 9.45-9.01 9.76-9.93 11.54-1.1 2.14-1.15 5.06-1.09 7.46.02.63.53 13.07.89 13.07H12.04z" fill="url(#d)"/><path d="M62.26 76.04c-.38-2.28-2.3-3.64-5.15-3.64-6.98 0-11.76 3.42-12.95 5.55-.27-6.3-.52-30.62-.53-30.7-.5-5.07-1.5-7.11-3.9-8.04-1.83-.71-3.78-.18-5.18.73 0 0 .73-8.93-5.62-8.93-7.18 0-6.84 7.96-6.84 8.02-.85-.48-1.99-.92-3.39-.82-6.02.42-5.75 8.59-5.75 8.59-1.37-.36-5.58-.96-6.67 4.97-.55 2.99-1.89 32.72-1.89 32.72-.57 9.7 4.19 17.43 6.64 20.74l.32.43c.85 1.15.52 14.13-.27 19.9l-.15 1.11h29.71s-1.05-12.99-1.08-13.83c-.06-2.4.13-5.08 1.08-6.66 1.14-1.91 4.6-3.12 7.34-6.83 2.45-3.32 3.33-7.7 3.6-8.95.79-3.62 1.48-6.75 7.54-8.82 2.11-.74 3.52-3.22 3.14-5.54zM24.05 38.95c.2-2.52 1.29-6 4.74-6 3.2 0 3.45 3.15 3.45 6.5 0 3.2-.3 27.53-.3 27.53-3.28.1-5.31.48-7.89 1.09V38.95zm-9.06 6.27c.08-2.48 1.12-4.91 3.81-5.06 1.73-.08 2.91.93 3.3 1.3v27.12c-2.99.86-5.4 1.91-7.15 2.83l.04-26.19zm43.49 34.5c-7.1 2.43-7.97 6.4-8.81 10.25-.26 1.17-.55 2.37-.98 3.52-2.52 6.79-8.33 9.16-9.89 11.45-1.27 1.88-1.45 5.26-1.2 7.93.22 2.43.45 10.95.55 11.83h-25c.48-3.83 1.31-18.13-.24-20.22l-.32-.43c-2.33-3.13-6.79-10.46-6.26-19.46l1.53-30.7C8.26 47.3 12.8 48 13 50.25v22.27c-.9.56-1.42.96-1.5 1.02-.42.33-.5.94-.16 1.37a.974.974 0 0 0 1.37.16c.08-.06 7.27-5.2 19.22-5.85 0 0 2.02-.35 2.05-2.87 0-.42.29-19.69.34-21.48.06-2.09 2.15-4.28 4.58-3.34 1.67.65 2.07 1.87 2.56 5.9.01.13.02 31.68.02 31.68-10.64 1.1-15.34 4.88-17.58 13.71-.2.78-.01 1.06.39 1.45.04.03.69.18 1.16-1.19 2.77-7.95 7.78-9.69 12.3-10.58 1.51-.3 2.81-.18 4.06-.43 3.79 0 4.27-7.35 15.3-7.72 1.87-.06 3.01.71 3.23 2.01.22 1.37-.65 2.94-1.86 3.36z" fill="#EDA600"/><radialGradient id="e" cx="-130.61" cy="65.908" r="58.969" gradientTransform="translate(216.09)" gradientUnits="userSpaceOnUse"><stop stop-color="#FFCA28" offset=".434"/><stop stop-color="#FFB300" offset=".872"/></radialGradient><path d="M115.96 125.69s-1.71-18.42-.09-20.61c2.24-3.03 7.35-10.74 6.77-20.52-.98-16.58-1.95-30.15-1.95-30.15s-.18-5.14-3.11-5.96c-2.45-.68-3.31-.26-3.31-.26l-.65-4.42c-.25-2.81-1.85-4.74-4.37-4.57-3.19.22-4.24 1.8-4.24 1.8l.14-2.98c-.18-4.57-3.19-6.22-6.01-6.02-2.81.2-5.27 1.86-5.27 6.33 0 3.21-.04 4.01-.04 4.01s-1.64-2.53-5.08-1.7c-2.01.49-3.57 3.37-3.71 6.77-.18 4.43-.55 33.3-.55 33.3s-2.26-7.56-13.59-7.56c-5.85 0-4.88 6.18-1.69 7.27 8.75 2.99 7.25 8.34 9.2 13.21 3.78 9.45 9.01 9.76 9.93 11.54 1.1 2.14 1.15 5.06 1.09 7.46-.02.63-.53 13.07-.89 13.07.01-.01 27.42-.01 27.42-.01z" fill="url(#e)"/><path d="M68.89 81.57c6.06 2.07 6.74 5.2 7.54 8.82.27 1.25 1.15 5.63 3.6 8.95 2.75 3.72 6.21 4.93 7.34 6.83.94 1.58 1.13 4.26 1.08 6.66-.02.84-1.08 13.83-1.08 13.83h29.71l-.15-1.11c-.79-5.77-1.13-18.74-.27-19.9l.32-.43c2.46-3.3 7.21-11.03 6.64-20.74 0 0-1.34-29.73-1.89-32.72-1.09-5.94-5.3-5.33-6.67-4.97 0 0 .27-8.17-5.75-8.59-1.39-.1-2.54.33-3.39.82 0-.07.34-8.02-6.84-8.02-6.35 0-5.62 8.93-5.62 8.93-1.4-.91-3.35-1.44-5.18-.73-2.4.93-3.4 2.97-3.9 8.04-.01.09-.25 24.4-.53 30.7-1.19-2.13-5.98-5.55-12.95-5.55-2.85 0-4.77 1.36-5.15 3.64-.39 2.33 1.02 4.81 3.14 5.54zm35.06-13.5c-2.57-.61-4.61-.99-7.89-1.09 0 0-.3-24.33-.3-27.53 0-3.35.26-6.5 3.45-6.5 3.45 0 4.54 3.48 4.74 6v29.12zm9.1 3.34c-1.75-.92-4.16-1.97-7.15-2.83V41.46c.38-.38 1.57-1.39 3.3-1.3 2.69.15 3.73 2.58 3.81 5.06l.04 26.19zm-45.38 4.95c.22-1.29 1.36-2.07 3.23-2.01 11.03.37 11.52 7.72 15.3 7.72 1.25.25 2.55.13 4.06.43 4.52.89 9.53 2.63 12.3 10.58.48 1.37 1.13 1.23 1.16 1.19.4-.39.59-.67.39-1.45-2.25-8.83-6.94-12.61-17.58-13.71 0 0 .01-31.55.02-31.68.49-4.02.9-5.25 2.56-5.9 2.42-.94 4.52 1.26 4.58 3.34.05 1.79.34 21.06.34 21.48.02 2.52 2.05 2.87 2.05 2.87 11.94.65 19.14 5.78 19.22 5.85a.974.974 0 0 0 1.21-1.53c-.08-.06-.6-.46-1.5-1.02V50.25c.2-2.25 4.74-2.96 5.14 3.66l1.53 30.7c.53 9-3.93 16.33-6.26 19.46l-.32.43c-1.55 2.09-.72 16.39-.24 20.22h-25c.11-.88.33-9.4.55-11.83.25-2.68.07-6.06-1.2-7.93-1.56-2.29-7.37-4.66-9.89-11.45-.43-1.15-.72-2.35-.98-3.52-.84-3.85-1.71-7.82-8.81-10.25-1.22-.44-2.09-2.01-1.86-3.38z" fill="#EDA600"/></g></svg>