<svg viewBox="0 0 128 128" width="128" height="128" xmlns="http://www.w3.org/2000/svg" xmlns:xlink="http://www.w3.org/1999/xlink"><symbol id="f" viewBox="-64.5 -64.5 129 129"><g fill="none" stroke="#4285F4" stroke-miterlimit="10"><path d="M-64-64H64V64H-64z"/><path d="M36.95 37.82C27.32 46.32 14.2 51 0 51c-14.27 0-27.39-4.62-36.96-13.01C-47.45 28.79-53 15.65-53 0c0-15.58 5.55-28.69 16.04-37.92C-27.36-46.35-14.24-51 0-51c14.17 0 27.29 4.71 36.95 13.25C47.45-28.45 53-15.4 53 0c0 15.47-5.55 28.55-16.05 37.82z"/><path d="M0 55c-29.59 0-57-19.01-57-55 0-35.8 27.41-55 57-55S57-35.31 57 0c0 35.51-27.41 55-57 55z"/><path d="M0-43c-12.29 0-23.54 3.94-31.68 11.09C-40.39-24.25-45-13.21-45 0c0 29.7 22.6 43 45 43 21.67 0 45-13.46 45-43S21.67-43 0-43zM-.01 51V-51M-16 48.95v-97.88M15.99 48.91v-97.84M53 .08H-53"/></g></symbol><linearGradient id="a" x1="64.495" x2="64.495" y1="19.717" y2="107.7" gradientUnits="userSpaceOnUse"><stop stop-color="#FEE133" offset=".5"/><stop stop-color="#FEDE32" offset=".612"/><stop stop-color="#FCD32F" offset=".708"/><stop stop-color="#FAC12B" offset=".797"/><stop stop-color="#F7A924" offset=".883"/><stop stop-color="#F6A323" offset=".9"/></linearGradient><path d="M64.5 119.89c-27.93 0-58-17.49-58-55.89s30.07-55.89 58-55.89c15.48 0 29.81 5.12 40.36 14.43C116.39 32.72 122.5 47.06 122.5 64c0 16.86-6.1 31.17-17.64 41.39-10.58 9.35-24.91 14.5-40.36 14.5z" fill="url(#a)"/><path d="M64.5 10.11c14.99 0 28.86 4.95 39.03 13.93 11.1 9.8 16.97 23.61 16.97 39.96 0 16.27-5.87 30.07-16.97 39.89-10.21 9.03-24.07 14-39.03 14-15.04 0-28.9-4.91-39.04-13.82C14.36 94.32 8.5 80.46 8.5 64c0-16.54 5.86-30.42 16.96-40.15 10.1-8.86 23.97-13.74 39.04-13.74m0-4c-31.15 0-60 20.01-60 57.89 0 37.68 28.85 57.89 60 57.89s60-20.73 60-57.89c0-37.37-28.85-57.89-60-57.89z" fill="#EB8F00"/><path d="M100.54 43.14c.79-.4 1.34-1.13 1.46-1.97.12-.83-.19-1.64-.88-2.29-3.98-3.61-9.44-5.58-14.99-5.4-2.07.06-4.09.42-6.01 1.08-.14.05-.26.1-.37.16-1.17.59-1.7 1.8-1.31 3.02.35 1.11 1.51 2.11 3.05 1.87l.02-.8.1.78c5.59-.74 11.52.5 16.27 3.39.83.54 1.8.59 2.66.16z" fill="#EB8F00" stroke="#EB8F00" stroke-miterlimit="10"/><radialGradient id="b" cx="29.74" cy="69.746" r="19.444" gradientTransform="matrix(.9791 0 0 .9301 -1.867 9.291)" gradientUnits="userSpaceOnUse"><stop stop-color="#ED7770" offset="0"/><stop stop-color="#ED7770" stop-opacity="0" offset=".9"/></radialGradient><circle cx="27.25" cy="74.16" r="17.5" fill="url(#b)" opacity=".8"/><radialGradient id="c" cx="104.81" cy="69.746" r="19.444" gradientTransform="matrix(.9791 0 0 .9301 -1.867 9.291)" gradientUnits="userSpaceOnUse"><stop stop-color="#ED7770" offset="0"/><stop stop-color="#ED7770" stop-opacity="0" offset=".9"/></radialGradient><circle cx="100.75" cy="74.16" r="17.5" fill="url(#c)" opacity=".8"/><path d="M62.96 74.46h-.01H63.52l.77.02c.51.02 1.02.05 1.54.11 1.03.11 2.08.28 3.17.6 1.08.32 2.21.74 3.32 1.51.55.34 1.1.86 1.59 1.37.48.58.92 1.19 1.21 1.9.61 1.39.83 2.77.57 4.35-.06.39-.15.78-.32 1.18-.15.39-.31.77-.55 1.11-.22.35-.46.69-.73.95-.27.28-.54.56-.83.76-1.15.88-2.31 1.3-3.4 1.59-.55.14-1.08.24-1.62.31-.56.07-1.01.11-1.68.13l.11-5.41c.44.03.69.06 1.01.11.3.04.6.1.9.16.59.13 1.19.3 1.78.53 1.18.46 2.4 1.16 3.44 2.25 1.04 1.07 1.79 2.58 2.02 4.02.09.37.11.71.13 1.06.01.37.07.66.01 1.1-.04.41-.1.83-.17 1.24s-.27.82-.43 1.22c-.7 1.58-1.99 2.81-3.16 3.48a13.24 13.24 0 0 1-3.5 1.47c-1.14.32-2.24.52-3.33.65-1.12.13-2.11.21-3.36.2a3.506 3.506 0 1 1 .3-7h.05c.67.05 1.6.06 2.39.02.82-.04 1.62-.13 2.35-.28 1.5-.26 2.55-.93 2.63-1.17.01-.05.08-.05.08-.12 0-.06.02-.12.05-.18.05-.04.01-.23.02-.34 0-.13.03-.27-.01-.36-.03-.47-.15-.76-.41-1.11-.25-.33-.7-.68-1.28-.96-.29-.14-.61-.26-.95-.36-.17-.05-.34-.1-.51-.13l-.42-.09-.1-.02a2.727 2.727 0 1 1 .21-5.38 8.779 8.779 0 0 0 1.88-.41c.59-.2 1.07-.48 1.29-.71.22-.24.16-.27.16-.41.03-.04-.05-.24-.05-.37-.1-.13-.07-.31-.18-.38-.1-.21-.3-.36-.67-.56-.34-.2-.89-.38-1.5-.5-.6-.13-1.3-.19-2.01-.21-.35-.01-.72-.01-1.08.01l-.54.03-.27.02-.14.01-.34.02c-1.93 0-3.5-1.57-3.5-3.5s1.57-3.53 3.5-3.53z" fill="#242424"/><defs><path id="d" d="M93.48 62.27s-.06-.08-.18-.22c-.06-.07-.13-.16-.21-.27-.09-.11-.18-.23-.26-.29l-.62-.62c-.25-.25-.55-.52-.86-.79-.64-.54-1.4-1.04-2.2-1.39-.81-.34-1.62-.53-2.45-.52.35-.01.09 0 .17 0H86.58l-.29.01c-.26 0-.21.02-.29.03-.07-.01-.35.06-.54.09-.4.1-.82.22-1.22.39-.8.35-1.56.85-2.2 1.39-.63.54-1.16 1.07-1.52 1.47-.36.41-.57.64-.57.64l-.3.34a3.323 3.323 0 0 1-4.69.28c-1.04-.92-1.36-2.36-.93-3.6 0 0 .04-.11.11-.32.08-.21.17-.53.35-.91.33-.78.89-1.87 1.82-3.08.91-1.21 2.25-2.51 4.03-3.54.9-.49 1.89-.96 2.97-1.25.56-.13 1.04-.26 1.74-.34.3-.04.73-.09.87-.09l.76-.04c1.14.02 2.28.18 3.37.47 1.08.28 2.07.75 2.97 1.25 1.78 1.03 3.12 2.33 4.03 3.54.47.6.84 1.18 1.13 1.7.29.5.53 1.01.72 1.44.11.22.16.38.2.5.04.13.08.24.11.33l.09.27c.57 1.77-.4 3.67-2.17 4.24-1.35.44-2.8-.05-3.65-1.11z"/></defs><defs><path id="e" d="M48.48 62.27s-.06-.08-.18-.22c-.06-.07-.13-.16-.21-.27-.09-.11-.18-.23-.26-.29l-.62-.62c-.25-.25-.55-.52-.86-.79-.64-.54-1.4-1.04-2.2-1.39-.81-.34-1.62-.53-2.45-.52.35-.01.09 0 .17 0H41.58l-.29.01c-.26 0-.21.02-.29.03-.07-.01-.35.06-.54.09-.4.1-.82.22-1.22.39-.8.35-1.56.85-2.2 1.39-.63.54-1.16 1.07-1.52 1.47-.36.41-.57.64-.57.64l-.3.34a3.323 3.323 0 0 1-4.69.28c-1.04-.92-1.36-2.36-.93-3.6 0 0 .04-.11.11-.32.08-.21.17-.53.35-.91.33-.78.89-1.87 1.82-3.08.91-1.21 2.25-2.51 4.03-3.54.9-.49 1.89-.96 2.97-1.25.56-.13 1.04-.26 1.74-.34.3-.04.73-.09.87-.09l.76-.04c1.14.02 2.28.18 3.37.47 1.08.28 2.07.75 2.97 1.25 1.78 1.03 3.12 2.33 4.03 3.54.47.6.84 1.18 1.13 1.7.29.5.53 1.01.72 1.44.11.22.16.38.2.5.04.13.08.24.11.33l.09.27c.57 1.77-.4 3.67-2.17 4.24-1.35.44-2.8-.05-3.65-1.11z"/></defs><circle cx="27.25" cy="74.16" r="17.5" fill="url(#b)" opacity=".8"/><circle cx="100.75" cy="74.16" r="17.5" fill="url(#c)" opacity=".8"/><path d="M62.96 77.96c.32 0 8.97-.75 9.78 4.62.73 4.88-6.23 5.05-6.23 5.05s6.66.43 6.45 6.12-10.74 5.16-10.74 5.16" fill="none"/><path d="M27.33 43.14c-.79-.4-1.34-1.13-1.46-1.97-.12-.83.19-1.64.88-2.29 3.98-3.61 9.44-5.58 14.99-5.4 2.07.06 4.09.42 6.01 1.08.14.05.26.1.37.16 1.17.59 1.7 1.8 1.31 3.02-.35 1.11-1.51 2.11-3.05 1.87l-.02-.8-.1.78c-5.59-.74-11.52.5-16.27 3.39-.82.54-1.8.59-2.66.16z" fill="#EB8F00" stroke="#EB8F00" stroke-miterlimit="10"/><path d="M34.4 62.27s.06-.08.18-.22c.06-.07.13-.16.21-.27.09-.11.18-.23.26-.29l.62-.62c.25-.25.55-.52.86-.79.64-.54 1.4-1.04 2.2-1.39.81-.34 1.62-.53 2.45-.52-.35-.01-.09 0-.17 0H41.3l.29.01c.26 0 .21.02.29.03.07-.01.35.06.54.09.4.1.82.22 1.22.39.8.35 1.56.85 2.2 1.39.63.54 1.16 1.07 1.52 1.47.36.41.57.64.57.64l.3.34a3.323 3.323 0 0 0 4.69.28c1.04-.92 1.36-2.36.93-3.6 0 0-.04-.11-.11-.32-.08-.21-.17-.53-.35-.91-.33-.78-.89-1.87-1.82-3.08-.91-1.21-2.25-2.51-4.03-3.54-.9-.49-1.89-.96-2.97-1.25-.56-.13-1.04-.26-1.74-.34-.3-.04-.73-.09-.87-.09l-.76-.04c-1.14.02-2.28.18-3.37.47-1.08.28-2.07.75-2.97 1.25a13.579 13.579 0 0 0-4.03 3.54c-.47.6-.84 1.18-1.13 1.7-.29.5-.53 1.01-.72 1.44-.11.22-.16.38-.2.5-.04.13-.08.24-.11.33l-.09.27c-.57 1.77.4 3.67 2.17 4.24 1.35.44 2.8-.05 3.65-1.11zM93.48 62.27s-.06-.08-.18-.22c-.06-.07-.13-.16-.21-.27-.09-.11-.18-.23-.26-.29l-.62-.62c-.25-.25-.55-.52-.86-.79-.64-.54-1.4-1.04-2.2-1.39-.81-.34-1.62-.53-2.45-.52.35-.01.09 0 .17 0H86.58l-.29.01c-.26 0-.21.02-.29.03-.07-.01-.35.06-.54.09-.4.1-.82.22-1.22.39-.8.35-1.56.85-2.2 1.39-.63.54-1.16 1.07-1.52 1.47-.36.41-.57.64-.57.64l-.3.34a3.323 3.323 0 0 1-4.69.28c-1.04-.92-1.36-2.36-.93-3.6 0 0 .04-.11.11-.32.08-.21.17-.53.35-.91.33-.78.89-1.87 1.82-3.08.91-1.21 2.25-2.51 4.03-3.54.9-.49 1.89-.96 2.97-1.25.56-.13 1.04-.26 1.74-.34.3-.04.73-.09.87-.09l.76-.04c1.14.02 2.28.18 3.37.47 1.08.28 2.07.75 2.97 1.25 1.78 1.03 3.12 2.33 4.03 3.54.47.6.84 1.18 1.13 1.7.29.5.53 1.01.72 1.44.11.22.16.38.2.5.04.13.08.24.11.33l.09.27c.57 1.77-.4 3.67-2.17 4.24-1.35.44-2.8-.05-3.65-1.11z" fill="#242424"/><path fill="none" stroke="#616161" stroke-miterlimit="10" stroke-width=".25" d="M-189 128V0h128v128z"/><g fill="none" stroke="#999" stroke-miterlimit="10" stroke-width=".25"><path d="M-189 0h128v128h-128zM-181 0v128M-173 0v128M-165 0v128M-157 0v128M-149 0v128M-141 0v128M-133 0v128M-125.01 0v128M-117.01 0v128M-109.01 0v128M-101.01 0v128M-93.01 0v128M-85.01 0v128M-77.01 0v128M-69.01 0v128M-61 120h-128M-61 112h-128M-61 104h-128M-61 96h-128M-61 88h-128M-61 80h-128M-61 72h-128M-61 64.01h-128M-61 56.01h-128M-61 48.01h-128M-61 40.01h-128M-61 32.01h-128M-61 24.01h-128M-61 16.01h-128M-61 8.01h-128"/></g><use transform="matrix(1 0 0 -1 -125 64)" x="-64.5" y="-64.5" width="129" height="129" xlink:href="#f"/></svg>