<svg viewBox="0 0 128 128" width="128" height="128" xmlns="http://www.w3.org/2000/svg" xmlns:xlink="http://www.w3.org/1999/xlink"><path d="M121.12 95.9h-2.6c-1.58 0-2.88-1.29-2.88-2.88v-16.4c0-1.58 1.29-2.88 2.88-2.88h2.6c1.58 0 2.88 1.29 2.88 2.88v16.41c0 1.58-1.29 2.87-2.88 2.87z" fill="#333"/><linearGradient id="a" x1="62.999" x2="62.999" y1="46.448" y2="112.75" gradientUnits="userSpaceOnUse"><stop stop-color="#57CAFF" offset="0"/><stop stop-color="#53C4FB" offset=".203"/><stop stop-color="#46B5F1" offset=".462"/><stop stop-color="#329BDF" offset=".748"/><stop stop-color="#1C7ECC" offset="1"/></linearGradient><path d="M114.11 51.15c0-2.86-2.32-5.18-5.18-5.18H58.75c-3.45 0-5.83 2.47-8.05 5.12-6.14 7.31-19.56 21.99-20.62 23.33-.07.09-11.44 1.62-17.9 2.49a5.588 5.588 0 0 0-4.82 4.96l-.46 23.84c-.77 4.94 2.05 7 6.49 7h95.08l10.77-5.21-5.13-56.35z" fill="url(#a)"/><path d="M78.12 75.9h-33.6c-1.64 0-2.53-1.91-1.48-3.16l17.38-20.78c.37-.44.91-.69 1.48-.69h16.22a2.5 2.5 0 0 1 2.5 2.5v19.62c0 1.39-1.12 2.51-2.5 2.51zM107.68 75.9H88.59c-1.45 0-2.63-1.18-2.63-2.63V53.89c0-1.45 1.18-2.63 2.63-2.63h17.04c1.45 0 2.63 1.18 2.63 2.63l2.05 19.38a2.64 2.64 0 0 1-2.63 2.63z" fill="#B7E6FC"/><path d="M5.54 112.35h113.68c.91-.53 1.54-1.51 1.54-2.64v-4.26c0-1.69-1.38-3.07-3.07-3.07h-3.94c-2.77-6.96-9.55-11.88-17.5-11.88s-14.73 4.92-17.5 11.88H47.11c-2.77-6.96-9.55-11.88-17.5-11.88s-14.73 4.92-17.5 11.88H7.07c-1.69 0-3.07 1.38-3.07 3.07v4.26c0 1.13.62 2.11 1.54 2.64z" fill="#546E7A"/><circle cx="29.62" cy="109.34" r="15.34" fill="#3E2723"/><circle cx="29.62" cy="109.34" r="6.14" fill="#BDBDBD"/><circle cx="96.26" cy="109.34" r="15.34" fill="#3E2723"/><circle cx="96.26" cy="109.34" r="6.14" fill="#BDBDBD"/><defs><path id="b" d="M114.11 51.15c0-2.86-2.32-5.18-5.18-5.18H58.75c-3.45 0-5.83 2.47-8.05 5.12-6.14 7.31-19.56 21.99-20.62 23.33-.07.09-11.44 1.62-17.9 2.49a5.588 5.588 0 0 0-4.82 4.96l-.46 23.84c-.77 4.94 2.05 7 6.49 7h95.08l10.77-5.21-5.13-56.35z"/></defs><clipPath id="c"><use xlink:href="#b"/></clipPath><g clip-path="url(#c)"><path d="M10.48 90.91H.25c-1.13 0-2.05-.92-2.05-2.05V84.6c0-1.13.92-2.05 2.05-2.05h13.98c1.7 0 2.83 1.44 2.28 3.01l-1.11 2.69c-.86 2.2-1.79 2.66-4.92 2.66z" fill="#FFF9C4"/><path fill="#F44336" d="M113.86 80.65h5.24v10.99h-5.24z"/></g><path d="M78.12 53.31c.25 0 .46.21.46.46v19.62c0 .25-.21.46-.46.46H44.77l17.18-20.54h16.17m0-2.04H61.89c-.57 0-1.11.25-1.48.69L43.04 72.73c-1.05 1.25-.16 3.16 1.48 3.16h33.6a2.5 2.5 0 0 0 2.5-2.5V53.77a2.5 2.5 0 0 0-2.5-2.5zM105.63 53.31c.32 0 .58.26.58.58 0 .07 0 .14.01.21l2.03 19.23c-.03.29-.28.51-.58.51H88.59a.58.58 0 0 1-.58-.58V53.89c0-.32.26-.58.58-.58h17.04m0-2.04H88.59c-1.45 0-2.63 1.18-2.63 2.63v19.38c0 1.45 1.18 2.63 2.63 2.63h19.09c1.45 0 2.63-1.18 2.63-2.63l-2.05-19.38c0-1.46-1.18-2.63-2.63-2.63z" fill="#424242" opacity=".2"/><path d="M51.87 80.64c-.98 0-2.81-1.7-4.18-3.14-1.25-1.32-1.34-3.39-.15-4.76 1.38-1.58 3.31-3.1 4.32-3.1h.01c1.69 0 3.07 1.38 3.07 3.07v4.86c0 1.68-1.38 3.07-3.07 3.07z" fill="#546E7A"/><path d="M108.94 48.02c1.73 0 3.13 1.4 3.13 3.13 0 .06 0 .12.01.18l2.15 23.71c.08.84.65 1.54 1.46 1.78.19.06.39.08.58.08.62 0 1.22-.28 1.61-.79.08-.1.3-.33.65-.33h2.6c.45 0 .83.38.83.83v16.41c0 .45-.38.83-.83.83h-2.59l-.11-.02c-.08-.01-.17-.02-.25-.02-.53 0-1.04.2-1.42.58a2.05 2.05 0 0 0-.61 1.66l.61 6.72c.07.78.58 1.44 1.3 1.72.33.13.67.47.67.95v4.26c0 .22-.07.43-.2.6h-7.21c-.98 0-1.82.69-2.01 1.65-1.23 6.19-6.71 10.69-13.04 10.69-6.16 0-11.61-4.36-12.96-10.38-.21-.93-1.04-1.6-2-1.6H44.58c-.96 0-1.79.66-2 1.6-1.35 6.01-6.8 10.38-12.96 10.38s-11.61-4.36-12.96-10.38c-.21-.93-1.04-1.6-2-1.6h-1.27c-.86 0-1.62-.09-2.27-.28-.18-.05-.37-.08-.56-.08h-4.3a.984.984 0 0 1-.2-.6v-4.26c0-.54.44-.99.99-1.01a2.04 2.04 0 0 0 1.97-2L9.41 82c.2-1.6 1.44-2.85 3.04-3.07 3.23-.43 7.69-1.03 11.35-1.54 7.32-1.01 7.32-1.01 7.88-1.71.35-.44 2.58-2.92 5.15-5.79 4.87-5.42 11.54-12.85 15.43-17.49 2.33-2.78 4.14-4.39 6.48-4.39h50.2m0-2.03H58.75c-3.45 0-5.83 2.47-8.05 5.12-6.14 7.31-19.56 21.99-20.62 23.33-.07.09-11.44 1.62-17.9 2.49a5.588 5.588 0 0 0-4.82 4.96l-.4 20.52c-1.63.05-2.96 1.4-2.96 3.05v4.26c0 1.13.62 2.11 1.54 2.64h5.02c.84.24 1.79.36 2.83.36h1.27c1.54 6.85 7.64 11.97 14.96 11.97 7.31 0 13.42-5.12 14.96-11.97H81.3c1.54 6.85 7.64 11.97 14.96 11.97 7.44 0 13.64-5.3 15.04-12.33h7.92c.91-.53 1.54-1.51 1.54-2.64v-4.26c0-1.3-.83-2.42-1.98-2.86l-.61-6.72c.12.01.23.04.35.04h2.6c1.58 0 2.88-1.29 2.88-2.88V76.62c0-1.58-1.29-2.88-2.88-2.88h-2.6c-.92 0-1.73.44-2.26 1.12l-2.15-23.71c0-2.86-2.31-5.17-5.17-5.17z" fill="#424242" opacity=".2"/></svg>