<svg viewBox="0 0 128 128" width="128" height="128" xmlns="http://www.w3.org/2000/svg"><linearGradient id="a" x1="64" x2="64" y1="19.717" y2="107.7" gradientUnits="userSpaceOnUse"><stop stop-color="#F6A323" offset=".566"/><stop stop-color="#FEE133" offset=".917"/></linearGradient><path d="M64 119.89C36.07 119.89 6 102.4 6 64S36.07 8.11 64 8.11c15.48 0 29.81 5.12 40.36 14.43C115.9 32.72 122 47.06 122 64c0 16.86-6.1 31.17-17.64 41.39-10.58 9.35-24.91 14.5-40.36 14.5z" fill="url(#a)"/><path d="M64 10.11c14.99 0 28.86 4.95 39.03 13.93C114.13 33.83 120 47.65 120 64c0 16.27-5.87 30.07-16.97 39.89-10.21 9.03-24.07 14-39.03 14-15.04 0-28.9-4.91-39.04-13.82C13.86 94.32 8 80.46 8 64c0-16.54 5.86-30.42 16.96-40.15C35.07 14.99 48.93 10.11 64 10.11m0-4c-31.15 0-60 20-60 57.89 0 37.68 28.85 57.89 60 57.89s60-20.73 60-57.89c0-37.37-28.85-57.89-60-57.89z" fill="#EB8F00"/><path d="M64 87.15c10.82 0 17.83 7.92 19.65 11.57.7 1.41.74 2.58.14 3.13-.46.41-1.21.4-2.08.01-.29-.13-.59-.31-.9-.52-4.76-3.34-10.72-5.41-16.84-5.4-6.08.01-12.02 2.07-16.77 5.4-.3.21-.61.39-.9.52-.87.4-1.63.41-2.08-.01-.6-.55-.56-1.72.14-3.13 1.81-3.64 8.82-11.57 19.64-11.57z" fill="#242424"/><g fill="#242424"><path d="M74.41 67.7c-1.61 1.49-1.36 4.01.51 5.34 2.37 1.69 5.81 3.75 9.68 4.8 3.87 1.06 7.87 1.04 10.77.79 2.28-.2 3.78-2.24 3.15-4.34-.51-1.69-2.24-2.83-4.07-2.67-2.19.2-5.22.23-8-.53-2.79-.76-5.37-2.33-7.16-3.62-1.51-1.08-3.59-.97-4.88.23zM53.59 67.7c1.61 1.49 1.36 4.01-.51 5.34-2.37 1.69-5.81 3.75-9.68 4.8-3.87 1.06-7.87 1.04-10.77.79-2.28-.2-3.78-2.24-3.15-4.34.51-1.69 2.24-2.83 4.07-2.67 2.19.2 5.22.23 8-.53 2.79-.76 5.37-2.33 7.16-3.62 1.51-1.08 3.59-.97 4.88.23z"/></g></svg>