<svg viewBox="0 0 128 128" width="128" height="128" xmlns="http://www.w3.org/2000/svg"><linearGradient id="a" x1="64" x2="64" y1="-20.03" y2="82.956" gradientUnits="userSpaceOnUse"><stop stop-color="#F15B52" offset=".341"/><stop stop-color="#EF5851" offset=".556"/><stop stop-color="#EA4E50" offset=".718"/><stop stop-color="#E13E4D" offset=".862"/><stop stop-color="#D9314B" offset=".946"/></linearGradient><path d="M64 119.79c-27.88 0-57.9-17.46-57.9-55.79S36.12 8.21 64 8.21c15.46 0 29.76 5.12 40.29 14.4 11.52 10.17 17.61 24.48 17.61 41.38 0 16.83-6.09 31.12-17.61 41.31-10.56 9.35-24.86 14.49-40.29 14.49z" fill="url(#a)"/><path d="M64 10.32c14.94 0 28.75 4.93 38.9 13.88 11.05 9.75 16.89 23.52 16.89 39.81 0 16.21-5.84 29.95-16.9 39.73-10.17 9-23.98 13.95-38.89 13.95-14.99 0-28.8-4.89-38.9-13.77C14.05 94.2 8.21 80.4 8.21 64c0-16.48 5.84-30.3 16.88-39.99C35.17 15.18 48.98 10.32 64 10.32m0-4.21c-31.15 0-60 20-60 57.89 0 37.68 28.85 57.89 60 57.89s60-20.73 60-57.89c0-37.37-28.85-57.89-60-57.89z" fill="#C7203A"/><path d="M83.94 103.14a2.28 2.28 0 0 1-.89-.62c-4.16-4.7-10.99-7.79-18.31-7.79-7.31 0-14.15 3.09-18.31 7.79-.25.28-.55.49-.89.62-.75.28-1.6.12-2.2-.41-.58-.52-.79-1.31-.49-2.08 2.98-7.63 11.84-13.64 21.89-13.64s18.91 6 21.89 13.64c.3.76.09 1.56-.49 2.08-.6.53-1.46.69-2.2.41z" fill="#242424"/><g fill="#242424"><path d="M55.84 73.55c-.69 0-1.34-.25-1.89-.72-2.98-2.55-12.74-7.93-16.33-9.69-1.34-.65-1.98-1.97-1.67-3.32.31-1.34 1.45-2.27 2.79-2.27.25 0 .5.03.75.1 1.32.34 2.61.8 3.85 1.37 3.33 1.56 12.56 6.98 14.8 9.8.71.9.85 2.04.36 3.05-.5 1.02-1.54 1.68-2.66 1.68zM73.63 73.55c.69 0 1.35-.25 1.89-.72 2.98-2.55 12.74-7.93 16.33-9.69 1.34-.65 1.98-1.97 1.67-3.32-.31-1.34-1.45-2.27-2.79-2.27-.25 0-.5.03-.75.1-1.32.34-2.61.8-3.85 1.37-3.33 1.56-12.56 6.98-14.8 9.8-.71.9-.85 2.04-.36 3.05.51 1.02 1.55 1.68 2.66 1.68z"/><path d="M41.01 75.17c0 4.29 3.36 7.77 7.5 7.77s7.5-3.48 7.5-7.77v-1.46c0-4.29-3.36-7.77-7.5-7.77s-7.5 3.48-7.5 7.77v1.46zM73.47 75.17c0 4.29 3.36 7.77 7.5 7.77s7.5-3.48 7.5-7.77v-1.46c0-4.29-3.36-7.77-7.5-7.77s-7.5 3.48-7.5 7.77v1.46z"/></g></svg>