<svg viewBox="0 0 128 128" width="128" height="128" xmlns="http://www.w3.org/2000/svg" xmlns:xlink="http://www.w3.org/1999/xlink"><defs><path id="a" d="M4 4h120v120H4z"/></defs><clipPath id="b"><use xlink:href="#a"/></clipPath><g clip-path="url(#b)"><linearGradient id="c" x1="64.227" x2="64.227" y1="77.206" y2="122.09" gradientUnits="userSpaceOnUse"><stop stop-color="#F78C1F" offset="0"/><stop stop-color="#F37F20" offset=".494"/><stop stop-color="#ED6D23" offset="1"/></linearGradient><path d="M24.46 122.46c-1.33-.34-10.33-2.83-13.71-7.62-1.38-1.95-4.44-11.38 5.74-21.9 13.69-14.16 44.08-15.1 47.5-15.16l.38-.01c.03 0 .07 0 .1.01 3.42.06 33.8 1 47.5 15.16 10.17 10.52 7.11 19.95 5.74 21.9-3.39 4.8-12.39 7.28-13.71 7.62H24.46z" fill="url(#c)"/><path d="M64.13 79.28h.32c3.36.06 33.17.98 46.45 14.7 9.36 9.68 6.74 18.36 5.59 19.99-2.64 3.73-9.74 6.22-12.67 6.98H24.66c-2.93-.76-10.04-3.25-12.67-6.98-1.15-1.63-3.77-10.31 5.59-19.99 13.27-13.73 43.09-14.64 46.45-14.7h.1m.37-3h-.54v.01c-4.33.08-34.54 1.13-48.55 15.62-10.21 10.55-8.01 20.79-5.89 23.8 4.01 5.68 14.75 8.25 14.75 8.25h79.9s10.74-2.57 14.75-8.25c2.12-3 4.33-13.25-5.88-23.81-14-14.49-44.21-15.54-48.54-15.62z" fill="#DA6727"/></g><path d="M84.27 95.19C76.7 92.75 66.41 92.87 64 92.93c-2.41-.07-12.7-.19-20.27 2.26-15.19 4.91-16.99 11.12-16.99 11.12L50.4 124h27.21l23.65-17.69c.01 0-1.79-6.21-16.99-11.12z" clip-path="url(#b)" opacity=".2"/><path clip-path="url(#b)" fill="none" d="M4 12h120v120H4z"/><g clip-path="url(#b)" fill="none" stroke="#444" stroke-linecap="round" stroke-miterlimit="10" stroke-width="4"><path d="M52.56 15.99L49.86 5.9M37.69 23.42l-7.39-7.38M90.31 23.42l7.39-7.38M75.44 15.99l2.7-10.09"/></g><g clip-path="url(#b)"><path d="M36.9 113.41l5.37.36c1.21 0 2.41.18 3.57.53 3.6 1.1 11.54 3.87 15.85 4.97 1.06.27 1.8 1.23 1.8 2.32a2.4 2.4 0 0 1-2.4 2.4H33.76l3.14-10.58z" fill="#BA8D68"/><path d="M38.36 115.51l3.78.25h.13c1.02 0 2.02.15 2.99.44 1.21.37 2.97.95 4.83 1.56 3.84 1.26 8.2 2.69 11.11 3.43.17.04.29.2.29.38 0 .22-.18.4-.4.4H36.44l1.92-6.46m-1.46-2.1l-3.14 10.57h27.33a2.4 2.4 0 0 0 2.4-2.4c0-1.09-.74-2.05-1.8-2.32-4.31-1.1-12.25-3.87-15.85-4.97-1.16-.35-2.36-.53-3.57-.53l-5.37-.35z" fill="#91674D"/><path d="M91.12 113.41l-5.37.36c-1.21 0-2.41.18-3.57.53-3.6 1.1-11.54 3.87-15.85 4.97-1.06.27-1.8 1.23-1.8 2.32a2.4 2.4 0 0 0 2.4 2.4h27.33l-3.14-10.58z" fill="#BA8D68"/><path d="M89.66 115.51l1.92 6.47H66.92c-.22 0-.4-.18-.4-.4 0-.18.12-.34.29-.38 2.91-.74 7.27-2.17 11.11-3.43 1.86-.61 3.62-1.19 4.83-1.56.97-.3 1.97-.44 2.99-.44h.13l3.79-.26m1.46-2.1l-5.37.36c-1.21 0-2.41.18-3.57.53-3.6 1.1-11.54 3.87-15.85 4.97-1.06.27-1.8 1.23-1.8 2.32a2.4 2.4 0 0 0 2.4 2.4h27.33l-3.14-10.58z" fill="#91674D"/></g><g clip-path="url(#b)"><linearGradient id="d" x1="31.788" x2="31.788" y1="75.667" y2="123.56" gradientUnits="userSpaceOnUse"><stop stop-color="#F78C1F" offset="0"/><stop stop-color="#F37F20" offset=".494"/><stop stop-color="#ED6D23" offset="1"/></linearGradient><path d="M23.89 100.01l14.93 9.98c.78.52 1.07 1.53.69 2.39L34.29 124H24.27l-.38-23.99z" fill="url(#d)"/></g><g clip-path="url(#b)"><defs><path id="e" d="M23.89 100.01l14.93 9.98c.78.52 1.07 1.53.69 2.39L34.29 124l-9.89.04-.9-.31.08-3.06.75.22 2.95.13 6.6-10.72-9.9-6.64-.09-3.65z"/></defs><clipPath id="f"><use xlink:href="#e"/></clipPath><g clip-path="url(#f)"><path d="M26.98 105.68l9.42 6.29-4.05 9.03h-5.12l-.25-15.32m-3.09-5.67l.39 23.99H34.3l5.22-11.63c.38-.86.1-1.87-.69-2.39l-14.94-9.97z" fill="#DA6727"/></g></g><g clip-path="url(#b)"><linearGradient id="g" x1="-516.38" x2="-516.38" y1="75.667" y2="123.56" gradientTransform="matrix(-1 0 0 1 -420.18 0)" gradientUnits="userSpaceOnUse"><stop stop-color="#F78C1F" offset="0"/><stop stop-color="#F37F20" offset=".494"/><stop stop-color="#ED6D23" offset="1"/></linearGradient><path d="M104.1 100.01l-14.93 9.98c-.78.52-1.07 1.53-.69 2.39L93.7 124h10.02l.38-23.99z" fill="url(#g)"/></g><g clip-path="url(#b)"><defs><path id="h" d="M104.1 100.01l-14.93 9.98c-.78.52-1.07 1.53-.69 2.39L93.7 124l10.44-.08.04-2.98-3.92.1-6.08-10.74 10.4-7.23-.48-3.06z"/></defs><clipPath id="i"><use xlink:href="#h"/></clipPath><g clip-path="url(#i)"><path d="M101.01 105.68l-.25 15.32h-5.12l-4.05-9.03 9.42-6.29m3.09-5.67zm0 0l-14.93 9.98c-.78.52-1.07 1.53-.69 2.39L93.7 124h10.02l.38-23.99z" fill="#DA6727"/></g></g><path d="M63.17 104.23c-4 0-7.26-3.22-7.26-7.17v-8.98h16.16v8.98c0 3.95-3.26 7.17-7.26 7.17h-1.64z" fill="#99674F"/><path d="M71.08 89.08v7.98c0 3.4-2.81 6.17-6.26 6.17h-1.65c-3.45 0-6.26-2.77-6.26-6.17v-7.98h14.17m2-2H54.92v9.98c0 4.51 3.7 8.17 8.26 8.17h1.65c4.56 0 8.26-3.66 8.26-8.17v-9.98h-.01z" fill="#875740"/><radialGradient id="j" cx="56.667" cy="51.667" r="13.233" gradientUnits="userSpaceOnUse"><stop stop-color="#6D4C41" offset="0"/><stop stop-color="#523329" offset="1"/></radialGradient><path d="M34.65 46.83c-7 2.67-14.16 12.92-12.12 22.5 2.15 10.12 9.27 10.75 10.02 14.5.55 2.77-.87 5.25-.87 5.25s8.12 2.75 12.37-4.38c1.83-3.07 9.97-16.71 6.38-21.25L34.65 46.83z" fill="url(#j)"/><radialGradient id="k" cx="75.5" cy="51.5" r="10.259" gradientUnits="userSpaceOnUse"><stop stop-color="#6D4C41" offset="0"/><stop stop-color="#523329" offset="1"/></radialGradient><path d="M93.35 46.83c7 2.67 14.16 12.92 12.12 22.5-2.15 10.12-9.27 10.75-10.02 14.5-.55 2.77.88 5.25.88 5.25s-8.12 2.75-12.38-4.38c-1.83-3.07-9.97-16.71-6.38-21.25l15.78-16.62z" fill="url(#k)"/><path d="M36.2 91.12c-1.58 0-2.99-.27-4.01-.62l-1.73-.59.91-1.58c.01-.01 1.14-2.05.71-4.21-.18-.89-1.14-1.67-2.46-2.74-2.58-2.09-6.11-4.94-7.56-11.74-2.16-10.19 5.11-21.19 13.06-24.21l.93-.36L52.6 62.53c2.81 3.55.71 11.27-6.26 22.95-2.63 4.4-6.76 5.64-10.14 5.64zm-1.47-3.11c2.27.32 6.48.22 9.03-4.07 8.62-14.45 7.23-18.54 6.52-19.51l-15-15.81c-6.33 3.03-12.03 12.18-10.29 20.4 1.22 5.76 4.15 8.13 6.51 10.03 1.61 1.3 3.13 2.53 3.52 4.48.34 1.72.06 3.32-.29 4.48zM91.8 91.12c-3.38 0-7.5-1.24-10.13-5.64-6.97-11.68-9.07-19.4-6.26-22.95l.09-.1 16.46-17.35.93.36c7.95 3.03 15.22 14.03 13.06 24.21-1.44 6.8-4.98 9.66-7.56 11.74-1.33 1.07-2.28 1.85-2.46 2.74-.43 2.15.69 4.19.71 4.21l.91 1.58-1.73.58c-1.03.35-2.45.62-4.02.62zM77.72 64.43c-.71.96-2.1 5.06 6.52 19.5 2.57 4.31 6.76 4.4 9.04 4.08-.36-1.16-.64-2.77-.29-4.48.39-1.96 1.91-3.18 3.52-4.48 2.35-1.9 5.29-4.27 6.51-10.03 1.74-8.22-3.96-17.37-10.29-20.4L77.72 64.43z" fill="#402821"/><path d="M37.83 79.35c-5.1 0-9.26-4.01-9.26-8.94s4.15-8.94 9.26-8.94h52.33c5.1 0 9.26 4.01 9.26 8.94s-4.15 8.94-9.26 8.94H37.83z" fill="#99674F"/><path d="M90.17 62.47c4.55 0 8.26 3.56 8.26 7.94s-3.7 7.94-8.26 7.94H37.83c-4.55 0-8.26-3.56-8.26-7.94s3.7-7.94 8.26-7.94h52.34m0-2H37.83c-5.64 0-10.26 4.47-10.26 9.94s4.62 9.94 10.26 9.94h52.34c5.64 0 10.26-4.47 10.26-9.94s-4.62-9.94-10.26-9.94z" fill="#875740"/><linearGradient id="l" x1="64" x2="64" y1="97.932" y2="26.966" gradientUnits="userSpaceOnUse"><stop stop-color="#A47B62" offset="0"/><stop stop-color="#AD8264" offset=".191"/><stop stop-color="#B78A67" offset=".551"/><stop stop-color="#BA8D68" offset="1"/></linearGradient><path d="M64 98.52c-8.21 0-15.82-2.97-21.43-8.36-6.33-6.08-9.67-14.83-9.67-25.32 0-10.74 3.4-20.64 9.56-27.87C48.25 30.2 56.09 26.31 64 26.31s15.75 3.89 21.54 10.67c6.17 7.23 9.56 17.13 9.56 27.87 0 10.48-3.34 19.24-9.67 25.32-5.61 5.38-13.22 8.35-21.43 8.35z" fill="url(#l)"/><path d="M64 27.31c7.61 0 15.18 3.76 20.78 10.32 6.01 7.05 9.32 16.72 9.32 27.22 0 10.2-3.24 18.71-9.36 24.6-5.42 5.21-12.78 8.08-20.74 8.08-7.95 0-15.32-2.87-20.74-8.08-6.12-5.89-9.36-14.39-9.36-24.6 0-10.5 3.31-20.17 9.32-27.22 5.6-6.56 13.17-10.32 20.78-10.32m0-2c-16.66 0-32.1 16.21-32.1 39.54 0 23.2 15.9 34.67 32.1 34.67s32.1-11.47 32.1-34.67c0-23.33-15.44-39.54-32.1-39.54z" fill="#91674D"/><path d="M67.7 83.76c-.1-.04-.2-.06-.31-.07h-6.77c-.1.01-.21.03-.31.07-.61.23-.95.81-.66 1.42.29.62 1.64 2.35 4.36 2.35s4.07-1.73 4.36-2.35c.28-.61-.06-1.19-.67-1.42z" fill="#99674F"/><ellipse cx="47.56" cy="74.81" rx="4.93" ry="4" fill="#49362E"/><path d="M54.98 65.82c-.93-1.23-3.07-3.01-7.23-3.01s-6.31 1.79-7.23 3.01c-.41.54-.31 1.17-.02 1.55.26.35 1.04.68 1.9.39s2.54-1.16 5.35-1.18c2.81.02 4.49.89 5.35 1.18s1.64-.03 1.9-.39c.29-.38.39-1.01-.02-1.55zM87.48 65.82c-.93-1.23-3.07-3.01-7.23-3.01s-6.31 1.79-7.23 3.01c-.41.54-.31 1.17-.02 1.55.26.35 1.04.68 1.9.39s2.54-1.16 5.35-1.18c2.81.02 4.49.89 5.35 1.18s1.64-.03 1.9-.39c.29-.38.39-1.01-.02-1.55z" fill="#613E31"/><ellipse cx="80.44" cy="74.81" rx="4.93" ry="4" fill="#49362E"/><radialGradient id="m" cx="76.713" cy="31.308" r="35.102" gradientTransform="matrix(.9577 0 0 1 -9.568 0)" gradientUnits="userSpaceOnUse"><stop stop-color="#6D4C41" offset="0"/><stop stop-color="#523329" offset="1"/></radialGradient><path d="M62.97 22.21c-14.52 4.5-14.84-5.62-14.84-5.62s-6.22 2.62-4.19 9.38c0 0-6.34-1.12-10.77 5.38C29.7 36.41 31 41.83 31 41.83s-5.63 1-6.46 8c-.76 6.35 4.07 9 4.07 9 1.08 3.75 2.22 4.44 2.22 4.44s-.12 7.57 2.44 12.31c0 0 3.2-8.83 4.92-12.69 7.66.69 17-1.81 24.54-7.31 2.33-1.7 8.1-4.15 10.93-4.42 7.1-.67 9.36 6.06 9.36 6.06s5.25-.56 7.49 3.5c1.46 2.64 3.95 15.18 3.95 15.18s2.37-6.22 2.91-12.41c0 0 8.5-6.91 6.78-16.72-2.07-11.83-12.38-10.12-12.38-10.12s-6.45-21.37-28.8-14.44z" fill="url(#m)"/><path d="M27.22 56.97c-.91-1.21-1.93-3.29-1.61-5.96.69-5.75 5.06-6.67 5.24-6.7l1.57-.28-.37-1.55c-.01-.05-1.11-4.83 1.93-9.3 3.79-5.57 9.06-4.78 9.27-4.74l2.4.43-.7-2.34c-1.02-3.37.44-5.44 1.74-6.54.46 1.31 1.34 2.91 3.04 4.12 3.01 2.15 7.47 2.33 13.25.54 20.61-6.39 25.88 12.4 25.88 12.4s9.9-1.46 13.29 8.7c1.66 4.97-.87 12.71-.87 12.71 1.22 1.88 1.84 4.75 1.84 4.75s5.27-9.36 2.34-18.75c-3.44-11.02-13.92-11.04-13.92-11.04-1.67-4.03-8.77-18.05-29.45-11.64-4.75 1.47-8.5 1.55-10.59-.09-3.23-2.54-2.92-6.04-2.92-6.04s-8.16 2-6.92 9.76c-2.53.15-6.83 1.2-10.16 6.08-2.73 4-2.79 8.17-2.59 10.29-2.42.99-5.77 3.58-6.28 8.88-.5 5.19 3.18 9.08 3.18 9.08.63-1.73 1.41-2.77 1.41-2.77z" fill="#402821"/></svg>