<svg viewBox="0 0 128 128" width="128" height="128" xmlns="http://www.w3.org/2000/svg"><linearGradient id="a" x1="64" x2="64" y1="969.72" y2="1057.7" gradientTransform="translate(0 -950)" gradientUnits="userSpaceOnUse"><stop stop-color="#F6A323" offset=".566"/><stop stop-color="#FEE133" offset=".917"/></linearGradient><path d="M64 119.9c-27.9 0-58-17.5-58-55.9S36.1 8.1 64 8.1c15.5 0 29.8 5.1 40.4 14.4C115.9 32.7 122 47.1 122 64s-6.1 31.2-17.6 41.4c-10.6 9.3-25 14.5-40.4 14.5z" fill="url(#a)"/><path d="M64 10.1c15 0 28.9 4.9 39 13.9 11.1 9.8 17 23.6 17 40 0 16.3-5.9 30.1-17 39.9-10.2 9-24.1 14-39 14-15 0-28.9-4.9-39-13.8C13.9 94.3 8 80.5 8 64s5.9-30.4 17-40.2C35.1 15 48.9 10.1 64 10.1m0-4C32.8 6.1 4 26.1 4 64c0 37.7 28.8 57.9 60 57.9s60-20.7 60-57.9c0-37.4-28.8-57.9-60-57.9z" fill="#EB8F00"/><path fill="#fff" stroke="#A1A1A1" stroke-linecap="round" stroke-linejoin="round" stroke-miterlimit="10" stroke-width="3" d="M5.6 63.8l25.9 7.9v8.1L6.2 72M16.7 98.8l-4.9-7.6L32 88.9l.5 8.1z"/><path d="M124 64c0-37.4-28.8-57.9-60-57.9S4 26.1 4 64c0 37.7 28.8 57.9 60 57.9s60-20.7 60-57.9z" fill="none"/><path d="M51.6 51.4s-.1 0-.2-.1c-.1 0-.2 0-.3-.1h-.2c-.2 0-.5 0-.7-.1-.3 0-.7 0-1-.1-.8 0-1.7 0-2.7.2-.5.1-1 .2-1.6.3-.5.1-1.1.3-1.6.4-.1 0-.7.2-.9.3s-.5.2-.7.3l-1.5.6c-.9.5-1.7.9-2.4 1.4s-1.1.8-1.4 1.1l-.9.9c-1.2 1.2-3.2 1.2-4.4 0-.9-.9-1.2-2.2-.7-3.4 0 0 0-.1.1-.3s.2-.5.4-.9c.4-.7 1-1.7 1.9-2.7s2.1-2 3.5-2.9c.7-.4 1.4-.8 2.2-1.2.4-.2.8-.3 1.2-.5.5-.2.6-.2 1.2-.4.8-.2 1.7-.4 2.5-.6s1.7-.2 2.5-.2c1.6-.1 3.2.1 4.5.5.7.2 1.2.4 1.8.6.5.2.9.4 1.4.6.2.1.4.2.5.3s.2.1.2.2l.2.2c1.4 1 1.7 3 .7 4.4-1 1.1-2.4 1.5-3.6 1.2zM76.4 51.4s.1 0 .2-.1c.1 0 .2 0 .3-.1h.2c.2 0 .4 0 .7-.1.3 0 .7 0 1.1-.1.8 0 1.7 0 2.7.2.5.1 1 .2 1.6.3.5.1 1.1.3 1.6.4.1 0 .7.2.9.3s.5.2.7.3l1.5.6c.9.5 1.7.9 2.4 1.4s1.1.8 1.4 1.1l.5.5.4.4c1.2 1.2 3.2 1.2 4.4 0 .9-.9 1.2-2.2.7-3.4 0 0 0-.1-.1-.3s-.2-.5-.4-.9c-.4-.7-1-1.7-1.9-2.7s-2.1-2-3.5-2.9c-.7-.4-1.4-.8-2.2-1.2-.4-.2-.8-.3-1.2-.5-.5-.2-.6-.2-1.2-.4-.8-.2-1.7-.4-2.5-.6s-1.7-.2-2.5-.2c-1.6-.1-3.2.1-4.5.5-.7.2-1.2.4-1.8.6-.5.2-.9.4-1.4.6-.2.1-.4.2-.5.3s-.2.1-.2.2l-.2.2c-1.4 1-1.7 3-.7 4.4.9 1.1 2.3 1.5 3.5 1.2z" fill="#242424"/><path d="M8.8 74.3C8.3 71 8 67.6 8 64v-.9l-4-1.3v2.3c0 3.1.2 6.2.6 9l4.2 1.2zM20.8 99.9c-2.8-3.1-5.2-6.6-7.1-10.4l-4.3.3c1.8 3.9 4 7.4 6.6 10.6l4.8-.5z" fill="#A1A1A1"/><path fill="#fff" stroke="#A1A1A1" stroke-linecap="round" stroke-linejoin="round" stroke-miterlimit="10" stroke-width="3" d="M121.8 72l-25.3 7.8v-8.1l25.8-7.8M95.5 97l.5-8.1 20.2 2.3-4.9 7.6z"/><path d="M123.4 73c.4-2.9.6-5.9.6-9v-2.3l-4 1.3v.9c0 3.6-.3 7-.8 10.3l4.2-1.2zM112 100.4c2.5-3.2 4.8-6.7 6.6-10.6l-4.3-.3c-1.9 3.8-4.3 7.2-7.1 10.4l4.8.5z" fill="#A1A1A1"/><path d="M30.4 105.1c-1 0-1.9-.9-1.9-1.9V68.9c0-1.1.9-1.9 1.9-1.9h67.2c1.1 0 1.9.9 1.9 1.9v34.3c0 1.1-.9 1.9-1.9 1.9H30.4z" fill="#fff"/><path d="M97.5 69v34.1h-67V69h67m.1-4H30.4c-2.2 0-3.9 1.8-3.9 3.9v34.3c0 2.2 1.8 3.9 3.9 3.9h67.2c2.2 0 3.9-1.8 3.9-3.9V68.9c0-2.1-1.7-3.9-3.9-3.9z" fill="#A1A1A1"/></svg>