<svg viewBox="0 0 128 128" width="128" height="128" xmlns="http://www.w3.org/2000/svg" xmlns:xlink="http://www.w3.org/1999/xlink"><linearGradient id="a" x1="64" x2="64" y1="-1112.2" y2="-1200.2" gradientTransform="matrix(1 0 0 -1 0 -1092.5)" gradientUnits="userSpaceOnUse"><stop stop-color="#FEE133" offset=".5"/><stop stop-color="#FEDE32" offset=".612"/><stop stop-color="#FCD32F" offset=".708"/><stop stop-color="#FAC12B" offset=".797"/><stop stop-color="#F7A924" offset=".883"/><stop stop-color="#F6A323" offset=".9"/></linearGradient><path d="M64 119.9c-27.9 0-58-17.5-58-55.9S36.1 8.1 64 8.1c15.5 0 29.8 5.1 40.4 14.4C115.9 32.7 122 47.1 122 64s-6.1 31.2-17.6 41.4c-10.6 9.3-25 14.5-40.4 14.5z" fill="url(#a)"/><path d="M64 10.1c15 0 28.9 4.9 39 13.9 11.1 9.8 17 23.6 17 40 0 16.3-5.9 30.1-17 39.9-10.2 9-24.1 14-39 14-15 0-28.9-4.9-39-13.8C13.9 94.3 8 80.5 8 64s5.9-30.4 17-40.2C35.1 15 48.9 10.1 64 10.1m0-4C32.8 6.1 4 26.1 4 64c0 37.7 28.8 57.9 60 57.9s60-20.7 60-57.9c0-37.4-28.9-57.9-60-57.9z" fill="#EB8F00"/><path d="M45.6 28.9c2.3.2 3.2-2.9.8-3.6-1.8-.5-3.8-.7-5.8-.6-5.6.2-10.6 2.7-14 6.2-1.7 1.8.7 4 2.5 2.7 4.6-3.2 10.5-5.1 16.5-4.7zM82.2 28.9c6.1-.4 12 1.5 16.6 4.7 1.8 1.3 4.2-.9 2.5-2.7-3.4-3.5-8.5-6-14-6.2-2-.1-4 .1-5.8.6-2.4.7-1.5 3.8.7 3.6" fill="#EB8F00" stroke="#EB8F00" stroke-miterlimit="10"/><path d="M83.7 37.6c3.8 0 7.3 4.4 7.3 11.8s-3.5 11.8-7.3 11.8-7.3-4.4-7.3-11.8 3.4-11.8 7.3-11.8zM44.3 37.6c-4.1 0-7.7 4.4-7.7 11.8s3.7 11.8 7.7 11.8c4.1 0 7.7-4.4 7.7-11.8s-3.7-11.8-7.7-11.8z" fill="#242424"/><defs><path id="b" d="M64 111.4c-6.6 0-12-5.4-12-12V85.6c0-6.6 5.4-12 12-12s12 5.4 12 12v13.8c0 6.6-5.4 12-12 12z"/></defs><clipPath id="c"><use xlink:href="#b"/></clipPath><g clip-path="url(#c)"><path d="M64 111.4c-6.6 0-12-5.4-12-12V85.6c0-6.6 5.4-12 12-12s12 5.4 12 12v13.8c0 6.6-5.4 12-12 12z" fill="#fff"/><path d="M52 99.4V85.6c0-6.6 5.4-12 12-12s12 5.4 12 12v13.8" fill="none" stroke="#EB8F00" stroke-linecap="round" stroke-linejoin="round" stroke-miterlimit="10" stroke-width="6"/></g><defs><path id="d" d="M64 111.4c-6.6 0-12-5.4-12-12V85.6c0-6.6 5.4-12 12-12s12 5.4 12 12v13.8c0 6.6-5.4 12-12 12z"/></defs><clipPath id="e"><use xlink:href="#d"/></clipPath><g clip-path="url(#e)"><path d="M35.9 81.1v33.1h57.3V81c-7.8 3-17.8 4.6-28.6 4.6S43.8 84 35.9 81.1z" fill="#242424"/></g></svg>