<svg viewBox="0 0 128 128" width="128" height="128" xmlns="http://www.w3.org/2000/svg" xmlns:xlink="http://www.w3.org/1999/xlink"><defs><path id="a" d="M4 4h120v120H4z"/></defs><clipPath id="b"><use xlink:href="#a"/></clipPath><g clip-path="url(#b)"><radialGradient id="c" cx="64.45" cy="45.831" r="22.307" gradientUnits="userSpaceOnUse"><stop stop-color="#554138" offset="0"/><stop stop-color="#3C2C23" offset="1"/></radialGradient><path d="M93.38 84.22c.53-.54 1.11-1.04 1.91-1.05 1.32-.03 3.36-.24 4.97-1.13.47-.26.87-.63 1.17-1.07-1.13-.21-2.68-.83-3.73-2.73-1.6-2.89.25-5.54 3.32-8.5 3.46-3.32 9.21-14.74 3.1-24.91-1.15-.15-17.81.08-22.03.08H64.1v46.32c19.76-.01 23.67-1.21 29.28-7.01z" fill="url(#c)"/><radialGradient id="d" cx="64.819" cy="46.831" r="22.353" gradientUnits="userSpaceOnUse"><stop stop-color="#554138" offset="0"/><stop stop-color="#3C2C23" offset="1"/></radialGradient><path d="M34.82 84.22c-.53-.54-1.11-1.04-1.91-1.05-1.32-.03-3.36-.24-4.97-1.13-.47-.26-.87-.63-1.17-1.07 1.13-.21 2.75-.8 3.73-2.73 1.6-3.13-.67-5.9-3.32-8.5-4.33-4.26-9.21-14.74-3.1-24.91 1.15-.15 17.81.08 22.03.08H64.1v46.32c-19.76-.01-23.67-1.21-29.28-7.01z" fill="url(#d)"/><path d="M102.88 46.54l.26.46c5.42 9.69-.55 19.22-3.19 21.77-2.96 2.85-5.7 6.27-3.58 10.11.55.99 1.27 1.8 2.13 2.39-1.18.39-2.47.49-3.24.5-1.56.04-2.56 1.07-2.99 1.52-3.4 3.52-5.97 5.24-13.09 6.01 0 0-3.69 1.76-6.24 2.36v.85c12.46-.42 16.47-2.08 21.56-7.34.39-.41.65-.59.83-.59 1.58-.04 3.84-.29 5.7-1.33.67-.37 1.24-.9 1.67-1.52l1.17-1.72-2.14-.4c-1.19-.22-2.07-.88-2.69-2-1.04-1.87-.2-3.74 3.07-6.89 4.05-3.9 9.28-13.92 3.97-24.13 0 0 0-.02.01-.05h-3.21zM26.09 70.7c2.71 2.67 4.17 4.76 3.06 6.94-.56 1.09-1.43 1.73-2.67 1.96l-2.14.4 1.17 1.72c.42.62 1 1.15 1.67 1.52 1.86 1.04 4.13 1.29 5.7 1.33.18 0 .44.19.83.59 5.07 5.24 9.06 6.91 21.39 7.34v-.89c-2.15-.56-6.08-2.31-6.08-2.31-7.12-.77-9.69-2.49-13.09-6.01-.43-.44-1.43-1.48-2.99-1.52-.76-.02-2.04-.11-3.21-.49.89-.6 1.61-1.42 2.13-2.43 2.22-4.35-1.56-8.06-3.59-10.06-3.84-3.78-8.03-12.63-3.8-21.55l.29-.61-.05-.09h-3.32c.02.05.04.11.07.16-4.37 9.96.32 19.77 4.63 24z" fill="#291D15"/></g><g clip-path="url(#b)"><path d="M63.17 107.23c-4 0-7.26-3.22-7.26-7.17v-8.98h16.16v8.98c0 3.96-3.26 7.17-7.26 7.17h-1.64z" fill="#E59600"/><path d="M71.08 92.08v7.98c0 3.4-2.81 6.17-6.26 6.17h-1.65c-3.45 0-6.26-2.77-6.26-6.17v-7.98h14.17m2-2H54.92v9.98c0 4.51 3.7 8.17 8.26 8.17h1.65c4.56 0 8.26-3.66 8.26-8.17v-9.98h-.01z" fill="#D18100"/></g><g clip-path="url(#b)"><path d="M36.67 72.26c-5.36 0-9.71-4.67-9.71-10.41s4.36-10.41 9.71-10.41h54.65c5.36 0 9.71 4.67 9.71 10.41s-4.36 10.41-9.71 10.41H36.67z" fill="#7A4C32"/><path d="M91.33 52.43c4.8 0 8.71 4.22 8.71 9.41s-3.91 9.41-8.71 9.41H36.67c-4.8 0-8.71-4.22-8.71-9.41s3.91-9.41 8.71-9.41h54.66m0-2H36.67c-5.89 0-10.71 5.14-10.71 11.41 0 6.28 4.82 11.41 10.71 11.41h54.65c5.89 0 10.71-5.14 10.71-11.41.01-6.27-4.81-11.41-10.7-11.41z" fill="#663B22"/></g><g clip-path="url(#b)"><linearGradient id="e" x1="64" x2="64" y1="94.591" y2="12.825" gradientUnits="userSpaceOnUse"><stop stop-color="#8D5738" offset="0"/><stop stop-color="#97603D" offset=".216"/><stop stop-color="#A26941" offset=".573"/><stop stop-color="#A56C43" offset="1"/></linearGradient><path d="M64 95.27c-15.66 0-32.52-12.14-32.52-38.81 0-12.38 3.56-23.79 10.02-32.13 6.04-7.8 14.25-12.27 22.5-12.27s16.45 4.47 22.5 12.27c6.46 8.33 10.02 19.75 10.02 32.13 0 12.09-3.51 22.19-10.14 29.21-5.86 6.19-13.81 9.6-22.38 9.6z" fill="url(#e)"/><path d="M64 13.07c7.94 0 15.85 4.33 21.71 11.88 6.33 8.16 9.81 19.35 9.81 31.52 0 11.83-3.41 21.7-9.87 28.52-5.67 5.99-13.36 9.29-21.65 9.29s-15.98-3.3-21.65-9.29c-6.46-6.82-9.87-16.69-9.87-28.52 0-12.16 3.49-23.35 9.81-31.52C48.15 17.4 56.06 13.07 64 13.07m0-2c-17.4 0-33.52 18.61-33.52 45.39 0 26.64 16.61 39.81 33.52 39.81S97.52 83.1 97.52 56.46c0-26.78-16.12-45.39-33.52-45.39z" fill="#875334"/></g><g clip-path="url(#b)"><g fill="#42312C"><ellipse cx="47.56" cy="58.81" rx="4.93" ry="5.1"/><path d="M54.98 49.82c-.93-1.23-3.07-3.01-7.23-3.01s-6.31 1.79-7.23 3.01c-.41.54-.31 1.17-.02 1.55.26.35 1.04.68 1.9.39s2.54-1.16 5.35-1.18c2.81.02 4.49.89 5.35 1.18s1.64-.03 1.9-.39c.29-.38.39-1.01-.02-1.55zM87.48 49.82c-.93-1.23-3.07-3.01-7.23-3.01s-6.31 1.79-7.23 3.01c-.41.54-.31 1.17-.02 1.55.26.35 1.04.68 1.9.39s2.54-1.16 5.35-1.18c2.81.02 4.49.89 5.35 1.18s1.64-.03 1.9-.39c.29-.38.39-1.01-.02-1.55z"/><ellipse cx="80.44" cy="58.81" rx="4.93" ry="5.1"/></g><path d="M67.86 68.06c-.11-.04-.21-.07-.32-.08h-7.07c-.11.01-.22.04-.32.08-.64.26-.99.92-.69 1.63s1.71 2.69 4.55 2.69 4.25-1.99 4.55-2.69c.29-.71-.06-1.37-.7-1.63z" fill="#875334"/></g><g clip-path="url(#b)"><defs><path id="f" d="M64 4.03h-.04c-45.43.24-36.12 52.14-36.12 52.14s5.1 8.99 5.1 8.81c-.03-1.41.46-6.89.46-6.89l-2.68-2.92s3.89-25.44 6.79-24.91c4.45.81 26.54 2 26.57 2 7.83 0 14.92-.36 19.37-1.17 2.9-.53 9.64 1.7 10.68 4.45 1.33 3.54 3.13 19.71 3.13 19.71l-2.68 2.83s.49 5.51.46 6.89c0 .18 5.1-8.81 5.1-8.81S109.44 4.27 64 4.03z"/></defs></g><g clip-path="url(#b)"><radialGradient id="g" cx="64.326" cy="33.52" r="36.373" gradientTransform="matrix(1 0 0 .8642 0 4.552)" gradientUnits="userSpaceOnUse"><stop stop-color="#554138" offset="0"/><stop stop-color="#3C2C23" offset="1"/></radialGradient><path d="M52.25 10.65C39.98 15 38.76 7.3 38.76 7.3c-6.66 3.32-2.28 10.45-2.28 10.45s-6.75-.5-9.64 5.34c-3.02 6.11-.36 10.78-.36 10.78S19.98 38 22.53 45.5c1.69 4.98 6.75 6.98 6.75 6.98-.62 10.74 2.77 15.95 2.77 15.95s4.21-18.45 3.81-21.27c0 0 7.76-1.54 16.57-6.58 5.95-3.41 10.02-7.41 16.71-8.91 10.18-2.29 12.45 5.08 12.45 5.08s9.42-1.81 12.26 11.27c1.17 5.38 1.67 14.37 2.31 19.84-.06-.48 3.5-6.4 4.12-12.4.23-2.23 3.61-7.67 4.63-11.72 2.21-8.8-.69-15.74-2.06-17.81-2.5-3.79-8.49-9-12.97-8.24.23-4.8-3.55-9.25-8.1-10.78-12.45-4.18-25.87 2.44-29.53 3.74z" fill="url(#g)"/></g><path d="M21.11 45.98c.08.22.17.45.27.68l2.28 2.89 1.1-2.79-.32-.63c-.21-.42-.36-.77-.48-1.11-2.13-6.26 3.11-9.73 3.33-9.88l1.18-.76-.68-1.23c-.09-.17-2.21-4.12.4-9.38 2.33-4.71 7.75-3.73 7.98-3.69l2.95.59-1.31-2.71c-.1-.22-2.19-4.67.33-8.01.55 1.01 1.43 2.15 2.84 3 2.85 1.73 6.8 1.72 11.75-.03.79-.28 1.68-.76 2.8-1.38 4.53-2.47 12.11-6.61 24.12-2.81 4.34 1.38 8.92 5.17 8.74 8.89l-.09 1.87 1.84-.31c3.6-.6 9.1 4.01 11.47 7.59 1.22 1.84 3.98 9.5 1.92 17.71-.11.45-.26.94-.46 1.5l-.22.62.04.08 1.09 1.9 2.11-1.9c.05-.23.27-1.14.35-1.46 2.24-8.93-.56-17.42-2.32-20.09-2.44-3.7-7.91-8.64-12.82-8.97-.79-4.72-5.84-8.72-10.73-10.27-13.25-4.21-21.86.49-26.49 3.02-.96.53-1.79.98-2.36 1.18-3.97 1.41-7.13 1.52-9.15.32-1.97-1.17-2.32-3.23-2.33-3.31l-.34-2.44-2.01 1.41c-4.24 2.99-4.4 7.63-3.6 10.88-2.93.12-6.77 1.36-8.8 5.47-2.42 4.9-1.56 8.99-.86 10.95-2.52 2.15-5.54 6.65-3.52 12.61z" clip-path="url(#b)" fill="#291D15"/><g clip-path="url(#b)"><path d="M23.13 81.3c-.3 0-.6-.06-.88-.18l-11.89-5.06a2.262 2.262 0 0 1-1.19-2.97l.09-.22a2.263 2.263 0 0 1 2.96-1.19l11.89 5.06c.56.24.99.68 1.21 1.24.23.56.22 1.18-.02 1.73l-.09.21c-.36.84-1.17 1.38-2.08 1.38z" fill="#7A4C32"/><path d="M11.33 72.49c.17 0 .33.03.49.1l11.89 5.06c.64.27.94 1.02.67 1.66l-.09.21a1.264 1.264 0 0 1-1.65.67l-11.89-5.06c-.64-.27-.94-1.02-.67-1.66l.09-.21c.19-.46.65-.77 1.16-.77m0-2c-1.27 0-2.47.74-3 1.99l-.09.21c-.71 1.66.07 3.57 1.72 4.28l11.89 5.06c.42.18.85.26 1.28.26 1.27 0 2.47-.74 3-1.99l.09-.21c.71-1.66-.07-3.57-1.72-4.28l-11.89-5.06c-.42-.17-.85-.26-1.28-.26z" fill="#663B22"/><path d="M39.08 76.23s-18.03-11.35-22.44-15.1c-2.61-2.21-5.48-6.03-6.97-7.86-1.35-1.66-5.13.22-5.37 2.35-.14 1.25.11 2.78 1.14 4.59 0 0 6.69 15.98 14.72 21.37l10.97 4.82 7.95-10.17z" fill="#A56C43"/><path d="M8.17 54.64h.02c.21.26.45.57.72.9 1.63 2.05 4.09 5.14 6.43 7.13 3.66 3.11 16.03 11.05 20.8 14.08l-5.64 7.21-9.38-4.12c-7.37-5.1-13.77-20.24-13.84-20.4-.03-.07-.07-.15-.11-.22-.7-1.23-1-2.37-.89-3.38.06-.36 1.08-1.2 1.89-1.2m0-2c-1.63 0-3.7 1.43-3.87 2.99-.14 1.25.11 2.78 1.14 4.59 0 0 6.69 15.98 14.72 21.37l10.97 4.82 7.96-10.17s-18.03-11.35-22.44-15.1c-2.61-2.21-5.48-6.03-6.97-7.86-.38-.45-.92-.64-1.51-.64z" fill="#875334"/></g><g clip-path="url(#b)"><path d="M105.04 81.3c-.91 0-1.73-.54-2.08-1.38l-.09-.21a2.263 2.263 0 0 1 1.19-2.97l11.89-5.06c.28-.12.58-.18.89-.18.91 0 1.73.54 2.08 1.38l.09.21c.24.56.24 1.17.02 1.73-.23.56-.66 1-1.21 1.24l-11.89 5.06c-.28.12-.58.18-.89.18z" fill="#7A4C32"/><path d="M116.84 72.49c.51 0 .96.3 1.16.77l.09.21c.27.64-.03 1.38-.67 1.66l-11.89 5.06a1.253 1.253 0 0 1-1.65-.67l-.09-.21c-.27-.64.03-1.38.67-1.66l11.89-5.06c.16-.06.32-.1.49-.1m0-2c-.43 0-.86.08-1.28.26l-11.89 5.06a3.256 3.256 0 0 0-1.72 4.28l.09.21a3.265 3.265 0 0 0 4.28 1.73l11.89-5.06a3.256 3.256 0 0 0 1.72-4.28l-.09-.21a3.255 3.255 0 0 0-3-1.99z" fill="#663B22"/><path d="M89.1 76.23s18.03-11.35 22.44-15.1c2.61-2.21 5.48-6.03 6.97-7.86 1.35-1.66 5.13.22 5.37 2.35.14 1.25-.11 2.78-1.14 4.59 0 0-6.69 15.98-14.72 21.37L97.05 86.4 89.1 76.23z" fill="#A56C43"/><path d="M120 54.64c.81 0 1.83.85 1.88 1.21.12 1.01-.18 2.15-.88 3.37-.04.07-.08.14-.11.22-.06.15-6.46 15.29-13.84 20.38l-9.38 4.12-5.64-7.21c4.77-3.03 17.14-10.97 20.8-14.08 2.34-1.99 4.8-5.08 6.43-7.13.26-.33.5-.63.72-.9.01.02.02.02.02.02m0-2c-.6 0-1.13.19-1.49.64-1.49 1.83-4.36 5.65-6.97 7.86-4.42 3.75-22.44 15.1-22.44 15.1l7.96 10.17 10.97-4.82c8.03-5.39 14.72-21.37 14.72-21.37 1.03-1.8 1.28-3.34 1.14-4.59-.18-1.56-2.26-2.99-3.89-2.99z" fill="#875334"/></g><path d="M70.35 83.26c0 3.18-2.84 3.85-6.35 3.85s-6.35-.73-6.35-3.85c0-3.28 2.84-5.3 6.35-5.3s6.35 1.95 6.35 5.3z" clip-path="url(#b)" fill="#473530"/><path clip-path="url(#b)" fill="none" d="M16.98 5.25h94.03v94.03H16.98z"/><path clip-path="url(#b)" fill="none" d="M4 4h120v120H4z"/><path d="M63.95 90.25h-9.08v9.59c0 4.34 3.7 7.86 8.26 7.86h1.65c4.56 0 8.26-3.52 8.26-7.86v-9.59h-9.09z" clip-path="url(#b)" fill="#E59900"/><g clip-path="url(#b)"><path d="M21.6 131.25v-9.17c0-7.44 4.34-13.31 12.9-17.46 7.54-3.65 18.01-5.67 29.5-5.68h.11c21.01 0 42.29 7.95 42.29 23.14v9.17H21.6z" fill="#F78C1F"/><path d="M64.11 100.44c20.27 0 40.79 7.43 40.79 21.64v7.67H23.1v-7.67c0-6.82 4.05-12.24 12.05-16.11 7.34-3.55 17.58-5.52 28.85-5.53h.11m0-3H64c-21.88.03-43.9 7.31-43.9 24.64v10.67h87.8v-10.67c0-16.33-21.81-24.64-43.79-24.64z" fill="#DA6727"/></g><linearGradient id="h" x1="71.293" x2="71.293" y1="116.34" y2="135.5" gradientUnits="userSpaceOnUse"><stop stop-color="#C44E14" offset="0"/><stop stop-color="#C44E14" stop-opacity="0" offset="1"/></linearGradient><path clip-path="url(#b)" fill="url(#h)" d="M53.24 97.28l47.54 34.33-58.33.17-.65-28.63z"/><g clip-path="url(#b)"><path d="M63.12 110.68c-4.3 0-7.81-3.56-7.81-7.94v-9.92h17.37v9.92c0 4.38-3.5 7.94-7.81 7.94h-1.75z" fill="#E49800"/><path d="M71.69 93.81v8.92c0 3.83-3.05 6.94-6.81 6.94h-1.76c-3.75 0-6.81-3.11-6.81-6.94v-8.92h15.38m2-2H54.31v10.92c0 4.94 3.94 8.94 8.81 8.94h1.76c4.86 0 8.81-4 8.81-8.94V91.81z" fill="#C78500"/></g><g clip-path="url(#b)"><linearGradient id="i" x1="34.032" x2="112" y1="80.624" y2="125.79" gradientUnits="userSpaceOnUse"><stop stop-color="#F78C1F" offset="0"/><stop stop-color="#F37F20" offset=".494"/><stop stop-color="#ED6D23" offset="1"/></linearGradient><path d="M97.13 131.34L28.96 86.35a.3.3 0 0 1-.11-.41l6.5-11.4c.07-.12.21-.14.25-.14s.08.01.12.03l65.92 31.22c7.81 4.15 12.74 12.28 12.8 21.19l.04 4.79-17.35-.29z" fill="url(#i)"/><path d="M36.09 76.27l64.85 30.72a22.703 22.703 0 0 1 12.01 19.88l.03 3.25-15.39-.27-66.88-44.14 5.38-9.44m-.49-3.36c-.62 0-1.22.32-1.55.89l-6.49 11.39c-.48.83-.23 1.9.58 2.42l68.53 45.23 19.33.33-.05-6.33a25.76 25.76 0 0 0-13.66-22.54L36.35 73.07c-.24-.11-.5-.16-.75-.16z" fill="#DA6727"/></g><linearGradient id="j" x1="53.415" x2="79.311" y1="82.759" y2="113.62" gradientUnits="userSpaceOnUse"><stop stop-color="#C44E14" stop-opacity="0" offset="0"/><stop stop-color="#C44E14" offset=".504"/><stop stop-color="#C44E14" stop-opacity="0" offset="1"/></linearGradient><path clip-path="url(#b)" fill="url(#j)" d="M91.46 99.28l-22.52 15.34-29.25-19.4L60.4 84.47z"/><g clip-path="url(#b)"><linearGradient id="k" x1="-815.16" x2="-737.2" y1="80.626" y2="125.8" gradientTransform="matrix(-1 0 0 1 -721.19 0)" gradientUnits="userSpaceOnUse"><stop stop-color="#F78C1F" offset="0"/><stop stop-color="#F37F20" offset=".494"/><stop stop-color="#ED6D23" offset="1"/></linearGradient><path d="M13.55 126.85c.07-8.91 5-17.04 12.87-21.22l65.88-31.2c.02-.01.06-.02.1-.02s.18.01.26.15l6.49 11.38c.09.15.05.33-.09.41l-68.18 45-17.36.3.03-4.8z" fill="url(#k)"/><path d="M91.91000000000001 76.27l5.38 9.44-66.88 44.14-15.39.27.03-3.25c.06-8.34 4.66-15.95 12.01-19.88l64.85-30.72m.49-3.36c-.25 0-.51.05-.75.16L25.71 104.3a25.729 25.729 0 0 0-13.66 22.54l-.05 6.33 19.33-.33 68.53-45.23c.81-.52 1.06-1.59.58-2.42L93.95 73.8c-.33-.57-.93-.89-1.55-.89z" fill="#DA6727"/></g></svg>