<svg viewBox="0 0 128 128" width="128" height="128" xmlns="http://www.w3.org/2000/svg" xmlns:xlink="http://www.w3.org/1999/xlink"><linearGradient id="a" x1="64" x2="64" y1="19.717" y2="107.7" gradientUnits="userSpaceOnUse"><stop stop-color="#FEE133" offset=".349"/><stop stop-color="#FDDD32" offset=".489"/><stop stop-color="#FCD12F" offset=".629"/><stop stop-color="#F9BD2A" offset=".769"/><stop stop-color="#F6A323" offset=".9"/></linearGradient><path d="M64 119.89C36.07 119.89 6 102.4 6 64S36.07 8.11 64 8.11c15.48 0 29.81 5.12 40.36 14.43C115.9 32.72 122 47.06 122 64c0 16.86-6.1 31.17-17.64 41.39-10.58 9.35-24.91 14.5-40.36 14.5z" fill="url(#a)"/><path d="M64 10.11c14.99 0 28.86 4.95 39.03 13.93C114.13 33.83 120 47.65 120 64c0 16.27-5.87 30.07-16.97 39.89-10.21 9.03-24.07 14-39.03 14-15.04 0-28.9-4.91-39.04-13.82C13.86 94.32 8 80.46 8 64c0-16.54 5.86-30.42 16.96-40.15C35.07 14.99 48.93 10.11 64 10.11m0-4c-31.15 0-60 20-60 57.89 0 37.68 28.85 57.89 60 57.89s60-20.73 60-57.89c0-37.37-28.85-57.89-60-57.89z" fill="#EB8F00"/><circle cx="37.53" cy="55.57" r="23.32" fill="#fff"/><defs><circle id="b" cx="37.53" cy="55.57" r="23.32"/></defs><clipPath id="c"><use xlink:href="#b"/></clipPath><circle cx="31.33" cy="40.5" r="9.12" clip-path="url(#c)" fill="#242424"/><path d="M37.53 36.25c10.66 0 19.32 8.67 19.32 19.32s-8.67 19.32-19.32 19.32c-10.66 0-19.32-8.67-19.32-19.32s8.67-19.32 19.32-19.32m0-4c-12.88 0-23.32 10.44-23.32 23.32s10.44 23.32 23.32 23.32 23.32-10.44 23.32-23.32-10.44-23.32-23.32-23.32z" fill="#EB8F00"/><circle cx="91.2" cy="55.57" r="23.32" fill="#fff"/><defs><circle id="d" cx="91.2" cy="55.57" r="23.32"/></defs><clipPath id="e"><use xlink:href="#d"/></clipPath><circle cx="85" cy="40.5" r="9.12" clip-path="url(#e)" fill="#242424"/><path d="M91.2 36.25c10.66 0 19.32 8.67 19.32 19.32s-8.67 19.32-19.32 19.32-19.32-8.67-19.32-19.32 8.66-19.32 19.32-19.32m0-4c-12.88 0-23.32 10.44-23.32 23.32S78.32 78.89 91.2 78.89s23.32-10.44 23.32-23.32-10.44-23.32-23.32-23.32z" fill="#EB8F00"/><path d="M52.66 103.66c-.85.19-1.69-.09-2.25-.73-.69-.8-.83-2.01-.37-3.22 1.01-2.65 5.23-7.44 12.22-8.98s12.83 1.03 14.86 3.02c.93.9 1.31 2.05 1.01 3.07-.23.82-.88 1.42-1.74 1.61-.27.06-.56.08-.86.05-3.56-.31-7.51-.02-11.41.84-3.88.85-7.57 2.24-10.66 4.02-.26.15-.53.26-.8.32z" fill="#242424"/></svg>