<svg viewBox="0 0 128 128" width="128" height="128" xmlns="http://www.w3.org/2000/svg"><linearGradient id="a" x1="64" x2="64" y1="-20.189" y2="82.992" gradientUnits="userSpaceOnUse"><stop stop-color="#E04C74" offset="0"/><stop stop-color="#E35C6E" offset=".159"/><stop stop-color="#EC855D" offset=".469"/><stop stop-color="#FAC742" offset=".895"/><stop stop-color="#FAC742" offset=".898"/></linearGradient><path d="M64 119.89C36.07 119.89 6 102.4 6 64S36.07 8.11 64 8.11c15.48 0 29.81 5.12 40.36 14.43C115.9 32.72 122 47.06 122 64c0 16.86-6.1 31.17-17.64 41.39-10.58 9.35-24.91 14.5-40.36 14.5z" fill="url(#a)"/><path d="M64 10.11c14.99 0 28.86 4.95 39.03 13.93C114.13 33.83 120 47.65 120 64c0 16.27-5.87 30.07-16.97 39.89-10.21 9.03-24.07 14-39.03 14-15.04 0-28.9-4.91-39.04-13.82C13.86 94.32 8 80.46 8 64c0-16.54 5.86-30.42 16.96-40.15C35.07 14.99 48.93 10.11 64 10.11m0-4c-31.15 0-60 20-60 57.89 0 37.68 28.85 57.89 60 57.89s60-20.73 60-57.89c0-37.37-28.85-57.89-60-57.89z" fill="#CC2362"/><linearGradient id="b" x1="64.832" x2="64.832" y1="19.494" y2="107.24" gradientUnits="userSpaceOnUse"><stop stop-color="#E04C74" offset="0"/><stop stop-color="#E35C6E" offset=".159"/><stop stop-color="#EC855D" offset=".469"/><stop stop-color="#FAC742" offset=".895"/><stop stop-color="#FAC742" offset=".898"/></linearGradient><path d="M64.83 119.4c-27.86 0-57.84-17.44-57.84-55.74S36.97 7.92 64.83 7.91c15.44 0 29.73 5.11 40.25 14.39 11.51 10.16 17.59 24.46 17.59 41.35 0 16.82-6.08 31.09-17.59 41.27-10.54 9.34-24.84 14.48-40.25 14.48z" fill="url(#b)"/><path d="M64.83 9.91c14.95 0 28.77 4.93 38.92 13.89 11.07 9.77 16.92 23.55 16.92 39.85 0 16.23-5.85 29.98-16.92 39.78-10.18 9.01-24 13.96-38.92 13.96-15 0-28.82-4.89-38.93-13.78C14.84 93.89 8.99 80.07 8.99 63.66c0-16.49 5.85-30.34 16.91-40.03C35.98 14.78 49.81 9.91 64.83 9.91m0-4c-31.07 0-59.84 19.95-59.84 57.74 0 37.58 28.77 57.74 59.84 57.74s59.84-20.67 59.84-57.74c0-37.27-28.77-57.74-59.84-57.74z" fill="#CC2362"/><path d="M83.94 103.14a2.28 2.28 0 0 1-.89-.62c-4.16-4.7-10.99-7.79-18.31-7.79-7.31 0-14.15 3.09-18.31 7.79-.25.28-.55.49-.89.62-.75.28-1.6.12-2.2-.41-.58-.52-.79-1.31-.49-2.08 2.98-7.63 11.84-13.64 21.89-13.64s18.91 6 21.89 13.64c.3.76.09 1.56-.49 2.08-.6.53-1.46.69-2.2.41z" fill="#242424"/><g fill="#242424"><path d="M55.84 73.55c-.69 0-1.34-.25-1.89-.72-2.98-2.55-12.74-7.93-16.33-9.69-1.34-.65-1.98-1.97-1.67-3.32.31-1.34 1.45-2.27 2.79-2.27.25 0 .5.03.75.1 1.32.34 2.61.8 3.85 1.37 3.33 1.56 12.56 6.98 14.8 9.8.71.9.85 2.04.36 3.05-.5 1.02-1.54 1.68-2.66 1.68zM73.63 73.55c.69 0 1.35-.25 1.89-.72 2.98-2.55 12.74-7.93 16.33-9.69 1.34-.65 1.98-1.97 1.67-3.32-.31-1.34-1.45-2.27-2.79-2.27-.25 0-.5.03-.75.1-1.32.34-2.61.8-3.85 1.37-3.33 1.56-12.56 6.98-14.8 9.8-.71.9-.85 2.04-.36 3.05.51 1.02 1.55 1.68 2.66 1.68z"/><path d="M41.01 75.17c0 4.29 3.36 7.77 7.5 7.77s7.5-3.48 7.5-7.77v-1.46c0-4.29-3.36-7.77-7.5-7.77s-7.5 3.48-7.5 7.77v1.46zM73.47 75.17c0 4.29 3.36 7.77 7.5 7.77s7.5-3.48 7.5-7.77v-1.46c0-4.29-3.36-7.77-7.5-7.77s-7.5 3.48-7.5 7.77v1.46z"/></g></svg>