<svg xmlns="http://www.w3.org/2000/svg" xmlns:xlink="http://www.w3.org/1999/xlink" viewBox="0 0 128 128" width="128" height="128"><path fill="#8d6e63" d="M4 101h119.8v22H4z"/><path fill="#424242" d="M4 101h119.9v7H4z"/><path d="M122 103v18H6v-18h116m2-2H4v22h120v-22z" fill="#eee" opacity=".2"/><g fill="#212121"><circle cx="18" cy="99" r="6"/><circle cx="34" cy="99" r="6"/><circle cx="94" cy="99" r="6"/><circle cx="110" cy="99" r="6"/></g><linearGradient id="a" gradientUnits="userSpaceOnUse" x1="64.05" y1="4866" x2="64.05" y2="4937" gradientTransform="translate(0 -4838)"><stop offset="0" stop-color="#ff7043"/><stop offset=".613" stop-color="#f15a2b"/><stop offset="1" stop-color="#e64a19"/></linearGradient><path d="M115.9 99H12.2c-3.3 0-6-2.7-6-6V34c0-3.3 2.7-6 6-6h103.7c3.3 0 6 2.7 6 6v59c0 3.3-2.7 6-6 6z" fill="url(#a)"/><linearGradient id="b" gradientUnits="userSpaceOnUse" x1="6.1" y1="-668.88" x2="121.9" y2="-668.88" gradientTransform="matrix(1 0 0 -1 0 -586.03)"><stop offset=".004" stop-color="#ffeb3b"/><stop offset=".82" stop-color="#fcc830"/><stop offset="1" stop-color="#fbc02d"/></linearGradient><path fill="url(#b)" d="M6.1 79.7h115.8V86H6.1z"/><defs><path id="c" d="M115.9 99H12.2c-3.3 0-6-2.7-6-6V34c0-3.3 2.7-6 6-6h103.7c3.3 0 6 2.7 6 6v59c0 3.3-2.7 6-6 6z"/></defs><clipPath id="d"><use xlink:href="#c" overflow="visible"/></clipPath><path clip-path="url(#d)" fill="#689f38" d="M3.8 18.8h120.5V36H3.8z"/><defs><path id="e" d="M115.9 99H12.2c-3.3 0-6-2.7-6-6V34c0-3.3 2.7-6 6-6h103.7c3.3 0 6 2.7 6 6v59c0 3.3-2.7 6-6 6z"/></defs><clipPath id="f"><use xlink:href="#e" overflow="visible"/></clipPath><g clip-path="url(#f)"><path d="M21 74H5.6c-2.2 0-4-1.8-4-4V49.8c0-2.2 1.8-4 4-4H21c2.2 0 4 1.8 4 4V70c0 2.2-1.8 4-4 4z" fill="#4fc3f7"/></g><defs><path id="g" d="M115.9 99H12.2c-3.3 0-6-2.7-6-6V34c0-3.3 2.7-6 6-6h103.7c3.3 0 6 2.7 6 6v59c0 3.3-2.7 6-6 6z"/></defs><clipPath id="h"><use xlink:href="#g" overflow="visible"/></clipPath><g opacity=".2" clip-path="url(#h)"><path d="M21 47.8c1.1 0 2 .9 2 2V70c0 1.1-.9 2-2 2H5.6c-1.1 0-2-.9-2-2V49.8c0-1.1.9-2 2-2H21m0-2H5.6c-2.2 0-4 1.8-4 4V70c0 2.2 1.8 4 4 4H21c2.2 0 4-1.8 4-4V49.8c0-2.3-1.8-4-4-4z" fill="#424242"/></g><path d="M44.2 69.1H35c-2.2 0-4-1.8-4-4V49.8c0-2.2 1.8-4 4-4h9.1c2.2 0 4 1.8 4 4v15.3c.1 2.2-1.6 4-3.9 4z" fill="#4fc3f7"/><path d="M44.2 47.8c1.1 0 2 .9 2 2v15.3c0 1.1-.9 2-2 2H35c-1.1 0-2-.9-2-2V49.8c0-1.1.9-2 2-2h9.2m0-2H35c-2.2 0-4 1.8-4 4v15.3c0 2.2 1.8 4 4 4h9.1c2.2 0 4-1.8 4-4V49.8c.1-2.3-1.6-4-3.9-4z" fill="#424242" opacity=".2"/><path d="M66.4 68.9h-9.1c-2.2 0-4-1.8-4-4V49.5c0-2.2 1.8-4 4-4h9.1c2.2 0 4 1.8 4 4v15.3c0 2.3-1.8 4.1-4 4.1z" fill="#4fc3f7"/><path d="M66.4 47.5c1.1 0 2 .9 2 2v15.3c0 1.1-.9 2-2 2h-9.1c-1.1 0-2-.9-2-2V49.5c0-1.1.9-2 2-2h9.1m0-2h-9.1c-2.2 0-4 1.8-4 4v15.3c0 2.2 1.8 4 4 4h9.1c2.2 0 4-1.8 4-4V49.5c0-2.2-1.8-4-4-4z" fill="#424242" opacity=".2"/><path d="M88.5 69.1h-9.1c-2.2 0-4-1.8-4-4V49.8c0-2.2 1.8-4 4-4h9.1c2.2 0 4 1.8 4 4v15.3c0 2.2-1.8 4-4 4z" fill="#4fc3f7"/><path d="M88.5 47.8c1.1 0 2 .9 2 2v15.3c0 1.1-.9 2-2 2h-9.1c-1.1 0-2-.9-2-2V49.8c0-1.1.9-2 2-2h9.1m0-2h-9.1c-2.2 0-4 1.8-4 4v15.3c0 2.2 1.8 4 4 4h9.1c2.2 0 4-1.8 4-4V49.8c0-2.3-1.8-4-4-4z" fill="#424242" opacity=".2"/><path d="M110.6 69h-9.1c-2.2 0-4-1.8-4-4V49.7c0-2.2 1.8-4 4-4h9.1c2.2 0 4 1.8 4 4V65c0 2.2-1.8 4-4 4z" fill="#4fc3f7"/><g opacity=".2"><path d="M110.6 47.7c1.1 0 2 .9 2 2V65c0 1.1-.9 2-2 2h-9.1c-1.1 0-2-.9-2-2V49.7c0-1.1.9-2 2-2h9.1m0-2h-9.1c-2.2 0-4 1.8-4 4V65c0 2.2 1.8 4 4 4h9.1c2.2 0 4-1.8 4-4V49.7c0-2.2-1.8-4-4-4z" fill="#424242"/></g><linearGradient id="i" gradientUnits="userSpaceOnUse" x1="64.05" y1="91.89" x2="64.05" y2="99.89" gradientTransform="matrix(1 0 0 -1 0 127.89)"><stop offset=".004" stop-color="#ffeb3b"/><stop offset=".82" stop-color="#fcc830"/><stop offset="1" stop-color="#fbc02d"/></linearGradient><path d="M121.9 34v2H6.2v-2c0-3.3 2.7-6 6-6h103.7c3.3 0 6 2.7 6 6z" fill="url(#i)"/><g><path d="M25 49.8V70c0 2.2-1.8 4-4 4H6.2V45.8H21c2.2 0 4 1.8 4 4z" fill="#4fc3f7"/></g><g opacity=".2"><path d="M21 45.8H6.2v2.7H21v-.1c.7 0 1.3.6 1.3 1.3V70c0 .7-.6 1.3-1.3 1.3H6.2V74H21c2.2 0 4-1.8 4-4V49.8c0-2.3-1.8-4-4-4z" fill="#616161"/></g><g opacity=".2"><path d="M115.9 31c1.7 0 3 1.3 3 3v59c0 1.7-1.3 3-3 3H12.2c-1.6 0-3-1.3-3-3V34c0-1.7 1.4-3 3-3h103.7m0-3H12.2c-3.3 0-6 2.7-6 6v59c0 3.3 2.7 6 6 6h103.7c3.3 0 6-2.7 6-6V34c0-3.3-2.7-6-6-6z" fill="#424242"/></g></svg>