<svg viewBox="0 0 128 128" width="128" height="128" xmlns="http://www.w3.org/2000/svg"><linearGradient id="a" x1="63.992" x2="63.992" y1="19.717" y2="107.7" gradientUnits="userSpaceOnUse"><stop stop-color="#FEE133" offset=".5"/><stop stop-color="#FEDE32" offset=".612"/><stop stop-color="#FCD32F" offset=".708"/><stop stop-color="#FAC12B" offset=".797"/><stop stop-color="#F7A924" offset=".883"/><stop stop-color="#F6A323" offset=".9"/></linearGradient><path d="M63.99 119.89c-27.93 0-58-17.49-58-55.89s30.07-55.89 58-55.89c15.48 0 29.81 5.12 40.36 14.43 11.54 10.19 17.64 24.52 17.64 41.46 0 16.86-6.1 31.17-17.64 41.39-10.57 9.35-24.91 14.5-40.36 14.5z" fill="url(#a)"/><path d="M63.99 10.11c14.99 0 28.86 4.95 39.03 13.93 11.1 9.8 16.97 23.61 16.97 39.96 0 16.27-5.87 30.07-16.97 39.89-10.21 9.03-24.07 14-39.03 14-15.04 0-28.9-4.91-39.04-13.82C13.86 94.32 7.99 80.46 7.99 64c0-16.54 5.86-30.42 16.96-40.15 10.11-8.86 23.97-13.74 39.04-13.74m0-4c-31.15 0-60 20.01-60 57.89 0 37.68 28.85 57.89 60 57.89s60-20.73 60-57.89c0-37.37-28.85-57.89-60-57.89z" fill="#EB8F00"/><path d="M48.16 55.81c-5.73-1.73-13.75-1.15-18.36.7-2.51 1.05-1.13 4.39 1.28 3.89 2.38-.46 4.69-.59 7.2-.41-.01.06 0 .39 0 .39 0 4.9 3.17 7.85 6.67 7.85 1.73 0 3.46-.73 4.75-2.06 2.09-2.15 2.46-5.49 1.05-8.13-.12-.21-.92-1.73-2.59-2.23zM96.03 55.81c-5.73-1.73-13.75-1.15-18.36.7-2.51 1.05-1.13 4.39 1.28 3.89 2.38-.46 4.69-.59 7.2-.41-.01.06 0 .39 0 .39 0 4.9 3.17 7.85 6.67 7.85 1.73 0 3.46-.73 4.75-2.06 2.09-2.15 2.46-5.49 1.05-8.13-.13-.21-.93-1.73-2.59-2.23zM63.89 82c-10.49 0-17.97 6.29-20.22 9.78-.87 1.35-1.04 2.81-.46 3.91.44.83 1.24 1.31 2.2 1.31.32 0 .65-.06.99-.16 5.29-1.68 9.91-4.14 17.49-4.14 7.67 0 12.22 2.45 17.49 4.14.34.11.67.16.99.16.96 0 1.76-.48 2.2-1.31.58-1.1.41-2.56-.46-3.91C81.86 88.29 74.37 82 63.89 82z" fill="#242424"/><path d="M87.68 43.97c-2.2-.13-2.55-3.34-.06-3.66 1.82-.21 3.88-.1 5.82.35 5.34 1.06 10.06 4.31 12.85 8.34 1.39 2.08-1.32 3.8-2.93 2.26-4.03-4.01-9.61-6.75-15.68-7.29M37.88 43.97c2.2-.13 2.55-3.34.06-3.66-1.82-.21-3.88-.1-5.82.35-5.34 1.06-10.06 4.31-12.85 8.34-1.39 2.08 1.32 3.8 2.93 2.26 4.03-4.01 9.61-6.75 15.68-7.29" fill="#EB8F00" stroke="#EB8F00" stroke-miterlimit="10"/></svg>