<svg xmlns="http://www.w3.org/2000/svg" viewBox="0 0 128 128" width="128" height="128"><linearGradient id="a" gradientUnits="userSpaceOnUse" x1="61.729" y1="86.371" x2="61.729" y2="45.088" gradientTransform="matrix(0 -1 -1 0 128.005 125.73)"><stop offset=".001" stop-color="#616161"/><stop offset=".5" stop-color="#212121"/></linearGradient><path d="M77.28 124H50.72c-5.5 0-10-4.5-10-10V14c0-5.5 4.5-10 10-10h26.55c5.5 0 10 4.5 10 10v100c.01 5.5-4.49 10-9.99 10z" fill="url(#a)"/><linearGradient id="b" gradientUnits="userSpaceOnUse" x1="61.729" y1="87.1" x2="61.729" y2="42.226" gradientTransform="rotate(-90 62.867 62.862)"><stop offset=".001" stop-color="#bfbebe"/><stop offset=".3" stop-color="#212121" stop-opacity="0"/><stop offset=".85" stop-color="#212121" stop-opacity="0"/><stop offset="1" stop-color="#bfbebe"/></linearGradient><path d="M77.28 124H50.72c-5.5 0-10-4.5-10-10V14c0-5.5 4.5-10 10-10h26.55c5.5 0 10 4.5 10 10v100c.01 5.5-4.49 10-9.99 10z" opacity=".5" fill="url(#b)"/><linearGradient id="c" gradientUnits="userSpaceOnUse" x1="4.078" y1="63.995" x2="120.038" y2="63.995" gradientTransform="rotate(-90 62.867 62.862)"><stop offset=".001" stop-color="#bfbebe"/><stop offset=".05" stop-color="#212121" stop-opacity="0"/><stop offset=".95" stop-color="#212121" stop-opacity="0"/><stop offset="1" stop-color="#bfbebe"/></linearGradient><path d="M77.28 124H50.72c-5.5 0-10-4.5-10-10V14c0-5.5 4.5-10 10-10h26.55c5.5 0 10 4.5 10 10v100c.01 5.5-4.49 10-9.99 10z" opacity=".2" fill="url(#c)"/><radialGradient id="d" cx="55.969" cy="60.297" r="13.562" gradientTransform="matrix(1 0 0 -1 3.99 121.41)" gradientUnits="userSpaceOnUse"><stop offset=".014" stop-color="#ffeb3b"/><stop offset=".626" stop-color="#fccd31"/><stop offset="1" stop-color="#fbc02d"/></radialGradient><circle cx="64" cy="63.99" r="13.56" fill="url(#d)"/><radialGradient id="e" cx="55.824" cy="23.794" r="13.562" gradientTransform="matrix(1 0 0 -1 3.99 121.41)" gradientUnits="userSpaceOnUse"><stop offset=".005" stop-color="#81c784"/><stop offset=".201" stop-color="#72be76"/><stop offset=".719" stop-color="#50a854"/><stop offset="1" stop-color="#43a047"/></radialGradient><circle cx="64" cy="100.93" r="13.56" fill="url(#e)"/><radialGradient id="f" cx="55.776" cy="97.904" r="13.562" gradientTransform="matrix(1 0 0 -1 3.99 121.41)" gradientUnits="userSpaceOnUse"><stop offset="0" stop-color="#e57373"/><stop offset=".197" stop-color="#e56564"/><stop offset=".718" stop-color="#e54542"/><stop offset="1" stop-color="#e53935"/></radialGradient><circle cx="64" cy="27.06" r="13.56" fill="url(#f)"/></svg>