<svg viewBox="0 0 128 128" width="128" height="128" xmlns="http://www.w3.org/2000/svg"><path d="M73.56 104.85c11.54 8.94 29.1 9.28 42.97.85 3.47-2.18 5.66-5.49 5.84-9.16.34-3.68-1.48-7.15-4.78-9.21a70.57 70.57 0 0 1-5.52-3.94L48.81 33.63c-3.47-2.6-6.35-5.54-8.91-8.51-4.01-4.65-10.24-6.83-16.68-6.18-2.15.22-4.43.87-6.56 1.79l-.15.02C10.14 23.5 5.55 28.88 4.23 35.19c-1.33 6.17.72 12.14 5.62 16l63.71 53.66z" fill="#FFE0B2"/><linearGradient id="a" x1="19.198" x2="105.08" y1="16.713" y2="112.68" gradientTransform="matrix(1.0451 -.1056 .0325 .9535 -4.974 9.73)" gradientUnits="userSpaceOnUse"><stop stop-color="#858585" offset="0"/><stop stop-color="#1A1A1A" offset=".996"/></linearGradient><path d="M74.38 102.44c11.41 8.85 28.78 9.18 42.5.84 3.43-2.15 5.6-5.43 5.78-9.06.33-3.64-1.46-7.08-4.73-9.11-1.87-1.2-3.74-2.54-5.46-3.89-12.75-9.63-25.51-19.26-38.26-28.9-8.68-6.55-17.51-12.93-25.81-19.96-6.18-5.23-10.78-15.19-23.81-14.9-2.13.05-4.39.86-6.49 1.77l-.15.02c-6.3 2.72-10.84 8.04-12.15 14.28-1.31 6.11.71 12.01 5.56 15.83l63.02 53.08z" fill="url(#a)"/><path d="M25.25 19.46c8.54 0 13 4.93 17.31 9.71 1.55 1.72 3.02 3.34 4.66 4.73 6.54 5.54 13.49 10.73 20.21 15.76 1.9 1.42 3.8 2.84 5.69 4.27l38.23 28.87a73.99 73.99 0 0 0 5.64 4.02c2.64 1.64 4.05 4.34 3.79 7.23v.08c-.02.43-.09.89-.23 1.45l-.05.19-.01.2v.47c-.15 2.94-1.94 5.69-4.88 7.55-6.25 3.8-13.36 5.8-20.55 5.8-7.55 0-14.7-2.31-20.13-6.5L11.25 49.65l-.06-.04c-4.24-3.34-6.08-8.57-4.9-14.02.74-3.54 2.63-6.79 5.47-9.38l.08-.07.07-.08c1.81-2.04 4.11-3.71 6.67-4.87l.14-.01.28-.12c1.68-.72 3.85-1.56 5.74-1.6h.51m0-2c-.18 0-.37 0-.55.01-2.13.05-4.39.86-6.49 1.77l-.15.02c-3.01 1.3-5.61 3.19-7.65 5.5-3.08 2.82-5.24 6.44-6.08 10.44-1.33 6.17.72 12.14 5.62 16l63.7 53.66c5.97 4.62 13.54 6.95 21.39 6.95 7.33 0 14.88-2.03 21.58-6.09 3.47-2.18 5.66-5.49 5.84-9.16.02-.17 0-.33.01-.5.14-.6.25-1.2.28-1.82.33-3.64-1.46-7.08-4.73-9.11-1.87-1.2-3.74-2.54-5.46-3.89-12.75-9.63-25.51-19.26-38.26-28.9-8.68-6.55-17.51-12.93-25.81-19.96-6.07-5.17-10.63-14.92-23.24-14.92z" fill="#424242" opacity=".2"/><linearGradient id="b" x1="59.16" x2="74.947" y1="107.37" y2="107.37" gradientTransform="matrix(1.0451 -.1056 .0325 .9535 -4.974 9.73)" gradientUnits="userSpaceOnUse"><stop stop-color="#F44336" offset="0"/><stop stop-color="#F04134" offset=".274"/><stop stop-color="#E63A30" offset=".519"/><stop stop-color="#D32E28" offset=".753"/><stop stop-color="#BA1E1D" offset=".978"/><stop stop-color="#B71C1C" offset="1"/></linearGradient><path d="M60.45 106.41c.44 3.89 2.84 6.59 5.14 6.22l.15-.02c.15-.02.46-.05.61-.2l7.91-2.63c1.07-.11 2.12-1.06 2.68-2.52-1.1-.73-2.2-1.46-3.15-2.21l-8.24-7.03-1.98.62c-2.44.54-3.71 3.9-3.12 7.77z" fill="url(#b)"/><path d="M63.93 100.02c1.22-.26 2.99 1.8 3.4 4.99.42 3.33-.72 5.83-1.95 6.09-1.22.26-2.99-1.8-3.4-4.99-.42-3.33.57-5.81 1.95-6.09z" fill="#3D3D3D"/><linearGradient id="c" x1="10.665" x2="26.262" y1="55.49" y2="55.49" gradientTransform="matrix(1.0451 -.1056 .0325 .9535 -4.974 9.73)" gradientUnits="userSpaceOnUse"><stop stop-color="#F44336" offset="0"/><stop stop-color="#F04134" offset=".274"/><stop stop-color="#E63A30" offset=".519"/><stop stop-color="#D32E28" offset=".753"/><stop stop-color="#BA1E1D" offset=".978"/><stop stop-color="#B71C1C" offset="1"/></linearGradient><path d="M8.04 62.07c.44 3.89 2.84 6.59 5.14 6.22l.15-.02c.15-.02.46-.05.61-.2l7.91-2.63c1.07-.25 1.97-1.04 2.54-2.22l-11.25-9.53-1.83.61c-2.44.52-3.71 3.88-3.27 7.77z" fill="url(#c)"/><path d="M65.13 100.1l7.46 6.37.06.04c.55.43 1.14.86 1.75 1.27-.12.09-.24.14-.32.15l-.2.02-.19.06-7.91 2.63-.41.14h-.01l-.05.01c-.04.01-.08.01-.13.01-.98 0-2.55-1.75-2.87-4.61v-.04l-.01-.04c-.47-3.07.49-5.41 1.68-5.66l.08-.02.08-.03.99-.3m.42-2.07l-1.98.62c-2.44.53-3.72 3.89-3.12 7.76.41 3.65 2.55 6.26 4.71 6.26.14 0 .28-.01.43-.03l.15-.02c.15-.02.46-.05.61-.2l7.91-2.63c1.07-.11 2.12-1.06 2.68-2.52-1.1-.73-2.2-1.46-3.15-2.21l-8.24-7.03zM12.73 55.78l9.09 7.7c-.13.08-.26.13-.39.16l-.08.02-.08.03-7.91 2.63-.41.14h-.01l-.05.01c-.04.01-.08.01-.13.01-.98 0-2.55-1.75-2.87-4.61-.37-3.23.66-5.5 1.82-5.75l.1-.02.09-.03.83-.29m.41-2.09l-1.83.61c-2.44.53-3.72 3.89-3.27 7.77.41 3.65 2.55 6.26 4.71 6.26.14 0 .28-.01.43-.03l.15-.02c.15-.02.46-.05.61-.2l7.91-2.63c1.07-.25 1.97-1.04 2.54-2.22l-11.25-9.54z" fill="#424242" opacity=".2"/><path d="M11.31 55.92c1.22-.26 2.99 1.8 3.4 4.99.42 3.33-.72 5.83-1.95 6.09-1.22.26-2.99-1.8-3.4-4.99-.57-3.31.58-5.81 1.95-6.09z" fill="#3D3D3D"/><ellipse transform="rotate(-6.033 11.718 61.246)" cx="11.72" cy="61.24" rx="1.5" ry="3.51" fill="#6B6B6B"/><ellipse transform="rotate(-6.033 11.718 61.246)" cx="11.72" cy="61.24" rx=".97" ry="2.27" fill="#B5B5B5"/><ellipse transform="rotate(-6.033 64.508 105.36)" cx="64.5" cy="105.35" rx="1.5" ry="3.51" fill="#6B6B6B"/><ellipse transform="rotate(-6.033 64.508 105.36)" cx="64.5" cy="105.35" rx=".97" ry="2.27" fill="#B5B5B5"/><path d="M100.07 89.58c.12.4.83.69 1.58.65s1.25-.38 1.13-.78-.83-.69-1.58-.66c-.75.04-1.25.4-1.13.79z" fill="#ccc"/><path d="M100.25 89.56c.11.36.76.63 1.45.6s1.15-.36 1.04-.72-.76-.63-1.45-.6-1.15.35-1.04.72z" fill="#999"/><path d="M100.25 89.56c.11.36.75.58 1.43.55.69-.03 1.05-.32.94-.69s-.64-.62-1.33-.58c-.69.03-1.15.35-1.04.72z" fill="#fff"/><path fill="#898989" d="M100.9 89.79l.57-.1.59.09-.22-.31.12-.31-.57.1-.59-.09.22.31z"/><path d="M85.8 88.7c.12.38.79.66 1.49.62.71-.03 1.19-.37 1.07-.74-.12-.38-.79-.65-1.5-.62-.7.03-1.18.37-1.06.74z" fill="#ccc"/><path d="M85.98 88.68c.11.35.72.6 1.38.57.65-.03 1.1-.34.99-.68-.11-.35-.73-.6-1.38-.57-.66.03-1.1.33-.99.68z" fill="#999"/><path d="M85.98 88.68c.11.35.71.55 1.36.52s1-.31.89-.66-.61-.58-1.26-.55c-.66.04-1.1.34-.99.69z" fill="#fff"/><path fill="#898989" d="M86.6 88.9l.53-.09.57.08-.21-.29.11-.29-.54.08-.56-.08.21.29z"/><path d="M92.07 91.82c.12.4.83.69 1.57.66.75-.04 1.25-.39 1.13-.78-.12-.4-.83-.69-1.57-.65-.75.03-1.25.38-1.13.77z" fill="#ccc"/><path d="M92.25 91.8c.11.36.76.63 1.45.6s1.15-.35 1.04-.72-.76-.63-1.45-.6-1.15.35-1.04.72z" fill="#999"/><path d="M92.25 91.8c.11.36.75.58 1.43.55.69-.03 1.05-.32.93-.69-.11-.37-.64-.61-1.33-.58-.68.03-1.14.35-1.03.72z" fill="#fff"/><path fill="#898989" d="M93.73 92.13l.08-.31.39-.23-.6-.07-.46-.22-.09.31-.39.23.6.07z"/><path d="M92.71 86.96c.12.38.79.66 1.5.62.71-.03 1.19-.37 1.07-.74-.12-.38-.79-.65-1.49-.62-.71.03-1.19.37-1.08.74z" fill="#ccc"/><path d="M92.89 86.94c.11.35.72.6 1.38.57s1.1-.34.99-.68c-.11-.35-.72-.6-1.38-.57s-1.1.33-.99.68z" fill="#999"/><path d="M92.89 86.94c.11.35.71.55 1.36.52s.99-.31.89-.65c-.11-.35-.61-.58-1.26-.55-.66.03-1.1.33-.99.68z" fill="#fff"/><path fill="#898989" d="M94.29 87.26l.08-.3.37-.22-.57-.06-.44-.21-.08.29-.37.22.57.06z"/><path d="M42.31 44.51c.11.4.81.72 1.56.71s1.27-.34 1.16-.74-.8-.72-1.56-.72c-.75.01-1.27.34-1.16.75z" fill="#ccc"/><path d="M42.49 44.49c.1.37.74.66 1.43.66.69-.01 1.17-.32 1.07-.69s-.74-.67-1.43-.66-1.17.31-1.07.69z" fill="#999"/><path d="M42.49 44.49c.1.37.73.61 1.42.6s1.07-.29.97-.66-.62-.64-1.31-.64c-.7.02-1.18.32-1.08.7z" fill="#fff"/><path fill="#898989" d="M43.14 44.74l.57-.07.59.1-.21-.31.13-.31-.57.08-.6-.11.22.31z"/><path d="M28 43.1c.1.38.77.69 1.48.68s1.21-.32 1.11-.71c-.11-.38-.77-.69-1.48-.68-.72.01-1.21.32-1.11.71z" fill="#ccc"/><path d="M28.18 43.08c.09.35.7.63 1.36.62s1.11-.3 1.02-.65c-.1-.35-.71-.63-1.36-.63-.66.01-1.11.31-1.02.66z" fill="#999"/><path d="M28.18 43.08c.09.35.69.58 1.35.58.66-.01 1.01-.27.92-.63-.09-.35-.59-.61-1.25-.6-.66 0-1.11.3-1.02.65z" fill="#fff"/><path fill="#898989" d="M28.8 43.32l.54-.07.57.1-.21-.3.13-.29-.55.07-.56-.1.2.3z"/><path d="M34.19 46.46c.11.4.81.72 1.56.72.75-.01 1.27-.34 1.16-.75-.11-.4-.81-.72-1.56-.72-.75.02-1.27.35-1.16.75z" fill="#ccc"/><path d="M34.37 46.44c.1.37.74.66 1.43.66.69-.01 1.17-.31 1.07-.68s-.74-.67-1.43-.66c-.69 0-1.17.31-1.07.68z" fill="#999"/><path d="M34.37 46.44c.1.37.73.61 1.42.6s1.06-.29.96-.66-.62-.64-1.31-.63-1.17.32-1.07.69z" fill="#fff"/><path fill="#898989" d="M35.84 46.83l.09-.31.41-.21-.6-.09-.46-.24-.09.31-.41.21.6.09z"/><path d="M35.01 41.6c.1.38.77.69 1.48.68s1.21-.33 1.11-.71-.76-.69-1.48-.68-1.21.33-1.11.71z" fill="#ccc"/><path d="M35.19 41.59c.09.35.71.63 1.36.62.66-.01 1.11-.3 1.02-.65-.1-.35-.7-.63-1.36-.63-.66.01-1.11.3-1.02.66z" fill="#999"/><path d="M35.19 41.59c.09.35.69.58 1.35.57s1.01-.27.92-.62c-.1-.35-.59-.61-1.25-.6-.66 0-1.11.29-1.02.65z" fill="#fff"/><path fill="#898989" d="M36.59 41.95l.09-.29.38-.2-.57-.09-.44-.23-.08.3-.39.2.57.09z"/></svg>