<svg viewBox="0 0 128 128" width="128" height="128" xmlns="http://www.w3.org/2000/svg" xmlns:xlink="http://www.w3.org/1999/xlink"><defs><path id="a" d="M4 4h120v120H4z"/></defs><clipPath id="b"><use xlink:href="#a"/></clipPath><g clip-path="url(#b)"><path d="M93.17 87.11c.53-.58 1.11-1.11 1.91-1.13 1.32-.03 3.36-.25 4.97-1.22.47-.28.87-.67 1.17-1.14-1.13-.23-2.68-.89-3.73-2.93-1.6-3.1.25-5.95 3.32-9.12 3.46-3.57 9.21-15.82 3.1-26.74-1.15-.17-17.81.08-22.03.08H63.89v49.71c19.76 0 23.67-1.29 29.28-7.51zM34.61 87.11c-.53-.58-1.11-1.11-1.91-1.13-1.32-.03-3.36-.25-4.97-1.22a3.54 3.54 0 0 1-1.17-1.14c1.13-.23 2.75-.86 3.73-2.93 1.6-3.35-.67-6.33-3.32-9.12-4.33-4.57-9.21-15.82-3.1-26.74 1.15-.17 17.81.08 22.03.08h17.99v49.71c-19.76 0-23.67-1.29-29.28-7.51z" fill="#312D2D"/><path d="M102.67 46.67l.26.5c5.42 10.4-.55 20.63-3.19 23.36-2.96 3.05-5.7 6.73-3.58 10.85.55 1.07 1.27 1.93 2.13 2.56-1.18.42-2.47.52-3.24.54-1.56.04-2.56 1.15-2.99 1.63-3.4 3.77-5.97 5.63-13.09 6.45 0 0-3.69 1.89-6.24 2.53V96c12.46-.45 16.47-2.23 21.56-7.88.39-.44.65-.63.83-.64 1.58-.04 3.84-.32 5.7-1.43.67-.4 1.24-.96 1.67-1.63l1.17-1.85-2.14-.43c-1.19-.24-2.07-.94-2.69-2.14-1.04-2.01-.2-4.01 3.07-7.39 4.05-4.18 9.28-14.94 3.97-25.89 0 0 0-.02.01-.05h-3.21zM25.88 72.6c2.71 2.86 4.17 5.1 3.06 7.44-.56 1.17-1.43 1.86-2.67 2.1l-2.14.43 1.17 1.85c.42.67 1 1.23 1.67 1.63 1.86 1.11 4.13 1.39 5.7 1.43.18 0 .44.2.83.64 5.07 5.62 9.06 7.42 21.39 7.88v-.95c-2.15-.6-6.08-2.48-6.08-2.48-7.12-.82-9.69-2.68-13.09-6.45-.43-.48-1.43-1.59-2.99-1.63-.76-.02-2.04-.12-3.21-.53.89-.65 1.61-1.53 2.13-2.61 2.22-4.67-1.56-8.66-3.59-10.8-3.84-4.05-8.03-13.55-3.8-23.12l.29-.65-.05-.09h-3.32c.02.06.04.11.07.17-4.36 10.67.32 21.2 4.63 25.74z" fill="#1F1A1A"/></g><linearGradient id="c" x1="63.791" x2="63.791" y1="21.771" y2="123.68" gradientUnits="userSpaceOnUse"><stop stop-color="#F78C1F" offset="0"/><stop stop-color="#F37F20" offset=".494"/><stop stop-color="#ED6D23" offset="1"/></linearGradient><path d="M20.22 118.09v9.89h87.14v-9.89c0-15.17-21.39-20.7-43.24-20.68-21.71.03-43.9 4.62-43.9 20.68z" clip-path="url(#b)" fill="url(#c)" stroke="#DA6727" stroke-linecap="round" stroke-linejoin="round" stroke-miterlimit="10" stroke-width="3"/><g clip-path="url(#b)"><path d="M63.17 107.23c-4 0-7.26-3.22-7.26-7.17v-8.98h16.16v8.98c0 3.96-3.26 7.17-7.26 7.17h-1.64z" fill="#EDC391"/><path d="M71.08 92.08v7.98c0 3.4-2.81 6.17-6.26 6.17h-1.65c-3.45 0-6.26-2.77-6.26-6.17v-7.98h14.17m2-2H54.92v9.98c0 4.51 3.7 8.17 8.26 8.17h1.65c4.56 0 8.26-3.66 8.26-8.17v-9.98h-.01z" fill="#D9AC77"/></g><g clip-path="url(#b)"><path d="M36.67 72.26c-5.36 0-9.71-4.67-9.71-10.41s4.36-10.41 9.71-10.41h54.65c5.36 0 9.71 4.67 9.71 10.41s-4.36 10.41-9.71 10.41H36.67z" fill="#FFD29C"/><path d="M91.33 52.43c4.8 0 8.71 4.22 8.71 9.41s-3.91 9.41-8.71 9.41H36.67c-4.8 0-8.71-4.22-8.71-9.41s3.91-9.41 8.71-9.41h54.66m0-2H36.67c-5.89 0-10.71 5.14-10.71 11.41 0 6.28 4.82 11.41 10.71 11.41h54.65c5.89 0 10.71-5.14 10.71-11.41.01-6.27-4.81-11.41-10.7-11.41z" fill="#EDBD82"/></g><g clip-path="url(#b)"><linearGradient id="d" x1="64" x2="64" y1="94.591" y2="12.825" gradientUnits="userSpaceOnUse"><stop stop-color="#FFD29C" offset="0"/><stop stop-color="#FFD39E" offset=".024"/><stop stop-color="#FCD8AF" offset=".316"/><stop stop-color="#FADCBA" offset=".629"/><stop stop-color="#F9DDBD" offset="1"/></linearGradient><path d="M64 95.27c-15.66 0-32.52-12.14-32.52-38.81 0-12.38 3.56-23.79 10.02-32.13 6.05-7.8 14.25-12.27 22.5-12.27s16.45 4.47 22.5 12.27c6.46 8.33 10.02 19.75 10.02 32.13 0 12.09-3.51 22.19-10.14 29.21-5.86 6.19-13.81 9.6-22.38 9.6z" fill="url(#d)"/><path d="M64 13.07c7.94 0 15.85 4.33 21.71 11.88 6.33 8.16 9.81 19.35 9.81 31.52 0 11.83-3.41 21.7-9.87 28.52-5.67 5.99-13.36 9.29-21.65 9.29s-15.98-3.3-21.65-9.29c-6.46-6.82-9.87-16.69-9.87-28.52 0-12.16 3.49-23.35 9.81-31.52C48.15 17.4 56.06 13.07 64 13.07m0-2c-17.4 0-33.52 18.61-33.52 45.39 0 26.64 16.61 39.81 33.52 39.81S97.52 83.1 97.52 56.46c0-26.78-16.12-45.39-33.52-45.39z" fill="#EDBD82"/></g><g clip-path="url(#b)"><g fill="#312D2D"><ellipse cx="47.56" cy="58.81" rx="4.93" ry="5.1"/><ellipse cx="80.44" cy="58.81" rx="4.93" ry="5.1"/></g><path d="M67.86 68.06c-.11-.04-.21-.07-.32-.08h-7.07c-.11.01-.22.04-.32.08-.64.26-.99.92-.69 1.63s1.71 2.69 4.55 2.69 4.25-1.99 4.55-2.69c.29-.71-.06-1.37-.7-1.63z" fill="#DBA689"/><path d="M72.42 76.14c-3.19 1.89-13.63 1.89-16.81 0-1.83-1.09-3.7.58-2.94 2.24.75 1.63 6.45 5.42 11.37 5.42s10.55-3.79 11.3-5.42c.75-1.66-1.09-3.33-2.92-2.24z" fill="#424242"/><radialGradient id="e" cx="47.544" cy="49.333" r="5.6" gradientUnits="userSpaceOnUse"><stop stop-color="#454140" offset=".09"/><stop stop-color="#454140" offset="1"/></radialGradient><path d="M54.78 49.82c-.93-1.23-3.07-3.01-7.23-3.01s-6.31 1.79-7.23 3.01c-.41.54-.31 1.17-.02 1.55.26.35 1.04.68 1.9.39s2.54-1.16 5.35-1.18c2.81.02 4.49.89 5.35 1.18s1.64-.03 1.9-.39c.28-.38.39-1.01-.02-1.55z" fill="url(#e)"/><radialGradient id="f" cx="80.038" cy="49.333" r="5.6" gradientUnits="userSpaceOnUse"><stop stop-color="#454140" offset=".09"/><stop stop-color="#454140" offset="1"/></radialGradient><path d="M87.27 49.82c-.93-1.23-3.07-3.01-7.23-3.01s-6.31 1.79-7.23 3.01c-.41.54-.31 1.17-.02 1.55.26.35 1.04.68 1.9.39s2.54-1.16 5.35-1.18c2.81.02 4.49.89 5.35 1.18s1.64-.03 1.9-.39c.29-.38.39-1.01-.02-1.55z" fill="url(#f)"/></g><g clip-path="url(#b)"><defs><path id="g" d="M64 4.03h-.04c-45.43.24-36.12 52.14-36.12 52.14s5.1 8.99 5.1 8.81c-.03-1.41.46-6.89.46-6.89l-2.68-2.92s3.89-25.44 6.79-24.91c4.45.81 26.54 2 26.57 2 7.83 0 14.92-.36 19.37-1.17 2.9-.53 9.64 1.7 10.68 4.45 1.33 3.54 3.13 19.71 3.13 19.71l-2.68 2.83s.49 5.51.46 6.89c0 .18 5.1-8.81 5.1-8.81S109.44 4.27 64 4.03z"/></defs></g><g clip-path="url(#b)"><radialGradient id="h" cx="64.117" cy="33.52" r="36.373" gradientTransform="matrix(1 0 0 .8642 0 4.552)" gradientUnits="userSpaceOnUse"><stop stop-color="#454140" offset="0"/><stop stop-color="#312D2D" offset="1"/></radialGradient><path d="M52.04 10.65C39.77 15 38.55 7.3 38.55 7.3c-6.66 3.32-2.28 10.45-2.28 10.45s-6.75-.5-9.64 5.34c-3.02 6.11-.36 10.78-.36 10.78S19.77 38 22.32 45.5c1.69 4.98 6.75 6.98 6.75 6.98-.62 10.74 2.77 15.95 2.77 15.95s4.21-18.45 3.81-21.27c0 0 7.76-1.54 16.57-6.58 5.95-3.41 10.02-7.41 16.71-8.91 10.18-2.29 12.45 5.08 12.45 5.08s9.42-1.81 12.26 11.27c1.17 5.38 1.67 14.37 2.31 19.84-.06-.48 3.5-6.4 4.12-12.4.23-2.23 3.61-7.67 4.63-11.72 2.21-8.8-.69-15.74-2.06-17.81-2.5-3.79-8.49-9-12.97-8.24.23-4.8-3.55-9.25-8.1-10.78-12.45-4.18-25.87 2.44-29.53 3.74z" fill="url(#h)"/><path d="M20.9 45.98c.08.22.17.45.27.68l2.28 2.89 1.1-2.79-.32-.63c-.21-.42-.36-.77-.48-1.11-2.13-6.26 3.11-9.73 3.33-9.88l1.18-.76-.68-1.23c-.09-.17-2.21-4.12.4-9.38 2.33-4.71 7.75-3.73 7.98-3.69l2.95.59s-5.11-6.08-.97-10.72c.55 1.01 1.54 2 2.84 3 4.94 3.81 12.94.07 14.1-.44 5.5-2.42 13.57-5.97 25.58-2.17 4.34 1.38 7.89 3.57 7.72 7.29l-.09 1.87 1.84-.31c3.6-.6 9.1 4.01 11.47 7.59 1.22 1.84 3.98 9.5 1.92 17.71-.11.45-.26.94-.46 1.5l-.22.62.04.08 1.09 1.9 2.11-1.9c.05-.23.27-1.14.35-1.46 2.24-8.93-.56-17.42-2.32-20.09-2.44-3.7-7.91-8.64-12.82-8.97-.79-4.72-5.86-8.12-10.78-9.56-18.25-5.33-28.21 3.3-28.78 3.5-3.97 1.41-7.13 1.52-9.15.32-1.97-1.17-2.32-3.23-2.33-3.31l-.34-2.43s-9.44 3.04-6.73 12.34c-2.93.12-5.64 1.31-7.68 5.43-2.42 4.9-1.56 8.99-.86 10.95-2.54 2.11-5.56 6.61-3.54 12.57z" fill="#1F1A1A"/></g><g clip-path="url(#b)"><defs><path id="i" d="M0 0h128v128H0z"/></defs><clipPath id="j"><use xlink:href="#i"/></clipPath><path clip-path="url(#j)" fill="none" d="M18.72 6.72h90.55v90.55H18.72z"/></g><g clip-path="url(#b)"><defs><path id="k" d="M0 0h128v128H0z"/></defs><clipPath id="l"><use xlink:href="#k"/></clipPath><path clip-path="url(#l)" fill="none" d="M16.98 5.25h94.03v94.03H16.98z"/></g><g clip-path="url(#b)"><path d="M29.51 16.62c2.89-3.2 7.99-6.2 13.53-8.3 8.58-3.25 11.63-3.97 16.51-4.01 2.23-.02 3.22.59 2.84 1.81-.42 1.34-1.53 2.55-4.45 2.68-4.48.37-7.1 1.98-11.26 4.34-1.96.93-3.49 5.68-5.56 7.15-1.91 1.36-6.58 5.89-7.93 13.97-.4 2.38-10.89 1.1-11.02-3.64-.04-1.35 2.09-8.19 7.34-14z" fill="#FFD29C"/><path d="M59.64 6.32h.24c-.37.24-.99.44-2.04.49h-.07c-4.68.38-7.51 1.99-11.43 4.23l-.6.34c-1.52.77-2.55 2.48-3.63 4.3-.71 1.18-1.51 2.53-2.15 2.99-.71.5-6.83 5.1-8.64 14.67-.23.05-.58.09-1.06.09-2.71 0-6.05-1.32-6.09-2.83.05-1.09 1.95-7.25 6.83-12.64 2.53-2.8 7.3-5.7 12.75-7.77 8.23-3.12 11.18-3.84 15.82-3.88l.07.01m0-2h-.09c-4.89.04-7.94.76-16.51 4.01-5.54 2.1-10.64 5.1-13.53 8.3-5.25 5.81-7.38 12.65-7.34 14.01.09 3.18 4.85 4.8 8.09 4.8 1.58 0 2.8-.39 2.93-1.17 1.35-8.08 6.02-12.61 7.93-13.97 2.07-1.47 3.6-6.22 5.56-7.15 4.16-2.36 6.78-3.98 11.26-4.34 2.92-.13 4.03-1.34 4.45-2.68.38-1.21-.58-1.81-2.75-1.81z" fill="#E3B57C"/></g><g clip-path="url(#b)"><path d="M98.91 16.62c-2.89-3.2-7.99-6.2-13.53-8.3-8.58-3.25-11.63-3.97-16.51-4-2.23-.02-3.22.59-2.84 1.81.42 1.34 1.53 2.55 4.45 2.68 4.48.37 7.1 1.98 11.26 4.34 1.96.93 3.49 5.68 5.56 7.15 1.91 1.36 6.58 5.89 7.93 13.97.4 2.38 10.89 1.1 11.02-3.64.04-1.36-2.09-8.2-7.34-14.01z" fill="#FFD29C"/><path d="M68.78 6.32h.07c4.64.03 7.59.76 15.82 3.88 5.46 2.07 10.22 4.97 12.75 7.77 4.88 5.39 6.78 11.55 6.83 12.61-.04 1.54-3.38 2.86-6.09 2.86-.49 0-.84-.05-1.06-.09-1.81-9.57-7.93-14.17-8.64-14.67-.65-.46-1.45-1.8-2.15-2.99-1.08-1.82-2.1-3.53-3.63-4.3l-.6-.34c-3.92-2.23-6.75-3.84-11.43-4.23h-.07c-1.04-.05-1.66-.25-2.04-.49.07-.01.15-.01.24-.01m0-2c-2.17 0-3.13.61-2.75 1.81.42 1.34 1.53 2.55 4.45 2.68 4.48.37 7.1 1.98 11.26 4.34 1.96.93 3.49 5.68 5.56 7.15 1.91 1.36 6.58 5.89 7.93 13.97.13.78 1.35 1.17 2.93 1.17 3.24 0 8-1.62 8.09-4.8.04-1.35-2.09-8.2-7.34-14.01-2.89-3.2-7.99-6.2-13.53-8.3-8.58-3.26-11.63-3.98-16.51-4.01h-.09z" fill="#E3B57C"/></g><g clip-path="url(#b)"><linearGradient id="m" x1="32.927" x2="32.927" y1="21.771" y2="123.68" gradientUnits="userSpaceOnUse"><stop stop-color="#F78C1F" offset="0"/><stop stop-color="#F37F20" offset=".494"/><stop stop-color="#ED6D23" offset="1"/></linearGradient><path d="M31.67 94.97c-8.41-8.41-7.08-19.3-7.08-19.3l-9.33-3.33 8.45 36.45h26.88l-5.89-9.24c.01-.01-8.08.37-13.03-4.58z" fill="url(#m)"/><defs><path id="n" d="M39.12 143.33l-.91-2.4c-13.12-3.43-24.76-.26-30.35-29.31L4.55 74.54c-.13-.64-.25-1.29-.3-1.94 0-.04-.01-.09-.01-.13-.19-2.85.49-5.7 1.73-8.28l11.49-48.17c.42-1.04 8.88-.53 9.99 0l9.87 5.5c1.24.69 1.31 1.91 1.02 2.91l-11.13 40.8c-.69 2.42-.92 4.97-.47 7.44.02.08.03.17.05.25.12.61 6.95 20.41 6.95 20.41l-6.28.67 11.66 49.33z"/></defs><clipPath id="o"><use xlink:href="#n"/></clipPath><g clip-path="url(#o)"><linearGradient id="p" x1="23.474" x2="23.474" y1="23.216" y2="121.93" gradientUnits="userSpaceOnUse"><stop stop-color="#F78C1F" offset="0"/><stop stop-color="#F37F20" offset=".494"/><stop stop-color="#ED6D23" offset="1"/></linearGradient><path d="M38.72 139.52c-.04-.02-.09-.03-.13-.04-1.94-.51-3.74-.87-5.47-1.21-9.62-1.92-15.43-3.08-20.02-26.93L6.02 74.25c-.11-.51-.23-1.15-.27-1.77l-.01-.12c-.16-2.45.39-5.05 1.58-7.53.02-.04.03-.07.05-.11l16.56-42.81c.07-.17.35-.38.64-.38.07 0 .14.01.2.04l11.33 5.96c.16.09.53.3.28 1.17L24.63 68.65c-.79 2.75-1.6 5.59 5.66 25.74l10.94 46.04-2.51-.91z" fill="url(#p)"/><path d="M24.97 23.38l9.88 5.2-11.62 39.51-.04.14c-.85 2.97-1.74 6.04 5.66 26.59l10.28 43.26c-.06-.02-.11-.04-.17-.05-1.99-.52-3.8-.88-5.55-1.23-4.73-.95-8.15-1.63-10.95-4.61-3.28-3.49-5.79-10.21-7.89-21.14L7.49 73.97c0-.02-.01-.03-.01-.05-.09-.44-.2-1.01-.24-1.55l-.01-.11c-.14-2.19.35-4.53 1.44-6.78.03-.07.07-.15.1-.22l16.2-41.88m-.4-3.34c-.87 0-1.72.56-2.04 1.34L5.97 64.19c-1.24 2.58-1.92 5.42-1.73 8.28 0 .04.01.09.01.13.05.65.16 1.3.3 1.94l7.08 37.08c5.59 29.05 13.46 25.89 26.58 29.31l5.13 1.86-11.6-48.83c-7.28-20.17-6.31-22.63-5.62-25.05l11.7-39.79c.29-1 .22-2.22-1.02-2.91l-11.38-5.99c-.28-.12-.56-.18-.85-.18z" fill="#DA6727"/></g><path d="M32.32 98.72c-2.2-1.75-3.38-3.97-3.78-4.76-.37-.74.26-1.89.95-2.35s.56-1.81 1.75.79 2.56 4.05 4.69 5.09c1.97.96 5.22.39 8.01.01 3.14-.44 5.72-.77 5.72-.77l4.48 1.71.55.85s-3.89.09-7.48.72c-5.21.91-11.49 1.41-14.89-1.29z" fill="#DA6727"/></g><g clip-path="url(#b)"><linearGradient id="q" x1="95.073" x2="95.073" y1="21.771" y2="123.68" gradientUnits="userSpaceOnUse"><stop stop-color="#F78C1F" offset="0"/><stop stop-color="#F37F20" offset=".494"/><stop stop-color="#ED6D23" offset="1"/></linearGradient><path d="M96.33 94.97c7.14-9.52 7.08-19.3 7.08-19.3l9.33-3.33-8.45 36.45H77.41L86.3 100c-.01 0 8.66-3.2 10.03-5.03z" fill="url(#q)"/><defs><path id="r" d="M88.88 143.33l.91-2.4c13.12-3.43 24.76-.26 30.35-29.31l3.32-37.08c.13-.64.25-1.29.3-1.94 0-.04.01-.09.01-.13.19-2.85-.49-5.7-1.73-8.28l-11.49-48.17c-.42-1.04-8.88-.53-9.99 0l-9.87 5.5c-1.24.69-1.31 1.91-1.02 2.91l11.13 40.8c.69 2.42.92 4.97.47 7.44-.02.08-.03.17-.05.25-.12.61-6.95 20.41-6.95 20.41l6.28.67-11.67 49.33z"/></defs><clipPath id="s"><use xlink:href="#r"/></clipPath><g clip-path="url(#s)"><linearGradient id="t" x1="104.53" x2="104.53" y1="23.216" y2="121.93" gradientUnits="userSpaceOnUse"><stop stop-color="#F78C1F" offset="0"/><stop stop-color="#F37F20" offset=".494"/><stop stop-color="#ED6D23" offset="1"/></linearGradient><path d="M97.7 94.39c7.26-20.16 6.45-23 5.66-25.74L91.62 28.7c-.25-.86.12-1.07.31-1.18l11.35-5.97c.01 0 .08-.02.15-.02.29 0 .57.21.65.41l16.55 42.78c.01.04.03.07.05.11 1.2 2.48 1.74 5.08 1.58 7.53l-.01.13c-.04.62-.17 1.25-.27 1.73l-7.09 37.1c-4.59 23.85-10.39 25.01-20.02 26.93-1.73.35-3.53.71-5.47 1.21-.04.01-.09.03-.13.04l-2.52.91L97.7 94.39z" fill="url(#t)"/><path d="M103.03 23.38l16.2 41.88c.03.07.06.15.1.22 1.08 2.25 1.58 4.59 1.44 6.78l-.01.11c-.04.53-.15 1.1-.24 1.54 0 .02-.01.03-.01.05l-7.08 37.07c-2.1 10.93-4.61 17.65-7.89 21.14-2.8 2.98-6.22 3.66-10.95 4.61-1.75.35-3.57.71-5.55 1.23-.06.01-.11.03-.17.05L99.15 94.8c7.4-20.54 6.52-23.62 5.66-26.59l-.05-.16-11.61-39.47 9.88-5.2m.4-3.34c-.29 0-.57.06-.85.19L91.2 26.22c-1.24.69-1.31 1.91-1.02 2.91l11.7 39.79c.69 2.42 1.66 4.87-5.62 25.05L84.65 142.8l5.13-1.86c13.12-3.43 20.99-.26 26.58-29.31l7.08-37.08c.13-.64.25-1.29.3-1.94 0-.04.01-.09.01-.13.19-2.85-.49-5.7-1.73-8.28l-16.56-42.81c-.31-.79-1.16-1.35-2.03-1.35z" fill="#DA6727"/></g><path d="M95.56 98.72c2.2-1.75 3.38-3.97 3.78-4.76.37-.74-.26-1.89-.95-2.35s-.56-1.81-1.75.79-2.56 4.05-4.69 5.09c-1.97.96-5.22.39-8.01.01-3.14-.44-5.72-.77-5.72-.77l-4.48 1.71-.55.85s3.89.09 7.48.72c5.21.91 11.49 1.41 14.89-1.29z" fill="#DA6727"/></g></svg>