<svg viewBox="0 0 128 128" width="128" height="128" xmlns="http://www.w3.org/2000/svg" xmlns:xlink="http://www.w3.org/1999/xlink"><defs><path id="a" d="M4 4h120v120H4z"/></defs><clipPath id="b"><use xlink:href="#a"/></clipPath><g clip-path="url(#b)"><linearGradient id="c" x1="-878.11" x2="-861.68" y1="-13.71" y2="19.49" gradientTransform="scale(-1 1) rotate(-19.957 -400.908 -2279.649)" gradientUnits="userSpaceOnUse"><stop stop-color="#E0BB95" offset=".55"/><stop stop-color="#CCA47A" offset=".83"/><stop stop-color="#C48E6A" offset="1"/></linearGradient><path d="M55.09 12.6c3.46-3.75 10.05-5.91 14.84-4.15 5.35 1.97 7.56 6.54 7.38 11.74-.07 1.88-.47 3.7-1.03 4.94-.07.15-.59 1.22-.68 1.57-.47 1.32 1.91 3.18 1.93 4.75.02 1.18-2.48 1.44-2.71 1.61-1.12.84-.59 5.95-7.16 5.19-2.52-.29-2.75-.42-3.54-.49-1.58-.15-2.77 2.26-2.77 2.26s-2.75 5.69-6.78 3.54c-4.6-2.45-3.35-5.66-3.35-5.66s3.44-4.37 2.1-9.16c-1.27-4.57-.45-13.72 1.77-16.14z" fill="url(#c)"/><linearGradient id="d" x1="77.942" x2="51.755" y1="29.807" y2="23.523" gradientUnits="userSpaceOnUse"><stop stop-color="#BA8F63" offset="0"/><stop stop-color="#B07853" offset=".998"/></linearGradient><path d="M66.21 8.83c1.23 0 2.37.19 3.38.56 6.11 2.25 6.83 7.71 6.72 10.76-.06 1.68-.41 3.39-.94 4.56l-.06.13c-.33.7-.57 1.23-.66 1.55-.39 1.16.36 2.3 1.02 3.3.38.58.81 1.24.86 1.68-.17.16-.66.35-1.48.55-.38.1-.61.15-.83.31-.53.4-.76 1.04-1.03 1.79-.55 1.54-1.18 3.28-4.27 3.28-.36 0-.74-.02-1.15-.07-1.49-.17-2.15-.28-2.63-.36-.32-.05-.58-.1-.93-.13-.08-.01-.16-.01-.24-.01-2.07 0-3.38 2.53-3.53 2.83-.02.03-1.74 3.46-4.06 3.46-.44 0-.88-.12-1.35-.37-3.31-1.77-3.03-3.84-2.91-4.31.64-.87 3.49-5.14 2.16-9.89-1.22-4.36-.32-13.15 1.54-15.17 2.46-2.66 6.63-4.45 10.39-4.45m0-1c-4.07 0-8.49 1.93-11.11 4.77-2.22 2.41-3.04 11.57-1.77 16.12 1.34 4.79-2.1 9.16-2.1 9.16s-1.25 3.2 3.35 5.66c.64.34 1.25.49 1.82.49 3.01 0 4.96-4.02 4.96-4.02s1.12-2.27 2.63-2.27c.05 0 .09 0 .14.01.79.08 1.01.2 3.54.49.45.05.87.08 1.26.08 5.24 0 4.85-4.49 5.89-5.27.22-.17 2.73-.43 2.71-1.61-.02-1.56-2.4-3.42-1.93-4.75.09-.35.61-1.42.68-1.57.56-1.23.97-3.05 1.03-4.94.19-5.2-2.02-9.76-7.38-11.74-1.16-.41-2.42-.61-3.72-.61z" fill="url(#d)"/><path d="M73.63 35.63c-.91-.12-1.76-.5-2.41-1.21-.71-.78-.01-1.35.86-.77.53.36 1.31.63 2.08.63l-.53 1.35z" fill="#6D4C41"/><ellipse transform="rotate(-77.297 71.434 26.682)" cx="71.44" cy="26.68" rx="1.86" ry="1.21" fill="#5D4037"/><path d="M72.88 24.16c1.12.5 1.5-.23 1.2-.9-.22-.5-.88-.97-2.28-.89-1.32.08-1.95.74-2.36 1.15-.41.4-.43.86-.14.94.39.1 2.19-.92 3.58-.3z" fill="#AB872F"/><radialGradient id="e" cx="-934.5" cy="-20.542" r="14.072" gradientTransform="scale(-1 1) rotate(-3.141 39.087 -15661.702)" gradientUnits="userSpaceOnUse"><stop stop-color="#BFA055" offset="0"/><stop stop-color="#AB872F" offset="1"/></radialGradient><path d="M51.81 12.37c2.3-3.59 5.93-3.58 5.93-3.58s2.53-5.82 10.92-2.73c2.58.95 3.94 2.98 5.38 4.04 1.24.91 2.7 1.06 3.44-1.27 1.64 1.32 2.15 2.98.67 5.28 1.65.76 1.98 2.4 2 4.22.02 2.01-1.37 3.61-3.3 4.06-.02-2-2.05-3.27-3.79-3.61-1.53-.3-3.19-.3-4.5-1.15-.5-.32-.94-.76-1.42-1.12-.12-.03-.19-.04-.19-.04-2.06.64-.45 5.52-3.03 7.7-.51.43-.82.18-.82.18l-.6-1.38c-.47-.96-.9-1.8-1.73-1.78-2.43.06-2.81 4.29-.22 5.74.26.14-1.43 2.12-1.57 2.22-2.42 1.55-3.68 1.16-5.13.97-2.01-.27-2.83-2.13-2.83-2.13s2.65-.67.21-3.86c-2.41-3.16-.01-5.8-.01-5.8s-1.19-3.18.59-5.96z" fill="url(#e)"/><path d="M64.14 4.67c-4.27 0-6.19 2.74-6.71 3.64-.97.08-3.99.59-6.04 3.79-1.61 2.51-.98 5.26-.72 6.12-.56.77-2.04 3.31.16 6.19.76 1 1.13 1.85.88 2.38-.23.48-.62.61-.97.61-.38 0-.71-.15-.71-.15s.28 2.38 3.31 3.05c.08.02.55.14 1.04.14.28 0 .58-.04.82-.16 0 0-2.8-.59-3.49-2.07.26-.16.53-.39.72-.68.42-.65.62-1.82-.82-3.72-2.13-2.78-.12-5.07-.03-5.17l.2-.22-.1-.28c-.01-.03-1.09-2.98.54-5.51 2.12-3.31 5.37-3.35 5.51-3.35h.32l.13-.29c.08-.17 1.54-3.34 5.91-3.34 1.22 0 2.68.25 4.39.88 1.66.61 2.81 1.72 3.82 2.7.49.47.95.92 1.43 1.28.64.47 1.27.71 1.86.71.21 0 .42-.03.62-.1.61-.2 1.1-.68 1.46-1.44 1.12 1.18 1.13 2.49.06 4.17l-.31.48.52.24c1.2.55 1.78 1.73 1.71 3.77-.05 1.54-1.4 2.99-2.85 3.55l.16.98c2.22-.52 3.65-2.34 3.68-4.54.02-1.61-.38-3.41-1.81-4.4 1.17-2.13.82-3.97-1.05-5.48L77.22 8l-.22.68c-.19.58-.53 1.31-1.1 1.49-.1.03-.2.05-.31.05-.49 0-.99-.31-1.28-.52-.43-.32-.87-.74-1.33-1.19-1.08-1.05-2.31-2.23-4.17-2.92-1.79-.65-3.35-.92-4.67-.92z" fill="#8F7635"/></g><g clip-path="url(#b)"><radialGradient id="f" cx="50.528" cy="50.201" r="17.081" gradientUnits="userSpaceOnUse"><stop stop-color="#F78C1F" offset=".367"/><stop stop-color="#F47F1E" offset=".536"/><stop stop-color="#EB5D1B" offset=".85"/><stop stop-color="#E64A19" offset="1"/></radialGradient><path d="M36.1 65.44l.59-2.34 7.95-16.9c1.67-3.55 4.62-8.05 9.23-9.33.88-.24 1.75-.37 2.59-.37 1.49 0 4.17.41 5.49 3.14l2.38 4.94-2.44 8.69-4.31 12.37-.42 1.79-21.06-1.99z" fill="url(#f)"/><path d="M56.45 37c1.37 0 3.84.37 5.04 2.86l2.3 4.77-2.38 8.47-4.31 12.37-.03.1-.31 1.32L36.72 65l.43-1.69 7.94-16.91c1.33-2.83 4.25-7.77 8.91-9.06.83-.23 1.65-.34 2.45-.34m0-1c-.89 0-1.81.13-2.72.39-4.38 1.22-7.54 5.33-9.55 9.6L36.2 62.98l-.73 2.91 22.08 2.08.51-2.17 4.32-12.4 2.49-8.87-2.46-5.11C61.25 37.04 58.96 36 56.45 36z" fill="#DA6727"/></g><g clip-path="url(#b)"><path fill="#7C7C7C" d="M35.14 72.23V69l1.43-5.47 21.41 2.76 15.81 3.06v2.88z"/><path d="M36.95 64.08l20.94 2.7 15.4 2.98v1.97H35.64v-2.66l1.31-4.99m-.75-1.1l-1.56 5.96v3.79h39.65v-3.79L58.05 65.8 36.2 62.98z" fill="#5B5B5B"/></g><g clip-path="url(#b)"><radialGradient id="g" cx="64.383" cy="92.888" r="52.144" gradientTransform="matrix(1 0 0 .4605 0 50.116)" gradientUnits="userSpaceOnUse"><stop stop-color="#FF9800" offset=".5"/><stop stop-color="#FA8B00" offset=".765"/><stop stop-color="#F57C00" offset=".995"/></radialGradient><path d="M7.61 73.15H119.2s-.13 17.86-10.14 24.98h-81.9s-13.2-9.91-19.55-24.98z" fill="url(#g)" stroke="#E37200" stroke-miterlimit="10"/><path d="M119.49 76.64H8.51c-2.49 0-4.51-2.01-4.51-4.5s2.02-4.51 4.51-4.51H119.5c2.49 0 4.51 2.02 4.51 4.51a4.517 4.517 0 0 1-4.52 4.5z" fill="#DB5E2C"/><path d="M119.49 76.64H8.51c-2.49 0-4.51-2.01-4.51-4.5s2.02-4.51 4.51-4.51H119.5c2.49 0 4.51 2.02 4.51 4.51a4.517 4.517 0 0 1-4.52 4.5z" fill="#E65100"/><path d="M119.49 68.63c1.93 0 3.51 1.57 3.51 3.51 0 1.93-1.57 3.51-3.51 3.51H8.51C6.57 75.64 5 74.07 5 72.14s1.57-3.51 3.51-3.51h110.98m0-1H8.51a4.511 4.511 0 0 0 0 9.02H119.5c2.49 0 4.51-2.02 4.51-4.51a4.526 4.526 0 0 0-4.52-4.51z" fill="#D24A00"/></g><path clip-path="url(#b)" fill="#039BE5" d="M0 93.58h127.93V128H0z"/><g clip-path="url(#b)"><g fill="#29B6F6"><path d="M.03 107.36c6.06 0 9.43-7.19 16-7.19h-16v7.19zM16.03 100.18c6.57 0 9.93 7.19 16 7.19s9.43-7.19 16-7.19h-32z"/><path d="M48.02 100.18c6.57 0 9.93 7.19 16 7.19 6.06 0 9.43-7.19 16-7.19h-32z"/><path d="M80.01 100.18c6.57 0 9.93 7.19 16 7.19 6.06 0 9.43-7.19 16-7.19h-32z"/><path d="M112 100.18c6.57 0 9.93 7.19 16 7.19v-7.19h-16z"/></g><path fill="#29B6F6" d="M0 91.58h128v8.71H0z"/><path d="M127 92.58V127H1V92.58h126m1-1H0V128h128V91.58z" fill="#17A3E3"/></g><g clip-path="url(#b)"><path fill="#FFA726" d="M56.377 89.406l33.77-34.097 4.015 3.976L60.39 93.382z"/><path d="M90.15 56.01l3.3 3.27-33.07 33.39-3.3-3.27 33.07-33.39m-.01-1.41L55.66 89.41l4.72 4.68 34.48-34.81-4.72-4.68z" fill="#ED9513"/></g><path clip-path="url(#b)" fill="#EA960F" d="M90.41 63.8l-8.88-.48 9.86-10.24 5.27 4.29z"/><g clip-path="url(#b)"><path d="M46.08 111.41c-2.04 0-3.96-.79-5.41-2.23-3.01-2.98-3.04-7.86-.05-10.88l8.97-9.05a7.648 7.648 0 0 1 5.46-2.28c2.04 0 3.96.79 5.41 2.23 3.01 2.98 3.04 7.86.05 10.88l-8.97 9.05a7.63 7.63 0 0 1-5.46 2.28z" fill="#FFD54F"/><path d="M55.04 87.47c1.91 0 3.7.74 5.06 2.08a7.16 7.16 0 0 1 2.13 5.08c.01 1.92-.73 3.73-2.08 5.1l-8.97 9.05a7.163 7.163 0 0 1-5.11 2.13c-1.91 0-3.7-.74-5.06-2.08a7.16 7.16 0 0 1-2.13-5.08c-.01-1.92.73-3.73 2.08-5.1l8.97-9.05a7.205 7.205 0 0 1 5.11-2.13m0-1c-2.11 0-4.22.81-5.82 2.43l-8.97 9.05c-3.18 3.21-3.16 8.4.06 11.58a8.172 8.172 0 0 0 5.76 2.37c2.11 0 4.22-.81 5.82-2.43l8.97-9.05c3.18-3.21 3.16-8.4-.06-11.58a8.138 8.138 0 0 0-5.76-2.37z" fill="#EDC239"/></g><g clip-path="url(#b)"><path fill="none" d="M98.2 55.83l-1.69-.69"/><path d="M88.42 53.59c-.36-.59-.18-1.36.41-1.73l4.01-2.47c.59-.36 1.36-.18 1.73.41.36.59.18 1.36-.41 1.73L90.14 54c-.59.37-1.36.18-1.72-.41z" fill="#C48E6A"/><path d="M95.78 53.16c-.54.44-1.33.36-1.76-.18l-1.39-1.7c-.44-.54-.36-1.33.18-1.76.54-.44 1.33-.36 1.76.18l1.39 1.7c.44.53.36 1.32-.18 1.76z" fill="#C48E6A"/></g><g clip-path="url(#b)"><path d="M90.75 53.29l-1.69 5.89 3.7 3.34s2.68.82 3.28-.03c.2-.28.08-.9.18-1.07.25-.43.88-.39 1.16-.96.14-.28.01-.93-.07-1.3-.05-.24.15-.59.37-.69.48-.2.72-.39.85-.79.14-.41.06-.86-.15-1.27-.21-.4-.13-1 .24-1.26.32-.22.56-.96.11-1.53-.5-.63-2.77-1.37-2.77-1.37l-5.21 1.04z" fill="#C48E6A"/></g><linearGradient id="h" x1="61.764" x2="96.935" y1="53.006" y2="53.006" gradientUnits="userSpaceOnUse"><stop stop-color="#CCA47A" offset=".002"/><stop stop-color="#D6B088" offset=".258"/><stop stop-color="#DEB892" offset=".59"/><stop stop-color="#E0BB95" offset="1"/></linearGradient><path d="M96.65 54.29c.2-.19.45-.78.15-1.52-.37-.91-5.45-.99-7.5-.99v-.08l-11.88-.41L66 43.36l-4.23 6.09 12.08 8.39c.69.56 1.57.87 2.52.83v.01l9.86.34-.02.08s7.28 5.04 8.05 3.13c.06-.15.09-.68.1-.9.01-.25.15-.36.36-.51.33-.24.7-.54.77-.88s-.03-.78-.15-1.14a.51.51 0 0 1 .31-.62c.54-.22.88-.39.99-.98.09-.47.14-1.01-.13-1.4-.31-.43-.22-1.16.14-1.51z" clip-path="url(#b)" fill="url(#h)"/><g clip-path="url(#b)"><path d="M66.24 44.75l10.6 7.36c.16.11.34.17.54.18l11.7.4h.03c.19 0 .37-.05.52-.15l3.73-2.3c.02-.01.05-.03.11-.03.02 0 .04 0 .06.01h.01c.01 0 .02.01.02.01.03.01.06.02.09.02.05.01.12.03.15.07l1.39 1.7c.04.05.06.12.05.2-.07.47.21.93.66 1.09 1.27.44 1.93.82 2.06.95.04.05.03.11.02.14-.7.55-.91 1.64-.48 2.48.1.19.13.37.09.49-.01.03-.02.05-.02.05-.01.01-.06.05-.26.13-.69.28-1.13 1.12-.97 1.83.08.35.1.55.11.66-.05.03-.12.06-.17.09-.26.13-.66.34-.92.78-.17.29-.18.59-.19.86v.08c-.07.01-.16.02-.28.02-.53 0-1.18-.14-1.52-.23-.04-.01-.07-.02-.11-.02-1.53-.2-4.76-2.19-6.2-3.17-.01-.01-.02-.02-.02-.04a1.01 1.01 0 0 0-.78-.42l-9.74-.33c-.05-.01-.1-.01-.15-.01h-.15c-.63 0-1.25-.22-1.73-.61-.02-.02-.04-.03-.06-.05l-11.25-7.82 3.06-4.42m-.25-1.39l-4.23 6.09 12.08 8.39c.65.53 1.48.83 2.36.83h.15v.01l9.86.34-.02.08s4.69 3.24 6.94 3.54c.42.1 1.13.26 1.76.26.5 0 .95-.1 1.15-.38s.08-.9.18-1.07c.25-.43.88-.39 1.16-.96.14-.28.01-.93-.07-1.3-.05-.24.15-.59.37-.69.48-.2.72-.39.85-.79.14-.41.06-.86-.15-1.27-.21-.4-.13-1 .24-1.26.32-.22.56-.96.11-1.53-.39-.5-1.91-1.07-2.51-1.28.05-.34-.03-.69-.26-.97l-1.39-1.7c-.19-.23-.45-.36-.72-.42-.04-.01-.08-.03-.12-.04h-.03c-.08-.01-.16-.02-.24-.02-.22 0-.44.05-.64.18l-3.73 2.3-11.7-.4-11.4-7.94z" fill="#BA8F63"/></g><g clip-path="url(#b)"><path d="M55.06 46.82c-1.15-.83-1.91-2.06-2.14-3.46s.11-2.8.94-3.96c1-1.38 2.61-2.2 4.31-2.2 1.12 0 2.19.35 3.1 1l9.23 6.66-6.21 8.61-9.23-6.65z" fill="#E55D1A"/><path d="M58.17 37.7c1.01 0 1.98.31 2.81.91l8.83 6.37-5.63 7.8-8.83-6.37a4.748 4.748 0 0 1-1.93-3.13c-.21-1.27.1-2.54.85-3.58.89-1.25 2.35-2 3.9-2m0-1a5.809 5.809 0 0 0-3.41 10.52l9.64 6.95 6.8-9.42-9.64-6.95a5.783 5.783 0 0 0-3.39-1.1z" fill="#DA6727"/></g></svg>