<svg xmlns="http://www.w3.org/2000/svg" viewBox="0 0 128 128" width="128" height="128"><path fill="#666" d="M77.68 42.01h1.36v.37h-1.36z"/><linearGradient id="a" gradientUnits="userSpaceOnUse" x1="64.07" y1="25.14" x2="64.07" y2="91.441" gradientTransform="matrix(1 0 0 -1 0 128)"><stop offset=".235" stop-color="#d32f2f"/><stop offset=".599" stop-color="#e73b33"/><stop offset=".911" stop-color="#f44336"/></linearGradient><path d="M115.02 104.15l-.21 15.76H13.12l.03-15.76L25.5 36.04c1.28-6.95 6.92-11.95 13.46-11.95h50.25c6.54 0 12.18 5 13.46 11.95l12.35 68.11z" fill="url(#a)"/><ellipse cx="64.09" cy="64.09" rx="30.46" ry="33" fill="#ef5350"/><path fill="#ffcdd2" d="M45.01 79.79l.13-31.58 18.82 16.2zM83.54 79.79l-.13-31.58-18.81 16.2z"/><path d="M4.09 124l.02-10.94c0-4.9 3.66-8.86 8.18-8.87l103.42-.04c4.47 0 8.12 3.88 8.19 8.73l.2 11.12H4.09z" fill="#504f4f"/></svg>