<svg viewBox="0 0 128 128" width="128" height="128" xmlns="http://www.w3.org/2000/svg" xmlns:xlink="http://www.w3.org/1999/xlink"><path d="M27.9 86.4C15.8 86.4 6 75.3 6 61.7s9.8-24.6 21.9-24.6 21.9 11 21.9 24.6S40 86.4 27.9 86.4z" fill="#E6B175"/><path d="M27.9 39.1c11 0 19.9 10.2 19.9 22.6s-8.9 22.6-19.9 22.6S8 74.2 8 61.7s8.9-22.6 19.9-22.6m0-4C14.7 35.1 4 47 4 61.7s10.7 26.6 23.9 26.6 23.9-11.9 23.9-26.6-10.7-26.6-23.9-26.6z" fill="#8B5E3C"/><path d="M100.1 86.4c-12.1 0-21.9-11.1-21.9-24.6 0-13.6 9.8-24.6 21.9-24.6s21.9 11 21.9 24.5c0 13.6-9.8 24.7-21.9 24.7z" fill="#E6B175"/><path d="M100.1 39.1c11 0 19.9 10.2 19.9 22.6s-8.9 22.6-19.9 22.6-19.9-10.1-19.9-22.6 8.9-22.6 19.9-22.6m0-4c-13.2 0-23.9 11.9-23.9 26.6s10.7 26.6 23.9 26.6S124 76.4 124 61.7s-10.7-26.6-23.9-26.6z" fill="#8B5E3C"/><linearGradient id="a" x1="64" x2="64" y1="1059.6" y2="959.6" gradientTransform="translate(0 -950)" gradientUnits="userSpaceOnUse"><stop stop-color="#825C40" offset="0"/><stop stop-color="#855F41" offset=".167"/><stop stop-color="#906746" offset=".31"/><stop stop-color="#A2764D" offset=".445"/><stop stop-color="#A97C50" offset=".488"/></linearGradient><path d="M64 109.6c-14.3 0-26.7-5.5-35.6-15.8-8.3-9.5-12.9-22.3-12.9-35.9 0-24 15-48.3 48.5-48.3s48.5 24.2 48.5 48.3c0 13.6-4.6 26.4-12.9 35.9-8.9 10.3-21.3 15.8-35.6 15.8z" fill="url(#a)"/><path d="M64 11.1c14.3 0 26.4 4.7 34.8 13.6C106.7 33 111 44.8 111 57.8c0 13.3-4.4 25.7-12.5 35-8.7 10-20.6 15.3-34.5 15.3s-25.8-5.3-34.5-15.3c-8-9.3-12.5-21.7-12.5-35 0-13 4.3-24.8 12.2-33.1 8.4-8.9 20.5-13.6 34.8-13.6m0-3c-32 0-50 22.3-50 49.8s18.6 53.2 50 53.2 50-25.7 50-53.2S96 8.1 64 8.1z" fill="#8B5E3C"/><linearGradient id="b" x1="64" x2="64" y1="982.4" y2="1055.5" gradientTransform="translate(0 -950)" gradientUnits="userSpaceOnUse"><stop stop-color="#E6B175" offset=".259"/><stop stop-color="#E2AC70" offset=".455"/><stop stop-color="#D59E62" offset=".686"/><stop stop-color="#C0884A" offset=".935"/><stop stop-color="#BD8446" offset=".969"/></linearGradient><path d="M105.1 52.2c0-10.9-9.2-19.8-20.6-19.8-10.1 0-18.5 7-20.3 16.3h-.5C62 39.4 53.6 32.4 43.5 32.4c-11.4 0-20.6 8.9-20.6 19.8 0 5.9 2.7 11.1 6.9 14.8-1.1 2.6-1.8 5.4-1.8 8.2 0 14.7 16.1 30.3 35.9 30.3s35.9-15.6 35.9-30.3c0-2.8-.6-5.6-1.7-8.2 4.3-3.6 7-8.9 7-14.8z" fill="url(#b)"/><g fill="#404040"><ellipse cx="58.8" cy="65.8" rx="2.4" ry="3.9"/><ellipse cx="69.2" cy="65.8" rx="2.4" ry="3.9"/></g><linearGradient id="c" x1="15.75" x2="15.75" y1="1069.1" y2="1026.5" gradientTransform="translate(0 -950)" gradientUnits="userSpaceOnUse"><stop stop-color="#825C40" offset="0"/><stop stop-color="#876042" offset=".045"/><stop stop-color="#9A6F4A" offset=".279"/><stop stop-color="#A5794E" offset=".518"/><stop stop-color="#A97C50" offset=".77"/></linearGradient><path d="M7.8 118.4c-.4 0-.8-.2-1.1-.4-.3-.3-.4-.7-.4-1.1.1-5 .3-14.6.6-23.4.3-6.6.3-10.5.3-12.7 0-.8.6-1.5 1.5-1.5l11.6-.3c.8 0 1.5.6 1.5 1.4l3.4 36.4c0 .4-.1.9-.4 1.2s-.7.5-1.1.5c.1-.1-15.9-.1-15.9-.1z" fill="url(#c)"/><path d="M20.4 80.4l3.4 36.4h-16c.1-5 .3-14.6.6-23.4.2-5.2.3-9.6.3-12.7l11.7-.3m0-3l-11.8.4c-1.6.1-2.9 1.4-2.9 3.1 0 2.3 0 6.2-.3 12.5-.4 8.9-.5 18.7-.6 23.5 0 1.7 1.3 3.1 3 3.1h16c1.8 0 3.1-1.5 3-3.3l-3.4-36.4c-.2-1.7-1.5-2.9-3-2.9z" fill="#8B5E3C"/><path d="M14.5 84.5c-.6 0-1.1-.1-1.4-.2-5.8-1.5-6-3.5-6.8-12.2v-.2C4.5 53.6 5.6 46.1 11.5 37c2.6-3.9 9.3-11.6 13.2-11.6.5 0 1.7 0 2.6 2.4.8 2.1-1.3 5.4-3.6 9-2.7 4.3-5.8 9.1-6 14.5-.1 2.1.3 3.5.9 5.7.8 2.9 1.9 7.2 3 16.9.4 3.8-.2 6.6-1.9 8.5s-4.2 2.1-5.2 2.1z" fill="#FFC1AD"/><path d="M24.7 26.9c.2 0 .6 0 1.2 1.5.5 1.4-1.7 4.8-3.5 7.7-2.8 4.4-6 9.4-6.2 15.2-.1 2.3.3 3.9.9 6.1.8 2.8 1.9 7.1 2.9 16.7.4 3.3-.2 5.8-1.5 7.3-1.4 1.5-3.3 1.7-4.1 1.7-.5 0-.9-.1-1-.1-4.6-1.2-4.8-2-5.7-10.9v-.2C5.9 54.1 7 46.8 12.7 38c.8-1.2 2.9-4.1 5.7-6.8 3.1-3.3 5.3-4.3 6.3-4.3m0-3c-5.1 0-12.5 9.2-14.5 12.3-6 9.2-7.3 17-5.5 35.8.9 9 1.1 12.1 8 13.8.5.1 1.1.2 1.8.2 3.8 0 9.6-2.5 8.6-12.3-1.8-16.9-4-17.8-3.8-22.4.4-9.8 11.6-18.5 9.5-24-1-2.5-2.4-3.4-4.1-3.4z" fill="#E39581"/><linearGradient id="d" x1="-3339.6" x2="-3339.6" y1="1069.1" y2="1026.5" gradientTransform="matrix(-1 0 0 1 -3227.4 -950)" gradientUnits="userSpaceOnUse"><stop stop-color="#825C40" offset="0"/><stop stop-color="#876042" offset=".045"/><stop stop-color="#9A6F4A" offset=".279"/><stop stop-color="#A5794E" offset=".518"/><stop stop-color="#A97C50" offset=".77"/></linearGradient><path d="M104.2 118.4c-.4 0-.8-.2-1.1-.5s-.4-.7-.4-1.2l3.4-36.4c.1-.8.7-1.4 1.5-1.4l11.7.3c.8 0 1.5.7 1.5 1.5 0 2.1 0 6 .3 12.6.4 8.9.5 18.5.6 23.5 0 .4-.2.8-.4 1.1-.3.3-.7.4-1.1.4h-16v.1z" fill="url(#d)"/><path d="M107.6 80.4l11.7.4c0 3.1.1 7.4.3 12.7.3 8.8.5 18.5.6 23.4h-16l3.4-36.5m0-2.9c-1.5 0-2.8 1.2-3 2.7l-3.4 36.4c-.2 1.8 1.2 3.3 3 3.3h16c1.7 0 3-1.4 3-3.1-.1-4.8-.3-14.6-.6-23.5-.2-6.3-.3-10.2-.3-12.5 0-1.7-1.3-3-2.9-3.1l-11.8-.2c.1 0 .1 0 0 0z" fill="#8B5E3C"/><path d="M113.5 84.5c-1 0-3.4-.2-5.2-2.2-1.7-1.8-2.3-4.7-1.9-8.5 1-9.8 2.2-14.1 3-16.9.6-2.1.9-3.5.9-5.7-.2-5.4-3.3-10.2-6-14.5-2.3-3.6-4.4-6.9-3.6-9 .9-2.4 2.2-2.4 2.6-2.4 4 0 10.7 7.7 13.2 11.6 5.9 9.1 7.1 16.6 5.3 34.8v.2c-.8 8.7-1.1 10.8-6.8 12.2-.4.3-.9.4-1.5.4z" fill="#FFC1AD"/><path d="M103.3 26.9c1 0 3.2 1.1 6.3 4.1 2.7 2.7 4.9 5.6 5.7 6.8 5.7 8.8 6.8 16.1 5 33.9v.2c-.9 8.9-1.1 9.8-5.7 10.9-.2 0-.5.1-1 .1-.8 0-2.7-.2-4.1-1.7-1.3-1.5-1.9-4-1.5-7.3 1-9.6 2.2-13.9 2.9-16.7.6-2.2 1-3.8.9-6.1-.2-5.8-3.4-10.8-6.2-15.2-1.8-2.8-4-6.3-3.5-7.6.5-1.4 1-1.4 1.2-1.4m0-3c-1.7 0-3.1 1-4 3.4-2.1 5.6 9.1 14.2 9.5 24 .2 4.5-2.1 5.5-3.8 22.4-1 9.8 4.8 12.3 8.6 12.3.7 0 1.3-.1 1.8-.2 6.9-1.7 7.1-4.8 8-13.8 1.8-18.8.5-26.6-5.5-35.8-2.2-3.1-9.5-12.3-14.6-12.3z" fill="#E39581"/><defs><path id="e" d="M64 76.5c-9.2 0-17.8-.8-25-2.1-1.8-.3-3.3 1.2-3 3 2.4 11.7 13.9 21.2 28 21.2 15.4 0 25.8-9.9 28-21.2.3-1.8-1.2-3.3-3-3-7.2 1.4-15.8 2.1-25 2.1z"/></defs><clipPath id="f"><use xlink:href="#e"/></clipPath><path d="M64 76.5c-9.2 0-17.8-.8-25-2.1-1.8-.3-3.3 1.2-3 3 2.4 11.7 13.9 21.2 28 21.2 15.4 0 25.8-9.9 28-21.2.3-1.8-1.2-3.3-3-3-7.2 1.4-15.8 2.1-25 2.1z" clip-path="url(#f)" fill="#242424"/><defs><path id="g" d="M64 76.5c-9.2 0-17.8-.8-25-2.1-1.8-.3-3.3 1.2-3 3 2.4 11.7 13.9 21.2 28 21.2 15.4 0 25.8-9.9 28-21.2.3-1.8-1.2-3.3-3-3-7.2 1.4-15.8 2.1-25 2.1z"/></defs><clipPath id="h"><use xlink:href="#g"/></clipPath><path d="M95.3 75.9v-8.8H32.7v8.8c9.6 5.7 20.2 8.8 31.3 8.8s21.7-3.2 31.3-8.8z" clip-path="url(#h)" fill="#fff"/><defs><path id="i" d="M64 76.5c-9.2 0-17.8-.8-25-2.1-1.8-.3-3.3 1.2-3 3 2.4 11.7 13.9 21.2 28 21.2 15.4 0 25.8-9.9 28-21.2.3-1.8-1.2-3.3-3-3-7.2 1.4-15.8 2.1-25 2.1z"/></defs><clipPath id="j"><use xlink:href="#i"/></clipPath><path d="M64 90.6c-6.9 0-13 3.8-16.2 9.4 4.2 2.3 9.9 3.7 16.2 3.7s12-1.4 16.2-3.7c-3.3-5.7-9.3-9.4-16.2-9.4z" clip-path="url(#j)" fill="#FF4F4F"/><defs><path id="k" d="M64 76.5c-9.2 0-17.8-.8-25-2.1-1.8-.3-3.3 1.2-3 3 2.4 11.7 13.9 21.2 28 21.2 15.4 0 25.8-9.9 28-21.2.3-1.8-1.2-3.3-3-3-7.2 1.4-15.8 2.1-25 2.1z"/></defs><clipPath id="l"><use xlink:href="#k"/></clipPath><g clip-path="url(#l)"><defs><path id="m" d="M32.7 67.1v8.8c9.6 5.7 20.2 8.8 31.3 8.8s21.7-3.1 31.3-8.8v-8.8H32.7zM64 90.6c-6.9 0-13 3.8-16.2 9.4 4.2 2.3 9.9 3.7 16.2 3.7s12-1.4 16.2-3.7c-3.3-5.7-9.3-9.4-16.2-9.4z"/></defs><clipPath id="n"><use xlink:href="#m"/></clipPath><g clip-path="url(#n)"><path d="M88.9 77.5c-1.1 4.8-3.8 9.2-7.8 12.4-4.6 3.7-10.5 5.7-17.1 5.7-11.8 0-22.4-7.7-24.8-18.1 7.4 1.3 16 2 24.8 2s17.4-.7 24.9-2m.5-3.1h-.5c-7.2 1.3-15.7 2.1-25 2.1s-17.8-.8-25-2.1h-.5c-1.6 0-2.8 1.4-2.5 3 2.5 11.7 14 21.2 28.1 21.2 15.4 0 25.8-9.9 28-21.2.3-1.6-1-3-2.6-3z" fill="#A87249"/></g></g><g fill="#404040"><ellipse cx="41.4" cy="54.8" rx="7.9" ry="8.9"/><ellipse cx="86.6" cy="54.8" rx="7.9" ry="8.9"/></g></svg>