<svg viewBox="0 0 128 128" width="128" height="128" xmlns="http://www.w3.org/2000/svg" xmlns:xlink="http://www.w3.org/1999/xlink"><defs><path id="a" d="M4 4h120v120H4z"/></defs><clipPath id="b"><use xlink:href="#a"/></clipPath><g clip-path="url(#b)"><linearGradient id="c" x1="54.674" x2="54.674" y1="97.213" y2="130.19" gradientUnits="userSpaceOnUse"><stop stop-color="#384ACC" offset="0"/><stop stop-color="#3548BF" offset=".142"/><stop stop-color="#2F449D" offset=".405"/><stop stop-color="#283F7A" offset=".632"/></linearGradient><path d="M3.59 129.73l.65-8.68c0-17.58 27.35-23.81 50.76-23.84h.14c13.42 0 25.89 2.16 35.11 6.07 7.08 3.01 15.51 8.51 15.51 17.67l-.66 8.77H3.59z" fill="url(#c)"/><path d="M55.14 98.45c24.49 0 49.28 7.7 49.38 22.41l-.57 7.62H4.93l.55-7.34c0-.06.01-.12.01-.19 0-7.18 4.99-12.87 14.84-16.89 8.81-3.6 21.12-5.6 34.68-5.61h.13m0-2.48H55c-25.65.03-52 7.1-52 24.99l-.75 10.01h104l.75-10.01c0-16.86-26.1-24.99-51.86-24.99z" fill="#1B2B7F"/><linearGradient id="d" x1="97.167" x2="119.14" y1="114.35" y2="114.35" gradientUnits="userSpaceOnUse"><stop stop-color="#384ACC" offset="0"/><stop stop-color="#3548BF" offset=".142"/><stop stop-color="#2F449D" offset=".405"/><stop stop-color="#283F7A" offset=".632"/></linearGradient><path d="M97.17 114.67c4.55-3.51 11.27-6.39 14.21-11.33 7.04 3.74 8.37 12.91 7.54 20.67-.04.39-1.57.79-1.87 1.05-.34.29-.83.3-1.27.28-4.7-.12-9.39-.25-14.09-.37" fill="url(#d)" stroke="#1B2B7F" stroke-linecap="round" stroke-linejoin="round" stroke-miterlimit="10" stroke-width="2.484"/><path fill="#FFEB3B" d="M36.35 102.15l2.05 2.31 3.07-.38-1.57 2.67 1.31 2.8-3.02-.66-2.26 2.11-.3-3.08-2.7-1.5 2.83-1.23zM33.06 114.47l.5 2.66 2.47 1.1-2.37 1.29-.28 2.69-1.96-1.86-2.65.57 1.16-2.45-1.35-2.34 2.68.35zM59.53 115.2l2.36 3.95 4.58.29-3.02 3.46 1.13 4.45-4.22-1.8-3.89 2.45.42-4.58-3.54-2.93 4.48-1.02zM16.79 109.49l2.15 2.2 3.03-.52-1.43 2.72 1.43 2.73-3.03-.52-2.15 2.2-.44-3.04-2.76-1.36 2.76-1.37zM78.92 107.12l.14 3.32 2.82 1.78-3.13 1.16-.81 3.23-2.07-2.61-3.32.22 1.84-2.77-1.24-3.09 3.21.89z"/><linearGradient id="e" x1="55.511" x2="55.511" y1="40.25" y2="74.949" gradientUnits="userSpaceOnUse"><stop stop-color="#05080F" offset="0"/><stop stop-color="#070A15" offset=".113"/><stop stop-color="#0B1026" offset=".264"/><stop stop-color="#131A42" offset=".437"/><stop stop-color="#1D286A" offset=".627"/><stop stop-color="#2B399B" offset=".828"/><stop stop-color="#384ACC" offset="1"/></linearGradient><ellipse cx="55.51" cy="57.77" rx="49.85" ry="18.32" fill="url(#e)" stroke="#1B2B7F" stroke-linecap="round" stroke-linejoin="round" stroke-miterlimit="10" stroke-width="2.342"/><path d="M85.34 86.17c.53-.58 1.11-1.11 1.91-1.13 1.32-.03 3.36-.25 4.97-1.22.47-.28.87-.67 1.17-1.14-1.13-.23-2.68-.89-3.73-2.93-1.6-3.1.25-5.95 3.32-9.12 3.46-3.57 9.21-15.82 3.1-26.74-1.15-.17-17.81.08-22.03.08H56.06v49.71c19.76 0 23.67-1.29 29.28-7.51zM26.78 86.17c-.53-.58-1.11-1.11-1.91-1.13-1.32-.03-3.36-.25-4.97-1.22a3.54 3.54 0 0 1-1.17-1.14c1.13-.23 2.75-.86 3.73-2.93 1.6-3.35-.67-6.33-3.32-9.12-3.67-3.87-7.72-12.53-5.18-21.72.46-1.66 3.75-7.8 4.69-9.47 1.15-.17 15.2 4.54 19.42 4.54h17.99v49.71c-19.76-.01-23.67-1.3-29.28-7.52z" fill="#E7E7E7"/><path d="M70.21 93.23c6.71-1.2 12.07-3.66 15.13-7.06.2-.22.49-.54.87-.79-.32.21-.6.49-.87.79-3.96 4.38-7.01 6.29-15.13 7.06zm17.04-8.2c.95-.02 2.37-.15 3.71-.63l.12-.04c-1.32.5-2.75.65-3.83.67-.06 0-.11.01-.17.01.06 0 .11 0 .17-.01zm4.25-3.13c.56.38 1.19.64 1.89.78-.09.14-.19.27-.29.4l-1.6-1.18zm-1.84-2.15c-.12-.24-.22-.47-.31-.71.08.23.18.47.31.71.04.07.07.14.11.21-.04-.08-.08-.14-.11-.21zm3.32-9.13c1.16-1.19 3.14-3.95 4.49-7.61-1.15 3.27-2.87 5.95-4.49 7.61-.04.04-.08.08-.12.13.04-.04.08-.08.12-.13zm3.52-24.68c-.49-.86-1.01-1.6-1.47-2.21l.3-.1c.41.75.8 1.52 1.17 2.31z" fill="#E7E7E7"/><path d="M96 41.81l-3.57 1.23s2.49 2.36 3.84 5.89c3.53 9.31-1.95 18.16-4.36 20.65-2.96 3.05-5.7 6.73-3.58 10.85.55 1.07 1.27 1.93 2.13 2.56-1.18.42-2.47.52-3.24.54-1.56.04-2.56 1.15-2.99 1.63-3.4 3.77-10.58 6.71-20.23 7.28l.89 2.62c12.46-.45 16.47-2.23 21.56-7.88.39-.44.65-.63.83-.64 1.58-.04 3.84-.32 5.7-1.43.67-.4 1.24-.96 1.67-1.63l1.17-1.85-2.14-.43c-1.19-.24-2.07-.94-2.69-2.14-1.04-2.01-.2-4.01 3.07-7.39 3.78-3.9 8.6-13.53 4.9-23.69-1.37-3.76-2.96-6.14-2.96-6.17z" fill="#AFAFB0"/><path d="M38.68 92.8c-5.78-.98-8.57-2.94-11.9-6.64-.28-.32-.59-.62-.94-.83.41.25.73.6.94.83 2.22 2.47 6.26 5.1 11.9 6.64zm-13.53-7.74c-.09-.02-.19-.03-.28-.03-1.06-.03-2.48-.17-3.79-.66l.12.04c1.33.47 2.73.59 3.68.62l.27.03zm-6.12-1.98c-.11-.13-.21-.26-.3-.41.75-.15 1.41-.42 1.98-.81l-1.68 1.22zm3.43-3.33c1.64-3.45-.85-6.52-3.32-9.12-.09-.09-.17-.19-.26-.28.09.1.17.19.26.28 2.47 2.6 4.97 5.66 3.32 9.12-.02.05-.04.09-.07.14.03-.05.05-.1.07-.14zm-8.19-31.86c1.32-4.45 2.85-6.53 3.83-7.46.04.03.07.07.1.1-1.25 1.56-2.93 4.88-3.12 5.28-.34.78-.64 1.56-.88 2.33.03-.09.05-.17.07-.25z" fill="#E7E7E7"/><path d="M18.04 38.56c.02.06-2.96 1.31-5.21 8.9-3.03 10.23 1.12 19.87 5.22 24.2 2.71 2.86 4.17 5.1 3.06 7.44-.56 1.17-1.43 1.86-2.67 2.1l-2.14.43 1.17 1.85c.42.67 1 1.23 1.67 1.63 1.86 1.11 4.13 1.39 5.7 1.43.18 0 .44.2.83.64 5.07 5.62 9.06 7.42 21.39 7.88l.65-2.42c-9.19-.31-16.41-3.69-19.81-7.46-.43-.48-1.43-1.59-2.99-1.63-.76-.02-2.04-.12-3.21-.53.89-.65 1.61-1.53 2.13-2.61 2.22-4.67-1.56-8.66-3.59-10.8-3.84-4.05-8.03-13.55-3.8-23.12 0 0 1.98-3.97 3.15-5.24 1.12-1.26-1.55-2.69-1.55-2.69z" fill="#AFAFB0"/><path d="M55.14 107.26c-4 0-7.26-3.22-7.26-7.17V91.1h16.16v8.98c0 3.96-3.26 7.17-7.26 7.17h-1.64z" fill="#C48E6A"/><path d="M63.04 92.1v7.98c0 3.4-2.81 6.17-6.26 6.17h-1.65c-3.45 0-6.26-2.77-6.26-6.17V92.1h14.17m2-2H46.88v9.98c0 4.51 3.7 8.17 8.26 8.17h1.65c4.56 0 8.26-3.66 8.26-8.17V90.1h-.01z" fill="#B07853"/><path d="M29.19 70.72c-5.24 0-9.51-4.57-9.51-10.2s4.27-10.2 9.51-10.2h53.62c5.24 0 9.51 4.57 9.51 10.2s-4.27 10.2-9.51 10.2H29.19z" fill="#C48E6A"/><path d="M82.81 51.33c4.69 0 8.51 4.13 8.51 9.2s-3.82 9.2-8.51 9.2H29.19c-4.69 0-8.51-4.13-8.51-9.2s3.82-9.2 8.51-9.2h53.62m0-2H29.19c-5.78 0-10.51 5.04-10.51 11.2s4.73 11.2 10.51 11.2h53.62c5.78 0 10.51-5.04 10.51-11.2s-4.73-11.2-10.51-11.2z" fill="#B07853"/><linearGradient id="f" x1="55.59" x2="55.59" y1="93.371" y2="11.422" gradientUnits="userSpaceOnUse"><stop stop-color="#CCA47A" offset="0"/><stop stop-color="#D6B088" offset=".257"/><stop stop-color="#DEB892" offset=".589"/><stop stop-color="#E0BB95" offset="1"/></linearGradient><path d="M55.59 93.07c-8.4 0-16.2-3.34-21.94-9.42-6.51-6.88-9.95-16.78-9.95-28.64 0-12.14 3.49-23.33 9.83-31.51 5.93-7.64 13.97-12.03 22.06-12.03s16.13 4.38 22.06 12.03c6.34 8.17 9.83 19.37 9.83 31.51 0 11.86-3.44 21.76-9.95 28.64-5.74 6.07-13.54 9.42-21.94 9.42z" fill="url(#f)"/><path d="M55.59 12.47c7.78 0 15.53 4.24 21.27 11.64 6.2 8 9.62 18.97 9.62 30.9 0 11.6-3.34 21.27-9.67 27.95-5.55 5.87-13.09 9.1-21.21 9.1-8.13 0-15.66-3.23-21.21-9.1-6.33-6.69-9.67-16.35-9.67-27.95 0-11.92 3.42-22.9 9.62-30.9 5.72-7.39 13.47-11.64 21.25-11.64m0-2c-17.07 0-32.89 18.26-32.89 44.54 0 26.14 16.29 39.06 32.89 39.06 16.59 0 32.89-12.92 32.89-39.06 0-26.28-15.82-44.54-32.89-44.54z" fill="#BA8F63"/><path d="M64.23 76.15c-3.13 1.86-13.37 1.86-16.5 0-1.79-1.07-3.63.56-2.88 2.2.73 1.6 6.32 5.32 11.16 5.32s10.35-3.72 11.08-5.32c.75-1.63-1.06-3.27-2.86-2.2z" fill="#6D4C41"/><path d="M59.79 68.38c-.1-.04-.21-.07-.32-.08h-6.94c-.11.01-.21.04-.32.08-.63.25-.98.91-.68 1.6s1.68 2.64 4.46 2.64c2.79 0 4.17-1.95 4.46-2.64.31-.69-.03-1.34-.66-1.6z" fill="#E59600"/><path d="M47.02 21.26c-8.03 2.29-15.49 6.54-21.3 12.51-1.69 1.74-3.25 3.63-4.32 5.81-1.53 3.14-1.9 6.82-1.11 10.22.39 1.66 1.03 2.88 1.03 4.57 0 6.14 3.24 13.97 3.24 13.97 0-.02 3.71-18.29 3.32-21.11 0 0 7.66-1.54 16.35-6.58 5.87-3.41 9.88-7.41 16.49-8.91C70.76 29.44 73 36.81 73 36.81S82.29 35 85.1 48.08c1.15 5.38 1.33 14.96 1.96 20.43C87 68.04 90.53 60 91.14 54c.32-3.16 3.15-4.23 3.71-7.33.56-3.12-.73-6.4-2.61-8.84-2.28-2.96-5.43-5.09-8.37-7.39-1.81-1.42-3.56-2.92-5.47-4.2-3.08-2.05-6.53-3.48-9.95-4.89-1.69-.7-3.4-1.4-5.2-1.74-1.73-.33-3.51-.31-5.27-.21-3.71.21-7.39.84-10.96 1.86z" fill="#E7E7E7"/><ellipse cx="39.68" cy="59.26" rx="4.83" ry="5.01" fill="#5D4037"/><ellipse cx="72.32" cy="59.26" rx="4.83" ry="5.01" fill="#5D4037"/><g fill="#fff"><path d="M46.47 51.12c-.86-1.14-2.85-2.8-6.72-2.8s-5.86 1.66-6.72 2.8c-.38.5-.28 1.09-.02 1.44.25.33.97.63 1.77.36s2.36-1.08 4.97-1.1c2.61.02 4.17.83 4.97 1.1s1.52-.03 1.77-.36c.27-.35.37-.93-.02-1.44zM78.66 51.12c-.86-1.14-2.85-2.8-6.72-2.8s-5.86 1.66-6.72 2.8c-.38.5-.28 1.09-.02 1.44.25.33.97.63 1.77.36s2.36-1.08 4.97-1.1c2.61.02 4.17.83 4.97 1.1s1.52-.03 1.77-.36c.26-.35.36-.93-.02-1.44z"/></g><path d="M59.79 68.38c-.1-.04-.21-.07-.32-.08h-6.94c-.11.01-.21.04-.32.08-.63.25-.98.91-.68 1.6s1.68 2.64 4.46 2.64c2.79 0 4.17-1.95 4.46-2.64.31-.69-.03-1.34-.66-1.6z" fill="#C48E6A"/><linearGradient id="g" x1="26.473" x2="87.776" y1="21.164" y2="21.164" gradientUnits="userSpaceOnUse"><stop stop-color="#384ACC" offset="0"/><stop stop-color="#3649BF" offset=".253"/><stop stop-color="#30479D" offset=".719"/><stop stop-color="#2C4585" offset="1"/></linearGradient><path d="M87.78 37.07c-20.12-.06-54.44-.17-61.3-.22.96-22.46 28.19-30.86 30.73-31.59 1.44.1 10.01.76 14.09 2.4 10.32 4.14 12.76 7.29 13.3 8.8.26.73.07 1.12.04 1.19-.24.44-.68.94-1.94.94-2.57 0-6.32-2.11-7.73-2.9-.79-.44-.98-.55-1.35-.56h-.03c-.49 0-.94.29-1.14.75s-.11 1 .25 1.37l.93.95c4.57 4.71 11.35 11.68 14.15 18.87z" fill="url(#g)"/><path d="M57.35 6.52c2.99.21 10.13.95 13.49 2.3 11.7 4.7 12.58 7.91 12.65 8.32-.09.1-.27.2-.79.2-2.24 0-5.79-1.99-7.12-2.74-.86-.48-1.25-.7-1.93-.72h-.06c-.99 0-1.88.58-2.28 1.49-.41.93-.21 2.01.49 2.73l.93.96c4.15 4.26 10.11 10.4 13.15 16.75-19.17-.06-49.25-.15-58.07-.21C29.67 15.45 54.04 7.5 57.35 6.52M57.08 4S25.2 12.42 25.2 38.08c0 .06 64.32.25 64.32.25-2.58-8.57-11.11-16.96-15.94-21.95.28.01 5.45 3.46 9.11 3.46 1.29 0 2.39-.43 3.03-1.58.28-.5 2.54-5.13-13.96-11.75C67.09 4.62 57.08 4 57.08 4z" fill="#1B2B7F"/><linearGradient id="h" x1="55.582" x2="55.582" y1="22.951" y2="59.916" gradientUnits="userSpaceOnUse"><stop stop-color="#384ACC" offset="0"/><stop stop-color="#3447BF" offset=".221"/><stop stop-color="#293F9D" offset=".627"/><stop stop-color="#1D3678" offset="1"/></linearGradient><path d="M105.48 55.99c-.05-.61-.17-1.28-.35-2.02-.18-.73-.43-1.52-.74-2.36-.32-.84-.71-1.73-1.17-2.66-.47-.93-1.01-1.9-1.64-2.9s-1.34-2.03-2.15-3.07-1.7-2.1-2.69-3.16-2.08-2.12-3.27-3.16a48.817 48.817 0 0 0-3.85-3.06c-.69-.5-1.41-.99-2.15-1.47s-1.5-.95-2.29-1.4c-.79-.46-1.6-.9-2.44-1.33-.83-.43-1.69-.84-2.57-1.24s-1.78-.78-2.71-1.14c-.92-.36-1.87-.7-2.83-1.02s-1.95-.62-2.95-.89c-1-.28-2.02-.53-3.06-.75s-2.09-.43-3.15-.6c-1.07-.17-2.14-.32-3.23-.44s-2.19-.21-3.31-.27a62.242 62.242 0 0 0-10.03.27c-1.1.12-2.17.27-3.23.44s-2.12.38-3.15.6c-1.04.23-2.05.48-3.06.75-1 .28-1.98.57-2.95.89-.96.32-1.91.66-2.83 1.02s-1.83.74-2.71 1.14a55.684 55.684 0 0 0-5 2.57c-.79.46-1.55.92-2.29 1.4s-1.46.97-2.15 1.47-1.36 1-2 1.51-1.26 1.03-1.85 1.55c-1.19 1.04-2.27 2.1-3.27 3.16-.99 1.06-1.89 2.12-2.69 3.16-.81 1.04-1.52 2.07-2.15 3.07s-1.17 1.97-1.64 2.9-.85 1.82-1.17 2.66-.56 1.63-.74 2.36-.29 1.41-.35 2.02-.05 1.15.02 1.63.19.88.36 1.21c.22.41.52.7.89.87s.82.24 1.34.2 1.11-.17 1.78-.39 1.41-.52 2.24-.89 1.73-.81 2.73-1.29c.99-.49 2.07-1.02 3.25-1.59 1.17-.56 2.43-1.16 3.79-1.76.68-.3 1.38-.6 2.1-.91.72-.3 1.47-.6 2.24-.9s1.57-.59 2.38-.88a83.179 83.179 0 0 1 5.17-1.65c.9-.26 1.83-.5 2.78-.74.95-.23 1.91-.45 2.9-.66.98-.2 1.99-.39 3.01-.56s2.06-.32 3.11-.46c1.05-.13 2.12-.25 3.2-.34s2.17-.16 3.28-.21c1.1-.05 2.22-.07 3.34-.07s2.24.02 3.34.07 2.2.12 3.28.21 2.15.21 3.2.34 2.09.29 3.11.46 2.02.36 3.01.56c.98.2 1.95.42 2.9.66s1.87.48 2.78.74c.9.26 1.79.52 2.65.8s1.7.56 2.52.85 1.61.59 2.38.88a87.81 87.81 0 0 1 4.34 1.81c1.36.6 2.62 1.2 3.79 1.76s2.25 1.1 3.25 1.59c.99.49 1.9.92 2.73 1.29s1.57.67 2.24.89 1.26.35 1.78.39.97-.03 1.34-.2.67-.46.89-.87c.18-.33.3-.74.36-1.21s.07-1.02.01-1.63z" fill="url(#h)"/><path d="M6.16 59.66c-.1-.37-.28-1.56-.34-2.04s-.07-1.02-.02-1.63.17-1.28.35-2.02c.18-.73.43-1.52.74-2.36.32-.84.7-1.73 1.17-2.66s1.01-1.9 1.64-2.9 1.34-2.03 2.15-3.07c.8-1.04 1.7-2.1 2.69-3.16s2.08-2.12 3.26-3.16a48.817 48.817 0 0 1 3.85-3.06c.69-.5 1.41-.99 2.14-1.47.74-.48 1.5-.95 2.29-1.4a55.684 55.684 0 0 1 5-2.57A54.64 54.64 0 0 1 36.61 26c.96-.32 1.94-.62 2.94-.89 1-.28 2.02-.53 3.05-.75 1.03-.23 2.08-.43 3.15-.6 1.06-.17 2.14-.32 3.23-.44s2.19-.21 3.3-.27a62.242 62.242 0 0 1 10.02.27c1.09.12 2.17.27 3.23.44s2.11.38 3.15.6c1.03.23 2.05.48 3.05.75 1 .28 1.98.57 2.94.89s1.91.66 2.83 1.02 1.82.74 2.7 1.14a55.684 55.684 0 0 1 5 2.57c.79.46 1.55.92 2.29 1.4s1.45.97 2.14 1.47 1.36 1 2 1.51 1.26 1.03 1.85 1.55c1.18 1.04 2.27 2.1 3.26 3.16s1.89 2.12 2.69 3.16 1.52 2.07 2.15 3.07 1.17 1.97 1.64 2.9.85 1.82 1.17 2.66.56 1.63.74 2.36.29 1.41.35 2.02c.05.61.1 1.26.04 1.74s-.3 1.73-.5 2.12" fill="none" stroke="#1B2B7F" stroke-linecap="round" stroke-linejoin="round" stroke-miterlimit="10" stroke-width="2.365"/><linearGradient id="i" x1="111.85" x2="95.468" y1="68.604" y2="138.56" gradientUnits="userSpaceOnUse"><stop stop-color="#CF8900" offset=".214"/><stop stop-color="#885B17" offset=".588"/><stop stop-color="#5B3E26" offset=".859"/><stop stop-color="#4A332C" offset=".995"/></linearGradient><path d="M110.07 68.44l12.16 10.32-3.7 10.43-6.18.09-1.13-5.58 2.08-1.2 1.64.44.44-1.64-6.49-5.27-5.65 4.63 8.05 14.53-13.56 44.11-3.93-.37s3.56-19.42 5.48-26.98c.92-3.61 4.58-18.07 4.58-18.07L96.69 78.9l13.38-10.46z" fill="url(#i)" stroke="#995C00" stroke-miterlimit="10" stroke-width="1.903"/><path d="M97.13 118.23l-1.32 2.29s-6.26-1.36-5.59-4.65c.16-.78 1.56-2.44 1.56-2.44s-2.85-2.35-2.4-3.94c.45-1.57 3.17-2.79 3.17-2.79s-2.11-1.26-1.28-3.63c.57-1.62 3.53-2.16 3.53-2.16s-2.76-4.05 2.85-4.97c1.77-.29 5.74.3 9.3 2.93s5.16 5.19 6.62 8.73c.48 1.16.9 2.36 1.03 3.61.2 2.03-.48 4.12-1.77 5.7-1.24 1.5-2.42 3.28-4.35 3.95-1.38.49-11.35-2.63-11.35-2.63z" fill="#E0BB95" stroke="#BA8F63" stroke-linecap="round" stroke-linejoin="round" stroke-miterlimit="10" stroke-width="1.937"/></g></svg>