<svg viewBox="0 0 128 128" width="128" height="128" xmlns="http://www.w3.org/2000/svg" xmlns:xlink="http://www.w3.org/1999/xlink"><g fill="none" stroke="#AB521C" stroke-miterlimit="10" stroke-width="2"><path d="M93.73 77.57v18.94c0 .13.02.26.07.39l2.34 6.43c.06.17.08.36.06.54l-2.12 15.83c-.01.11-.18.53-.25.61l-.96 1.81c-.1.2-.15.42-.13.64.06.67-.46 1.24-1.13 1.24H90.5c-.92 0-1.46-1.04-.93-1.79l1.79-2.52c.11-.16.18-.34.2-.53l1.38-11.94c.08-.71.04-1.44-.14-2.18-.18-.73-.47-1.41-.86-2.01l-8.02-11.67c-.71-1.1-1.28-2.31-1.66-3.63-.39-1.32-.57-2.64-.57-3.95v-7.76c0-.7.62-1.23 1.31-1.12l9.76 1.55c.57.09.97.57.97 1.12z"/><path d="M92.71 122.41h-3.28L88.3 124h4.55l-.14-1.58z"/></g><g fill="none" stroke="#AB521C" stroke-miterlimit="10" stroke-width="2"><path d="M57.95 78.5l2.33 23.34-.84 17.26-3.46 4.84h4.54l.06-3.19.8-.89c.16-.18.3-.39.4-.63s.15-.48.16-.73l.84-17.55 2.61-20.84-7.44-1.61z"/><path d="M57.44 121.91l-1.46 2.04h4.54l.03-2.04z"/></g><path d="M99.88 92.14l-.02-15.09c0-1.58-.35-3.09-1.04-4.48-.68-1.37-1.66-2.53-2.85-3.35l-6.25-2.5.62-1.12 6.25 2.5c1.35.94 2.48 2.27 3.25 3.83.79 1.59 1.19 3.31 1.19 5.12l.02 15.09h-1.17z" fill="#BD621C"/><path d="M99.91 88.75c-.29.6-.48 1.7-.48 3.27 0 2.47 1.05 8.48 1.05 8.48s1.05-6.01 1.05-8.48c0-1.56-.19-2.66-.48-3.27h-1.14z" fill="#383838"/><linearGradient id="a" x1="88.952" x2="88.952" y1="77.932" y2="123.2" gradientUnits="userSpaceOnUse"><stop stop-color="#FFB24B" offset=".054"/><stop stop-color="#FCAF48" offset=".269"/><stop stop-color="#F5A440" offset=".457"/><stop stop-color="#E79231" offset=".634"/><stop stop-color="#D5791D" offset=".805"/><stop stop-color="#BD5904" offset=".97"/><stop stop-color="#BA5400" offset=".991"/></linearGradient><path d="M93.73 77.57v18.94c0 .13.02.26.07.39l2.34 6.43c.06.17.08.36.06.54l-2.12 15.83c-.01.11-.18.53-.25.61l-.96 1.81c-.1.2-.15.42-.13.64.06.67-.46 1.24-1.13 1.24H90.5c-.92 0-1.46-1.04-.93-1.79l1.79-2.52c.11-.16.18-.34.2-.53l1.38-11.94c.08-.71.04-1.44-.14-2.18-.18-.73-.47-1.41-.86-2.01l-8.02-11.67c-.71-1.1-1.28-2.31-1.66-3.63-.39-1.32-.57-2.64-.57-3.95v-7.76c0-.7.62-1.23 1.31-1.12l9.76 1.55c.57.09.97.57.97 1.12z" fill="url(#a)"/><path d="M92.71 122.41h-3.28L88.3 124h4.55l-.14-1.58z"/><linearGradient id="b" x1="60.685" x2="60.685" y1="76.045" y2="123.17" gradientUnits="userSpaceOnUse"><stop stop-color="#FFB24B" offset=".054"/><stop stop-color="#FCAF48" offset=".269"/><stop stop-color="#F5A440" offset=".457"/><stop stop-color="#E79231" offset=".634"/><stop stop-color="#D5791D" offset=".805"/><stop stop-color="#BD5904" offset=".97"/><stop stop-color="#BA5400" offset=".991"/></linearGradient><path d="M57.95 78.5l2.33 23.34-.84 17.26-3.46 4.84h4.54l.06-3.19.8-.89c.16-.18.3-.39.4-.63s.15-.48.16-.73l.84-17.55 2.61-20.84-7.44-1.61z" fill="url(#b)"/><path fill="#0A0A0A" d="M57.44 121.91l-1.46 2.04h4.54l.03-2.04z"/><path fill="#4A4A4A" d="M100.12 122.41h-3.13l-.97 1.59h4.11l-.15-1.32z"/><path fill="#BD621C" d="M35.5 16.43l3.62.31.2 4.94-2.51-.25-.94-2.13z"/><path d="M57.93 41.94c1 1.77 2.27 3.41 3.83 4.87s3.67 2.8 3.67 2.8c.94.45 1.81 1.07 2.58 1.85s1.36 1.67 1.79 2.62l-.07-.14a9.125 9.125 0 0 0 1.96 2.79c-.91-1.89-1.01-4.89-2.05-5.97-.77-.79-1.4-1.44-2.34-1.89 0 0-2.11-1.35-3.67-2.81s-2.83-3.11-3.83-4.87L38.5 9.76c-.15-.22-.37-.38-.65-.45-.27-.06-.55-.01-.78.12l.16.3 20.7 32.21z" fill="#61370B"/><linearGradient id="c" x1="68.079" x2="68.079" y1="14.25" y2="121.34" gradientUnits="userSpaceOnUse"><stop stop-color="#FFB24B" offset=".054"/><stop stop-color="#FCAF48" offset=".269"/><stop stop-color="#F5A440" offset=".457"/><stop stop-color="#E79231" offset=".634"/><stop stop-color="#D5791D" offset=".805"/><stop stop-color="#BD5904" offset=".97"/><stop stop-color="#BA5400" offset=".991"/></linearGradient><path d="M100.42 103.6l-2.25-4.04c-.64-1.15-1.15-1.64-1.5-2.98-.35-1.33-.51-2.67-.51-3.98V75.5c0-2.29-.65-4.61-2.02-6.65a11.855 11.855 0 0 0-5.38-4.4l-14.22-5.86a9.02 9.02 0 0 1-2.85-1.87c-.85-.82-1.5-1.77-1.96-2.79l.07.14a9.252 9.252 0 0 0-1.79-2.62c-.77-.78-1.64-1.4-2.58-1.85 0 0-2.11-1.34-3.67-2.8s-2.83-3.11-3.83-4.87L37.85 10.32l-2.98 4.35L54.7 60.83s-1.83 8 0 14.83c1.74 6.48 6.39 8.86 6.39 8.86l4.11 16.44 1.47 18.48-3.09 4.56h4.84l-.29-3.23.85-.94c.14-.16.26-.35.33-.57s.1-.44.08-.66l-1.7-18.51 1.45-17.68c2.61.92 5.37 1.52 8.25 1.75 2.3.19 4.57.12 6.77-.16.07 1.22.3 2.44.7 3.66.5 1.51 1.23 2.88 2.13 4.08L96.67 104c.23.3.41.64.56 1.01s.24.74.28 1.12l1.15 13.53-2.64 4.34h4.11l-.15-1.32 1.18-2.36c.04-.09.08-.19.1-.29.02-.11.03-.21.02-.31l-.86-16.12z" fill="url(#c)"/><path d="M100.42 103.6l-2.25-4.04c-.64-1.15-1.15-1.64-1.5-2.98-.35-1.33-.51-2.67-.51-3.98V75.5c0-2.29-.65-4.61-2.02-6.65a11.855 11.855 0 0 0-5.38-4.4l-14.22-5.86a9.02 9.02 0 0 1-2.85-1.87c-.91-1.89-1.01-4.89-2.05-5.97-.77-.79-1.4-1.44-2.34-1.89 0 0-2.11-1.35-3.67-2.81s-2.83-3.11-3.83-4.87L38.5 9.76c-.15-.22-.37-.38-.65-.45-.27-.06-.55-.01-.78.12l.16.3.49.76-2.86 4.17L54.7 60.83s-1.83 8 0 14.83c1.74 6.48 6.39 8.86 6.39 8.86l4.11 16.44 1.47 18.48-3.09 4.56h4.84l-.29-3.23.85-.94c.14-.16.26-.35.33-.57s.1-.44.08-.66l-1.7-18.51 1.45-17.68c2.61.92 5.37 1.52 8.25 1.75 2.3.19 4.57.12 6.77-.16.07 1.22.3 2.44.7 3.66.5 1.51 1.23 2.88 2.13 4.08L96.67 104c.23.3.41.64.56 1.01s.24.74.28 1.12l1.15 13.53-2.64 4.34h4.11l-.15-1.32 1.18-2.36c.04-.09.08-.19.1-.29.02-.11.03-.21.02-.31l-.86-16.12z" fill="none" stroke="#AB521C" stroke-miterlimit="10"/><path fill="#BD621C" d="M50.95 37.27l-.12 3.92-2.37.73-1.18-4.59zM49.55 43.72l3.31-.33 2.11 1.24.4 4.35-3.14.85zM53.51 51.64l3.48-.33 3.49 1.34-.45 4.12L56.1 58zM61.41 54.34L60.2 59.4l5.15 2.53v-3.65z"/><g fill="#BD621C"><path d="M69.73 53.94l.07.14a9.252 9.252 0 0 0-1.79-2.62c-.77-.78-1.64-1.4-2.58-1.85 0 0-.37-.23-.91-.61l-2.35 4.12 3.75 4.5 4.11-3.11c-.11-.18-.21-.37-.3-.57zM44.17 24.35l.19 4.03 3.65.94 1.23-1.06-3.58-5.63zM63.33 48.13c-.52-.4-1.07-.86-1.57-1.32-1.07-1.01-2-2.1-2.81-3.26l-2.79 1.42.1 5.25 4.5 1.22 2.57-3.31zM43.98 22.51l.83-1.23-2.8-4.4-1.9.38.06 4.81zM39.95 16.48l1.29-.84-3.31-5.2-1.9.38.07 4.81zM47.48 30.57l.25 4.5 3.31 1.69 2.2-2.2-3.28-5.17zM54.92 43.56l3.11-1.47c-.03-.05-.07-.1-.1-.16l-4.18-6.58-2.08 1.96L51.3 42l3.62 1.56zM94.58 69.55l-3.3 1.5 1.44 4.25 3.43-.48c-.11-1.8-.62-3.61-1.57-5.27zM93.86 68.45a11.897 11.897 0 0 0-4.43-3.7h-.02l-2.19 1.5 2.56 3.12 4.08-.92zM81.56 62.78l.35-1.16-6.26-2.57-.09 2.88L78 63.99zM74.44 61.37l.44-2.64-.34-.14a9.02 9.02 0 0 1-2.85-1.87c-.43-.41-.8-.86-1.13-1.32l-3.15 2.97 3.19 3.56 3.84-.56zM88.27 64.24L82.82 62l-.32 1.34 2.9 3.09z"/></g><path fill="#BD621C" d="M66.41 59.25l.13 3.49 3.25.13zM69.29 64.06l5.24-1.88 3.32 3.13-1.07 3.31h-5.12zM78.28 68.62l.56-3.38 3.07-.81 3.18 3.13-1.06 3.18-4.44.69zM56.1 61.12L59.66 60l3.91 2.31-.6 4.18-5.37.82-1.53-2.66zM63.85 67.06l1.37-4 3.07 1.25 2.5 4.93-4.19 1.44zM59.02 68.98l4.13-.74 2.81 3.14-3.47 2.64-3.39-.25zM84.94 70.74l1.12-2.9 3.56 2.43 1.31 3-4.03 2.16zM68.72 71.49l3.75-1.5 3 .28 1.88 3.56-5.53 1.41zM78.28 74.68l4.41-2.53 2.34 3.93-3.75 1.88zM63.38 75.94l3.37-2.36 2.72 3.58-2.86 2.08-2.44-.86zM71.72 77.68l4.22-1.41 2.62 2.53-1.59 2.34-4.22-.75zM87.37 77.3l3.47-2.25 2.62 4.13-2.25 1.96-3.74-1.03zM81.09 80.3l3.1-1.69 1.77 2.91-2.9.84zM93.36 80.99l-2.19 2.43 2.88 2.44 1.06-2.62zM86.47 83.45l2.56-.82 1.12 2.56-2.37 1.38zM62.67 81.08l2.63-1.31 1.4 2.9-2.15 1.22zM90.74 87.28l1.96-1.32 1.78 2.25-1.4 1.69z"/><path d="M100.13 122.41h-3.28L95.72 124h4.55l-.15-1.58z"/><path fill="#BD621C" d="M40.59 23.2l3.15.27-.1 4.36-1.9-.32-.82-1.83zM44.02 29.52l2.74.1.19 3.28-2.42-.65z"/><path d="M64.87 122.1l-1.29 1.9h4.84l-.17-1.9z"/><g fill="#E0881D" stroke="#CC6A00" stroke-linecap="round" stroke-linejoin="round" stroke-miterlimit="10" stroke-width="1.113"><path d="M36.35 9.75s1.63-2.22.94-6.03l2.2-.05s-.28 3.86 1.22 6.34l-4.36-.26zM46.45 9.75s-1.63-2.22-.94-6.03l-2.2-.05s.28 3.86-1.22 6.34l4.36-.26z"/></g><linearGradient id="d" x1="28.768" x2="31.726" y1="10.158" y2="7.117" gradientUnits="userSpaceOnUse"><stop stop-color="#915616" offset="0"/><stop stop-color="#4F2A07" offset=".666"/><stop stop-color="#2E1400" offset=".991"/></linearGradient><path d="M32.98 8.94c-1.32-2.35-4.61-1.96-5.26-4.52-.17.68-.98 4.39 1.55 6.34 1.49 1.15 2.91 1.52 3.97 1.6.39-1.15.41-2.34-.26-3.42z" fill="url(#d)"/><path d="M35.08 12.2s-.53-5.84-3.21-7.19-4.12-.7-4.12-.7l-.03.11c.65 2.56 3.94 2.16 5.26 4.52.67 1.07.65 2.27.26 3.42 1.12.09 1.84-.16 1.84-.16z" fill="#FF8600"/><linearGradient id="e" x1="155.97" x2="158.93" y1="10.158" y2="7.117" gradientTransform="matrix(-1 0 0 1 210 0)" gradientUnits="userSpaceOnUse"><stop stop-color="#915616" offset="0"/><stop stop-color="#4F2A07" offset=".666"/><stop stop-color="#2E1400" offset=".991"/></linearGradient><path d="M49.82 8.94c1.32-2.35 4.61-1.96 5.26-4.52.17.68.98 4.39-1.55 6.34-1.49 1.15-2.91 1.52-3.97 1.6-.39-1.15-.41-2.34.26-3.42z" fill="url(#e)"/><path d="M47.72 12.2s.53-5.84 3.21-7.19c2.67-1.35 4.12-.7 4.12-.7l.03.11c-.65 2.56-3.94 2.16-5.26 4.52-.67 1.07-.65 2.27-.26 3.42-1.12.09-1.84-.16-1.84-.16z" fill="#FF8600"/><g fill="#EDA353"><path d="M28.78 5.18c.53 0 1.42.13 2.64.74 1.35.68 2.2 3.39 2.53 5.44-.08 0-.16.01-.25.01-.12 0-.25 0-.38-.01-1.19-.09-2.34-.55-3.42-1.39-1.67-1.29-1.49-3.67-1.29-4.78.04-.01.1-.01.17-.01m0-1.02c-.67 0-1.02.16-1.02.16l-.03.11c-.17.68-.98 4.39 1.55 6.34 1.49 1.15 2.91 1.52 3.97 1.6.16.01.31.02.45.02.85 0 1.38-.18 1.38-.18s-.53-5.84-3.21-7.19c-1.36-.69-2.4-.86-3.09-.86zM54.02 5.18h.17c.2 1.11.38 3.49-1.29 4.78-1.08.84-2.23 1.3-3.42 1.39-.13.01-.26.01-.38.01-.09 0-.17 0-.25-.01.33-2.05 1.18-4.76 2.53-5.44 1.23-.6 2.11-.73 2.64-.73m0-1.02c-.7 0-1.74.17-3.1.85-2.67 1.35-3.21 7.19-3.21 7.19s.53.18 1.38.18c.14 0 .29 0 .45-.02 1.06-.08 2.47-.45 3.97-1.6 2.52-1.95 1.72-5.65 1.55-6.34l-.03-.11s-.33-.15-1.01-.15z"/></g><linearGradient id="f" x1="41.399" x2="41.399" y1="7.453" y2="32.362" gradientUnits="userSpaceOnUse"><stop stop-color="#EBB273" offset="0"/><stop stop-color="#EBB374" offset=".013"/><stop stop-color="#F4D499" offset=".436"/><stop stop-color="#FAE9B0" offset=".778"/><stop stop-color="#FCF0B8" offset=".995"/></linearGradient><path d="M41.4 7.45c-8.31.04-8.95 7.32-8.31 10.48.56 2.76 4.87 14.43 7.55 14.43h1.51c2.68 0 6.99-11.67 7.55-14.43.64-3.16 0-10.44-8.3-10.48z" fill="url(#f)"/><defs><path id="g" d="M41.4 7.45v-.08.08c-8.3.04-8.94 7.38-8.3 10.54.56 2.76 4.87 14.5 7.54 14.5h1.51c2.68 0 6.98-11.73 7.54-14.5.65-3.16.01-10.5-8.29-10.54z"/></defs><clipPath id="h"><use xlink:href="#g"/></clipPath><path d="M49.81 8.68S42.49 3.55 41.4 6.4c-1.09-2.85-8.41 2.28-8.41 2.28-.31 1.57 3.21.65 5.45 5.63 1.59 3.54 1.04 4.58 0 6.67-.99 1.99 2.61 1.56 2.96 1.51.35.05 3.95.48 2.96-1.51-1.04-2.09-1.59-3.14 0-6.67 2.24-4.97 5.75-4.06 5.45-5.63z" clip-path="url(#h)" fill="#F29023"/><g clip-path="url(#h)"><path fill="#BD621C" d="M41.36 7.47l.22 3.6 2.34 2.02 2.5-2.18-.67-5.84z"/></g><g clip-path="url(#h)"><path fill="#BD621C" d="M35.95 6.05l5.14.47-2.01 4.36-1.66.74-2.76-2.89z"/></g><g clip-path="url(#h)"><path fill="#BD621C" d="M38.41 11.79l2.03.07.14 2.43-1.79-.47z"/></g><g clip-path="url(#h)"><path fill="#BD621C" d="M41.67 13.62l1.7.06.12 2.04-2.52.11z"/></g><g clip-path="url(#h)"><defs><path id="i" d="M49.81 8.68S42.49 3.55 41.4 6.4c-1.09-2.85-8.41 2.28-8.41 2.28-.31 1.57 3.21.65 5.45 5.63 1.59 3.54 1.04 4.58 0 6.67-.99 1.99 2.61 1.56 2.96 1.51.35.05 3.95.48 2.96-1.51-1.04-2.09-1.59-3.14 0-6.67 2.24-4.97 5.75-4.06 5.45-5.63z"/></defs></g><ellipse cx="33.31" cy="23.06" rx="2.15" ry="2.3" clip-path="url(#h)" fill="#EDC89F"/><g fill="#383838"><path d="M41.39 32.38c-1.98 0-3.16-1.44-3.67-2.25h7.35c-.5.8-1.67 2.25-3.68 2.25z"/><path d="M44.34 30.5c-.58.71-1.54 1.5-2.95 1.5-1.4 0-2.36-.79-2.94-1.49h5.89m1.37-.76h-8.62s1.29 3.01 4.31 3.01c3.01-.01 4.31-3.01 4.31-3.01z"/></g><linearGradient id="j" x1="41.399" x2="41.399" y1="16.647" y2="30.4" gradientUnits="userSpaceOnUse"><stop stop-color="#F29024" offset=".251"/><stop stop-color="#ED8B21" offset=".427"/><stop stop-color="#E07C18" offset=".638"/><stop stop-color="#C9640A" offset=".866"/><stop stop-color="#BA5400" offset=".991"/></linearGradient><path d="M46.17 24.53c-.64-2.39-2.26-4.73-3.38-6.92-.64-1.24-2.21-1.26-2.84-.02-1.43 2.82-3.51 5.73-3.61 8.98-.08 2.83.85 3.89 5.04 3.89 4.31 0 5.57-1.16 4.91-5.38-.02-.18-.07-.36-.12-.55z" fill="url(#j)"/><path d="M41.39 8.39c1.42 0 3.44.28 5.05 1.63 1.94 1.63 2.88 4.79 2.29 7.7-.27 1.32-1.45 5.22-3.09 8.7l-.11.24.02.26c.11 1.69-.42 3.1-1.46 3.88l-.08.06-.07.08c-.72.81-1.54 1.22-2.44 1.22-.86 0-1.64-.37-2.33-1.1l-.09-.09-.11-.07c-1.05-.67-1.59-1.82-1.55-3.32v-.29c0-.1 0-.2.01-.3l.03-.28-.12-.25c-1.65-3.48-3.03-7.44-3.3-8.75-.27-1.32-.24-2.79.08-4.14.35-1.5 1.07-2.74 2.07-3.59.59-.5 1.3-.89 2.12-1.15.44-.14.93-.25 1.45-.33.51-.07 1.03-.11 1.52-.12l.11.01m0-1.01h-.13c-.56.01-1.11.05-1.65.13-.55.08-1.09.19-1.62.36-.89.29-1.73.73-2.46 1.34-1.23 1.04-2.02 2.52-2.4 4.13-.35 1.48-.38 3.08-.08 4.57s1.74 5.54 3.37 8.98c-.02.21 0 .43-.01.65-.05 1.92.7 3.37 2.02 4.2.7.74 1.71 1.41 3.06 1.41 1.44 0 2.49-.76 3.2-1.56 1.38-1.03 1.99-2.79 1.86-4.76 1.62-3.43 2.86-7.45 3.16-8.93.62-3.07-.27-6.69-2.63-8.67-1.6-1.33-3.66-1.85-5.69-1.85z" fill="#EDA353"/><g fill="#4E342E"><ellipse transform="rotate(-32.512 39.903 25.932)" cx="39.9" cy="25.93" rx=".58" ry="1.76"/><ellipse transform="rotate(-57.488 42.893 25.932)" cx="42.89" cy="25.93" rx="1.76" ry=".58"/></g><path d="M38.45 5.44c-.29 0-.59-.09-.85-.25-.81-.5-1.11-1.58-.66-2.41.28-.51.78-.82 1.35-.82.29 0 .59.09.85.25.81.5 1.11 1.58.66 2.41-.28.51-.79.82-1.35.82z" fill="#6E3F1B"/><path d="M38.28 2.46c.2 0 .4.06.58.17.58.36.8 1.16.48 1.74-.19.35-.52.55-.9.55-.2 0-.4-.06-.58-.17-.58-.36-.8-1.16-.48-1.74.19-.34.52-.55.9-.55m0-1.01c-.72 0-1.42.39-1.79 1.08-.57 1.06-.2 2.44.84 3.08.35.22.74.32 1.12.32.72 0 1.42-.39 1.79-1.08.57-1.06.2-2.44-.84-3.08-.36-.21-.74-.32-1.12-.32z" fill="#3D230F"/><path d="M44.35 5.44c-.57 0-1.07-.31-1.35-.82-.45-.83-.15-1.91.66-2.41.26-.16.56-.25.85-.25.57 0 1.07.31 1.35.82.45.83.15 1.91-.66 2.41-.26.16-.55.25-.85.25z" fill="#6E3F1B"/><path d="M44.52 2.46c.38 0 .72.21.9.55.32.59.1 1.39-.48 1.74-.18.11-.38.17-.58.17-.38 0-.72-.21-.9-.55-.32-.59-.1-1.39.48-1.74.17-.11.38-.17.58-.17m0-1.01c-.38 0-.76.1-1.12.32-1.04.64-1.41 2.02-.84 3.08.38.7 1.07 1.08 1.79 1.08.38 0 .76-.1 1.12-.32 1.04-.64 1.41-2.02.84-3.08a2.044 2.044 0 0 0-1.79-1.08z" fill="#3D230F"/><ellipse transform="rotate(-16.137 36.159 16.79)" cx="36.16" cy="16.79" rx="1.54" ry="2.16" fill="#242424"/><path d="M34.02 16.88c-.27.18-.63.22-.93.1.26.32.73.39 1.1.25.38-.15.67-.48.88-.84.1-.17.19-.38.13-.57-.01-.02-.64.22-.7.31-.18.26-.17.55-.48.75z" fill="#242424"/><path d="M35.31 14.46c-.97.4-1.51 1.41-1.21 2.25l3.52-1.46c-.3-.84-1.34-1.19-2.31-.79z" fill="#636363"/><ellipse transform="rotate(-73.865 46.64 16.79)" cx="46.64" cy="16.79" rx="2.16" ry="1.54" fill="#242424"/><path d="M48.78 16.88c.27.18.63.22.93.1-.26.32-.73.39-1.1.25-.38-.15-.67-.48-.88-.84-.1-.17-.19-.38-.13-.57.01-.02.64.22.7.31.18.26.17.55.48.75z" fill="#242424"/><path d="M47.49 14.46c.97.4 1.51 1.41 1.21 2.25l-3.52-1.46c.3-.84 1.34-1.19 2.31-.79z" fill="#636363"/></svg>