<svg viewBox="0 0 128 128" width="128" height="128" xmlns="http://www.w3.org/2000/svg"><linearGradient id="a" x1="64" x2="64" y1="19.717" y2="107.7" gradientUnits="userSpaceOnUse"><stop stop-color="#FEE133" offset=".5"/><stop stop-color="#FEDE32" offset=".612"/><stop stop-color="#FCD32F" offset=".708"/><stop stop-color="#FAC12B" offset=".797"/><stop stop-color="#F7A924" offset=".883"/><stop stop-color="#F6A323" offset=".9"/></linearGradient><path d="M64 119.89C36.07 119.89 6 102.4 6 64S36.07 8.11 64 8.11c15.48 0 29.81 5.12 40.36 14.43C115.9 32.72 122 47.06 122 64c0 16.86-6.1 31.17-17.64 41.39-10.58 9.35-24.91 14.5-40.36 14.5z" fill="url(#a)"/><path d="M64 10.11c14.99 0 28.86 4.95 39.03 13.93C114.13 33.83 120 47.65 120 64c0 16.27-5.87 30.07-16.97 39.89-10.21 9.03-24.07 14-39.03 14-15.04 0-28.9-4.91-39.04-13.82C13.86 94.32 8 80.46 8 64c0-16.54 5.86-30.42 16.96-40.15C35.07 14.99 48.93 10.11 64 10.11m0-4c-31.15 0-60 20-60 57.89 0 37.68 28.85 57.89 60 57.89s60-20.73 60-57.89c0-37.37-28.85-57.89-60-57.89z" fill="#EB8F00"/><path d="M75.67 20.92c-.05 0-.09-.01-.14-.01-2.2-.12-2.68-3.3-.26-3.65 1.89-.24 3.88-.2 5.87.15 5.48.95 10.2 4.05 13.08 8 1.41 1.99-1.23 3.86-2.82 2.34-4.08-3.81-9.71-6.39-15.73-6.83zM31.69 31.18l-.14.03c-2.16.41-2.21 3.63.24 3.65 1.91-.02 3.87-.33 5.8-.95 5.3-1.69 9.56-5.4 11.87-9.7 1.12-2.17-1.75-3.66-3.11-1.94-3.53 4.35-8.76 7.66-14.66 8.91z" fill="#EB8F00" stroke="#EB8F00" stroke-miterlimit="10"/><path d="M40.22 71.11c-10.08 0-18.27-8.2-18.27-18.27 0-10.08 8.2-18.27 18.27-18.27s18.27 8.2 18.27 18.27c0 10.08-8.19 18.27-18.27 18.27z" fill="#fff"/><path d="M40.22 36.45c9.04 0 16.39 7.35 16.39 16.39s-7.35 16.39-16.39 16.39-16.39-7.35-16.39-16.39 7.36-16.39 16.39-16.39m0-3.77c-11.13 0-20.16 9.03-20.16 20.16S29.09 73 40.22 73s20.16-9.03 20.16-20.16-9.03-20.16-20.16-20.16z" fill="#EB8F00"/><path d="M45.78 40.1c-3.26-.47-6.7 2.45-7.5 8s1.68 9.32 4.94 9.79 6.7-2.45 7.5-8c.8-5.54-1.68-9.32-4.94-9.79z" fill="#242424"/><path d="M58.03 47c-.96-6.74-8.57-11.98-17.81-11.98S23.38 40.27 22.41 47h35.62z" fill="#EB8F00"/><path d="M88.22 72.21c-9.58 0-17.37-7.79-17.37-17.37s7.79-17.37 17.37-17.37 17.37 7.79 17.37 17.37-7.79 17.37-17.37 17.37z" fill="#fff"/><path d="M88.22 39.27c8.59 0 15.57 6.99 15.57 15.57S96.8 70.41 88.22 70.41s-15.57-6.99-15.57-15.57 6.98-15.57 15.57-15.57m0-3.59c-10.58 0-19.16 8.58-19.16 19.16S77.64 74 88.22 74s19.16-8.58 19.16-19.16-8.58-19.16-19.16-19.16z" fill="#EB8F00"/><path d="M74.64 47.45c-1.32 1.65-2.15 4.16-2.07 7.35.16 5.85 3.28 9.29 6.62 9.2 3.33-.09 6.27-3.7 6.12-9.54a15.34 15.34 0 0 0-.36-2.92c-3.48-1.26-6.91-2.64-10.31-4.09z" fill="#242424"/><g fill="none" stroke="#242424" stroke-linecap="round" stroke-linejoin="round" stroke-miterlimit="10" stroke-width="4.438"><path d="M32 90.78c.85 4.21 6.02 6 10.31 5.67s8.51-1.95 12.76-1.31c2.19.33 4.32 1.26 6.52 1.09 4.23-.33 7.07-4.41 10.87-6.29 3.06-1.52 6.63-1.53 10.05-1.43 3.42.09 6.95.24 10.13-1.02s5.92-4.35 5.59-7.75M28.2 92.35c.82-2.58 3.31-4.55 6.01-4.75M93.24 77.08c3.29.4 6.4 2.08 8.53 4.61"/></g><path d="M104.55 57.7c1.39-8.34-3.51-16.49-11.59-18.72S76.49 41.23 73.41 49.1l31.14 8.6z" fill="#EB8F00"/></svg>