<svg viewBox="0 0 128 128" width="128" height="128" xmlns="http://www.w3.org/2000/svg" xmlns:xlink="http://www.w3.org/1999/xlink"><path d="M64 39.75C28.66 39.75.01 9.53.01 22.81c0 94.92 127.98 94.92 127.98 0C127.99 9 99.34 39.75 64 39.75z" fill="#7A5549"/><linearGradient id="a" x1="64" x2="64" y1="28.991" y2="110.68" gradientUnits="userSpaceOnUse"><stop stop-color="#FEE133" offset=".5"/><stop stop-color="#FEDE32" offset=".612"/><stop stop-color="#FCD32F" offset=".708"/><stop stop-color="#FAC12B" offset=".797"/><stop stop-color="#F7A924" offset=".883"/><stop stop-color="#F6A323" offset=".9"/></linearGradient><path d="M64 122c-25.94 0-53.85-16.24-53.85-51.89S38.07 18.22 64 18.21c14.38 0 27.69 4.76 37.48 13.4 10.71 9.46 16.38 22.77 16.38 38.49 0 15.66-5.66 28.94-16.38 38.42C91.66 117.22 78.35 122 64 122z" fill="url(#a)"/><path d="M64 20.21c13.89 0 26.73 4.58 36.15 12.9 10.27 9.06 15.7 21.86 15.7 37 0 15.07-5.43 27.84-15.7 36.93C90.7 115.39 77.86 120 64 120c-13.93 0-26.77-4.54-36.16-12.8-10.27-9.03-15.69-21.85-15.69-37.1 0-15.31 5.43-28.17 15.69-37.17 9.36-8.2 22.2-12.72 36.16-12.72m0-4c-29 0-55.85 18.62-55.85 53.89C8.15 105.18 35 124 64 124s55.85-19.29 55.85-53.89c0-34.8-26.85-53.9-55.85-53.9z" fill="#EB8F00"/><path d="M97.75 29.91C95.61 17.85 84.61.05 74.67.18 66.93.28 68.34 3.61 64 3.61c-4.54 0-2.8-3.39-10.13-3.43-9.69-.06-21.2 16.57-23.62 29.07-1.67 8.65 23.69 2.98 33.97 2.98 10.29 0 24.87-.7 33.53-2.32z" fill="#826156"/><defs><path id="b" d="M98.83 34.28C96.41 21.21 86.59-1.96 76.09-1.96c-8.76 0-6.96 3.72-11.88 3.72-5.14 0-3.38-3.72-11.68-3.72-10.2 0-21.29 23.17-23.7 36.24 9.82 1.75 23.78 2.67 35.43 2.67s24.77-.92 34.57-2.67z"/></defs><clipPath id="c"><use xlink:href="#b"/></clipPath><path d="M104.48 39.44H23.53V15.5s12.38 7.1 40.48 7.13c28.19.03 40.48-7.13 40.48-7.13v23.94z" clip-path="url(#c)" fill="#A1887F"/><path d="M3.02 19.48S37.51 28 64 28s60.09-8.52 60.09-8.52S107.67 53.75 64 53.75 3.02 19.48 3.02 19.48z" fill="#4A251A"/><defs><path id="d" d="M63.99 88.57c-10.06 0-19.41-.93-27.21-2.51-1.93-.39-3.65 1.47-3.25 3.59 2.59 13.93 15.08 25.37 30.45 25.37 16.82 0 28.14-11.81 30.49-25.42.36-2.1-1.34-3.94-3.26-3.55-7.8 1.59-17.15 2.52-27.22 2.52z"/></defs><clipPath id="e"><use xlink:href="#d"/></clipPath><path d="M63.99 88.57c-10.06 0-19.41-.93-27.21-2.51-1.93-.39-3.65 1.47-3.25 3.59 2.59 13.93 15.08 25.37 30.45 25.37 16.82 0 28.14-11.81 30.49-25.42.36-2.1-1.34-3.94-3.26-3.55-7.8 1.59-17.15 2.52-27.22 2.52z" clip-path="url(#e)" fill="#242424"/><path d="M98.09 87.76V77.29H29.91v10.47c10.49 6.77 22 10.53 34.09 10.53s23.6-3.77 34.09-10.53z" clip-path="url(#e)" fill="#fff"/><path d="M64 105.37c-7.54 0-14.12 4.52-17.63 11.22C50.93 119.32 57.14 121 64 121s13.07-1.69 17.63-4.42c-3.51-6.7-10.09-11.21-17.63-11.21z" clip-path="url(#e)" fill="#ED7770"/><g clip-path="url(#e)"><defs><path id="f" d="M29.91 77.29v10.47c10.49 6.77 22 10.53 34.09 10.53s23.6-3.76 34.09-10.53V77.29H29.91zM64 105.37c-7.54 0-14.12 4.52-17.63 11.22C50.93 119.32 57.14 121 64 121s13.07-1.69 17.63-4.42c-3.51-6.7-10.09-11.21-17.63-11.21z"/></defs><clipPath id="g"><use xlink:href="#f"/></clipPath><g clip-path="url(#g)"><path d="M90.25 90.32c-1.24 5.47-4.14 10.44-8.26 14.11-4.84 4.31-11.07 6.59-18.01 6.59-12.29 0-23.32-8.8-26.21-20.7 7.92 1.47 16.94 2.25 26.22 2.25 9.3 0 18.33-.78 26.26-2.25M91.73 86c-.17 0-.34.02-.52.05-7.8 1.59-17.16 2.52-27.22 2.52s-19.41-.93-27.21-2.51a2.22 2.22 0 0 0-.51-.06c-1.71 0-3.09 1.72-2.73 3.64 2.59 13.93 15.08 25.37 30.45 25.37 16.82 0 28.14-11.81 30.49-25.42.32-1.9-1.06-3.59-2.75-3.59z" fill="#EB8F00"/></g></g><g fill="#242424"><path d="M82.3 57.36c3.51 0 6.7 4.12 6.7 10.94s-3.19 10.94-6.7 10.94-6.7-4.12-6.7-10.94 3.2-10.94 6.7-10.94zM45.7 57.36c-3.51 0-6.7 4.12-6.7 10.94s3.19 10.94 6.7 10.94 6.7-4.12 6.7-10.94-3.2-10.94-6.7-10.94z"/></g></svg>