<svg viewBox="0 0 128 128" width="128" height="128" xmlns="http://www.w3.org/2000/svg" xmlns:xlink="http://www.w3.org/1999/xlink"><defs><path id="a" d="M4 4h120v120H4z"/></defs><clipPath id="b"><use xlink:href="#a"/></clipPath><g clip-path="url(#b)"><linearGradient id="c" x1="66.813" x2="66.813" y1="43.869" y2="87.657" gradientUnits="userSpaceOnUse"><stop stop-color="#8D5738" offset="0"/><stop stop-color="#A56C43" offset="1"/></linearGradient><path d="M73.07 104.9c-4.04-.46-8.18-1.03-12.19-1.58-8.1-1.11-16.47-2.25-24.65-2.66 3.6-6.2 7.66-17.63 9.22-22.04.25-.7.43-1.21.53-1.48.46-1.22.49-2.21.08-3.02-.78-1.54-3-2.17-6.06-3.03l-2.11-.59c-3.17-.88-6.77-1.89-10.21-3.3-4.77-1.97-4.99-6.98-3.97-9.87 1.52-4.33 5.58-10.48 7.75-13.78.92-1.4 1.34-2.03 1.44-2.29.76-1.94-.27-2.86-1.47-3.92-.89-.79-2-1.78-2.79-3.53-.67-1.47-.15-2.84.97-4.7 1.23-2.05 3.84-2.84 5.81-3.14.86-.13 1.69-.2 2.47-.2 1.66 0 3.16.29 4.43.88.12.05.25.11.38.16.37.15.75.31.99.52.1.09.17.19.25.31.16.23.35.51.76.69.34.15.67.15.96.16.33 0 .53.01.74.15.34.22.62.62.75 1.06.09.29.21.56.33.82.25.54.39.87.26 1.26-.47 1.51-1.42 2.84-2.44 4.26-.73 1.02-1.48 2.07-2.13 3.28-.68 1.27-1.23 2.61-1.77 3.91-.24.58-.47 1.15-.72 1.72-.31.72-.63 1.43-.95 2.15-1.25 2.81-2.53 5.71-3.42 8.69-.04.13-.02.28.05.39.11.19.11.19 4.5 1.26s11.36 2.77 16.48 4.05l.21.05c7.42 1.86 13.8 3.46 20.65 6.05 17.61 6.66 23.96 10.38 27.01 12.17.38.22.71.41 1.01.58 2.19 1.24 3.67 3.08 4.07 5.06.37 1.83-.18 3.78-1.6 5.62-.16.2-6.34 7.38-9.86 11.46l-6.49-5.07 5.27-7.92c.05-.08.08-.16.08-.25.02-.42.02-.42-5.02-2.36-3.42-1.31-5.88-2.15-7.3-2.48-.58-.13-1.08-.2-1.56-.2-2.7 0-3.59 2.19-4.63 4.74-2.39 5.9-5.43 14.13-6.11 15.96z" fill="url(#c)"/><path d="M37.92 26.26c1.59 0 3.01.28 4.23.83.12.06.26.11.4.17.32.13.67.28.84.43.05.05.1.11.17.22.17.25.43.63.98.86.43.19.85.19 1.15.2.28 0 .38.01.47.07.24.16.45.46.55.79s.24.63.36.89c.23.49.31.69.24.9-.45 1.43-1.38 2.74-2.37 4.12-.73 1.03-1.49 2.09-2.16 3.33-.69 1.29-1.25 2.65-1.79 3.96-.23.57-.47 1.15-.71 1.71-.31.71-.62 1.42-.94 2.14-1.25 2.83-2.55 5.75-3.45 8.76-.08.26-.05.55.09.78.22.38.22.38 4.84 1.51 4.52 1.1 11.35 2.76 16.45 4.05l.2.05c7.37 1.86 13.74 3.46 20.56 6.04 17.57 6.64 23.89 10.35 26.93 12.14.38.22.71.42 1.01.59 2.06 1.17 3.46 2.89 3.83 4.72.35 1.71-.16 3.47-1.49 5.2-.2.25-6.01 7-9.55 11.1l-5.74-4.49 5.01-7.53c.16-.25.21-.55.13-.84a.977.977 0 0 0-.56-.63c-.08-.03-8.64-3.57-12.1-4.38-.61-.14-1.16-.21-1.67-.21-3.04 0-4.04 2.45-5.09 5.05-2.27 5.56-5.11 13.21-5.99 15.6-3.91-.45-7.91-1-11.78-1.53-7.85-1.07-15.95-2.18-23.89-2.62 3.52-6.36 7.35-17.15 8.86-21.41.25-.7.43-1.21.53-1.48.51-1.36.53-2.48.06-3.42-.88-1.74-3.18-2.39-6.37-3.28l-.61-.17c-.49-.14-.99-.28-1.51-.42-3.16-.88-6.74-1.88-10.14-3.28-4.97-2.05-4.35-7.37-3.69-9.24 1.5-4.27 5.53-10.39 7.7-13.67 1.01-1.53 1.37-2.08 1.49-2.39.89-2.26-.44-3.44-1.6-4.48-.9-.8-1.92-1.71-2.66-3.36-.58-1.28-.11-2.48.94-4.24 1.13-1.88 3.59-2.62 5.46-2.9.81-.17 1.62-.24 2.38-.24m0-1c-.85 0-1.71.07-2.55.2-2.4.36-4.92 1.3-6.17 3.38-1.02 1.7-1.81 3.36-1 5.17 1.88 4.16 5.38 4.16 4.24 7.06-.34.86-7.1 10.15-9.2 16.1-.99 2.82-1 8.33 4.25 10.5 4.02 1.66 8.29 2.76 11.76 3.74 4.74 1.34 7.62 1.97 6.26 5.56-.75 1.99-5.89 17.28-10.14 24.15 12.61.55 25.49 2.89 38.03 4.32 0 0 3.52-9.61 6.25-16.3 1.07-2.62 1.84-4.43 4.17-4.43.43 0 .9.06 1.44.19 3.38.79 11.92 4.32 11.94 4.33l-5.53 8.3 7.23 5.65s10.09-11.73 10.19-11.85c3.58-4.67 1.42-9.12-2.62-11.42-2.85-1.62-8.35-5.33-28.08-12.79C71.43 64.5 64.86 62.85 57.5 61c-8.04-2.03-20.67-5.06-20.67-5.08 1.1-3.69 2.82-7.26 4.35-10.78.81-1.87 1.5-3.8 2.47-5.6 1.56-2.9 3.77-4.95 4.6-7.62.27-.86-.33-1.51-.6-2.38-.16-.52-.49-1.02-.95-1.33-.6-.4-1.19-.11-1.77-.35-.46-.2-.51-.58-.87-.91-.39-.36-1.02-.55-1.5-.77-1.45-.66-3.04-.92-4.64-.92z" fill="#875334"/><circle cx="35.94" cy="20" r="16" fill="#FF9100"/><radialGradient id="d" cx="31.252" cy="14.857" r="17.651" gradientUnits="userSpaceOnUse"><stop stop-color="#FFA726" offset=".209"/><stop stop-color="#B33F00" offset=".792"/></radialGradient><circle cx="35.94" cy="20" r="16" fill="url(#d)" opacity=".4"/><defs><circle id="e" cx="35.94" cy="20" r="16"/></defs><clipPath id="f"><use xlink:href="#e"/></clipPath><g clip-path="url(#f)" fill="none" stroke-width=".787"><path d="M35.93 20.01c-1-2.32-1.55-4.88-1.55-7.57 0-3.17.77-6.16 2.13-8.79" stroke="#6D4C41"/><path d="M35.02 7.48c.32-.02.65-.02.98-.02 6.49 0 12.22 3.22 15.69 8.15M34.46 14.22c.51-.04 1.02-.06 1.54-.06 6.62 0 12.46 3.35 15.9 8.46" stroke="#5D4037"/><path d="M35.92 20c2.51.3 5.01 1.1 7.33 2.44 2.75 1.58 4.95 3.75 6.55 6.24" stroke="#4E342E"/><path d="M47.22 25.49c-.15.29-.3.58-.47.86-3.24 5.62-8.9 8.97-14.9 9.52" stroke="#3E2723"/><path d="M41.66 21.63c-.22.46-.46.92-.72 1.37-3.31 5.73-9.13 9.11-15.28 9.55M35.93 20a18.97 18.97 0 0 1-5.78 5.13 19.2 19.2 0 0 1-8.68 2.55" stroke="#4E342E"/><path d="M25.53 27.05c-.18-.27-.35-.55-.51-.84-3.24-5.62-3.32-12.2-.79-17.67" stroke="#6D4C41"/><path d="M31.65 24.17c-.29-.42-.56-.86-.82-1.31-3.31-5.73-3.32-12.47-.63-18" stroke="#795548"/></g><path d="M35.94 5c8.27 0 15 6.73 15 15s-6.73 15-15 15-15-6.73-15-15 6.73-15 15-15m0-1c-8.84 0-16 7.16-16 16s7.16 16 16 16 16-7.16 16-16-7.16-16-16-16z" fill="#E67300"/></g><g clip-path="url(#b)"><linearGradient id="g" x1="65.855" x2="67.808" y1="73.861" y2="66.87" gradientUnits="userSpaceOnUse"><stop stop-color="#A56C43" offset="0"/><stop stop-color="#9A633E" offset=".22"/><stop stop-color="#905A39" offset=".567"/><stop stop-color="#8D5738" offset="1"/></linearGradient><path d="M67.82 72.17a4.711 4.711 0 0 1-4.62-5.62l.82-4.2 9.24 1.81-.82 4.2c-.44 2.21-2.38 3.81-4.62 3.81z" fill="url(#g)"/><path d="M64.41 62.94l8.25 1.62-.73 3.71a4.216 4.216 0 0 1-4.12 3.4 4.217 4.217 0 0 1-4.13-5.02l.73-3.71m-.79-1.17l-.92 4.69a5.218 5.218 0 0 0 5.12 6.22c2.44 0 4.62-1.72 5.1-4.21l.92-4.69-10.22-2.01z" fill="#875334"/><defs><path id="h" transform="rotate(11.098 72.733 44.271)" d="M50.31 21.86h44.83v44.83H50.31z"/></defs><clipPath id="i"><use xlink:href="#h"/></clipPath><g clip-path="url(#i)"><path d="M84.61 57.82a4.8 4.8 0 0 1-.85-.08l-26.34-5.16c-2.58-.51-4.23-3.16-3.69-5.93.48-2.42 2.5-4.17 4.8-4.17.29 0 .57.03.85.08l26.33 5.16c2.58.5 4.23 3.16 3.69 5.93-.47 2.42-2.48 4.17-4.79 4.17z" fill="#E59600"/><path d="M58.53 42.97c.25 0 .51.02.76.07l3.55.7 19.23 3.77 3.55.7c2.31.45 3.78 2.85 3.3 5.34-.43 2.19-2.24 3.77-4.31 3.77-.25 0-.51-.02-.76-.07l-3.55-.7-19.23-3.77-3.55-.7c-2.31-.45-3.78-2.85-3.3-5.34.43-2.18 2.24-3.77 4.31-3.77m0-1c-2.49 0-4.77 1.89-5.29 4.58-.59 3.02 1.24 5.95 4.08 6.51l3.55.7 19.23 3.77 3.55.7c.32.06.64.09.95.09 2.49 0 4.77-1.89 5.29-4.58.59-3.02-1.24-5.95-4.08-6.51l-3.55-.7-19.23-3.77-3.55-.7c-.32-.06-.64-.09-.95-.09z" fill="#CC8600"/><linearGradient id="j" x1="92.341" x2="92.341" y1="-31.037" y2="9.982" gradientTransform="rotate(11.098 -206.906 -85.119)" gradientUnits="userSpaceOnUse"><stop stop-color="#A56C43" offset="0"/><stop stop-color="#A26941" offset=".427"/><stop stop-color="#97603D" offset=".784"/><stop stop-color="#8D5738" offset="1"/></linearGradient><path d="M71.41 66.04c-.99 0-1.98-.1-2.96-.29-7.54-1.48-14.51-8.92-12-21.76 2.38-12.17 10.66-18.53 17.61-18.53.76 0 1.51.07 2.24.22 9.67 1.9 13.49 14.17 11.47 24.46-2.29 11.72-9.96 15.9-16.36 15.9z" fill="url(#j)"/><path d="M74.07 25.96c.72 0 1.45.07 2.15.21 3.82.75 7.22 3.58 9.32 7.77 2.28 4.53 2.9 10.25 1.75 16.1-2.24 11.43-9.67 15.51-15.88 15.51-.95 0-1.92-.09-2.86-.28-3.99-.78-7.38-3.1-9.54-6.51-2.46-3.89-3.18-8.97-2.06-14.66 2.33-11.91 10.38-18.14 17.12-18.14m0-1c-7.74 0-15.8 7.22-18.1 18.93-2.52 12.84 4.24 20.75 12.39 22.35 1 .2 2.03.3 3.05.3 7.28 0 14.66-5.06 16.86-16.31 2.53-12.91-3.48-23.4-11.86-25.04-.77-.15-1.56-.23-2.34-.23z" fill="#875334"/><g fill="#42312C"><path d="M61.05 42.52s.08-.08.23-.21c.04-.03.07-.07.13-.11s.13-.08.21-.13c.08-.04.16-.09.24-.14.09-.05.17-.08.26-.12s.19-.08.29-.12c.1-.03.21-.06.32-.1s.23-.06.35-.08.24-.04.37-.06c.25-.02.51-.05.78-.03.27 0 .53.05.8.09.26.06.52.12.77.22.25.08.48.2.71.32.11.06.21.13.32.19.1.06.2.13.29.21.09.07.18.14.26.21s.15.15.22.22.14.14.2.21.11.14.16.21.09.12.13.18.07.12.1.17c.11.2.17.32.17.32.18.39.01.85-.38 1.02-.24.11-.5.09-.71-.03l-.13-.08s-.09-.05-.22-.14a2.78 2.78 0 0 1-.11-.08.913.913 0 0 1-.13-.08c-.09-.06-.2-.12-.31-.18-.06-.03-.11-.07-.18-.1s-.13-.06-.2-.09c-.03-.02-.07-.03-.1-.05-.04-.01-.07-.03-.11-.04a4.97 4.97 0 0 0-.22-.09c-.15-.05-.31-.11-.47-.15-.16-.05-.33-.08-.49-.12-.17-.02-.34-.06-.5-.07-.17-.02-.33-.02-.49-.04-.08 0-.16.01-.24 0h-.12c-.04 0-.08.01-.11.01-.07 0-.15.01-.22.01s-.14.02-.2.02c-.07.01-.13.01-.19.02-.05.01-.1.01-.15.02s-.09.01-.14.02-.11.03-.15.04l-.3.08a.797.797 0 0 1-.94-.62.74.74 0 0 1 .2-.73zM83.02 48.03s-.1-.06-.25-.18c-.04-.03-.08-.07-.13-.1a.746.746 0 0 1-.12-.07.913.913 0 0 1-.13-.08c-.05-.03-.11-.06-.17-.09s-.11-.07-.18-.1c-.06-.03-.13-.06-.2-.09-.03-.02-.07-.03-.1-.05-.04-.01-.07-.03-.11-.04a4.97 4.97 0 0 0-.22-.09c-.15-.05-.31-.11-.47-.15-.16-.05-.33-.08-.49-.12-.17-.02-.34-.06-.5-.07-.17-.03-.33-.02-.49-.04-.08 0-.16.01-.24 0h-.12c-.04 0-.08.01-.11.01-.07 0-.15.01-.22.01s-.14.02-.2.02c-.13.01-.25.03-.36.05-.05.01-.1.02-.15.02-.05.01-.09.02-.13.03-.16.04-.26.05-.26.05l-.15.02a.768.768 0 0 1-.87-.65c-.04-.26.06-.51.24-.67 0 0 .1-.09.28-.23l.15-.12c.06-.04.12-.08.19-.12s.14-.09.22-.13.17-.08.26-.12.19-.08.29-.12c.1-.03.21-.06.32-.1s.23-.06.35-.08.24-.04.37-.06c.25-.02.51-.05.78-.03.27 0 .53.05.8.09.26.06.52.12.77.22.25.08.48.21.71.32.11.06.21.13.32.19.1.06.2.13.29.21.09.07.18.14.26.21s.15.15.22.22.14.14.2.21c.06.08.12.15.17.22s.1.13.14.2c.04.06.05.1.08.15.09.17.14.28.14.28.17.4-.01.87-.42 1.04-.26.11-.55.07-.76-.07z"/></g><g fill="#42312C"><ellipse transform="rotate(-78.907 63.843 47.611)" cx="63.84" cy="47.61" rx="2.51" ry="2.42"/><ellipse transform="rotate(-78.907 79.682 50.716)" cx="79.68" cy="50.71" rx="2.51" ry="2.42"/></g><radialGradient id="k" cx="92.467" cy="-33.083" r="14.92" gradientTransform="rotate(11.098 -206.906 -85.119)" gradientUnits="userSpaceOnUse"><stop stop-color="#6D4C41" offset="0"/><stop stop-color="#543930" offset="1"/></radialGradient><path d="M77.17 22.31C55.1 17.99 54.85 44.09 54.85 44.09s1.44 4.72 1.45 4.64c.61-3.51 3.22-9.42 4.73-11.86a3.002 3.002 0 0 1 3.64-1.21c2.07.81 5.39 1.96 9.16 2.7 3.62.71 7.03.92 9.29.97 1.55.03 2.81 1.24 2.92 2.78l.39 12.52 3.12-3.94s9.42-24.1-12.38-28.38z" fill="url(#k)"/><defs><path id="l" d="M77.17 22.31C55.1 17.99 54.61 43.57 54.61 43.57s1.68 5.24 1.7 5.15c.13-.75 1.02-3.35 1.02-3.35-1.03-2.21-.52-4.48-.52-4.48l1.54-5.05 2.85-4.19 15-5 11.99 11.04.77 4.2-.55 6.08s-1.09 2.66-2.11 3.35l.13 3.33 3.22-4.14c0-.02 9.32-23.92-12.48-28.2z"/></defs><clipPath id="m"><use xlink:href="#l"/></clipPath><g clip-path="url(#m)"><path d="M72.39 23.82c1.38 0 2.85.15 4.4.46 5.25 1.03 8.92 3.39 10.92 7.01 3.21 5.83 1.52 13.62.53 17l-.19-6.24v-.08a4.957 4.957 0 0 0-4.87-4.64c-2.15-.05-5.46-.24-8.95-.93-3.6-.71-6.78-1.8-8.82-2.6-.59-.23-1.2-.35-1.83-.35-1.74 0-3.33.88-4.24 2.36-.7 1.14-1.63 2.97-2.5 5 .28-1.94.84-4.64 1.97-7.34 2.68-6.4 7.25-9.65 13.58-9.65m0-2c-17.37 0-17.83 21.74-17.83 21.74s1.7 5.16 1.74 5.16c.61-3.51 3.22-9.42 4.73-11.86a2.987 2.987 0 0 1 3.64-1.2c2.07.81 5.39 1.96 9.16 2.7 3.62.71 7.03.92 9.29.97 1.55.03 2.81 1.24 2.92 2.78l.39 12.52 3.12-3.94s9.42-24.11-12.38-28.38c-1.72-.33-3.31-.49-4.78-.49z" fill="#402821"/></g><path d="M73.63 58.85c-1.71.61-6.75-.37-8.1-1.59-.78-.7-1.84-.07-1.63.8.21.86 2.59 3.22 4.97 3.69 2.37.47 5.44-.83 5.96-1.55.51-.73-.22-1.71-1.2-1.35z" fill="#473530"/><path d="M72.44 53.82c-.05-.03-.1-.05-.15-.07l-3.41-.67c-.05 0-.11 0-.16.01-.33.06-.57.35-.49.72s.57 1.46 1.94 1.73 2.23-.56 2.45-.87c.21-.32.11-.67-.18-.85z" fill="#875334"/></g></g><g clip-path="url(#b)"><radialGradient id="n" cx="76.875" cy="27.25" r="23.435" gradientUnits="userSpaceOnUse"><stop stop-color="#00BFA5" offset="0"/><stop stop-color="#00AB94" offset="1"/></radialGradient><path d="M77.88 21.84c-14.99-3.54-22.94 8.91-23.24 20.88-.04 1.5-1.13.03-1.51 3.11-.72 5.89 2.78 7.57 2.78 7.57s-.98-19.23 17.86-14.62c19.09 4.67 10.68 20.59 10.68 20.59s3.53-.66 5.55-4.53c1.81-3.47-.58-2.17.34-4.88 3.2-9.43 2.92-24.49-12.46-28.12z" fill="url(#n)"/><path d="M56.27 48.89s-.35-1.73-.87-3.1c-.53-1.4-1.42-2.05-1.42-2.05s.18-.02.42-.24.22-.33.22-.33.72.22 1.53 1.76c.71 1.34.12 3.96.12 3.96zM85.87 55.55s1.46-2.03 2.63-2.92c1.19-.91 1.82-.79 1.82-.79s-.18-.37-.2-.59.02-.52.02-.52-.63.06-1.85.79c-1.96 1.2-2.42 4.03-2.42 4.03z" fill="#009984"/><path d="M77.88 21.84c-14.99-3.54-22.94 8.91-23.24 20.88-.04 1.5-1.13.03-1.51 3.11-.72 5.89 2.78 7.57 2.78 7.57s-.98-19.23 17.86-14.62c19.09 4.67 10.68 20.59 10.68 20.59s3.53-.66 5.55-4.53c1.81-3.47-.58-2.17.34-4.88 3.2-9.43 2.92-24.49-12.46-28.12z" fill="none" stroke="#009984" stroke-linecap="round" stroke-linejoin="round" stroke-miterlimit="10"/></g><path d="M96.01 99.36c-6.06 0-9.43-7.19-16-7.19s-9.93 7.19-16 7.19-9.43-7.19-16-7.19-9.93 7.19-16 7.19-9.43-7.19-16-7.19-9.93 7.19-16 7.19L0 128h127.93V99.36c-6.01-.06-9.38-7.18-15.92-7.18-6.57 0-9.94 7.18-16 7.18z" clip-path="url(#b)" fill="#039BE5"/><path d="M128 104.7c-6 0-9.44 7.19-16.01 7.19s-9.94-7.19-16-7.19-9.43 7.19-16 7.19-9.94-7.19-16-7.19-9.43 7.19-16 7.19-9.94-7.19-16-7.19-9.43 7.19-16 7.19-9.93-7.19-16-7.19V129h128v-24.3z" clip-path="url(#b)" fill="#29B6F6"/><g clip-path="url(#b)"><path d="M95.99 105.7c2.64 0 4.79 1.6 7.07 3.29 2.58 1.92 5.25 3.9 8.93 3.9 3.69 0 6.38-1.99 8.98-3.91 1.98-1.46 3.87-2.86 6.03-3.2V128H1v-22.22c2.2.34 4.08 1.74 6.07 3.21 2.58 1.92 5.25 3.9 8.93 3.9s6.35-1.98 8.93-3.9c2.28-1.69 4.43-3.29 7.07-3.29s4.79 1.6 7.07 3.29c2.58 1.92 5.25 3.9 8.93 3.9s6.35-1.98 8.93-3.9c2.28-1.69 4.43-3.29 7.07-3.29s4.79 1.6 7.07 3.29c2.58 1.92 5.25 3.9 8.93 3.9s6.35-1.98 8.93-3.9c2.26-1.69 4.42-3.29 7.06-3.29m32.01-1c-6 0-9.44 7.19-16.01 7.19s-9.94-7.19-16-7.19-9.43 7.19-16 7.19-9.94-7.19-16-7.19-9.43 7.19-16 7.19-9.94-7.19-16-7.19-9.43 7.19-16 7.19-9.93-7.19-16-7.19V129h128v-24.3h.01z" fill="#17A3E3"/></g><g clip-path="url(#b)"><path d="M112 93.18c3.02 0 5.31 1.7 7.74 3.5 2.17 1.61 4.4 3.26 7.19 3.61V127H1l.03-26.69c2.82-.33 5.07-2 7.26-3.63 2.43-1.8 4.72-3.5 7.74-3.5s5.31 1.7 7.74 3.5c2.44 1.81 4.96 3.68 8.26 3.68s5.82-1.87 8.26-3.68c2.43-1.8 4.72-3.5 7.74-3.5s5.31 1.7 7.74 3.5c2.44 1.81 4.96 3.68 8.26 3.68s5.82-1.87 8.26-3.68c2.43-1.8 4.72-3.5 7.74-3.5s5.31 1.7 7.74 3.5c2.44 1.81 4.96 3.68 8.26 3.68s5.82-1.87 8.26-3.68c2.4-1.8 4.7-3.5 7.71-3.5m0-1c-6.57 0-9.93 7.19-16 7.19-6.06 0-9.43-7.19-16-7.19s-9.93 7.19-16 7.19-9.43-7.19-16-7.19-9.93 7.19-16 7.19-9.43-7.19-16-7.19-9.93 7.19-16 7.19V128h127.93V99.36c-6.02-.06-9.39-7.18-15.93-7.18z" fill="#008DD1"/></g><linearGradient id="o" x1="99.419" x2="106.63" y1="97.304" y2="79.553" gradientUnits="userSpaceOnUse"><stop stop-color="#8D5738" offset=".002"/><stop stop-color="#98603D" offset=".221"/><stop stop-color="#A26942" offset=".569"/><stop stop-color="#A56C43" offset="1"/></linearGradient><path d="M100.92 84.25c-1.55 1.29-9.24 13.28-9.24 13.28l6.31 4.93s11.01-11.01 11.1-11.13c2.26-2.8 2.16-5.71.73-7.5" clip-path="url(#b)" fill="url(#o)" stroke="#875334" stroke-linecap="round" stroke-linejoin="round" stroke-miterlimit="10"/><g clip-path="url(#b)"><linearGradient id="p" x1="74.681" x2="74.391" y1="-60.374" y2="-50.161" gradientTransform="matrix(.7263 .5061 -.5717 .8204 6.787 109.76)" gradientUnits="userSpaceOnUse"><stop stop-color="#A56C43" offset="0"/><stop stop-color="#9A633E" offset=".22"/><stop stop-color="#905A39" offset=".567"/><stop stop-color="#8D5738" offset="1"/></linearGradient><path d="M95.21 106.08c-1.12 0-2.19-.34-3.1-.97L90 103.64c-2.47-1.72-3.07-5.12-1.36-7.59l.26-.37a5.464 5.464 0 0 1 4.49-2.33c1.12 0 2.19.34 3.1.97l2.11 1.47c1.19.83 1.99 2.08 2.24 3.51s-.06 2.88-.89 4.07l-.26.37a5.43 5.43 0 0 1-4.48 2.34z" fill="url(#p)"/><path d="M93.38 93.85c1.01 0 1.99.31 2.82.88l2.11 1.47a4.954 4.954 0 0 1 1.23 6.89l-.26.37a4.974 4.974 0 0 1-4.08 2.11c-1.01 0-1.99-.31-2.82-.88l-2.11-1.47a4.954 4.954 0 0 1-1.23-6.89l.26-.37a4.987 4.987 0 0 1 4.08-2.11m0-1c-1.88 0-3.74.89-4.9 2.54l-.26.37c-1.87 2.69-1.21 6.41 1.48 8.28l2.11 1.47c1.03.72 2.21 1.06 3.39 1.06 1.88 0 3.74-.89 4.9-2.54l.26-.37c1.87-2.69 1.21-6.41-1.48-8.28l-2.11-1.47a5.955 5.955 0 0 0-3.39-1.06z" fill="#875334"/></g><path fill="none" stroke="#875334" stroke-linecap="round" stroke-linejoin="round" stroke-miterlimit="10" d="M34.67 59.62l1.79-4.08"/></svg>