<svg viewBox="0 0 128 128" width="128" height="128" xmlns="http://www.w3.org/2000/svg" xmlns:xlink="http://www.w3.org/1999/xlink"><path d="M-47.9 45.09h-62.87c-15.71 0-28.56-12.85-28.56-28.56V2.05c0-13.01 10.54-23.55 23.55-23.55h70.9c14.06 0 25.56 11.5 25.56 25.56v12.48c-.01 15.7-12.87 28.55-28.58 28.55z" fill="none"/><radialGradient id="a" cx="27" cy="63.039" r="99.608" gradientTransform="matrix(1 0 0 .9764 0 1.595)" gradientUnits="userSpaceOnUse"><stop stop-color="#757576" offset="0"/><stop stop-color="#434343" offset=".923"/></radialGradient><path d="M95.44 110.44H32.56C12.33 110.44 4 97.88 4 82.54V68.4c0-12.7 10.54-22.99 23.55-22.99h70.9c14.06 0 25.56 11.23 25.56 24.95v12.18c-.01 15.34-7.34 27.9-28.57 27.9z" fill="url(#a)"/><defs><path id="b" d="M95.44 110.44H32.56C12.33 110.44 4 97.88 4 82.54V68.4c0-12.7 10.54-22.99 23.55-22.99h70.9c14.06 0 25.56 11.23 25.56 24.95v12.18c-.01 15.34-7.34 27.9-28.57 27.9z"/></defs><clipPath id="c"><use xlink:href="#b"/></clipPath><g clip-path="url(#c)" opacity=".78"><linearGradient id="d" x1="-10.602" x2="139.6" y1="81.471" y2="81.471" gradientUnits="userSpaceOnUse"><stop stop-color="#E0E0E0" offset="0"/><stop stop-color="#B0AFAF" offset=".731"/><stop stop-color="#E0E0E0" offset="1"/></linearGradient><path d="M62.29 93.2c-43.51 0-65.37-5.97-66.28-6.29-5.59-1.99-8.13-7.27-5.68-11.79 2.44-4.51 8.92-6.58 14.5-4.62.47.16 19.44 4.81 57.47 4.81 39.32 0 62.3-4.95 62.53-5.01 5.73-1.67 12.07.74 14.13 5.4 2.06 4.65-.92 9.78-6.66 11.45-1.08.29-26.88 6.05-70.01 6.05z" fill="url(#d)"/></g><path d="M98.44 48.46c12.41 0 22.5 9.83 22.5 21.9v12.18c0 16.48-8.58 24.84-25.51 24.84H32.56c-22.2 0-25.51-15.56-25.51-24.84V68.4c0-11 9.2-19.94 20.5-19.94h70.89m0-3.05h-70.9C14.54 45.41 4 55.7 4 68.4v14.14c0 15.34 8.33 27.89 28.56 27.89h62.87c21.23 0 28.56-12.55 28.56-27.89V70.36c.01-13.72-11.49-24.95-25.55-24.95z" fill="#434343" opacity=".2"/><linearGradient id="e" x1="30.984" x2="72.785" y1="12.724" y2="51.31" gradientUnits="userSpaceOnUse"><stop stop-color="#EF5451" offset=".37"/><stop stop-color="#E53A35" offset=".874"/></linearGradient><path d="M64 39.41c-1.39 0-2.73.01-4.04.03-2.24-.01-4.05-1.88-4.05-4.17v-1.5c0-2.32 1.84-4.2 4.11-4.2h26.09c3.23 0 6.06-2.54 6.14-5.84.09-3.39-2.58-6.16-5.87-6.16H56.82c-10.04 0-18.82 6.91-21.39 16.83l-.46 1.79a9.25 9.25 0 0 1-6.32 6.57c-7.83 2.35-9.04 5.44-9.04 7.53 0 1.62 8.21 5.51 44.39 5.51s44.39-3.53 44.39-5.51c0-3.8-3.95-10.88-44.39-10.88z" fill="url(#e)"/><path d="M86.37 20.33c.82 0 1.59.33 2.18.93.62.64.95 1.48.92 2.39-.04 1.73-1.56 3.14-3.37 3.14H60.02c-3.79 0-6.88 3.13-6.88 6.97v1.5c0 3.76 2.99 6.85 6.68 6.94h.17c1.29-.02 2.62-.03 4-.03 34.19 0 40.37 5.04 41.41 7.28-2.11.98-10.61 3.57-41.41 3.57-29.86 0-38.97-2.68-41.37-3.72.97-1.88 4.55-3.22 6.82-3.9 4.01-1.2 7.15-4.47 8.2-8.53l.46-1.79c2.25-8.69 9.94-14.76 18.71-14.76h29.56m0-2.76H56.82c-10.04 0-18.82 6.91-21.39 16.83l-.46 1.79a9.25 9.25 0 0 1-6.32 6.57c-7.83 2.35-9.04 5.44-9.04 7.53 0 1.62 8.21 5.51 44.39 5.51s44.39-3.53 44.39-5.51c0-3.8-3.95-10.88-44.39-10.88-1.39 0-2.73.01-4.04.03-2.24-.01-4.05-1.88-4.05-4.17v-1.5c0-2.32 1.84-4.2 4.11-4.2H86.1c3.23 0 6.06-2.54 6.14-5.84.09-3.38-2.57-6.16-5.87-6.16z" fill="#434343" opacity=".2"/></svg>