<svg viewBox="0 0 128 128" width="128" height="128" xmlns="http://www.w3.org/2000/svg" xmlns:xlink="http://www.w3.org/1999/xlink"><defs><path id="a" d="M4 3.25h119.75V123.5H4z"/></defs><clipPath id="b"><use xlink:href="#a"/></clipPath><g clip-path="url(#b)"><linearGradient id="c" x1="65.894" x2="65.894" y1="73.674" y2="111.54" gradientUnits="userSpaceOnUse"><stop stop-color="#00BFA5" offset=".364"/><stop stop-color="#00B29A" offset=".812"/><stop stop-color="#00AB94" offset="1"/></linearGradient><path d="M41.92 124.78l.13-24.78-1.27.34c-.04.01-4.07 1.1-8.67 2.21-.53.13-1.08.19-1.63.19-4.16 0-8.1-3.36-9.16-7.83-2-8.37-2.99-18.16-3-18.25 0-1.05.18-1.27.19-1.28.05-.03.26-.08.42-.11.19-.04.38-.08.59-.15l4.77-1.11c.21-.06.35-.11.5-.16.25-.09.51-.18.67-.18.21 0 .51.45.77 1.18l4.59 14.45 7.47-6.54c.45-.33.95-.74 1.47-1.17 3.71-3.02 8.32-6.79 23.81-6.79h.25c18.12 0 23.02 5.82 26.81 12.3 3.17 5.43 4.99 8.93 5.01 8.97l.78 1.51 6.94-10.48c.43-.23 2.24-.58 3.48-.58.29 0 .39.02.39.02l5.34 1.49c.34.08.81.54.88.77-.36.81-.87 2.01-1.47 3.43-2.18 5.12-5.82 13.68-7.61 16.43-1.77 2.73-4.77 3.14-6.4 3.14-2.4 0-4.82-.85-6.03-2.12-2.81-2.94-4.66-5.23-4.67-5.26l-1.78-2.21v22.56H41.92z" fill="url(#c)"/><path d="M25.13 74.8c.04.09.1.21.15.37l4.13 12.99.93 2.91 2.3-2.01 6.26-5.49c.51-.38.99-.78 1.5-1.19 3.58-2.92 8.05-6.56 23.18-6.56h.26c17.62 0 22.17 5.35 25.94 11.81 3.15 5.4 4.97 8.89 4.98 8.92l1.57 3.02 1.88-2.84 5.82-8.79c.6-.19 1.94-.41 2.83-.41h.19L112.3 89c-.33.76-.75 1.74-1.22 2.86-2.17 5.08-5.79 13.6-7.53 16.28-1.52 2.33-4.13 2.68-5.56 2.68-2.46 0-4.47-.94-5.3-1.81-2.78-2.91-4.6-5.17-4.62-5.19l-3.56-4.42v24.4H42.93l.12-22.46.01-2.63-2.54.69c-.04.01-4.06 1.1-8.64 2.2-.45.11-.92.16-1.4.16-3.65 0-7.24-3.1-8.19-7.06-1.87-7.84-2.86-16.96-2.97-18.02 0-.19.01-.34.02-.46.13-.03.25-.06.39-.1l4.78-1.11.06-.01.06-.02c.17-.07.34-.13.5-.18m.33-2.13c-.46 0-.93.23-1.39.37l-4.83 1.12c-1.1.33-1.9 0-1.9 2.59 0 0 .98 9.85 3.02 18.39 1.21 5.06 5.71 8.59 10.13 8.59a7.9 7.9 0 0 0 1.87-.22c4.66-1.12 8.69-2.21 8.69-2.21l-.13 24.47H86.5v-20.72s1.85 2.31 4.73 5.32c1.36 1.42 4.01 2.43 6.75 2.43s5.55-1 7.24-3.59c2.34-3.6 7.53-16.3 9.19-20.07.34-.76-.74-1.88-1.55-2.07l-5.38-1.5c-.14-.03-.36-.05-.62-.05-1.29 0-3.71.39-4.23.9l-6.09 9.19s-1.81-3.5-5.03-9.01c-4.24-7.25-9.67-12.8-27.67-12.8h-.26c-18 0-21.8 5.09-25.94 8.2l-6.32 5.54-4.14-13.03c-.54-1.45-1.12-1.84-1.72-1.84z" fill="#009984"/><path d="M63.04 80.12c-2.42 0-4.38-1.95-4.38-4.34v-5.41h9.75v5.41c0 2.39-1.97 4.34-4.38 4.34h-.99z" fill="#99674F"/><path d="M67.9 70.88v4.91c0 2.11-1.74 3.84-3.89 3.84h-.98c-2.14 0-3.89-1.72-3.89-3.84v-4.91h8.76m1-1H58.16v5.91c0 2.67 2.19 4.84 4.89 4.84h.98c2.7 0 4.89-2.17 4.89-4.84v-5.91h-.02z" fill="#875740"/><path d="M65.04 77.76c1.21-.83 2.35-1.43 3.5-2.17.93-.59 2.5-1.69 3.97-1.13 1.25.48.8 2.18.8 4.41 0 2.62.44 4.14-.55 4.58-1.33.59-3.09-.45-4.55-1.09-.83-.36-3.21-1.45-3.61-2.08-.41-.63-.39-2.11.44-2.52z" fill="#212121"/><ellipse transform="rotate(-11.678 68.189 78.145)" cx="68.2" cy="78.15" rx="3.07" ry=".34" fill="#616161"/><path d="M47.01 57.54c-3.38 0-6.14-2.95-6.14-6.57s2.75-6.57 6.14-6.57h33.85c3.38 0 6.14 2.95 6.14 6.57s-2.75 6.57-6.14 6.57H47.01z" fill="#99674F"/><path d="M80.87 44.9c3.11 0 5.64 2.72 5.64 6.07s-2.53 6.07-5.64 6.07H47.02c-3.11 0-5.64-2.72-5.64-6.07s2.53-6.07 5.64-6.07h33.85m0-1H47.02c-3.65 0-6.64 3.18-6.64 7.07s2.99 7.07 6.64 7.07h33.84c3.65 0 6.64-3.18 6.64-7.07s-2.98-7.07-6.63-7.07z" fill="#875740"/><linearGradient id="d" x1="63.94" x2="63.94" y1="71.371" y2="20.486" gradientUnits="userSpaceOnUse"><stop stop-color="#A47B62" offset="0"/><stop stop-color="#AD8264" offset=".191"/><stop stop-color="#B78A67" offset=".551"/><stop stop-color="#BA8D68" offset="1"/></linearGradient><path d="M63.94 71.79c-9.76 0-20.26-7.56-20.26-24.16 0-7.7 2.21-14.79 6.23-19.98 3.77-4.86 8.88-7.64 14.03-7.64s10.26 2.79 14.03 7.64c4.02 5.18 6.23 12.28 6.23 19.98 0 7.52-2.18 13.81-6.32 18.17-3.64 3.87-8.6 5.99-13.94 5.99z" fill="url(#d)"/><path d="M63.94 20.51c4.99 0 9.96 2.72 13.63 7.45 3.95 5.1 6.13 12.08 6.13 19.67 0 7.39-2.14 13.56-6.18 17.83-3.56 3.76-8.38 5.83-13.58 5.83s-10.03-2.07-13.58-5.83c-4.04-4.27-6.18-10.44-6.18-17.83 0-7.59 2.18-14.57 6.13-19.67 3.67-4.73 8.64-7.45 13.63-7.45m0-1c-10.78 0-20.76 11.53-20.76 28.12 0 16.5 10.29 24.66 20.76 24.66S84.7 64.14 84.7 47.63c0-16.59-9.98-28.12-20.76-28.12z" fill="#91674D"/><path d="M49.07 44.08s.08-.12.24-.31l.13-.16c.07-.07.14-.13.23-.21.08-.07.17-.15.27-.23.09-.08.19-.14.3-.21.1-.07.21-.15.33-.22.12-.06.25-.13.37-.2.13-.07.27-.13.41-.18.14-.06.29-.11.44-.16.3-.08.62-.18.95-.22.33-.06.67-.07 1.01-.09.34.02.68.02 1.01.09.33.04.65.14.95.22.15.05.3.11.44.16s.28.11.41.18.25.13.37.2.23.15.33.22.2.14.29.21c.09.08.17.15.24.22.08.07.15.13.21.19s.11.13.16.18c.19.22.29.36.29.36.31.44.22 1.04-.22 1.36-.27.19-.6.23-.88.13l-.18-.06s-.12-.04-.3-.12c-.05-.02-.1-.05-.15-.07-.06-.02-.12-.04-.18-.07-.13-.05-.27-.11-.43-.15-.08-.02-.16-.06-.24-.08a2.68 2.68 0 0 1-.27-.07c-.04-.01-.09-.03-.14-.04s-.1-.02-.14-.03l-.29-.06c-.2-.02-.41-.07-.62-.08-.21-.03-.43-.02-.64-.03-.21.01-.43.01-.64.03-.21.01-.42.05-.62.08a14.42 14.42 0 0 0-.43.09c-.05.01-.09.03-.14.04-.09.02-.18.05-.27.07s-.16.06-.24.08-.16.05-.23.07l-.18.06c-.06.02-.11.04-.17.05-.06.02-.13.06-.18.09-.22.11-.35.17-.35.17-.51.21-1.1-.03-1.31-.54a.939.939 0 0 1 .06-.96z" fill="#613E31"/><ellipse cx="53.76" cy="49.09" rx="3.05" ry="3.16" fill="#49362E"/><path d="M77.6 45.57s-.13-.06-.35-.17c-.05-.03-.12-.06-.18-.09-.06-.01-.11-.03-.17-.05l-.18-.06c-.07-.02-.15-.05-.23-.07s-.16-.06-.24-.08a2.68 2.68 0 0 1-.27-.07c-.04-.01-.09-.03-.14-.04s-.1-.02-.14-.03l-.29-.06c-.2-.02-.41-.07-.62-.08-.21-.03-.43-.02-.64-.03-.21.01-.43.01-.64.03-.21.01-.42.05-.62.08a14.42 14.42 0 0 0-.43.09c-.05.01-.09.03-.14.04-.09.02-.18.05-.27.07s-.16.06-.24.08c-.16.05-.31.1-.43.15-.07.02-.12.05-.18.07s-.11.05-.15.07c-.19.08-.3.12-.3.12l-.17.06a.97.97 0 0 1-1.24-.6.967.967 0 0 1 .13-.89s.1-.13.29-.36c.05-.05.1-.12.16-.18s.13-.12.21-.19.16-.14.24-.22c.09-.07.19-.14.29-.21s.21-.15.33-.22c.12-.06.25-.13.37-.2.13-.07.27-.13.41-.18.14-.06.29-.11.44-.16.3-.08.62-.18.95-.22.33-.06.67-.07 1.01-.09.34.02.68.02 1.01.09.33.04.65.14.95.22.15.05.3.11.44.16s.28.11.41.18.25.13.37.2.23.15.33.22c.1.08.2.14.3.21.09.08.18.16.27.23.08.07.16.14.23.21.06.06.09.11.13.16.15.19.24.31.24.31.31.46.19 1.08-.26 1.39-.33.21-.69.23-.99.11z" fill="#613E31"/><ellipse cx="74.12" cy="49.09" rx="3.05" ry="3.16" fill="#49362E"/><path d="M66.33 54.82a.734.734 0 0 0-.2-.05h-4.38c-.07.01-.13.02-.2.05-.4.16-.62.57-.43 1.01s1.06 1.67 2.82 1.67 2.63-1.23 2.82-1.67-.03-.85-.43-1.01z" fill="#99674F"/><path d="M69.16 59.82c-1.97 1.17-8.44 1.17-10.42 0-1.13-.67-2.29.36-1.82 1.39.46 1.01 3.99 3.36 7.04 3.36s6.54-2.35 7-3.36c.47-1.03-.67-2.06-1.8-1.39z" fill="#5D4037"/><defs><path id="e" d="M64.09 15.15h-.02c-28.09.15-22.33 32.23-22.33 32.23s3.15 5.56 3.15 5.44c-.02-.87.28-4.26.28-4.26l-1.65-1.81s2.4-15.72 4.2-15.4c2.75.5 16.4 1.24 16.42 1.24 4.84 0 9.22-.22 11.97-.72 1.79-.32 5.96 1.05 6.6 2.75.82 2.19 1.93 12.19 1.93 12.19l-1.65 1.75s.3 3.4.28 4.26c0 .11 3.15-5.44 3.15-5.44s5.76-32.08-22.33-32.23z"/></defs><radialGradient id="f" cx="64.007" cy="15.399" r="30.26" gradientUnits="userSpaceOnUse"><stop stop-color="#6D4C41" offset="0"/><stop stop-color="#543930" offset="1"/></radialGradient><path d="M63.86 15.25h-.02c-28.15.15-22.38 32.3-22.38 32.3s3.16 5.57 3.16 5.46c-.1-4.49 1.7-12.44 2.97-15.83.64-1.71 2.41-2.7 4.21-2.38 2.76.5 7.15 1.12 12 1.12h.1c4.85 0 9.24-.62 12-1.12 1.79-.33 3.57.67 4.21 2.38 1.27 3.39 3.07 11.34 2.97 15.83 0 .11 3.16-5.46 3.16-5.46S92 15.4 63.86 15.25z" fill="url(#f)"/><path d="M63.85 15.28h-.02C35.74 15.43 41.5 47.5 41.5 47.5s3.09 5.45 3.15 5.45c-.02-.91.04-1.98.16-3.11-.07-.18-1.52-2.93-1.53-2.96-.15-.99-.58-4.32-.34-8.38.25-4.35 1.34-10.48 5.08-14.97 3.5-4.2 8.82-6.35 15.8-6.39h.02c6.99.04 12.32 2.19 15.82 6.39 6.68 8.01 5.06 21.22 4.74 23.36-.01.02-1.52 2.83-1.54 2.87.12 1.17.19 2.26.17 3.19.06 0 3.15-5.45 3.15-5.45s5.76-32.07-22.33-32.22z" fill="#3F2720"/><path d="M91.28 37.26c0 3.94-12.22 7.13-27.29 7.13S36.7 41.2 36.7 37.26c0-.16.04-2.39.04-2.39s12.78-4.74 27.25-4.74c14.38 0 27.3 4.55 27.3 4.55l-.01 2.58z" fill="#444"/><ellipse cx="63.99" cy="34.88" rx="27.29" ry="7.13" fill="#616161"/><radialGradient id="g" cx="64.262" cy="14.455" r="21.824" gradientUnits="userSpaceOnUse"><stop stop-color="#757575" offset=".132"/><stop stop-color="#686868" offset=".428"/><stop stop-color="#464646" offset=".975"/><stop stop-color="#444" offset="1"/></radialGradient><path d="M64.47 13.01s-.33-.01-.48-.01c-.14 0-.48.01-.48.01-17.7.33-23.49 13.23-23.89 20.91 0 3.01 12.18 5.85 24.37 5.85 12.18 0 24.37-2.84 24.37-5.85-.4-7.68-6.19-20.58-23.89-20.91z" fill="url(#g)"/><ellipse cx="64.12" cy="34.88" rx="27.29" ry="7.13" fill="#7C7C7C"/><path d="M64.47 13.01s-.33-.01-.48-.01c-.14 0-.48.01-.48.01-17.7.33-23.49 13.23-23.89 20.91 0 3.01 12.18 5.85 24.37 5.85 12.18 0 24.37-2.84 24.37-5.85-.4-7.68-6.19-20.58-23.89-20.91z" fill="url(#g)"/><path d="M64.02 13v2c.13 0 .38.01.41.01 6.65.12 12.01 2.12 15.92 5.92 4 3.89 5.33 8.53 5.76 10.95.11.63.52 1.17 1.09 1.45 1.87.91 2.08 1.57 2.08 1.57 0 .04.01.08.02.12 0 .67-.01 2.11-.01 2.24-.3 1.42-8.53 5.14-25.29 5.14s-24.99-3.73-25.29-5.12c0-.15.02-1.36.03-1.98 0-.14-.01-.25-.04-.38.03-.16.49-.79 2.09-1.57.57-.28.98-.82 1.09-1.45.43-2.42 1.75-7.06 5.76-10.95 3.91-3.8 9.27-5.8 15.94-5.92 0 0 .25-.01.43-.01l.01-2.02m0 0h-.06c-.15 0-.45.01-.45.01-15.96.3-22.24 10.82-23.61 18.52-2.05 1-3.21 2.14-3.21 3.35 0 .12.01.24.03.36-.01.64-.03 1.9-.03 2.02 0 3.94 12.22 7.13 27.29 7.13s27.29-3.19 27.29-7.13l.01-2.58s-.01 0-.03-.01c-.13-1.13-1.26-2.2-3.19-3.14-1.37-7.7-7.64-18.22-23.61-18.52.02 0-.28-.01-.43-.01z" fill="#2D2F30"/><ellipse transform="rotate(-81.807 68.197 80.208)" cx="68.2" cy="80.21" rx=".34" ry="3.06" fill="#616161"/><path d="M62.12 77.76c-1.21-.83-2.35-1.43-3.5-2.17-.93-.59-2.5-1.69-3.97-1.13-1.25.48-.8 2.18-.8 4.41 0 2.62-.44 4.14.55 4.58 1.33.59 3.09-.45 4.55-1.09.83-.36 3.22-1.45 3.62-2.08s.38-2.11-.45-2.52z" fill="#212121"/><ellipse transform="rotate(-78.323 58.966 78.153)" cx="58.96" cy="78.15" rx=".34" ry="3.07" fill="#616161"/><ellipse transform="rotate(-8.19 58.96 80.2)" cx="58.96" cy="80.21" rx="3.06" ry=".34" fill="#616161"/><path d="M66.24 79.34c0 1.52-1.19 2.39-2.66 2.39s-2.66-.87-2.66-2.39.67-2.74 2.66-2.74c1.92 0 2.66 1.23 2.66 2.74z" fill="#212121"/><linearGradient id="h" x1="19.177" x2="19.177" y1="59.619" y2="74.56" gradientUnits="userSpaceOnUse"><stop stop-color="#F5F5F5" offset="0"/><stop stop-color="#E0E0E0" offset=".997"/></linearGradient><path d="M21.52 76.4c-3.09 0-6.14-1.3-8.36-3.57-1.84-1.88-2.88-4.44-3.08-7.61-.06-1-.13-4.37 1.6-5.47.36-.23.74-.34 1.13-.34.49 0 .9.18 1.24.41.46-.97 1.27-1.92 2.53-1.92.09 0 .19 0 .29.02.63.07 1.1.29 1.42.51.34-.25.82-.48 1.41-.48h.13c1.01.06 1.53.53 1.79.92.26.38.35.82.36 1.22.26-.14.59-.25.98-.25.33 0 .66.08.99.24 1.54.75 1.28 2.13 1.1 3.04-.04.23-.09.47-.11.7-.15 1.64.61 2.95.78 3.21.17.17.34.33.5.48 1.41 1.36 2.62 2.53 1.79 5.36-.61 2.11-3.23 3.53-6.49 3.53z" fill="url(#h)"/><path d="M16.59 58.65c.07 0 .13 0 .2.01 1.12.13 1.5.81 1.5.81s.55-.76 1.42-.76h.09c2.08.13 1.3 2.37 1.3 2.37s.27.12.55.12c.08 0 .16-.01.23-.04 0 0 .39-.58 1.09-.58.2 0 .42.05.67.16 1.32.64.67 1.84.57 3-.19 2.14.94 3.75.94 3.75 1.63 1.64 2.95 2.44 2.15 5.15-.53 1.78-2.92 3-5.79 3-2.55 0-5.49-.96-7.82-3.35-1.87-1.91-2.7-4.47-2.86-7.13-.1-1.65.09-4.05 1.25-4.79.25-.16.5-.23.73-.23.91 0 1.56 1.05 1.56 1.05s.52-2.54 2.22-2.54m0-1.5c-1.31 0-2.23.76-2.83 1.68-.29-.1-.6-.17-.94-.17-.53 0-1.05.15-1.53.46-2.03 1.28-2.04 4.73-1.95 6.15.21 3.35 1.32 6.07 3.29 8.09 2.36 2.41 5.61 3.8 8.9 3.8 3.6 0 6.51-1.64 7.23-4.07.96-3.26-.6-4.78-1.98-6.11-.14-.13-.28-.27-.43-.42-.18-.3-.74-1.37-.62-2.67.02-.18.06-.4.1-.63.18-.93.55-2.86-1.51-3.86a2.97 2.97 0 0 0-1.32-.31c-.14 0-.27.01-.4.03a3.33 3.33 0 0 0-.32-.66c-.35-.52-1.05-1.17-2.37-1.25-.06 0-.12-.01-.18-.01-.55 0-1.03.15-1.42.35-.36-.18-.8-.32-1.33-.39-.15 0-.27-.01-.39-.01z" fill="#9E9E9E"/><path d="M21.82 67.63c-1.32-1.89-.96-4.82-.07-7.2M18.22 68.09c-1.49-3.01-1.54-6.62.04-9.26M14.97 68.5c-1.72-2.5-1.63-6.35-.38-9.02" fill="none" stroke="#9E9E9E" stroke-linecap="round" stroke-linejoin="round" stroke-miterlimit="10"/><linearGradient id="i" x1="70.843" x2="70.843" y1="73.086" y2="88.026" gradientTransform="matrix(-1 0 0 1 182.56 0)" gradientUnits="userSpaceOnUse"><stop stop-color="#F5F5F5" offset="0"/><stop stop-color="#E0E0E0" offset=".997"/></linearGradient><path d="M109.37 89.87c-3.27 0-5.88-1.42-6.51-3.54-.83-2.83.38-4 1.79-5.36.16-.16.33-.32.5-.49.16-.25.92-1.57.78-3.2-.02-.23-.07-.47-.11-.7-.17-.92-.44-2.3 1.1-3.04.33-.16.66-.24.99-.24.39 0 .72.11.98.25.01-.4.1-.83.36-1.22.26-.38.77-.85 1.79-.92h.13c.59 0 1.07.23 1.41.48.33-.23.79-.44 1.42-.51.1-.01.2-.02.29-.02 1.26 0 2.07.95 2.53 1.92.34-.23.76-.41 1.24-.41.39 0 .77.12 1.13.34 1.73 1.1 1.67 4.46 1.6 5.47-.2 3.17-1.23 5.73-3.08 7.61-2.2 2.28-5.25 3.58-8.34 3.58z" fill="url(#i)"/><path d="M114.3 72.11c1.69 0 2.21 2.56 2.21 2.56s.65-1.05 1.56-1.05c.23 0 .47.06.73.23 1.16.74 1.36 3.14 1.25 4.79-.17 2.66-.99 5.22-2.86 7.13-2.34 2.39-5.27 3.35-7.82 3.35-2.87 0-5.26-1.22-5.79-3-.8-2.71.52-3.52 2.15-5.15 0 0 1.13-1.61.94-3.75-.1-1.16-.75-2.37.57-3 .25-.12.47-.16.67-.16.7 0 1.09.58 1.09.58.07.03.15.04.23.04.28 0 .55-.12.55-.12s-.78-2.24 1.3-2.37h.09c.87 0 1.42.76 1.42.76s.38-.68 1.5-.81c.08-.02.15-.03.21-.03m0-1.5c-.12 0-.25.01-.38.02-.54.06-.98.21-1.33.39-.39-.2-.86-.35-1.42-.35-.06 0-.12 0-.18.01-1.32.08-2.02.72-2.37 1.25-.14.21-.25.44-.32.66-.13-.02-.26-.03-.4-.03-.44 0-.89.11-1.32.31-2.06 1-1.69 2.93-1.51 3.86.04.23.08.44.1.63.12 1.29-.45 2.37-.62 2.67-.15.14-.29.28-.43.42-1.38 1.33-2.95 2.84-1.98 6.11.72 2.44 3.62 4.07 7.23 4.07 3.29 0 6.53-1.38 8.9-3.8 1.97-2.01 3.08-4.73 3.29-8.09.09-1.42.08-4.86-1.95-6.15-.48-.3-1-.46-1.53-.46-.34 0-.66.06-.94.17-.61-.92-1.53-1.69-2.84-1.69z" fill="#9E9E9E"/><path d="M109.07 81.1c1.32-1.89.96-4.82.07-7.2M112.67 81.55c1.49-3.01 1.54-6.62-.04-9.26M115.92 81.97c1.72-2.5 1.63-6.35.38-9.02" fill="none" stroke="#9E9E9E" stroke-linecap="round" stroke-linejoin="round" stroke-miterlimit="10"/><radialGradient id="j" cx="23.095" cy="43.392" r="8.118" gradientUnits="userSpaceOnUse"><stop stop-color="#FF3D00" offset=".008"/><stop stop-color="#DD2C00" offset=".999"/></radialGradient><circle cx="24.61" cy="45.74" r="8.12" fill="url(#j)"/><circle cx="22.19" cy="43.16" r="2.43" fill="#fff"/><path d="M24.61 38.62c3.92 0 7.12 3.19 7.12 7.12s-3.19 7.12-7.12 7.12-7.12-3.19-7.12-7.12 3.2-7.12 7.12-7.12m0-1a8.12 8.12 0 0 0-8.12 8.12c0 4.48 3.63 8.12 8.12 8.12s8.12-3.63 8.12-8.12-3.63-8.12-8.12-8.12z" fill="#BF360C"/><radialGradient id="k" cx="103.84" cy="52.966" r="8.118" gradientUnits="userSpaceOnUse"><stop stop-color="#00B0FF" offset=".009"/><stop stop-color="#0091EA" offset=".999"/></radialGradient><circle cx="105.77" cy="55.59" r="8.12" fill="url(#k)"/><circle cx="103.35" cy="53.01" r="2.43" fill="#fff"/><path d="M105.77 48.47c3.92 0 7.12 3.19 7.12 7.12 0 3.92-3.19 7.12-7.12 7.12s-7.12-3.19-7.12-7.12 3.2-7.12 7.12-7.12m0-1a8.12 8.12 0 0 0-8.12 8.12c0 4.48 3.63 8.12 8.12 8.12s8.12-3.63 8.12-8.12-3.63-8.12-8.12-8.12z" fill="#0277BD"/><radialGradient id="l" cx="76.911" cy="9.362" r="8.118" gradientUnits="userSpaceOnUse"><stop stop-color="#00E676" offset=".014"/><stop stop-color="#00C853" offset="1"/></radialGradient><circle cx="78.7" cy="12.12" r="8.12" fill="url(#l)"/><circle cx="76.28" cy="9.55" r="2.43" fill="#fff"/><path d="M78.7 5c3.92 0 7.12 3.19 7.12 7.12s-3.19 7.12-7.12 7.12-7.12-3.19-7.12-7.12S74.78 5 78.7 5m0-1a8.12 8.12 0 0 0-8.12 8.12c0 4.48 3.63 8.12 8.12 8.12s8.12-3.63 8.12-8.12A8.12 8.12 0 0 0 78.7 4z" fill="#43A047"/><path fill="#7C7C7C" d="M81.19 111.68V76.21l-5.87-1.35v36.82H52.1V74.86l-5.87 1.35v35.47h-5.16v18.24h45.27v-18.24z"/><path d="M77.32 77.37l1.87.43v35.88h5.37v14.24H42.88v-14.24h5.35V77.8l1.87-.43v36.31h27.22V77.37m-2-2.51v36.82H52.1V74.86l-5.87 1.35v35.47h-5.35v18.24h45.69v-18.24H81.2V76.21l-5.88-1.35z" fill="#616161"/></g></svg>