<svg viewBox="0 0 128 128" width="128" height="128" xmlns="http://www.w3.org/2000/svg"><path d="M98.48 121.19c-.34 0-.67-.02-.94-.07-.09-.01-5.58-.56-10.11-1.55-1.24-.27-1.99-.71-2.16-1.27-.24-.78.62-1.72.62-1.73.13-.14.17-.35.1-.53-.01-.02-.82-2.13.12-3.66l2.55-3.19c.37-.45.77-.67 1.19-.67.49 0 1.06.29 1.69.85.4.36.88.83 1.4 1.36 1 1.01 2.14 2.15 3.38 3.11 2.04 1.57 5.99 3.15 6.16 3.21.73.29 1.18.65 1.27 1 .08.34-.18.65-.18.65-.03.04-.06.08-.08.13-.82 1.86-3.54 2.36-5.01 2.36z" fill="#4568AC"/><path d="M89.85 109.01c.36 0 .83.25 1.36.73.39.35.85.81 1.38 1.34.96.97 2.16 2.18 3.43 3.15 2.1 1.61 6.11 3.21 6.28 3.28.7.28.94.55.97.66.02.06-.04.17-.06.2-.07.08-.13.17-.17.27-.62 1.41-2.79 2.06-4.55 2.06a5.3 5.3 0 0 1-.85-.06c-.02 0-.05-.01-.07-.01-.05-.01-5.52-.56-10.02-1.54-1.49-.33-1.75-.79-1.79-.93-.12-.38.3-1.02.51-1.24a.99.99 0 0 0 .2-1.05c-.01-.02-.7-1.86.05-3.17l2.53-3.17c.4-.52.7-.52.8-.52m0-1c-.6 0-1.13.31-1.58.86l-2.58 3.24c-1.08 1.78-.16 4.11-.16 4.11s-2.7 2.86 1.8 3.84c4.61 1.01 10.13 1.56 10.13 1.56.29.05.64.08 1.02.08 1.9 0 4.6-.69 5.46-2.66 0 0 1.29-1.43-1.28-2.45 0 0-4.03-1.6-6.04-3.14-1.88-1.44-3.58-3.4-4.75-4.44-.76-.69-1.43-1-2.02-1z" fill="#305499"/><path d="M66.18 121.49c-1.22 0-2.26-.1-3.1-.28-3.79-.85-6.25-3.1-5.89-11.31.24-5.63.89-16.88 1.03-19.31 5.64-.14 15.03-2.7 17.85-3.5-1.67 7.65-6.41 22.29-6.46 22.45-.05.14-.03.3.05.42.08.13.21.21.36.23l15.05 1.82c.83.7 1.51 3.71 1.04 5.72-.13.56-.4 1.24-.95 1.3-2.23.26-4.71.67-7.1 1.06-4.19.69-8.53 1.4-11.88 1.4z" fill="#616161"/><path d="M75.39 87.8c-1.8 7.8-6.22 21.44-6.27 21.58-.09.28-.05.59.11.85.16.25.43.42.72.45l14.89 1.8c.61.69 1.2 3.29.77 5.13-.12.53-.33.9-.52.92-2.24.26-4.72.67-7.11 1.06-4.18.68-8.5 1.39-11.81 1.39-1.18 0-2.19-.09-2.99-.27-2.86-.64-5.88-2.06-5.5-10.8.23-5.33.82-15.71 1-18.85 5.26-.23 13.29-2.31 16.71-3.26m1.33-1.42zm0 0S64.18 90.1 57.74 90.1c0 0-.78 13.4-1.05 19.78-.36 8.44 2.25 10.91 6.28 11.81.92.21 2.01.3 3.21.3 5.32 0 12.92-1.74 19.04-2.46 2.35-.28 1.72-6.91.04-8l-15.18-1.84c-.01 0 5.13-15.82 6.64-23.31z" fill="#4F4F4F"/><path d="M28.83 123.5c-.16 0-.31-.06-.42-.17s-.17-.26-.17-.42v-1.38c.01-1.59.97-2.99 2.45-3.58l6.75-2.24 7.3-.01c.45.55 1.84 2.38 1.84 3.94l.01 3.06a.75.75 0 0 1-.75.75l-17.01.05z" fill="#4568AC"/><path d="M44.5 116.19c.61.77 1.58 2.26 1.58 3.44l.01 3.06c0 .09-.04.14-.07.18s-.09.07-.18.07l-17.01.06c-.03 0-.05-.01-.06-.03a.09.09 0 0 1-.03-.07v-1.38c.01-1.38.83-2.59 2.11-3.1l6.67-2.22 6.98-.01m.47-1l-7.62.01-6.85 2.28a4.365 4.365 0 0 0-2.76 4.04v1.38c0 .6.49 1.09 1.09 1.09l17.02-.05c.69 0 1.25-.56 1.25-1.26l-.01-3.06c-.01-2.07-2.12-4.43-2.12-4.43z" fill="#305499"/><path d="M76.94 77.63L58.9 78.86s-10.26 1.42-16.62 1.97-7.73 6.33-7.38 14.61c.25 6.01 1.93 19.77 1.93 19.77s1.67.99 4.69.99 4.49-1.01 4.49-1.01l2.62-21.13s5.17-.31 9.22-.15c8.59.35 21.1-.05 19.09-16.28z" fill="#7C7C7C"/><path d="M41.51 116.7c-3.12 0-4.87-1.02-4.94-1.06a.522.522 0 0 1-.24-.37c-.02-.14-1.68-13.85-1.93-19.81-.3-7.12.4-14.49 7.84-15.13 6.28-.54 16.49-1.95 16.59-1.96l18.07-1.23c.29-.03.5.17.53.44.69 5.55-.27 9.79-2.84 12.58-3.84 4.18-10.33 4.52-16.78 4.26-3.33-.13-7.45.06-8.76.12l-2.57 20.71c-.02.14-.1.27-.21.35-.05.05-1.62 1.1-4.76 1.1zm-4.22-1.82c.52.24 1.99.82 4.22.82 2.22 0 3.56-.58 4.02-.82L48.12 94c.03-.24.23-.42.47-.44.05 0 5.24-.31 9.27-.15 6.21.25 12.43-.06 16-3.94 2.29-2.49 3.18-6.3 2.64-11.31l-17.56 1.19c-.07.01-10.31 1.42-16.61 1.96-5.25.45-7.32 4.67-6.92 14.09.22 5.48 1.65 17.55 1.88 19.48z" fill="#5B5B5B"/><radialGradient id="a" cx="79.043" cy="31.072" r="11.73" gradientUnits="userSpaceOnUse"><stop stop-color="#6D4C41" offset="0"/><stop stop-color="#543930" offset="1"/></radialGradient><path d="M70.68 18.22s6.17-3.58 11.54.43c7.47 5.58.38 15.13 1.56 20.98.66 3.28 3.64 5.17 3.64 5.17s-5.4 2.85-9.61-3.93c-3.08-4.97-.55-11.86-2.28-16.93-1.04-3.05-4.83-3.81-4.83-3.81l-.02-1.91z" fill="url(#a)"/><path d="M70.68 18.22s6.17-3.58 11.54.43c7.47 5.58.38 15.13 1.56 20.98.66 3.28 3.64 5.17 3.64 5.17s-5.4 2.85-9.61-3.93c-3.08-4.97-.55-11.86-2.28-16.93-1.04-3.05-4.83-3.81-4.83-3.81l-.02-1.91z" fill="none" stroke="#3F2720" stroke-linejoin="round" stroke-miterlimit="10"/><linearGradient id="b" x1="155.62" x2="171" y1="-109.66" y2="-78.569" gradientTransform="rotate(-6.465 1180.293 894.516)" gradientUnits="userSpaceOnUse"><stop stop-color="#BA8D68" offset=".556"/><stop stop-color="#A47B62" offset="1"/></linearGradient><path d="M56.48 44.96c.14-2.01.19-5.96-1.54-6.48-.24-.07-.57-.08-1.12-.09-.66-.01-1.66-.03-3.01-.18-4.53-.51-4.58-2.88-4.62-4.79-.02-.77-.03-1.44-.39-1.87-.11-.13-.27-.21-.59-.38-.48-.25-1.77-.92-1.64-1.44.15-.58.81-1.2 1.44-1.8.86-.81 1.75-1.65 1.64-2.67 0-.27-.13-.93-.28-1.61l-.04-.17c-.26-1.37-.21-3.24.15-5 1.13-5.57 4.6-8.97 9.78-9.59.36-.04.72-.06 1.09-.06 4.61 0 9.89 3.24 12.28 7.53 1.47 2.64.4 11.3-1.94 15.71-1.46 2.74-1.12 8.33-.99 9.92l-10.22 2.97z" fill="url(#b)"/><path d="M57.37 9.34c4.37 0 9.57 3.2 11.85 7.28 1.39 2.48.29 11.02-1.95 15.23-1.41 2.65-1.22 7.77-1.08 9.78l-9.17 2.65c.24-4.85-1.08-6.02-1.94-6.28-.31-.09-.66-.1-1.25-.11-.65-.01-1.63-.03-2.96-.18-4.1-.46-4.14-2.42-4.18-4.3-.02-.86-.04-1.61-.51-2.18-.17-.21-.37-.31-.74-.51-.79-.41-1.25-.72-1.37-.93.15-.44.75-1 1.28-1.5.9-.84 1.91-1.8 1.8-3.04-.01-.35-.13-.94-.29-1.71l-.03-.15c-.25-1.31-.2-3.1.15-4.81.63-3.09 2.67-8.4 9.35-9.19.34-.03.69-.05 1.04-.05m0-1c-.39 0-.77.02-1.15.07-5.84.69-9.15 4.73-10.22 9.98-.39 1.9-.41 3.82-.15 5.19.03.16.3 1.36.3 1.73.15 1.44-2.67 2.73-3.07 4.29-.3 1.17 2.14 2.04 2.33 2.26.92 1.11-1.43 6.07 5.34 6.83 2.36.27 3.62.12 4.04.25 1.73.51 1.12 6.68 1.12 6.68l11.34-3.28s-.73-7 .9-10.05c2.29-4.3 3.59-13.24 1.94-16.19-2.38-4.22-7.78-7.76-12.72-7.76z" fill="#91674D"/><path d="M48.82 31.61l-2.63.3s.22 1.21.35 1.7c.7 2.69 2.37 5.58 7.06 5.49.42-.01-1.99-6.05-1.99-6.05l-2.79-1.44z" fill="none"/><path d="M45.8 34.73c.94.1 2.02-.07 2.84-.62.9-.61.33-1.35-.68-.97-.61.23-1.47.32-2.24.14l.08 1.45z" fill="#5D4037"/><ellipse transform="rotate(-89.209 50.332 26.305)" cx="50.33" cy="26.3" rx="1.91" ry="1.25" fill="#49362E"/><path d="M49.49 23.44c-1.24.23-1.45-.59-.98-1.19.34-.44 1.12-.77 2.5-.35 1.3.39 1.78 1.21 2.09 1.72s.22.96-.09.97c-.42 0-1.98-1.44-3.52-1.15z" fill="#613E31"/><radialGradient id="c" cx="78.062" cy="-159.8" r="13.252" gradientTransform="matrix(1.0385 .0161 -.00956 1.0002 -27.026 171.9)" gradientUnits="userSpaceOnUse"><stop stop-color="#6D4C41" offset="0"/><stop stop-color="#543930" offset="1"/></radialGradient><path d="M60.34 25.93c.19-.53.54-1.47.8-1.92.85-1.48 2.06-.88 2.06-.88 1.65.68 2.08 4.16-.78 6.05-.07.05-.23.15-.17.51.13.88.7 3.05 3.21 3.78.33.1.63.16.9.19.86.11 1.63-.51 1.8-1.36 1.05-5.19 3.25-3.55 4.58-10.15 1.67-8.34-5.44-14-12.54-14.7-6.4-.63-15.14 1.78-15.26 10.04-.02 1.51.85 2.41.85 2.41s1.75-3.68 5.81-2.38c4.09 1.31 5.97.49 5.97.49-1.57 3.24-.07 5.04.97 6.14.59.62 1.13 1.35 1.44 1.78.13.23.28.23.36 0z" fill="url(#c)"/><path d="M71.23 12.86c-2.43-3.28-6.54-5.5-10.99-5.93-3.88-.39-9.24.3-12.68 3.37-2.07 1.84-3.36 4.35-3.18 7.2.11 1.72 1.3 2.56 1.3 2.56l.27-.47s-.45-.6-.49-2.07c-.08-2.63.99-4.77 2.82-6.41 3.18-2.84 8.2-3.46 11.85-3.1 4.09.4 8.01 2.51 10.23 5.5 1.83 2.47 2.47 5.43 1.84 8.55-.68 3.37-1.57 4.49-2.44 5.57-.8.99-1.42 1.84-2.01 4.4-.3 1.3-1.5 1.65-1.41 1.66 1.43.16 2.25-.39 2.47-1.44.47-2.31 1.01-2.96 1.79-3.94.9-1.12 1.93-2.4 2.65-6.03.7-3.44-.01-6.7-2.02-9.42z" fill="#3F2720"/><radialGradient id="d" cx="59.888" cy="62.454" r="17.194" gradientTransform="matrix(.9795 -.2013 .192 .9342 -8.938 15.554)" gradientUnits="userSpaceOnUse"><stop stop-color="#651FFF" offset=".364"/><stop stop-color="#5914F2" offset=".812"/><stop stop-color="#530EEB" offset="1"/></radialGradient><path d="M65.72 80.69c-6.95 0-11.93-1.63-13.2-2.09.05-2.23.37-14.41.78-20.62l.08-1.3c.39-6.22.67-10.72 5.06-13.74.03-.02 2.35-1.69 5.03-1.69 3.38 0 5.84 2.57 7.32 7.64 2.14 7.34 6.28 26.36 6.85 28.99-.83.62-4.18 2.7-11.28 2.81h-.64z" fill="url(#d)"/><path d="M63.48 41.75c3.13 0 5.43 2.45 6.84 7.28 2.07 7.07 6 25.04 6.78 28.63-1.1.72-4.37 2.43-10.73 2.53h-.64c-6.37 0-11.06-1.38-12.69-1.94.07-2.96.38-14.31.77-20.24l.08-1.3c.38-6.08.66-10.48 4.87-13.38.01-.01 2.19-1.58 4.72-1.58m-.01-1c-2.88 0-5.32 1.78-5.32 1.78-4.9 3.37-4.91 8.51-5.36 15.42-.46 6.91-.79 20.99-.79 20.99s5.44 2.25 13.71 2.25h.65c8.64-.12 11.84-3.11 11.84-3.11s-4.6-21.37-6.93-29.33c-1.86-6.37-5.03-8-7.8-8z" fill="#4A00ED"/><linearGradient id="e" x1="52.053" x2="58.932" y1="79.651" y2="55.738" gradientUnits="userSpaceOnUse"><stop stop-color="#BA8D68" offset=".321"/><stop stop-color="#A47B62" offset="1"/></linearGradient><path d="M57.91 53.42l3.64 15.56S51.09 75.3 48.23 75.9c-1.71.36-4.61.76-7.86 1.2-2.54.35-5.22 4.04-6.27 5.63-.28.43-.26.98.06 1.38.39.5 1.1.6 1.62.23l3.72-2.21s1.68.28 4.13.18c2.45-.11 4.89-1.2 4.89-1.2 1.64-.63 12.89-2.38 18.12-3.48 5.38-1.13 4.89-6.94 4.3-10.69-.48-3.04-2.78-14.5-2.78-14.5l-10.25.98z" fill="url(#e)" stroke="#91674D" stroke-linecap="round" stroke-linejoin="round" stroke-miterlimit="10"/><path d="M57 55.04c-.26-1.52-.09-3.99 1.27-5.89.89-1.25 2.12-2.01 3.64-2.25.33-.05.66-.08.99-.08 3.81 0 5.88 3.76 6.29 6.14l1.83 9.14-12.18 2.1L57 55.04z" fill="#3615AF"/><path d="M62.9 47.32c3.5 0 5.41 3.51 5.8 5.75l1.72 8.62-11.19 1.93-1.73-8.65c-.25-1.44-.09-3.75 1.18-5.53.81-1.13 1.93-1.82 3.32-2.05.3-.04.6-.07.9-.07m0-1c-.34 0-.7.03-1.07.09-4.53.74-5.87 5.57-5.32 8.73l1.92 9.63L71.6 62.5l-1.92-9.63c-.5-2.91-2.88-6.55-6.78-6.55z" fill="#27089C"/></svg>