<svg viewBox="0 0 128 128" width="128" height="128" xmlns="http://www.w3.org/2000/svg"><linearGradient id="a" x1="-69.547" x2="-69.547" y1="-92.663" y2="-36.541" gradientUnits="userSpaceOnUse"><stop stop-color="#eee" offset=".005"/><stop stop-color="#EAEAEA" offset=".282"/><stop stop-color="#ddd" offset=".577"/><stop stop-color="#C8C8C8" offset=".879"/><stop stop-color="#BDBDBD" offset="1"/></linearGradient><path d="M-18.63-63.97c-.91-4.33-4.3-20.11-5.87-27.41-.47-2.21-2.11-3.82-3.99-3.81-5.36 0-15.39-.05-16.6-.05h-44.08c-.61 0-2.56.06-4.11 1.79-4.7 5.27-12.54 20.52-13.76 22.07-.08.1-6.27 2.31-9.09 4-1.12.67-1.74 2.13-1.9 3.63L-120.49-43c-.64 4.1 1.7 5.76 5.37 5.76h91.51c2.8 0 5.11-.68 5.11-5.69v-19.79c0-.43-.05-.85-.13-1.25z" fill="url(#a)"/><defs><path id="b" d="M-42.13-46.78c-.91-4.32-4.3-20.06-5.87-27.34-.47-2.21-2.11-3.82-3.99-3.82-5.36 0-15.39-.06-16.6-.06h-44.08c-.61 0-2.56.07-4.11 1.8-4.7 5.26-12.54 20.51-13.76 22.05-.08.1-6.27 2.28-9.09 3.96-1.12.67-1.74 2.13-1.9 3.62l-2.46 20.76c-.64 4.09 1.7 5.81 5.37 5.81h91.51c2.8 0 5.11-.79 5.11-5.8v-19.74c0-.42-.05-.83-.13-1.24z"/></defs><path d="M-9.98-106.33c.36 0 .87.53 1.05 1.38 1.46 6.78 4.94 23.03 5.86 27.4.05.19.07.4.07.61v19.79c0 2.81-.49 2.81-2.1 2.81h-91.51c-1.3 0-2.02-.29-2.25-.56s-.3-.95-.16-1.8c.01-.04.01-.07.02-.11l2.47-20.84c.08-.8.36-1.28.46-1.36 1.87-1.12 5.83-2.66 7.51-3.31 1.46-.57 1.86-.72 2.39-1.39.5-.63 1.28-2 2.99-5.03 2.85-5.03 7.61-13.46 10.65-16.87.57-.64 1.22-.72 1.87-.72h44.08c.75 0 4.89 0 9.21-.01l7.39.01m0-3c-5.36 0-15.39.01-16.6.01h-44.1c-.63 0-2.55.01-4.08 1.73-4.7 5.27-12.54 20.49-13.76 22.03-.08.1-6.27 2.3-9.09 3.99-1.12.67-1.74 2.12-1.9 3.62l-2.46 20.8c-.64 4.1 1.7 5.82 5.37 5.82h91.5c2.8 0 5.1-.8 5.1-5.81v-19.79c0-.42-.04-.84-.13-1.24-.91-4.33-4.3-20.11-5.86-27.41-.48-2.22-2.11-3.75-3.99-3.75z" fill="#424242" opacity=".2"/><linearGradient id="c" x1="46.43" x2="46.43" y1="-117.5" y2="-61.374" gradientUnits="userSpaceOnUse"><stop stop-color="#616161" offset=".011"/><stop stop-color="#5D5D5D" offset=".25"/><stop stop-color="#505050" offset=".504"/><stop stop-color="#3B3B3B" offset=".766"/><stop stop-color="#212121" offset="1"/></linearGradient><path d="M97.35-88.93c-.91-4.33-4.3-20.11-5.86-27.41-.47-2.21-2.11-3.75-3.99-3.75-5.36 0-15.39.01-16.6.01H26.82c-.61 0-2.56-.01-4.11 1.73C18-113.07 10.16-97.86 8.95-96.31c-.08.1-6.27 2.3-9.09 3.99-1.12.67-1.74 2.12-1.9 3.62L-4.5-67.9c-.64 4.1 1.7 5.82 5.37 5.82h91.51c2.8 0 5.1-.8 5.1-5.81v-19.79c-.01-.43-.05-.84-.13-1.25z" fill="url(#c)"/><defs><path id="d" d="M97.35-88.98c-.91-4.32-4.3-20.06-5.86-27.34-.47-2.21-2.11-3.74-3.99-3.74-5.36 0-15.39.01-16.6.01H26.82c-.61 0-2.56-.01-4.11 1.72C18-113.06 10.16-97.85 8.95-96.31c-.08.1-6.27 2.26-9.09 3.94-1.12.67-1.74 2.12-1.9 3.61L-4.51-68c-.64 4.09 1.7 5.8 5.37 5.8h91.51c2.8 0 5.1-.79 5.1-5.8v-19.74c0-.42-.04-.84-.12-1.24z"/></defs><path d="M87.5-117.08c.36 0 .87.53 1.05 1.38 1.46 6.78 4.94 23.03 5.86 27.4.04.2.06.41.06.63v19.79c0 2.81-.49 2.81-2.1 2.81H.86c-1.3 0-2.02-.29-2.25-.56s-.3-.95-.16-1.8l.02-.1L.94-88.37c.08-.8.36-1.28.46-1.36 1.87-1.12 5.83-2.66 7.51-3.31 1.46-.57 1.86-.72 2.39-1.39.5-.63 1.28-2 2.99-5.03 2.85-5.03 7.61-13.46 10.65-16.87.57-.64 1.22-.72 1.87-.72h44.08c.75 0 4.89 0 9.21-.01l7.4-.02m0-3c-5.36 0-15.39.01-16.6.01H26.8c-.63 0-2.55.01-4.08 1.73C18-113.07 10.16-97.86 8.95-96.31c-.08.1-6.27 2.3-9.09 3.99-1.12.67-1.74 2.12-1.9 3.62L-4.5-67.9c-.64 4.1 1.7 5.82 5.37 5.82h91.51c2.8 0 5.1-.8 5.1-5.81v-19.79c0-.42-.04-.84-.13-1.24-.91-4.33-4.3-20.11-5.86-27.41-.48-2.22-2.12-3.75-3.99-3.75z" fill="#eee" opacity=".2"/><linearGradient id="e" x1="21.37" x2="21.37" y1="16.458" y2="42.678" gradientTransform="matrix(0 -1 -1.0457 0 141.21 130.93)" gradientUnits="userSpaceOnUse"><stop stop-color="#eee" offset="0"/><stop stop-color="#E2E2E2" offset=".32"/><stop stop-color="#C4C4C4" offset=".89"/><stop stop-color="#BDBDBD" offset="1"/></linearGradient><path fill="url(#e)" d="M96.58 93.99H124v31.14H96.58z"/><linearGradient id="f" x1="66.928" x2="66.928" y1="16.983" y2="131.18" gradientTransform="matrix(0 -1 -1.0457 0 141.21 130.93)" gradientUnits="userSpaceOnUse"><stop stop-color="#FF5269" offset="0"/><stop stop-color="#c00" offset="1"/></linearGradient><path d="M67.75 125.13h29.47V93.99H67.75c-17.31 0-31.19-13.77-31.19-30.15s13.88-29.83 31.19-29.83h29.47V2.87H67.75C32.62 2.87 4 30.41 4 64s28.62 61.13 63.75 61.13z" fill="url(#f)"/><linearGradient id="g" x1="112.32" x2="112.32" y1="16.458" y2="42.678" gradientTransform="matrix(0 -1 -1.0457 0 141.21 130.93)" gradientUnits="userSpaceOnUse"><stop stop-color="#eee" offset="0"/><stop stop-color="#E2E2E2" offset=".32"/><stop stop-color="#C4C4C4" offset=".89"/><stop stop-color="#BDBDBD" offset="1"/></linearGradient><path fill="url(#g)" d="M96.58 3.04H124v31.14H96.58z"/><path d="M96.03 7.27c.38.11.78.16 1.19.16h22.38v22.34H97.78c-.38-.11-.78-.16-1.19-.16H67.75c-19.62 0-35.58 15.35-35.58 34.22 0 19.05 15.96 34.55 35.58 34.55h51.86v22.34H67.75C35.02 120.73 8.4 95.28 8.4 64S35.02 7.27 67.75 7.27h28.28m1.19-4.4H67.75C32.62 2.87 4 30.41 4 64s28.62 61.13 63.75 61.13H124V93.99H67.75c-17.31 0-31.19-13.77-31.19-30.15 0-16.39 13.88-29.83 31.19-29.83h28.84v.16H124V3.04H97.22v-.17z" fill="#424242" opacity=".2"/></svg>