<svg viewBox="0 0 128 128" width="128" height="128" xmlns="http://www.w3.org/2000/svg"><linearGradient id="a" x1="75.151" x2="33.058" y1="52.806" y2="94.899" gradientUnits="userSpaceOnUse"><stop stop-color="#eee" offset="0"/><stop stop-color="#E1E1E1" offset=".213"/><stop stop-color="#C7C7C7" offset=".706"/><stop stop-color="#BDBDBD" offset="1"/></linearGradient><path fill="url(#a)" d="M15.51 116.72l-4.54-4.56L113.28 10.41l4.54 4.56z"/><path fill="#FF3D00" d="M10.979 112.165L39.5 83.776l4.536 4.558-28.522 28.389z"/><linearGradient id="b" x1="42.528" x2="42.528" y1="20.547" y2="-1.595" gradientTransform="matrix(.7055 .7088 -.8338 .83 80.675 -12.551)" gradientUnits="userSpaceOnUse"><stop stop-color="#757575" offset="0"/><stop stop-color="#646464" offset="1"/></linearGradient><path d="M91.21 32.3l4.54 4.56 26.46-26.07c.87-.85.87-2.25.02-3.11l-1.44-1.45c-.85-.86-2.24-.86-3.1-.02L91.21 32.3z" fill="url(#b)"/><linearGradient id="c" x1="20.07" x2="11.306" y1="113.4" y2="122.16" gradientTransform="rotate(4.997 42.441 80.242)" gradientUnits="userSpaceOnUse"><stop stop-color="#E0E0E0" offset=".47"/><stop stop-color="#BDBDBD" offset=".992"/></linearGradient><circle cx="11.44" cy="116.23" r="6.25" fill="url(#c)"/><path d="M119.23 7.58c.05 0 .1.02.14.06l1.44 1.45c.04.04.06.08.06.14 0 .05-.02.1-.06.14L16.15 113.27a2.29 2.29 0 0 0-.66 1.94c.11.77.19 1.77-.03 2.39a4.251 4.251 0 0 1-4.02 2.88 4.258 4.258 0 0 1-3.81-2.37c-.5-1.02-.58-2.17-.21-3.24.59-1.72 2.2-2.87 4.02-2.87.39.01.76.05 1.08.11.72.14 1.47-.12 1.99-.64L39.49 86.6l.01.01 1.42-1.41 72.35-71.96.07.07 1.42-1.4 4.34-4.27c.03-.04.07-.06.13-.06m0-2c-.56 0-1.11.21-1.54.63l-4.34 4.27-.07-.07-73.77 73.37-.01-.01-26.53 26.41a6.245 6.245 0 0 0-7.43 4.04 6.243 6.243 0 0 0 3.9 7.92 6.244 6.244 0 0 0 8.07-7.41l104.7-103.94c.87-.85.87-2.25.02-3.11l-1.44-1.45c-.44-.44-1-.65-1.56-.65z" fill="#212121" opacity=".33"/><linearGradient id="d" x1="119.03" x2="112.12" y1="29.096" y2="18.124" gradientTransform="rotate(7.793 117.967 24.395)" gradientUnits="userSpaceOnUse"><stop stop-color="#444" offset=".311"/><stop stop-color="#2B2B2B" offset=".739"/><stop stop-color="#212121" offset="1"/></linearGradient><path d="M119.49 10.43c-.14-.53-.69-.85-1.22-.71s-.85.69-.71 1.22c.03.1 2.43 9.83 1.48 17.61-.53 4.35-1.6 9.52-3.67 9.52s-2.65-13.37.36-20.93l-2.75 2.74c-2.71 8.3-1.76 20.53 2.49 20.53 3.35 0 4.74-5.64 5.55-11.58 1.12-8.17-1.42-17.98-1.53-18.4z" fill="url(#d)"/></svg>