<svg viewBox="0 0 128 128" width="128" height="128" xmlns="http://www.w3.org/2000/svg" xmlns:xlink="http://www.w3.org/1999/xlink"><linearGradient id="a" x1="95.323" x2="74.048" y1="107.51" y2="90.171" gradientTransform="rotate(5.025 60.907 57.924)" gradientUnits="userSpaceOnUse"><stop stop-color="#FFCA28" offset=".309"/><stop stop-color="#FFB300" offset=".805"/></linearGradient><path d="M74.01 105.95c-4.86-2.38-6.35-5.47-7.23-8.45-.95-3.22-3.16-9.77-3.77-11.57l11.46-4.64 3.86 14.84c.03.12.11.23.21.3l17.56 11.82-.52 6.69-21.57-8.99z" fill="url(#a)"/><path d="M74.12 81.99l3.71 14.26c.06.25.22.46.43.61l17.31 11.65-.44 5.66-20.88-8.69c-4.43-2.17-5.98-4.82-6.96-8.13-.88-2.99-2.85-8.85-3.62-11.12l10.45-4.24m.71-1.41l-12.48 5.05s2.82 8.25 3.93 12.02c.92 3.12 2.47 6.31 7.53 8.79l22.24 9.26.6-7.71-17.81-12-4.01-15.41z" fill="#EDA600"/><path d="M88.8 112.14c-.09-.93-.21-4.17 2.03-7.49l6.49 3.68-.92 7.2-7.6-3.39z" fill="#E0E0E0"/><path d="M91 105.35l5.75 3.26-.79 6.16-6.67-2.98c-.05-1.08.02-3.7 1.71-6.44m-.33-1.39c-3.13 4.29-2.36 8.54-2.36 8.54l8.51 3.8 1.06-8.25-7.21-4.09z" fill="#CCC7BD"/><path d="M65.84 94.57c-1.6-3.69-3.88-9.42-4.03-10.97l14.3-7.51c-.05 6.42 2.46 10.39 3.38 11.64-1.56 1.31-7.73 6.21-13.65 6.84z" fill="#616161"/><path d="M75.59 76.96c.15 5.49 2.14 9.13 3.19 10.68-1.92 1.57-7.34 5.64-12.62 6.37-1.72-4.01-3.45-8.51-3.78-10.11l13.21-6.94m1.06-1.74zm0 0l-15.37 8.07c-.23 1.63 4.22 11.84 4.22 11.84 7.18-.54 14.7-7.33 14.7-7.33s-3.91-4.44-3.55-12.58z" fill="#4F4F4F"/><linearGradient id="b" x1="49.608" x2="27.84" y1="103" y2="79.655" gradientTransform="rotate(72.806 49.853 97.941)" gradientUnits="userSpaceOnUse"><stop stop-color="#FFCA28" offset=".309"/><stop stop-color="#FFB300" offset=".805"/></linearGradient><path d="M44.97 108.07c-.85-2.13-5.56-13.92-6.38-16.99-1.5-5.57 1.02-8.94 3.88-10.23L64.66 70.8l4.02 12.48-19.31 6.38c-.26.09-.41.36-.34.63.65 2.47 2.94 14.82 3.47 17.72l-7.53.06z" fill="url(#b)"/><path d="M64.34 71.51l3.68 11.42-18.82 6.22c-.53.17-.83.73-.68 1.26.61 2.3 2.66 13.35 3.35 17.07l-6.54.06c-1.12-2.81-5.45-13.69-6.23-16.6-1.41-5.25.92-8.41 3.59-9.62l21.65-9.81m.64-1.44l-22.73 10.3c-2.88 1.3-5.77 4.87-4.16 10.84.92 3.43 6.53 17.38 6.53 17.38l8.5-.08s-2.84-15.54-3.59-18.37l19.8-6.54-4.35-13.53z" fill="#EDA600"/><path d="M43.49 104.4c.83-.6 3.49-2.29 7.31-2.29.24 0 .48.01.72.02l1.51 7.92-6.83 2.49-2.71-8.14z" fill="#E0E0E0"/><path d="M50.81 102.64h.29l1.34 7.07-5.91 2.15-2.42-7.26c1.01-.67 3.38-1.96 6.7-1.96m0-1.05c-4.91 0-7.93 2.63-7.93 2.63l3 9 7.75-2.83-1.66-8.75c-.4-.04-.79-.05-1.16-.05z" fill="#CCC7BD"/><path d="M39.49 119.89c-.69 0-1.17-.39-1.24-.6l-.42-1.29a3.736 3.736 0 0 1 1.18-4.04l5.25-3.16c.04-.02.07-.05.1-.08s2.89-2.86 7.18-2.86c.28 0 .56.01.85.04.37.36 1.51 1.54 1.9 2.77l.61 2.23c.23 1.06-.3 1.88-.63 1.99l-14.41 4.98c-.09 0-.23.02-.37.02z" fill="#4568AD"/><path d="M51.54 108.38c.2 0 .41.01.62.02.5.5 1.33 1.47 1.62 2.38l.61 2.22c.17.81-.2 1.33-.3 1.39l-14.34 4.96c-.09.02-.17.03-.26.03-.41 0-.68-.19-.75-.28l-.41-1.25c-.4-1.24-.02-2.58.96-3.43l5.24-3.16c.07-.05.14-.1.21-.16.02-.04 2.71-2.72 6.8-2.72m0-1.05c-4.58 0-7.55 3.02-7.55 3.02l-5.31 3.2a4.272 4.272 0 0 0-1.34 4.61l.42 1.29c.15.47.86.96 1.73.96.18 0 .36-.02.54-.06l14.4-4.98c.64-.21 1.26-1.31.98-2.62l-.62-2.25c-.52-1.64-2.17-3.11-2.17-3.11-.37-.04-.73-.06-1.08-.06z" fill="#315499"/><path d="M58.91 89.15c-1.14-1.82-5.94-9.1-10.49-11.07l5.57-2.87c.21-.11.32-.33.27-.56l-.79-4.12.23-3.74 18.56-4.72 2.54 5.56c1.98 3.52 3.97 11.12-2.51 14.95-3.16 1.86-11.43 5.67-13.38 6.57z" fill="#7C7C7C"/><path d="M71.97 62.68l2.36 5.16c.01.03.03.05.04.08 1.87 3.33 3.79 10.59-2.34 14.2-2.96 1.75-10.43 5.21-12.93 6.36-1.39-2.15-5.43-8.03-9.54-10.4l4.66-2.41c.41-.21.64-.67.55-1.13L54 70.49l.2-3.29 17.77-4.52m.58-1.23L53.2 66.38l-.26 4.18.8 4.18-6.68 3.45c5.26 1.05 11.65 11.62 11.65 11.62s10.21-4.63 13.86-6.79c6.72-3.97 4.87-11.8 2.72-15.62l-2.74-5.95z" fill="#5B5B5B"/><path d="M103.9 122c-1.11 0-2.15-.48-2.87-1.32l-4.5-5.23c-.16-.66-.9-4.16-.53-8.62.1-.18.49-.82 1.58-1.4l2.19-.63c.17-.04.36-.06.55-.06.79 0 1.35.39 1.45.67l5.16 14.34c.21.84-.29 1.53-.55 1.62l-1.28.43c-.4.13-.8.2-1.2.2z" fill="#4568AD"/><path d="M100.31 105.27c.57 0 .91.25.96.33l5.14 14.28c.12.53-.14.93-.24 1.01l-1.25.42c-.33.11-.68.17-1.03.17-.95 0-1.85-.42-2.47-1.14l-4.41-5.13c-.19-.86-.83-4.09-.5-8.21.13-.2.48-.64 1.26-1.07l2.1-.61c.15-.04.3-.05.44-.05m0-1.05c-.22 0-.45.02-.69.08l-2.24.64c-1.53.79-1.89 1.75-1.89 1.75-.44 5.15.57 9 .57 9l4.58 5.32a4.3 4.3 0 0 0 3.26 1.51c.45 0 .91-.07 1.36-.22l1.28-.43c.56-.19 1.15-1.18.87-2.29l-5.16-14.34c-.18-.52-.95-1.02-1.94-1.02z" fill="#315499"/><path d="M47.32 87.75c2.09 1.73 2.16 4.8 2.3 5.84" fill="none" stroke="#EDA600" stroke-linecap="round" stroke-linejoin="round" stroke-miterlimit="10" stroke-width="1.047"/><path d="M47.68 115.09c-4.39 1.71-7.46 3.03-8.73 4.03-1.33.91-.17 1.54 1.13 1.18l12.3-3.7c2.33-.79 3.18-1.8 3.08-2.92-.1-1.11-3.66-.2-7.78 1.41z" fill="#294B7C"/><path d="M53.74 74.74c10.04-7.05 22.57-5.08 22.57-5.08-1.54-4.2-4.48-9.59-4.48-9.59S53 65.04 52.64 67.62s1.1 7.12 1.1 7.12z" opacity=".2"/><linearGradient id="c" x1="36.572" x2="61.438" y1="59.847" y2="59.847" gradientTransform="rotate(-3.341 54.14 108.767)" gradientUnits="userSpaceOnUse"><stop stop-color="#FFCA28" offset=".309"/><stop stop-color="#FFB300" offset=".805"/></linearGradient><path fill="url(#c)" d="M35.69 71.68l-1.42-2.06L54.15 48.5l4.17 6.23-19.54 17.2z"/><path d="M54.08 49.3l3.57 5.34L38.6 71.41l-2.64-.21-1.05-1.53L54.08 49.3m.13-1.6L33.63 69.57l1.78 2.59 3.54.28 20.03-17.63-4.77-7.11z" fill="#EDA600"/><defs><path id="d" d="M38.91 71l-3.61-1.5.87-1.01s-.89-1.14-1.51-.69c-1.15.83-4.81 1.8-6.15 3.33 0 0-5.23 5.29-5.22 6.01 0 .21 3.48 7.02 3.94 7.14 8.75 2.17 12.84-4.23 13.21-4.65 1.4-1.62.44-6.24.25-8.18-.03-.3-.84-1.4-.84-1.4l-.94.95z"/></defs><clipPath id="e"><use xlink:href="#d"/></clipPath><path d="M33.57 71.99s-1.56 2.52-2.1 5.73c-.22 1.33.23 2.52.4 2.74.55.71 1.53.88 1.85.29.27-.51-.4-1.36-.39-1.86.01-.6.36-1.08.36-1.08.21.62 1.62 1.94 2.1 1.81 1.33-.37-.72-2.04-.62-3.14.26-2.86 1.37-4.72 1.37-4.72l-2.97.23z" clip-path="url(#e)" fill="#E59600" stroke="#D18100" stroke-linecap="round" stroke-linejoin="round" stroke-miterlimit="10" stroke-width="1.004"/><linearGradient id="f" x1="120.91" x2="130.64" y1="28.261" y2="28.261" gradientTransform="rotate(39.986 13.184 -72.095)" gradientUnits="userSpaceOnUse"><stop stop-color="#FFCA28" offset=".262"/><stop stop-color="#FFB300" offset="1"/></linearGradient><path d="M38.22 78.46c-1.48-.86-.81-4.35-3.6-3.55-2.04.58-2.96 5.06-4.68 6.5-1.67 1.4-3.06.26-2.64-.27 0 0 .91-1.65 1.98-3.41 1.28-2.13 1.74-6.07 5.43-8.54.65-.44 1.23-.65 1.82-.65.63 0 1.28.25 2.06.74.51.32.98 1.08 1.05 1.71.19 1.75-.16 1.58-.51 3.8-.22 1.36.47 1.89.43 2.86-.02.56-.67 1.2-1.34.81z" clip-path="url(#e)" fill="url(#f)" stroke="#EDA600" stroke-linecap="round" stroke-linejoin="round" stroke-miterlimit="10" stroke-width="1.004"/><path d="M56.7 58.24c-1.11-1.58-3.86-5.04-7.05-5.8 1.5-1.8 5.96-6.93 12.09-12.01.61-.5.85-.52.88-.52.79.94-2.39 10.08-5.92 18.33z" fill="#DB5816"/><path d="M62.19 40.72c-.13 2.38-2.76 9.75-5.6 16.51-1.25-1.63-3.46-4.09-6.06-5.05 1.83-2.15 6-6.78 11.54-11.36.04-.03.08-.07.12-.1m.43-1.3c-.28 0-.67.2-1.2.63-7.7 6.38-12.72 12.76-12.72 12.76 4.27.28 8.09 6.48 8.09 6.48s8.62-19.87 5.83-19.87z" fill="#D15518"/><circle cx="73.45" cy="41.59" r="4.37" fill="#FBC11B"/><linearGradient id="g" x1="150.29" x2="166.89" y1="-221.09" y2="-187.54" gradientTransform="rotate(-13.34 1103.08 330.317)" gradientUnits="userSpaceOnUse"><stop stop-color="#FFCA28" offset=".545"/><stop stop-color="#FFB300" offset=".834"/><stop stop-color="#E59600" offset=".995"/></linearGradient><path d="M69.85 15.84c-3.05-4.19-9.46-7.14-14.49-5.92-5.63 1.37-8.4 5.71-8.82 10.98-.15 1.91.05 3.79.47 5.1.05.16.45 1.3.5 1.66.32 1.39-2.29 2.99-2.5 4.56-.15 1.18 2.34 1.74 2.55 1.94 1.03.98-.1 5.89 6.62 6.07 2.34.06 2.79-.22 2.79-.22l.47 7.63s5.02 1.17 9.33-.53c4.92-1.94 1.85-7.7 1.85-7.7s-2.07-3.28-.43-6.58c2.13-4.29 3.62-14.29 1.66-16.99z" fill="url(#g)"/><linearGradient id="h" x1="44.804" x2="71.749" y1="30.662" y2="27.406" gradientUnits="userSpaceOnUse"><stop stop-color="#EDA600" offset="0"/><stop stop-color="#D18900" offset=".871"/></linearGradient><path d="M57.78 10.65c4.08 0 8.82 2.43 11.26 5.78 1.62 2.22.3 11.81-1.75 15.96-1.78 3.59.19 7.08.45 7.52.12.24 1.29 2.65.62 4.46-.3.82-.94 1.41-1.95 1.81-1.44.57-3.13.85-5.03.85-1.25 0-2.31-.13-2.98-.23l-.42-6.85c-.02-.35-.23-.67-.54-.83a1.039 1.039 0 0 0-.89-.02c-.08.02-.51.13-1.7.13-.19 0-.41 0-.64-.01-4.22-.12-4.7-2.13-5.13-3.92-.18-.77-.34-1.43-.82-1.88-.19-.18-.42-.27-.79-.41-.81-.3-1.29-.55-1.43-.74.1-.44.61-1.06 1.07-1.61.78-.93 1.66-1.99 1.41-3.21-.06-.34-.24-.9-.49-1.64l-.05-.14c-.4-1.25-.56-3.01-.42-4.71.25-3.1 1.62-8.52 8.05-10.08.67-.14 1.41-.23 2.17-.23m0-1c-.83 0-1.64.09-2.42.28-5.63 1.37-8.4 5.71-8.82 10.98-.15 1.91.05 3.79.47 5.1.05.16.45 1.3.5 1.66.32 1.39-2.29 2.99-2.5 4.56-.15 1.18 2.34 1.74 2.55 1.94 1.03.98-.1 5.89 6.62 6.07.24.01.46.01.66.01 1.77 0 2.13-.23 2.13-.23l.47 7.63s1.68.39 3.93.39c1.64 0 3.58-.21 5.4-.92 4.92-1.94 1.85-7.7 1.85-7.7s-2.07-3.28-.43-6.58c2.13-4.3 3.63-14.3 1.67-17-2.58-3.53-7.56-6.19-12.08-6.19z" fill="url(#h)"/><path d="M48.46 36.91c.93-.02 1.83-.3 2.57-.94.81-.7.17-1.36-.78-.87-.57.3-1.4.49-2.17.4l.38 1.41z" fill="#795548"/><ellipse transform="rotate(-6.102 51.727 28.144)" cx="51.72" cy="28.14" rx="1.23" ry="1.89" fill="#49362E"/><path d="M50.55 25.53c-1.12.55-1.53-.18-1.25-.87.21-.51.86-1.02 2.28-1 1.34.03 2.01.68 2.44 1.07s.47.85.18.94c-.41.14-2.27-.82-3.65-.14z" fill="#613E31"/><radialGradient id="i" cx="49.449" cy="9.722" r="14.295" gradientTransform="rotate(3.438 42.808 6.583)" gradientUnits="userSpaceOnUse"><stop stop-color="#5B3127" offset="0"/><stop stop-color="#40211B" offset="1"/></radialGradient><path d="M73.19 15.99c-1.9-3.9-5.56-4.3-5.56-4.3s-1.87-6.17-10.7-4.03c-2.71.66-4.32 2.55-5.9 3.45-1.35.77-2.85.75-3.33-1.68-1.81 1.14-2.51 2.75-1.29 5.25-1.75.57-2.28 2.19-2.51 4.02-.26 2.03.96 3.8 2.85 4.48.26-2.01 2.45-3.06 4.25-3.2 1.58-.12 3.25.07 4.67-.63.54-.27 1.04-.66 1.56-.97.12-.01.2-.02.2-.02 2.01.89-.19 5.62 2.16 8.12.46.49.8.27.8.27l.76-1.33c.59-.92 1.12-1.71 1.95-1.59 2.44.35 2.33 4.66-.44 5.82-.28.12 1.19 2.31 1.33 2.42 2.26 1.84 3.58 1.6 5.07 1.57 2.06-.04 3.1-1.81 3.1-1.81s-2.6-.98.24-3.92c2.81-2.91.68-5.85.68-5.85s1.59-3.05.11-6.07z" fill="url(#i)"/><path d="M60.39 6.71c-1.05 0-2.24.14-3.58.46-1.96.47-3.33 1.53-4.54 2.46-.52.4-1.01.78-1.48 1.05-.28.16-.75.38-1.2.38-.16 0-.31-.03-.45-.09-.55-.25-.81-1.03-.93-1.64l-.14-.72-.62.39c-2.06 1.3-2.63 3.12-1.69 5.4-1.56.83-2.17 2.6-2.34 4.23-.23 2.22 1 4.23 3.18 5.01l.28-.97c-1.4-.73-2.6-2.35-2.46-3.91.17-2.07.9-3.19 2.17-3.61l.55-.18-.25-.52c-.89-1.82-.73-3.14.55-4.2.28.81.72 1.35 1.31 1.62.27.12.56.18.87.18.52 0 1.1-.17 1.7-.52.53-.3 1.05-.7 1.6-1.12 1.13-.87 2.42-1.85 4.17-2.28 1.27-.31 2.39-.44 3.37-.44 5.38 0 6.67 3.93 6.73 4.12l.1.31.32.04c.14.02 3.42.44 5.17 4.02 1.34 2.74-.09 5.6-.1 5.63l-.14.27.18.25c.08.11 1.83 2.65-.64 5.21-1.68 1.74-1.62 2.95-1.27 3.66.16.32.4.58.65.77-.87 1.42-3.76 1.68-3.76 1.68.35.22.84.28 1.24.28.32 0 .58-.04.64-.04 3.14-.32 3.7-2.69 3.7-2.69s-.28.1-.59.1c-.39 0-.88-.13-1.09-.74-.19-.56.28-1.38 1.16-2.3 2.56-2.65 1.36-5.39.89-6.23.36-.84 1.32-3.54-.01-6.26-1.7-3.47-4.68-4.33-5.65-4.53-.45-1.05-2.34-4.53-7.6-4.53z" fill="#301712"/><radialGradient id="j" cx="104.41" cy="11.579" r="11.68" gradientTransform="rotate(9.25 104.333 -69.265)" gradientUnits="userSpaceOnUse"><stop stop-color="#CED7DB" offset="0"/><stop stop-color="#BFCBD0" offset=".303"/><stop stop-color="#99ABB4" offset=".88"/><stop stop-color="#90A4AE" offset="1"/></radialGradient><circle cx="94.06" cy="15.09" r="11.66" fill="url(#j)"/><path d="M94.05 4.43c.57 0 1.16.05 1.73.14 5.8.95 9.75 6.43 8.8 12.23-.85 5.18-5.26 8.94-10.5 8.94-.57 0-1.16-.05-1.73-.14-5.8-.95-9.75-6.43-8.8-12.23.84-5.18 5.26-8.94 10.5-8.94m0-1c-5.61 0-10.56 4.07-11.49 9.79-1.04 6.36 3.28 12.35 9.63 13.38.64.1 1.27.15 1.89.15 5.61 0 10.56-4.07 11.49-9.79 1.04-6.36-3.28-12.35-9.63-13.38-.64-.1-1.27-.15-1.89-.15z" fill="#607C8A"/><linearGradient id="k" x1="103.27" x2="86.722" y1="36.22" y2="48.633" gradientTransform="rotate(9.667 110.079 -29.492)" gradientUnits="userSpaceOnUse"><stop stop-color="#FFCA28" offset=".309"/><stop stop-color="#FFB300" offset=".805"/></linearGradient><path d="M68.59 47.5c-.55-.81-2.19-3.47-1.64-5.68.26-1.07 1.02-1.91 2.26-2.5 4.72-2.24 14.96-2.9 15.06-2.9.11-.01.22-.05.31-.13l9.18-8.43 4.83-1.05.26 2.41c-.8 1.18-6 8.85-7.1 10.22-.18.22-.35.45-.53.68-1.25 1.66-2.55 3.37-7.85 4.6-3.89.93-12.98 2.48-14.78 2.78z" fill="url(#k)"/><path d="M98.15 27.43l.18 1.68c-1.06 1.57-5.92 8.72-6.97 10.03-.18.23-.36.46-.53.69-1.2 1.59-2.44 3.22-7.57 4.42-3.68.87-12.07 2.31-14.43 2.71-.73-1.13-1.81-3.31-1.39-5.01.23-.93.88-1.64 1.98-2.16 4.63-2.2 14.78-2.85 14.88-2.86.23-.01.45-.11.62-.26L94 28.33l4.15-.9m.88-1.22l-5.51 1.2-9.28 8.52s-10.38.64-15.25 2.95c-5.57 2.65-.62 9.18-.62 9.18s10.75-1.8 15.12-2.83c6.21-1.44 7.15-3.58 8.66-5.46 1.21-1.51 7.23-10.4 7.23-10.4l-.35-3.16z" fill="#EDA600"/><linearGradient id="l" x1="99.799" x2="100.91" y1="20.273" y2="26.691" gradientTransform="rotate(-4.836 93.353 29.274)" gradientUnits="userSpaceOnUse"><stop stop-color="#FFCA28" offset=".309"/><stop stop-color="#FFB300" offset=".805"/></linearGradient><path d="M93.84 27.93c.82-2.89 2.89-3.47 2.89-3.47s-1.05-2.61-1.45-3.44-.12-1.4.03-1.48c.5-.28 1.02-.01 1.17.18.67.81 1.68 2.21 1.68 2.21.43-.17-.24-2.43-.58-3.95-.2-.89.86-1.86 1.63-.28.64 1.31 1.45 3.77 1.45 3.77.15-1-.04-2.58-.23-4.57-.09-.93.29-1.34.9-1.4.45-.04.84.08 1.16 1.93.09.55.25 3.69.25 3.69.87-.45 1.09-2.87 1.16-4.44.05-1.1 1.5-1.38 1.69.28.39 3.37-1.35 6.24-2.15 7.58-.42.7-3.06 3.75-5.01 5.06" fill="url(#l)" stroke="#EDA600" stroke-linecap="round" stroke-linejoin="round" stroke-miterlimit="10"/><radialGradient id="m" cx="57.698" cy="48.972" r="18.51" gradientTransform="rotate(19.49 62.384 54.793)" gradientUnits="userSpaceOnUse"><stop stop-color="#F78C1F" offset=".364"/><stop stop-color="#F37F21" offset=".678"/><stop stop-color="#ED6D23" offset="1"/></radialGradient><path d="M53.98 73.75c-.76-2.79-2.98-11.88-1.59-18.67 1.54-7.54 3.07-9.69 5.06-11.91 3.08-3.42 6.35-4.35 8.73-5.03.47-.13.91-.26 1.31-.39 3.38-1.11 10.9-1.37 13.27-1.42-1.96 5.58-1.89 9.93-1.79 11.31-3.74.82-4.45 1.9-4.57 2.37-.41.81-3.45 7.5 3.95 15.15-4.06.26-17.48 1.59-24.37 8.59z" fill="url(#m)"/><path d="M80.05 36.86c-1.59 4.85-1.68 8.71-1.61 10.4-3.36.81-4.31 1.87-4.52 2.58-.55 1.07-3.34 7.42 3.34 14.92-1.87.15-4.75.49-7.98 1.19-6.61 1.44-11.66 3.74-15.04 6.85-.88-3.43-2.62-11.49-1.37-17.61 1.52-7.42 3-9.52 4.94-11.67 2.98-3.31 6.04-4.18 8.5-4.88.48-.14.92-.26 1.33-.4 3.03-1 9.52-1.3 12.41-1.38m1.43-1.04zm0 0s-10.02.1-14.15 1.46c-2.48.82-6.49 1.36-10.26 5.56-2.16 2.4-3.65 4.7-5.18 12.14-1.69 8.29 1.84 19.76 1.84 19.76 7.65-8.7 25.77-9.12 25.77-9.12-8.76-8.29-4.64-15.43-4.64-15.43s.08-1.22 4.63-2.14c.01 0-.63-5.25 1.99-12.23z" fill="#DA6727"/></svg>