<svg viewBox="0 0 128 128" width="128" height="128" xmlns="http://www.w3.org/2000/svg" xmlns:xlink="http://www.w3.org/1999/xlink"><linearGradient id="a" x1="-10388" x2="-10388" y1="-3234.2" y2="-3146.4" gradientTransform="rotate(180 -5162 -1563)" gradientUnits="userSpaceOnUse"><stop stop-color="#018CE3" offset="0"/><stop stop-color="#0C9BE4" offset=".107"/><stop stop-color="#28C2E5" offset=".428"/><stop stop-color="#3ADAE7" offset=".683"/><stop stop-color="#40E3E7" offset=".841"/></linearGradient><path d="M64 119.75c-15.44 0-29.74-5.11-40.25-14.39C12.24 95.2 6.15 80.9 6.15 64c0-16.82 6.08-31.09 17.6-41.28C34.29 13.39 48.59 8.25 64 8.25c27.86 0 57.85 17.45 57.85 55.75S91.86 119.75 64 119.75z" fill="url(#a)"/><path d="M64 10.25c15 0 28.83 4.9 38.94 13.78C114 33.76 119.85 47.58 119.85 64c0 16.49-5.85 30.34-16.91 40.04-10.08 8.84-23.91 13.71-38.94 13.71-14.95 0-28.78-4.93-38.93-13.89C14 94.09 8.15 80.31 8.15 64c0-16.23 5.85-29.99 16.92-39.78C35.25 15.21 49.08 10.25 64 10.25m0-4C32.93 6.25 4.15 26.92 4.15 64c0 37.28 28.78 57.75 59.85 57.75s59.85-19.96 59.85-57.75c0-37.59-28.78-57.75-59.85-57.75z" fill="#008CE3"/><path d="M82.74 46.44c4.19 0 8 3.54 8 9.42s-3.81 9.42-8 9.42-8-3.54-8-9.42 3.81-9.42 8-9.42zM45.2 46.44c-4.19 0-8 3.54-8 9.42s3.81 9.42 8 9.42 8-3.54 8-9.42-3.81-9.42-8-9.42z" fill="#242424"/><path d="M35.47 101.24c-6.6 0-11.98-5.37-11.98-11.98v-.66c0-6.6 5.37-11.98 11.98-11.98h57.06c6.6 0 11.98 5.37 11.98 11.98v.66c0 6.6-5.37 11.98-11.98 11.98H35.47z" fill="#fff"/><path d="M92.53 78.62c5.5 0 9.98 4.48 9.98 9.98v.66c0 5.5-4.48 9.98-9.98 9.98H35.47c-5.5 0-9.98-4.48-9.98-9.98v-.66c0-5.5 4.48-9.98 9.98-9.98h57.06m0-4H35.47c-7.69 0-13.98 6.29-13.98 13.98v.66c0 7.69 6.29 13.98 13.98 13.98h57.06c7.69 0 13.98-6.29 13.98-13.98v-.66c0-7.69-6.29-13.98-13.98-13.98z" fill="#018CE3"/><defs><path id="b" d="M93.86 78.67c4.76 0 8.64 4.6 8.64 10.25s-3.87 10.25-8.64 10.25H34.14c-4.76 0-8.64-4.6-8.64-10.25s3.87-10.25 8.64-10.25h59.72"/></defs><clipPath id="c"><use xlink:href="#b"/></clipPath><path clip-path="url(#c)" fill="none" stroke="#B3B3B0" stroke-miterlimit="10" stroke-width="4" d="M16.4 88.93h95.2M37.02 73.66v30.53M50.76 73.66v30.53M64.51 73.66v30.53M78.25 73.66v30.53M92 73.66v30.53"/><path d="M51.1 29.55s-.01.28-.05.77c-.02.13-.01.24-.05.42-.03.18-.09.37-.14.58s-.11.43-.17.67c-.07.22-.16.43-.24.66-.16.47-.39.95-.66 1.44-.26.5-.59.99-.95 1.49-.39.47-.77.99-1.24 1.42-.45.47-.96.87-1.47 1.29-.55.36-1.08.74-1.65 1.04-.55.33-1.16.55-1.72.79-.58.2-1.15.38-1.7.49-.55.12-1.08.2-1.57.23-.49.06-.94.05-1.34.02-.4-.01-.74-.05-1.03-.1-.57-.1-.88-.18-.88-.18-.95-.24-1.54-1.2-1.3-2.15.15-.62.62-1.09 1.19-1.27l.3-.09s.24-.07.64-.17c.2-.04.44-.12.71-.2.27-.07.57-.17.89-.29.32-.1.66-.26 1.02-.4.36-.13.71-.35 1.09-.52.37-.21.75-.41 1.12-.65.39-.21.73-.5 1.1-.75.35-.28.72-.53 1.03-.84.33-.29.64-.59.94-.88.26-.32.58-.6.81-.9.24-.3.48-.58.67-.86.21-.29.38-.52.51-.72.07-.1.14-.2.21-.29.07-.1.13-.24.19-.34.23-.43.38-.68.38-.68.52-.86 1.64-1.14 2.5-.62.56.33.88.96.86 1.59zM80.28 28.56s.15.24.38.68c.06.1.12.25.19.34s.14.19.21.29c.13.2.3.43.51.72.19.28.43.56.67.86.23.31.54.58.81.9.3.29.61.6.94.88.31.31.68.56 1.03.84.37.25.72.54 1.1.75.37.24.75.45 1.12.65.38.16.74.38 1.09.52.36.14.69.3 1.02.4.32.12.62.22.89.29.27.08.51.16.71.2.4.1.64.17.64.17l.29.09c.94.29 1.46 1.29 1.16 2.23a1.77 1.77 0 0 1-1.27 1.19s-.31.08-.88.18c-.28.06-.63.09-1.03.1-.4.03-.85.04-1.34-.02-.5-.02-1.02-.1-1.57-.23-.56-.1-1.12-.29-1.7-.49-.56-.24-1.17-.45-1.72-.79-.57-.3-1.11-.68-1.65-1.04-.5-.42-1.02-.82-1.47-1.29-.48-.43-.85-.95-1.24-1.42-.36-.5-.7-.99-.95-1.49-.27-.49-.5-.97-.66-1.44-.09-.23-.18-.44-.24-.66-.06-.23-.12-.46-.17-.67s-.1-.4-.14-.58c-.03-.17-.03-.29-.05-.42-.04-.49-.05-.77-.05-.77-.03-1.01.77-1.84 1.77-1.87.67 0 1.27.36 1.6.9z" fill="#6D4C41" stroke="#6D4C41" stroke-miterlimit="10" opacity=".5"/><linearGradient id="d" x1="38.564" x2="44.415" y1="8.423" y2="23.05" gradientUnits="userSpaceOnUse"><stop stop-color="#fff" offset="0"/><stop stop-color="#F6FCFF" offset=".215"/><stop stop-color="#DEF3FF" offset=".565"/><stop stop-color="#B7E4FF" offset="1"/></linearGradient><path d="M9.69 44.76c-.33 0-.87 0-1.27-1.22-1.61-4.96.87-12.23 3.15-15.8 2.07-3.25 3.74-3.76 7.06-4.76.71-.22 1.49-.45 2.33-.73 2.92-.97 5.61-4.18 8.46-7.58 2.55-3.05 5.2-6.2 8.15-8.05 2.22-1.39 5.2-2.06 9.12-2.06 3.52 0 7.15.54 10.36 1.01 1.13.17 2.19.32 3.16.45.89.11 1.97.16 3.51.16.81 0 1.68-.01 2.58-.03.96-.02 1.97-.03 3-.03 6.94 0 13.56.74 14.9 6.1.48 1.94.37 3.39-.35 4.31-.93 1.19-3.02 1.79-6.22 1.79-2.32 0-4.84-.32-6.86-.57l-.4-.05c-.62-.08-1.29-.12-1.97-.12-6.22 0-13.61 3.18-19.01 5.51l-.98.42c-1.6.69-3.51.81-5.71.95-4.94.31-11.09.7-17.56 7.78C15.2 43.13 11.19 44.76 9.69 44.76z" fill="url(#d)"/><path d="M46.7 6.05c3.41 0 6.99.53 10.14 1 1.13.17 2.2.33 3.2.45.96.12 2.1.17 3.69.17.82 0 1.7-.01 2.61-.03.96-.02 1.95-.03 2.97-.03 8.67 0 12.56 1.44 13.44 4.97.21.83.47 2.32-.08 3.02-.28.36-1.35 1.21-5.03 1.21-2.22 0-4.69-.31-6.68-.56l-.4-.05c-.69-.09-1.41-.13-2.16-.13-6.53 0-14.09 3.26-19.6 5.63l-.97.42c-1.36.58-3.15.7-5.22.83-4.94.31-11.7.74-18.57 8.27-9.49 10.39-13.1 11.83-14.12 12.01-.02-.04-.04-.1-.06-.16-1.31-4.02.53-10.68 2.99-14.53 1.77-2.78 2.98-3.15 6.23-4.13.7-.21 1.5-.45 2.37-.74 3.33-1.11 6.15-4.48 9.14-8.04 2.48-2.96 5.04-6.02 7.8-7.74 1.96-1.24 4.68-1.84 8.31-1.84m0-3c-3.62 0-7.14.55-9.91 2.29-6.52 4.07-11.4 13.85-16.29 15.48s-7.33 1.63-10.18 6.11C7.76 30.94 5.23 38.57 7 44c.5 1.53 1.41 2.26 2.69 2.26 3.28 0 9.01-4.74 16.56-13.01 8.93-9.78 17.05-5.91 22.75-8.36 5.2-2.23 13.1-5.81 19.4-5.81.61 0 1.21.03 1.79.11 2.17.27 4.89.63 7.45.63 5.13 0 9.65-1.45 8.03-7.97-1.63-6.52-9.41-7.24-16.35-7.24-1.98 0-3.9.06-5.58.06-1.26 0-2.39-.03-3.32-.15-3.75-.46-8.84-1.47-13.72-1.47z" fill="#5CC5FF"/><linearGradient id="e" x1="5.085" x2="31.831" y1="63.418" y2="63.418" gradientUnits="userSpaceOnUse"><stop stop-color="#fff" offset="0"/><stop stop-color="#F6FCFF" offset=".215"/><stop stop-color="#DEF3FF" offset=".565"/><stop stop-color="#B7E4FF" offset="1"/></linearGradient><path d="M20.65 77.34c-.37 0-.71-.14-.97-.4l-.96-.96a.386.386 0 0 0-.54 0l-.96.96c-.26.26-.61.4-.97.4s-.71-.14-.97-.4l-.93-.9c-.54-.54-.54-1.41-.01-1.95l1.6-1.6c.27-.31.45-.73.47-1.17v-4.36l-3.81 2.19c-.35.23-.62.59-.76 1.01l-.56 2.15c-.16.6-.71 1.03-1.33 1.03-.12 0-.24-.02-.36-.05l-1.27-.34c-.73-.2-1.17-.95-.98-1.69l.36-1.34c.04-.2-.08-.39-.27-.44l-1.45-.39-.01-.01c-.29-.11-.54-.32-.7-.6-.18-.32-.23-.69-.14-1.05l.34-1.27c.16-.6.71-1.02 1.33-1.02.12 0 .24.02.36.05l2.2.59c.1.02.23.03.37.03.31 0 .61-.07.89-.21l3.77-2.18-3.8-2.21c-.25-.13-.56-.2-.86-.2-.13 0-.27.01-.4.04l-2.17.58c-.12.03-.25.05-.37.05-.62 0-1.16-.42-1.33-1.01l-.34-1.27c-.1-.36-.05-.73.14-1.05s.48-.55.84-.64l.95-.25v-.01l.38-.09c.19-.05.31-.26.26-.46l-.35-1.32c-.19-.74.25-1.49.98-1.69l1.27-.34c.12-.03.24-.05.36-.05.62 0 1.17.42 1.33 1.03l.58 2.17c.13.41.41.78.78 1.03l3.77 2.18.01-4.39c-.02-.41-.2-.84-.49-1.17l-1.57-1.57c-.53-.54-.53-1.41 0-1.94l.94-.94c.26-.26.61-.4.97-.4s.71.14.97.4l.96.96a.386.386 0 0 0 .54 0l.96-.96c.26-.26.61-.4.97-.4s.71.14.97.4l.94.94c.53.54.53 1.41 0 1.94l-1.59 1.59c-.27.31-.45.73-.47 1.17v4.33l3.81-2.19c.35-.23.62-.59.76-1.01l.54-2.09v-.14l.06-.06a1.369 1.369 0 0 1 1.65-.83l1.21.33h.05l.11.05c.26.06.56.29.75.61.18.32.23.69.14 1.05l-.33 1.25v.09l-.03.04c-.01.18.1.35.28.4l1.32.35c.73.2 1.17.95.98 1.69l-.38 1.4-.01.01a1.369 1.369 0 0 1-1.65.83l-2.17-.59c-.1-.02-.23-.03-.37-.03-.31 0-.61.07-.89.21l-3.77 2.18 3.8 2.21c.25.12.55.2.86.2.13 0 .27-.01.4-.04l2.14-.58c.12-.03.24-.05.35-.05.62 0 1.17.42 1.33 1.02l.36 1.25c.2.75-.24 1.5-.98 1.7l-1.32.35c-.1.03-.18.09-.23.18s-.06.19-.04.29l.37 1.39c.07.34.02.68-.16.98-.19.32-.48.55-.84.64l-1.34.36a1.38 1.38 0 0 1-1.62-.99l-.58-2.17c-.13-.41-.41-.78-.78-1.02l-3.77-2.18-.01 4.39c.02.41.2.84.49 1.16l1.57 1.57c.53.54.53 1.41 0 1.94l-.94.94c-.27.24-.62.38-.99.38z" fill="url(#e)"/><path d="M20.65 49.99c.22 0 .45.09.62.26l.93.94c.34.34.34.9 0 1.24l-1.59 1.59c-.37.41-.59.94-.62 1.5v4.36c0 .34.17.54.42.54.1 0 .22-.03.34-.1l3.8-2.19c.47-.3.81-.76.99-1.29l.57-2.18a.876.876 0 0 1 1.08-.62l1.27.34c.47.13.75.61.62 1.07l-.35 1.32c-.12.47.16.95.62 1.07l1.32.35c.47.13.75.61.62 1.07l-.34 1.27a.876.876 0 0 1-1.08.62l-2.17-.59c-.16-.03-.33-.05-.5-.05-.38 0-.77.09-1.11.27l-3.8 2.19c-.13.05-.24.15-.28.28-.09.24.04.51.28.59l3.8 2.19a2.546 2.546 0 0 0 1.62.21l2.17-.58c.07-.02.15-.03.22-.03.39 0 .74.26.85.65l.36 1.26a.88.88 0 0 1-.62 1.07l-1.32.35c-.47.13-.75.61-.62 1.07l.35 1.32a.88.88 0 0 1-.62 1.07l-1.27.34a.885.885 0 0 1-1.08-.62L25.54 70c-.17-.54-.52-1-.99-1.31l-3.8-2.19a.688.688 0 0 0-.34-.1c-.25 0-.42.2-.42.54v4.39c.03.55.25 1.08.62 1.5l1.59 1.59c.34.34.34.9 0 1.24l-.93.94c-.17.17-.4.26-.62.26s-.45-.09-.62-.26l-.96-.96c-.17-.17-.4-.26-.62-.26s-.45.09-.62.26l-.96.96c-.17.17-.4.26-.62.26s-.45-.09-.62-.26l-.94-.91a.881.881 0 0 1 0-1.24l1.59-1.59c.37-.41.59-.94.62-1.5v-4.39c0-.34-.17-.54-.42-.54-.1 0-.22.03-.34.1l-3.8 2.19c-.47.3-.81.76-.99 1.29l-.57 2.18a.876.876 0 0 1-1.08.62l-1.27-.34a.873.873 0 0 1-.62-1.07l.35-1.32A.832.832 0 0 0 7.57 69l-1.32-.35a.873.873 0 0 1-.62-1.07l.34-1.27a.876.876 0 0 1 1.08-.62l2.19.59c.16.03.33.05.5.05.38 0 .77-.09 1.11-.27l3.8-2.19c.13-.05.24-.15.28-.28a.456.456 0 0 0-.28-.59l-3.8-2.19a2.424 2.424 0 0 0-1.61-.22l-2.19.58h-.01a.888.888 0 0 1-1.08-.61l-.34-1.27a.88.88 0 0 1 .62-1.07l1.32-.35c.47-.13.75-.61.62-1.07l-.35-1.32a.88.88 0 0 1 .62-1.07l1.27-.34a.885.885 0 0 1 1.08.62l.58 2.17c.17.54.52 1.01.99 1.32l3.8 2.19c.12.07.24.1.34.1.25 0 .42-.2.42-.54v-4.39c-.03-.56-.25-1.09-.62-1.5l-1.59-1.59a.881.881 0 0 1 0-1.24l.93-.94c.17-.17.4-.26.62-.26s.45.09.62.26l.96.96c.17.17.4.26.62.26s.45-.09.62-.26l.96-.96c.16-.19.38-.28.6-.28m0-1c-.5 0-.97.19-1.32.55l-.87.87-.87-.87c-.36-.35-.83-.55-1.33-.55s-.97.19-1.32.55l-.94.94c-.73.73-.73 1.92 0 2.65l1.57 1.57c.2.24.33.54.35.85v3.5L12.9 57.3a1.38 1.38 0 0 1-.56-.76l-.57-2.13c-.22-.82-.96-1.39-1.81-1.39-.16 0-.32.02-.48.06l-1.28.34c-.48.13-.89.44-1.14.87s-.32.94-.19 1.42l.32 1.2-1.2.32c-1 .26-1.6 1.29-1.33 2.3L5 60.81c.23.82.97 1.38 1.81 1.38.17 0 .34-.02.5-.07l2.16-.58c.09-.02.18-.03.27-.03.22 0 .44.05.64.15l3.03 1.75-3.03 1.75c-.2.1-.42.15-.64.15-.09 0-.18-.01-.27-.03l-2.16-.58c-.16-.04-.32-.06-.49-.06-.85 0-1.59.57-1.81 1.39l-.34 1.27C4.4 68.3 5 69.33 6 69.6l1.2.32-.32 1.2c-.13.48-.06.99.19 1.42s.66.74 1.14.87l1.27.34c.16.04.32.06.49.06.85 0 1.59-.57 1.81-1.39l.56-2.16c.1-.29.3-.55.56-.72l3.03-1.75v3.5c-.02.31-.15.61-.35.84L14 73.73c-.73.73-.73 1.92 0 2.65l.95.92c.35.34.82.54 1.32.54s.97-.19 1.32-.55l.87-.87.87.87c.36.35.83.55 1.33.55s.97-.19 1.32-.55l.94-.94c.73-.73.73-1.92 0-2.65l-1.57-1.57c-.2-.24-.33-.53-.35-.84v-3.5l3.03 1.75c.27.18.47.45.56.76l.57 2.13c.22.82.96 1.39 1.81 1.39.16 0 .32-.02.48-.06l1.28-.34c.48-.13.89-.44 1.14-.87s.32-.94.19-1.42l-.32-1.2 1.2-.32c.48-.13.89-.44 1.14-.87s.32-.94.19-1.42l-.37-1.28a1.878 1.878 0 0 0-2.29-1.32l-2.14.58a1.432 1.432 0 0 1-.92-.12l-3.03-1.75 3.03-1.75c.2-.1.42-.15.64-.15.09 0 .18.01.27.03l2.14.58c.16.04.33.06.49.06.85 0 1.59-.57 1.81-1.39l.34-1.27c.13-.49.06-.99-.19-1.43-.25-.43-.66-.74-1.14-.87l-1.2-.32.32-1.2c.13-.48.06-.99-.19-1.42s-.66-.74-1.14-.87l-1.27-.34c-.14-.07-.31-.09-.47-.09-.85 0-1.59.57-1.81 1.39l-.56 2.16c-.1.29-.3.55-.56.72L21 59.02v-3.47c.02-.31.15-.61.35-.84l1.57-1.57c.73-.73.73-1.92 0-2.65l-.94-.94a1.87 1.87 0 0 0-1.33-.56z" fill="#4AA8FF"/><linearGradient id="f" x1="39.782" x2="58.51" y1="105.4" y2="105.4" gradientTransform="rotate(-18.594 69.165 108.816)" gradientUnits="userSpaceOnUse"><stop stop-color="#fff" offset="0"/><stop stop-color="#F6FCFF" offset=".215"/><stop stop-color="#DEF3FF" offset=".565"/><stop stop-color="#B7E4FF" offset="1"/></linearGradient><path d="M50.43 121.73c-.17 0-.34-.04-.49-.11l-.8-.38c-.55-.27-.77-.94-.5-1.48l.69-1.39c.09-.22.11-.5.04-.76l-.87-2.59-1.82 2.07c-.15.19-.24.45-.24.72l.11 1.52c.02.3-.08.58-.27.8s-.46.35-.76.37l-.91.06c-.65 0-1.13-.45-1.17-1.03l-.06-.94c0-.05-.05-.1-.1-.1l-.95.06c-.65 0-1.13-.45-1.17-1.03l-.05-.9c-.04-.61.42-1.13 1.03-1.17l1.56-.09c.24-.03.49-.15.68-.35l1.81-2.06-2.71-.54c-.03 0-.09-.01-.15-.01-.21 0-.42.06-.6.16l-1.28.85a1.104 1.104 0 0 1-1.54-.3l-.5-.76c-.34-.51-.2-1.2.31-1.53l.78-.52c.05-.03.06-.1.03-.15l-.53-.78c-.34-.51-.2-1.2.31-1.53l.75-.5c.18-.12.39-.18.61-.18.37 0 .72.18.92.5l.86 1.29c.15.21.38.37.65.44l2.67.54-.88-2.62c-.09-.22-.27-.44-.51-.57l-1.37-.68c-.54-.27-.76-.94-.5-1.48l.4-.82c.19-.38.57-.61.99-.61.17 0 .34.04.49.11l.83.41h.04c.05 0 .08-.02.1-.05l.41-.83c.19-.38.57-.61.99-.61.17 0 .34.04.49.11l.82.41c.54.27.76.93.5 1.48l-.69 1.39c-.09.22-.11.5-.04.76l.86 2.57 1.82-2.07c.15-.19.24-.45.24-.72l-.11-1.52c-.02-.3.08-.58.27-.8.2-.22.47-.35.76-.37l.91-.06c.65 0 1.13.45 1.17 1.03l.06.94c0 .05.05.1.1.1l.95-.06c.65 0 1.13.45 1.17 1.03l.05.9c.04.61-.42 1.13-1.03 1.17l-1.55.09c-.24.03-.49.15-.68.35l-1.81 2.06 2.71.54c.03 0 .09.01.14.01.21 0 .42-.06.61-.17l1.26-.84c.18-.12.39-.18.61-.18.37 0 .72.18.92.49l.5.73c.17.26.23.55.17.84s-.23.54-.47.7l-.78.52c-.05.03-.06.1-.03.15l.52.78a1.11 1.11 0 0 1-.31 1.53l-.75.5c-.18.12-.39.18-.61.18a1.1 1.1 0 0 1-.92-.5l-.86-1.29a1.15 1.15 0 0 0-.64-.43l-2.65-.53.88 2.62c.09.22.27.43.51.57l1.37.68c.54.27.76.94.5 1.48l-.4.82c-.19.38-.57.61-.99.61-.17 0-.34-.04-.49-.11l-.83-.41h-.04c-.05 0-.08.02-.1.05l-.42.83c-.2.36-.58.59-1 .59z" fill="url(#f)"/><path d="M47.79 102.68c.09 0 .18.02.27.06l.82.41c.3.15.42.51.27.81l-.69 1.39c-.15.35-.18.74-.08 1.11l.96 2.84c.06.18.18.28.3.28.09 0 .2-.05.29-.16l2-2.27c.24-.3.37-.67.36-1.06l-.11-1.55c-.02-.33.23-.62.57-.64l.9-.06h.04c.32 0 .58.25.6.57l.06.94a.6.6 0 0 0 .6.56h.04l.94-.06h.04c.32 0 .58.25.6.57l.06.9c.02.33-.23.62-.57.64l-1.55.09c-.38.05-.74.22-1 .49l-2 2.27c-.08.06-.12.15-.12.25 0 .18.14.32.32.32l2.96.6c.08.01.16.02.24.02.3 0 .6-.08.86-.23l1.29-.86a.596.596 0 0 1 .83.17l.51.74c.18.28.11.65-.17.84l-.78.52c-.28.18-.35.56-.17.84l.52.78c.18.28.11.65-.17.84l-.75.5c-.1.07-.22.1-.33.1-.2 0-.39-.1-.51-.27l-.86-1.29a1.73 1.73 0 0 0-.93-.64l-2.96-.6c-.04-.01-.08-.01-.12-.01-.25 0-.38.19-.28.47l.96 2.86c.14.36.4.65.73.84l1.39.69c.3.15.42.51.27.81l-.4.82a.609.609 0 0 1-.81.27l-.83-.41a.66.66 0 0 0-.27-.06c-.22 0-.44.12-.54.33l-.41.83a.609.609 0 0 1-.81.27l-.81-.39a.601.601 0 0 1-.27-.81l.69-1.39c.15-.35.18-.74.08-1.11l-.96-2.86c-.06-.18-.18-.28-.3-.28-.09 0-.2.05-.29.16l-2 2.27c-.24.3-.37.67-.36 1.06l.11 1.55c.02.33-.23.62-.57.64l-.9.06h-.04c-.32 0-.58-.25-.6-.57l-.06-.94a.61.61 0 0 0-.6-.57h-.04l-.94.06h-.04c-.32 0-.58-.25-.6-.57l-.06-.9c-.02-.33.23-.62.57-.64l1.56-.1c.38-.05.74-.22 1-.49l2-2.27c.08-.06.12-.15.12-.25 0-.18-.14-.32-.32-.32l-2.96-.6c-.08-.01-.16-.02-.24-.02-.3 0-.59.08-.85.23l-1.3.86h-.01c-.1.07-.22.1-.34.1-.19 0-.38-.09-.5-.27l-.5-.75a.61.61 0 0 1 .17-.84l.78-.52c.28-.18.35-.56.17-.84l-.52-.78a.61.61 0 0 1 .17-.84l.75-.5c.1-.07.22-.1.33-.1.2 0 .39.1.51.27l.86 1.29c.23.32.56.54.93.64l2.96.6c.04.01.08.01.12.01.25 0 .38-.19.28-.47l-.96-2.86c-.14-.36-.4-.65-.73-.84l-1.39-.69a.601.601 0 0 1-.27-.81l.4-.82a.609.609 0 0 1 .81-.27l.83.41c.09.04.18.06.27.06.22 0 .44-.12.54-.33l.41-.83c.09-.18.3-.3.53-.3m0-1c-.61 0-1.16.34-1.44.89l-.24.48-.48-.24c-.22-.11-.47-.17-.71-.17-.61 0-1.16.34-1.44.89l-.41.82c-.39.79-.07 1.75.72 2.15l1.36.68c.12.07.22.18.27.31l.59 1.76-1.82-.37a.697.697 0 0 1-.36-.25l-.84-1.26c-.3-.45-.8-.72-1.34-.72-.31 0-.62.09-.88.27l-.76.51c-.35.23-.6.59-.68 1.01-.09.42 0 .85.23 1.21l.3.46-.45.3a1.614 1.614 0 0 0-.46 2.23l.51.76c.3.45.8.71 1.33.71.32 0 .63-.1.9-.27l1.27-.84c.1-.06.22-.08.33-.08h.08l1.82.37-1.23 1.4c-.1.1-.23.16-.37.18l-1.53.09a1.6 1.6 0 0 0-1.5 1.7l.06.9c.05.85.76 1.51 1.6 1.51h.1l.55-.03.03.54c.05.84.76 1.5 1.6 1.5h.1l.9-.06c.43-.03.82-.22 1.1-.54s.42-.73.4-1.16l-.1-1.52c0-.14.05-.28.13-.39l1.23-1.39.59 1.76c.03.14.02.28-.03.41l-.67 1.36c-.39.79-.07 1.75.72 2.15l.83.4a1.61 1.61 0 0 0 2.14-.73l.24-.48.48.24c.22.11.47.17.71.17.61 0 1.16-.34 1.44-.89l.41-.82c.39-.79.07-1.75-.72-2.15l-1.36-.68a.681.681 0 0 1-.27-.31l-.59-1.76 1.82.37c.14.04.27.13.36.25l.83 1.26c.3.45.8.72 1.34.72.31 0 .62-.09.88-.27l.76-.51c.35-.23.6-.59.68-1.01.09-.42 0-.85-.23-1.21l-.3-.46.45-.3c.74-.49.94-1.48.45-2.22l-.52-.76a1.617 1.617 0 0 0-2.21-.44l-1.26.84c-.1.06-.22.09-.33.09h-.08l-1.82-.37 1.23-1.4c.1-.1.23-.16.37-.18l1.51-.09c.43-.03.82-.22 1.11-.54.28-.32.42-.73.4-1.16l-.06-.9c-.05-.85-.76-1.51-1.6-1.51h-.1l-.55.03-.03-.54c-.05-.84-.76-1.5-1.6-1.5h-.1l-.9.06a1.6 1.6 0 0 0-1.5 1.7l.1 1.52c0 .14-.05.28-.13.39l-1.23 1.39-.59-1.74a.715.715 0 0 1 .03-.41l.67-1.36c.39-.79.07-1.75-.72-2.15l-.82-.41c-.22-.13-.46-.19-.7-.19z" fill="#4AA8FF"/><linearGradient id="g" x1="85.585" x2="116.48" y1="39.07" y2="39.07" gradientTransform="rotate(30.548 107.15 56.493)" gradientUnits="userSpaceOnUse"><stop stop-color="#fff" offset="0"/><stop stop-color="#F6FCFF" offset=".215"/><stop stop-color="#DEF3FF" offset=".565"/><stop stop-color="#B7E4FF" offset="1"/></linearGradient><path d="M115.7 53.85c-.14 0-.27-.02-.41-.06l-1.48-.41c-.8-.22-1.26-1.06-1.04-1.85l.7-2.51c.12-.51.06-1.07-.18-1.56l-2.49-4.42c-.04-.08-.08-.11-.1-.12 0 .01-.04.04-.09.12l-2.59 4.4c-.23.45-.31 1-.21 1.52l.65 2.51c.2.8-.28 1.62-1.08 1.83l-1.49.38c-.12.03-.25.05-.37.05-.68 0-1.28-.46-1.45-1.12l-.39-1.52a.534.534 0 0 0-.52-.4c-.04 0-.09.01-.13.02l-1.52.39c-.12.03-.25.05-.37.05-.68 0-1.28-.46-1.45-1.12l-.4-1.46c-.21-.81.28-1.62 1.08-1.83l2.54-.65c.48-.15.93-.49 1.22-.93l2.58-4.37c.05-.08.05-.13.06-.15-.01 0-.06-.02-.14-.02l-5.1-.05c-.51.02-1.02.23-1.43.58l-1.89 1.88h-.01a1.49 1.49 0 0 1-2.06-.07l-1.01-1.03-.19-.1v-.12c-.19-.26-.3-.58-.29-.91 0-.4.16-.78.45-1.06l1.13-1.11c.1-.1.16-.24.16-.38s-.05-.28-.16-.38l-1.11-1.13c-.58-.59-.57-1.55.02-2.13l1.09-1.07a1.5 1.5 0 0 1 2.12.02l1.85 1.89c.38.34.89.56 1.43.59l5.07.05.1.49v-.48l-.03-.03.02-.13-2.5-4.44c-.28-.43-.71-.77-1.22-.95l-2.52-.7a1.507 1.507 0 0 1-1.07-1.84l.39-1.41v-.1l.04-.07c.21-.6.78-1.02 1.42-1.02.14 0 .27.02.41.06l1.52.43a.546.546 0 0 0 .67-.37l.43-1.53c.18-.65.78-1.1 1.45-1.1.14 0 .28.02.41.06l1.47.41c.39.11.71.36.91.71s.24.76.14 1.14l-.7 2.51c-.12.51-.06 1.07.18 1.56l2.49 4.42c.04.08.08.11.1.12 0-.01.04-.04.09-.12l2.59-4.39c.24-.45.31-1 .21-1.53l-.65-2.51c-.2-.8.28-1.62 1.08-1.83l1.49-.38c.12-.03.25-.05.37-.05.68 0 1.28.46 1.45 1.12l.39 1.53c.06.24.28.4.52.4.04 0 .09-.01.13-.02l1.52-.39c.12-.03.25-.05.37-.05.68 0 1.28.46 1.45 1.12l.38 1.5c.2.8-.28 1.62-1.08 1.83l-2.54.65c-.48.15-.93.49-1.22.93l-2.56 4.34c-.05.08-.05.13-.06.15.01 0 .06.01.14.02l5.1.05c.51-.02 1.02-.23 1.43-.58l1.84-1.83c.29-.28.66-.43 1.06-.43.41 0 .79.16 1.07.45l1.07 1.09c.28.29.44.67.43 1.07 0 .4-.16.78-.45 1.06l-1.13 1.11c-.21.21-.21.55-.01.76l1.11 1.13c.28.29.44.67.43 1.07 0 .4-.16.78-.45 1.06l-1.09 1.07c-.28.28-.66.43-1.05.43-.41 0-.79-.16-1.07-.45l-1.83-1.87a2.36 2.36 0 0 0-1.43-.59l-5.07-.05-.1-.49v.48l.03.03-.02.14 2.5 4.44c.28.43.72.77 1.23.94l2.49.69c.8.23 1.26 1.06 1.04 1.85l-.41 1.59-.01.01c-.22.58-.78.97-1.4.97-.14 0-.27-.02-.41-.06l-1.53-.43c-.05-.01-.1-.02-.15-.02-.24 0-.45.16-.52.39l-.41 1.46v.13l-.06.06c-.23.58-.79.97-1.41.97z" fill="url(#g)"/><path d="M105.78 23.38c.09 0 .18.01.28.04l1.47.41c.54.15.86.72.71 1.26l-.7 2.52c-.15.64-.08 1.31.21 1.9l2.5 4.44c.14.25.32.37.51.37.18 0 .37-.12.51-.36l2.59-4.39c.3-.57.39-1.23.27-1.87l-.65-2.54c-.14-.54.19-1.1.73-1.24l1.49-.38a1.024 1.024 0 0 1 1.24.73l.39 1.52c.12.46.53.76.99.76.08 0 .17-.01.25-.03l1.52-.39a1.024 1.024 0 0 1 1.24.73l.38 1.49c.14.54-.19 1.1-.73 1.24l-2.54.65c-.62.2-1.15.6-1.5 1.13l-2.58 4.36c-.29.48-.06.88.5.89l5.1.05c.65-.03 1.26-.28 1.75-.7l1.86-1.85c.2-.2.46-.29.72-.29s.53.1.73.31l1.07 1.09c.39.4.39 1.05-.01 1.44l-1.13 1.11c-.4.4-.41 1.04-.01 1.44l1.11 1.13c.39.4.39 1.05-.01 1.44l-1.09 1.07c-.2.2-.46.29-.72.29s-.53-.1-.73-.31l-1.83-1.87c-.48-.44-1.09-.69-1.74-.74l-5.1-.05c-.03-.01-.07-.01-.1-.01-.13 0-.25.04-.35.13a.54.54 0 0 0-.07.76l2.5 4.44c.35.55.88.96 1.49 1.17l2.52.7c.54.15.86.72.7 1.26l-.38 1.47a1.023 1.023 0 0 1-1.26.7l-1.53-.43a.842.842 0 0 0-.27-.04c-.45 0-.86.3-.98.75l-.43 1.53a1.023 1.023 0 0 1-1.26.7l-1.47-.41c-.54-.15-.86-.72-.71-1.26l.7-2.52c.15-.64.07-1.31-.21-1.9l-2.5-4.44c-.14-.25-.32-.37-.51-.37-.18 0-.37.12-.51.36l-2.59 4.39c-.3.57-.39 1.23-.26 1.86l.65 2.58c.14.54-.19 1.1-.73 1.24l-1.49.38a1.024 1.024 0 0 1-1.24-.73l-.39-1.52c-.12-.46-.53-.76-.99-.76-.08 0-.17.01-.25.03l-1.52.39a1.024 1.024 0 0 1-1.24-.73l-.4-1.46c-.14-.54.19-1.1.73-1.24l2.54-.65c.62-.2 1.15-.6 1.5-1.13l2.59-4.39c.29-.48.06-.88-.5-.89l-5.1-.05c-.65.03-1.26.28-1.75.7l-1.86 1.85c-.2.2-.46.29-.72.29s-.53-.1-.73-.31l-1.07-1.09c-.39-.4-.39-1.05.01-1.44l1.13-1.11c.4-.4.41-1.04.01-1.44l-1.11-1.13c-.39-.4-.39-1.05.01-1.44l1.09-1.07c.2-.2.46-.29.72-.29s.53.1.73.31l1.85 1.89c.48.44 1.09.69 1.74.74l5.1.05c.03.01.07.01.1.01.13 0 .25-.04.35-.13a.54.54 0 0 0 .07-.76l-2.5-4.44c-.35-.55-.87-.96-1.49-1.17l-2.54-.71h-.01c-.54-.15-.87-.71-.72-1.25l.41-1.47a1.023 1.023 0 0 1 1.26-.7l1.53.43c.09.03.18.04.27.04.45 0 .86-.3.98-.75l.43-1.53c.13-.5.54-.79.98-.79m0-.97c-.89 0-1.67.6-1.91 1.45l-.43 1.53a.06.06 0 0 1-.05.04l-1.54-.43c-.17-.05-.36-.07-.54-.07-.89 0-1.67.6-1.91 1.45l-.41 1.48c-.29 1.06.34 2.15 1.4 2.44l2.51.7c.39.14.72.4.95.75l2.17 3.85-4.42-.04c-.41-.03-.8-.2-1.11-.47l-1.82-1.87c-.38-.38-.88-.6-1.42-.6-.52 0-1.02.2-1.39.57l-1.09 1.07c-.38.37-.59.87-.6 1.4 0 .53.2 1.03.57 1.41l1.11 1.13c.02.02.02.06 0 .08l-1.13 1.11c-.78.77-.79 2.03-.02 2.81l1.07 1.09c.38.38.88.6 1.42.6.52 0 1.02-.2 1.39-.57l1.84-1.83c.31-.27.7-.42 1.11-.45l4.42.04-2.25 3.81c-.23.34-.57.59-.96.72l-2.51.65a2 2 0 0 0-1.43 2.41l.4 1.48a1.992 1.992 0 0 0 2.41 1.41l1.53-.39c.02 0 .05.01.06.04l.39 1.52a1.988 1.988 0 0 0 2.41 1.43l1.49-.38a2 2 0 0 0 1.43-2.41l-.65-2.51c-.07-.4-.01-.82.17-1.19l2.25-3.81 2.17 3.84c.18.38.23.82.13 1.23l-.69 2.48c-.14.51-.08 1.04.18 1.51.26.46.68.8 1.19.94l1.48.41a1.992 1.992 0 0 0 2.44-1.38l.43-1.53a.06.06 0 0 1 .05-.04l1.54.43c.17.05.36.07.54.07.89 0 1.67-.6 1.91-1.45l.39-1.49c.29-1.03-.33-2.13-1.37-2.43l-2.49-.69c-.39-.14-.73-.4-.95-.74l-2.17-3.85 4.42.04c.41.03.8.2 1.11.47l1.81 1.85c.38.39.88.6 1.42.6.52 0 1.02-.2 1.39-.57l1.09-1.07c.78-.77.79-2.03.03-2.81l-1.11-1.13a.06.06 0 0 1 0-.08l1.13-1.11c.38-.37.59-.87.59-1.4s-.2-1.03-.57-1.41l-1.07-1.09c-.38-.38-.88-.6-1.42-.6-.52 0-1.02.2-1.39.57l-1.84 1.83c-.31.27-.7.42-1.11.45l-4.42-.04 2.23-3.78c.23-.34.57-.59.96-.72l2.51-.65a2 2 0 0 0 1.43-2.41l-.38-1.49a1.988 1.988 0 0 0-2.41-1.43l-1.53.39c-.02 0-.05-.01-.06-.04l-.39-1.52a1.988 1.988 0 0 0-2.41-1.43l-1.49.38a2 2 0 0 0-1.43 2.41l.65 2.51c.07.4.01.82-.17 1.19l-2.25 3.81-2.17-3.84c-.18-.38-.23-.82-.13-1.23l.69-2.48a1.99 1.99 0 0 0-1.37-2.45l-1.48-.41c-.19-.04-.37-.07-.55-.07z" fill="#4AA8FF"/></svg>