<svg viewBox="0 0 128 128" width="128" height="128" xmlns="http://www.w3.org/2000/svg" xmlns:xlink="http://www.w3.org/1999/xlink"><path d="M-45.57 37.65V49.3c-1.12.45-1.9 1.55-1.9 2.82v2.86c0 1.52 1.11 2.8 2.61 3.01 6.31.9 11.07 6.39 11.07 12.76v70.96c0 5.14-4.18 9.32-9.32 9.32h-16.16c-5.14 0-9.32-4.18-9.32-9.32V70.75c0-6.37 4.76-11.86 11.07-12.76 1.5-.21 2.61-1.5 2.61-3.01v-2.86c0-1.28-.79-2.37-1.9-2.82V37.65h11.24m1.35-3.05h-13.95c-.94 0-1.7.76-1.7 1.7v14.13c0 .94.76 1.7 1.7 1.7h.21v2.86c-7.73 1.11-13.68 7.74-13.68 15.77v70.96c0 6.83 5.54 12.37 12.37 12.37h16.16c6.83 0 12.37-5.54 12.37-12.37V70.75c0-8.04-5.95-14.67-13.68-15.77v-2.86h.21c.94 0 1.7-.76 1.7-1.7V36.3c-.02-.94-.78-1.7-1.71-1.7z" fill="#424242" opacity=".2"/><path d="M70.72 21.55H57.28c-.89 0-1.62-.73-1.62-1.62V5.62c0-.89.73-1.62 1.62-1.62h13.43c.89 0 1.62.73 1.62 1.62v14.31c.01.89-.72 1.62-1.61 1.62z" fill="#3E2723"/><path d="M72.31 8.29l-16.65-.05v.78h3.67c.48 1.59 2.38 2.79 4.67 2.79s4.19-1.19 4.67-2.79l3.64.05v-.78z" fill="#6D4C41"/><linearGradient id="a" x1="42.476" x2="85.524" y1="71.743" y2="71.743" gradientUnits="userSpaceOnUse"><stop stop-color="#E6E4D0" offset=".115"/><stop stop-color="#DEDCC9" offset=".302"/><stop stop-color="#C8C6B5" offset=".593"/><stop stop-color="#B5B3A4" offset=".792"/></linearGradient><path d="M81.49 124H46.51c-2.23 0-4.04-1.81-4.04-4.04v-83.6c0-9.32 7.55-16.87 16.87-16.87h9.31c9.32 0 16.87 7.55 16.87 16.87v83.61c0 2.22-1.8 4.03-4.03 4.03z" fill="url(#a)"/><linearGradient id="b" x1="42.489" x2="71.931" y1="74.661" y2="74.661" gradientUnits="userSpaceOnUse"><stop stop-color="#FFFDE7" offset=".126"/><stop stop-color="#F7F5E0" offset=".343"/><stop stop-color="#E1DFCC" offset=".681"/><stop stop-color="#D1CFBD" offset=".878"/></linearGradient><path d="M68.36 110.61H42.49v-71.9h25.87c1.97 0 3.57 1.6 3.57 3.57v64.76c0 1.97-1.6 3.57-3.57 3.57z" fill="url(#b)"/><defs><path id="c" d="M68.36 110.61H42.49v-71.9h25.87c1.97 0 3.57 1.6 3.57 3.57v64.76c0 1.97-1.6 3.57-3.57 3.57z"/></defs><clipPath id="d"><use xlink:href="#c"/></clipPath><g clip-path="url(#d)" opacity=".6"><path fill="#F57F17" d="M36.95 97.12h36.21v6.37H36.95z"/></g><g clip-path="url(#d)" opacity=".6"><path fill="#F9A825" d="M36.95 46.82h37.42v2.87H36.95z"/></g><linearGradient id="e" x1="77.22" x2="102.97" y1="74.661" y2="74.661" gradientUnits="userSpaceOnUse"><stop stop-color="#D1CFBD" offset=".122"/><stop stop-color="#E1DFCC" offset=".319"/><stop stop-color="#F7F5E0" offset=".657"/><stop stop-color="#FFFDE7" offset=".874"/></linearGradient><path d="M79.12 110.61h6.4v-71.9h-6.4c-1.05 0-1.89.85-1.89 1.89v68.1c-.01 1.06.84 1.91 1.89 1.91z" fill="url(#e)"/><path d="M69.29 7.05V19.9c0 1.43.99 2.66 2.38 2.97 6.26 1.4 10.81 7.07 10.81 13.48v83.61c0 .55-.44.99-.99.99H46.51c-.55 0-.99-.44-.99-.99v-83.6c0-6.42 4.54-12.09 10.81-13.48a3.048 3.048 0 0 0 2.38-2.97V7.05h10.58M70.72 4H57.28c-.89 0-1.62.73-1.62 1.62V19.9c-7.54 1.68-13.19 8.4-13.19 16.45v83.61c0 2.23 1.81 4.04 4.04 4.04h34.97c2.23 0 4.04-1.81 4.04-4.04v-83.6c0-8.05-5.64-14.77-13.19-16.45V5.62c.01-.89-.72-1.62-1.61-1.62z" fill="#424242" opacity=".2"/></svg>