<svg viewBox="0 0 128 128" width="128" height="128" xmlns="http://www.w3.org/2000/svg"><radialGradient id="a" cx="101.27" cy="107.24" r="18.735" gradientTransform="matrix(.8978 0 0 .9577 -31.796 5.244)" gradientUnits="userSpaceOnUse"><stop stop-color="#66371A" offset="0"/><stop stop-color="#562F17" offset=".478"/><stop stop-color="#402412" offset="1"/></radialGradient><ellipse cx="59.12" cy="107.95" rx="18.36" ry="16.14" fill="url(#a)"/><path d="M59.12 93.81c9.02 0 16.36 6.34 16.36 14.14s-7.34 14.14-16.36 14.14-16.36-6.34-16.36-14.14 7.34-14.14 16.36-14.14m0-2c-10.14 0-18.36 7.23-18.36 16.14s8.22 16.14 18.36 16.14 18.36-7.23 18.36-16.14-8.22-16.14-18.36-16.14z" fill="#212121" opacity=".29"/><radialGradient id="b" cx="85.652" cy="92.189" r="41.137" gradientTransform="matrix(.999 .0556 -.0326 .9205 -34.906 -4.883)" gradientUnits="userSpaceOnUse"><stop stop-color="#A15018" offset=".059"/><stop stop-color="#934A18" offset=".35"/><stop stop-color="#6D3A1A" offset=".9"/><stop stop-color="#66371A" offset="1"/></radialGradient><path d="M90.47 86.09c-1.95-13.44-8.53-12.37-6.38-26.33 1.18-7.68-17.89-7.12-26.48-7.02-8.32-.1-24.82-.65-23.64 7.02 2.14 13.97-4.43 12.89-6.38 26.33-3.09 21.25 14 33.26 31.35 33.34h.18c17.35-.08 34.44-12.09 31.35-33.34z" fill="url(#b)"/><path d="M84.09 67c1.18-6.78-17.89-6.29-26.48-6.21-8.32-.08-24.82-.58-23.64 6.21 1.74 10-3.88 7.42-5.79 16.5 0 0 8.12 20.46 30.94 20.46s30.92-20.31 30.92-20.31c-2.06-8.55-7.7-6.57-5.95-16.65z" fill="#212121" opacity=".29"/><path d="M62.78 54.69c10.69 0 17.06 1.1 18.93 3.28.38.44.5.88.41 1.49-1.33 8.69.59 12.26 2.63 16.04 1.46 2.71 2.97 5.52 3.75 10.88 1.18 8.11-.73 15.34-5.51 20.89-5.44 6.32-14.36 10.12-23.86 10.16h-.17c-9.51-.05-18.43-3.84-23.87-10.16-4.78-5.56-6.69-12.78-5.51-20.89.78-5.37 2.29-8.17 3.75-10.88 2.04-3.78 3.96-7.35 2.63-16.04-.11-.73.03-1.27.45-1.77 1.71-1.99 7.21-3 16.36-3 1.32 0 2.58.02 3.73.03l1.15.01 1.08-.01c1.2-.01 2.58-.03 4.05-.03m0-2c-1.93 0-3.7.03-5.17.05-1.42-.02-3.08-.05-4.85-.05-8.59 0-19.77.7-18.79 7.07 2.14 13.97-4.43 12.89-6.38 26.33-3.09 21.25 14 33.26 31.35 33.34h.18c17.35-.08 34.44-12.1 31.35-33.34-1.95-13.44-8.53-12.37-6.38-26.33.98-6.37-11.96-7.07-21.31-7.07z" fill="#212121" opacity=".29"/><radialGradient id="c" cx="45.88" cy="46.44" r="42.652" gradientTransform="matrix(1 0 0 .9591 0 7.265)" gradientUnits="userSpaceOnUse"><stop stop-color="#E8B28E" offset=".498"/><stop stop-color="#D29B75" offset=".634"/><stop stop-color="#B0764D" offset=".875"/><stop stop-color="#A3683E" offset="1"/></radialGradient><ellipse cx="59.12" cy="67.95" rx="33.44" ry="29.02" fill="url(#c)"/><ellipse cx="59.69" cy="73.14" rx="19.26" ry="16.25" fill="#A15018" opacity=".66"/><linearGradient id="d" x1="97.12" x2="97.12" y1="83.358" y2="41.16" gradientTransform="translate(-38)" gradientUnits="userSpaceOnUse"><stop stop-color="#90A4AE" offset="0"/><stop stop-color="#A0B1BA" offset=".266"/><stop stop-color="#C9D3D8" offset=".782"/><stop stop-color="#CFD8DC" offset=".849"/></linearGradient><path d="M59.12 41.94c16.14 0 29.26 11.22 29.26 25.02S75.26 91.97 59.12 91.97 29.86 80.75 29.86 66.95s13.12-25.01 29.26-25.01m0-3.01c-18.47 0-33.44 12.99-33.44 29.02s14.97 29.02 33.44 29.02 33.44-12.99 33.44-29.02-14.97-29.02-33.44-29.02z" fill="url(#d)"/><path d="M40.43 73.14c.05-2.47 1.04-10.49 7.03-13.53 3.86-1.96 9.31.67 14.42 1.12 6.13.55 9.86 2.97 10.65 3.44 1.35.79 2.56 1.52 3.54 2.78 2.27 2.95 2.27 8.9 2 10.11-1.68 7.58-10.2 12.34-18.37 12.34-2.25 0-4.5-.33-6.63-.98-3.8-1.17-7.21-3.41-9.44-6.43-1.08-1.48-3.28-4.55-3.2-8.85z" fill="#998C2E"/><radialGradient id="e" cx="106.85" cy="79.046" r="7.215" gradientTransform="matrix(.9863 -.5557 .4769 .8764 -74.035 70.724)" gradientUnits="userSpaceOnUse"><stop stop-color="#584E00" offset=".329"/><stop stop-color="#6D6000" offset=".624"/><stop stop-color="#7F7000" offset=".838"/><stop stop-color="#7F7000" stop-opacity=".4" offset="1"/></radialGradient><path d="M65.38 73.93c-1 .53-1.84 1.13-2.39 1.7-.75.78-1.41 1.69-1.76 2.79s-.36 2.42.15 3.56c.61 1.38 1.99 2.7 3.1 3.48 1.38.97 3.15.71 4.43.63 2.94-.18 3.56-.98 5.01-2.14s2.56-4.39 2.04-6.44c-1.22-4.75-6.63-5.67-10.58-3.58z" fill="url(#e)"/><path d="M50.84 59.9c1.73 0 3.66.43 5.71.89 1.72.39 3.49.79 5.25.94 3.68.33 7.07 1.41 10.06 3.2l.18.1c1.22.71 2.37 1.38 3.25 2.53 2.01 2.61 2.05 8.26 1.82 9.29-1.26 5.6-7.78 11.55-17.41 11.55-2.18 0-4.31-.32-6.33-.94-3.72-1.15-6.89-3.3-8.93-6.07-.92-1.25-3.08-4.18-3-8.22.01-.39.25-9.49 6.48-12.65.8-.42 1.76-.62 2.92-.62m0-1c-1.21 0-2.35.2-3.37.72-5.99 3.04-6.98 11.06-7.03 13.53-.08 4.3 2.12 7.37 3.19 8.83 2.23 3.03 5.64 5.26 9.44 6.43 2.13.66 4.38.98 6.63.98 8.17 0 16.69-4.75 18.38-12.32.27-1.21.27-7.17-2-10.11-.97-1.26-2.19-1.99-3.54-2.78-.79-.46-4.52-2.89-10.65-3.44-3.76-.33-7.7-1.84-11.05-1.84z" fill="#635805" opacity=".63"/><linearGradient id="f" x1="97.12" x2="97.12" y1="40.534" y2="81.111" gradientTransform="translate(-38)" gradientUnits="userSpaceOnUse"><stop stop-color="#90A4AE" offset="0"/><stop stop-color="#80949E" offset=".27"/><stop stop-color="#576C76" offset=".795"/><stop stop-color="#455A64" offset="1"/></linearGradient><path d="M59.12 97.48c-18.73 0-33.96-13.24-33.96-29.52S40.4 38.44 59.12 38.44s33.96 13.24 33.96 29.52-15.23 29.52-33.96 29.52zm0-58.05c-18.15 0-32.92 12.79-32.92 28.52s14.77 28.52 32.92 28.52 32.92-12.79 32.92-28.52-14.77-28.52-32.92-28.52z" fill="url(#f)"/><path d="M92.11 60.93c-6.01-1.02-12.14 7.62-16.81 10.99-2.36 1.7-3.52 2.5-3.52 2.5l2.19-5.17L86.24 50.2c4.6 4.93 5.87 10.73 5.87 10.73z" fill="#212121" opacity=".29"/><linearGradient id="g" x1="84.36" x2="65.268" y1="56.177" y2="89.411" gradientTransform="rotate(-2.144 93.977 41.948)" gradientUnits="userSpaceOnUse"><stop stop-color="#BDBDBD" offset="0"/><stop stop-color="gray" offset=".855"/><stop stop-color="#757575" offset="1"/></linearGradient><path d="M69.74 83.13c-.42.02-.85-.09-1.24-.34a2.15 2.15 0 0 1-.65-2.97c4.64-7.24 9.14-16.09 13.07-24.12 4.61-9.41 8.96-18.3 13.61-24.03l8.92-10.43c.77-.9 2.13-1.01 3.03-.24s1.01 2.13.24 3.03l-8.88 10.39c-4.3 5.31-8.55 13.98-13.05 23.17-3.99 8.14-8.54 17.1-13.31 24.55-.4.62-1.06.96-1.74.99z" fill="url(#g)"/><path d="M115.93 5.05L102.2 22.73c-.42.54-.36 1.32.14 1.79l.63.59c.47.44 1.71 1.19 2.23.8l17.67-14.54c.67-.51.71-1.51.07-2.07l-5.08-4.44c-.58-.5-1.46-.41-1.93.19z" fill="#BDBDBD"/><path d="M103.12 29.78l-1.8-3.12-2.85-1.15c-.55-.51-.88-1.05-.37-1.6l2.46-2.67c.51-.55 2.66-.61 4.53 1.4s2.62 4.15 2.12 4.7l-2.46 2.67c-.51.56-1.08.28-1.63-.23z" fill="#9E9E9E"/><path d="M102.02 26.16c1.74 1.62 2.69 3.43 2.11 4.04-.35.38-1.74-.19-2.75-.76 0 0 .75-1.13-.32-2.08-1.29-1.16-2.28-.01-2.28-.01-.82-1.11-1.35-2.57-.96-3 .59-.61 2.46.2 4.2 1.81z" fill="#646464"/><linearGradient id="h" x1="140.57" x2="116.46" y1="32.838" y2="73.025" gradientTransform="rotate(-2.144 112.548 1068.616)" gradientUnits="userSpaceOnUse"><stop stop-color="#757575" offset=".307"/><stop stop-color="#656565" offset=".575"/><stop stop-color="#444" offset="1"/></linearGradient><path d="M123.3 8.9l-5.08-4.44c-.38-.34-.89-.5-1.41-.46-.51.05-.99.31-1.3.72l-12.38 15.95c-1.21-.44-2.43-.37-2.97.22-2.73 3.12-2.73 3.12-2.78 3.18-.54.89-.08 1.89.54 2.79l-3.8 4.47c-4.68 5.77-9.05 14.68-13.68 24.15-3.92 8.01-7.86 15.85-12.48 23.06-.07.1-.5.9-.48 1.43l.05 1.38c.03-.08.73-1.28.78-1.36 4.65-7.26 9.16-16.01 13.11-24.08 4.59-9.38 8.93-18.23 13.53-23.9l4.34-5.11-.25-.34c-.94-1.27-.87-1.72-.78-1.87.08-.09 2.71-3.09 2.71-3.1.14-.15 1-.31 2.12.21l.39.18 12.9-16.61c.14-.18.33-.28.55-.3.2-.02.43.05.6.19l5.08 4.44c.18.16.28.39.27.63s-.12.46-.33.62l-16.59 13.66.22.39c.65 1.15.71 1.85.65 1.98l-2.46 2.68c-.25.27-1.46.17-2.32-.3l-.38-.21-4.22 4.94c-4.34 5.35-8.6 14.06-13.12 23.27-3.97 8.11-14.15 25.79-14.15 25.79 1.18-.04 1.86-.97 1.86-.97 4.75-7.44 9.29-16.25 13.25-24.35 4.48-9.16 8.72-17.8 12.98-23.05l3.66-4.28c1.06.44 2.57.62 3.23-.11l2.46-2.67c.63-.68.12-2.01-.29-2.83L123.2 11.8c.45-.34.72-.86.74-1.43.01-.56-.22-1.1-.64-1.47z" fill="url(#h)"/></svg>