<svg viewBox="0 0 128 128" width="128" height="128" xmlns="http://www.w3.org/2000/svg"><linearGradient id="a" x1="198.42" x2="213.77" y1="-190.88" y2="-159.85" gradientTransform="rotate(-20.166 732.253 286.447)" gradientUnits="userSpaceOnUse"><stop stop-color="#FFCA28" offset=".545"/><stop stop-color="#FFB300" offset=".834"/><stop stop-color="#E59600" offset=".995"/></linearGradient><path d="M86.22 21.89c-3.25-3.5-9.44-5.5-13.91-3.83-5.01 1.87-7.06 6.15-6.87 11.02.07 1.76.46 3.46.98 4.62.06.14.56 1.14.64 1.47.44 1.24-1.77 2.99-1.79 4.45-.01 1.1 2.33 1.34 2.54 1.5 1.05.78.57 5.57 6.72 4.83 2.36-.28 2.57-.4 3.31-.47 1.48-.15 2.6 2.11 2.6 2.11s2.6 5.32 6.36 3.29c4.3-2.31 2.41-5.64 2.41-5.64s-3.4-5.06-2.03-9.51c1.31-4.25 1.12-11.59-.96-13.84z" fill="url(#a)"/><linearGradient id="b" x1="64.876" x2="89.317" y1="38.083" y2="32.123" gradientUnits="userSpaceOnUse"><stop stop-color="#EDA600" offset="0"/><stop stop-color="#D18900" offset=".871"/></linearGradient><path d="M75.84 18.46c3.49 0 7.36 1.65 9.65 4.11 1.65 1.78 2.05 8.62.75 12.85-1.43 4.67 1.75 9.74 2.13 10.31.07.13.45.99.17 1.95-.25.88-.99 1.66-2.19 2.3-.43.23-.83.34-1.24.34-1.79 0-3.31-2.3-3.76-3.2-.14-.27-1.39-2.67-3.36-2.67-.08 0-.16 0-.24.01-.32.03-.55.07-.88.13-.45.08-1.06.18-2.46.35-.39.05-.75.07-1.09.07-2.82 0-3.38-1.53-3.92-3.02-.26-.71-.48-1.32-.99-1.7-.21-.16-.43-.21-.8-.3-.71-.18-1.16-.34-1.33-.48.06-.4.46-1.01.79-1.51.62-.96 1.32-2.04.95-3.15-.09-.31-.32-.81-.63-1.46l-.06-.12c-.5-1.09-.83-2.68-.89-4.24-.11-2.84.55-7.92 6.22-10.04.94-.35 2.02-.53 3.18-.53m0-1c-1.23 0-2.44.19-3.53.6-5.01 1.87-7.06 6.15-6.87 11.02.07 1.76.46 3.46.98 4.62.06.14.56 1.14.64 1.47.44 1.24-1.77 2.99-1.79 4.45-.01 1.1 2.33 1.34 2.54 1.5.98.72.63 4.91 5.51 4.91.37 0 .78-.02 1.21-.08 2.36-.28 2.57-.4 3.31-.47.05 0 .09-.01.14-.01 1.41 0 2.47 2.11 2.47 2.11s1.83 3.75 4.65 3.75c.54 0 1.11-.14 1.71-.46 4.3-2.31 2.41-5.64 2.41-5.64s-3.4-5.06-2.03-9.51c1.3-4.23 1.12-11.57-.97-13.82-2.46-2.65-6.58-4.44-10.38-4.44z" fill="url(#b)"/><path d="M68.94 43.52c.85-.12 1.64-.48 2.25-1.14.66-.73 0-1.27-.81-.71-.49.33-1.23.6-1.94.6l.5 1.25z" fill="#795548"/><ellipse transform="rotate(-12.916 70.962 35.135)" cx="70.96" cy="35.13" rx="1.13" ry="1.74" fill="#49362E"/><path d="M69.77 33.01c-.93.67-1.42.08-1.27-.6.11-.5.62-1.06 1.92-1.26 1.22-.18 1.93.31 2.38.6s.56.7.31.83c-.35.18-2.19-.41-3.34.43z" fill="#613E31"/><radialGradient id="c" cx="85.653" cy="4.149" r="14.059" gradientTransform="rotate(-10.611 156.902 -14.227)" gradientUnits="userSpaceOnUse"><stop stop-color="#5B3127" offset="0"/><stop stop-color="#40211B" offset="1"/></radialGradient><path d="M104.78 42.08c-1.73 0-4.93-.18-6.93-1.39-6.17-3.71-7.32-9.44-7.87-12.19-.09-.47-.17-.86-.25-1.15-.39-1.4-1.96-3.16-2.89-4.2-.25-.28-.45-.51-.55-.64-.54-.72-.92-3.6-.57-4.28.8-1.53 3.14-2.33 5.03-2.33.48 0 .92.05 1.3.15 3.02.79 5.17 4.17 5.47 8.6.68 10.09 5.55 15.47 7.77 17.42-.18.01-.34.01-.51.01z" fill="url(#c)"/><path d="M90.74 15.41v1c.43 0 .84.05 1.17.13 2.81.74 4.81 3.94 5.09 8.15.61 9.01 4.52 14.35 7.01 16.88-1.74-.05-4.27-.32-5.91-1.3-5.98-3.6-7.1-9.18-7.64-11.86-.09-.47-.17-.87-.26-1.19-.43-1.52-2.04-3.32-3-4.4-.23-.26-.45-.5-.53-.61-.42-.56-.78-3.16-.53-3.75.7-1.34 2.89-2.06 4.59-2.06v-.99m.01 0c-2.06 0-4.58.89-5.48 2.6-.45.85-.02 3.95.61 4.81.46.62 2.89 3 3.36 4.68.57 2.04.97 9.19 8.35 13.63 2.06 1.24 5.21 1.46 7.19 1.46 1.1 0 1.85-.07 1.85-.07S98.86 37.37 98 24.63c-.29-4.31-2.34-8.14-5.84-9.05-.42-.12-.91-.17-1.42-.17z" fill="#301712"/><radialGradient id="d" cx="147.39" cy="-127.19" r="11.907" gradientTransform="matrix(1.0178 -.2066 .2047 .9791 -51.024 177.62)" gradientUnits="userSpaceOnUse"><stop stop-color="#5B3127" offset="0"/><stop stop-color="#40211B" offset="1"/></radialGradient><path d="M79.27 32.93c.06-.5.19-1.4.33-1.83.46-1.47 1.64-1.17 1.64-1.17 1.58.28 2.62 3.25.48 5.46-.05.05-.17.18-.05.48.29.75 1.5 2.42 3.85 2.57.31.02.58.02.82 0 .78-.07 1.33-.76 1.32-1.54-.08-4.76 2.17-3.74 2.07-9.79-.14-7.64-7.47-11.24-13.84-10.49-5.74.68-12.94 4.47-11.46 11.75.27 1.33 1.21 1.95 1.21 1.95s.82-3.57 4.64-3.21c3.84.36 5.34-.72 5.34-.72-.75 3.14.61 4.57 1.73 5.33.64.43 1.25.97 1.6 1.29.17.17.29.14.32-.08z" fill="url(#d)"/><path d="M86.62 19.23c-2.76-2.41-6.79-3.57-10.79-3.1-3.47.41-8.05 2.04-10.48 5.4-1.46 2.02-2.11 4.46-1.41 6.93.43 1.48 1.63 2 1.63 2l.16-.46s-.51-.44-.83-1.72c-.58-2.29-.05-4.38 1.24-6.17 2.24-3.1 6.53-4.61 9.8-5 3.67-.43 7.52.66 10.03 2.86 2.08 1.82 3.21 4.29 3.26 7.15.06 3.09-.52 4.24-1.07 5.35-.51 1.02-.89 1.89-.92 4.25-.01 1.2-1 1.74-.92 1.73 1.29-.13 1.9-.77 1.89-1.74-.04-2.12.32-2.79.81-3.8.58-1.16 1.23-2.48 1.17-5.8-.04-3.15-1.28-5.87-3.57-7.88z" fill="#301712"/><linearGradient id="e" x1="195.2" x2="210.57" y1="-192.03" y2="-160.96" gradientTransform="scale(-1 1) rotate(-22.421 616.055 532.166)" gradientUnits="userSpaceOnUse"><stop stop-color="#FFCA28" offset=".545"/><stop stop-color="#FFB300" offset=".834"/><stop stop-color="#E59600" offset=".995"/></linearGradient><path d="M29.57 21.91c3.39-3.37 9.64-5.13 14.05-3.28 4.93 2.06 6.82 6.42 6.43 11.28-.14 1.76-.59 3.44-1.17 4.58-.07.14-.6 1.11-.7 1.44-.49 1.22 1.66 3.06 1.61 4.52-.03 1.1-2.38 1.25-2.6 1.4-1.08.74-.79 5.55-6.9 4.57-2.35-.38-2.55-.5-3.29-.6-1.47-.2-2.68 2-2.68 2s-2.81 5.21-6.49 3.04c-4.2-2.48-1.67-4.37-1.67-4.37s3.08-6.28 1.89-10.78c-1.13-4.31-.66-11.64 1.52-13.8z" fill="url(#e)"/><linearGradient id="f" x1="50.256" x2="26.068" y1="38.919" y2="32.005" gradientUnits="userSpaceOnUse"><stop stop-color="#EDA600" offset="0"/><stop stop-color="#D18900" offset=".871"/></linearGradient><path d="M39.63 18.88c1.33 0 2.55.22 3.61.67 5.59 2.34 6.04 7.44 5.82 10.28-.12 1.56-.52 3.13-1.06 4.2l-.06.12c-.34.64-.58 1.13-.69 1.44-.42 1.1.24 2.21.82 3.19.31.51.68 1.15.73 1.54-.18.13-.63.28-1.35.42-.37.08-.59.12-.81.27-.53.36-.77.96-1.06 1.66-.58 1.41-1.17 2.87-3.76 2.87-.42 0-.88-.04-1.37-.12-1.38-.22-1.99-.35-2.44-.45-.32-.07-.55-.12-.87-.16-.11-.02-.22-.02-.33-.02-1.92 0-3.23 2.28-3.37 2.54-.46.85-2.04 3.04-3.79 3.04-.43 0-.86-.13-1.31-.39-1.69-1-1.91-1.72-1.93-1.98-.03-.41.35-.73.35-.73.13-.09.23-.22.3-.36.13-.27 3.23-6.67 1.96-11.48-1.13-4.28-.46-11.1 1.25-12.81 2.28-2.28 5.96-3.74 9.36-3.74m0-1c-3.66 0-7.61 1.59-10.06 4.03-2.18 2.17-2.65 9.49-1.51 13.77 1.19 4.5-1.89 10.78-1.89 10.78s-2.53 1.89 1.67 4.37c.64.37 1.24.53 1.82.53 2.75 0 4.67-3.57 4.67-3.57s1.11-2.02 2.49-2.02c.06 0 .13 0 .19.01.74.1.94.23 3.29.6.56.09 1.07.13 1.53.13 4.55 0 4.39-4.03 5.38-4.7.22-.15 2.57-.3 2.6-1.4.04-1.46-2.11-3.3-1.61-4.52.1-.33.63-1.3.7-1.44.57-1.13 1.03-2.82 1.17-4.58.38-4.86-1.5-9.21-6.43-11.28-1.24-.48-2.61-.71-4.01-.71z" fill="url(#f)"/><path d="M45.99 44.19c-.84-.15-1.62-.54-2.2-1.23-.64-.75.05-1.27.84-.68.48.35 1.2.65 1.92.68l-.56 1.23z" fill="#795548"/><ellipse transform="rotate(-74.835 44.293 35.731)" cx="44.29" cy="35.73" rx="1.74" ry="1.13" fill="#49362E"/><path d="M45.57 33.65c.9.71 1.42.13 1.29-.55-.09-.5-.58-1.09-1.87-1.33-1.22-.23-1.94.23-2.4.51s-.58.68-.34.82c.34.19 2.2-.32 3.32.55z" fill="#613E31"/><radialGradient id="g" cx="82.287" cy="3.553" r="14.058" gradientTransform="scale(-1 1) rotate(-12.868 87.076 489.119)" gradientUnits="userSpaceOnUse"><stop stop-color="#5B3127" offset="0"/><stop stop-color="#40211B" offset="1"/></radialGradient><path d="M11.23 41.37c-.56 0-1.07-.02-1.5-.04 2.29-1.86 7.37-7.05 8.44-17.1.47-4.42 2.75-7.71 5.8-8.38.31-.07.67-.1 1.05-.1 1.96 0 4.44.95 5.19 2.53.33.69-.17 3.55-.74 4.25-.11.13-.31.35-.58.62-.97 1.01-2.6 2.7-3.05 4.09-.09.29-.19.67-.3 1.14-.66 2.73-2.03 8.4-8.34 11.87-1.69.92-4.18 1.12-5.97 1.12z" fill="url(#g)"/><path d="M25.03 16.24c1.81 0 4.07.84 4.73 2.24.23.61-.23 3.19-.67 3.73-.08.1-.31.34-.55.59-1 1.04-2.68 2.78-3.17 4.28-.1.31-.2.71-.31 1.18-.64 2.66-1.98 8.19-8.09 11.55-1.28.7-3.26 1.07-5.74 1.07h-.22c2.58-2.43 6.7-7.61 7.67-16.59.45-4.2 2.57-7.32 5.41-7.95.28-.07.6-.1.94-.1m0-1c-.41 0-.81.04-1.16.12-3.53.78-5.73 4.52-6.19 8.82-1.36 12.7-9.32 17.54-9.32 17.54s1.23.16 2.87.16c1.94 0 4.45-.22 6.22-1.19 7.54-4.14 8.22-11.28 8.87-13.29.54-1.66 3.06-3.95 3.55-4.55.67-.83 1.21-3.91.8-4.78-.86-1.83-3.53-2.83-5.64-2.83z" fill="#301712"/><radialGradient id="h" cx="144.16" cy="-127.84" r="11.907" gradientTransform="matrix(-1.0089 -.2464 -.243 .9703 157.17 182.74)" gradientUnits="userSpaceOnUse"><stop stop-color="#5B3127" offset="0"/><stop stop-color="#40211B" offset="1"/></radialGradient><path d="M36.08 33.21c-.05-.5-.14-1.4-.26-1.85-.4-1.48-1.59-1.23-1.6-1.23-1.59.21-2.75 3.15-.69 5.44.05.06.16.19.04.48-.32.74-1.6 2.35-3.94 2.42-.31.01-.58-.01-.82-.04-.77-.1-1.3-.82-1.26-1.59.27-4.75-2.02-3.82-1.68-9.87.44-7.63 7.9-10.94 14.24-9.94 5.71.9 12.76 4.98 10.99 12.19-.32 1.32-1.28 1.9-1.28 1.9s-.68-3.59-4.51-3.39c-3.85.21-5.3-.93-5.3-.93.63 3.17-.79 4.54-1.94 5.26-.66.41-1.29.92-1.65 1.22-.2.18-.32.14-.34-.07z" fill="url(#h)"/><path d="M29.27 19.23c2.85-2.3 6.93-3.3 10.9-2.67 3.45.54 7.96 2.36 10.26 5.8 1.38 2.07 1.94 4.54 1.13 6.98-.48 1.47-1.71 1.93-1.71 1.93l-.13-.47s.52-.42.9-1.69c.66-2.27.22-4.37-1-6.21-2.12-3.19-6.35-4.87-9.6-5.38-3.65-.58-7.54.37-10.14 2.47-2.15 1.73-3.37 4.16-3.54 7.02-.18 3.09.35 4.26.86 5.39.47 1.04.82 1.93.75 4.28-.04 1.2.93 1.77.85 1.76-1.28-.18-1.87-.85-1.82-1.82.12-2.11-.21-2.8-.67-3.83-.53-1.18-1.13-2.52-.94-5.84.18-3.14 1.53-5.81 3.9-7.72z" fill="#301712"/><linearGradient id="i" x1="79.731" x2="79.731" y1="91.327" y2="57.26" gradientUnits="userSpaceOnUse"><stop stop-color="#FFB300" offset="0"/><stop stop-color="#FFCA28" offset="1"/></linearGradient><path d="M73.51 103.02c-.93-1.87-5.43-10.94-6.96-14.69-1.42-3.49-.27-6.96 2.88-8.63l19.8-10.75L93.51 79l-18.25 8.06c-.23.1-.35.36-.28.6l4.24 14.27-5.71 1.09z" fill="url(#i)"/><path d="M88.98 69.65l3.88 9.09-17.79 7.86c-.46.2-.7.72-.55 1.2l4.08 13.74-4.81.92c-1.21-2.43-5.33-10.77-6.77-14.31-1.32-3.24-.26-6.45 2.66-8.01l19.3-10.49m.49-1.4L69.19 79.26c-3.12 1.67-4.71 5.33-3.1 9.26 1.73 4.23 7.14 15.06 7.14 15.06l6.64-1.26-4.4-14.8 18.7-8.26-4.7-11.01z" fill="#EDA600"/><path d="M75.64 74.92l8.8-4.56c.91-.47 1.88-.71 2.9-.71 2.37 0 4.51 1.3 5.6 3.4 1.6 3.08.39 6.9-2.69 8.49l-8.8 4.56-5.81-11.18z" fill="#4300D9"/><path d="M87.34 70.15c2.18 0 4.15 1.2 5.16 3.13.71 1.38.85 2.95.38 4.42a5.772 5.772 0 0 1-2.86 3.4l-8.36 4.33-5.34-10.3 8.36-4.33c.83-.43 1.72-.65 2.66-.65m0-1c-1.05 0-2.12.25-3.13.77l-9.24 4.79 6.26 12.07 9.24-4.79a6.8 6.8 0 1 0-3.13-12.84z" fill="#3B00BF"/><linearGradient id="j" x1="39.584" x2="39.584" y1="85.322" y2="60.065" gradientUnits="userSpaceOnUse"><stop stop-color="#FFB300" offset="0"/><stop stop-color="#FFCA28" offset="1"/></linearGradient><path d="M47.04 101.77l-3.16-16c-.18-.93-.82-1.7-1.7-2.05-3.7-1.48-13.54-4.86-15.71-5.6l2.45-10.37c2.89 1.18 16.38 6.69 18.42 7.71 2.71 1.35 5.37 3.19 5.36 9.54 0 4.38-.23 14.45-.29 16.78l-5.37-.01z" fill="url(#j)"/><path d="M29.27 68.43C33 69.95 45.2 74.95 47.12 75.9c2.68 1.33 5.09 3.03 5.09 9.1 0 4.12-.2 13.27-.27 16.28l-4.48-.01-3.08-15.6c-.22-1.1-.97-2-2.01-2.42-3.55-1.42-12.48-4.5-15.31-5.47l2.21-9.35m-.71-1.37l-2.69 11.38s11.93 4.07 16.12 5.74c.72.29 1.25.92 1.4 1.68l3.24 16.41 6.28.01s.3-12.28.3-17.28c0-6.5-2.69-8.53-5.64-9.99-2.33-1.16-19.01-7.95-19.01-7.95z" fill="#EDA600"/><path d="M24.6 79.66c-3.57-1.31-5.4-5.28-4.09-8.85.99-2.7 3.59-4.52 6.47-4.52.81 0 1.61.14 2.38.43l8.75 3.22-4.76 12.94-8.75-3.22z" fill="#C62828"/><path d="M26.98 66.8c.75 0 1.49.13 2.21.4l8.28 3.05-4.42 12-8.28-3.05c-1.6-.59-2.88-1.77-3.6-3.32s-.79-3.29-.2-4.89a6.431 6.431 0 0 1 6.01-4.19m0-1c-3.01 0-5.84 1.85-6.94 4.84a7.388 7.388 0 0 0 4.39 9.49l9.22 3.39 5.11-13.88-9.22-3.39c-.85-.31-1.71-.45-2.56-.45z" fill="#B31919"/><path fill="#E0E0E0" d="M46.82 103.32l-1.13-5.99 7.5-.71-.34 6.7z"/><path d="M52.66 97.17l-.29 5.65h-5.14l-.95-5.04 6.38-.61m1.06-1.1l-8.62.82 1.31 6.93h6.92l.39-7.75z" fill="#BFBFBF"/><path d="M45.36 109.92c-.18 0-.34-.07-.47-.2s-.19-.29-.19-.47l.01-2.84c0-1.31 1.12-2.93 1.7-3.63l6.78.01 6.3 2.09c1.34.53 2.22 1.82 2.23 3.29v1.28a.514.514 0 0 1-.51.52l-15.85-.05z" fill="#E53935"/><path d="M46.64 103.27l6.46.01 6.2 2.06c1.16.47 1.91 1.57 1.91 2.82l-.01 1.3-15.83-.05c-.06 0-.09-.03-.12-.05a.168.168 0 0 1-.05-.12l.01-2.85c-.01-1.05.87-2.4 1.43-3.12m-.47-1s-1.96 2.2-1.97 4.13l-.01 2.85c0 .64.52 1.17 1.16 1.17l15.83.05c.56 0 1.02-.46 1.02-1.02v-1.29a4.074 4.074 0 0 0-2.57-3.76l-6.38-2.12-7.08-.01z" fill="#D12724"/><path d="M68.15 52.26l6.89-1.58c.95-.33 1.09-.86 1.09-.86-.05-.39-.58-.53-1.1-.65l-2.99-.18s-5.84.71-5.15 2.31c.14.65.7 1.08 1.26.96zM55.05 52.94l-7.04.64c-1-.02-1.3-.48-1.3-.48-.08-.38.38-.69.84-.95l2.79-1.11s5.77-1.15 5.61.59c.07.66-.33 1.24-.9 1.31z" fill="#E59600" stroke="#D18100" stroke-linecap="round" stroke-linejoin="round" stroke-miterlimit="10"/><linearGradient id="k" x1="32.165" x2="68.225" y1="54.072" y2="54.072" gradientUnits="userSpaceOnUse"><stop stop-color="#FFB300" offset="0"/><stop stop-color="#FFCA28" offset=".401"/></linearGradient><path d="M46.52 59.15a.59.59 0 0 0-.14-.02c-.19 0-.29 0-.4-.02-.1-.01-.19-.04-.28-.07 0 0-.09-.03-.1-.03-.04-.01-.09-.01-.13-.01h-.03l-13.28-2.66 2.38-7.38 12.07 4.29c.05.02.11.03.17.03h.07c3.01-.41 12.95-1.78 14.58-2.14.8-.17 2.33-.35 3.67-.35 2.4 0 2.94.51 3.05.67.06.08.11.21.01.48-.74 2.01-16.04 7.14-21.55 7.23-.01.01-.09-.02-.09-.02z" fill="url(#k)"/><path d="M34.86 49.61l11.59 4.12c.1.04.21.06.31.06h.02c.05 0 .09 0 .14-.01 3.01-.41 12.95-1.78 14.62-2.14.63-.14 2.1-.34 3.57-.34 1.89 0 2.48.33 2.61.43 0 .01-.01.02-.01.04-.28.55-2.95 2.16-8.9 4.13-4.89 1.62-9.76 2.73-12.15 2.78v-.01a.863.863 0 0 0-.28-.04H46.23c-.06 0-.12 0-.18-.01-.08-.01-.15-.04-.23-.06l-.09-.03c-.08-.02-.16-.03-.24-.04L32.8 55.95l2.06-6.34m-.64-1.29l-2.71 8.4 13.94 2.79v-.01c.15.04.29.09.44.11.16.02.31.02.47.02.07.02.15.05.23.05h.01c5.36-.08 21.13-5.12 22.03-7.56.52-1.43-1.44-1.83-3.54-1.83-1.47 0-3.01.2-3.78.36-1.68.37-12.4 1.84-14.54 2.13l-12.55-4.46z" fill="#EDA600"/><linearGradient id="l" x1="49.73" x2="86.427" y1="52.348" y2="52.348" gradientUnits="userSpaceOnUse"><stop stop-color="#FFB300" offset="0"/><stop stop-color="#FFCA28" offset=".401"/></linearGradient><path d="M85.26 48.19a4.378 4.378 0 0 0-4.43-1.23v-.01l-.1.03c-.07.02-.14.05-.22.08L68.29 51.4c-1.5-.25-7.4-1.18-10.36-1.08-1.08.04-4.35.42-4.35.42l-3.41 3.15c-.42.34-.59.89-.3 1.29.37.51 3.8-1.16 5.51-2.04.61-.31 1.32-.31 1.93-.02l8.13 3.97c1.54.75 3.28.99 4.97.68l11.91-2.19c.39-.03.78-.1 1.15-.23l.06-.01v-.01c.98-.36 1.86-1.05 2.4-2.09.86-1.64.59-3.71-.67-5.05z" fill="url(#l)"/><path d="M68.96 58.41c-1.28 0-2.55-.29-3.73-.87l-8.13-3.97c-.47-.23-1.02-.22-1.48.01-5.47 2.81-5.86 2.28-6.14 1.89-.43-.59-.27-1.44.39-1.98l3.38-3.13c.08-.07.18-.12.28-.13.13-.02 3.3-.38 4.39-.42 2.91-.1 8.48.77 10.33 1.07l12.1-4.3c.12-.04.18-.07.24-.08l.07-.03c.05-.02.1-.03.15-.03 1.75-.44 3.58.09 4.81 1.41 1.4 1.49 1.71 3.8.75 5.62a4.847 4.847 0 0 1-2.58 2.3.51.51 0 0 1-.17.07c-.38.13-.81.22-1.26.25l-11.85 2.19c-.52.09-1.04.13-1.55.13zm-12.6-6c.4 0 .8.09 1.17.27l8.13 3.97c1.46.71 3.07.93 4.66.64l11.91-2.2c.42-.03.76-.1 1.07-.21.02-.01.03-.02.05-.02.94-.34 1.67-.98 2.13-1.86.76-1.45.51-3.29-.6-4.48-1.02-1.09-2.48-1.5-3.93-1.1-.02.01-.05.01-.07.01l-.13.05-12.3 4.38a.43.43 0 0 1-.25.02c-1.2-.2-7.3-1.18-10.26-1.08-.91.03-3.48.32-4.15.4l-3.29 3.04c-.18.15-.31.35-.28.52.44-.04 1.85-.5 4.92-2.08.39-.18.81-.27 1.22-.27z" fill="#EDA600"/><linearGradient id="m" x1="61.925" x2="74.595" y1="51.635" y2="51.635" gradientUnits="userSpaceOnUse"><stop stop-color="#FFB300" offset="0"/><stop stop-color="#FFCA28" offset=".401"/></linearGradient><path d="M69.04 52.65l1.74-.05 1.92.46c.96.08 1.77-.27 1.88-.75s-.62-.77-1.13-.96l-3.51-1c-.51-.19-2.2-.13-2.88-.13-1.59 0-5.14.33-5.14.33s6.3 1.86 7.12 2.1z" fill="url(#m)" stroke="#EDA600" stroke-linecap="round" stroke-linejoin="round" stroke-miterlimit="10"/><linearGradient id="n" x1="23.315" x2="23.315" y1="99.008" y2="71.898" gradientUnits="userSpaceOnUse"><stop stop-color="#FFB300" offset="0"/><stop stop-color="#FFCA28" offset="1"/></linearGradient><path d="M11.07 93.55l12.56-6.63c.5-.27.84-.72.99-1.26s.07-1.1-.22-1.58l-3.96-8.2 9.92-3.98 4.73 11.59c.66 1.62.64 3.39-.04 4.99s-1.95 2.84-3.57 3.49l-17.72 7.04-2.69-5.46z" fill="url(#n)"/><path d="M30.08 72.55l4.54 11.13c.61 1.49.59 3.13-.04 4.61s-1.8 2.62-3.3 3.22l-17.29 6.87-2.25-4.61 12.15-6.41c.61-.34 1.04-.89 1.22-1.56.18-.65.09-1.33-.25-1.92l-3.73-7.73 8.95-3.6m.55-1.3l-10.87 4.37 4.22 8.73c.45.75.19 1.71-.57 2.13l-12.99 6.85 3.09 6.31 18.15-7.21a6.979 6.979 0 0 0 3.89-9.13l-4.92-12.05z" fill="#EDA600"/><path fill="#E0E0E0" d="M9.7 93.43l6.76-3.68 3.11 7.73-7.62 3.01z"/><path d="M16.21 90.46l2.71 6.74-6.65 2.62-1.96-6.15 5.9-3.21m.51-1.42L9.1 93.19l2.54 7.96 8.58-3.39-3.5-8.72z" fill="#BFBFBF"/><path d="M9.76 109.97c-.23 0-.42-.15-.49-.36L4.53 94.5c-.05-.17-.04-.35.05-.51s.22-.27.39-.33l2.72-.85c.95-.3 2.06-.36 2.83-.36.36 0 .66.01.87.03l2.3 7.32-.09 6.64a3.552 3.552 0 0 1-2.46 3.12l-1.22.39c-.06.01-.11.02-.16.02z" fill="#E53935"/><path d="M10.52 92.95c.18 0 .35 0 .5.01l2.18 6.91-.09 6.53c-.1 1.24-.92 2.29-2.11 2.68l-1.25.38-4.74-15.11c-.02-.05 0-.1.01-.13s.04-.06.1-.08l2.72-.85c.88-.28 1.94-.34 2.68-.34m0-1c-.85 0-2 .07-2.99.38l-2.72.85c-.61.19-.96.85-.76 1.46l4.73 15.11c.14.43.54.71.97.71.1 0 .21-.02.31-.05l1.22-.39a4.076 4.076 0 0 0 2.81-3.59l.1-6.72L11.76 92s-.51-.05-1.24-.05z" fill="#D12724"/><circle cx="25.43" cy="72.42" r="6.84" fill="#FBC11B"/><linearGradient id="o" x1="100.06" x2="100.06" y1="96.167" y2="65.293" gradientUnits="userSpaceOnUse"><stop stop-color="#FFB300" offset="0"/><stop stop-color="#FFCA28" offset="1"/></linearGradient><path d="M95.41 93.41c-.25-.03-.5-.07-.73-.14l-.09-.02c-.03-.02-.06-.03-.09-.04-.84-.26-1.56-.69-2.13-1.29-.45-.46-.8-1-1.04-1.62l-.05-.1-8.34-20.88 11.18-4.03 5.45 20.16c.04.16.16.29.32.34l17.28 6.03-1.8 4.34-19.96-2.75z" fill="url(#o)"/><path d="M93.78 65.95l5.31 19.64c.09.32.32.57.64.68l16.78 5.85-1.45 3.5-19.6-2.71c-.24-.03-.45-.07-.65-.12-.02-.01-.04-.01-.06-.01-.03-.01-.07-.03-.1-.04-.76-.24-1.41-.62-1.92-1.15-.4-.41-.72-.9-.94-1.46-.01-.03-.02-.05-.03-.08-.01-.01-.01-.02-.01-.02l-8.15-20.4 10.18-3.68m.69-1.31l-12.18 4.39 8.53 21.36.05.1a5.6 5.6 0 0 0 1.15 1.78c.67.69 1.48 1.15 2.34 1.42l-.01.02.21.04c.26.07.53.12.8.15l20.35 2.81 2.15-5.19-17.78-6.2-5.61-20.68z" fill="#EDA600"/><radialGradient id="p" cx="88.757" cy="52.741" r="16.087" gradientUnits="userSpaceOnUse"><stop stop-color="#651FFF" offset="0"/><stop stop-color="#5914F2" offset=".705"/><stop stop-color="#530EEB" offset="1"/></radialGradient><path d="M88.02 85.28c-1.44-2.17-2.93-5.41-3.61-7.88a.483.483 0 0 0-.24-.3c-1.49-.85-2.13-3.13-2.23-4.97-.29-5.37-1.02-8.72-2.13-13.8-.2-.9-.4-1.86-.62-2.88-.69-3.24-.29-6.17 1.08-8.04 1.08-1.46 2.75-2.3 4.97-2.5.25-.02.49-.03.72-.03 4.95 0 7.06 4.87 7.76 6.48 2.62 5.65 3.9 11.72 3.68 17.58-.05 1.15-.17 1.98-.41 2.68-.03.09-.04.19-.01.28.02.06 1.46 5.82 2.3 8.85a191.67 191.67 0 0 1-11.26 4.53z" fill="url(#p)"/><path d="M85.97 45.38c4.14 0 6.15 3.52 7.31 6.2 2.59 5.57 3.84 11.56 3.63 17.33-.04 1.1-.16 1.88-.39 2.55-.06.18-.07.38-.02.56.01.06 1.34 5.33 2.18 8.44-3.43 1.51-6.94 2.92-10.46 4.21-1.34-2.12-2.7-5.11-3.33-7.41a.978.978 0 0 0-.47-.6c-1.09-.62-1.86-2.41-1.98-4.56-.29-5.41-1.03-8.78-2.14-13.88-.2-.9-.4-1.85-.62-2.88-.66-3.1-.3-5.88 1-7.64.99-1.34 2.54-2.11 4.62-2.3.22-.01.45-.02.67-.02m0-1c-.25 0-.51.01-.77.03-6.58.59-7.5 6.44-6.5 11.14 1.43 6.7 2.4 10.31 2.74 16.6.12 2.13.88 4.46 2.49 5.38.69 2.49 2.26 6 3.9 8.35 4.07-1.48 8.1-3.1 12.05-4.86-.82-2.9-2.41-9.25-2.41-9.25.28-.83.4-1.76.44-2.83.21-5.88-1.03-11.99-3.72-17.79-.89-2.03-3.12-6.77-8.22-6.77z" fill="#4A00ED"/><radialGradient id="q" cx="27.273" cy="52.428" r="15.874" gradientUnits="userSpaceOnUse"><stop stop-color="#EF5350" offset="0"/><stop stop-color="#EA4643" offset=".545"/><stop stop-color="#E53935" offset=".987"/></radialGradient><path d="M23.5 84.69c-.26-.48-.6-1.06-.99-1.71-1.96-3.35-5.25-8.95-5.25-13.15 0-5.92 1.61-12.82 4.3-18.46 2.19-4.58 4.95-6.89 8.22-6.89.35 0 .71.03 1.08.08.11.04.31.08.54.14 1.02.24 2.57.59 4.15 2.09 1.01.96 1.86 3.92.03 8.16-1.7 4.55-1.88 9.22-2.06 13.74-.06 1.48-.11 2.88-.22 4.24-.07.93-.25 1.75-.52 2.43a.48.48 0 0 0 .01.39c.7 1.53 1.3 2.98 1.68 3.96-3.59 1.76-7.27 3.44-10.97 4.98z" fill="url(#q)"/><path d="M29.79 44.98c.31 0 .62.02.94.07.17.05.36.09.56.14 1.03.24 2.44.56 3.92 1.96.91.86 1.64 3.59-.09 7.6-.01.02-.01.03-.02.05-1.72 4.6-1.91 9.52-2.09 13.87-.06 1.48-.11 2.87-.22 4.22-.07.88-.23 1.65-.48 2.29-.1.25-.09.54.02.78.6 1.31 1.13 2.56 1.5 3.51-3.31 1.63-6.71 3.18-10.12 4.61-.23-.4-.49-.85-.77-1.33-1.94-3.3-5.18-8.83-5.18-12.89 0-5.85 1.59-12.67 4.25-18.24 2.1-4.42 4.71-6.64 7.78-6.64m0-1c-3.74 0-6.6 2.83-8.67 7.18-2.76 5.77-4.35 12.79-4.35 18.67 0 5.42 5.19 12.9 6.51 15.49 4-1.65 7.95-3.45 11.83-5.39a73.72 73.72 0 0 0-1.86-4.41c.3-.76.48-1.65.55-2.57.44-5.48.03-11.88 2.25-17.81 1.91-4.41 1.07-7.58-.14-8.72-2.02-1.91-3.98-2.07-4.96-2.35-.41-.07-.79-.09-1.16-.09z" fill="#D12724"/><path fill="#E0E0E0" d="M70.75 98.93l7.58-1.64 1.69 6.06-6.46.59z"/><path d="M77.97 97.87l1.41 5.04-5.55.5-2.32-4.13 6.46-1.41m.71-1.17l-8.7 1.89 3.3 5.88 7.39-.67-1.99-7.1z" fill="#BFBFBF"/><linearGradient id="r" x1="64.744" x2="81.76" y1="106.41" y2="106.41" gradientUnits="userSpaceOnUse"><stop stop-color="#651FFF" offset="0"/><stop stop-color="#5914F2" offset=".705"/><stop stop-color="#530EEB" offset="1"/></linearGradient><path d="M65.26 110.01a.514.514 0 0 1-.52-.52v-1.29c.01-1.46.89-2.76 2.25-3.29l6.27-2.08 6.78-.01c.43.53 1.7 2.2 1.7 3.63l.01 2.85c0 .18-.07.34-.19.47s-.29.2-.47.2l-15.83.04z" fill="url(#r)"/><path d="M79.81 103.32c.56.72 1.43 2.07 1.44 3.14l.01 2.85c0 .06-.03.09-.05.12-.02.02-.06.05-.12.05l-15.85.03v-1.28c.01-1.25.76-2.36 1.91-2.82l6.2-2.06 6.46-.03m.47-1l-7.09.01-6.38 2.12c-1.54.61-2.56 2.1-2.57 3.76v1.29c0 .56.45 1.02 1.02 1.02l15.83-.05c.64 0 1.16-.53 1.16-1.17l-.01-2.85c.01-1.93-1.96-4.13-1.96-4.13z" fill="#4A00ED"/><path fill="#E0E0E0" d="M108.18 95.96l2.9-7.2 7.21 2.9-1.9 6.03z"/><path d="M111.36 89.41l6.32 2.54-1.62 5.16-7.18-1.52 2.48-6.18m-.56-1.3l-3.3 8.22 9.24 1.95 2.17-6.91-8.11-3.26z" fill="#BFBFBF"/><linearGradient id="s" x1="114.93" x2="124.12" y1="98.749" y2="98.749" gradientUnits="userSpaceOnUse"><stop stop-color="#651FFF" offset="0"/><stop stop-color="#5914F2" offset=".705"/><stop stop-color="#530EEB" offset="1"/></linearGradient><path d="M118.86 107.51c-.05 0-.11-.01-.16-.02l-1.23-.39a3.544 3.544 0 0 1-2.46-3.14l-.09-6.61 2.3-7.32c.21-.01.52-.03.87-.03.77 0 1.89.06 2.83.36l2.72.85c.17.05.31.17.39.33s.1.34.04.51l-4.73 15.11a.49.49 0 0 1-.48.35z" fill="url(#s)"/><path d="M118.1 90.49c.74 0 1.8.06 2.69.34l2.72.85c.05.02.08.05.1.08.01.03.03.07.01.13l-4.75 15.12-1.22-.39a3.028 3.028 0 0 1-2.11-2.68l-.09-6.53 2.18-6.91c.12-.01.29-.01.47-.01m0-1c-.73 0-1.25.05-1.25.05l-2.43 7.72.1 6.72a4.076 4.076 0 0 0 2.81 3.59l1.22.39c.1.03.21.05.31.05.43 0 .83-.28.97-.71l4.73-15.11c.19-.61-.15-1.27-.76-1.46l-2.72-.85c-.98-.32-2.13-.39-2.98-.39z" fill="#4A00ED"/><linearGradient id="t" x1="27.502" x2="66.816" y1="59.923" y2="59.923" gradientUnits="userSpaceOnUse"><stop stop-color="#FFCA28" offset=".599"/><stop stop-color="#FFB300" offset="1"/></linearGradient><path d="M66.81 67.93c.12-.71-4.3.18-4.32-.16-.03-.35 3.88-.47 3.49-1.68-.24-.73-3.86.18-4.91.06 0 0-1.76.1-2.78-.4-.71-.35 2.07-.93 2.67-1.84.67-1-1.59-.84-3.43 0-.82.37-2.88.63-3.68.58-.1-.01-.2.01-.3.01l-9.95-3.37a5.21 5.21 0 0 1-2.96-2.53l-4.82-9.19c-.04-.07-.07-.14-.11-.2l-.05-.09-.01.01a4.418 4.418 0 0 0-4.09-2.1c-1.84.13-3.44 1.47-3.93 3.25-.31 1.14-.13 2.24.34 3.17l-.01.01.03.05c.18.35.42.66.69.95l5.93 9.24a7.997 7.997 0 0 0 4.56 3.38l14.58 4.09.02-.08c.79.39 1.92.65 3.16.98 3.66.99 7.73 1.01 8.02.04.16-.51-4.08-.62-4.07-1.15.01-.33 4.82.32 4.99-1.02.09-.71-4.32-.31-4.25-.68.1-.38 4.94.09 5.19-1.33z" fill="url(#t)" stroke="#EDA600" stroke-linecap="round" stroke-linejoin="round" stroke-miterlimit="10"/><linearGradient id="u" x1="70.806" x2="75.674" y1="67.904" y2="93.089" gradientUnits="userSpaceOnUse"><stop stop-color="#FFCA28" offset=".599"/><stop stop-color="#FFB300" offset="1"/></linearGradient><path d="M49.54 68.01c-.12-.71 4.3.18 4.32-.16.03-.35-3.88-.47-3.49-1.68.24-.73 3.86.18 4.91.06 0 0 1.76.1 2.78-.4.71-.35-2.07-.93-2.67-1.84-.67-1 1.59-.84 3.43 0 .82.37 2.88.63 3.68.58.1-.01.2.01.3.01l11.94-4.04 5.79-11.05c.04-.07.07-.14.11-.2l.05-.09.01.01a4.397 4.397 0 0 1 3.38-2.09c2.43-.2 4.57 1.6 4.77 4.04.07.86-.12 1.67-.48 2.38l.01.01-.03.05c-.18.35-.42.66-.69.95L80.2 64.84c-.34.68-.9 1.27-1.66 1.6-.05.02-.09.03-.14.05v.01l-.36.11c-.07.02-.13.05-.2.06l-15.26 4.59-.02-.08c-.79.39-1.92.65-3.16.98-3.66.99-7.73 1.01-8.02.04-.16-.51 4.08-.62 4.07-1.15-.01-.33-4.82.32-4.99-1.02-.09-.71 4.32-.31 4.25-.68-.08-.39-4.92.08-5.17-1.34z" fill="url(#u)" stroke="#EDA600" stroke-linecap="round" stroke-linejoin="round" stroke-miterlimit="10"/></svg>