<svg viewBox="0 0 128 128" width="128" height="128" xmlns="http://www.w3.org/2000/svg"><linearGradient id="a" x1="63.696" x2="63.885" y1="115.66" y2="11.887" gradientUnits="userSpaceOnUse"><stop stop-color="#BF360C" offset="0"/><stop stop-color="#E64A19" offset=".505"/><stop stop-color="#FF7043" offset="1"/></linearGradient><path d="M67.46 117.75c-4.71 0-12.35-.87-19.67-3.31-5.81-1.94-13.42-5.58-16.61-11.9-3.03-5.99-1.57-13.08 4.33-21.09 2.31-3.14 3.03-6.77 3.24-8.35-6.34-1.9-9.97-9.16-11.63-13.59.25 3.52 2.43 8.27 3.47 10.14l1.56 2.82-2.88-1.44c-5.27-2.64-8.32-7.8-10.05-12.33.51 3.99 1.31 7.59 1.32 7.65l.84 3.75-2.56-2.86c-5.12-5.73-6.74-12.56-7.21-17.07-1.37 3.89-2.02 6.99-2.03 7.03l-.74 3.64-1.18-3.52c-2.86-8.53-3.96-19.56.4-23.62C12.51 29.55 41 12.38 42.21 11.65l1.29-.78.21 1.5c2.59 18.3-6.75 25.4-7.15 25.7l-1.9 1.4.96-7.16c-2.08 4.18-5.25 8.38-9.67 8.9l-1.72.2c2.1 1.54 6.14 3.81 11.81 3.81 4 0 8.22-1.11 12.55-3.31l1.97-1-.56 2.12c-1.05 4.1-.84 9.89-.37 15.8C56.6 46.55 62.18 40.8 67.11 40.8c7.27 0 10.46 4.61 14.17 11.88l.96-12.58 1.62 3.26c6.35 12.82 16.39 18.48 24.47 23.04 8.87 5 15.87 8.96 13.74 19.52-.54 2.7-2.99 7.23-13.26 7.23-1.81 0-3.8-.14-5.92-.43-2.08-.28-4.06-.72-5.91-1.32.21 1.69.31 3.34.3 4.92-.07 15.82-16.1 21.43-29.82 21.43zM23.21 40.58c.21.18.47.4.78.63L25 39.65c.78-1.21 1.48-2.48 2.02-3.61l-3.81 4.54z" fill="url(#a)"/><path d="M42.71 12.5c2.54 17.92-6.75 24.75-6.75 24.75l1.88-13.97s-3.7 15.94-12.01 16.92c0 0 3.99-6.17 3.08-7.97l-7.08 8.43s5.04 5.54 14.2 5.54c3.69 0 8.04-.9 13-3.42-1.28 5.01-.76 12.3-.12 19.41 5.37-9.93 12.22-20.38 18.19-20.38 7.45 0 10.18 5.06 14.9 14.55l.96-12.55c13.31 26.86 42 22.7 38.12 41.92-.73 3.63-4.39 6.43-12.28 6.43-1.72 0-3.65-.13-5.79-.42-2.76-.37-5.16-1.01-7.26-1.83.33 2.11.53 4.25.52 6.41-.05 14.52-14.28 20.44-28.81 20.44-14.52 0-50.69-8.18-31.14-34.71 3.27-4.43 3.52-9.7 3.52-9.7-9.25-1.96-12.88-16.59-12.88-16.59-3 4 2.75 14.38 2.75 14.38-10-5-11.67-20.04-11.67-20.04-1.03 5.08 1.52 16.49 1.52 16.49-8.1-9.07-7.1-21.22-7.1-21.22C9.78 51.2 8.6 56.99 8.6 56.99c-3.01-8.96-3.64-19.06.13-22.57C13.15 30.3 42.71 12.5 42.71 12.5m1.56-3.27l-2.59 1.56c-1.21.73-29.79 17.95-34.32 22.17-4.7 4.39-3.72 15.56-.66 24.67l2.36 7.04 1.49-7.27c.01-.03.25-1.19.75-2.97.95 4.17 2.89 9.13 6.77 13.48l5.12 5.73-1.67-7.49c-.07-.33-.16-.74-.25-1.2 1.83 2.79 4.28 5.34 7.56 6.98l5.77 2.88-3.08-5.55c1.67 1.94 3.69 3.6 6.13 4.52-.31 1.71-1.08 4.58-2.93 7.09-6.14 8.34-7.63 15.78-4.42 22.13 5.8 11.48 25.88 15.76 37.17 15.76 14.17 0 30.75-5.88 30.81-22.43 0-1.15-.05-2.33-.15-3.53 1.48.4 3.02.71 4.63.93 2.17.29 4.21.44 6.06.44 10.98 0 13.64-5.03 14.25-8.03 2.27-11.28-5.37-15.59-14.23-20.59-7.95-4.49-17.85-10.07-24.06-22.61l-3.23-6.53-.55 7.26-.42 5.54C77.3 43.5 73.8 39.8 67.11 39.8c-4.9 0-10.27 5.03-16.71 15.73-.27-4.66-.26-9.03.57-12.25L52.06 39l-3.94 2c-4.18 2.12-8.25 3.2-12.09 3.2s-6.86-1.06-8.99-2.19c2.55-.59 4.87-2.29 6.94-5.09l-.01.06-.63 4.67 3.79-2.79c.42-.31 10.22-7.76 7.54-26.64l-.4-2.99z" fill="#961C00"/><path d="M51.94 114.59c-3.27 0-7.06-.92-9.89-2.41-4.83-2.53-7.79-6.81-9.48-10.19.98 3.94 3.75 7.21 3.79 7.26l2.95 3.44-4.13-1.88c-8.4-3.83-10.84-10.21-11.45-14.69-.83 3.62-.14 6.65-.13 6.69l.78 3.29-2.45-2.33c-.2-.19-4.8-4.64-5.59-10.59-.35-2.61.04-6.55 2.27-9.09 1.38-1.57 3.23-2.37 5.49-2.37h.12c6.28.08 21.35 5.67 33.41 26.29 1.19 2.03.88 3.42.41 4.23-.84 1.52-3.02 2.35-6.1 2.35z" fill="#FF7043"/><path d="M24.12 82.72h.11c6.17.08 20.85 5.79 32.56 25.8 2.07 3.54-.79 5.07-4.84 5.07-2.99 0-6.63-.83-9.43-2.29-8.37-4.39-10.91-14.52-10.91-14.52-1.87 6.28 4 13.13 4 13.13-13.37-6.1-10.88-18.73-10.88-18.73-3.58 5.6-2.09 11.87-2.09 11.87s-4.54-4.33-5.29-10c-.5-3.77.7-10.33 6.77-10.33m0-2c-2.53 0-4.69.94-6.25 2.71-2.45 2.79-2.88 7.07-2.51 9.88.83 6.3 5.68 10.99 5.89 11.18l4.89 4.67-1.57-6.58c0-.01-.04-.16-.08-.44 1.68 3.48 4.75 7.05 10.27 9.57l8.25 3.76-2.7-3.15c.41.25.83.49 1.26.72 2.97 1.56 6.94 2.52 10.36 2.52 3.5 0 5.92-.98 6.99-2.84.6-1.04 1.01-2.8-.42-5.24C46.22 86.5 30.73 80.8 24.25 80.72h-.13z" fill="#961C00"/><path d="M50.85 123.17c-2.84 0-6.46-.53-8.94-.93-2.01-.32-3.27-1.01-3.85-2.1-.76-1.42-.05-2.97.37-3.9.06-.12.11-.23.15-.34.35-.84.99-2.08 1.55-3.19.23-.45.45-.87.61-1.21.33-.67.78-1.58 1.64-2.14.22-.15.46-.3 11.16-3.5.3-.09.6-.13.91-.13 1.88 0 3.4 1.67 4.41 2.77l.44.48c.96 1.04 2.16 2.33 2.61 3.75.58 1.83.05 4.22-2.08 5.23-1.29.62-2.99 1.1-4.2 1.41.45.88.06 1.83-.07 2.13-.47 1.16-1.92 1.67-4.71 1.67zm1.27-5.5c-.04-.67.29-1.33.92-1.8.41-.3 1.29-.87 2.12-1.4l-1.25-.43c-.92 1.11-2.05 2.49-2.85 3.47l1.06.16z" fill="#BDAAD1"/><path d="M54.46 106.73c1.5 0 2.84 1.54 3.77 2.55.94 1.03 2.3 2.38 2.73 3.74.44 1.39.1 3.24-1.56 4.03-1.7.81-4.18 1.38-4.75 1.52-.1.02-.21.03-.31.03-1.02 0-1.8-1.14-.72-1.94.82-.61 3.84-2.47 3.84-2.47l-3.9-1.32s-4.36 5.26-4.38 5.38l3.47.51c2.03.5 2.51 1.06 1.97 2.37-.32.78-1.84 1.04-3.79 1.04-2.79 0-6.46-.55-8.78-.92-4.92-.79-3.13-3.64-2.57-4.96.49-1.15 1.59-3.22 2.14-4.34.32-.66.68-1.35 1.29-1.75.33-.21 7.63-2.4 10.9-3.38.24-.06.45-.09.65-.09m0-2c-.4 0-.81.06-1.2.18-10.84 3.25-11.05 3.38-11.42 3.62-1.09.71-1.63 1.81-1.99 2.54-.16.33-.38.75-.61 1.2-.57 1.11-1.21 2.38-1.58 3.25-.04.1-.09.2-.14.31-.47 1.02-1.34 2.92-.35 4.79.74 1.39 2.24 2.24 4.58 2.62 2.51.41 6.18.94 9.09.94 2.19 0 4.8-.26 5.64-2.28.12-.29.41-.98.36-1.81 1.1-.31 2.38-.72 3.43-1.22 2.64-1.26 3.31-4.19 2.6-6.43-.52-1.64-1.8-3.03-2.84-4.14l-.33-.35-.1-.11c-1.11-1.24-2.81-3.11-5.14-3.11z" fill="#7E6E9E"/><path d="M79.98 114.59c-3.08 0-5.25-.83-6.12-2.34-.47-.81-.77-2.21.41-4.23 12.07-20.62 27.13-26.22 33.41-26.3h.12c2.27 0 4.11.8 5.49 2.37 2.23 2.54 2.61 6.48 2.27 9.09-.79 5.95-5.39 10.41-5.59 10.59l-2.43 2.32.77-3.27c.01-.04.69-3.07-.13-6.68-.61 4.48-3.05 10.85-11.45 14.68l-4.11 1.87 2.93-3.43c.04-.05 2.8-3.32 3.78-7.24-1.69 3.37-4.65 7.64-9.47 10.17-2.82 1.48-6.61 2.4-9.88 2.4z" fill="#FF7043"/><path d="M107.8 82.72c6.07 0 7.27 6.56 6.77 10.33-.75 5.67-5.29 10-5.29 10s1.49-6.28-2.09-11.87c0 0 2.5 12.62-10.88 18.73 0 0 5.88-6.85 4-13.13 0 0-2.54 10.13-10.91 14.52-2.79 1.46-6.44 2.29-9.43 2.29-4.06 0-6.92-1.53-4.84-5.07 11.71-20.01 26.39-25.72 32.56-25.8h.11m0-2h-.13c-6.48.08-21.97 5.78-34.26 26.79-1.43 2.44-1.02 4.19-.42 5.24 1.07 1.86 3.48 2.84 6.99 2.84 3.42 0 7.39-.97 10.36-2.52.43-.23.85-.47 1.26-.72l-2.7 3.15 8.25-3.76c5.52-2.52 8.59-6.09 10.27-9.57-.04.28-.08.43-.08.44l-1.5 6.5 4.83-4.6c.21-.2 5.05-4.89 5.89-11.18.37-2.82-.06-7.09-2.51-9.88-1.56-1.79-3.72-2.73-6.25-2.73z" fill="#961C00"/><path d="M81.07 123.17c-2.79 0-4.24-.51-4.72-1.66-.13-.31-.52-1.25-.07-2.13-1.22-.3-2.91-.79-4.2-1.41-2.13-1.01-2.66-3.4-2.08-5.23.45-1.42 1.65-2.72 2.61-3.75l.44-.48c1.01-1.1 2.53-2.76 4.41-2.76.31 0 .61.04.91.13 10.7 3.2 10.93 3.35 11.16 3.5.86.56 1.31 1.47 1.64 2.14.16.33.37.74.6 1.18.57 1.11 1.21 2.36 1.57 3.21.04.1.1.22.15.34.42.93 1.13 2.47.37 3.9-.58 1.09-1.84 1.78-3.85 2.1-2.48.39-6.1.92-8.94.92zm-4.31-8.7c.83.52 1.71 1.09 2.12 1.4.64.47.97 1.14.92 1.81l1.06-.16c-.8-.98-1.93-2.36-2.85-3.47l-1.25.42z" fill="#BDAAD1"/><path d="M77.46 106.73c.2 0 .41.03.62.09 3.27.98 10.57 3.17 10.9 3.38.61.4.97 1.09 1.29 1.75.55 1.12 1.65 3.19 2.14 4.34.56 1.32 2.35 4.17-2.57 4.96-2.31.37-5.99.92-8.78.92-1.95 0-3.47-.27-3.79-1.04-.54-1.31-.06-1.87 1.97-2.37l3.47-.51c-.01-.12-4.38-5.38-4.38-5.38l-3.9 1.32s3.01 1.86 3.84 2.47c1.09.81.3 1.94-.72 1.94-.1 0-.2-.01-.31-.03-.57-.13-3.05-.7-4.75-1.52-1.66-.79-1.99-2.64-1.56-4.03.43-1.37 1.79-2.72 2.73-3.74.96-1.01 2.3-2.55 3.8-2.55m0-2c-2.32 0-4.02 1.86-5.15 3.09l-.1.11-.33.35c-1.03 1.11-2.32 2.5-2.84 4.14-.71 2.24-.04 5.17 2.6 6.43 1.05.5 2.32.91 3.43 1.22-.05.83.24 1.52.36 1.81.84 2.02 3.45 2.28 5.64 2.28 2.91 0 6.58-.54 9.09-.94 2.34-.38 3.84-1.23 4.58-2.62.99-1.86.12-3.76-.35-4.79l-.14-.31c-.37-.87-1.01-2.13-1.58-3.25-.23-.45-.44-.87-.61-1.2-.36-.73-.9-1.83-1.99-2.54-.37-.24-.57-.37-11.42-3.62-.38-.1-.79-.16-1.19-.16z" fill="#7E6E9E"/><linearGradient id="b" x1="65.962" x2="65.962" y1="23.278" y2="63.348" gradientUnits="userSpaceOnUse"><stop stop-color="#E64A19" offset="0"/><stop stop-color="#FF7043" offset="1"/></linearGradient><path d="M65.9 77.04c-6.35 0-9.93-3.58-12.14-7.17l.56 6.67-2.03-2.43c-3.15-3.78-4.5-7.63-5.01-10.81l-1.68 5.48-.97-3.06c-2.53-7.95-1.52-15.59 3.48-26.36 3.79-8.17 8.01-15.51 17.78-15.51h.12c9.77 0 13.98 7.34 17.78 15.51 5 10.77 6.01 18.41 3.48 26.36l-.97 3.06-1.67-5.48c-.51 3.18-1.85 7.04-5.01 10.81l-2.03 2.43.56-6.67c-2.21 3.59-5.79 7.17-12.14 7.17h-.11z" fill="url(#b)"/><path d="M66.02 24.84c9.1 0 13.04 6.68 16.87 14.93 5.3 11.42 5.67 18.61 3.44 25.64l-2.82-9.21s2.34 8.88-4.65 17.26l.74-8.72c-2.1 4.86-5.22 11.29-13.57 11.29h-.12c-8.35 0-11.47-6.43-13.57-11.29l.74 8.72c-7-8.38-4.65-17.26-4.65-17.26l-2.82 9.21c-2.23-7.03-1.87-14.22 3.44-25.64 3.83-8.25 7.77-14.93 16.87-14.93h.06c0 .01.02 0 .04 0m0-2h-.13c-10.36 0-14.75 7.61-18.69 16.09-5.11 11.02-6.14 18.87-3.53 27.08l1.94 6.11 1.56-5.09c.82 2.46 2.17 5.1 4.34 7.7l4.06 4.86-.53-6.29c2.37 2.63 5.77 4.72 10.84 4.72H66c5.07 0 8.47-2.09 10.84-4.72l-.53 6.29 4.06-4.86c2.17-2.6 3.52-5.24 4.34-7.7l1.56 5.09 1.94-6.11c2.61-8.22 1.59-16.06-3.53-27.08-3.91-8.47-8.3-16.09-18.66-16.09z" fill="#961C00"/><path d="M74.13 33.8c-.62-.68-2.15-2.59-3.22-2.45-.24.03-.46.17-.67.3-1.45.88-3.09 1.43-4.78 1.6.51-.85.8-1.83.83-2.83-2.02 1.52-4.23 2.8-6.56 3.8.49-1.1.93-2.21 1.33-3.34-2.59 1.51-4.4 4.06-5.4 6.84-1 2.77-1.57 5.7-2 8.61-.04.25-.55 4.56-.48 4.56.09 0 .16-.07.22-.13.77-.72 1.82-1.16 2.87-1.5 2.67-.87 5.51-1.28 8.34-1.57.04 0 .09-.01.13-.01.4-.04.8-.08 1.2-.11.4.03.8.07 1.2.11.04 0 .09.01.13.01 2.83.29 5.67.7 8.34 1.57 1.05.34 2.1.77 2.87 1.5.06.06.13.12.22.13.13 0-.91-13.11-4.57-17.09z" fill="#BDAAD1"/><path d="M78.51 50.77c.06.05.12.09.19.1.06 0 .02 0 .02-.04l-.01-.11-.06-.44-.14-.87-.31-1.73c-.23-1.15-.45-2.3-.72-3.43-.53-2.27-1.15-4.52-2.02-6.63-.44-1.04-.95-2.06-1.6-2.88-.7-.77-1.54-1.76-2.31-2.27-.19-.12-.38-.21-.47-.22-.05-.01-.03 0-.03 0-.01 0-.06.03-.16.09a12.145 12.145 0 0 1-5.31 1.88l-1.94.22 1.01-1.69c.42-.71.66-1.53.68-2.35l1.59.82c-2.08 1.59-4.38 2.87-6.78 3.89l-2.13.9.87-2.18c.43-1.09.89-2.17 1.35-3.26l1.33 1.1c-1.51.84-2.77 2.11-3.77 3.57-1.02 1.46-1.65 3.17-2.23 4.94-.56 1.76-1 3.58-1.39 5.42-.2.92-.35 1.83-.52 2.77l-.25 1.39-.12.7-.05.35c0 .04 0 .04-.02.07.02 0 .05 0 .08-.01.05-.02.1-.06.15-.09-.04.04-.08.09-.13.12-.03.01-.06.03-.09.03-.03-.03-.03-.09-.03-.11v-.36l.02-.71c.01-.47.03-.94.06-1.42.05-.94.09-1.9.2-2.84.19-1.88.47-3.77.91-5.64.43-1.85 1.04-3.75 2.07-5.47a12.46 12.46 0 0 1 4.19-4.29l2.27-1.39-.94 2.49c-.43 1.14-.86 2.29-1.32 3.43l-1.26-1.28c2.26-.97 4.38-2.24 6.35-3.7l1.66-1.23-.07 2.06a6.838 6.838 0 0 1-.99 3.3l-.93-1.47c1.07-.1 2.12-.38 3.12-.79.51-.21.95-.43 1.47-.74.16-.09.36-.2.64-.27s.61-.05.84 0c.49.11.81.32 1.11.53.58.42 1.01.87 1.43 1.33.42.48.76.86 1.18 1.42.75 1.07 1.23 2.21 1.63 3.35.78 2.3 1.22 4.64 1.54 6.98.15 1.17.28 2.35.35 3.53.04.59.07 1.18.09 1.77l.01.88-.01.44-.01.11c0 .01 0 .04-.02.07-.01.02-.04 0-.06 0-.11-.03-.16-.09-.21-.14z" fill="#961C00"/><path d="M72.02 39.44c-5.3-1.31-3.5 4.88-10.79 3.75-6.21-.96-6.32 6.67-6.5 6.81l3.09-.77c2.25-.56 4.09-.48 5.25-1.05.85-.42 1.09-1.25 1.52-2.02.68-1.21 2.06-1.13 2.73.04.44.77.67 1.6 1.52 2.02 1.15.57 3 .49 5.25 1.05 3.09.77 3.42 1.24 3.42 1.24s-1.54-10.09-5.49-11.07z" fill="#927DB2"/><path d="M71.38 50.28c-1.9-1.33-3.25-2.98-4.12-4.28-.31-.46-.81-.67-1.3-.65-.49-.03-.99.19-1.3.65-.87 1.3-2.23 2.95-4.12 4.28-3.59 2.51-6.3 6.69-6.2 10.5.17 6.38 5.17 11.56 11.56 11.56h.12c6.38 0 11.38-5.18 11.56-11.56.1-3.81-2.61-7.99-6.2-10.5z" fill="#7E6E9E"/><path d="M70.91 50.03c-1.73-1.21-2.96-2.72-3.76-3.9-.28-.42-.74-.61-1.18-.59-.45-.02-.9.17-1.18.59-.8 1.19-2.03 2.69-3.76 3.9-3.28 2.29-5.75 6.1-5.65 9.58.16 5.82 4.72 10.54 10.54 10.54h.1c5.82 0 10.38-4.72 10.54-10.54.09-3.48-2.38-7.29-5.65-9.58z" fill="#BDAAD1"/><path d="M67.14 51.37l1.09-.74a.923.923 0 0 1 1.29.26c.29.43.17 1.02-.26 1.3l-1.09.74c-.43.29-1.01.17-1.29-.26s-.17-1.02.26-1.3zM63.85 52.92l-1.14-.66a.944.944 0 0 1-.34-1.28c.26-.45.83-.6 1.27-.34l1.14.66c.44.26.6.84.34 1.28-.25.45-.83.6-1.27.34z"/><ellipse cx="61.23" cy="46.18" rx="2.44" ry="2.38"/><ellipse cx="70.69" cy="46.18" rx="2.44" ry="2.38"/><path d="M70.69 65.56c-.54 1.75-2.99.94-4.56.94s-4.16.84-4.16-.62 2.59-3.04 4.16-3.04 5.03 1.21 4.56 2.72z"/><path d="M63.6 23c-.27 0-.53-.03-.78-.1-.57-.16-.99-.56-1.15-1.1-.38-1.3 1.07-3.53 2.58-5.42-.26.01-.53.02-.8.02-2.46 0-4.6-.47-5.74-.77-1.39 2.96-3.75 5.86-10.83 6.04l-.96.02-.75-11.78.56-.3c.24-.13 5.95-3.21 8.56-4.25.58-.23 1.18-.35 1.8-.35.79 0 1.58.2 2.29.57 2.44 1.29 8.4 4.44 11.06 5.9 1 .55 3.66 2 2.09 5.08-.49.95-4.56 6.44-7.93 6.44z" fill="#BDAAD1"/><path d="M56.1 6.01c.63 0 1.25.15 1.82.45 2.77 1.46 8.46 4.48 11.05 5.89 1.84 1.01 2.56 2.02 1.68 3.75-.59 1.16-4.4 5.9-7.04 5.9a1.7 1.7 0 0 1-.51-.07c-2.15-.58 3.62-6.85 3.62-6.85-1.1.23-2.2.32-3.25.32-3.47 0-6.3-.98-6.3-.98-1.2 2.83-2.95 6.06-10.3 6.24l-.65-10.18s5.86-3.17 8.45-4.2c.46-.18.94-.27 1.43-.27m0-2c-.75 0-1.48.14-2.17.42-2.67 1.06-8.42 4.17-8.67 4.3l-1.12.61.08 1.28.65 10.18.12 1.92 1.92-.05c6.8-.17 9.66-2.77 11.34-5.87 1.03.24 2.43.49 4.03.58-2.05 3-1.7 4.23-1.56 4.71.26.89.93 1.54 1.84 1.79.33.08.68.12 1.04.12 3.89 0 8.19-5.76 8.82-6.99 1.66-3.26-.44-5.29-2.5-6.41-2.56-1.4-8.04-4.3-11.07-5.91a5.89 5.89 0 0 0-2.75-.68z" fill="#7E6E9E"/><path d="M90.63 91.83c-1.48 0-2.72-.66-3.41-1.8-.84-1.4-.73-3.31.3-5.24 1.65-3.11 5.73-10.58 7.99-12.86 1.14-1.16 2.56-1.77 4.1-1.77.66 0 1.33.11 1.99.34.79.27 7.78 2.69 9.56 4.44 1.76 1.71 2.29 4.16 1.38 6.38-.83 2.03-2.64 3.29-4.73 3.29-.37 0-.75-.04-1.13-.12-.98-.2-2.47-.53-3.22-.69-1.78 1.38-8.27 6.42-9.8 7.21-1.04.54-2.06.82-3.03.82z" fill="#BDAAD1"/><path d="M99.61 71.16c.55 0 1.11.09 1.67.29 2.95 1.01 7.92 2.96 9.19 4.21 3.06 2.98 1.1 7.96-2.65 7.96-.3 0-.61-.03-.93-.1-1.35-.28-3.67-.79-3.67-.79s-8.38 6.55-10.02 7.4c-.93.48-1.8.7-2.56.7-2.54 0-3.92-2.4-2.23-5.58 1.62-3.06 5.68-10.47 7.81-12.62.95-.97 2.13-1.47 3.39-1.47m0-2c-1.79 0-3.5.73-4.82 2.06-2.27 2.29-6.09 9.19-8.16 13.09-1.2 2.25-1.29 4.52-.27 6.23.87 1.45 2.43 2.29 4.27 2.29 1.13 0 2.31-.31 3.49-.93 1.51-.79 7.26-5.22 9.58-7.03.8.17 1.96.42 2.77.59.45.09.9.14 1.34.14 2.51 0 4.68-1.5 5.66-3.91 1.05-2.57.41-5.51-1.61-7.48-1.9-1.85-8.61-4.21-9.94-4.67-.76-.25-1.54-.38-2.31-.38z" fill="#7E6E9E"/><path d="M56.2 45.72c.18-1.05 1.19-1.77 2.16-2.13 1-.36 2.05-.48 3.09-.51 1.07-.02 2.01.07 2.94-.18.93-.2 1.79-.62 2.56-1.18.8-.55 1.46-1.28 2.34-1.94.22-.16.47-.32.74-.44s.62-.19.89-.2c.57-.04 1.15.07 1.67.3 1.05.46 1.77 1.33 2.3 2.22.51.91.89 1.88 1.09 2.89-.4-.94-.87-1.84-1.48-2.63-.59-.78-1.33-1.47-2.19-1.78-.43-.16-.88-.2-1.32-.15-.44.02-.76.22-1.14.52-.73.6-1.45 1.37-2.32 2s-1.89 1.11-2.96 1.3c-1.07.22-2.18.09-3.14.02-.99-.04-1.99-.03-2.94.2-.94.22-1.89.72-2.29 1.69z" fill="#705E9E"/></svg>