<svg viewBox="0 0 128 128" width="128" height="128" xmlns="http://www.w3.org/2000/svg" xmlns:xlink="http://www.w3.org/1999/xlink"><path d="M123.25 41.77H5.17s-1.05 31.52-.56 38.34c.26 3.56.43 8.35 3.56 9.98.74.38 1.22 1.21.99 1.99-.88 3.08 8.1 9.63 14.1 9.76.71.01 1.32.41 1.64 1.03 1.56 2.95 18.41 7.13 23.73 5.65.6-.17 1.26-.12 1.74.25 3.29 2.54 25.19-23.08 28.95-24.85 1.47-.69 39.99 6.49 40.75 6.06 5.04-2.85 3.83-14 3.96-18.59.07-1.94-.78-29.62-.78-29.62z" fill="#F09D3E"/><defs><path id="a" d="M120.08 89.97c5.04-2.85 3.83-14 3.96-18.59.06-1.94-.79-29.62-.79-29.62H5.17S4.12 73.28 4.61 80.1c.26 3.56.43 8.35 3.56 9.98.74.38 1.22 1.21.99 1.99-.88 3.08 8.1 9.63 14.1 9.76.71.01 1.32.41 1.64 1.03 1.56 2.95 18.41 7.13 23.73 5.65.6-.17 1.26-.12 1.74.25 3.29 2.54 25.86 2.54 29.15 0l-.27-19.85"/></defs><clipPath id="b"><use xlink:href="#a"/></clipPath><g clip-path="url(#b)"><path fill="#FFB35E" d="M23.75 103.29l-14.87.12.37-58.46 15.87.61z"/><path fill="#FFBF78" d="M9.31 90.87l-9.56-.18V36.14l9.48 1 2.33 10.62-2.31 1.59z"/><path fill="#96672E" d="M128.5 90.69H119l-1.25-54.55h10.75z"/></g><path clip-path="url(#b)" fill="#E39844" d="M79.25 112.22l-28.58-.09V49.35l28.83-.24z"/><path clip-path="url(#b)" fill="none" stroke="#BF7D32" stroke-miterlimit="10" stroke-width="2.967" d="M50 49.11v60.64"/><path clip-path="url(#b)" fill="none" stroke="#D98E39" stroke-miterlimit="10" stroke-width="2.967" d="M24.5 46.82v58.95"/><linearGradient id="c" x1="39.637" x2="98.058" y1="24.07" y2="66.332" gradientUnits="userSpaceOnUse"><stop stop-color="#D78C3A" offset="0"/><stop stop-color="#C9710E" offset="1"/></linearGradient><path d="M78.18 19.9c2.44-3.81-30.47-3.81-28.03 0-2.44-3.81-30.93 3.08-24.27 5.87-6.66-2.79-23.11 9.15-14.02 10.17-9.1-1.02-9.1 12.76 0 11.74-9.1 1.02 7.36 12.96 14.02 10.17-6.66 2.79 21.84 9.68 24.27 5.87-2.44 3.81 30.47 3.81 28.03 0 2.44 3.81 30.93-3.08 24.27-5.87 6.66 2.79 23.11-9.15 14.02-10.17 9.1 1.02 9.1-12.76 0-11.74 9.1-1.02-7.36-12.96-14.02-10.17 6.66-2.78-21.83-9.67-24.27-5.87z" fill="url(#c)"/><g fill="#A8663C"><path d="M65.11 22.35c-27.79 0-50.39 9.22-50.39 20.55s22.61 20.55 50.39 20.55c27.79 0 50.39-9.22 50.39-20.55S92.89 22.35 65.11 22.35zm2.46 11.35c3.4.15 6.58.61 9.37 1.3h-9.37v-1.3zm0 3.31H82.6c.75.37 1.42.76 2.02 1.17H67.57v-1.17zm-2.46 24.44c-25.07 0-45.47-8.32-45.47-18.55 0-9.89 19.08-17.99 43.01-18.52v2.88c-12.19.32-22.86 2.96-29.34 6.86h6.16c5.65-2.74 13.89-4.56 23.17-4.84v2.4c-11.84.43-21.55 3.92-24.35 8.5h24.35v2h-35.9c-.03.24.01 1.58.09 2h71.6c-.17.71-.46 1.41-.89 2.09H27.61c.37.69.85 1.36 1.43 2.01h66.83c-5.14 4.86-16.99 8.27-30.76 8.27-12.11 0-22.74-2.64-28.63-6.58h-5.62c6.35 5.09 19.31 8.58 34.24 8.58 16.54 0 30.66-4.28 36.06-10.27h7.44c-5.66 7.62-23.02 13.17-43.49 13.17zM53.28 35.01c2.79-.7 5.96-1.15 9.37-1.3v1.3h-9.37zm9.37 2v1.17H45.59c.6-.41 1.28-.8 2.02-1.17h15.04zm39.95 9.28c.59-1.09.91-2.22.91-3.39 0-.92-.2-1.82-.58-2.7h-5c.32.65.53 1.31.61 1.98H67.57v-2h24.35c-2.8-4.59-12.51-8.08-24.35-8.5v-2.4c9.28.28 17.52 2.1 23.17 4.84h6.16c-6.48-3.89-17.15-6.54-29.34-6.86v-2.88c23.93.52 43.01 8.63 43.01 18.52 0 1.16-.27 2.29-.77 3.39h-7.2z"/><path d="M65.11 54.17c8.65 0 16.38-1.63 21.45-4.18h-6.85c-3.95 1.36-9.05 2.18-14.6 2.18-5.56 0-10.65-.82-14.6-2.18h-6.85c5.07 2.55 12.79 4.18 21.45 4.18z"/></g><g fill="#FFB342"><path d="M63.45 21.68c-27.79 0-50.39 9.22-50.39 20.55s22.61 20.55 50.39 20.55c27.79 0 50.39-9.22 50.39-20.55.01-11.33-22.6-20.55-50.39-20.55zm2.46 11.35c3.4.15 6.58.61 9.37 1.3h-9.37v-1.3zm0 3.31h15.04c.74.37 1.42.76 2.02 1.17H65.91v-1.17zm-2.46 24.44c-25.07 0-45.47-8.32-45.47-18.55 0-9.89 19.08-17.99 43.01-18.52v2.88c-12.19.32-22.86 2.96-29.34 6.86h6.16c5.65-2.74 13.89-4.56 23.17-4.84v2.4c-11.84.43-21.55 3.92-24.35 8.5h24.35v2h-35.9c-.03.24.01 1.58.09 2h71.6c-.17.71-.46 1.41-.89 2.09H25.96c.37.69.85 1.36 1.43 2.01h66.83c-5.14 4.86-16.99 8.27-30.76 8.27-12.11 0-22.74-2.64-28.63-6.58h-5.62c6.35 5.09 19.31 8.58 34.24 8.58 16.54 0 30.66-4.28 36.06-10.27h7.44c-5.67 7.62-23.02 13.17-43.5 13.17zM51.63 34.33c2.79-.7 5.96-1.15 9.37-1.3v1.3h-9.37zm9.36 2.01v1.17H43.93c.6-.41 1.28-.8 2.02-1.17h15.04zm39.96 9.28c.59-1.09.91-2.22.91-3.39 0-.92-.2-1.82-.58-2.7h-5c.32.65.53 1.31.61 1.98H65.91v-2h24.35c-2.8-4.59-12.51-8.08-24.35-8.5v-2.4c9.28.28 17.52 2.1 23.17 4.84h6.16c-6.48-3.89-17.15-6.54-29.34-6.86v-2.88c23.93.52 43.01 8.63 43.01 18.52 0 1.16-.27 2.29-.77 3.39h-7.19z"/><path d="M63.45 53.5c8.65 0 16.38-1.63 21.45-4.18h-6.85c-3.95 1.36-9.04 2.18-14.6 2.18s-10.65-.82-14.6-2.18H42c5.07 2.54 12.8 4.18 21.45 4.18z"/></g><path fill="#66401F" d="M120.08 89.97l-40.82-4.14V64.92L64.13 42.17l55.49 5.5z"/><defs><path id="d" d="M120.33 110.67l-41.07-1.84V64.92L64.13 42.17l56.89 6.16z"/></defs><clipPath id="e"><use xlink:href="#d"/></clipPath><g clip-path="url(#e)"><path d="M105.18 67.53c-.09 2.39-.89 4.05-2.65 5.62-1.57 1.4-3.44 2.16-5.9 2.66-2.08.42-4.39 1.94-6.84 1.55-1.88-.3-3.67-1.35-5.32-2.07-1.77-.77-3.65-1.54-5.02-2.67-1.51-1.25-1.76-3.49-2.63-5.01-.96-1.69-2.02-3.17-1.95-4.98.09-2.39 1.66-3.86 3.41-5.43 1.57-1.4 3.29-2.33 5.75-2.82 2.08-.42 4.35-1.62 6.79-1.23 1.88.3 3.71 1.07 5.36 1.79 1.77.77 3.63 1.55 5 2.68 1.51 1.25 2.17 3.24 3.03 4.76.96 1.67 1.03 3.33.97 5.15z" fill="#E07700"/></g><defs><path id="f" d="M120.08 89.97L79.26 86V64.92L64.13 42.17l55.49 5.5z"/></defs><clipPath id="g"><use xlink:href="#f"/></clipPath><g clip-path="url(#g)"><path fill="#FFB342" d="M60.72 43.17l60.78 5.87"/><path fill="#FFD28F" d="M60.539 45.159l.385-3.982 60.779 5.874-.385 3.982z"/></g><g clip-path="url(#g)"><path fill="#FFB342" d="M60.72 82.17l60.78 5.87"/><path fill="#FFD28F" d="M60.54 84.16l.385-3.981 60.779 5.874-.385 3.981z"/></g><path transform="rotate(-.63 118.89 71.29)" clip-path="url(#g)" fill="#FFD28F" d="M117.19 48.48h3v45.38h-3z"/><path d="M64.22 17.19v3c6.68 0 10.97.71 11.95 1.23.78.64 1.74.99 2.71.99.48 0 .95-.08 1.4-.25.15-.06.78-.24 2.3-.24 6.04 0 15.9 2.63 18.14 4.15.51 1.45 1.85 2.45 3.43 2.45.1 0 .2 0 .31-.01.13-.01.27-.02.41-.02 4.11 0 9.29 3.54 10.9 5.36-.55.7-.81 1.61-.65 2.52.24 1.42 1.4 2.52 2.83 2.68 2.54.28 2.41 2.89 2.39 3.19-.01.11-.01.22-.01.32.41 13.5.81 27.66.78 28.88-.02.84-.01 1.8.01 2.93.06 3.49.17 10.47-1.89 12.69-.31-.04-.73-.09-1.31-.18-.04-.01-.08-.01-.13-.02L79.71 83c-.1-.01-.2-.02-.3-.02-.74 0-1.45.27-2.01.77-.63.57-.99 1.37-.99 2.22l-.01 2.39c-.06.24-.09.49-.08.74l.06 4.51-.05 13.34c-2.06.44-5.97.86-11.32.86-6.69 0-11.13-.66-12.52-1.2-.18-.13-.38-.25-.6-.34-.74-.46-1.61-.71-2.54-.71-.49 0-.98.07-1.46.2-.27.07-.89.2-2.11.2-6.61 0-16.64-3.11-18.27-4.55a4.91 4.91 0 0 0-4.12-2.43c-4.15-.09-10.35-4.46-11.18-6.34.37-1.99-.67-4.08-2.59-5.07-1.48-.77-1.74-4.49-1.91-6.95l-.04-.58c-.45-5.94.35-31.78.51-36.89.01-.2-.01-.39-.04-.59-.16-.98.08-2 .64-2.65.5-.59 1.21-.87 2.19-.87.19 0 .4.01.61.04a2.997 2.997 0 0 0 3.32-2.65 3 3 0 0 0-1.73-3.06c2-1.9 6.65-4.86 10.41-4.86.62 0 1 .1 1.2.19.38.16.77.23 1.16.23a3.002 3.002 0 0 0 2.97-3.46c3.47-1.52 11.68-3.53 16.96-3.53 1.44 0 2.08.16 2.28.23.44.15.9.22 1.37.22.98 0 1.96-.34 2.75-.95.95-.52 5.25-1.23 11.96-1.23v-3.02M64.22 17.19c-6.12 0-12.24.61-13.78 1.84-.27.22-.6.34-.94.34-.14 0-.28-.02-.42-.07-.79-.27-1.91-.38-3.23-.38-8.42 0-25.2 4.78-19.92 6.99-.69-.29-1.49-.42-2.36-.42-7.45 0-19.8 9.67-11.66 10.59-.33-.04-.64-.05-.94-.05-4.41 0-6.33 3.74-5.79 7.02-.18 5.67-.96 31.15-.52 37.2.26 3.56.43 8.35 3.56 9.98.74.38 1.22 1.21.99 1.99-.88 3.08 8.1 9.63 14.1 9.76.71.02 1.32.41 1.64 1.03 1.33 2.53 13.9 5.96 20.82 5.96 1.16 0 2.16-.1 2.92-.31.21-.06.44-.09.66-.09.39 0 .77.1 1.08.34.08.06.18.1.29.12v.06c2.01 1.15 8.15 1.72 14.29 1.72 6.16 0 12.33-.58 14.31-1.73l.06-15.48-.06-4.53h.08l.01-3.08 38.07 3.86c1.26.18 2.14.29 2.5.29.08 0 .14-.01.16-.02 5.04-2.85 3.83-14 3.96-18.59.05-1.78-.66-25.16-.78-29.05.23-2.91-1.45-6-5.05-6.4-.22-.02-.29-.31-.09-.41 4.4-2.09-6.51-10.17-13.32-10.17-.23 0-.45.01-.66.03h-.05c-.35 0-.61-.29-.64-.65-.2-2.4-13.67-5.95-20.93-5.95-1.38 0-2.53.13-3.32.41-.13.05-.25.07-.38.07-.3 0-.59-.12-.84-.33-1.45-1.26-7.64-1.89-13.82-1.89z" fill="#424242" opacity=".2"/></svg>