<svg viewBox="0 0 128 128" width="128" height="128" xmlns="http://www.w3.org/2000/svg"><radialGradient id="a" cx="65.724" cy="21.779" r="14.48" gradientUnits="userSpaceOnUse"><stop stop-color="#FF8A80" offset="0"/><stop stop-color="#D32F2F" offset="1"/></radialGradient><path d="M51.55 19.41c-5.81 5.13.4 10.14.4 10.14s-.9 8.7 10.21 6.43c2.24-.46 4.42-1.15 6.63-1.72-.24.92 1.67 5.24 7.39 2.55 0 0-1.91-1.06-1.49-2.59.91.56 5.35-.17 6.15-2.63 0 0-2.51.85-2.34-1.77.12-1.83 2.03-2.51 2.34-5.94.37-4.06-1.66-6.5-3.51-7.65-.52-2.4-2.18-3.26-4.38-4.35" fill="url(#a)" stroke="#B71C1C" stroke-miterlimit="10"/><linearGradient id="b" x1="62.831" x2="62.831" y1="32.006" y2="79.176" gradientUnits="userSpaceOnUse"><stop stop-color="#E0BB95" offset="0"/><stop stop-color="#DEB892" offset=".41"/><stop stop-color="#D6B088" offset=".742"/><stop stop-color="#CCA47A" offset=".998"/></linearGradient><path d="M78.77 56.08c.01-.03.03-.06.04-.08 2.05-4.94 2.52-7.49 1.52-10.49s-2.91-3.57-5-4.56c-1.83-.87-4.88-1.44-4.88-1.44l-.04-9.67-10.96-1.02.21 10.52s-6.17.25-9.17 2.08c-1.91 1.17-4.71 10.42-5.64 16.53-.19 1.22.65 3.12 3.21 3.99 1.71.58 3.97-.43 3.97-.43l.3 9.91 9.58 12.75 13.92-11.48c.36-1.6 1.5-12.19 2.94-16.61z" fill="url(#b)" stroke="#BA8F63" stroke-linecap="round" stroke-linejoin="round" stroke-miterlimit="10"/><path d="M55.01 28.14c-1.85 0-3.35-1.62-3.35-3.6 0-1.99 1.5-3.6 3.35-3.6h19.64c1.85 0 3.35 1.62 3.35 3.6s-1.5 3.6-3.35 3.6H55.01z" fill="#C48E6A"/><path d="M74.65 21.44c1.57 0 2.85 1.39 2.85 3.1s-1.28 3.1-2.85 3.1H55.01c-1.57 0-2.85-1.39-2.85-3.1s1.28-3.1 2.85-3.1h19.64m0-1H55.01c-2.12 0-3.85 1.85-3.85 4.1 0 2.26 1.73 4.1 3.85 4.1h19.64c2.12 0 3.85-1.85 3.85-4.1-.01-2.26-1.74-4.1-3.85-4.1z" fill="#B07853"/><linearGradient id="c" x1="64.828" x2="64.828" y1="36.166" y2="7.065" gradientUnits="userSpaceOnUse"><stop stop-color="#CCA47A" offset="0"/><stop stop-color="#D6B088" offset=".257"/><stop stop-color="#DEB892" offset=".589"/><stop stop-color="#E0BB95" offset="1"/></linearGradient><path d="M64.83 36.41c-5.56 0-11.54-4.32-11.54-13.8 0-7.6 4.41-15.81 11.54-15.81s11.54 8.21 11.54 15.81c0 9.48-5.98 13.8-11.54 13.8z" fill="url(#c)"/><path d="M64.83 7.3c2.76 0 5.53 1.52 7.58 4.16 2.24 2.88 3.47 6.84 3.47 11.15 0 4.18-1.2 7.65-3.47 10.05-1.98 2.1-4.67 3.25-7.57 3.25s-5.59-1.15-7.57-3.25c-2.27-2.4-3.47-5.88-3.47-10.05 0-4.31 1.23-8.27 3.47-11.15 2.03-2.65 4.79-4.16 7.56-4.16m0-1c-6.25 0-12.04 6.69-12.04 16.31 0 9.57 5.97 14.3 12.04 14.3 6.08 0 12.04-4.73 12.04-14.3 0-9.63-5.79-16.31-12.04-16.31z" fill="#BA8F63"/><ellipse cx="58.92" cy="23.45" rx="1.77" ry="1.83" fill="#5D4037"/><ellipse cx="70.73" cy="23.45" rx="1.77" ry="1.83" fill="#5D4037"/><path d="M66.21 26.77c-.04-.02-.08-.02-.12-.03h-2.54c-.04 0-.08.01-.12.03-.23.09-.36.33-.25.59.11.25.61.97 1.63.97s1.53-.71 1.63-.97c.13-.26 0-.5-.23-.59z" fill="#C48E6A"/><path d="M67.85 29.68c-1.14.68-4.9.68-6.04 0-.66-.39-1.33.21-1.06.8s2.32 1.95 4.09 1.95 3.79-1.36 4.06-1.95c.27-.6-.39-1.19-1.05-.8z" fill="#6D4C41"/><g fill="#AB872F"><path d="M68.18 20.45c.33-.43 1.1-1.05 2.57-1.03s2.22.66 2.54 1.1c.14.19.1.41 0 .55-.09.12-.37.24-.67.13s-.89-.42-1.88-.44c-.99-.01-1.59.29-1.9.39-.3.1-.58-.02-.67-.14a.48.48 0 0 1 .01-.56zM56.54 20.3c.33-.43 1.1-1.05 2.57-1.03s2.22.66 2.54 1.1c.14.19.1.41 0 .55-.09.12-.37.24-.67.13s-.89-.42-1.88-.44c-.99-.01-1.59.29-1.9.39-.3.1-.58-.02-.67-.14a.45.45 0 0 1 .01-.56z"/></g><path d="M47.23 54.59c1.77-.74 3.73-1.02 5.64-.8" fill="none" stroke="#BA8F63" stroke-linecap="round" stroke-linejoin="round" stroke-miterlimit="10"/><linearGradient id="d" x1="55.859" x2="48.097" y1="55.331" y2="62.508" gradientUnits="userSpaceOnUse"><stop stop-color="#E0BB95" offset="0"/><stop stop-color="#DEB892" offset=".41"/><stop stop-color="#D6B088" offset=".742"/><stop stop-color="#CCA47A" offset=".998"/></linearGradient><path d="M55.75 54.44c-6.38-.72-8.56.11-9.09.77-1.84 2.29-.92 3.75-.77 4.58.09.48 1.45 1.35 1.88 1.59.32.18.7.22 1.06.24 3.6.21 11.4-1.52 12.66-2.87.43-.45-4.81-4.21-5.74-4.31z" fill="url(#d)"/><path fill="none" stroke="#BA8F63" stroke-linecap="round" stroke-linejoin="round" stroke-miterlimit="10" d="M49.57 62.1l12.84-3.11"/><linearGradient id="e" x1="76.459" x2="58.652" y1="57.275" y2="49.437" gradientUnits="userSpaceOnUse"><stop stop-color="#E0BB95" offset="0"/><stop stop-color="#DEB892" offset=".41"/><stop stop-color="#D6B088" offset=".742"/><stop stop-color="#CCA47A" offset=".998"/></linearGradient><path d="M80.81 49.18c-.07.69-2.37 9.74-3.84 12.57-.88 1.7-2.75 3.75-5.94 3.08-2.21-.46-9.52-6.5-13.92-10.25l-5.55-1.08s1.35-3.94 5.55-4.38c3.59-.38 13.63 6.7 13.63 6.7l2.4-7.94" fill="url(#e)" stroke="#BA8F63" stroke-linecap="round" stroke-linejoin="round" stroke-miterlimit="10"/><linearGradient id="f" x1="75.39" x2="68.931" y1="57.628" y2="51.254" gradientUnits="userSpaceOnUse"><stop stop-color="#E0BB95" offset="0"/><stop stop-color="#DEB892" offset=".41"/><stop stop-color="#D6B088" offset=".742"/><stop stop-color="#CCA47A" offset=".998"/></linearGradient><path d="M66.47 52.8c.92-.74 4.43-3.02 6.37-1.87 1.11.66 1.83 1.51 2.29 2.72.35.91.74 2.1-.04 2.84-.84.8-2.97 1.47-4.05 1.04s-1.64-1.79-2.21-2.58" fill="url(#f)"/><path d="M66.47 52.8c.92-.74 4.43-3.02 6.37-1.87 1.11.66 1.83 1.51 2.29 2.72.35.91.74 2.1-.04 2.84-.84.8-3.18 1.51-4.64.18-.85-.78-.78-2.25-3.98-3.87" fill="none" stroke="#BA8F63" stroke-linecap="round" stroke-linejoin="round" stroke-miterlimit="10"/><linearGradient id="g" x1="55.09" x2="87.947" y1="69.773" y2="126.22" gradientUnits="userSpaceOnUse"><stop stop-color="#FFA000" offset="0"/><stop stop-color="#FF9B06" offset=".108"/><stop stop-color="#FF8E19" offset=".26"/><stop stop-color="#FF7936" offset=".436"/><stop stop-color="#FF7043" offset=".5"/><stop stop-color="#FF8E19" offset=".819"/><stop stop-color="#FFA000" offset="1"/></linearGradient><path d="M66.21 124.48c-3.06 0-5.86-.63-8.09-1.81-9.57-5.09-13.16-19.51-9.61-38.58.74-3.96 1.81-8.9 3.62-12.6.84 1.24 3.09 3.98 9.43 4.27.36.02.71.02 1.06.02 5.02 0 9.23-1.57 11.75-2.5.66-.24 1.29-.48 1.65-.57.94 10.64-1.89 14.82-4.88 19.25-2.78 4.12-5.66 8.38-5.66 17.92 0 6.43 2.34 8 6.1 8.44.23.03.46.04.69.04 2.01 0 4.21-.99 6.72-3.02l.38-.3-.28-.39c-1.65-2.31-3.4-5.08-3.87-8.1-.48-3.09.21-6.82 1.91-10.24.62-1.25 1.51-2.84 2.83-3.96.36-.31.75-.59 1.17-.84-.24.69-.42 1.38-.46 1.58-.28 1.27-.09 2.74.52 4.13.55 1.25 1.36 2.31 2.14 3.34.88 1.16 1.71 2.25 2.21 3.58.26.7.45 1.42.57 2.14.03.17.03.39.04.61.02.57.04 1.17.33 1.57l.15.22h.27c.14 0 .15 0 1.58-.58.57-.23 1.13-.46 1.25-.5.94-.28 1.97-.42 2.97-.55l.18-.02c1.52-.21 3.07-.31 4.6-.31.62 0 1.24.02 1.86.05l.8.05c.66.04 1.31.09 1.97.09.76 0 1.42-.06 2.02-.18.22-.04.43-.1.65-.17.7-.22 1.32-.53 1.84-.93-1.46 4.75-6.35 13.38-16.23 13.38-2.45 0-5.09-.54-7.84-1.6l-.37-.14-.23.32c-2.95 4.12-9.28 6.89-15.74 6.89z" fill="url(#g)"/><path d="M52.23 72.49c1.19 1.43 3.74 3.54 9.3 3.79.36.02.72.02 1.08.02 5.11 0 9.38-1.59 11.93-2.54.34-.13.71-.26 1.02-.37.76 9.99-1.97 14.02-4.84 18.28-2.83 4.18-5.75 8.5-5.75 18.2 0 5.89 1.84 8.4 6.56 8.95.25.03.5.04.75.04 2.13 0 4.43-1.02 7.04-3.13l.75-.61-.56-.79c-1.62-2.26-3.33-4.97-3.78-7.88-.47-2.99.21-6.61 1.86-9.93.59-1.19 1.42-2.67 2.62-3.74-.03.11-.04.17-.04.18-.3 1.38-.1 2.95.55 4.45.57 1.3 1.4 2.39 2.2 3.44.86 1.13 1.67 2.19 2.13 3.45.25.67.43 1.35.55 2.05.02.12.03.34.04.54.02.62.05 1.32.42 1.85l.31.44h.53c.25 0 .25 0 1.78-.62.46-.19 1.09-.44 1.2-.48.91-.27 1.93-.4 2.91-.54l.16-.02a34.389 34.389 0 0 1 6.37-.25c.26.01.52.03.79.05.65.04 1.33.09 2 .09.79 0 1.49-.06 2.13-.19.24-.05.47-.11.7-.18.26-.08.51-.18.76-.28-1.82 4.72-6.53 11.72-15.3 11.72-2.39 0-4.97-.53-7.66-1.56l-.74-.29-.46.65c-2.87 4-9.03 6.69-15.33 6.69-2.98 0-5.69-.61-7.85-1.75-9.36-4.98-12.85-19.19-9.35-38.03.68-3.66 1.65-8.16 3.22-11.7m-.16-1.92c-.02 0-.05.02-.07.06-2.06 3.82-3.21 9.12-4 13.38-3.25 17.46-.78 33.46 9.88 39.12 2.39 1.27 5.31 1.87 8.33 1.87 6.25 0 12.91-2.58 16.17-7.12 2.97 1.14 5.64 1.63 8.03 1.63 11.86 0 16.87-12.02 17.21-15.99-.45 1.27-1.66 2.14-2.97 2.54-.2.06-.4.11-.6.15-.63.13-1.28.17-1.92.17-.91 0-1.83-.08-2.74-.13-.63-.03-1.25-.05-1.88-.05-1.56 0-3.12.11-4.67.31-1.07.14-2.19.29-3.22.59-.26.08-2.6 1.06-2.69 1.06-.3-.43-.19-1.42-.28-1.98-.13-.76-.33-1.51-.6-2.23-.98-2.65-3.24-4.41-4.36-6.95-.52-1.18-.77-2.54-.49-3.81.15-.68.68-2.44 1.05-2.84-.18.2-.58.29-.82.41-.64.32-1.24.72-1.78 1.18-1.29 1.11-2.2 2.61-2.95 4.13-1.56 3.13-2.51 7.04-1.96 10.55.48 3.05 2.2 5.85 3.96 8.32-1.87 1.51-4.11 2.91-6.4 2.91-.21 0-.42-.01-.63-.04-3.67-.43-5.67-1.93-5.67-7.93 0-19.75 12.5-16.44 10.5-37.56-.01-.11-.09-.15-.24-.15-1.19 0-6.69 3.11-13.65 3.11-.34 0-.69-.01-1.03-.02-8.04-.37-9.13-4.69-9.51-4.69z" fill="#D84315"/><path d="M51.4 78.02c.18.75.5 1.17.85 1.56.36.37.75.71 1.18.97.33.24.76.38 1.26.46.51.07 1.08.06 1.81-.14l.08.08c-.91 1.02-2.58 1.29-3.77.54-.57-.38-1.05-.9-1.35-1.51-.31-.61-.4-1.35-.16-2l.1.04zM58.49 81.36c.63.34 1.12.55 1.59.71.47.14.9.25 1.31.27.41.05.84.02 1.33-.05.48-.08 1-.21 1.67-.47l.09.06c-.68 1.02-1.93 1.66-3.18 1.57-1.25-.13-2.36-.95-2.91-2.05l.1-.04zM60.46 85.12c.56.43 1.02.72 1.46.95.45.21.85.39 1.25.47.4.12.83.15 1.32.16a9.46 9.46 0 0 0 1.72-.2l.08.08c-.84.9-2.16 1.34-3.38 1.05-1.21-.32-2.18-1.31-2.55-2.47l.1-.04zM65.42 82.34c.69.17 1.22.23 1.72.25.49 0 .93-.02 1.33-.12.41-.07.81-.23 1.25-.44.43-.22.89-.51 1.42-.97l.11.03a3.476 3.476 0 0 1-2.54 2.47c-1.23.24-2.55-.22-3.37-1.15l.08-.07zM49.4 84.55c.12.81.49 1.21.86 1.62.39.39.85.75 1.3 1.03.41.26.92.44 1.49.56.58.1 1.2.14 1.97-.01l.07.09c-1.12.95-2.83 1.04-4.11.32-.62-.38-1.15-.91-1.52-1.55-.36-.63-.5-1.43-.18-2.11l.12.05zM55.53 87.81c.54.46.98.77 1.41 1.03.43.24.83.44 1.23.54.39.14.82.2 1.31.24.49.02 1.02 0 1.73-.11l.08.08c-.88.86-2.23 1.22-3.44.86-1.19-.39-2.11-1.42-2.42-2.61l.1-.03zM62.26 89.85c.59.38 1.06.6 1.5.77.45.15.84.26 1.23.28.38.06.79.02 1.25-.04.47-.08.97-.21 1.61-.48l.09.06c-.63 1.02-1.84 1.67-3.07 1.57-1.22-.14-2.28-1.01-2.72-2.12l.11-.04zM48.38 93.55c.16.71.46 1.09.76 1.45.32.34.66.67 1.03.92.28.23.65.38 1.09.5.45.1.97.15 1.68.02l.08.08c-.89.91-2.45 1.06-3.52.31a3.69 3.69 0 0 1-1.18-1.47c-.25-.58-.31-1.27-.06-1.85l.12.04zM53.13 96.56c.53.42.95.69 1.34.91.4.21.76.38 1.11.47.35.13.73.18 1.17.23.45.03.94.03 1.61-.05l.08.08c-.82.79-2.07 1.13-3.18.8-1.11-.36-1.95-1.32-2.24-2.42l.11-.02zM58.55 98.31c.55.37.98.58 1.38.74.4.15.75.26 1.09.3.33.07.7.07 1.12.05.43-.04.9-.11 1.53-.31l.09.07c-.64.91-1.79 1.45-2.92 1.3-1.12-.19-2.06-1.06-2.4-2.11l.11-.04zM55.28 76.17c.57.52 1.05.89 1.53 1.19.49.28.94.51 1.41.62.46.15.96.2 1.51.21a8.56 8.56 0 0 0 1.9-.26l.08.08c-.96.98-2.45 1.42-3.8 1.05-1.34-.4-2.38-1.54-2.74-2.86l.11-.03zM64.25 78.03c.72.08 1.29.22 1.78.28.25.01.47.05.7.04.22.02.46.01.69-.01a5.5 5.5 0 0 0 1.29-.18c.43-.13.9-.37 1.49-.76l.1.04c-.23.56-.59 1.08-1.1 1.44-.5.36-1.12.54-1.73.58-.61.03-1.23-.07-1.79-.32s-1.05-.62-1.5-1.01l.07-.1zM53.05 83.23c.57.52 1.05.89 1.53 1.19.49.28.94.51 1.41.62.46.15.96.2 1.51.21a8.56 8.56 0 0 0 1.9-.26l.08.08c-.96.98-2.45 1.42-3.8 1.05-1.34-.4-2.38-1.54-2.74-2.86l.11-.03zM58.28 93.16c.56.43 1.02.72 1.46.95.45.21.85.39 1.25.47.4.12.83.15 1.32.16a9.46 9.46 0 0 0 1.72-.2l.08.08c-.84.9-2.16 1.34-3.38 1.05-1.21-.32-2.18-1.31-2.55-2.47l.1-.04zM51.05 89.99c.52.57.97.97 1.43 1.31.46.32.9.59 1.35.75.44.19.94.28 1.49.34.56.04 1.16.02 1.92-.1l.07.09c-1.04.9-2.57 1.2-3.88.72-1.3-.52-2.24-1.74-2.49-3.08l.11-.03zM56.28 102.16c.56.43 1.02.72 1.46.95.45.21.85.39 1.25.47.4.12.83.15 1.32.16a9.46 9.46 0 0 0 1.72-.2l.08.08c-.84.9-2.16 1.34-3.38 1.05-1.21-.32-2.18-1.31-2.55-2.47l.1-.04zM49.05 99.99c.52.57.97.97 1.43 1.31.46.32.9.59 1.35.75.44.19.94.28 1.49.34.56.04 1.16.02 1.92-.1l.07.09c-1.04.9-2.57 1.2-3.88.72-1.3-.52-2.24-1.74-2.49-3.08l.11-.03zM52.7 104.69c.64.44 1.17.73 1.68.96.52.21 1.01.37 1.49.43.47.09.98.06 1.53 0 .55-.08 1.13-.24 1.85-.52l.09.07c-.81 1.11-2.24 1.75-3.62 1.56-1.38-.22-2.57-1.2-3.12-2.45l.1-.05zM84.24 115.05c.79-1.17 1.88-2.05 3.06-2.76 1.19-.69 2.49-1.22 3.89-1.34-1.11.86-2.25 1.52-3.39 2.2-1.15.66-2.27 1.34-3.56 1.9zM90.36 114.72c.97-.83 1.91-1.51 2.8-2.28.91-.75 1.75-1.55 2.74-2.36-.33 1.25-1.13 2.3-2.1 3.12-.98.8-2.15 1.41-3.44 1.52zM96.21 114.34c.84-.92 1.59-1.72 2.25-2.63.68-.9 1.23-1.84 1.87-2.91.14 1.25-.34 2.5-1.07 3.51-.76.99-1.82 1.8-3.05 2.03zM80.63 113.2c.43-1.31.82-2.5 1.07-3.74.27-1.24.38-2.48.52-3.86.65 1.23.74 2.7.46 4.06-.3 1.35-.96 2.67-2.05 3.54zM79.59 110.75c-.84-.69-1.26-1.82-1.36-2.9-.12-1.1.07-2.19.28-3.21.44-2.03 1.02-3.96.34-5.99.72.8 1.01 1.95 1.03 3.03.04 1.1-.19 2.16-.4 3.17-.22 1.01-.44 1.99-.48 2.97-.03.98.09 1.98.59 2.93z" fill="#D84315"/><radialGradient id="h" cx="41.897" cy="-25.815" r="21.046" gradientTransform="matrix(.5771 0 0 .5555 41.943 22.749)" gradientUnits="userSpaceOnUse"><stop stop-color="#FF8A80" offset="0"/><stop stop-color="#D32F2F" offset="1"/></radialGradient><path d="M53.46 26.85c-.24-1-.44-2.45-.34-4.36l.02-.34-.31-.14c-.02-.01-1.59-.73-2.11-2.44-.79-2.58 1.18-4.01 1.2-4.02l.35-.25-.2-.39c-.03-.07-.81-1.67.14-3.81.75-1.68 2.34-1.81 2.81-1.81h.1l.91.07-.43-.8c-.05-.09-1.03-1.93.11-3.06.37.74 1.18 1.53 2.69 1.53.73 0 1.58-.19 2.51-.56.27-.11.59-.29 1-.51 1.25-.7 3.15-1.75 5.41-1.75.86 0 1.71.16 2.54.46 1.52.57 3.73 2.53 3.66 4.08l-.02.64.62-.12c.07-.01.15-.02.23-.02 1.2 0 2.98 1.59 3.83 3.03.02.03 1.56 2.7.67 6.64-.17.77-.57 1.71-.92 2.54-.37.87-.68 1.63-.73 2.13-.09.96-.37 1.94-.65 2.74 0-.07-.01-.13-.02-.2-.15-1.89-.33-4.04-.62-5.53-.86-4.4-3.37-4.87-4.41-4.87h-.08c-.41-.9-1.47-2.14-3.43-2.14-.45 0-.93.06-1.43.19-1.74.44-2.98 1.36-4.3 2.34-.55.41-1.12.83-1.75 1.23-2.99 1.91-5.67 2.52-5.69 2.52l-.44.1.06.45c.09.62-.46 3.78-.98 6.43z" fill="url(#h)"/><path d="M50.24 20.01c.12.39.29.78.48 1.08l.83-1.03c-1.59-2.45.49-3.68.65-3.8l.69-.5-.37-.76c-.03-.06-.7-1.49.15-3.39.61-1.36 1.85-1.51 2.35-1.51h.06l1.83.15-.87-1.62c-.12-.23-.56-1.13-.31-1.91.53.61 1.39 1.12 2.67 1.12.79 0 1.7-.2 2.7-.59.3-.12.64-.3 1.06-.54C63.37 6.01 65.19 5 67.33 5c.8 0 1.59.15 2.36.43 3.27 1.19 3.28 4.85 3.28 4.85s2.78-.82 4.77 2.53c.38.64 1.11 2.34.65 5.16.47.45 1.01 1 1.01 1 .78-3.46-.32-5.85-.8-6.67-.83-1.39-2.72-3.27-4.26-3.27-.11 0-.22.01-.32.03.08-1.89-2.37-3.97-3.98-4.57-.94-.35-1.85-.49-2.71-.49-3.13 0-5.58 1.9-6.6 2.3-.95.38-1.72.52-2.33.52-2.17 0-2.43-1.84-2.43-1.84-2.35 1.31-.81 4.11-.81 4.11h-.14c-.53 0-2.39.14-3.26 2.11-1.07 2.4-.13 4.24-.13 4.24s-2.29 1.62-1.39 4.57z" fill="#B71C1C"/></svg>