<svg viewBox="0 0 128 128" width="128" height="128" xmlns="http://www.w3.org/2000/svg"><radialGradient id="a" cx="63.252" cy="31.337" r="44.504" gradientUnits="userSpaceOnUse"><stop stop-color="#444140" offset="0"/><stop stop-color="#232020" offset="1"/></radialGradient><path d="M28 15c-11.23 4.24-16 1-16 1 0 11 5 11 5 11S4 37.89 4 56c0 21 10.49 28.22 10.49 28.22.54.56 1.41 1.83 1.41 1.83s.3 1.53.29 2.31C16.12 93.84 16 100 22 106s13.18 6.22 16 7c6.18 1.72 40.04 1.06 47.15.59 8.85-.59 16.28-3.57 22.14-9.43 7.44-7.44 4.29-17.48 4.69-18.57.4-1.1 13.12-15.62 12.03-33.58-2-33-26-32-26-32S92 4 68 4c-28 0-36.07 9.52-40 11z" fill="url(#a)"/><path d="M34.25 81.67c-5 .47-9.94 1.39-14.41 3.58-1.36.67-2.71 1.49-3.57 2.73-1.53 2.22-.06 6.33.52 8.82.82 3.53 2.66 6.63 5.22 9.19 6 6 13.18 6.22 16 7 6.18 1.72 40.04 1.06 47.15.59 8.85-.59 16.28-3.57 22.14-9.43 4.37-4.37 9.12-18.95 1.03-21.76-1.88-.65-3.91-.73-5.9-.79-20.87-.71-41.77-1.42-62.62-.32-1.85.1-3.71.22-5.56.39z" fill="none" stroke="#1F1D1B" stroke-miterlimit="10" stroke-width="3"/><path d="M68 7c21.46 0 26.97 13.5 27.19 14.05l.77 2.01 2.15-.06h.12c.99 0 6.2.18 11.38 3.8 6.83 4.76 10.66 13.3 11.4 25.39.3 5.01-.55 10.28-2.52 15.66-1.88 5.11-4.57 10.05-7.8 14.31-3.15 4.16-11.31 6.28-17.26 7.83-.89.23-1.73.45-2.53.67-10.55 2.88-21.91 4.33-33.78 4.33-6.34 0-12.89-.42-19.45-1.25-2.9-.37-5.95-.82-8.56-2.03-5.71-2.62-12.16-8-16.05-13.37C8.05 71.44 7 62.38 7 56c0-16.42 11.81-26.6 11.93-26.7l6.33-5.3h-8.04c-.46-.18-1.4-1.2-1.9-3.94.69.08 1.45.13 2.29.13 3.43 0 7.28-.8 11.46-2.38 1.06-.4 2.1-1.07 3.43-1.92C37.32 12.78 46.31 7 68 7m0-3c-28 0-36.07 9.52-40 11-4.44 1.68-7.87 2.18-10.4 2.18C13.74 17.18 12 16 12 16c0 11 5 11 5 11S4 37.89 4 56c0 8.34 1.64 17.22 6.63 24.11 4.13 5.7 10.9 11.42 17.23 14.33 2.95 1.36 6.21 1.87 9.44 2.28 6.56.83 13.19 1.27 19.82 1.27 11.66 0 23.31-1.37 34.56-4.44 6.6-1.8 17.1-3.92 21.39-9.58 3.44-4.54 6.26-9.75 8.22-15.09 1.98-5.39 3.05-11.13 2.7-16.88-1.89-31.11-23.33-32-25.77-32H98S92 4 68 4z" fill="#1F1D1B"/><path d="M26.34 94.88c-7.33 0-13.29-5.71-13.29-12.73s5.96-12.73 13.29-12.73h75.43c7.33 0 13.29 5.71 13.29 12.73s-5.96 12.73-13.29 12.73H26.34z" fill="#3C2B24"/><path d="M101.77 70.91c6.5 0 11.79 5.04 11.79 11.23s-5.29 11.23-11.79 11.23H26.34c-6.5 0-11.79-5.04-11.79-11.23s5.29-11.23 11.79-11.23h75.43m0-3H26.34c-8.13 0-14.79 6.41-14.79 14.23s6.65 14.23 14.79 14.23h75.43c8.13 0 14.79-6.41 14.79-14.23s-6.66-14.23-14.79-14.23z" fill="#291B16"/><linearGradient id="b" x1="63.77" x2="63.77" y1="122.47" y2="9.891" gradientUnits="userSpaceOnUse"><stop stop-color="#5C4037" offset="0"/><stop stop-color="#63463D" offset=".158"/><stop stop-color="#6D5047" offset=".533"/><stop stop-color="#70534A" offset="1"/></linearGradient><path d="M63.77 122.47c-21.41 0-44.46-16.31-44.46-52.12 0-16.64 4.87-31.97 13.71-43.17 8.26-10.47 19.47-16.47 30.75-16.47s22.49 6 30.75 16.47c8.84 11.2 13.71 26.53 13.71 43.17 0 16.24-4.79 29.81-13.86 39.22-8.01 8.32-18.88 12.9-30.6 12.9z" fill="url(#b)"/><path d="M63.77 12.21c10.82 0 21.6 5.8 29.57 15.9 8.63 10.93 13.39 25.93 13.39 42.24 0 15.85-4.65 29.05-13.44 38.18-7.72 8.02-18.21 12.43-29.52 12.43s-21.79-4.42-29.52-12.43c-8.8-9.13-13.44-22.33-13.44-38.18 0-16.3 4.75-31.3 13.39-42.24 7.97-10.1 18.75-15.9 29.57-15.9m0-3c-23.86 0-45.96 25.07-45.96 61.14 0 35.88 22.77 53.62 45.96 53.62s45.96-17.74 45.96-53.62c0-36.07-22.1-61.14-45.96-61.14z" fill="#4A2F27"/><path d="M68.89 87.13a1.63 1.63 0 0 0-.42-.11h-9.3c-.14.02-.28.05-.42.11-.84.34-1.31 1.22-.91 2.14.4.93 2.25 3.54 5.98 3.54s5.58-2.61 5.98-3.54-.07-1.8-.91-2.14z" fill="#33251F"/><g fill="#1A1717"><path d="M32.51 68.42s.17-.25.5-.67c.09-.1.16-.21.28-.34.14-.14.31-.28.48-.44.18-.16.37-.32.57-.5.2-.17.41-.3.63-.46.22-.15.45-.31.7-.46.26-.14.52-.28.79-.42.27-.15.56-.28.86-.39.3-.12.61-.24.93-.35.65-.18 1.32-.38 2.02-.47.7-.14 1.42-.14 2.14-.18.72.04 1.44.05 2.14.18.7.09 1.38.29 2.02.47.32.11.63.23.93.35s.59.24.86.39.54.29.79.42c.25.15.48.31.7.46.22.16.43.29.62.45.18.16.36.32.52.46.16.15.31.28.45.41.13.14.24.27.34.39.4.47.61.76.61.76.67.93.46 2.22-.47 2.88-.56.41-1.26.49-1.88.28l-.38-.13s-.25-.09-.64-.26c-.1-.04-.2-.1-.32-.14-.13-.04-.25-.09-.39-.14-.27-.11-.58-.23-.92-.32-.17-.05-.34-.12-.52-.17-.19-.04-.37-.09-.57-.14-.1-.03-.19-.05-.29-.08-.1-.02-.2-.04-.31-.06-.21-.03-.41-.09-.62-.13-.43-.05-.86-.14-1.31-.16-.45-.06-.9-.04-1.36-.07-.46.02-.91.01-1.36.07-.45.02-.88.11-1.31.16-.21.04-.41.1-.62.13-.1.02-.2.04-.31.06-.1.03-.19.05-.29.08-.19.05-.38.1-.57.14-.18.05-.35.12-.52.17s-.33.1-.48.15c-.14.05-.26.09-.38.13s-.24.08-.36.11c-.13.05-.27.13-.38.19-.47.24-.75.36-.75.36-1.08.45-2.33-.06-2.78-1.15a2.18 2.18 0 0 1 .21-2.02zM92.55 71.58s-.28-.12-.75-.36c-.11-.06-.25-.14-.38-.19-.12-.03-.23-.07-.36-.11-.12-.04-.25-.09-.38-.13-.15-.05-.31-.1-.48-.15s-.34-.12-.52-.17-.37-.09-.57-.14c-.1-.03-.19-.05-.29-.08-.1-.02-.2-.04-.31-.06-.21-.03-.41-.09-.62-.13-.43-.05-.86-.14-1.31-.16-.45-.06-.9-.05-1.36-.07-.46.02-.91.01-1.36.07-.45.02-.88.11-1.31.16-.21.04-.41.09-.62.13l-.31.06c-.1.03-.19.05-.29.08-.19.05-.38.1-.57.14-.18.05-.35.12-.52.17-.34.1-.65.21-.92.32-.14.05-.27.11-.39.14-.12.05-.22.1-.32.14-.39.18-.64.26-.64.26l-.37.13c-1.08.38-2.26-.19-2.63-1.27-.23-.66-.1-1.36.27-1.89 0 0 .2-.28.61-.76.1-.12.21-.25.34-.39.13-.13.28-.26.45-.41.16-.14.34-.3.52-.46.19-.16.4-.29.62-.45.22-.15.45-.31.7-.46.26-.14.52-.28.79-.42.27-.15.56-.28.86-.39.3-.12.61-.24.93-.35.65-.18 1.32-.38 2.02-.47.7-.14 1.42-.15 2.14-.18.72.04 1.44.05 2.14.18.7.08 1.38.29 2.02.47.32.11.63.23.93.35s.59.24.86.39.54.29.79.42c.25.15.48.31.7.46.22.16.43.29.63.46s.39.34.57.5c.17.16.34.3.48.44.12.13.2.24.28.34.33.41.5.67.5.67.66.97.41 2.29-.56 2.95-.61.43-1.38.48-2.01.22z"/></g><g fill="#1A1717"><ellipse cx="41.96" cy="80.34" rx="6.48" ry="6.71"/><ellipse cx="85.68" cy="80.34" rx="6.48" ry="6.71"/></g><path d="M75.01 97.97c-4.19 2.49-17.91 2.49-22.1 0-2.4-1.43-4.86.76-3.86 2.94.98 2.15 8.47 7.13 14.95 7.13 6.47 0 13.87-4.98 14.85-7.13.99-2.19-1.43-4.37-3.84-2.94z" fill="#1A1717"/><radialGradient id="c" cx="63.609" cy="33.462" r="43.02" gradientUnits="userSpaceOnUse"><stop stop-color="#444140" offset="0"/><stop stop-color="#232020" offset="1"/></radialGradient><path d="M64 7C44.18 7 28.92 18.32 21.7 36.48c-2.9 7.29-5.26 15.05-5.26 22.89C16.44 73 19 85 19 85c7-9 5-18 5-18 9-12 35.82-21.64 36-22l-5.4 10.81c-.68 1.35.48 2.97 1.95 2.65C82 53 93.18 43.19 93.18 43.19S94 58 105 68c0 0 0 8 3 17 0 0 5-18 1.58-37.28-2.25-12.66-9.52-24.83-20.04-32.67C82.16 9.54 73.15 7 64 7z" fill="url(#c)"/></svg>