<svg viewBox="0 0 128 128" width="128" height="128" xmlns="http://www.w3.org/2000/svg" xmlns:xlink="http://www.w3.org/1999/xlink"><path d="M7.27 15.54c2.03 0 5.94 3.46 9.4 8.47 2.32 3.36 3.9 6.66 4.48 9.05.46-.08.93-.13 1.41-.14h.02c.36 0 .71.03 1.06.07.64-2.35 2.15-5.48 4.31-8.67 3.42-5.05 7.32-8.54 9.35-8.54.28 0 .52.07.72.2 1.67 1.13-.14 6.7-4.03 12.44-1.77 2.61-3.67 4.81-5.37 6.32-.09.08-.18.15-.28.23 4.99 4.65 3.37 10.03 1.33 13.53 1.77.66 3.81.88 5.72.88 3.65 0 6.84-.8 6.84-.8 6.47-1.93 11.4-2.47 14.89-2.47 4.32 0 6.41.82 6.41.82 20.63 4 24.57 29.93 26.08 46.88.29 3.31.77 6.75 2.62 9.5 2.86 4.24 8.29 5.88 13.37 6.5 5.08.61 10.37.53 15.06 2.56 1.03.44 2.17 1.28 1.99 2.38-5.39.83-10.85 1.25-16.31 1.25-.47 0-.94 0-1.41-.01-17.46-.23-20.28-10.86-28.06-23.84-.26-.43-.51-.85-.76-1.28-1.13.13-2.22.2-3.27.2-4.51 0-8.24-1.15-11.21-2.67-4.28 4.97-3.15 19.59-3.15 19.59.8 10.14-1.47 10.68-1.96 10.68-.06 0-.09-.01-.09-.01-7.34.78-12.97 1.38-17.24 1.75-.35.28-.79.45-1.28.46-2.31.07-4.86.58-6.84.58-.65 0-1.23-.05-1.73-.19-.73-.21-1.14-.35-1.76-.38-1.96-.11-3.17-.3-3.2-.59-.02-.2 0-.39.03-.58-1.4-.21-2.04-.66-2.04-.66s.77-3.25 4.65-3.56c1.67-.13 3.92-.18 5.93-.19 5.1-.83 12.08-.87 13.49-.87h.25c1.86 0 3.16-1.46 4.06-3.74-6.93.74-12.2 1.36-16.17 1.76-.22.08-.44.14-.69.14-2.31.07-4.86.58-6.84.58-.65 0-1.23-.05-1.73-.19-.73-.21-1.14-.35-1.76-.38-1.96-.11-3.17-.3-3.2-.59-.02-.2 0-.39.03-.58-1.4-.21-2.04-.66-2.04-.66s.77-3.25 4.65-3.56c1.94-.15 4.65-.19 6.87-.19.55 0 1.08 0 1.55.01 4.68-.44 9.69-.45 10.54-.45h.13c4.3-.31 5.04-22.73 5.17-30.26-2.3-1.52-4.43-2.51-6.28-3.15-.66 2.02-1.66 4.47-2.9 7.06-1.88 3.91-4.1 7.94-5.75 10.28.51.92.81 2.5.73 4.29-.05 1.1-.23 2.1-.5 2.92-.13 1.18-.52 2.01-1.12 2.13-.04.01-.09.01-.13.01-.14 0-.28-.04-.43-.1-.01 0-.01.01-.02.01-.52-.02-.97-.57-1.29-1.42-.45-.8-.85-1.85-1.09-3.04-.31-1.53-.31-2.93-.07-3.93-.3-2.63.12-8.09 1.14-13.07.64-3.13.99-4.27-.42-6-.38-.46-.75-.87-1.14-1.27-5.67-1.66-8.54-5.07-9.78-8.38-1.55-4.14-1.35-7.14-.31-9.33-.43-.77-.71-1.65-.81-2.59-2.34-2.98-6.44-9.87-.28-15.71-1.89-1.48-4.1-3.9-6.15-6.88-3.94-5.71-5.78-11.26-4.12-12.4.2-.14.45-.21.73-.21M33.46 80.2c.27-.6.54-1.2.82-1.79 1.38-2.88 2-3.9 1.05-5.92-.07-.16-.15-.3-.22-.45h-.36c-.17 2.04-.53 4.49-1.06 7.11-.08.35-.15.7-.23 1.05M7.27 13.59c-.68 0-1.32.19-1.84.55-1.62 1.12-1.89 3.38-.78 6.71.84 2.51 2.4 5.5 4.4 8.41 1.59 2.3 3.31 4.35 4.98 5.94-3.55 4.59-3.15 10.53 1.19 16.32.11.65.29 1.27.54 1.87-1.02 2.81-.81 6.15.61 9.96 1.19 3.16 3.98 7.32 10.56 9.41.23.25.46.51.68.78.69.85.7 1.1.14 3.83l-.11.55c-.98 4.79-1.47 10.3-1.2 13.35-.24 1.27-.19 2.83.13 4.43.26 1.28.69 2.48 1.23 3.48.74 1.86 1.88 2.38 2.66 2.51a2.833 2.833 0 0 0 1.37.08c.84-.17 2.27-.87 2.64-3.62.3-.98.49-2.1.54-3.25.07-1.53-.1-2.98-.48-4.15 1.55-2.36 3.52-5.94 5.3-9.66a68.26 68.26 0 0 0 2.31-5.36c1.05.46 2.1 1.02 3.14 1.65-.37 17.87-2.25 25.98-3.51 27.25-1.29 0-5.98.04-10.44.45-.45 0-.95-.01-1.47-.01-3.01 0-5.37.07-7.03.2-5.22.42-6.34 4.86-6.39 5.05-.18.78.12 1.59.77 2.04.16.11.63.41 1.44.67.71 1.3 2.78 1.41 4.79 1.52.03 0 .07 0 .1.01-2.44 1.44-3.06 3.92-3.09 4.06-.18.78.12 1.59.77 2.04.16.11.63.41 1.44.67.71 1.3 2.78 1.41 4.79 1.52.29.02.49.07 1.02.22l.31.09c.64.18 1.38.27 2.26.27 1.14 0 2.37-.14 3.66-.29 1.09-.13 2.21-.26 3.24-.29.66-.02 1.29-.2 1.86-.51 4.07-.36 9.35-.92 15.96-1.62l.67-.07h.05c.48 0 1.41-.14 2.26-1.06 1.61-1.74 2.13-5.47 1.64-11.72-.26-3.47-.36-12.61 1.89-16.96 3.3 1.42 6.83 2.15 10.53 2.15.73 0 1.48-.03 2.22-.09.04.07.09.15.13.22 1.17 1.94 2.22 3.84 3.24 5.67 5.65 10.14 10.53 18.9 26.47 19.12.48.01.96.01 1.43.01 5.54 0 11.13-.43 16.61-1.28.84-.13 1.49-.78 1.63-1.62.29-1.83-.88-3.5-3.14-4.48-3.82-1.65-7.91-2-11.87-2.34-1.23-.11-2.51-.22-3.73-.36-5.91-.71-9.94-2.61-11.98-5.65-1.63-2.42-2.04-5.7-2.3-8.59C90.44 81.65 87.6 49.78 64 45.08c-.67-.23-2.95-.88-6.92-.88-4.58 0-9.76.85-15.4 2.53-.35.08-3.18.73-6.33.73-1.05 0-2.02-.07-2.9-.21 1.87-4.47 1.38-8.67-1.4-12.14 1.52-1.54 3.09-3.46 4.51-5.56 1.98-2.92 3.52-5.92 4.34-8.44 1.08-3.34.8-5.6-.83-6.7-.52-.35-1.15-.54-1.81-.54-3.38 0-7.88 4.85-10.96 9.4-1.69 2.49-3.07 5.06-3.94 7.32-.87-2.33-2.32-5.02-4.13-7.65-3.06-4.54-7.58-9.35-10.96-9.35z" fill="#8C6239"/><path d="M75.07 53.02c-5.25-6.94-32.31-14.11-27.89 20.8 0 0-.03 32.33-5.2 32.7 0 0-18.93-.08-19.23 3.08-.46 4.84 2.51 3.75 28.97.94 0 0 2.94.9 2.04-10.44 0 0-1.71-22.23 7.1-21.19.02-.01 36.24 3.24 14.21-25.89z" fill="#B59C7C"/><path d="M28.39 95.24c.56 2.73 1.89 4.77 2.96 4.55s1.49-2.61.93-5.35c-.56-2.73-1.88-4.77-2.96-4.55-1.08.23-1.49 2.62-.93 5.35z" fill="#242110"/><path d="M23.52 67.45c-4.11-3.03-6.16-7.24-4.57-9.4s6.22-1.45 10.33 1.58c2.93 2.16 4.8 4.91 5.07 7.09.75 1.23.46 6.36-.76 12.37-1.38 6.75-3.52 14.05-4.66 13.82s-.85-7.9.53-14.66c.64-3.13.99-4.27-.42-6-1.39-1.69-2.66-2.69-5.52-4.8z" fill="#A89579"/><path d="M29.01 94.57c-.12 2.79.67 5.09 1.76 5.13 1.09.05 2.08-2.17 2.2-4.96s-.67-5.09-1.76-5.13c-1.09-.05-2.08 2.18-2.2 4.96z" fill="#242110"/><linearGradient id="a" x1="-13.156" x2="92.434" y1="81.016" y2="81.016" gradientTransform="matrix(-1 0 0 1 109.41 0)" gradientUnits="userSpaceOnUse"><stop stop-color="#AF7A4F" offset="0"/><stop stop-color="#E3A063" offset="1"/></linearGradient><path d="M27.7 47.51c5.01 3.39 14.43 1.03 14.43 1.03 14.47-4.33 21.3-1.65 21.3-1.65 20.63 4 24.57 29.93 26.08 46.88.29 3.31.77 6.75 2.62 9.5 2.86 4.24 8.29 5.88 13.37 6.5 5.08.61 10.37.53 15.06 2.56 1.03.44 2.17 1.28 1.99 2.38-5.86.91-11.79 1.32-17.72 1.24-17.46-.23-20.28-10.86-28.06-23.84-.26-.43-.51-.85-.76-1.28-15.59 1.84-23.2-9.9-23.2-9.9C43.12 71.19 34.36 72 34.36 72c-10.1-.44-14.6-5-16.25-9.39-5.27-14.05 9.59-15.1 9.59-15.1z" fill="url(#a)"/><defs><path id="b" d="M89.83 91.82s-2.6-40.31-26.4-44.93c0 0-6.82-2.68-21.3 1.64 0 0-9.43 2.36-14.43-1.03 0 0-14.86 1.05-9.59 15.1 1.65 4.39 6.15 8.95 16.25 9.39 0 0 8.76-.81 18.45 8.94 0 0 22.53 10.97 26.12 10.4 3.6-.56 11.26 10.36 10.9.49z"/></defs><clipPath id="c"><use xlink:href="#b"/></clipPath><path d="M35.67 69.38S23.9 55.97 17.74 61.5c0 0 .09 6.79 7.31 12.27-.01-.01 14.07 2.81 10.62-4.39z" clip-path="url(#c)" fill="#AF7A4F"/><linearGradient id="d" x1="24.81" x2="82.423" y1="87.047" y2="87.047" gradientTransform="matrix(-1 0 0 1 109.41 0)" gradientUnits="userSpaceOnUse"><stop stop-color="#E3A063" offset="0"/><stop stop-color="#EFCFA0" offset=".862"/></linearGradient><path d="M78.97 58.63c-4.59-7.38-29.07-12.48-27.18 23.06 0 0 3.64 32.7-5.2 32.7 0 0-17.9-.12-19.23 3.08-1.86 4.49 2.51 3.98 28.96 1.17 0 0 2.94.67 2.05-10.67 0 0-1.71-22.23 7.1-21.19.01-.01 31.69 1.09 13.5-28.15z" fill="url(#d)"/><linearGradient id="e" x1="67.604" x2="81.591" y1="74.012" y2="74.012" gradientTransform="matrix(-1 0 0 1 109.41 0)" gradientUnits="userSpaceOnUse"><stop stop-color="#EFCFA0" offset=".113"/><stop stop-color="#E3A063" offset="1"/></linearGradient><path d="M31.06 66.43c-3.25-3.94-4.21-8.52-2.14-10.23s6.38.11 9.64 4.05c2.31 2.81 3.46 5.93 3.19 8.12.43 1.38-1.1 6.29-3.75 11.81-3 6.21-6.86 12.76-7.9 12.26-1.05-.5 1.1-7.87 4.09-14.09 1.38-2.88 2-3.9 1.05-5.92-.93-1.98-1.92-3.26-4.18-6z" fill="url(#e)"/><path d="M27.86 24.28c-3.89 5.74-5.7 11.3-4.03 12.44.91.62 2.66-.21 4.7-2.02 1.7-1.51 3.6-3.71 5.37-6.32 3.89-5.74 5.7-11.3 4.03-12.44-1.67-1.13-6.18 2.6-10.07 8.34zM16.57 23.96c3.94 5.71 5.78 11.26 4.12 12.4S14.5 33.8 10.56 28.1c-3.94-5.71-5.78-11.26-4.12-12.4 1.66-1.15 6.19 2.55 10.13 8.26z" fill="#C18656"/><path d="M13.63 42.27c.02 5.17 4.01 9.35 8.91 9.33s8.86-4.22 8.84-9.39-4.01-9.35-8.91-9.33c-4.91.01-8.86 4.22-8.84 9.39z" fill="#E3A063"/><path d="M28.19 34.87s-6.24.47-1.41 12.07l.02 5.23c.01-.01 9.69-9.66 1.39-17.3zM16.78 34.91s6.24.42 1.5 12.05l.02 5.23c0 .01-9.76-9.57-1.52-17.28z" fill="#E8CAAA"/><path d="M16.95 49.95c.01 3.49 2.5 6.3 5.56 6.29s5.68-2.85 5.52-6.33c-.28-5.87-2.49-1.22-5.54-1.21-3.07.01-5.56-4.63-5.54 1.25z" fill="#F9DAB4"/><path d="M19.95 41.04c-.03-2.86-1.44-3.57-3-3.49-1.56.07-2.94 1.05-2.65 3.76.16 1.55 1.4 2.76 2.96 2.69 1.56-.08 2.71-1.4 2.69-2.96z" fill="#FFE3C7"/><path d="M18.74 41.1c-.04-.89-.8-1.58-1.69-1.54s-1.58.8-1.54 1.69.8 1.58 1.69 1.54 1.58-.8 1.54-1.69z"/><path d="M17.53 41.15c-.01-.22-.2-.39-.42-.38s-.39.2-.38.42.2.39.42.38c.22 0 .39-.19.38-.42z" fill="#fff"/><path d="M30.77 40.53c.1-2.66-1.44-3.57-3-3.49-1.56.07-2.95 1.25-2.65 3.76.18 1.55 1.4 2.76 2.96 2.69 1.56-.08 2.63-1.4 2.69-2.96z" fill="#FFE3C7"/><path d="M29.56 40.58c-.04-.89-.8-1.58-1.69-1.54s-1.58.8-1.54 1.69.8 1.58 1.69 1.54 1.58-.8 1.54-1.69z"/><path d="M28.35 40.64a.402.402 0 0 0-.42-.38c-.23.01-.4.2-.39.42s.2.39.42.38c.23-.01.4-.2.39-.42z" fill="#fff"/><path d="M24.72 53.9c.45-.02.9-.14 1.33-.37.16-.09.22-.29.14-.44a.331.331 0 0 0-.44-.14c-.98.52-2.11.35-2.82-.43-.07-.08-.16-.14-.27-.11-.1.01-.19.06-.25.14-.44.65-1.42 1.17-2.86.68a.328.328 0 0 0-.42.21c-.06.17.03.36.21.42 1.58.53 2.73.06 3.38-.63.56.47 1.27.7 2 .67z" fill="#807263"/><path d="M19.99 49.67c0 .53.43.97.97.97l1.22.99 1.17-.99a.97.97 0 0 0 0-1.94h-2.39c-.53.01-.97.44-.97.97z"/><path d="M37.75 115.29s-6.97-.15-10.84.15c-3.87.31-4.65 3.56-4.65 3.56s1.08.77 3.56.77 13.16-.15 13.16-.15l-1.23-4.33z" fill="#42372D"/><path d="M39.97 118.5c0-.1 0-.19.01-.29.12-1.64-1.14-3.04-2.78-2.96-.69.03-1.29.05-1.77.05-4.03 0-11.46 1.55-11.15 4.96.03.29 1.24.49 3.2.59.62.03 1.03.18 1.76.38 2.01.57 5.51-.29 8.57-.38 1.24-.04 2.17-1.08 2.17-2.32-.01-.02-.01-.03-.01-.03z" fill="#665545"/><path d="M26.35 120.04c-.16.26-.19.5-.16.7.38.04.82.07 1.3.09.06-.14.11-.28.11-.39 0-.41 2.17-2.17 2.17-2.17-.53.02-2.81.74-3.42 1.77z" fill="#665545" opacity=".57"/><path d="M33.74 107s-6.97-.15-10.84.15c-3.87.31-4.65 3.56-4.65 3.56s1.08.77 3.56.77 13.16-.15 13.16-.15L33.74 107z" fill="#302821"/><path d="M35.96 110.2c0-.1 0-.19.01-.29.12-1.64-1.14-3.04-2.78-2.96-.69.03-1.29.05-1.77.05-4.03 0-11.46 1.55-11.15 4.96.03.29 1.24.49 3.2.59.62.03 1.03.18 1.76.38 2.01.57 5.51-.29 8.57-.38 1.24-.04 2.17-1.08 2.17-2.32-.01-.01-.01-.02-.01-.03z" fill="#594A3C"/><path d="M22.33 111.75c-.16.26-.19.5-.16.7.38.04.82.07 1.3.09.06-.14.11-.28.11-.39 0-.41 2.17-2.17 2.17-2.17-.53.02-2.8.74-3.42 1.77z" fill="#3D332A" opacity=".57"/></svg>