<svg viewBox="0 0 128 128" width="128" height="128" xmlns="http://www.w3.org/2000/svg" xmlns:xlink="http://www.w3.org/1999/xlink"><linearGradient id="a" x1="78.234" x2="50.453" y1="49.483" y2="86.693" gradientUnits="userSpaceOnUse"><stop stop-color="#A52714" offset="0"/><stop stop-color="#D23F31" offset=".529"/><stop stop-color="#ED4132" offset="1"/></linearGradient><path d="M47.88 103.2c-2.81 0-5.24-1.19-7.42-3.64-3.19-3.58-2.73-5.98-1.97-9.96.39-2.04.83-4.36.85-7.29.05-10.34-9.2-14.42-13.64-16.38-.6-.26-1.13-.5-1.55-.71-.12-.06-.16-.16-.16-.24s.02-.18.13-.26c1.45-.94 3.13-1.71 5.07-2.6 3.41-1.56 7.66-3.51 12.47-7.34 6.96-5.53 8.95-10.78 10.27-14.26.47-1.23.84-2.2 1.28-2.76.51-.62 4.43-2.63 7.89-4.2 1.99.53 4.9 1.31 5.17 1.4l9.45 4.18c.32.12.6.17.88.17.44 0 .87-.12 1.24-.35l9.74-6.02c.05-.03.1-.05.16-.05.04 0 .15.01.23.12 1.8 2.6 7.5 12.59 5.4 31.77-1.37 12.49-8.62 30.87-10.81 36.2a.28.28 0 0 1-.27.18c-.07 0-.14-.03-.2-.08-1.85-1.7-6.01-4.55-12.99-4.55-2.22 0-4.58.29-7.04.86-.93.22-2.11.92-3.6 1.82-2.82 1.68-6.68 3.99-10.58 3.99z" fill="url(#a)"/><path d="M87.51 34.2c6.46 10.05 5.33 25.8 4.82 30.46-1.29 11.7-7.81 28.69-10.35 34.97-2.25-1.79-6.42-4.13-12.88-4.13-2.3 0-4.74.3-7.27.88-1.09.25-2.33 1-3.9 1.94-2.71 1.62-6.42 3.85-10.04 3.85-2.5 0-4.68-1.08-6.65-3.29-2.85-3.2-2.48-5.17-1.73-9.08.4-2.09.85-4.46.86-7.48.05-11.01-9.61-15.28-14.26-17.33-.08-.03-.16-.07-.23-.1 1.11-.61 2.36-1.18 3.74-1.82 3.46-1.59 7.77-3.56 12.68-7.47 7.18-5.71 9.32-11.34 10.59-14.7.4-1.07.76-1.99 1.09-2.44.69-.62 4.12-2.38 7.2-3.79 2.08.56 4.2 1.13 4.69 1.27l9.42 4.16.06.03.06.02c.38.14.77.21 1.18.21.63 0 1.25-.18 1.79-.51l9.13-5.65m.22-2.34c-.24 0-.49.07-.7.2l-9.74 6.02a1.325 1.325 0 0 1-1.16.12l-9.53-4.21c-.25-.09-5.6-1.52-5.6-1.52s-7.64 3.43-8.61 4.65c-1.92 2.41-2 9.39-11.38 16.85-7.39 5.88-13.27 7.16-17.46 9.88-.86.56-.79 1.84.13 2.29 3.61 1.8 14.67 5.18 14.61 16.16-.04 8.53-3.9 12.02 1.39 17.95 2.63 2.95 5.45 3.98 8.2 3.98 6.21 0 12.04-5.29 14.41-5.84 2.53-.59 4.79-.83 6.8-.83 6.55 0 10.44 2.58 12.29 4.28.26.24.58.35.9.35a1.3 1.3 0 0 0 1.22-.82c2.41-5.87 9.51-23.96 10.88-36.48 2.12-19.3-3.47-29.43-5.57-32.47a1.29 1.29 0 0 0-1.08-.56z" fill="#D23F31"/><radialGradient id="b" cx="73.878" cy="63.37" r="18.579" gradientTransform="matrix(.9362 .3515 -.6811 1.8142 47.872 -77.563)" gradientUnits="userSpaceOnUse"><stop stop-color="#212121" offset="0"/><stop stop-color="#212121" stop-opacity="0" offset=".999"/></radialGradient><path d="M89.44 73.69c5.41-16.75 1.49-30.51 1.49-30.51s-15.88 5.61-15.91 6.26c-.04.65-10.32 25.11-10.32 25.11s-7.5 20.26-17 29.68c6.81-.74 12.32-5.31 14.59-5.83 7.09-1.65 12.06-.59 15.33.96 1.78-2.85 8.02-13.89 11.82-25.67z" fill="url(#b)"/><linearGradient id="c" x1="43.406" x2="58.099" y1="55.102" y2="80.47" gradientUnits="userSpaceOnUse"><stop stop-color="#212121" offset="0"/><stop stop-color="#212121" stop-opacity="0" offset=".999"/></linearGradient><path d="M66.97 43.62l-5.07-2.3S53.86 59.67 49.79 66c-4.08 6.33-11.5 16.3-11.5 16.3.01 8.53-3.9 12.02 1.39 17.95.36.4.72.75 1.08 1.08 3.39-4.07 8.99-12.02 13.19-17.98C65.3 67.24 66.97 43.62 66.97 43.62z" fill="url(#c)"/><linearGradient id="d" x1="54.129" x2="49.129" y1="84.028" y2="91.778" gradientUnits="userSpaceOnUse"><stop stop-color="#851F10" offset=".001"/><stop stop-color="#A52714" offset=".841"/></linearGradient><path d="M51.68 82.85s-5.54 5.15-5.95 7.46c-.68 3.83 2.56 7.37 4.24 6 3.65-2.96 4.64-6.63 6.45-9.29 1.8-2.66-2.34-6.6-4.74-4.17z" fill="url(#d)"/><linearGradient id="e" x1="75.006" x2="74.834" y1="41.42" y2="61.098" gradientUnits="userSpaceOnUse"><stop stop-color="#42A5F5" offset="0"/><stop stop-color="#1E88E5" offset="1"/></linearGradient><path d="M102.54 24.36c-1.01-2.75-5.95-10.64-5.95-10.64l-5.74 2.76 2.28 9.86-10.27 8.55c-4.83-1.13-9.26-1.06-12.95-.52-2.94-.22-11.3-.12-14.46 7.57l-4.58 10.9-3.71 1.29c-1.03 2.15 2.35 4.09 4.5 5.11 2.15 1.03 4 .23 5.76-2.04 1.05-1.36 3.49-5.17 5.27-8 .4 3.03.68 6.73.7 11.23l8.33 4.01 10.14.44c3.7-8.37 5.6-14.74 6.58-19.25 3.35-3.78 12.03-13.6 13.14-15.16 1.39-1.93 1.97-3.36.96-6.11z" fill="url(#e)"/><path d="M96.2 15.06c1.26 2.05 4.59 7.54 5.37 9.66.88 2.38.4 3.44-.82 5.16-.74 1.04-5.63 6.68-13.08 15.07l-.18.2-.06.27c-1.17 5.42-3.27 11.61-6.23 18.4l-9.22-.4-7.56-3.64c-.04-3.87-.28-7.47-.71-10.71l-.38-2.84-1.53 2.43c-2.61 4.14-4.41 6.87-5.22 7.92-1.08 1.4-2.11 2.08-3.14 2.08-.43 0-.87-.11-1.36-.34-2.6-1.24-4.08-2.47-4.09-3.38l3.19-1.11.44-.15.18-.42 4.58-10.91c2.5-6.08 8.61-6.98 12.04-6.98.47 0 .94.02 1.39.05l.11.01.11-.02c1.66-.24 3.34-.37 5-.37 2.55 0 5.09.29 7.56.87l.5.12.4-.33 10.27-8.55.49-.41-.14-.62-2.09-9.05 4.18-2.01m.39-1.33l-5.74 2.76 2.28 9.86-10.27 8.55c-2.75-.64-5.37-.89-7.8-.89-1.84 0-3.56.15-5.15.38-.4-.03-.9-.05-1.47-.05-3.64 0-10.26.97-13 7.62l-4.58 10.9-3.71 1.29c-1.03 2.15 2.35 4.09 4.5 5.11.62.3 1.22.44 1.8.44 1.42 0 2.71-.87 3.96-2.48 1.05-1.36 3.49-5.17 5.27-8 .4 3.03.68 6.73.7 11.23l8.33 4.01 10.14.44c3.7-8.37 5.6-14.74 6.58-19.25 3.35-3.78 12.03-13.6 13.14-15.16 1.38-1.94 1.96-3.37.95-6.12-.99-2.75-5.93-10.64-5.93-10.64z" fill="#212121" opacity=".29"/><linearGradient id="f" x1="47.557" x2="47.794" y1="53.279" y2="37.557" gradientUnits="userSpaceOnUse"><stop stop-color="#A52714" offset="0"/><stop stop-color="#D23F31" offset=".529"/><stop stop-color="#DB4437" offset="1"/></linearGradient><path d="M40.61 38.62c.59-1.08 2.44-1.82 3.77-2.23.81-.25 1.67.16 1.99.94l1.96 4.72c.24.58.13 1.25-.29 1.73l-1.85 2.08c.68.92 1.53 1.66 2.51 2.25 1.67 1.01 3.34.97 3.51 1.11 2.12 1.71 3.7 3.71 2.46 6.99-1.23 3.26-5.47 2.26-5.47 2.26s-4.35-3.06-7.15-9.7c-.9-2.13-2.67-7.91-1.44-10.15z" fill="url(#f)"/><linearGradient id="g" x1="55.616" x2="55.616" y1="101.54" y2="101.54" gradientUnits="userSpaceOnUse"><stop stop-color="#BD161D" offset=".003"/><stop stop-color="#D21920" offset=".19"/><stop stop-color="#E11B22" offset=".399"/><stop stop-color="#EA1C24" offset=".643"/><stop stop-color="#ED1C24" offset="1"/></linearGradient><path d="M53.44 83.12c.78 0 1.67.62 2.12 1.47.2.39.48 1.14 0 1.84-.59.87-1.08 1.8-1.6 2.79-1.12 2.14-2.29 4.36-4.65 6.28-.06.05-.11.07-.19.07-.27 0-.77-.26-1.26-.85-.75-.89-1.43-2.47-1.12-4.24.24-1.35 3.44-4.84 5.67-6.91.31-.3.64-.45 1.03-.45m0-1.03c-.61 0-1.23.23-1.75.76 0 0-5.54 5.15-5.95 7.46-.58 3.26 1.67 6.3 3.39 6.3.3 0 .59-.09.84-.3 3.65-2.96 4.64-6.63 6.45-9.29 1.41-2.08-.81-4.93-2.98-4.93z" fill="#212121" opacity=".29"/><linearGradient id="h" x1="68.789" x2="59.641" y1="72.073" y2="92.614" gradientUnits="userSpaceOnUse"><stop stop-color="#42A5F5" offset="0"/><stop stop-color="#1E88E5" offset="1"/></linearGradient><path d="M70.4 66.77l-.25.68c-.45-1.66-1.51-3.18-2.95-3.95 0 0-5.78-1.91-7.23.78 0 0-6.93 10.92-8.03 13.96-1.11 3.04-1.07 5.52 1.53 7.13 2.1 1.29 4.92.67 7.5-2.26 1.16-1.32 3.84-5.35 5.87-8.48.32-.5 1.09-.11.88.45L55.6 106.99l5.41 3.44S77.1 84.7 79.48 79.78c2.37-4.92 3.22-12.14 3.22-12.14l-12.3-.87z" fill="url(#h)"/><path d="M63.27 63.87c1.56 0 3.21.48 3.54.59 1.69.78 11.2 3.1 14.73 3.96-.31 2.06-1.21 7.19-2.99 10.9-2.07 4.3-15.01 25.1-17.86 29.66l-3.82-2.43 11.82-31.12c.18-.48.12-.99-.16-1.41-.29-.42-.77-.67-1.28-.67s-.99.26-1.27.7c-2.86 4.4-4.91 7.37-5.78 8.36-1.44 1.64-3.03 2.55-4.47 2.55-.61 0-1.19-.16-1.71-.48-1.88-1.16-2.2-2.87-1.1-5.89 1.05-2.9 7.87-13.65 7.94-13.76l.04-.06c.3-.6 1.11-.9 2.37-.9m0-1.03c-1.36 0-2.7.33-3.3 1.44 0 0-6.93 10.92-8.03 13.96-1.11 3.04-1.07 5.52 1.53 7.13.68.42 1.45.64 2.25.64 1.66 0 3.51-.93 5.25-2.9 1.16-1.32 3.84-5.35 5.87-8.48.1-.16.26-.23.41-.23.31 0 .62.3.48.68l-12.12 31.91 5.41 3.44S77.11 84.7 79.49 79.78c2.37-4.92 3.22-12.14 3.22-12.14s-14.06-3.36-15.5-4.13c-.01-.02-2-.67-3.94-.67z" fill="#212121" opacity=".29"/><path d="M60.24 63.89l2-3.26c.28-.63 1-.89 1.58-.56 6.62 3.79 10.14 4.78 17.67 4.34.69-.04 1.26.59 1.21 1.33l-.26 3.51s-2.76 1.56-11.19-.23c-5.98-1.27-11.01-5.13-11.01-5.13z" fill="#212121" opacity=".4"/><linearGradient id="i" x1="62.148" x2="82.817" y1="62.55" y2="67.068" gradientUnits="userSpaceOnUse"><stop stop-color="#D32F2F" offset="0"/><stop stop-color="#F44336" offset=".23"/><stop stop-color="#F44336" offset=".742"/><stop stop-color="#D32F2F" offset="1"/></linearGradient><path d="M79.34 68.5c-6.46 0-11.23-1.31-18.21-5.03a.73.73 0 0 1-.31-.94l1.19-2.52a.719.719 0 0 1 .98-.33c5.71 3.05 9.55 4.5 15.94 4.5.99 0 2.06-.03 3.27-.1a.723.723 0 0 1 .75.77l-.23 2.9a.72.72 0 0 1-.67.66c-.94.07-1.85.09-2.71.09z" fill="url(#i)"/><path d="M62.66 60.13c.03 0 .06.01.09.02 5.79 3.09 9.69 4.56 16.18 4.56 1 0 2.08-.03 3.31-.1.07 0 .12.04.14.06.03.03.06.08.05.15l-.23 2.9c-.01.1-.09.18-.18.18-.93.05-1.84.07-2.69.07-6.37 0-11.07-1.3-17.96-4.97-.09-.05-.13-.17-.08-.26l1.19-2.52c.04-.06.13-.09.18-.09m0-1.03c-.46 0-.9.26-1.11.7l-1.19 2.52c-.28.59-.04 1.31.53 1.62 6.57 3.49 11.49 5.09 18.44 5.09.88 0 1.79-.03 2.74-.08.61-.03 1.11-.52 1.16-1.13l.23-2.9a1.23 1.23 0 0 0-1.23-1.33h-.07c-1.16.06-2.23.1-3.24.1-5.99 0-9.63-1.2-15.7-4.44a.983.983 0 0 0-.56-.15z" fill="#C62828"/><path d="M69.48 45.02c1.28-.56 3.66-1.34 7.09-1.47.22-.01.43-.01.63-.01 3.09 0 4.98.84 5.95 1.43l-6.94 7.46-6.73-7.41z" fill="#E53935"/><path d="M77.21 44.58c1.89 0 3.28.34 4.24.71l-5.23 5.62-4.95-5.45c1.27-.4 3.06-.79 5.33-.87.22-.01.41-.01.61-.01m0-2.07c-.22 0-.44 0-.67.01-5.77.21-8.73 2.2-8.73 2.2l8.4 9.25 8.48-9.12s-2.19-2.34-7.48-2.34z" fill="#FDD835"/><path d="M71.72 68.16c-.16 0-.31-.08-.39-.21l-1.53-2.31c-.07-.11-.09-.23-.07-.35s.1-.23.2-.3l2.31-1.53c.08-.05.17-.08.26-.08.16 0 .31.08.39.21l1.53 2.31c.14.22.08.51-.13.65l-2.31 1.53c-.08.05-.17.08-.26.08z" fill="#FFF176"/><path d="M72.49 63.92l1.48 2.23-2.23 1.48-1.48-2.23 2.23-1.48m.01-1.06c-.19 0-.38.05-.55.16l-2.31 1.53c-.46.3-.58.92-.28 1.37l1.53 2.31c.19.29.51.44.83.44.19 0 .38-.05.55-.16l2.31-1.53c.46-.3.58-.92.28-1.37l-1.53-2.31c-.2-.28-.51-.44-.83-.44z" fill="#FDD835"/><linearGradient id="j" x1="48.301" x2="62.155" y1="121.94" y2="100.85" gradientUnits="userSpaceOnUse"><stop stop-color="#A52714" offset="0"/><stop stop-color="#D23F31" offset=".529"/><stop stop-color="#ED4132" offset="1"/></linearGradient><path d="M56.86 97.6s-1.61 9.66-5.58 15.98c-1.94 2.57-5.1 4.68-6.74 9.09-.75 2.03 3.63 3.96 7.04 2.09 2.05-1.13 5.16-8.03 5.16-8.03 2.73-4.98 10.9-12.92 10.9-12.92-1.58-7.29-10.78-6.21-10.78-6.21z" fill="url(#j)"/><path d="M58.1 98.58c2.63 0 7.12.65 8.39 4.91-1.75 1.73-8.21 8.29-10.66 12.75l-.04.08c-1.23 2.73-3.5 6.88-4.71 7.55-.75.41-1.63.63-2.52.63-1.43 0-2.6-.56-2.97-1.09-.14-.2-.1-.31-.08-.36 1.06-2.85 2.79-4.66 4.46-6.41.77-.81 1.5-1.57 2.13-2.41l.03-.04.02-.04c3.4-5.42 5.09-13.05 5.58-15.55.12-.02.24-.02.37-.02m0-1.04c-.76 0-1.24.06-1.24.06s-1.61 9.66-5.58 15.98c-1.94 2.57-5.1 4.68-6.74 9.09-.54 1.45 1.54 2.85 4.02 2.85.99 0 2.05-.22 3.02-.76 2.05-1.13 5.16-8.03 5.16-8.03 2.73-4.98 10.9-12.92 10.9-12.92-1.22-5.62-6.97-6.27-9.54-6.27z" fill="#212121" opacity=".29"/><path d="M52.39 37.13s6.21-6.2 12.78-4.97c7.57 1.42 9.04 6.21 9.04 6.21s-3.81.03-7.24-.76c-3.47-.8-6.56-2.41-8.4-2.22l-6.18 1.74z" fill="#ED4132"/><path d="M74.21 38.37s3.05-5.53 6.37-6.72 8.19-1.68 8.19-1.68-2.33 4.55-4.13 6c-3.81 3.04-10.43 2.4-10.43 2.4z" fill="#ED4132"/><path d="M56.13 40.53s3.26-2.94 8.22-1.75c7.14 1.71 9.86-.41 9.86-.41s5.25 1.89 10.22-.5c3.41-1.64 4.34-7.89 4.34-7.89L87.6 31.3s-4.38 4.77-8.74 6.06c-3.19.95-4.64 1.01-4.64 1.01s-11.76-4.03-14.44-2.91-3.65 5.07-3.65 5.07z" fill="#212121" opacity=".4"/><radialGradient id="k" cx="73.76" cy="26.696" r="9.816" gradientUnits="userSpaceOnUse"><stop stop-color="#BFA055" offset="0"/><stop stop-color="#AB872F" offset="1"/></radialGradient><path d="M83.33 29.64c-.47-.85.02-1.66.86-2.57.94-1.02 2.45-4.48.66-7.48-.32-.04-4.97.16-6.15.19l-5.02.14-5.02.14c-1.18.03-5.83.09-6.15.14-1.62 3.09.08 6.47 1.07 7.44.88.86 1.42 1.64 1 2.52-.28.58-.7.77-1.02.85.09.13.2.24.33.31.46.26 1.03.3 1.4.3.22 0 .39.14.54.3 1.61 1.69 2.71 2.02 8.23 1.87 5.51-.15 6.59-.54 8.11-2.32.14-.17.3-.32.52-.33.37-.02.94-.1 1.38-.38.13-.08.24-.19.32-.33-.32-.06-.75-.23-1.06-.79z" fill="url(#k)"/><path d="M83.33 29.64c-.47-.85.02-1.66.86-2.57.94-1.02 2.45-4.48.66-7.48-.32-.04-4.97.16-6.15.19l-5.02.14-5.02.14c-1.18.03-5.83.09-6.15.14-1.62 3.09.08 6.47 1.07 7.44.88.86 1.42 1.64 1 2.52-.28.58-.7.77-1.02.85.09.13.2.24.33.31.46.26 1.03.3 1.4.3.22 0 .39.14.54.3 1.61 1.69 2.71 2.02 8.23 1.87 5.51-.15 6.59-.54 8.11-2.32.14-.17.3-.32.52-.33.37-.02.94-.1 1.38-.38.13-.08.24-.19.32-.33-.32-.06-.75-.23-1.06-.79z" fill="none" stroke="#8F7635" stroke-miterlimit="10"/><path d="M74.19 37.94c-.64-.31-2.97-1.6-2.97-4.08l-.08-2.13 5.69-.16.08 2.25c0 2.28-2.13 3.75-2.72 4.12z" fill="#C48E6A"/><path d="M76.47 31.96l.07 1.85c0 1.91-1.67 3.23-2.37 3.7-.76-.4-2.57-1.57-2.57-3.67l-.07-1.74 2.46-.07 2.48-.07m.72-.77l-6.44.18.09 2.5c0 3.16 3.36 4.5 3.36 4.5s3.07-1.65 3.07-4.55l-.08-2.63z" fill="#B07853"/><path d="M66.07 27.98c-1.42 0-2.62-1.24-2.66-2.77-.04-1.57 1.11-2.88 2.57-2.92l15.42-.42c1.49 0 2.68 1.24 2.72 2.77.04 1.57-1.11 2.88-2.57 2.92l-15.48.42z" fill="#C48E6A"/><path d="M81.46 22.24c1.22 0 2.25 1.08 2.28 2.41.04 1.36-.95 2.5-2.2 2.53l-2.08.06-11.26.31-2.08.06h-.06c-1.22 0-2.25-1.08-2.28-2.41-.02-.66.21-1.3.64-1.78.42-.47.97-.74 1.57-.75l2.08-.06 11.26-.31 2.08-.06h.05m0-.75h-.08l-2.08.06-11.26.31-2.08.06c-1.66.05-2.98 1.53-2.93 3.3.05 1.74 1.4 3.14 3.03 3.14h.08l2.08-.06 11.26-.31 2.08-.06c1.66-.05 2.98-1.53 2.93-3.3-.04-1.74-1.4-3.14-3.03-3.14z" fill="#B07853"/><linearGradient id="l" x1="73.35" x2="73.988" y1="38.492" y2="15.115" gradientTransform="rotate(-1.564 -88.726 23.931)" gradientUnits="userSpaceOnUse"><stop stop-color="#CCA47A" offset=".002"/><stop stop-color="#D6B088" offset=".258"/><stop stop-color="#DEB892" offset=".59"/><stop stop-color="#E0BB95" offset="1"/></linearGradient><path d="M73.74 33.98c-4.4 0-8.93-3.28-9.13-10.61-.09-3.47.81-6.7 2.56-9.08 1.63-2.22 3.88-3.53 6.18-3.59h.18c4.38 0 9.03 4.56 9.24 12.18.09 3.39-.81 6.24-2.61 8.25a8.548 8.548 0 0 1-6.17 2.85h-.25z" fill="url(#l)"/><path d="M73.53 11.07c4.2 0 8.66 4.42 8.86 11.82.09 3.29-.78 6.05-2.52 7.99a8.143 8.143 0 0 1-5.9 2.72h-.23c-4.22 0-8.57-3.17-8.76-10.24-.16-5.8 3-12.14 8.37-12.29h.18m0-.75h-.19c-4.91.13-9.31 5.51-9.1 13.06.2 7.38 4.82 10.97 9.51 10.97H74c4.77-.13 9.35-3.97 9.15-11.48-.21-7.46-4.79-12.55-9.62-12.55z" fill="#BA8F63"/><g fill="#5D4037"><ellipse transform="rotate(-1.564 69.073 24.456)" cx="69.12" cy="24.47" rx="1.39" ry="1.44"/><ellipse transform="rotate(-1.564 78.336 24.201)" cx="78.39" cy="24.22" rx="1.39" ry="1.44"/></g><path d="M76.2 29.42c-.88.56-3.83.64-4.74.13-.52-.29-1.04.19-.81.65.22.45 1.86 1.48 3.25 1.44s2.95-1.15 3.14-1.62c.2-.47-.33-.92-.84-.6z" fill="#6D4C41"/><path d="M74.72 26.87a.292.292 0 0 0-.09-.02l-1.99.05c-.03 0-.06.01-.09.03-.18.08-.27.27-.18.47s.5.75 1.3.72c.8-.02 1.18-.59 1.26-.79a.34.34 0 0 0-.21-.46z" fill="#C48E6A"/><radialGradient id="m" cx="73.836" cy="21.122" r="10.367" gradientTransform="matrix(.9996 -.0273 .0236 .8639 -.608 .454)" gradientUnits="userSpaceOnUse"><stop stop-color="#BFA055" offset="0"/><stop stop-color="#AB872F" offset="1"/></radialGradient><path d="M70.08 10.26c-3.46 1.33-3.87-.85-3.87-.85-1.87 1-.57 2.99-.57 2.99s-1.93-.09-2.71 1.6c-.81 1.76-.02 3.07-.02 3.07s-1.82 1.23-1.03 3.34c.52 1.41 1.98 1.94 1.98 1.94-.09 3.07.91 4.52.91 4.52s1.05-5.29.92-6.09c0 0 2.2-.5 4.67-2 1.67-1.02 2.8-2.19 4.69-2.67 2.88-.73 3.59 1.35 3.59 1.35s2.67-.59 3.58 3.12c.38 1.52.59 4.08.81 5.64-.02-.14.95-1.85 1.08-3.57.05-.64.97-2.21 1.23-3.37.56-2.53-.32-4.48-.73-5.06-.74-1.06-2.49-2.5-3.76-2.25.03-1.37-1.08-2.61-2.39-3.01-3.57-1.09-7.35.91-8.38 1.3z" fill="url(#m)"/><defs><path id="n" d="M64.5 7.74l-3.32 6.08-.34 7.31 1.57.96.81-2.39 13.65-6.73 6.17 4.05 1.92 4.33 1.48-1.83-.93-12.36z"/></defs><clipPath id="o"><use xlink:href="#n"/></clipPath><g clip-path="url(#o)"><path d="M70.08 10.26c-3.46 1.33-3.87-.85-3.87-.85-1.87 1-.57 2.99-.57 2.99s-1.93-.09-2.71 1.6c-.81 1.76-.02 3.07-.02 3.07s-1.82 1.23-1.03 3.34c.52 1.41 1.98 1.94 1.98 1.94-.09 3.07.91 4.52.91 4.52s1.05-5.29.92-6.09c0 0 2.2-.5 4.67-2 1.67-1.02 2.8-2.19 4.69-2.67 2.88-.73 3.59 1.35 3.59 1.35s2.67-.59 3.58 3.12c.38 1.52.59 4.08.81 5.64-.02-.14.95-1.85 1.08-3.57.05-.64.97-2.21 1.23-3.37.56-2.53-.32-4.48-.73-5.06-.74-1.06-2.49-2.5-3.76-2.25.03-1.37-1.08-2.61-2.39-3.01-3.57-1.09-7.35.91-8.38 1.3z" fill="none" stroke="#8F7635" stroke-miterlimit="10"/></g><g fill="#AB872F"><path d="M71.27 21.79c-.27-.34-.9-.84-2.09-.81s-1.79.56-2.04.92c-.11.16-.08.34.01.44.08.1.3.19.55.1.24-.09.72-.35 1.52-.38.8-.02 1.29.22 1.54.3s.47-.02.54-.13.1-.29-.03-.44zM80.45 21.54c-.27-.34-.9-.84-2.09-.81s-1.79.56-2.04.92c-.11.16-.08.34.01.44.08.1.3.19.55.1.24-.09.72-.35 1.52-.38.8-.02 1.29.22 1.54.3s.47-.02.54-.13c.06-.11.09-.29-.03-.44z"/></g><linearGradient id="p" x1="97.368" x2="83.559" y1="23.916" y2="3.03" gradientUnits="userSpaceOnUse"><stop stop-color="#A52714" offset="0"/><stop stop-color="#D23F31" offset=".529"/><stop stop-color="#DB4437" offset="1"/></linearGradient><path d="M91.67 24.92c-.14-.93-1.91-15.14-5.23-15.88 0 0-1.76.02-3.56.18-1.41.05-2.35-.33-2.62-1.22-.33-.68.01-2.2.58-3.9.57-1.71 1.59-1.92 2.4-1.94 1.57-.04 4.25 1.55 7.93 4.73 7.08 6.12 10.95 15.35 10.95 15.35-.13 0-4.69 6.23-10.45 2.68z" fill="url(#p)"/><path d="M44.85 37.35c.24 0 .46.15.56.38l1.96 4.72c.09.21.05.47-.11.64l-1.85 2.08-.56.63.5.68c.73.99 1.67 1.84 2.81 2.52 1.39.84 2.78 1.05 3.44 1.15.04.01.08.01.12.02 1.94 1.61 2.93 3.15 1.98 5.68-.43 1.15-1.46 1.73-3.06 1.73-.43 0-.8-.05-1.01-.08-.8-.63-4.29-3.59-6.63-9.13-1.19-2.82-2.33-7.7-1.49-9.24.32-.57 1.5-1.23 3.17-1.74.06-.03.11-.04.17-.04m0-1.03c-.16 0-.32.02-.48.07-1.33.41-3.18 1.15-3.77 2.23-1.22 2.23.54 8.02 1.44 10.14 2.81 6.65 7.15 9.7 7.15 9.7s.61.14 1.44.14c1.35 0 3.27-.38 4.03-2.4 1.24-3.28-.35-5.28-2.46-6.99-.17-.13-1.84-.1-3.51-1.11-.98-.59-1.83-1.33-2.51-2.25l1.85-2.08c.42-.47.53-1.14.29-1.73l-1.96-4.72c-.26-.61-.86-1-1.51-1zM83.3 3.19c.75 0 2.67.58 7.19 4.48 5.78 5 9.42 12.24 10.4 14.36-1.85 1.96-3.74 2.96-5.6 2.96-.89 0-1.78-.24-2.66-.7-2.15-15.4-5.02-16.04-5.97-16.24l-.12-.03h-.12c-.07 0-1.8.03-3.61.18h-.18c-.56 0-1.26-.08-1.38-.49l-.02-.07-.03-.09c-.03-.06-.2-.65.63-3.13.4-1.21.96-1.22 1.44-1.24l.03.01m0-1.04h-.06c-.81.02-1.83.23-2.4 1.94s-.91 3.23-.58 3.91c.25.84 1.1 1.22 2.37 1.22h.24c1.8-.15 3.56-.18 3.56-.18 3.32.73 5.09 14.95 5.23 15.88 1.28.79 2.49 1.09 3.62 1.09 3.94 0 6.73-3.77 6.83-3.79 0 0-3.87-9.23-10.95-15.35-3.62-3.12-6.28-4.72-7.86-4.72z" fill="#212121" opacity=".29"/><linearGradient id="q" x1="76.247" x2="76.247" y1="44.742" y2="54.598" gradientUnits="userSpaceOnUse"><stop stop-color="#0D47A1" stop-opacity="0" offset="0"/><stop stop-color="#0D47A1" offset="1"/></linearGradient><path d="M67.81 44.72s2.96-1.99 8.73-2.2 8.15 2.33 8.15 2.33l-8.48 9.12-8.4-9.25z" fill="url(#q)" opacity=".42"/></svg>