<svg viewBox="0 0 128 128" width="128" height="128" xmlns="http://www.w3.org/2000/svg" xmlns:xlink="http://www.w3.org/1999/xlink"><defs><path id="a" transform="rotate(-180 64 64)" d="M4 4h120v120H4z"/></defs><clipPath id="b"><use xlink:href="#a"/></clipPath><path d="M49.53-4.96s-2.17 20.17 2.17 38 12.09 22.68 12.09 22.68" clip-path="url(#b)" fill="none" stroke="#1C75BC" stroke-linecap="round" stroke-linejoin="round" stroke-miterlimit="10" stroke-width="1.6"/><g clip-path="url(#b)"><linearGradient id="c" x1="53.629" x2="81.87" y1="79.877" y2="79.877" gradientTransform="scale(-1 1) rotate(-19.464 -19.64 438.888)" gradientUnits="userSpaceOnUse"><stop stop-color="#E0BB95" offset="0"/><stop stop-color="#DEB892" offset=".41"/><stop stop-color="#D6B088" offset=".742"/><stop stop-color="#CCA47A" offset=".998"/></linearGradient><path d="M39.1 81.31c.94-2.98 6.16-19.47 6.4-20.23.6-1.88 2.55-3.24 4.65-3.24.2 0 .4.01.6.04l22.88 3.01-1.75 10.29-19.3-4.25c-.04-.01-.07-.01-.11-.01-.2 0-.38.12-.46.31l-6.85 16.22-6.06-2.14z" fill="url(#c)"/><path d="M50.15 58.33c.18 0 .36.01.54.04l22.37 2.94-1.57 9.26-18.79-4.13c-.07-.02-.14-.02-.22-.02-.39 0-.76.23-.92.61l-6.67 15.79L39.72 81l6.25-19.77c.54-1.68 2.3-2.9 4.18-2.9m0-1c-2.22 0-4.44 1.44-5.12 3.59-.27.83-6.54 20.69-6.54 20.69l6.96 2.46 7.03-16.66 19.81 4.36 1.92-11.32-23.4-3.08c-.22-.02-.44-.04-.66-.04z" fill="#BA8F63"/><circle cx="73.25" cy="66.12" r="5.74" fill="#FBC11B"/><path fill="#E0E0E0" d="M37.96 85.77l1.51-6.07 6.32 2.22-2.32 5.79z"/><path d="M39.83 80.35l5.31 1.86-1.95 4.86-4.63-1.63 1.27-5.09m-.71-1.3l-1.76 7.05 6.39 2.25 2.69-6.72-7.32-2.58z" fill="#CCC7BD"/><path d="M73.37 72.47c-.36 0-.71-.03-1.07-.09L57.25 69.6l2.02-11.88 15.1 2.16c.02 0 .04.01.05.01 3.44.58 5.77 3.86 5.18 7.3a6.303 6.303 0 0 1-6.23 5.28z" fill="#646464"/><path d="M59.68 58.29l14.59 2.08c.02.01.05.01.07.01a5.84 5.84 0 0 1 4.77 6.73 5.819 5.819 0 0 1-6.71 4.78L57.82 69.2l1.86-10.91m-.83-1.12l-2.18 12.84 15.55 2.87c.39.07.77.1 1.15.1 3.27 0 6.16-2.36 6.73-5.69.63-3.72-1.87-7.25-5.59-7.88l-15.66-2.24z" fill="#4F4F4F"/><path d="M39.59 92.95c-.15 0-.29-.06-.38-.18l-8.7-10.34a.344.344 0 0 1-.09-.27.37.37 0 0 1 .12-.24l.83-.69a2.92 2.92 0 0 1 1.85-.67c.5 0 .99.13 1.43.37l4.3 2.41 4.17 4.96c-.11.59-.5 2.25-1.39 3l-1.84 1.55c-.1.09-.22.1-.3.1z" fill="#4568AD"/><path d="M33.24 81.06c.41 0 .82.11 1.18.3l4.22 2.36 3.95 4.71c-.16.73-.55 1.95-1.17 2.48l-1.82 1.54-8.61-10.24.72-.6c.42-.35.97-.55 1.53-.55m0-1c-.78 0-1.55.26-2.17.78l-.83.69c-.37.3-.41.85-.1 1.22l8.7 10.34c.2.24.48.36.76.36.22 0 .45-.08.63-.23l1.84-1.55c1.25-1.05 1.6-3.52 1.6-3.52l-4.37-5.21-4.38-2.45c-.54-.29-1.11-.43-1.68-.43z" fill="#315499"/><path d="M70.7 45.91L68.48 40l-10.72 4.02h-.02l-11.49-2.58c-1.83-.52-3.23 2.86-1.29 3.99l11.67 4.84v-.02c.68.22 1.39.2 2.03-.02l.01.03 12.03-4.35z" fill="#E0BB95" stroke="#EDBD82" stroke-linecap="round" stroke-linejoin="round" stroke-miterlimit="10"/><path d="M56.62 50.78c-.06 0-.12-.01-.18-.04l-11.73-4.87c-1.3-.76-1.4-2.28-.93-3.38.51-1.19 1.58-1.82 2.58-1.53l11.36 2.55 10.59-3.97c.12-.05.26-.04.38.01s.21.16.26.28l2.22 5.91a.5.5 0 0 1-.01.38c-.06.12-.16.22-.28.26l-12.02 4.35c-.06.02-.12.03-.18.03-.34.1-.69.15-1.04.15s-.68-.04-1.02-.13zm2.05-1.04l11.38-4.12-1.86-4.97-10.26 3.85c-.08.03-.17.04-.26.02-.01 0-.03 0-.04-.01l-11.49-2.67c-.62-.18-1.18.43-1.43 1.04-.19.46-.8.97-.49 1.32.44.49.67.61.94.77l11.55 4.79c.03 0 .06.01.09.02.58.18 1.17.18 1.71-.02.05-.02.1-.03.15-.03 0 .01 0 .01.01.01z" fill="#BA8F63"/><path d="M60.56 42.46l8.07-3.2c.48-.19.98-.29 1.5-.29 1.68 0 3.17 1.01 3.78 2.57l.28.71c.4 1.01.38 2.12-.05 3.11s-1.22 1.77-2.23 2.17l-8.07 3.2-3.28-8.27z" fill="#ED6D23"/><path d="M70.13 39.47c1.47 0 2.78.89 3.32 2.26l.28.71c.72 1.83-.18 3.91-2 4.63l-7.61 3.01-2.91-7.34 7.61-3.01c.42-.17.86-.26 1.31-.26m0-1c-.56 0-1.13.1-1.68.32l-8.54 3.38 3.64 9.2L72.09 48a4.574 4.574 0 0 0 2.57-5.93l-.28-.71a4.598 4.598 0 0 0-4.25-2.89z" fill="#DA6727"/><path d="M46.32 41.17l-2.5-3.72c-.24-.35-.54-.63-.9-.81l-2-1.02c-.25-.13-.52-.21-.81-.25-.61-.08-1.7-.2-2.27-.17-.29.01-.5.09-.75.36-.45.5-.46 1.22.02 1.58.34.25 1.07.19 1.47.13.19-.03.37.02.51.13l1.76 1.48c.15.13.27.28.36.47.33.7.99 1.3 1.53 3.33.44 1.66 1.11 2.47 1.11 2.47s1.81-2.59 2.47-3.98z" fill="#E0BB95"/><path d="M36.72 35.23c.32-.35.63-.51 1.1-.53.58-.03 1.6.08 2.36.18.35.04.67.15.97.3l2 1.02c.44.22.8.55 1.09.98l2.66 3.96-.12.26c-.07.15-.16.32-.25.48-.09-.02-.19-.03-.29-.02-.08.01-.25-.03-.25-.03l-.24-.61-2.34-3.48c-.19-.28-.43-.5-.72-.65l-2-1.02c-.2-.1-.41-.17-.64-.2-1.02-.13-1.79-.19-2.19-.17-.17.01-.25.03-.4.2s-.23.38-.21.56c.01.12.07.21.16.28.08.06.41.14 1.1.04.34-.05.66.04.9.25l1.76 1.48c.21.17.37.39.49.65.08.18.19.36.32.55.35.56.83 1.33 1.24 2.86.21.79.86 1.44.86 1.44s.21.29.33.41.24.27.37.36c-.15.22-.23.32-.24.34l.21.76-.4-.2c-.82-.53-1.62-1-2.11-2.85-.37-1.38-.78-2.05-1.12-2.58-.15-.24-.28-.45-.38-.67a.86.86 0 0 0-.23-.3l-1.76-1.49c-.02-.02-.06-.03-.11-.02-.85.12-1.47.04-1.84-.23-.32-.23-.51-.58-.56-.98-.02-.47.14-.95.48-1.33z" fill="#BA8F63"/><path d="M39.39 39.19c-.53-.2-1.06-.08-1.29.49s.13.99.66 1.19l4.29 1.82.76-2.15-4.42-1.35z" fill="#E0BB95"/><path d="M38.45 38.84c.32-.12.68-.13 1.07.03l4.04 1.25c.18.06.3.24.26.41-.06.22-.03.07-.11.34-.33-.11-4.41-1.36-4.41-1.36-.01 0-.02-.01-.02-.01-.14-.06-.33-.1-.5-.03-.13.05-.23.16-.3.34-.17.41.14.63.45.75l4.28 1.8s-.01.08-.14.32c-.07.14-.28.21-.45.17-.02 0-.08-.02-.11-.03-.01 0-.01 0-.02-.01l-3.84-1.64c-.8-.3-1.15-.96-.88-1.63.12-.33.36-.58.68-.7z" fill="#BA8F63"/></g><g clip-path="url(#b)"><linearGradient id="d" x1="94.913" x2="110.79" y1="-2.5" y2="95.25" gradientTransform="matrix(-1 0 0 1 128 0)" gradientUnits="userSpaceOnUse"><stop stop-color="#795548" offset=".364"/><stop stop-color="#6C4B40" offset=".705"/><stop stop-color="#5D4037" offset="1"/></linearGradient><path fill="url(#d)" d="M-1.72 129.87l1-131.4 42.31-1 9.46 16.84-7.83 11.18-6.13 10.07 1.5 1.71-4.72 9.25 3.47 11.01-5.24 9.29-.35 15.63 4.59 7.69 3.87 24.48 4.85 16.33H30.4z"/><linearGradient id="e" x1="84.667" x2="98.451" y1="19.392" y2="22.622" gradientTransform="rotate(37.859 73.341 2.682)" gradientUnits="userSpaceOnUse"><stop stop-color="#E0BB95" offset=".55"/><stop stop-color="#CCA47A" offset=".83"/><stop stop-color="#C48E6A" offset="1"/></linearGradient><path d="M84.89 20.85c-.44-4.23-3.78-8.97-7.85-10.2-4.56-1.38-8.31.54-10.77 4.08-.89 1.28-1.53 2.69-1.77 3.79-.03.13-.21 1.1-.33 1.38-.34 1.11-2.86 1.16-3.65 2.18-.6.77.94 2.2 1.01 2.43.33 1.12-1.79 3.9 1.33 6.24.8.6 3.51 1.03 3.51 1.03 1.54 1.04-.07 4.91-.07 4.91l8.71 1.42s-1.44-3.65 2.78-6.56c3.23-2.22 7.39-7.98 7.1-10.7z" fill="url(#e)"/><linearGradient id="f" x1="61.695" x2="82.25" y1="19.33" y2="28.227" gradientUnits="userSpaceOnUse"><stop stop-color="#BA8F63" offset="0"/><stop stop-color="#B07853" offset=".998"/></linearGradient><path d="M74.13 11.2c.84 0 1.73.14 2.62.41 3.51 1.06 6.72 5.26 7.15 9.35.22 2.12-3.52 7.6-6.67 9.77-2.83 1.96-3.52 4.41-3.45 6.17l-6.13-1c.44-1.5.84-3.89-.71-4.94a.992.992 0 0 0-.4-.16c-1.19-.19-2.71-.58-3.07-.85-1.7-1.27-1.39-2.6-1.09-3.89.15-.65.29-1.26.12-1.84-.07-.24-.21-.41-.43-.68-.36-.44-.58-.76-.65-.95.26-.21.82-.41 1.27-.57.98-.35 2.08-.75 2.43-1.79.1-.27.21-.74.34-1.39l.02-.11c.22-1.02.83-2.31 1.61-3.44 1.3-1.86 3.58-4.09 7.04-4.09m0-1c-3.25 0-5.95 1.77-7.87 4.53-.89 1.28-1.53 2.69-1.77 3.79-.03.13-.21 1.1-.33 1.38-.34 1.11-2.86 1.16-3.65 2.18-.6.77.94 2.2 1.01 2.43.33 1.12-1.79 3.9 1.33 6.24.8.6 3.51 1.03 3.51 1.03 1.54 1.04-.07 4.91-.07 4.91L75 38.11s-1.44-3.65 2.78-6.56c3.23-2.23 7.38-7.99 7.1-10.7-.44-4.23-3.78-8.97-7.85-10.2-1-.31-1.97-.45-2.9-.45z" fill="url(#f)"/><path d="M61.14 26.98c.67.37 1.51.55 2.3.41.86-.16.68-.89-.19-.94-.53-.03-1.34-.32-1.85-.7l-.26 1.23z" fill="#6D4C41"/><ellipse transform="rotate(-66.096 66.962 21.99)" cx="66.96" cy="21.99" rx="1.54" ry="1.01" fill="#5D4037"/><path d="M67.25 19.85c-1.02-.02-1.05-.71-.58-1.11.35-.29 1.01-.42 2.04.14.97.53 1.21 1.26 1.38 1.7s.02.8-.23.75c-.35-.05-1.35-1.45-2.61-1.48z" fill="#AB872F"/><radialGradient id="g" cx="110.02" cy="17.589" r="10.073" gradientTransform="matrix(.8696 .5823 -.5765 .8642 -12.076 -66.34)" gradientUnits="userSpaceOnUse"><stop stop-color="#BFA055" offset="0"/><stop stop-color="#AB872F" offset="1"/></radialGradient><path d="M84.92 22.96c.01-.65-.02-1.31-.14-1.95-.17-.91-.5-1.79-.92-2.61-1.12-2.18-2.93-4.01-5.12-5.09-2.2-1.08-4.78-1.39-7.15-.77-1.83.47-3.66 1.66-4.15 3.49.87.34 1.87.14 2.78.58 1.17.57 2.28 1.4 3.58 1.5.5.04 1.01-.03 1.51-.04.09.04.15.07.15.07 1.06 1.46-2.45 3.89-1.81 6.63.13.54.35 1.09.35 1.09s1.47-2.49 2.93-1.39c1.52 1.15.45 2.79-1.01 3.77-1.5 1.02-1.9-.05-1.98.6-.05.37.18.64.29.98.13.42.05.35-.19.62-.39.46-1.03 1.83.2 3.07.45.45 1.63.61 1.63.61s.3 2.33 3.21 1.24c-.96-.72-.78-1.56-.61-2.24 1.61 1.87 3.31.35 3.31.35s-1.08-.4-1.22-1.1c-.08-.39-.04-.88.38-1.27.36-.34.62-.41 1.08-.61 2.1-.96 2.55-3.78 2.77-5.81.07-.57.12-1.15.13-1.72z" fill="url(#g)"/><path d="M81.07 32.27c-.35-1.05.46-1.55.5-1.58l-1-.4c-.32.35-.5 1.38-.47 1.79.06.91.92 1.38.92 1.38s-.49.35-1.24.12c-1.66-.5-1.69-.85-1.69-.85s-.73.99.16 2.68c-1.79.15-1.87-1.4-1.87-1.4l-.07-.35-.35-.05c-.42-.06-1.12-.24-1.34-.46-.67-.68-.64-1.34-.49-1.8h-1.04c-.15.77-.01 1.68.81 2.51.4.41 1.15.61 1.6.7.16.43.51 1.17 1.25 1.56.32.17.67.26 1.05.26.39 0 .8-.09 1.24-.27l.82-.33s-1.13-.45-1.08-1.72c1.61 1.2 3.32-.18 3.36-.21l.62-.55-.79-.3c-.29-.11-.81-.44-.9-.73zM84.78 21.01c-.17-.91-.5-1.79-.92-2.61-.78-1.51-1.89-2.86-3.23-3.9-.59-.46-1.22-.86-1.89-1.19-2.2-1.08-4.78-1.39-7.15-.77-1.83.47-3.66 1.66-4.15 3.49.87.34 1.87.14 2.78.58 1.17.57 2.28 1.4 3.58 1.5.5.04 1.01-.03 1.51-.04.09.04.15.07.15.07 1.06 1.46-2.45 3.89-1.81 6.63.13.54.35 1.09.35 1.09s1.47-2.49 2.93-1.39l.03.03c1.47 1.15.4 2.77-1.04 3.75-1.5 1.02-1.64.04-1.98.6-.22.36-.69 1.94-.69 1.94l1.15-.08.7-1.15c.36-.07.8-.23 1.31-.58.62-.42 2.08-1.57 2.14-3.12.02-.56-.15-1.37-1.05-2.06l-.04-.03c-.53-.4-1.13-.54-1.75-.42-.47.09-.9.34-1.26.63.04-.89.57-1.8 1.09-2.68.69-1.17 1.47-2.5.62-3.67a.976.976 0 0 0-.17-.18.95.95 0 0 0-.17-.1l-.15-.07a.838.838 0 0 0-.38-.08c-.21 0-.43.01-.64.02-.28.02-.55.03-.8.01-.76-.06-1.51-.47-2.3-.91-.31-.17-.63-.35-.95-.5-.63-.31-1.26-.37-1.82-.42-.03 0-.06-.01-.09-.01.69-1.03 1.98-1.68 3.11-1.98 2.12-.55 4.5-.29 6.53.71.61.3 1.19.67 1.74 1.09 1.23.96 2.26 2.2 2.98 3.6.42.81.7 1.6.84 2.36.1.53.14 1.11.12 1.77-.01.47-.05.99-.12 1.64-.15 1.35-.41 2.88-1.16 4.09l.84.16v.14c.75-1.29 1.04-2.8 1.2-4.29.06-.57.11-1.14.12-1.72.04-.65.01-1.31-.11-1.95z" fill="#8F7635"/><linearGradient id="h" x1="102.18" x2="102.18" y1="16.349" y2="22.97" gradientTransform="rotate(42.845 75.094 -13.257)" gradientUnits="userSpaceOnUse"><stop stop-color="#646464" offset="0"/><stop stop-color="#262626" offset=".995"/></linearGradient><path d="M71.17 29.74c-.85 1.25-4.62 1.93-4.8 2.05-.32.18 1.08 1.11 1.54 1.04s3.66.3 7.36-1.39c1.66-.76 5.81-2.98 5.81-2.98l-1.31-2.66s-5.2 5.43-6.68 4.25 3-6.87 3-6.87l-4.44-1.21c0-.01.05 7-.48 7.77z" fill="url(#h)"/><radialGradient id="i" cx="78.191" cy="11.326" r="17.692" gradientTransform="rotate(37.859 73.341 2.682)" gradientUnits="userSpaceOnUse"><stop stop-color="#81D4FA" offset="0"/><stop stop-color="#5EB3E7" offset=".36"/><stop stop-color="#3C92D3" offset=".775"/><stop stop-color="#2F85CC" offset="1"/></radialGradient><path d="M80.47 30.93c-.42 0-.81-.18-1.11-.51-.52-.57-.74-1.53-.64-2.72.18-1.99-.28-3.24-1.4-3.84a2.4 2.4 0 0 0-1.18-.29c-.23 0-.47.03-.75.06-.31.04-.68.08-1.12.08-2.1-.01-2.54-.91-2.89-2.08-.01-.04-.03-.1-.04-.18-.16-.65-.52-2.18-1.9-3.07-.38-.24-1.28-.54-2.23-.85-.72-.24-1.46-.48-1.84-.66-.53-.25-.75-.52-.79-.93-.05-.64.46-1.62 1.39-2.61.96-1.03 2.27-1.95 3.92-2.73 1.29-.62 2.84-.93 4.61-.93 2.02 0 3.75.42 4.39.64 4.45 1.57 7.79 5.39 8.5 9.75.55 3.37-.7 5.86-1.84 7.35-1.74 2.28-4.1 3.43-4.91 3.51-.07 0-.12.01-.17.01z" fill="url(#i)"/><path d="M74.49 10.12c1.96 0 3.63.41 4.24.62 4.3 1.51 7.52 5.2 8.21 9.39.52 3.21-.67 5.58-1.76 7-1.69 2.21-3.94 3.27-4.59 3.34-.04 0-.07.01-.11.01-.29 0-.56-.12-.78-.36-.25-.27-.65-.95-.52-2.37.2-2.19-.34-3.59-1.64-4.28-.44-.23-.89-.34-1.39-.34-.27 0-.52.03-.79.06-.32.04-.66.07-1.1.07-1.81-.01-2.11-.67-2.43-1.75-.01-.04-.02-.09-.04-.15-.15-.65-.56-2.36-2.1-3.35-.4-.25-1.14-.51-2.33-.9-.71-.23-1.44-.47-1.79-.64-.47-.23-.52-.39-.53-.56-.04-.5.46-1.39 1.27-2.26.92-.99 2.19-1.87 3.78-2.63 1.22-.6 2.7-.9 4.4-.9m0-.91c-1.56 0-3.27.24-4.81.97-1.49.71-2.93 1.63-4.05 2.83-.61.66-1.6 1.9-1.51 2.96.06.73.58 1.08 1.05 1.3.88.42 3.41 1.09 4.02 1.48 1.4.9 1.64 2.61 1.75 2.99.4 1.34.97 2.4 3.3 2.4h.03c.83 0 1.38-.13 1.87-.13.32 0 .62.06.97.24.61.32 1.37 1.05 1.16 3.4-.23 2.48.93 3.72 2.2 3.72.07 0 .14 0 .2-.01 1.86-.19 8.33-4.2 7.16-11.39-.76-4.68-4.34-8.53-8.8-10.1-.74-.25-2.5-.66-4.54-.66z" fill="#007EB5"/><linearGradient id="j" x1="43.74" x2="60.721" y1="86.869" y2="86.869" gradientTransform="scale(-1 1) rotate(-12.644 -9.79 615.681)" gradientUnits="userSpaceOnUse"><stop stop-color="#E0BB95" offset="0"/><stop stop-color="#DEB892" offset=".41"/><stop stop-color="#D6B088" offset=".742"/><stop stop-color="#CCA47A" offset=".998"/></linearGradient><path d="M56.52 88.39c0-.01-.6-2.4.41-4.13l11.65-19.88 8.74 5.7-12.1 16.74c-.08.11-.11.25-.09.38l3.36 19.36-6.26 1.48-5.71-19.65z" fill="url(#j)"/><path d="M68.75 65.08l7.86 5.13-11.78 16.31c-.16.22-.22.49-.17.76l3.28 18.9-5.34 1.26-5.58-19.16c-.01-.02-.54-2.23.36-3.76l11.37-19.44m-.33-1.41S57.63 82.07 56.5 84s-.46 4.52-.46 4.52l5.86 20.1 7.18-1.7-3.44-19.82 12.41-17.16-9.63-6.27z" fill="#BA8F63"/><circle cx="73.61" cy="65.23" r="5.74" fill="#FBC11B"/><path fill="#E0E0E0" d="M61.7 106.48l6.51-1.55 1.2 6.23-5.13 2.71z"/><path d="M67.82 105.54l1.03 5.36-4.29 2.27-2.21-6.32 5.47-1.31m.78-1.22l-7.55 1.8 2.95 8.47 5.97-3.16-1.37-7.11z" fill="#CCC7BD"/><path d="M61.01 75.1l7.99-13c.01-.01.02-.03.03-.04a6.32 6.32 0 0 1 8.76-1.85 6.34 6.34 0 0 1 1.85 8.76L71.1 81.68 61.01 75.1z" fill="#7C7C7C"/><path d="M74.34 59.68c1.13 0 2.23.33 3.18.95 1.31.85 2.2 2.16 2.52 3.68s.03 3.08-.81 4.38l-8.27 12.3-9.27-6.04 7.72-12.56c.01-.02.03-.04.04-.06a5.815 5.815 0 0 1 4.89-2.65m0-1c-2.23 0-4.42 1.09-5.73 3.1l-8.28 13.47 10.91 7.11 8.82-13.12a6.828 6.828 0 0 0-5.72-10.56z" fill="#5B5B5B"/><path d="M59.05 122.69c-.17 0-.33-.09-.4-.25l-.52-1.08c-.58-1.22-.36-2.65.56-3.66l2.63-2.8 7.57-4.32c.6.28 2.3 1.14 2.88 2.31l1.17 2.38c.14.29.02.64-.28.79l-13.4 6.58c-.07.03-.14.05-.21.05z" fill="#4568AD"/><path d="M68.91 111.14c.77.38 1.99 1.12 2.4 1.97l1.17 2.38c.02.04-.01.1-.05.12l-13.36 6.56-.5-1.03a2.76 2.76 0 0 1 .47-3.09l2.58-2.75 7.29-4.16m-.05-1.12L61 114.5l-2.69 2.86c-1.06 1.15-1.32 2.82-.65 4.21l.52 1.08c.16.34.5.53.85.53.14 0 .29-.03.43-.1l13.4-6.58c.54-.27.77-.92.51-1.46l-1.17-2.38c-.78-1.61-3.34-2.64-3.34-2.64z" fill="#315499"/><radialGradient id="k" cx="40.484" cy="52.204" r="12.842" gradientTransform="matrix(.9804 .1969 -.2164 1.0778 43.404 -12.761)" gradientUnits="userSpaceOnUse"><stop stop-color="#F78C1F" offset=".37"/><stop stop-color="#F37F21" offset=".681"/><stop stop-color="#ED6D23" offset=".998"/></radialGradient><path d="M75.93 68.16c-5.71 0-11.49-5.13-11.73-6.08.46-4.44-.12-8-.74-11.77-.43-2.61-.87-5.31-1-8.52-.09-2.13 2.07-5.78 5.12-6.26l1.8-.15c.44-.11.8-.16 1.16-.16 2.41 0 4.77 2.23 5.73 5.42 3.74 12.39 4.93 25.82 3.5 26.58-1.15.63-2.44.94-3.84.94z" fill="url(#k)"/><path d="M70.54 35.73c2.19 0 4.35 2.08 5.25 5.06 3.57 11.85 4.81 24.52 3.69 26.03-1.06.56-2.26.84-3.55.84-5.32 0-10.55-4.58-11.22-5.65.43-4.48-.15-8.02-.76-11.77-.42-2.6-.86-5.28-.99-8.46-.08-1.95 1.89-5.28 4.67-5.74l1.34-.11.45-.04c.06 0 .12-.02.17-.03.32-.08.64-.13.95-.13m0-1c-.39 0-.79.05-1.2.16-.62.05-1.22.1-1.83.16-3.25.51-5.65 4.28-5.55 6.77.33 7.91 2.5 12.76 1.74 20.28-.09.93 6.11 6.56 12.23 6.56 1.39 0 2.77-.29 4.08-.99 2.09-1.12.07-16.14-3.26-27.17-.95-3.15-3.4-5.77-6.21-5.77z" fill="#DA6727"/><path d="M49.93 16.35c-.21-.36-.48-.98.05-1.29.13-.08.25-.12.37-.12.27 0 .56.21.78.59l3.25 4.84c-.47.37-1.05.79-1.66 1.13l-2.79-5.15z" fill="#C48E6A"/><path d="M50.35 15.44c.05 0 .2.09.35.35.01.02.02.03.03.05l2.97 4.43c-.25.18-.51.37-.79.55l-2.56-4.73c-.18-.31-.19-.51-.17-.55 0 0 .02-.02.06-.04.07-.05.11-.06.11-.06m0-1c-.2 0-.41.06-.63.19-.72.43-.66 1.24-.23 1.96l2.97 5.47c.02.04.05.07.08.11.88-.43 1.75-1.07 2.52-1.69l-3.49-5.2c-.31-.51-.74-.84-1.22-.84z" fill="#B07853"/><linearGradient id="l" x1="86.5" x2="81.338" y1="30.612" y2="40.759" gradientTransform="scale(-1) rotate(15.878 378.557 -434.991)" gradientUnits="userSpaceOnUse"><stop stop-color="#CCA47A" offset=".002"/><stop stop-color="#D6B088" offset=".258"/><stop stop-color="#DEB892" offset=".59"/><stop stop-color="#E0BB95" offset="1"/></linearGradient><path d="M53.08 20.9c-.73.25-1.08 1.08-.77 1.78l6.03 13.52h.01c.25.58.65 1.06 1.15 1.4l10.72 7.06 3.46-5.33-9.9-6.43-8.11-12.89-2.59.89z" fill="url(#l)" stroke="#BA8F63" stroke-linecap="round" stroke-linejoin="round" stroke-miterlimit="10"/><path d="M69.94 45.07L59.21 38c-.57-.38-1.01-.91-1.3-1.54a.21.21 0 0 0-.04-.06l-6.03-13.52a1.82 1.82 0 0 1 1.06-2.46l2.59-.91c.21-.08.46.01.59.21l8.05 12.8 9.81 6.37c.11.07.19.19.22.32s0 .26-.07.38l-3.46 5.33c-.07.11-.19.19-.32.22-.03.01-.07.01-.1.01a.53.53 0 0 1-.27-.08zM63.5 33.3a.536.536 0 0 1-.15-.15l-7.81-12.61-2.3.83c-.22.08-.39.24-.48.45s-.09.45 0 .66l6 13.45c.01.02.03.05.04.07.21.48.54.89.96 1.17l10.3 6.78 2.92-4.49-9.48-6.16z" fill="#BA8F63"/><path d="M71.88 45.88c-.77 0-1.52-.22-2.17-.62l-7.42-4.63 4.75-7.61 7.42 4.63c.93.58 1.58 1.49 1.82 2.56a4.07 4.07 0 0 1-.52 3.1l-.41.65a4.072 4.072 0 0 1-3.47 1.92z" fill="#ED6D23"/><path d="M67.2 33.71l6.99 4.37a3.61 3.61 0 0 1 1.15 4.96l-.41.65a3.594 3.594 0 0 1-3.06 1.7c-.67 0-1.33-.19-1.9-.55l-6.99-4.37 4.22-6.76m-.32-1.38l-5.28 8.46 7.84 4.9c.76.47 1.6.7 2.43.7 1.53 0 3.04-.77 3.91-2.17l.41-.65c1.35-2.16.69-4.99-1.47-6.34l-7.84-4.9z" fill="#DA6727"/><path d="M55.88 20.26l-1.29-5.43c-.12-.51-.34-.99-.65-1.42l-1.7-2.36c-.21-.29-.46-.56-.74-.79-.6-.49-1.68-1.34-2.27-1.69-.31-.18-.55-.25-.89-.13-.64.21-.89.93-.52 1.61.26.48 1.03.9 1.47 1.12.21.1.38.27.48.47l1.29 2.67c.11.23.18.47.21.72.09.93.57 1.97.42 4.39-.12 1.97.69 3.1.69 3.1s2.34-1.29 3.5-2.26z" fill="#E0BB95"/><path d="M47.24 8.83c.16-.42.49-.72.93-.87.57-.19.96-.03 1.31.18.63.37 1.73 1.25 2.33 1.73.32.26.6.56.84.88l1.7 2.37c.35.48.59 1.02.73 1.6l1.36 5.73-.51.71s-.44-.71-.6-1.02l-1.23-5.19c-.11-.45-.3-.87-.57-1.25l-1.7-2.37c-.18-.25-.4-.49-.65-.69-.99-.8-1.79-1.4-2.21-1.65-.23-.14-.32-.14-.48-.09-.15.05-.26.15-.31.29-.07.18-.04.4.07.61.14.26.62.6 1.25.91.31.15.56.4.71.71l1.29 2.67c.14.29.22.58.25.89.03.25.08.5.14.79.17.79.39 1.87.29 3.67-.07 1.12.58 2.96.59 2.99.05.15-.13.51-.15.52l-.39.21-.34-.28c-.04-.05-.83-1.37-.7-3.49.1-1.66-.1-2.63-.27-3.41a9.08 9.08 0 0 1-.16-.9c-.02-.19-.07-.37-.16-.55l-1.29-2.67a.508.508 0 0 0-.24-.24c-.6-.29-1.37-.75-1.69-1.33-.27-.48-.32-1.01-.14-1.46z" fill="#BA8F63"/></g><g clip-path="url(#b)"><defs><path id="m" d="M-1.72 129.87l1-131.4 42.31-1 9.46 16.84-7.83 11.18-6.13 10.07 1.5 1.71-4.72 9.25 3.47 11.01-5.24 9.29-.35 15.63 4.59 7.69 3.87 24.48 4.85 16.33H30.4z"/></defs><clipPath id="n"><use xlink:href="#m"/></clipPath><g clip-path="url(#n)" fill="#4E342E"><path d="M31.49 135.01l-2.09-42.7 9.08 42.02zM22.75 135.8l-7.52-32.72-5.39-68.96 8.35 49.96zM4.15 63.36l.64 50.65-3.38 51.81-2.44-33.48zM21.46 30.29L33.09-1.89 22.75 50.84l-7.52-32.72-5.39-68.96L18.19-.88zM32.1 66.82l1.73-11.05 5.56 2.74-4.45 4.07zM52.41 14.26l-9.19 11.23 4.87-11.05.18-3.16zM35.37 101.09l4.81-5.76-8.29-12.25z"/></g></g><g clip-path="url(#b)"><path d="M80.78 63.52c-2.23 2.3-6.59.98-9.37-.03-2.98-1.08-8.13-4.89-8.08-5.68.04-.74 0-1.92.46-2.09.58-.21 1.22-.32 2.45.53 4.66 3.17 6.67 5.59 12.75 4.65 1.12-.17 1.43-1.09 1.65-1.62.27-.65 1.19 3.16.14 4.24z" fill="#1B75BC"/></g></svg>