<svg viewBox="0 0 128 128" width="128" height="128" xmlns="http://www.w3.org/2000/svg" xmlns:xlink="http://www.w3.org/1999/xlink"><defs><path id="a" d="M4 4h120v120H4z"/></defs><clipPath id="b"><use xlink:href="#a"/></clipPath><g clip-path="url(#b)"><radialGradient id="c" cx="62.673" cy="46.083" r="22.357" gradientUnits="userSpaceOnUse"><stop stop-color="#554138" offset="0"/><stop stop-color="#3C2C23" offset="1"/></radialGradient><path d="M92.48 76.58c.4-.58.86-1.13 1.58-1.24 1.18-.18 2.98-.62 4.31-1.67.39-.31.7-.71.91-1.16-1.04-.07-2.51-.49-3.68-2.19-1.79-2.6-.47-5.36 1.92-8.56 2.68-3.6 6.41-15.24-.33-24.31-1.05-.01-15.95 2.14-19.73 2.63-4.58.59-11.54 1.5-16.12 2.09l5.77 44.54c17.72-2.29 21.07-3.9 25.37-10.13z" fill="url(#c)"/><radialGradient id="d" cx="63.108" cy="53.438" r="22.022" gradientUnits="userSpaceOnUse"><stop stop-color="#554138" offset="0"/><stop stop-color="#3C2C23" offset="1"/></radialGradient><path d="M40.02 83.38c-.54-.46-1.12-.87-1.84-.79-1.18.12-3.04.16-4.59-.51-.45-.2-.86-.5-1.18-.89.99-.33 2.36-1.09 3-3.06 1.04-3.19-1.34-5.59-4.04-7.78-4.41-3.59-10.09-13.1-5.89-23.59 1.01-.28 15.97-1.99 19.75-2.49 4.58-.59 11.54-1.5 16.12-2.09l5.53 43.63c-17.71 2.29-21.11 2.5-26.86-2.43z" fill="url(#d)"/><path d="M96.29 39.24l.29.41c6.06 8.69 1.91 18.55-.15 21.3-2.3 3.08-4.32 6.69-1.95 10.14.61.89 1.36 1.58 2.21 2.05-1.01.52-2.15.76-2.84.86-1.39.21-2.16 1.33-2.49 1.8-2.61 3.78-6.87 7.12-12.3 6.06 0 0-3.08 2.12-5.3 2.99l.11.82c9.62 1 13-.5 19.72-8.33.35-.4.51-.64.67-.67 1.41-.22 3.41-.73 4.94-1.94.55-.43 1-1.01 1.3-1.65l.83-1.79-1.97-.13c-1.09-.07-1.96-.6-2.66-1.61-1.16-1.68-.65-3.57 1.89-6.98 3.15-4.22 6.58-14.46.55-23.66v-.05l-2.85.38zM30.51 71.4c2.76 2.25 4.33 4.09 3.6 6.31-.36 1.11-1.07 1.83-2.15 2.19l-1.87.63 1.26 1.52c.46.55 1.04.99 1.68 1.27 1.8.78 3.86.77 5.28.62.16-.02.39.17.82.47 7.24 5.14 11.87 4.64 20.37 1.77l.14.15c-2-.29-5.73-1.52-5.73-1.52-4.91 1.75-9.52.53-13.01-2.45-.44-.38-1.47-1.26-2.87-1.11-.68.07-1.84.13-2.94-.1.72-.68 1.26-1.55 1.6-2.59 1.45-4.44-2.4-7.57-4.47-9.26-3.91-3.18-8.76-11.21-6.09-20.28l.18-.62-.05-.08-2.98.39c.03.05.05.1.08.15-2.66 10.08 2.76 18.97 7.15 22.54z" fill="#291D15"/></g><g clip-path="url(#b)"><path d="M25.74 63.19a39.537 39.537 0 0 1-6.28-5.82c-1.27-1.41-3.87-3.58-5.27-1.33-.23.24-4.71-5.95-6.58-10.93-.8-1.67-2.81-.26-2.32 1.97 1.4 6.29 6.62 14.41 6.72 14.27.78 1.09 1.48 2.01 2.15 2.8 1.56 1.99 1.8 8.03 1.8 8.03l9.51 1.59 1.18-3.33c.5-1.52.86-2.66.87-3.62.06-2.67-1.74-3.61-1.78-3.63z" fill="#A56C43"/><path d="M25.47 74.77c-.05 0-.11 0-.17-.01l-9.51-1.59a.985.985 0 0 1-.83-.95c-.09-2.21-.59-6.19-1.58-7.45-.64-.76-1.36-1.69-2.18-2.83l.02-.02c-1.95-2.03-6.06-10.83-6.9-14.62-.43-1.94.54-3.41 1.68-3.8.83-.28 1.93-.03 2.51 1.19 1.46 3.87 4.4 8.27 5.66 9.92.47-.35.96-.48 1.34-.51 1.86-.16 3.74 1.57 4.69 2.62 1.86 2.14 3.9 4.04 6.08 5.66.45.27 2.3 1.54 2.24 4.48-.02 1.1-.4 2.32-.92 3.92l-1.19 3.35c-.14.37-.53.64-.94.64zm-8.56-3.45l7.9 1.32.9-2.54c.45-1.36.8-2.48.82-3.31.04-1.99-1.2-2.69-1.25-2.72a.913.913 0 0 1-.13-.08 40.233 40.233 0 0 1-6.44-5.97c-1.11-1.22-2.31-2.01-3.01-1.95-.17.02-.4.09-.65.5-.04.06-.08.12-.13.17-.24.24-.62.35-.95.28-1.31-.28-5.84-7.72-7.29-11.56a.3.3 0 0 0-.09-.1c-.09.05-.52.58-.32 1.49 1.25 5.62 5.69 12.81 6.39 13.73.06.05.12.11.16.18.79 1.1 1.48 2 2.11 2.74 1.41 1.8 1.85 5.99 1.98 7.82z" fill="#875334"/></g><g clip-path="url(#b)"><path d="M102.48 63.19c2.26-1.67 4.36-3.62 6.28-5.82 1.27-1.41 3.87-3.58 5.27-1.33.23.24 4.71-5.95 6.58-10.93.8-1.67 2.81-.26 2.32 1.97-1.4 6.29-6.62 14.41-6.72 14.27-.78 1.09-1.48 2.01-2.15 2.8-1.56 1.99-1.8 8.03-1.8 8.03l-9.51 1.59-1.18-3.33c-.5-1.52-.86-2.66-.87-3.62-.06-2.67 1.74-3.61 1.78-3.63z" fill="#A56C43"/><path d="M102.75 74.77c-.42 0-.8-.26-.94-.67l-1.18-3.33c-.53-1.62-.91-2.83-.93-3.94-.06-2.94 1.79-4.22 2.24-4.48 2.18-1.62 4.22-3.51 6.07-5.64.96-1.07 2.83-2.79 4.7-2.63.38.03.87.16 1.34.51 1.27-1.64 4.2-6.03 5.63-9.83.62-1.3 1.72-1.55 2.55-1.27 1.15.4 2.1 1.93 1.68 3.8-.84 3.79-4.95 12.6-6.9 14.62l.02.01c-.82 1.14-1.54 2.08-2.2 2.86-.97 1.23-1.47 5.21-1.56 7.43-.02.47-.37.87-.83.95l-9.51 1.59c-.07.01-.13.02-.18.02zm.19-10.69c-.07.04-1.29.75-1.25 2.72.02.82.37 1.95.82 3.33l.9 2.52 7.9-1.32c.13-1.82.56-6.01 1.96-7.79a44.9 44.9 0 0 0 2.13-2.77c.05-.07.1-.13.16-.18.71-.92 5.14-8.11 6.39-13.73.19-.87-.19-1.39-.36-1.47.01.02-.03.07-.08.16-1.41 3.76-5.94 11.2-7.25 11.48-.33.07-.71-.04-.95-.28a.7.7 0 0 1-.13-.17c-.26-.41-.48-.48-.65-.5-.7-.06-1.9.73-3.03 1.97a40.076 40.076 0 0 1-6.42 5.96c-.05.02-.09.04-.14.07zm-.46-.89zm13.73-1.85z" fill="#875334"/></g><g clip-path="url(#b)"><linearGradient id="e" x1="64.068" x2="64.068" y1="77.62" y2="129.91" gradientUnits="userSpaceOnUse"><stop stop-color="#F78C1F" offset="0"/><stop stop-color="#F37F20" offset=".494"/><stop stop-color="#ED6D23" offset="1"/></linearGradient><path d="M36.08 130.5v-14.91c0-.56-.31-1.07-.8-1.33-.22-.12-.47-.18-.72-.18-.24 0-.47.05-.68.16-.44.23-.75.64-.81 1.13-.52 3.99-3.95 7-7.97 7-3.03 0-5.87-1.19-7.99-3.36s-3.26-5.03-3.2-8.06L14 70.4l12.84-.76c0 .01.08.07.08.09l2.67 18.97a1.498 1.498 0 0 0 1.48 1.29c.35 0 .7-.12.97-.36 4.54-3.88 10.23-5.85 16.91-5.85 1.43 0 3.94-.07 6.85-.15 2.36-.06 5.04-.14 7.73-.19.17.07.35.11.53.11 2.87.05 5.74.13 8.25.2 2.9.08 5.4.15 6.83.15 6.68 0 12.37 1.97 16.91 5.85a1.478 1.478 0 0 0 1.5.26c.51-.19.88-.65.95-1.19l2.67-18.97.06-.09 12.83.75.14 40.56c.06 3.06-1.08 5.92-3.2 8.08s-4.96 3.36-7.99 3.36c-4.03 0-7.45-3.01-7.97-7a1.49 1.49 0 0 0-.8-1.14c-.22-.11-.45-.17-.69-.17s-.48.06-.7.17c-.49.26-.83.79-.83 1.35v14.79H36.08z" fill="url(#e)"/><path d="M25.61999999999999 71.21000000000001l2.49 17.69a3 3 0 0 0 1.91 2.39 3.015 3.015 0 0 0 3.01-.53c4.26-3.64 9.62-5.49 15.93-5.49 1.44 0 3.84-.07 6.87-.15 2.3-.06 4.89-.13 7.5-.19.23.06.48.1.73.1 2.86.05 5.72.13 8.24.2 3.03.08 5.43.15 6.87.15 6.31 0 11.67 1.85 15.93 5.49a3.015 3.015 0 0 0 3.01.53c1.02-.39 1.76-1.3 1.91-2.39l2.49-17.69 10.12.59.1 39.15v.05c.05 2.62-.93 5.1-2.77 6.98a9.651 9.651 0 0 1-6.92 2.91c-3.27 0-6.06-2.45-6.48-5.7-.13-.98-.74-1.82-1.62-2.27a3.007 3.007 0 0 0-2.8.03c-.98.52-1.59 1.54-1.59 2.65V129H37.58v-13.41c0-1.11-.65-2.15-1.63-2.67a3.034 3.034 0 0 0-2.79-.02c-.87.45-1.47 1.3-1.6 2.28a6.554 6.554 0 0 1-6.48 5.7c-2.63 0-5.08-1.03-6.92-2.91a9.61 9.61 0 0 1-2.77-6.98v-.05l.1-39.15 10.13-.58m1.25-3.07h-.11l-12.81.75c-.8.06-1.42.71-1.45 1.51l-.11 40.55c-.14 7.11 5.58 12.94 12.69 12.94 4.92 0 8.86-3.69 9.46-8.31l.04.02v16.41h58.97v-16.29l.04-.02c.6 4.62 4.54 8.31 9.46 8.31 7.11 0 12.83-5.84 12.69-12.94l-.11-40.55a1.56 1.56 0 0 0-1.45-1.51l-12.81-.75h-.11c-.78 0-1.45.59-1.54 1.38L97.05 88.6c-4.18-3.58-9.95-6.21-17.88-6.21-2.61 0-8.82-.23-15.05-.35v-.12c-6.26.12-12.53.35-15.15.35-7.93 0-13.7 2.63-17.88 6.21l-2.67-18.97c-.1-.79-.77-1.37-1.55-1.37z" fill="#DA6727"/></g><path d="M32 102.82l-.09.11c-.81.97-2.39.49-2.51-.77L28.11 89c-.05-.5.17-1 .58-1.29l2-1.45 1.63 15.5c.04.38-.07.76-.32 1.06zM96.34 102.82l.09.11c.81.97 2.39.49 2.51-.77L100.23 89c.05-.5-.17-1-.58-1.29l-2-1.45-1.63 15.5c-.04.38.08.76.32 1.06z" clip-path="url(#b)" fill="#DA6727"/><g clip-path="url(#b)"><path d="M63.17 95.48c-4 0-7.26-3.22-7.26-7.17v-8.98h16.16v8.98c0 3.96-3.25 7.17-7.26 7.17h-1.64z" fill="#7A4C32"/><path d="M71.08 80.33v7.98c0 3.4-2.81 6.17-6.26 6.17h-1.65c-3.45 0-6.26-2.77-6.26-6.17v-7.98h14.17m2-2H54.92v9.98c0 4.51 3.7 8.17 8.26 8.17h1.65c4.56 0 8.26-3.66 8.26-8.17v-9.98h-.01z" fill="#663B22"/></g><g clip-path="url(#b)"><defs><path id="f" d="M61.64 8.07h-.02c-40.48.21-32.19 46.42-32.19 46.42s4.54 8 4.54 7.84c-.03-1.26.41-6.14.41-6.14L32 53.59s3.46-22.65 6.04-22.18c3.97.72 23.63 1.78 23.66 1.78 6.97 0 13.28-.32 17.25-1.04 2.58-.47 8.59 1.51 9.51 3.97 1.19 3.15 2.79 17.55 2.79 17.55l-2.38 2.52s.44 4.9.41 6.14c0 .16 4.54-7.84 4.54-7.84S102.1 8.28 61.64 8.07z"/></defs></g><g clip-path="url(#b)"><path d="M38.19 69.66c-4.49 0-8.32-3.6-8.9-8.38-.31-2.51.33-4.98 1.78-6.97 1.44-1.97 3.51-3.2 5.83-3.49l49.72-6.05c.33-.04.66-.06.99-.06 4.49 0 8.32 3.6 8.9 8.38.63 5.18-2.79 9.87-7.61 10.45L39.18 69.6c-.33.04-.66.06-.99.06z" fill="#7A4C32"/><path d="M87.61 45.71c3.99 0 7.39 3.23 7.91 7.51.27 2.25-.29 4.48-1.6 6.26-1.28 1.74-3.1 2.84-5.14 3.08l-6.7.82-36.31 4.42-6.7.82c-.29.04-.58.05-.87.05-3.99 0-7.39-3.23-7.91-7.51-.56-4.63 2.46-8.82 6.74-9.34l6.7-.82 36.31-4.42 6.7-.82c.28-.03.58-.05.87-.05m0-2c-.37 0-.74.02-1.11.07l-6.7.82-36.31 4.42-6.7.82c-5.36.65-9.18 5.86-8.48 11.57.65 5.31 4.98 9.26 9.9 9.26.37 0 .74-.02 1.11-.07l6.7-.82 36.31-4.42 6.7-.82c5.36-.65 9.18-5.86 8.48-11.57-.65-5.31-4.99-9.26-9.9-9.26z" fill="#663B22"/><linearGradient id="g" x1="58.911" x2="58.911" y1="137.15" y2="62.384" gradientTransform="rotate(-6.927 -351.808 49.377)" gradientUnits="userSpaceOnUse"><stop stop-color="#8D5738" offset="0"/><stop stop-color="#97603D" offset=".216"/><stop stop-color="#A26941" offset=".573"/><stop stop-color="#A56C43" offset="1"/></linearGradient><path d="M63.12 87.72c-12.2 0-27.46-8.34-30.32-31.84-1.37-11.25.6-22 5.55-30.29 4.62-7.74 11.57-12.7 19.05-13.61.86-.1 1.73-.16 2.6-.16 15.57 0 29.25 15.85 31.8 36.87 1.34 10.98-.73 20.54-5.98 27.63-4.63 6.26-11.46 10.23-19.24 11.18-1.14.15-2.31.22-3.46.22z" fill="url(#g)"/><path d="M60 12.83c12.81 0 27.97 12.61 30.81 35.99 1.3 10.72-.7 20.03-5.79 26.92-4.47 6.04-11.05 9.87-18.55 10.78-1.11.13-2.23.2-3.35.2-11.79 0-26.55-8.11-29.33-30.96-1.34-11.03.58-21.56 5.42-29.65 4.46-7.47 11.14-12.26 18.31-13.13.82-.1 1.65-.15 2.48-.15m0-2c-.91 0-1.82.05-2.72.16C41.44 12.92 28.84 31.63 31.81 56c2.72 22.36 17.03 32.72 31.31 32.72 1.2 0 2.4-.07 3.59-.22C82.1 86.63 95.75 72.81 92.8 48.57 90 25.61 74.97 10.83 60 10.83z" fill="#875334"/><g fill="#42312C"><ellipse transform="rotate(-6.927 47.608 56.226)" cx="47.61" cy="56.25" rx="4.52" ry="4.68"/><path d="M53.17 47.35c-.98-1.02-3.15-2.42-6.96-1.96s-5.58 2.33-6.29 3.56c-.32.54-.15 1.11.15 1.42.28.29 1.03.51 1.78.14.76-.36 2.2-1.34 4.78-1.67 2.58-.29 4.22.32 5.04.49s1.5-.21 1.7-.56c.21-.38.24-.97-.2-1.42zM82.95 43.77c-.98-1.02-3.15-2.42-6.96-1.96s-5.58 2.33-6.29 3.56c-.32.54-.15 1.11.15 1.42.28.29 1.03.51 1.78.14.76-.36 2.2-1.34 4.78-1.67 2.58-.29 4.22.32 5.04.49s1.5-.21 1.7-.56c.21-.38.23-.97-.2-1.42z"/><ellipse transform="rotate(-6.927 77.506 52.584)" cx="77.51" cy="52.61" rx="4.52" ry="4.68"/></g><path d="M67.09 62.41c-.1-.03-.2-.04-.3-.04l-6.44.78c-.1.02-.19.06-.28.11-.55.31-.8.95-.45 1.56s1.85 2.26 4.44 1.95c2.58-.31 3.64-2.28 3.84-2.95.2-.68-.19-1.24-.81-1.41z" fill="#875334"/><radialGradient id="h" cx="58.691" cy="84.882" r="32.861" gradientTransform="matrix(.9917 -.1286 .1111 .857 -7.41 -33.258)" gradientUnits="userSpaceOnUse"><stop stop-color="#554138" offset="0"/><stop stop-color="#3C2C23" offset="1"/></radialGradient><path d="M46.75 12.86c-10.48 5.32-12.47-1.43-12.47-1.43-5.58 3.75-.83 9.62-.83 9.62s-6.11.34-8.02 5.91c-2 5.82.93 9.7.93 9.7s-5.34 4.45-2.18 10.87c2.09 4.26 6.86 5.47 6.86 5.47.69 9.7 4.33 13.97 4.33 13.97s1.62-17.02.95-19.5c0 0 6.77-2.28 14.08-7.82 4.94-3.74 8.12-7.8 13.93-9.93 8.85-3.24 11.75 3.1 11.75 3.1s8.23-2.71 12.3 8.68c1.67 4.69 3.17 12.68 4.37 17.51-.1-.42 2.39-6.14 2.25-11.59-.05-2.03 2.34-7.29 2.78-11.03.96-8.14-2.45-14.02-3.92-15.72-2.68-3.1-8.65-7.08-12.58-5.88-.35-4.33-4.25-7.88-8.51-8.72-11.64-2.3-22.89 5.2-26.02 6.79z" fill="url(#h)"/><path d="M22.96 48.13c.09.19.21.39.32.58l2.37 2.32.66-2.63-.36-.53c-.24-.35-.41-.65-.56-.94-2.63-5.36 1.65-9.08 1.83-9.24l.97-.82-.75-1.03c-.1-.14-2.46-3.44-.74-8.45 1.54-4.49 6.51-4.24 6.72-4.23l2.71.19-1.49-2.28c-.12-.18-2.51-3.93-.63-7.21.61.84 1.53 1.76 2.89 2.36 2.76 1.22 6.3.75 10.52-1.39.68-.34 1.42-.88 2.35-1.56 3.77-2.74 10.08-7.33 21.29-5.32 4.05.73 8.59 3.59 8.86 6.95l.14 1.68 1.61-.5c3.15-.96 8.62 2.53 11.15 5.47 1.3 1.51 4.67 8.05 3.77 15.64-.05.42-.13.87-.24 1.39l-.12.58.05.07 1.2 1.57 1.67-1.94c.02-.21.11-1.06.14-1.35.97-8.26-2.52-15.55-4.42-17.73-2.62-3.03-8.09-6.83-12.53-6.55-1.25-4.14-6.24-7.13-10.81-7.95-12.34-2.22-19.51 2.99-23.36 5.79-.8.58-1.49 1.09-1.98 1.33-3.39 1.72-6.21 2.19-8.16 1.35-1.9-.82-2.45-2.63-2.47-2.69l-.59-2.14-1.63 1.5c-3.45 3.17-3.06 7.34-1.96 10.17-2.61.45-5.91 2-7.25 5.92-1.6 4.67-.35 8.24.5 9.91-2 2.22-4.18 6.6-1.67 11.71z" fill="#291D15"/><path d="M71.05 75.72c.22 2.78-2.21 3.55-5.27 3.79s-5.58-.21-5.8-2.92c-.22-2.86 2.12-4.82 5.17-5.06 3.06-.24 5.67 1.28 5.9 4.19z" fill="#473530"/></g></svg>