<svg viewBox="0 0 128 128" width="128" height="128" xmlns="http://www.w3.org/2000/svg" xmlns:xlink="http://www.w3.org/1999/xlink"><path fill="#37474F" d="M52.2 18.21l11.62 13.46-18.33 3.77-2.73-9.26"/><path fill="#455A64" opacity=".49" d="M48.88 10.75L34.54 32.67l9.35 4.3L54.95 14.7l-1.32-3.62z"/><linearGradient id="a" x1="52.372" x2="34.345" y1="6.869" y2="35.719" gradientUnits="userSpaceOnUse"><stop stop-color="#78909C" offset=".134"/><stop stop-color="#90A4AE" offset=".484"/><stop stop-color="#BDBDBD" offset=".632"/></linearGradient><path d="M55.38 9.23a4.31 4.31 0 0 0-1.05-1.12 4.723 4.723 0 0 0-2.79-.95h-6.03c-1.29 0-2.51.61-3.28 1.66L29.45 26.93l-.71 1.77c-.01 0-.01.01-.02.01-.09.35-.16.73-.2 1.16-.04.59-.02 1.26.13 1.99.07.33.59.72 1.39 1.14 3.71 1.94 13.59 4.49 13.59 4.49l12.08-24.32c.56-1.58.33-2.92-.33-3.94z" fill="url(#a)"/><path fill="#627E89" d="M53.35 11.84L38.11 34.5l3.55 2.47L52.72 14.7l-1.33-3.62z"/><defs><filter id="b" x="35.31" y="10" width="17.4" height="26.96" filterUnits="userSpaceOnUse"><feFlood flood-color="#fff" result="back"/><feBlend in="SourceGraphic" in2="back"/></filter></defs><mask id="c" x="35.31" y="10" width="17.4" height="26.96" maskUnits="userSpaceOnUse"><image transform="matrix(.24 0 0 .24 33.229 7.78)" width="90" height="130" overflow="visible" xlink:href="8A7DF53204DDBBCF.jpg" filter="url(#b)"/></mask><g mask="url(#c)"><path fill="#627E89" d="M50.55 10L35.31 32.67l6.35 4.3L52.72 14.7l-1.33-3.62z"/></g><path d="M55.38 9.23a4.31 4.31 0 0 0-1.05-1.12 4.723 4.723 0 0 0-2.79-.95h-6.03c-1.29 0-2.51.61-3.28 1.66L29.45 26.93l-.71 1.77c-.01 0-.01.01-.02.01-.09.35-.16.73-.2 1.16-.04.59-.02 1.26.13 1.99.57-1.03 1.22-2.14 2.13-3.09.14-.4.28-.66.32-.72l12.74-18.04c.39-.53 1.02-.84 1.67-.84h6.03c.81 0 1.66.44 2.12 1.09.41.59.48 1.31.2 2.14L42.54 35.18c-5.67-1.34-10.17-2.91-11.67-3.83-.32.51-.6 1.06-.82 1.64 3.71 1.94 13.59 4.49 13.59 4.49l12.08-24.32c.55-1.57.32-2.91-.34-3.93z" fill="#212121" opacity=".25"/><path d="M55.38 9.23a4.31 4.31 0 0 0-1.05-1.12 4.723 4.723 0 0 0-2.79-.95h-6.03c-1.29 0-2.51.61-3.28 1.66L29.45 26.93l-.71 1.77c-.01 0-.01.01-.02.01-.09.35-.16.73-.2 1.16-.04.59-.02 1.26.13 1.99.57-1.03 1.22-2.14 2.13-3.09.14-.4.28-.66.32-.72l12.74-18.04c.39-.53 1.02-.84 1.67-.84h6.03c.81 0 1.66.44 2.12 1.09.41.59.48 1.31.2 2.14L42.54 35.18c-5.67-1.34-10.17-2.91-11.67-3.83-.32.51-.6 1.06-.82 1.64 3.71 1.94 13.59 4.49 13.59 4.49l12.08-24.32c.55-1.57.32-2.91-.34-3.93z" fill="#212121" opacity=".25"/><path d="M38 29.39v4.09l-6.38 3.02s-2.44-3.39-2.7-4.1-.68-1.65-.19-3.71c.04-.15.08-.28.12-.42a8.93 8.93 0 0 0-5.31 8.17c0 4.94 4.01 8.95 8.95 8.95s8.95-4.01 8.95-8.95c.01-2.86-1.34-5.41-3.44-7.05zM31.03 86.02c.41-.87 12-5.31 12-5.31L54.68 82 53.1 93.55s-16.04 3.43-16.72 2.86c-.69-.57-5.35-10.39-5.35-10.39z" fill="#37474F"/><linearGradient id="d" x1="27.695" x2="22.07" y1="109.05" y2="67.053" gradientUnits="userSpaceOnUse"><stop stop-color="#212121" offset=".019"/><stop stop-color="#212121" stop-opacity="0" offset="1"/></linearGradient><path d="M30.47 37.15l8.23.33-7.89 44.75-.12.67.32.6c.08.15 7.95 15.34 4.33 25.12-2.98 8.06-5.27 10.26-10.63 10.26-1.23 0-2.6-.13-4.2-.4-5.46-.91-9.19-2.8-11.73-5.92-4.1-5.04-3.7-11.96 1.38-23.91l.02-.04 20.29-51.46m-1.34-2.06L8.31 87.87c-4.49 10.59-6.41 19.41-1.09 25.96 2.76 3.39 6.83 5.61 12.95 6.63 1.69.28 3.19.42 4.53.42 6.96 0 9.64-3.82 12.51-11.57 3.97-10.73-4.43-26.74-4.43-26.74l8.29-47-11.94-.48z" fill="url(#d)"/><linearGradient id="e" x1="34.692" x2="20.079" y1="159.97" y2="113.41" gradientTransform="scale(1 -1) rotate(9.735 1222.594 27.128)" gradientUnits="userSpaceOnUse"><stop stop-color="#78909C" offset=".134"/><stop stop-color="#90A4AE" offset=".484"/><stop stop-color="#BDBDBD" offset="1"/></linearGradient><path d="M37.21 109.32c-3.42 9.23-6.57 12.89-17.04 11.14-6.12-1.02-10.2-3.25-12.95-6.63-5.32-6.55-3.41-15.37 1.09-25.96l20.82-52.78 11.94.48-8.29 47s8.41 16.02 4.43 26.75z" fill="url(#e)"/><path d="M30.47 37.15l8.23.33-7.89 44.75-.12.67.32.6c.07.14 7.42 14.35 4.68 24-2.34 8.25-5.47 11.32-11.52 11.32-1.11 0-2.35-.11-3.67-.33-5.46-.91-9.19-2.8-11.73-5.92-4.1-5.04-3.7-11.96 1.38-23.91l.02-.04 20.3-51.47m-1.34-2.06L8.31 87.87c-4.49 10.59-6.41 19.41-1.09 25.96 2.76 3.39 6.83 5.61 12.95 6.63 1.45.24 2.78.36 4 .36 7.62 0 11.12-4.61 13.44-12.78 2.99-10.54-4.84-25.47-4.84-25.47l8.29-47-11.93-.48z" fill="#212121" opacity=".39"/><linearGradient id="f" x1="45.877" x2="9.466" y1="162.91" y2="87.467" gradientTransform="scale(1 -1) rotate(9.735 1222.594 27.128)" gradientUnits="userSpaceOnUse"><stop stop-color="#78909C" offset=".134"/><stop stop-color="#90A4AE" offset=".484"/><stop stop-color="#BDBDBD" offset="1"/></linearGradient><path d="M37.21 109.32c-2.55 6.89-4.95 10.68-10.36 11.43-.3.04-1.17.5-1.49.48-1.66-.09-3.45-.04-5.66-.47-4.96-.97-9.72-3.53-12.48-6.92-5.32-6.55-3.41-15.37 1.09-25.96L29.13 35.1l11.94.48-8.29 47c0-.01 8.41 16.01 4.43 26.74z" fill="url(#f)"/><g opacity=".53"><defs><filter id="g" x="20.64" y="39.18" width="19.19" height="63.23" filterUnits="userSpaceOnUse"><feFlood flood-color="#fff" result="back"/><feBlend in="SourceGraphic" in2="back"/></filter></defs><mask id="h" x="20.64" y="39.18" width="19.19" height="63.23" maskUnits="userSpaceOnUse"><image transform="matrix(.24 0 0 .24 18.589 37.06)" width="97" height="281" overflow="visible" xlink:href="8A7DF53204DDBBCD.jpg" filter="url(#g)"/></mask><g mask="url(#h)"><linearGradient id="i" x1="34.396" x2="28.896" y1="72.067" y2="98.567" gradientUnits="userSpaceOnUse"><stop stop-color="#41677A" offset="0"/><stop stop-color="#90A4AE" offset="1"/></linearGradient><path d="M34.23 39.18L20.64 94.19l16.47 8.22.9-3.59c-1.11-8.39-5.22-16.25-5.22-16.25l7.05-39.97-5.61-3.42z" fill="url(#i)"/></g></g><g opacity=".91"><defs><filter id="j" x="5.88" y="67.37" width="21.14" height="50.56" filterUnits="userSpaceOnUse"><feFlood flood-color="#fff" result="back"/><feBlend in="SourceGraphic" in2="back"/></filter></defs><mask id="k" x="5.88" y="67.37" width="21.14" height="50.56" maskUnits="userSpaceOnUse"><image transform="matrix(.24 0 0 .24 3.71 65.14)" width="106" height="229" overflow="visible" xlink:href="8A7DF53204DDBBD3.jpg" filter="url(#j)"/></mask><g mask="url(#k)"><linearGradient id="l" x1="8.73" x2="22.084" y1="129.29" y2="72.296" gradientUnits="userSpaceOnUse"><stop stop-color="#eee" stop-opacity="0" offset="0"/><stop stop-color="#eee" offset=".278"/><stop stop-color="#eee" stop-opacity="0" offset="1"/></linearGradient><path d="M19.38 99.22c1.28-4.08 7.64-31.85 7.64-31.85l-9.7 3.16s-3.09 7.96-7.4 18.64C7 96.42 4.33 104.04 6.95 109.51c4.35 9.1 13.69 8.41 13.69 8.41s-2.53-14.62-1.26-18.7z" fill="url(#l)"/></g></g><linearGradient id="m" x1="35.549" x2="35.549" y1="83.729" y2="83.729" gradientUnits="userSpaceOnUse"><stop stop-color="#41677A" offset="0"/><stop stop-color="#90A4AE" offset="1"/></linearGradient><linearGradient id="n" x1="15.35" x2="15.47" y1="107.9" y2="107.9" gradientUnits="userSpaceOnUse"><stop stop-color="#41677A" offset="0"/><stop stop-color="#90A4AE" offset="1"/></linearGradient><path d="M15.47 107.85l-.12.03c.04.09.08.09.12-.03z" fill="url(#n)"/><linearGradient id="o" x1="9.894" x2="97.495" y1="97.86" y2="97.86" gradientUnits="userSpaceOnUse"><stop stop-color="#90A4AE" offset="0"/><stop stop-color="#8EA2AC" offset=".226"/><stop stop-color="#859CA7" offset=".359"/><stop stop-color="#77919E" offset=".467"/><stop stop-color="#638291" offset=".561"/><stop stop-color="#4B6F81" offset=".643"/><stop stop-color="#41677A" offset=".763"/></linearGradient><path d="M89.18 108.63c2.13-2.32 2.91-5.58 3.19-8.72.47-5.32-.35-10.85-2.94-15.52-2.59-4.68-7.06-8.42-12.28-9.54-.34-.07-.68-.13-1.02-.18-.12-.02-.23-.03-.35-.04-.22-.03-.45-.06-.68-.08l-.42-.03c-.21-.01-.41-.03-.62-.04-.15-.01-.3-.01-.45-.01-.17 0-.34-.01-.51-.01h-.05c-.12 0-.25.01-.37.02-.57.01-1.14.03-1.72.07-.03 0-.05 0-.08.01-.72.06-1.44.14-2.15.24-6.99.99-35.23 7.61-35.97 7.78l.04.08c0 .01.01.02.02.03.05.11.15.3.27.55.28.6 1.35 3.01 1.46 3.27l6.8-1.46c.23-.04.44-.07.65-.09.08-.01.14-.01.22-.01.13-.01.25-.02.37-.02.16 0 .32.01.46.02 2.1.23 2.21 2.62-.8 3.49-1.29.37-18.67 2.62-18.89 2.63-.08 0-.15.01-.23.01-.04 0-.09 0-.13.01-.33.03-.64.07-.94.13a15.15 15.15 0 0 0-10.39 7.72 15.15 15.15 0 0 0-1.49 4.12c-.36 1.77-.39 3.64-.08 5.52.03.17.04.33.07.5.08.41.18.81.3 1.2.03.12.07.23.11.35.09.28.19.57.29.84.04.12.09.23.13.34.14.33.28.66.44.98.02.04.03.07.05.11.18.36.37.7.58 1.04.06.09.12.19.18.28.16.25.32.49.49.72.07.1.14.2.21.29.2.26.4.52.62.76l.12.15c.26.29.53.57.81.84.07.07.15.14.22.2.21.2.43.39.66.58.09.08.19.15.28.23.24.19.49.37.74.55.07.05.13.1.2.14.32.21.65.42.98.61.08.05.16.09.24.13.26.14.53.28.8.4l.33.15c.27.12.55.23.83.33.09.03.18.07.27.1.03.01.07.03.1.04.2.07.41.12.62.18.17.05.34.11.51.15.25.06.51.11.76.16.16.03.32.07.49.1.29.05.59.08.89.11.13.01.26.04.39.05.43.03.85.05 1.29.05h.02c.16 0 2.35-.07 5.86-.18.12 0 .24-.01.36-.01.44-.01.9-.03 1.37-.04 16.35-.51 54.03-1.71 62.87-1.99 1.02-.03 1.66-.05 1.84-.06h.05l-8.29-10.33z" fill="url(#o)"/><defs><filter id="p" x="9.89" y="74.47" width="81.85" height="34.11" filterUnits="userSpaceOnUse"><feFlood flood-color="#fff" result="back"/><feBlend in="SourceGraphic" in2="back"/></filter></defs><mask id="q" x="9.89" y="74.47" width="81.85" height="34.11" maskUnits="userSpaceOnUse"><image transform="matrix(.24 0 0 .24 7.79 72.34)" width="359" height="160" overflow="visible" xlink:href="8A7DF53204DDBBD5.jpg" filter="url(#p)"/></mask><g mask="url(#q)"><radialGradient id="r" cx="50.254" cy="83.751" r="34.19" gradientUnits="userSpaceOnUse"><stop stop-color="#eee" offset="0"/><stop stop-color="#eee" stop-opacity="0" offset="1"/></radialGradient><path d="M88.93 84.88c-2.58-4.66-6.92-8.04-11.62-9.04a18.39 18.39 0 0 0-3.82-.38c-.19 0-.46-.37-.8-.98-.57.01-1.14.03-1.72.07-.03 0-.05 0-.08.01-.72.06-1.44.14-2.15.24-6.99.99-35.23 7.61-35.97 7.78l.04.08c0 .01.01.02.02.03.05.11.15.3.27.55.28.6 1.35 3.01 1.46 3.27l6.8-1.46c.23-.04.44-.07.65-.09.08-.01.14-.01.22-.01.13-.01.25-.02.37-.02.16 0 .32.01.46.02 2.1.23 2.17 2.73-.8 3.49-1.3.34-18.67 2.62-18.89 2.63-.08 0-.15.01-.23.01-.04 0-.09 0-.13.01-.33.03-.64.07-.94.13a15.15 15.15 0 0 0-10.39 7.72 15.15 15.15 0 0 0-1.49 4.12c-.36 1.77-.39 3.64-.08 5.52l81.64-8.75s-.49-10.74-2.82-14.95z" fill="url(#r)"/></g><circle cx="26.71" cy="107.94" r="6.1" fill="#455A64" opacity=".6"/><circle cx="26.34" cy="106.66" r="5.69" fill="#A5AFB3"/><linearGradient id="s" x1="85.943" x2="85.943" y1="89.643" y2="61.026" gradientTransform="rotate(9.069 67.451 131.324)" gradientUnits="userSpaceOnUse"><stop stop-color="#78909C" offset="0"/><stop stop-color="#90A4AE" offset=".483"/><stop stop-color="#BDBDBD" offset="1"/></linearGradient><path d="M97.49 60.95C78.32 57.91 65.97 72.9 63.87 75.67c-.21.28 8.3-.22 7.42 7.88-3.3 20.65 5.06 34.1 20.05 36.5 14.99 2.39 29.08-7.82 31.48-22.81 2.39-14.99-3.22-32.8-25.33-36.29z" fill="url(#s)"/><defs><filter id="t" x="63.87" y="60.54" width="57.34" height="19.79" filterUnits="userSpaceOnUse"><feFlood flood-color="#fff" result="back"/><feBlend in="SourceGraphic" in2="back"/></filter></defs><mask id="u" x="63.87" y="60.54" width="57.34" height="19.79" maskUnits="userSpaceOnUse"><image transform="matrix(.24 0 0 .24 61.789 58.42)" width="256" height="100" overflow="visible" xlink:href="8A7DF53204DDBBD7.jpg" filter="url(#t)"/></mask><g mask="url(#u)"><radialGradient id="v" cx="83.708" cy="59.563" r="21.461" gradientUnits="userSpaceOnUse"><stop stop-color="#eee" offset="0"/><stop stop-color="#eee" stop-opacity="0" offset="1"/></radialGradient><path d="M71.04 80.33c4.96-5.73 13.51-12.62 26-12.57 11.56.05 19.35 4.55 24.17 10.97-3.27-8.59-10.58-15.72-23.71-17.79-19.18-3.03-31.53 11.96-33.63 14.73-.21.28 5.76-.01 7.17 4.66z" fill="url(#v)"/></g><circle cx="100.1" cy="94.44" r="16.48" fill="#455A64" opacity=".67"/><g fill="none"><path d="M73.12 74.45c1.35 0 2.71.12 4.03.4 5.23 1.12 9.69 4.86 12.28 9.54s3.4 10.2 2.94 15.52c-.28 3.14-1.06 6.4-3.19 8.72l7.8 9.71c12.01-.59 21.94-9.4 23.86-21.41 1.41-8.82-.29-17.35-4.67-23.38-4.15-5.71-10.53-9.29-18.98-10.63a30.74 30.74 0 0 0-4.76-.38c-12.31 0-21.12 7.78-25.01 12.02.29.08.58.19.87.3.16-.02.32-.05.46-.07 1.45-.2 2.91-.34 4.37-.34z"/><path d="M93.27 116.91l-5.65-7.03-1.08-1.34 1.16-1.27c1.49-1.63 2.37-4.1 2.67-7.54.47-5.37-.46-10.34-2.69-14.38-2.44-4.41-6.53-7.6-10.95-8.55-1.12-.24-2.3-.36-3.61-.36-.67 0-1.38.03-2.12.1.14.14.3.26.44.41 1.53 1.71 2.15 4 1.85 6.81l-.02.1c-2.68 16.76 2.63 28.98 13.96 33.07 2.56-.03 4.64-.04 6.04-.02z"/></g><circle cx="100.1" cy="90.77" r="14.8" fill="#A5AFB3"/><defs><filter id="w" x="85.11" y="75.93" width="27.29" height="26.83" filterUnits="userSpaceOnUse"><feFlood flood-color="#fff" result="back"/><feBlend in="SourceGraphic" in2="back"/></filter></defs><mask id="x" x="85.11" y="75.93" width="27.29" height="26.83" maskUnits="userSpaceOnUse"><image transform="matrix(.24 0 0 .24 83.029 73.9)" width="131" height="129" overflow="visible" xlink:href="8A7DF53204DDBBD4.jpg" filter="url(#w)"/></mask><g mask="url(#x)"><linearGradient id="y" x1="100.21" x2="92.162" y1="73.949" y2="86.801" gradientTransform="matrix(.9563 .1634 -.1684 .9855 17.102 -7.216)" gradientUnits="userSpaceOnUse"><stop stop-color="#eee" offset=".307"/><stop stop-color="#eee" stop-opacity="0" offset=".881"/></linearGradient><path d="M87.95 94.57c.03-8.5 6.76-15.43 15.03-15.48 3.58-.02 6.86 1.25 9.42 3.4-2.69-3.99-7.17-6.58-12.26-6.55-8.26.05-14.99 6.98-15.03 15.48-.02 4.82 2.63 8.55 5.99 11.35-1.67-2.49-3.16-4.94-3.15-8.2z" fill="url(#y)"/></g><path d="M70.6 93.76s-2.4 5.33-1.76 11.69c.71 7.13 7.29 14.19 7.29 14.19l11.9-.37s-9.19-3.38-13.46-11.05c-3.27-5.87-3.97-14.46-3.97-14.46z" fill="#455A64" opacity=".6"/><g fill="none"><path d="M40.87 83.11l.06-.02.07-.01c.56-.1 1.1-.16 1.61-.16 2.55 0 3.78 1.31 4.09 2.54.2.81.93 3.94-3.04 5.26-.48.16-3.57.61-7.24 1.11 1.46 5.02 2.41 11.24.58 16.45-1.73 4.67-3.29 8.15-5.79 10.24 11.46-.38 36.28-1.2 51.45-1.5-.17-.1-.32-.21-.48-.31-.32-.2-.65-.4-.96-.62-.25-.17-.49-.35-.73-.54-.29-.22-.58-.44-.86-.68-.24-.2-.47-.42-.71-.63-.26-.24-.52-.48-.77-.73-.23-.24-.46-.48-.68-.73-.23-.25-.45-.5-.67-.76-.23-.27-.44-.56-.65-.84-.2-.26-.39-.52-.58-.79-.21-.31-.42-.64-.62-.96-.16-.26-.33-.53-.48-.8-.2-.35-.39-.72-.57-1.09-.13-.27-.27-.53-.4-.8-.18-.4-.35-.81-.52-1.22-.11-.27-.22-.53-.32-.81-.16-.44-.31-.89-.45-1.35-.08-.27-.17-.53-.25-.8-.14-.48-.26-.97-.37-1.47-.06-.27-.13-.53-.19-.81-.11-.52-.2-1.05-.29-1.59-.04-.27-.09-.54-.13-.81-.08-.55-.14-1.12-.19-1.69-.02-.2-.05-.38-.07-.58h.01c-.29-3.68-.13-7.7.56-12.05.42-3.86-1.31-5.72-3.24-6.63-8.33 1.35-34.39 7.13-34.53 7.16.08.17.16.35.25.55 1.25-.3 7.1-1.53 7.1-1.53z"/><path d="M35.18 107.38c1.78-4.8.82-10.61-.62-15.29-5.43.73-11.38 1.5-11.99 1.62-3.31.66-6.16 2.58-8.03 5.39s-2.53 6.18-1.87 9.48c.88 4.39 4.07 8.02 8.32 9.47 1.31.45 2.69.67 4.07.67.05 0 .29-.01.66-.02 4.46-.56 6.59-3.58 9.46-11.32z"/><path d="M22.07 91.21c.3-.06.62-.1.94-.13.06-.01 5.61-.7 10.75-1.39-1.3-3.57-2.66-6.04-2.69-6.1l-.38-.64.13-.73 7.89-44.75-8.23-.33L10.17 88.6l-.02.04c-5.07 11.95-5.47 18.88-1.38 23.91 1.4 1.72 3.17 3.05 5.37 4.06a15.077 15.077 0 0 1-3.96-7.54c-1.65-8.21 3.67-16.2 11.89-17.86zM42.61 84.92c-.37 0-.79.04-1.25.12l-6.79 1.46c.35.87.73 1.86 1.1 2.94 3.32-.45 6.11-.86 6.59-1 3.22-.98 2.92-3.52.35-3.52zM121.27 89.03l-.06-.91c-.02-.2-.03-.4-.05-.6-.03-.32-.07-.63-.11-.95a8.49 8.49 0 0 0-.07-.53c-.05-.33-.1-.66-.16-.99-.03-.16-.05-.31-.08-.47-.06-.34-.13-.68-.21-1.01l-.09-.41c-.08-.35-.17-.7-.27-1.04l-.09-.34c-.1-.36-.21-.71-.33-1.06-.03-.09-.06-.19-.09-.28-.12-.36-.25-.72-.39-1.08-.03-.07-.06-.15-.09-.22-.15-.37-.3-.73-.46-1.09-.02-.06-.05-.11-.08-.17-.17-.37-.34-.74-.53-1.1-.02-.04-.04-.07-.06-.11-.19-.38-.39-.74-.61-1.11-.01-.02-.02-.04-.03-.05-.22-.38-.45-.75-.69-1.11-.19-.29-.38-.57-.58-.85-4.15-5.71-10.53-9.29-18.98-10.63a30.74 30.74 0 0 0-4.76-.38c-12.31 0-21.12 7.78-25.01 12.02.29.08.58.19.87.3.94.36 1.88.91 2.7 1.69.14.14.3.26.44.41 1.53 1.71 2.15 4 1.85 6.81l-.02.1c-.64 3.99-.81 7.71-.57 11.14.03.48.08.94.13 1.41.04.37.08.73.13 1.09.06.44.13.88.21 1.31.07.37.14.73.21 1.09.09.41.18.81.28 1.2.09.37.2.73.31 1.09s.21.73.33 1.08c.13.39.28.76.42 1.14.12.3.23.61.36.91.21.47.43.93.66 1.38.09.18.17.37.27.54.34.62.7 1.23 1.09 1.8l.24.33c.32.46.65.91 1.01 1.34.12.15.26.29.38.43a21 21 0 0 0 1.01 1.09l.45.42c.36.33.72.65 1.1.96a20.676 20.676 0 0 0 1.71 1.22c.16.1.32.21.49.3.45.27.92.53 1.4.77.15.07.29.15.44.22.54.26 1.1.49 1.67.7 1.45.54 3 .97 4.65 1.23 1.34.21 2.71.32 4.05.32.43 0 .85-.04 1.28-.06 2.25-.11 4.42-.51 6.48-1.16.01 0 .02-.01.03-.01a27.5 27.5 0 0 0 1.98-.72c.02-.01.05-.02.07-.03.63-.26 1.25-.55 1.85-.86.05-.02.09-.05.14-.07.58-.3 1.14-.62 1.7-.97.07-.04.14-.09.21-.13.52-.33 1.03-.68 1.53-1.06.09-.07.18-.14.28-.22.46-.36.92-.73 1.36-1.12.12-.1.23-.21.34-.32.4-.37.8-.75 1.18-1.15.14-.14.26-.29.4-.44.34-.38.68-.76 1-1.16.15-.19.29-.39.44-.58.29-.38.57-.75.83-1.14.16-.24.3-.49.46-.73.23-.37.46-.73.67-1.11.16-.29.31-.6.46-.9.18-.35.36-.7.52-1.06s.29-.73.44-1.09c.13-.32.27-.64.38-.97.15-.44.28-.9.41-1.36.08-.27.17-.53.24-.8.19-.74.34-1.49.46-2.25.09-.54.16-1.08.22-1.61l.06-.57c.03-.34.07-.68.1-1.02.02-.24.03-.48.04-.72.02-.29.04-.58.04-.86.01-.27.01-.53.01-.8 0-.26.01-.51.01-.76 0-.29-.01-.57-.02-.86.03-.22.02-.45.01-.68zM82.69 117.02h-.03c1.63.95 3.4 1.71 5.31 2.27h.04c-1.91-.56-3.69-1.32-5.32-2.27z"/></g><path d="M123.32 90.69c0-.28 0-.57-.01-.85l-.03-.65c-.01-.28-.03-.56-.04-.84-.01-.22-.03-.44-.05-.66-.02-.28-.05-.56-.08-.84-.02-.22-.05-.44-.08-.66-.04-.28-.07-.56-.11-.83-.03-.22-.07-.44-.11-.65l-.15-.83c-.04-.22-.09-.43-.13-.65-.06-.27-.12-.55-.19-.82-.05-.21-.1-.43-.16-.64-.07-.28-.15-.55-.23-.82-.06-.21-.12-.41-.19-.62-.09-.28-.18-.55-.28-.82-.07-.2-.14-.4-.21-.59-.1-.28-.22-.55-.33-.83-.08-.19-.15-.38-.23-.56-.13-.29-.26-.57-.4-.86-.08-.17-.15-.34-.24-.5-.16-.32-.33-.63-.5-.94l-.21-.39c-3.86-6.79-10.79-12.14-21.88-13.9-1.75-.28-3.44-.4-5.07-.4-16.26 0-26.62 12.58-28.54 15.12-10.83 2.13-31.1 6.91-31.1 6.91l8.29-47-11.94-.48L8.31 87.87c-4.49 10.59-6.41 19.41-1.09 25.96 2.76 3.39 8.78 7.44 17.89 7.44.75 0 43.37-1.36 62.85-1.98-1.9-.56-3.68-1.32-5.31-2.27-15.17.3-39.99 1.12-51.45 1.5-2.62.09-4.54.15-5.48.18-.38.01-.62.02-.66.02-1.38 0-2.76-.22-4.07-.67-4.25-1.45-7.44-5.08-8.32-9.47-.66-3.31 0-6.68 1.87-9.48a12.57 12.57 0 0 1 8.03-5.39c.61-.12 6.56-.89 11.99-1.62.63-.09 1.25-.17 1.86-.25 3.67-.5 6.76-.95 7.24-1.11 3.97-1.32 3.24-4.45 3.04-5.26-.31-1.23-1.54-2.54-4.09-2.54-.51 0-1.05.05-1.61.16l-.06.01-.06.02s-5.85 1.23-7.1 1.52c-.09-.19-.17-.38-.25-.55h-.01c2.95-.65 26.94-5.9 34.77-7.17 1.81.92 3.23 2.86 3.01 6.64-.7 4.35-.86 8.38-.56 12.05h-.01c.02.2.05.39.07.58.05.57.11 1.14.19 1.69.04.28.09.54.13.81.09.54.18 1.07.29 1.59.06.27.12.54.19.81.12.5.24.99.37 1.47.08.27.17.54.25.8.14.46.29.91.45 1.35a44.686 44.686 0 0 0 .84 2.03c.13.27.26.54.4.8.19.37.37.73.57 1.09.16.27.32.54.48.8.2.33.4.65.62.96.19.27.38.53.58.79.21.28.43.57.65.84.22.26.44.51.67.76.22.25.45.5.68.73.25.25.51.49.77.73.23.21.47.43.71.63.28.24.57.46.86.68.24.18.48.36.73.54.31.22.63.42.96.62.16.1.32.21.48.31h.03c1.63.95 3.41 1.71 5.32 2.27h-.04c.18.05.36.09.54.14.31.09.63.17.95.25.62.15 1.25.28 1.89.38 1.47.23 2.93.35 4.37.35 13.27 0 24.95-9.63 27.11-23.15.08-.48.15-.97.21-1.46.02-.16.03-.31.05-.47.04-.33.07-.67.1-1 .02-.19.03-.38.04-.57l.06-.91c.01-.21.01-.41.02-.62.01-.29.02-.58.02-.87-.02-.24-.02-.45-.02-.67zm-81.96-5.64c.46-.08.87-.12 1.25-.12 2.57 0 2.87 2.54-.35 3.52-.48.15-3.28.55-6.59 1-.37-1.08-.74-2.07-1.1-2.94l6.79-1.46zm-7.6 4.65c-5.13.69-10.68 1.38-10.75 1.39-.33.03-.64.07-.94.13-8.22 1.65-13.54 9.65-11.88 17.87.59 2.95 2.01 5.53 3.96 7.54-2.2-1.01-3.97-2.34-5.37-4.06-4.1-5.04-3.7-11.96 1.38-23.91l.02-.04 20.3-51.46 8.23.33-7.89 44.75-.13.73.38.64c.03.05 1.39 2.52 2.69 6.09zm87.55 1.64c0 .27 0 .53-.01.8-.01.29-.03.58-.04.86-.01.24-.02.48-.04.72-.03.34-.06.68-.1 1.02-.02.19-.03.38-.06.57-.06.54-.14 1.07-.22 1.61-.12.76-.28 1.51-.46 2.25-.07.27-.16.53-.24.8-.13.46-.26.92-.41 1.36-.11.33-.25.65-.38.97-.14.36-.28.73-.44 1.09s-.35.71-.52 1.06c-.15.3-.29.61-.46.9-.21.38-.45.74-.67 1.11-.15.24-.3.49-.46.73-.26.39-.55.77-.83 1.14-.15.19-.29.39-.44.58-.32.4-.66.78-1 1.16-.13.15-.26.3-.4.44-.38.4-.78.78-1.18 1.15-.11.11-.22.21-.34.32-.44.39-.89.76-1.36 1.12-.09.07-.18.15-.28.22-.5.37-1.01.72-1.53 1.06-.07.04-.14.09-.21.13-.55.34-1.12.67-1.7.97-.05.02-.09.05-.14.07-.6.31-1.22.6-1.85.86-.02.01-.05.02-.07.03-.65.27-1.31.51-1.98.72-.01 0-.02.01-.03.01-2.06.65-4.24 1.05-6.48 1.16-.42.02-.85.06-1.28.06-1.35 0-2.71-.11-4.05-.32a24.014 24.014 0 0 1-6.32-1.93c-.15-.07-.3-.15-.44-.22-.48-.24-.95-.49-1.4-.77-.16-.1-.33-.2-.49-.3-.42-.27-.83-.55-1.23-.85-.16-.12-.32-.24-.48-.37-.38-.3-.74-.63-1.1-.96l-.45-.42c-.35-.35-.69-.72-1.01-1.09-.13-.15-.26-.28-.38-.43-.35-.43-.69-.88-1.01-1.34-.08-.11-.17-.22-.24-.33-.39-.58-.75-1.18-1.09-1.8-.09-.17-.18-.36-.27-.54-.23-.45-.46-.91-.66-1.38-.13-.3-.24-.61-.36-.91-.15-.37-.29-.75-.42-1.14-.12-.35-.23-.72-.33-1.08-.11-.36-.21-.72-.31-1.09-.1-.39-.19-.8-.28-1.2-.08-.36-.15-.72-.21-1.09-.08-.43-.15-.87-.21-1.31-.05-.36-.09-.73-.13-1.09-.05-.46-.1-.93-.13-1.41-.24-3.43-.07-7.15.57-11.14l.02-.1c.31-2.81-.32-5.1-1.85-6.81-.14-.15-.29-.27-.44-.41a8.13 8.13 0 0 0-2.7-1.69c-.29-.11-.58-.22-.87-.3 3.89-4.24 12.7-12.02 25.01-12.02 1.57 0 3.17.13 4.76.38 8.45 1.34 14.84 4.91 18.98 10.63.2.28.39.56.58.85a20.677 20.677 0 0 1 .72 1.16c.21.36.41.73.61 1.11.02.04.04.07.06.11.18.36.36.73.53 1.1.02.06.05.11.08.17.16.36.31.72.46 1.09.03.07.06.15.09.22.14.36.27.72.39 1.08.03.09.06.19.09.28l.33 1.06.09.34c.09.34.18.69.27 1.04.03.13.06.27.09.41l.21 1.01c.03.16.06.31.08.47.06.33.11.65.16.99.02.18.05.36.07.53.04.32.08.63.11.95.02.2.03.4.05.6.02.3.05.6.06.91.01.23.02.45.02.68.01.29.02.57.02.86-.03.25-.04.5-.04.76z" fill="#212121" opacity=".39"/><path d="M29.2 37.44l-1.13.35-2.53 6.41s1.67-1.68 3-.25c1.33 1.44 2.33 4.88 6.58 5.4 1.33.16 2.52.03 3.57-.31l2.38-13.48-11.09-.44c-.36.73-.63 1.5-.78 2.32z" fill="#37474F" opacity=".49"/><linearGradient id="z" x1="39.219" x2="26.127" y1="37.276" y2="32.576" gradientUnits="userSpaceOnUse"><stop stop-color="#546E7A" offset="0"/><stop stop-color="#78909C" offset="1"/></linearGradient><path d="M36.87 26.38c-5.79 0-7.31 3.95-8.84 6.59-.46 1.38-2.3 1.59-2.12-.03.22-2.03 1.27-3.19 2.82-4.24l.71-1.77c-1.22.18-6.12 2.91-6.12 9.5 0 2.25.75 4.33 2 6l.6.77.28-.7s-.72-1.12-.03-1.46c.48-.24 1.31-.22 2.77 1.58 1.89 2.32 4.7 3.87 7.92 3.87 5.55 0 10.05-4.5 10.05-10.05s-4.49-10.06-10.04-10.06z" fill="url(#z)"/><path d="M36.87 28.38c4.44 0 8.05 3.61 8.05 8.05s-3.61 8.05-8.05 8.05c-2.43 0-4.75-1.14-6.37-3.13-.85-1.04-2.17-2.42-3.87-2.42-.29 0-.58.04-.86.12-.29-.84-.44-1.72-.44-2.62 0-.23.01-.46.02-.68.4.22.86.33 1.34.33 1.35 0 2.61-.92 3.16-2.25.14-.24.27-.48.41-.73 1.33-2.43 2.6-4.72 6.61-4.72m0-2c-5.79 0-7.31 3.95-8.84 6.59-.24.71-.84 1.11-1.34 1.11-.47 0-.86-.35-.77-1.14.22-2.03 1.27-3.19 2.82-4.24l.71-1.77c-1.22.18-6.12 2.91-6.12 9.5 0 2.25.75 4.33 2 6l.6.77.28-.7s-.72-1.12-.03-1.46c.12-.06.27-.11.45-.11.5 0 1.24.36 2.32 1.68 1.89 2.32 4.7 3.87 7.92 3.87 5.55 0 10.05-4.5 10.05-10.05s-4.5-10.05-10.05-10.05z" fill="#212121" opacity=".39"/><linearGradient id="A" x1="46.75" x2="39.086" y1="41.218" y2="37.489" gradientUnits="userSpaceOnUse"><stop stop-color="#212121" offset=".019"/><stop stop-color="#212121" stop-opacity="0" offset="1"/></linearGradient><path d="M38.49 26.52c-.19.62-.38 1.27-.58 1.93 3.95.51 7.01 3.89 7.01 7.97 0 4.44-3.61 8.05-8.05 8.05-1.24 0-2.44-.3-3.55-.85-.2.68-.4 1.33-.58 1.93 1.26.58 2.65.92 4.13.92 5.55 0 10.05-4.5 10.05-10.05 0-4.99-3.65-9.12-8.43-9.9z" fill="url(#A)"/><linearGradient id="B" x1="46.695" x2="67.947" y1="22.898" y2="22.898" gradientUnits="userSpaceOnUse"><stop stop-color="#546E7A" offset="0"/><stop stop-color="#78909C" offset="1"/></linearGradient><path d="M67.77 29.77c-.22-.65-.5-1.15-.78-1.63L57.4 10.67c-2.1-3.5-5.83-4.3-8.45-2.33-3.23 2.42-2.53 6.28-.69 8.34l11.09 12.71-2.71 1.54-.6-3.83c-.32-2.46-1.6-3.81-3.75-3.54-2.77.35-3.2 2.83-3.19 4.91l.96 6.63c.3 1.36 1.16 2.63 2.39 3.27.67.35 2.05 0 2.79 0 .62 0 1.25-.12 1.85-.38l8.62-3.72c1.76-.78 2.64-2.68 2.06-4.5z" fill="url(#B)"/><path d="M47.72 12.19c-.13 1.32.36 2.78 1.28 3.81l11.09 12.72.78.89 2.78 1.34-15.26-20.81c-.03.02-.56.96-.67 2.05z" fill="#455A64"/><defs><filter id="C" x="47.7" y="9.39" width="16.82" height="20.82" filterUnits="userSpaceOnUse"><feFlood flood-color="#fff" result="back"/><feBlend in="SourceGraphic" in2="back"/></filter></defs><mask id="D" x="47.7" y="9.39" width="16.82" height="20.82" maskUnits="userSpaceOnUse"><image transform="matrix(.24 0 0 .24 45.469 7.3)" width="88" height="104" overflow="visible" xlink:href="8A7DF53204DDBBDC.jpg" filter="url(#C)"/></mask><g mask="url(#D)"><path d="M47.72 12.19c-.13 1.32.36 2.78 1.28 3.81l11.09 12.72.78.89 3.65.59L49.26 9.39c-.9.77-1.43 1.71-1.54 2.8z" fill="#455A64"/></g><path d="M50.08 28.39l.84 5.84c1.27-.03 2.72-.13 2.72-.13l-1.28-9.55c-1.12.15-2.27.74-2.28 3.84z" fill="#455A64" opacity=".76"/><path d="M33.07 38.07c0-3.74 3.03-6.77 6.77-6.77s7.05 3.04 6.77 6.77c-.29 3.78-3.03 6.77-6.77 6.77s-6.77-3.04-6.77-6.77z" fill="#37474F" opacity=".44"/><path d="M50.93 34.23l.1.68c.25 1.11.97 2.09 1.87 2.56 0 0 .1.04.39.04.3 0 .65-.04.99-.08s.66-.08.94-.08c.5 0 .99-.1 1.47-.3l8.61-3.72c1.3-.56 1.94-1.94 1.51-3.27-.19-.57-.46-1.03-.69-1.42l-9.61-17.51c-1.09-1.81-2.72-2.87-4.47-2.87-.9 0-1.76.29-2.51.85-1.09.81-1.7 1.84-1.82 3.06-.13 1.32.36 2.78 1.28 3.81L60.08 28.7l.8.92-1.06.61-2.71 1.54-1.26.72-.22-1.43-.6-3.83c-.24-1.82-.99-2.73-2.23-2.73-.13 0-.27.01-.41.03h-.03l1.28 9.55c.01.02-1.44.12-2.71.15z" fill="none"/><path d="M67.77 29.77c-.22-.65-.5-1.15-.78-1.63L57.4 10.67c-1.35-2.25-3.38-3.38-5.35-3.38-1.09 0-2.17.35-3.11 1.05-3.23 2.42-2.53 6.28-.69 8.34l11.09 12.71-2.71 1.54-.6-3.83c-.29-2.25-1.39-3.57-3.22-3.57-.17 0-.35.01-.53.03-2.77.35-3.2 2.83-3.19 4.91l.96 6.63c.3 1.36 1.16 2.63 2.4 3.27.22.12.53.15.86.15.66 0 1.44-.15 1.93-.15.62 0 1.25-.12 1.85-.38l8.62-3.72c1.76-.78 2.64-2.68 2.06-4.5zm-2.47 3.57l-8.61 3.72c-.47.2-.97.3-1.47.3-.29 0-.61.04-.94.08-.34.04-.69.08-.99.08s-.39-.04-.39-.04c-.9-.47-1.62-1.45-1.87-2.56l-.1-.68-.84-5.84c.01-3.1 1.15-3.69 2.29-3.84h.03c.14-.02.28-.03.41-.03 1.25 0 2 .91 2.23 2.73l.6 3.83.22 1.43 1.26-.72 2.71-1.54 1.06-.61-.8-.92L48.99 16c-.92-1.03-1.41-2.49-1.28-3.81.12-1.22.74-2.25 1.82-3.06.74-.56 1.61-.85 2.51-.85 1.75 0 3.38 1.06 4.47 2.87l9.61 17.51c.23.39.5.85.69 1.42.43 1.32-.21 2.7-1.51 3.26z" fill="#212121" opacity=".39"/><ellipse cx="53.15" cy="14.62" rx="4.12" ry="4.11" clip-rule="evenodd" fill="#37474F" fill-rule="evenodd" opacity=".44"/><linearGradient id="E" x1="54.231" x2="49.15" y1="14.76" y2="9.679" gradientUnits="userSpaceOnUse"><stop stop-color="#78909C" offset="0"/><stop stop-color="#90A4AE" offset=".483"/><stop stop-color="#BDBDBD" offset="1"/></linearGradient><ellipse cx="52.09" cy="12.62" rx="4.34" ry="4.33" clip-rule="evenodd" fill="url(#E)" fill-rule="evenodd"/><defs><filter id="F" x="47.74" y="8.28" width="8.4" height="7.97" filterUnits="userSpaceOnUse"><feFlood flood-color="#fff" result="back"/><feBlend in="SourceGraphic" in2="back"/></filter></defs><mask id="G" x="47.74" y="8.28" width="8.4" height="7.97" maskUnits="userSpaceOnUse"><image transform="matrix(.24 0 0 .24 45.709 6.1)" width="52" height="51" overflow="visible" xlink:href="8A7DF53204DDBBDD.jpg" filter="url(#F)"/></mask><g mask="url(#G)"><radialGradient id="H" cx="49.872" cy="10.457" r="4.089" gradientTransform="matrix(1.0022 0 0 1 -.105 0)" gradientUnits="userSpaceOnUse"><stop stop-color="#eee" offset="0"/><stop stop-color="#eee" stop-opacity="0" offset="1"/></radialGradient><path d="M49.37 15.68a4.108 4.108 0 0 1 1.73-5.55 4.13 4.13 0 0 1 5.05.97 4.326 4.326 0 0 0-4.06-2.82c-2.4 0-4.34 1.94-4.34 4.33 0 1.53.8 2.87 2 3.64-.14-.17-.27-.36-.38-.57z" clip-rule="evenodd" fill="url(#H)" fill-rule="evenodd"/></g><g clip-rule="evenodd" fill-rule="evenodd"><ellipse cx="64.55" cy="30.87" rx="3.39" ry="3.39" fill="#37474F" opacity=".44"/><linearGradient id="I" x1="65.43" x2="61.678" y1="31.788" y2="28.036" gradientUnits="userSpaceOnUse"><stop stop-color="#78909C" offset="0"/><stop stop-color="#90A4AE" offset=".483"/><stop stop-color="#BDBDBD" offset="1"/></linearGradient><ellipse cx="63.85" cy="30.2" rx="3.21" ry="3.2" fill="url(#I)"/><radialGradient id="J" cx="62.158" cy="28.809" r="3.02" gradientTransform="matrix(.9324 -.3665 .3673 .9304 -6.712 25.328)" gradientUnits="userSpaceOnUse"><stop stop-color="#eee" offset="0"/><stop stop-color="#eee" stop-opacity="0" offset="1"/></radialGradient><path d="M62.9 33.08a3.038 3.038 0 0 1-.32-4.28c.95-1.1 2.5-1.35 3.73-.69-.87-.96-2.27-1.35-3.55-.84a3.198 3.198 0 0 0-1.81 4.15 3.2 3.2 0 0 0 2.36 1.96c-.14-.1-.28-.19-.41-.3z" fill="url(#J)"/></g><linearGradient id="K" x1="54.881" x2="30.043" y1="36.216" y2="37.112" gradientUnits="userSpaceOnUse"><stop stop-color="#78909C" offset=".134"/><stop stop-color="#90A4AE" offset=".484"/><stop stop-color="#BDBDBD" offset="1"/></linearGradient><path d="M62.43 35.93c-.21-2.36-2-3.25-4.33-3.3l-17.72-1.9c-.17-.01-.34 0-.5 0-.1 0-.21.01-.31.01-.13.01-.25.02-.37.04-.09.01-.17.02-.26.04-.13.02-.26.05-.38.08-.07.02-.15.03-.22.05l-.39.12a4.803 4.803 0 0 0-.57.23c-.04.02-.09.04-.13.06-.14.07-.27.15-.4.23-.03.02-.06.03-.08.05-.14.09-.28.19-.41.3-.01.01-.03.02-.04.03-.14.12-.28.24-.41.37-1.06 1.07-1.65 2.58-1.69 4.24v.01c-.02.82.12 1.63.39 2.38.74 2.04 2.47 3.61 4.79 3.76.03 0 .06 0 .1.01.2.01.39.01.6 0l18.73-2.34s3.59-.36 3.64-3.96c.01-.17-.02-.33-.04-.51z" fill="url(#K)"/><linearGradient id="L" x1="48.354" x2="48.354" y1="39.542" y2="28.943" gradientUnits="userSpaceOnUse"><stop stop-color="#455A64" offset="0"/><stop stop-color="#586A73" stop-opacity=".851" offset=".149"/><stop stop-color="#89959B" stop-opacity=".548" offset=".452"/><stop stop-color="#D6D9DB" stop-opacity=".123" offset=".877"/><stop stop-color="#eee" stop-opacity="0" offset="1"/></linearGradient><path d="M62.43 35.93c-.21-2.36-2-3.25-4.33-3.3l-17.72-1.9c-.17-.01-.34 0-.5 0-.1 0-.21.01-.31.01-.13.01-.25.02-.37.04-.09.01-.17.02-.26.04-.13.02-.26.05-.38.08-.07.02-.15.03-.22.05l-.39.12a4.803 4.803 0 0 0-.57.23c-.04.02-.09.04-.13.06-.14.07-.27.15-.4.23-.03.02-.06.03-.08.05-.14.09-.28.19-.41.3-.01.01-.03.02-.04.03-.14.12-.28.24-.41.37-1.06 1.07-1.65 2.58-1.69 4.24v.01c-.02.82.12 1.63.39 2.38.74 2.04 2.47 3.61 4.79 3.76.03 0 .06 0 .1.01.2.01.39.01.6 0l18.73-2.34s3.59-.36 3.64-3.96c.01-.17-.02-.33-.04-.51z" fill="url(#L)"/><path d="M62.43 35.93c-.21-2.36-2-3.25-4.33-3.3l-17.72-1.9c-.17-.01-.34 0-.5 0-.1 0-.21.01-.31.01-.13.01-.25.02-.37.04-.09.01-.17.02-.26.04-.13.02-.26.05-.38.08-.07.02-.15.03-.22.05l-.39.12a4.803 4.803 0 0 0-.57.23c-.04.02-.09.04-.13.06-.14.07-.27.15-.4.23-.03.02-.06.03-.08.05-.14.09-.28.19-.41.3-.01.01-.03.02-.04.03-.14.12-.28.24-.41.37-1.06 1.07-1.65 2.58-1.69 4.24v.01c-.02.82.12 1.63.39 2.38.74 2.04 2.47 3.61 4.79 3.76.03 0 .06 0 .1.01.2.01.39.01.6 0l18.73-2.34s3.59-.36 3.64-3.96c.01-.17-.02-.33-.04-.51zm-3.72 3.5l-18.7 2.34c-.1.01-.19.01-.29.01-1.18 0-2.23-.44-3.04-1.28-.87-.89-1.36-2.14-1.42-3.47-.01-.13-.03-.26-.03-.4.06-2.44 1.58-4.9 4.86-4.9h.22L58 33.63h.08c2.87.3 3.41 1.54 3.39 2.82 0 .12-.03.21-.04.32-.24 2.29-2.44 2.63-2.72 2.66z" fill="#212121" opacity=".51"/><ellipse transform="rotate(-25.921 41.677 37.295)" cx="41.68" cy="37.29" rx="4.24" ry="4.16" clip-rule="evenodd" fill="#37474F" fill-rule="evenodd" opacity=".44"/><linearGradient id="M" x1="43.096" x2="38.915" y1="38.621" y2="34.44" gradientTransform="rotate(-13.975 41.089 36.793)" gradientUnits="userSpaceOnUse"><stop stop-color="#78909C" offset="0"/><stop stop-color="#90A4AE" offset=".483"/><stop stop-color="#BDBDBD" offset="1"/></linearGradient><circle cx="41.34" cy="36.8" r="3.57" clip-rule="evenodd" fill="url(#M)" fill-rule="evenodd"/><defs><filter id="N" x="37.77" y="33.23" width="6.9" height="6.57" filterUnits="userSpaceOnUse"><feFlood flood-color="#fff" result="back"/><feBlend in="SourceGraphic" in2="back"/></filter></defs><mask id="O" x="37.77" y="33.23" width="6.9" height="6.57" maskUnits="userSpaceOnUse"><image transform="matrix(.24 0 0 .24 35.629 31.06)" width="47" height="45" overflow="visible" xlink:href="8A7DF53204DDBBDF.jpg" filter="url(#N)"/></mask><g mask="url(#O)"><radialGradient id="P" cx="39.522" cy="35.018" r="3.369" gradientUnits="userSpaceOnUse"><stop stop-color="#eee" offset="0"/><stop stop-color="#eee" stop-opacity="0" offset="1"/></radialGradient><path d="M39.1 39.32c-.87-1.66-.23-3.7 1.42-4.57 1.43-.75 3.14-.38 4.15.8-.51-1.36-1.8-2.33-3.33-2.33-1.97 0-3.57 1.6-3.57 3.57 0 1.26.66 2.36 1.65 3-.12-.14-.23-.3-.32-.47z" clip-rule="evenodd" fill="url(#P)" fill-rule="evenodd"/></g><g opacity=".8"><defs><filter id="Q" x="23.32" y="26.38" width="18.01" height="19.92" filterUnits="userSpaceOnUse"><feFlood flood-color="#fff" result="back"/><feBlend in="SourceGraphic" in2="back"/></filter></defs><mask id="R" x="23.32" y="26.38" width="18.01" height="19.92" maskUnits="userSpaceOnUse"><image transform="matrix(.24 0 0 .24 21.229 24.34)" width="93" height="100" overflow="visible" xlink:href="434703AB40C24FC.jpg" filter="url(#Q)"/></mask><g mask="url(#R)"><radialGradient id="S" cx="27.951" cy="31.714" r="10.126" gradientUnits="userSpaceOnUse"><stop stop-color="#eee" offset="0"/><stop stop-color="#eee" stop-opacity="0" offset="1"/></radialGradient><path d="M29.53 36.81c0-5.5 3.71-9.72 9.21-9.72.9 0 1.76.13 2.59.35-1.35-.67-2.86-1.06-4.46-1.06-5.79 0-7.31 3.95-8.84 6.59-.46 1.38-2.3 1.59-2.12-.03.22-2.03 1.27-3.19 2.82-4.24l.71-1.77c-1.22.18-6.12 2.91-6.12 9.5 0 2.25.75 4.33 2 6l.59.74.29-.67s-.72-1.12-.03-1.46c.48-.24 1.31-.22 2.77 1.58 1.53 1.88 3.67 3.23 6.14 3.69-3.68-1.47-5.55-5.3-5.55-9.5z" fill="url(#S)"/></g></g><defs><filter id="T" x="20.67" y="100.98" width="10.61" height="10.47" filterUnits="userSpaceOnUse"><feFlood flood-color="#fff" result="back"/><feBlend in="SourceGraphic" in2="back"/></filter></defs><mask id="U" x="20.67" y="100.98" width="10.61" height="10.47" maskUnits="userSpaceOnUse"><image transform="matrix(.24 0 0 .24 18.589 98.98)" width="62" height="61" overflow="visible" xlink:href="434703AB40C24FB.jpg" filter="url(#T)"/></mask><g mask="url(#U)"><linearGradient id="V" x1="23.301" x2="33.676" y1="110.5" y2="110.5" gradientTransform="matrix(.9563 .1634 -.1684 .9855 17.102 -7.216)" gradientUnits="userSpaceOnUse"><stop stop-color="#eee" offset=".307"/><stop stop-color="#eee" stop-opacity="0" offset=".881"/></linearGradient><path d="M22.07 108.37c.01-3.2 2.55-5.81 5.66-5.83a5.44 5.44 0 0 1 3.55 1.28c-.84-1.52-2.61-2.78-4.7-2.83-3.11-.08-6.07 2.14-5.9 6.03.08 1.81 1.18 3.51 2.58 4.44-.63-.94-1.19-1.86-1.19-3.09z" fill="url(#V)"/></g></svg>