<svg viewBox="0 0 128 128" width="128" height="128" xmlns="http://www.w3.org/2000/svg"><linearGradient id="a" x1="62.995" x2="62.995" y1="107.54" y2="21.03" gradientTransform="matrix(1 0 0 -1 0 128)" gradientUnits="userSpaceOnUse"><stop stop-color="#FEE133" offset=".5"/><stop stop-color="#FEDE32" offset=".612"/><stop stop-color="#FCD32F" offset=".708"/><stop stop-color="#FAC12B" offset=".797"/><stop stop-color="#F7A924" offset=".883"/><stop stop-color="#F6A323" offset=".9"/></linearGradient><path d="M62.99 118.96c-27.47 0-57.03-17.2-57.03-54.96S35.52 9.04 62.99 9.04c15.22 0 29.32 5.04 39.69 14.19 11.35 10.02 17.35 24.11 17.35 40.77 0 16.58-6 30.65-17.35 40.7-10.4 9.2-24.49 14.26-39.69 14.26z" fill="url(#a)"/><path d="M62.99 11c14.74 0 28.37 4.87 38.38 13.7 10.91 9.63 16.68 23.22 16.68 39.3 0 16-5.77 29.57-16.69 39.23C91.34 112.11 77.71 117 62.99 117c-14.79 0-28.42-4.83-38.39-13.59C13.69 93.82 7.92 80.19 7.92 64c0-16.26 5.77-29.92 16.67-39.48C34.54 15.8 48.18 11 62.99 11m0-3.93c-30.63 0-59 19.67-59 56.93 0 37.06 28.37 56.93 59 56.93s59-20.38 59-56.93c0-36.75-28.37-56.93-59-56.93z" fill="#EB8F00"/><g fill="#242424"><path d="M82.77 45.03c4.19 0 8 3.54 8 9.42s-3.81 9.42-8 9.42-8-3.54-8-9.42 3.81-9.42 8-9.42zM45.23 45.03c-4.19 0-8 3.54-8 9.42s3.81 9.42 8 9.42 8-3.54 8-9.42-3.81-9.42-8-9.42z"/></g><linearGradient id="b" x1="61.39" x2="125.61" y1="58.18" y2="58.18" gradientTransform="matrix(1 0 0 -1 0 128)" gradientUnits="userSpaceOnUse"><stop stop-color="#FEE133" offset=".136"/><stop stop-color="#FDDD32" offset=".34"/><stop stop-color="#FCD02F" offset=".556"/><stop stop-color="#F9BB29" offset=".778"/><stop stop-color="#F6A323" offset=".965"/></linearGradient><path d="M118.9 76.53H68.1c-3.69 0-6.71-3.02-6.71-6.71s3.02-6.71 6.71-6.71h51.14c3.51 0 6.37 2.87 6.37 6.37v.34c.01 3.69-3.01 6.71-6.71 6.71z" fill="url(#b)"/><path d="M119.09 61.11H70c-1.1 0-2 .9-2 2s.9 2 2 2h49.09c2.46 0 4.47 1.95 4.47 4.36v.37c0 2.59-2.16 4.69-4.81 4.69H70c-1.1 0-2 .9-2 2s.9 2 2 2h48.75c4.92 0 8.92-3.9 8.92-8.69v-.37c0-4.61-3.85-8.36-8.58-8.36z" fill="#EB8F00"/><path d="M28.78 41.38c-.87-.24-1.53-.84-1.83-1.65s-.15-1.7.45-2.37c3.16-4.31 8.14-7.3 13.66-8.16 2.07-.36 4.06-.43 6.14-.07.19.05.29.08.39.11 1.25.35 1.98 1.48 1.85 2.69-.1 1.11-1.08 2.4-2.63 2.39l-.2-.78.08.85c-5.59.32-11.23 2.71-15.27 6.47-.67.54-1.67.78-2.64.52zM93.95 34.39c-3.89-3.95-9.32-6.71-14.99-7.34l.14-.79-.24.76a2.692 2.692 0 0 1-2.45-2.55c-.02-1.26.72-2.29 2.08-2.6.13-.07.22-.04.44-.07 2.05-.19 4.08.03 6.05.44 5.4 1.17 10.23 4.48 13.21 8.98.49.78.63 1.67.29 2.4s-1.05 1.35-1.84 1.52c-1.12.27-2.07-.03-2.69-.75z" fill="#EB8F00" stroke="#EB8F00" stroke-miterlimit="10"/><path d="M59.28 90.54c7.11-2.31 13.38-.26 15.67 1.57.88.71 1.31 1.64 1.16 2.5-.12.65-.56 1.15-1.21 1.35-.22.07-.46.11-.71.11-3.95.04-8.25.78-12.44 2.14-4.16 1.35-8.07 3.27-11.28 5.56-.21.15-.42.26-.64.33-.65.21-1.3.07-1.78-.39-.63-.61-.83-1.62-.54-2.71.78-2.81 4.66-8.15 11.77-10.46z" fill="#242424"/></svg>