<svg viewBox="0 0 128 128" width="128" height="128" xmlns="http://www.w3.org/2000/svg"><path fill="#E8A746" d="M20 19.27h91v2.5H20zM20 38.88h91v2.5H20zM20 58.17h91v2.5H20zM20 77.17h91v2.5H20zM20 96.18h91v2.5H20z"/><linearGradient id="a" x1="14" x2="22" y1="60.5" y2="60.5" gradientUnits="userSpaceOnUse"><stop stop-color="#FBC335" offset="0"/><stop stop-color="#FBC843" offset=".032"/><stop stop-color="#FDD971" offset=".153"/><stop stop-color="#FEE795" offset=".269"/><stop stop-color="#FEF1AF" offset=".377"/><stop stop-color="#FFF7BF" offset=".474"/><stop stop-color="#FFF9C4" offset=".55"/><stop stop-color="#FFF8C1" offset=".635"/><stop stop-color="#FFF4B6" offset=".708"/><stop stop-color="#FEEDA4" offset=".776"/><stop stop-color="#FDE48B" offset=".842"/><stop stop-color="#FDD76B" offset=".906"/><stop stop-color="#FCC944" offset=".968"/><stop stop-color="#FBC02D" offset="1"/></linearGradient><path d="M20 115h-4c-1.1 0-2-.9-2-2V8c0-1.1.9-2 2-2h4c1.1 0 2 .9 2 2v105c0 1.1-.9 2-2 2z" fill="url(#a)"/><linearGradient id="b" x1="106" x2="114" y1="60.5" y2="60.5" gradientUnits="userSpaceOnUse"><stop stop-color="#FBC335" offset="0"/><stop stop-color="#FBC843" offset=".032"/><stop stop-color="#FDD971" offset=".153"/><stop stop-color="#FEE795" offset=".269"/><stop stop-color="#FEF1AF" offset=".377"/><stop stop-color="#FFF7BF" offset=".474"/><stop stop-color="#FFF9C4" offset=".55"/><stop stop-color="#FFF8C1" offset=".635"/><stop stop-color="#FFF4B6" offset=".708"/><stop stop-color="#FEEDA4" offset=".776"/><stop stop-color="#FDE48B" offset=".842"/><stop stop-color="#FDD76B" offset=".906"/><stop stop-color="#FCC944" offset=".968"/><stop stop-color="#FBC02D" offset="1"/></linearGradient><path d="M112 115h-4c-1.1 0-2-.9-2-2V8c0-1.1.9-2 2-2h4c1.1 0 2 .9 2 2v105c0 1.1-.9 2-2 2z" fill="url(#b)"/><linearGradient id="c" x1="25.5" x2="25.5" y1="14.358" y2="26.196" gradientUnits="userSpaceOnUse"><stop stop-color="#F44336" offset=".001"/><stop stop-color="#E51D25" offset="1"/></linearGradient><path d="M25.5 27.02c-1.93 0-3.5-1.57-3.5-3.5v-6c0-1.92 1.57-3.5 3.5-3.5 1.92 0 3.5 1.57 3.5 3.5v6c0 1.93-1.57 3.5-3.5 3.5z" fill="url(#c)"/><linearGradient id="d" x1="33" x2="33" y1="14.358" y2="26.196" gradientUnits="userSpaceOnUse"><stop stop-color="#F44336" offset=".001"/><stop stop-color="#E51D25" offset="1"/></linearGradient><path d="M33 27.02c-1.93 0-3.5-1.57-3.5-3.5v-6c0-1.92 1.57-3.5 3.5-3.5 1.92 0 3.5 1.57 3.5 3.5v6c0 1.93-1.57 3.5-3.5 3.5z" fill="url(#d)"/><linearGradient id="e" x1="40.5" x2="40.5" y1="14.358" y2="26.196" gradientUnits="userSpaceOnUse"><stop stop-color="#F44336" offset=".001"/><stop stop-color="#E51D25" offset="1"/></linearGradient><path d="M40.5 27.02c-1.93 0-3.5-1.57-3.5-3.5v-6c0-1.92 1.57-3.5 3.5-3.5 1.92 0 3.5 1.57 3.5 3.5v6c0 1.93-1.57 3.5-3.5 3.5z" fill="url(#e)"/><linearGradient id="f" x1="25.5" x2="25.5" y1="33.625" y2="46.625" gradientUnits="userSpaceOnUse"><stop stop-color="#FBC02D" offset="0"/><stop stop-color="#FAB022" offset=".102"/><stop stop-color="#F89913" offset=".286"/><stop stop-color="#F68908" offset=".486"/><stop stop-color="#F57F02" offset=".708"/><stop stop-color="#F57C00" offset=".999"/></linearGradient><path d="M25.5 46.62c-1.93 0-3.5-1.57-3.5-3.5v-6c0-1.92 1.57-3.5 3.5-3.5 1.92 0 3.5 1.57 3.5 3.5v6c0 1.93-1.57 3.5-3.5 3.5z" fill="url(#f)"/><linearGradient id="g" x1="25.5" x2="25.5" y1="52.925" y2="65.925" gradientUnits="userSpaceOnUse"><stop stop-color="#FCEE21" offset="0"/><stop stop-color="#FAEC1D" offset=".051"/><stop stop-color="#F0E20D" offset=".316"/><stop stop-color="#EADC03" offset=".612"/><stop stop-color="#E8DA00" offset="1"/></linearGradient><path d="M25.5 65.93a3.51 3.51 0 0 1-3.5-3.5v-6c0-1.92 1.57-3.5 3.5-3.5 1.92 0 3.5 1.58 3.5 3.5v6c0 1.92-1.57 3.5-3.5 3.5z" fill="url(#g)"/><linearGradient id="h" x1="33.5" x2="33.5" y1="52.925" y2="65.925" gradientUnits="userSpaceOnUse"><stop stop-color="#FCEE21" offset="0"/><stop stop-color="#FAEC1D" offset=".051"/><stop stop-color="#F0E20D" offset=".316"/><stop stop-color="#EADC03" offset=".612"/><stop stop-color="#E8DA00" offset="1"/></linearGradient><path d="M33.5 65.93a3.51 3.51 0 0 1-3.5-3.5v-6c0-1.92 1.57-3.5 3.5-3.5 1.92 0 3.5 1.58 3.5 3.5v6c0 1.92-1.57 3.5-3.5 3.5z" fill="url(#h)"/><linearGradient id="i" x1="41.5" x2="41.5" y1="52.925" y2="65.925" gradientUnits="userSpaceOnUse"><stop stop-color="#FCEE21" offset="0"/><stop stop-color="#FAEC1D" offset=".051"/><stop stop-color="#F0E20D" offset=".316"/><stop stop-color="#EADC03" offset=".612"/><stop stop-color="#E8DA00" offset="1"/></linearGradient><path d="M41.5 65.93a3.51 3.51 0 0 1-3.5-3.5v-6c0-1.92 1.57-3.5 3.5-3.5 1.92 0 3.5 1.58 3.5 3.5v6c0 1.92-1.57 3.5-3.5 3.5z" fill="url(#i)"/><linearGradient id="j" x1="49.5" x2="49.5" y1="52.925" y2="65.925" gradientUnits="userSpaceOnUse"><stop stop-color="#FCEE21" offset="0"/><stop stop-color="#FAEC1D" offset=".051"/><stop stop-color="#F0E20D" offset=".316"/><stop stop-color="#EADC03" offset=".612"/><stop stop-color="#E8DA00" offset="1"/></linearGradient><path d="M49.5 65.93a3.51 3.51 0 0 1-3.5-3.5v-6c0-1.92 1.57-3.5 3.5-3.5 1.92 0 3.5 1.58 3.5 3.5v6c0 1.92-1.57 3.5-3.5 3.5z" fill="url(#j)"/><linearGradient id="k" x1="25.5" x2="25.5" y1="71.917" y2="84.917" gradientUnits="userSpaceOnUse"><stop stop-color="#8CC63F" offset="0"/><stop stop-color="#79C340" offset=".081"/><stop stop-color="#52BC42" offset=".277"/><stop stop-color="#33B643" offset=".471"/><stop stop-color="#1DB244" offset=".658"/><stop stop-color="#10B045" offset=".838"/><stop stop-color="#0BAF45" offset="1"/></linearGradient><path d="M25.5 84.92c-1.93 0-3.5-1.57-3.5-3.5v-6c0-1.92 1.57-3.5 3.5-3.5 1.92 0 3.5 1.58 3.5 3.5v6c0 1.92-1.57 3.5-3.5 3.5z" fill="url(#k)"/><linearGradient id="l" x1="33.5" x2="33.5" y1="71.917" y2="84.917" gradientUnits="userSpaceOnUse"><stop stop-color="#8CC63F" offset="0"/><stop stop-color="#79C340" offset=".081"/><stop stop-color="#52BC42" offset=".277"/><stop stop-color="#33B643" offset=".471"/><stop stop-color="#1DB244" offset=".658"/><stop stop-color="#10B045" offset=".838"/><stop stop-color="#0BAF45" offset="1"/></linearGradient><path d="M33.5 84.92c-1.93 0-3.5-1.57-3.5-3.5v-6c0-1.92 1.57-3.5 3.5-3.5 1.92 0 3.5 1.58 3.5 3.5v6c0 1.92-1.57 3.5-3.5 3.5z" fill="url(#l)"/><linearGradient id="m" x1="41.5" x2="41.5" y1="71.917" y2="84.917" gradientUnits="userSpaceOnUse"><stop stop-color="#8CC63F" offset="0"/><stop stop-color="#79C340" offset=".081"/><stop stop-color="#52BC42" offset=".277"/><stop stop-color="#33B643" offset=".471"/><stop stop-color="#1DB244" offset=".658"/><stop stop-color="#10B045" offset=".838"/><stop stop-color="#0BAF45" offset="1"/></linearGradient><path d="M41.5 84.92c-1.93 0-3.5-1.57-3.5-3.5v-6c0-1.92 1.57-3.5 3.5-3.5 1.92 0 3.5 1.58 3.5 3.5v6c0 1.92-1.57 3.5-3.5 3.5z" fill="url(#m)"/><linearGradient id="n" x1="49.5" x2="49.5" y1="71.917" y2="84.917" gradientUnits="userSpaceOnUse"><stop stop-color="#8CC63F" offset="0"/><stop stop-color="#79C340" offset=".081"/><stop stop-color="#52BC42" offset=".277"/><stop stop-color="#33B643" offset=".471"/><stop stop-color="#1DB244" offset=".658"/><stop stop-color="#10B045" offset=".838"/><stop stop-color="#0BAF45" offset="1"/></linearGradient><path d="M49.5 84.92c-1.93 0-3.5-1.57-3.5-3.5v-6c0-1.92 1.57-3.5 3.5-3.5 1.92 0 3.5 1.58 3.5 3.5v6c0 1.92-1.57 3.5-3.5 3.5z" fill="url(#n)"/><linearGradient id="o" x1="62.5" x2="62.5" y1="71.917" y2="84.917" gradientUnits="userSpaceOnUse"><stop stop-color="#8CC63F" offset="0"/><stop stop-color="#79C340" offset=".081"/><stop stop-color="#52BC42" offset=".277"/><stop stop-color="#33B643" offset=".471"/><stop stop-color="#1DB244" offset=".658"/><stop stop-color="#10B045" offset=".838"/><stop stop-color="#0BAF45" offset="1"/></linearGradient><path d="M62.5 84.92c-1.93 0-3.5-1.57-3.5-3.5v-6c0-1.92 1.57-3.5 3.5-3.5 1.92 0 3.5 1.58 3.5 3.5v6c0 1.92-1.57 3.5-3.5 3.5z" fill="url(#o)"/><linearGradient id="p" x1="70.5" x2="70.5" y1="71.917" y2="84.917" gradientUnits="userSpaceOnUse"><stop stop-color="#8CC63F" offset="0"/><stop stop-color="#79C340" offset=".081"/><stop stop-color="#52BC42" offset=".277"/><stop stop-color="#33B643" offset=".471"/><stop stop-color="#1DB244" offset=".658"/><stop stop-color="#10B045" offset=".838"/><stop stop-color="#0BAF45" offset="1"/></linearGradient><path d="M70.5 84.92c-1.93 0-3.5-1.57-3.5-3.5v-6c0-1.92 1.57-3.5 3.5-3.5s3.5 1.58 3.5 3.5v6c0 1.92-1.57 3.5-3.5 3.5z" fill="url(#p)"/><linearGradient id="q" x1="78.5" x2="78.5" y1="71.917" y2="84.917" gradientUnits="userSpaceOnUse"><stop stop-color="#8CC63F" offset="0"/><stop stop-color="#79C340" offset=".081"/><stop stop-color="#52BC42" offset=".277"/><stop stop-color="#33B643" offset=".471"/><stop stop-color="#1DB244" offset=".658"/><stop stop-color="#10B045" offset=".838"/><stop stop-color="#0BAF45" offset="1"/></linearGradient><path d="M78.5 84.92c-1.93 0-3.5-1.57-3.5-3.5v-6c0-1.92 1.57-3.5 3.5-3.5s3.5 1.58 3.5 3.5v6c0 1.92-1.57 3.5-3.5 3.5z" fill="url(#q)"/><g fill="#424242" opacity=".2"><path d="M25.5 73.92c.83 0 1.5.67 1.5 1.5v6c0 .83-.67 1.5-1.5 1.5s-1.5-.67-1.5-1.5v-6c0-.83.67-1.5 1.5-1.5m0-2a3.51 3.51 0 0 0-3.5 3.5v6c0 1.92 1.58 3.5 3.5 3.5s3.5-1.57 3.5-3.5v-6c0-1.93-1.58-3.5-3.5-3.5zM33.5 73.92c.83 0 1.5.67 1.5 1.5v6c0 .83-.67 1.5-1.5 1.5s-1.5-.67-1.5-1.5v-6c0-.83.67-1.5 1.5-1.5m0-2a3.51 3.51 0 0 0-3.5 3.5v6c0 1.92 1.58 3.5 3.5 3.5s3.5-1.57 3.5-3.5v-6c0-1.93-1.58-3.5-3.5-3.5zM41.5 73.92c.83 0 1.5.67 1.5 1.5v6c0 .83-.67 1.5-1.5 1.5s-1.5-.67-1.5-1.5v-6c0-.83.67-1.5 1.5-1.5m0-2a3.51 3.51 0 0 0-3.5 3.5v6c0 1.92 1.58 3.5 3.5 3.5s3.5-1.57 3.5-3.5v-6c0-1.93-1.58-3.5-3.5-3.5zM49.5 73.92c.83 0 1.5.67 1.5 1.5v6c0 .83-.67 1.5-1.5 1.5s-1.5-.67-1.5-1.5v-6c0-.83.67-1.5 1.5-1.5m0-2a3.51 3.51 0 0 0-3.5 3.5v6c0 1.92 1.58 3.5 3.5 3.5s3.5-1.57 3.5-3.5v-6c0-1.93-1.58-3.5-3.5-3.5zM62.5 73.92c.83 0 1.5.67 1.5 1.5v6c0 .83-.67 1.5-1.5 1.5s-1.5-.67-1.5-1.5v-6c0-.83.67-1.5 1.5-1.5m0-2c-1.93 0-3.5 1.57-3.5 3.5v6c0 1.92 1.57 3.5 3.5 3.5s3.5-1.57 3.5-3.5v-6c0-1.93-1.57-3.5-3.5-3.5zM70.5 73.92c.83 0 1.5.67 1.5 1.5v6c0 .83-.67 1.5-1.5 1.5s-1.5-.67-1.5-1.5v-6c0-.83.67-1.5 1.5-1.5m0-2c-1.93 0-3.5 1.57-3.5 3.5v6c0 1.92 1.57 3.5 3.5 3.5s3.5-1.57 3.5-3.5v-6c0-1.93-1.57-3.5-3.5-3.5zM78.5 73.92c.83 0 1.5.67 1.5 1.5v6c0 .83-.67 1.5-1.5 1.5s-1.5-.67-1.5-1.5v-6c0-.83.67-1.5 1.5-1.5m0-2c-1.93 0-3.5 1.57-3.5 3.5v6c0 1.92 1.57 3.5 3.5 3.5s3.5-1.57 3.5-3.5v-6c0-1.93-1.57-3.5-3.5-3.5z"/></g><linearGradient id="r" x1="57.5" x2="57.5" y1="52.925" y2="65.925" gradientUnits="userSpaceOnUse"><stop stop-color="#FCEE21" offset="0"/><stop stop-color="#FAEC1D" offset=".051"/><stop stop-color="#F0E20D" offset=".316"/><stop stop-color="#EADC03" offset=".612"/><stop stop-color="#E8DA00" offset="1"/></linearGradient><path d="M57.5 65.93a3.51 3.51 0 0 1-3.5-3.5v-6c0-1.92 1.57-3.5 3.5-3.5 1.92 0 3.5 1.58 3.5 3.5v6c0 1.92-1.57 3.5-3.5 3.5z" fill="url(#r)"/><linearGradient id="s" x1="65.5" x2="65.5" y1="52.925" y2="65.925" gradientUnits="userSpaceOnUse"><stop stop-color="#FCEE21" offset="0"/><stop stop-color="#FAEC1D" offset=".051"/><stop stop-color="#F0E20D" offset=".316"/><stop stop-color="#EADC03" offset=".612"/><stop stop-color="#E8DA00" offset="1"/></linearGradient><path d="M65.5 65.93a3.51 3.51 0 0 1-3.5-3.5v-6c0-1.92 1.57-3.5 3.5-3.5s3.5 1.58 3.5 3.5v6c0 1.92-1.57 3.5-3.5 3.5z" fill="url(#s)"/><linearGradient id="t" x1="73.5" x2="73.5" y1="52.925" y2="65.925" gradientUnits="userSpaceOnUse"><stop stop-color="#FCEE21" offset="0"/><stop stop-color="#FAEC1D" offset=".051"/><stop stop-color="#F0E20D" offset=".316"/><stop stop-color="#EADC03" offset=".612"/><stop stop-color="#E8DA00" offset="1"/></linearGradient><path d="M73.5 65.93a3.51 3.51 0 0 1-3.5-3.5v-6c0-1.92 1.57-3.5 3.5-3.5s3.5 1.58 3.5 3.5v6c0 1.92-1.57 3.5-3.5 3.5z" fill="url(#t)"/><linearGradient id="u" x1="81.5" x2="81.5" y1="52.925" y2="65.925" gradientUnits="userSpaceOnUse"><stop stop-color="#FCEE21" offset="0"/><stop stop-color="#FAEC1D" offset=".051"/><stop stop-color="#F0E20D" offset=".316"/><stop stop-color="#EADC03" offset=".612"/><stop stop-color="#E8DA00" offset="1"/></linearGradient><path d="M81.5 65.93a3.51 3.51 0 0 1-3.5-3.5v-6c0-1.92 1.57-3.5 3.5-3.5s3.5 1.58 3.5 3.5v6c0 1.92-1.57 3.5-3.5 3.5z" fill="url(#u)"/><linearGradient id="v" x1="89.5" x2="89.5" y1="52.925" y2="65.925" gradientUnits="userSpaceOnUse"><stop stop-color="#FCEE21" offset="0"/><stop stop-color="#FAEC1D" offset=".051"/><stop stop-color="#F0E20D" offset=".316"/><stop stop-color="#EADC03" offset=".612"/><stop stop-color="#E8DA00" offset="1"/></linearGradient><path d="M89.5 65.93a3.51 3.51 0 0 1-3.5-3.5v-6c0-1.92 1.57-3.5 3.5-3.5s3.5 1.58 3.5 3.5v6c0 1.92-1.57 3.5-3.5 3.5z" fill="url(#v)"/><linearGradient id="w" x1="33.5" x2="33.5" y1="33.625" y2="46.625" gradientUnits="userSpaceOnUse"><stop stop-color="#FBC02D" offset="0"/><stop stop-color="#FAB022" offset=".102"/><stop stop-color="#F89913" offset=".286"/><stop stop-color="#F68908" offset=".486"/><stop stop-color="#F57F02" offset=".708"/><stop stop-color="#F57C00" offset=".999"/></linearGradient><path d="M33.5 46.62c-1.93 0-3.5-1.57-3.5-3.5v-6c0-1.92 1.57-3.5 3.5-3.5 1.92 0 3.5 1.57 3.5 3.5v6c0 1.93-1.57 3.5-3.5 3.5z" fill="url(#w)"/><linearGradient id="x" x1="43.5" x2="43.5" y1="33.625" y2="46.625" gradientUnits="userSpaceOnUse"><stop stop-color="#FBC02D" offset="0"/><stop stop-color="#FAB022" offset=".102"/><stop stop-color="#F89913" offset=".286"/><stop stop-color="#F68908" offset=".486"/><stop stop-color="#F57F02" offset=".708"/><stop stop-color="#F57C00" offset=".999"/></linearGradient><path d="M43.5 46.62c-1.93 0-3.5-1.57-3.5-3.5v-6c0-1.92 1.57-3.5 3.5-3.5 1.92 0 3.5 1.57 3.5 3.5v6c0 1.93-1.57 3.5-3.5 3.5z" fill="url(#x)"/><linearGradient id="y" x1="48" x2="48" y1="14.358" y2="26.196" gradientUnits="userSpaceOnUse"><stop stop-color="#F44336" offset=".001"/><stop stop-color="#E51D25" offset="1"/></linearGradient><path d="M48 27.02c-1.93 0-3.5-1.57-3.5-3.5v-6c0-1.92 1.57-3.5 3.5-3.5 1.92 0 3.5 1.57 3.5 3.5v6c0 1.93-1.57 3.5-3.5 3.5z" fill="url(#y)"/><linearGradient id="z" x1="55.5" x2="55.5" y1="14.358" y2="26.196" gradientUnits="userSpaceOnUse"><stop stop-color="#F44336" offset=".001"/><stop stop-color="#E51D25" offset="1"/></linearGradient><path d="M55.5 27.02c-1.93 0-3.5-1.57-3.5-3.5v-6c0-1.92 1.57-3.5 3.5-3.5 1.92 0 3.5 1.57 3.5 3.5v6c0 1.93-1.57 3.5-3.5 3.5z" fill="url(#z)"/><linearGradient id="A" x1="65.5" x2="65.5" y1="14.358" y2="26.196" gradientUnits="userSpaceOnUse"><stop stop-color="#F44336" offset=".001"/><stop stop-color="#E51D25" offset="1"/></linearGradient><path d="M65.5 27.02c-1.93 0-3.5-1.57-3.5-3.5v-6c0-1.92 1.57-3.5 3.5-3.5s3.5 1.57 3.5 3.5v6c0 1.93-1.57 3.5-3.5 3.5z" fill="url(#A)"/><linearGradient id="B" x1="72.5" x2="72.5" y1="33.625" y2="46.625" gradientUnits="userSpaceOnUse"><stop stop-color="#FBC02D" offset="0"/><stop stop-color="#FAB022" offset=".102"/><stop stop-color="#F89913" offset=".286"/><stop stop-color="#F68908" offset=".486"/><stop stop-color="#F57F02" offset=".708"/><stop stop-color="#F57C00" offset=".999"/></linearGradient><path d="M72.5 46.62c-1.93 0-3.5-1.57-3.5-3.5v-6c0-1.92 1.57-3.5 3.5-3.5s3.5 1.57 3.5 3.5v6c0 1.93-1.57 3.5-3.5 3.5z" fill="url(#B)"/><linearGradient id="C" x1="64.5" x2="64.5" y1="33.625" y2="46.625" gradientUnits="userSpaceOnUse"><stop stop-color="#FBC02D" offset="0"/><stop stop-color="#FAB022" offset=".102"/><stop stop-color="#F89913" offset=".286"/><stop stop-color="#F68908" offset=".486"/><stop stop-color="#F57F02" offset=".708"/><stop stop-color="#F57C00" offset=".999"/></linearGradient><path d="M64.5 46.62c-1.93 0-3.5-1.57-3.5-3.5v-6c0-1.92 1.57-3.5 3.5-3.5s3.5 1.57 3.5 3.5v6c0 1.93-1.57 3.5-3.5 3.5z" fill="url(#C)"/><linearGradient id="D" x1="80" x2="80" y1="33.625" y2="46.625" gradientUnits="userSpaceOnUse"><stop stop-color="#FBC02D" offset="0"/><stop stop-color="#FAB022" offset=".102"/><stop stop-color="#F89913" offset=".286"/><stop stop-color="#F68908" offset=".486"/><stop stop-color="#F57F02" offset=".708"/><stop stop-color="#F57C00" offset=".999"/></linearGradient><path d="M80 46.62c-1.93 0-3.5-1.57-3.5-3.5v-6c0-1.92 1.57-3.5 3.5-3.5s3.5 1.57 3.5 3.5v6c0 1.93-1.57 3.5-3.5 3.5z" fill="url(#D)"/><linearGradient id="E" x1="87.5" x2="87.5" y1="33.625" y2="46.625" gradientUnits="userSpaceOnUse"><stop stop-color="#FBC02D" offset="0"/><stop stop-color="#FAB022" offset=".102"/><stop stop-color="#F89913" offset=".286"/><stop stop-color="#F68908" offset=".486"/><stop stop-color="#F57F02" offset=".708"/><stop stop-color="#F57C00" offset=".999"/></linearGradient><path d="M87.5 46.62c-1.93 0-3.5-1.57-3.5-3.5v-6c0-1.92 1.57-3.5 3.5-3.5s3.5 1.57 3.5 3.5v6c0 1.93-1.57 3.5-3.5 3.5z" fill="url(#E)"/><linearGradient id="F" x1="95" x2="95" y1="33.625" y2="46.625" gradientUnits="userSpaceOnUse"><stop stop-color="#FBC02D" offset="0"/><stop stop-color="#FAB022" offset=".102"/><stop stop-color="#F89913" offset=".286"/><stop stop-color="#F68908" offset=".486"/><stop stop-color="#F57F02" offset=".708"/><stop stop-color="#F57C00" offset=".999"/></linearGradient><path d="M95 46.62c-1.93 0-3.5-1.57-3.5-3.5v-6c0-1.92 1.57-3.5 3.5-3.5s3.5 1.57 3.5 3.5v6c0 1.93-1.57 3.5-3.5 3.5z" fill="url(#F)"/><linearGradient id="G" x1="102.5" x2="102.5" y1="33.625" y2="46.625" gradientUnits="userSpaceOnUse"><stop stop-color="#FBC02D" offset="0"/><stop stop-color="#FAB022" offset=".102"/><stop stop-color="#F89913" offset=".286"/><stop stop-color="#F68908" offset=".486"/><stop stop-color="#F57F02" offset=".708"/><stop stop-color="#F57C00" offset=".999"/></linearGradient><path d="M102.5 46.62c-1.93 0-3.5-1.57-3.5-3.5v-6c0-1.92 1.57-3.5 3.5-3.5s3.5 1.57 3.5 3.5v6c0 1.93-1.57 3.5-3.5 3.5z" fill="url(#G)"/><linearGradient id="H" x1="25.5" x2="25.5" y1="90.925" y2="103.92" gradientUnits="userSpaceOnUse"><stop stop-color="#2196F3" offset="0"/><stop stop-color="#1F8DEA" offset=".459"/><stop stop-color="#1E88E5" offset="1"/></linearGradient><path d="M25.5 103.93a3.51 3.51 0 0 1-3.5-3.5v-6c0-1.92 1.57-3.5 3.5-3.5 1.92 0 3.5 1.57 3.5 3.5v6c0 1.92-1.57 3.5-3.5 3.5z" fill="url(#H)"/><linearGradient id="I" x1="33.5" x2="33.5" y1="90.925" y2="103.92" gradientUnits="userSpaceOnUse"><stop stop-color="#2196F3" offset="0"/><stop stop-color="#1F8DEA" offset=".459"/><stop stop-color="#1E88E5" offset="1"/></linearGradient><path d="M33.5 103.93a3.51 3.51 0 0 1-3.5-3.5v-6c0-1.92 1.57-3.5 3.5-3.5 1.92 0 3.5 1.57 3.5 3.5v6c0 1.92-1.57 3.5-3.5 3.5z" fill="url(#I)"/><linearGradient id="J" x1="41.5" x2="41.5" y1="90.925" y2="103.92" gradientUnits="userSpaceOnUse"><stop stop-color="#2196F3" offset="0"/><stop stop-color="#1F8DEA" offset=".459"/><stop stop-color="#1E88E5" offset="1"/></linearGradient><path d="M41.5 103.93a3.51 3.51 0 0 1-3.5-3.5v-6c0-1.92 1.57-3.5 3.5-3.5 1.92 0 3.5 1.57 3.5 3.5v6c0 1.92-1.57 3.5-3.5 3.5z" fill="url(#J)"/><linearGradient id="K" x1="67.5" x2="67.5" y1="90.925" y2="103.92" gradientUnits="userSpaceOnUse"><stop stop-color="#2196F3" offset="0"/><stop stop-color="#1F8DEA" offset=".459"/><stop stop-color="#1E88E5" offset="1"/></linearGradient><path d="M67.5 103.93a3.51 3.51 0 0 1-3.5-3.5v-6c0-1.92 1.57-3.5 3.5-3.5s3.5 1.57 3.5 3.5v6c0 1.92-1.57 3.5-3.5 3.5z" fill="url(#K)"/><linearGradient id="L" x1="59.5" x2="59.5" y1="90.925" y2="103.92" gradientUnits="userSpaceOnUse"><stop stop-color="#2196F3" offset="0"/><stop stop-color="#1F8DEA" offset=".459"/><stop stop-color="#1E88E5" offset="1"/></linearGradient><path d="M59.5 103.93a3.51 3.51 0 0 1-3.5-3.5v-6c0-1.92 1.57-3.5 3.5-3.5 1.92 0 3.5 1.57 3.5 3.5v6c0 1.92-1.57 3.5-3.5 3.5z" fill="url(#L)"/><linearGradient id="M" x1="79" x2="79" y1="90.925" y2="103.92" gradientUnits="userSpaceOnUse"><stop stop-color="#2196F3" offset="0"/><stop stop-color="#1F8DEA" offset=".459"/><stop stop-color="#1E88E5" offset="1"/></linearGradient><path d="M79 103.93a3.51 3.51 0 0 1-3.5-3.5v-6c0-1.92 1.57-3.5 3.5-3.5s3.5 1.57 3.5 3.5v6c0 1.92-1.57 3.5-3.5 3.5z" fill="url(#M)"/><linearGradient id="N" x1="86.5" x2="86.5" y1="90.925" y2="103.92" gradientUnits="userSpaceOnUse"><stop stop-color="#2196F3" offset="0"/><stop stop-color="#1F8DEA" offset=".459"/><stop stop-color="#1E88E5" offset="1"/></linearGradient><path d="M86.5 103.93a3.51 3.51 0 0 1-3.5-3.5v-6c0-1.92 1.57-3.5 3.5-3.5s3.5 1.57 3.5 3.5v6c0 1.92-1.57 3.5-3.5 3.5z" fill="url(#N)"/><linearGradient id="O" x1="94" x2="94" y1="90.925" y2="103.92" gradientUnits="userSpaceOnUse"><stop stop-color="#2196F3" offset="0"/><stop stop-color="#1F8DEA" offset=".459"/><stop stop-color="#1E88E5" offset="1"/></linearGradient><path d="M94 103.93a3.51 3.51 0 0 1-3.5-3.5v-6c0-1.92 1.57-3.5 3.5-3.5s3.5 1.57 3.5 3.5v6c0 1.92-1.57 3.5-3.5 3.5z" fill="url(#O)"/><linearGradient id="P" x1="101.5" x2="101.5" y1="90.925" y2="103.92" gradientUnits="userSpaceOnUse"><stop stop-color="#2196F3" offset="0"/><stop stop-color="#1F8DEA" offset=".459"/><stop stop-color="#1E88E5" offset="1"/></linearGradient><path d="M101.5 103.93a3.51 3.51 0 0 1-3.5-3.5v-6c0-1.92 1.57-3.5 3.5-3.5s3.5 1.57 3.5 3.5v6c0 1.92-1.57 3.5-3.5 3.5z" fill="url(#P)"/><linearGradient id="Q" x1="86.5" x2="86.5" y1="14.358" y2="26.196" gradientUnits="userSpaceOnUse"><stop stop-color="#F44336" offset=".001"/><stop stop-color="#E51D25" offset="1"/></linearGradient><path d="M86.5 27.02c-1.93 0-3.5-1.57-3.5-3.5v-6c0-1.92 1.57-3.5 3.5-3.5s3.5 1.57 3.5 3.5v6c0 1.93-1.57 3.5-3.5 3.5z" fill="url(#Q)"/><linearGradient id="R" x1="94.5" x2="94.5" y1="14.358" y2="26.196" gradientUnits="userSpaceOnUse"><stop stop-color="#F44336" offset=".001"/><stop stop-color="#E51D25" offset="1"/></linearGradient><path d="M94.5 27.02c-1.93 0-3.5-1.57-3.5-3.5v-6c0-1.92 1.57-3.5 3.5-3.5s3.5 1.57 3.5 3.5v6c0 1.93-1.57 3.5-3.5 3.5z" fill="url(#R)"/><linearGradient id="S" x1="102.5" x2="102.5" y1="14.358" y2="26.196" gradientUnits="userSpaceOnUse"><stop stop-color="#F44336" offset=".001"/><stop stop-color="#E51D25" offset="1"/></linearGradient><path d="M102.5 27.02c-1.93 0-3.5-1.57-3.5-3.5v-6c0-1.92 1.57-3.5 3.5-3.5s3.5 1.57 3.5 3.5v6c0 1.93-1.57 3.5-3.5 3.5z" fill="url(#S)"/><path d="M20 8v105h-4V8h4m0-2h-4c-1.1 0-2 .9-2 2v105c0 1.1.9 2 2 2h4c1.1 0 2-.9 2-2V8c0-1.1-.9-2-2-2zM112 8v105h-4V8h4m0-2h-4c-1.1 0-2 .9-2 2v105c0 1.1.9 2 2 2h4c1.1 0 2-.9 2-2V8c0-1.1-.9-2-2-2z" fill="#424242" opacity=".2"/><linearGradient id="T" x1="64" x2="64" y1="112.12" y2="123.89" gradientUnits="userSpaceOnUse"><stop stop-color="#FFF9C4" offset="0"/><stop stop-color="#FEE897" offset=".072"/><stop stop-color="#FCD565" offset=".164"/><stop stop-color="#FBC946" offset=".234"/><stop stop-color="#FBC53A" offset=".273"/><stop stop-color="#FBC539" offset=".294"/><stop stop-color="#FBC130" offset=".586"/><stop stop-color="#FBC02D" offset="1"/></linearGradient><path d="M118 124H10c-1.1 0-2-.9-2-2v-8c0-1.1.9-2 2-2h108c1.1 0 2 .9 2 2v8c0 1.1-.9 2-2 2z" fill="url(#T)"/><path d="M118 114v8H10v-8h108m0-2H10c-1.1 0-2 .9-2 2v8c0 1.1.9 2 2 2h108c1.1 0 2-.9 2-2v-8c0-1.1-.9-2-2-2z" fill="#424242" opacity=".2"/><g fill="#424242" opacity=".2"><path d="M25.5 16.02c.83 0 1.5.67 1.5 1.5v6c0 .83-.67 1.5-1.5 1.5s-1.5-.67-1.5-1.5v-6c0-.82.67-1.5 1.5-1.5m0-2a3.51 3.51 0 0 0-3.5 3.5v6c0 1.92 1.58 3.5 3.5 3.5s3.5-1.58 3.5-3.5v-6c0-1.92-1.58-3.5-3.5-3.5zM33 16.02c.83 0 1.5.67 1.5 1.5v6c0 .83-.67 1.5-1.5 1.5s-1.5-.67-1.5-1.5v-6c0-.82.67-1.5 1.5-1.5m0-2a3.51 3.51 0 0 0-3.5 3.5v6c0 1.92 1.58 3.5 3.5 3.5s3.5-1.58 3.5-3.5v-6c0-1.92-1.58-3.5-3.5-3.5zM40.5 16.02c.83 0 1.5.67 1.5 1.5v6c0 .83-.67 1.5-1.5 1.5s-1.5-.67-1.5-1.5v-6c0-.82.67-1.5 1.5-1.5m0-2a3.51 3.51 0 0 0-3.5 3.5v6c0 1.92 1.58 3.5 3.5 3.5s3.5-1.58 3.5-3.5v-6c0-1.92-1.58-3.5-3.5-3.5zM48 16.02c.83 0 1.5.67 1.5 1.5v6c0 .83-.67 1.5-1.5 1.5s-1.5-.67-1.5-1.5v-6c0-.82.67-1.5 1.5-1.5m0-2a3.51 3.51 0 0 0-3.5 3.5v6c0 1.92 1.58 3.5 3.5 3.5s3.5-1.58 3.5-3.5v-6c0-1.92-1.58-3.5-3.5-3.5zM55.5 16.02c.83 0 1.5.67 1.5 1.5v6c0 .83-.67 1.5-1.5 1.5s-1.5-.67-1.5-1.5v-6c0-.82.67-1.5 1.5-1.5m0-2a3.51 3.51 0 0 0-3.5 3.5v6c0 1.92 1.58 3.5 3.5 3.5s3.5-1.58 3.5-3.5v-6c0-1.92-1.58-3.5-3.5-3.5zM65.5 16.02c.83 0 1.5.67 1.5 1.5v6c0 .83-.67 1.5-1.5 1.5s-1.5-.67-1.5-1.5v-6c0-.82.67-1.5 1.5-1.5m0-2a3.51 3.51 0 0 0-3.5 3.5v6c0 1.92 1.58 3.5 3.5 3.5 1.93 0 3.5-1.58 3.5-3.5v-6c0-1.92-1.57-3.5-3.5-3.5zM86.5 16.02c.83 0 1.5.67 1.5 1.5v6c0 .83-.67 1.5-1.5 1.5s-1.5-.67-1.5-1.5v-6c0-.82.67-1.5 1.5-1.5m0-2c-1.93 0-3.5 1.57-3.5 3.5v6c0 1.92 1.57 3.5 3.5 3.5s3.5-1.58 3.5-3.5v-6c0-1.92-1.57-3.5-3.5-3.5zM94.5 16.02c.83 0 1.5.67 1.5 1.5v6c0 .83-.67 1.5-1.5 1.5s-1.5-.67-1.5-1.5v-6c0-.82.67-1.5 1.5-1.5m0-2c-1.93 0-3.5 1.57-3.5 3.5v6c0 1.92 1.57 3.5 3.5 3.5s3.5-1.58 3.5-3.5v-6c0-1.92-1.57-3.5-3.5-3.5zM102.5 16.02c.83 0 1.5.67 1.5 1.5v6c0 .83-.67 1.5-1.5 1.5s-1.5-.67-1.5-1.5v-6c0-.82.67-1.5 1.5-1.5m0-2c-1.93 0-3.5 1.57-3.5 3.5v6c0 1.92 1.57 3.5 3.5 3.5s3.5-1.58 3.5-3.5v-6c0-1.92-1.57-3.5-3.5-3.5z"/></g><g fill="#424242" opacity=".2"><path d="M25.5 35.62c.83 0 1.5.67 1.5 1.5v6c0 .83-.67 1.5-1.5 1.5s-1.5-.67-1.5-1.5v-6c0-.82.67-1.5 1.5-1.5m0-2c-1.92 0-3.5 1.58-3.5 3.5v6c0 1.92 1.58 3.5 3.5 3.5s3.5-1.58 3.5-3.5v-6c0-1.92-1.58-3.5-3.5-3.5zM33.5 35.62c.83 0 1.5.67 1.5 1.5v6c0 .83-.67 1.5-1.5 1.5s-1.5-.67-1.5-1.5v-6c0-.82.67-1.5 1.5-1.5m0-2c-1.92 0-3.5 1.58-3.5 3.5v6c0 1.92 1.58 3.5 3.5 3.5s3.5-1.58 3.5-3.5v-6c0-1.92-1.58-3.5-3.5-3.5zM43.5 35.62c.83 0 1.5.67 1.5 1.5v6c0 .83-.67 1.5-1.5 1.5s-1.5-.67-1.5-1.5v-6c0-.82.67-1.5 1.5-1.5m0-2c-1.92 0-3.5 1.58-3.5 3.5v6c0 1.92 1.58 3.5 3.5 3.5s3.5-1.58 3.5-3.5v-6c0-1.92-1.58-3.5-3.5-3.5zM72.5 35.62c.83 0 1.5.67 1.5 1.5v6c0 .83-.67 1.5-1.5 1.5s-1.5-.67-1.5-1.5v-6c0-.82.67-1.5 1.5-1.5m0-2a3.51 3.51 0 0 0-3.5 3.5v6c0 1.92 1.57 3.5 3.5 3.5s3.5-1.58 3.5-3.5v-6c0-1.92-1.57-3.5-3.5-3.5zM64.5 35.62c.83 0 1.5.67 1.5 1.5v6c0 .83-.67 1.5-1.5 1.5s-1.5-.67-1.5-1.5v-6c0-.82.67-1.5 1.5-1.5m0-2c-1.92 0-3.5 1.58-3.5 3.5v6c0 1.92 1.58 3.5 3.5 3.5 1.93 0 3.5-1.58 3.5-3.5v-6c0-1.92-1.57-3.5-3.5-3.5zM80 35.62c.83 0 1.5.67 1.5 1.5v6c0 .83-.67 1.5-1.5 1.5s-1.5-.67-1.5-1.5v-6c0-.82.67-1.5 1.5-1.5m0-2a3.51 3.51 0 0 0-3.5 3.5v6c0 1.92 1.57 3.5 3.5 3.5s3.5-1.58 3.5-3.5v-6c0-1.92-1.57-3.5-3.5-3.5zM87.5 35.62c.83 0 1.5.67 1.5 1.5v6c0 .83-.67 1.5-1.5 1.5s-1.5-.67-1.5-1.5v-6c0-.82.67-1.5 1.5-1.5m0-2a3.51 3.51 0 0 0-3.5 3.5v6c0 1.92 1.57 3.5 3.5 3.5s3.5-1.58 3.5-3.5v-6c0-1.92-1.57-3.5-3.5-3.5zM95 35.62c.83 0 1.5.67 1.5 1.5v6c0 .83-.67 1.5-1.5 1.5s-1.5-.67-1.5-1.5v-6c0-.82.67-1.5 1.5-1.5m0-2a3.51 3.51 0 0 0-3.5 3.5v6c0 1.92 1.57 3.5 3.5 3.5s3.5-1.58 3.5-3.5v-6c0-1.92-1.57-3.5-3.5-3.5zM102.5 35.62c.83 0 1.5.67 1.5 1.5v6c0 .83-.67 1.5-1.5 1.5s-1.5-.67-1.5-1.5v-6c0-.82.67-1.5 1.5-1.5m0-2a3.51 3.51 0 0 0-3.5 3.5v6c0 1.92 1.57 3.5 3.5 3.5s3.5-1.58 3.5-3.5v-6c0-1.92-1.57-3.5-3.5-3.5z"/></g><linearGradient id="U" x1="56.5" x2="56.5" y1="33.625" y2="46.625" gradientUnits="userSpaceOnUse"><stop stop-color="#FBC02D" offset="0"/><stop stop-color="#FAB022" offset=".102"/><stop stop-color="#F89913" offset=".286"/><stop stop-color="#F68908" offset=".486"/><stop stop-color="#F57F02" offset=".708"/><stop stop-color="#F57C00" offset=".999"/></linearGradient><path d="M56.5 46.62c-1.93 0-3.5-1.57-3.5-3.5v-6c0-1.92 1.57-3.5 3.5-3.5 1.92 0 3.5 1.57 3.5 3.5v6c0 1.93-1.57 3.5-3.5 3.5z" fill="url(#U)"/><path d="M56.5 35.62c.83 0 1.5.67 1.5 1.5v6c0 .83-.67 1.5-1.5 1.5s-1.5-.67-1.5-1.5v-6c0-.82.67-1.5 1.5-1.5m0-2c-1.92 0-3.5 1.58-3.5 3.5v6c0 1.92 1.58 3.5 3.5 3.5s3.5-1.58 3.5-3.5v-6c0-1.92-1.58-3.5-3.5-3.5z" fill="#424242" opacity=".2"/><linearGradient id="V" x1="73.5" x2="73.5" y1="14" y2="27" gradientUnits="userSpaceOnUse"><stop stop-color="#F44336" offset=".001"/><stop stop-color="#E51D25" offset="1"/></linearGradient><path d="M73.5 27c-1.93 0-3.5-1.57-3.5-3.5v-6c0-1.92 1.57-3.5 3.5-3.5s3.5 1.57 3.5 3.5v6c0 1.93-1.57 3.5-3.5 3.5z" fill="url(#V)"/><path d="M73.5 16c.83 0 1.5.67 1.5 1.5v6c0 .83-.67 1.5-1.5 1.5s-1.5-.67-1.5-1.5v-6c0-.83.67-1.5 1.5-1.5m0-2a3.51 3.51 0 0 0-3.5 3.5v6c0 1.92 1.57 3.5 3.5 3.5s3.5-1.58 3.5-3.5v-6c0-1.92-1.57-3.5-3.5-3.5z" fill="#424242" opacity=".2"/><linearGradient id="W" x1="101.5" x2="101.5" y1="53" y2="66" gradientUnits="userSpaceOnUse"><stop stop-color="#FCEE21" offset="0"/><stop stop-color="#FAEC1D" offset=".051"/><stop stop-color="#F0E20D" offset=".316"/><stop stop-color="#EADC03" offset=".612"/><stop stop-color="#E8DA00" offset="1"/></linearGradient><path d="M101.5 66c-1.93 0-3.5-1.57-3.5-3.5v-6c0-1.92 1.57-3.5 3.5-3.5s3.5 1.57 3.5 3.5v6c0 1.93-1.57 3.5-3.5 3.5z" fill="url(#W)"/><path d="M101.5 55c.83 0 1.5.67 1.5 1.5v6c0 .83-.67 1.5-1.5 1.5s-1.5-.67-1.5-1.5v-6c0-.83.67-1.5 1.5-1.5m0-2a3.51 3.51 0 0 0-3.5 3.5v6c0 1.93 1.57 3.5 3.5 3.5s3.5-1.57 3.5-3.5v-6c0-1.92-1.57-3.5-3.5-3.5z" fill="#424242" opacity=".2"/><linearGradient id="X" x1="101.5" x2="101.5" y1="72" y2="85" gradientUnits="userSpaceOnUse"><stop stop-color="#8CC63F" offset="0"/><stop stop-color="#79C340" offset=".081"/><stop stop-color="#52BC42" offset=".277"/><stop stop-color="#33B643" offset=".471"/><stop stop-color="#1DB244" offset=".658"/><stop stop-color="#10B045" offset=".838"/><stop stop-color="#0BAF45" offset="1"/></linearGradient><path d="M101.5 85c-1.93 0-3.5-1.57-3.5-3.5v-6c0-1.93 1.57-3.5 3.5-3.5s3.5 1.57 3.5 3.5v6c0 1.93-1.57 3.5-3.5 3.5z" fill="url(#X)"/><path d="M101.5 74c.83 0 1.5.67 1.5 1.5v6c0 .83-.67 1.5-1.5 1.5s-1.5-.67-1.5-1.5v-6c0-.83.67-1.5 1.5-1.5m0-2c-1.93 0-3.5 1.57-3.5 3.5v6c0 1.93 1.57 3.5 3.5 3.5s3.5-1.57 3.5-3.5v-6c0-1.93-1.57-3.5-3.5-3.5z" fill="#424242" opacity=".2"/><linearGradient id="Y" x1="51.5" x2="51.5" y1="91" y2="104" gradientUnits="userSpaceOnUse"><stop stop-color="#2196F3" offset="0"/><stop stop-color="#1F8DEA" offset=".459"/><stop stop-color="#1E88E5" offset="1"/></linearGradient><path d="M51.5 104c-1.93 0-3.5-1.57-3.5-3.5v-6c0-1.93 1.57-3.5 3.5-3.5 1.92 0 3.5 1.57 3.5 3.5v6c0 1.93-1.57 3.5-3.5 3.5z" fill="url(#Y)"/><path d="M51.5 93c.83 0 1.5.67 1.5 1.5v6c0 .83-.67 1.5-1.5 1.5s-1.5-.67-1.5-1.5v-6c0-.83.67-1.5 1.5-1.5m0-2a3.51 3.51 0 0 0-3.5 3.5v6c0 1.93 1.58 3.5 3.5 3.5s3.5-1.57 3.5-3.5v-6c0-1.93-1.58-3.5-3.5-3.5z" fill="#424242" opacity=".2"/><linearGradient id="Z" x1="94" x2="94" y1="72" y2="85" gradientUnits="userSpaceOnUse"><stop stop-color="#8CC63F" offset="0"/><stop stop-color="#79C340" offset=".081"/><stop stop-color="#52BC42" offset=".277"/><stop stop-color="#33B643" offset=".471"/><stop stop-color="#1DB244" offset=".658"/><stop stop-color="#10B045" offset=".838"/><stop stop-color="#0BAF45" offset="1"/></linearGradient><path d="M94 85c-1.93 0-3.5-1.57-3.5-3.5v-6c0-1.93 1.57-3.5 3.5-3.5s3.5 1.57 3.5 3.5v6c0 1.93-1.57 3.5-3.5 3.5z" fill="url(#Z)"/><path d="M94 74c.83 0 1.5.67 1.5 1.5v6c0 .83-.67 1.5-1.5 1.5s-1.5-.67-1.5-1.5v-6c0-.83.67-1.5 1.5-1.5m0-2c-1.93 0-3.5 1.57-3.5 3.5v6c0 1.93 1.57 3.5 3.5 3.5s3.5-1.57 3.5-3.5v-6c0-1.93-1.57-3.5-3.5-3.5z" fill="#424242" opacity=".2"/><linearGradient id="aa" x1="86.5" x2="86.5" y1="72" y2="85" gradientUnits="userSpaceOnUse"><stop stop-color="#8CC63F" offset="0"/><stop stop-color="#79C340" offset=".081"/><stop stop-color="#52BC42" offset=".277"/><stop stop-color="#33B643" offset=".471"/><stop stop-color="#1DB244" offset=".658"/><stop stop-color="#10B045" offset=".838"/><stop stop-color="#0BAF45" offset="1"/></linearGradient><path d="M86.5 85c-1.93 0-3.5-1.57-3.5-3.5v-6c0-1.93 1.57-3.5 3.5-3.5s3.5 1.57 3.5 3.5v6c0 1.93-1.57 3.5-3.5 3.5z" fill="url(#aa)"/><path d="M86.5 74c.83 0 1.5.67 1.5 1.5v6c0 .83-.67 1.5-1.5 1.5s-1.5-.67-1.5-1.5v-6c0-.83.67-1.5 1.5-1.5m0-2c-1.93 0-3.5 1.57-3.5 3.5v6c0 1.93 1.57 3.5 3.5 3.5s3.5-1.57 3.5-3.5v-6c0-1.93-1.57-3.5-3.5-3.5z" fill="#424242" opacity=".2"/><g fill="#424242" opacity=".2"><path d="M25.5 54.93c.83 0 1.5.67 1.5 1.5v6c0 .83-.67 1.5-1.5 1.5s-1.5-.67-1.5-1.5v-6c0-.83.67-1.5 1.5-1.5m0-2c-1.92 0-3.5 1.58-3.5 3.5v6c0 1.93 1.58 3.5 3.5 3.5s3.5-1.57 3.5-3.5v-6c0-1.93-1.58-3.5-3.5-3.5zM33.5 54.93c.83 0 1.5.67 1.5 1.5v6c0 .83-.67 1.5-1.5 1.5s-1.5-.67-1.5-1.5v-6c0-.83.67-1.5 1.5-1.5m0-2c-1.92 0-3.5 1.58-3.5 3.5v6c0 1.93 1.58 3.5 3.5 3.5s3.5-1.57 3.5-3.5v-6c0-1.93-1.58-3.5-3.5-3.5zM41.5 54.93c.83 0 1.5.67 1.5 1.5v6c0 .83-.67 1.5-1.5 1.5s-1.5-.67-1.5-1.5v-6c0-.83.67-1.5 1.5-1.5m0-2c-1.92 0-3.5 1.58-3.5 3.5v6c0 1.93 1.58 3.5 3.5 3.5s3.5-1.57 3.5-3.5v-6c0-1.93-1.58-3.5-3.5-3.5zM49.5 54.93c.83 0 1.5.67 1.5 1.5v6c0 .83-.67 1.5-1.5 1.5s-1.5-.67-1.5-1.5v-6c0-.83.67-1.5 1.5-1.5m0-2c-1.92 0-3.5 1.58-3.5 3.5v6c0 1.93 1.58 3.5 3.5 3.5s3.5-1.57 3.5-3.5v-6c0-1.93-1.58-3.5-3.5-3.5zM57.5 54.93c.83 0 1.5.67 1.5 1.5v6c0 .83-.67 1.5-1.5 1.5s-1.5-.67-1.5-1.5v-6c0-.83.67-1.5 1.5-1.5m0-2c-1.92 0-3.5 1.58-3.5 3.5v6c0 1.93 1.58 3.5 3.5 3.5s3.5-1.57 3.5-3.5v-6c0-1.93-1.58-3.5-3.5-3.5zM65.5 54.93c.83 0 1.5.67 1.5 1.5v6c0 .83-.67 1.5-1.5 1.5s-1.5-.67-1.5-1.5v-6c0-.83.67-1.5 1.5-1.5m0-2c-1.92 0-3.5 1.58-3.5 3.5v6c0 1.93 1.58 3.5 3.5 3.5 1.93 0 3.5-1.57 3.5-3.5v-6c0-1.93-1.57-3.5-3.5-3.5zM73.5 54.93c.83 0 1.5.67 1.5 1.5v6c0 .83-.67 1.5-1.5 1.5s-1.5-.67-1.5-1.5v-6c0-.83.67-1.5 1.5-1.5m0-2a3.51 3.51 0 0 0-3.5 3.5v6c0 1.93 1.57 3.5 3.5 3.5s3.5-1.57 3.5-3.5v-6c0-1.93-1.57-3.5-3.5-3.5zM81.5 54.93c.83 0 1.5.67 1.5 1.5v6c0 .83-.67 1.5-1.5 1.5s-1.5-.67-1.5-1.5v-6c0-.83.67-1.5 1.5-1.5m0-2a3.51 3.51 0 0 0-3.5 3.5v6c0 1.93 1.57 3.5 3.5 3.5s3.5-1.57 3.5-3.5v-6c0-1.93-1.57-3.5-3.5-3.5zM89.5 54.93c.83 0 1.5.67 1.5 1.5v6c0 .83-.67 1.5-1.5 1.5s-1.5-.67-1.5-1.5v-6c0-.83.67-1.5 1.5-1.5m0-2a3.51 3.51 0 0 0-3.5 3.5v6c0 1.93 1.57 3.5 3.5 3.5s3.5-1.57 3.5-3.5v-6c0-1.93-1.57-3.5-3.5-3.5z"/></g><g fill="#424242" opacity=".2"><path d="M25.5 92.93c.83 0 1.5.67 1.5 1.5v6c0 .83-.67 1.5-1.5 1.5s-1.5-.67-1.5-1.5v-6c0-.83.67-1.5 1.5-1.5m0-2a3.51 3.51 0 0 0-3.5 3.5v6c0 1.93 1.58 3.5 3.5 3.5s3.5-1.57 3.5-3.5v-6c0-1.93-1.58-3.5-3.5-3.5zM33.5 92.93c.83 0 1.5.67 1.5 1.5v6c0 .83-.67 1.5-1.5 1.5s-1.5-.67-1.5-1.5v-6c0-.83.67-1.5 1.5-1.5m0-2a3.51 3.51 0 0 0-3.5 3.5v6c0 1.93 1.58 3.5 3.5 3.5s3.5-1.57 3.5-3.5v-6c0-1.93-1.58-3.5-3.5-3.5zM41.5 92.93c.83 0 1.5.67 1.5 1.5v6c0 .83-.67 1.5-1.5 1.5s-1.5-.67-1.5-1.5v-6c0-.83.67-1.5 1.5-1.5m0-2a3.51 3.51 0 0 0-3.5 3.5v6c0 1.93 1.58 3.5 3.5 3.5s3.5-1.57 3.5-3.5v-6c0-1.93-1.58-3.5-3.5-3.5zM67.5 92.93c.83 0 1.5.67 1.5 1.5v6c0 .83-.67 1.5-1.5 1.5s-1.5-.67-1.5-1.5v-6c0-.83.67-1.5 1.5-1.5m0-2c-1.93 0-3.5 1.57-3.5 3.5v6c0 1.93 1.57 3.5 3.5 3.5s3.5-1.57 3.5-3.5v-6c0-1.93-1.57-3.5-3.5-3.5zM59.5 92.93c.83 0 1.5.67 1.5 1.5v6c0 .83-.67 1.5-1.5 1.5s-1.5-.67-1.5-1.5v-6c0-.83.67-1.5 1.5-1.5m0-2a3.51 3.51 0 0 0-3.5 3.5v6c0 1.93 1.58 3.5 3.5 3.5s3.5-1.57 3.5-3.5v-6c0-1.93-1.58-3.5-3.5-3.5zM79 92.93c.83 0 1.5.67 1.5 1.5v6c0 .83-.67 1.5-1.5 1.5s-1.5-.67-1.5-1.5v-6c0-.83.67-1.5 1.5-1.5m0-2c-1.93 0-3.5 1.57-3.5 3.5v6c0 1.93 1.57 3.5 3.5 3.5s3.5-1.57 3.5-3.5v-6c0-1.93-1.57-3.5-3.5-3.5zM86.5 92.93c.83 0 1.5.67 1.5 1.5v6c0 .83-.67 1.5-1.5 1.5s-1.5-.67-1.5-1.5v-6c0-.83.67-1.5 1.5-1.5m0-2c-1.93 0-3.5 1.57-3.5 3.5v6c0 1.93 1.57 3.5 3.5 3.5s3.5-1.57 3.5-3.5v-6c0-1.93-1.57-3.5-3.5-3.5zM94 92.93c.83 0 1.5.67 1.5 1.5v6c0 .83-.67 1.5-1.5 1.5s-1.5-.67-1.5-1.5v-6c0-.83.67-1.5 1.5-1.5m0-2c-1.93 0-3.5 1.57-3.5 3.5v6c0 1.93 1.57 3.5 3.5 3.5s3.5-1.57 3.5-3.5v-6c0-1.93-1.57-3.5-3.5-3.5zM101.5 92.93c.83 0 1.5.67 1.5 1.5v6c0 .83-.67 1.5-1.5 1.5s-1.5-.67-1.5-1.5v-6c0-.83.67-1.5 1.5-1.5m0-2c-1.93 0-3.5 1.57-3.5 3.5v6c0 1.93 1.57 3.5 3.5 3.5s3.5-1.57 3.5-3.5v-6c0-1.93-1.57-3.5-3.5-3.5z"/></g></svg>