<svg viewBox="0 0 128 128" width="128" height="128" xmlns="http://www.w3.org/2000/svg"><path d="M52.17 5.89c.4 0 .66.43.8 1.14.68 3.43.35 7.71-.93 9.54-.15.22-.34.4-.54.56.09.22.18.44.26.67.23.14.42.32.58.54.43.62.48 1.46.19 2.15.04.2.08.4.13.6h.05c.93 0 1.87.6 2.19 1.48.39 1.09-.22 2.44-1.3 2.87 1.46.05 2.6 1.73 2.12 3.11-.31.87-1.19 1.42-2.1 1.49.04.89.06 1.8.08 2.73 1.24 1.03 2.07 3.79.12 5.37 1.42.03 2.72 1.28 2.79 2.71.07 1.42-1.09 2.8-2.5 2.97 1.43.26 2.65 1.46 2.92 2.9.27 1.43-.43 2.99-1.68 3.75.16-.05.33-.08.49-.08 1.22 0 2.35 1.33 2.14 2.59-.15.88-.81 1.58-1.63 1.94.49.37 1.09.59 1.72.59.11 0 .23-.01.34-.02 2.1-.26 4.28-.4 6.52-.4h.25c3.45.02 6.52.17 9.24.45.63-.74 1.54-1.24 2.52-1.28h.13c1.38 0 2.71.92 3.25 2.18l.42.09c.57-.95 1.68-1.57 2.79-1.57.18 0 .37.02.55.05 1.46.28 2.6 1.71 2.56 3.19.42-.52 1.06-.75 1.72-.75.91 0 1.85.45 2.33 1.24.44.72.51 1.59.31 2.41 1.1.95 1.97 1.98 2.65 3.09.21-.02.43-.03.64-.03 2.07 0 3.89.89 3.33 3.37.5-.54 1.25-.82 1.99-.82.6 0 1.2.19 1.67.57 1.04.85 1.28 2.54.5 3.64.1-.01.19-.02.28-.02 1.32 0 2.57 1.15 2.62 2.47.05 1.38-1.21 2.67-2.59 2.67h-.12c.93.26.96 1.47.66 2.4-.73 2.3-2.73 2.72-4.19 2.72-.85 0-1.53-.14-1.66-.14-.02 0-.03 0-.02.01 1.19 1.89 1.2 4.48-.24 6.26 2.12 2.25.76 6.36-2.37 7.16.72 2.1.05 4.37-.63 6.48-.62 1.93-1.23 3.86-1.85 5.79.07.26.13.53.2.79.34 1.33.68 2.72.42 4.07-.27 1.37-1.26 2.45-2.62 2.76.4.93.39 2.5-.13 3.63.12.33.2.68.2 1.05v.05c0 1.67-1.37 3.04-3.04 3.04h-.92c-1.67 0-3.04-1.37-3.04-3.04v-.05c0-.57.17-1.09.44-1.54-.69-.06-1.31-.58-1.71-1.19-.23-.36-.41-.74-.53-1.15-.18.09-.37.14-.55.14s-.36-.05-.51-.17c.03.66-.28 1.3-.75 1.71.3.51.45 1.12.4 1.75v.05c-.12 1.58-1.46 2.8-3.03 2.8-.08 0-.16 0-.24-.01l-.92-.07a3.048 3.048 0 0 1-2.79-3.26v-.05c.01-.19.05-.37.1-.55-.14-.11-.27-.22-.38-.36-.21.12-.45.18-.7.18-.59 0-1.18-.34-1.45-.9-.37-.8-.01-1.88.76-2.25-.98-.15-1.85-.95-2.12-1.96s.06-2.18.82-2.86c-.89-.38-1.57-1.3-1.7-2.31-.12-.88.19-1.79.76-2.43l-.12-.49c-1.22-.7-2.06-2.13-2.06-3.61 0-.77.26-1.46.56-2.14-.3-.29-.57-.61-.77-.98-.22.01-.45.02-.67.04-.35.86-1.03 1.58-1.88 1.94-.42.18-.88.26-1.34.26-.86 0-1.72-.31-2.37-.88-.47.17-.98.25-1.52.25-1.58 0-3.38-.66-4.89-1.69-.4-.03-.79-.07-1.19-.1.11.57.56 4.37.44 5.15-.18 1.17-.82 2.24-1.01 3.41-.22 1.33.15 2.7 0 4.03-.15 1.24-1.07 2.58-2.26 2.58-.09 0-.19-.01-.28-.02.48 1.18.23 3.34-.82 4.45.61.56 1 1.35 1 2.23v.05c0 1.67-1.37 3.04-3.04 3.04h-.92c-1.67 0-3.04-1.37-3.04-3.04v-.05c0-.41.08-.79.23-1.15-.16-.17-.3-.37-.42-.61-.11-.21-.26-.97-.45-2.1a2.69 2.69 0 0 1-.78-.23c-.11.41-.29.8-.54 1.15.3.47.48 1.02.48 1.62v.05c0 1.67-1.37 3.04-3.04 3.04h-.92c-1.67 0-3.04-1.37-3.04-3.04v-.05c0-.35.07-.69.18-1a1.96 1.96 0 0 1-1.06-1.11c-.32-.87.07-1.96.86-2.41-.75-.01-1.24-.87-1.32-1.64-.09-.77.06-1.58-.18-2.32-.32-1.01-1.27-1.65-1.88-2.51s-.71-2.36.25-2.74c-1.02-.23-1.84-1.19-1.94-2.26-.09-1.07.55-2.17 1.52-2.58-1.12-.45-1.98-1.54-2.16-2.76-.19-1.22.3-2.53 1.24-3.31-.03.02-.06.04-.09.04-.49 0-1.36-2.49-1.39-2.76-.06-.74.12-1.49.47-2.15-.64-.83-1.01-1.87-1-2.91-.27.12-.55.17-.83.17-.95 0-1.91-.6-2.38-1.46-.6-1.11-.49-2.5-.01-3.67.24-.59.59-1.33 1.04-2.04-.08-.37-.14-.74-.2-1.11-1.03-.67-1.74-1.93-1.83-3.19-.12-1.64.55-3.22 1.46-4.61.01-.29.03-.59.05-.88-1.55-2.07-1.2-5.37.81-7.03.01-.08.03-.17.04-.25-.96-1.24-1.33-2.91-.96-4.43.34-1.42 1.24-2.52 2.29-3.09.06-.34.12-.67.18-1-.61-.4-1.07-1.07-1.22-1.79-.26-1.28.25-2.59.88-3.74-1.18-.34-2.13-1.38-2.36-2.58s.26-2.52 1.23-3.27c-.03.03-.07.04-.1.04-.57 0-1.47-3.18-1.47-3.54.03-1.33.72-2.73 1.87-3.46.23-.14.44-.26.64-.34-.07-.93-.13-1.84-.17-2.73a1.555 1.555 0 0 1-1.24-.29c-.54-.43-.75-1.2-.61-1.88s.6-1.26 1.18-1.65c-.93-.49-1.52-1.55-1.46-2.6.07-1.05.79-2.03 1.77-2.39-.81-.83-1.01-2.2-.47-3.23.27-.5 1.38-1.56 2.18-1.56.05 0 .1 0 .14.01.07-.18.14-.35.21-.52a.076.076 0 0 1-.02-.04c-.21-.16-.39-.34-.55-.57-1.28-1.83-1.61-6.11-.93-9.54.14-.71.4-1.14.8-1.14.26 0 .58.18.96.57.95.97 2.39 3.14 4.13 5.04.02 0 .04 0 .06.01.05.01.1.04.14.06.02-.01.04-.03.07-.04-.19-.79.16-1.69 1.4-2.67.56-.44 1.26-.66 1.97-.66.86 0 1.73.32 2.33.94.41-.48 1.05-.76 1.68-.76.14 0 .27.01.41.04.74.15 1.39.71 1.64 1.43.02 0 .04 0 .06.01.34-.34.81-.5 1.29-.5.51 0 1.04.19 1.41.54.23.22.4.49.53.78.54.22 1.04.5 1.52.8 1.72-1.89 3.14-4.04 4.09-5 .46-.4.78-.58 1.04-.58m0-1.94c-.82 0-1.58.37-2.34 1.14-.53.54-1.11 1.29-1.79 2.17-.39.51-.82 1.06-1.26 1.61a3.69 3.69 0 0 0-.38-.41 4.062 4.062 0 0 0-3.43-1 4.16 4.16 0 0 0-1.92-.96 4.06 4.06 0 0 0-2.47.28c-.71-.34-1.51-.53-2.33-.53-1.17 0-2.3.38-3.18 1.08-.31.25-.58.49-.81.73-.21-.27-.42-.54-.62-.8-.67-.88-1.26-1.63-1.79-2.17-.76-.77-1.52-1.14-2.34-1.14-.51 0-2.21.19-2.7 2.7-.62 3.15-.54 7.34.67 10.01-.72.54-1.27 1.21-1.51 1.68-.59 1.11-.68 2.41-.33 3.58-.69.77-1.13 1.77-1.2 2.83-.06 1 .21 1.99.75 2.82-.2.36-.34.75-.43 1.15-.3 1.43.2 2.92 1.3 3.79.19.15.39.28.6.38v.07c-1.44 1.08-2.38 2.93-2.43 4.81-.01.49.4 2.21 1 3.53-.63 1.09-.87 2.4-.63 3.66.23 1.19.87 2.25 1.77 3.02-.41 1.18-.5 2.27-.29 3.31.12.59.36 1.16.7 1.67-.93.88-1.61 2.05-1.92 3.37-.38 1.59-.19 3.29.51 4.76-1.65 2.21-1.9 5.37-.55 7.82-1.06 1.8-1.53 3.56-1.4 5.22.11 1.5.79 2.94 1.84 3.96-.25.46-.48.95-.7 1.48-.78 1.86-.74 3.81.09 5.34.67 1.24 1.94 2.14 3.29 2.39.12.37.27.72.45 1.07-.21.69-.29 1.41-.24 2.11 0 .03.25 1.41.9 2.64a5.684 5.684 0 0 0-.64 3.53c.15.97.57 1.89 1.18 2.64a4.54 4.54 0 0 0-.55 2.57c.09 1.03.56 2 1.26 2.73-.17 1.08.11 2.3.78 3.23.29.41.61.75.89 1.05.31.33.64.68.71.92.05.17.05.51.05.84s0 .7.04 1.1c.07.67.29 1.28.6 1.78-.32.86-.35 1.83-.03 2.71.17.46.43.89.76 1.26v.24c0 2.74 2.23 4.97 4.97 4.97H38c1.23 0 2.36-.45 3.23-1.19.86 1.5 2.47 2.51 4.32 2.51h.92c2.74 0 4.97-2.23 4.97-4.97v-.05c0-.81-.2-1.6-.58-2.31.43-.93.64-1.97.64-2.95 1.28-.78 2.13-2.28 2.3-3.75.1-.81.04-1.59-.01-2.27-.04-.62-.08-1.2 0-1.68.06-.39.23-.84.41-1.32.23-.62.49-1.32.61-2.12.08-.5.02-1.5-.07-2.54 1.28.54 2.59.83 3.79.83.39 0 .77-.03 1.13-.09.83.47 1.79.72 2.75.72.73 0 1.43-.14 2.09-.42.03-.01.07-.03.1-.04.14 1.38.77 2.7 1.72 3.68-.32.79-.44 1.66-.32 2.5.12.91.51 1.78 1.08 2.48-.34.93-.41 1.97-.15 2.94.22.82.67 1.56 1.26 2.14-.19.79-.14 1.63.22 2.39.44.95 1.29 1.64 2.29 1.9.14.89.53 1.73 1.13 2.43a4.926 4.926 0 0 0 3.39 1.73l.92.07c.13.01.26.02.39.02 1.97 0 3.71-1.18 4.51-2.88a4.983 4.983 0 0 0 4.77 3.55h.92c2.74 0 4.97-2.23 4.97-4.97v-.05c0-.32-.03-.65-.1-.97.25-.82.35-1.72.3-2.58a5.514 5.514 0 0 0 2.31-3.51c.35-1.8-.09-3.53-.44-4.92l-.06-.25 1.06-3.3.62-1.96c.52-1.64 1.2-3.75.99-5.94a6.625 6.625 0 0 0 2.85-3.8c.46-1.59.31-3.2-.38-4.54.63-1.28.85-2.76.66-4.2 2.47-.31 4.26-1.73 4.98-4.01.12-.37.3-1.11.24-1.93.21-.16.42-.33.6-.53.86-.89 1.33-2.08 1.29-3.26-.06-1.61-1.05-3.04-2.43-3.79.03-1.4-.55-2.81-1.68-3.73-.79-.65-1.82-1-2.9-1-.12 0-.24 0-.36.01-.14-.3-.31-.55-.48-.76-.87-1.09-2.31-1.72-4.1-1.79-.49-.67-1.03-1.29-1.62-1.88a4.92 4.92 0 0 0-.7-2.67c-.81-1.34-2.34-2.17-3.98-2.17-.17 0-.35.01-.52.03-.73-1.22-1.96-2.15-3.39-2.43-.3-.06-.61-.09-.92-.09-.96 0-1.91.29-2.73.79a5.45 5.45 0 0 0-3.72-1.49h-.21c-1.13.05-2.23.48-3.13 1.2-2.6-.23-5.46-.36-8.53-.37h-.26c-1.68 0-3.37.08-5.07.23.01-.03.01-.06.02-.09.2-1.17-.16-2.39-.97-3.36-.12-.14-.24-.27-.37-.39.43-1 .58-2.12.38-3.2-.18-.98-.64-1.88-1.28-2.61.61-.86.96-1.91.9-3-.07-1.41-.79-2.68-1.86-3.52.15-.48.23-.99.23-1.51.01-1.35-.49-2.73-1.3-3.74 0-.18-.01-.37-.01-.55.9-.49 1.6-1.28 1.94-2.24.43-1.22.22-2.64-.56-3.78-.11-.17-.24-.33-.37-.47.39-.94.46-2.02.1-3.02s-1.12-1.82-2.07-2.3c.01-.85-.24-1.69-.72-2.38 0-.01-.01-.01-.01-.02 1.48-2.61 1.62-7.19.95-10.57-.52-2.47-2.22-2.67-2.72-2.67z" fill="#A89B93"/><path d="M38 120.79h-.92c-1.67 0-3.04-1.37-3.04-3.04v-.05c0-1.67 1.37-3.04 3.04-3.04H38c1.67 0 3.04 1.37 3.04 3.04v.05c-.01 1.67-1.37 3.04-3.04 3.04zM46.46 122.11h-.92c-1.67 0-3.04-1.37-3.04-3.04v-.05c0-1.67 1.37-3.04 3.04-3.04h.92c1.67 0 3.04 1.37 3.04 3.04v.05c0 1.67-1.37 3.04-3.04 3.04zM76.29 121.43l-.92-.07a3.048 3.048 0 0 1-2.79-3.26v-.05c.13-1.66 1.6-2.92 3.26-2.79l.92.07c1.66.13 2.92 1.6 2.79 3.26v.05a3.048 3.048 0 0 1-3.26 2.79zM86.72 122.11h-.92c-1.67 0-3.04-1.37-3.04-3.04v-.05c0-1.67 1.37-3.04 3.04-3.04h.92c1.67 0 3.04 1.37 3.04 3.04v.05c-.01 1.67-1.37 3.04-3.04 3.04z" fill="#33423F"/><linearGradient id="a" x1="32.444" x2="26.868" y1="16.952" y2="6.611" gradientUnits="userSpaceOnUse"><stop stop-color="#AA9D94" offset="0"/><stop stop-color="#AEA197" offset=".437"/><stop stop-color="#BAABA0" offset=".866"/><stop stop-color="#BFB0A4" offset=".999"/></linearGradient><path d="M35.11 13.76c3.14 2.18-5.19 6.07-7.46 2.81-1.28-1.83-1.61-6.11-.93-9.54.23-1.17.78-1.57 1.76-.58 1.38 1.41 3.76 5.32 6.63 7.31z" fill="url(#a)"/><linearGradient id="b" x1="47.82" x2="52.687" y1="15.891" y2="6.564" gradientUnits="userSpaceOnUse"><stop stop-color="#AA9D94" offset="0"/><stop stop-color="#AEA197" offset=".437"/><stop stop-color="#BAABA0" offset=".866"/><stop stop-color="#BFB0A4" offset=".999"/></linearGradient><path d="M44.58 13.76c-3.14 2.18 5.19 6.07 7.46 2.81 1.28-1.83 1.61-6.11.93-9.54-.23-1.17-.78-1.57-1.76-.58-1.39 1.41-3.77 5.32-6.63 7.31z" fill="url(#b)"/><path d="M32.96 13.29c1.97 1.37-3.25 3.8-4.68 1.76-.8-1.15-1.01-3.83-.58-5.98.14-.73.49-.99 1.1-.36.87.88 2.36 3.33 4.16 4.58zM46.98 13.29c-1.97 1.37 3.25 3.8 4.68 1.76.8-1.15 1.01-3.83.58-5.98-.14-.73-.49-.99-1.1-.36-.87.88-2.36 3.33-4.16 4.58z" fill="#736357"/><path d="M76.64 116.92l-4.32.11s-18.15-50.44 6.5-50.44c13.62.01-2.18 50.33-2.18 50.33z" fill="#AA9D94"/><linearGradient id="c" x1="74.3" x2="77.004" y1="95.98" y2="117.07" gradientUnits="userSpaceOnUse"><stop stop-color="#8F847D" offset=".001"/><stop stop-color="#938880" offset=".418"/><stop stop-color="#9F9289" offset=".826"/><stop stop-color="#A6998F" offset=".997"/></linearGradient><path d="M66.5 100.49c0 1.63 1.01 3.21 2.44 3.81-.76.63-1.16 1.71-1.03 2.72s.81 1.93 1.7 2.31c-.76.68-1.09 1.85-.82 2.86s1.14 1.81 2.12 1.96c-.76.37-1.13 1.45-.76 2.25s1.41 1.14 2.14.72c.52.68 1.44.99 2.24.76s1.43-1 1.55-1.87c.35.91 1.36 1.47 2.26 1.26s1.6-1.17 1.55-2.15c.45.34 1.12.14 1.48-.3.37-.44.5-1.04.58-1.62.34-2.31.12-4.7-.63-6.89 1.66-1.55 2.4-4.12 1.84-6.39s-2.38-4.13-4.54-4.63c-.48-1.76-2.03-3.13-3.75-3.32s-3.5.82-4.31 2.44c-1.43-1.04-2.46.54-2.71 1.82-.28 1.49-1.35 2.7-1.35 4.26z" fill="url(#c)"/><linearGradient id="d" x1="36.198" x2="36.198" y1="90.788" y2="115.47" gradientUnits="userSpaceOnUse"><stop stop-color="#8F847D" offset=".001"/><stop stop-color="#938880" offset=".418"/><stop stop-color="#9F9289" offset=".826"/><stop stop-color="#A6998F" offset=".997"/></linearGradient><path d="M44.01 98.64c-.17-1.07-.33-2.14-.5-3.21-.15-.99-.32-2-.66-2.92 1.52-12.74 1.94-24.19-4.88-24.19-6.52 0-8.01 8.42-7.56 18.21-.29.08-.59.24-.9.49-.96.78-1.54 2.08-1.44 3.33.02.29 1.02 3.1 1.48 2.72-.94.78-1.43 2.08-1.24 3.31.19 1.22 1.04 2.31 2.16 2.76-.97.41-1.61 1.5-1.52 2.58.09 1.07.92 2.03 1.94 2.26-.97.38-.87 1.88-.25 2.74s1.56 1.5 1.88 2.51c.23.74.09 1.54.18 2.32.09.77.57 1.63 1.32 1.64-.79.46-1.17 1.54-.86 2.41.32.87 1.29 1.43 2.18 1.25.47-.1 1.3-.18 2.03-.36.24.59.72.95 1.61.74 1.56-.37 2.63-2.43 2.08-4 1.15-.41 2.07-1.48 2.35-2.72.28-1.25-.09-2.64-.94-3.55 1.08-1.31 1.74-3.01 1.84-4.74.07-1.2-.11-2.4-.3-3.58z" fill="url(#d)"/><linearGradient id="e" x1="64" x2="64" y1="8.193" y2="119.31" gradientUnits="userSpaceOnUse"><stop stop-color="#E3D3C8" offset="0"/><stop stop-color="#DCCCC2" offset=".251"/><stop stop-color="#C8B9B0" offset=".617"/><stop stop-color="#AD9F97" offset=".997"/></linearGradient><path d="M104.67 73.39c-.05-1.42-1.49-2.64-2.9-2.46.78-1.1.55-2.79-.5-3.64-1.04-.85-2.74-.73-3.66.26.62-2.74-1.66-3.54-3.96-3.35-.68-1.11-1.55-2.14-2.65-3.09.2-.82.13-1.69-.31-2.41-.83-1.36-3.04-1.71-4.05-.48.04-1.48-1.1-2.91-2.56-3.19-1.28-.25-2.67.41-3.34 1.52l-.42-.09c-.56-1.3-1.95-2.24-3.38-2.18-.97.04-1.89.54-2.52 1.28-2.72-.28-5.79-.43-9.24-.45-2.33-.01-4.59.13-6.77.4-.76.09-1.49-.13-2.06-.57.82-.36 1.48-1.06 1.63-1.94.24-1.43-1.25-2.95-2.63-2.52 1.25-.76 1.94-2.32 1.68-3.75-.27-1.43-1.48-2.64-2.92-2.9 1.41-.17 2.57-1.55 2.5-2.97s-1.36-2.68-2.79-2.71c1.95-1.57 1.12-4.34-.12-5.37-.02-.93-.05-1.84-.08-2.73.91-.07 1.79-.63 2.1-1.49.48-1.37-.66-3.05-2.12-3.11 1.08-.43 1.69-1.78 1.3-2.87-.32-.9-1.29-1.5-2.24-1.48-.04-.2-.08-.4-.13-.6.29-.69.24-1.53-.19-2.15-.15-.22-.35-.4-.58-.54-.15-.44-.32-.86-.5-1.27.11-.15.2-.31.25-.49.3-.98-.42-2.2-1.45-2.24-.05-1.21-1.47-2.51-2.7-2.2-.54-.37-1.13-.68-1.76-.95-.12-.29-.29-.56-.53-.78-.73-.68-2-.74-2.71-.04-.02 0-.04 0-.06-.01-.25-.72-.89-1.28-1.64-1.43-.76-.15-1.59.14-2.09.72-1.09-1.13-3.07-1.26-4.3-.28-1.24.98-1.6 1.88-1.4 2.67-.02.01-.04.03-.07.04-.05-.02-.09-.04-.14-.06-.86-.25-1.94.32-2.02 1.21-1.79-1.72-3.94 2.58-2.43 4.46-.07.17-.14.34-.21.52-.81-.14-2.04 1.02-2.32 1.55-.54 1.03-.35 2.4.47 3.23-.98.37-1.71 1.35-1.77 2.39-.07 1.05.53 2.11 1.46 2.6-.57.39-1.03.98-1.18 1.65-.14.68.07 1.45.61 1.88.34.27.82.38 1.24.29.04.89.1 1.8.17 2.73-.2.09-.42.2-.64.34-1.15.73-1.83 2.13-1.87 3.46-.01.37 1 3.94 1.57 3.5-.97.75-1.46 2.07-1.23 3.27s1.18 2.24 2.36 2.58c-.63 1.14-1.14 2.46-.88 3.74.14.72.61 1.39 1.22 1.79-.06.33-.12.66-.18 1-1.04.57-1.94 1.67-2.29 3.09-.37 1.52 0 3.2.96 4.43-.01.08-.03.17-.04.25-2 1.66-2.35 4.96-.81 7.03-.02.29-.03.59-.05.88-.91 1.39-1.58 2.97-1.46 4.61.09 1.26.8 2.52 1.83 3.19.06.37.13.74.2 1.11-.45.7-.8 1.45-1.04 2.04-.49 1.17-.6 2.56.01 3.67.6 1.11 2.05 1.8 3.21 1.29-.01 1.5.74 2.98 1.96 3.86.73.52 1.61.81 2.51.86.81.7 1.7 1.36 2.67 1.98.32.3.7.53 1.12.66.57.32 1.16.63 1.78.92.3.14.58.34.81.56-.47.81-.68 1.88-.69 2.58-.01 1.38.6 2.76 1.64 3.68-1.1.6-1.77 1.92-1.61 3.17.17 1.25 1.15 2.34 2.37 2.64-.77.54-1.18 1.55-1 2.47s.94 1.71 1.85 1.92c-1.36.8-1.57 3.01-.37 4.05.36.31.8.48 1.25.53.18 1.12.34 1.89.45 2.1.97 1.9 3.39 1.61 4.53.2.1.01.21.01.33 0 2.14-.24 2.78-3.56 2.14-5.13 1.33.23 2.39-1.21 2.55-2.55s-.22-2.7 0-4.03c.19-1.17.83-2.23 1.01-3.41.12-.78-.33-4.58-.44-5.15.39.04.78.07 1.19.1 2.03 1.38 4.58 2.1 6.41 1.45.99.88 2.49 1.13 3.7.61.85-.36 1.53-1.09 1.88-1.94l.67-.03c.64 1.15 1.86 1.99 3.19 2.08 1.57.11 3.15-.86 3.82-2.27h.52c1.1 1.1 2.98 1.26 4.4.54.17.12.33.25.47.4-.28.55-.37 1.31-.1 2.23.26.88.92 1.63 1.08 2.53.24 1.33-.64 2.6-.83 3.94-.26 1.79.87 3.68 2.57 4.3-.94 1.55-.91 3.63.08 5.15.41.62 1.06 1.18 1.78 1.2.47 1 1.49 1.67 2.63 1.65.23 0 .46-.04.68-.1.08.04.17.08.27.12 2.88 1.01 3.57-3.04 2.82-4.81 1.36-.3 2.35-1.39 2.62-2.76.26-1.35-.08-2.73-.42-4.07-.07-.26-.13-.53-.2-.79.62-1.93 1.23-3.86 1.85-5.79.68-2.11 1.35-4.38.63-6.48 3.12-.8 4.48-4.91 2.37-7.16 1.44-1.78 1.42-4.37.24-6.26-.08-.13 4.65 1.24 5.87-2.59.29-.92.27-2.14-.66-2.4 1.44.1 2.78-1.22 2.73-2.64z" fill="url(#e)"/><path d="M49.97 26.01c0-4.4-6.27-2.82-10.15-2.82s-10.15-1.58-10.15 2.82c0 2.58 1.73 13.6 10.15 13.6s10.15-11.02 10.15-13.6z" fill="#F6ECE3"/><path d="M41.02 37.54H38.6c-2.44 0-4.44-2-4.44-4.44s2-4.44 4.44-4.44h2.42c2.44 0 4.44 2 4.44 4.44s-2 4.44-4.44 4.44z" fill="#fff"/><g fill="#1E0E00"><circle cx="33.98" cy="27.33" r="2"/><circle cx="45.64" cy="27.33" r="2"/></g><path d="M36.88 30.43s3.04 3.85 6.08 0" fill="none" stroke="#595959" stroke-linecap="round" stroke-linejoin="round" stroke-miterlimit="10" stroke-width=".969"/><g fill="none" stroke="#404040" stroke-linecap="round" stroke-linejoin="round" stroke-miterlimit="10" stroke-width=".726"><path d="M39.9 33.79a2.087 2.087 0 0 1-3.43 1.63M39.89 32.46c0 2.77.97 3.4 2.12 3.38.53-.01 1-.21 1.36-.54"/></g><path d="M39.43 70.33c-.62.9-.4 2.27.46 2.94.87.67 2.25.52 2.96-.31.05.85.9 1.57 1.75 1.49.85-.09 1.53-.96 1.41-1.81" fill="none" stroke="#A89E94" stroke-linecap="round" stroke-linejoin="round" stroke-miterlimit="10" stroke-width=".969"/><path d="M77.06 72.42c.14 1.05 1.29 1.84 2.32 1.59s1.69-1.48 1.33-2.48c1.01 1.03 3.03.69 3.64-.62 1.04.1 2.04-.92 1.91-1.96-.12-1.04-1.33-1.8-2.32-1.45" fill="none" stroke="#A89E94" stroke-linecap="round" stroke-linejoin="round" stroke-miterlimit="10" stroke-width=".824"/><path d="M32 52.17c-.34.84.26 1.91 1.15 2.06s1.81-.66 1.77-1.56c.12.74 1.05 1.22 1.72.89s.85-1.37.33-1.91M42.79 103.44c-.55 1.01.96 2.3 1.87 1.61-.11.95 1.49 1.46 1.95.61" fill="none" stroke="#A89E94" stroke-linecap="round" stroke-linejoin="round" stroke-miterlimit="10" stroke-width=".969"/><path d="M79.66 90.08c1.11 1.08 3.34.39 3.64-1.13.21 1.09 1.51 1.83 2.55 1.45s1.56-1.79 1.01-2.76" fill="none" stroke="#A89E94" stroke-linecap="round" stroke-linejoin="round" stroke-miterlimit="10" stroke-width="1.254"/><path d="M49.31 85.21c-.06.76.6 1.49 1.36 1.52s1.47-.65 1.48-1.41c.53.73 1.6.99 2.4.59s1.24-1.42.97-2.28" fill="none" stroke="#A89E94" stroke-linecap="round" stroke-linejoin="round" stroke-miterlimit="10" stroke-width=".969"/></svg>