<svg viewBox="0 0 128 128" width="128" height="128" xmlns="http://www.w3.org/2000/svg" xmlns:xlink="http://www.w3.org/1999/xlink"><linearGradient id="a" x1="64" x2="64" y1="19.717" y2="107.7" gradientUnits="userSpaceOnUse"><stop stop-color="#FEE133" offset=".5"/><stop stop-color="#FEDE32" offset=".612"/><stop stop-color="#FCD32F" offset=".708"/><stop stop-color="#FAC12B" offset=".797"/><stop stop-color="#F7A924" offset=".883"/><stop stop-color="#F6A323" offset=".9"/></linearGradient><path d="M64 119.89C36.07 119.89 6 102.4 6 64S36.07 8.11 64 8.11c15.48 0 29.81 5.12 40.36 14.43C115.9 32.72 122 47.06 122 64c0 16.86-6.1 31.17-17.64 41.39-10.58 9.35-24.91 14.5-40.36 14.5z" fill="url(#a)"/><path d="M64 10.11c14.99 0 28.86 4.95 39.03 13.93C114.13 33.83 120 47.65 120 64c0 16.27-5.87 30.07-16.97 39.89-10.21 9.03-24.07 14-39.03 14-15.04 0-28.9-4.91-39.04-13.82C13.86 94.32 8 80.46 8 64c0-16.54 5.86-30.42 16.96-40.15C35.07 14.99 48.93 10.11 64 10.11m0-4c-31.15 0-60 20-60 57.89 0 37.68 28.85 57.89 60 57.89s60-20.73 60-57.89c0-37.37-28.85-57.89-60-57.89z" fill="#EB8F00"/><circle cx="80.44" cy="40.86" r="21.99" fill="#fff"/><path d="M80.44 22.86c7.37 0 13.92 4.41 16.68 11.24 3.73 9.2-.72 19.71-9.92 23.44-2.17.88-4.44 1.32-6.75 1.32-7.37 0-13.92-4.41-16.68-11.24-3.73-9.2.72-19.71 9.92-23.44 2.16-.87 4.43-1.32 6.75-1.32m0-4c-2.75 0-5.55.52-8.25 1.62-11.27 4.56-16.69 17.38-12.13 28.64 3.47 8.55 11.7 13.74 20.39 13.74 2.75 0 5.55-.52 8.25-1.62 11.26-4.56 16.68-17.39 12.12-28.65-3.46-8.54-11.69-13.73-20.38-13.73z" fill="#EB8F00"/><circle cx="80.44" cy="41" r="7" fill="#242424"/><circle cx="35.89" cy="56.91" r="16" fill="#fff"/><path d="M35.94 44.91c4.91 0 9.28 2.94 11.12 7.49 1.2 2.97 1.18 6.23-.07 9.18s-3.57 5.24-6.54 6.44c-1.45.59-2.96.88-4.5.88-4.91 0-9.28-2.94-11.12-7.49-2.48-6.13.48-13.14 6.61-15.62 1.45-.58 2.96-.88 4.5-.88m0-4c-2 0-4.04.38-6 1.18-8.19 3.32-12.13 12.65-8.82 20.83 2.52 6.22 8.51 9.99 14.83 9.99 2 0 4.04-.38 6-1.18 8.19-3.32 12.13-12.65 8.82-20.83-2.52-6.22-8.51-9.99-14.83-9.99z" fill="#EB8F00"/><circle cx="35.95" cy="57" r="7" fill="#242424"/><defs><path id="b" d="M66.78 76.47c-12.05 4.06-23.6 6.83-33.52 8.25-2.46.35-3.83 3.08-2.58 5.23 8.23 14.15 27.4 21.59 45.81 15.38 20.15-6.79 29.37-24.25 27.19-40.05-.34-2.44-3.06-3.75-5.21-2.55-8.76 4.88-19.63 9.67-31.69 13.74z"/></defs><clipPath id="c"><use xlink:href="#b"/></clipPath><path d="M66.78 76.47c-12.05 4.06-23.6 6.83-33.52 8.25-2.46.35-3.83 3.08-2.58 5.23 8.23 14.15 27.4 21.59 45.81 15.38 20.15-6.79 29.37-24.25 27.19-40.05-.34-2.44-3.06-3.75-5.21-2.55-8.76 4.88-19.63 9.67-31.69 13.74z" clip-path="url(#c)" fill="#242424"/><g clip-path="url(#c)" opacity=".6"><path d="M99.81 66.56c.77 6.86-.89 13.93-4.72 19.98-4.37 6.9-11.24 12.09-19.87 15-3.93 1.33-8 2-12.08 2-11.83 0-22.98-5.85-28.62-14.96 10.35-1.53 21.92-4.4 33.54-8.31 11.62-3.93 22.58-8.66 31.75-13.71m.38-4.28c-.58 0-1.17.14-1.72.45-8.76 4.88-19.63 9.67-31.69 13.74-12.05 4.06-23.6 6.83-33.52 8.25-2.46.35-3.83 3.08-2.58 5.23 6.23 10.72 18.75 17.59 32.46 17.59 4.39 0 8.89-.7 13.36-2.21 20.15-6.79 29.37-24.25 27.19-40.05-.26-1.81-1.83-3-3.5-3z"/></g><path d="M66.78 76.47c-12.05 4.06-23.6 6.83-33.52 8.25-2.46.35-3.83 3.08-2.58 5.23 8.23 14.15 27.4 21.59 45.81 15.38 20.15-6.79 29.37-24.25 27.19-40.05-.34-2.44-3.06-3.75-5.21-2.55-8.76 4.88-19.63 9.67-31.69 13.74z" fill="none"/><path d="M66.78 76.47c-12.05 4.06-23.6 6.83-33.52 8.25-2.46.35-3.83 3.08-2.58 5.23 8.23 14.15 27.4 21.59 45.81 15.38 20.15-6.79 29.37-24.25 27.19-40.05-.34-2.44-3.06-3.75-5.21-2.55-8.76 4.88-19.63 9.67-31.69 13.74z" fill="none"/><defs><path id="d" d="M34.79 89.27l14.11 41.85 64.48-21.73-14.1-41.85c-9.03 4.9-19.72 9.48-31.04 13.29-11.3 3.81-22.57 6.63-32.71 8.2"/></defs><clipPath id="e"><use xlink:href="#d"/></clipPath><path d="M67.1 124.92l-3.28.16c-9.5.45-17.56-6.88-18.01-16.38l-1.84-38.72 37.66-1.79 1.84 38.72c.45 9.5-6.88 17.56-16.37 18.01z" clip-path="url(#e)" fill="#E04C74"/><g clip-path="url(#e)" opacity=".3"><path d="M77.83 72.38l1.65 34.72c.35 7.28-5.29 13.48-12.57 13.82l-3.28.16c-.21.01-.43.02-.64.02-7.06 0-12.85-5.53-13.18-12.59l-1.65-34.72 29.67-1.41m3.81-4.19l-37.66 1.79 1.84 38.72c.44 9.22 8.05 16.4 17.18 16.4.28 0 .55-.01.83-.02l3.28-.16c9.5-.45 16.83-8.51 16.38-18.01l-1.85-38.72z" fill="#AB3F2E"/></g><path clip-path="url(#e)" fill="none" opacity=".3" stroke="#AB3F2E" stroke-linecap="round" stroke-miterlimit="10" stroke-width="4" d="M62.81 69.08l1.61 34.1"/></svg>