<svg viewBox="0 0 128 128" width="128" height="128" xmlns="http://www.w3.org/2000/svg"><linearGradient id="a" x1="82.335" x2="96.243" y1="104.25" y2="104.25" gradientUnits="userSpaceOnUse"><stop stop-color="#655C5A" offset=".158"/><stop stop-color="#5A5250" offset=".335"/><stop stop-color="#3D3736" offset=".646"/><stop stop-color="#141111" offset="1"/></linearGradient><path fill="url(#a)" d="M82.33 101.95h13.91v4.61H82.33z"/><path d="M95.74 102.45v3.61H82.83v-3.61h12.91m1-1H81.83v5.61h14.91v-5.61z" fill="#655C5A"/><linearGradient id="b" x1="28.816" x2="32.762" y1="116.46" y2="106.83" gradientUnits="userSpaceOnUse"><stop stop-color="#4E4545" offset=".21"/><stop stop-color="#433C3D" offset=".441"/><stop stop-color="#252529" offset=".844"/><stop stop-color="#181A20" offset="1"/></linearGradient><path d="M39.78 112.02c-.82 0-1.48-.12-1.83-.23l-18.34-6.13c-.43-.14-.78-.44-.99-.84s-.24-.86-.1-1.29c.23-.7.87-1.17 1.61-1.17.18 0 .35.03.52.08l17.7 5.87c.05.02.1.03.16.03.14 0 .28-.06.38-.17l9.62-10.94 1.85 4.77c-1.19 1.41-7.55 8.94-7.75 9.17-.47.53-1.5.85-2.83.85z" fill="url(#b)"/><path d="M48.34 98.16l1.44 3.72c-1.56 1.85-7.37 8.72-7.56 8.94-.36.43-1.3.69-2.45.69-.76 0-1.38-.11-1.67-.21l-18.35-6.14c-.63-.2-.97-.88-.77-1.5.16-.49.62-.82 1.13-.82.12 0 .25.02.36.06l17.71 5.87a.996.996 0 0 0 1.06-.29l9.1-10.32m.34-1.9l-10.16 11.56-17.71-5.87c-.23-.07-.45-.11-.68-.11-.92 0-1.78.59-2.09 1.52-.37 1.15.26 2.39 1.41 2.76l18.34 6.14c.46.15 1.19.26 1.98.26 1.21 0 2.55-.26 3.21-1.05l7.94-9.4-2.24-5.81z" fill="#4E4545"/><radialGradient id="c" cx="41.125" cy="112.35" r="9.476" gradientUnits="userSpaceOnUse"><stop stop-color="#AFB8B6" offset=".017"/><stop stop-color="#A4AEAD" offset=".183"/><stop stop-color="#869295" offset=".475"/><stop stop-color="#57656F" offset=".857"/><stop stop-color="#43535F" offset="1"/></radialGradient><path d="M44.55 123.4c-3.76 0-6.82-3.06-6.82-6.82s3.06-6.82 6.82-6.82 6.82 3.06 6.82 6.82-3.06 6.82-6.82 6.82z" fill="url(#c)"/><path d="M44.55 110.26c3.49 0 6.32 2.84 6.32 6.32s-2.84 6.32-6.32 6.32-6.32-2.84-6.32-6.32 2.84-6.32 6.32-6.32m0-1c-4.04 0-7.32 3.28-7.32 7.32s3.28 7.32 7.32 7.32 7.32-3.28 7.32-7.32-3.27-7.32-7.32-7.32z" fill="#2F3B4B"/><path d="M44.55 119.5c-1.61 0-2.92-1.31-2.92-2.92s1.31-2.92 2.92-2.92 2.92 1.31 2.92 2.92-1.31 2.92-2.92 2.92z" fill="#141111"/><path d="M44.55 114.16c1.33 0 2.42 1.08 2.42 2.42S45.89 119 44.55 119s-2.42-1.08-2.42-2.42 1.09-2.42 2.42-2.42m0-1c-1.89 0-3.42 1.53-3.42 3.42s1.53 3.42 3.42 3.42 3.42-1.53 3.42-3.42-1.53-3.42-3.42-3.42z" fill="#2F2829"/><path d="M44.55 116.75c-.76 0-1.38-.62-1.38-1.38v-10.72h2.75v10.72c.01.76-.61 1.38-1.37 1.38z" fill="#43535F"/><path d="M45.43 105.15v10.22c0 .48-.39.88-.88.88s-.88-.39-.88-.88v-10.22h1.76m1-1h-3.75v11.22c0 1.04.84 1.88 1.88 1.88s1.88-.84 1.88-1.88v-11.22h-.01z" fill="#2F3B4B"/><linearGradient id="d" x1="47.455" x2="47.455" y1="98.991" y2="106.73" gradientUnits="userSpaceOnUse"><stop stop-color="#B80000" offset=".351"/><stop stop-color="#AD0000" offset=".52"/><stop stop-color="#8F0000" offset=".817"/><stop stop-color="#7A0000" offset="1"/></linearGradient><path d="M44.25 106.82c-1.57 0-2.85-1.28-2.85-2.85v-1.4c0-.77.32-1.52.88-2.06l8.5-8.14 2.72 14.44h-9.25z" fill="url(#d)"/><path d="M50.46 93.37l2.44 12.94h-8.65c-1.3 0-2.35-1.05-2.35-2.35v-1.4c0-.64.26-1.26.72-1.7l7.84-7.49m.65-2l-9.17 8.78a3.35 3.35 0 0 0-1.03 2.42v1.4c0 1.85 1.5 3.35 3.35 3.35h9.86l-3.01-15.95z" fill="#7A0000"/><g opacity=".2"><radialGradient id="e" cx="50.842" cy="99.596" r="5.443" gradientUnits="userSpaceOnUse"><stop stop-color="#2F2829" offset=".15"/><stop stop-color="#241E1F" offset=".574"/><stop stop-color="#141111" offset="1"/></radialGradient><path fill="url(#e)" d="M51.09 106.82l-2.91-11.95 2.61-2.5 2.72 14.45z"/><path d="M50.46 93.37l2.44 12.94h-1.42l-2.75-11.29 1.73-1.65m.68-1.84l-.2.01-3.31 3.17 3.08 12.61h3.41l-2.98-15.79z" fill="#141111"/></g><radialGradient id="f" cx="93.315" cy="112.35" r="9.476" gradientUnits="userSpaceOnUse"><stop stop-color="#AFB8B6" offset=".017"/><stop stop-color="#A4AEAD" offset=".183"/><stop stop-color="#869295" offset=".475"/><stop stop-color="#57656F" offset=".857"/><stop stop-color="#43535F" offset="1"/></radialGradient><circle cx="96.74" cy="116.58" r="6.82" fill="url(#f)"/><path d="M96.74 110.26c3.49 0 6.32 2.84 6.32 6.32s-2.84 6.32-6.32 6.32-6.32-2.84-6.32-6.32 2.84-6.32 6.32-6.32m0-1c-4.04 0-7.32 3.28-7.32 7.32s3.28 7.32 7.32 7.32 7.32-3.28 7.32-7.32-3.27-7.32-7.32-7.32z" fill="#2F3B4B"/><circle cx="96.74" cy="116.58" r="2.92" fill="#141111"/><path d="M96.74 114.16c1.33 0 2.42 1.08 2.42 2.42S98.08 119 96.74 119s-2.42-1.08-2.42-2.42 1.09-2.42 2.42-2.42m0-1c-1.89 0-3.42 1.53-3.42 3.42s1.53 3.42 3.42 3.42 3.42-1.53 3.42-3.42-1.53-3.42-3.42-3.42z" fill="#2F2829"/><radialGradient id="g" cx="68.192" cy="94.695" r="3.089" gradientUnits="userSpaceOnUse"><stop stop-color="#AFB8B6" offset=".017"/><stop stop-color="#A4AEAD" offset=".183"/><stop stop-color="#869295" offset=".475"/><stop stop-color="#57656F" offset=".857"/><stop stop-color="#43535F" offset="1"/></radialGradient><path fill="url(#g)" d="M66.49 90.67h3.4v8.05h-3.4z"/><path d="M69.39 91.17v7.05h-2.4v-7.05h2.4m1-1h-4.4v9.05h4.4v-9.05z" fill="#2F3B4B"/><linearGradient id="h" x1="66.517" x2="66.517" y1="87.378" y2="70.078" gradientUnits="userSpaceOnUse"><stop stop-color="#4E4545" offset="0"/><stop stop-color="#433B3B" offset=".269"/><stop stop-color="#252021" offset=".74"/><stop stop-color="#141111" offset=".977"/></linearGradient><path d="M65.42 86.18c-.73-.96-2.49-3.92-2.49-10.13 0-6.22 1.77-9.18 2.5-10.14l4.47 1.95c-.68 1.05-1.97 3.64-1.97 8.19 0 4.52 1.4 6.96 2.18 7.96l-4.69 2.17z" fill="url(#h)"/><path d="M65.6 66.53l3.58 1.56c-.74 1.33-1.75 3.91-1.75 7.96 0 4.02 1.1 6.47 1.93 7.76l-3.76 1.74c-.75-1.15-2.16-4.04-2.16-9.5-.01-5.48 1.42-8.38 2.16-9.52m-.32-1.23c-.48.53-2.85 3.52-2.85 10.74s2.37 10.22 2.85 10.74l5.65-2.61s-2.5-2.18-2.5-8.13c0-5.9 2.24-8.4 2.24-8.4l-5.39-2.34z" fill="#655C5A"/><linearGradient id="i" x1="68.442" x2="68.442" y1="107.99" y2="91.029" gradientUnits="userSpaceOnUse"><stop stop-color="#CB0A05" offset="0"/><stop stop-color="#F31612" offset=".271"/><stop stop-color="#F31612" offset=".892"/><stop stop-color="#D80E09" offset=".956"/><stop stop-color="#CB0A05" offset="1"/></linearGradient><path d="M55.28 109.33c-2.27 0-2.8-1.33-3.14-4.31l-2.15-15.06h36.9L84.75 105c-.34 2.99-.88 4.32-3.14 4.32H55.28z" fill="url(#i)"/><path d="M86.31 90.46l-2.07 14.51c-.35 3.07-.89 3.86-2.64 3.86H55.28c-1.75 0-2.29-.79-2.65-3.89l-2.06-14.48h35.74m1.16-1H49.42l2.23 15.62c.31 2.75.81 4.75 3.64 4.75H81.6c2.82 0 3.32-2.01 3.64-4.75l2.23-15.62z" fill="#B80000"/><g opacity=".2"><radialGradient id="j" cx="68.442" cy="90.713" r="13.055" gradientUnits="userSpaceOnUse"><stop stop-color="#2F2829" offset=".15"/><stop stop-color="#241E1F" offset=".574"/><stop stop-color="#141111" offset="1"/></radialGradient><path fill="url(#j)" d="M50.21 91.47l-.22-1.51h36.9l-.22 1.51z"/><path d="M86.31 90.46l-.07.51h-35.6l-.07-.51h35.74m1.16-1zm0 0H49.42l.36 2.51h37.33l.36-2.51z" fill="#141111"/></g><linearGradient id="k" x1="68.492" x2="68.492" y1="80.097" y2="89.135" gradientUnits="userSpaceOnUse"><stop stop-color="#4E4545" offset="0"/><stop stop-color="#433B3B" offset=".136"/><stop stop-color="#2F2829" offset=".303"/><stop stop-color="#241E1F" offset=".65"/><stop stop-color="#141111" offset="1"/></linearGradient><path d="M50.01 90.23a1.47 1.47 0 0 1-1.46-1.49l.08-4.61c.01-.79.66-1.44 1.46-1.45l38.16-.19.19 5.44c.02.64-.22 1.25-.67 1.72s-1.05.72-1.7.72l-36.06-.14z" fill="url(#k)"/><path d="M87.76 83.01l.17 4.95c.02.51-.17.99-.53 1.36-.35.37-.83.57-1.35.57L50 89.75c-.26 0-.5-.1-.68-.29s-.28-.43-.28-.69l.08-4.61c.01-.52.44-.95.96-.95l37.68-.2m.97-1.01l-38.65.2c-1.07.01-1.94.87-1.95 1.94l-.08 4.61c-.02 1.09.86 1.99 1.96 1.99l36.05.14h.01c1.62 0 2.91-1.34 2.87-2.95L88.73 82z" fill="#655C5A"/><linearGradient id="l" x1="68.442" x2="68.442" y1="93.366" y2="105.07" gradientUnits="userSpaceOnUse"><stop stop-color="#9F0B00" offset=".533"/><stop stop-color="#9F0B00" stop-opacity="0" offset=".976"/></linearGradient><path d="M54.11 105.07h28.67s-.88-11.71-13.93-11.71-14.74 11.71-14.74 11.71z" fill="url(#l)"/><radialGradient id="m" cx="63.365" cy="100.5" r="17.005" gradientUnits="userSpaceOnUse"><stop stop-color="#AFB8B6" offset=".017"/><stop stop-color="#A4AEAD" offset=".183"/><stop stop-color="#869295" offset=".475"/><stop stop-color="#57656F" offset=".857"/><stop stop-color="#43535F" offset="1"/></radialGradient><path d="M68.44 122.9c-7.07 0-12.82-5.75-12.82-12.82s5.75-12.82 12.82-12.82 12.82 5.75 12.82 12.82-5.75 12.82-12.82 12.82z" fill="url(#m)"/><path d="M68.44 98.26c6.52 0 11.82 5.3 11.82 11.82s-5.3 11.82-11.82 11.82-11.82-5.3-11.82-11.82 5.31-11.82 11.82-11.82m0-2c-7.63 0-13.82 6.19-13.82 13.82s6.19 13.82 13.82 13.82 13.82-6.19 13.82-13.82-6.19-13.82-13.82-13.82z" fill="#2F3B4B"/><path d="M68.44 116.01c-3.42 0-6.2-2.78-6.2-6.2s2.78-6.2 6.2-6.2 6.2 2.78 6.2 6.2-2.78 6.2-6.2 6.2z" fill="#AFB8B6"/><path d="M68.44 104.1c3.15 0 5.7 2.56 5.7 5.7 0 3.15-2.56 5.7-5.7 5.7s-5.7-2.56-5.7-5.7 2.56-5.7 5.7-5.7m0-1a6.7 6.7 0 1 0 0 13.4 6.7 6.7 0 0 0 0-13.4z" fill="#2F3B4B"/><path d="M68.44 111.79c-1.09 0-1.99-.89-1.99-1.98s.89-1.98 1.99-1.98c1.09 0 1.98.89 1.98 1.98s-.88 1.98-1.98 1.98z" fill="#2F2829"/><path d="M68.44 108.32c.82 0 1.48.67 1.48 1.48s-.67 1.48-1.48 1.48-1.48-.67-1.48-1.48.66-1.48 1.48-1.48m0-1a2.48 2.48 0 1 0 2.48 2.48c.01-1.37-1.11-2.48-2.48-2.48z" fill="#141111"/><path d="M96.74 116.75c-.76 0-1.38-.62-1.38-1.38V99.74h2.75v15.63c.01.76-.61 1.38-1.37 1.38z" fill="#43535F"/><path d="M97.62 100.24v15.13c0 .48-.39.88-.88.88s-.88-.39-.88-.88v-15.13h1.76m1-1h-3.75v16.13c0 1.04.84 1.88 1.88 1.88s1.88-.84 1.88-1.88V99.24h-.01z" fill="#2F3B4B"/><ellipse cx="96.74" cy="99.35" rx="1.88" ry=".75" fill="#070606"/><path d="M51.65 66v-.86c0-.84.17-1.93.68-2.6.11-.14.2-.31.27-.49.31-.9-.17-1.87-1.07-2.18s-1.87.17-2.18 1.07c-.18.54-.09 1.1.22 1.54.5.72.57 1.38.58 2.26v.77c0 .22.43.57.63.63.05.02.1.03.16.03.28 0 .71.1.71-.17z" stroke="#655C5A" stroke-linecap="round" stroke-linejoin="round" stroke-miterlimit="10"/><path d="M55.78 64.16L54.5 65.5h-6.92l-6.6-3.42c-.37-.19-1.5.39-.53 1.2l7.65 5.43c.45.32 1 .49 1.55.49h2.45c1.54 0 2.35-.84 3.17-2.16.31-.51.6-1.09.6-1.09l-.09-1.79z" stroke="#655C5A" stroke-linecap="round" stroke-linejoin="round" stroke-miterlimit="10"/><radialGradient id="n" cx="86.938" cy="32.086" r="4.689" gradientTransform="matrix(1.6234 .3557 -.214 .9768 -43.436 -29.126)" gradientUnits="userSpaceOnUse"><stop stop-color="#AFB8B6" offset=".017"/><stop stop-color="#A4AEAD" offset=".183"/><stop stop-color="#869295" offset=".475"/><stop stop-color="#57656F" offset=".857"/><stop stop-color="#43535F" offset="1"/></radialGradient><path fill="url(#n)" d="M88.24 41.47l2.82-12.88 2.5.55-2.82 12.87z"/><path d="M91.44 29.19l1.53.33-2.61 11.9-1.53-.33 2.61-11.9m-.76-1.2l-3.04 13.85 3.48.76 3.04-13.85-3.48-.76z" fill="#2F3B4B"/><linearGradient id="o" x1="87.738" x2="97.665" y1="24.649" y2="26.172" gradientUnits="userSpaceOnUse"><stop stop-color="#4E4545" offset=".15"/><stop stop-color="#494141" offset=".203"/><stop stop-color="#231E1F" offset=".726"/><stop stop-color="#141111" offset="1"/></linearGradient><path d="M93.5 34.42c-.14 0-.28-.01-.42-.03l-3.79-.59c-.72-.11-1.35-.5-1.77-1.08-.43-.59-.6-1.3-.49-2.02l1.89-12.05a2.693 2.693 0 0 1 2.68-2.29c.14 0 .28.01.42.03l3.79.59c1.48.23 2.49 1.62 2.26 3.1l-1.89 12.05a2.734 2.734 0 0 1-2.68 2.29z" fill="url(#o)"/><path d="M91.59 16.85c.11 0 .23.01.35.03l3.79.59c1.21.19 2.03 1.32 1.84 2.53l-1.89 12.05a2.229 2.229 0 0 1-2.18 1.87c-.12 0-.23-.01-.35-.03l-3.79-.59a2.208 2.208 0 0 1-1.84-2.53l1.89-12.05c.16-1.07 1.1-1.87 2.18-1.87m0-1a3.21 3.21 0 0 0-3.17 2.72l-1.89 12.05c-.27 1.75.92 3.4 2.68 3.67l3.79.59a3.21 3.21 0 0 0 3.67-2.68l1.89-12.05c.27-1.75-.92-3.4-2.68-3.67l-3.79-.59c-.17-.03-.34-.04-.5-.04z" fill="#655C5A"/><linearGradient id="p" x1="79.873" x2="91.553" y1="58.565" y2="61.306" gradientUnits="userSpaceOnUse"><stop stop-color="#4E4545" offset="0"/><stop stop-color="#2F2929" offset=".502"/><stop stop-color="#141111" offset="1"/></linearGradient><path d="M86.49 84.28c-.12 0-.25-.01-.38-.03-3.71-.62-9.85-2.86-9.34-10.85.7-11.05 4.83-24.6 8.16-32.85.99-2.46 2.67-3.87 4.6-3.87 1.09 0 2.12.47 2.9 1.32.97 1.06 1.43 2.58 1.29 4.28-.6 7.3-3.69 30.43-4.99 40.04a2.272 2.272 0 0 1-2.24 1.96z" fill="url(#p)"/><path d="M89.53 37.18c.95 0 1.85.41 2.54 1.15.88.95 1.29 2.34 1.16 3.9-.62 7.54-3.97 32.53-4.98 40.01-.12.88-.87 1.54-1.75 1.54-.1 0-.2-.01-.3-.02-8.25-1.38-9.13-7.06-8.93-10.33.7-10.99 4.81-24.48 8.13-32.7.91-2.26 2.41-3.55 4.13-3.55m0-1c-1.88 0-3.88 1.26-5.06 4.18-3.64 9.03-7.53 22.5-8.2 33.01-.53 8.41 5.99 10.75 9.76 11.38.16.03.31.04.46.04 1.36 0 2.55-1.01 2.74-2.4 1.09-8.06 4.37-32.55 4.99-40.06.31-3.74-2.08-6.15-4.69-6.15z" fill="#655C5A"/><linearGradient id="q" x1="46.338" x2="86.479" y1="65.277" y2="65.277" gradientUnits="userSpaceOnUse"><stop stop-color="#4E4545" offset="0"/><stop stop-color="#433B3B" offset=".211"/><stop stop-color="#2F2829" offset=".47"/><stop stop-color="#241E1F" offset=".722"/><stop stop-color="#141111" offset=".977"/></linearGradient><path d="M59.67 67.83c-3.23-.17-3.72-.7-3.84-2.58-.17-2.58 1.39-2.92 3.77-3.15l.47-.05c1.2-.13 3.13-.19 5.73-.19 5.8 0 13.04.33 13.11.33 1.66 0 2.81.36 3.46 1.07.54.59.77 1.48.67 2.64-.16 1.86-1.96 2.8-5.35 2.8l-18.02-.87z" fill="url(#q)"/><path d="M65.8 62.36c5.78 0 13.02.33 13.14.33 1.49 0 2.52.3 3.07.9.45.49.63 1.23.54 2.26-.13 1.55-1.77 2.34-4.81 2.34l-18.04-.86c-3.1-.16-3.27-.6-3.37-2.12-.13-2.08.86-2.38 3.32-2.62l.47-.05c1.19-.12 3.1-.18 5.68-.18m0-1c-2.32 0-4.42.05-5.78.2-2.08.22-4.91.22-4.69 3.72.15 2.38 1.14 2.89 4.31 3.05l18.04.87c2.25 0 5.61-.42 5.86-3.26.25-2.93-1.39-4.25-4.6-4.25 0 0-7.27-.33-13.14-.33z" fill="#655C5A"/></svg>