<svg viewBox="0 0 128 128" width="128" height="128" xmlns="http://www.w3.org/2000/svg" xmlns:xlink="http://www.w3.org/1999/xlink"><defs><path id="a" d="M4 4h120v120H4z"/></defs><clipPath id="b"><use xlink:href="#a"/></clipPath><g clip-path="url(#b)"><linearGradient id="c" x1="119.99" x2="119.99" y1="148.47" y2="112.28" gradientUnits="userSpaceOnUse"><stop stop-color="#F78C1F" offset="0"/><stop stop-color="#F37F20" offset=".494"/><stop stop-color="#ED6D23" offset="1"/></linearGradient><path d="M42.11 155.68v-15.56c0-8.53 5.23-21.02 30.17-32.11 17.62-7.83 37.81-11.4 49.11-11.4 36.78 0 76.47 16.27 76.47 42.56v16.51H42.11z" fill="url(#c)"/><path d="M121.39 98.11c18.56 0 37.34 4.14 51.51 11.35 19.39 9.87 23.46 21.61 23.46 29.72v15.01H43.61v-14.06c0-15.42 18.34-25.87 29.28-30.74 17.42-7.75 37.35-11.28 48.5-11.28m0-3c-24.89 0-80.78 15.75-80.78 45.01v17.06h158.76v-18.01c-.01-27.62-40.96-44.06-77.98-44.06z" fill="#DA6727"/><path d="M119.25 109.38c-8.2 0-14.86-6.7-14.86-14.95V75.85h33v18.58c0 8.24-6.67 14.95-14.86 14.95h-3.28z" fill="#E59600"/><path d="M135.88 77.35v17.08c0 7.41-5.99 13.45-13.36 13.45h-3.27c-7.37 0-13.36-6.03-13.36-13.45V77.35h29.99m3-3h-36v20.08c0 9.08 7.33 16.45 16.36 16.45h3.27c9.04 0 16.36-7.36 16.36-16.45V74.35h.01z" fill="#D18100"/><path d="M171.81 76.42c.94-1.04 1.98-1.98 3.4-2.01 2.35-.06 5.99-.45 8.85-2.17.84-.5 1.55-1.2 2.08-2.04-2.01-.4-4.78-1.59-6.64-5.22-2.84-5.53.44-10.59 5.92-16.24 6.15-6.35 16.4-28.17 5.53-47.62-2.05-.29-31.72.15-39.24.15h-32.04V89.8c35.19 0 42.14-2.29 52.14-13.38zM67.51 76.42c-.94-1.04-1.98-1.98-3.4-2.01-2.35-.06-5.99-.45-8.85-2.17a6.24 6.24 0 0 1-2.08-2.04c2.01-.4 4.89-1.53 6.64-5.22 2.84-5.97-1.2-11.27-5.92-16.24-7.71-8.13-16.4-23.17-5.53-42.62 2.05-.29 31.72-4.85 39.24-4.85h32.04V89.8c-35.19 0-42.14-2.29-52.14-13.38z" fill="#543930"/><path d="M188.72 4.39l.46.88c9.65 18.52-.98 36.74-5.69 41.61-5.27 5.44-10.15 11.99-6.37 19.32.98 1.9 2.26 3.43 3.8 4.56-2.1.75-4.4.93-5.77.96-2.77.07-4.56 2.05-5.32 2.9-6.06 6.72-10.63 10.02-23.31 11.49 0 0-6.57 3.37-11.12 4.51v1.62c22.19-.79 29.33-3.98 38.4-14.04.7-.78 1.16-1.13 1.48-1.13 2.81-.07 6.84-.56 10.16-2.54a9.041 9.041 0 0 0 2.97-2.9l2.08-3.29-3.82-.76c-2.12-.42-3.69-1.67-4.79-3.82-1.84-3.58-.36-7.15 5.46-13.16 7.22-7.45 16.52-26.6 7.07-46.11 0 0 .01-.03.02-.09h-5.71zM51.97 50.58c4.83 5.09 7.64 9.2 5.44 13.26-2.7 4.97-8.57 4.51-8.57 4.51s2.89 9.99 15.2 8.73c.32-.03.84.31 1.48 1.13 8.68 11.04 15.32 15.5 37.33 13.41l.02-2.69c-3.83-1.07-6.97-2.78-6.97-2.78-14.68 1.28-20.35-4.8-26.41-11.52-.76-.85-2.55-2.83-5.32-2.9-1.36-.03-3.63-.21-5.72-.95 1.58-1.15 2.86-2.72 3.79-4.65 3.96-8.32-2.77-15.41-6.39-19.23-6.84-7.22-14.29-19.14-6.77-36.19l.51-1.16-.09-.16h-5.92c.04.1.07.2.12.31-7.75 19.05.6 32.79 8.27 40.88z" fill="#402720"/><path d="M70.82 50.25c-9.69 0-17.58-8.44-17.58-18.82S61.13 12.6 70.82 12.6h97.33c9.69 0 17.58 8.44 17.58 18.82s-7.89 18.82-17.58 18.82H70.82z" fill="#E59600"/><path d="M168.15 14.1c8.87 0 16.08 7.77 16.08 17.32s-7.21 17.32-16.08 17.32H70.82c-8.87 0-16.08-7.77-16.08-17.32S61.95 14.1 70.82 14.1h97.33m0-3H70.82c-10.49 0-19.08 9.15-19.08 20.32s8.59 20.32 19.08 20.32h97.33c10.49 0 19.08-9.15 19.08-20.32s-8.58-20.32-19.08-20.32z" fill="#D18100"/><linearGradient id="d" x1="122.36" x2="122.36" y1="-51.292" y2="94.884" gradientTransform="rotate(180 120.91 19.366)" gradientUnits="userSpaceOnUse"><stop stop-color="#FFB300" offset="0"/><stop stop-color="#FFB809" offset=".102"/><stop stop-color="#FFC21A" offset=".371"/><stop stop-color="#FFC825" offset=".659"/><stop stop-color="#FFCA28" offset="1"/></linearGradient><path d="M119.49 91.24c-14.2 0-28.53-7.96-39.3-21.85-11.53-14.87-18.24-35.3-18.9-57.54-.64-21.6 5.51-39.7 17.81-52.36 10.49-10.8 25.21-17 40.39-17 28.03 0 58.2 21.72 58.2 69.4 0 22.12-6.36 42.5-17.91 57.39-10.83 13.95-25.51 21.96-40.29 21.96z" fill="url(#d)"/><path d="M119.49-56.01c14.93 0 28.77 5.94 38.97 16.72 11.6 12.26 17.73 29.96 17.73 51.18 0 21.78-6.25 41.84-17.6 56.47-10.53 13.58-24.79 21.37-39.1 21.37-13.74 0-27.63-7.75-38.11-21.27C70.04 53.85 63.44 33.73 62.79 11.8c-.63-21.18 5.38-38.91 17.39-51.27 10.2-10.51 24.53-16.54 39.31-16.54m0-3c-30.12 0-61.1 23.48-59.7 70.9 1.42 47.99 29.92 80.85 59.7 80.85 30.99 0 59.7-33.15 59.7-80.85-.01-47.44-29.58-70.9-59.7-70.9z" fill="#ED9E00"/><ellipse cx="90.21" cy="28.78" rx="8.78" ry="9.09" fill="#404040"/><ellipse cx="148.76" cy="28.78" rx="8.78" ry="9.09" fill="#404040"/><g fill="#6D4C41"><path d="M103.43 12.77c-1.65-2.19-5.47-5.37-12.88-5.37s-11.23 3.18-12.88 5.37c-.73.97-.55 2.08-.04 2.76.47.63 1.85 1.21 3.39.69 1.53-.52 4.52-2.07 9.53-2.1 5.01.04 8 1.58 9.53 2.1s2.92-.06 3.39-.69c.5-.68.69-1.8-.04-2.76zM161.3 12.77c-1.65-2.19-5.47-5.37-12.88-5.37s-11.23 3.18-12.88 5.37c-.73.97-.55 2.08-.04 2.76.47.63 1.85 1.21 3.39.69 1.53-.52 4.52-2.07 9.53-2.1 5.01.04 8 1.58 9.53 2.1s2.92-.06 3.39-.69c.51-.68.69-1.8-.04-2.76z"/></g><path d="M126.36 45.25c-.19-.08-.38-.12-.57-.15h-12.6c-.19.02-.38.07-.57.15-1.14.46-1.77 1.65-1.23 2.91s3.05 4.8 8.1 4.8c5.06 0 7.56-3.54 8.1-4.8s-.09-2.45-1.23-2.91z" fill="#E59600"/><path d="M134.48 59.65c-5.67 3.37-24.27 3.37-29.95 0-3.26-1.94-6.59 1.03-5.24 3.99 1.33 2.91 11.48 9.66 20.25 9.66s18.79-6.75 20.12-9.66c1.36-2.96-1.92-5.93-5.18-3.99z" fill="#795548"/><path d="M43.1 8.17c.14.4.3.81.48 1.22l4.05 5.14 1.95-4.97-.57-1.13c-.37-.74-.65-1.37-.85-1.98-3.79-11.15 5.53-22.34 5.92-22.59l2.11-1.36-1.21-2.2c-.16-.29-3.93-7.34.7-16.71 4.15-8.39 13.81-6.64 14.21-6.57l5.26 1.05-2.33-4.83c-.18-.38-3.91-8.33.6-14.26.98 1.8 2.55 3.82 5.06 5.34 5.08 3.08 12.12 3.07 20.92-.05 1.41-.5 2.99-1.36 4.98-2.45 8.07-4.4 21.57-11.77 42.96-5 7.73 2.45 15.88 9.2 15.56 15.84l-.16 3.32 3.28-.56c6.41-1.07 16.2 7.14 20.42 13.51 2.17 3.28 7.08 16.92 3.41 31.54-.2.8-.47 1.67-.82 2.66l-.39 1.1.08.15 1.94 3.38 3.75-3.38c.09-.41.48-2.04.62-2.6 3.99-15.9-.99-31.03-4.14-35.79-4.35-6.58-14.09-15.39-22.83-15.97-1.4-8.41-10.4-15.53-19.11-18.29-23.56-7.46-38.9.9-47.14 5.4-1.71.94-3.19 1.74-4.21 2.1-7.07 2.51-12.7 2.7-16.3.56-3.51-2.08-4.13-5.76-4.15-5.89l-.61-4.33-3.57 2.52c-7.56 5.32-7.84 13.58-6.42 19.38-5.21.22-12.05 2.41-15.68 9.74-4.31 8.72-2.78 16.01-1.53 19.51-4.46 3.82-9.84 16.84-6.24 27.45z" fill="#402720"/><radialGradient id="e" cx="120.58" cy="-18.851" r="64.779" gradientTransform="matrix(1 0 0 .8642 0 -2.56)" gradientUnits="userSpaceOnUse"><stop stop-color="#6D4C41" offset="0"/><stop stop-color="#543930" offset="1"/></radialGradient><path d="M99.06-59.58c-21.84 7.74-24.02-5.96-24.02-5.96-11.86 5.92-4.07 18.61-4.07 18.61s-12.02-.89-17.17 9.51c-5.38 10.88-.64 19.2-.64 19.2S41.6-5.88 46.14 7.49c3.01 8.87 12.03 7.43 12.03 7.43-1.1 19.13 6.67 28.41 6.67 28.41s4.19-29.18 3.49-34.2c0 0 15.38-5.04 31.06-14.01 10.6-6.07 17.84-13.19 29.76-15.87 18.13-4.08 22.18 9.04 22.18 9.04s16.77-3.22 21.84 20.08c2.08 9.58 2.98 24.22 4.11 33.96-.1-.85 6.23-11.39 7.34-22.09.41-3.98 6.43-13.66 8.24-20.87 3.94-15.68-1.23-28.03-3.67-31.72-4.46-6.75-15.12-16.03-23.1-14.68.42-8.55-6.32-16.47-14.43-19.2-22.17-7.46-46.08 4.34-52.6 6.65z" fill="url(#e)"/><path d="M42.53 10.26c.14.4.3.81.48 1.22l3.35 4.25 2.65-4.08-.57-1.13c-.37-.74-.65-1.37-.85-1.98-3.79-11.14 5.53-22.33 5.92-22.59l2.11-1.36-1.21-2.2c-.16-.29-3.93-7.34.7-16.71 4.15-8.39 13.81-6.64 14.21-6.57l5.26 1.05-2.33-4.83c-.18-.38-3.91-8.33.6-14.26.98 1.8 2.55 3.82 5.06 5.34 5.08 3.08 12.12 3.07 20.92-.05 1.41-.5 2.99-1.36 4.98-2.45 8.07-4.4 21.57-11.77 42.96-5 7.73 2.45 15.88 9.2 15.56 15.84l-.16 3.32 3.28-.56c6.41-1.07 16.2 7.14 20.42 13.51 2.17 3.28 7.08 16.92 3.41 31.54-.2.8-.47 1.67-.82 2.66l-.39 1.1.08.15 1.94 3.38 3.75-3.38c.09-.41.48-2.04.62-2.6 3.99-15.9-.99-31.03-4.14-35.79-4.35-6.58-14.09-15.39-22.83-15.97-1.4-8.41-10.4-15.53-19.11-18.29-23.56-7.46-38.9.9-47.14 5.4-1.71.94-3.19 1.74-4.21 2.1-7.07 2.51-12.7 2.7-16.3.56-3.51-2.08-4.13-5.76-4.15-5.89l-.61-4.33-3.57 2.52c-7.56 5.32-7.84 13.58-6.42 19.38-5.21.22-12.05 2.41-15.68 9.74-4.31 8.72-2.78 16.01-1.53 19.51-4.47 3.81-9.85 16.83-6.24 27.45z" fill="#402720"/><linearGradient id="f" x1="74.241" x2="87.225" y1="113.72" y2="119.76" gradientUnits="userSpaceOnUse"><stop stop-color="#262626" offset=".197"/><stop stop-color="#262626" stop-opacity="0" offset="1"/></linearGradient><path d="M80.59 127.47l15.33-28.9c-14.56 4.01-28.72 7.54-39.97 16.58-2.07 6.4-4.22 13.08-4.22 13.34 0 .51 28.86-1.02 28.86-1.02z" fill="url(#f)" opacity=".35"/><linearGradient id="g" x1="90.37" x2="97.246" y1="77.954" y2="75.464" gradientUnits="userSpaceOnUse"><stop stop-color="#262626" offset=".197"/><stop stop-color="#262626" stop-opacity="0" offset="1"/></linearGradient><path d="M94.77 71.12c-3.31-5.56-8.94-1.62-8.94-1.62l-3.19 5.12c4.25 4.67 8.92 8.52 13.85 11.46-2.7-8.32.65-10.98-1.72-14.96z" fill="url(#g)" opacity=".35"/><linearGradient id="h" x1="34.061" x2="20.734" y1="124.03" y2="160.59" gradientTransform="matrix(1.0971 .0332 -.0336 1.1112 13.94 -19.569)" gradientUnits="userSpaceOnUse"><stop stop-color="#F78C1F" offset="0"/><stop stop-color="#F37F20" offset=".494"/><stop stop-color="#ED6D23" offset="1"/></linearGradient><path d="M16.85 143.34l16.11-30.45c1.57-2.17 3.5-4.36 5.9-4.36.58 0 1.18.12 1.8.37.05.02.1.04.16.05 8.43 2.33 22.66 6.8 24.94 8.85 1.71 1.54 1.3 3.25.34 6.38l-12.76 30.87-36.49-11.71z" fill="url(#h)"/><path d="M38.86 110.03c.39 0 .8.09 1.25.27.1.04.21.08.31.1 10.32 2.86 22.57 6.93 24.34 8.52.91.82.9 1.58-.07 4.75L52.48 153.2l-33.46-10.74 15.22-28.77c1.26-1.74 2.9-3.66 4.62-3.66m0-3c-3.24 0-5.57 2.82-7.18 5.06l-16.99 32.12 39.51 12.68 13.32-32.21c.95-3.07 1.75-5.75-.75-8-3.4-3.06-25.55-9.18-25.55-9.18-.84-.32-1.62-.47-2.36-.47z" fill="#DA6727"/><linearGradient id="i" x1="45.051" x2="78.863" y1="109.82" y2="85.804" gradientUnits="userSpaceOnUse"><stop stop-color="#FFB300" offset="0"/><stop stop-color="#FFB809" offset=".102"/><stop stop-color="#FFC21A" offset=".371"/><stop stop-color="#FFC825" offset=".659"/><stop stop-color="#FFCA28" offset="1"/></linearGradient><path d="M57.21 118.12c-.34 0-.69-.01-1.04-.02-7.58-.29-14.42-5.06-17.01-11.88-2.2-5.79-.76-11.71 3.96-16.24 3.84-3.69 8.98-5.38 13.94-7.01 2.82-.93 5.48-1.8 7.89-3.02 8.4-4.24 10.76-6.72 15.06-11.23 1.53-1.72 3.2-2.61 4.85-2.61 1.25 0 2.43.51 3.34 1.43 1.55 1.57 1.26 4.46.2 6.39-5.06 9.18-12.12 13.09-12.19 13.12-.47.26-.73.79-.64 1.31.01.05.91 5.38.31 10.88-.79 7.05-4.25 18.88-18.67 18.88z" fill="url(#i)"/><path d="M84.85 67.36c1.23 0 2.06.66 2.45 1.05 1.18 1.2.69 3.64-.01 4.91-4.86 8.82-11.62 12.59-11.68 12.63-.95.51-1.46 1.57-1.28 2.63.01.05.88 5.19.3 10.53-.73 6.63-3.96 17.77-17.42 17.77-.33 0-.66-.01-1-.02-7.09-.27-13.48-4.72-15.89-11.08-2.02-5.3-.68-10.73 3.66-14.9 3.64-3.49 8.63-5.13 13.46-6.72 2.87-.94 5.57-1.83 8.06-3.09 8.25-4.17 10.68-6.53 15.4-11.48l.06-.06c1.26-1.43 2.6-2.17 3.89-2.17m0-2.5c-1.81 0-3.83.84-5.75 3-4.42 4.64-6.63 6.89-14.72 10.97-6.59 3.33-15.88 4.24-22.13 10.24-12.27 11.77-1.68 29.69 13.87 30.28.37.01.73.02 1.09.02 13.77 0 18.83-10.28 19.9-19.99.63-5.76-.32-11.23-.32-11.23s7.37-3.97 12.69-13.62c1.19-2.16 1.7-5.73-.4-7.87-1.06-1.08-2.56-1.8-4.23-1.8z" fill="#ED9E00"/><path d="M44.09 89.19c4.54-3.04 11.16-1.75 13.29 7.68 2.04 9.01-7.46 13.07-10.43 8.12-2.75-4.58 2.17-6.75 2.17-6.75" fill="none" stroke="#ED9E00" stroke-linecap="round" stroke-linejoin="round" stroke-miterlimit="10" stroke-width="2.5"/><path d="M58.1 103.21c5.46 2.31 10.65-3.32 7.84-11.39-4.53-12.98-15.68-5.76-15.68-5.76" fill="none" stroke="#ED9E00" stroke-linecap="round" stroke-linejoin="round" stroke-miterlimit="10" stroke-width="2.5"/><path d="M57.95 82.72s13.63-7.78 17.54 5.31c2.43 8.12-4.92 13.89-8.88 10.74" fill="none" stroke="#ED9E00" stroke-linecap="round" stroke-linejoin="round" stroke-miterlimit="10" stroke-width="2.5"/><linearGradient id="j" x1="63.974" x2="79.774" y1="101.2" y2="102.2" gradientTransform="rotate(-28.626 72.724 103.163)" gradientUnits="userSpaceOnUse"><stop stop-color="#FFB300" offset="0"/><stop stop-color="#FFB809" offset=".102"/><stop stop-color="#FFC21A" offset=".371"/><stop stop-color="#FFC825" offset=".659"/><stop stop-color="#FFCA28" offset="1"/></linearGradient><path d="M78.22 98.51c1.72 3.04.79 7.36-3.92 9.35-4.03 1.7-8.31 1.3-9.98-1.77-1.68-3.07.08-7.26 3.92-9.35 3.84-2.1 7.91-1.88 9.98 1.77z" fill="url(#j)" stroke="#ED9E00" stroke-linecap="round" stroke-linejoin="round" stroke-miterlimit="10" stroke-width="2.5"/></g><g clip-path="url(#b)"><path d="M19.2 33.14c0 32.01 19.62 42.4 19.62 42.4" fill="none" stroke="#646464" stroke-linejoin="round" stroke-miterlimit="10" stroke-width="4"/><path fill="#646464" d="M41.14 66.27L30.9 77.87l13.55 2.96z"/></g></svg>