<svg viewBox="0 0 128 128" width="128" height="128" xmlns="http://www.w3.org/2000/svg"><path d="M82.5 44.08c-1.94.13-3.88.24-5.81.32-1.94.07-3.87.23-5.8.34-1.93.08-3.86.19-5.79.31-1.93.11-3.86.24-5.78.42-7.68.63-15.39 1.26-22.85 2.88-3.75.69-7.45 1.65-10.91 3.06-.86.36-1.69.77-2.53 1.17-.77.48-1.63.87-2.33 1.44-1.49 1.03-2.78 2.27-3.66 3.75-.88 1.47-1.27 3.21-1.15 4.99.11 1.78.69 3.57 1.45 5.28 1.48 3.48 3.83 6.59 6.19 9.66l-.12.11c-2.59-2.87-5.08-5.91-6.82-9.4-.86-1.74-1.54-3.6-1.73-5.55-.21-1.94.15-3.96 1.09-5.68.93-1.73 2.34-3.16 3.94-4.28.76-.62 1.64-1.04 2.47-1.56.87-.43 1.74-.87 2.63-1.26 3.59-1.51 7.36-2.53 11.16-3.28 7.62-1.53 15.37-2.16 23.11-2.56 7.75-.37 15.5-.41 23.25-.3l-.01.14z" fill="#7C5329"/><path d="M92.99 54.08c-3.55-.02-7.09-.2-10.63-.25-3.54-.14-7.07-.27-10.6-.33-3.53-.02-7.05-.19-10.57-.18-3.52-.01-7.03.07-10.53.28-3.5.14-6.98.41-10.4.96-3.41.56-6.78 1.42-9.73 2.9-1.46.76-2.77 1.76-3.63 3.06-.87 1.29-1.2 2.89-1.04 4.53.12 1.65.64 3.31 1.36 4.89.73 1.58 1.6 3.12 2.54 4.62l-.13.1c-1.06-1.42-2.06-2.9-2.88-4.47-.83-1.57-1.48-3.25-1.72-5.03-.26-1.77.04-3.64.99-5.18.93-1.55 2.37-2.72 3.91-3.59 3.11-1.76 6.62-2.62 10.1-3.26 3.5-.61 7.03-.93 10.57-1.12 7.08-.33 14.17-.13 21.25.25 7.07.39 14.13 1 21.18 1.66l-.04.16z" fill="#7C5329"/><linearGradient id="a" x1="27.56" x2="6.558" y1="80.678" y2="107.08" gradientUnits="userSpaceOnUse"><stop stop-color="#7B5228" offset="0"/><stop stop-color="#A07343" offset="1"/></linearGradient><path d="M26.05 83.84c-.33-.06-9.75 3.67-9.9 3.98-.29.59-.34 1.41-.48 2.04-.3 1.37-.58 2.73-.87 4.1-.41 1.94-.97 8.54-1.45 10.47-.1.38 0-3.8-.21-3.46-.36.57-5.05-.31-6.2-.17-.02-.01-.03-.02-.05-.02-.32-.07-.88.25-1.17.36-.3.12-.6.26-.82.5-.24.25-.35.59-.46.92-.22.65-.42 1.33-.43 2.01 0 .22.05.48.25.55.11.03.22 0 .33-.04.74-.28 1.31-.9 1.93-1.4 1.85 1.18 8.57 1.02 9.15-.6.34-.95.47-1.98.63-2.97.41-2.69.47-5.41 1.09-8.09.21-.89.32-2.11.9-2.87.13-.17.29-.32.47-.43.86-.53 1.83-.77 2.82-.93 1.94-.32 4.33-.24 5.97-1.46 1.73-1.28 1.35-1.95-1.5-2.49z" fill="url(#a)"/><linearGradient id="b" x1="60.179" x2="91.026" y1="77.229" y2="77.229" gradientTransform="matrix(.7917 -.2563 .1692 1.2083 2.698 3.32)" gradientUnits="userSpaceOnUse"><stop stop-color="#38210C" offset="0"/><stop stop-color="#7B5228" offset=".991"/></linearGradient><path d="M78.61 65.17c1.25-1.35 2.54-2.95 4.07-3.15 1.52-.2 2.31 3.54 2.91 5.69 1.78 6.43 2.85 11.01 3.96 17.78-.21.47-.68.5-1.01.24s-.55-.75-.76-1.22c-1.42-3.18-2.85-3.91-4.05-7.29-1.37-3.85-1.09-4.51-1.36-5.31-.43-1.24-9.33 20.14-17.12 14.31-1.64-1.22-1.75-2.65-1-3.74 2.73-3.94 12.15-14.92 14.36-17.31z" fill="url(#b)"/><path d="M30.46 92.31s7.8 12.75 29.85 12.9 43.36-8.4 49.81-15.45-71.41-9.9-76.81-8.7-2.85 11.25-2.85 11.25z" fill="#3D250F"/><path d="M92.42 92.01c-3.9-1.2-7.5-3-11.4-4.5-5.7-1.5-11.1-3.6-17.1-5.1-5.08-1.1-9.99-1.88-14.99-1.62-.83 1.83-.98 3.93.61 5.11.87.65 1.92.88 2.94 1.1l35.85 7.62c3.56.76 7.14 1.51 10.76 1.51 2.11 0 4.22-.27 6.31-.66 2.81-.52 5.59-1.27 8.26-2.39 2.69-1.12 5.25-2.6 7.64-4.41 1.05-.8 2.15-1.85 2.54-3.15-7.78 7.78-20.48 9.89-31.42 6.49z" fill="#966A39"/><linearGradient id="c" x1="48.932" x2="124" y1="84.776" y2="84.776" gradientUnits="userSpaceOnUse"><stop stop-color="#CD996D" offset=".001"/><stop stop-color="#D09D72" offset=".654"/><stop stop-color="#D3A178" offset="1"/></linearGradient><path d="M121.71 80.81c-3.27-2.4-7.28-3.02-11.14-3.47-5.64-.64-11.3-1.02-16.96-1.21-10-.33-20.02-.07-30.01.36-3.49.15-9.03-.82-12.18 1.21-.92.6-1.88 1.77-2.47 3.09 4.99-.26 9.91.51 14.99 1.62 6 1.5 11.4 3.6 17.1 5.1 3.9 1.5 7.5 3.3 11.4 4.5 10.94 3.4 23.64 1.29 31.42-6.49.11-.37.17-.75.15-1.16-.08-1.53-1.17-2.73-2.3-3.55z" fill="url(#c)"/><linearGradient id="d" x1="42.289" x2="40.488" y1="71.512" y2="93.915" gradientUnits="userSpaceOnUse"><stop stop-color="#7B5228" offset="0"/><stop stop-color="#764D25" offset=".315"/><stop stop-color="#66401C" offset=".71"/><stop stop-color="#563313" offset="1"/></linearGradient><path d="M51.55 76.67c.72.15 1.54.37 1.87 1.03.19.38.18.83.13 1.25-.2 1.95-.92 3.8-1.63 5.62-.69 1.78-1.38 3.55-2.07 5.33-.32.83-.67 1.7-1.34 2.28-.68.59-1.59.81-2.47 1.01-5.31 1.23-10.63 2.45-15.94 3.68-.29.07-.9-7.7-.9-8.44-.01-2.95.28-5.9.88-8.79.36-1.75.7-5.64 2.63-6.37 2.05-.77 6.21.88 8.31 1.28 3.53.68 7.03 1.38 10.53 2.12z" fill="url(#d)"/><radialGradient id="e" cx="24.613" cy="77.604" r="18.976" gradientUnits="userSpaceOnUse"><stop stop-color="#CD996D" offset="0"/><stop stop-color="#A8794A" offset=".617"/><stop stop-color="#966A39" offset="1"/></radialGradient><path d="M21.85 93.03c.72 1.92 1.68 3.84 3.26 5.15.8.66 1.78 1.16 2.81 1.2 2.02.08 3.7-1.52 4.91-3.14a26.61 26.61 0 0 0 5.28-15.08c.04-1.3-.02-2.63-.44-3.87-.86-2.58-3.23-4.48-5.86-5.18-3.7-.99-8.92-.49-10.79 3.25-2.58 5.16-1.1 12.51.83 17.67z" fill="url(#e)"/><linearGradient id="f" x1="40.544" x2="40.544" y1="89.605" y2="123.53" gradientUnits="userSpaceOnUse"><stop stop-color="#7B5228" offset="0"/><stop stop-color="#A07343" offset="1"/></linearGradient><path d="M41.67 101.74c.11.25-.23.95-.3 1.18-.27.9-.55 1.8-.83 2.7-.71 2.3-1.42 4.6-2 6.93-.24.97-.51 1.98-.57 2.98-.1 1.96.58 4.09 1.46 5.81.6 1.19 2.08 2.15 3.02.62.4-.65.41-1.45.34-2.2-.09-.93-.28-1.85-.58-2.74-.27-.82-.92-1.65-1.07-2.48-.07-.39.05-.85.11-1.24.29-1.96.68-3.91 1.04-5.86.26-1.37.52-2.75.77-4.12.12-.64.39-1.42.34-2.07-.02-.35-2.11-10.38-2.44-10.45-2.84-.6-3.98.68-2.88 2.54 1.5 2.52 2.44 5.72 3.59 8.4z" fill="url(#f)"/><linearGradient id="g" x1="61.816" x2="125.32" y1="89.272" y2="89.272" gradientTransform="matrix(.8892 -.1308 .0476 1.1176 5.494 .996)" gradientUnits="userSpaceOnUse"><stop stop-color="#452E16" offset="0"/><stop stop-color="#A07343" offset="1"/></linearGradient><path d="M121.69 104.45c-.24-.8-.54-1.63-1.09-2-.03-.02-.07-.04-.1-.06a1.34 1.34 0 0 0-.27-.17c-2.38-.93-8.09 2.04-9.52-1.52-1.04-2.58-1.4-20.1-6.84-33.16-.45-1.09-1.2-2.32-1.83-3.2s-1.65-1.32-2.48-.7c-.54.4-24.23 20.1-29.35 24.39-1.4 1.17-2.81 2.41-3.87 4.17s-1.71 4.18-1.29 6.29c.97 4.98 6.36 5.91 9.43 4.34 4.32-2.21 8.23-6.1 11.71-10.41 4.06-5.02 13.66-21.55 13.85-21.09.25.6.48 1.2.71 1.81 1.99 5.34 3.44 11.11 4.84 16.86.71 2.93 1.4 5.87 2.11 8.8.33 1.36.66 2.72 1 4.07.27 1.05.47 2.92 1.28 3.32.3.15.64.15.97.16 1.76.02 3.52.03 5.28.05.79.01 1.54.22 2.33.01.45-.12.89-.33 1.3-.62.06.08.12.17.19.26l1.54 2.14c.08.12.21.24.31.13.04-.04.06-.11.08-.17.35-1.22.05-2.55-.29-3.7z" fill="url(#g)"/><linearGradient id="h" x1="60.511" x2="76.713" y1="93.908" y2="124.81" gradientUnits="userSpaceOnUse"><stop stop-color="#7B5228" offset="0"/><stop stop-color="#966A40" offset=".243"/><stop stop-color="#A97B51" offset=".49"/><stop stop-color="#B5865C" offset=".741"/><stop stop-color="#B9895F" offset=".999"/></linearGradient><path d="M88.92 117.31c-.04-.38-.09-.71-.1-.77-.49-1.77-3.14-2.32-4.69-2.66-1.22-.27-2.46-.46-3.71-.56 0 0-2.68-11.11-3.33-13.22-.55-1.77-1.16-3.79-2.39-5.22-1.93-2.23-5.25-1.84-7.91-1.75-4.34.15-8.67.76-12.89 1.77-1.39.33-3.04.78-4.28 1.64-.8.56-1.43 1.3-1.7 2.31-.38 1.4-.25 3.07 1.19 3.8.92.46 2.04.45 3.04.35 3.49-.35 6.96-1.02 10.27-2.2 3.12-1.12 5.9-2.8 8.68-4.55.4-.26 1.01-.71 1.52-.62.66.11 6.98 20.63 6.98 20.63l7.4.79 1.11 1.02c.24.22.51.46.84.47.07-.02.03-.68-.03-1.23z" fill="url(#h)"/><circle cx="31.78" cy="80.38" r="5" fill="#fff"/><circle cx="31.78" cy="80.38" r="2.29"/><g fill="#5C3817"><path d="M13.38 104.24c-.01.06-.03.14-.04.2 0 .02-.01.02-.01.02-.01 0-.02-.08-.02-.21.02 0 .05-.01.07-.01m2.61-2.52l-2.97.55-.05.01-1.73.31.07 1.75c.08 1.67 1.36 2.12 2.02 2.12h1.56l.39-1.54c.01-.06.03-.13.04-.2l.01-.05.66-2.95z"/><path d="M6.77 100.78c.04 0 .07 0 .1.01.02 0 .03.01.05.02.09-.01.19-.02.32-.02 1.11 0 3.55.37 4.92.37.51 0 .87-.05.96-.19l.02-.02c.15 0 .12 2.56.15 3.3-.78.14-1.68.21-2.57.21-1.72 0-3.42-.26-4.22-.76-.62.5-1.2 1.11-1.93 1.4-.07.03-.15.05-.23.05-.03 0-.06 0-.1-.01-.19-.07-.24-.34-.24-.55.01-.69.21-1.36.43-2.01.11-.33.23-.67.46-.92.22-.24.52-.38.82-.5.25-.12.73-.38 1.06-.38m0-2c-.69 0-1.29.28-1.69.46-.05.02-.09.04-.13.06-.48.2-1.04.47-1.53.99-.54.58-.76 1.25-.89 1.65-.26.79-.52 1.65-.53 2.62-.01 1.17.63 2.14 1.64 2.47.23.07.47.11.71.11.31 0 .63-.06.96-.19.63-.24 1.14-.6 1.58-.96 1.34.39 2.89.46 3.85.46 1.03 0 2.04-.08 2.92-.24l1.73-.31-.08-1.75c-.01-.2-.01-.54-.02-.93-.01-.53-.01-1.13-.03-1.59-.07-1.78-.78-2.69-2.1-2.69h-1.1l-.14.21c-.62-.02-1.48-.11-2.26-.19-.92-.09-1.79-.18-2.42-.18h-.47z"/><path d="M82.79 62.02c1.45 0 2.21 3.61 2.79 5.7.62 2.22 1.14 4.21 1.62 6.16 6.39-5.31 12.08-10.03 12.35-10.23s.56-.29.85-.29c.61 0 1.21.4 1.64.99.63.88 1.38 2.12 1.84 3.2 1.24 2.98 2.22 6.2 3 9.41 1.23.12 2.47.24 3.7.38 3.87.44 7.87 1.07 11.14 3.47 1.13.83 2.22 2.02 2.29 3.55.02.41-.04.79-.15 1.16-.39 1.3-1.49 2.35-2.54 3.15a34.607 34.607 0 0 1-7.64 4.41c-1.28.53-2.59.98-3.92 1.36.37 3.16.63 5.45.96 6.26.57 1.43 1.84 1.81 3.3 1.81 1.64 0 3.52-.48 4.97-.48.48 0 .9.05 1.26.19.09.03.18.1.27.17.04.02.07.04.1.06.55.37.85 1.2 1.09 2 .34 1.15.64 2.47.3 3.69-.02.07-.04.13-.08.17-.03.03-.06.04-.09.04-.08 0-.16-.09-.23-.17l-1.54-2.14c-.07-.09-.13-.18-.19-.26-.42.29-.86.5-1.3.62-.26.07-.52.09-.77.09-.52 0-1.03-.1-1.56-.1-1.76-.02-3.52-.03-5.28-.05-.33 0-.66-.01-.97-.16-.82-.4-1.02-2.27-1.28-3.32-.34-1.35-.67-2.71-1-4.07l-.87-3.63c-.47.1-.95.21-1.42.3-1.44.27-2.89.47-4.34.58-6.04 3.07-14.1 5.85-23.04 7.53 1.02 4.01 2.4 9.74 2.4 9.74 1.25.1 2.49.29 3.71.56 1.54.34 4.19.89 4.69 2.66.02.06.06.39.1.77.06.56.1 1.21.02 1.21-.33-.01-.6-.25-.84-.47l-1.11-1.02-7.4-.79s-2.01-6.54-3.89-12.26c-4.78.78-9.78 1.23-14.82 1.23h-.57c-7.04-.05-12.63-1.38-16.97-3.18-.08.45-.21.9-.28 1.3-.25 1.37-.52 2.75-.77 4.12-.37 1.95-.75 3.9-1.04 5.86-.06.39-.18.85-.11 1.24.15.83.79 1.67 1.07 2.48.3.89.49 1.81.58 2.74.07.75.06 1.56-.34 2.2-.34.56-.76.79-1.19.79-.72 0-1.45-.66-1.83-1.41-.87-1.73-1.56-3.86-1.46-5.81.05-1 .32-2.01.57-2.98.58-2.33 1.29-4.63 2-6.93.28-.9.56-1.8.83-2.7.07-.23.41-.93.3-1.18-.08-.18-.15-.38-.23-.57-3.41-1.64-5.92-3.53-7.68-5.14-.31.07-.63.14-.94.22-1.18 1.57-2.8 3.12-4.75 3.12h-.14c-1.04-.04-2.01-.54-2.81-1.2-1.59-1.31-2.54-3.23-3.26-5.15-.56-1.5-1.09-3.19-1.48-4.96-.56.15-1.11.36-1.61.67-.19.12-.34.26-.47.43-.59.76-.7 1.98-.9 2.87-.62 2.68-.68 5.4-1.09 8.09-.15.99-.29 2.02-.63 2.97-.19.55-1.1.92-2.28 1.14.47-2.13 1.01-8.39 1.41-10.27.29-1.37.58-2.74.87-4.1.14-.63.19-1.46.48-2.04.07-.13 1.83-.89 3.85-1.71-.6-3.74-.53-7.65 1.04-10.76 1.34-2.67 4.39-3.69 7.38-3.69 1.19 0 2.36.16 3.41.44.81.21 1.58.56 2.3.98 2.19.02 5.22 1.16 6.91 1.48 3.51.67 7.02 1.37 10.52 2.1.4.08.82.2 1.18.39 1.5-.54 3.29-.67 5.09-.67 1.71 0 3.43.12 4.89.12.3 0 .59-.01.87-.02 1.84-.08 3.68-.15 5.51-.21 3.69-4.49 8.08-9.57 9.51-11.11 1.25-1.35 2.54-2.95 4.07-3.15 0 .01.03.01.07.01m19.12 14.53c-.37-1.15-.75-2.29-1.17-3.41-.23-.61-.46-1.22-.71-1.81 0-.01-.01-.01-.01-.01-.16 0-1.46 2.06-3.25 4.94 1.72.08 3.43.17 5.14.29m-22.23-.53C80.89 76 82.1 76 83.31 76c-.89-2.78-.71-3.38-.95-4.08-.01-.04-.03-.05-.06-.05-.26-.01-1.21 1.79-2.62 4.15m3.11-16c-.12 0-.25.01-.37.02-2.09.27-3.57 1.9-4.88 3.34l-.4.44c-1.32 1.43-5.38 6.11-9.01 10.5-1.55.06-3.09.11-4.63.18-.25.01-.51.02-.78.02-.67 0-1.4-.03-2.18-.05-.88-.03-1.78-.06-2.71-.06-2.07 0-3.66.17-5.01.54-.32-.11-.62-.17-.86-.22-3.5-.73-7.05-1.44-10.56-2.11-.49-.09-1.18-.28-1.91-.49-1.53-.42-3.24-.9-4.81-1-.77-.41-1.55-.72-2.35-.94a15.63 15.63 0 0 0-3.93-.51c-4.3 0-7.64 1.75-9.17 4.79-1.41 2.81-1.89 6.3-1.44 10.4-2.94 1.22-3.12 1.43-3.44 2.08-.34.69-.46 1.43-.56 2.02-.03.17-.05.34-.09.49-.2.93-.4 1.86-.59 2.79l-.28 1.32c-.21.98-.42 2.79-.67 4.88-.24 2.04-.51 4.35-.74 5.37l-.66 2.95 2.97-.55c.78-.14 3.14-.58 3.8-2.44.37-1.04.53-2.12.68-3.07l.04-.26c.17-1.09.28-2.17.38-3.22.17-1.64.33-3.2.68-4.72.03-.12.06-.25.08-.38.18.54.37 1.08.57 1.62.71 1.89 1.79 4.28 3.86 5.99 1.24 1.03 2.63 1.6 4.01 1.65h.22c1.93 0 3.76-.96 5.48-2.86 1.76 1.46 3.74 2.77 5.88 3.9l-.57 1.86-.24.76c-.71 2.31-1.44 4.66-2.03 7.04l-.06.26c-.23.93-.5 1.99-.56 3.1-.15 2.77.98 5.46 1.67 6.82.77 1.52 2.19 2.51 3.62 2.51 1.16 0 2.21-.64 2.89-1.74.73-1.2.71-2.53.62-3.44-.1-1.08-.33-2.15-.68-3.19-.17-.49-.4-.94-.6-1.33-.14-.26-.32-.62-.38-.81.01-.08.03-.23.05-.33.02-.11.04-.22.05-.33.24-1.6.55-3.24.85-4.83l.18-.96.25-1.33.33-1.76c4.68 1.61 9.87 2.44 15.47 2.48h.58c4.37 0 8.89-.34 13.45-1 1.68 5.2 3.33 10.55 3.35 10.61l.39 1.26 8.05.86.62.57c.31.29 1.04.95 2.11.99h.97l.61-.67c.68-.76.58-1.68.47-2.75-.09-.82-.14-1.01-.17-1.1-.81-2.9-4.25-3.65-6.1-4.06l-.09-.02c-.83-.18-1.68-.33-2.53-.45-.36-1.5-.98-4-1.56-6.35 7.69-1.61 15.11-4.11 21.13-7.12 1.19-.1 2.42-.26 3.72-.49l.42 1.76c.33 1.37.66 2.73 1.01 4.09.05.19.09.41.14.64.3 1.44.67 3.23 2.19 3.99.72.35 1.42.36 1.84.36l5.28.05c.2 0 .4.02.6.04.29.03.62.06.99.06.46 0 .87-.05 1.28-.16.05-.01.1-.03.14-.04l.76 1.06c.63.87 1.43 1 1.85 1 .58 0 1.13-.23 1.53-.66.39-.41.52-.87.56-1.02.48-1.73.09-3.48-.31-4.81-.35-1.18-.83-2.38-1.89-3.09-.04-.03-.08-.05-.12-.08a2.69 2.69 0 0 0-.64-.35c-.56-.22-1.21-.33-1.98-.33-.84 0-1.73.12-2.6.25-.81.11-1.66.23-2.36.23-1.22 0-1.35-.32-1.44-.55-.18-.45-.41-2.23-.63-4.1.87-.29 1.7-.6 2.5-.93 2.84-1.18 5.56-2.75 8.08-4.66 1.73-1.32 2.8-2.68 3.25-4.16.18-.61.26-1.22.24-1.83-.08-1.89-1.16-3.65-3.1-5.08-3.66-2.69-7.99-3.37-12.1-3.84-.71-.08-1.48-.16-2.33-.25-.8-3.08-1.72-5.87-2.75-8.33-.45-1.09-1.22-2.44-2.06-3.6-.83-1.16-2.02-1.83-3.26-1.83-.73 0-1.44.24-2.05.69-.24.18-3.6 2.96-9.99 8.27-.26-.98-.54-2.02-.85-3.13-.07-.24-.13-.49-.2-.76-.72-2.82-1.66-6.37-4.48-6.37z"/></g></svg>