<svg viewBox="0 0 128 128" width="128" height="128" xmlns="http://www.w3.org/2000/svg" xmlns:xlink="http://www.w3.org/1999/xlink"><linearGradient id="a" x1="76.985" x2="65.193" y1="54.124" y2="80.53" gradientUnits="userSpaceOnUse"><stop stop-color="#A47B62" offset="0"/><stop stop-color="#AD8264" offset=".191"/><stop stop-color="#B78A67" offset=".551"/><stop stop-color="#BA8D68" offset="1"/></linearGradient><path d="M65.75 83.21c-.43 0-.84-.1-1.18-.3-1.02-.59-1.48-2.06-.98-3.15L68 68.7c1.28-2.97 4.06-12.17 4.83-14.76l6.99-.51.68 2.32-12.38 26.06c-.38.83-1.35 1.4-2.37 1.4z" fill="url(#a)"/><path d="M79.09 54.49l.34 1.17-12.22 25.75c-.21.46-.83.8-1.46.8-.26 0-.49-.06-.68-.17-.58-.33-.85-1.24-.57-1.87.01-.03.02-.06.04-.08l4.38-10.99c1.22-2.84 3.7-10.98 4.67-14.21l5.5-.4m1.46-2.11l-8.49.62s-3.53 11.93-5 15.33l-4.39 11.02c-.7 1.55-.08 3.58 1.39 4.43.51.29 1.09.43 1.68.43 1.35 0 2.71-.73 3.28-1.96l12.54-26.41-1.01-3.46z" fill="#91674D"/><linearGradient id="b" x1="104.49" x2="121.55" y1="55.602" y2="83.696" gradientTransform="matrix(-1 0 0 1 127.46 0)" gradientUnits="userSpaceOnUse"><stop stop-color="#8D5738" offset="0"/><stop stop-color="#97603D" offset=".216"/><stop stop-color="#A26941" offset=".573"/><stop stop-color="#A56C43" offset="1"/></linearGradient><path d="M5.4 86.97c-.57 0-1.49-.85-1.66-1.18-.16-.31-.62-1.54.12-4.35.63-2.38 1.03-2.95 2.79-4.74.04-.04.08-.09.11-.14 1.93-2.85 6.17-9.17 6.17-9.17.03-.05.06-.1.08-.15l5.72-12.7 7.99.49-.22 2.79-14.96 21.02a.95.95 0 0 0-.17.43l-.62 4.01c-.5.83-1.11 1.77-1.4 2.14v-.12c.02-.36.14-.78.24-1.14.19-.66.37-1.29.04-1.85-.18-.3-.46-.51-.81-.59-.12-.03-.23-.04-.35-.04-1.33 0-1.69 1.49-2.04 2.93-.2.83-.48 1.96-.84 2.29-.06.05-.11.07-.19.07z" fill="url(#b)"/><path d="M19.36 55.58l6.29.39-.12 1.5-14.81 20.79c-.18.25-.3.55-.35.86l-.33 2.15c-.28-.25-.62-.43-.99-.52-.19-.05-.39-.07-.58-.07-2.11 0-2.63 2.13-3.01 3.69-.09.37-.23.96-.38 1.38-.18-.14-.37-.31-.46-.44-.08-.18-.43-1.2.21-3.61.58-2.19.86-2.58 2.54-4.3.08-.09.16-.18.23-.28 1.93-2.85 6.17-9.18 6.17-9.18.06-.09.12-.19.16-.29l5.43-12.07M18.1 53.5s-4.5 10-6 13.33c0 0-4.24 6.32-6.17 9.17-1.88 1.92-2.36 2.62-3.04 5.19-.75 2.83-.4 4.38-.04 5.06.27.53 1.48 1.72 2.55 1.72.31 0 .61-.1.87-.34 1.2-1.11 1.15-4.95 2.2-4.95.04 0 .07 0 .11.01.6.15-.16 1.36-.23 2.56-.05.87.42 1.22.93 1.22.19 0 .39-.05.57-.14.33-.17 1.85-2.71 1.85-2.71l.65-4.21 15.13-21.24.32-4.08-9.7-.59z" fill="#875334"/><linearGradient id="c" x1="96.17" x2="96.206" y1="84.066" y2="84.066" gradientTransform="translate(-93.25)" gradientUnits="userSpaceOnUse"><stop stop-color="#FFB300" offset="0"/><stop stop-color="#FFCA28" offset=".401"/></linearGradient><path d="M2.92 84.19c.02-.15.03-.26.03-.26s-.05.28-.03.26z" fill="url(#c)"/><path d="M2.96 83.94zm0 0s-.05.26-.03.26c.01-.16.03-.26.03-.26z" fill="#EDA600"/><linearGradient id="d" x1="76.89" x2="60.954" y1="56.63" y2="84.481" gradientTransform="matrix(-1 0 0 1 127.46 0)" gradientUnits="userSpaceOnUse"><stop stop-color="#8D5738" offset="0"/><stop stop-color="#97603D" offset=".216"/><stop stop-color="#A26941" offset=".573"/><stop stop-color="#A56C43" offset="1"/></linearGradient><path d="M68.82 88.17c-.56 0-.94 0-1.83-1.38-.38-.58-.62-1.08-.84-1.52-.49-.99-.96-1.93-2.38-2.1-.04 0-.15-.01-.18-.01-1.27 0-1.6 1.29-1.82 2.14-.07.29-.19.77-.3.94-.19.06-.35.09-.47.09-.86-.42-1.42-.71.42-5.47.11-.29.08-.6-.07-.87L48.33 57.87l-.22-2.78 7.33-.01c.97 2.37 4.4 10.62 6.15 13.38l4.68 8.35c.06.11.14.2.23.28.32.27.7.56 1.11.88 1.41 1.09 3.17 2.45 4.5 4.24.63.85.97 1.59-.38 3.44-.15.2-.3.44-.46.7-.66 1.06-1.19 1.81-2.05 1.81l-.4.01z" fill="url(#d)"/><path d="M54.78 56.09c1.22 2.95 4.27 10.21 5.94 12.87l4.68 8.35c.12.21.28.4.46.56.33.27.72.58 1.15.91 1.36 1.06 3.06 2.37 4.3 4.04.42.57.64.85-.38 2.25-.18.24-.34.51-.5.76-.35.56-.83 1.34-1.2 1.34h-.66c-.01-.01-.25-.14-.75-.92-.35-.54-.58-1.01-.79-1.42-.51-1.02-1.2-2.42-3.16-2.65-.1-.01-.2-.02-.3-.02-.88 0-1.48.38-1.89.87.16-.5.38-1.1.66-1.81.22-.57.17-1.21-.14-1.73L49.3 57.57l-.11-1.47 5.59-.01m1.34-2.01l-9.09.02.32 4.08L60.48 80.5c-1.83 4.75-1.63 5.88-.04 6.71.17.09.36.12.56.12.28 0 .57-.07.86-.17 1.03-.34.75-3 1.72-3h.07c1.31.15 1.25 1.23 2.5 3.17 1.11 1.72 1.8 1.84 2.67 1.84h.42c1.83 0 2.62-1.97 3.31-2.92 1.58-2.17 1.3-3.38.37-4.63-1.81-2.44-4.38-4.12-5.77-5.29l-4.71-8.4c-1.98-3.12-6.32-13.85-6.32-13.85z" fill="#875334"/><linearGradient id="e" x1="90.843" x2="90.843" y1="122.69" y2="78.007" gradientTransform="matrix(-1 0 0 1 127.46 0)" gradientUnits="userSpaceOnUse"><stop stop-color="#616161" offset=".001"/><stop stop-color="#6B6B6B" offset=".446"/><stop stop-color="#6E6E6E" offset="1"/></linearGradient><path d="M50.6 78.01v44.68h-5.65l-7.87-38.21c-.04-.24-.24-.41-.46-.41s-.42.17-.46.41l-7.87 38.21h-5.65V78.01H50.6z" fill="url(#e)"/><path d="M45.83 121.69l-7.71-37.41c-.13-.69-.73-1.2-1.44-1.2s-1.31.51-1.44 1.22l-7.7 37.39h-3.83V75.61h25.95v46.08h-3.83z" fill="#7C7C7C"/><path d="M48.66 76.61v44.08h-2.02l-7.53-36.58c-.22-1.18-1.24-2.04-2.43-2.04s-2.21.86-2.42 2l-7.54 36.61H24.7V76.61h23.96m2-2H22.71v48.08h5.65l7.87-38.21c.04-.24.24-.41.46-.41s.42.17.46.41l7.87 38.21h5.65V74.61h-.01z" fill="#5B5B5B"/><g fill="#2B2D2D"><path d="M47.6 124h4.45c.82-.02 1.41-.96 1.17-1.78-.74-2.49-2.99-4.32-5.62-4.32-2.68 0-4.96 1.9-5.66 4.46-.22.82.39 1.63 1.21 1.63h4.45zM25.56 124h-4.45c-.82-.02-1.41-.96-1.17-1.78.74-2.49 2.99-4.32 5.62-4.32 2.68 0 4.96 1.9 5.66 4.46.22.82-.39 1.63-1.21 1.63h-4.45z"/></g><linearGradient id="f" x1="36.687" x2="36.687" y1="46.872" y2="76.295" gradientUnits="userSpaceOnUse"><stop stop-color="#4FC3F7" offset=".173"/><stop stop-color="#42BFF6" offset=".368"/><stop stop-color="#20B3F5" offset=".727"/><stop stop-color="#03A9F4" offset=".988"/></linearGradient><path d="M23.73 77V59.72c0-.41-.26-.79-.64-.93l-7.44-2.85c2.11-5.49 4.09-8.35 10.68-10.1 2.3-.61 6.45-1.03 10.32-1.03h.16c3.84 0 7.97.41 10.27 1.03 6.55 1.74 8.53 4.6 10.64 10.11l-7.35 2.84c-.39.15-.64.52-.64.93V77h-26z" fill="url(#f)"/><path d="M36.81 45.81c3.76 0 7.79.4 10.01.99 5.81 1.55 7.68 3.81 9.6 8.57L50 57.85c-.77.3-1.28 1.04-1.28 1.87V76h-24V59.72c0-.83-.51-1.57-1.29-1.87l-6.5-2.49c1.89-4.66 3.83-7.02 9.64-8.56 2.23-.59 6.27-.99 10.06-.99h.18m0-2h-.16c-3.98 0-8.17.42-10.57 1.06-7.55 2.01-9.46 5.56-11.71 11.65l8.37 3.2V78h28V59.72l8.28-3.2c-2.25-6.09-4.12-9.64-11.67-11.65-2.41-.64-6.56-1.06-10.54-1.06z" fill="#0288D1"/><path d="M50.22 37c-.67-1.29.1-2.48 1.38-3.8 1.44-1.49 3.84-6.59 1.29-11.14-.48-.07-7.42.03-9.18.03h-15c-1.76 0-8.7-.1-9.18-.03-2.54 4.55-.15 9.66 1.29 11.14 1.28 1.32 2.05 2.51 1.38 3.8-.44.85-1.08 1.13-1.55 1.22.12.2.29.36.49.48.67.4 1.52.49 2.07.51.33.01.58.23.8.47 2.34 2.59 3.97 3.13 12.2 3.13 8.24 0 9.86-.54 12.2-3.13.22-.24.46-.46.8-.47.55-.01 1.4-.11 2.07-.51.2-.12.36-.28.49-.48-.47-.09-1.11-.37-1.55-1.22z" fill="#3C2C23"/><path d="M50.22 37c-.67-1.29.1-2.48 1.38-3.8 1.44-1.49 3.84-6.59 1.29-11.14-.48-.07-7.42.03-9.18.03h-15c-1.76 0-8.7-.1-9.18-.03-2.54 4.55-.15 9.66 1.29 11.14 1.28 1.32 2.05 2.51 1.38 3.8-.44.85-1.08 1.13-1.55 1.22.12.2.29.36.49.48.67.4 1.52.49 2.07.51.33.01.58.23.8.47 2.34 2.59 3.97 3.13 12.2 3.13 8.24 0 9.86-.54 12.2-3.13.22-.24.46-.46.8-.47.55-.01 1.4-.11 2.07-.51.2-.12.36-.28.49-.48-.47-.09-1.11-.37-1.55-1.22z" fill="none" stroke="#291D15" stroke-miterlimit="10" stroke-width="2"/><path d="M35.71 49.68c-2.13 0-3.87-1.65-3.87-3.68v-4.61h8.62V46c0 2.03-1.74 3.68-3.87 3.68h-.88z" fill="#7A4C32"/><path d="M39.95 41.89V46c0 1.75-1.51 3.18-3.37 3.18h-.87c-1.86 0-3.37-1.43-3.37-3.18v-4.11h7.61m1-1h-9.62V46c0 2.31 1.96 4.18 4.37 4.18h.87c2.41 0 4.37-1.87 4.37-4.18v-5.11h.01z" fill="#663B22"/><path d="M24.63 33.88c-2.21 0-4.01-1.93-4.01-4.31s1.8-4.31 4.01-4.31h23.02c2.21 0 4.01 1.93 4.01 4.31s-1.8 4.31-4.01 4.31H24.63z" fill="#7A4C32"/><path d="M47.65 25.76c1.94 0 3.51 1.71 3.51 3.81s-1.58 3.81-3.51 3.81H24.64c-1.94 0-3.51-1.71-3.51-3.81s1.58-3.81 3.51-3.81h23.01m0-1H24.64c-2.48 0-4.51 2.16-4.51 4.81 0 2.64 2.03 4.81 4.51 4.81h23.01c2.48 0 4.51-2.16 4.51-4.81.01-2.64-2.02-4.81-4.51-4.81z" fill="#663B22"/><linearGradient id="g" x1="36.095" x2="36.095" y1="43.282" y2="8.238" gradientUnits="userSpaceOnUse"><stop stop-color="#8D5738" offset="0"/><stop stop-color="#97603D" offset=".216"/><stop stop-color="#A26941" offset=".573"/><stop stop-color="#A56C43" offset="1"/></linearGradient><path d="M36.1 43.15c-6.56 0-13.62-5.09-13.62-16.27 0-8.96 5.21-18.62 13.62-18.62s13.62 9.67 13.62 18.62c0 11.18-7.06 16.27-13.62 16.27z" fill="url(#g)"/><path d="M36.1 8.76c3.3 0 6.58 1.8 9.02 4.94 2.64 3.41 4.1 8.09 4.1 13.18 0 4.94-1.42 9.06-4.11 11.91-2.36 2.49-5.56 3.86-9.01 3.86s-6.65-1.37-9.01-3.86c-2.69-2.85-4.11-6.96-4.11-11.91 0-5.09 1.46-9.77 4.1-13.18 2.43-3.14 5.72-4.94 9.02-4.94m0-1c-7.33 0-14.12 7.84-14.12 19.12 0 11.22 7 16.77 14.12 16.77 7.13 0 14.12-5.55 14.12-16.77 0-11.28-6.79-19.12-14.12-19.12z" fill="#875334"/><radialGradient id="h" cx="36.376" cy="17.278" r="15.479" gradientTransform="matrix(1 0 0 .8642 0 2.346)" gradientUnits="userSpaceOnUse"><stop stop-color="#554138" offset=".006"/><stop stop-color="#3C2C23" offset="1"/></radialGradient><path d="M31.24 7.55C26.02 9.4 25.5 6.12 25.5 6.12c-2.83 1.41-.97 4.45-.97 4.45s-2.87-.21-4.1 2.27c-1.29 2.6-.15 4.59-.15 4.59s-2.76 1.75-1.68 4.95c.72 2.12 2.87 2.97 2.87 2.97-.26 4.57 1.18 6.79 1.18 6.79s1.79-7.85 1.62-9.05c0 0 3.3-.66 7.05-2.8 2.53-1.45 4.26-3.15 7.11-3.79 4.33-.98 5.3 2.16 5.3 2.16s4.01-.77 5.22 4.8c.5 2.29.71 6.12.98 8.45-.02-.2 1.49-2.72 1.75-5.28.1-.95 1.54-3.26 1.97-4.99.94-3.75-.29-6.7-.88-7.58-1.07-1.61-3.61-3.83-5.52-3.51.1-2.04-1.51-3.94-3.45-4.59-5.29-1.79-11.01 1.03-12.56 1.59z" fill="url(#h)"/><defs><path id="i" d="M23.01 3.55l-5.2 8.93-.8 10.91 2.29 1.49 1.31-3.53 20.65-9.49 9.04 6.3 2.7 6.53 2.28-2.66-.88-18.48z"/></defs><clipPath id="j"><use xlink:href="#i"/></clipPath><g clip-path="url(#j)"><path d="M31.24 7.55C26.02 9.4 25.5 6.12 25.5 6.12c-2.83 1.41-.97 4.45-.97 4.45s-2.87-.21-4.1 2.27c-1.29 2.6-.15 4.59-.15 4.59s-2.76 1.75-1.68 4.95c.72 2.12 2.87 2.97 2.87 2.97-.26 4.57 1.18 6.79 1.18 6.79s1.79-7.85 1.62-9.05c0 0 3.3-.66 7.05-2.8 2.53-1.45 4.26-3.15 7.11-3.79 4.33-.98 5.3 2.16 5.3 2.16s4.01-.77 5.22 4.8c.5 2.29.71 6.12.98 8.45-.02-.2 1.49-2.72 1.75-5.28.1-.95 1.54-3.26 1.97-4.99.94-3.75-.29-6.7-.88-7.58-1.07-1.61-3.61-3.83-5.52-3.51.1-2.04-1.51-3.94-3.45-4.59-5.29-1.79-11.01 1.03-12.56 1.59z" fill="none" stroke="#291D15" stroke-miterlimit="10" stroke-width="2"/></g><g fill="#42312C"><ellipse cx="43.35" cy="28.45" rx="2.16" ry="2.24"/><ellipse cx="28.94" cy="28.45" rx="2.16" ry="2.24"/></g><path d="M32.55 36.43c1.4.83 5.97.83 7.37 0 .8-.48 1.62.25 1.29.98-.33.72-2.82 2.38-4.98 2.38s-4.62-1.66-4.95-2.38c-.34-.72.47-1.45 1.27-.98z" fill="#473530"/><path d="M34.75 32.4c.05-.02.09-.03.14-.04h3.1c.05.01.09.02.14.04.28.11.44.4.3.71-.13.31-.75 1.18-1.99 1.18s-1.86-.87-1.99-1.18c-.13-.3.02-.59.3-.71z" fill="#875334"/><g fill="#42312C"><path d="M32.03 24.57c-.39-.53-1.31-1.29-3.08-1.29s-2.69.76-3.08 1.29c-.17.23-.13.5-.01.66.11.15.44.29.81.17.37-.13 1.08-.5 2.28-.51 1.2.01 1.92.38 2.28.51.37.13.7-.01.81-.17.12-.16.16-.43-.01-.66zM46.43 24.57c-.39-.53-1.31-1.29-3.08-1.29s-2.69.76-3.08 1.29c-.17.23-.13.5-.01.66.11.15.44.29.81.17.37-.13 1.08-.5 2.28-.51 1.2.01 1.92.38 2.28.51.37.13.7-.01.81-.17.12-.16.16-.43-.01-.66z"/></g><linearGradient id="k" x1="24.376" x2="6.518" y1="52.207" y2="83.144" gradientTransform="matrix(-1 0 0 1 127.46 0)" gradientUnits="userSpaceOnUse"><stop stop-color="#A47B62" offset="0"/><stop stop-color="#AD8264" offset=".191"/><stop stop-color="#B78A67" offset=".551"/><stop stop-color="#BA8D68" offset="1"/></linearGradient><path d="M122.6 86.97c-.08 0-.13-.02-.19-.08-.36-.33-.64-1.46-.84-2.29-.35-1.44-.72-2.93-2.04-2.93-.12 0-.23.01-.35.04-.35.08-.64.29-.81.59-.33.57-.15 1.19.04 1.85.1.37.22.78.24 1.14v.11c-.29-.37-.89-1.31-1.4-2.14l-.62-4.01a.997.997 0 0 0-.17-.43L101.5 57.83l-.22-2.79 7.99-.49 5.72 12.7c.02.05.05.1.08.15 0 0 4.24 6.32 6.17 9.17.03.05.07.09.11.14 1.76 1.8 2.16 2.36 2.79 4.74.74 2.81.28 4.04.12 4.35-.17.31-1.08 1.17-1.66 1.17z" fill="url(#k)"/><path d="M108.64 55.58l5.43 12.07c.05.1.1.2.16.29 0 0 4.24 6.33 6.17 9.18.07.1.14.19.23.28 1.68 1.72 1.96 2.11 2.54 4.3.64 2.41.29 3.42.21 3.61-.09.13-.28.3-.46.44-.15-.42-.29-1.01-.38-1.38-.38-1.56-.9-3.69-3.01-3.69-.19 0-.39.02-.58.07-.38.09-.72.27-1 .52l-.33-2.15c-.05-.31-.17-.6-.35-.86l-14.81-20.78-.12-1.5 6.3-.4m1.26-2.08l-9.7.6.32 4.08 15.13 21.24.65 4.21s1.52 2.54 1.85 2.71c.18.09.37.14.57.14.51 0 .98-.35.93-1.22-.07-1.2-.83-2.42-.23-2.56.04-.01.08-.01.11-.01 1.05 0 1 3.84 2.2 4.95.26.24.56.34.87.34 1.07 0 2.27-1.18 2.55-1.72.35-.69.71-2.23-.04-5.06-.68-2.57-1.17-3.27-3.04-5.19-1.93-2.85-6.17-9.17-6.17-9.17-1.5-3.34-6-13.34-6-13.34z" fill="#91674D"/><linearGradient id="l" x1="2.383" x2="2.419" y1="84.066" y2="84.066" gradientTransform="matrix(-1 0 0 1 127.46 0)" gradientUnits="userSpaceOnUse"><stop stop-color="#FFB300" offset="0"/><stop stop-color="#FFCA28" offset=".401"/></linearGradient><path d="M125.08 84.19c-.02-.15-.03-.26-.03-.26s.05.28.03.26z" fill="url(#l)"/><path d="M125.04 83.94s.02.11.03.26c.02-.01-.03-.26-.03-.26z" fill="#EDA600"/><path d="M70.44 86.79c-1.25-1.92-2.17-2.92-2.17-2.92M72.02 85.38c-1.25-1.92-2.42-2.92-2.42-2.92" fill="none" stroke="#875334" stroke-linecap="round" stroke-linejoin="round" stroke-miterlimit="10"/><linearGradient id="m" x1="35.843" x2="35.843" y1="122.69" y2="78.007" gradientTransform="matrix(-1 0 0 1 127.46 0)" gradientUnits="userSpaceOnUse"><stop stop-color="#616161" offset=".001"/><stop stop-color="#6B6B6B" offset=".446"/><stop stop-color="#6E6E6E" offset="1"/></linearGradient><path d="M105.6 78.01v44.68h-5.65l-7.87-38.21c-.04-.24-.24-.41-.46-.41s-.42.17-.46.41l-7.87 38.21h-5.65V78.01h27.96z" fill="url(#m)"/><path d="M100.83 121.69l-7.71-37.41c-.13-.69-.73-1.2-1.44-1.2s-1.31.51-1.44 1.22l-7.7 37.39h-3.83V75.61h25.95v46.08h-3.83z" fill="#7C7C7C"/><path d="M103.66 76.61v44.08h-2.02l-7.53-36.58c-.22-1.18-1.24-2.04-2.43-2.04s-2.21.86-2.42 2l-7.54 36.61H79.7V76.61h23.96m2-2H77.71v48.08h5.65l7.87-38.21c.04-.24.24-.41.46-.41s.42.17.46.41l7.87 38.21h5.65V74.61h-.01z" fill="#5B5B5B"/><g fill="#2B2D2D"><path d="M102.6 124h4.45c.82-.02 1.41-.96 1.17-1.78-.74-2.49-2.99-4.32-5.62-4.32-2.68 0-4.96 1.9-5.66 4.46-.22.82.39 1.63 1.21 1.63h4.45zM80.56 124h-4.45c-.82-.02-1.41-.96-1.17-1.78.74-2.49 2.99-4.32 5.62-4.32 2.68 0 4.96 1.9 5.66 4.46.22.82-.39 1.63-1.21 1.63h-4.45z"/></g><linearGradient id="n" x1="35.776" x2="35.776" y1="44.814" y2="77" gradientTransform="matrix(-1 0 0 1 127.46 0)" gradientUnits="userSpaceOnUse"><stop stop-color="#FF7507" offset=".001"/><stop stop-color="#FD6806" offset=".388"/><stop stop-color="#F94B04" offset="1"/></linearGradient><path d="M78.73 77V59.72c0-.41-.26-.79-.64-.93l-7.44-2.85c2.11-5.49 4.09-8.35 10.68-10.1 2.3-.61 6.45-1.03 10.32-1.03h.16c3.84 0 7.97.41 10.27 1.03 6.55 1.74 8.53 4.6 10.64 10.11l-7.35 2.84c-.39.15-.64.52-.64.93V77h-26z" fill="url(#n)"/><path d="M91.81 45.81c3.76 0 7.79.4 10.01.99 5.81 1.55 7.68 3.81 9.6 8.57L105 57.85c-.77.3-1.28 1.04-1.28 1.87V76h-24V59.72c0-.83-.51-1.57-1.29-1.87l-6.5-2.49c1.89-4.66 3.83-7.02 9.64-8.56 2.23-.59 6.27-.99 10.06-.99h.18m0-2h-.16c-3.98 0-8.17.42-10.57 1.06-7.55 2.01-9.46 5.56-11.71 11.65l8.37 3.2V78h28V59.72l8.28-3.2c-2.25-6.09-4.12-9.64-11.67-11.65-2.41-.64-6.56-1.06-10.54-1.06z" fill="#E14501"/><path d="M105.7 37c-.67-1.29.1-2.48 1.38-3.8 1.44-1.49 3.84-6.59 1.29-11.14-.48-.07-7.42.03-9.18.03h-15c-1.76 0-8.7-.1-9.18-.03-2.54 4.55-.15 9.66 1.29 11.14 1.28 1.32 2.05 2.51 1.38 3.8-.44.85-1.08 1.13-1.55 1.22.12.2.29.36.49.48.67.4 1.52.49 2.07.51.33.01.58.23.8.47 2.34 2.59 3.97 3.13 12.2 3.13 8.24 0 9.86-.54 12.2-3.13.22-.24.46-.46.8-.47.55-.01 1.4-.11 2.07-.51.2-.12.36-.28.49-.48-.47-.09-1.12-.37-1.55-1.22z" fill="#543930"/><path d="M105.7 37c-.67-1.29.1-2.48 1.38-3.8 1.44-1.49 3.84-6.59 1.29-11.14-.48-.07-7.42.03-9.18.03h-15c-1.76 0-8.7-.1-9.18-.03-2.54 4.55-.15 9.66 1.29 11.14 1.28 1.32 2.05 2.51 1.38 3.8-.44.85-1.08 1.13-1.55 1.22.12.2.29.36.49.48.67.4 1.52.49 2.07.51.33.01.58.23.8.47 2.34 2.59 3.97 3.13 12.2 3.13 8.24 0 9.86-.54 12.2-3.13.22-.24.46-.46.8-.47.55-.01 1.4-.11 2.07-.51.2-.12.36-.28.49-.48-.47-.09-1.12-.37-1.55-1.22z" fill="none" stroke="#3F2720" stroke-miterlimit="10" stroke-width="2"/><path d="M91.18 49.68c-2.13 0-3.87-1.65-3.87-3.68v-4.61h8.62V46c0 2.03-1.74 3.68-3.87 3.68h-.88z" fill="#99674F"/><path d="M95.43 41.89V46c0 1.75-1.51 3.18-3.37 3.18h-.87c-1.86 0-3.37-1.43-3.37-3.18v-4.11h7.61m1-1h-9.62V46c0 2.31 1.96 4.18 4.37 4.18h.87c2.41 0 4.37-1.87 4.37-4.18v-5.11h.01z" fill="#875740"/><path d="M80.11 33.88c-2.21 0-4.01-1.93-4.01-4.31s1.8-4.31 4.01-4.31h23.02c2.21 0 4.01 1.93 4.01 4.31s-1.8 4.31-4.01 4.31H80.11z" fill="#99674F"/><path d="M103.13 25.76c1.94 0 3.51 1.71 3.51 3.81s-1.58 3.81-3.51 3.81H80.11c-1.94 0-3.51-1.71-3.51-3.81s1.58-3.81 3.51-3.81h23.02m0-1H80.11c-2.48 0-4.51 2.16-4.51 4.81 0 2.64 2.03 4.81 4.51 4.81h23.01c2.48 0 4.51-2.16 4.51-4.81.01-2.64-2.02-4.81-4.5-4.81z" fill="#875740"/><linearGradient id="o" x1="91.571" x2="91.571" y1="43.282" y2="8.238" gradientUnits="userSpaceOnUse"><stop stop-color="#A47B62" offset="0"/><stop stop-color="#AD8264" offset=".191"/><stop stop-color="#B78A67" offset=".551"/><stop stop-color="#BA8D68" offset="1"/></linearGradient><path d="M91.57 43.15c-6.56 0-13.62-5.09-13.62-16.27 0-8.96 5.21-18.62 13.62-18.62s13.62 9.67 13.62 18.62c0 11.18-7.06 16.27-13.62 16.27z" fill="url(#o)"/><path d="M91.57 8.76c3.3 0 6.58 1.8 9.02 4.94 2.64 3.41 4.1 8.09 4.1 13.18 0 4.94-1.42 9.06-4.11 11.91-2.36 2.49-5.56 3.86-9.01 3.86s-6.65-1.37-9.01-3.86c-2.69-2.85-4.11-6.96-4.11-11.91 0-5.09 1.46-9.77 4.1-13.18 2.44-3.14 5.73-4.94 9.02-4.94m0-1c-7.33 0-14.12 7.84-14.12 19.12 0 11.22 7 16.77 14.12 16.77 7.13 0 14.12-5.55 14.12-16.77 0-11.28-6.79-19.12-14.12-19.12z" fill="#91674D"/><radialGradient id="p" cx="91.852" cy="17.278" r="15.479" gradientTransform="matrix(1 0 0 .8642 0 2.346)" gradientUnits="userSpaceOnUse"><stop stop-color="#6D4C41" offset="0"/><stop stop-color="#543930" offset="1"/></radialGradient><path d="M86.71 7.55c-5.22 1.85-5.74-1.42-5.74-1.42-2.83 1.4-.97 4.44-.97 4.44s-2.87-.21-4.1 2.27c-1.29 2.6-.15 4.59-.15 4.59s-2.76 1.75-1.68 4.95c.72 2.12 2.87 2.97 2.87 2.97-.26 4.57 1.18 6.79 1.18 6.79s1.79-7.85 1.62-9.05c0 0 3.3-.66 7.05-2.8 2.53-1.45 4.26-3.15 7.11-3.79 4.33-.98 5.3 2.16 5.3 2.16s4.01-.77 5.22 4.8c.5 2.29.71 6.12.98 8.45-.02-.2 1.49-2.72 1.75-5.28.1-.95 1.54-3.26 1.97-4.99.94-3.75-.29-6.7-.88-7.58-1.07-1.61-3.61-3.83-5.52-3.51.1-2.04-1.51-3.94-3.45-4.59-5.29-1.79-11 1.03-12.56 1.59z" fill="url(#p)"/><defs><path id="q" d="M78.49 3.55l-5.2 8.93-.81 10.91 2.3 1.49 1.31-3.53 20.65-9.49 9.04 6.3 2.7 6.53 2.28-2.66-.89-18.48z"/></defs><clipPath id="r"><use xlink:href="#q"/></clipPath><g clip-path="url(#r)"><path d="M86.71 7.55c-5.22 1.85-5.74-1.42-5.74-1.42-2.83 1.4-.97 4.44-.97 4.44s-2.87-.21-4.1 2.27c-1.29 2.6-.15 4.59-.15 4.59s-2.76 1.75-1.68 4.95c.72 2.12 2.87 2.97 2.87 2.97-.26 4.57 1.18 6.79 1.18 6.79s1.79-7.85 1.62-9.05c0 0 3.3-.66 7.05-2.8 2.53-1.45 4.26-3.15 7.11-3.79 4.33-.98 5.3 2.16 5.3 2.16s4.01-.77 5.22 4.8c.5 2.29.71 6.12.98 8.45-.02-.2 1.49-2.72 1.75-5.28.1-.95 1.54-3.26 1.97-4.99.94-3.75-.29-6.7-.88-7.58-1.07-1.61-3.61-3.83-5.52-3.51.1-2.04-1.51-3.94-3.45-4.59-5.29-1.79-11 1.03-12.56 1.59z" fill="none" stroke="#3F2720" stroke-miterlimit="10" stroke-width="2"/></g><g fill="#49362E"><ellipse cx="98.82" cy="28.45" rx="2.16" ry="2.24"/><ellipse cx="84.42" cy="28.45" rx="2.16" ry="2.24"/></g><path d="M88.03 36.43c1.4.83 5.97.83 7.37 0 .8-.48 1.62.25 1.29.98-.33.72-2.82 2.38-4.98 2.38s-4.62-1.66-4.95-2.38c-.34-.72.47-1.45 1.27-.98z" fill="#5D4037"/><path d="M90.23 32.4c.05-.02.09-.03.14-.04h3.1c.05.01.09.02.14.04.28.11.44.4.3.71-.13.31-.75 1.18-1.99 1.18s-1.86-.87-1.99-1.18c-.14-.3.02-.59.3-.71z" fill="#99674F"/><g fill="#613E31"><path d="M87.5 24.57c-.39-.53-1.31-1.29-3.08-1.29s-2.69.76-3.08 1.29c-.17.23-.13.5-.01.66.11.15.44.29.81.17.37-.13 1.08-.5 2.28-.51 1.2.01 1.92.38 2.28.51.37.13.7-.01.81-.17a.54.54 0 0 0-.01-.66zM101.91 24.57c-.39-.53-1.31-1.29-3.08-1.29s-2.69.76-3.08 1.29c-.17.23-.13.5-.01.66.11.15.44.29.81.17.37-.13 1.08-.5 2.28-.51 1.2.01 1.92.38 2.28.51.37.13.7-.01.81-.17.12-.16.16-.43-.01-.66z"/></g><path d="M68.72 87.55c.19-.71-.15-1.48-.84-1.8-.11-.05-.22-.08-.33-.11l.02-.06c.27-.84-.2-1.75-1.04-2.02l-.03-.2a1.594 1.594 0 0 0-1.55-1.18c-.18 0-.36.04-.52.1-.16-.2-.35-.38-.59-.49l-.1-.04a1.626 1.626 0 0 0-2.14.82s-2.92 3.85-.04 4.8c.05.02.11-.01.16-.01.1.09.2.19.32.33.35.39.84.94 1.89 1.23.7.2 1.31.08 1.76-.04.15.19.33.34.56.45 1.21.59 2.33-.54 2.47-1.78z" fill="#91674D"/><path d="M66.57 88.1c.35.16.76.01.92-.34l.18-.4c.16-.35.01-.76-.34-.92s-.76-.01-.92.34l-.18.4c-.17.35-.01.76.34.92zM65.01 87.27c.33.16.74.02.91-.31l.66-1.36c.16-.33.02-.74-.31-.91a.694.694 0 0 0-.91.31l-.66 1.36c-.16.34-.02.75.31.91zM63.32 86.44c.33.17.74.04.91-.29l1.1-2.12c.17-.33.04-.74-.29-.91s-.74-.04-.91.29l-1.1 2.12a.67.67 0 0 0 .29.91zM61.69 85.5l.04.02c.34.17.76.03.93-.31l.92-1.84c.17-.34.03-.76-.31-.93l-.04-.02a.697.697 0 0 0-.93.31l-.92 1.84a.68.68 0 0 0 .31.93z" fill="#BA8D68"/></svg>