<svg viewBox="0 0 128 128" width="128" height="128" xmlns="http://www.w3.org/2000/svg" xmlns:xlink="http://www.w3.org/1999/xlink"><defs><path id="a" d="M4 3.25h119.75V123.5H4z"/></defs><clipPath id="b"><use xlink:href="#a"/></clipPath><g clip-path="url(#b)"><path d="M84 63.32c-.96-1.86.15-3.56 1.99-5.46 2.07-2.14 5.51-9.47 1.86-16.01-.69-.1-10.66.05-13.19.05H53.12c-2.53 0-12.5-.15-13.19-.05-3.65 6.54-.21 13.87 1.86 16.01 1.84 1.9 2.95 3.6 1.99 5.46-.63 1.22-1.56 1.62-2.23 1.75.18.28.42.52.7.68.96.58 2.19.71 2.98.73.48.01.83.33 1.14.68 3.36 3.73 5.7 4.5 17.53 4.5s14.17-.77 17.53-4.5c.32-.35.66-.67 1.14-.68.79-.02 2.01-.15 2.98-.73.28-.17.52-.4.7-.68-.7-.14-1.63-.53-2.25-1.75z" fill="#543930"/><path d="M84 63.32c-.96-1.86.15-3.56 1.99-5.46 2.07-2.14 5.51-9.47 1.86-16.01-.69-.1-10.66.05-13.19.05H53.12c-2.53 0-12.5-.15-13.19-.05-3.65 6.54-.21 13.87 1.86 16.01 1.84 1.9 2.95 3.6 1.99 5.46-.63 1.22-1.56 1.62-2.23 1.75.18.28.42.52.7.68.96.58 2.19.71 2.98.73.48.01.83.33 1.14.68 3.36 3.73 5.7 4.5 17.53 4.5s14.17-.77 17.53-4.5c.32-.35.66-.67 1.14-.68.79-.02 2.01-.15 2.98-.73.28-.17.52-.4.7-.68-.7-.14-1.63-.53-2.25-1.75z" fill="none" stroke="#402720" stroke-miterlimit="10" stroke-width="2"/><linearGradient id="c" x1="65.894" x2="65.894" y1="73.674" y2="111.54" gradientUnits="userSpaceOnUse"><stop stop-color="#FF7507" offset=".001"/><stop stop-color="#FD6806" offset=".388"/><stop stop-color="#F94B04" offset="1"/></linearGradient><path d="M41.92 124.78l.13-24.78-1.27.34c-.04.01-4.07 1.1-8.67 2.21-.53.13-1.08.19-1.63.19-4.16 0-8.1-3.36-9.16-7.83-2-8.37-2.99-18.16-3-18.25 0-1.05.18-1.27.19-1.28.05-.03.26-.08.42-.11.19-.04.38-.08.59-.15l4.77-1.11c.21-.06.35-.11.5-.16.25-.09.51-.18.67-.18.21 0 .51.45.77 1.18l4.59 14.45 7.47-6.54c.45-.33.95-.74 1.47-1.17 3.71-3.02 8.32-6.79 23.81-6.79h.25c18.12 0 23.02 5.82 26.81 12.3 3.17 5.43 4.99 8.93 5.01 8.97l.78 1.51 6.94-10.48c.43-.23 2.24-.58 3.48-.58.29 0 .39.02.39.02l5.34 1.49c.34.08.81.54.88.77-.36.81-.87 2.01-1.47 3.43-2.18 5.12-5.82 13.68-7.61 16.43-1.77 2.73-4.77 3.14-6.4 3.14-2.4 0-4.82-.85-6.03-2.12-2.81-2.94-4.66-5.23-4.67-5.26l-1.78-2.21v22.56H41.92z" fill="url(#c)"/><path d="M25.13 74.8c.04.09.1.21.15.37l4.13 12.99.93 2.91 2.3-2.01 6.26-5.49c.51-.38.99-.78 1.5-1.19 3.58-2.92 8.05-6.56 23.18-6.56h.26c17.62 0 22.17 5.35 25.94 11.81 3.15 5.4 4.97 8.89 4.98 8.92l1.57 3.02 1.88-2.84 5.82-8.79c.6-.19 1.94-.41 2.83-.41h.19L112.3 89c-.33.76-.75 1.74-1.22 2.86-2.17 5.08-5.79 13.6-7.53 16.28-1.52 2.33-4.13 2.68-5.56 2.68-2.46 0-4.47-.94-5.3-1.81-2.78-2.91-4.6-5.17-4.62-5.19l-3.56-4.42v24.4H42.93l.12-22.46.01-2.63-2.54.69c-.04.01-4.06 1.1-8.64 2.2-.45.11-.92.16-1.4.16-3.65 0-7.24-3.1-8.19-7.06-1.87-7.84-2.86-16.96-2.97-18.02 0-.19.01-.34.02-.46.13-.03.25-.06.39-.1l4.78-1.11.06-.01.06-.02c.17-.07.34-.13.5-.18M25.46 72.67c-.46 0-.93.23-1.39.37l-4.83 1.12c-1.1.33-1.9 0-1.9 2.59 0 0 .98 9.85 3.02 18.39 1.21 5.06 5.71 8.59 10.13 8.59a7.9 7.9 0 0 0 1.87-.22c4.66-1.12 8.69-2.21 8.69-2.21l-.13 24.47H86.5v-20.72s1.85 2.31 4.73 5.32c1.36 1.42 4.01 2.43 6.75 2.43s5.55-1 7.24-3.59c2.34-3.6 7.53-16.3 9.19-20.07.34-.76-.74-1.88-1.55-2.07l-5.38-1.5c-.14-.03-.36-.05-.62-.05-1.29 0-3.71.39-4.23.9l-6.09 9.19s-1.81-3.5-5.03-9.01c-4.24-7.25-9.67-12.8-27.67-12.8h-.26c-18 0-21.8 5.09-25.94 8.2l-6.32 5.54-4.14-13.03c-.54-1.45-1.12-1.84-1.72-1.84z" fill="#E14501"/><path d="M63.04 80.12c-2.42 0-4.39-1.95-4.39-4.34v-5.41h9.75v5.41c0 2.39-1.97 4.34-4.38 4.34h-.98z" fill="#E59600"/><path d="M67.9 70.88v4.91c0 2.11-1.74 3.84-3.89 3.84h-.98c-2.14 0-3.89-1.72-3.89-3.84v-4.91h8.76m1-1H58.16v5.91c0 2.67 2.19 4.84 4.89 4.84h.98c2.7 0 4.89-2.17 4.89-4.84v-5.91h-.02z" fill="#D18100"/><path d="M65.04 77.76c1.21-.83 2.35-1.43 3.5-2.17.93-.59 2.5-1.69 3.97-1.13 1.25.48.8 2.18.8 4.41 0 2.62.44 4.14-.55 4.58-1.33.59-3.09-.45-4.55-1.09-.83-.36-3.21-1.45-3.61-2.08-.41-.63-.39-2.11.44-2.52z" fill="#212121"/><ellipse transform="rotate(-11.678 68.189 78.145)" cx="68.2" cy="78.15" rx="3.07" ry=".34" fill="#616161"/><ellipse transform="rotate(-81.807 68.197 80.208)" cx="68.2" cy="80.21" rx=".34" ry="3.06" fill="#616161"/><path d="M62.12 77.76c-1.21-.83-2.35-1.43-3.5-2.17-.93-.59-2.5-1.69-3.97-1.13-1.25.48-.8 2.18-.8 4.41 0 2.62-.44 4.14.55 4.58 1.33.59 3.09-.45 4.55-1.09.83-.36 3.22-1.45 3.62-2.08s.38-2.11-.45-2.52z" fill="#212121"/><ellipse transform="rotate(-78.323 58.966 78.153)" cx="58.96" cy="78.15" rx=".34" ry="3.07" fill="#616161"/><ellipse transform="rotate(-8.19 58.96 80.2)" cx="58.96" cy="80.21" rx="3.06" ry=".34" fill="#616161"/><path d="M66.24 79.34c0 1.52-1.19 2.39-2.66 2.39s-2.66-.87-2.66-2.39.67-2.74 2.66-2.74c1.92 0 2.66 1.23 2.66 2.74z" fill="#212121"/><linearGradient id="d" x1="19.177" x2="19.177" y1="59.619" y2="74.56" gradientUnits="userSpaceOnUse"><stop stop-color="#F5F5F5" offset="0"/><stop stop-color="#E0E0E0" offset=".997"/></linearGradient><path d="M21.52 76.4c-3.09 0-6.14-1.3-8.36-3.57-1.84-1.88-2.88-4.44-3.08-7.61-.06-1-.13-4.37 1.6-5.47.36-.23.74-.34 1.13-.34.49 0 .91.18 1.24.41.46-.97 1.27-1.92 2.53-1.92.09 0 .19 0 .29.02.63.07 1.1.29 1.42.51.34-.25.82-.48 1.41-.48h.13c1.01.06 1.53.53 1.79.92.26.38.35.82.36 1.22.26-.14.59-.25.98-.25.33 0 .66.08.99.24 1.54.75 1.28 2.13 1.1 3.04-.04.23-.09.47-.11.7-.15 1.64.61 2.95.78 3.21.17.17.34.33.5.49 1.41 1.36 2.62 2.53 1.79 5.36-.61 2.1-3.23 3.52-6.49 3.52z" fill="url(#d)"/><path d="M16.59 58.65c.07 0 .13 0 .2.01 1.12.13 1.5.81 1.5.81s.55-.76 1.42-.76h.09c2.08.13 1.3 2.37 1.3 2.37s.27.12.55.12c.08 0 .16-.01.23-.04 0 0 .39-.58 1.09-.58.2 0 .42.05.67.16 1.32.64.67 1.84.57 3-.19 2.14.94 3.75.94 3.75 1.63 1.64 2.95 2.44 2.15 5.15-.53 1.78-2.92 3-5.79 3-2.55 0-5.49-.96-7.82-3.35-1.87-1.91-2.7-4.47-2.86-7.13-.1-1.65.09-4.05 1.25-4.79.25-.16.5-.23.73-.23.91 0 1.56 1.05 1.56 1.05s.52-2.54 2.22-2.54m0-1.5c-1.31 0-2.23.76-2.83 1.68-.29-.1-.6-.17-.94-.17-.53 0-1.05.15-1.53.46-2.03 1.28-2.04 4.73-1.95 6.15.21 3.35 1.32 6.07 3.29 8.09 2.36 2.41 5.61 3.8 8.9 3.8 3.6 0 6.51-1.64 7.23-4.07.96-3.26-.6-4.78-1.98-6.11-.14-.13-.28-.27-.43-.42-.18-.3-.74-1.37-.62-2.67.02-.18.06-.4.1-.63.18-.93.55-2.86-1.51-3.86a2.97 2.97 0 0 0-1.32-.31c-.14 0-.27.01-.4.03a3.33 3.33 0 0 0-.32-.66c-.35-.52-1.05-1.17-2.37-1.25-.06 0-.12-.01-.18-.01-.55 0-1.03.15-1.42.35-.36-.18-.8-.32-1.33-.39-.15 0-.27-.01-.39-.01z" fill="#9E9E9E"/><path d="M21.82 67.63c-1.32-1.89-.96-4.82-.07-7.2M18.22 68.09c-1.49-3.01-1.54-6.62.04-9.26M14.97 68.5c-1.72-2.5-1.63-6.35-.38-9.02" fill="none" stroke="#9E9E9E" stroke-linecap="round" stroke-linejoin="round" stroke-miterlimit="10"/><linearGradient id="e" x1="70.843" x2="70.843" y1="73.086" y2="88.026" gradientTransform="matrix(-1 0 0 1 182.56 0)" gradientUnits="userSpaceOnUse"><stop stop-color="#F5F5F5" offset="0"/><stop stop-color="#E0E0E0" offset=".997"/></linearGradient><path d="M109.37 89.87c-3.27 0-5.88-1.42-6.51-3.54-.83-2.83.38-4 1.79-5.36.16-.16.33-.32.5-.49.16-.25.92-1.57.78-3.2-.02-.23-.07-.47-.11-.7-.18-.92-.44-2.3 1.1-3.04.33-.16.66-.24.99-.24.39 0 .72.11.98.25.01-.4.1-.83.36-1.22.26-.38.77-.85 1.79-.92h.13c.59 0 1.07.23 1.41.48.33-.23.79-.44 1.42-.51.1-.01.2-.02.29-.02 1.26 0 2.07.95 2.53 1.92.34-.23.76-.41 1.24-.41.39 0 .77.12 1.13.34 1.73 1.1 1.67 4.46 1.6 5.47-.2 3.17-1.23 5.73-3.08 7.61-2.2 2.28-5.25 3.58-8.34 3.58z" fill="url(#e)"/><path d="M114.3 72.11c1.69 0 2.21 2.56 2.21 2.56s.65-1.05 1.56-1.05c.23 0 .47.06.73.23 1.16.74 1.36 3.14 1.25 4.79-.17 2.66-.99 5.22-2.86 7.13-2.34 2.39-5.27 3.35-7.82 3.35-2.87 0-5.26-1.22-5.79-3-.8-2.71.52-3.52 2.15-5.15 0 0 1.13-1.61.94-3.75-.1-1.16-.75-2.37.57-3 .25-.12.47-.16.67-.16.7 0 1.09.58 1.09.58.07.03.15.04.23.04.28 0 .55-.12.55-.12s-.78-2.24 1.3-2.37h.09c.87 0 1.42.76 1.42.76s.38-.68 1.5-.81c.08-.02.15-.03.21-.03m0-1.5c-.12 0-.25.01-.38.02-.54.06-.98.21-1.33.39-.39-.2-.86-.35-1.42-.35-.06 0-.12 0-.18.01-1.32.08-2.02.72-2.37 1.25-.14.21-.25.44-.32.66-.13-.02-.26-.03-.4-.03-.44 0-.89.11-1.32.31-2.06 1-1.69 2.93-1.51 3.86.04.23.08.44.1.63.11 1.29-.44 2.36-.62 2.67-.15.14-.29.28-.43.41-1.38 1.33-2.95 2.84-1.98 6.11.72 2.44 3.62 4.07 7.23 4.07 3.29 0 6.53-1.38 8.9-3.8 1.97-2.01 3.08-4.73 3.29-8.09.09-1.42.08-4.86-1.95-6.15-.48-.3-1-.46-1.53-.46-.34 0-.66.06-.94.17-.61-.91-1.53-1.68-2.84-1.68z" fill="#9E9E9E"/><path d="M109.07 81.1c1.32-1.89.96-4.82.07-7.2M112.67 81.55c1.49-3.01 1.54-6.62-.04-9.26M115.92 81.97c1.72-2.5 1.63-6.35.38-9.02" fill="none" stroke="#9E9E9E" stroke-linecap="round" stroke-linejoin="round" stroke-miterlimit="10"/><path d="M47.08 57.49c-3.38 0-6.13-2.95-6.13-6.57s2.75-6.57 6.13-6.57h33.84c3.38 0 6.13 2.95 6.13 6.57s-2.75 6.57-6.13 6.57H47.08z" fill="#E59600"/><path d="M80.92 44.86c3.11 0 5.63 2.72 5.63 6.07S84.02 57 80.92 57H47.09c-3.11 0-5.63-2.72-5.63-6.07s2.53-6.07 5.63-6.07h33.83m0-1H47.09c-3.65 0-6.63 3.18-6.63 7.07S43.44 58 47.09 58h33.83c3.65 0 6.63-3.18 6.63-7.07s-2.98-7.07-6.63-7.07z" fill="#D18100"/><linearGradient id="f" x1="64.001" x2="64.001" y1="71.313" y2="20.457" gradientUnits="userSpaceOnUse"><stop stop-color="#FFB300" offset="0"/><stop stop-color="#FFB809" offset=".102"/><stop stop-color="#FFC21A" offset=".371"/><stop stop-color="#FFC825" offset=".659"/><stop stop-color="#FFCA28" offset="1"/></linearGradient><path d="M64 71.74c-9.75 0-20.25-7.56-20.25-24.15 0-7.69 2.21-14.78 6.23-19.96 3.77-4.86 8.88-7.64 14.02-7.64s10.26 2.79 14.02 7.64c4.02 5.18 6.23 12.27 6.23 19.96 0 7.52-2.18 13.8-6.31 18.16-3.65 3.86-8.6 5.99-13.94 5.99z" fill="url(#f)"/><path d="M64 20.49c4.99 0 9.96 2.71 13.63 7.45 3.95 5.09 6.13 12.08 6.13 19.66 0 7.39-2.14 13.55-6.18 17.82-3.55 3.76-8.38 5.83-13.58 5.83s-10.02-2.07-13.58-5.83c-4.04-4.27-6.18-10.43-6.18-17.82 0-7.58 2.18-14.56 6.13-19.66 3.67-4.74 8.64-7.45 13.63-7.45m0-1c-10.77 0-20.75 11.52-20.75 28.1 0 16.49 10.28 24.65 20.75 24.65s20.75-8.15 20.75-24.65c0-16.58-9.97-28.1-20.75-28.1z" fill="#ED9E00"/><g fill="#6D4C41"><path d="M57.86 44.42c-.57-.75-1.88-1.85-4.43-1.85s-3.86 1.1-4.43 1.85c-.25.33-.19.72-.01.95.16.22.64.42 1.16.24.53-.18 1.56-.71 3.28-.73 1.72.01 2.75.55 3.28.73s1-.02 1.16-.24c.18-.23.24-.62-.01-.95zM78.55 44.42c-.57-.75-1.88-1.85-4.43-1.85s-3.86 1.1-4.43 1.85c-.25.33-.19.72-.01.95.16.22.64.42 1.16.24.53-.18 1.56-.71 3.28-.73 1.72.01 2.75.55 3.28.73s1-.02 1.16-.24c.18-.23.24-.62-.01-.95z"/></g><ellipse cx="53.82" cy="49.04" rx="3.05" ry="3.16" fill="#404040"/><ellipse cx="74.18" cy="49.04" rx="3.05" ry="3.16" fill="#404040"/><path d="M66.39 54.77a.734.734 0 0 0-.2-.05h-4.38c-.07.01-.13.02-.2.05-.4.16-.62.57-.43 1.01s1.06 1.67 2.82 1.67 2.63-1.23 2.82-1.67-.03-.85-.43-1.01z" fill="#E59600"/><path d="M69.21 59.77c-1.97 1.17-8.44 1.17-10.41 0-1.13-.67-2.29.36-1.82 1.39.46 1.01 3.99 3.36 7.04 3.36s6.53-2.35 6.99-3.36c.48-1.03-.66-2.06-1.8-1.39z" fill="#795548"/><defs><path id="g" d="M64 15.13h-.02c-28.13.15-22.37 32.28-22.37 32.28s3.16 5.56 3.16 5.45c-.02-.88.28-4.27.28-4.27l-1.66-1.81s2.41-15.75 4.2-15.42c2.76.5 16.43 1.24 16.45 1.24 4.84 0 9.24-.22 11.99-.72 1.79-.33 5.97 1.05 6.61 2.76.82 2.19 1.94 12.2 1.94 12.2l-1.66 1.75s.3 3.41.28 4.27c0 .11 3.16-5.45 3.16-5.45S92.13 15.28 64 15.13z"/></defs><defs><path id="h" d="M35.29 35.92h56.2V75.8h-56.2z"/></defs><clipPath id="i"><use xlink:href="#h"/></clipPath><g clip-path="url(#i)"><radialGradient id="j" cx="64.108" cy="33.947" r="22.237" gradientTransform="matrix(1 0 0 .8642 0 4.61)" gradientUnits="userSpaceOnUse"><stop stop-color="#6D4C41" offset="0"/><stop stop-color="#543930" offset="1"/></radialGradient><path d="M56.72 19.97c-7.5 2.66-8.25-2.05-8.25-2.05-4.07 2.03-1.4 6.39-1.4 6.39s-4.13-.31-5.89 3.27c-1.85 3.73-.22 6.59-.22 6.59s-3.97 2.52-2.41 7.11c1.03 3.04 4.13 4.27 4.13 4.27-.38 6.57 1.69 9.75 1.69 9.75s2.57-11.28 2.33-13c0 0 4.75-.94 10.13-4.02 3.64-2.08 6.12-4.53 10.22-5.45 6.22-1.4 7.61 3.1 7.61 3.1s5.76-1.11 7.5 6.89c.72 3.29 1.02 8.79 1.41 12.13-.03-.29 2.14-3.91 2.52-7.58.14-1.36 2.21-4.69 2.83-7.16 1.35-5.38-.42-9.62-1.26-10.89-1.53-2.32-5.19-5.5-7.93-5.04.14-2.93-2.17-5.66-4.95-6.59-7.61-2.57-15.82 1.48-18.06 2.28z" fill="url(#j)"/></g><g clip-path="url(#i)"><defs><path id="k" d="M44.91 14.22l-7.47 12.84-1.15 15.66 3.29 2.14 1.88-5.06 29.67-13.64 12.99 9.06 3.87 9.38 3.28-3.82L90 14.22z"/></defs><clipPath id="l"><use xlink:href="#k"/></clipPath><g clip-path="url(#l)"><path d="M56.72 19.97c-7.5 2.66-8.25-2.05-8.25-2.05-4.07 2.03-1.4 6.39-1.4 6.39s-4.13-.31-5.89 3.27c-1.85 3.73-.22 6.59-.22 6.59s-3.97 2.52-2.41 7.11c1.03 3.04 4.13 4.27 4.13 4.27-.38 6.57 1.69 9.75 1.69 9.75s2.57-11.28 2.33-13c0 0 4.75-.94 10.13-4.02 3.64-2.08 6.12-4.53 10.22-5.45 6.22-1.4 7.61 3.1 7.61 3.1s5.76-1.11 7.5 6.89c.72 3.29 1.02 8.79 1.41 12.13-.03-.29 2.14-3.91 2.52-7.58.14-1.36 2.21-4.69 2.83-7.16 1.35-5.38-.42-9.62-1.26-10.89-1.53-2.32-5.19-5.5-7.93-5.04.14-2.93-2.17-5.66-4.95-6.59-7.61-2.57-15.82 1.48-18.06 2.28z" fill="none" stroke="#402720" stroke-miterlimit="10" stroke-width="2"/></g></g><path d="M91.33 37.22c0 3.93-12.21 7.12-27.28 7.12s-27.28-3.19-27.28-7.12c0-.16.04-2.39.04-2.39s12.77-4.74 27.24-4.74c14.37 0 27.29 4.54 27.29 4.54l-.01 2.59z" fill="#444"/><ellipse cx="64.05" cy="34.84" rx="27.28" ry="7.12" fill="#616161"/><radialGradient id="m" cx="23.095" cy="43.392" r="8.118" gradientUnits="userSpaceOnUse"><stop stop-color="#FF3D00" offset=".008"/><stop stop-color="#DD2C00" offset=".999"/></radialGradient><circle cx="24.61" cy="45.74" r="8.12" fill="url(#m)"/><circle cx="22.19" cy="43.16" r="2.43" fill="#fff"/><path d="M24.61 38.62c3.92 0 7.12 3.19 7.12 7.12s-3.19 7.12-7.12 7.12-7.12-3.19-7.12-7.12 3.2-7.12 7.12-7.12m0-1a8.12 8.12 0 0 0-8.12 8.12c0 4.48 3.63 8.12 8.12 8.12s8.12-3.63 8.12-8.12-3.63-8.12-8.12-8.12z" fill="#BF360C"/><radialGradient id="n" cx="103.84" cy="52.966" r="8.118" gradientUnits="userSpaceOnUse"><stop stop-color="#00B0FF" offset=".009"/><stop stop-color="#0091EA" offset=".999"/></radialGradient><circle cx="105.77" cy="55.59" r="8.12" fill="url(#n)"/><circle cx="103.35" cy="53.01" r="2.43" fill="#fff"/><path d="M105.77 48.47c3.92 0 7.12 3.19 7.12 7.12 0 3.92-3.19 7.12-7.12 7.12s-7.12-3.19-7.12-7.12 3.2-7.12 7.12-7.12m0-1a8.12 8.12 0 0 0-8.12 8.12c0 4.48 3.63 8.12 8.12 8.12s8.12-3.63 8.12-8.12-3.63-8.12-8.12-8.12z" fill="#0277BD"/><ellipse cx="64.18" cy="34.84" rx="27.28" ry="7.12" fill="#7C7C7C"/><radialGradient id="o" cx="64.323" cy="14.43" r="21.812" gradientUnits="userSpaceOnUse"><stop stop-color="#757575" offset=".132"/><stop stop-color="#686868" offset=".428"/><stop stop-color="#464646" offset=".975"/><stop stop-color="#444" offset="1"/></radialGradient><path d="M64.53 12.98s-.33-.01-.48-.01c-.14 0-.48.01-.48.01-17.68.34-23.47 13.23-23.87 20.9 0 3 12.18 5.84 24.35 5.84 12.18 0 24.35-2.84 24.35-5.84-.4-7.67-6.18-20.56-23.87-20.9z" fill="url(#o)"/><path d="M41.58 129.42v-17.24h4.65c.28 0 .5-.22.5-.5V76.61l4.87-1.12v36.19c0 .28.22.5.5.5h23.22c.28 0 .5-.22.5-.5v-36.2l4.87 1.12v35.07c0 .28.22.5.5.5h4.65v17.24H41.58z" fill="#7C7C7C"/><path d="M76.32 76.11l3.87.89v34.68c0 .55.45 1 1 1h4.15v16.24H42.07v-16.24h4.15c.55 0 1-.45 1-1V77l3.87-.89v35.57c0 .55.45 1 1 1h23.22c.55 0 1-.45 1-1V76.11m-.99-1.25v36.82H52.1V74.86l-5.87 1.35v35.47h-5.15v18.24h45.26v-18.24h-5.15V76.21l-5.87-1.35z" fill="#5B5B5B"/><path d="M77.5 77.36l1.96.44v35.87h5.23v14.24H42.72v-14.24h5.23V77.8l1.96-.44v36.32H77.5V77.36m-2-2.5v36.82H51.92V74.86l-5.96 1.35v35.47h-5.23v18.24H86.7v-18.24h-5.23V76.21l-5.97-1.35z" fill="#616161"/><path d="M64.53 12.98s-.33-.01-.48-.01c-.14 0-.48.01-.48.01-17.68.34-23.47 13.23-23.87 20.9 0 3 12.18 5.84 24.35 5.84 12.18 0 24.35-2.84 24.35-5.84-.4-7.67-6.18-20.56-23.87-20.9z" fill="url(#o)"/><path d="M64.08 12.98v2c.13 0 .38.01.41.01 6.65.12 12 2.12 15.91 5.92 4 3.89 5.32 8.53 5.75 10.94.11.63.52 1.17 1.09 1.45 1.87.91 2.08 1.56 2.08 1.57 0 .04.01.08.02.11 0 .67-.01 2.11-.01 2.24-.3 1.42-8.53 5.14-25.28 5.14s-24.98-3.72-25.28-5.12c0-.14.02-1.26.03-1.9v-.08c0-.14-.01-.24-.04-.38.03-.16.49-.79 2.09-1.57.57-.28.98-.82 1.09-1.45.43-2.42 1.75-7.05 5.75-10.94 3.91-3.8 9.26-5.79 15.93-5.92 0 0 .25-.01.43-.01l.03-2.01m0 0h-.06c-.15 0-.45.01-.45.01-15.96.3-22.22 10.82-23.6 18.51-2.04 1-3.21 2.14-3.21 3.35 0 .12.01.24.03.36-.01.64-.03 1.9-.03 2.02 0 3.93 12.21 7.12 27.28 7.12 15.06 0 27.28-3.19 27.28-7.12l.01-2.58s-.01 0-.03-.01c-.13-1.13-1.26-2.2-3.19-3.14-1.37-7.69-7.64-18.21-23.6-18.51.02-.01-.28-.01-.43-.01z" fill="#2D2F30"/><radialGradient id="p" cx="76.911" cy="9.362" r="8.118" gradientUnits="userSpaceOnUse"><stop stop-color="#00E676" offset=".014"/><stop stop-color="#00C853" offset="1"/></radialGradient><circle cx="78.7" cy="12.12" r="8.12" fill="url(#p)"/><circle cx="76.28" cy="9.55" r="2.43" fill="#fff"/><path d="M78.7 5c3.93 0 7.12 3.19 7.12 7.12s-3.19 7.12-7.12 7.12c-3.92 0-7.12-3.19-7.12-7.12S74.78 5 78.7 5m0-1a8.12 8.12 0 0 0-8.12 8.12c0 4.48 3.63 8.12 8.12 8.12s8.12-3.63 8.12-8.12A8.12 8.12 0 0 0 78.7 4z" fill="#43A047"/></g></svg>