<svg viewBox="0 0 128 128" width="128" height="128" xmlns="http://www.w3.org/2000/svg" xmlns:xlink="http://www.w3.org/1999/xlink"><linearGradient id="a" x1="39" x2="96.029" y1="28.191" y2="111.74" gradientUnits="userSpaceOnUse"><stop stop-color="#DDAE80" offset=".521"/><stop stop-color="#D8A87B" offset=".671"/><stop stop-color="#C9996C" offset=".863"/><stop stop-color="#BA895D" offset="1"/></linearGradient><circle cx="64.39" cy="65.38" r="59.62" fill="url(#a)"/><path d="M64.39 8.77c31.22 0 56.62 25.4 56.62 56.62S95.61 122 64.39 122 7.77 96.6 7.77 65.38 33.17 8.77 64.39 8.77m0-3c-32.93 0-59.62 26.69-59.62 59.62S31.46 125 64.39 125 124 98.31 124 65.38 97.31 5.77 64.39 5.77z" fill="#212121" opacity=".2"/><path d="M85.01 25.46c.38 1.54-.48 3.32-1.95 3.91s-3.37-.17-3.96-1.64.34-3.38 1.88-3.76c1.25-.3 2.53.32 3.6 1.04" fill="#E1C08F"/><path d="M66.86 101.6c.6 2.43-.75 5.22-3.07 6.15s-5.31-.26-6.23-2.59.53-5.32 2.96-5.91c1.97-.48 3.99.5 5.67 1.64M77.55 106.43c.38 1.54-.48 3.32-1.95 3.91s-3.37-.17-3.96-1.64.34-3.38 1.88-3.76c1.25-.3 2.53.32 3.6 1.04M84.84 58.81c.84.68.9 2.12.12 2.87s-2.2.67-2.89-.16c-.7-.83-.54-2.23.3-2.9.85-.68 2.22-.53 2.92.3M81.33 79.4c2.29.98 1.88 3.92-.49 5-2.36 1.08-5.63.31-6.98-1.37-1.22-1.52-.9-3.78 1.06-4.95s5.36-.65 5.97 1.07" fill="#BA895D"/><path d="M105.49 51.4c-2.25-2.8 2.05-7.37 4.26-8.95.88-.63 1.98-1.12 3.03-.84 1.33.36 2.05 1.8 2.31 3.15.49 2.5-.04 6.82-2.55 8.12-2.05 1.06-5.62.3-7.05-1.48z" fill="#FFECE0" opacity=".38"/><path d="M99.11 24.78c-3.19-4.76-35.02-21.26-62.54-.89-23.35 17.28-28 51.46-21.86 59.32 3.53 4.51 27.4-3.22 51.53-19.4s36.06-34.27 32.87-39.03z" fill="#BDAE98"/><path d="M66.68 16.74c16.34 0 28.79 7.62 30.1 9.56.4.89-.68 5.28-6.48 12.51-6.13 7.65-15.23 15.7-25.62 22.67-19.56 13.12-38.25 20.2-45.9 20.2-1.28 0-1.8-.21-1.93-.27-1.45-1.96-2.42-7.36-1.37-15.14 1.7-12.53 8.57-29.66 22.74-40.14 8.42-6.23 17.99-9.39 28.46-9.39m0-2.79c-9.55 0-20.12 2.53-30.11 9.93-23.35 17.28-28 51.46-21.86 59.32.67.86 2.07 1.27 4.07 1.27 8.53 0 27.91-7.56 47.46-20.68 24.12-16.19 36.07-34.26 32.88-39.02-2.04-3.02-15.69-10.82-32.44-10.82z" fill="#424242" opacity=".2"/><defs><path id="b" d="M99.11 24.78C101.83.5 46.71-9.8 19.18 10.57 9.94 17.41 7.07 20.03 3.94 31.6-.84 49.26-1.52 74.83 14.7 83.21c5.09 2.63 27.4-3.22 51.53-19.4s32.24-33.33 32.88-39.03z"/></defs><clipPath id="c"><use xlink:href="#b"/></clipPath><g clip-path="url(#c)"><path d="M30.38 21.63c-7.95-2.94-17.21 1.33-20.57 10.3s.87 18.84 9.43 22.04c8.57 3.21 18.51-1.36 21.59-10.43 3.51-10.28-1.87-18.74-10.45-21.91z" fill="#EF473F"/><linearGradient id="d" x1="28.172" x2="36.764" y1="36.347" y2="46.716" gradientTransform="scale(-1 1) rotate(69.475 2.16 6.426)" gradientUnits="userSpaceOnUse"><stop stop-color="#A52714" offset=".025"/><stop stop-color="#852719" offset="1"/></linearGradient><path d="M22.12 53.88c-.53-.2-6.43-2.94-8.84-6.29-2.93-4.07-4.17-10.4-2.54-15.46 1.72-5.31 6.24-9.05 6.24-9.05s-.99.21-2.78 1.7c-.77.64-1.77 1.45-2.77 2.66-.31.29-6.06 7.94-2.76 17.6 2.83 8.26 8.41 10.1 8.41 10.1l5.04-1.26z" fill="url(#d)"/><path d="M24.8 35.23c-.81-.54-6.16-4.08-8.27-5.52a.842.842 0 0 1-.22-1.18c1.04-1.51 3.53-5.15 8.69-4.87 4.69.26 6.82 1.6 7.68 2.37.31.28.37.74.15 1.09 0 0-4.69 7.3-5.02 7.92-.34.63-.92.66-.7-.22.18-.7 2.64-4.13 3.19-5.82.14-.42.1-.97-.11-1.07-.73-.33-1.23.65-1.23.65-.31.12-.42-.01-.66-.24l-.37-.34a.855.855 0 0 0-1.18-.01l-.29.27c-.32.3-.56.45-.89.17 0 0-.55-1.16-1.3-1.05-.36.05-.52 1.04-.52 1.04-.12.38-.46.77-.85.73l-.82-.35c-.92-.22-1.41.68-.95 1.27 0 0 4.07 4.35 4.35 4.79.27.46.13.91-.68.37zM28.66 36.71c.56-.8 4.24-6.05 5.73-8.13a.85.85 0 0 1 1.19-.19c1.48 1.08 5.06 3.67 4.64 8.81-.38 4.68-1.77 6.78-2.57 7.62-.29.3-.75.35-1.09.12 0 0-7.18-4.88-7.79-5.23-.62-.35-.63-.94.23-.7.69.2 4.06 2.75 5.74 3.34.42.15.97.12 1.07-.09.35-.72-.62-1.25-.62-1.25-.11-.31.02-.42.26-.65l.35-.35c.33-.32.34-.84.04-1.18l-.27-.3c-.29-.32-.44-.57-.15-.89 0 0 1.17-.52 1.08-1.28-.04-.36-1.03-.55-1.03-.55-.37-.13-.76-.48-.71-.87l.37-.81c.24-.92-.64-1.42-1.24-.99 0 0-4.46 3.95-4.91 4.22s-.88.15-.32-.65zM24.55 37.23c-.87-.54-6.61-4.08-8.91-5.47-.43-.26-.97-.14-1.2.28-5 9.05 2.91 16.11 4.02 16.59.4.18 2.03-.24 2.25-.6 0 0 4.61-7.35 5.03-7.92s.18-1.13-.52-.57c-.56.45-2.61 4.15-3.93 5.35-.33.3-.85.49-1.04.33-.64-.55.04-1.42.04-1.42-.03-.34-.2-.39-.52-.52l-.47-.18c-.44-.18-.69-.66-.55-1.09l.12-.38c.13-.42.17-.71-.25-.9 0 0-1.33-.04-1.57-.79-.11-.36.73-.91.73-.91.29-.27.5-.74.29-1.09l-.7-.62c-.63-.77-.02-1.59.74-1.41 0 0 5.9 2.02 6.43 2.1.53.07.88-.24.01-.78z" fill="#FB8672"/><g fill="#FFE082"><path d="M18.76 27.69c.46-.09.75-.06 1.01.01.25.07.43.2.56.36s.21.37.23.63c.01.26-.03.56-.22.98-.46.09-.75.06-1.01-.01-.25-.07-.43-.2-.56-.36-.13-.17-.21-.37-.22-.63-.02-.26.01-.56.21-.98zM27.66 24.99c.35.32.48.61.55.89.06.28.03.54-.07.77s-.27.43-.52.57c-.26.14-.56.24-1.03.19-.23-.42-.3-.69-.35-.95-.03-.25-.01-.45.07-.62.08-.18.21-.33.42-.47s.47-.27.93-.38zM22.62 24.87c.45.06.7.15.9.24.19.1.31.21.38.34.07.14.08.3.03.51-.05.22-.14.47-.38.86-.45.1-.73.04-.97-.06-.23-.1-.39-.26-.48-.45s-.11-.41-.05-.66c.08-.23.21-.49.57-.78zM14.9 34.05c.36-.28.57-.43.8-.52.22-.08.41-.09.59-.04s.33.16.47.35c.15.2.25.44.4.87-.24.4-.53.55-.76.66-.24.09-.47.1-.67.04s-.38-.19-.54-.4c-.14-.21-.3-.49-.29-.96zM36.5 29.77c.08.46.07.75.03 1-.04.24-.13.42-.25.56-.13.14-.3.24-.53.31-.25.06-.53.11-1 .07-.24-.41-.28-.73-.26-1.02.03-.28.14-.52.3-.7.17-.18.39-.32.67-.37.29-.05.62-.05 1.04.15zM39.56 34.44c-.06.45-.2.71-.35.93-.16.2-.34.33-.55.4-.2.06-.43.06-.67-.02-.25-.09-.51-.23-.81-.57.09-.47.23-.73.38-.94.15-.2.33-.33.52-.38.19-.06.4-.05.64.03s.5.22.84.55zM31.35 26.1c.12.44.1.73.04.99-.07.25-.19.44-.35.58s-.37.22-.63.25c-.26.01-.56-.01-.97-.21-.1-.47-.07-.76-.01-1.01.06-.24.17-.43.33-.55a.95.95 0 0 1 .6-.22c.26-.03.55-.01.99.17zM40.26 39.4c-.06.45-.2.71-.35.93-.16.2-.34.33-.55.4-.2.06-.43.06-.67-.02-.25-.09-.51-.23-.81-.57.09-.47.23-.73.38-.94.15-.2.33-.33.52-.38.19-.06.4-.05.64.03.24.09.5.22.84.55zM16.52 41.86c.2.41.26.67.28.91.01.23-.03.41-.12.55s-.24.25-.46.33c-.23.07-.49.12-.95.09-.28-.36-.37-.64-.4-.89-.02-.25.03-.46.14-.63s.29-.3.53-.37c.26-.08.54-.11.98.01zM20.84 45.46c.2.41.26.67.28.91.01.23-.03.41-.12.55s-.24.25-.46.33c-.23.07-.49.12-.95.09-.28-.36-.37-.64-.4-.89-.02-.25.03-.46.14-.63s.29-.3.53-.37c.25-.08.54-.11.98.01z"/></g><path d="M16.45 38.08c-.12.45-.26.69-.4.9-.15.19-.3.31-.48.37s-.37.06-.6 0c-.24-.07-.5-.19-.87-.47 0-.47.12-.75.27-.98.15-.22.35-.37.56-.44.22-.07.46-.07.71.01.26.09.53.24.81.61z" fill="#FFE082"/></g><g clip-path="url(#c)"><path d="M21.47 51.41c-.57-.83-1.14-1.67-1.71-2.5-.17-.24-.34-.5-.37-.79-.13-1.18 1.91-1.77 2.05-2.95.09-.75-.63-1.31-1.21-1.82a8.24 8.24 0 0 1-2.45-3.64c-.13-.4-.23-.85-.03-1.24.13-.26.38-.45.64-.6.51-.31 1.08-.5 1.67-.56.92-.1 1.88.12 2.76-.18.93-.32 1.55-1.16 2-1.99s.8-1.73 1.48-2.41c.35-.35.8-.64 1.3-.69.32-.03.63.03.93.12 2.07.63 3.47 2.33 5.07 3.68 1.73 1.46 3.78 2.56 5.68 3.82s3.72 2.74 4.74 4.71c.99 1.91 1.14 4.11 1.18 6.26.05 2.72-.04 5.45-.29 8.18-.1 1.08-.24 2.22-.92 3.12-.89 1.18-2.49 1.69-4 1.91-3.13.45-6.34-.03-9.21-1.13s-5.42-2.8-7.66-4.77" fill="#3E2723" opacity=".38"/><path d="M23.22 51.41c-.57-.83-1.14-1.67-1.71-2.5-.17-.24-.34-.5-.37-.79-.13-1.18 1.91-1.77 2.05-2.95.09-.75-.63-1.31-1.21-1.82a8.24 8.24 0 0 1-2.45-3.64c-.13-.4-.23-.85-.03-1.24.13-.26.38-.45.64-.6.51-.31 1.08-.5 1.67-.56.92-.1 1.88.12 2.76-.18.93-.32 1.55-1.16 2-1.99s.8-1.73 1.48-2.41c.35-.35.8-.64 1.3-.69.32-.03.63.03.93.12 2.07.63 3.47 2.33 5.07 3.68 1.73 1.46 3.78 2.56 5.68 3.82s3.72 2.74 4.74 4.71c.99 1.91 1.14 4.11 1.18 6.26.05 2.72-.04 5.45-.29 8.18-.1 1.08-.24 2.22-.92 3.12-.89 1.18-2.49 1.69-4 1.91-3.13.45-6.34-.03-9.21-1.13s-5.42-2.8-7.66-4.77" fill="#689F38"/><path d="M29.52 33.02c.12 0 .27.03.47.09 1.36.41 2.42 1.4 3.55 2.44.37.35.76.71 1.16 1.05 1.25 1.06 2.65 1.93 4.01 2.77.59.37 1.19.74 1.77 1.12 1.53 1.01 3.41 2.42 4.4 4.34.92 1.77 1.03 3.93 1.07 5.82.05 2.68-.04 5.39-.29 8.07-.09.99-.21 1.93-.73 2.61-.58.77-1.71 1.28-3.35 1.52-.71.1-1.47.15-2.22.15-2.13 0-4.36-.43-6.47-1.24-2.44-.94-4.83-2.41-7.13-4.39l-1.58-6.22-.04-.17-.1-.15-1.71-2.5c-.07-.09-.19-.27-.2-.32.03-.14.42-.48.66-.68.57-.49 1.28-1.11 1.39-2.06.14-1.23-.81-2.05-1.45-2.6l-.11-.09c-1-.87-1.75-1.97-2.15-3.19-.12-.36-.09-.46-.09-.46s.05-.08.27-.21c.38-.23.82-.38 1.26-.42.16-.02.33-.02.5-.02.14 0 .28 0 .43.01.16 0 .31.01.47.01.47 0 1.02-.03 1.59-.23 1.02-.35 1.85-1.16 2.55-2.47.1-.19.2-.39.3-.58.3-.6.59-1.17 1.01-1.59.23-.23.49-.38.69-.4.02-.01.05-.01.07-.01m0-1c-.05 0-.11 0-.16.01-.5.05-.95.34-1.3.69-.68.68-1.04 1.58-1.48 2.41-.45.83-1.07 1.67-2 1.99-.41.14-.83.17-1.26.17-.3 0-.6-.01-.9-.01-.2 0-.4.01-.6.03-.59.06-1.17.26-1.67.56-.26.16-.5.35-.64.6-.2.39-.1.84.03 1.24a8.24 8.24 0 0 0 2.45 3.64c.58.5 1.3 1.06 1.21 1.82-.14 1.19-2.18 1.78-2.05 2.95.03.29.2.55.37.79.57.83 1.14 1.67 1.71 2.5l1.65 6.52c2.24 1.97 4.79 3.67 7.66 4.77 2.14.82 4.48 1.3 6.83 1.3.79 0 1.59-.05 2.38-.17 1.51-.22 3.11-.73 4-1.91.68-.9.83-2.04.92-3.12.25-2.73.35-5.46.29-8.18-.04-2.15-.2-4.35-1.18-6.26-1.02-1.97-2.83-3.45-4.74-4.71s-3.95-2.36-5.68-3.82c-1.6-1.35-3-3.05-5.07-3.68-.26-.07-.51-.13-.77-.13z" fill="#33691E" opacity=".46"/><linearGradient id="e" x1="28.871" x2="39.309" y1="41.987" y2="57.286" gradientTransform="rotate(-3.139 31.863 48.347)" gradientUnits="userSpaceOnUse"><stop stop-color="#33691E" stop-opacity=".2" offset=".415"/><stop stop-color="#33691E" stop-opacity=".7" offset="1"/></linearGradient><path d="M45.78 44.37c-1.02-1.97-2.83-3.45-4.74-4.71s-3.95-2.36-5.68-3.82c-1.6-1.35-3-3.05-5.07-3.68-.3-.09-.61-.16-.93-.12-.5.05-.95.34-1.3.69-.68.68-1.04 1.58-1.48 2.41-.45.83-1.07 1.67-2 1.99-.31.11-.63.14-.95.15l.01.08c3.96 6.49 11.56 10.4 14.52 17.39-5.27-3.21-10.76-6.51-16.9-7.15.18.57.37 1.15.54 1.72.48.69.95 1.39 1.43 2.08l1.65 6.52c2.24 1.97 4.79 3.67 7.66 4.77s6.07 1.59 9.21 1.13c1.51-.22 3.11-.73 4-1.91.68-.9.83-2.04.92-3.12.25-2.73.35-5.46.29-8.18-.05-2.13-.2-4.34-1.18-6.24z" fill="url(#e)"/></g><g clip-path="url(#c)"><path d="M54.29 36.02c5.74-3.76-5.25-19.09-7.73-20.07-2.48-.99-10.27-2.51-13.34-2.03s-6.71 4.58-9.04 6.4-2.93 3.7-2.11 8.5c1.36 8 14.91 16.53 15.51 15.67s3.18-10.69 3.18-10.69l13.53 2.22z" fill="#3E2723" opacity=".24"/><radialGradient id="f" cx="67.811" cy="5.344" r="20.573" fx="67.675" fy="4.841" gradientTransform="matrix(-.8545 .6715 .5738 .7301 91.459 -36.256)" gradientUnits="userSpaceOnUse"><stop stop-color="#9C6B3B" offset=".079"/><stop stop-color="#694422" offset=".909"/></radialGradient><path d="M55.27 33.45c5.74-3.76-5.25-19.09-7.73-20.07-2.48-.99-10.27-2.51-13.34-2.03-3.07.47-6.31 3.3-8.64 5.12s-3.17 10.39-3 10.96c3.13 10.47 18.27 16.11 18.87 15.24.6-.86.32-11.43.32-11.43l13.52 2.21z" fill="url(#f)"/><path d="M35.61 13.11c3.37 0 9.24 1.21 11.21 1.98 1.69.96 8.03 9.59 8.23 14.66.03.89-.15 1.41-.35 1.72l-12.65-2.08-2.14-.35-.02 2.17c-.03 3.86-.16 8.25-.33 10.83-2.65-1.78-7.56-5.51-11.83-8.92-1.3-2.04-2.73-4.45-3.23-5.5.17-.61.28-1.43.42-2.52.21-1.59.84-6.43 1.79-7.17.26-.2.53-.42.81-.64 2-1.59 4.73-3.76 6.97-4.1.29-.06.66-.08 1.12-.08m0-1.86c-.53 0-1.01.03-1.41.09-3.07.47-6.31 3.3-8.64 5.12s-2.44 10.76-3 10.96 3.76 6.96 3.76 6.96 13.1 10.49 14.6 10.49c.06 0 .1-.02.12-.05.6-.86.71-13.59.71-13.59l13.53 2.22c5.74-3.76-5.25-19.09-7.73-20.07-2.17-.87-8.35-2.13-11.94-2.13z" fill="#212121" opacity=".2"/></g><path d="M36.83 17.54c-.93.72-1.61 1.78-1.74 2.95-.1.96.17 1.91.5 2.82.06.16.12.33.06.49-.06.18-.25.28-.42.36-1.9.96-4.51 3.34-4.14 5.67.15.98.64 1.87 1.12 2.74l1.68 3.06c1.17 2.12 2.44 4.35 4.57 5.5.34.19.72.34 1.11.33 1.02-.03 1.64-1.1 2.03-2.03 2.09-4.91 3.45-10.04 4.45-15.25.37-1.91.8-3.8 1.29-5.68.31-1.2.12-1.92-.79-2.99-1.48-1.74-3.3-1.65-4.61-.15-1.23 1.42-3.53.97-5.11 2.18z" clip-path="url(#c)" fill="#3E2723" opacity=".56"/><g clip-path="url(#c)"><radialGradient id="g" cx="18.438" cy="52.79" r="18.317" gradientUnits="userSpaceOnUse"><stop stop-color="#9C6B3B" offset=".079"/><stop stop-color="#694422" offset=".909"/></radialGradient><path d="M15.25 76.53S7.23 69.1 7.39 64.95s.42-11.13 2.8-12.7 12.24-4.11 14.24-4.02 9.26 4.39 10.4 5.66c1.14 1.26 2.65 11.32 2.65 11.32L15.25 76.53z" fill="url(#g)"/><path d="M24.32 50.22c1.51.2 7.87 3.8 8.94 4.91.5.93 1.4 5.17 2.04 9.1L17.26 75.97c-4.04-4.11-7.94-9.17-7.87-10.95v-.1c.26-6.65.9-10.36 1.9-11.02 1.96-1.28 11.23-3.68 13.03-3.68m.01-2c-2.12 0-11.8 2.48-14.14 4.02-2.38 1.57-2.64 8.55-2.8 12.7C7.23 69.1 17 78.53 17 78.53L37.49 65.2s-1.51-9.97-2.65-11.32-8.52-5.57-10.4-5.66h-.11z" fill="#212121" opacity=".2"/></g><circle cx="33.67" cy="61.2" r="14.13" clip-path="url(#c)" fill="none" opacity=".38" stroke="#3E2723" stroke-miterlimit="10" stroke-width="2"/><g clip-path="url(#c)"><path d="M90.04 20.79c-.34-1.27-.92-2.59-2.05-3.25-.94-.55-2.16-.59-2.92-1.36-.7-.71-.78-1.83-1.27-2.7-.86-1.57-3.17-2.12-4.65-1.1-.77.53-1.27 1.37-2.01 1.94-.73.58-1.94.79-2.52.06a.817.817 0 0 1-.12-.2c0-.06 0-.11-.01-.17-.11-1.42-.55-2.88-1.58-3.86-1.05-1-2.58-1.35-3.68-2.3-.83-.71-1.37-1.72-2.1-2.53-2.24-2.48-6.5-2.77-9.06-.61-.7.59-1.46 1.38-2.35 1.18-.42-.1-.76-.41-1.13-.62-1.18-.68-2.79-.33-3.77.62s-1.4 2.37-1.38 3.74c.02 1.36.42 2.73.11 4.06-.31 1.32-1.83 2.51-2.99 1.8-.37-.22-.64-.6-1.05-.73-.67-.2-1.32.37-1.7.96s-.7 1.29-1.34 1.57c-.77.34-1.67-.07-2.51.04-.89.12-1.63.83-1.96 1.67s-.31 1.77-.15 2.66c.13.71.34 1.42.29 2.15s-.44 1.49-1.13 1.7c-.44.14-.93.04-1.35.23-.76.34-.87 1.36-.79 2.18.32 3.59 2.07 6.55 3.9 9.55.15.25.31.51.32.8.05.82-.91 1.26-1.54 1.79-1.3 1.08-1.29 3.36.02 4.43 1.08.89 2.96 1.23 3.05 2.63.03.54-.24 1.03-.44 1.53-.61 1.57-.4 3.43.55 4.82s2.62 2.26 4.3 2.25c2.85-.01 5.13-2.29 6.86-4.55.68-.89 1.35-1.83 2.23-2.53 2.51-1.99 7.3-3.05 10.37-2.52 1.39.24 3.08.43 3.95-.68.31-.39.44-.88.58-1.36a36.44 36.44 0 0 1 4.2-9.2c1.74 1.21 3.76 1.96 5.88 2.02 3.76.09 7.42-2.06 9.44-5.24 2.03-3.18 2.47-7.23 1.5-10.87z" fill="#8BC34A"/><path d="M62.24 4.26c1.64 0 3.16.63 4.15 1.73.26.29.5.61.76.96.42.57.85 1.16 1.44 1.66.62.53 1.3.88 1.97 1.22.63.32 1.23.63 1.68 1.05.91.86 1.19 2.22 1.27 3.24v.12l.02.22.1.19c.05.09.12.21.22.35.43.54 1.09.84 1.84.84.72 0 1.48-.27 2.08-.74.41-.32.73-.68 1.05-1.03.31-.34.59-.66.91-.88s.73-.34 1.17-.34c.86 0 1.67.44 2.03 1.1.14.26.25.59.37.93.22.65.47 1.39 1.06 1.99.62.63 1.41.89 2.1 1.11.38.13.75.24 1.03.41.7.41 1.22 1.28 1.59 2.64.93 3.5.43 7.26-1.36 10.07-1.85 2.9-5.13 4.78-8.36 4.78h-.21c-1.82-.05-3.67-.68-5.33-1.84l-.85-.59-.56.88a37.541 37.541 0 0 0-4.32 9.45l-.02.06c-.11.38-.22.75-.4.97-.16.2-.48.48-1.41.48-.52 0-1.09-.09-1.57-.17-.58-.1-1.22-.15-1.9-.15-3.33 0-7.13 1.18-9.26 2.88-.88.7-1.54 1.57-2.18 2.41l-.22.29c-2.16 2.83-4.09 4.15-6.09 4.16-1.34 0-2.69-.71-3.45-1.82s-.94-2.64-.44-3.89c.04-.09.08-.18.12-.28.19-.45.44-1.02.39-1.69-.1-1.5-1.35-2.16-2.36-2.7-.4-.21-.78-.41-1.06-.64-.38-.32-.62-.86-.62-1.44 0-.59.23-1.13.61-1.45.12-.1.26-.2.4-.3.63-.45 1.57-1.13 1.49-2.32-.04-.54-.3-.97-.47-1.25-1.7-2.78-3.45-5.66-3.76-9.12-.06-.72.08-1.13.2-1.18.07-.03.24-.04.39-.05.24-.02.54-.04.85-.13 1.17-.37 1.76-1.57 1.82-2.59.05-.68-.09-1.32-.2-1.89-.03-.17-.07-.33-.1-.5-.15-.87-.12-1.56.1-2.11.22-.56.69-.98 1.15-1.04.06-.01.12-.01.18-.01.18 0 .39.03.62.05.27.03.55.07.84.07.43 0 .8-.07 1.15-.22.81-.36 1.24-1.07 1.59-1.64.06-.1.12-.2.19-.3.24-.37.5-.54.57-.54.05.02.2.14.29.22.15.13.32.27.53.4.39.24.81.35 1.27.35 1.41 0 2.85-1.25 3.21-2.78.24-1.03.13-2.01.02-2.96-.05-.47-.1-.91-.11-1.33-.02-1.23.38-2.33 1.08-3.01.45-.44 1.09-.7 1.7-.7.33 0 .62.07.88.22.1.05.19.12.28.18.29.2.65.44 1.13.55.17.04.34.06.51.06 1.04 0 1.83-.69 2.46-1.24l.24-.21c.92-.79 2.17-1.22 3.51-1.22m0-1c-1.51 0-3.01.48-4.16 1.45-.62.52-1.29 1.21-2.06 1.21-.09 0-.19-.01-.29-.03-.42-.1-.76-.41-1.13-.62a2.74 2.74 0 0 0-1.37-.35c-.87 0-1.76.37-2.39.98-.98.95-1.4 2.37-1.38 3.74.02 1.36.42 2.73.11 4.06-.25 1.05-1.26 2.01-2.24 2.01-.26 0-.51-.06-.75-.21-.37-.22-.64-.6-1.05-.73a.903.903 0 0 0-.28-.04c-.57 0-1.1.49-1.42 1-.38.59-.7 1.29-1.34 1.57-.24.1-.49.14-.74.14-.48 0-.97-.12-1.46-.12-.1 0-.21.01-.31.02-.91.11-1.65.82-1.98 1.66s-.31 1.77-.15 2.66c.13.71.34 1.42.29 2.15-.05.72-.44 1.49-1.13 1.7-.44.14-.93.04-1.35.23-.76.34-.87 1.36-.79 2.18.32 3.59 2.07 6.55 3.9 9.55.15.25.31.51.32.8.05.82-.91 1.26-1.54 1.79-1.3 1.08-1.29 3.36.02 4.43 1.08.89 2.96 1.23 3.05 2.63.03.54-.24 1.03-.44 1.53-.61 1.57-.4 3.43.55 4.82.95 1.38 2.6 2.25 4.27 2.25h.03c2.85-.01 5.13-2.29 6.86-4.55.68-.89 1.35-1.83 2.23-2.53 2.07-1.65 5.71-2.66 8.64-2.66.61 0 1.2.04 1.73.14.56.1 1.16.19 1.74.19.87 0 1.68-.2 2.2-.86.31-.39.44-.88.58-1.36a36.44 36.44 0 0 1 4.2-9.2c1.74 1.21 3.76 1.96 5.88 2.02h.24c3.68 0 7.23-2.13 9.21-5.24 2.02-3.17 2.46-7.23 1.49-10.87-.34-1.27-.92-2.59-2.05-3.25-.94-.55-2.16-.59-2.92-1.36-.7-.71-.78-1.83-1.27-2.7-.56-1.03-1.75-1.62-2.91-1.62-.62 0-1.23.17-1.74.52-.77.53-1.27 1.37-2.01 1.94-.41.32-.95.53-1.46.53-.41 0-.8-.14-1.06-.46a.817.817 0 0 1-.12-.2c0-.06 0-.11-.01-.17-.11-1.42-.55-2.88-1.58-3.86-1.05-1-2.58-1.35-3.68-2.3-.83-.71-1.37-1.72-2.1-2.53-1.22-1.38-3.06-2.08-4.88-2.08z" fill="#7CB342" opacity=".62"/><linearGradient id="h" x1="44.736" x2="48.38" y1="13.746" y2="24.841" gradientUnits="userSpaceOnUse"><stop stop-color="#388E3C" stop-opacity=".2" offset=".407"/><stop stop-color="#388E3C" stop-opacity=".7" offset="1"/></linearGradient><path d="M47.6 23.48c1.42 2.74 2.21 5.75 3.31 8.63 1.11 2.88 2.63 5.73 5.11 7.57-1.09-1.81-2.06-3.71-2.63-5.75-.58-2.07-.75-4.24-1.02-6.37-.6-4.61-1.73-9.14-2.89-13.65-.42 1.22-1.82 2.24-2.91 1.57-.37-.22-.64-.6-1.05-.73-.67-.2-1.32.37-1.7.96s-.7 1.29-1.34 1.57c-.38.17-.79.15-1.21.11 2.81.99 4.94 3.43 6.33 6.09z" fill="url(#h)"/><linearGradient id="i" x1="65.67" x2="71.109" y1="9.932" y2="9.932" gradientUnits="userSpaceOnUse"><stop stop-color="#388E3C" stop-opacity=".2" offset=".407"/><stop stop-color="#388E3C" stop-opacity=".7" offset="1"/></linearGradient><path d="M70.74 9.46c.12-.15.25-.31.37-.47-.66-.33-1.32-.66-1.88-1.14-.83-.72-1.37-1.72-2.1-2.53-.42-.47-.92-.86-1.46-1.17 1.39 3.66 1.81 7.69 1.18 11.55 1.06-2.21 2.36-4.31 3.89-6.24z" fill="url(#i)"/><linearGradient id="j" x1="58.107" x2="57.776" y1="3.333" y2="17.244" gradientUnits="userSpaceOnUse"><stop stop-color="#388E3C" stop-opacity=".2" offset=".407"/><stop stop-color="#388E3C" stop-opacity=".7" offset="1"/></linearGradient><path d="M58.07 4.71c-.7.59-1.46 1.38-2.35 1.18-.42-.1-.76-.41-1.13-.62-.66-.38-1.44-.43-2.17-.24 2.03 1.91 2.33 5.03 2.21 7.83-.22 4.92-1.18 10.2 1.21 14.5-.06-2.41.3-4.81.66-7.2.5-3.34 1.01-6.71 2.25-9.85 1.06-2.67 2.71-5.18 5-6.88-1.97-.43-4.13-.02-5.68 1.28z" fill="url(#j)"/><linearGradient id="k" x1="79.202" x2="80.042" y1="12.578" y2="28.626" gradientUnits="userSpaceOnUse"><stop stop-color="#388E3C" stop-opacity=".2" offset=".407"/><stop stop-color="#388E3C" stop-opacity=".7" offset="1"/></linearGradient><path d="M87.99 17.54c-.94-.55-2.16-.59-2.92-1.36-.7-.71-.78-1.83-1.27-2.7-.86-1.57-3.17-2.12-4.65-1.1-.77.53-1.27 1.37-2.01 1.94-.73.58-1.94.79-2.52.06a.817.817 0 0 1-.12-.2c0-.06 0-.11-.01-.17-.09-1.15-.42-2.32-1.08-3.25l-.15.16c-.22 2.53-1.8 4.7-2.81 7.03-2.03 4.66-1.72 10.28.81 14.69.51.9 1.13 1.74 1.82 2.51.05-.09.1-.18.16-.26 1.74 1.21 3.76 1.96 5.88 2.02 3.76.09 7.42-2.06 9.44-5.24 2.02-3.17 2.46-7.23 1.49-10.87-.35-1.28-.93-2.6-2.06-3.26z" fill="url(#k)"/></g><path clip-path="url(#c)" fill="#DB4437" d="M19.67 77.45l-4.74 6.81 7.23 6.79 7.79-5.09-1.33-7.33z"/><g clip-path="url(#c)"><linearGradient id="l" x1="56.995" x2="52.607" y1="66.259" y2="58.972" gradientUnits="userSpaceOnUse"><stop stop-color="#827717" offset="0"/><stop stop-color="#9E9D24" offset=".863"/></linearGradient><path d="M47.17 69.14c0-7.16 3.55-18.21 10.18-18.74 9.27-.75 12.1 11.12 10.68 19.46-1.2 7.06-4.52 15.04-11.18 15.04s-9.68-8.61-9.68-15.76z" fill="url(#l)"/><path d="M48.53 68.81c0-5.98 2.72-15.21 7.81-15.65 7.12-.62 9.29 9.29 8.2 16.25-.92 5.89-3.47 12.57-8.58 12.57s-7.43-7.19-7.43-13.17z" fill="#C0CA33"/><path d="M50.43 69.27c.34-.34.64-.47.94-.55.29-.07.56-.05.8.03.25.08.47.24.65.47.18.24.34.53.39 1.02-.4.28-.69.38-.97.44-.27.05-.51.03-.73-.04-.22-.08-.42-.21-.6-.42-.17-.23-.34-.49-.48-.95zM51.28 65.23c.38-.27.65-.36.89-.42.24-.04.43-.02.59.06s.29.23.39.44c.1.23.17.5.17.97-.34.29-.61.39-.85.44a.944.944 0 0 1-1.06-.56c-.1-.21-.17-.48-.13-.93zM52.31 61.92c.42-.18.69-.22.93-.23.23 0 .41.06.55.16.14.11.24.26.3.48.05.23.09.5.02.96-.39.25-.67.31-.92.33-.25 0-.45-.06-.61-.19a.966.966 0 0 1-.34-.55c-.06-.23-.08-.52.07-.96zM53.39 59.13c.36-.29.67-.34.95-.33.28.02.52.14.69.32.17.19.19.31.17.48-.01.08-.06.18-.08.29a.49.49 0 0 0 .13.47c-.02.25-.22.4-.43.47-.21.05-.42.05-.58.01-.33-.07-.56-.24-.64-.33-.09-.1-.14-.23-.18-.44-.03-.22-.05-.48-.03-.94zM55.58 56.4c.41-.24.78-.17 1.06-.08.28.11.46.26.57.42s.15.32.13.51c-.02.2-.1.43-.08.9-.36.31-.77.28-1.07.18s-.51-.28-.63-.45a.893.893 0 0 1-.15-.57c.03-.23.11-.45.17-.91zM57.88 60.65c.04-.47.18-.76.35-.99.17-.22.37-.37.6-.45s.48-.09.75-.02c.27.08.56.22.88.57-.12.46-.27.72-.43.94-.17.2-.35.33-.55.4s-.43.08-.68.02c-.26-.07-.54-.18-.92-.47zM57.93 63.71c.18-.45.31-.71.49-.93.17-.21.38-.36.64-.46.26-.09.58-.12.93-.02.34.1.71.31.88.78-.33.36-.47.59-.63.77-.16.17-.32.29-.54.36s-.48.1-.79.05c-.31-.06-.66-.17-.98-.55zM57.9 67.38c.11-.46.3-.71.51-.9.21-.18.46-.27.7-.29.25-.01.5.05.73.21.23.17.45.4.61.84-.27.39-.48.58-.67.73-.19.14-.37.21-.56.22-.18.01-.37-.04-.58-.16-.21-.13-.43-.3-.74-.65zM57.09 69.75c.33-.32.6-.45.84-.53.24-.07.46-.06.65.01s.36.2.5.41c.14.22.26.49.31.95-.34.32-.6.45-.85.53-.24.07-.46.06-.65-.01s-.36-.21-.5-.41c-.13-.22-.25-.49-.3-.95z" fill="#E6EE9C"/></g><g clip-path="url(#c)"><radialGradient id="m" cx="65.714" cy="22.346" r="20.47" gradientTransform="rotate(-22.691 68.652 36.525)" gradientUnits="userSpaceOnUse"><stop stop-color="#9C6B3B" offset=".063"/><stop stop-color="#9C6B3B" offset=".079"/><stop stop-color="#694422" offset=".909"/></radialGradient><path d="M59.47 53.96c-5.56 3.01-14.09-15.42-13.91-18.18s2.08-10.58 3.75-13.05 5.4-3.79 7.91-4.85 6.91 2.38 9.89 4.92 3.27 6.74 3.06 7.7c-.75 3.58-1.84 11.03-1.84 11.03l-8.86 12.43z" fill="url(#m)"/><path d="M57.27 19.88c6.59 0 10.53 6.82 11.31 9.03-.43.99-.77 3.53-.28 11.92L58.28 52.29c-.03.01-.07.01-.11.01-.9 0-3.3-1.49-6.57-7.08-2.57-4.39-4.02-8.48-4.05-9.31.17-2.69 2.04-10.03 3.41-12.07 1.39-2.06 4.37-3.95 6.26-3.96h.05m0-2h-.06c-2.72.01-6.24 2.37-7.91 4.84-1.66 2.47-3.57 10.29-3.75 13.05-.16 2.56 7.12 18.51 12.61 18.51.45 0 .88-.11 1.3-.33l10.88-12.43s-.74-11.92.23-11.97c.99-.03-3.8-11.67-13.3-11.67z" fill="#212121" opacity=".2"/></g><g clip-path="url(#c)"><path d="M47.52 28.1v3h.21c4.82.08 9.02 1.64 11.51 4.29 1.93 2.05 2.83 4.73 2.68 7.97-.33 7.27-7.34 14.15-14.43 14.15h-.18c-7.24-.11-13.03-6.13-12.91-13.41.11-7.17 6-13 13.12-13v-3m0 0c-8.79 0-15.98 7.09-16.12 15.95-.14 8.95 6.96 16.32 15.86 16.46h.22c8.82 0 17.03-8.15 17.43-17.01.48-10.49-8.24-15.26-17.14-15.4h-.25z" fill="#BA68C8"/><linearGradient id="n" x1="47.996" x2="69.163" y1="46.371" y2="49.371" gradientUnits="userSpaceOnUse"><stop stop-color="#fff" offset="0"/><stop stop-color="#F3E5F5" offset=".518"/><stop stop-color="#F3E5F5" offset=".716"/><stop stop-color="#9575CD" offset=".873"/></linearGradient><path d="M47.46 30.16s2.8-.01 0 0-14.04 2.16-15.5 15.91c-.95 8.9 6.96 16.32 15.87 16.46h.26c8.79 0 15.98-7.09 16.12-15.95.13-8.74-7.79-16.29-16.75-16.42zm.62 29.37h-.21c-7.23-.11-13.03-6.13-12.91-13.41.11-7.09 5.51-12.12 12.52-12.23C56.5 34.21 61.3 40 61.2 46.53c-.11 7.17-6 13-13.12 13z" fill="url(#n)"/></g><g clip-path="url(#c)"><path d="M61.23 33.5c-.06-.28-.15-.55-.27-.82.95-1.08 2.38-1.59 3.76-1.99 1.07-.31 2.17-.57 3.17-1.09.27-.14 2.07-1.76 2.35-1.33.77 1.17 2.31 1.58 3.71 1.57.91-.01 1.87-.14 2.68.28.75.39 1.19 1.18 1.53 1.96.79 1.83 1.19 3.83 1.19 5.82 0 1.98.12 3.9-.46 5.83-.55 1.83-1.47 3.53-2.38 5.21-.38.7-.75 1.39-1.13 2.09-.29.54-.62 1.12-1.19 1.37-.54.23-1.17.1-1.69-.18-.51-.29-.93-.71-1.36-1.11-.72-.66-1.59-1.13-2.51-1.47-2.31-.86-4.85-.92-7.1-1.92-1.09-.48-2.04-1.28-2.95-2.03a5.958 5.958 0 0 1-2-3.21c-.39-1.68 0-3.52 1.04-4.89.48.47.77 1.06 1.47.67.94-.53 1.67-1.41 2.01-2.44.26-.73.3-1.55.13-2.32z" fill="#3E2723" opacity=".24"/><path d="M62.85 36.44c1.12 0 2.14 1.16 3.2.79.81-.28 1.07-1.25 1.35-2.06.42-1.24 1.17-2.42 2.29-3.1s2.66-.75 3.7.05c.79.61 1.18 1.58 1.67 2.46 1.33 2.38 3.58 4.23 4.44 6.82.6 1.82.44 3.82-.11 5.65s-1.47 3.53-2.38 5.21c-.38.7-.75 1.39-1.13 2.09-.29.54-.62 1.12-1.19 1.37-.54.23-1.17.1-1.69-.18-.51-.29-.93-.71-1.36-1.11-3.3-3-7.85-4.45-10.86-7.73-1.59-1.73-1.84-3.77-1.03-5.95.51-1.4 1.3-4.31 3.1-4.31z" fill="#8BC34A"/><path d="M71.59 32.54c.32 0 .79.06 1.19.37.46.35.77.95 1.1 1.59.1.19.2.38.3.56.57 1.03 1.3 1.95 2 2.84.98 1.25 1.91 2.43 2.37 3.81.61 1.82.27 3.75-.12 5.05-.52 1.74-1.43 3.41-2.3 5.03L75 53.88c-.18.34-.44.81-.71.92-.06.02-.13.04-.2.04-.18 0-.39-.06-.59-.18-.32-.18-.63-.46-.95-.76l-.23-.21c-1.58-1.44-3.41-2.52-5.19-3.58-2.09-1.24-4.07-2.41-5.61-4.09-1.27-1.39-1.55-3-.83-4.93.06-.16.12-.34.19-.54.35-1.01 1.08-3.1 1.97-3.1.27 0 .63.17 1 .35.51.24 1.09.51 1.76.51.26 0 .52-.04.76-.13 1.21-.42 1.61-1.62 1.91-2.5l.06-.18c.4-1.17 1.06-2.08 1.86-2.57.42-.26.91-.39 1.39-.39m0-1c-.66 0-1.33.19-1.9.53-1.12.68-1.87 1.86-2.29 3.1-.28.81-.54 1.78-1.35 2.06-.15.05-.29.07-.43.07-.91 0-1.8-.86-2.77-.86-1.8 0-2.59 2.91-3.1 4.29-.81 2.19-.56 4.22 1.03 5.95 3.02 3.28 7.57 4.73 10.87 7.73.43.39.85.82 1.36 1.11.33.18.71.3 1.08.3.21 0 .41-.04.6-.12.56-.25.9-.82 1.19-1.37.38-.7.75-1.39 1.13-2.09.91-1.68 1.83-3.38 2.38-5.21s.71-3.83.11-5.65c-.86-2.58-3.11-4.44-4.44-6.82-.49-.87-.88-1.85-1.67-2.46-.51-.38-1.15-.56-1.8-.56z" fill="#7CB342" opacity=".62"/><linearGradient id="o" x1="63.01" x2="76.362" y1="40.375" y2="40.375" gradientUnits="userSpaceOnUse"><stop stop-color="#388E3C" stop-opacity=".2" offset=".407"/><stop stop-color="#388E3C" stop-opacity=".7" offset="1"/></linearGradient><path d="M70.5 34.1c-.05-.75-.12-1.58-.48-2.2-.11.05-.22.1-.32.17-1.12.68-1.87 1.86-2.29 3.1-.28.81-.54 1.78-1.35 2.06-1.01.35-1.98-.67-3.04-.77.81 2.14 2.2 4.01 3.67 5.77 2.56 3.08 5.71 6.1 9.69 6.62-3.71-3.94-5.54-9.36-5.88-14.75z" fill="url(#o)"/></g><g clip-path="url(#c)"><ellipse cx="78.27" cy="34.49" rx="16.17" ry="16.46" fill="#3E2723" opacity=".24"/><path d="M79.6 21.03c7.26 0 13.17 6.04 13.17 13.46S86.86 47.94 79.6 47.94 66.43 41.9 66.43 34.48s5.91-13.45 13.17-13.45m0-3c-8.93 0-16.17 7.37-16.17 16.46s7.24 16.46 16.17 16.46 16.17-7.37 16.17-16.46-7.24-16.46-16.17-16.46z" fill="#BA68C8"/><radialGradient id="p" cx="65.441" cy="23.35" r="28.024" gradientTransform="matrix(.9613 0 0 .9784 2.404 1.122)" gradientUnits="userSpaceOnUse"><stop stop-color="#fff" offset="0"/><stop stop-color="#F3E5F5" offset=".317"/><stop stop-color="#F3E5F5" offset=".716"/><stop stop-color="#9575CD" offset=".873"/></radialGradient><path d="M84.21 22.77c5.73 1.14 11.21 5.24 11.21 12.69s-5.96 13.52-13.29 13.52-11.9-6.25-11.9-13.7 5.18-12.94 12.5-12.94l1.48.43zM82.13 19c-8.93 0-16.17 7.37-16.17 16.46s7.24 16.46 16.17 16.46S98.3 44.55 98.3 35.46 91.07 19 82.13 19z" fill="url(#p)"/></g><g clip-path="url(#c)"><path d="M34.71 47.9c2.81 0 5.55.99 7.72 2.78 5.16 4.26 5.88 11.92 1.62 17.08-2.31 2.8-5.72 4.4-9.36 4.4-2.81 0-5.55-.99-7.72-2.78-5.16-4.26-5.88-11.92-1.62-17.08 2.31-2.79 5.72-4.4 9.36-4.4m0-2c-4.07 0-8.11 1.75-10.9 5.13-4.97 6.02-4.12 14.92 1.89 19.89a14.04 14.04 0 0 0 8.99 3.24c4.07 0 8.11-1.75 10.9-5.13 4.97-6.02 4.12-14.92-1.89-19.89a14.04 14.04 0 0 0-8.99-3.24z" fill="#BA68C8"/><radialGradient id="q" cx="33.568" cy="52.717" r="23.319" gradientUnits="userSpaceOnUse"><stop stop-color="#fff" offset="0"/><stop stop-color="#F3E5F5" offset=".334"/><stop stop-color="#F3E5F5" offset=".716"/><stop stop-color="#9575CD" offset=".873"/></radialGradient><path d="M33.99 49.59c2.81 0 5.55.99 7.72 2.78 5.16 4.26 5.88 11.92 1.62 17.08-2.31 2.8-5.72 4.4-9.36 4.4-2.81 0-5.55-.99-7.72-2.78-2.5-2.06-3.39-4.9-3.69-8.13-.31-3.23.06-4.76 2.75-8.94s8.68-4.41 8.68-4.41zm0-2c-4.07 0-8.11 1.75-10.9 5.13-4.97 6.02-4.12 14.92 1.89 19.89a14.04 14.04 0 0 0 8.99 3.24c4.07 0 8.11-1.75 10.9-5.13 4.98-6.02 4.13-14.92-1.88-19.9a14.132 14.132 0 0 0-9-3.23z" fill="url(#q)"/></g><g clip-path="url(#c)"><radialGradient id="r" cx="90.783" cy="23.699" r="22.024" gradientTransform="matrix(.9761 .0177 -.0192 1.0579 3.215 -2.601)" gradientUnits="userSpaceOnUse"><stop stop-color="#9C6B3B" offset=".079"/><stop stop-color="#694422" offset=".909"/></radialGradient><path d="M80.97 54.68c-6.15.56-6.51-20.92-5.26-23.53s6.03-9.37 8.49-11.06 6.31-1.38 8.97-1.34 7.55 8.06 8.06 7.85 7.6 2.22 7.6 2.22-5.43 8.7-6.32 8.33-10.79 22.06-10.79 22.06l-10.75-4.53z" fill="url(#r)"/><path d="M90.55 20.7c.57 0 1.13.01 1.66.03.3.01.59.01.87.02 1.12.34 3.9 3.93 4.82 5.11 1.59 2.05 2.13 2.74 3.31 2.74h.15c.65.12 2.46.67 4.41 1.3-1.51 2.3-3.07 4.5-3.81 5.28-1.26.26-2.82 2.37-10.27 19.21L81.3 52.71l-.25-.04-.25.02h-.05c-.35 0-.76-.55-.92-.78-2.9-4.26-3.09-17.86-2.29-19.89 1.22-2.54 5.79-8.88 7.82-10.28 1.31-.92 3.46-1.04 5.19-1.04m0-2c-2.21 0-4.62.2-6.35 1.39-2.46 1.69-7.24 8.46-8.49 11.06-1.23 2.57-.9 23.54 5.02 23.54.08 0 .16 0 .24-.01l11.92 1.93s8.58-19.47 9.6-19.47c.01 0 .02 0 .03.01.02.01.04.01.06.01 1.06 0 6.26-8.34 6.26-8.34s-6.51-2.23-7.51-2.23c-.04 0-.08 0-.1.01h-.02c-.62 0-5.42-7.82-8.04-7.86-.79 0-1.68-.04-2.62-.04z" fill="#212121" opacity=".2"/></g><g clip-path="url(#c)"><path d="M21.56 87.61a42.961 42.961 0 0 1-9.1-7.75c-.29-.32-.58-.68-.63-1.11-.12-1.08 1.22-1.62 2-2.36 1.11-1.04 1.19-2.78.92-4.28s-.83-2.97-.72-4.49c.1-1.52 1.17-3.14 2.69-3.16 1.11-.02 2.12.81 3.23.7 1.54-.16 2.27-1.93 2.8-3.38.58-1.58 1.34-3.17 2.66-4.2s3.34-1.35 4.67-.32c.62.48 1.02 1.18 1.52 1.79 2.68 3.28 7.6 3.42 11.28 5.53 4.87 2.8 6.98 8.66 10.88 12.7 3.61 3.74 8.97 6.2 10.64 11.12-3.05-1.4-6.61-.7-9.91-.03-10 2.03-20.56 3.51-30.27.36" fill="#8BC34A"/><linearGradient id="s" x1="28.779" x2="48.032" y1="62.23" y2="73.843" gradientUnits="userSpaceOnUse"><stop stop-color="#FFF9C4" offset=".019"/><stop stop-color="#C5E1A5" offset=".537"/><stop stop-color="#9CCC65" offset="1"/></linearGradient><path d="M30.43 59.31c2.59 1.9 2.22 7.98 5.08 11.65 1.76 2.26 4.52 3.51 7.26 4.34s5.6 1.32 8.22 2.47c3.76 1.65 6.81 4.54 9.78 7.37-4.17-2.68-6.71-7.2-9.26-11.45S46 65.07 41.46 63.06c-2.28-1.01-4.84-1.35-6.98-2.62-1.34-.8-3.1-2.36-4.42-3.19s-2.37-.94-3.8-.32c-2.6 1.14-2.71 3.25-3.69 5.26-.64 1.32-1.42 2.41-1.42 2.41 1.88.25 2.24-4.39 4.71-6.24.02 0 1.45-1.34 4.57.95z" fill="url(#s)"/><linearGradient id="t" x1="14.2" x2="31.852" y1="57.947" y2="76.109" gradientUnits="userSpaceOnUse"><stop stop-color="#388E3C" stop-opacity=".2" offset=".407"/><stop stop-color="#388E3C" stop-opacity=".7" offset="1"/></linearGradient><path d="M39.27 84.79a91.712 91.712 0 0 1-9.53-9.17c-4.54-5.05-6.41-9.49-6.01-16.03-.4.69-.71 1.44-.99 2.18-.53 1.46-1.26 3.22-2.8 3.38-1.1.11-2.12-.71-3.23-.7-.47.01-.89.18-1.26.44.45 1.29 1.11 2.54 1.86 3.68 5.09 7.7 13.54 12.45 21.96 16.22z" fill="url(#t)"/><linearGradient id="u" x1="11.531" x2="25.789" y1="70.916" y2="81.27" gradientUnits="userSpaceOnUse"><stop stop-color="#388E3C" stop-opacity=".2" offset=".407"/><stop stop-color="#388E3C" stop-opacity=".7" offset="1"/></linearGradient><path d="M19.78 77.7c2.02 1.15 4.39 1.41 6.69 1.77 2.29.36 4.68.89 6.42 2.43-4.2-2.11-9.36-.48-13.87-1.79-2.11-.61-4.02-1.87-5.41-3.57 1.77-1.35 1.49-3.8.67-6.6.9.71 1.46 3.56 2.11 4.51.89 1.3 2.01 2.47 3.39 3.25z" fill="url(#u)"/><path d="M27.94 57.56c.3 0 .59.06.92.2l.06.02c.23.08.4.17.54.27l.08.06c.58.36 1.3.92 1.99 1.45.83.64 1.69 1.3 2.45 1.76 1.36.8 2.84 1.26 4.27 1.69.99.3 1.93.59 2.82.98 4.34 1.92 7.22 6.28 9.58 10.22l.36.6c.55.93 1.13 1.89 1.72 2.83l.05.09.13.13c.04.04.08.09.12.13 1.24 1.29 2.68 2.42 4.06 3.52 2.09 1.65 4.09 3.24 5.37 5.23-.68-.12-1.4-.18-2.17-.18-2.06 0-4.15.42-6 .8-5.26 1.07-11.46 2.16-17.58 2.16-4.5 0-8.46-.58-12.13-1.76l-2.53-1.06a42.23 42.23 0 0 1-8.81-7.52c-.11-.12-.36-.41-.38-.54-.02-.2.49-.57.87-.85.19-.14.38-.28.56-.42l.77-.67-.06-.08c.17-.22.32-.46.45-.72.63-1.35.53-2.9.34-3.96-.09-.48-.2-.95-.31-1.41-.06-.26-.13-.52-.18-.79l-.01-.03c-.13-.61-.26-1.32-.21-2.01.06-.91.6-1.81 1.26-2.1.04-.02.07-.03.09-.04.03-.01.06-.02.1-.03.09-.02.16-.03.24-.04.34 0 .73.14 1.15.3.54.19 1.15.41 1.83.41.11 0 .21-.01.32-.02.67-.07 1.29-.36 1.84-.87l.08-.07.06-.09c.2-.28.88-1.29 1.47-2.49l.04-.08c.06-.15.11-.3.17-.44.15-.42.33-.85.54-1.3l.02-.03.01-.03c.5-1.29.96-2.25 2.41-2.88.46-.24.86-.34 1.23-.34m0-1.03c-.52 0-1.06.13-1.66.4-1.82.8-2.42 2.07-2.95 3.45-.21.45-.41.92-.58 1.38-.05.14-.11.28-.16.43a17.8 17.8 0 0 1-1.39 2.35c-.35.32-.75.55-1.25.6-.07.01-.14.01-.21.01-1.01 0-1.96-.71-2.99-.71h-.03c-.16 0-.31.03-.46.07-.06.01-.12.03-.17.05-.07.02-.13.05-.2.08-1.06.47-1.77 1.74-1.86 2.96-.05.78.07 1.56.24 2.33v.01c.16.72.35 1.44.48 2.16.2 1.11.2 2.35-.26 3.35-.21.41-.49.78-.9 1.09l.02.02c-.79.65-1.9 1.19-1.79 2.18.05.43.34.79.63 1.11 2.65 2.99 5.72 5.61 9.1 7.75l2.65 1.11c4.05 1.31 8.24 1.82 12.48 1.82 5.93 0 11.95-1 17.79-2.18 1.89-.38 3.87-.78 5.79-.78 1.42 0 2.81.22 4.11.81-1.67-4.92-7.03-7.38-10.64-11.12-.06-.06-.11-.12-.16-.18-.71-1.13-1.39-2.28-2.06-3.41-2.55-4.25-5.51-8.62-10.05-10.63-2.28-1.01-4.84-1.35-6.98-2.62-1.34-.8-3.1-2.36-4.42-3.19-.25-.2-.53-.33-.83-.43-.42-.17-.85-.27-1.29-.27z" fill="#7CB342" opacity=".62"/></g><g clip-path="url(#c)"><path d="M41.1 58.37c1.36-9.91 10.2-15.87 20.57-14.45S79.36 54.52 78 64.42c-1.36 9.91-10.91 17.11-21.23 15.37-11.71-1.96-17.02-11.51-15.67-21.42z" fill="#3E2723" opacity=".31"/><path d="M42.47 59.02c1.36-9.91 10.2-15.87 20.57-14.45s17.68 10.6 16.32 20.51-10.91 17.1-21.23 15.37c-11.71-1.97-17.02-11.52-15.66-21.43z" fill="#EF473F"/><path d="M76.46 68.08c.08-.61 1.37-9.22-.61-13.27-5.99-12.3-21.23-9.83-20.79-9.97.43-.15 15.26-2.06 21.18 5.43S81.6 63.6 81.6 63.6l-5.14 4.48z" fill="#A52714"/><path d="M58.76 60.52c-.1-1.06-.74-8.04-1.03-10.82a.931.931 0 0 0-1.02-.83c-1.99.22-6.79.73-9.19 5.84-2.19 4.64-2 7.4-1.7 8.62.11.44.52.74.97.71 0 0 9.46-.73 10.23-.73.78 0 1.11-.55.16-.79-.76-.19-5.35.4-7.26.05-.48-.09-.99-.41-.97-.66.06-.87 1.27-.85 1.27-.85.27-.24.21-.41.11-.76l-.15-.52c-.14-.48.13-.98.6-1.14l.41-.14c.45-.15.73-.3.63-.76 0 0-.83-1.14-.33-1.8.24-.32 1.28.04 1.28.04.43.08.98-.04 1.15-.44l.08-.96c.27-1 1.38-1 1.72-.26 0 0 2.08 6.17 2.36 6.67.27.49.78.6.68-.47zM57.92 64.84c-1.06.13-8.02.95-10.79 1.31-.51.07-.87.53-.8 1.04.27 1.98 1.18 6.06 6.35 8.33 4.7 2.06 7.17 2.52 8.39 2.18.44-.12.73-.54.68-.99 0 0-.97-9.43-.99-10.21s-.58-1.1-.79-.13c-.17.77.54 5.34.24 7.25-.08.48-.38 1-.64.98-.87-.04-.88-1.25-.88-1.25-.24-.27-.41-.2-.76-.09l-.52.16c-.47.15-.98-.1-1.15-.57l-.15-.41c-.16-.45-.32-.72-.78-.61 0 0-1.11.86-1.79.38-.32-.23 0-1.28 0-1.28.07-.43-.07-.97-.47-1.13l-.98-.06c-1.01-.24-1.04-1.36-.31-1.71 0 0 6.12-2.24 6.61-2.53.5-.28.59-.79-.47-.66zM60.94 60.68c-.06-1.12-.5-8.47-.65-11.41-.03-.54.37-1 .89-1.01 11.3-.12 13.99 11.15 13.88 12.47-.04.48-1.29 1.83-1.74 1.86 0 0-9.47.62-10.23.74-.77.11-1.18-.41-.27-.8.73-.31 5.35-.36 7.19-1 .46-.16.91-.57.86-.83-.19-.9-1.38-.7-1.38-.7-.31-.21-.27-.4-.23-.77l.07-.56c.06-.52-.28-1-.77-1.09l-.43-.08c-.47-.09-.76-.21-.74-.7 0 0 .65-1.3.05-1.92-.28-.29-1.26.22-1.26.22-.41.14-.97.1-1.2-.29l-.23-1c-.42-1-1.52-.84-1.74-.02 0 0-1.11 6.72-1.31 7.28-.21.55-.69.73-.76-.39z" fill="#FB8672"/><g fill="#FFE082"><path d="M54.33 50.97c.47.05.76.18.99.32.23.15.38.34.47.55s.12.45.08.72c-.05.27-.15.57-.45.95-.48-.05-.76-.17-1-.32-.23-.15-.38-.34-.47-.55s-.12-.45-.08-.72c.07-.28.17-.57.46-.95zM47.11 58.14c.34-.34.59-.5.84-.63.24-.11.46-.15.67-.14.21.02.42.09.64.24.22.16.45.36.73.75-.2.44-.46.66-.72.82-.26.15-.54.21-.81.18a1.39 1.39 0 0 1-.77-.31c-.23-.19-.44-.45-.58-.91zM49.62 53.22c.43-.16.74-.15 1-.08s.45.21.59.39.21.41.2.68c-.02.27-.1.57-.39.93-.46.01-.73-.05-.96-.12-.22-.07-.37-.18-.46-.31-.1-.14-.15-.31-.15-.54-.01-.24.02-.51.17-.95zM62.95 50.37c.41.23.58.52.71.77.11.25.13.49.09.72-.05.22-.17.43-.37.62-.21.18-.48.37-.96.41-.3-.35-.46-.58-.56-.81-.09-.23-.11-.44-.07-.63.04-.2.15-.38.32-.55.18-.19.42-.33.84-.53zM47.84 68.49c.02-.47.12-.74.26-.97.14-.22.34-.37.58-.45s.51-.08.77.02c.27.11.53.29.76.7-.18.43-.33.66-.48.85-.14.18-.27.28-.43.33s-.35.05-.59 0c-.23-.09-.51-.19-.87-.48zM50.04 74.49c-.12-.47-.1-.78-.05-1.05.06-.26.17-.47.32-.62.16-.16.36-.26.62-.31.27-.05.58-.06 1.05.07.14.45.13.75.08 1.03-.06.27-.18.48-.35.64s-.38.28-.65.34c-.27.04-.58.05-1.02-.1zM46.26 62.27c.07-.48.21-.75.36-.99.15-.22.33-.36.54-.45.2-.08.43-.1.7-.05.27.06.56.17.94.47-.04.47-.17.74-.33.98-.16.22-.35.37-.57.46s-.46.11-.73.06c-.27-.07-.56-.17-.91-.48zM54.45 77.74c-.12-.47-.1-.78-.05-1.05.06-.26.17-.47.32-.62.16-.16.36-.26.62-.31.27-.05.58-.06 1.05.07.14.45.13.75.08 1.03-.06.27-.18.48-.35.64s-.38.28-.65.34c-.27.04-.58.05-1.02-.1zM69.62 55.97c.12-.45.3-.69.5-.88.2-.18.41-.27.63-.29s.45.03.67.17c.22.15.45.35.65.77-.21.42-.4.63-.58.8-.19.15-.37.24-.56.25-.19.02-.38-.03-.59-.15-.22-.12-.44-.3-.72-.67zM70.84 61.99c.12-.45.3-.69.5-.88.2-.18.41-.27.63-.29s.45.03.67.17c.22.15.45.35.65.77-.21.42-.4.63-.58.8-.19.15-.37.24-.56.25-.19.02-.38-.03-.59-.15-.21-.13-.44-.3-.72-.67z"/></g><path d="M66.03 53.2c-.18-.44-.17-.76-.12-1.05.06-.28.19-.5.37-.67s.42-.28.7-.33c.29-.03.61-.01 1.04.19.06.47.02.77-.04 1.02-.07.25-.18.43-.33.57s-.34.23-.59.29c-.26.05-.56.07-1.03-.02z" fill="#FFE082"/></g><path d="M14.71 83.21c4.37-.75 8.61-2.01 12.76-3.46 1.04-.36 2.08-.72 3.1-1.13s2.06-.77 3.06-1.22l3.03-1.28 2.99-1.38c1-.45 1.98-.95 2.95-1.45l2.94-1.48c1.91-1.08 3.87-2.06 5.74-3.21s3.8-2.19 5.62-3.41c1.85-1.18 3.71-2.35 5.48-3.63 1.81-1.25 3.63-2.46 5.38-3.79 1.77-1.31 3.55-2.59 5.26-3.97 1.74-1.34 3.48-2.68 5.14-4.11 1.7-1.39 3.34-2.85 4.98-4.31 3.22-2.97 6.37-6.03 9.18-9.4 1.39-1.69 2.75-3.42 3.92-5.27.31-.46.6-.92.86-1.4.27-.48.55-.95.78-1.45.52-.97.95-1.99 1.22-3.06-.26 2.22-1.16 4.32-2.14 6.33-.98 2.02-2.22 3.89-3.47 5.76-2.59 3.66-5.58 7.02-8.73 10.2l-2.39 2.36c-.81.77-1.66 1.49-2.49 2.25-1.65 1.51-3.37 2.93-5.09 4.35-1.71 1.44-3.51 2.75-5.29 4.1-1.76 1.37-3.6 2.64-5.44 3.91-7.4 5-15.2 9.48-23.5 12.84-4.11 1.75-8.38 3.13-12.69 4.29-4.31 1.03-8.71 1.92-13.16 2.02z" fill="#212121" opacity=".35"/><path d="M18.87 84.45c-.01 0-5.28.19-5.28-.64 0-1.17 1.33-.63 6.77-1.6 5.33-.95 18.49-.46 47.52-21.39 20.96-15.11 27.04-25.98 28.98-31.54 1.28-3.66 1.87-5.95 2.69-5.99.81-.05.33 5.53-1.79 10.89-2.79 7.04-10.84 16.58-28.14 29.05-29.65 21.38-49.46 21.22-50.75 21.22z" fill="#FFECE0"/><linearGradient id="v" x1="123.4" x2="95.723" y1="77.372" y2="75.238" gradientUnits="userSpaceOnUse"><stop stop-color="#FFECE0" offset=".094"/><stop stop-color="#FFECE0" stop-opacity="0" offset="1"/></linearGradient><path d="M120.16 49.46c-3.52 9.32-14.27 13.8-19.69 22.16a22.515 22.515 0 0 0-3.49 9.9c-.38 3.74.17 7.5.74 11.21.26 1.71.54 3.46 1.38 4.98 1.29 2.35 3.73 3.8 6.05 5.14.86.5 1.79 1.01 2.78.97 1.49-.06 2.61-1.32 3.52-2.5 5.23-6.82 9.32-14.58 11.49-22.9 2.16-8.32 2.34-17.22-.02-25.48" fill="url(#v)" opacity=".26"/><linearGradient id="w" x1="74.547" x2="81.251" y1="56.872" y2="83.402" gradientUnits="userSpaceOnUse"><stop stop-color="#FFECE0" offset=".094"/><stop stop-color="#FFECE0" stop-opacity="0" offset="1"/></linearGradient><path d="M96.49 36.01c-1.3 6.48 1.89 13.42-.17 19.7-.81 2.47-2.37 4.6-3.74 6.8-2.67 4.25-4.72 8.86-7.28 13.18s-5.73 8.43-10.03 11.03c-4.29 2.6-9.89 3.45-14.38 1.21-4.4-2.2-7-6.88-8.59-11.53-.46-1.35-.82-2.97.04-4.1.41-.53 1.02-.86 1.62-1.17a113.536 113.536 0 0 0 31.98-25.15" fill="url(#w)" opacity=".26"/></svg>