<svg viewBox="0 0 128 128" width="128" height="128" xmlns="http://www.w3.org/2000/svg"><path fill="none" stroke="#AD1457" stroke-miterlimit="10" stroke-width="2" d="M62.64 120.32l-5.53-60.66M68.93 61.8l21.35 20.04c1.02.9.38 2.57-.97 2.57H46.96"/><path d="M39.96 95.24h6.26c1.03 0 1.86-.86 1.79-1.88-.16-2.56.28-7.96 5.61-7.96 2.02 0-1.4-1.98-6.66-1.98-4.55 0-7.62 5.99-8.72 9.5-.36 1.15.51 2.32 1.72 2.32zM86.3 83.19c.33-.29.59-.67.73-1.09.26-.76.14-1.65-.32-2.31 1.94.52 4.44.18 4.92 2.82.28 1.53-.47 2.82-2.66 2.82-.79 0-1.24.05-1.86-.34-.2-.12-1.71-1.39-1.76-1.37.35-.1.67-.29.95-.53z" fill="#AD1457"/><linearGradient id="a" x1="32.437" x2="111.15" y1="13.588" y2="119.3" gradientUnits="userSpaceOnUse"><stop stop-color="#F48FB1" offset="0"/><stop stop-color="#F27BA3" offset=".097"/><stop stop-color="#F16C99" offset=".203"/><stop stop-color="#F06795" offset=".29"/><stop stop-color="#AD1457" offset="1"/></linearGradient><path d="M103.81 60.17c-3.31-8.43-8.92-15.8-16.92-21.4-8.58-6-16.22-7.62-26.36-7.05-9.97.56-17.68 8.12-18.68 16.73-.12 1-1.83 5.66-2.54 5.88-4.06 1.26-8.57-.86-7.09-9.16 1.48-8.29 18.64-19.42 16.88-30.43 0 0-.55-3.33-3.38-6.87-4.04-5.05-7.86-1.94-9.25-1.17s-4.6 2.63-6.77 4.13c-1.78 1.24-4.54 4.2-4.76 5.14s6.83-1.64 6.83-1.64L34 16.82s3.11-.12 4.29-.29c2.96-.43 4.34-2.81 4.34-2.81s1.55 1.43.72 4.97c-1.37 5.9-17.08 16.6-18.62 29.67-.7 5.92 2.12 11.54 7.1 14.76 9.32 6.02 24.07 6.55 38.09 2.5 1.97-.57 3.94-1.13 5.98-1.47.89-.15 2.03-.5 2.92-.28.97.24 1.97 1.18 2.88 1.61 1.79.85 4.27 1.35 5.68.06.99-.9.99-2.3.93-3.55 1.21 1.88 2.92 3.52 4.96 4.75.77.47 1.62.88 2.56.96.93.07 1.97-.27 2.39-1 .27-.46.27-1.01.2-1.53a8.345 8.345 0 0 0-1.29-3.53 20.29 20.29 0 0 0 4.57 5.29c.55.45 1.36.91 2 .56.28-.15.45-.43.57-.7.97-2.1.38-4.48-.46-6.62z" fill="url(#a)"/><path d="M28.48 20.37c.09-.25.58-.58.77-.76.55-.54 1.09-1.08 1.64-1.62.4-.4.91-.7 1.39-1 .6-.37 1.59-.23 2.37-.21 1.81.05 4.51-1.29 3.89-5.02l-1.05-1.26c-.78.51-3.39 1.45-4.92-1.48 0 0-3.7 2.31-5.31 3.47-1.97 1.43-2.52 3.89-2.75 4.96-.24 1.07 3.97 2.92 3.97 2.92z" fill="#fff"/><circle cx="38.74" cy="9.65" r="2.3" fill="#fff"/><path d="M26.47 16.28s1.89-2.76 3.93-2.6c.72.02 3.72.91 5.01.79 1.65-.1 2.68-2.34 2.68-2.34s-.07 1.04-.68 1.82c-.39.54-.95 1.01-1.65 1.19-1.55.47-4.14-.35-4.98-.3-2.02.12-2.89 2.77-2.89 2.77l-1.42-1.33z" fill="#212121"/><path d="M30.88 17.99s-1.67.87-3.52-1.26c-1.5-1.73.49-4.67.49-4.67s-3.39 1.81-4.07 5.68c-.28 1.6-.5 5.42-.54 7.44a1.41 1.41 0 1 0 2.6.78l5.04-7.97z" fill="#212121"/><circle cx="39.3" cy="9.16" r="1.25" fill="#212121"/><linearGradient id="b" x1="67.079" x2="97.328" y1="46.693" y2="79.764" gradientUnits="userSpaceOnUse"><stop stop-color="#F06292" offset=".148"/><stop stop-color="#AD1457" offset="1"/></linearGradient><path d="M90.2 50.98c3.84-1.51-1.64-7.8-2.99-9.29-3.78-4.16-20.64-11.1-33.61-3.79-14.54 8.2-1.66 20.21.36 20.16 1.86-.04 3.35-.66 5.23-.32 1.59.29 3.07.76 4.56 1.38 2.44 1 5.35 1.06 6.65-.63s-.7-6.91-.7-6.91 5.49 4.19 10.44 3.13c4.94-1.06.24-9.14.24-9.14 1.8 1.36 5.51 7.11 9.82 5.41z" fill="url(#b)"/><path d="M53.41 59.22c.74-.75 1.68-1.35 2.74-1.66 1.05-.32 2.18-.41 3.27-.31 1.1.09 2.18.33 3.22.64.52.15 1.04.35 1.51.51.45.16.92.27 1.39.36.93.17 1.89.15 2.68-.08.4-.11.74-.29.99-.51.12-.11.24-.25.32-.36.03-.06.08-.17.1-.33.12-.67-.04-1.68-.27-2.61s-.54-1.92-.89-2.81l-1.6-4.02 3.63 2.5c1.33.92 2.94 1.72 4.49 2.24 1.56.54 3.19.8 4.62.53.73-.13.95-.33 1.11-.64.18-.33.24-1.03.12-1.77-.23-1.49-.94-3.17-1.71-4.6l-3.33-6.16 5.43 4.29c.6.47.95.89 1.34 1.31l1.1 1.2c.72.77 1.45 1.48 2.23 2.05.78.56 1.58.99 2.39 1.1.4.06.8.04 1.2-.06.46-.11.66-.22.79-.38.13-.14.23-.46.19-.88-.03-.42-.15-.89-.32-1.36-.35-.94-.85-1.88-1.4-2.8-1.14-1.81-2.39-3.63-3.95-5.17.97.55 1.82 1.27 2.64 2.02s1.6 1.56 2.32 2.42c.73.86 1.4 1.78 1.94 2.85.27.54.51 1.1.64 1.77.12.65.16 1.5-.32 2.29-.47.79-1.32 1.19-1.9 1.38-.65.22-1.36.32-2.05.27-1.39-.09-2.63-.65-3.64-1.33-1.03-.68-1.9-1.47-2.72-2.26l-1.18-1.17c-.37-.37-.77-.75-1.04-.95l2.1-1.88c.97 1.76 1.75 3.47 2.15 5.57.16 1.04.26 2.26-.35 3.58-.32.65-.87 1.23-1.48 1.59-.6.37-1.28.55-1.8.63-2.17.36-4.25-.06-6.1-.73-1.87-.71-3.51-1.64-5.13-2.86l2.03-1.52c.37 1.09.67 2.12.87 3.24.17 1.12.36 2.25.04 3.64-.09.35-.24.73-.51 1.1-.25.31-.49.55-.78.77-.57.43-1.22.68-1.84.81-1.26.25-2.45.11-3.56-.19-.56-.15-1.1-.34-1.61-.58l-1.41-.65c-.93-.41-1.88-.76-2.86-.97-1.92-.44-4.08-.29-5.84.94z" fill="#AD1457"/><path d="M52.23 68.72c-8.09 0-15.37-1.75-20.67-5.18-5.23-3.38-8.03-9.21-7.33-15.23.97-8.22 7.34-15.42 12.47-21.2 3.04-3.43 5.67-6.39 6.16-8.53.49-2.12.09-3.39-.25-4.02-.71.83-2.29 2.3-4.89 2.7-.6.09-1.79.15-2.94.21-1.08.06-2.43.13-2.73.21-.36.1-.71.47-.89.78l-4.91 7.76c-.45.71-1.33 1.05-2.14.81-.83-.24-1.46-1.01-1.38-1.87.18-1.81.64-4.3.9-6.24.08-.57.13-1.07.19-1.44.57-3.91 1.37-4.72 3.72-6.24l1.61-1.05c2.5-1.63 5.92-3.85 7.04-4.47l.24-.13c1.52-.86 5.58-3.16 9.67 1.96 2.88 3.6 3.46 6.96 3.49 7.1 1.07 6.68-4.57 13.37-9.55 19.28-3.47 4.12-6.75 8.01-7.34 11.31-.71 3.98.02 7.07 2 8.49 1.26.9 2.89.96 4.36.15 1.62-.89 2.08-3.68 2.2-4.83 1.03-9.69 8.75-16.86 19.21-17.84 10.06-.94 18.29 1.26 26.69 7.13 7.87 5.51 13.62 12.78 17.1 21.63.73 1.85 1.57 4.59.45 7.01-.14.31-.36.7-.79.93-.71.38-1.62.16-2.56-.61-.91-.75-1.74-1.56-2.49-2.42l.03.21c.06.53.09 1.22-.27 1.84-.57.97-1.84 1.33-2.86 1.25-1.1-.09-2.06-.59-2.78-1.03-1.64-.99-3.07-2.23-4.22-3.66-.09.89-.36 1.74-1.08 2.4-1.58 1.45-4.26.96-6.23.03-.39-.19-.79-.45-1.18-.71-.54-.36-1.11-.74-1.61-.86-.57-.15-1.36.02-2.05.16-.23.05-.46.09-.67.13-2.08.34-4.12.93-5.93 1.45-6.03 1.76-12.11 2.63-17.79 2.63zm-9.71-55.77l.45.41c.07.07 1.75 1.67.87 5.45-.55 2.38-3.13 5.29-6.39 8.97-5.03 5.68-11.29 12.74-12.22 20.65-.66 5.64 1.97 11.11 6.88 14.28 8.79 5.68 23.23 6.61 37.68 2.44 1.83-.53 3.91-1.13 6.04-1.48.2-.03.41-.08.63-.12.79-.16 1.7-.35 2.49-.15.67.17 1.31.59 1.92 1 .37.25.72.48 1.05.64 1.6.76 3.91 1.26 5.13.14.81-.74.83-1.97.77-3.16l-.09-1.86 1.01 1.56c1.17 1.82 2.83 3.4 4.79 4.59.62.38 1.45.81 2.34.89.83.06 1.63-.25 1.92-.75.17-.29.21-.65.14-1.22a7.911 7.911 0 0 0-.98-2.95l-.24-.39.85-.53c.08.13.17.27.24.4 1.11 1.78 2.53 3.38 4.22 4.78.22.18.98.76 1.45.51.13-.07.24-.21.35-.47.94-2.05.24-4.41-.48-6.23-3.4-8.66-9.04-15.78-16.74-21.17-8.3-5.81-16.09-7.89-26.02-6.96-9.98.94-17.34 7.75-18.31 16.95-.17 1.63-.75 4.52-2.71 5.6-1.82 1-3.84.92-5.42-.21-2.3-1.65-3.18-5.11-2.4-9.48.64-3.57 4-7.56 7.56-11.78 4.84-5.74 10.32-12.25 9.32-18.48 0-.03-.57-3.25-3.28-6.63-3.56-4.46-6.83-2.61-8.4-1.72l-.25.14c-1.1.6-4.5 2.82-6.98 4.44l-1.62 1.05c-2.06 1.33-2.88 1.92-3.41 5.53-.06.38-.11.88-.19 1.45-.26 1.91-.81 4.73-.84 6.26a.91.91 0 0 0 1.68.5l4.99-7.88c.26-.46.79-1.04 1.48-1.23.38-.1 1.37-.16 2.95-.24 1.12-.06 2.29-.12 2.83-.2 3.16-.49 4.61-2.79 4.63-2.82l.31-.52zM46.43 119.39l2.89 4.09c.3.43.85.62 1.36.47l11.38-1.92c1.09-.28 1.8-1.32 1.66-2.44l-.31-2.25-1.48-1.91-.32.86c-.36 1.61-1.93 1.82-3.2 1.75l-10.89-.59c-1.04-.06-1.68 1.1-1.09 1.94zM59.64 98.33s-1.78-5.65-1.9-5.94c-.36-.88-.18-1.94.54-2.65a2.45 2.45 0 0 1 3.47 0c.56.56.79 1.32.7 2.04-.07.52-.78 6.56-.78 6.56h-2.03z" fill="#AD1457"/><linearGradient id="c" x1="32.231" x2="17.947" y1="14.616" y2="25.767" gradientUnits="userSpaceOnUse"><stop stop-color="#212121" stop-opacity="0" offset="0"/><stop stop-color="#212121" offset=".319"/></linearGradient><path d="M24.12 27.05c.81.23 1.69-.1 2.14-.81l4.91-7.76c.17-.31.52-.68.89-.78.26-.07 1.27-.13 2.23-.18l-.6-.97c-.97.06-1.61.11-1.9.19-.69.19-1.22.77-1.48 1.23l-4.9 7.74c-.21.34-.63.5-1.02.39s-.7-.48-.66-.89c.17-1.7 1-6.96 1.04-7.34.43-3.59 1.25-4.43 3.31-5.76l1.62-1.05c.13-.09.28-.18.42-.27l-.52-.86c-.15.09-.3.19-.44.29l-1.61 1.05c-2.35 1.52-3.19 2.61-3.76 6.48-.13.88-.86 5.58-1.05 7.44-.09.84.55 1.62 1.38 1.86z" fill="url(#c)"/></svg>