<svg viewBox="0 0 128 128" width="128" height="128" xmlns="http://www.w3.org/2000/svg" xmlns:xlink="http://www.w3.org/1999/xlink"><linearGradient id="a" x1="63.996" x2="63.996" y1="19.838" y2="107.58" gradientUnits="userSpaceOnUse"><stop stop-color="#FF5100" offset="0"/><stop stop-color="#FE5D07" offset=".144"/><stop stop-color="#FD7E19" offset=".407"/><stop stop-color="#FBB337" offset=".757"/><stop stop-color="#FAC742" offset=".877"/></linearGradient><path d="M64 119.74C36.14 119.74 6.16 102.3 6.16 64S36.14 8.26 64 8.26c15.44 0 29.73 5.11 40.25 14.39 11.51 10.16 17.59 24.46 17.59 41.35 0 16.82-6.08 31.09-17.59 41.27C93.7 114.6 79.41 119.74 64 119.74z" fill="url(#a)"/><path d="M64 10.26c14.95 0 28.77 4.93 38.92 13.89 11.07 9.77 16.92 23.55 16.92 39.85 0 16.23-5.85 29.98-16.92 39.78-10.18 9.01-24 13.96-38.92 13.96-15 0-28.82-4.89-38.93-13.78C14 94.23 8.16 80.42 8.16 64c0-16.49 5.85-30.34 16.91-40.03C35.14 15.13 48.97 10.26 64 10.26m0-4C32.93 6.26 4.16 26.21 4.16 64c0 37.58 28.77 57.74 59.84 57.74s59.84-20.67 59.84-57.74c0-37.27-28.78-57.74-59.84-57.74z" fill="#E75900"/><g fill="#242424"><path d="M36.47 49.39c-.3.11-.61.18-.92.22-.03.36-.05.74-.05 1.12 0 6.08 3.95 9.75 8.29 9.75s8.29-3.67 8.29-9.75c0-2.85-.87-5.16-2.24-6.83-4.49 1.78-8.86 3.8-13.37 5.49zM91.53 49.39c.3.11.61.18.92.22.03.36.05.74.05 1.12 0 6.08-3.95 9.75-8.29 9.75s-8.29-3.67-8.29-9.75c0-2.85.87-5.16 2.24-6.83 4.49 1.78 8.86 3.8 13.37 5.49z"/></g><path d="M103.91 122h.01-.01z" fill="#368231"/><path d="M51.1 23.55s-.01.28-.05.77c-.02.13-.01.24-.05.42-.03.18-.09.37-.14.58s-.11.43-.17.67c-.07.22-.16.43-.24.66-.16.47-.39.95-.66 1.44-.26.5-.59.99-.95 1.49-.39.47-.77.99-1.24 1.42-.45.47-.96.87-1.47 1.29-.55.36-1.08.74-1.65 1.04-.55.33-1.16.55-1.72.79-.58.2-1.15.38-1.7.49-.55.12-1.08.2-1.57.23-.49.06-.94.05-1.34.02-.4-.01-.74-.05-1.03-.1-.57-.1-.88-.18-.88-.18-.95-.24-1.54-1.2-1.3-2.15.15-.62.62-1.09 1.19-1.27l.3-.09s.24-.07.64-.17c.2-.04.44-.12.71-.2.27-.07.57-.17.89-.29.32-.1.66-.26 1.02-.4.36-.13.71-.35 1.09-.52.37-.21.75-.41 1.12-.65.39-.21.73-.5 1.1-.75.35-.28.72-.53 1.03-.84.33-.29.64-.59.94-.88.26-.32.58-.6.81-.9.24-.3.48-.58.67-.86.21-.29.38-.52.51-.72.07-.1.14-.2.21-.29.07-.1.13-.24.19-.34.23-.43.38-.68.38-.68.52-.86 1.64-1.14 2.5-.62.56.33.88.96.86 1.59zM80.28 22.56s.15.24.38.68c.06.1.12.25.19.34s.14.19.21.29c.13.2.3.43.51.72.19.28.43.56.67.86.23.31.54.58.81.9.3.29.61.6.94.88.31.31.68.56 1.03.84.37.25.72.54 1.1.75.37.24.75.45 1.12.65.38.16.74.38 1.09.52.36.14.69.3 1.02.4.32.12.62.22.89.29.27.08.51.16.71.2.4.1.64.17.64.17l.29.09c.94.29 1.46 1.29 1.16 2.23a1.77 1.77 0 0 1-1.27 1.19s-.31.08-.88.18c-.28.06-.63.09-1.03.1-.4.03-.85.04-1.34-.02-.5-.02-1.02-.1-1.57-.23-.56-.1-1.12-.29-1.7-.49-.56-.24-1.17-.45-1.72-.79-.57-.3-1.11-.68-1.65-1.04-.5-.42-1.02-.82-1.47-1.29-.48-.43-.85-.95-1.24-1.42-.36-.5-.7-.99-.95-1.49-.27-.49-.5-.97-.66-1.44-.09-.23-.18-.44-.24-.66-.06-.23-.12-.46-.17-.67s-.1-.4-.14-.58c-.03-.17-.03-.29-.05-.42-.04-.49-.05-.77-.05-.77-.03-1.01.77-1.84 1.77-1.87.67 0 1.27.36 1.6.9z" fill="#6D4C41" stroke="#6D4C41" stroke-miterlimit="10" opacity=".5"/><ellipse cx="64" cy="89.5" rx="37" ry="13.5" fill="#242424"/><defs><path id="b" d="M29.98 86.35v44.16h68.05V90c-15.31-10-54.79-10.48-67.27 2"/></defs><clipPath id="c"><use xlink:href="#b"/></clipPath><path d="M66.74 118.16h-3.28c-9.51 0-17.21-7.71-17.21-17.21V62.18h37.71v38.76c0 9.51-7.71 17.22-17.22 17.22z" clip-path="url(#c)" fill="#f04"/><g clip-path="url(#c)" opacity=".3"><path d="M79.96 66.18v34.76c0 7.29-5.93 13.21-13.21 13.21h-3.28c-7.29 0-13.21-5.93-13.21-13.21V66.18h29.7m4-4H46.25v38.76c0 9.51 7.71 17.21 17.21 17.21h3.28c9.51 0 17.21-7.71 17.21-17.21V62.18h.01z" fill="#1F0B08"/></g><path clip-path="url(#c)" fill="none" opacity=".3" stroke="#1F0B08" stroke-miterlimit="10" stroke-width="4" d="M65.1 62.18v34.14"/><radialGradient id="d" cx="32.902" cy="63.101" r="19.444" gradientTransform="matrix(.9791 0 0 .9301 -4.964 6.472)" gradientUnits="userSpaceOnUse"><stop stop-color="#ED0E00" offset=".005"/><stop stop-color="#ED1709" stop-opacity=".843" offset=".145"/><stop stop-color="#ED2F23" stop-opacity=".582" offset=".379"/><stop stop-color="#ED554C" stop-opacity=".251" offset=".675"/><stop stop-color="#ED7770" stop-opacity="0" offset=".9"/></radialGradient><circle cx="27.25" cy="65.16" r="17.5" fill="url(#d)"/><radialGradient id="e" cx="107.97" cy="63.101" r="19.444" gradientTransform="matrix(.9791 0 0 .9301 -4.964 6.472)" gradientUnits="userSpaceOnUse"><stop stop-color="#ED0E00" offset=".005"/><stop stop-color="#ED1709" stop-opacity=".843" offset=".145"/><stop stop-color="#ED2F23" stop-opacity=".582" offset=".379"/><stop stop-color="#ED554C" stop-opacity=".251" offset=".675"/><stop stop-color="#ED7770" stop-opacity="0" offset=".9"/></radialGradient><circle cx="100.75" cy="65.16" r="17.5" fill="url(#e)"/><path d="M14 89.57c-4.05 0-7.2-3.96-7.2-7.37 0-2.37 1.06-5.11 2.52-8.9l.66-1.72c1.14-2.99 2.78-6.21 3.93-8.35 1.02 2.11 2.53 5.27 3.94 8.43 2.6 5.83 3.35 8.19 3.35 10.54 0 3.41-3.15 7.37-7.2 7.37z" fill="#A3E2FF"/><path d="M13.85 66.59c.82 1.72 1.74 3.7 2.62 5.69 2.5 5.6 3.22 7.83 3.22 9.93 0 2.66-2.54 5.87-5.7 5.87s-5.7-3.21-5.7-5.87c0-2.09 1.01-4.72 2.42-8.36.21-.55.44-1.13.66-1.73.72-1.86 1.62-3.81 2.48-5.53M14 60s-3.43 5.82-5.42 11.05C6.76 75.83 5.3 79.18 5.3 82.2c0 4.32 3.89 8.87 8.7 8.87 4.8 0 8.7-4.55 8.7-8.87 0-2.72-.88-5.31-3.48-11.15C16.73 65.48 14 60 14 60z" fill="#38A9FF"/><path d="M21.79 41.99c-4.05 0-7.2-3.96-7.2-7.37 0-2.37 1.05-5.11 2.51-8.89l.66-1.72c1.14-2.99 2.78-6.21 3.93-8.35 1.02 2.11 2.53 5.27 3.94 8.43 2.6 5.83 3.35 8.19 3.35 10.54.01 3.4-3.13 7.36-7.19 7.36z" fill="#A3E2FF"/><path d="M21.65 19.01c.81 1.72 1.74 3.7 2.62 5.69 2.5 5.6 3.22 7.83 3.22 9.93 0 2.66-2.54 5.87-5.7 5.87s-5.7-3.21-5.7-5.87c0-2.09 1.01-4.72 2.42-8.36.21-.55.44-1.13.66-1.72.71-1.87 1.62-3.82 2.48-5.54m.14-6.59s-3.43 5.82-5.42 11.05c-1.82 4.78-3.27 8.12-3.27 11.15 0 4.32 3.89 8.87 8.7 8.87s8.7-4.55 8.7-8.87c0-2.72-.88-5.31-3.48-11.15-2.49-5.58-5.23-11.05-5.23-11.05z" fill="#38A9FF"/><path d="M116 74.99c-5.64 0-10.01-5.51-10.01-10.25 0-3.29 1.46-7.07 3.48-12.31.29-.76.6-1.55.91-2.37 1.65-4.34 4.13-9.08 5.78-12.05.8 1.52 1.89 3.74 3.28 6.85C123.3 53.53 126 61.7 126 64.74c0 4.74-4.37 10.25-10 10.25z" fill="#A3E2FF"/><path d="M116.09 42.37c.46.96.96 2.06 1.52 3.31 4.19 9.41 6.39 16.71 6.39 19.06 0 3.74-3.57 8.25-8 8.25-4.44 0-8.01-4.51-8.01-8.25 0-2.92 1.4-6.55 3.34-11.59.3-.77.6-1.56.91-2.38 1.08-2.83 2.53-5.84 3.85-8.4m.07-8.38s-4.9 8.13-7.65 15.36c-2.51 6.6-4.52 11.22-4.52 15.39 0 5.96 5.38 12.25 12.01 12.25s12-6.29 12-12.25c0-3.75-3.14-12.63-6.73-20.69-3.44-7.71-5.11-10.06-5.11-10.06z" fill="#38A9FF"/></svg>