<svg viewBox="0 0 128 128" width="128" height="128" xmlns="http://www.w3.org/2000/svg" xmlns:xlink="http://www.w3.org/1999/xlink"><defs><path id="a" transform="rotate(-180 64 64)" d="M4 4h120v120H4z"/></defs><clipPath id="b"><use xlink:href="#a"/></clipPath><g clip-path="url(#b)"><linearGradient id="c" x1="-232.9" x2="-116.94" y1="98.841" y2="221.44" gradientTransform="matrix(1 0 0 -1 333.04 128)" gradientUnits="userSpaceOnUse"><stop stop-color="#383838" offset="0"/><stop stop-color="#4D4D4D" offset=".996"/></linearGradient><path fill="url(#c)" d="M147.51-25.01L96.34 26.16l5.3 5.48L153-19.71z"/><linearGradient id="d" x1="-235.89" x2="-235.77" y1="101.13" y2="101.25" gradientTransform="matrix(1 0 0 -1 333.04 128)" gradientUnits="userSpaceOnUse"><stop stop-color="#ccc" offset=".004"/><stop stop-color="#999" offset=".999"/></linearGradient><path d="M96.49 26.17h-.09l.13-.13c.47.48.92 1 1.35 1.53l-1.39-1.4z" fill="url(#d)"/><linearGradient id="e" x1="-315.07" x2="-237.65" y1="16.977" y2="98.833" gradientTransform="matrix(1 0 0 -1 333.04 128)" gradientUnits="userSpaceOnUse"><stop stop-color="#383838" offset=".003"/><stop stop-color="#4D4D4D" offset=".032"/><stop stop-color="#333" offset="1"/></linearGradient><path d="M96.49 26.17h-3.01a9.895 9.895 0 0 1-2.19 3.32c-1.46 1.38-3.41 2.19-5.27 2.76-2.59.81-5.27 1.22-7.94.89-1.05-.08-2.03-.24-3.08-.32s-2.11-.08-3 .32c-.89.32-14.11 10.38-18.48 13.86-5.03 3.81-10.13 7.78-16.05 9.89-4.13 1.46-8.51 2.03-12.81 3-3.16.65-6.24 1.54-9.16 3-2.84 1.38-5.51 3.32-7.38 5.92-1.86 2.59-2.92 5.67-3.57 8.84-.89 4.86-.73 9.97.57 14.75 1.46 5.03 4.3 9.65 7.62 13.7 1.38 1.62 2.84 3.24 4.38 4.78s3.08 3 4.78 4.38c4.05 3.32 8.67 6.16 13.7 7.62 4.78 1.3 9.89 1.46 14.75.57 3.16-.65 6.24-1.7 8.84-3.57.65-.49 1.22-.97 1.78-1.54 1.7-1.7 3.08-3.73 4.13-5.84 1.46-2.92 2.35-6 3-9.16.97-4.3 1.54-8.67 3-12.81 2.11-5.92 6-11.02 9.89-16.05 3.32-4.22 6.57-8.43 9.81-12.65 0 0 3.73-4.95 4.05-5.84.4-.97.4-2.03.32-3-.08-1.05-.24-2.03-.32-3.08-.33-2.68.08-5.35.89-7.94.57-1.87 1.38-3.81 2.76-5.27.89-.97 2.11-1.7 3.32-2.19l.09-3.02c-1.4-1.44-5.42-5.32-5.42-5.32zM71.68 74.89l2.68-5.35 10.21-4.78c-4.05 3.65-8.35 7.05-12.89 10.13zm-39.07-6.73l8.92-4.46-4.54 8.67-5.51 2.76c-.32-1.13-.49-2.27-.65-3.4l1.78-3.57zm-5.68 9.16l-3.89 1.95c-.32-1.05-.57-2.11-.81-3.16l1.7-3.65 4.46-2.19c0 .41 0 .89.08 1.38 0 .65.16 1.3.24 2.03l-1.78 3.64zm-4.13 8.52l-.32.65-6.81 3.41 3.65-7.54 1.86-.97c.48 1.53.97 2.99 1.62 4.45zm3.4-6.89l-2.03 3.97c-.32-.81-.57-1.7-.89-2.59l2.92-1.38zm-.73 12.24l-5.27 2.43 3.08-6.4h.08c.65 1.37 1.3 2.67 2.11 3.97zm0-5.03l5.92-3-3.57 6.97-.24.08c-.73-1.29-1.46-2.67-2.11-4.05zm20.03 17.83l3.81-1.86-1.3 2.68c-.08-.08-.24-.08-.32-.08-.73-.25-1.46-.49-2.19-.74zm6.97 1.95c-1.13-.24-2.27-.57-3.41-.89l1.86-3.73 4.05-1.95c.49.08.89.16 1.38.16.65.08 1.22.08 1.78.08l-2.35 4.7-3.31 1.63zm4.46-8.76h-.32c-1.13-.08-2.27-.32-3.32-.57l2.59-5.35 8.67-4.54-4.38 8.92-3.24 1.54zm2.43.09h-.08.08zm6-12.16l-8.67 4.54 2.59-5.19c3-1.05 5.84-2.59 8.51-4.21l-2.43 4.86zM34.23 81.7l5.51-2.84-3.08 6.4c-.89-1.13-1.7-2.34-2.43-3.56zm3.57 8.51c.65.57 1.3 1.13 1.95 1.7l-6.57 3.16 3.16-6.48c.48.49.97 1.06 1.46 1.62zm-3.9-9.56l3.89-7.46 5.11-2.51c-.08.16-.08.24-.16.4-.24.89-.49 1.87-.57 2.92l-1.62 3.32-6.65 3.33zm10.06 1.86l-6.08 2.92 3.49-7.38.73-.32c.24 1.7.8 3.4 1.86 4.78zm.73.89c.08 0 .16.08.16.16l-3.16 6.89c-.81-.65-1.46-1.3-2.19-1.95-.57-.65-1.13-1.22-1.7-1.86l6.89-3.24zM48.74 95l5.51-2.92-2.03 4.22c-1.21-.33-2.35-.82-3.48-1.3zm-1.14-.65l3.41-6.65 4.3-2.11c.57-.08 1.13-.24 1.62-.41.32-.08.57-.16.89-.24l-2.76 5.51-7.46 3.9zm-.48-12.08l7.13-3.32-2.43 4.7c-.32 0-.57 0-.89-.08-1.38-.09-2.76-.57-3.81-1.3zM50.68 86l-.49.89-7.38 3.57 2.92-6.24c1.47 1.05 3.17 1.62 4.95 1.78zm1.14 0h.24l-.32.16.08-.16zm-4.54-5.03l3.57-7.7 8.43-4.3-4.3 8.43-7.7 3.57zm8.51-2.75l6.89-3.24-3.4 6.97c-.97.32-1.95.73-3 .97-1.05.32-2.11.57-3.16.65l2.67-5.35zm-9.16 15.72c-1.3-.73-2.43-1.54-3.65-2.43l6.4-3-2.75 5.43zm-1.7 1.79l-6 3.16 2.59-5.51c1.06.81 2.19 1.62 3.41 2.35zm-.57-19.14l4.94-2.51-3.32 7.13c-.89-1.13-1.46-2.59-1.62-4.13v-.49zm0-1.29c.16-1.13.32-2.35.73-3.57.24-.89.49-1.7.81-2.51l7.38-3.65-3.24 6.89-5.68 2.84zm10.46-10.54l8.75-4.3-3.49 6.89-8.43 4.3 3.17-6.89zm10.38-5.11l6.65-3.24-3.24 6.65-6.89 3.49 3.48-6.9zm2.59 5.03l-4.3 8.75-6.89 3.24 4.3-8.51 6.89-3.48zm-3.49 9.56l8.43-3.97-2.84 5.84c-.32.24-.65.41-.97.65-2.59 1.7-5.35 3.24-8.11 4.54l3.49-7.06zm-20.18 29.19c-.32-.08-.65-.24-.97-.32l3.32-6.57c1.54.81 3.08 1.46 4.62 1.95l-.97 2.03-6 2.91zm-1.95-.81c-1.38-.57-2.76-1.3-4.05-2.03l.08-.08 6.89-3.65-2.92 5.76zm-1.05 2.1l-.08.24-6.4 3.08 2.51-5.35c1.29.82 2.59 1.47 3.97 2.03zm-4.13-4.86c-1.54-.97-3-2.11-4.3-3.32l7.94-3.81-3.32 6.97-.32.16zm-2.44 1.3l-5.67 2.92 2.59-5.43c.97.89 2.03 1.7 3.08 2.51zm-6.16-9.81l.16-.4 6.97-3.24-3.81 7.86c-1.21-1.3-2.35-2.68-3.32-4.22zm1.22 5.43l-5.43 2.68 2.92-5.67c.8 1.04 1.62 2.02 2.51 2.99zm2.92-13.38c.65 1.22 1.46 2.27 2.35 3.4l-5.51 2.51 3.16-5.91zm-.73-7.21L36.17 74l-3 5.67c-.48-1.13-1.05-2.35-1.37-3.48zm11.35-13.3l4.3-2.11c-1.62 2.68-3.08 5.43-4.13 8.43l-4.7 2.35 4.53-8.67zm8.1-3.81c.08-.16.16-.24.24-.32l6.48-3.24L54 63.95l-7.46 3.73c1.23-3 2.93-5.84 4.71-8.6zm8.27-4.37l9.32-4.62-4.46 8.75-8.83 4.38 3.97-8.51zm10.94-5.43l6.49-3.24-4.3 8.75L66 58.11l4.46-8.83zm3 6.32l8.75-4.3-3.24 6.49-8.76 4.46 3.25-6.65zm4.7 3.81l-4.62 9.32-8.51 3.97 4.38-8.84 8.75-4.45zM66.98 84.3l2.59-5.19c.24-.08.4-.24.65-.4.49-.32.97-.65 1.46-.97l5.11-2.43c-1.7 2.11-3.32 4.3-4.86 6.57v-.18l-4.95 2.6zm.16 7.94l-5.43 2.68 4.46-9 4.78-2.43a28.833 28.833 0 0 0-2.84 5.76c-.4.96-.73 1.94-.97 2.99zm-1.54 3.89c-1.62.57-3.32.89-5.03 1.05l.4-.73 5.84-2.84c-.24.81-.41 1.62-.57 2.51a.939.939 0 0 0-.64.01zm-.16 3.65l-8.02 3.81 1.94-3.97c2.11-.08 4.3-.41 6.32-.97-.08.32-.16.72-.24 1.13zm-2.27 7.54c-2.43-.16-4.86-.32-7.3-.73l.73-1.46 8.51-3.97c-.48 2.02-1.13 4.13-1.94 6.16zm-10.95 6.65l2.6-5.19c2.35.41 4.78.73 7.21.81-3 2.1-6.32 3.56-9.81 4.38zm-7.94.81l2.51-4.94 3.89-1.86c.97.24 2.03.49 3 .65l-2.84 5.67c-2.1.39-4.37.56-6.56.48zm-5.92-.98l6.81-3.24-2.03 4.13c-.97-.08-2.03-.24-3-.49-.64-.07-1.21-.23-1.78-.4zm0-1.21l3.49-6.81.73-.41c1.46.57 2.92 1.13 4.38 1.54l-.97 2.11-7.63 3.57zm-5.35-1.06l.89-1.95 6.32-3.08-3.4 6.73c-1.29-.48-2.59-.97-3.81-1.7zm-1.46-.73l.81-.41-.32.65c-.16-.07-.32-.16-.49-.24zm-4.46-3.08l.97-2.03 7.54-3.89c.16.16.4.24.57.41l-3.08 6.57-2.68 1.3c-1.13-.74-2.18-1.55-3.32-2.36zm-1.05-.97l.41-.16-.16.4c-.09-.08-.17-.16-.25-.24zm-3.73-3.73l1.05-2.03 7.05-3.32c.08.08.16.08.24.16l-3.4 7.13-2.11 1.05c-.96-.96-1.94-1.93-2.83-2.99zm-.89-1.05l.32-.16-.24.32c0-.08-.08-.08-.08-.16zm-3.16-4.3l1.22-2.51 6.57-3c.08.16.24.41.41.57l-3.89 7.46-1.86.89c-.91-1.06-1.72-2.27-2.45-3.41zm-.89-1.54l.57-.24-.32.65c-.09-.09-.17-.25-.25-.41zm-2.35-4.7l6.73-3.4-3.08 6.32-1.86.89c-.66-1.22-1.23-2.51-1.79-3.81zm-1.71-6.16l4.38-2.19-3.24 6.89c-.24-.65-.49-1.38-.73-2.11-.16-.89-.33-1.78-.41-2.59zm5.92-11.67l-5.35 2.68c.73-3.65 2.27-7.13 4.38-10.21h.16c.08 2.5.41 5.01.81 7.53zm.97 4.29l-1.7 3.65-5.27 2.51c-.08-2.11 0-4.3.32-6.48l5.92-2.92c.17 1.13.41 2.19.73 3.24zm7.14-15.16l-4.21 8.92-1.62.81c-.4-2.51-.65-5.03-.81-7.62 2.18-.89 4.37-1.54 6.64-2.11zm2.02-.4c-.65 2.19-.97 4.46-1.05 6.73l-3.65 1.78 3.97-8.35c.25-.08.49-.16.73-.16zm.25 14.91c.57 1.54 1.22 3.08 2.03 4.62l-6.57 3.32c-.08-.32-.24-.57-.32-.89l3-6.16 1.86-.89zm5.19-16.13l-3 6.24-1.05.49c.16-1.86.49-3.65 1.13-5.43 0-.24.08-.4 0-.65.97-.16 1.94-.41 2.92-.65zm9.89-4.3l-2.36 5.27-8.92 4.46 2.76-5.84c.89-.24 1.78-.49 2.59-.81 2.28-.8 3.91-1.78 5.93-3.08zm8.67-6.08l-1.78 3.65c-.81 1.13-1.54 2.27-2.27 3.41-.32.41-.57.81-.81 1.22l-4.54 2.27 2.11-5.19c2.43-1.62 4.78-3.4 7.13-5.19l.16-.17zm10.7-8.26L58.71 53.9l-6 3c3.41-5.03 7.22-9.89 11.35-14.43zm10.62-3.89l-5.03 9.89-9.4 4.7L66 40.93c.57-.49 1.13-.89 1.7-1.38 1.38-1.13 3.08-1.95 4.7-1.54.82.16 1.55.32 2.28.57zm4.94 2.02l-1.86 3.89-6.48 3.16 4.46-8.76c1.37.5 2.67 1.06 3.88 1.71zm2.6 1.62l-2.84 1.46 1.22-2.51c.56.32 1.05.73 1.62 1.05zm3.08 2.84l-2.27 4.62-8.76 4.38 4.3-8.75 4.54-2.27c.81.64 1.54 1.29 2.19 2.02zm1.94 2.59l-2.68 1.3 1.46-3c.49.57.82 1.14 1.22 1.7zm2.19 4.79l-8.84 4.54 3.24-6.48 3.97-1.95c.74 1.21 1.23 2.59 1.63 3.89zM90 55.6c.16 1.87-.57 3.32-1.54 4.7-.57.73-1.22 1.54-1.78 2.27L75.08 68l4.7-9.4 9.89-5.03c.17.65.33 1.3.33 2.03zm1.86-12.4v-.08.08z" fill="url(#e)"/><defs><path id="f" d="M96.49 26.17h-3.01a9.895 9.895 0 0 1-2.19 3.32c-1.46 1.38-3.41 2.19-5.27 2.76-2.59.81-5.27 1.22-7.94.89-1.05-.08-2.03-.24-3.08-.32s-2.11-.08-3 .32c-.89.32-14.11 10.38-18.48 13.86-5.03 3.81-10.13 7.78-16.05 9.89-4.13 1.46-8.51 2.03-12.81 3-3.16.65-6.24 1.54-9.16 3-2.84 1.38-5.51 3.32-7.38 5.92-1.86 2.59-2.92 5.67-3.57 8.84-.89 4.86-.73 9.97.57 14.75 1.46 5.03 4.3 9.65 7.62 13.7 1.38 1.62 2.84 3.24 4.38 4.78s3.08 3 4.78 4.38c4.05 3.32 8.67 6.16 13.7 7.62 4.78 1.3 9.89 1.46 14.75.57 3.16-.65 6.24-1.7 8.84-3.57.65-.49 1.22-.97 1.78-1.54 1.7-1.7 3.08-3.73 4.13-5.84 1.46-2.92 2.35-6 3-9.16.97-4.3 1.54-8.67 3-12.81 2.11-5.92 6-11.02 9.89-16.05 3.32-4.22 6.57-8.43 9.81-12.65 0 0 3.73-4.95 4.05-5.84.4-.97.4-2.03.32-3-.08-1.05-.24-2.03-.32-3.08-.33-2.68.08-5.35.89-7.94.57-1.87 1.38-3.81 2.76-5.27.89-.97 2.11-1.7 3.32-2.19l.09-3.02c-1.4-1.44-5.42-5.32-5.42-5.32zM71.68 74.89l2.68-5.35 10.21-4.78c-4.05 3.65-8.35 7.05-12.89 10.13zm-39.07-6.73l8.92-4.46-4.54 8.67-5.51 2.76c-.32-1.13-.49-2.27-.65-3.4l1.78-3.57zm-5.68 9.16l-3.89 1.95c-.32-1.05-.57-2.11-.81-3.16l1.7-3.65 4.46-2.19c0 .41 0 .89.08 1.38 0 .65.16 1.3.24 2.03l-1.78 3.64zm-4.13 8.52l-.32.65-6.81 3.41 3.65-7.54 1.86-.97c.48 1.53.97 2.99 1.62 4.45zm3.4-6.89l-2.03 3.97c-.32-.81-.57-1.7-.89-2.59l2.92-1.38zm-.73 12.24l-5.27 2.43 3.08-6.4h.08c.65 1.37 1.3 2.67 2.11 3.97zm0-5.03l5.92-3-3.57 6.97-.24.08c-.73-1.29-1.46-2.67-2.11-4.05zm20.03 17.83l3.81-1.86-1.3 2.68c-.08-.08-.24-.08-.32-.08-.73-.25-1.46-.49-2.19-.74zm6.97 1.95c-1.13-.24-2.27-.57-3.41-.89l1.86-3.73 4.05-1.95c.49.08.89.16 1.38.16.65.08 1.22.08 1.78.08l-2.35 4.7-3.31 1.63zm4.46-8.76h-.32c-1.13-.08-2.27-.32-3.32-.57l2.59-5.35 8.67-4.54-4.38 8.92-3.24 1.54zm2.43.09h-.08.08zm6-12.16l-8.67 4.54 2.59-5.19c3-1.05 5.84-2.59 8.51-4.21l-2.43 4.86zM34.23 81.7l5.51-2.84-3.08 6.4c-.89-1.13-1.7-2.34-2.43-3.56zm3.57 8.51c.65.57 1.3 1.13 1.95 1.7l-6.57 3.16 3.16-6.48c.48.49.97 1.06 1.46 1.62zm-3.9-9.56l3.89-7.46 5.11-2.51c-.08.16-.08.24-.16.4-.24.89-.49 1.87-.57 2.92l-1.62 3.32-6.65 3.33zm10.06 1.86l-6.08 2.92 3.49-7.38.73-.32c.24 1.7.8 3.4 1.86 4.78zm.73.89c.08 0 .16.08.16.16l-3.16 6.89c-.81-.65-1.46-1.3-2.19-1.95-.57-.65-1.13-1.22-1.7-1.86l6.89-3.24zM48.74 95l5.51-2.92-2.03 4.22c-1.21-.33-2.35-.82-3.48-1.3zm-1.14-.65l3.41-6.65 4.3-2.11c.57-.08 1.13-.24 1.62-.41.32-.08.57-.16.89-.24l-2.76 5.51-7.46 3.9zm-.48-12.08l7.13-3.32-2.43 4.7c-.32 0-.57 0-.89-.08-1.38-.09-2.76-.57-3.81-1.3zM50.68 86l-.49.89-7.38 3.57 2.92-6.24c1.47 1.05 3.17 1.62 4.95 1.78zm1.14 0h.24l-.32.16.08-.16zm-4.54-5.03l3.57-7.7 8.43-4.3-4.3 8.43-7.7 3.57zm8.51-2.75l6.89-3.24-3.4 6.97c-.97.32-1.95.73-3 .97-1.05.32-2.11.57-3.16.65l2.67-5.35zm-9.16 15.72c-1.3-.73-2.43-1.54-3.65-2.43l6.4-3-2.75 5.43zm-1.7 1.79l-6 3.16 2.59-5.51c1.06.81 2.19 1.62 3.41 2.35zm-.57-19.14l4.94-2.51-3.32 7.13c-.89-1.13-1.46-2.59-1.62-4.13v-.49zm0-1.29c.16-1.13.32-2.35.73-3.57.24-.89.49-1.7.81-2.51l7.38-3.65-3.24 6.89-5.68 2.84zm10.46-10.54l8.75-4.3-3.49 6.89-8.43 4.3 3.17-6.89zm10.38-5.11l6.65-3.24-3.24 6.65-6.89 3.49 3.48-6.9zm2.59 5.03l-4.3 8.75-6.89 3.24 4.3-8.51 6.89-3.48zm-3.49 9.56l8.43-3.97-2.84 5.84c-.32.24-.65.41-.97.65-2.59 1.7-5.35 3.24-8.11 4.54l3.49-7.06zm-20.18 29.19c-.32-.08-.65-.24-.97-.32l3.32-6.57c1.54.81 3.08 1.46 4.62 1.95l-.97 2.03-6 2.91zm-1.95-.81c-1.38-.57-2.76-1.3-4.05-2.03l.08-.08 6.89-3.65-2.92 5.76zm-1.05 2.1l-.08.24-6.4 3.08 2.51-5.35c1.29.82 2.59 1.47 3.97 2.03zm-4.13-4.86c-1.54-.97-3-2.11-4.3-3.32l7.94-3.81-3.32 6.97-.32.16zm-2.44 1.3l-5.67 2.92 2.59-5.43c.97.89 2.03 1.7 3.08 2.51zm-6.16-9.81l.16-.4 6.97-3.24-3.81 7.86c-1.21-1.3-2.35-2.68-3.32-4.22zm1.22 5.43l-5.43 2.68 2.92-5.67c.8 1.04 1.62 2.02 2.51 2.99zm2.92-13.38c.65 1.22 1.46 2.27 2.35 3.4l-5.51 2.51 3.16-5.91zm-.73-7.21L36.17 74l-3 5.67c-.48-1.13-1.05-2.35-1.37-3.48zm11.35-13.3l4.3-2.11c-1.62 2.68-3.08 5.43-4.13 8.43l-4.7 2.35 4.53-8.67zm8.1-3.81c.08-.16.16-.24.24-.32l6.48-3.24L54 63.95l-7.46 3.73c1.23-3 2.93-5.84 4.71-8.6zm8.27-4.37l9.32-4.62-4.46 8.75-8.83 4.38 3.97-8.51zm10.94-5.43l6.49-3.24-4.3 8.75L66 58.11l4.46-8.83zm3 6.32l8.75-4.3-3.24 6.49-8.76 4.46 3.25-6.65zm4.7 3.81l-4.62 9.32-8.51 3.97 4.38-8.84 8.75-4.45zM66.98 84.3l2.59-5.19c.24-.08.4-.24.65-.4.49-.32.97-.65 1.46-.97l5.11-2.43c-1.7 2.11-3.32 4.3-4.86 6.57v-.18l-4.95 2.6zm.16 7.94l-5.43 2.68 4.46-9 4.78-2.43a28.833 28.833 0 0 0-2.84 5.76c-.4.96-.73 1.94-.97 2.99zm-1.54 3.89c-1.62.57-3.32.89-5.03 1.05l.4-.73 5.84-2.84c-.24.81-.41 1.62-.57 2.51a.939.939 0 0 0-.64.01zm-.16 3.65l-8.02 3.81 1.94-3.97c2.11-.08 4.3-.41 6.32-.97-.08.32-.16.72-.24 1.13zm-2.27 7.54c-2.43-.16-4.86-.32-7.3-.73l.73-1.46 8.51-3.97c-.48 2.02-1.13 4.13-1.94 6.16zm-10.95 6.65l2.6-5.19c2.35.41 4.78.73 7.21.81-3 2.1-6.32 3.56-9.81 4.38zm-7.94.81l2.51-4.94 3.89-1.86c.97.24 2.03.49 3 .65l-2.84 5.67c-2.1.39-4.37.56-6.56.48zm-5.92-.98l6.81-3.24-2.03 4.13c-.97-.08-2.03-.24-3-.49-.64-.07-1.21-.23-1.78-.4zm0-1.21l3.49-6.81.73-.41c1.46.57 2.92 1.13 4.38 1.54l-.97 2.11-7.63 3.57zm-5.35-1.06l.89-1.95 6.32-3.08-3.4 6.73c-1.29-.48-2.59-.97-3.81-1.7zm-1.46-.73l.81-.41-.32.65c-.16-.07-.32-.16-.49-.24zm-4.46-3.08l.97-2.03 7.54-3.89c.16.16.4.24.57.41l-3.08 6.57-2.68 1.3c-1.13-.74-2.18-1.55-3.32-2.36zm-1.05-.97l.41-.16-.16.4c-.09-.08-.17-.16-.25-.24zm-3.73-3.73l1.05-2.03 7.05-3.32c.08.08.16.08.24.16l-3.4 7.13-2.11 1.05c-.96-.96-1.94-1.93-2.83-2.99zm-.89-1.05l.32-.16-.24.32c0-.08-.08-.08-.08-.16zm-3.16-4.3l1.22-2.51 6.57-3c.08.16.24.41.41.57l-3.89 7.46-1.86.89c-.91-1.06-1.72-2.27-2.45-3.41zm-.89-1.54l.57-.24-.32.65c-.09-.09-.17-.25-.25-.41zm-2.35-4.7l6.73-3.4-3.08 6.32-1.86.89c-.66-1.22-1.23-2.51-1.79-3.81zm-1.71-6.16l4.38-2.19-3.24 6.89c-.24-.65-.49-1.38-.73-2.11-.16-.89-.33-1.78-.41-2.59zm5.92-11.67l-5.35 2.68c.73-3.65 2.27-7.13 4.38-10.21h.16c.08 2.5.41 5.01.81 7.53zm.97 4.29l-1.7 3.65-5.27 2.51c-.08-2.11 0-4.3.32-6.48l5.92-2.92c.17 1.13.41 2.19.73 3.24zm7.14-15.16l-4.21 8.92-1.62.81c-.4-2.51-.65-5.03-.81-7.62 2.18-.89 4.37-1.54 6.64-2.11zm2.02-.4c-.65 2.19-.97 4.46-1.05 6.73l-3.65 1.78 3.97-8.35c.25-.08.49-.16.73-.16zm.25 14.91c.57 1.54 1.22 3.08 2.03 4.62l-6.57 3.32c-.08-.32-.24-.57-.32-.89l3-6.16 1.86-.89zm5.19-16.13l-3 6.24-1.05.49c.16-1.86.49-3.65 1.13-5.43 0-.24.08-.4 0-.65.97-.16 1.94-.41 2.92-.65zm9.89-4.3l-2.36 5.27-8.92 4.46 2.76-5.84c.89-.24 1.78-.49 2.59-.81 2.28-.8 3.91-1.78 5.93-3.08zm8.67-6.08l-1.78 3.65c-.81 1.13-1.54 2.27-2.27 3.41-.32.41-.57.81-.81 1.22l-4.54 2.27 2.11-5.19c2.43-1.62 4.78-3.4 7.13-5.19l.16-.17zm10.7-8.26L58.71 53.9l-6 3c3.41-5.03 7.22-9.89 11.35-14.43zm10.62-3.89l-5.03 9.89-9.4 4.7L66 40.93c.57-.49 1.13-.89 1.7-1.38 1.38-1.13 3.08-1.95 4.7-1.54.82.16 1.55.32 2.28.57zm4.94 2.02l-1.86 3.89-6.48 3.16 4.46-8.76c1.37.5 2.67 1.06 3.88 1.71zm2.6 1.62l-2.84 1.46 1.22-2.51c.56.32 1.05.73 1.62 1.05zm3.08 2.84l-2.27 4.62-8.76 4.38 4.3-8.75 4.54-2.27c.81.64 1.54 1.29 2.19 2.02zm1.94 2.59l-2.68 1.3 1.46-3c.49.57.82 1.14 1.22 1.7zm2.19 4.79l-8.84 4.54 3.24-6.48 3.97-1.95c.74 1.21 1.23 2.59 1.63 3.89zM90 55.6c.16 1.87-.57 3.32-1.54 4.7-.57.73-1.22 1.54-1.78 2.27L75.08 68l4.7-9.4 9.89-5.03c.17.65.33 1.3.33 2.03zm1.86-12.4v-.08.08z"/></defs><clipPath id="g"><use xlink:href="#f"/></clipPath><g clip-path="url(#g)" fill="#E82E00"><path d="M46.23 81.05c-3.59-3.77-1.79-8.5.83-14.63 2.98-7 11.53-18.46 17.12-23.73 4.4-4.15 6.08-4.92 9.35-4.38 2.17.36 7.1 2.19 10.56 5.42s7.67 10.23 5.29 15c-2.4 4.76-10.48 10.83-13.78 13.3-3.31 2.46-21.83 16.94-29.37 9.02z"/><path d="M32.21 61.72s-5.88 12.4 5.83 25.21c11.52 12.6 21.27 10.83 28.27 9.06 0 0 .46-6.29 4.04-11.94 2.01-3.17 6.58-8.65 6.58-8.65s-2.07.46-5.42 2.71c-3.52 2.37-8.71 5.13-12.63 6.58-7.5 2.76-10.88 1.35-14.19-1.27s-4.13-10.46.17-18S51.9 54 53.34 50.94c-.01-.01-14.47 10.66-21.13 10.78z"/><path d="M31.75 95.53c-4.08-3.95-4.63-6.04-5.71-8.19s-5.42-13.29-5.42-22.67c0 0 3.54-1.46 8.77-2.38 0 0-5.6 16.75 10.85 29.77 0 0 10.77 10.69 25.46 6.54 0 0-1.54 6.92-2.46 8.69-.01-.01-19.26.06-31.49-11.76z"/><path d="M18.46 65.66s.71 22.77 13.29 33.27c11.67 9.74 23.19 9.81 30.87 10.42 0 0-19.04 14.38-37.67-3.62-19.37-18.7-9.87-34.99-6.49-40.07z"/></g><radialGradient id="h" cx="35.958" cy="25.853" r="15.038" gradientTransform="rotate(180 64 64)" gradientUnits="userSpaceOnUse"><stop stop-color="#FCEE21" offset="0"/><stop stop-color="#D9E021" offset="1"/></radialGradient><circle cx="88.52" cy="96.28" r="12.15" fill="url(#h)"/><path d="M88.52 86.12c5.6 0 10.15 4.55 10.15 10.15s-4.56 10.15-10.15 10.15-10.15-4.55-10.15-10.15 4.55-10.15 10.15-10.15m0-2c-6.71 0-12.15 5.44-12.15 12.15s5.44 12.15 12.15 12.15 12.15-5.44 12.15-12.15-5.44-12.15-12.15-12.15z" fill="#424242" opacity=".2"/><defs><path id="i" d="M147.51-25.01L96.34 26.16l5.3 5.48L153-19.71z"/></defs><clipPath id="j"><use xlink:href="#i"/></clipPath><path transform="rotate(45.001 106.385 21.813)" clip-path="url(#j)" fill="#E82E00" d="M99.92 18.74h12.92v6.15H99.92z"/><path transform="rotate(45.001 115.386 12.814)" clip-path="url(#j)" fill="#E82E00" d="M108.92 9.74h12.92v6.15h-12.92z"/><path d="M147.53-22.21l2.61 2.52-49.71 49.71c-.5.5-.67 1.21-.52 1.86l-.04 1.35c-.93.49-1.96 1.17-2.81 2.11-1.38 1.46-2.4 3.39-3.21 6.05-.98 3.14-1.3 6-.97 8.74.04.56.11 1.08.17 1.59.06.48.11.95.15 1.46.06.68.08 1.45-.18 2.07 0 .01-.01.02-.01.03-.12.25-.5.82-1.02 1.56.04-.42.05-.86.01-1.32-.01-.94-.21-1.73-.38-2.42-.04-.17-.11-.33-.19-.48.02-.25-.01-.51-.08-.76-.42-1.34-.96-2.9-1.81-4.32-.1-.17-.23-.32-.37-.45-.06-.2-.16-.4-.29-.58-.12-.17-.24-.35-.36-.52-.27-.4-.57-.85-.97-1.32-.12-.14-.25-.26-.4-.36-.08-.2-.2-.39-.35-.56-.66-.74-1.43-1.46-2.43-2.26-.13-.1-.27-.19-.41-.25-.17-.3-.43-.55-.74-.73-.21-.12-.43-.27-.66-.43-.28-.19-.6-.41-.96-.62-.16-.09-.33-.16-.51-.2-.15-.15-.32-.29-.51-.39-1.3-.69-2.7-1.31-4.17-1.82a1.99 1.99 0 0 0-.63-.11c-.14-.09-.3-.17-.46-.22-.79-.26-1.56-.44-2.47-.62-.42-.1-.86-.15-1.31-.15h-.08c.67-.48 1.15-.81 1.37-.94.28-.13.67-.19 1.2-.19.23 0 .49.01.82.04.5.04.98.1 1.46.15.51.06 1.03.12 1.58.17.68.08 1.38.12 2.07.12 2.13 0 4.31-.36 6.65-1.09 2.67-.81 4.6-1.83 6.06-3.22l.04-.04c.81-.82 1.5-1.73 2.04-2.74h1.6c.61 0 1.18-.28 1.55-.75l49.63-49.67M58.9 45.35c-1.26 1.51-2.49 3.05-3.68 4.63-.14-.34-.37-.65-.69-.87-.08-.06-.17-.11-.26-.16l.5-.38a343 343 0 0 1 4.13-3.22M19.24 63.46c-.18.18-.32.4-.41.64a1.84 1.84 0 0 0-.41-.04h-.16c-.66 0-1.28.33-1.65.87-2.31 3.38-3.93 7.16-4.69 10.95-.04.2-.05.39-.03.58-.16.24-.27.52-.31.81-.32 2.17-.44 4.47-.34 6.86.01.23.06.45.14.66-.05.22-.07.45-.05.68.09.86.25 1.77.41 2.65l.02.09c.02.1.04.19.07.28l.08.23c.22.65.45 1.33.68 1.94.1.27.25.5.44.7-.01.29.04.58.17.86.57 1.31 1.16 2.66 1.85 3.95.11.21.26.39.42.54.03.11.07.21.13.31.13.26.3.6.61.91.03.03.06.06.1.09.05.25.14.49.28.71.78 1.21 1.63 2.48 2.59 3.61.12.14.25.26.4.36.05.12.11.25.19.37a2 2 0 0 0 .74.76c.07.16.17.32.29.46.95 1.12 1.97 2.14 2.95 3.12.19.19.41.33.65.43.07.1.15.2.24.29l.26.26c.15.15.33.27.52.37.14.22.31.41.53.56.33.24.65.47.97.7.78.57 1.58 1.16 2.43 1.7.2.13.41.22.63.27.18.23.41.43.69.57l.49.25c.17.08.34.14.51.17.1.09.2.17.32.24 1.37.82 2.78 1.35 4.14 1.86.23.09.47.13.7.13h.14c.23.23.52.4.85.49.57.16 1.21.35 1.96.45 1 .24 2.11.42 3.2.51.06 0 .11.01.17.01.15 0 .29-.02.43-.05.2.07.41.12.63.13a31.979 31.979 0 0 0 7.02-.52c.27-.05.52-.16.74-.3.09.01.17.02.26.02.15 0 .3-.02.45-.05 3.8-.88 7.34-2.46 10.51-4.69.67-.47.98-1.29.8-2.08.21-.09.4-.22.56-.38-.37 1.01-.78 1.95-1.22 2.85-1.03 2.06-2.3 3.85-3.76 5.32-.49.49-.99.92-1.54 1.33-2.07 1.48-4.7 2.54-8.03 3.22-1.91.35-3.86.53-5.8.53-2.77 0-5.48-.36-8.03-1.05-4.27-1.24-8.64-3.68-13-7.25-1.42-1.15-2.85-2.46-4.63-4.24-1.36-1.36-2.75-2.88-4.25-4.64-3.57-4.35-6.01-8.72-7.24-12.96-1.2-4.42-1.38-9.22-.54-13.83.69-3.37 1.75-6.01 3.23-8.07 1.49-2.08 3.78-3.9 6.65-5.3.9-.43 1.85-.83 2.85-1.2m63.54 5.51a628.62 628.62 0 0 1-3.36 4.29c-.28.37-.57.74-.86 1.11-.06-.11-.13-.22-.2-.32-.28-.36-.67-.6-1.09-.7 1.86-1.39 3.7-2.85 5.51-4.38m64.73-93.98L96.34 26.16l.01.01h-2.87a9.895 9.895 0 0 1-2.19 3.32c-1.46 1.38-3.41 2.19-5.27 2.76-1.99.62-4.02 1-6.07 1-.63 0-1.25-.04-1.88-.11-1.05-.08-2.03-.24-3.08-.32-.33-.03-.65-.04-.97-.04-.72 0-1.41.09-2.03.37-.89.32-14.11 10.38-18.48 13.86-5.03 3.81-10.13 7.78-16.05 9.89-4.13 1.46-8.51 2.03-12.81 3-3.16.65-6.24 1.54-9.16 3-2.84 1.38-5.51 3.32-7.38 5.92-1.86 2.59-2.92 5.67-3.57 8.84-.89 4.86-.73 9.97.57 14.75 1.46 5.03 4.3 9.65 7.62 13.7 1.38 1.62 2.84 3.24 4.38 4.78s3.08 3 4.78 4.38c4.05 3.32 8.67 6.16 13.7 7.62 2.79.76 5.69 1.13 8.59 1.13 2.07 0 4.14-.19 6.16-.56 3.16-.65 6.24-1.7 8.84-3.57.65-.49 1.22-.97 1.78-1.54 1.7-1.7 3.08-3.73 4.13-5.84 1.46-2.92 2.35-6 3-9.16.97-4.3 1.54-8.67 3-12.81 2.11-5.92 6-11.02 9.89-16.05 3.32-4.22 6.57-8.43 9.81-12.65 0 0 3.73-4.95 4.05-5.84.4-.97.4-2.03.32-3-.08-1.05-.24-2.03-.32-3.08-.33-2.67.08-5.35.89-7.94.57-1.87 1.38-3.81 2.76-5.27.89-.97 2.11-1.7 3.32-2.19l.09-3.02-.07-.07L153-19.71l-5.49-5.3zM60.25 53.17L66 40.93c.57-.49 1.13-.89 1.7-1.38 1.13-.93 2.48-1.65 3.83-1.65.29 0 .58.03.87.11.81.16 1.54.32 2.27.57l-5.03 9.89-9.39 4.7zm11.02-5.51l4.46-8.76c1.38.49 2.68 1.05 3.89 1.7l-1.86 3.89-6.49 3.17zm8.11-3.98l1.22-2.51c.57.32 1.05.73 1.62 1.05l-2.84 1.46zM52.71 56.9c3.41-5.03 7.21-9.89 11.35-14.43L58.71 53.9l-6 3zm21.56-2.84l4.3-8.75 4.54-2.27c.81.65 1.54 1.3 2.19 2.03l-2.27 4.62-8.76 4.37zm10.3-5.11l1.46-3c.49.57.81 1.14 1.22 1.7l-2.68 1.3zM66 58.11l4.46-8.84 6.49-3.24-4.3 8.75L66 58.11zm14.6-1.13l3.24-6.48 3.97-1.95c.73 1.22 1.22 2.59 1.62 3.89l-8.83 4.54zm-25.05 6.24l3.97-8.51 9.32-4.62-4.46 8.75-8.83 4.38zm-11.59-1.95l2.11-5.19c2.43-1.62 4.78-3.4 7.13-5.19l.16-.16-1.78 3.65c-.81 1.13-1.54 2.27-2.27 3.41-.32.41-.57.81-.81 1.22l-4.54 2.26zm26.26.98l3.24-6.65 8.75-4.3-3.24 6.49-8.75 4.46zM75.08 68l4.7-9.4 9.89-5.03c.16.65.32 1.3.32 2.03.16 1.87-.57 3.32-1.54 4.7-.57.73-1.21 1.54-1.78 2.27L75.08 68zm-28.53-.32c1.22-3 2.92-5.84 4.7-8.59.08-.16.16-.24.24-.32l6.48-3.24L54 63.96l-7.45 3.72zm15.16-1.14l3.49-6.89 6.65-3.24-3.24 6.65-6.9 3.48zm-28.29 0l2.76-5.84c.89-.24 1.78-.49 2.59-.81 2.27-.81 3.9-1.78 5.93-3.08l-2.36 5.27-8.92 4.46zm31.61 6.16l4.38-8.84 8.75-4.46-4.62 9.32-8.51 3.98zm-13.37-1.05l3.16-6.89 8.75-4.3-3.49 6.89-8.42 4.3zm-13.05-.08l4.54-8.67 4.3-2.11c-1.62 2.68-3.08 5.43-4.13 8.43l-4.71 2.35zm-7.87-3.73c.16-1.86.49-3.65 1.13-5.43 0-.24.08-.41 0-.65.97-.16 1.95-.41 2.92-.65l-3 6.24-1.05.49zm-6.08 3l3.97-8.35c.24-.08.49-.16.73-.16-.65 2.19-.97 4.46-1.05 6.73l-3.65 1.78zm-3.16 1.62c-.4-2.51-.65-5.03-.81-7.62 2.19-.89 4.38-1.54 6.65-2.11l-4.21 8.92-1.63.81zm9.97 2.68c-.32-1.13-.49-2.27-.65-3.41l1.78-3.57 8.92-4.46-4.54 8.67-5.51 2.77zm25.13 1.54l4.3-8.51 6.89-3.49-4.3 8.75-6.89 3.25zm15.08-1.79l2.68-5.35 10.21-4.78c-4.05 3.65-8.35 7.05-12.89 10.13zm-27.32.41c.16-1.13.33-2.35.73-3.57.24-.89.49-1.7.81-2.51l7.38-3.65-3.24 6.89-5.68 2.84zm-30.48.97c.73-3.65 2.27-7.13 4.38-10.21h.16c.08 2.51.41 5.03.81 7.54l-5.35 2.67zm33.4 4.7l3.57-7.7 8.43-4.3-4.3 8.43-7.7 3.57zm-24.24-1.7c-.32-1.05-.57-2.11-.81-3.16l1.7-3.65 4.46-2.19c0 .41 0 .89.08 1.38 0 .65.16 1.3.24 2.03l-1.78 3.65-3.89 1.94zm37.78 2.03l3.49-7.05 8.43-3.97-2.84 5.84c-.32.24-.65.41-.97.65-2.6 1.69-5.36 3.23-8.11 4.53zm-26.92-.65l3.89-7.46 5.11-2.51c-.08.16-.08.24-.16.41-.24.89-.49 1.86-.57 2.92l-1.62 3.32-6.65 3.32zm-.73-.97c-.49-1.14-1.05-2.35-1.38-3.49L36.17 74l-3 5.68zm12.81 1.53c-.89-1.13-1.46-2.59-1.62-4.13v-.49l4.94-2.51-3.32 7.13zm-32.75 2.84c-.08-2.11 0-4.3.32-6.48l5.92-2.92c.16 1.14.4 2.19.73 3.24l-1.7 3.65-5.27 2.51zm39.89-.48l2.68-5.35 6.89-3.24-3.4 6.97c-.97.32-1.95.73-3 .97-1.07.32-2.12.56-3.17.65zm13.86.73l2.59-5.19c.24-.08.4-.24.65-.4.49-.32.97-.65 1.46-.97l5.11-2.43c-1.7 2.11-3.32 4.3-4.86 6.57v-.18l-4.95 2.6zm-41.91.89c-.08-.32-.24-.57-.32-.89l3-6.16 1.86-.89c.57 1.54 1.22 3.08 2.03 4.62l-6.57 3.32zm12.81.24l3.49-7.38.73-.32c.24 1.7.81 3.4 1.87 4.78l-6.09 2.92zm-1.22-.16c-.89-1.13-1.7-2.35-2.43-3.57l5.51-2.84-3.08 6.41zm15.16-1.62c-.32 0-.57 0-.89-.08-1.38-.08-2.76-.57-3.81-1.3l7.13-3.32-2.43 4.7zm-27.64-.73c-.32-.81-.57-1.7-.89-2.59l2.92-1.38-2.03 3.97zm32.5 6.73l2.59-5.19c3-1.05 5.84-2.59 8.51-4.21l-2.43 4.86-8.67 4.54zm-41.02.24l3.65-7.54 1.86-.97c.49 1.54.97 3 1.62 4.46l-.32.65-6.81 3.4zm-1.21.08c-.24-.65-.49-1.38-.73-2.11-.16-.89-.32-1.78-.4-2.59l4.38-2.19-3.25 6.89zm13.13.24c-.73-1.3-1.46-2.68-2.11-4.05l5.92-3-3.57 6.97-.24.08zm14.11.25c-.81-.65-1.46-1.3-2.19-1.95-.57-.65-1.13-1.22-1.7-1.86l6.89-3.24c.08 0 .16.08.16.16l-3.16 6.89zm-12.33-1.14l3.16-5.92c.65 1.22 1.46 2.27 2.35 3.4l-5.51 2.52zm32.35 5.6l4.46-9 4.78-2.43a29.38 29.38 0 0 0-2.84 5.76c-.4.97-.73 1.95-.97 3l-5.43 2.67zm-18.89-4.46l2.92-6.24c1.46 1.05 3.16 1.62 4.94 1.78l-.49.89-7.37 3.57zm4.78 3.89l3.41-6.65 4.3-2.11c.57-.08 1.13-.24 1.62-.41.32-.08.57-.16.89-.24l-2.76 5.51-7.46 3.9zm4.14-8.19l.08-.16h.24l-.32.16zm4.86 11.02c-1.13-.08-2.27-.32-3.32-.57l2.59-5.35 8.67-4.54-4.38 8.92-3.24 1.54h-.32zm-36.4-3.56l3.08-6.4h.08c.65 1.38 1.3 2.68 2.11 3.97l-5.27 2.43zm11.52 1.94c-1.22-1.3-2.35-2.67-3.32-4.21l.16-.41 6.97-3.24-3.81 7.86zm-14.92-.32c-.65-1.22-1.22-2.51-1.78-3.81l6.73-3.4-3.08 6.32-1.87.89zm29.83-1.3c-1.3-.73-2.43-1.54-3.65-2.43l6.4-3-2.75 5.43zm-13.46 1.14l3.16-6.48c.49.49.97 1.05 1.46 1.62.65.57 1.3 1.13 1.95 1.7l-6.57 3.16zm19.05 1.21c-1.21-.32-2.35-.81-3.48-1.3l5.51-2.92-2.03 4.22zm-31.53 4.79c-.89-1.05-1.7-2.27-2.43-3.4l1.22-2.51 6.57-3c.08.16.24.41.41.57l-3.89 7.46-1.88.88zm16.3-1.22c-1.54-.97-3-2.11-4.3-3.32l7.94-3.81-3.32 6.97-.32.16zm1.94-.97l2.59-5.51c1.05.81 2.19 1.62 3.41 2.35l-6 3.16zm21.64-1.71l.4-.73 5.84-2.84c-.24.81-.41 1.62-.57 2.51-.12-.04-.22-.06-.32-.06s-.2.02-.32.06c-1.62.58-3.32.9-5.03 1.06zm-36.39 2.27l2.92-5.67c.81 1.05 1.62 2.03 2.51 3l-5.43 2.67zm-6.57-2.91c-.08-.08-.16-.24-.24-.41l.57-.24-.33.65zm26.51 6.89c-.32-.08-.65-.24-.97-.32l3.32-6.57c1.54.81 3.08 1.46 4.62 1.95l-.97 2.03-6 2.91zm-1.95-.81c-1.38-.57-2.76-1.3-4.05-2.03l.08-.08 6.89-3.65-2.92 5.76zm-17.02 3.4c-.97-.97-1.95-1.95-2.84-3l1.05-2.03 7.05-3.32c.08.08.16.08.24.16l-3.4 7.13-2.1 1.06zm32.26-2.43l1.94-3.97c2.11-.08 4.3-.41 6.32-.97-.08.32-.16.73-.24 1.14l-8.02 3.8zm-28.53.49l2.59-5.43c.97.89 2.03 1.7 3.08 2.51l-5.67 2.92zm23.59 1.86c-1.13-.24-2.27-.57-3.41-.89l1.86-3.73 4.05-1.95c.49.08.89.16 1.38.16.65.08 1.22.08 1.78.08l-2.35 4.7-3.31 1.63zm10.7 1.38c-2.43-.16-4.86-.32-7.3-.73l.73-1.46 8.51-3.97c-.48 2.02-1.13 4.13-1.94 6.16zm-32.75 2.75c-1.14-.73-2.19-1.54-3.32-2.35l.97-2.03 7.54-3.89c.16.16.4.24.57.41l-3.08 6.57-2.68 1.29zm-8.92-7.94c0-.08-.08-.08-.08-.16l.32-.16-.24.32zm26.51 2.68c-.08-.08-.24-.08-.32-.08-.73-.24-1.46-.49-2.19-.73l3.81-1.86-1.3 2.67zm-13.38 3.24l2.51-5.35c1.3.81 2.59 1.46 3.97 2.03l-.08.24-6.4 3.08zm3.73 4.54l3.49-6.81.73-.41c1.46.57 2.92 1.13 4.38 1.54l-.97 2.11-7.63 3.57zm-1.54.65c-1.3-.49-2.59-.97-3.81-1.7l.89-1.95 6.32-3.08-3.4 6.73zm-10.54-6.25l-.24-.24.41-.16-.17.4zm19.1 7.81c-.37 0-.73-.01-1.1-.02l2.51-4.94 3.89-1.86c.97.24 2.03.49 3 .65l-2.84 5.67c-1.75.33-3.62.5-5.46.5zm6.84-.83l2.6-5.19c2.35.41 4.78.73 7.21.81-3 2.1-6.32 3.56-9.81 4.38zm-20.18-2.92c-.16-.08-.32-.16-.49-.24l.81-.41-.32.65zm11.11 3.64c-.97-.08-2.03-.24-3-.49-.65-.08-1.22-.24-1.78-.41l6.81-3.24-2.03 4.14z" fill="#eee" opacity=".2"/></g></svg>