<svg viewBox="0 0 128 128" width="128" height="128" xmlns="http://www.w3.org/2000/svg"><path d="M73.51 103.02c-.93-1.87-5.43-10.94-6.96-14.69-1.42-3.49-.27-6.96 2.88-8.63l19.8-10.75L93.51 79l-18.25 8.06c-.23.1-.35.36-.28.6l4.24 14.27-5.71 1.09z" fill="#99674F"/><path d="M88.98 69.65l3.88 9.09-17.79 7.86c-.46.2-.7.72-.55 1.2l4.08 13.74-4.81.92c-1.21-2.43-5.33-10.77-6.77-14.31-1.32-3.24-.26-6.45 2.66-8.01l19.3-10.49m.49-1.4L69.19 79.26c-3.12 1.67-4.71 5.33-3.1 9.26 1.73 4.23 7.14 15.06 7.14 15.06l6.64-1.26-4.4-14.8 18.7-8.26-4.7-11.01z" fill="#875740"/><path d="M47.04 101.77l-3.16-16c-.18-.93-.82-1.7-1.7-2.05-3.7-1.48-13.54-4.86-15.71-5.6l2.45-10.37c2.89 1.18 16.38 6.69 18.42 7.71 2.71 1.35 5.37 3.19 5.36 9.54 0 4.38-.23 14.45-.29 16.78l-5.37-.01z" fill="#99674F"/><path d="M29.27 68.43C33 69.95 45.2 74.95 47.12 75.9c2.68 1.33 5.09 3.03 5.09 9.1 0 4.12-.2 13.27-.27 16.28l-4.48-.01-3.08-15.6c-.22-1.1-.97-2-2.01-2.42-3.55-1.42-12.48-4.5-15.31-5.47l2.21-9.35m-.71-1.37l-2.69 11.38s11.93 4.07 16.12 5.74c.72.29 1.25.92 1.4 1.68l3.24 16.41 6.28.01s.3-12.28.3-17.28c0-6.5-2.69-8.53-5.64-9.99-2.33-1.16-19.01-7.95-19.01-7.95z" fill="#875740"/><path d="M24.6 79.66c-3.57-1.31-5.4-5.28-4.09-8.85.99-2.7 3.59-4.52 6.47-4.52.81 0 1.61.14 2.38.43l8.75 3.22-4.76 12.94-8.75-3.22z" fill="#E65100"/><path d="M26.98 66.8c.75 0 1.49.13 2.21.4l8.28 3.05-4.42 12-8.28-3.05c-1.6-.59-2.88-1.77-3.6-3.32s-.79-3.29-.2-4.89a6.431 6.431 0 0 1 6.01-4.19m0-1c-3.01 0-5.84 1.85-6.94 4.84a7.388 7.388 0 0 0 4.39 9.49l9.22 3.39 5.11-13.88-9.22-3.39c-.85-.31-1.71-.45-2.56-.45z" fill="#D44700"/><path fill="#E0E0E0" d="M46.82 103.32l-1.13-5.99 7.5-.71-.34 6.7z"/><path d="M52.66 97.17l-.29 5.65h-5.14l-.95-5.04 6.38-.61m1.06-1.1l-8.62.82 1.31 6.93h6.92l.39-7.75z" fill="#BFBFBF"/><path d="M45.36 109.92c-.18 0-.34-.07-.47-.2s-.19-.29-.19-.47l.01-2.84c0-1.31 1.12-2.93 1.7-3.63l6.78.01 6.3 2.09c1.34.53 2.22 1.82 2.23 3.29v1.28a.514.514 0 0 1-.51.52l-15.85-.05z" fill="#FB8C00"/><path d="M46.64 103.27l6.46.01 6.2 2.06c1.16.47 1.91 1.57 1.91 2.82l-.01 1.3-15.83-.05c-.06 0-.09-.03-.12-.05a.168.168 0 0 1-.05-.12l.01-2.85c-.01-1.05.87-2.4 1.43-3.12m-.47-1s-1.96 2.2-1.97 4.13l-.01 2.85c0 .64.52 1.17 1.16 1.17l15.83.05c.56 0 1.02-.46 1.02-1.02v-1.29a4.074 4.074 0 0 0-2.57-3.76l-6.38-2.12-7.08-.01z" fill="#E37200"/><path d="M68.15 52.26l6.89-1.58c.95-.33 1.09-.86 1.09-.86-.05-.39-.58-.53-1.1-.65l-2.99-.18s-5.84.71-5.15 2.31c.14.65.7 1.08 1.26.96zM55.05 52.94l-7.04.64c-1-.02-1.3-.48-1.3-.48-.08-.38.38-.69.84-.95l2.79-1.11s5.77-1.15 5.61.59c.07.66-.33 1.24-.9 1.31z" fill="#99674F" stroke="#875740" stroke-linecap="round" stroke-linejoin="round" stroke-miterlimit="10"/><linearGradient id="a" x1="32.165" x2="68.225" y1="54.072" y2="54.072" gradientUnits="userSpaceOnUse"><stop stop-color="#A47B62" offset="0"/><stop stop-color="#BA8D68" offset="1"/></linearGradient><path d="M46.52 59.15a.59.59 0 0 0-.14-.02c-.19 0-.29 0-.4-.02-.1-.01-.19-.04-.28-.07 0 0-.09-.03-.1-.03-.04-.01-.09-.01-.13-.01h-.03l-13.28-2.66 2.38-7.38 12.07 4.29c.05.02.11.03.17.03h.07c3.01-.41 12.95-1.78 14.58-2.14.8-.17 2.33-.35 3.67-.35 2.4 0 2.94.51 3.05.67.06.08.11.21.01.48-.74 2.01-16.04 7.14-21.55 7.23-.01.01-.09-.02-.09-.02z" fill="url(#a)"/><path d="M34.86 49.61l11.59 4.12c.1.04.21.06.31.06h.02c.05 0 .09 0 .14-.01 3.01-.41 12.95-1.78 14.62-2.14.63-.14 2.1-.34 3.57-.34 1.89 0 2.48.33 2.61.43 0 .01-.01.02-.01.04-.28.55-2.95 2.16-8.9 4.13-4.89 1.62-9.76 2.73-12.15 2.78v-.01a.863.863 0 0 0-.28-.04H46.23c-.06 0-.12 0-.18-.01-.08-.01-.15-.04-.23-.06l-.09-.03c-.08-.02-.16-.03-.24-.04L32.8 55.95l2.06-6.34m-.64-1.29l-2.71 8.4 13.94 2.79v-.01c.15.04.29.09.44.11.16.02.31.02.47.02.07.02.15.05.23.05h.01c5.36-.08 21.13-5.12 22.03-7.56.52-1.43-1.44-1.83-3.54-1.83-1.47 0-3.01.2-3.78.36-1.68.37-12.4 1.84-14.54 2.13l-12.55-4.46z" fill="#91674D"/><linearGradient id="b" x1="49.73" x2="86.427" y1="52.348" y2="52.348" gradientUnits="userSpaceOnUse"><stop stop-color="#A47B62" offset="0"/><stop stop-color="#BA8D68" offset="1"/></linearGradient><path d="M85.26 48.19a4.378 4.378 0 0 0-4.43-1.23v-.01l-.1.03c-.07.02-.14.05-.22.08L68.29 51.4c-1.5-.25-7.4-1.18-10.36-1.08-1.08.04-4.35.42-4.35.42l-3.41 3.15c-.42.34-.59.89-.3 1.29.37.51 3.8-1.16 5.51-2.04.61-.31 1.32-.31 1.93-.02l8.13 3.97c1.54.75 3.28.99 4.97.68l11.91-2.19c.39-.03.78-.1 1.15-.23l.06-.01v-.01c.98-.36 1.86-1.05 2.4-2.09.86-1.64.59-3.71-.67-5.05z" fill="url(#b)"/><path d="M68.96 58.41c-1.28 0-2.55-.29-3.73-.87l-8.13-3.97c-.47-.23-1.02-.23-1.48.01-5.47 2.81-5.86 2.27-6.14 1.89-.43-.59-.27-1.44.39-1.98l3.38-3.13c.08-.07.18-.12.28-.13.13-.02 3.3-.38 4.39-.42 2.91-.09 8.48.77 10.33 1.07l12.1-4.3c.12-.04.18-.07.24-.08l.07-.03c.05-.02.1-.03.15-.03 1.75-.44 3.58.09 4.81 1.41 1.4 1.49 1.71 3.8.75 5.62a4.847 4.847 0 0 1-2.58 2.3.51.51 0 0 1-.17.07c-.38.13-.81.22-1.26.25l-11.85 2.19c-.52.09-1.04.13-1.55.13zm-12.6-6c.4 0 .8.09 1.17.27l8.13 3.97c1.46.71 3.07.93 4.66.64l11.91-2.2c.42-.03.76-.1 1.07-.21.02-.01.03-.02.05-.02.94-.34 1.67-.98 2.13-1.86.76-1.45.51-3.29-.6-4.48-1.02-1.09-2.48-1.5-3.93-1.1-.02.01-.05.01-.07.01l-.13.05-12.3 4.38a.43.43 0 0 1-.25.02c-1.2-.2-7.3-1.18-10.26-1.08-.91.03-3.48.32-4.15.4l-3.29 3.04c-.18.15-.31.35-.28.52.44-.04 1.85-.5 4.92-2.08.39-.18.81-.27 1.22-.27z" fill="#91674D"/><path d="M69.04 52.65l1.74-.05 1.92.46c.96.08 1.77-.27 1.88-.75s-.62-.77-1.13-.96l-3.51-1c-.51-.19-2.2-.13-2.88-.13-1.59 0-5.14.33-5.14.33s6.3 1.86 7.12 2.1z" fill="#99674F" stroke="#875740" stroke-linecap="round" stroke-linejoin="round" stroke-miterlimit="10"/><linearGradient id="c" x1="23.315" x2="23.315" y1="99.008" y2="71.898" gradientUnits="userSpaceOnUse"><stop stop-color="#A47B62" offset="0"/><stop stop-color="#BA8D68" offset="1"/></linearGradient><path d="M11.07 93.55l12.56-6.63c.5-.27.84-.72.99-1.26s.07-1.1-.22-1.58l-3.96-8.2 9.92-3.98 4.73 11.59c.66 1.62.64 3.39-.04 4.99s-1.95 2.84-3.57 3.49l-17.72 7.04-2.69-5.46z" fill="url(#c)"/><path d="M30.08 72.55l4.54 11.13c.61 1.49.59 3.13-.04 4.61s-1.8 2.62-3.3 3.22l-17.29 6.87-2.25-4.61 12.15-6.41c.61-.34 1.04-.89 1.22-1.56.18-.65.09-1.33-.25-1.92l-3.73-7.73 8.95-3.6m.55-1.3l-10.87 4.37 4.22 8.73c.45.75.19 1.71-.57 2.13l-12.99 6.85 3.09 6.31 18.15-7.21a6.979 6.979 0 0 0 3.89-9.13l-4.92-12.05z" fill="#91674D"/><path fill="#E0E0E0" d="M9.7 93.43l6.76-3.68 3.11 7.73-7.62 3.01z"/><path d="M16.21 90.46l2.71 6.74-6.65 2.62-1.96-6.15 5.9-3.21m.51-1.42L9.1 93.19l2.54 7.96 8.58-3.39-3.5-8.72z" fill="#BFBFBF"/><path d="M9.76 109.97c-.23 0-.42-.15-.49-.36L4.53 94.5c-.05-.17-.04-.35.05-.51s.22-.27.39-.33l2.72-.85c.95-.3 2.06-.36 2.83-.36.36 0 .66.01.87.03l2.3 7.32-.09 6.64a3.552 3.552 0 0 1-2.46 3.12l-1.22.39c-.06.01-.11.02-.16.02z" fill="#FB8C00"/><path d="M10.52 92.95c.18 0 .35 0 .5.01l2.18 6.91-.09 6.53c-.1 1.24-.92 2.29-2.11 2.68l-1.25.38-4.74-15.11c-.02-.05 0-.1.01-.13s.04-.06.1-.08l2.72-.85c.88-.28 1.94-.34 2.68-.34m0-1c-.85 0-2 .07-2.98.38l-2.72.85c-.61.19-.96.85-.76 1.46l4.73 15.11c.14.43.54.71.97.71.1 0 .21-.02.31-.05l1.22-.39a4.076 4.076 0 0 0 2.81-3.59l.1-6.72L11.76 92s-.51-.05-1.24-.05z" fill="#E37200"/><circle cx="25.43" cy="72.42" r="6.84" fill="#FBC11B"/><linearGradient id="d" x1="139.54" x2="154.91" y1="-202.51" y2="-171.44" gradientTransform="scale(-1 1) rotate(-22.649 608.753 381.716)" gradientUnits="userSpaceOnUse"><stop stop-color="#BA8D68" offset=".55"/><stop stop-color="#A47B62" offset=".83"/><stop stop-color="#99674F" offset="1"/></linearGradient><path d="M29.64 21.83c3.4-3.36 9.67-5.09 14.06-3.23 4.92 2.08 6.79 6.45 6.39 11.3-.15 1.76-.61 3.44-1.18 4.57-.07.14-.6 1.11-.7 1.44-.5 1.22 1.64 3.06 1.59 4.52-.04 1.1-2.39 1.24-2.61 1.39-1.09.73-.81 5.54-6.92 4.54-2.35-.39-2.55-.51-3.29-.62-1.47-.21-2.69 1.99-2.69 1.99s-2.83 5.2-6.5 3.01c-4.19-2.5-1.63-4.29-1.63-4.29s2.67-5.53 1.5-10.04c-1.11-4.27-.2-12.42 1.98-14.58z" fill="url(#d)"/><linearGradient id="e" x1="25.387" x2="50.146" y1="34.565" y2="34.565" gradientUnits="userSpaceOnUse"><stop stop-color="#91674D" offset="0"/><stop stop-color="#875740" offset="1"/></linearGradient><path d="M39.67 18.84c1.35 0 2.58.23 3.65.68 5.58 2.36 6.01 7.47 5.78 10.3-.13 1.56-.53 3.13-1.08 4.2l-.06.12c-.34.64-.59 1.13-.69 1.43-.42 1.1.23 2.21.81 3.19.3.52.68 1.15.72 1.55-.18.13-.63.27-1.35.42-.37.07-.59.12-.81.27-.53.36-.78.96-1.06 1.65-.58 1.4-1.18 2.85-3.74 2.85-.43 0-.89-.04-1.4-.12-1.38-.23-1.99-.36-2.44-.46-.32-.07-.55-.12-.87-.16-.11-.02-.23-.02-.34-.02-1.92 0-3.23 2.26-3.37 2.53-.02.03-1.7 3.03-3.79 3.03-.44 0-.87-.13-1.32-.4-1.74-1.03-1.91-1.76-1.92-1.95-.02-.37.35-.66.35-.66.14-.1.25-.23.33-.38.12-.24 2.82-5.91 1.57-10.72-1.06-4.08-.08-11.85 1.72-13.63 2.26-2.27 5.92-3.72 9.31-3.72m0-1c-3.65 0-7.58 1.57-10.02 3.99-2.18 2.16-3.1 10.31-1.98 14.6 1.17 4.51-1.5 10.04-1.5 10.04s-2.56 1.79 1.63 4.29c.64.38 1.25.54 1.83.54 2.74 0 4.67-3.55 4.67-3.55s1.11-2.01 2.49-2.01c.07 0 .13 0 .2.01.74.1.94.23 3.29.62.57.09 1.09.14 1.56.14 4.51 0 4.38-4.01 5.37-4.68.22-.15 2.57-.29 2.61-1.39.05-1.46-2.09-3.31-1.59-4.52.1-.33.64-1.3.7-1.44.58-1.13 1.04-2.81 1.18-4.57.4-4.86-1.46-9.22-6.39-11.3-1.25-.53-2.63-.77-4.05-.77z" fill="url(#e)"/><path d="M45.97 44.18c-.84-.15-1.62-.55-2.2-1.24-.63-.76.05-1.27.84-.68.48.36 1.2.65 1.92.69l-.56 1.23z" fill="#795548"/><ellipse transform="rotate(-74.603 44.314 35.716)" cx="44.31" cy="35.72" rx="1.74" ry="1.13" fill="#404040"/><path d="M75.64 74.92l8.8-4.56c.91-.47 1.88-.71 2.9-.71 2.37 0 4.51 1.3 5.6 3.4 1.6 3.08.39 6.9-2.69 8.49l-8.8 4.56-5.81-11.18z" fill="#04846C"/><path d="M87.34 70.15c2.18 0 4.15 1.2 5.16 3.13 1.47 2.84.36 6.35-2.48 7.82l-8.36 4.33-5.34-10.3 8.36-4.33c.83-.43 1.72-.65 2.66-.65m0-1c-1.05 0-2.12.25-3.13.77l-9.24 4.79 6.26 12.07 9.24-4.79a6.8 6.8 0 1 0-3.13-12.84z" fill="#007861"/><path d="M45.59 33.65c.9.72 1.41.14 1.3-.54-.09-.5-.57-1.09-1.86-1.34-1.21-.24-1.94.22-2.41.49-.46.27-.59.68-.34.82.34.18 2.2-.32 3.31.57z" fill="#6D4C41"/><radialGradient id="f" cx="115.42" cy="-128.3" r="11.694" gradientTransform="matrix(-.999 -.2841 -.2793 .9604 122.33 179.47)" gradientUnits="userSpaceOnUse"><stop stop-color="#6D4C41" offset="0"/><stop stop-color="#543930" offset="1"/></radialGradient><path d="M36.58 33.52l-.55-1.64c-.37-.95-.72-1.78-1.5-1.83-2.31-.14-3.01 3.86-.67 5.44 0 0-1.24 2.8-4.19 2.77-.31 0-.58-.03-.82-.07-.76-.12-1.2-.86-1.19-1.63.04-4.82-1.72-4.34-1.3-9.85.58-7.57 8.25-10.56 14.5-9.33 2.43.48 4.81 1.5 6.73 3.09.82.66 3.6 3.23 3.89 4.96.37 2.21-1.25 3.58-1.25 3.58s-6.27-2.18-9.37-2.33c-.41-.02-.88-.01-1.15.3-.12.13-.43 1.11-.49 1.28-.73 2.19-.91 3.65-1.95 4.88-.16.2-.69.38-.69.38z" fill="url(#f)"/><path d="M29.6 19.14c2.9-2.2 7.41-3 11.35-2.23 2.65.52 5.04 1.62 6.94 3.18.04.03 3.64 3.05 4.06 5.25.46 2.36-.75 3.37-1.02 3.54-.49.3-1.18-.04-1.18-.04.7-.43 1.48-1.95 1.25-3.34-.25-1.49-2.81-3.94-3.72-4.67-1.78-1.46-4.03-2.5-6.52-2.99-3.67-.72-7.9.01-10.58 2.05-2.16 1.64-3.41 3.98-3.62 6.76-.22 2.88.17 4.04.57 5.28.37 1.1.74 2.24.73 4.54 0 .49.79 1.64.71 1.63-1.01-.22-1.68-.64-1.67-1.63.02-2.14-.32-3.16-.68-4.23-.42-1.27-.85-2.58-.62-5.65.24-3.06 1.62-5.64 4-7.45z" fill="#402821"/><linearGradient id="g" x1="147.04" x2="162.4" y1="-200.01" y2="-168.98" gradientTransform="rotate(-20.166 732.234 137.45)" gradientUnits="userSpaceOnUse"><stop stop-color="#BA8D68" offset=".55"/><stop stop-color="#A47B62" offset=".83"/><stop stop-color="#99674F" offset="1"/></linearGradient><path d="M86.22 21.89c-3.25-3.5-9.44-5.5-13.91-3.83-5.01 1.87-7.06 6.15-6.87 11.02.07 1.76.46 3.46.98 4.62.06.14.56 1.14.64 1.47.44 1.24-1.77 2.99-1.79 4.45-.01 1.1 2.33 1.34 2.54 1.5 1.05.78.57 5.57 6.72 4.83 2.36-.28 2.57-.4 3.31-.47 1.48-.15 2.6 2.11 2.6 2.11s2.6 5.32 6.36 3.29c4.3-2.31 2.41-5.64 2.41-5.64s-2.66-3.79-1.29-8.24c1.31-4.25.38-12.86-1.7-15.11z" fill="url(#g)"/><linearGradient id="h" x1="65.273" x2="89.634" y1="34.397" y2="34.397" gradientUnits="userSpaceOnUse"><stop stop-color="#91674D" offset="0"/><stop stop-color="#875740" offset="1"/></linearGradient><path d="M75.84 18.46c3.49 0 7.36 1.65 9.65 4.11 1.66 1.79 2.76 9.97 1.49 14.12-1.41 4.61 1.03 8.51 1.39 9.05.07.15.45.99.17 1.94-.25.88-.99 1.66-2.19 2.3-.43.23-.83.34-1.24.34-1.79 0-3.31-2.3-3.76-3.2-.14-.27-1.39-2.67-3.36-2.67-.08 0-.16 0-.24.01-.32.03-.55.07-.88.13-.45.08-1.06.18-2.46.35-.39.05-.75.07-1.09.07-2.82 0-3.38-1.53-3.92-3.02-.26-.71-.48-1.32-.99-1.7-.21-.16-.43-.21-.8-.3-.71-.18-1.16-.34-1.33-.48.06-.4.46-1.01.79-1.51.62-.96 1.32-2.04.95-3.15-.09-.31-.32-.81-.63-1.46l-.06-.12c-.5-1.09-.83-2.68-.89-4.24-.11-2.84.55-7.92 6.22-10.04.94-.35 2.02-.53 3.18-.53m0-1c-1.23 0-2.44.19-3.53.6-5.01 1.87-7.06 6.15-6.87 11.02.07 1.76.46 3.46.98 4.62.06.14.56 1.14.64 1.47.44 1.24-1.77 2.99-1.79 4.45-.01 1.1 2.33 1.34 2.54 1.5.98.72.63 4.91 5.51 4.91.37 0 .78-.02 1.21-.08 2.36-.28 2.57-.4 3.31-.47.05 0 .09-.01.14-.01 1.41 0 2.47 2.11 2.47 2.11s1.83 3.75 4.65 3.75c.54 0 1.11-.14 1.71-.46 4.3-2.31 2.41-5.64 2.41-5.64s-2.66-3.79-1.29-8.24c1.3-4.23.38-12.84-1.71-15.09-2.46-2.65-6.58-4.44-10.38-4.44z" fill="url(#h)"/><path d="M68.94 43.52c.85-.12 1.64-.48 2.25-1.14.66-.73 0-1.27-.81-.71-.49.33-1.23.6-1.94.6l.5 1.25z" fill="#795548"/><ellipse transform="rotate(-12.916 70.962 35.135)" cx="70.96" cy="35.13" rx="1.13" ry="1.74" fill="#404040"/><path d="M69.77 33.01c-.93.67-1.42.08-1.27-.6.11-.5.62-1.06 1.92-1.26 1.22-.18 1.93.31 2.38.6s.56.7.31.83c-.35.18-2.19-.41-3.34.43z" fill="#6D4C41"/><radialGradient id="i" cx="122.61" cy="-126.97" r="11.694" gradientTransform="matrix(1.0107 -.239 .236 .972 -20.991 175.53)" gradientUnits="userSpaceOnUse"><stop stop-color="#6D4C41" offset="0"/><stop stop-color="#543930" offset="1"/></radialGradient><path d="M78.8 33.15l.62-1.62c.41-.93.79-1.75 1.58-1.76 2.31-.03 2.83 3.99.43 5.46 0 0 1.11 2.85 4.07 2.95.31.01.58 0 .82-.03.77-.09 1.23-.8 1.26-1.57.18-4.82 1.91-4.26 1.74-9.78-.24-7.59-7.77-10.92-14.07-9.97-2.45.37-4.87 1.29-6.86 2.78-.85.62-3.74 3.07-4.11 4.78-.47 2.19 1.09 3.63 1.09 3.63s6.36-1.9 9.46-1.91c.41 0 .88.03 1.13.35.11.14.38 1.13.43 1.3.63 2.22.75 3.69 1.73 4.97.16.21.68.42.68.42z" fill="url(#i)"/><path d="M86.42 19.09c-2.79-2.33-7.27-3.33-11.24-2.74-2.67.4-5.11 1.39-7.07 2.87-.04.03-3.77 2.88-4.29 5.07-.56 2.34.59 3.4.86 3.58.47.33 1.18.01 1.18.01-.68-.47-1.4-2.02-1.1-3.39.32-1.48 2.98-3.81 3.93-4.49 1.84-1.38 4.14-2.31 6.64-2.69 3.7-.56 7.89.37 10.48 2.52 2.08 1.73 3.23 4.13 3.31 6.92.09 2.89-.35 4.03-.81 5.25-.42 1.09-.84 2.21-.93 4.51-.02.49-.86 1.6-.78 1.59 1.02-.17 1.71-.56 1.74-1.56.08-2.14.46-3.14.87-4.2.48-1.25.97-2.54.87-5.62-.1-3.07-1.36-5.71-3.66-7.63z" fill="#402821"/><linearGradient id="j" x1="100.06" x2="100.06" y1="96.167" y2="65.293" gradientUnits="userSpaceOnUse"><stop stop-color="#A47B62" offset="0"/><stop stop-color="#BA8D68" offset="1"/></linearGradient><path d="M95.41 93.41c-.25-.03-.5-.07-.73-.14l-.09-.02c-.03-.02-.06-.03-.09-.04-.84-.26-1.56-.69-2.13-1.29-.45-.46-.8-1-1.04-1.62l-.05-.1-8.34-20.88 11.18-4.03 5.45 20.16c.04.16.16.29.32.34l17.28 6.03-1.8 4.34-19.96-2.75z" fill="url(#j)"/><path d="M93.78 65.95l5.31 19.64c.09.32.32.57.64.68l16.78 5.85-1.45 3.5-19.6-2.71c-.24-.03-.45-.07-.65-.12-.02-.01-.04-.01-.06-.01-.03-.01-.07-.03-.1-.04-.76-.24-1.41-.63-1.92-1.15-.4-.41-.72-.9-.94-1.46-.01-.03-.02-.05-.03-.08-.01-.01-.01-.02-.01-.02l-8.15-20.4 10.18-3.68m.69-1.31l-12.18 4.39 8.53 21.36.05.1a5.6 5.6 0 0 0 1.15 1.78c.67.69 1.48 1.15 2.34 1.42l-.01.02.21.04c.26.07.53.12.8.15l20.35 2.81 2.15-5.19-17.78-6.2-5.61-20.68z" fill="#91674D"/><radialGradient id="k" cx="88.757" cy="52.741" r="16.087" gradientUnits="userSpaceOnUse"><stop stop-color="#00BFA5" offset="0"/><stop stop-color="#00B29A" offset=".705"/><stop stop-color="#00AB94" offset="1"/></radialGradient><path d="M88.02 85.28c-1.44-2.17-2.93-5.41-3.61-7.88a.483.483 0 0 0-.24-.3c-1.49-.85-2.13-3.13-2.23-4.97-.29-5.37-1.02-8.72-2.13-13.8-.2-.9-.4-1.86-.62-2.88-.69-3.24-.29-6.17 1.08-8.04 1.08-1.46 2.75-2.3 4.97-2.5.25-.02.49-.03.72-.03 4.95 0 7.06 4.87 7.76 6.48 2.62 5.65 3.9 11.72 3.68 17.58-.05 1.15-.17 1.98-.41 2.68-.03.09-.04.19-.01.28.02.06 1.46 5.82 2.3 8.85a191.67 191.67 0 0 1-11.26 4.53z" fill="url(#k)"/><path d="M85.97 45.38c4.14 0 6.15 3.52 7.31 6.2 2.59 5.57 3.84 11.56 3.63 17.33-.04 1.1-.16 1.88-.39 2.55-.06.18-.07.38-.02.56.01.06 1.34 5.33 2.18 8.44-3.43 1.51-6.94 2.92-10.46 4.21-1.34-2.12-2.7-5.11-3.33-7.41a.978.978 0 0 0-.47-.6c-1.09-.62-1.86-2.41-1.98-4.56-.29-5.41-1.03-8.78-2.14-13.88-.2-.9-.4-1.85-.62-2.88-.66-3.1-.3-5.88 1-7.64.99-1.34 2.54-2.11 4.62-2.3.22-.01.45-.02.67-.02m0-1c-.25 0-.51.01-.77.03-6.58.59-7.5 6.44-6.5 11.14 1.43 6.7 2.4 10.31 2.74 16.6.12 2.13.88 4.46 2.49 5.38.69 2.49 2.26 6 3.9 8.35 4.07-1.48 8.1-3.1 12.05-4.86-.82-2.9-2.41-9.25-2.41-9.25.28-.83.4-1.76.44-2.83.21-5.88-1.03-11.99-3.72-17.79-.89-2.03-3.12-6.77-8.22-6.77z" fill="#009984"/><radialGradient id="l" cx="27.273" cy="52.428" r="15.874" gradientUnits="userSpaceOnUse"><stop stop-color="#FB8C00" offset=".171"/><stop stop-color="#F67F00" offset=".563"/><stop stop-color="#EF6C00" offset=".983"/></radialGradient><path d="M23.5 84.69c-.26-.48-.6-1.06-.99-1.71-1.96-3.35-5.25-8.95-5.25-13.15 0-5.92 1.61-12.82 4.3-18.46 2.19-4.58 4.95-6.89 8.22-6.89.35 0 .71.03 1.08.08.11.04.31.08.54.14 1.02.24 2.57.59 4.15 2.09 1.01.96 1.86 3.92.03 8.16-1.7 4.55-1.88 9.22-2.06 13.74-.06 1.48-.11 2.88-.22 4.24-.07.93-.25 1.75-.52 2.43a.48.48 0 0 0 .01.39c.7 1.53 1.3 2.98 1.68 3.96-3.59 1.76-7.27 3.44-10.97 4.98z" fill="url(#l)"/><path d="M29.79 44.98c.31 0 .62.02.94.07.17.05.36.09.56.14 1.03.24 2.44.56 3.92 1.96.91.86 1.64 3.59-.09 7.6-.01.02-.01.03-.02.05-1.72 4.6-1.91 9.52-2.09 13.87-.06 1.48-.11 2.87-.22 4.22-.07.88-.23 1.65-.48 2.29-.1.25-.09.54.02.78.6 1.31 1.13 2.56 1.5 3.51-3.31 1.63-6.71 3.18-10.12 4.61-.23-.4-.49-.85-.77-1.33-1.94-3.3-5.18-8.83-5.18-12.89 0-5.85 1.59-12.67 4.25-18.24 2.1-4.42 4.71-6.64 7.78-6.64m0-1c-3.74 0-6.6 2.83-8.67 7.18-2.76 5.77-4.35 12.79-4.35 18.67 0 5.42 5.19 12.9 6.51 15.49 4-1.65 7.95-3.45 11.83-5.39a73.72 73.72 0 0 0-1.86-4.41c.3-.76.48-1.65.55-2.57.44-5.48.03-11.88 2.25-17.81 1.91-4.41 1.07-7.58-.14-8.72-2.02-1.91-3.98-2.07-4.96-2.35-.41-.07-.79-.09-1.16-.09z" fill="#DB6300"/><path fill="#E0E0E0" d="M70.75 98.93l7.58-1.64 1.69 6.06-6.46.59z"/><path d="M77.97 97.87l1.41 5.04-5.55.5-2.32-4.13 6.46-1.41m.71-1.17l-8.7 1.89 3.3 5.88 7.39-.67-1.99-7.1z" fill="#BFBFBF"/><radialGradient id="m" cx="73.252" cy="106.41" r="6.532" gradientUnits="userSpaceOnUse"><stop stop-color="#00AB94" offset="0"/><stop stop-color="#00AB94" offset="1"/></radialGradient><path d="M65.26 110.01a.514.514 0 0 1-.52-.52v-1.29c.01-1.46.89-2.76 2.25-3.29l6.27-2.08 6.78-.01c.43.53 1.7 2.2 1.7 3.63l.01 2.85c0 .18-.07.34-.19.47s-.29.2-.47.2l-15.83.04z" fill="url(#m)"/><path d="M79.81 103.32c.56.72 1.43 2.07 1.44 3.14l.01 2.85c0 .06-.03.09-.05.12-.02.02-.06.05-.12.05l-15.85.03v-1.28c.01-1.25.76-2.36 1.91-2.82l6.2-2.06 6.46-.03m.47-1l-7.09.01-6.38 2.12c-1.54.61-2.56 2.1-2.57 3.76v1.29c0 .56.45 1.02 1.02 1.02l15.83-.05c.64 0 1.16-.53 1.16-1.17l-.01-2.85c.01-1.93-1.96-4.13-1.96-4.13z" fill="#009984"/><path fill="#E0E0E0" d="M108.18 95.96l2.9-7.2 7.21 2.9-1.9 6.03z"/><path d="M111.36 89.41l6.32 2.54-1.62 5.16-7.18-1.52 2.48-6.18m-.56-1.3l-3.3 8.22 9.24 1.95 2.17-6.91-8.11-3.26z" fill="#BFBFBF"/><radialGradient id="n" cx="119.53" cy="98.749" r="6.994" gradientUnits="userSpaceOnUse"><stop stop-color="#00AB94" offset="0"/><stop stop-color="#00AB94" offset="1"/></radialGradient><path d="M118.86 107.51c-.05 0-.11-.01-.16-.02l-1.23-.39a3.544 3.544 0 0 1-2.46-3.14l-.09-6.61 2.3-7.32c.21-.01.52-.03.87-.03.77 0 1.89.06 2.83.36l2.72.85c.17.05.31.17.39.33s.1.34.04.51l-4.73 15.11a.49.49 0 0 1-.48.35z" fill="url(#n)"/><path d="M118.1 90.49c.74 0 1.8.06 2.69.34l2.72.85c.05.02.08.05.1.08.01.03.03.07.01.13l-4.75 15.12-1.22-.39a3.028 3.028 0 0 1-2.11-2.68l-.09-6.53 2.18-6.91c.12-.01.29-.01.47-.01m0-1c-.73 0-1.25.05-1.25.05l-2.43 7.72.1 6.72a4.076 4.076 0 0 0 2.81 3.59l1.22.39c.1.03.21.05.31.05.43 0 .83-.28.97-.71l4.73-15.11c.19-.61-.15-1.27-.76-1.46l-2.72-.85c-.98-.32-2.13-.39-2.98-.39z" fill="#009984"/><linearGradient id="o" x1="27.502" x2="66.816" y1="59.923" y2="59.923" gradientUnits="userSpaceOnUse"><stop stop-color="#A47B62" offset="0"/><stop stop-color="#BA8D68" offset="1"/></linearGradient><path d="M66.81 67.93c.12-.71-4.3.18-4.32-.16-.03-.35 3.88-.47 3.49-1.68-.24-.73-3.86.18-4.91.06 0 0-1.76.1-2.78-.4-.71-.35 2.07-.93 2.67-1.84.67-1-1.59-.84-3.43 0-.82.37-2.88.63-3.68.58-.1-.01-.2.01-.3.01l-9.95-3.37a5.21 5.21 0 0 1-2.96-2.53l-4.82-9.19c-.04-.07-.07-.14-.11-.2l-.05-.09-.01.01a4.418 4.418 0 0 0-4.09-2.1c-1.84.13-3.44 1.47-3.93 3.25-.31 1.14-.13 2.24.34 3.17l-.01.01.03.05c.18.35.42.66.69.95l5.93 9.24a7.997 7.997 0 0 0 4.56 3.38l14.58 4.09.02-.08c.79.39 1.92.65 3.16.98 3.66.99 7.73 1.01 8.02.04.16-.51-4.08-.62-4.07-1.15.01-.33 4.82.32 4.99-1.02.09-.71-4.32-.31-4.25-.68.1-.38 4.94.09 5.19-1.33z" fill="url(#o)" stroke="#91674D" stroke-linecap="round" stroke-linejoin="round" stroke-miterlimit="10"/><linearGradient id="p" x1="70.806" x2="75.674" y1="67.904" y2="93.089" gradientUnits="userSpaceOnUse"><stop stop-color="#A47B62" offset="0"/><stop stop-color="#BA8D68" offset="1"/></linearGradient><path d="M49.54 68.01c-.12-.71 4.3.18 4.32-.16.03-.35-3.88-.47-3.49-1.68.24-.73 3.86.18 4.91.06 0 0 1.76.1 2.78-.4.71-.35-2.07-.93-2.67-1.84-.67-1 1.59-.84 3.43 0 .82.37 2.88.63 3.68.58.1-.01.2.01.3.01l11.94-4.04 5.79-11.05c.04-.07.07-.14.11-.2l.05-.09.01.01a4.397 4.397 0 0 1 3.38-2.09c2.43-.2 4.57 1.6 4.77 4.04.07.86-.12 1.67-.48 2.38l.01.01-.03.05c-.18.35-.42.66-.69.95L80.2 64.84c-.34.68-.9 1.27-1.66 1.6-.05.02-.09.03-.14.05v.01l-.36.11c-.07.02-.13.05-.2.06l-15.26 4.59-.02-.08c-.79.39-1.92.65-3.16.98-3.66.99-7.73 1.01-8.02.04-.16-.51 4.08-.62 4.07-1.15-.01-.33-4.82.32-4.99-1.02-.09-.71 4.32-.31 4.25-.68-.08-.39-4.92.08-5.17-1.34z" fill="url(#p)" stroke="#91674D" stroke-linecap="round" stroke-linejoin="round" stroke-miterlimit="10"/></svg>