<svg viewBox="0 0 128 128" width="128" height="128" xmlns="http://www.w3.org/2000/svg"><linearGradient id="a" x1="-11.945" x2="98.428" y1="5.5" y2="90.824" gradientTransform="rotate(7.904 60.925 61.105)" gradientUnits="userSpaceOnUse"><stop stop-color="#F2E3D2" offset="0"/><stop stop-color="#EADAC9" offset=".05"/><stop stop-color="#CEBCA9" offset=".243"/><stop stop-color="#BCAA95" offset=".405"/><stop stop-color="#B6A38E" offset=".516"/><stop stop-color="#B5A28D" offset=".762"/><stop stop-color="#9C8772" offset="1"/></linearGradient><path d="M86.02 122.35c-4.8 0-9.25-2.3-11.65-3.54-.66-.34-1.18-.61-1.59-.78-.6-.24-1.41-.3-2.64-.38-2.47-.16-6.61-.43-10.45-2.62-1.51-.94-18.57-16.09-22.65-21.48-4.22-5.58-12.7-23.92-17.12-37.02C17.04 48 8.47 21.29 5.91 13.31c-.28-.89-.11-1.86.46-2.6L8.9 7.44c.54-.7 1.36-1.11 2.25-1.11.43 0 .84.09 1.22.28 4.58 2.2 10.41 4.96 12.16 5.62 1.79.67 4.74 1.74 8.48 3.08 15 5.39 46.21 16.6 52.42 21.39 2.66 2.05 5.79 4.21 8.83 6.3 5.94 4.09 12.08 8.31 14.48 11.61 3.17 4.34 3.27 8.77 3.4 14.9.02.71.03 1.44.05 2.2.04 1.58 1.58 3.8 4.53 7.91 2.13 2.97 5.69 7.94 5.49 9.41-.76 5.5-3.22 7.23-5.2 8.62-.91.64-1.76 1.24-2.35 2.1-.93 1.35-1.12 3.24-1.33 5.23-.21 2.04-.43 4.16-1.41 5.59-4.21 6.14-14.79 7.08-14.9 7.09l-.54.04-.39.38c-2.9 2.83-6.29 4.27-10.07 4.27z" fill="url(#a)"/><path d="M11.15 7.83c.2 0 .39.04.57.13 4.61 2.21 10.47 4.99 12.28 5.67 1.8.68 4.76 1.74 8.5 3.08 14.93 5.36 45.99 16.52 52.02 21.17 2.69 2.07 5.85 4.25 8.9 6.35 5.83 4.02 11.87 8.17 14.12 11.26 2.89 3.96 2.98 7.98 3.11 14.05.02.71.03 1.45.05 2.2.06 2.02 1.6 4.26 4.81 8.74 1.75 2.44 4.99 6.96 5.21 8.45-.69 4.76-2.66 6.15-4.56 7.49-.97.69-1.98 1.39-2.72 2.48-1.14 1.67-1.37 3.83-1.59 5.92-.19 1.86-.39 3.78-1.16 4.9-3.8 5.54-13.68 6.44-13.78 6.44l-1.08.09-.77.75c-2.66 2.59-5.62 3.85-9.04 3.85-4.44 0-8.52-2.11-10.96-3.37-.69-.36-1.24-.64-1.71-.83-.83-.34-1.73-.39-3.1-.48-2.48-.16-6.22-.41-9.75-2.4-2.06-1.43-18.48-16.12-22.25-21.11-3.7-4.89-12.22-22.74-16.9-36.59C18.47 47.53 9.9 20.83 7.34 12.85c-.13-.42-.05-.87.22-1.22l2.53-3.28c.25-.33.64-.52 1.06-.52m0-3c-1.31 0-2.59.6-3.44 1.69L5.18 9.8a4.35 4.35 0 0 0-.7 3.97C6.99 21.6 15.61 48.45 18.5 57.02c4.53 13.44 13.14 31.88 17.35 37.44s21.69 21.08 23.1 21.87c5.77 3.29 11.94 2.54 13.26 3.08 1.79.73 7.37 4.43 13.8 4.43 3.62 0 7.5-1.17 11.13-4.7 0 0 11.33-.92 16.01-7.74 2.21-3.21 1.19-8.55 2.75-10.82s6.61-2.82 7.8-11.36c.51-3.66-9.93-14.84-10.01-17.57-.2-7.5.1-12.69-3.73-17.94S94.22 41.57 86.35 35.5s-51.78-21.1-61.3-24.69c-1.77-.67-8.13-3.69-12.04-5.56-.59-.28-1.23-.42-1.86-.42z" fill="#756150"/><linearGradient id="b" x1="-18.3" x2="22.227" y1="-12.803" y2="38.369" gradientTransform="rotate(7.904 60.925 61.105)" gradientUnits="userSpaceOnUse"><stop stop-color="#F2E3D2" offset="0"/><stop stop-color="#EADAC9" offset=".05"/><stop stop-color="#CEBCA9" offset=".243"/><stop stop-color="#BCAA95" offset=".405"/><stop stop-color="#B6A38E" offset=".516"/><stop stop-color="#B5A28D" offset=".762"/><stop stop-color="#9C8772" offset="1"/></linearGradient><path d="M39.31 21.09s31.41 97 26.54 94.86c-35.92-15.77-46.47-76.51-46.47-76.51s-3.88-12.82-4.47-16.02c-.81-4.44-.66-7.56-.66-7.56l3.13-2.37 21.93 7.6z" fill="url(#b)"/><linearGradient id="c" x1="23.389" x2="105.08" y1="31.37" y2="96.355" gradientTransform="rotate(7.904 60.925 61.105)" gradientUnits="userSpaceOnUse"><stop stop-color="#FEF6E0" offset=".423"/><stop stop-color="#FAFAFA" offset="1"/></linearGradient><path d="M26.52 29.55c-.21.21-.42.41-.62.62-1.28 1.27-4.08 3.94-2.75 10.1 1.22 5.63 18.37 50.24 20.66 53.48 3.45 4.88 16.79 21.3 22.03 22.2 3.05.52 8.7-1.1 10.72-.9 2.48.24 7.87 6.07 12.92 5.53 3.68-.4 8.34-6.31 10.96-7.19 3.73-1.26 7.83-.58 10.45-3.53 2.95-3.32-.04-8.72 1.69-12.21s6.95-5.26 7.46-8.92-10.52-13.91-10.18-16.35.37-10.77-1.77-13.75-11.4-8-11.4-8-11.83-11.81-14.34-13.19c-3.94-2.17-8.35-3.63-12.53-5.23-7.07-2.7-14.19-5.27-21.33-7.8-2.51-.89-5.12-1.64-7.57-2.68-2.02-.85-3.43-1.48-5.59-.32-1.28.68-2.32 1.72-3.35 2.74l-5.46 5.4z" fill="url(#c)"/><linearGradient id="d" x1="84.316" x2="71.845" y1="90.828" y2="109.61" gradientTransform="rotate(7.904 60.925 61.105)" gradientUnits="userSpaceOnUse"><stop stop-color="#BCA293" stop-opacity=".8" offset=".205"/><stop stop-color="#BCA293" stop-opacity="0" offset="1"/></linearGradient><path d="M71.82 94.84c1.46 2.88 2.08 6.55 2.92 9.31 1.13 3.74 2.27 7.47 3.4 11.21.05.15.07.43.17.56-2.1-2.78-11.5 2.14-14.82-.81-3.27-2.9-6.18-5.87-6.28-5.98-.24-.24 1.12-2.87 1.24-3.24.49-1.4.84-2.84 1.19-4.27.7-2.84 1.36-5.76 2.98-8.25.77-1.18 1.82-2.29 3.19-2.6 1.36-.31 2.8.24 3.85 1.15.89.78 1.59 1.79 2.16 2.92z" fill="url(#d)"/><linearGradient id="e" x1="96.641" x2="106.65" y1="80.927" y2="105.67" gradientTransform="rotate(7.904 60.925 61.105)" gradientUnits="userSpaceOnUse"><stop stop-color="#BCA293" stop-opacity=".8" offset=".205"/><stop stop-color="#BCA293" stop-opacity="0" offset="1"/></linearGradient><path d="M91.37 93.02c2.07 1.24 4.17 4.08 5.18 5.09 2.78 2.8 5.61 5.54 8.39 8.34 1.51 1.53 3.02 3.06 4.54 4.58-2.35 1.43-6.57 1.76-9.03 2.34-.75.18-1.67 1.21-2.24 1.29-.81.12-2.29-1.61-2.89-2.17-1.93-1.79-3.67-3.81-5.03-6.07-2-3.31-3.17-7.19-2.92-11.05.06-.99.3-2.11 1.14-2.64.85-.53 1.85-.3 2.86.29z" fill="url(#e)"/><linearGradient id="f" x1="98.284" x2="115.93" y1="68.96" y2="86.492" gradientTransform="rotate(7.904 60.925 61.105)" gradientUnits="userSpaceOnUse"><stop stop-color="#BCA293" stop-opacity=".8" offset=".205"/><stop stop-color="#BCA293" stop-opacity="0" offset="1"/></linearGradient><path d="M99.59 83.1c3.47.17 7.9 1.97 9.74 2.5 3.57 1.04 7.14 2.08 10.72 3.12.21 2.21-1.93 3.34-4.53 5.57-1.01.87-2.74 4.19-4.02 3.53-.91-.47-1.73-1.65-2.63-2.26-1.03-.69-2.14-1.28-3.26-1.8-2.59-1.2-5.33-2.13-7.77-3.63-1.58-.97-3.18-2.56-2.83-4.39.41-2.14 2.28-2.75 4.58-2.64z" fill="url(#f)"/><linearGradient id="g" x1="95.027" x2="111.48" y1="60.252" y2="60.252" gradientTransform="rotate(7.904 60.925 61.105)" gradientUnits="userSpaceOnUse"><stop stop-color="#BCA293" stop-opacity=".8" offset=".205"/><stop stop-color="#BCA293" stop-opacity="0" offset="1"/></linearGradient><path d="M110.23 73.63c-2.72-.25-8.62-.63-12.42-3.49-1.19-.89-3.7-5.44-2.69-6.14s.56.18 1.78.34c2.88.38 11.8-.92 12.19-4.07" fill="url(#g)"/><path d="M33.67 24.52c3.14-.07 7 2.41 9.14 4.05 3.45 2.65 6.33 6.02 9.9 8.52 8.92 6.28 19.98 6.98 29.79 11.13C93.8 53 101 64.3 101.59 76.55c.25 5.19-1.11 10.57-4.4 14.58-4.23 5.14-9.28 5.44-15.37 5.62-6.22.19-12.43-1.89-18.06-4.38-4.06-1.8-10.1-3.38-12.7-7.23-2.26-3.35-3.57-7.08-6.12-10.33-2.47-3.15-5.26-6.04-7.67-9.23-5.91-7.84-9.43-17.18-12.87-26.38-.85-2.26-1.67-4.89-.48-6.99.52-.92 1.36-1.6 2.19-2.26 1.91-1.53 3.91-4.51 6.26-5.23.41-.12.84-.19 1.3-.2z" fill="#FFD6A4"/><path d="M84.21 49.02c.37.82 3.11 3.79 5.26 5.85 1.94 1.86 4.95 11.1 2.98 13.48-1.28 1.55-2.45 3.33-4.31 4.11-2.04.86-4.63.3-5.79-1.7-1.07-1.85-.11-4.33-.41-6.4-.28-1.93-1.16-3.85-2.75-4.97-2.22-1.55-9.21-2.55-11.24-.75-3.06 2.7-2.79 7.04-2.31 9.7 1.04 5.89 5.25 10.42 13.5 10.25 4.1-.08 9.4-1.52 12.07-3.19 1.01-.63 7.19 1.79 6.01 4.85-2.94 7.7-8.96 10.91-17.16 10.07-3.41-.35-6.63-1.67-9.8-2.97-3.37-1.39-6.75-2.77-10.12-4.16-1.6-.66-3.23-1.33-4.54-2.47-2.99-2.59-3.65-6.88-5.32-10.47-4.17-8.97-14.65-13.4-19.8-21.85-2.13-3.49-3.24-7.5-4.32-11.44-.31-1.12-.61-2.33-.18-3.41.27-.68.81-1.22 1.34-1.74 1.88-1.85 3.76-3.71 5.64-5.56.51-.5 1.02-1.03 1.28-1.69-.2-.01-.39-.05-.59-.04-.45.01-.89.07-1.3.2-2.35.71-4.34 3.7-6.26 5.23-.82.66-1.67 1.34-2.19 2.26-1.19 2.1-.37 4.73.48 6.99 3.44 9.2 6.95 18.54 12.87 26.38 2.41 3.2 5.19 6.09 7.67 9.23 2.55 3.25 3.86 6.97 6.12 10.33 2.6 3.85 8.64 5.43 12.7 7.23 5.63 2.49 11.83 4.57 18.06 4.38 6.09-.18 11.15-.48 15.37-5.62 3.3-4.01 4.65-9.39 4.4-14.58-.45-9.58-5.47-22.02-17.36-27.53z" fill="#DDB07F"/><path d="M33.8 26.52c1.91 0 4.82 1.36 7.78 3.63 1.5 1.15 2.87 2.43 4.33 3.79 1.76 1.64 3.58 3.34 5.64 4.78 5.81 4.08 12.43 5.91 18.83 7.68 3.79 1.05 7.71 2.13 11.33 3.66C92 54.42 99.02 64.86 99.59 76.65c.24 5.04-1.2 9.86-3.95 13.21-3.52 4.28-7.59 4.7-13.89 4.89-.24.01-.48.01-.72.01-6.2 0-12.37-2.41-16.47-4.22-.91-.4-1.89-.78-2.92-1.19-3.39-1.32-7.24-2.82-8.93-5.33-.92-1.36-1.67-2.8-2.47-4.32-1.07-2.04-2.18-4.14-3.74-6.13-1.15-1.47-2.38-2.89-3.56-4.26-1.38-1.6-2.8-3.25-4.08-4.94-5.78-7.67-9.24-16.93-12.59-25.88-.7-1.86-1.38-3.96-.61-5.31.34-.6 1.03-1.15 1.7-1.68.76-.6 1.49-1.37 2.19-2.11 1.1-1.15 2.35-2.45 3.39-2.77.23-.07.48-.11.77-.11l.09.01m0-2h-.14c-.45.01-.89.07-1.3.2-2.35.71-4.34 3.7-6.26 5.23-.82.66-1.67 1.34-2.19 2.26-1.19 2.1-.37 4.73.48 6.99 3.44 9.2 6.95 18.54 12.87 26.38 2.41 3.2 5.19 6.09 7.67 9.23 2.55 3.25 3.86 6.97 6.12 10.33 2.6 3.85 8.64 5.43 12.7 7.23 5.39 2.39 11.31 4.4 17.28 4.4.26 0 .52 0 .78-.01 6.09-.18 11.15-.48 15.37-5.62 3.3-4.01 4.65-9.39 4.4-14.58-.59-12.25-7.79-23.55-19.09-28.33-9.82-4.16-20.87-4.86-29.79-11.13-3.56-2.51-6.44-5.87-9.9-8.52-2.1-1.63-5.88-4.06-9-4.06z" fill="#212121" opacity=".2"/><ellipse transform="rotate(-77.027 76.153 70.132)" cx="76.16" cy="70.14" rx="7.48" ry="10.11" fill="#212121" opacity=".2"/><circle cx="75.7" cy="64.59" r="9.65" fill="#FAFAFA" stroke="#9E9E9E" stroke-miterlimit="10"/><linearGradient id="h" x1="79.251" x2="68.259" y1="65.409" y2="64.884" gradientUnits="userSpaceOnUse"><stop stop-color="#FCE8B2" offset="0"/><stop stop-color="#EDDEB5" offset=".306"/><stop stop-color="#C5C2BC" offset=".894"/><stop stop-color="#BDBDBD" offset="1"/></linearGradient><path d="M78.91 69.15c-4.23 0-7.67-3.43-7.67-7.67 0-1.29.32-2.5.88-3.56a7.671 7.671 0 0 0 3.57 14.46c2.95 0 5.5-1.67 6.79-4.1-1.07.55-2.28.87-3.57.87z" fill="url(#h)"/></svg>