<svg viewBox="0 0 128 128" width="128" height="128" xmlns="http://www.w3.org/2000/svg"><path d="M33.79 4.25l-.06.05c-1.69-.56-8.93 4.9-16.7 12.67S3.8 31.98 4.36 33.67l-.06.06 5.92 5.92.01-.01c.16.12.41.15.73.1 2.62-.47 5.57.36 7.76 2.56l74.1 74.1c10.18 10.18 19.9 8.63 26.07 2.46s7.7-15.91-2.46-26.07l-74.1-74.1c-2.2-2.2-3.03-5.15-2.56-7.77.06-.33.03-.57-.1-.73l.01-.01-5.89-5.93z" fill="#E6E6E6"/><linearGradient id="a" x1="-69.547" x2="-69.547" y1="-92.663" y2="-36.541" gradientUnits="userSpaceOnUse"><stop stop-color="#eee" offset=".005"/><stop stop-color="#EAEAEA" offset=".282"/><stop stop-color="#ddd" offset=".577"/><stop stop-color="#C8C8C8" offset=".879"/><stop stop-color="#BDBDBD" offset="1"/></linearGradient><path d="M-18.63-63.97c-.91-4.33-4.3-20.11-5.87-27.41-.47-2.21-2.11-3.82-3.99-3.81-5.36 0-15.39-.05-16.6-.05h-44.08c-.61 0-2.56.06-4.11 1.79-4.7 5.27-12.54 20.52-13.76 22.07-.08.1-6.27 2.31-9.09 4-1.12.67-1.74 2.13-1.9 3.63L-120.49-43c-.64 4.1 1.7 5.76 5.37 5.76h91.51c2.8 0 5.11-.68 5.11-5.69v-19.79c0-.43-.05-.85-.13-1.25z" fill="url(#a)"/><defs><path id="b" d="M-42.13-46.78c-.91-4.32-4.3-20.06-5.87-27.34-.47-2.21-2.11-3.82-3.99-3.82-5.36 0-15.39-.06-16.6-.06h-44.08c-.61 0-2.56.07-4.11 1.8-4.7 5.26-12.54 20.51-13.76 22.05-.08.1-6.27 2.28-9.09 3.96-1.12.67-1.74 2.13-1.9 3.62l-2.46 20.76c-.64 4.09 1.7 5.81 5.37 5.81h91.51c2.8 0 5.11-.79 5.11-5.8v-19.74c0-.42-.05-.83-.13-1.24z"/></defs><path d="M-9.98-106.33c.36 0 .87.53 1.05 1.38 1.46 6.78 4.94 23.03 5.86 27.4.05.19.07.4.07.61v19.79c0 2.81-.49 2.81-2.1 2.81h-91.51c-1.3 0-2.02-.29-2.25-.56s-.3-.95-.16-1.8c.01-.04.01-.07.02-.11l2.47-20.84c.08-.8.36-1.28.46-1.36 1.87-1.12 5.83-2.66 7.51-3.31 1.46-.57 1.86-.72 2.39-1.39.5-.63 1.28-2 2.99-5.03 2.85-5.03 7.61-13.46 10.65-16.87.57-.64 1.22-.72 1.87-.72h44.08c.75 0 4.89 0 9.21-.01l7.39.01m0-3c-5.36 0-15.39.01-16.6.01h-44.1c-.63 0-2.55.01-4.08 1.73-4.7 5.27-12.54 20.49-13.76 22.03-.08.1-6.27 2.3-9.09 3.99-1.12.67-1.74 2.12-1.9 3.62l-2.46 20.8c-.64 4.1 1.7 5.82 5.37 5.82h91.5c2.8 0 5.1-.8 5.1-5.81v-19.79c0-.42-.04-.84-.13-1.24-.91-4.33-4.3-20.11-5.86-27.41-.48-2.22-2.11-3.75-3.99-3.75z" fill="#424242" opacity=".2"/><linearGradient id="c" x1="46.43" x2="46.43" y1="-117.5" y2="-61.374" gradientUnits="userSpaceOnUse"><stop stop-color="#616161" offset=".011"/><stop stop-color="#5D5D5D" offset=".25"/><stop stop-color="#505050" offset=".504"/><stop stop-color="#3B3B3B" offset=".766"/><stop stop-color="#212121" offset="1"/></linearGradient><path d="M97.35-88.93c-.91-4.33-4.3-20.11-5.86-27.41-.47-2.21-2.11-3.75-3.99-3.75-5.36 0-15.39.01-16.6.01H26.82c-.61 0-2.56-.01-4.11 1.73C18-113.07 10.16-97.86 8.95-96.31c-.08.1-6.27 2.3-9.09 3.99-1.12.67-1.74 2.12-1.9 3.62L-4.5-67.9c-.64 4.1 1.7 5.82 5.37 5.82h91.51c2.8 0 5.1-.8 5.1-5.81v-19.79c-.01-.43-.05-.84-.13-1.25z" fill="url(#c)"/><defs><path id="d" d="M97.35-88.98c-.91-4.32-4.3-20.06-5.86-27.34-.47-2.21-2.11-3.74-3.99-3.74-5.36 0-15.39.01-16.6.01H26.82c-.61 0-2.56-.01-4.11 1.72C18-113.06 10.16-97.85 8.95-96.31c-.08.1-6.27 2.26-9.09 3.94-1.12.67-1.74 2.12-1.9 3.61L-4.51-68c-.64 4.09 1.7 5.8 5.37 5.8h91.51c2.8 0 5.1-.79 5.1-5.8v-19.74c0-.42-.04-.84-.12-1.24z"/></defs><path d="M87.5-117.08c.36 0 .87.53 1.05 1.38 1.46 6.78 4.94 23.03 5.86 27.4.04.2.06.41.06.63v19.79c0 2.81-.49 2.81-2.1 2.81H.86c-1.3 0-2.02-.29-2.25-.56s-.3-.95-.16-1.8l.02-.1L.94-88.37c.08-.8.36-1.28.46-1.36 1.87-1.12 5.83-2.66 7.51-3.31 1.46-.57 1.86-.72 2.39-1.39.5-.63 1.28-2 2.99-5.03 2.85-5.03 7.61-13.46 10.65-16.87.57-.64 1.22-.72 1.87-.72h44.08c.75 0 4.89 0 9.21-.01l7.4-.02m0-3c-5.36 0-15.39.01-16.6.01H26.8c-.63 0-2.55.01-4.08 1.73C18-113.07 10.16-97.86 8.95-96.31c-.08.1-6.27 2.3-9.09 3.99-1.12.67-1.74 2.12-1.9 3.62L-4.5-67.9c-.64 4.1 1.7 5.82 5.37 5.82h91.51c2.8 0 5.1-.8 5.1-5.81v-19.79c0-.42-.04-.84-.13-1.24-.91-4.33-4.3-20.11-5.86-27.41-.48-2.22-2.12-3.75-3.99-3.75z" fill="#eee" opacity=".2"/><g opacity=".2"><path d="M64.48-10.71c-3.76 0-6.83-.16-9.16-.37 2.33-.21 5.39-.37 9.16-.37 3.76 0 6.83.16 9.16.37-2.33.21-5.39.37-9.16.37z" fill="gray"/><path d="M64.49-12.95c-8.55 0-15.49.84-15.49 1.87s6.93 1.87 15.49 1.87 15.49-.84 15.49-1.87-6.94-1.87-15.49-1.87z" fill="#424242"/></g><linearGradient id="e" x1="51.553" x2="83.165" y1="79.197" y2="79.197" gradientTransform="rotate(-45.001 63.558 68.304)" gradientUnits="userSpaceOnUse"><stop stop-color="#4CAF50" offset="0"/><stop stop-color="#A4E849" offset=".693"/><stop stop-color="#9CDE47" offset=".76"/><stop stop-color="#86C441" offset=".873"/><stop stop-color="#689F38" offset="1"/></linearGradient><path d="M18.66 40.39l74.35 74.35c9.9 9.9 19.11 8.62 24.85 2.89 5.74-5.74 6.99-14.97-2.89-24.84L66.95 44.76l-48.29-4.37z" fill="url(#e)"/><path d="M115.58 103.39c-.63.63-1.65.63-2.28 0L38.46 28.55a1.611 1.611 0 1 1 2.28-2.28l74.84 74.84c.62.63.62 1.65 0 2.28z" fill="#fff" opacity=".55"/><path d="M32.68 9.3l2.63 2.63c-.12 3.59 1.29 7.17 3.95 9.83l74.1 74.1c3.88 3.88 5.98 7.88 6.08 11.56.1 3.81-1.91 6.64-3.62 8.34-1.66 1.66-4.4 3.63-8.07 3.63-3.76 0-7.85-2.11-11.83-6.09l-74.1-74.1c-2.55-2.55-5.89-3.96-9.4-3.96-.14 0-.28 0-.42.01l-2.64-2.64c1.42-2.24 4.81-6.64 10.75-12.57S30.45 10.72 32.68 9.3m1.11-5.06l-.06.06a.789.789 0 0 0-.28-.04c-2.1 0-9.02 5.31-16.42 12.71C9.26 24.74 3.8 31.98 4.36 33.67l-.06.06 5.92 5.92.01-.01c.11.08.25.12.44.12.09 0 .19-.01.3-.03.47-.08.95-.13 1.44-.13 2.21 0 4.52.88 6.32 2.68l74.1 74.1c5.23 5.23 10.35 7.37 14.92 7.37 4.32 0 8.16-1.91 11.16-4.91 6.17-6.17 7.7-15.91-2.46-26.07l-74.1-74.1c-2.2-2.2-3.03-5.15-2.56-7.77.06-.33.03-.57-.1-.73l.01-.01-5.91-5.92z" fill="#424242" opacity=".2"/><circle cx="45.04" cy="52.22" r="4.54" fill="#fff" opacity=".69"/><circle cx="31" cy="33.96" r="4.54" fill="#9CCC65"/><circle cx="55.69" cy="58.77" r="2.2" fill="#fff" opacity=".69"/><circle cx="17.46" cy="9.28" r="3.16" fill="#9CCC65"/><circle cx="11.25" cy="15.25" r="1.47" fill="#9CCC65"/><circle cx="69.25" cy="72.71" r="3.81" fill="#fff" opacity=".69"/><circle cx="63.33" cy="62.38" r="1.47" fill="#fff" opacity=".69"/></svg>