<svg viewBox="0 0 128 128" width="128" height="128" xmlns="http://www.w3.org/2000/svg"><linearGradient id="a" x1="64.05" x2="64.05" y1="970.17" y2="1057.3" gradientTransform="translate(0 -950)" gradientUnits="userSpaceOnUse"><stop stop-color="#FEE133" offset=".5"/><stop stop-color="#FEDE32" offset=".612"/><stop stop-color="#FCD32F" offset=".708"/><stop stop-color="#FAC12B" offset=".797"/><stop stop-color="#F7A924" offset=".883"/><stop stop-color="#F6A323" offset=".9"/></linearGradient><path d="M64 119.3C36.3 119.3 6.6 102 6.6 64S36.3 8.7 64 8.7c15.3 0 29.5 5.1 40 14.3 11.4 10.1 17.5 24.3 17.5 41s-6 30.9-17.5 41c-10.5 9.2-24.7 14.3-40 14.3z" fill="url(#a)"/><path d="M64.84 10.5c14.87 0 28.61 4.91 38.71 13.81 11 9.71 16.82 23.41 16.82 39.62 0 16.14-5.82 29.81-16.82 39.55-10.12 8.95-23.86 13.89-38.7 13.89-14.91 0-28.66-4.87-38.71-13.7C15.13 94 9.32 80.26 9.32 63.94c0-16.4 5.81-30.16 16.81-39.81C36.15 15.34 49.9 10.5 64.84 10.5m0-4c-30.9 0-59.52 19.85-59.52 57.44 0 37.39 28.62 57.44 59.53 57.44 30.9 0 59.53-20.56 59.53-57.44C124.37 26.86 95.75 6.5 64.84 6.5z" fill="#EB8F00"/><path d="M34.04 57.4l12.17-2.36-12.55-5.21c-.14-.07-.28-.15-.42-.23-2.61-1.6-3.06-4.89-.72-6.93 1.81-1.58 4.76-1.6 6.88-.3 4.98 3.05 16.7 10.24 21.27 13.04.82.5.7 1.58-.22 1.93l-22.91 8.6c-.15.06-.32.11-.48.16-3.03.84-6.32-.89-6.79-3.78-.36-2.21 1.34-4.25 3.77-4.92zM96.65 57.15l-12.17-2.36 12.55-5.21c.14-.07.28-.15.42-.23 2.61-1.6 3.06-4.89.72-6.93-1.81-1.58-4.76-1.6-6.88-.3-4.98 3.05-16.7 10.24-21.27 13.04-.82.5-.7 1.58.22 1.93l22.91 8.6c.15.06.32.11.48.16 3.03.84 6.32-.89 6.79-3.78.36-2.21-1.35-4.25-3.77-4.92z" fill="#242424"/><path fill="none" stroke="#242424" stroke-linecap="round" stroke-linejoin="round" stroke-miterlimit="10" stroke-width="8" d="M98.75 83.5l-11.6-3-1.03 13.75L74 87.38l-5.09 13.07-9.57-11.23-7.34 9.4-2.43-12.83-6.88 6.72 2.64-9.27-8.12 5.19 4.25-8.65-8.95 3.65"/><path d="M58.63 66.06c-16.15 11.33-11.86 53.06-11.86 53.06l6.21 1.47c15.05-12.72 18.9-36.2 18.4-47.59-.42-9.4-7.84-10.39-12.75-6.94z" fill="#242424" opacity=".2"/><linearGradient id="b" x1="6.992" x2="69.664" y1="95.376" y2="95.376" gradientTransform="rotate(-7.65 35.715 89.796)" gradientUnits="userSpaceOnUse"><stop stop-color="#fff" offset=".391"/><stop stop-color="#F9F9F9" offset=".51"/><stop stop-color="#E8E8E8" offset=".669"/><stop stop-color="#CDCDCD" offset=".849"/><stop stop-color="#B0B0B0" offset=".999"/></linearGradient><path d="M40.67 121.18c-1.4 0-2.62-.41-3.65-1.21-.96-.75-1.59-1.5-2.26-2.3-2.36-2.82-4.47-4.69-12-4.83-3.24-.06-7.43-1.2-9.46-4.2-1.49-2.2-1.56-5.11-.21-8.64 1.18-3.11-.68-4.9-2.17-6.34-1.39-1.34-3.12-3.01-4.34-6.53-.74-2.15-.61-3.62-.23-4.27.08-.14.17-.24.24-.25 2.26-.46 4.67-.91 7.23-1.38C27.48 78.7 44.48 75.55 58.8 66.4c.94-.6 1.98-.92 3.01-.92 2.92 0 5.88 2.59 5.88 8.39.01 12.91-7.68 36.68-24.24 46.82-.32.11-1.43.49-2.78.49z" fill="url(#b)"/><path d="M61.8 67.57c2.26 0 3.78 2.53 3.79 6.29.01 12.39-7.31 35.13-23.06 44.92-.33.11-1.04.31-1.86.31-.93 0-1.7-.25-2.35-.76-.78-.61-1.32-1.26-1.94-2-2.56-3.06-5.19-5.42-13.57-5.58-3.41-.06-6.46-1.35-7.76-3.28-1.08-1.6-1.08-3.86.01-6.72 1.68-4.4-1.15-7.13-2.68-8.6-1.3-1.25-2.76-2.66-3.82-5.71-.32-.93-.41-1.59-.42-2.01 1.91-.38 3.93-.75 6.06-1.15 13.84-2.57 31.06-5.76 45.72-15.13.61-.38 1.25-.58 1.88-.58m0-4.19c-1.41 0-2.84.42-4.13 1.25-16.63 10.62-37.24 13.01-51.5 15.92-1.88.38-2.99 3.12-1.56 7.26 2.73 7.9 7.93 7.77 6.54 11.44-4.14 10.87 4.3 15.54 11.59 15.68 9.85.19 8.91 3.48 13 6.69 1.63 1.28 3.42 1.65 4.94 1.65 2.11 0 3.72-.72 3.72-.72 18.32-11.11 25.4-36.44 25.39-48.7-.02-6.99-3.91-10.47-7.99-10.47z" fill="#A1A1A1"/><linearGradient id="c" x1="61.637" x2="22.81" y1="80.239" y2="89.816" gradientTransform="rotate(-12.525 37.122 87.531)" gradientUnits="userSpaceOnUse"><stop stop-color="#9E9E9E" stop-opacity=".9" offset="0"/><stop stop-color="#BDBDBD" stop-opacity=".5" offset="1"/></linearGradient><path d="M30.98 92.66a59.7 59.7 0 0 1-8.71 1.3c-1.42.11-2.66-.99-2.77-2.46s.94-2.75 2.36-2.85c12.79-.98 19.04-3.44 29.64-10.03 5.07-3.15 8.15-6.22 8.15-6.22s-3.27 7.2-11.07 12.81c-5.13 3.68-10.59 5.86-17.6 7.45z" fill="url(#c)"/><linearGradient id="d" x1="63.035" x2="37.717" y1="85.768" y2="104.18" gradientTransform="rotate(-13.744 39.092 92.359)" gradientUnits="userSpaceOnUse"><stop stop-color="#9E9E9E" stop-opacity=".9" offset=".102"/><stop stop-color="#BDBDBD" stop-opacity=".5" offset="1"/></linearGradient><path d="M41.45 104.43a2.56 2.56 0 0 1-2.85-1.27c-.71-1.28-.28-2.9.96-3.63 6.62-3.89 11.51-8.02 15.51-13.26 2.09-2.73 5.23-7.65 5.23-7.65s-.73 4.47-2.28 8.49c-4.15 10.68-14.07 16.69-16.57 17.32z" fill="url(#d)"/></svg>