<svg viewBox="0 0 128 128" width="128" height="128" xmlns="http://www.w3.org/2000/svg"><linearGradient id="a" x1="64" x2="64" y1="108.28" y2="20.3" gradientTransform="matrix(1 0 0 -1 0 128)" gradientUnits="userSpaceOnUse"><stop stop-color="#F6A323" offset=".566"/><stop stop-color="#FEE133" offset=".917"/></linearGradient><path d="M64 119.89C36.07 119.89 6 102.4 6 64S36.07 8.11 64 8.11c15.48 0 29.81 5.12 40.36 14.43C115.9 32.72 122 47.06 122 64c0 16.86-6.1 31.17-17.64 41.39-10.58 9.35-24.91 14.5-40.36 14.5z" fill="url(#a)"/><path d="M64 10.11c14.99 0 28.86 4.95 39.03 13.93C114.13 33.83 120 47.65 120 64c0 16.27-5.87 30.07-16.97 39.89-10.21 9.03-24.07 14-39.03 14-15.04 0-28.9-4.91-39.04-13.82C13.86 94.32 8 80.46 8 64c0-16.54 5.86-30.42 16.96-40.15C35.07 14.99 48.93 10.11 64 10.11m0-4c-31.15 0-60 20-60 57.89 0 37.68 28.85 57.89 60 57.89s60-20.73 60-57.89c0-37.37-28.85-57.89-60-57.89z" fill="#EB8F00"/><path d="M82.77 54.69c4.19 0 8 3.54 8 9.42s-3.81 9.42-8 9.42-8-3.54-8-9.42 3.81-9.42 8-9.42z" fill="#242424"/><path d="M81.5 39.4c-1.4-1.7-4.2-.1-3 2.1.9 1.6 2.2 3.2 3.7 4.5 4 3.7 9.4 5.6 14.3 5.5 2.5-.1 2.3-3.3.1-3.7-5.6-.9-11.1-3.8-15.1-8.4" fill="#6D4C41"/><path d="M45.23 54.69c-4.19 0-8 3.54-8 9.42s3.81 9.42 8 9.42 8-3.54 8-9.42-3.81-9.42-8-9.42z" fill="#242424"/><path d="M8.96 75.04c2.07 11.64 7.49 21.55 16 29.03 10.14 8.91 24 13.82 39.04 13.82 14.96 0 28.82-4.97 39.03-14C114.13 94.07 120 80.27 120 64c0-9.2-1.86-17.59-5.46-24.92l-52.93 7.7L8.96 75.04zM59.74 26.33l-6.01 2.08 2.71-.4zM64 10.11c-11.07 0-21.48 2.64-30.24 7.55l31.64-7.52c-.46-.01-.93-.03-1.4-.03z" fill="none"/><path d="M90.33 15.77c-1.78-.83-3.62-1.57-5.51-2.23L59.74 26.33l-3.3 1.68 43.67-6.34a53.635 53.635 0 0 0-9.78-5.9z" fill="#fff"/><path d="M86.86 12.5c-5.1-3.29-11.13-3.63-15.32-3.82l-6.14 1.46c6.8.14 13.35 1.3 19.41 3.4l2.05-1.04zM24.96 23.85c2.68-2.35 5.64-4.41 8.8-6.19l-6.17 1.47c-2.8.57-9.88 7.44-14.72 15.21l3.44-.5c2.39-3.68 5.27-7.03 8.65-9.99zM8.7 54.47l-2.33.34c-.02-.42-.02-.83-.02-1.25l-.11.06c-2.14 5.55-2.11 16.94-.08 22.92l2.8-1.5C8.33 71.51 8 67.83 8 64c0-3.29.24-6.46.7-9.53zM90.33 15.77l.25-.09a17.47 17.47 0 0 0-3.72-3.18l-2.05 1.04c1.89.65 3.73 1.39 5.52 2.23zM105.03 20.96c.53.54 1.04 1.1 1.52 1.7l-3.17 1.7c4.69 4.22 8.43 9.16 11.17 14.72l2.49-.36c-.39-2.22-.81-4.08-1.26-5.66a52.552 52.552 0 0 0-9.39-11.37c-.38-.24-.77-.49-1.17-.76l-.19.03z" fill="#EB8F00"/><path d="M103.03 24.04c.12.11.23.22.35.32l3.17-1.7c-.48-.6-1-1.16-1.52-1.7l-4.91.71c.99.76 1.97 1.54 2.91 2.37z" fill="#EB8F00"/><path d="M61.61 46.78L8.7 54.47c-.1.65-.18 1.3-.26 1.96l-.99.14c-1.07 4.77-1.05 12.05-.02 17.02l1.18-.63c-.15-1.05-.26-2.11-.35-3.19.16 1.79.39 3.55.7 5.27l52.65-28.26zM8.04 61.85C8.02 62.57 8 63.28 8 64c0-.72.02-1.44.04-2.15zm.24-3.76l-.03.31.03-.31zm-.14 1.78c-.02.29-.03.58-.05.87.01-.29.03-.58.05-.87zm-.06 7.34c.04.76.08 1.52.15 2.27-.06-.75-.11-1.51-.15-2.27z" fill="#fff"/><path d="M86.69 14.83l-.49.25.57-.2c-.03-.02-.05-.04-.08-.05zM17.87 31.59l35.42-5.15 5.66-1.96 23.16-11.81c-2.85-.84-5.8-1.48-8.83-1.9-.54-.03-1.06-.06-1.55-.08L28.61 20.95c-1.26.92-2.49 1.88-3.65 2.9a47.553 47.553 0 0 0-7.09 7.74zM97.76 19.98a51.868 51.868 0 0 0-4.93-2.96l-18.39 6.35 23.32-3.39zM8.45 56.43C8.16 58.89 8 61.41 8 64c0 3.08.21 6.07.61 8.96l42.09-22.6-42.25 6.07zM33.07 33.42l-18.11 2.63c-.81 1.42-1.55 2.88-2.22 4.39l20.33-7.02zM9.36 77.09c2.32 10.75 7.58 19.94 15.6 26.98 10.14 8.91 24 13.82 39.04 13.82 14.96 0 28.82-4.97 39.03-14C114.13 94.07 120 80.27 120 64c0-8.38-1.55-16.09-4.55-22.94L62.26 48.7 9.36 77.09zM14.39 51.71l46.59-6.86 39.54-21.23-43.45 6.32zM9.63 49.65l23.64-12.06-22.41 7.74c-.47 1.41-.88 2.84-1.23 4.32zM44.38 13.08l8.9-2.12c-3.05.5-6.03 1.21-8.9 2.12z" fill="none"/><path d="M65.4 10.14l-31.64 7.52a53.12 53.12 0 0 0-5.96 3.9c.27-.2.54-.41.81-.61l-.51.12-.12.02c-1.2.28-5.43 3.39-10.19 9.6-.26.34-.51.68-.76 1.02l.84-.12c.06-.08.12-.15.17-.22-.6.81-1.18 1.63-1.73 2.48l37.42-5.43 6.01-2.08 25.08-12.79c-6.06-2.11-12.61-3.27-19.42-3.41zM19.92 29.01c-.43.51-.85 1.03-1.26 1.56.41-.53.82-1.05 1.26-1.56zm2.12-2.35zm.71-.73c.71-.71 1.45-1.41 2.21-2.08a47.641 47.641 0 0 0 0 0c-.77.67-1.5 1.37-2.21 2.08z" fill="#fff"/><path d="M103.38 24.36c-.12-.11-.23-.22-.35-.32a51.17 51.17 0 0 0-2.92-2.37l-43.67 6.34-2.71.39-37.42 5.43c-.78 1.2-1.49 2.45-2.16 3.73.27-.51.53-1.02.82-1.51l-.89.13c-.94 1.59-1.73 3.14-2.36 4.62l1.03-.36c.17-.38.36-.75.54-1.13-.56 1.18-1.09 2.37-1.56 3.6-.31.81-.6 1.64-.88 2.48.01-.02.01-.05.02-.07l-1.72.59c-.3 1.34-.53 2.79-.66 4.31l1.15-.59c-.2.83-.38 1.67-.55 2.52-.14.76-.27 1.53-.38 2.3l52.91-7.69 52.93-7.7c-2.74-5.54-6.48-10.48-11.17-14.7z" fill="#fff"/><path d="M44.38 13.08c2.87-.91 5.84-1.62 8.9-2.12l18.07-4.29c.68.03 1.44.06 2.24.11-3.15-.44-6.36-.67-9.59-.67-13.52 0-26.6 3.77-37.08 11.13.09-.02.18-.06.26-.07l17.2-4.09zM87.11 10.12c-.34-.12-.68-.24-1.01-.36.28.14.57.29.85.44l.16-.08z" fill="#EB8F00"/><path d="M8.61 72.96c-.15-1.05-.26-2.11-.35-3.19.16 1.79.39 3.55.7 5.27M8.04 61.85C8.02 62.57 8 63.28 8 64c0-.72.02-1.44.04-2.15zM8.28 58.09l-.03.31.03-.31M8.14 59.87c-.02.29-.03.58-.05.87.01-.29.03-.58.05-.87zM8.08 67.21c.04.76.08 1.52.15 2.27-.06-.75-.11-1.51-.15-2.27z" fill="#fff"/><path d="M118.92 39.02a52.597 52.597 0 0 0-10.33-15.18 54.449 54.449 0 0 0-5.17-4.68c-4.87-3.85-10.39-6.87-16.31-9.03l-.16.08c-.28-.16-.57-.3-.85-.44a66.303 66.303 0 0 0-12.51-2.98c-.8-.05-1.56-.08-2.24-.11l-18.07 4.29-8.9 2.12-17.2 4.09c-.08.02-.17.05-.26.07-5.68 3.99-10.59 9.05-14.4 15.12-2.72 4.34-4.87 9.2-6.33 14.57a64.01 64.01 0 0 0-1.13 5.04c-.25 1.36-.45 2.74-.61 4.16C4.16 58.67 4 61.28 4 64c0 5.38.61 10.4 1.71 15.06l3.66-1.96 52.9-28.39 53.19-7.64 3.89-.56c-.15-.52-.29-1.01-.43-1.49zm-26.09-22c1.7.9 3.34 1.89 4.93 2.96l-23.32 3.39-6.29.91 18.04-9.21.49-.25.67-.34c1.89.76 3.72 1.6 5.48 2.54zM17.79 30.69c4.76-6.21 8.99-9.32 10.19-9.6l.12-.02.51-.12 43.12-10.26c.49.02 1.01.05 1.55.08 3.02.43 5.97 1.06 8.83 1.9L58.95 24.49l-5.66 1.96-35.42 5.15a46.387 46.387 0 0 0-2.89 4.45c.88-1.54 1.85-3.02 2.89-4.45l-.84.12c.25-.35.5-.69.76-1.03zm-2.33 3.27zm-6.85 39C8.21 70.07 8 67.08 8 64c0-2.59.16-5.11.45-7.57l42.25-6.07-42.09 22.6zm64.03-29.83l-11.67 1.72-46.59 6.86-5.35.79c.02-.11.03-.22.05-.33.61-3.23 1.5-6.31 2.63-9.25.92-2.39 2-4.68 3.25-6.86l18.11-2.63 11.69-1.7 9.47-1.38 2.84-.41 43.44-6.31 1.72-.25c.26.22.54.44.8.67.65.57 1.28 1.16 1.89 1.76 3.44 3.36 6.3 7.15 8.58 11.31l-40.86 6.01z" fill="#B3B3B3"/><path d="M86.11 100.49c-.32-.06-.62-.21-.87-.43-4.26-3.68-9.59-6.3-15.51-7.63-5.91-1.33-11.85-1.26-17.28.24-.32.09-.66.09-.97.01-.69-.18-1.23-.75-1.36-1.46-.13-.69.16-1.38.75-1.79 5.92-4.08 13.28-5.47 20.4-3.86 7.12 1.6 13.18 6.01 16.77 12.24.36.62.33 1.37-.09 1.94-.41.59-1.14.87-1.84.74z" fill="#242424"/></svg>