<svg viewBox="0 0 128 128" width="128" height="128" xmlns="http://www.w3.org/2000/svg"><radialGradient id="a" cx="33.249" cy="107.47" r="38.353" gradientTransform="matrix(1 0 0 .9913 0 .935)" gradientUnits="userSpaceOnUse"><stop stop-color="#29B6F6" offset="0"/><stop stop-color="#0277BD" offset="1"/></radialGradient><path d="M58.68 62.42c0 6.72-.77 11.82-10.54 21.28-3.88 3.76-10.54 6.96-11.9 11.89-.45 1.65-.75 3.41.72 5.6 1.68 2.52 13.54 8.51 24.79-7.46 1.15-1.63 7.52-11.3 9.25-13.91 4.26-6.43 8.9-12.1 16-15.64 25-12.48 36.92 13.78 24.17 23.05-1.61 1.17-13.65 3.19-6.15-1.04 4.93-2.78 7.47-12.01-3.68-14.8C89.93 68.56 77.74 88.46 76 92.63c-4.13 9.89-9.85 18.2-21.58 24.17-10.49 5.35-20.28 5.85-32.53-.08-9.98-4.83-13.16-13.96-11.79-25.88 1.5-13.04 4.25-11.62 1.62-23.18l46.96-5.24z" fill="url(#a)" stroke="#005584" stroke-linecap="round" stroke-linejoin="round" stroke-miterlimit="10"/><linearGradient id="b" x1="44.981" x2="19.981" y1="80.366" y2="107.7" gradientUnits="userSpaceOnUse"><stop stop-color="#005584" stop-opacity="0" offset="0"/><stop stop-color="#005584" offset=".841"/></linearGradient><path d="M42.91 64.81c-.14 4.19-2.04 11.98-5.12 14.82-3.48 3.22-7.56 5.71-11.37 8.54s-7.45 6.11-9.57 10.35-2.46 9.63.15 13.59c1.16 1.76 3.43 5.72 12.49 7.12 0 0-12.83-5.94-5.13-16.98 2.44-3.5 10.3-6.99 13.54-9.76s3.81-3.5 6.77-6.57c3.37-3.49 8.56-9.16 10.31-13.68 1.23-3.18-.58-5.49-2.41-8.37-2.07-3.24-6.78-3.95-10.3-2.43l.64 3.37z" fill="url(#b)"/><linearGradient id="c" x1="88.48" x2="116.42" y1="88.447" y2="88.447" gradientUnits="userSpaceOnUse"><stop stop-color="#54CCBE" offset="0"/><stop stop-color="#45CABA" offset=".234"/><stop stop-color="#1FC4AE" offset=".681"/><stop stop-color="#00BFA5" offset="1"/></linearGradient><path d="M91.05 103.88c-.61-.2-1.31-.42-1.49-.78-2.36-4.79-.74-10.09 3.95-12.9 1.65-.98 4.67-1.87 6.88-2.51.53-.15 1.02-.3 1.45-.43 6.59-2.02 10.95-5.1 12.95-9.16.94-1.91 1.2-3.71 1.19-5.13.25 1.08.44 2.62.44 4.81 0 6.35-3.71 9.17-7.73 11.26-2.2 1.15-4.47 1.58-6.87 2.03-2.35.45-4.79.91-7.11 2.11-2.33 1.21-3.8 2.77-4.35 4.66-.52 1.76-.24 3.8.82 6.09-.05-.02-.09-.03-.13-.05z" fill="url(#c)"/><path d="M115.9 76.69c.01.34.02.7.02 1.09 0 6.09-3.59 8.8-7.46 10.82-2.13 1.11-4.37 1.54-6.73 1.98-2.39.45-4.86.92-7.25 2.15-2.46 1.27-4.01 2.94-4.6 4.96-.47 1.6-.34 3.4.4 5.37-.14-.06-.24-.13-.27-.19-2.28-4.62-.77-9.54 3.75-12.24 1.59-.95 4.58-1.83 6.77-2.46.53-.15 1.02-.3 1.46-.43 6.73-2.06 11.19-5.23 13.25-9.42.27-.55.49-1.1.66-1.63m-.87-6.63s4.22 11.34-13.34 16.72c-2.33.71-6.35 1.75-8.44 2.99-5.05 3.02-6.58 8.6-4.14 13.55.47.96 2.43.99 3.18 1.66-2.48-4.33-2.73-8.58 2.65-11.36 4.53-2.34 9.47-1.78 13.98-4.14 3.67-1.91 8-4.81 8-11.71 0-6.89-1.89-7.71-1.89-7.71z" fill="#009984"/><linearGradient id="d" x1="63.632" x2="78.094" y1="107.39" y2="71.594" gradientUnits="userSpaceOnUse"><stop stop-color="#00AB94" offset="0"/><stop stop-color="#00BFA5" offset=".579"/></linearGradient><path d="M49.3 119.19c3.15-3.02 10.48-10.7 13.3-18.99 6.64-19.59 9.45-22.73 13.71-27.5l.07-.08c4.68-5.23 9.93-8.85 15.08-10.43-5.02 3.77-7.37 10.22-10.25 18.09-2.86 7.84-6.11 16.74-12.89 26.01-4.28 5.85-11.59 10.77-19.02 12.9z" fill="url(#d)"/><path d="M89.13 63.59c-3.79 3.93-5.9 9.7-8.39 16.53-2.85 7.81-6.09 16.67-12.83 25.88-3.84 5.25-10.16 9.74-16.78 12.09 3.6-3.67 9.48-10.46 11.94-17.72 6.61-19.49 9.24-22.44 13.61-27.32l.07-.08c3.86-4.34 8.13-7.55 12.38-9.38m5.22-2.57zm0 0c-6.9 1.04-13.37 5.7-18.35 11.27-4.4 4.92-7.17 7.96-13.88 27.75-3.54 10.45-14.6 20.12-14.6 20.12 7.45-1.64 16.11-6.62 21.2-13.57 14.86-20.32 13.12-39.56 25.63-45.57z" fill="#009984"/><path d="M53.33 118.15c.65-.2 1.2-.62 1.74-1.02.53-.42 1.05-.86 1.54-1.32.98-.93 1.92-1.9 2.81-2.92 1.77-2.04 3.39-4.2 4.88-6.44 2.95-4.51 5.44-9.3 7.39-14.3 1-2.49 1.87-5.03 2.62-7.6l.54-1.94c.19-.67.35-1.35.57-2.01.41-1.33.89-2.64 1.41-3.93 2.06-5.19 4.94-9.97 8.25-14.43.86-1.15 1.84-2.23 2.91-3.22 1.09-.97 2.28-1.85 3.56-2.58 2.58-1.44 5.53-2.26 8.49-2.29 2.97-.02 5.9.75 8.49 2.12 2.57 1.39 4.91 3.38 6.36 6.04.74 1.32 1.18 2.83 1.37 4.25.21 1.44.23 2.9.09 4.33-.32 2.86-1.28 5.63-2.9 7.99-.81 1.17-1.82 2.22-2.87 3.11-1.05.91-2.15 1.73-3.29 2.5-2.28 1.52-4.68 2.92-7.29 3.71 1.26-.52 2.43-1.21 3.55-1.96 1.13-.74 2.22-1.55 3.26-2.4 2.05-1.72 4.16-3.49 5.4-5.75 1.29-2.24 1.98-4.81 2.08-7.36.11-2.53-.31-5.18-1.54-7.2-1.26-2.08-3.24-3.75-5.47-4.87s-4.74-1.68-7.21-1.63c-2.48.04-4.91.74-7.07 1.97-1.07.63-2.07 1.38-3.01 2.22-.91.87-1.77 1.8-2.55 2.81-3.21 4.23-6 8.82-8.15 13.66-.53 1.21-1.03 2.45-1.46 3.7l-.64 1.88-.63 1.97a85.71 85.71 0 0 1-2.97 7.71c-2.25 5.02-4.99 9.83-8.3 14.21-1.66 2.19-3.44 4.28-5.4 6.2-.98.96-1.99 1.89-3.07 2.72-.54.43-1.1.82-1.67 1.19-.55.37-1.15.74-1.82.88z" fill="#5CEAD6"/><linearGradient id="e" x1="37.069" x2="37.069" y1="63.451" y2="51.658" gradientUnits="userSpaceOnUse"><stop stop-color="#4FC3F7" offset=".263"/><stop stop-color="#039BE5" offset=".999"/></linearGradient><path d="M10.71 67.29c1.89-8.99 7.08-10.46 11.66-11.76 3.79-1.07 7.37-2.08 7.72-7.33l10.75-.57c-.02 5.59 4.55 6.76 9.37 8.01 5.76 1.49 12.26 3.17 13.22 12.58l-52.72-.93z" fill="url(#e)"/><path d="M40.35 48.16c.27 5.52 5.08 6.76 9.73 7.97 5.74 1.48 11.68 3.02 12.79 11.58l-51.54-.91c1.91-8.17 6.62-9.5 11.18-10.79 3.69-1.04 7.49-2.12 8.05-7.34l9.79-.51m1-1.06l-11.74.62c-.36 11.68-16.15 2.12-19.51 20.05l53.88.95c-1.44-18.74-23.3-9.14-22.63-21.62z" fill="#005584"/><path d="M44.57 85.34c-2.23-2.42-6.03-6.29-7.06-11.91-1.12-6.18 2.04-11.87 6.45-17.46 1.1-1.41 1.93-2.37 1.93-2.37-1.11-.74-1.98-1.42-1.98-1.42-22.28 21.89 0 35.81 0 35.81s1.78 1.04 2.96-.69c.01-.01-1.36-1.03-2.3-1.96z" fill="#212121" opacity=".35"/><linearGradient id="f" x1="39.167" x2="53" y1="68.143" y2="73.867" gradientUnits="userSpaceOnUse"><stop stop-color="#00AB94" offset="0"/><stop stop-color="#00BFA5" offset=".559"/></linearGradient><path d="M46.22 89.21c-1.67-1.42-7.89-7.27-8.89-16.01-.77-6.77 1.71-13.73 7.38-20.68.66.57 2.07 1.66 4.02 2.44 1.56.62 3.48 1.1 5.18 1.52 1.23.3 2.39.59 2.94.83.61 1.15 1.98 11.43-.27 16.2-.79 1.68-1.97 3.36-3.1 4.98l-.32.46c-1.75 2.5-5.79 8.55-6.94 10.26z" fill="url(#f)"/><path d="M44.78 53.23c.78.63 2.09 1.53 3.77 2.2 1.59.64 3.53 1.12 5.25 1.54 1.08.27 2.11.52 2.67.73.58 1.71 1.74 11.2-.34 15.61-.77 1.64-1.93 3.3-3.06 4.91l-.33.47c-1.61 2.3-5.18 7.62-6.62 9.78-2.06-1.85-7.38-7.35-8.29-15.3-.75-6.52 1.59-13.22 6.95-19.94m-.12-1.43c-18.85 22.62 1.68 38.15 1.68 38.15s5.18-7.77 7.23-10.7c1.23-1.76 2.59-3.64 3.47-5.52 2.38-5.06.82-16.47.12-16.82-1.21-.6-5.43-1.28-8.24-2.41-2.62-1.05-4.26-2.7-4.26-2.7z" fill="#009984"/><path d="M45.81 85.34c-2.23-2.42-6.03-6.29-7.06-11.91-1.12-6.18 2.04-11.87 6.45-17.46 1.1-1.41 1.93-2.37 1.93-2.37-1.11-.74-2.48-1.8-2.48-1.8-22.28 21.89 1.68 38.15 1.68 38.15s.61-.92 1.78-2.65c.01-.01-1.36-1.03-2.3-1.96z" fill="#FCB316"/><g fill="#F09300"><path d="M45.64 89.34l.7.6s.61-.92 1.78-2.65l-.79-.62c-1.28 1.73-1.69 2.67-1.69 2.67zM46.46 54.4l.67-.8c-1.11-.74-2.48-1.8-2.48-1.8-.41.49-.74.93-.74.93.49.55 2.55 1.67 2.55 1.67z"/></g><path d="M32.13 60.84c-.43-1.44-1.84-6.26-4.3-8.33 0 0-.43-.36-1.81.55 0 0 .76 1.53 1.32 2.72.31.66 1.1 2.9 1.68 5.05.1.36.18.66.24.87.71 2.36 1.25 6.04-.17 10.17-1.71 5-5.13 10.65-16.12 11.8-2.54.21-2.87 3.19-2.87 3.19 16.94 0 20.18-9.27 22.08-14.8 1.73-5.03.73-8.63-.05-11.22z" fill="#212121" opacity=".35"/><linearGradient id="g" x1="18.894" x2="8.296" y1="69.059" y2="70.59" gradientUnits="userSpaceOnUse"><stop stop-color="#00AB94" offset="0"/><stop stop-color="#00BFA5" offset=".364"/></linearGradient><path d="M7.13 86.21c1.97-2.51 5.64-9.33 6.46-14.65l.05-.3c.65-4.23 1.26-8.22 2.9-12.21.03-.08.09-.26.18-.51.17-.5.66-1.97.92-2.33 5.57-1.14 8.24-3.33 9.14-4.24 1.81 1.91 2.95 6.16 3.46 8.05.09.33.16.6.22.8.81 2.71 1.43 6.94-.2 11.7-2.02 5.88-6.57 13.7-22.76 13.7-.12-.01-.25-.01-.37-.01z" fill="url(#g)"/><path d="M26.74 52.68c1.54 1.95 2.55 5.73 3.01 7.45.09.34.17.62.22.81.79 2.64 1.4 6.76-.19 11.39-1.24 3.61-4.51 13.14-21.69 13.36.68-1.01 1.42-2.23 2.09-3.47 1.45-2.67 3.3-6.67 3.91-10.6l.05-.3c.64-4.2 1.25-8.16 2.86-12.09.03-.08.1-.28.19-.54.35-1.03.61-1.72.77-2.05 4.89-1.03 7.57-2.88 8.78-3.96m.01-1.43s-2.33 3.08-9.32 4.49c-.41.08-1.21 2.76-1.35 3.12-1.69 4.14-2.3 8.22-2.97 12.62-1.1 7.15-6.67 15.2-7.06 15.21.5.01.98.02 1.46.02 16.94 0 21.34-8.51 23.23-14.04 1.73-5.04.98-9.42.2-12-.44-1.45-1.73-7.35-4.19-9.42z" fill="#009984"/><path d="M30.93 60.66c-.43-1.44-1.72-7.35-4.18-9.41 0 0-.55.73-1.93 1.64 0 0 .76 1.53 1.32 2.72.31.66 1.1 2.9 1.68 5.05.1.36.18.66.24.87.71 2.36 1.25 6.04-.17 10.17-1.71 5-5.13 10.65-16.12 11.8-2.54.21-3.53.12-3.53.12-1.43 2.24-2.03 3.06-2.2 3.07.5.01.98.02 1.46.02 16.94 0 21.34-8.51 23.23-14.04 1.73-5.04.98-9.42.2-12.01z" fill="#FCB316"/><path d="M57.93 72.85l-7.99-3.65s-22.85-.23-23.32-.23-12.95.86-13.48 3.05c-.37 1.51-1.16 3.72-1.62 4.94 8.54 2.35 20.27-2.64 24.82-4.17l1.64.71c3.82 2.4 10.36 4.27 16.43 4.28l3.52-4.93z" fill="#212121" opacity=".35"/><g fill="#F09300"><path d="M27.54 52.09c-.28-.38-.47-.57-.79-.84 0 0-.55.73-1.93 1.64 0 0 .19.38.44.9.27-.11 2.02-1.27 2.28-1.7zM9.4 83.63c-.18 0-.34.01-.47.01-.48 0-.69-.02-.69-.02-1.43 2.24-2.03 3.06-2.2 3.07.46.01.91.01 1.35.01l2.01-3.07z"/></g><linearGradient id="h" x1="38.032" x2="63.782" y1="65.175" y2="75.341" gradientUnits="userSpaceOnUse"><stop stop-color="#4FC3F7" offset=".263"/><stop stop-color="#039BE5" offset=".999"/></linearGradient><path d="M65.55 65.39c1.23 1.45.42 5.28.42 5.28-4.05 7.6-21.06 4.71-27.99.34-6.99-4.4-11.74-6.99-11.74-6.99-6.14 1.3-11.25-1.74-11.25-1.74s-6.67 1.28-7.78 1.25c-1.75-.04-2.18-2.4-.73-2.9 2.86-.99 9.7-5.02 12.36-4.87 1.45.08 16.13 2.9 20.35 4.1 1.36.39 9.53 1.85 9.53 1.85" fill="url(#h)"/><linearGradient id="i" x1="56.004" x2="42.879" y1="61.713" y2="64.775" gradientUnits="userSpaceOnUse"><stop stop-color="#4FC3F7" offset=".263"/><stop stop-color="#039BE5" offset=".999"/></linearGradient><path d="M39.38 60s12.92-4.3 15.81-3.66c7.22 1.6 10.66 7.25 10.77 8.28-.4 1.21-2.99 1.99-5.55 1.36-3.42-.84-6.79-3.91-11.7-4.27" fill="url(#i)"/><linearGradient id="j" x1="7.353" x2="29.978" y1="70.32" y2="66.484" gradientUnits="userSpaceOnUse"><stop stop-color="#4FC3F7" offset=".263"/><stop stop-color="#039BE5" offset=".999"/></linearGradient><path d="M36.34 70.31c-5.58 1.87-21.94 8.95-29.99 1.34-1.16-1.1 1.11-5.83 2.74-8.32l5.9-1.04 5.11 1.92 6.66.11 9.58 5.99z" fill="url(#j)"/><path d="M65.55 65.39c1.29 2.95.42 5.28.42 5.28-4.05 7.6-21.06 4.71-27.99.34-6.99-4.4-11.74-6.99-11.74-6.99-6.14 1.3-11.25-1.74-11.25-1.74s-6.67 1.28-7.78 1.25c-1.75-.04-2.18-2.4-.73-2.9 2.86-.99 9.7-5.02 12.36-4.87 1.45.08 16.13 2.9 20.35 4.1 1.36.39 9.53 1.85 9.53 1.85" fill="none" stroke="#005584" stroke-linecap="round" stroke-linejoin="round" stroke-miterlimit="10"/><path d="M36.34 70.31c-5.58 1.87-21.94 8.95-29.99 1.34-1.16-1.1 1.11-5.83 2.74-8.32M39.38 60s12.92-4.3 15.81-3.66c7.22 1.6 10.66 7.25 10.77 8.28-.4 1.21-2.99 1.99-5.55 1.36-3.42-.84-6.79-3.91-11.7-4.27" fill="none" stroke="#005584" stroke-linecap="round" stroke-linejoin="round" stroke-miterlimit="10"/><path d="M45.01 17.07c-2.45 0-5.19-.56-8.37-1.72l-3.67-2.64c-.98-2.47-.44-4.79 1.59-6.9.77-.8 2.09-1.25 3.61-1.25.79 0 1.62.12 2.46.37 1.6.46 3.03 1.6 5.03 3.29 1.9 1.61 3.74 2.42 5.46 2.42 1.31 0 2.3-.47 2.98-.96.04 1.61-.48 4.36-3.94 6.23-1.43.77-3.16 1.16-5.15 1.16z" fill="#1A1A1A"/><path d="M38.18 5.28c.73 0 1.48.11 2.25.34 1.46.42 2.83 1.52 4.76 3.15 2.04 1.72 4.03 2.59 5.92 2.59.81 0 1.54-.17 2.17-.42-.26 1.37-1.11 3.06-3.47 4.33-1.32.71-2.94 1.07-4.8 1.07-2.34 0-4.97-.54-8.03-1.64l-3.42-2.46c-.41-1.08-.96-3.37 1.52-5.93.63-.64 1.79-1.03 3.1-1.03m0-1.44c-1.79 0-3.26.58-4.13 1.47-3.47 3.59-2.03 7-1.66 7.86L36.3 16c1.94.71 5.3 1.8 8.71 1.8 1.89 0 3.8-.33 5.49-1.24 5.67-3.05 4.13-8.37 4.13-8.37s-1.18 1.74-3.51 1.74c-1.31 0-2.97-.55-4.99-2.25-1.95-1.65-3.51-2.92-5.29-3.43a9.03 9.03 0 0 0-2.66-.41z" fill="#3D3D3D"/><radialGradient id="k" cx="37.854" cy="7.777" r="5.935" gradientTransform="matrix(.9998 .0177 -.0174 .982 1.008 .856)" gradientUnits="userSpaceOnUse"><stop stop-color="#FFEB3B" offset="0"/><stop stop-color="#FBAA19" offset="1"/></radialGradient><path d="M35.67 6.49l.44.01c2.16.04 3.89 1.83 3.85 3.99l-.01.44a3.927 3.927 0 0 1-3.99 3.85l-.44-.01a3.927 3.927 0 0 1-3.85-3.99l.01-.44a3.927 3.927 0 0 1 3.99-3.85z" fill="url(#k)"/><path d="M35.6 7.49h.05l.44.01c1.61.03 2.9 1.36 2.87 2.97l-.01.44a2.94 2.94 0 0 1-2.92 2.87h-.05l-.44-.01a2.924 2.924 0 0 1-2.87-2.97l.01-.44a2.933 2.933 0 0 1 2.92-2.87m0-1c-2.12 0-3.88 1.72-3.92 3.85l-.01.44a3.927 3.927 0 0 0 3.85 3.99l.44.01h.07c2.12 0 3.88-1.72 3.92-3.85l.01-.44a3.927 3.927 0 0 0-3.85-3.99l-.44-.01h-.07z" fill="#212121" opacity=".2"/><circle cx="37.07" cy="9.42" r="1.23" fill="#fff"/><linearGradient id="l" x1="97.596" x2="97.842" y1="22.475" y2="34.723" gradientTransform="scale(-1 1) rotate(-.848 228.471 7803.042)" gradientUnits="userSpaceOnUse"><stop stop-color="#32AACF" offset=".261"/><stop stop-color="#166B9D" offset=".999"/></linearGradient><path d="M20.16 39.18c-.87-.23-2.4-.76-3.43-1.92-1.89-2.14-2.33-6.32-2.43-7.83 1.1.14 3.55.61 4.76 2.16l1.1 7.59z" fill="url(#l)"/><path d="M14.84 30.01c1.12.2 2.8.67 3.74 1.78l.97 6.68c-.78-.28-1.75-.76-2.45-1.55-1.58-1.79-2.09-5.14-2.26-6.91m-1.07-1.14s.12 5.92 2.59 8.72c1.64 1.86 4.4 2.23 4.4 2.23l-1.22-8.43c-1.7-2.35-5.77-2.52-5.77-2.52z" fill="#005584"/><linearGradient id="m" x1="24.697" x2="24.779" y1="35.094" y2="7.259" gradientTransform="rotate(-179.19 29.969 30.264)" gradientUnits="userSpaceOnUse"><stop stop-color="#4FC3F7" offset=".263"/><stop stop-color="#039BE5" offset=".999"/></linearGradient><path d="M33.71 51.72l1.2.08h1.59c8.83-.59 14.74-8.76 14.93-21.7.19-12.87-7.74-19.36-15.91-19.48s-16.29 6.13-16.48 19c-.2 12.95 6.29 21.42 14.67 22.1z" fill="url(#m)" stroke="#005584" stroke-linecap="round" stroke-linejoin="round" stroke-miterlimit="10" stroke-width="1.012"/><linearGradient id="n" x1="9.378" x2="9.624" y1="22.731" y2="34.983" gradientTransform="rotate(1.146 -123.721 2159.696)" gradientUnits="userSpaceOnUse"><stop stop-color="#32AACF" offset=".261"/><stop stop-color="#166B9D" offset=".999"/></linearGradient><path d="M51.63 32.15c1.27-1.51 3.74-1.89 4.83-1.99-.15 1.51-.75 5.67-2.71 7.74-1.07 1.13-2.62 1.61-3.5 1.8l1.38-7.55z" fill="url(#n)"/><path d="M55.9 30.73c-.23 1.76-.86 5.1-2.5 6.83-.73.76-1.71 1.21-2.5 1.46l1.2-6.65c.97-1.06 2.67-1.48 3.8-1.64m1.12-1.1zm0 0s-4.07.03-5.85 2.31l-1.52 8.39s2.77-.27 4.48-2.07c2.56-2.72 2.89-8.63 2.89-8.63z" fill="#005584"/><g fill="#005584"><path d="M30.78 29.8c-.31.28-.79.09-1.23-.08-.98-.37-1.79-.73-2.9-.77-.83-.04-2.04.14-2.94.4-.81.24-.32-1 .73-1.69.69-.45 1.39-.69 2.87-.69 1.3 0 2.67.47 3.38 1.02.6.47.58 1.37.09 1.81zM39.68 29.8c.31.28.79.09 1.23-.08.98-.37 1.79-.73 2.9-.77.83-.04 2.04.14 2.94.4.81.24.32-1-.73-1.69-.69-.45-1.39-.69-2.87-.69-1.3 0-2.67.47-3.38 1.02-.59.47-.57 1.37-.09 1.81z"/></g><path d="M37.11 38.19c-.05-.02-.1-.03-.15-.04l-3.42-.05c-.05.01-.1.02-.16.04-.31.12-.49.44-.35.78s.81 1.31 2.18 1.33 2.07-.93 2.22-1.27-.02-.66-.32-.79z" fill="#005584"/><path d="M39.31 42.13c-1.55.89-6.6.82-8.12-.12-.88-.54-1.79.25-1.44 1.06.35.79 3.08 2.67 5.46 2.7s5.13-1.76 5.5-2.54c.37-.8-.51-1.61-1.4-1.1z" fill="#3E2723"/><path d="M17.48 35.37c-.59-.88-1.26-.22-.9.67.22.53.34.82.31 1.76-.03 1.14-.66 1.92-1.21 1.91-.56-.01-1.17-.81-1.15-1.95.02-.86.38-1.51.81-1.78l-.43-.98c-.82.44-1.42 1.49-1.44 2.74-.03 1.65.95 3.01 2.2 3.03 1.24.02 2.11-1.31 2.3-2.95.18-1.59-.49-2.45-.49-2.45zM53.07 36c.62-.86 1.27-.18.88.7-.24.52-.37.81-.38 1.75-.01 1.14.59 1.94 1.15 1.95s1.19-.77 1.21-1.91c.02-.86-.33-1.53-.74-1.81l.47-.97c.81.46 1.36 1.54 1.34 2.79-.03 1.65-1.06 2.98-2.3 2.95-1.24-.02-2.06-1.39-2.2-3.03-.13-1.58.57-2.42.57-2.42z" fill="#FCB316"/><g fill="#1A1A1A"><circle cx="27.29" cy="33.6" r="2.38"/><circle cx="43.17" cy="33.6" r="2.38"/></g><linearGradient id="o" x1="106.66" x2="105.58" y1="109.36" y2="112.44" gradientUnits="userSpaceOnUse"><stop stop-color="#00AB94" offset="0"/><stop stop-color="#00BFA5" offset=".579"/></linearGradient><path d="M116.24 113.57c-5.58-.89-5.1-2.6-5.63-4.19l-5.33-1.56c-1.22 1.05-2.38 3.23-6.97.99-1.41-.69-6.17-4.72-6.17-4.72l-3.59-.91c.46.42 4.37 5.45 7.7 9.66 4.16 5.27 6.65 6.25 8.48 6.78 2.74.8 5.92.4 5.92.4s5.34.58 9-.76c3.8-1.39 5.53-4.9 5.53-4.9s-6.42-.55-8.94-.79zm2.81 4.06c-1.38.5-3.06.7-4.54.76a9.639 9.639 0 0 0 2.66-2.98c1.02.09 2.51.23 4.71.42-.72.69-1.66 1.38-2.83 1.8z" fill="url(#o)"/><radialGradient id="p" cx="109.97" cy="112.87" r="8.699" gradientTransform="matrix(.9726 -.2326 .2175 .9094 -21.89 37.246)" gradientUnits="userSpaceOnUse"><stop stop-color="#FEBC12" offset=".272"/><stop stop-color="#FEA709" offset=".5"/><stop stop-color="#FF9000" offset=".809"/></radialGradient><path d="M121.88 115.84c-.72.69-1.66 1.37-2.83 1.8-1.38.5-3.06.7-4.54.76 1.08-.79 2.13-2.16 2.66-2.98-3 .16-6.87-.14-10.79-1.29-7.36-2.16-13.58-8.93-14.64-10.14l-3.19-.81c.46.42 4.37 5.45 7.7 9.66 2.81 3.55 4.85 5.15 6.45 5.98-3.41-.11-5.44 1.97-5.44 1.97l13.17 3.86s-.59-2.87-3.56-4.62c2.03.22 3.78 0 3.78 0s5.34.58 9-.76c3.8-1.39 5.53-4.9 5.53-4.9l-3.3 1.47z" fill="url(#p)"/><radialGradient id="q" cx="106.87" cy="100.7" r="3.775" gradientTransform="rotate(16.333 104.75 112.333)" gradientUnits="userSpaceOnUse"><stop stop-color="#FEBC12" offset="0"/><stop stop-color="#FF8F00" offset="1"/></radialGradient><path d="M108.34 104.94l-3.27 3.12 5.65 1.66-1.5-4.48 1.16-.95c.33-.27.5-.68.46-1.1l-.21-2.42a.547.547 0 0 0-.96-.31l-1.61 1.85c-.31.35-.4.85-.23 1.29l.51 1.34z" fill="url(#q)"/><radialGradient id="r" cx="106.82" cy="121.06" r="4.387" gradientTransform="rotate(16.333 104.75 112.333)" gradientUnits="userSpaceOnUse"><stop stop-color="#FEF59F" offset="0"/><stop stop-color="#FAC537" offset=".904"/><stop stop-color="#F9BF2C" offset="1"/></radialGradient><path fill="url(#r)" d="M110.04 123.59l-11.85-3.48 1.48-.78 9.51 2.79z"/><path d="M109.98 101.13l.18 2.11c.02.2-.06.39-.22.52l-1.02.84-.47-1.24a.592.592 0 0 1 .11-.61l1.42-1.62m-19.57 3.22l1.42.36c.86.72 4.82 4.04 6.19 4.71 1.44.7 2.66 1.04 3.74 1.04 1.81 0 2.8-.98 3.52-1.7l.19-.19.04.01.28-.27 2.85-2.72 1.38 4.12.04.17.09.34c.43 1.8 1.15 3.24 6.04 4.02 1.87.18 5.91.53 7.86.71-.74 1.07-2.25 2.82-4.62 3.69-1.91.7-4.33.84-6.03.84-1.54 0-2.66-.12-2.67-.12l-.08-.01-.08.01c-.01 0-.77.09-1.84.09-.62 0-1.22-.03-1.79-.09l-2.2-.23-1.73-.9c-1.88-.98-3.91-2.88-6.23-5.8-.89-1.12-1.82-2.3-2.71-3.44-1.58-2.02-2.81-3.57-3.66-4.64m21.89 14.8l2.23-.09c1.91-.08 3.51-.34 4.75-.8 1.1-.4 2.13-1.06 3.06-1.94l1.08-1.03-1.49-.13c-2.2-.19-3.69-.33-4.71-.42l-.43-.04-.22.38c-.44.76-1.23 1.86-2.47 2.77l-1.8 1.3m-9.87.35h.24l2.07.07 1.79 1.05c1.52.89 2.36 2.11 2.8 3.01l-10.59-3.1c.8-.49 2.06-1.03 3.69-1.03m7.65-19.24c-.15 0-.3.06-.41.19l-1.61 1.85c-.31.35-.4.85-.23 1.29l.51 1.34-3.03 2.89-.03-.01c-.83.72-1.64 1.96-3.54 1.96-.88 0-1.99-.27-3.44-.97-1.41-.69-6.17-4.72-6.17-4.72l-3.59-.91c.46.42 4.37 5.45 7.7 9.66 2.81 3.55 4.85 5.15 6.45 5.98h-.26c-3.25 0-5.17 1.97-5.17 1.97l13.17 3.86s-.59-2.87-3.56-4.62c.67.07 1.31.09 1.86.09 1.13 0 1.92-.1 1.92-.1s1.15.12 2.74.12c1.85 0 4.29-.17 6.26-.88 3.8-1.39 5.53-4.9 5.53-4.9s-6.43-.56-8.94-.8c-5.2-.83-5.13-2.37-5.53-3.87h.01l-1.5-4.48 1.16-.95c.33-.27.5-.68.46-1.1l-.21-2.42c-.02-.27-.28-.47-.55-.47zm4.43 18.13a9.639 9.639 0 0 0 2.66-2.98c1.02.09 2.51.23 4.71.42-.72.69-1.66 1.37-2.83 1.8-1.37.5-3.06.7-4.54.76z" fill="#212121" opacity=".2"/></svg>