<svg viewBox="0 0 128 128" width="128" height="128" xmlns="http://www.w3.org/2000/svg" xmlns:xlink="http://www.w3.org/1999/xlink"><linearGradient id="a" x1="36.352" x2="52.743" y1="93.628" y2="58.546" gradientTransform="scale(-1 1) rotate(-9.474 -48.73 839.887)" gradientUnits="userSpaceOnUse"><stop stop-color="#F9DDBD" offset=".601"/><stop stop-color="#FFD29C" offset="1"/></linearGradient><path d="M86.55 90.45c-.14 0-.19-.04-.2-.05-.1-.1-.34-.62-.24-2.98.05-1.12-.57-2.47-1.2-3.12-.37-.39-.77-.58-1.2-.58-.08 0-.22.02-.29.03-1.08.25-1.1 1.39-1.12 2.23-.01.52-.02 1.11-.18 1.57-.01 0-.05.02-.13.02-.05 0-.49-.01-.51-.48 0-.09-.02-.22-.06-.4-.07-.33-.22-1.01-.14-2.42.08-1.6.28-3.64 1.06-5.2.11-.22.14-.48.07-.71l-5.3-19.09-2-6.52c.85-.41 2.39-1.03 3.93-1.03 1.97 0 3.32 1.01 4.11 3.1 1.35 3.55 2.19 7.86 2.64 13.57.33 4.15.9 8.03 1.23 9.06.09.29.17.53.23.74.32 1.03.43 1.41 1.75 4.18.62 1.3.37 2.61.05 4.27-.11.56-.21 1.13-.3 1.74-.12.96-1.42 2.07-2.2 2.07z" fill="url(#a)"/><path d="M79.05 52.7c1.04 0 2.35.28 3.17 2.45 1.32 3.46 2.14 7.68 2.58 13.29.34 4.36.93 8.21 1.28 9.29.09.29.16.52.23.72.35 1.15.51 1.6 1.8 4.31.45.96.29 1.96-.03 3.65-.11.56-.22 1.15-.3 1.78-.04.3-.36.68-.67.93a16 16 0 0 1 .01-1.69c.05-1.27-.58-2.93-1.48-3.86-.7-.73-1.43-.89-1.92-.89-.17 0-.35.02-.51.06-.34.08-.61.2-.84.36.12-1.24.35-2.57.88-3.63.22-.44.27-.95.14-1.43l-5.3-19.09c0-.02-.01-.03-.01-.05l-1.73-5.65c.74-.26 1.73-.55 2.7-.55m0-2c-2.62 0-5.13 1.54-5.13 1.54l2.23 7.29 5.3 19.09c-.89 1.77-1.08 3.97-1.17 5.6-.1 1.98.2 2.68.21 2.92.04.95.81 1.44 1.51 1.44.47 0 .92-.23 1.08-.69.46-1.32-.02-3.02.57-3.16.02-.01.05-.01.07-.01.59 0 1.44 1.62 1.4 2.66-.08 2 .02 3.35.64 3.82.23.17.51.25.8.25 1.29 0 3-1.47 3.2-2.97.34-2.48 1.14-4.48.15-6.56-1.55-3.27-1.38-3.1-1.93-4.79-.26-.82-.84-4.47-1.19-8.83-.39-4.97-1.12-9.69-2.71-13.85-1.09-2.91-3.09-3.75-5.03-3.75z" fill="#EDBD82"/><linearGradient id="b" x1="33.617" x2="33.653" y1="90.016" y2="90.016" gradientTransform="scale(-1 1) rotate(-9.474 -48.73 839.887)" gradientUnits="userSpaceOnUse"><stop stop-color="#FFB300" offset="0"/><stop stop-color="#FFCA28" offset=".401"/></linearGradient><path d="M90.9 86.81c.01-.15.01-.26.01-.26s.01.28-.01.26z" fill="url(#b)"/><path d="M90.91 86.55s0 .11-.01.26c.02 0 .01-.26.01-.26z" fill="#EDA600"/><linearGradient id="c" x1="31.519" x2="48.601" y1="92.795" y2="56.997" gradientTransform="rotate(-9.474 17.648 38.807)" gradientUnits="userSpaceOnUse"><stop stop-color="#F9DDBD" offset=".601"/><stop stop-color="#FFD29C" offset="1"/></linearGradient><path d="M41.45 90.45c-.78 0-2.08-1.11-2.21-2.1-.08-.6-.19-1.18-.3-1.74-.31-1.66-.56-2.97.05-4.27 1.31-2.76 1.43-3.15 1.75-4.18.06-.21.14-.44.23-.74.33-1.03.9-4.92 1.23-9.06.45-5.71 1.29-10.02 2.64-13.57.79-2.08 2.14-3.1 4.11-3.1 1.55 0 3.09.62 3.93 1.03l-1.99 6.5-5.31 19.11a.97.97 0 0 0 .07.71c.78 1.56.98 3.6 1.06 5.2.08 1.41-.07 2.09-.14 2.42-.04.18-.06.31-.06.4-.02.47-.46.48-.51.48-.08 0-.13-.02-.14-.03-.15-.44-.16-1.04-.17-1.56-.01-.84-.03-1.99-1.12-2.23-.07-.02-.22-.03-.29-.03-.43 0-.83.2-1.2.58-.63.65-1.25 2-1.2 3.12.1 2.36-.14 2.88-.25 2.99 0 .03-.05.07-.18.07z" fill="url(#c)"/><path d="M48.95 52.7c.97 0 1.96.29 2.72.59l-1.73 5.65c-.01.02-.01.03-.01.05l-5.3 19.09c-.13.48-.08.99.14 1.43.53 1.05.76 2.39.88 3.63-.23-.16-.5-.29-.84-.36a2.22 2.22 0 0 0-.51-.06c-.49 0-1.22.15-1.92.89-.89.93-1.53 2.59-1.48 3.86.03.78.03 1.32.01 1.69-.32-.26-.63-.63-.67-.93-.09-.64-.2-1.22-.3-1.78-.32-1.69-.48-2.7-.03-3.65 1.29-2.71 1.45-3.16 1.8-4.31.06-.2.13-.44.23-.72.35-1.08.93-4.93 1.28-9.29.44-5.61 1.26-9.83 2.58-13.29.8-2.21 2.11-2.49 3.15-2.49m0-2c-1.94 0-3.94.84-5.04 3.74-1.58 4.16-2.31 8.88-2.71 13.85-.35 4.36-.92 8.01-1.19 8.83-.55 1.69-.37 1.52-1.93 4.79-.98 2.09-.18 4.09.16 6.57.2 1.49 1.91 2.97 3.2 2.97.3 0 .57-.08.8-.25.62-.47.72-1.82.64-3.82-.04-1.04.81-2.66 1.4-2.66.02 0 .05 0 .07.01.59.14.11 1.84.57 3.16.16.46.6.69 1.08.69.7 0 1.46-.49 1.51-1.44.01-.24.31-.94.21-2.92-.09-1.63-.28-3.82-1.17-5.6l5.3-19.09 2.23-7.29s-2.5-1.54-5.13-1.54z" fill="#EDBD82"/><linearGradient id="d" x1="28.923" x2="28.959" y1="89.232" y2="89.232" gradientTransform="rotate(-9.474 17.648 38.807)" gradientUnits="userSpaceOnUse"><stop stop-color="#FFB300" offset="0"/><stop stop-color="#FFCA28" offset=".401"/></linearGradient><path d="M37.1 86.81c-.01-.15-.01-.26-.01-.26s-.01.28.01.26z" fill="url(#d)"/><path d="M37.09 86.55s-.01.26.01.26c-.01-.15-.01-.26-.01-.26z" fill="#EDA600"/><path d="M70.24 121.41l-4.79-35.06c-.14-.76-.75-1.27-1.45-1.27s-1.31.51-1.44 1.22l-4.8 35.11-5.76.24-.96-46.03h25.91L76 121.65l-5.76-.24z" fill="#7C7C7C"/><path d="M75.93 76.61l-.92 43.99-3.9-.16-4.68-34.23c0-.03-.01-.06-.02-.1-.22-1.18-1.24-2.04-2.43-2.04s-2.2.86-2.43 2.04c-.01.03-.01.06-.02.1l-4.68 34.23-3.9.16-.92-43.99h23.9m2.05-2zm0 0H50.02l1 48.08 7.61-.32 4.91-35.89c.04-.24.24-.41.46-.41s.42.17.46.41l4.91 35.89 7.61.32 1-48.08z" fill="#5B5B5B"/><g fill="#2B2D2D"><path d="M73.02 124h4.45c.82-.02 1.41-.96 1.17-1.78-.74-2.49-2.99-4.32-5.62-4.32-2.68 0-4.96 1.9-5.66 4.46-.22.82.39 1.63 1.21 1.63h4.45zM54.98 124h-4.45c-.82-.02-1.41-.96-1.17-1.78.74-2.49 2.99-4.32 5.62-4.32 2.68 0 4.96 1.9 5.66 4.46.22.82-.39 1.63-1.21 1.63h-4.45z"/></g><linearGradient id="e" x1="63.462" x2="63.462" y1="44.814" y2="77" gradientTransform="matrix(-1 0 0 1 127.46 0)" gradientUnits="userSpaceOnUse"><stop stop-color="#00BFA5" offset="0"/><stop stop-color="#00B29A" offset=".705"/><stop stop-color="#00AB94" offset="1"/></linearGradient><path d="M51.04 77V60.72c0-.4-.24-.76-.6-.92l-6.5-2.82c2.16-5.74 4.08-9.38 10.7-11.14 2.52-.67 5.74-1.03 9.32-1.03h.16c3.6 0 6.71.35 9.27 1.03 6.58 1.75 8.49 5.4 10.66 11.15l-6.41 2.82c-.36.16-.6.52-.6.92V77h-26z" fill="url(#e)"/><path d="M64.13 45.81c3.46 0 6.58.34 9.01.99 5.8 1.54 7.67 4.58 9.64 9.65l-5.54 2.44c-.73.32-1.19 1.04-1.19 1.83V76h-24V60.72c0-.8-.47-1.52-1.2-1.83l-5.62-2.44c1.97-5.05 3.85-8.09 9.68-9.64 2.44-.65 5.57-.99 9.06-.99h.08l.08-.01m0-2h-.16c-3.96 0-7.18.42-9.57 1.06-7.55 2.01-9.46 6.56-11.71 12.65l7.37 3.2V78h28V60.72l7.28-3.2c-2.25-6.09-4.12-10.64-11.67-12.65-2.41-.64-5.58-1.06-9.54-1.06z" fill="#009984"/><path d="M63.53 49.68c-2.23 0-4.05-1.72-4.05-3.84v-4.8h9v4.8c0 2.12-1.82 3.84-4.05 3.84h-.9z" fill="#EDC391"/><path d="M67.98 41.54v4.3c0 1.84-1.59 3.34-3.55 3.34h-.91c-1.95 0-3.55-1.5-3.55-3.34v-4.3h8.01m1-1h-10v5.3c0 2.4 2.04 4.34 4.55 4.34h.91c2.51 0 4.55-1.94 4.55-4.34v-5.3h-.01z" fill="#D9AC77"/><path d="M52.03 33.67c-2.31 0-4.19-2.02-4.19-4.5s1.88-4.5 4.19-4.5h23.95c2.31 0 4.19 2.02 4.19 4.5s-1.88 4.5-4.19 4.5H52.03z" fill="#EDC391"/><path d="M75.97 25.17c2.04 0 3.69 1.79 3.69 4s-1.66 4-3.69 4H52.03c-2.04 0-3.69-1.79-3.69-4s1.66-4 3.69-4h23.94m0-1H52.03c-2.58 0-4.69 2.25-4.69 5s2.11 5 4.69 5h23.95c2.58 0 4.69-2.25 4.69-5s-2.12-5-4.7-5z" fill="#D9AC77"/><linearGradient id="f" x1="63.414" x2="63.414" y1="6.851" y2="43.341" gradientTransform="matrix(-1 0 0 1 127.46 0)" gradientUnits="userSpaceOnUse"><stop stop-color="#F9DDBD" offset=".601"/><stop stop-color="#FFD29C" offset="1"/></linearGradient><path d="M64.05 43.32c-6.83 0-14.19-5.3-14.19-16.94 0-9.32 5.42-19.39 14.19-19.39s14.19 10.06 14.19 19.39c0 11.64-7.36 16.94-14.19 16.94z" fill="url(#f)"/><path d="M64.05 7.49c3.44 0 6.87 1.88 9.41 5.16 2.76 3.55 4.27 8.43 4.27 13.73 0 5.15-1.48 9.44-4.29 12.41-2.46 2.6-5.8 4.03-9.4 4.03s-6.94-1.43-9.4-4.03c-2.81-2.97-4.29-7.26-4.29-12.41 0-5.3 1.52-10.18 4.27-13.73 2.56-3.28 5.99-5.16 9.43-5.16m0-1c-7.63 0-14.69 8.15-14.69 19.89 0 11.67 7.28 17.44 14.69 17.44s14.69-5.77 14.69-17.44c0-11.74-7.07-19.89-14.69-19.89z" fill="#EDBD82"/><radialGradient id="g" cx="71.202" cy="24.078" r="2.61" gradientUnits="userSpaceOnUse"><stop stop-color="#454140" offset=".09"/><stop stop-color="#454140" offset="1"/></radialGradient><path d="M74.52 24.3s-.06-.08-.17-.22c-.03-.03-.05-.07-.09-.11-.05-.05-.1-.09-.16-.15-.06-.05-.12-.11-.19-.17s-.14-.1-.21-.15-.15-.1-.23-.15c-.09-.05-.17-.09-.26-.14s-.19-.09-.29-.13-.2-.08-.31-.12c-.22-.06-.44-.13-.67-.16-.23-.05-.47-.05-.71-.06-.24.01-.48.02-.71.06-.23.03-.46.1-.67.16-.11.04-.21.08-.31.12s-.2.08-.29.13-.18.1-.26.14c-.08.05-.16.1-.23.15l-.21.15c-.06.05-.12.11-.17.15-.05.05-.1.09-.15.14-.04.05-.08.09-.11.13-.13.16-.2.25-.2.25a.688.688 0 0 0 .79 1.05l.13-.04s.08-.03.21-.09c.03-.01.07-.03.11-.05.04-.01.08-.03.13-.05.09-.04.19-.08.31-.11.06-.02.11-.04.17-.06.06-.01.12-.03.19-.05.03-.01.06-.02.1-.03.03-.01.07-.01.1-.02.07-.01.14-.03.21-.04.14-.02.29-.05.44-.05.15-.02.3-.01.45-.02.15.01.3 0 .45.02.15.01.29.04.44.05.07.01.14.03.21.04.03.01.07.01.1.02s.06.02.1.03c.06.02.13.03.19.05s.12.04.17.06c.06.02.11.03.16.05s.09.03.13.04.08.03.12.04c.04.02.09.04.13.06.16.08.25.12.25.12.36.15.78-.02.93-.38.04-.22.01-.47-.12-.66z" fill="url(#g)"/><radialGradient id="h" cx="56.799" cy="24.078" r="2.61" gradientUnits="userSpaceOnUse"><stop stop-color="#454140" offset=".09"/><stop stop-color="#454140" offset="1"/></radialGradient><path d="M54.34 25.35s.09-.04.25-.12c.04-.02.08-.05.13-.06.04-.01.08-.02.12-.04.04-.01.08-.03.13-.04.05-.02.1-.03.16-.05s.11-.04.17-.06.12-.03.19-.05c.03-.01.06-.02.1-.03.03-.01.07-.01.1-.02.07-.01.14-.03.21-.04.14-.02.29-.05.44-.05.15-.02.3-.02.45-.02.15.01.3 0 .45.02.15.01.29.04.44.05.07.01.14.03.21.04.03.01.07.01.1.02s.06.02.1.03c.06.02.13.03.19.05s.12.04.17.06c.11.03.22.07.31.11.05.02.09.04.13.05.04.02.07.03.11.05.13.06.21.09.21.09l.12.04a.687.687 0 0 0 .79-1.05s-.07-.09-.2-.25c-.03-.04-.07-.08-.11-.13-.04-.04-.09-.09-.15-.14a2.59 2.59 0 0 0-.38-.3 4.6 4.6 0 0 0-.23-.15c-.09-.05-.17-.09-.26-.14s-.19-.09-.29-.13-.2-.08-.31-.12c-.22-.06-.44-.13-.67-.16-.23-.05-.47-.05-.71-.06-.24.01-.48.02-.71.06-.23.03-.46.1-.67.16-.11.04-.21.08-.31.12s-.2.08-.29.13-.18.1-.26.14c-.08.05-.16.1-.23.15l-.21.15c-.07.06-.13.11-.19.17-.06.05-.11.1-.16.15a13.78 13.78 0 0 0-.26.33c-.22.32-.14.76.19.98.16.14.42.15.63.06z" fill="url(#h)"/><g fill="#312D2D"><ellipse cx="71.2" cy="28.28" rx="2.16" ry="2.24"/><ellipse cx="56.8" cy="28.28" rx="2.16" ry="2.24"/></g><radialGradient id="i" cx="63.51" cy="4.971" r="13.316" gradientTransform="matrix(-1 0 0 1 127.46 0)" gradientUnits="userSpaceOnUse"><stop stop-color="#454140" offset=".001"/><stop stop-color="#312D2D" offset="1"/></radialGradient><path d="M63.88 3.84c20.07 0 15.85 23.06 15.85 23.06s-2.11 3.73-2.11 3.65c.07-3.18-1.2-8.8-2.1-11.2a2.665 2.665 0 0 0-2.98-1.68c-1.95.35-5.06.79-8.49.79-3.29 0-6.32-.4-8.3-.75-1.36-.24-2.68.6-3.03 1.93l-2.49 10.9-2.06-3.98S44.06 3.84 63.88 3.84z" fill="url(#i)"/><defs><path id="j" d="M63.88 3.84c20.07 0 16.1 22.49 16.1 22.49s-2.37 4.3-2.37 4.22c.02-.68-.42-3.49-.42-3.49.77-1.47 1.18-3.11 1.18-4.78v-.49l-1.18-4.38-13.21-8.16-13.02 8.09-1.1 5.05-.04.46c.18 1.47.63 2.81 1.19 4.18l-.78 3.52-2.11-4.18c-.01 0-4.06-22.53 15.76-22.53z"/></defs><clipPath id="k"><use xlink:href="#j"/></clipPath><g clip-path="url(#k)"><path d="M63.88 5.84c4.85 0 8.53 1.44 10.93 4.28 2.88 3.41 3.5 8.24 3.52 11.68-.32-1.26-.65-2.37-.95-3.15a4.678 4.678 0 0 0-4.37-3.02c-.28 0-.56.03-.84.08-1.91.35-4.87.76-8.13.76-3.16 0-6.07-.39-7.96-.72a4.657 4.657 0 0 0-5.3 3.38c-.01.02-.01.05-.02.07l-.91 4c-.15-3.5.18-9.29 3.43-13.17 2.33-2.78 5.89-4.19 10.6-4.19m0-2c-19.82 0-15.71 22.72-15.71 22.72l2.06 3.98 2.49-10.9a2.668 2.668 0 0 1 3.03-1.93c1.98.35 5.01.75 8.3.75 3.43 0 6.54-.44 8.49-.79.16-.03.32-.04.48-.04 1.09 0 2.1.67 2.5 1.72.9 2.39 2.17 8.02 2.1 11.2.04 0 2.41-4.22 2.41-4.22S83.94 3.84 63.88 3.84z" fill="#1F1A1A"/></g><path d="M60.31 36.26c1.4.83 5.97.83 7.37 0 .8-.48 1.62.25 1.29.98-.33.72-2.82 2.38-4.98 2.38s-4.62-1.66-4.95-2.38c-.34-.73.47-1.45 1.27-.98z" fill="#424242"/><path d="M62.31 32.23c.05-.02.09-.03.14-.04h3.1c.05.01.09.02.14.04.28.11.44.4.3.71-.13.31-.75 1.18-1.99 1.18s-1.86-.87-1.99-1.18c-.14-.3.02-.59.3-.71z" fill="#DBA689"/></svg>