<svg viewBox="0 0 128 128" width="128" height="128" xmlns="http://www.w3.org/2000/svg"><path d="M117.3 89.17c4.33-.15 4.8-5.59 5.45-6.2-.75-.16-2.98-3.51-6.06-3.71.05-2.3-.05-4.67-.3-7.12.73-.1 1.46-.26 2.16-.47 4.89-1.49 3.3-7.85 3.81-8.75-.9.04-4.61-2.98-8.13-2.45a99.37 99.37 0 0 0-1.22-4.32c-.19-.63-.41-1.25-.63-1.86.22-.11.43-.23.64-.35 4.12-2.46.86-8 1.08-8.95-.72.2-4.05-1.26-6.97-.82-.8-1.13-1.67-2.22-2.58-3.27.16-.14.31-.29.46-.44 3.45-3.48-1.61-8.33-1.67-9.34-.75.42-5.54-.5-8.37 1.37a50.279 50.279 0 0 0-5.17-3.03c.69-3.58-4.13-6.88-4.38-7.77-.71.58-6.19.37-8.6 3a60.5 60.5 0 0 0-5.98-1.11c-1.3-3.17-6.34-4.59-6.77-5.35-.52.71-5.21 2.18-6.65 5.13-2.2.22-4.37.57-6.51 1.05-2.53-2.33-7.63-2.16-8.31-2.72-.24.86-4.7 3.96-4.42 7.37-1.96.98-3.84 2.02-5.63 3.13-2.86-1.47-7.16-.67-7.87-1.07-.07.96-4.61 5.38-2.12 8.8a48.59 48.59 0 0 0-3.82 4.2c-2.23.21-4.29 1.01-4.83.86.18.78-2 4.69-.46 7.41-1.3 2.67-2.31 5.48-3.02 8.44-2.27.72-4.18 2.11-4.79 2.08.5.88-1.01 7.02 3.57 8.65.01 2.58.22 5.25.64 8-2.32.89-3.99 3.25-4.61 3.39.65.61 1.12 6.05 5.45 6.2.46.02.92 0 1.38-.04.34 1.11.71 2.22 1.11 3.35.53 1.46 1 2.77 1.44 3.94-.04-.01-.08-.01-.12-.02-4.05-.47-5.31 4.45-6.04 4.83.75.39 2.77 5.06 6.62 4.2 1.03-.23 2.04-.62 2.9-1.15.99 1.92 2.09 3.67 3.56 5.86-3.5.72-3.17 5.14-3.7 5.63.8.16 4.04 3.82 7.24 2.14 1.68-.88 3.15-2.29 3.38-3.9l2.72-1.1c1.32.92 3.29 2.07 5.25 1.04 1.84-.96 3.39-2.61 3.1-4.44l5.34-2.17c-.08.42-.15.74-.26.85.67.14 3.39 3.2 6.08 1.8 1.86-.97 3.4-2.71 2.69-4.58l-.03-.09c-.18-.44-.48-.79-.84-1.08l5.83-2.37c.46 1.5.97 2.89 1.32 3.15.09.07.19.13.29.18-.02.06-.02.13-.04.19.51 2.23.57 6.18-.25 10.37l-6.19 2.34.08.29 5-1.25c.22-.05.4.18.29.37l-2.44 4.36.26.1 3.79-4.5c.08-.1.23-.12.34-.05l3.15 2.14.03.04.02-.01.02.01.03-.04 3.15-2.14a.26.26 0 0 1 .34.05l3.79 4.5.26-.1-2.44-4.36c-.11-.2.07-.43.29-.37l5 1.25.08-.29-6.18-2.34h.02c-.82-4.19-.77-8.15-.25-10.37-.02-.06-.02-.13-.04-.19.1-.05.2-.11.29-.18.37-.27.9-1.76 1.38-3.33l6.78 2.51c-.38.29-.69.66-.88 1.12l-.03.09c-.71 1.87.83 3.61 2.69 4.58 2.69 1.41 5.41-1.66 6.08-1.8-.14-.13-.21-.61-.33-1.21l4.69 1.74c-.02.04-.05.07-.06.11-.01.03-.03.07-.04.1-.78 2.05.91 3.96 2.95 5.02 2.64 1.38 5.3-1.16 6.36-1.82l1.69.63c-.58 2.11 1.19 4.05 3.3 5.15 3.2 1.67 6.44-1.98 7.24-2.14-.48-.45-.25-4.08-2.75-5.32 1.06-2.05 2.03-4.04 2.92-5.99.79.44 1.69.77 2.6.98 3.85.86 5.87-3.81 6.62-4.2-.73-.38-1.98-5.24-5.98-4.83.84-2.45 1.51-4.87 2.02-7.3.55.08 1.13.1 1.7.08zm-50.15 26.79c-.01 0-.02.01-.03.01l-3.13 3.27-3.13-3.27c-.61-3.86.73-8.39 1.69-10.56-.07-.15-.12-.3-.18-.45.34-.37.56-1.31.69-2.21.31.02.62.05.95.05s.64-.02.95-.04c.13.9.35 1.83.69 2.2-.06.15-.11.3-.18.45.94 2.17 2.28 6.69 1.68 10.55z" fill="none" stroke="#0E7EB3" stroke-linecap="round" stroke-linejoin="round" stroke-miterlimit="10" stroke-width="3.882"/><radialGradient id="a" cx="64.456" cy="88.718" r="57.045" gradientTransform="matrix(1 0 0 .9066 0 8.284)" gradientUnits="userSpaceOnUse"><stop stop-color="#133C65" offset="0"/><stop stop-color="#0D6E7B" offset=".116"/><stop stop-color="#079A8F" offset=".237"/><stop stop-color="#03BA9D" offset=".346"/><stop stop-color="#01CEA6" offset=".437"/><stop stop-color="#00D5A9" offset=".499"/><stop stop-color="#00D5A9" offset=".997"/></radialGradient><path d="M64 99.6l-38.82 15.77c-6.79-9.71-7.69-10.93-11.99-22.89-11.16-31.06 2-53.25 28.2-64.95s63.01.21 71.62 28.63c7.28 24.02 3.4 37.85-7.93 58.64L64 99.6z" fill="url(#a)"/><path d="M57.07 26.04c.71 3.32 3.06 6.65 6.99 6.76h.19c3.88 0 6.11-3.52 6.79-6.76 1.03-4.95-6.45-6.88-6.98-7.81-.65.9-8.02 3-6.99 7.81z" fill="#00B5A9"/><path d="M64.06 22.15s-4.44 2.92-4.44 5.26 1.99 4.24 4.44 4.24 4.44-1.9 4.44-4.24c0-2.33-4.44-5.26-4.44-5.26z" fill="#DEB366"/><path d="M64.06 23.77s-3.38 2.6-3.38 4.26 1.51 3.01 3.37 3.01 3.38-1.35 3.38-3.01c.01-1.66-3.37-4.26-3.37-4.26z" fill="#0084FF"/><path d="M64.06 25.66s-2.36 1.55-2.36 2.6 1.06 1.91 2.36 1.91c1.31 0 2.36-.86 2.36-1.91 0-1.06-2.36-2.6-2.36-2.6z" fill="#2B1FA6"/><path d="M57.63 42.04c.66 3.05 2.81 6.12 6.43 6.22h.18c3.57 0 5.62-3.23 6.25-6.22.95-4.55-5.94-6.33-6.42-7.18-.61.83-7.39 2.76-6.44 7.18z" fill="#008777"/><path d="M64.06 38.47s-4.08 2.69-4.08 4.84 1.83 3.9 4.08 3.9c2.26 0 4.09-1.75 4.09-3.9s-4.09-4.84-4.09-4.84z" fill="#DEB366"/><path d="M64.06 39.96s-3.11 2.39-3.11 3.92 1.39 2.77 3.1 2.77c1.72 0 3.11-1.24 3.11-2.77.01-1.53-3.1-3.92-3.1-3.92z" fill="#0084FF"/><path d="M64.06 41.69s-2.17 1.42-2.17 2.39.97 1.76 2.17 1.76 2.17-.79 2.17-1.76-2.17-2.39-2.17-2.39z" fill="#2B1FA6"/><path d="M59.49 57.95c.47 2.17 2 4.35 4.57 4.42h.13c2.54 0 4-2.3 4.44-4.42.67-3.23-4.22-4.5-4.56-5.1-.44.58-5.25 1.96-4.58 5.1z" fill="#00717D"/><path d="M64.06 55.41s-2.9 1.91-2.9 3.44 1.3 2.77 2.9 2.77 2.9-1.24 2.9-2.77-2.9-3.44-2.9-3.44z" fill="#DEB366"/><path d="M64.06 56.47s-2.21 1.7-2.21 2.78c0 1.09.99 1.97 2.2 1.97 1.22 0 2.21-.88 2.21-1.97.01-1.08-2.2-2.78-2.2-2.78z" fill="#0084FF"/><path d="M64.06 57.7s-1.54 1.01-1.54 1.7.69 1.25 1.54 1.25 1.54-.56 1.54-1.25-1.54-1.7-1.54-1.7z" fill="#2B1FA6"/><ellipse cx="64" cy="79.02" rx="17.34" ry="24.05" fill="#00E8D9"/><path d="M38.86 31.01c1.95 2.85 5.46 5.22 9.26 4.13.06-.02.12-.03.19-.05 3.72-1.17 4.51-5.09 3.93-8.29-.89-4.88-8.79-4.41-9.65-5.11-.3 1.03-6.55 5.2-3.73 9.32z" fill="#00B5A9"/><path d="M44.07 25.32s-3.14 4.04-2.25 6.2 3.51 3.31 5.86 2.58c2.35-.74 3.53-3.09 2.64-5.25-.89-2.17-6.25-3.53-6.25-3.53z" fill="#DEB366"/><path d="M44.69 26.82s-2.24 3.41-1.61 4.95c.63 1.53 2.59 2.32 4.37 1.76s2.72-2.26 2.09-3.8-4.85-2.91-4.85-2.91z" fill="#0084FF"/><path d="M45.4 28.56s-1.67 2.14-1.27 3.11 1.74 1.45 2.99 1.05c1.25-.39 1.93-1.5 1.53-2.48-.4-.97-3.25-1.68-3.25-1.68z" fill="#2B1FA6"/><path d="M45.72 45.72c1.72 2.26 4.7 4.07 7.75 3.04.05-.02.1-.03.15-.05 2.98-1.09 3.45-4.32 2.83-6.91-.95-3.95-7.39-3.28-8.12-3.82-.19.85-5.1 4.47-2.61 7.74z" fill="#008777"/><path d="M49.71 40.89s-2.38 3.41-1.55 5.14 3.02 2.58 4.91 1.89c1.88-.69 2.74-2.65 1.91-4.39-.83-1.73-5.27-2.64-5.27-2.64z" fill="#DEB366"/><path d="M50.28 42.08s-1.68 2.87-1.09 4.1 2.22 1.81 3.65 1.28c1.43-.52 2.12-1.95 1.53-3.18-.58-1.22-4.09-2.2-4.09-2.2z" fill="#0084FF"/><path d="M50.95 43.48s-1.27 1.81-.89 2.59c.37.78 1.49 1.12 2.49.75s1.51-1.3 1.14-2.08c-.38-.78-2.74-1.26-2.74-1.26z" fill="#2B1FA6"/><path d="M37 55.23c2.71 1.4 6.35 1.9 8.65-.24.04-.03.08-.07.11-.1 2.19-2.16 1.01-5.32-.86-7.45-2.86-3.26-8.43-.13-9.37-.34.24.85-2.46 6.1 1.47 8.13z" fill="#008777"/><path d="M38.24 49.23s-.48 4.06 1.15 5.33 4.07 1.19 5.46-.18 1.19-3.51-.44-4.78c-1.63-1.26-6.17-.37-6.17-.37z" fill="#DEB366"/><path d="M39.37 50.11s-.1 3.29 1.05 4.19c1.16.9 2.95.79 4-.25s.97-2.61-.19-3.52c-1.15-.9-4.86-.42-4.86-.42z" fill="#0084FF"/><path d="M40.68 51.13s-.26 2.16.47 2.73 1.92.45 2.66-.28.74-1.78.01-2.35c-.73-.58-3.14-.1-3.14-.1z" fill="#2B1FA6"/><path d="M49.13 64.62c1.96 1.17 4.64 1.72 6.43.24.03-.02.06-.05.09-.07 1.72-1.5.96-3.91-.34-5.59-1.99-2.56-6.26-.51-6.95-.71.15.65-2.07 4.43.77 6.13z" fill="#00717D"/><path d="M50.29 60.22s-.52 3 .64 4.02 2.97 1.08 4.06.13 1.03-2.55-.13-3.57c-1.15-1.03-4.57-.58-4.57-.58z" fill="#DEB366"/><path d="M51.1 60.92s-.21 2.44.61 3.17 2.16.73 2.98.01.83-1.9 0-2.62c-.82-.73-3.59-.56-3.59-.56z" fill="#0084FF"/><path d="M52.03 61.75s-.28 1.59.24 2.05 1.41.43 1.99-.08.62-1.29.1-1.75-2.33-.22-2.33-.22z" fill="#2B1FA6"/><path d="M22.99 40.48c2.38 2.4 6.13 4.13 9.49 2.54.05-.03.11-.05.16-.08 3.26-1.65 3.24-5.47 2.07-8.4-1.79-4.47-9.11-2.87-10.05-3.4-.06 1.01-5.11 5.86-1.67 9.34z" fill="#00B5A9"/><path d="M26.77 34.34s-2.16 4.27-.9 6.18 3.94 2.61 6 1.57 2.71-3.44 1.45-5.35c-1.25-1.91-6.55-2.4-6.55-2.4z" fill="#DEB366"/><path d="M27.64 35.66s-1.44 3.55-.55 4.91 2.88 1.81 4.45 1.02c1.56-.79 2.11-2.54 1.22-3.89-.89-1.36-5.12-2.04-5.12-2.04z" fill="#0084FF"/><path d="M28.65 37.2s-1.15 2.27-.59 3.13c.57.86 1.91 1.11 3.01.56 1.09-.55 1.52-1.7.96-2.56-.57-.87-3.38-1.13-3.38-1.13z" fill="#2B1FA6"/><path d="M14.98 53.95c2.84 1.7 6.75 2.47 9.38.28.04-.04.09-.07.13-.11 2.51-2.22 1.44-5.73-.45-8.17-2.88-3.73-9.12-.67-10.13-.95.21.95-3.05 6.49 1.07 8.95z" fill="#00B5A9"/><path d="M16.71 47.49s-.78 4.39.9 5.88c1.68 1.48 4.33 1.55 5.92.15s1.52-3.75-.16-5.23c-1.68-1.49-6.66-.8-6.66-.8z" fill="#DEB366"/><path d="M17.88 48.52s-.32 3.58.87 4.63 3.14 1.04 4.35-.02c1.21-1.07 1.22-2.79.03-3.84-1.2-1.06-5.25-.77-5.25-.77z" fill="#0084FF"/><path d="M19.23 49.71s-.42 2.33.34 3 2.05.61 2.9-.14c.84-.75.92-1.89.16-2.56s-3.4-.3-3.4-.3z" fill="#2B1FA6"/><path d="M30.29 65.81c2.62 1.56 6.21 2.27 8.62.26.04-.03.08-.06.12-.1 2.31-2.04 1.32-5.27-.42-7.52-2.65-3.43-8.39-.61-9.31-.88.2.88-2.8 5.98.99 8.24z" fill="#008777"/><path d="M31.88 59.87s-.72 4.04.83 5.41c1.54 1.36 3.98 1.42 5.44.14 1.46-1.29 1.39-3.45-.15-4.81-1.54-1.38-6.12-.74-6.12-.74z" fill="#DEB366"/><path d="M32.96 60.81s-.3 3.29.8 4.26 2.89.96 4-.02 1.12-2.56.02-3.53-4.82-.71-4.82-.71z" fill="#0084FF"/><path d="M34.2 61.91s-.39 2.14.31 2.76 1.89.56 2.67-.13.84-1.74.15-2.36c-.7-.61-3.13-.27-3.13-.27z" fill="#2B1FA6"/><path d="M43.08 73.63c1.8 1.07 4.27 1.56 5.92.18a.5.5 0 0 0 .08-.07c1.59-1.4.91-3.62-.29-5.16-1.82-2.35-5.76-.42-6.4-.6.15.59-1.91 4.1.69 5.65z" fill="#00717D"/><path d="M44.17 69.55s-.49 2.77.57 3.71 2.73.98 3.74.09c1-.89.96-2.37-.1-3.3-1.06-.94-4.21-.5-4.21-.5z" fill="#DEB366"/><path d="M44.91 70.2s-.2 2.26.55 2.93 1.98.66 2.75-.01c.76-.67.77-1.76.02-2.43-.76-.67-3.32-.49-3.32-.49z" fill="#0084FF"/><path d="M45.76 70.95s-.27 1.47.21 1.9c.48.42 1.3.38 1.83-.09s.58-1.2.1-1.62c-.47-.42-2.14-.19-2.14-.19z" fill="#2B1FA6"/><path d="M9.45 71.68c3.38 1.03 7.55.87 9.52-1.95.03-.05.07-.09.1-.14 1.85-2.83-.3-6.11-2.95-8.11-4.03-3.06-9.38 1.5-10.48 1.45.51.9-1.08 7.26 3.81 8.75z" fill="#00B5A9"/><path d="M9.22 64.77s.56 4.6 2.7 5.7c2.14 1.09 4.83.53 6-1.26s.38-4.13-1.76-5.22c-2.14-1.1-6.94.78-6.94.78z" fill="#DEB366"/><path d="M10.71 65.52s.77 3.68 2.29 4.45c1.52.78 3.48.3 4.37-1.06s.38-3.1-1.15-3.87c-1.52-.77-5.51.48-5.51.48z" fill="#0084FF"/><path d="M12.43 66.4s.29 2.45 1.25 2.94c.97.49 2.25.12 2.88-.83.62-.95.34-2.12-.62-2.62-.96-.49-3.51.51-3.51.51z" fill="#2B1FA6"/><path d="M24.37 78.74c3.11.95 6.94.8 8.76-1.79.03-.04.06-.08.09-.13 1.7-2.61-.28-5.62-2.71-7.46-3.71-2.82-8.62 1.38-9.64 1.34.46.82-1 6.67 3.5 8.04z" fill="#008777"/><path d="M24.16 72.39s.51 4.24 2.48 5.24 4.44.49 5.52-1.16.35-3.8-1.62-4.8c-1.97-1.02-6.38.72-6.38.72z" fill="#DEB366"/><path d="M25.52 73.08s.7 3.38 2.1 4.1c1.4.71 3.2.28 4.02-.97s.35-2.85-1.05-3.56c-1.4-.72-5.07.43-5.07.43z" fill="#0084FF"/><path d="M27.11 73.89s.26 2.25 1.15 2.7 2.07.11 2.64-.76c.57-.88.32-1.95-.57-2.41-.88-.45-3.22.47-3.22.47z" fill="#2B1FA6"/><path d="M40.65 83.85c2.08.63 4.65.54 5.87-1.2.02-.03.04-.06.06-.08 1.14-1.75-.19-3.76-1.82-5-2.49-1.89-5.78.92-6.46.9.31.54-.67 4.46 2.35 5.38z" fill="#00717D"/><path d="M40.51 79.59s.34 2.84 1.66 3.51 2.98.33 3.7-.78c.72-1.1.24-2.55-1.09-3.22-1.32-.67-4.27.49-4.27.49z" fill="#DEB366"/><path d="M41.42 80.05s.47 2.27 1.41 2.75 2.14.19 2.69-.65.23-1.91-.71-2.39c-.93-.48-3.39.29-3.39.29z" fill="#0084FF"/><path d="M42.48 80.6s.18 1.51.77 1.81c.6.3 1.39.07 1.77-.51.38-.59.21-1.31-.38-1.61-.59-.31-2.16.31-2.16.31z" fill="#2B1FA6"/><path d="M10.7 89.17c2.99.1 6.29-.91 7.1-3.6.01-.04.03-.09.04-.13.71-2.67-1.91-4.83-4.59-5.87-4.07-1.59-7.1 3.21-8 3.4.65.62 1.12 6.05 5.45 6.2z" fill="#00B5A9"/><path d="M8.62 83.68s1.71 3.57 3.72 3.99c2.02.42 4.01-.61 4.46-2.29.45-1.69-.82-3.39-2.84-3.81-2.01-.42-5.34 2.11-5.34 2.11z" fill="#DEB366"/><path d="M10.02 83.97s1.62 2.78 3.05 3.08 2.87-.5 3.21-1.78-.55-2.56-1.98-2.86-4.28 1.56-4.28 1.56z" fill="#0084FF"/><path d="M11.65 84.3s.9 1.9 1.81 2.09 1.84-.38 2.08-1.28-.31-1.78-1.22-1.96c-.91-.19-2.67 1.15-2.67 1.15z" fill="#2B1FA6"/><path d="M24.59 91.65c2.75.09 5.78-.84 6.53-3.31.01-.04.03-.08.04-.12.65-2.45-1.76-4.44-4.22-5.4-3.75-1.47-6.54 2.95-7.36 3.13.59.56 1.03 5.56 5.01 5.7z" fill="#008777"/><path d="M22.68 86.59s1.57 3.29 3.43 3.67c1.85.38 3.69-.56 4.11-2.11.41-1.55-.76-3.12-2.61-3.51-1.87-.38-4.93 1.95-4.93 1.95z" fill="#DEB366"/><path d="M23.97 86.86s1.49 2.56 2.81 2.83 2.64-.46 2.95-1.64-.5-2.36-1.82-2.63-3.94 1.44-3.94 1.44z" fill="#0084FF"/><path d="M25.46 87.17s.83 1.75 1.66 1.92c.84.17 1.69-.35 1.91-1.18.22-.82-.28-1.63-1.12-1.81-.83-.17-2.45 1.07-2.45 1.07z" fill="#2B1FA6"/><path d="M41.22 93.51c2.19.08 4.61-.67 5.2-2.63.01-.03.02-.06.03-.1.52-1.95-1.4-3.54-3.36-4.3-2.98-1.17-5.2 2.35-5.86 2.49.47.45.81 4.44 3.99 4.54z" fill="#00717D"/><path d="M39.7 89.49s1.25 2.62 2.73 2.92c1.48.31 2.94-.45 3.27-1.68.33-1.24-.6-2.48-2.08-2.79-1.49-.31-3.92 1.55-3.92 1.55z" fill="#DEB366"/><path d="M40.72 89.7s1.19 2.04 2.24 2.26 2.1-.37 2.35-1.3c.25-.94-.4-1.88-1.45-2.09-1.05-.23-3.14 1.13-3.14 1.13z" fill="#0084FF"/><path d="M41.91 89.95s.66 1.39 1.33 1.53 1.35-.28 1.52-.94-.22-1.3-.89-1.44-1.96.85-1.96.85z" fill="#2B1FA6"/><path d="M15.09 105.44c2.66-.6 5.26-2.25 5.18-4.79v-.12c-.16-2.51-3.1-3.81-5.76-4.11-4.05-.47-5.31 4.45-6.04 4.83.76.38 2.77 5.05 6.62 4.19z" fill="#00B5A9"/><path d="M11.65 101.09s2.55 2.75 4.45 2.65 3.35-1.46 3.25-3.04c-.1-1.59-1.72-2.79-3.62-2.7s-4.08 3.09-4.08 3.09z" fill="#DEB366"/><path d="M12.96 101.02s2.25 2.08 3.59 2.01c1.35-.07 2.38-1.1 2.3-2.3-.08-1.21-1.23-2.13-2.58-2.06-1.34.06-3.31 2.35-3.31 2.35z" fill="#0084FF"/><path d="M14.49 100.94s1.35 1.46 2.21 1.42 1.5-.76 1.45-1.6-.79-1.49-1.65-1.45c-.85.04-2.01 1.63-2.01 1.63z" fill="#2B1FA6"/><path d="M28.04 104.43c2.45-.55 4.84-2.07 4.77-4.41v-.11c-.15-2.31-2.86-3.5-5.3-3.78-3.73-.43-4.88 4.09-5.55 4.44.68.35 2.53 4.65 6.08 3.86z" fill="#008777"/><path d="M24.87 100.42s2.35 2.53 4.09 2.44 3.08-1.34 2.99-2.8-1.59-2.57-3.33-2.48-3.75 2.84-3.75 2.84z" fill="#DEB366"/><path d="M26.08 100.36s2.07 1.91 3.3 1.85c1.24-.06 2.19-1.01 2.12-2.12s-1.13-1.96-2.37-1.89c-1.24.05-3.05 2.16-3.05 2.16z" fill="#0084FF"/><path d="M27.49 100.29s1.24 1.35 2.03 1.31 1.38-.7 1.33-1.47c-.05-.78-.73-1.37-1.52-1.33-.78.03-1.84 1.49-1.84 1.49z" fill="#2B1FA6"/><path d="M44.08 103.41c2.23-.5 4.42-1.89 4.35-4.03v-.1c-.14-2.11-2.61-3.2-4.84-3.45-3.4-.39-4.46 3.74-5.07 4.06.64.32 2.33 4.25 5.56 3.52z" fill="#00717D"/><path d="M41.19 99.76s2.14 2.31 3.74 2.23c1.59-.08 2.81-1.22 2.73-2.55-.09-1.33-1.45-2.35-3.04-2.27-1.6.07-3.43 2.59-3.43 2.59z" fill="#DEB366"/><path d="M42.29 99.7s1.89 1.74 3.02 1.69c1.13-.06 2-.92 1.93-1.93s-1.04-1.79-2.17-1.73c-1.13.05-2.78 1.97-2.78 1.97z" fill="#0084FF"/><path d="M43.58 99.63s1.13 1.23 1.85 1.19 1.26-.64 1.22-1.35c-.05-.71-.67-1.25-1.38-1.22-.72.05-1.69 1.38-1.69 1.38z" fill="#2B1FA6"/><path d="M25.1 117.92c2.21-1.16 4.05-3.23 3.2-5.46-.01-.04-.03-.07-.04-.11-.91-2.18-3.96-2.63-6.45-2.27-3.79.55-3.42 5.18-3.96 5.69.81.17 4.05 3.83 7.25 2.15z" fill="#00B5A9"/><path d="M20.67 114.89s3.14 1.82 4.82 1.29 2.57-2.08 2-3.45c-.58-1.38-2.41-2.06-4.09-1.53s-2.73 3.69-2.73 3.69z" fill="#DEB366"/><path d="M21.83 114.52s2.66 1.3 3.85.92 1.8-1.53 1.37-2.58c-.44-1.05-1.76-1.59-2.95-1.21-1.2.39-2.27 2.87-2.27 2.87z" fill="#0084FF"/><path d="M23.19 114.09s1.66.97 2.42.73 1.12-1.03.82-1.76a1.609 1.609 0 0 0-1.93-.89c-.76.25-1.31 1.92-1.31 1.92z" fill="#2B1FA6"/><path d="M36.45 113.97c2.04-1.06 3.73-2.97 2.95-5.02-.01-.03-.02-.07-.04-.1-.84-2-3.64-2.42-5.93-2.09-3.49.5-3.14 4.77-3.64 5.24.73.15 3.71 3.51 6.66 1.97z" fill="#008777"/><path d="M32.37 111.18s2.89 1.68 4.43 1.19 2.37-1.91 1.84-3.18-2.21-1.9-3.76-1.41c-1.54.49-2.51 3.4-2.51 3.4z" fill="#DEB366"/><path d="M33.44 110.84s2.44 1.2 3.54.85 1.66-1.41 1.26-2.37-1.62-1.46-2.72-1.11c-1.09.34-2.08 2.63-2.08 2.63z" fill="#0084FF"/><path d="M34.69 110.44s1.53.89 2.23.67 1.03-.94.75-1.62c-.28-.67-1.08-1.04-1.77-.82-.7.23-1.21 1.77-1.21 1.77z" fill="#2B1FA6"/><path d="M50.71 110.01c1.86-.97 3.4-2.71 2.69-4.58l-.03-.09c-.77-1.83-3.32-2.21-5.41-1.91-3.18.46-2.87 4.35-3.33 4.78.66.14 3.39 3.21 6.08 1.8z" fill="#00717D"/><path d="M46.99 107.47s2.64 1.53 4.05 1.08 2.16-1.75 1.68-2.9c-.48-1.16-2.02-1.73-3.43-1.28-1.42.44-2.3 3.1-2.3 3.1z" fill="#DEB366"/><path d="M47.96 107.15s2.23 1.09 3.23.78c1-.32 1.51-1.29 1.15-2.16-.37-.88-1.48-1.33-2.48-1.01-1 .31-1.9 2.39-1.9 2.39z" fill="#0084FF"/><path d="M49.1 106.79s1.4.82 2.03.61c.64-.2.94-.86.69-1.48-.26-.61-.98-.95-1.62-.75-.64.22-1.1 1.62-1.1 1.62z" fill="#2B1FA6"/><path d="M89.14 31.01c-1.95 2.85-5.46 5.22-9.26 4.13-.06-.02-.12-.03-.19-.05-3.72-1.17-4.51-5.09-3.93-8.29.89-4.88 8.79-4.41 9.65-5.11.3 1.03 6.55 5.2 3.73 9.32z" fill="#00B5A9"/><path d="M83.93 25.32s3.14 4.04 2.25 6.2-3.51 3.31-5.86 2.58c-2.35-.74-3.53-3.09-2.64-5.25.89-2.17 6.25-3.53 6.25-3.53z" fill="#DEB366"/><path d="M83.31 26.82s2.24 3.41 1.61 4.95c-.63 1.53-2.59 2.32-4.37 1.76s-2.72-2.26-2.09-3.8 4.85-2.91 4.85-2.91z" fill="#0084FF"/><path d="M82.6 28.56s1.67 2.14 1.27 3.11-1.74 1.45-2.99 1.05c-1.25-.39-1.93-1.5-1.53-2.48.4-.97 3.25-1.68 3.25-1.68z" fill="#2B1FA6"/><path d="M82.28 45.72c-1.72 2.26-4.7 4.07-7.75 3.04-.05-.02-.1-.03-.15-.05-2.98-1.09-3.45-4.32-2.83-6.91.95-3.95 7.39-3.28 8.12-3.82.19.85 5.1 4.47 2.61 7.74z" fill="#008777"/><path d="M78.29 40.89s2.38 3.41 1.55 5.14-3.02 2.58-4.91 1.89c-1.88-.69-2.74-2.65-1.91-4.39.83-1.73 5.27-2.64 5.27-2.64z" fill="#DEB366"/><path d="M77.72 42.08s1.68 2.87 1.09 4.1-2.22 1.81-3.65 1.28c-1.43-.52-2.12-1.95-1.53-3.18.58-1.22 4.09-2.2 4.09-2.2z" fill="#0084FF"/><path d="M77.05 43.48s1.27 1.81.89 2.59c-.37.78-1.49 1.12-2.49.75s-1.51-1.3-1.14-2.08c.38-.78 2.74-1.26 2.74-1.26z" fill="#2B1FA6"/><path d="M91 55.23c-2.71 1.4-6.35 1.9-8.65-.24-.04-.03-.08-.07-.11-.1-2.19-2.16-1.01-5.32.86-7.45 2.86-3.26 8.43-.13 9.37-.34-.24.85 2.46 6.1-1.47 8.13z" fill="#008777"/><path d="M89.76 49.23s.48 4.06-1.15 5.33-4.07 1.19-5.46-.18-1.19-3.51.44-4.78c1.63-1.26 6.17-.37 6.17-.37z" fill="#DEB366"/><path d="M88.63 50.11s.1 3.29-1.05 4.19c-1.16.9-2.95.79-4-.25s-.97-2.61.19-3.52c1.15-.9 4.86-.42 4.86-.42z" fill="#0084FF"/><path d="M87.32 51.13s.26 2.16-.47 2.73-1.92.45-2.66-.28-.74-1.78-.01-2.35c.73-.58 3.14-.1 3.14-.1z" fill="#2B1FA6"/><path d="M77.84 63.31c-2.07.96-4.8 1.23-6.42-.42l-.08-.08c-1.55-1.67-.55-3.98.92-5.52 2.25-2.34 6.28.15 6.99.02-.23.62 1.59 4.61-1.41 6z" fill="#00717D"/><path d="M77.14 58.81s.2 3.03-1.05 3.93c-1.26.9-3.07.77-4.05-.29s-.76-2.64.5-3.54c1.25-.9 4.6-.1 4.6-.1z" fill="#DEB366"/><path d="M76.27 59.43s-.05 2.45-.94 3.09-2.22.5-2.97-.3-.62-1.97.27-2.61 3.64-.18 3.64-.18z" fill="#0084FF"/><path d="M75.25 60.16s.11 1.61-.45 2.02c-.57.4-1.45.28-1.97-.28s-.48-1.35.08-1.75c.57-.42 2.34.01 2.34.01z" fill="#2B1FA6"/><path d="M105.01 40.48c-2.38 2.4-6.13 4.13-9.49 2.54-.05-.03-.11-.05-.16-.08-3.26-1.65-3.24-5.47-2.07-8.4 1.79-4.47 9.11-2.87 10.05-3.4.06 1.01 5.11 5.86 1.67 9.34z" fill="#00B5A9"/><path d="M101.23 34.34s2.16 4.27.9 6.18-3.94 2.61-6 1.57-2.71-3.44-1.45-5.35c1.25-1.91 6.55-2.4 6.55-2.4z" fill="#DEB366"/><path d="M100.36 35.66s1.44 3.55.55 4.91-2.88 1.81-4.45 1.02c-1.56-.79-2.11-2.54-1.22-3.89.89-1.36 5.12-2.04 5.12-2.04z" fill="#0084FF"/><path d="M99.35 37.2s1.15 2.27.59 3.13c-.57.86-1.91 1.11-3.01.56-1.09-.55-1.52-1.7-.96-2.56.57-.87 3.38-1.13 3.38-1.13z" fill="#2B1FA6"/><path d="M113.02 53.95c-2.84 1.7-6.75 2.47-9.38.28-.04-.04-.09-.07-.13-.11-2.51-2.22-1.44-5.73.45-8.17 2.88-3.73 9.12-.67 10.13-.95-.21.95 3.05 6.49-1.07 8.95z" fill="#00B5A9"/><path d="M111.29 47.49s.78 4.39-.9 5.88c-1.68 1.48-4.33 1.55-5.92.15s-1.52-3.75.16-5.23c1.68-1.49 6.66-.8 6.66-.8z" fill="#DEB366"/><path d="M110.12 48.52s.32 3.58-.87 4.63-3.14 1.04-4.35-.02c-1.21-1.07-1.22-2.79-.03-3.84 1.2-1.06 5.25-.77 5.25-.77z" fill="#0084FF"/><path d="M108.77 49.71s.42 2.33-.34 3-2.05.61-2.9-.14c-.84-.75-.92-1.89-.16-2.56s3.4-.3 3.4-.3z" fill="#2B1FA6"/><path d="M97.71 65.81c-2.62 1.56-6.21 2.27-8.62.26-.04-.03-.08-.06-.12-.1-2.31-2.04-1.32-5.27.42-7.52 2.65-3.43 8.39-.61 9.31-.88-.2.88 2.8 5.98-.99 8.24z" fill="#008777"/><path d="M96.12 59.87s.72 4.04-.83 5.41c-1.54 1.36-3.98 1.42-5.44.14-1.46-1.29-1.39-3.45.15-4.81 1.54-1.38 6.12-.74 6.12-.74z" fill="#DEB366"/><path d="M95.04 60.81s.3 3.29-.8 4.26-2.89.96-4-.02-1.12-2.56-.02-3.53 4.82-.71 4.82-.71z" fill="#0084FF"/><path d="M93.8 61.91s.39 2.14-.31 2.76-1.89.56-2.67-.13-.84-1.74-.15-2.36c.7-.61 3.13-.27 3.13-.27z" fill="#2B1FA6"/><path d="M83.79 74.28c-1.8 1.07-4.27 1.56-5.92.18a.5.5 0 0 1-.08-.07c-1.59-1.4-.91-3.62.29-5.16 1.82-2.35 5.76-.42 6.4-.6-.15.59 1.91 4.1-.69 5.65z" fill="#00717D"/><path d="M82.7 70.2s.49 2.77-.57 3.71-2.73.98-3.74.09c-1-.89-.96-2.37.1-3.3 1.06-.94 4.21-.5 4.21-.5z" fill="#DEB366"/><path d="M81.96 70.84s.2 2.26-.55 2.93-1.98.66-2.75-.01c-.76-.67-.77-1.76-.02-2.43.76-.67 3.32-.49 3.32-.49z" fill="#0084FF"/><path d="M81.1 71.6s.27 1.47-.21 1.9c-.48.42-1.3.38-1.83-.09s-.58-1.2-.1-1.62c.48-.43 2.14-.19 2.14-.19z" fill="#2B1FA6"/><path d="M118.55 71.68c-3.38 1.03-7.55.87-9.52-1.95-.03-.05-.07-.09-.1-.14-1.85-2.83.3-6.11 2.95-8.11 4.03-3.06 9.38 1.5 10.48 1.45-.51.9 1.08 7.26-3.81 8.75z" fill="#00B5A9"/><path d="M118.78 64.77s-.56 4.6-2.7 5.7c-2.14 1.09-4.83.53-6-1.26s-.38-4.13 1.76-5.22c2.14-1.1 6.94.78 6.94.78z" fill="#DEB366"/><path d="M117.29 65.52s-.77 3.68-2.29 4.45c-1.52.78-3.48.3-4.37-1.06s-.38-3.1 1.15-3.87c1.52-.77 5.51.48 5.51.48z" fill="#0084FF"/><path d="M115.57 66.4s-.29 2.45-1.25 2.94c-.97.49-2.25.12-2.88-.83-.62-.95-.34-2.12.62-2.62.96-.49 3.51.51 3.51.51z" fill="#2B1FA6"/><path d="M103.63 78.74c-3.11.95-6.94.8-8.76-1.79-.03-.04-.06-.08-.09-.13-1.7-2.61.28-5.62 2.71-7.46 3.71-2.82 8.62 1.38 9.64 1.34-.46.82 1 6.67-3.5 8.04z" fill="#008777"/><path d="M103.84 72.39s-.51 4.24-2.48 5.24-4.44.49-5.52-1.16-.35-3.8 1.62-4.8c1.97-1.02 6.38.72 6.38.72z" fill="#DEB366"/><path d="M102.48 73.08s-.7 3.38-2.1 4.1c-1.4.71-3.2.28-4.02-.97s-.35-2.85 1.05-3.56c1.4-.72 5.07.43 5.07.43z" fill="#0084FF"/><path d="M100.89 73.89s-.26 2.25-1.15 2.7-2.07.11-2.64-.76c-.57-.88-.32-1.95.57-2.41.88-.45 3.22.47 3.22.47z" fill="#2B1FA6"/><path d="M87.35 83.85c-2.08.63-4.65.54-5.87-1.2a.555.555 0 0 0-.06-.08c-1.14-1.75.19-3.76 1.82-5 2.49-1.89 5.78.92 6.46.9-.31.54.67 4.46-2.35 5.38z" fill="#00717D"/><path d="M87.49 79.59s-.34 2.84-1.66 3.51-2.98.33-3.7-.78c-.72-1.1-.24-2.55 1.09-3.22 1.32-.67 4.27.49 4.27.49z" fill="#DEB366"/><path d="M86.58 80.05s-.47 2.27-1.41 2.75-2.14.19-2.69-.65-.23-1.91.71-2.39c.93-.48 3.39.29 3.39.29z" fill="#0084FF"/><path d="M85.52 80.6s-.18 1.51-.77 1.81c-.6.3-1.39.07-1.77-.51-.38-.59-.21-1.31.38-1.61.59-.31 2.16.31 2.16.31z" fill="#2B1FA6"/><path d="M117.3 89.17c-2.99.1-6.29-.91-7.1-3.6-.01-.04-.03-.09-.04-.13-.71-2.67 1.91-4.83 4.59-5.87 4.07-1.59 7.1 3.21 8 3.4-.65.62-1.12 6.05-5.45 6.2z" fill="#00B5A9"/><path d="M119.38 83.68s-1.71 3.57-3.72 3.99c-2.02.42-4.01-.61-4.46-2.29-.45-1.69.82-3.39 2.84-3.81 2.01-.42 5.34 2.11 5.34 2.11z" fill="#DEB366"/><path d="M117.98 83.97s-1.62 2.78-3.05 3.08-2.87-.5-3.21-1.78.55-2.56 1.98-2.86 4.28 1.56 4.28 1.56z" fill="#0084FF"/><path d="M116.35 84.3s-.9 1.9-1.81 2.09-1.84-.38-2.08-1.28.31-1.78 1.22-1.96c.91-.19 2.67 1.15 2.67 1.15z" fill="#2B1FA6"/><path d="M103.41 91.65c-2.75.09-5.78-.84-6.53-3.31-.01-.04-.03-.08-.04-.12-.65-2.45 1.76-4.44 4.22-5.4 3.75-1.47 6.54 2.95 7.36 3.13-.59.56-1.03 5.56-5.01 5.7z" fill="#008777"/><path d="M105.32 86.59s-1.57 3.29-3.43 3.67c-1.85.38-3.69-.56-4.11-2.11-.41-1.55.76-3.12 2.61-3.51 1.87-.38 4.93 1.95 4.93 1.95z" fill="#DEB366"/><path d="M104.03 86.86s-1.49 2.56-2.81 2.83-2.64-.46-2.95-1.64.5-2.36 1.82-2.63 3.94 1.44 3.94 1.44z" fill="#0084FF"/><path d="M102.54 87.17s-.83 1.75-1.66 1.92c-.84.17-1.69-.35-1.91-1.18-.22-.82.28-1.63 1.12-1.81.83-.17 2.45 1.07 2.45 1.07z" fill="#2B1FA6"/><path d="M86.78 93.51c-2.19.08-4.61-.67-5.2-2.63-.01-.03-.02-.06-.03-.1-.52-1.95 1.4-3.54 3.36-4.3 2.98-1.17 5.2 2.35 5.86 2.49-.47.45-.81 4.44-3.99 4.54z" fill="#00717D"/><path d="M88.3 89.49s-1.25 2.62-2.73 2.92c-1.48.31-2.94-.45-3.27-1.68-.33-1.24.6-2.48 2.08-2.79 1.49-.31 3.92 1.55 3.92 1.55z" fill="#DEB366"/><path d="M87.28 89.7s-1.19 2.04-2.24 2.26-2.1-.37-2.35-1.3c-.25-.94.4-1.88 1.45-2.09 1.05-.23 3.14 1.13 3.14 1.13z" fill="#0084FF"/><path d="M86.09 89.95s-.66 1.39-1.33 1.53-1.35-.28-1.52-.94.22-1.3.89-1.44 1.96.85 1.96.85z" fill="#2B1FA6"/><path d="M112.91 105.44c-2.66-.6-5.26-2.25-5.18-4.79v-.12c.16-2.51 3.1-3.81 5.76-4.11 4.05-.47 5.31 4.45 6.04 4.83-.76.38-2.77 5.05-6.62 4.19z" fill="#00B5A9"/><path d="M116.35 101.09s-2.55 2.75-4.45 2.65-3.35-1.46-3.25-3.04c.1-1.59 1.72-2.79 3.62-2.7s4.08 3.09 4.08 3.09z" fill="#DEB366"/><path d="M115.04 101.02s-2.25 2.08-3.59 2.01c-1.35-.07-2.38-1.1-2.3-2.3.08-1.21 1.23-2.13 2.58-2.06 1.34.06 3.31 2.35 3.31 2.35z" fill="#0084FF"/><path d="M113.51 100.94s-1.35 1.46-2.21 1.42-1.5-.76-1.45-1.6.79-1.49 1.65-1.45c.85.04 2.01 1.63 2.01 1.63z" fill="#2B1FA6"/><path d="M99.96 104.43c-2.45-.55-4.84-2.07-4.77-4.41v-.11c.15-2.31 2.86-3.5 5.3-3.78 3.73-.43 4.88 4.09 5.55 4.44-.68.35-2.53 4.65-6.08 3.86z" fill="#008777"/><path d="M103.13 100.42s-2.35 2.53-4.09 2.44-3.08-1.34-2.99-2.8 1.59-2.57 3.33-2.48 3.75 2.84 3.75 2.84z" fill="#DEB366"/><path d="M101.92 100.36s-2.07 1.91-3.3 1.85c-1.24-.06-2.19-1.01-2.12-2.12s1.13-1.96 2.37-1.89c1.24.05 3.05 2.16 3.05 2.16z" fill="#0084FF"/><path d="M100.51 100.29s-1.24 1.35-2.03 1.31-1.38-.7-1.33-1.47c.05-.78.73-1.37 1.52-1.33.78.03 1.84 1.49 1.84 1.49z" fill="#2B1FA6"/><path d="M83.92 103.41c-2.23-.5-4.42-1.89-4.35-4.03v-.1c.14-2.11 2.61-3.2 4.84-3.45 3.4-.39 4.46 3.74 5.07 4.06-.64.32-2.33 4.25-5.56 3.52z" fill="#00717D"/><path d="M86.81 99.76s-2.14 2.31-3.74 2.23c-1.59-.08-2.81-1.22-2.73-2.55.09-1.33 1.45-2.35 3.04-2.27 1.6.07 3.43 2.59 3.43 2.59z" fill="#DEB366"/><path d="M85.71 99.7s-1.89 1.74-3.02 1.69c-1.13-.06-2-.92-1.93-1.93s1.04-1.79 2.17-1.73c1.13.05 2.78 1.97 2.78 1.97z" fill="#0084FF"/><path d="M84.42 99.63s-1.13 1.23-1.85 1.19-1.26-.64-1.22-1.35c.05-.71.67-1.25 1.38-1.22.72.05 1.69 1.38 1.69 1.38z" fill="#2B1FA6"/><path d="M102.9 117.92c-2.21-1.16-4.05-3.23-3.2-5.46.01-.04.03-.07.04-.11.91-2.18 3.96-2.63 6.45-2.27 3.79.55 3.42 5.18 3.96 5.69-.81.17-4.05 3.83-7.25 2.15z" fill="#00B5A9"/><path d="M107.33 114.89s-3.14 1.82-4.82 1.29-2.57-2.08-2-3.45c.58-1.38 2.41-2.06 4.09-1.53s2.73 3.69 2.73 3.69z" fill="#DEB366"/><path d="M106.17 114.52s-2.66 1.3-3.85.92-1.8-1.53-1.37-2.58c.44-1.05 1.76-1.59 2.95-1.21 1.2.39 2.27 2.87 2.27 2.87z" fill="#0084FF"/><path d="M104.81 114.09s-1.66.97-2.42.73-1.12-1.03-.82-1.76c.31-.73 1.17-1.13 1.93-.89.76.25 1.31 1.92 1.31 1.92z" fill="#2B1FA6"/><path d="M91.55 113.97c-2.04-1.06-3.73-2.97-2.95-5.02.01-.03.02-.07.04-.1.84-2 3.64-2.42 5.93-2.09 3.49.5 3.14 4.77 3.64 5.24-.73.15-3.71 3.51-6.66 1.97z" fill="#008777"/><path d="M95.63 111.18s-2.89 1.68-4.43 1.19-2.37-1.91-1.84-3.18 2.21-1.9 3.76-1.41c1.54.49 2.51 3.4 2.51 3.4z" fill="#DEB366"/><path d="M94.56 110.84s-2.44 1.2-3.54.85-1.66-1.41-1.26-2.37 1.62-1.46 2.72-1.11c1.09.34 2.08 2.63 2.08 2.63z" fill="#0084FF"/><path d="M93.31 110.44s-1.53.89-2.23.67-1.03-.94-.75-1.62c.28-.67 1.08-1.04 1.77-.82.7.23 1.21 1.77 1.21 1.77z" fill="#2B1FA6"/><path d="M78.26 110.01c-1.86-.97-3.4-2.71-2.69-4.58l.03-.09c.77-1.83 3.32-2.21 5.41-1.91 3.18.46 2.87 4.35 3.33 4.78-.66.14-3.38 3.21-6.08 1.8z" fill="#00717D"/><path d="M81.98 107.47s-2.64 1.53-4.05 1.08-2.16-1.75-1.68-2.9c.48-1.16 2.02-1.73 3.43-1.28 1.42.44 2.3 3.1 2.3 3.1z" fill="#DEB366"/><path d="M81.01 107.15s-2.23 1.09-3.23.78c-1-.32-1.51-1.29-1.15-2.16.37-.88 1.48-1.33 2.48-1.01 1 .31 1.9 2.39 1.9 2.39z" fill="#0084FF"/><path d="M79.87 106.79s-1.4.82-2.03.61c-.64-.2-.94-.86-.69-1.48.26-.61.98-.95 1.62-.75.64.22 1.1 1.62 1.1 1.62z" fill="#2B1FA6"/><path d="M70.41 118.13l5.92 1.48.09-.35-7.32-2.77h.03c-.97-4.97-.91-9.66-.3-12.3-.94-3.14.36-7.96 1.73-11.71l-5.67 2.7c2.08 2.44 2.33 5.88.83 9.01 1.13 2.57 2.72 7.93 2 12.5-.01.01-.03.01-.04.01l-3.71 3.88-3.71-3.88c-.73-4.57.86-9.94 2-12.52-1.5-3.12-1.25-6.57.83-9.01l-5.67-2.7c1.37 3.75 2.67 8.57 1.73 11.71.61 2.64.67 7.33-.3 12.3l-7.34 2.77.09.35 5.92-1.48c.26-.06.47.21.34.44L55 123.74l.31.12 4.49-5.34c.1-.12.27-.14.4-.06l3.73 2.54.03.05.02-.01.02.01.03-.05 3.73-2.54c.13-.09.3-.06.4.06l4.49 5.34.31-.12-2.89-5.17c-.13-.23.08-.51.34-.44z" fill="#EDA800"/><linearGradient id="b" x1="59.521" x2="59.521" y1="96.045" y2="103.21" gradientUnits="userSpaceOnUse"><stop offset="0"/><stop stop-color="#17316E" offset=".375"/></linearGradient><path d="M63.11 98.64s-.19 4.36-1.13 5.11c-.94.76-2.12.71-3.1 0s-2.93-8.69-2.93-8.69l7.16 3.58z" fill="url(#b)"/><linearGradient id="c" x1="68.479" x2="68.479" y1="95.025" y2="103.81" gradientUnits="userSpaceOnUse"><stop offset="0"/><stop stop-color="#17316E" offset=".375"/></linearGradient><path d="M64.89 98.64s.19 4.36 1.13 5.11c.94.76 2.12.71 3.1 0s2.93-8.69 2.93-8.69l-7.16 3.58z" fill="url(#c)"/><path d="M65.69 33.72a.96.96 0 0 0 .04 1.35c.39.36.99.34 1.35-.04s.34-.99-.04-1.35-.99-.34-1.35.04z"/><path d="M66.86 34.63c-.51.13-.82.65-.69 1.17.13.51.65.82 1.17.68.51-.13.82-.65.68-1.17a.95.95 0 0 0-1.16-.68z"/><path d="M64.87 33.86c-.27.45-.13 1.04.32 1.31s1.04.13 1.31-.32.13-1.04-.32-1.31a.947.947 0 0 0-1.31.32z"/><path d="M62.74 34.78c.34.2.69.44 1.05.72-.66 3.35-3 4.11-5.88 3.64l.83-.75c.39.1.82.12 1.27.02 1.27-.27 2.12-1.32 1.9-2.35a1.72 1.72 0 0 0-.14-.4l.97-.88z" fill="#D9D9D9"/><linearGradient id="d" x1="45.171" x2="61.937" y1="36.621" y2="36.621" gradientUnits="userSpaceOnUse"><stop stop-color="#E9F5CE" offset="0"/><stop stop-color="#E5F3CD" offset=".125"/><stop stop-color="#D8EECA" offset=".257"/><stop stop-color="#C3E5C6" offset=".392"/><stop stop-color="#A6D9C0" offset=".53"/><stop stop-color="#80C9B9" offset=".669"/><stop stop-color="#51B6B0" offset=".809"/><stop stop-color="#1BA0A5" offset=".948"/><stop stop-color="#0596A1" offset="1"/></linearGradient><path d="M61.94 34.36l-1.12.46c-.46-.2-1.02-.26-1.6-.14-.94.2-1.66.83-1.87 1.57L53.6 37.8l.76 1.61c-.33-.2-.7-.39-1.12-.55-3.31-1.3-5.91-1.89-8.07-1.07 1.24-2.15 4.73-3.38 8.43-3.2v1.97c1.93-.42 4.24-4.05 8.34-2.2z" fill="url(#d)"/><path d="M61.9 36.07c.22 1.03-.63 2.09-1.9 2.35-.44.09-.88.08-1.27-.02l3.02-2.73c.07.12.12.25.15.4zM61.76 35.66l-3.02 2.73c-.72-.19-1.28-.69-1.42-1.36-.06-.26-.04-.53.03-.78l3.47-1.43c.41.18.75.47.94.84z"/><path d="M60.82 34.82l-3.47 1.43c.21-.74.93-1.37 1.87-1.57.57-.12 1.13-.06 1.6.14z"/><path d="M53.6 34.58v1.97c1.93-.41 4.24-4.04 8.34-2.19l-1.12.46c.42.18.75.47.94.84l.98-.88c.34.2.69.44 1.05.72l3.23-2.46c-5.54-2.13-10.91-2.66-13.42 1.54z"/><linearGradient id="e" x1="63.774" x2="63.774" y1="32.5" y2="101.75" gradientUnits="userSpaceOnUse"><stop offset=".072"/><stop stop-color="#000506" offset=".159"/><stop stop-color="#011416" offset=".272"/><stop stop-color="#012D30" offset=".399"/><stop stop-color="#035055" offset=".535"/><stop stop-color="#047C84" offset=".678"/><stop stop-color="#0596A1" offset=".756"/><stop stop-color="#A9E022" offset="1"/></linearGradient><path d="M72.76 64.78c-1.7-4.06-3.5-8.19-4.15-12.48-1.29-8.5-1.59-19.26-1.59-19.26l-3.23 2.46c-.66 3.35-3 4.11-5.88 3.64l.83-.75c-.72-.19-1.28-.69-1.42-1.36-.06-.26-.04-.53.03-.78l-3.69 1.35.71 1.8c3.9 2.38 4.75 6.97 4.33 12.89-.62 8.67-6.42 15.73-8.09 24.1-1.12 5.64-1.25 12.05 1.24 17.37 2.22 4.73 6.58 7.35 11.78 7.34 8.31-.01 12.8-6 13.87-13.81.88-6.48-.99-12.88-3.27-18.88-.46-1.21-.96-2.42-1.47-3.63z" fill="url(#e)"/><path d="M66.28 30.71c-.53.56-.5 1.45.06 1.98s1.45.5 1.98-.06.5-1.45-.06-1.98c-.56-.54-1.45-.51-1.98.06z"/><path d="M67.99 32.03c-.75.19-1.2.96-1 1.71.19.75.96 1.2 1.71 1 .75-.19 1.2-.96 1-1.71-.2-.74-.96-1.19-1.71-1z"/><path d="M65.08 30.91a1.398 1.398 0 1 0 1.92-.47 1.39 1.39 0 0 0-1.92.47z"/><circle cx="60.38" cy="36.56" r="3.81" fill="#fff"/><circle cx="60.45" cy="36.55" r="1.6"/><path d="M66.37 34.99l-.29-.11c.48-1.21.66-2.5.82-3.76.26-1.93.52-3.94 1.92-5.74l.24.19c-1.34 1.74-1.6 3.7-1.86 5.59-.16 1.27-.33 2.58-.83 3.83z"/><path d="M65.95 35.02l.03-.31c1.3.11 2.59-.1 3.83-.3 1.93-.31 3.92-.64 6.05.18l-.11.29c-2.05-.79-4-.47-5.89-.16-1.27.2-2.58.41-3.91.3z"/><path d="M73.87 34.15c.3-.47 2.14-.5 2.63-.6.83-.18 1.5-.05 1.35 1.21-.29 2.54-2.78-.1-3.83-.22" fill="#0ff"/><path d="M66.24 34.89l-.06-.3c1.28-.24 2.46-.8 3.61-1.34 1.77-.83 3.6-1.69 5.87-1.48l-.03.31c-2.19-.19-3.98.65-5.71 1.46-1.16.53-2.36 1.1-3.68 1.35z"/><path d="M73.63 31.9c.16-.53 1.92-1.06 2.36-1.3.75-.4 1.43-.46 1.63.79.41 2.52-2.7.66-3.74.83" fill="#0ff"/><path d="M66.05 34.92l-.15-.27c1.14-.63 2.09-1.53 3-2.4 1.42-1.34 2.88-2.73 5.1-3.25l.07.3c-2.14.5-3.57 1.86-4.96 3.18-.92.87-1.89 1.79-3.06 2.44z"/><path d="M72.12 29.76c-.01-.56 1.49-1.61 1.84-1.98.59-.62 1.21-.88 1.8.24 1.19 2.27-2.36 1.48-3.29 1.97" fill="#0ff"/><path d="M66.5 34.84l-.24-.2c.84-.99 1.41-2.17 1.96-3.31.85-1.76 1.73-3.57 3.62-4.85l.17.26c-1.82 1.23-2.68 3-3.52 4.72-.55 1.17-1.13 2.36-1.99 3.38z"/><path d="M70.35 27.87c-.21-.52.82-2.03 1.02-2.5.33-.78.82-1.25 1.76-.41 1.91 1.7-1.68 2.22-2.38 3M67.83 27.16c-.36-.43.14-2.19.18-2.69.07-.85.39-1.45 1.54-.95 2.35 1.01-.9 2.63-1.32 3.6" fill="#0ff"/></svg>