<svg viewBox="0 0 128 128" width="128" height="128" xmlns="http://www.w3.org/2000/svg" xmlns:xlink="http://www.w3.org/1999/xlink"><linearGradient id="a" x1="179.62" x2="207.89" y1="-53.292" y2="-67.974" gradientTransform="scale(-1 1) rotate(-12.075 697.107 1351.551)" gradientUnits="userSpaceOnUse"><stop stop-color="#80FFEE" offset="0"/><stop stop-color="#85FCED" offset=".156"/><stop stop-color="#93F1E8" offset=".34"/><stop stop-color="#ABE1E1" offset=".539"/><stop stop-color="#CCC9D8" offset=".748"/><stop stop-color="#F7ACCB" offset=".962"/><stop stop-color="#FFA6C9" offset="1"/></linearGradient><path d="M96.81 87c-11.83 0-30.23-14.57-32.94-22.34-.85-2.44.16-3.24.49-3.51 1.4-1.11 3.83-1.7 7.03-1.7 5.66 0 13.29 1.87 19.93 4.89 7.22 3.28 12.32 7.45 13.99 11.43 1.3 3.1.56 6.1-2.2 8.91-1.5 1.55-3.62 2.32-6.3 2.32z" fill="url(#a)"/><path d="M71.39 60.17c11.61 0 29.83 7.7 33.26 15.89 1.2 2.85.52 5.51-2.05 8.13-1.36 1.39-3.31 2.09-5.79 2.09-11.34 0-29.68-14.45-32.26-21.85-.68-1.96.03-2.52.26-2.71 1.28-1.01 3.55-1.55 6.58-1.55m0-1.43c-3.21 0-5.86.58-7.47 1.86-6.61 5.25 18.29 27.12 32.89 27.12 2.72 0 5.08-.76 6.81-2.52 12.49-12.71-16.56-26.46-32.23-26.46z" fill="#55BFD9"/><g fill="none" stroke="#87CDDE" stroke-linecap="round" stroke-linejoin="round" stroke-miterlimit="10" stroke-width=".956"><path d="M103.21 82.83c-8.97-10.2-18.44-16.9-30.71-22.73-.28-.13-.6-.33-.58-.64.01-.31.64-.29.51-.01M96.32 86.14c-3.77-1.3-4.84-2.69-7.9-5.25a236.927 236.927 0 0 1-22.76-21.71l.49.34M96.1 85.69c-1-4.95-2.88-9.73-5.51-14.04"/></g><linearGradient id="b" x1="193.42" x2="236.03" y1="-122.28" y2="-82.166" gradientTransform="scale(-1 1) rotate(-14.277 661.84 1183.17)" gradientUnits="userSpaceOnUse"><stop stop-color="#80FFEE" offset="0"/><stop stop-color="#85FCED" offset=".156"/><stop stop-color="#93F1E8" offset=".34"/><stop stop-color="#ABE1E1" offset=".539"/><stop stop-color="#CCC9D8" offset=".748"/><stop stop-color="#F7ACCB" offset=".962"/><stop stop-color="#FFA6C9" offset="1"/></linearGradient><path d="M68.88 64.48c-4.84 0-7.75-1.07-8.19-3.02-.66-2.9.84-6.77 4.36-11.17C73.5 39.67 92.7 27.8 105.72 27.8c6.28 0 10.36 2.67 12.13 7.95.99 2.95.36 6.02-1.88 9.13-8.04 11.18-34.11 19.6-47.09 19.6z" fill="url(#b)"/><path d="M105.73 27.08v1.43c5.94 0 9.79 2.51 11.45 7.46.91 2.72.31 5.57-1.78 8.49-7.92 11.01-33.68 19.3-46.52 19.3-4.34 0-7.14-.92-7.5-2.46-.6-2.64.89-6.4 4.22-10.56 8.36-10.49 27.3-22.22 40.13-22.22v-1.44m-.01 0c-18.43 0-48.43 22.77-45.74 34.54.57 2.48 3.97 3.57 8.89 3.57 17.68 0 54.86-14.19 49.66-29.68-2.01-6.01-6.79-8.43-12.81-8.43z" fill="#55BFD9"/><g fill="none" stroke="#87CDDE" stroke-linecap="round" stroke-linejoin="round" stroke-miterlimit="10" stroke-width=".956"><path d="M113.6 31c-18.27 6.95-35.83 18.02-49.45 31.7M116.92 36.91c-15.38 12.46-32.65 21.47-51.93 26.91M98.24 29.81c-4.23 2.82-6.92 8.2-8.67 12.91M113.75 31.67c-4.72 3.95-8.3 9.17-10.26 14.94M91.42 53.37c-5.97 1.22-10.37 1.32-15.62-.61"/></g><linearGradient id="c" x1="1663.1" x2="1691.4" y1="264.08" y2="249.39" gradientTransform="rotate(-12.075 2.586 7918.056)" gradientUnits="userSpaceOnUse"><stop stop-color="#80FFEE" offset="0"/><stop stop-color="#85FCED" offset=".156"/><stop stop-color="#93F1E8" offset=".34"/><stop stop-color="#ABE1E1" offset=".539"/><stop stop-color="#CCC9D8" offset=".748"/><stop stop-color="#F7ACCB" offset=".962"/><stop stop-color="#FFA6C9" offset="1"/></linearGradient><path d="M31.19 87c-2.68 0-4.8-.78-6.3-2.31-2.76-2.81-3.5-5.81-2.2-8.91 1.67-3.99 6.77-8.15 13.99-11.43 6.64-3.02 14.28-4.89 19.93-4.89 3.19 0 5.62.59 7.03 1.7.33.26 1.35 1.07.49 3.51C61.42 72.43 43.01 87 31.19 87z" fill="url(#c)"/><path d="M56.61 60.17c3.03 0 5.3.54 6.58 1.55.23.19.95.75.26 2.71-2.58 7.41-20.92 21.85-32.26 21.85-2.48 0-4.42-.7-5.79-2.09-2.58-2.62-3.25-5.28-2.05-8.13 3.43-8.18 21.64-15.89 33.26-15.89m0-1.43c-15.67 0-44.71 13.75-32.23 26.46 1.73 1.76 4.09 2.52 6.81 2.52 14.6 0 39.51-21.87 32.89-27.12-1.61-1.28-4.26-1.86-7.47-1.86z" fill="#55BFD9"/><g fill="none" stroke="#87CDDE" stroke-linecap="round" stroke-linejoin="round" stroke-miterlimit="10" stroke-width=".956"><path d="M24.79 82.83c8.97-10.2 18.44-16.9 30.71-22.73.28-.13.6-.33.58-.64s-.64-.29-.51-.01M31.68 86.14c3.77-1.3 4.84-2.69 7.9-5.25 8.06-6.72 15.66-13.98 22.76-21.71l-.49.34M31.9 85.69c1-4.95 2.88-9.73 5.51-14.04"/></g><linearGradient id="d" x1="1664.2" x2="1706.8" y1="249.68" y2="289.79" gradientTransform="rotate(-14.28 -33.157 6729.016)" gradientUnits="userSpaceOnUse"><stop stop-color="#80FFEE" offset="0"/><stop stop-color="#85FCED" offset=".156"/><stop stop-color="#93F1E8" offset=".34"/><stop stop-color="#ABE1E1" offset=".539"/><stop stop-color="#CCC9D8" offset=".748"/><stop stop-color="#F7ACCB" offset=".962"/><stop stop-color="#FFA6C9" offset="1"/></linearGradient><path d="M59.13 62.26c-12.98 0-39.06-8.42-47.1-19.6-2.24-3.11-2.87-6.18-1.88-9.13 1.77-5.27 5.85-7.95 12.13-7.95 13.02 0 32.22 11.87 40.68 22.49 3.51 4.41 5.02 8.27 4.36 11.17-.44 1.95-3.35 3.02-8.19 3.02z" fill="url(#d)"/><path d="M22.28 26.3c12.82 0 31.76 11.73 40.12 22.22 3.33 4.17 4.82 7.92 4.22 10.57-.35 1.54-3.15 2.46-7.5 2.46-12.84 0-38.6-8.29-46.52-19.3-2.1-2.91-2.7-5.77-1.78-8.49 1.67-4.95 5.52-7.46 11.46-7.46m0-1.43c-6.01 0-10.79 2.42-12.81 8.44-5.2 15.49 31.98 29.68 49.66 29.68 4.92 0 8.33-1.1 8.89-3.57 2.69-11.78-27.31-34.55-45.74-34.55z" fill="#55BFD9"/><g fill="none" stroke="#87CDDE" stroke-linecap="round" stroke-linejoin="round" stroke-miterlimit="10" stroke-width=".956"><path d="M14.4 28.79c18.27 6.95 35.83 18.02 49.45 31.7M11.08 34.69C26.46 47.15 43.73 56.17 63.01 61.6M29.76 27.59c4.23 2.82 6.92 8.2 8.67 12.91M14.25 29.46c4.72 3.95 8.3 9.17 10.26 14.94M36.58 51.15c5.97 1.22 10.37 1.32 15.62-.61"/></g><linearGradient id="e" x1="46.617" x2="57.724" y1="95.729" y2="95.729" gradientTransform="rotate(5.463 50.985 97.928)" gradientUnits="userSpaceOnUse"><stop stop-color="#5C4037" offset="0"/><stop stop-color="#70534A" offset="1"/></linearGradient><path d="M50.58 88.82c-1.64.3-3.18 1.64-3.43 3.29-.12.82.12 1.64.36 2.43.65 2.11 1.33 4.2 2.04 6.28.39 1.14.96 2.43 2.13 2.71.78.19 1.61-.17 2.18-.74.57-.56.92-1.31 1.23-2.05 1.43-3.44 3.13-4.92 3.18-8.65.07-4.74-4.17-3.9-7.69-3.27z" fill="url(#e)" stroke="#4A2F27" stroke-linecap="round" stroke-linejoin="round" stroke-miterlimit="10"/><linearGradient id="f" x1="68.825" x2="67.637" y1="65.986" y2="93.825" gradientUnits="userSpaceOnUse"><stop stop-color="#5C4037" offset="0"/><stop stop-color="#70534A" offset="1"/></linearGradient><path d="M59.43 96.84c-3.04 0-4.78-1.71-5.12-3.29-.27-1.26.3-2.34 1.53-2.89l12.96-4.4c.2-.07.34-.26.34-.48 0-.42-2.18-6.29-4.05-11.24l7.65-13.57c2.09 4.59 6.8 18.37 8.39 25.73.64 2.98-.54 6.46-4.62 7.52-4.78 1.24-9.37 1.86-16.18 2.57-.3.04-.61.05-.9.05z" fill="url(#f)"/><path d="M72.69 62.09c2.21 5.25 6.5 17.97 7.96 24.72.44 2.05.04 5.81-4.25 6.93-4.75 1.23-9.32 1.85-16.1 2.56-.29.03-.58.05-.86.05-2.76 0-4.33-1.5-4.63-2.89-.22-1.02.22-1.86 1.21-2.31l12.95-4.4c.41-.14.68-.53.68-.96 0-.21-.01-.59-4-11.2l7.04-12.5m.09-2.2L64.54 74.5s4.09 10.86 4.1 11.29l-13 4.42c-3.64 1.62-1.84 7.13 3.79 7.13.31 0 .63-.02.96-.05 6.38-.67 11.23-1.28 16.25-2.58 4.5-1.17 5.63-5.09 4.98-8.11-1.73-8.01-7.1-23.4-8.84-26.71z" fill="#4A2F27"/><linearGradient id="g" x1="59.552" x2="48.741" y1="68.583" y2="120.01" gradientUnits="userSpaceOnUse"><stop stop-color="#5C4037" offset="0"/><stop stop-color="#70534A" offset="1"/></linearGradient><path d="M45.8 123.56c-.26 0-.49-.05-.69-.16-.83-.44-1.03-1.64-1.11-2.75-.17-2.18-.3-4.39-.4-6.58-.04-.88-.05-1.6.22-2.23.6-1.41 2.38-1.84 3.38-1.97.21-.03.38-.19.43-.4l3.22-15.87 1.48-24.32 10.56-8.47c.89 4.43 1.76 9.11 2.06 13.52-.08.32-.16.85-.3 1.76-.54 3.56-1.79 11.9-4.15 20.1-2.21 7.7-8.37 19.14-8.43 19.26-.03.06-2.18 4.37-3.61 6.25-.42.55-.92 1.17-1.56 1.54-.34.21-.73.32-1.1.32z" fill="url(#g)"/><path d="M62.56 61.72c.82 4.16 1.61 8.51 1.89 12.61-.09.39-.18.93-.29 1.69-.54 3.55-1.79 11.87-4.14 20.04-2.2 7.65-8.33 19.05-8.4 19.19-.02.04-2.15 4.31-3.55 6.16-.39.51-.85 1.09-1.41 1.41-.27.16-.59.25-.86.25-.17 0-.33-.03-.46-.1-.62-.33-.78-1.43-.85-2.35-.17-2.18-.3-4.39-.4-6.57-.04-.81-.05-1.48.18-2.01.52-1.23 2.26-1.58 2.99-1.67a1 1 0 0 0 .85-.79l3.22-15.87c.01-.05.02-.09.02-.14l1.46-24.03 9.75-7.82m.35-1.56l-11.06 8.87-1.49 24.47-3.22 15.87c-1.56.2-3.18.85-3.78 2.27-.32.76-.3 1.62-.26 2.45.1 2.2.23 4.4.4 6.6.09 1.2.32 2.59 1.38 3.16.29.15.6.22.93.22.47 0 .96-.15 1.37-.39.69-.4 1.22-1.04 1.7-1.67 1.47-1.94 3.65-6.32 3.65-6.32s6.21-11.51 8.47-19.36c3.12-10.86 4.32-21.95 4.47-21.95-.3-4.5-1.21-9.32-2.14-13.95l-.42-.27z" fill="#4A2F27"/><linearGradient id="h" x1="45.26" x2="26.981" y1="48.586" y2="71.717" gradientUnits="userSpaceOnUse"><stop stop-color="#5C4037" offset="0"/><stop stop-color="#70534A" offset="1"/></linearGradient><path d="M31.32 74.75c-.38 0-.79-.05-1.19-.15-1.99-.48-3.65-1.11-4.99-1.62-.56-.21-1.07-.41-1.51-.56a.97.97 0 0 1-.64-1.05c.08-.51.63-.58.95-.58.28 0 .61.05.98.16.34.1.62.15.84.15.65 0 .8-.42.84-.55.23-.93-1.5-1.87-1.7-1.98-.32-.17-.72-.25-1.22-.25-.75 0-1.61.19-2.45.37-.72.15-1.39.3-1.87.3-.33 0-.42-.07-.43-.08a.857.857 0 0 1-.29-.64c0-.17.06-.29.1-.32.98-.87 3.35-1.76 5.62-1.76.12 0 .23 0 .35.01.85.04 2.03.68 3.18 1.3 1.35.74 2.75 1.5 3.96 1.5.23 0 .44-.03.64-.08.22-.06.22-.06 7.9-13.71l5.64-10.02 9.84 4.18c-6.5 7.68-18.26 21.53-18.99 22.21-1.84 1.7-3.42 3.17-5.56 3.17z" fill="url(#h)"/><path d="M46.25 45.81l8.8 3.74c-7.37 8.71-17.8 20.98-18.52 21.66-1.75 1.63-3.27 3.03-5.21 3.03-.35 0-.71-.04-1.08-.13-1.96-.47-3.61-1.1-4.93-1.6-.57-.22-1.07-.41-1.53-.56-.23-.08-.33-.34-.31-.5.02-.15.33-.17.46-.17.24 0 .52.05.84.14.39.11.71.17.98.17.8 0 1.21-.48 1.32-.93.31-1.24-1.41-2.26-1.95-2.54-.39-.21-.87-.31-1.45-.31-.8 0-1.69.19-2.55.38-.66.14-1.34.29-1.77.29-.07 0-.11 0-.14-.01a.366.366 0 0 1-.08-.22c.93-.77 3.15-1.58 5.22-1.58.11 0 .22 0 .33.01.73.03 1.86.65 2.96 1.25 1.41.77 2.87 1.56 4.2 1.56.27 0 .52-.03.76-.09.41-.11.41-.11 1.3-1.68l1.76-3.12 5.15-9.15 5.44-9.64M45.82 44.54l-5.86 10.41c-3.62 6.43-7.59 13.47-7.59 13.47-.16.04-.33.06-.51.06-2.09 0-5.13-2.72-7.12-2.8-.12-.01-.25-.01-.37-.01-2.33 0-4.86.92-5.95 1.89-.35.31-.43 1.13.18 1.7.17.16.43.22.77.22 1.12 0 2.99-.67 4.32-.67.38 0 .72.05.98.19 1.22.64 1.92 1.58 1.09 1.58-.17 0-.4-.04-.7-.13-.43-.13-.8-.18-1.12-.18-1.98 0-1.76 2.18-.47 2.61 1.5.5 3.69 1.51 6.54 2.19.46.11.89.16 1.31.16 2.34 0 4.06-1.6 5.9-3.3.97-.9 19.47-22.77 19.47-22.77l-10.87-4.62z" fill="#4A2F27"/><linearGradient id="i" x1="73.108" x2="73.108" y1="42.327" y2="84.496" gradientTransform="translate(16.744)" gradientUnits="userSpaceOnUse"><stop stop-color="#5C4037" offset="0"/><stop stop-color="#70534A" offset="1"/></linearGradient><path d="M88.67 64.45c-1.26 0-2.52-.66-3.2-1.69L75.2 50.75l8.28-4.28 5.62 9.36c.09.16.26.24.43.24.09 0 .18-.02.26-.07l5.04-3.03c.3-.18.87-.55 1.57-1 1.68-1.09 4.22-2.73 5.06-3.06a2.138 2.138 0 0 1 .83-.17c.54 0 1.07.2 1.45.55.08.08.16.15.23.23 1.35 1.48-.09 3.07-1.98 4.86l-.36.34c-.94.91-7.49 6.41-10.52 8.8-.19.15-.42.29-.67.4-.04.02-.07.04-.1.06-.1.08-.17.12-.18.13-.41.22-.93.34-1.49.34z" fill="url(#i)"/><path d="M83.29 47.13l5.38 8.96c.19.31.52.49.86.49.18 0 .35-.05.51-.14l5.04-3.03c.31-.18.88-.56 1.58-1.01 1.56-1.01 4.18-2.7 4.98-3.02.12-.05.22-.08.31-.1.11-.02.22-.04.34-.04.41 0 .82.15 1.12.42.07.06.14.13.19.19.96 1.04.09 2.22-1.95 4.16l-.36.34c-.94.9-7.46 6.38-10.47 8.76-.17.13-.36.25-.58.34-.07.03-.14.07-.2.12-.04.04-.08.06-.11.08-.38.19-.8.29-1.25.29-1.1 0-2.19-.57-2.79-1.46-.02-.03-.05-.06-.07-.09L75.99 50.9l7.3-3.77m.38-1.31l-9.25 4.78 10.65 12.45c.8 1.19 2.22 1.91 3.62 1.91.61 0 1.22-.14 1.77-.43 0 0 .08-.05.21-.15.27-.12.54-.28.78-.46 3.08-2.44 9.6-7.91 10.56-8.83 1.52-1.46 4.3-3.78 2.36-5.89-.08-.09-.17-.17-.26-.26a2.698 2.698 0 0 0-2.81-.48c-1.25.48-5.64 3.46-6.71 4.1l-5.04 3.03-5.88-9.77z" fill="#4A2F27"/><path d="M110.46 21.27l-.09-.03-9.15 40.97a.482.482 0 1 0 .94.22v-.01l8.3-41.15z" fill="#6D4C41" stroke="#6D4C41" stroke-miterlimit="10"/><path d="M110.08 23.75c-.09-.07-.2-.1-.3-.1-.05 0-.1.01-.16.02l-3.08 1 1.08-3.05a.5.5 0 0 0-.07-.46l-1.91-2.62 3.25.08c.16 0 .31-.08.41-.21l1.9-2.62.92 3.1c.05.16.17.28.33.33l3.08 1-2.66 1.84c-.13.09-.22.25-.22.41v3.24l-2.57-1.96z" fill="#FFD600"/><path d="M111.01 16.91l.64 2.13c.09.32.34.56.65.67l2.12.68-1.83 1.26c-.27.19-.43.5-.43.82v2.22l-1.77-1.35a.981.981 0 0 0-.92-.16l-2.11.69.74-2.1c.11-.31.06-.65-.13-.92l-1.31-1.8 2.22.05h.02a1 1 0 0 0 .81-.41l1.3-1.78m.38-2.22l-2.49 3.44-4.25-.1 2.5 3.44-1.41 4.01 4.04-1.32 3.38 2.58v-4.25l3.5-2.41-4.04-1.31-1.23-4.08z" fill="#E6A900"/><path d="M103.61 53.84c-1.88 0-3.38-1.09-4.03-2.9-.68-1.92-.15-3.29.42-4.09.93-1.33 2.54-2.02 3.65-2.02.4 0 .73.09.93.26.94.79 3.65 6.49 3.41 7.52l-2.55.91c-.62.21-1.23.32-1.83.32z" fill="#70534A"/><path d="M103.65 45.33c.32 0 .52.07.6.14.96.85 2.99 5.42 3.22 6.8l-2.2.79c-.55.2-1.11.3-1.65.3-1.68 0-2.98-.94-3.56-2.57-.49-1.38-.37-2.6.36-3.64.82-1.2 2.25-1.82 3.23-1.82m0-1c-2.31 0-6.06 2.51-4.54 6.78.77 2.16 2.54 3.24 4.5 3.24.65 0 1.32-.12 1.98-.35l2.64-.94c1.19-.42-2.32-7.48-3.34-8.34-.29-.27-.73-.4-1.24-.39z" fill="#4A2F27"/><linearGradient id="j" x1="106.19" x2="108.91" y1="52.045" y2="51.389" gradientUnits="userSpaceOnUse"><stop stop-color="#5C4037" offset="0"/><stop stop-color="#70534A" offset="1"/></linearGradient><path d="M105.18 52.35c.18.65.84 1.03 1.49.85l1.65-.45c.65-.18 1.03-.84.85-1.49-.18-.65-.84-1.03-1.49-.85l-1.65.45c-.65.18-1.03.85-.85 1.49z" fill="url(#j)" stroke="#4A2F27" stroke-linecap="round" stroke-linejoin="round" stroke-miterlimit="10"/><linearGradient id="k" x1="105.07" x2="107.73" y1="45.655" y2="44.624" gradientUnits="userSpaceOnUse"><stop stop-color="#5C4037" offset="0"/><stop stop-color="#70534A" offset="1"/></linearGradient><path d="M103.49 46.22l.08.2c.23.55.84.82 1.36.61l2.54-1.06c.52-.22.75-.84.52-1.39l-.08-.2c-.23-.55-.84-.82-1.36-.61l-2.54 1.06c-.56.51-.76.9-.52 1.39z" fill="url(#k)" stroke="#4A2F27" stroke-linecap="round" stroke-linejoin="round" stroke-miterlimit="10"/><linearGradient id="l" x1="106.12" x2="109.34" y1="50.07" y2="49.07" gradientUnits="userSpaceOnUse"><stop stop-color="#5C4037" offset="0"/><stop stop-color="#70534A" offset="1"/></linearGradient><path d="M104.83 50.45c.2.67.91 1.05 1.58.85l2.23-.67c.67-.2 1.05-.91.85-1.58a1.27 1.27 0 0 0-1.58-.85l-2.23.67c-.67.2-1.05.91-.85 1.58z" fill="url(#l)" stroke="#4A2F27" stroke-linecap="round" stroke-linejoin="round" stroke-miterlimit="10"/><path d="M104.55 50.74c.22-.05.38-.12.56-.26l-.78 3.89-1.85.06.93-4.17c.3.27.66.59 1.14.48z" fill="#6D4C41"/><linearGradient id="m" x1="105.79" x2="109.01" y1="47.816" y2="46.753" gradientUnits="userSpaceOnUse"><stop stop-color="#5C4037" offset="0"/><stop stop-color="#70534A" offset="1"/></linearGradient><path d="M104.01 48.47c.23.64.94.98 1.58.75l2.66-.95c.64-.23.98-.94.75-1.58a1.24 1.24 0 0 0-1.58-.75l-2.66.95c-.64.23-.98.93-.75 1.58z" fill="url(#m)" stroke="#4A2F27" stroke-linecap="round" stroke-linejoin="round" stroke-miterlimit="10"/><path d="M101.02 46.39c.37-.64 1.4-1.22 2.24-1.09.83.12 1 .7 1.16.86.06.06.89 2.47 1.06 2.76.39.7-.27 1.22-.79 1.29-.51.07-1.08-.26-1.29-.73-.74-1.66-1.44-1.4-1.99-1.37-.35.02-.63-.13-.85-.33.18-.25.35-1.2.46-1.39z" fill="#70534A"/><path d="M101.37 47.56l.14-.01c.75-.08 1.62-.01 2.39 1.71.11.25.45.44.71.41.16-.02.34-.14.4-.25.02-.03.52-.29-.07-1.52-.22-.47-1.32-2.55-1.25-2.59.02-.17.44-.42.98.64.06.12.1.1.66 1.35.27.59.54 1.22.62 1.36.23.41.25.86.05 1.25-.22.43-.65.7-1.04.81-.07.02-.15.04-.22.05-.75.1-1.5-.15-1.87-1.05-.48-1.15-.84-1.1-1.26-1.06l-.19.02c-.55.04-.97-.2-1.28-.49.11-.05 1.01-.61 1.23-.63z" fill="#4A2F27"/><linearGradient id="n" x1="68.366" x2="68.366" y1="22.506" y2="70.138" gradientTransform="matrix(1 -.00862 .00862 1 -4.708 7.213)" gradientUnits="userSpaceOnUse"><stop stop-color="#2AB7C9" offset="0"/><stop stop-color="#29B9C6" offset=".022"/><stop stop-color="#20D0A3" offset=".301"/><stop stop-color="#1AE08A" offset=".565"/><stop stop-color="#16EA7B" offset=".805"/><stop stop-color="#15ED76" offset="1"/></linearGradient><path d="M83.93 46.4s-3.21-7.54-20.55-7.39-19.32 7.74-19.32 7.74l7.64 6.98.14 15.76 10.01 6.48c.79.39 1.66.59 2.54.58.91-.01 1.81-.24 2.61-.67l9.46-6.61-.14-15.76 7.61-7.11z" fill="url(#n)"/><path d="M63.65 40.08c13.6 0 17.92 4.52 19.02 6.12l-7.09 6.63c-.21.19-.32.47-.32.75l.32 15.4-8.56 6.4c-.65.33-1.38.5-2.11.5-.71 0-1.43-.16-2.07-.48l-10.12-6.48V53.7c0-.28-.12-.55-.32-.74l-7.13-6.56c.91-1.59 4.72-6.32 18.38-6.32m0-1c-17.52 0-19.57 7.57-19.57 7.57l7.66 7.04v15.77l10.62 6.8c.79.4 1.67.61 2.56.61.92 0 1.83-.22 2.64-.65l9.04-6.76-.33-15.91 7.67-7.17c-.01.01-2.78-7.3-20.29-7.3z" fill="#1AAD82"/><defs><path id="o" d="M82.91 46.44s-2.99-6.42-19.24-6.42c-15.96 0-18.58 6.75-18.58 6.75l6.55 6.93 24.78-.21 6.49-7.05z"/></defs><clipPath id="p"><use xlink:href="#o"/></clipPath><g clip-path="url(#p)"><linearGradient id="q" x1="68.354" x2="68.354" y1="31.042" y2="44.394" gradientTransform="matrix(1 -.00862 .00862 1 -4.708 7.213)" gradientUnits="userSpaceOnUse"><stop stop-color="#5C4037" offset="0"/><stop stop-color="#70534A" offset="1"/></linearGradient><path d="M63.86 47.87c-6.92 0-10.64-4.3-10.67-7.41-.01-1.51 1.05-2.96 3-4.08 2.04-1.17 4.77-1.84 7.69-1.86h.17c5.83 0 10.59 2.58 10.62 5.76.01 1.67-1.01 3.52-2.73 4.95-2.03 1.68-4.85 2.62-7.94 2.64h-.14z" fill="url(#q)"/><path d="M64.06 35.02c5.46 0 10.1 2.41 10.12 5.26.01 1.52-.94 3.23-2.55 4.56-1.94 1.6-4.65 2.5-7.63 2.53h-.14c-6.51 0-10.14-4.09-10.17-6.91-.01-1.32.97-2.61 2.75-3.64 1.97-1.13 4.61-1.77 7.44-1.79l.18-.01m-.01-1h-.18c-6.21.05-11.22 2.94-11.19 6.45.03 3.48 4.16 7.91 11.17 7.91h.14c7.09-.06 11.2-4.59 11.17-8.1-.01-3.48-4.98-6.26-11.11-6.26z" fill="#4A2F27"/></g><path d="M63.6 43.71c-1.9 0-3.45-1.47-3.45-3.28v-4.11h7.69v4.11c0 1.81-1.55 3.28-3.45 3.28h-.79z" fill="#3C2B24"/><path d="M67.34 36.82v3.61c0 1.53-1.32 2.78-2.95 2.78h-.79c-1.63 0-2.95-1.25-2.95-2.78v-3.61h6.69m1-1h-8.68v4.61c0 2.09 1.77 3.78 3.95 3.78h.79c2.18 0 3.95-1.69 3.95-3.78v-4.61h-.01z" fill="#291B16"/><path d="M53.72 29.61c-1.93-.04-3.46-1.76-3.42-3.83.04-2.03 1.62-3.69 3.51-3.69l20.47.43c1.93.04 3.46 1.76 3.42 3.83-.04 2.03-1.62 3.69-3.51 3.69l-20.47-.43z" fill="#3C2B24"/><path d="M53.81 22.59h.06l2.75.06 14.9.31 2.75.06c1.65.03 2.97 1.53 2.93 3.32-.04 1.76-1.39 3.2-3.01 3.2h-.06l-2.75-.06-14.9-.31-2.75-.06c-.78-.02-1.52-.36-2.08-.98a3.42 3.42 0 0 1-.86-2.34c.05-1.77 1.4-3.2 3.02-3.2m0-1c-2.16 0-3.96 1.86-4.01 4.18-.05 2.34 1.71 4.3 3.91 4.34l2.75.06 14.9.31 2.75.06h.08c2.16 0 3.96-1.86 4.01-4.18.05-2.34-1.71-4.3-3.91-4.34l-2.75-.06-14.9-.31-2.75-.06h-.08z" fill="#291B16"/><linearGradient id="r" x1="44.871" x2="45.526" y1="22.82" y2="54.075" gradientTransform="rotate(1.146 793.235 933.031)" gradientUnits="userSpaceOnUse"><stop stop-color="#70534A" offset=".55"/><stop stop-color="#5C4037" offset=".83"/><stop stop-color="#3C2B24" offset="1"/></linearGradient><path d="M64.4 7.11c-6.5-.14-12.66 6.69-12.87 16.68-.21 9.94 5.89 14.99 12.2 15.12s12.62-4.65 12.82-14.6c.21-10-5.66-17.07-12.15-17.2z" fill="url(#r)"/><linearGradient id="s" x1="51.524" x2="76.56" y1="23.009" y2="23.009" gradientUnits="userSpaceOnUse"><stop stop-color="#4A2F27" offset="0"/><stop stop-color="#291B16" offset="1"/></linearGradient><path d="M64.21 8.1h.17c2.89.06 5.73 1.7 7.81 4.5 2.27 3.05 3.46 7.2 3.37 11.69-.2 9.41-5.95 13.62-11.57 13.62h-.23a10.78 10.78 0 0 1-7.83-3.55c-2.31-2.55-3.49-6.2-3.4-10.55.2-9.83 6.1-15.71 11.68-15.71m0-1c-6.43 0-12.47 6.78-12.68 16.69-.21 9.94 5.89 14.99 12.2 15.12h.25c6.23 0 12.36-4.79 12.57-14.6.21-10-5.66-17.07-12.16-17.21h-.18z" fill="url(#s)"/><path d="M55.12 21.72s.05-.07.15-.19c.03-.03.05-.06.08-.1.04-.04.09-.08.14-.12s.11-.09.16-.14c.06-.05.12-.08.18-.13.06-.04.13-.09.2-.13s.15-.08.23-.12.16-.07.25-.11l.27-.09c.18-.05.38-.1.58-.12.2-.03.4-.03.61-.04.2.01.41.02.61.06.2.03.39.09.57.15.09.03.18.07.26.1.09.03.17.07.24.12.08.04.15.08.22.12s.13.09.2.14c.06.05.12.09.17.13.05.05.1.09.14.13s.09.08.12.12a13.78 13.78 0 0 1 .26.33c.18.27.12.63-.15.82-.16.11-.36.13-.53.07l-.11-.04s-.07-.03-.18-.08c-.03-.01-.06-.03-.09-.04-.04-.01-.07-.03-.11-.04-.08-.03-.16-.07-.26-.1-.05-.02-.09-.04-.15-.05-.05-.01-.11-.03-.16-.04-.03-.01-.05-.02-.08-.02-.03-.01-.06-.01-.09-.02-.06-.01-.12-.03-.18-.04-.12-.02-.24-.04-.37-.05-.13-.02-.26-.02-.39-.03-.13 0-.26 0-.39.01-.13 0-.25.03-.37.04l-.18.03c-.03 0-.06.01-.09.01-.03.01-.06.01-.08.02-.06.01-.11.03-.16.04s-.1.03-.15.05c-.05.01-.09.03-.14.04-.04.01-.08.02-.11.04-.04.01-.07.02-.1.03-.04.01-.08.04-.11.05l-.22.1a.602.602 0 0 1-.78-.34.713.713 0 0 1 .09-.57z" fill="#1A1717"/><ellipse transform="rotate(-88.802 57.886 24.799)" cx="57.89" cy="24.8" rx="1.91" ry="1.84" fill="#1A1717"/><path d="M72.3 22.98s-.08-.04-.21-.11c-.03-.02-.07-.04-.11-.06l-.1-.03c-.03-.01-.07-.03-.11-.04s-.09-.03-.14-.05-.09-.04-.15-.05c-.05-.01-.11-.03-.16-.04-.03-.01-.05-.02-.08-.02-.03-.01-.06-.01-.09-.02-.06-.01-.12-.03-.18-.04-.12-.02-.24-.04-.37-.05-.13-.02-.26-.02-.39-.03-.13 0-.26 0-.39.01-.13 0-.25.03-.37.04l-.18.03c-.03 0-.06.01-.09.01-.03.01-.06.01-.08.02-.05.01-.11.03-.16.04s-.1.03-.15.05c-.1.03-.19.06-.26.09-.04.01-.08.03-.11.04s-.06.03-.09.04c-.11.05-.18.07-.18.07l-.11.03a.587.587 0 0 1-.65-.91s.06-.08.18-.21c.03-.03.06-.07.1-.11s.08-.07.13-.11.1-.08.15-.13c.05-.04.12-.08.18-.12s.13-.09.2-.13.15-.08.23-.12.16-.07.25-.11l.27-.09c.18-.05.38-.1.58-.12.2-.03.4-.03.61-.04.2.01.41.02.61.06.2.03.39.09.57.15.09.03.18.07.26.1.09.03.17.07.24.12.08.04.15.08.22.12s.13.09.2.14c.06.05.12.08.18.13s.11.1.16.14l.13.13c.03.04.05.07.08.1.09.12.14.19.14.19a.613.613 0 0 1-.76.89z" fill="#1A1717"/><ellipse transform="rotate(-88.802 70.157 25.057)" cx="70.16" cy="25.06" rx="1.91" ry="1.84" fill="#1A1717"/><path d="M65.39 28.41a.266.266 0 0 0-.12-.03l-2.64-.06c-.04 0-.08.01-.12.03-.24.09-.38.34-.27.6.11.27.62 1.02 1.68 1.04s1.6-.71 1.72-.97-.01-.51-.25-.61z" fill="#33251F"/><path d="M67.03 31.46c-1.2.68-5.1.6-6.28-.13-.67-.42-1.39.19-1.11.81.27.62 2.36 2.08 4.2 2.11 1.84.04 3.97-1.33 4.26-1.94.3-.6-.38-1.24-1.07-.85z" fill="#1A1717"/><defs><path id="t" d="M64.45 4.48h-.01c-16.96-.26-13.9 19.18-13.9 19.18s1.83 3.4 1.83 3.33c0-.53.22-2.57.22-2.57l-.98-1.11s1.65-9.46 2.73-9.25c1.66.34 9.89.95 9.9.95 2.92.06 5.57-.02 7.24-.28 1.09-.17 3.59.71 3.95 1.75.47 1.33 1.01 7.38 1.01 7.38l-1.02 1.04s.14 2.06.12 2.58c0 .07 1.97-3.25 1.97-3.25s3.9-19.31-13.06-19.75z"/></defs><path d="M76.03 25.77c-.2-2.77-.98-6.32-1.58-8.04a2.786 2.786 0 0 0-2.62-1.85c-.15 0-.29.01-.44.04-1.5.24-3.83.52-6.43.52-.24 0-.48 0-.73-.01-2.93-.06-5.52-.48-7.19-.82a2.746 2.746 0 0 0-3.13 1.68c-.68 1.69-1.6 5.21-1.92 7.97-.32-.58-.68-1.24-.96-1.77-.13-.93-1.15-9.46 3.23-14.58 2.24-2.62 5.55-3.95 9.84-3.95h.36c4.43.13 7.76 1.58 9.93 4.3 4.23 5.3 2.83 13.84 2.67 14.76-.3.54-.69 1.18-1.03 1.75z" fill="#20D39E"/><path d="M64.1 5.48H64.43c4.26.11 7.48 1.49 9.57 4.11 3.98 4.99 2.8 13.05 2.59 14.28l-.21.36c-.32-2.5-.95-5.22-1.45-6.66a3.282 3.282 0 0 0-3.61-2.14c-1.48.24-3.78.52-6.35.52-.24 0-.48 0-.72-.01h-.06c-2.83-.06-5.39-.47-7.04-.81-.22-.04-.44-.07-.66-.07-1.35 0-2.54.81-3.04 2.05-.57 1.42-1.31 4.11-1.73 6.6-.07-.13-.13-.25-.2-.37-.16-1.24-1-9.27 3.13-14.1 2.14-2.5 5.32-3.76 9.45-3.76m0-1c-16.58 0-13.55 19.18-13.55 19.18s1.8 3.33 1.83 3.33c0-2.71 1.18-7.48 1.99-9.5a2.263 2.263 0 0 1 2.57-1.37c1.66.34 4.3.76 7.22.83h.06c.25.01.49.01.74.01 2.63 0 4.98-.29 6.51-.53a2.26 2.26 0 0 1 2.5 1.48c.72 2.06 1.71 6.87 1.59 9.58.04 0 1.97-3.25 1.97-3.25s3.88-19.3-13.08-19.75h-.01c-.11-.01-.22-.01-.34-.01z" fill="#1AAD82"/><path d="M64.46 4.48s-.01 0 0 0h-.01c-16.96-.26-13.9 19.18-13.9 19.18s1.8 3.33 1.83 3.33c0-.55.05-1.19.14-1.88-.04-.11-.88-1.79-.89-1.81-.08-.6-.29-2.61-.1-5.07.21-2.63.94-6.31 3.26-8.98 2.17-2.49 5.41-3.73 9.62-3.66h.01c4.22.11 7.41 1.48 9.48 4.06 3.93 4.92 2.79 12.88 2.57 14.17-.01.01-.95 1.69-.97 1.72.06.71.09 1.37.06 1.93.04 0 1.97-3.25 1.97-3.25s3.89-19.3-13.07-19.74z" fill="#1AAD82"/></svg>