<svg viewBox="0 0 128 128" width="128" height="128" xmlns="http://www.w3.org/2000/svg"><linearGradient id="a" x1="94.471" x2="94.045" y1="70.506" y2="5.406" gradientUnits="userSpaceOnUse"><stop offset="0"/><stop stop-color="#0F0F0F" offset=".216"/><stop stop-color="#373737" offset=".633"/><stop stop-color="#4D4D4D" offset=".837"/></linearGradient><path d="M86.28 87.4c-.36-1.35-.84-2.42-2.41-6.88-.37-1.07-.68-1.95-.84-2.43-.62-1.87-.38-2.25.29-3.25.52-.78-.37-1.22-.07-3.25.58-3.92-.63-9.78-5.08-13.81-3.48-3.15-7.28-7.7-9.74-13.66-3.29-7.97-1.85-13.78-.67-16.57l3.16 8.3.26-4.71c.01-.16.9-14.82 8.64-20.67l.09 4.11 1.7-1.98c.06-.07 6.26-7.17 16.23-7.17 9.71 0 16 2.95 20.42 9.55 3.12 4.67 3.7 10.04 3.77 12.72-2.09-1.27-6.09-3.47-10.73-4.92l-4.31-1.34 3.34 3.04c.1.1 2.41 2.29 2.66 6.7-1.72-.59-4.87-1.52-8.67-1.86l-4.28-.38 3.67 2.23c.11.07 2.44 1.55 3.13 4.81-2.14.05-6.58.59-8.67 4.08-2.04 3.4-.08 8.05 2.36 15.33 1.8 5.36 4.2 12.44.13 20.78-4 8.19-11.53 10.82-14.38 11.23z" fill="url(#a)"/><path d="M98.58 6.42c8.62 0 13.35 2.46 17.29 7.21 4.18 5.04 5.04 12.27 5.04 12.27-5.79-6.2-14.85-5.02-14.85-5.02s5.19 4.94 5.75 8.87c-5.81-3-12.37-.87-12.37-.87s5.12 3.5 6.09 6.18c0 0-5.86-.06-8.21 4.49-1.97 3.8-.35 9.15 2.91 18.23 2.09 5.81 2.02 13.04-.98 18.47-3.93 7.12-11.16 10.7-12.44 10.94-.15-.49.2-.59 0-1.2-.6-1.81-1.37-4.02-1.99-5.79-.37-1.07-.68-1.95-.84-2.44-.47-1.41 2.15-.72 2.72-1.58.56-.85-.61-8.68-5.75-16.96-4.25-6.85-8.53-9.01-11.6-15.49-2.33-5.64-2.7-10.06-2.03-13.07l3.54 7.42s.08-19.98 8-25.42l.11 4.52c-.01 0 8.2-10.76 19.61-10.76zm-17.74 5.52l.41-4.32c-12.62 7.5-11.9 22.79-11.9 22.79L66.9 25s-4.48 8.25.23 19.5C73.88 57.88 79 55.38 83.25 71.58c1.58 6.02-2.48 2.87-1.17 6.82.69 2.06 4.03 11.31 3.74 11.46 0 0 8.74-2.58 14.12-9.94 8.64-11.83 2.01-22.86-.69-33.5C96.75 36.56 108 37 108 37c-.62-5.08-3.77-6.69-3.77-6.69s1.93-.12 4.6.48c2.46.56 5.21 2.33 5.21 2.33.27-6.81-3.04-9.4-3.04-9.4 6.88 1.08 11.71 6.52 11.71 6.52s1.79-8.67-4.52-17.5c-4.31-6.03-9.47-8.88-19.35-8.88-11.84.02-18 8.08-18 8.08z" fill="#616161"/><linearGradient id="b" x1="94.078" x2="94.078" y1="15.616" y2="80.274" gradientUnits="userSpaceOnUse"><stop stop-color="#FAFAFA" offset="0"/><stop stop-color="#F1F1F1" offset=".223"/><stop stop-color="#D9D9D9" offset=".581"/><stop stop-color="#BDBDBD" offset=".921"/></linearGradient><path d="M84.96 15.91c12.88-10.49 26.57.69 26.57.69s-14.86-3.18-20.5 7c5.56-1.5 8.69.19 8.69.19s-11.53 4.09-12.15 13.9c0 0 2.28-3.09 6.67-2.72 0 0-9.4 7.61-4.15 21.94l2.33-5.99s1.54 4.83 2.58 14.92c1.16 11.26-8.75 15.62-8.75 15.62s4.04-7.74 2.58-13.78c-2.78-11.55-23.44-35.83-3.87-51.77z" fill="url(#b)"/><linearGradient id="c" x1="72.846" x2="58.103" y1="98.461" y2="125.35" gradientUnits="userSpaceOnUse"><stop offset="0"/><stop stop-color="#0F0F0F" offset=".216"/><stop stop-color="#373737" offset=".633"/><stop stop-color="#4D4D4D" offset=".837"/></linearGradient><path d="M85.57 101.04c-2.69 4.65-12.36 6.4-18.38 12.71-1.87 1.96-4.14 5.4-5.18 7.55-.71 1.46-1.73 2.42-2.87 1.85-1.3-.65-1.14-1.91-.84-3.77.25-1.53 1.04-4.13 2.79-7.12 3.57-6.1 4.68-8.42 4.92-9.91.84-5.28-2.38-10.27-2.25-11.26 1.25-9.55 9.46-9.61 13.53-9.63s6.41 1.82 8.22 5.47c1.87 3.76 2.95 8.88.98 12.59-.29.52-.63 1.01-.92 1.52z" fill="url(#c)" stroke="#616161" stroke-miterlimit="10" stroke-width="2"/><linearGradient id="d" x1="27.711" x2="13.428" y1="92.559" y2="118.61" gradientTransform="rotate(21.261 26.046 101.59)" gradientUnits="userSpaceOnUse"><stop offset="0"/><stop stop-color="#0F0F0F" offset=".216"/><stop stop-color="#373737" offset=".633"/><stop stop-color="#4D4D4D" offset=".837"/></linearGradient><path d="M41.36 101.44c-5.14 4.01-9.11 5.45-17.99 4.81-6.28-.46-7.17 3.46-7.17 3.46s2.17 2.35.71 4.38c-1.04 1.45-4.08 2.05-5.1-.83-2.31-6.5 4.64-11.92 8.52-14.45 2.36-1.54 4.1-4 4.75-6.74.36-1.51.39-3.1.1-4.63-.25-1.32-1.01-2.45-.61-3.77.62-2.05 3.38-4.08 5.28-4.82 3.54-1.37 7.31-.22 10.68 1.08 3.8 1.46 6.74 5.1 7.1 9.16.46 5.02-2.26 9.23-6.27 12.35z" fill="url(#d)" stroke="#616161" stroke-miterlimit="10" stroke-width="2"/><linearGradient id="e" x1="80.624" x2="5.474" y1="104.55" y2="56.324" gradientUnits="userSpaceOnUse"><stop offset="0"/><stop stop-color="#0F0F0F" offset=".218"/><stop stop-color="#151515" offset=".286"/><stop stop-color="#363636" offset=".724"/><stop stop-color="#4D4D4D" offset="1"/></linearGradient><path d="M98.47 114.31c-3.26-5.27-3.01-11.4-3.55-12.4s-3.5-1.72-4.83-3.83C87.41 93.85 87.87 87.41 88 84.5c.31-7.13-4.62-26.07-26.62-26.07-15.26 0-22.26 14.69-23.84 14-.21-.09-.37-.24-.3-.75.39-2.94.37-11.55-.39-13.99-1.51-4.86-6.23-5.45-12.52-5.8-3.08-.17-6.87-1.62-10.45-2.42-.71-.16-1.36.46-1.39 1.19 0 0 .17 5.05 1.01 6.4 1.21 1.97 6.4 6.56 8.12 9.19 2.96 4.5-4.19 10.62-4.65 16.68l3.09-1.5c-2.89 7.32-1.32 12.4-1.32 12.4l2.34-3.03s.15 5.78 5.67 9.27c2.77 1.75 7.19 2.94 7.19 2.94 2.5 2.4 6.49 5.29 9.64 9.76 1.53 2.18 2.86 6.62 3.39 8.99.17.78.98 1.5 1.77 1.47.93-.04 1.66-.79 1.65-1.72-.01-2.15-.08-6-.37-9.33-.32-3.75-.81-8-1.98-11.81 4.81-3 9.28-7.54 23.21-2.41 0 0 1.69 4.2 5.84 6.82 4.34 2.75 11.24 2.1 11.24 2.1s4.1 10.53 8.54 12.29c1.44.57 3.55.81 3.78-1.03.16-1.26-1.77-3.17-2.18-3.83z" fill="url(#e)" stroke="#616161" stroke-miterlimit="10" stroke-width="2"/><path d="M38.24 107.89c-.22 0-.44-.07-.62-.21-4.47-3.52-7.15-7.53-6.16-12.92.38-2.04 1.43-2.3 1.42-1.75-.17 5.46 1.99 9.96 5.98 13.1a1 1 0 0 1 .17 1.4c-.2.25-.5.38-.79.38z" fill="#616161"/><linearGradient id="f" x1="30.473" x2="81.656" y1="74.333" y2="74.333" gradientUnits="userSpaceOnUse"><stop stop-color="#FAFAFA" offset="0"/><stop stop-color="#F6F6F6" offset=".245"/><stop stop-color="#E8E8E8" offset=".512"/><stop stop-color="#D3D3D3" offset=".789"/><stop stop-color="#BDBDBD" offset="1"/></linearGradient><path d="M31.51 80.85c.96 2.21 2.9 4.24 6.4 4.24 3.31 0 6.32-1.95 9.39-3.15 4.94-1.94 9.14-1.09 10.64-.67.19.05.34-.17.21-.32-.81-.98-3.07-3.07-7.62-3.46-.2-.02-.26-.28-.09-.38 8.34-4.6 18.46 1.17 20.54 2.46.15.09.34-.04.3-.21-.85-4.13-4.47-6.77-5.8-7.62-.16-.1-.1-.35.09-.37 9.52-1.06 16.03 8.42 17.88 11.5.12.19.41.08.37-.14-.8-4.2-4.91-19.14-22.99-19.14-14.85 0-19.12 15.81-24.67 14.65-3.99-.84-2.1-10.62-1.47-13.42.05-.21-.22-.33-.35-.17-.55.67-1.45 1.98-2.36 4.13-1.18 2.78-2.46 7.47-.47 12.07z" fill="url(#f)"/><path d="M18.34 51.74s1.5 2.45 5.62 2.79c4.71.39 6.86-.93 6.86-.93s-4.35-.64-6.88-.96c-2.54-.32-5.6-.9-5.6-.9z" fill="#eee"/><path d="M28.28 55.38c-.31.87-.67 1.64-.93 2.37-.14.35-.23.71-.25.95 0 .12.02.19.03.18.02-.02-.03-.07.02-.03.09.07.4.2.73.28.34.1.72.16 1.11.25.79.16 1.62.32 2.51.63-.78.54-1.64.83-2.54.97-.45.07-.92.09-1.41.04-.49-.07-1.03-.15-1.62-.59-.29-.22-.6-.61-.69-1.05-.1-.42-.05-.78.04-1.08.17-.59.46-.99.76-1.36.63-.7 1.35-1.25 2.24-1.56zM17.17 51.3l-2.65-1.01c-.46-.1-1.1-.16-1.13.67-.03.73.23 2.19.45 2.89 0 0 2.47-.4 3.33-2.55z"/><path d="M71.06 99.64c-.12-.16-3.09-4.76-.09-10.88.71-1.46 1.39-.93 1.19-.16-1.78 6.69 1.03 10.81 1.05 10.84.32.44-1.95.47-2.15.2z" fill="#616161"/></svg>