<svg viewBox="0 0 128 128" width="128" height="128" xmlns="http://www.w3.org/2000/svg"><linearGradient id="a" x1="-69.547" x2="-69.547" y1="-92.663" y2="-36.541" gradientUnits="userSpaceOnUse"><stop stop-color="#eee" offset=".005"/><stop stop-color="#EAEAEA" offset=".282"/><stop stop-color="#ddd" offset=".577"/><stop stop-color="#C8C8C8" offset=".879"/><stop stop-color="#BDBDBD" offset="1"/></linearGradient><path d="M-18.63-63.97c-.91-4.33-4.3-20.11-5.87-27.41-.47-2.21-2.11-3.82-3.99-3.81-5.36 0-15.39-.05-16.6-.05h-44.08c-.61 0-2.56.06-4.11 1.79-4.7 5.27-12.54 20.52-13.76 22.07-.08.1-6.27 2.31-9.09 4-1.12.67-1.74 2.13-1.9 3.63L-120.49-43c-.64 4.1 1.7 5.76 5.37 5.76h91.51c2.8 0 5.11-.68 5.11-5.69v-19.79c0-.43-.05-.85-.13-1.25z" fill="url(#a)"/><defs><path id="b" d="M-42.13-46.78c-.91-4.32-4.3-20.06-5.87-27.34-.47-2.21-2.11-3.82-3.99-3.82-5.36 0-15.39-.06-16.6-.06h-44.08c-.61 0-2.56.07-4.11 1.8-4.7 5.26-12.54 20.51-13.76 22.05-.08.1-6.27 2.28-9.09 3.96-1.12.67-1.74 2.13-1.9 3.62l-2.46 20.76c-.64 4.09 1.7 5.81 5.37 5.81h91.51c2.8 0 5.11-.79 5.11-5.8v-19.74c0-.42-.05-.83-.13-1.24z"/></defs><path d="M-9.98-106.33c.36 0 .87.53 1.05 1.38 1.46 6.78 4.94 23.03 5.86 27.4.05.19.07.4.07.61v19.79c0 2.81-.49 2.81-2.1 2.81h-91.51c-1.3 0-2.02-.29-2.25-.56s-.3-.95-.16-1.8c.01-.04.01-.07.02-.11l2.47-20.84c.08-.8.36-1.28.46-1.36 1.87-1.12 5.83-2.66 7.51-3.31 1.46-.57 1.86-.72 2.39-1.39.5-.63 1.28-2 2.99-5.03 2.85-5.03 7.61-13.46 10.65-16.87.57-.64 1.22-.72 1.87-.72h44.08c.75 0 4.89 0 9.21-.01l7.39.01m0-3c-5.36 0-15.39.01-16.6.01h-44.1c-.63 0-2.55.01-4.08 1.73-4.7 5.27-12.54 20.49-13.76 22.03-.08.1-6.27 2.3-9.09 3.99-1.12.67-1.74 2.12-1.9 3.62l-2.46 20.8c-.64 4.1 1.7 5.82 5.37 5.82h91.5c2.8 0 5.1-.8 5.1-5.81v-19.79c0-.42-.04-.84-.13-1.24-.91-4.33-4.3-20.11-5.86-27.41-.48-2.22-2.11-3.75-3.99-3.75z" fill="#424242" opacity=".2"/><linearGradient id="c" x1="25.597" x2="25.597" y1="-143" y2="-86.874" gradientUnits="userSpaceOnUse"><stop stop-color="#616161" offset=".011"/><stop stop-color="#5D5D5D" offset=".25"/><stop stop-color="#505050" offset=".504"/><stop stop-color="#3B3B3B" offset=".766"/><stop stop-color="#212121" offset="1"/></linearGradient><path d="M76.51-114.43c-.91-4.33-4.3-20.11-5.86-27.41-.47-2.21-2.11-3.75-3.99-3.75-5.36 0-15.39.01-16.6.01H5.98c-.61 0-2.56-.01-4.11 1.73-4.7 5.27-12.54 20.49-13.76 22.03-.08.1-6.27 2.3-9.09 3.99-1.12.67-1.74 2.12-1.9 3.62l-2.46 20.8c-.64 4.1 1.7 5.82 5.37 5.82h91.51c2.8 0 5.1-.8 5.1-5.81v-19.79c0-.42-.04-.83-.13-1.24z" fill="url(#c)"/><defs><path id="d" d="M76.51-114.48c-.91-4.32-4.3-20.06-5.86-27.34-.47-2.21-2.11-3.74-3.99-3.74-5.36 0-15.39.01-16.6.01H5.98c-.61 0-2.56-.01-4.11 1.72-4.7 5.26-12.54 20.47-13.76 22.01-.08.1-6.27 2.26-9.09 3.94-1.12.67-1.74 2.12-1.9 3.61l-2.46 20.75c-.64 4.09 1.7 5.8 5.37 5.8h91.51c2.8 0 5.1-.79 5.1-5.8v-19.74c0-.4-.04-.82-.13-1.22z"/></defs><path d="M66.66-142.58c.36 0 .87.53 1.05 1.38 1.46 6.78 4.94 23.02 5.86 27.4.04.2.06.41.06.63v19.79c0 2.81-.49 2.81-2.1 2.81h-91.51c-1.3 0-2.02-.29-2.25-.56s-.3-.95-.16-1.8l.02-.1 2.47-20.84c.08-.8.36-1.28.46-1.36 1.87-1.12 5.83-2.66 7.51-3.31 1.46-.57 1.86-.72 2.39-1.39.5-.63 1.28-2 2.99-5.03 2.85-5.03 7.61-13.46 10.65-16.87.57-.64 1.22-.72 1.87-.72h44.08c.75 0 4.89 0 9.21-.01l7.4-.02m0-3c-5.36 0-15.39.01-16.6.01H5.96c-.63 0-2.55.01-4.08 1.73-4.7 5.27-12.54 20.49-13.76 22.03-.08.1-6.27 2.3-9.09 3.99-1.12.67-1.74 2.12-1.9 3.62l-2.46 20.8c-.64 4.1 1.7 5.82 5.37 5.82h91.51c2.8 0 5.1-.8 5.1-5.81v-19.79c0-.42-.04-.84-.13-1.24-.91-4.33-4.3-20.11-5.86-27.41-.49-2.22-2.12-3.75-4-3.75z" fill="#eee" opacity=".2"/><linearGradient id="e" x1="74.947" x2="74.947" y1="3.395" y2="14.235" gradientUnits="userSpaceOnUse"><stop stop-color="#616161" offset="0"/><stop stop-color="#5D5D5D" offset=".033"/><stop stop-color="#424242" offset=".261"/><stop stop-color="#303030" offset=".495"/><stop stop-color="#252525" offset=".737"/><stop stop-color="#212121" offset="1"/></linearGradient><path d="M57.99 5.99c-2.07 3.64 3.42 5.57 3.42 5.57v10.25h8.16v-9.15s10.58-9.04 22.71-5.62c0 0 1.43-2.65-7.17-2.87S69.98 6.98 66.67 5.99c-3.3-1-6.45-3.93-8.68 0z" fill="url(#e)"/><linearGradient id="f" x1="68.492" x2="92.719" y1="21.116" y2="21.116" gradientUnits="userSpaceOnUse"><stop stop-color="#212121" offset="0"/><stop stop-color="#252525" offset=".263"/><stop stop-color="#303030" offset=".505"/><stop stop-color="#424242" offset=".739"/><stop stop-color="#5D5D5D" offset=".967"/><stop stop-color="#616161" offset="1"/></linearGradient><path d="M68.49 14.01s17.78-.5 24.23 13.64l-.91.58s-10.25-11.16-23.23-9.01l-.09-5.21z" fill="url(#f)"/><linearGradient id="g" x1="35.28" x2="58.96" y1="45.621" y2="45.621" gradientUnits="userSpaceOnUse"><stop stop-color="#212121" offset="0"/><stop stop-color="#3C3C3C" offset=".459"/><stop stop-color="#616161" offset="1"/></linearGradient><path d="M42.31 72.7c-3.54-10.25-11.05-35.19-4.33-45.4 6.99-10.62 20.41-8.65 20.98-8.56l-.61 3.92c-.47-.07-11.49-1.64-17.06 6.82-3.93 5.97-2.1 22.03 4.77 41.92l-3.75 1.3z" fill="url(#g)"/><path fill="#E6E6E6" d="M59.18 23.9v-6.67l-.86.94-.87-.94-.86.94-.86-.94-.86.94-.86-.94-.86.94-.86-.94v6.67l.86-.95.86.95.86-.95.86.95.86-.95.86.95.87-.95z"/><path fill="none" stroke="#B3B3B3" stroke-miterlimit="10" stroke-width=".358" d="M58.37 18.32v4.43M56.6 18.32v4.43M54.82 18.32v4.43M53.05 18.32v4.43"/><linearGradient id="h" x1="65.474" x2="65.474" y1="13.648" y2="32.395" gradientUnits="userSpaceOnUse"><stop stop-color="#FFD600" offset="0"/><stop stop-color="#FBB03B" offset="1"/></linearGradient><path fill="url(#h)" d="M71.97 25.42h-1.52V13.1H60.27v12.32h-1.29v4.21h1.29V33h10.18v-3.37h1.52z"/><circle cx="65.65" cy="21.75" r="7.11" fill="#fff" stroke="#000" stroke-miterlimit="10" stroke-width="1.323"/><linearGradient id="i" x1="48.152" x2="82.88" y1="77.577" y2="77.577" gradientUnits="userSpaceOnUse"><stop stop-color="#D4292E" offset="0"/><stop stop-color="#D0282C" offset=".238"/><stop stop-color="#C32427" offset=".484"/><stop stop-color="#AF1D1E" offset=".733"/><stop stop-color="#A61A1A" offset=".818"/><stop stop-color="#A91B1B" offset=".879"/><stop stop-color="#B31E20" offset=".927"/><stop stop-color="#C32427" offset=".97"/><stop stop-color="#D4292E" offset="1"/></linearGradient><path d="M65.18 31.19c-8.46-.39-12.84 2.63-15.02 5.23-1.35 1.61-2.01 3.69-2.01 5.79v71.85c0 4.45 3.14 8.33 7.52 9.16 4.56.86 8.6.8 9.61.77h.48c1 .03 5.04.09 9.61-.77 4.38-.82 7.52-4.7 7.52-9.16V42.21c0-2.1-.66-4.18-2.01-5.79-2.18-2.6-6.56-5.62-15.02-5.23-.23.01-.46.01-.68 0z" fill="url(#i)"/><linearGradient id="j" x1="39.091" x2="84.37" y1="71.743" y2="71.743" gradientUnits="userSpaceOnUse"><stop stop-color="#212121" offset="0"/><stop stop-color="#3C3C3C" offset=".459"/><stop stop-color="#616161" offset="1"/></linearGradient><path d="M82.98 74.12h-42.5c-.77 0-1.39-.62-1.39-1.39v-1.97c0-.77.62-1.39 1.39-1.39h42.49c.77 0 1.39.62 1.39 1.39v1.97c.01.77-.61 1.39-1.38 1.39z" fill="url(#j)"/><path d="M40.93 74.49l-5.21 36.01h15.63l-5.29-36.01s-5.13-.09-5.13 0z" fill="#333"/><path d="M65.66 22.78a.47.47 0 0 1-.47-.47s.21-4.06.47-4.06.47 4.06.47 4.06c0 .25-.21.47-.47.47z" fill="#ED1C24"/><path d="M61.14 22.09h-.77c-.23 0-.42-.19-.42-.42s.19-.42.42-.42h.77c.23 0 .42.19.42.42s-.19.42-.42.42zM70.86 22.09h-.77c-.23 0-.42-.19-.42-.42s.19-.42.42-.42h.77c.23 0 .42.19.42.42s-.19.42-.42.42zM65.61 27.34c-.23 0-.42-.19-.42-.42v-.77c0-.23.19-.42.42-.42s.42.19.42.42v.77c0 .23-.19.42-.42.42zM65.61 17.62c-.23 0-.42-.19-.42-.42v-.77c0-.23.19-.42.42-.42s.42.19.42.42v.77c0 .23-.19.42-.42.42zM61.9 25.8c-.11 0-.22-.04-.3-.12a.435.435 0 0 1 0-.6l.54-.54c.16-.16.43-.16.6 0 .16.16.16.43 0 .6l-.54.54c-.08.08-.19.12-.3.12zM68.77 18.93c-.11 0-.22-.04-.3-.12a.435.435 0 0 1 0-.6l.54-.54c.16-.16.43-.16.6 0 .16.16.16.43 0 .6l-.54.54c-.08.08-.19.12-.3.12zM69.32 25.8c-.11 0-.22-.04-.3-.12l-.54-.54c-.16-.16-.16-.43 0-.6s.43-.16.6 0l.54.54c.16.16.16.43 0 .6-.08.08-.19.12-.3.12zM62.45 18.93c-.11 0-.22-.04-.3-.12l-.54-.55a.435.435 0 0 1 0-.6c.16-.16.43-.16.6 0l.54.54c.16.16.16.43 0 .6-.09.09-.2.13-.3.13z"/><circle cx="65.66" cy="21.78" r=".81" fill="#ED1C24"/><path d="M38.56 68.28h1.64v6.92h-1.64z"/><path fill="#E6E6E6" d="M46.87 68.79H40.2l.94.73-.94.74.94.73-.94.73v.01l.94.73-.94.73.94.74-.94.73h6.67l-.94-.73.94-.74-.94-.73.94-.73v-.01l-.94-.73.94-.73-.94-.74z"/><path fill="none" stroke="#B3B3B3" stroke-miterlimit="10" stroke-width=".331" d="M41.29 69.48h4.44M41.29 70.99h4.44M41.29 72.5h4.44M41.29 74.01h4.44"/><path d="M60.93 7c.47.03 1.43.46 2.21.81.8.36 1.71.76 2.68 1.05.73.22 1.54.33 2.45.33.32 0 .64-.01.97-.04-.97.68-1.53 1.15-1.62 1.22l-1.05.9v4.83h.88v.77l.6.04 1.38 3.22c.22.51.33 1.06.33 1.62 0 .75-.2 1.46-.59 2.11l-1.67 2.77h-.05v.09l-1.02 1.7h1.02V34l2.64.32c4.68.56 7.19 2.5 8.48 4.03.84 1.01 1.31 2.38 1.31 3.86v71.85c0 3.04-2.13 5.66-5.08 6.21-3.39.64-6.5.73-8.04.73-.41 0-.72-.01-.91-.01-.11 0-.22-.01-.33-.01s-.22 0-.33.01c-.19.01-.5.01-.92.01-1.55 0-4.65-.1-8.04-.73-2.94-.55-5.08-3.17-5.08-6.21v-6.56h-12.1l4.31-29.8 1.82 12.42 5.97-.44V42.21c0-1.48.46-2.85 1.31-3.86 1.25-1.49 3.69-3.39 8.2-3.99l2.6-.35v-5.6h1.62l-2.75-4.55c-.21-.36-.37-.74-.47-1.14l-.18-.75-.29-.32.72-1.59c.16-.36.37-.69.63-.98l.73-.84V16.1h1.14v-4.55l-.02-2.1-1.97-.72c-.73-.27-1.6-.83-1.86-1.18.01-.02.02-.05.04-.08.15-.27.27-.4.33-.47m-.06-3c-1.06 0-2.04.5-2.88 1.99-2.07 3.64 3.42 5.57 3.42 5.57v1.55h-1.14v4.01c-.44.51-.8 1.08-1.09 1.7v-1.59h-.01l-.86.94-.86-.94-.86.94-.86-.94-.86.94-.86-.94-.86.94-.86-.94v1.55c-4.55.61-10.42 2.62-14.31 8.52-5.97 9.08-.7 29.8 3.03 41.48h-.81v-.5h-1.64v6.92h1.64v-.54h.57l-5.18 35.84h12.57v3.56c0 4.45 3.14 8.33 7.52 9.16 3.61.68 6.89.79 8.6.79.45 0 .8-.01 1.01-.01h.48c.21.01.55.01 1.01.01 1.71 0 4.99-.11 8.6-.79 4.38-.82 7.52-4.7 7.52-9.16V74.12h.1c.77 0 1.39-.62 1.39-1.39v-1.97c0-.77-.62-1.39-1.39-1.39h-.1V42.21c0-2.1-.66-4.18-2.01-5.79-1.75-2.08-4.9-4.42-10.42-5.08v-1.71h1.52v-4.22h-.23a7.034 7.034 0 0 0 1.03-3.67c0-1-.21-1.95-.58-2.81 11.22.14 19.62 9.29 19.62 9.29l.91-.58C87.6 16.37 75.26 14.4 70.47 14.06v-.96h-.88v-.45s7.49-6.39 17.08-6.39c1.81 0 3.7.23 5.63.77 0 0 1.43-2.65-7.17-2.87-.3-.01-.6-.01-.9-.01-6.96 0-12.49 2.03-15.94 2.03-.59 0-1.12-.06-1.59-.2C64.62 5.37 62.62 4 60.87 4zM45.18 68.78c-6.13-18.67-7.64-33.6-3.89-39.3 2.93-4.45 7.37-6.13 10.99-6.7v1.11l.86-.94.86.94.86-.94.86.94.86-.94.86.94.86-.94.44.48c.17.71.45 1.38.82 1.99h-.58v4.22h1.28v1.75c-5.32.71-8.39 3-10.11 5.04-1.35 1.61-2.01 3.69-2.01 5.79v27.16h-2.02l.74-.58h-1.68v-.02zm-4.98.62v-.61l.74.58h-.46c-.09 0-.19.01-.28.03zm0 5.26v-.57c.09.02.19.03.28.03h.41l-.69.54zm7.95 15.02l-2.21-15.02h.93l-.69-.54h1.98v15.56h-.01z" fill="#eee" opacity=".2"/></svg>