<svg viewBox="0 0 128 128" width="128" height="128" xmlns="http://www.w3.org/2000/svg" xmlns:xlink="http://www.w3.org/1999/xlink"><defs><path id="a" d="M104.29 33.74c3.28-.81 5.25 1.24 8.31 2.36.67.24 1.56-.03 1.88-.66 2.55-5-5.35-20.9-5.35-20.9s-15.37 7.34-20.39 4.83c-.63-.32-.92-1.21-.69-1.88 1.08-3.06 2.64-4.49 1.9-7.71-.82-3.57-4.27-6.07-7.91-5.66-5.09.58-9.19 6.02-6.66 11 .69 1.35 1.82 2.39 3.01 3.29.8.61 2.69 1.45 1.91 2.77C77.52 26 60.9 26.4 60.9 26.4s-.16 15.85 4.11 19.57c.7.61 1.85.45 2.45-.26 1.83-2.12 3.17-3.47 5.71-4.29 3.9-1.26 8.25.54 9.61 4.41a7.357 7.357 0 0 1-5.17 9.61c-3.28.81-5.25-1.24-8.31-2.36-.67-.24-1.56.03-1.88.66-2.54 5 5.34 20.9 5.34 20.9L121 62.78s.16-16.72-4.07-20.54c-.7-.63-1.87-.49-2.49.23-1.95 2.23-3.34 4.56-6.23 5.44-3.69 1.13-7.78-.89-9.08-4.52-1.49-4.18.97-8.62 5.16-9.65z"/></defs><clipPath id="b"><use xlink:href="#a"/></clipPath><g clip-path="url(#b)"><radialGradient id="c" cx="94.387" cy="51.512" r="81.556" gradientTransform="matrix(.8574 0 0 1.2211 -15.199 32.429)" gradientUnits="userSpaceOnUse"><stop stop-color="#81D4FA" offset="0"/><stop stop-color="#81D4FA" offset=".47"/><stop stop-color="#7BD2FA" offset=".549"/><stop stop-color="#6CCDF9" offset=".65"/><stop stop-color="#51C4F8" offset=".763"/><stop stop-color="#2DB7F6" offset=".884"/><stop stop-color="#03A9F4" offset="1"/></radialGradient><path fill="url(#c)" d="M5.12 1h118.32v124.55H5.12z"/><linearGradient id="d" x1="-1736" x2="-1736" y1="19.106" y2="67.447" gradientTransform="matrix(-1 0 0 1 -1672 0)" gradientUnits="userSpaceOnUse"><stop stop-color="#90A4AE" offset="0"/><stop stop-color="#849AA5" offset=".339"/><stop stop-color="#637F8D" offset=".958"/><stop stop-color="#607D8B" offset="1"/></linearGradient><path d="M25.51 42.27a6.57 6.57 0 0 1 3.84-1.92c1.86-.24 4.01.06 5.92-1.47C37.28 37.27 47.24 18.92 51.86 19c1.22.02 2.22 1.08 3.12 2.42 1.61 2.4 2.88 5.73 4.51 5.73 3.41 0 3.41 10.17 7.57 11.39 3.85 1.12 5.13 1.07 8.73 6.32 4.05-4.93 7.6-8.66 9.69-9.6.35-.16.66-.26.92-.26 3.02 0 6.13 8.05 9.24 12.99s4.57 3.66 7.5 3.29C106.07 50.92 124 79 124 79H4s13.95-28.93 21.51-36.73z" fill="url(#d)"/><path d="M25.51 42.27a6.57 6.57 0 0 1 3.84-1.92c1.86-.24 4.01.06 5.92-1.47C37.28 37.27 47.24 18.92 51.86 19c1.22.02 2.22 1.08 3.12 2.42 1.61 2.4 2.88 5.73 4.51 5.73 3.41 0 3.41 10.17 7.57 11.39 3.85 1.12 5.13 1.07 8.73 6.32 4.05-4.93 7.6-8.66 9.69-9.6.35-.16.66-.26.92-.26 3.02 0 6.13 8.05 9.24 12.99s4.57 3.66 7.5 3.29C106.07 50.92 124 79 124 79H4s13.95-28.93 21.51-36.73z" fill="url(#d)"/><radialGradient id="e" cx="48.812" cy="30.625" r="54.414" gradientUnits="userSpaceOnUse"><stop stop-color="#4DB6AC" offset="0"/><stop stop-color="#4AB5AA" offset=".254"/><stop stop-color="#3FB0A5" offset=".472"/><stop stop-color="#2DA99D" offset=".676"/><stop stop-color="#159F92" offset=".872"/><stop stop-color="#009688" offset="1"/></radialGradient><path d="M76.72 46.23c-4.34-6.65-5.49-6.47-9.65-7.69-4.16-1.21-4.16-11.39-7.57-11.39-1.63 0-2.91-3.33-4.51-5.73-.9-1.34-1.89-2.4-3.12-2.42-4.63-.08-14.58 18.27-16.59 19.88-1.91 1.53-4.06 1.22-5.92 1.47-1.46.19-2.81.86-3.84 1.92C17.95 50.07 4 79 4 79h94.8c-2.95-1.16-14.25-20.77-22.08-32.77z" fill="url(#e)" opacity=".8"/><radialGradient id="f" cx="85.75" cy="39.062" r="39.982" gradientUnits="userSpaceOnUse"><stop stop-color="#66BB6A" offset="0"/><stop stop-color="#52AC56" offset=".603"/><stop stop-color="#43A047" offset="1"/></radialGradient><path d="M103.14 51.28c-2.93.37-4.39 1.65-7.5-3.29S89.42 35 86.4 35c-.26 0-.57.1-.91.26C78.64 38.33 56.27 71.07 51.73 79H124s-17.93-28.08-20.86-27.72z" fill="url(#f)"/><path d="M80.86 51.93c.11-.31-.29-.53-.49-.27-2.62 3.46-12.53 13.15-16.26 17.4-.36.41.1 1.03.6.8 1.52-.7 4.57-2.44 4.86-3.1.41-.93 2.79-3.28 3.54-4.02.15-.14.3-.28.46-.41l3-2.49c.59-.49 1.06-1.1 1.38-1.78l2.91-6.13zM84.48 59.39c.16-.21-.07-.49-.3-.38l-2.87 1.26c-.22.14-.39.35-.5.59l-3.58 7.37c-.06.3.35.46.5.18l6.75-9.02z" fill="#81C784" opacity=".2"/><path d="M46.35 33.55c.07-.43-.51-.62-.7-.23C43.13 38.48 32.71 53.55 28.94 60c-.37.63.39 1.31.98.88 1.79-1.29 5.32-4.32 5.52-5.24.29-1.31 2.79-4.96 3.58-6.11.16-.22.32-.44.49-.65l3.26-3.99a6.92 6.92 0 0 0 1.35-2.66l2.23-8.68zM33.81 46.63c.23-.26-.03-.65-.35-.54l-3.92 1.32c-.3.16-.56.41-.73.71l-5.59 9.28c-.12.39.41.64.64.3l9.95-11.07z" fill="#4DB6AC" opacity=".2"/><path d="M101.42 65.73c.19.12.4-.13.25-.3-2.02-2.26-7.33-10.36-9.74-13.48-.23-.3-.72-.07-.63.3.28 1.13 1.06 3.46 1.47 3.75.59.4 1.88 2.35 2.28 2.97.08.12.15.24.22.37l1.31 2.39c.26.47.61.87 1.04 1.19l3.8 2.81zM100.36 59.05c-.08-.16.06-.2.25-.07l3.23 2.4c.23.11.47.31.61.52l3.33 4.81-2.52-2.35c-.12-.11-.25-.11-.21-.01l1.49 3.9c.05.17-.23.09-.73 0l-5.45-9.2z" fill="#81C784" opacity=".2"/><path d="M52.89 34.59c-.07-.28.17-.28.41-.01l4.03 4.92c.32.27.6.66.74 1.03l3.26 8.66-2.97-4.57c-.14-.21-.34-.27-.32-.09l.79 6.56c.02.28-.39.05-1.12-.28l-4.82-16.22z" fill="#4DB6AC" opacity=".2"/><linearGradient id="g" x1="64.912" x2="64.912" y1="61" y2="83.75" gradientUnits="userSpaceOnUse"><stop stop-color="#43A047" offset="0"/><stop stop-color="#378C3B" offset=".603"/><stop stop-color="#2E7D32" offset="1"/></linearGradient><path d="M90.69 79.1s-1.33-.87-2.02-2.12c.72.09 1.89.15 1.56-.54 0 0-1.46-1-2-2.4.22.02.46-.01.68-.15 0 0 .31-.21-.53-1 0 0-.72-.6-1.84-3.32a.547.547 0 0 0-1.01-.03c-.5 1.06-1.28 2.58-2.08 3.53 0 0-1.06 1.25.68.79-.3.41-1.46 1.93-2.18 2.32 0 0-.16.17-.14.36-.42-.44-.87-1.01-1.15-1.66.72.09 1.88.14 1.55-.51 0 0-1.2-.78-1.82-1.9.65.08 1.7.13 1.4-.48 0 0-1.31-.9-1.79-2.15.2.02.41-.01.61-.13 0 0 .27-.19-.47-.9 0 0-.64-.54-1.66-2.98a.493.493 0 0 0-.91-.03c-.45.95-1.15 2.32-1.87 3.18 0 0-.95 1.12.61.71-.27.37-1.31 1.74-1.96 2.09 0 0-.74.81 1.34.7-.49.58-1.23 1.41-1.75 1.67 0 0-.85.88 1.59.73-.3.4-.77.98-1.24 1.48-.01-.05-.01-.09-.04-.14 0 0-1.2-.78-1.82-1.9.65.08 1.7.13 1.4-.48 0 0-1.31-.9-1.79-2.15.2.02.41-.01.61-.13 0 0 .27-.19-.47-.9 0 0-.64-.54-1.66-2.98a.493.493 0 0 0-.91-.03c-.45.95-1.15 2.32-1.87 3.18 0 0-.95 1.12.61.71-.27.37-1.31 1.74-1.96 2.09 0 0-.74.81 1.34.7-.46.55-1.16 1.32-1.67 1.62-.17-.26-.32-.53-.44-.83.26.03.53-.01.79-.17 0 0 .36-.25-.62-1.17 0 0-.83-.7-2.15-3.87a.64.64 0 0 0-1.18-.03c-.58 1.23-1.5 3.01-2.42 4.12 0 0-1.23 1.46.79.93-.22.29-.81 1.08-1.44 1.75-.38-.37-.83-.9-1.1-1.52.58.07 1.51.11 1.24-.41 0 0-.96-.62-1.46-1.52.52.07 1.36.1 1.12-.39 0 0-1.05-.72-1.44-1.72.16.02.33-.01.49-.11 0 0 .22-.15-.38-.72 0 0-.52-.43-1.33-2.39a.395.395 0 0 0-.73-.02c-.36.76-.92 1.86-1.5 2.54 0 0-.76.9.49.57-.22.29-1.05 1.39-1.57 1.67 0 0-.59.65 1.07.56-.39.47-.99 1.13-1.4 1.34 0 0-.68.7 1.27.59-.43.56-1.26 1.58-1.82 1.89 0 0-.77.84 1.39.73-.51.61-1.28 1.46-1.82 1.74 0 0-.09.1-.13.22-.25-.24-.5-.55-.69-.89.52.07 1.36.1 1.12-.39 0 0-1.05-.72-1.44-1.72.16.02.33-.01.49-.11 0 0 .22-.15-.38-.72 0 0-.52-.43-1.33-2.39a.395.395 0 0 0-.73-.02c-.36.76-.92 1.86-1.5 2.54 0 0-.76.9.49.57-.22.29-1.05 1.39-1.57 1.67 0 0-.59.65 1.07.56a9.6 9.6 0 0 1-.46.52c0-.04-.01-.08-.04-.14 0 0-.96-.62-1.46-1.52.52.07 1.36.1 1.12-.39 0 0-1.05-.72-1.44-1.72.16.02.33-.01.49-.11 0 0 .22-.15-.38-.72 0 0-.52-.43-1.33-2.39a.395.395 0 0 0-.73-.02c-.36.76-.92 1.86-1.5 2.54 0 0-.76.9.49.57-.22.29-1.05 1.39-1.57 1.67 0 0-.59.65 1.07.56-.39.47-.99 1.13-1.4 1.34 0 0-.68.7 1.27.59-.43.56-1.26 1.58-1.82 1.89 0 0-.77.84 1.39.73-.51.61-1.28 1.46-1.82 1.74 0 0-1.01 1.04 2.22.71 0 0 .17 1.04 2.22.12 0 0 .66.35 1.23.38-.16.22-.46.92 2.27.65 0 0 .17 1.04 2.22.12 0 0 1.79.95 1.99-.15 0 0 2.65.51 2.16-.45 0 0-1.24-.81-1.89-1.98.67.09 1.77.14 1.45-.5 0 0-1.26-.88-1.8-2.11.58.07 1.51.11 1.24-.41l-.18-.13c.36.06.91.07 1.77-.01 0 0 .17 1.04 2.22.12 0 0 .79.42 1.38.38-.04.04-1.2 1.29 2.78.89 0 0 .22 1.3 2.77.15 0 0 .74.39 1.41.46-.18.23-.76 1.2 2.81.84 0 0 .22 1.3 2.77.15 0 0 2.23 1.19 2.48-.19 0 0 3.31.63 2.7-.56 0 0-.68-.45-1.37-1.17.37 0 .82-.02 1.38-.08 0 0 .22 1.3 2.77.15 0 0 2.23 1.19 2.48-.19 0 0 3.31.63 2.7-.56 0 0-.55-.37-1.17-.96.38.03.89.02 1.6-.05 0 0 .19 1.12 2.38.13 0 0 1.92 1.02 2.13-.16.06.02 2.9.56 2.38-.46zm-44.78 1.08l-.02.02c-.12-.18-.23-.37-.32-.57.33.04.76.07 1.03-.01-.24.24-.48.46-.69.56zm.89 1.07c-.15-.14-.32-.31-.49-.5.21.03.49.04.87.02-.1.14-.23.3-.38.48zm11.5-.93c.01-.04.03-.08.04-.13 0 0 .04.01.09.02-.05.03-.09.07-.13.11zm14.83-.28c-.01-.02-.02-.03-.03-.05.02 0 .05.01.08.01-.02.02-.03.03-.05.04z" fill="url(#g)"/><linearGradient id="h" x1="37.014" x2="37.014" y1="61" y2="83.75" gradientUnits="userSpaceOnUse"><stop stop-color="#43A047" offset="0"/><stop stop-color="#378C3B" offset=".603"/><stop stop-color="#2E7D32" offset="1"/></linearGradient><path d="M40.08 80.5s-.88-.57-1.33-1.39c.47.06 1.25.1 1.03-.35 0 0-.96-.66-1.31-1.58.15.02.3-.01.44-.1 0 0 .2-.14-.35-.66 0 0-.47-.4-1.21-2.19a.364.364 0 0 0-.67-.02c-.33.7-.84 1.7-1.37 2.33 0 0-.7.82.45.52-.2.27-.96 1.27-1.43 1.53 0 0-.54.59.98.51-.36.43-.9 1.03-1.28 1.23 0 0-.71.73 1.57.5 0 0 .12.73 1.57.08 0 0 1.26.67 1.4-.1-.02 0 1.85.36 1.51-.31z" fill="url(#h)"/><linearGradient id="i" x1="109.74" x2="109.74" y1="61" y2="83.75" gradientUnits="userSpaceOnUse"><stop stop-color="#43A047" offset="0"/><stop stop-color="#378C3B" offset=".603"/><stop stop-color="#2E7D32" offset="1"/></linearGradient><path d="M117.26 80.96s-1.36-.89-2.07-2.17c.74.09 1.94.15 1.6-.55 0 0-1.5-1.03-2.04-2.46.23.02.47-.01.69-.15 0 0 .31-.22-.54-1.03 0 0-.73-.62-1.89-3.4a.562.562 0 0 0-1.04-.03c-.51 1.09-1.31 2.65-2.13 3.62 0 0-1.08 1.28.69.81-.17.23-.61.8-1.08 1.34l-.05-.05s-.73-.62-1.89-3.4a.562.562 0 0 0-1.04-.03c-.51 1.09-1.31 2.65-2.13 3.62 0 0-1.08 1.28.69.81-.31.42-1.49 1.98-2.23 2.38 0 0-.85.93 1.53.8-.56.66-1.41 1.6-2 1.91 0 0-1.11 1.14 2.44.78 0 0 .19 1.14 2.44.13 0 0 1.96 1.04 2.18-.16 0 0 2.91.55 2.37-.49 0 0-1.07-.7-1.8-1.74.1-.01.2-.01.31-.03 0 0 .19 1.14 2.44.13 0 0 1.96 1.04 2.18-.16-.01.01 2.9.56 2.37-.48zm-7.65-2.17c.07 0 .13 0 .21-.01-.04.05-.08.09-.12.14a.73.73 0 0 1-.09-.13z" fill="url(#i)"/><radialGradient id="j" cx="63" cy="557.75" r="78.387" gradientTransform="matrix(1 0 0 .8 0 -366.4)" gradientUnits="userSpaceOnUse"><stop stop-color="#8BC34A" offset="0"/><stop stop-color="#84BC47" offset=".247"/><stop stop-color="#72AA3D" offset=".598"/><stop stop-color="#689F38" offset=".753"/><stop stop-color="#689F38" offset="1"/></radialGradient><path fill="url(#j)" d="M4 79h120v48H4z"/><path d="M101.78 102.83h-1.38c-.76 0-1.38-.62-1.38-1.38v-6.89h4.13v6.89c.01.77-.61 1.38-1.37 1.38z" fill="#795548"/><radialGradient id="k" cx="100.75" cy="63.625" r="34.792" gradientUnits="userSpaceOnUse"><stop stop-color="#43A047" offset="0"/><stop stop-color="#378C3B" offset=".603"/><stop stop-color="#2E7D32" offset="1"/></radialGradient><path d="M114.01 94.41s-3.7-2.41-5.62-5.88c2 .25 5.25.4 4.33-1.49 0 0-4.05-2.79-5.54-6.65.62.07 1.27-.02 1.87-.41 0 0 .85-.59-1.47-2.78 0 0-1.99-1.68-5.12-9.22-.53-1.26-2.23-1.32-2.81-.08-1.38 2.94-3.56 7.17-5.78 9.81 0 0-2.93 3.47 1.88 2.2-.83 1.13-4.04 5.36-6.04 6.45 0 0-2.29 2.51 4.15 2.17-1.51 1.8-3.81 4.34-5.41 5.17 0 0-3 3.1 6.6 2.12 0 0 .51 3.1 6.6.35 0 0 5.32 2.83 5.92-.44 0 .01 7.89 1.52 6.44-1.32z" fill="url(#k)"/><linearGradient id="l" x1="42.143" x2="42.143" y1="76.75" y2="115.38" gradientUnits="userSpaceOnUse"><stop stop-color="#039BE5" offset="0"/><stop stop-color="#039BE5" offset=".401"/><stop stop-color="#0A87D8" offset=".649"/><stop stop-color="#1565C0" offset="1"/></linearGradient><path d="M58.38 108.5c14.28-6.71 23.62-13.2-9.25-20-25.68-5.31-26.6-9.5-26.6-9.5h-9.94c-.59 5.5 11.6 9.38 23.15 13.15C47.25 95.9 57 99 32.51 105.9 14.65 110.93 6.4 118.3 8.27 127h68c-25-4.13-30.02-12.8-17.89-18.5z" fill="url(#l)"/><path d="M19.64 95.8h-1.17c-.65 0-1.17-.52-1.17-1.17v-5.84h3.5v5.84c.01.65-.51 1.17-1.16 1.17z" fill="#795548"/><radialGradient id="m" cx="12.625" cy="58.375" r="34.23" gradientUnits="userSpaceOnUse"><stop stop-color="#43A047" offset="0"/><stop stop-color="#378C3B" offset=".603"/><stop stop-color="#2E7D32" offset="1"/></radialGradient><path d="M30 88.66s-3.13-2.04-4.76-4.98c1.7.22 4.45.34 3.67-1.27 0 0-3.44-2.36-4.69-5.64.52.06 1.08-.02 1.59-.35 0 0 .72-.5-1.24-2.35 0 0-1.68-1.42-4.34-7.81-.44-1.07-1.89-1.12-2.38-.07-1.17 2.49-3.02 6.08-4.9 8.32 0 0-2.48 2.94 1.59 1.87-.71.96-3.43 4.54-5.12 5.47 0 0-1.94 2.13 3.51 1.84-1.28 1.53-3.23 3.68-4.59 4.38 0 0-2.54 2.62 5.6 1.8 0 0 .44 2.62 5.6.3 0 0 4.51 2.4 5.02-.37-.01-.01 6.68 1.26 5.44-1.14z" fill="url(#m)"/></g><defs><path id="n" d="M70.21 94.91c-3.16-1.01-4.79-.08-7.88.87-.81.25-1.75-.19-2.03-.99-1.87-5.33 6.35-19.36 6.35-19.36s-17.39-1.49-20.01-6.41c-.29-.54-.09-1.29.39-1.66 2.22-1.73 4.62-2.89 5.66-5.71.94-2.56.6-5.65-1.4-7.6-2.93-2.86-7.77-3.11-10.72-.11-2.94 2.99-2.29 6.71-1.17 10.3.2.63-.1 1.43-.7 1.71-5.04 2.37-19.38-5.58-19.38-5.58s-7.77 14.9-5.85 20.22c.27.74 1.12 1.2 1.89.99 3.59-.98 4.53-3.19 8.72-1.25 2.02.94 3.51 2.81 3.84 5.01.92 6.1-4.51 10.12-9.5 8.53-3.27-1.04-3.27-3.72-5.45-6.33-.4-.48-1.19-.66-1.73-.36-4.85 2.74-6.98 20.53-6.98 20.53l47.34 15.06s1.47-16.56 6.36-19.26c.54-.3 1.31-.11 1.7.37 2.13 2.66 2.83 3.97 6.08 5.04 2.58.85 6.16-.07 7.85-2.19 3.52-4.41 1.38-10.31-3.38-11.82z"/></defs><clipPath id="o"><use xlink:href="#n"/></clipPath><g clip-path="url(#o)"><path fill="url(#c)" d="M5.12 1h118.32v124.55H5.12z"/><path d="M25.51 42.27a6.57 6.57 0 0 1 3.84-1.92c1.86-.24 4.01.06 5.92-1.47C37.28 37.27 47.24 18.92 51.86 19c1.22.02 2.22 1.08 3.12 2.42 1.61 2.4 2.88 5.73 4.51 5.73 3.41 0 3.41 10.17 7.57 11.39 3.85 1.12 5.13 1.07 8.73 6.32 4.05-4.93 7.6-8.66 9.69-9.6.35-.16.66-.26.92-.26 3.02 0 6.13 8.05 9.24 12.99s4.57 3.66 7.5 3.29C106.07 50.92 124 79 124 79H4s13.95-28.93 21.51-36.73z" fill="url(#d)"/><path d="M25.51 42.27a6.57 6.57 0 0 1 3.84-1.92c1.86-.24 4.01.06 5.92-1.47C37.28 37.27 47.24 18.92 51.86 19c1.22.02 2.22 1.08 3.12 2.42 1.61 2.4 2.88 5.73 4.51 5.73 3.41 0 3.41 10.17 7.57 11.39 3.85 1.12 5.13 1.07 8.73 6.32 4.05-4.93 7.6-8.66 9.69-9.6.35-.16.66-.26.92-.26 3.02 0 6.13 8.05 9.24 12.99s4.57 3.66 7.5 3.29C106.07 50.92 124 79 124 79H4s13.95-28.93 21.51-36.73z" fill="url(#d)"/><path d="M76.72 46.23c-4.34-6.65-5.49-6.47-9.65-7.69-4.16-1.21-4.16-11.39-7.57-11.39-1.63 0-2.91-3.33-4.51-5.73-.9-1.34-1.89-2.4-3.12-2.42-4.63-.08-14.58 18.27-16.59 19.88-1.91 1.53-4.06 1.22-5.92 1.47-1.46.19-2.81.86-3.84 1.92C17.95 50.07 4 79 4 79h94.8c-2.95-1.16-14.25-20.77-22.08-32.77z" fill="url(#e)" opacity=".8"/><path d="M103.14 51.28c-2.93.37-4.39 1.65-7.5-3.29S89.42 35 86.4 35c-.26 0-.57.1-.91.26C78.64 38.33 56.27 71.07 51.73 79H124s-17.93-28.08-20.86-27.72z" fill="url(#f)"/><path d="M80.86 51.93c.11-.31-.29-.53-.49-.27-2.62 3.46-12.53 13.15-16.26 17.4-.36.41.1 1.03.6.8 1.52-.7 4.57-2.44 4.86-3.1.41-.93 2.79-3.28 3.54-4.02.15-.14.3-.28.46-.41l3-2.49c.59-.49 1.06-1.1 1.38-1.78l2.91-6.13zM84.48 59.39c.16-.21-.07-.49-.3-.38l-2.87 1.26c-.22.14-.39.35-.5.59l-3.58 7.37c-.06.3.35.46.5.18l6.75-9.02z" fill="#81C784" opacity=".2"/><path d="M46.35 33.55c.07-.43-.51-.62-.7-.23C43.13 38.48 32.71 53.55 28.94 60c-.37.63.39 1.31.98.88 1.79-1.29 5.32-4.32 5.52-5.24.29-1.31 2.79-4.96 3.58-6.11.16-.22.32-.44.49-.65l3.26-3.99a6.92 6.92 0 0 0 1.35-2.66l2.23-8.68zM33.81 46.63c.23-.26-.03-.65-.35-.54l-3.92 1.32c-.3.16-.56.41-.73.71l-5.59 9.28c-.12.39.41.64.64.3l9.95-11.07z" fill="#4DB6AC" opacity=".2"/><path d="M101.42 65.73c.19.12.4-.13.25-.3-2.02-2.26-7.33-10.36-9.74-13.48-.23-.3-.72-.07-.63.3.28 1.13 1.06 3.46 1.47 3.75.59.4 1.88 2.35 2.28 2.97.08.12.15.24.22.37l1.31 2.39c.26.47.61.87 1.04 1.19l3.8 2.81zM100.36 59.05c-.08-.16.06-.2.25-.07l3.23 2.4c.23.11.47.31.61.52l3.33 4.81-2.52-2.35c-.12-.11-.25-.11-.21-.01l1.49 3.9c.05.17-.23.09-.73 0l-5.45-9.2z" fill="#81C784" opacity=".2"/><path d="M52.89 34.59c-.07-.28.17-.28.41-.01l4.03 4.92c.32.27.6.66.74 1.03l3.26 8.66-2.97-4.57c-.14-.21-.34-.27-.32-.09l.79 6.56c.02.28-.39.05-1.12-.28l-4.82-16.22z" fill="#4DB6AC" opacity=".2"/><path d="M90.69 79.1s-1.33-.87-2.02-2.12c.72.09 1.89.15 1.56-.54 0 0-1.46-1-2-2.4.22.02.46-.01.68-.15 0 0 .31-.21-.53-1 0 0-.72-.6-1.84-3.32a.547.547 0 0 0-1.01-.03c-.5 1.06-1.28 2.58-2.08 3.53 0 0-1.06 1.25.68.79-.3.41-1.46 1.93-2.18 2.32 0 0-.16.17-.14.36-.42-.44-.87-1.01-1.15-1.66.72.09 1.88.14 1.55-.51 0 0-1.2-.78-1.82-1.9.65.08 1.7.13 1.4-.48 0 0-1.31-.9-1.79-2.15.2.02.41-.01.61-.13 0 0 .27-.19-.47-.9 0 0-.64-.54-1.66-2.98a.493.493 0 0 0-.91-.03c-.45.95-1.15 2.32-1.87 3.18 0 0-.95 1.12.61.71-.27.37-1.31 1.74-1.96 2.09 0 0-.74.81 1.34.7-.49.58-1.23 1.41-1.75 1.67 0 0-.85.88 1.59.73-.3.4-.77.98-1.24 1.48-.01-.05-.01-.09-.04-.14 0 0-1.2-.78-1.82-1.9.65.08 1.7.13 1.4-.48 0 0-1.31-.9-1.79-2.15.2.02.41-.01.61-.13 0 0 .27-.19-.47-.9 0 0-.64-.54-1.66-2.98a.493.493 0 0 0-.91-.03c-.45.95-1.15 2.32-1.87 3.18 0 0-.95 1.12.61.71-.27.37-1.31 1.74-1.96 2.09 0 0-.74.81 1.34.7-.46.55-1.16 1.32-1.67 1.62-.17-.26-.32-.53-.44-.83.26.03.53-.01.79-.17 0 0 .36-.25-.62-1.17 0 0-.83-.7-2.15-3.87a.64.64 0 0 0-1.18-.03c-.58 1.23-1.5 3.01-2.42 4.12 0 0-1.23 1.46.79.93-.22.29-.81 1.08-1.44 1.75-.38-.37-.83-.9-1.1-1.52.58.07 1.51.11 1.24-.41 0 0-.96-.62-1.46-1.52.52.07 1.36.1 1.12-.39 0 0-1.05-.72-1.44-1.72.16.02.33-.01.49-.11 0 0 .22-.15-.38-.72 0 0-.52-.43-1.33-2.39a.395.395 0 0 0-.73-.02c-.36.76-.92 1.86-1.5 2.54 0 0-.76.9.49.57-.22.29-1.05 1.39-1.57 1.67 0 0-.59.65 1.07.56-.39.47-.99 1.13-1.4 1.34 0 0-.68.7 1.27.59-.43.56-1.26 1.58-1.82 1.89 0 0-.77.84 1.39.73-.51.61-1.28 1.46-1.82 1.74 0 0-.09.1-.13.22-.25-.24-.5-.55-.69-.89.52.07 1.36.1 1.12-.39 0 0-1.05-.72-1.44-1.72.16.02.33-.01.49-.11 0 0 .22-.15-.38-.72 0 0-.52-.43-1.33-2.39a.395.395 0 0 0-.73-.02c-.36.76-.92 1.86-1.5 2.54 0 0-.76.9.49.57-.22.29-1.05 1.39-1.57 1.67 0 0-.59.65 1.07.56a9.6 9.6 0 0 1-.46.52c0-.04-.01-.08-.04-.14 0 0-.96-.62-1.46-1.52.52.07 1.36.1 1.12-.39 0 0-1.05-.72-1.44-1.72.16.02.33-.01.49-.11 0 0 .22-.15-.38-.72 0 0-.52-.43-1.33-2.39a.395.395 0 0 0-.73-.02c-.36.76-.92 1.86-1.5 2.54 0 0-.76.9.49.57-.22.29-1.05 1.39-1.57 1.67 0 0-.59.65 1.07.56-.39.47-.99 1.13-1.4 1.34 0 0-.68.7 1.27.59-.43.56-1.26 1.58-1.82 1.89 0 0-.77.84 1.39.73-.51.61-1.28 1.46-1.82 1.74 0 0-1.01 1.04 2.22.71 0 0 .17 1.04 2.22.12 0 0 .66.35 1.23.38-.16.22-.46.92 2.27.65 0 0 .17 1.04 2.22.12 0 0 1.79.95 1.99-.15 0 0 2.65.51 2.16-.45 0 0-1.24-.81-1.89-1.98.67.09 1.77.14 1.45-.5 0 0-1.26-.88-1.8-2.11.58.07 1.51.11 1.24-.41l-.18-.13c.36.06.91.07 1.77-.01 0 0 .17 1.04 2.22.12 0 0 .79.42 1.38.38-.04.04-1.2 1.29 2.78.89 0 0 .22 1.3 2.77.15 0 0 .74.39 1.41.46-.18.23-.76 1.2 2.81.84 0 0 .22 1.3 2.77.15 0 0 2.23 1.19 2.48-.19 0 0 3.31.63 2.7-.56 0 0-.68-.45-1.37-1.17.37 0 .82-.02 1.38-.08 0 0 .22 1.3 2.77.15 0 0 2.23 1.19 2.48-.19 0 0 3.31.63 2.7-.56 0 0-.55-.37-1.17-.96.38.03.89.02 1.6-.05 0 0 .19 1.12 2.38.13 0 0 1.92 1.02 2.13-.16.06.02 2.9.56 2.38-.46zm-44.78 1.08l-.02.02c-.12-.18-.23-.37-.32-.57.33.04.76.07 1.03-.01-.24.24-.48.46-.69.56zm.89 1.07c-.15-.14-.32-.31-.49-.5.21.03.49.04.87.02-.1.14-.23.3-.38.48zm11.5-.93c.01-.04.03-.08.04-.13 0 0 .04.01.09.02-.05.03-.09.07-.13.11zm14.83-.28c-.01-.02-.02-.03-.03-.05.02 0 .05.01.08.01-.02.02-.03.03-.05.04z" fill="url(#g)"/><path d="M40.08 80.5s-.88-.57-1.33-1.39c.47.06 1.25.1 1.03-.35 0 0-.96-.66-1.31-1.58.15.02.3-.01.44-.1 0 0 .2-.14-.35-.66 0 0-.47-.4-1.21-2.19a.364.364 0 0 0-.67-.02c-.33.7-.84 1.7-1.37 2.33 0 0-.7.82.45.52-.2.27-.96 1.27-1.43 1.53 0 0-.54.59.98.51-.36.43-.9 1.03-1.28 1.23 0 0-.71.73 1.57.5 0 0 .12.73 1.57.08 0 0 1.26.67 1.4-.1-.02 0 1.85.36 1.51-.31z" fill="url(#h)"/><path d="M117.26 80.96s-1.36-.89-2.07-2.17c.74.09 1.94.15 1.6-.55 0 0-1.5-1.03-2.04-2.46.23.02.47-.01.69-.15 0 0 .31-.22-.54-1.03 0 0-.73-.62-1.89-3.4a.562.562 0 0 0-1.04-.03c-.51 1.09-1.31 2.65-2.13 3.62 0 0-1.08 1.28.69.81-.17.23-.61.8-1.08 1.34l-.05-.05s-.73-.62-1.89-3.4a.562.562 0 0 0-1.04-.03c-.51 1.09-1.31 2.65-2.13 3.62 0 0-1.08 1.28.69.81-.31.42-1.49 1.98-2.23 2.38 0 0-.85.93 1.53.8-.56.66-1.41 1.6-2 1.91 0 0-1.11 1.14 2.44.78 0 0 .19 1.14 2.44.13 0 0 1.96 1.04 2.18-.16 0 0 2.91.55 2.37-.49 0 0-1.07-.7-1.8-1.74.1-.01.2-.01.31-.03 0 0 .19 1.14 2.44.13 0 0 1.96 1.04 2.18-.16-.01.01 2.9.56 2.37-.48zm-7.65-2.17c.07 0 .13 0 .21-.01-.04.05-.08.09-.12.14a.73.73 0 0 1-.09-.13z" fill="url(#i)"/><path fill="url(#j)" d="M4 79h120v48H4z"/><path d="M101.78 102.83h-1.38c-.76 0-1.38-.62-1.38-1.38v-6.89h4.13v6.89c.01.77-.61 1.38-1.37 1.38z" fill="#795548"/><path d="M114.01 94.41s-3.7-2.41-5.62-5.88c2 .25 5.25.4 4.33-1.49 0 0-4.05-2.79-5.54-6.65.62.07 1.27-.02 1.87-.41 0 0 .85-.59-1.47-2.78 0 0-1.99-1.68-5.12-9.22-.53-1.26-2.23-1.32-2.81-.08-1.38 2.94-3.56 7.17-5.78 9.81 0 0-2.93 3.47 1.88 2.2-.83 1.13-4.04 5.36-6.04 6.45 0 0-2.29 2.51 4.15 2.17-1.51 1.8-3.81 4.34-5.41 5.17 0 0-3 3.1 6.6 2.12 0 0 .51 3.1 6.6.35 0 0 5.32 2.83 5.92-.44 0 .01 7.89 1.52 6.44-1.32z" fill="url(#k)"/><path d="M58.38 108.5c14.28-6.71 23.62-13.2-9.25-20-25.68-5.31-26.6-9.5-26.6-9.5h-9.94c-.59 5.5 11.6 9.38 23.15 13.15C47.25 95.9 57 99 32.51 105.9 14.65 110.93 6.4 118.3 8.27 127h68c-25-4.13-30.02-12.8-17.89-18.5z" fill="url(#l)"/><path d="M19.64 95.8h-1.17c-.65 0-1.17-.52-1.17-1.17v-5.84h3.5v5.84c.01.65-.51 1.17-1.16 1.17z" fill="#795548"/><path d="M30 88.66s-3.13-2.04-4.76-4.98c1.7.22 4.45.34 3.67-1.27 0 0-3.44-2.36-4.69-5.64.52.06 1.08-.02 1.59-.35 0 0 .72-.5-1.24-2.35 0 0-1.68-1.42-4.34-7.81-.44-1.07-1.89-1.12-2.38-.07-1.17 2.49-3.02 6.08-4.9 8.32 0 0-2.48 2.94 1.59 1.87-.71.96-3.43 4.54-5.12 5.47 0 0-1.94 2.13 3.51 1.84-1.28 1.53-3.23 3.68-4.59 4.38 0 0-2.54 2.62 5.6 1.8 0 0 .44 2.62 5.6.3 0 0 4.51 2.4 5.02-.37-.01-.01 6.68 1.26 5.44-1.14z" fill="url(#m)"/></g><path d="M82.84 6.08c2.4 0 4.63 1.78 5.17 4.15.38 1.64-.04 2.52-.79 4.12-.33.71-.71 1.51-1.05 2.48-.58 1.64.18 3.58 1.68 4.33.99.49 2.19.73 3.67.73 5.23 0 13.11-3.17 16.65-4.72 2.66 5.77 5.49 13.86 4.7 16.88-.64-.26-1.26-.58-1.86-.88-1.57-.8-3.18-1.62-5.26-1.62-.64 0-1.29.08-1.95.24-2.57.63-4.76 2.33-6.01 4.66s-1.45 5.1-.56 7.6c1.32 3.69 4.88 6.16 8.86 6.16.91 0 1.82-.13 2.69-.4 2.91-.89 4.53-2.87 6.11-4.79.29-.36.59-.72.9-1.08 2.12 2.4 3.1 10.95 3.19 17.27l-45.13 11.1c-2.7-5.79-5.64-14.11-4.84-17.18.64.26 1.26.58 1.86.88 1.57.8 3.18 1.62 5.26 1.62.64 0 1.29-.08 1.95-.24a9.394 9.394 0 0 0 6-4.64 9.415 9.415 0 0 0 .59-7.58c-1.31-3.73-4.84-6.14-8.98-6.14-1.06 0-2.12.17-3.13.49-3 .97-4.6 2.57-6.46 4.72-2.06-2.27-3.05-10.01-3.18-15.92 5.07-.28 16.39-1.42 19.14-6.12 1.06-1.81.37-3.53-2.04-5.11-.15-.1-.28-.18-.39-.26-.84-.64-1.89-1.52-2.44-2.61-1.03-2.02-.39-3.81.09-4.7.99-1.84 2.95-3.17 5.01-3.41.18-.02.37-.03.55-.03m0-2c-.26 0-.52.01-.79.04-5.09.58-9.19 6.02-6.66 11 .69 1.35 1.82 2.39 3.01 3.29.8.61 2.69 1.45 1.91 2.77C77.52 26 60.9 26.4 60.9 26.4s-.16 15.85 4.11 19.57c.3.26.67.38 1.05.38.52 0 1.05-.23 1.4-.63 1.83-2.12 3.17-3.47 5.71-4.29.83-.27 1.68-.4 2.52-.4 3.1 0 6.02 1.76 7.09 4.81a7.357 7.357 0 0 1-5.17 9.61c-.52.13-1 .18-1.47.18-2.46 0-4.27-1.6-6.85-2.54-.16-.06-.34-.09-.52-.09-.55 0-1.11.27-1.36.75-2.54 5 5.34 20.9 5.34 20.9L121 62.78s.16-16.72-4.07-20.54c-.3-.27-.69-.4-1.09-.4-.52 0-1.05.22-1.4.63-1.95 2.23-3.34 4.56-6.23 5.44-.69.21-1.4.31-2.1.31-3.03 0-5.92-1.88-6.98-4.84a7.358 7.358 0 0 1 5.16-9.64 6.02 6.02 0 0 1 1.47-.18c2.46 0 4.27 1.6 6.85 2.54.16.06.34.09.52.09.55 0 1.11-.27 1.36-.75 2.54-5-5.35-20.9-5.35-20.9S97.93 19.9 91.53 19.9c-1.09 0-2.05-.16-2.78-.52-.63-.32-.92-1.21-.69-1.88 1.08-3.06 2.64-4.49 1.9-7.71-.76-3.31-3.78-5.71-7.12-5.71zM45.76 53.78c1.53 0 3.03.62 4.13 1.69 1.49 1.45 1.54 3.8.92 5.48-.61 1.65-1.9 2.57-3.54 3.74-.48.34-.97.69-1.47 1.08-1.27.99-1.67 2.78-.93 4.18 2.39 4.51 12.93 6.43 18.56 7.14-2.51 4.72-6.67 13.66-5.03 18.36.5 1.43 1.89 2.4 3.44 2.4.36 0 .72-.05 1.06-.16.5-.15.97-.31 1.41-.45 1.34-.44 2.3-.76 3.32-.76.6 0 1.23.11 1.96.34 1.68.53 2.99 1.86 3.5 3.55.52 1.73.13 3.59-1.08 5.11-.84 1.05-2.53 1.76-4.21 1.76-.53 0-1.03-.07-1.45-.21-2.29-.75-2.88-1.5-4.43-3.48-.22-.28-.46-.59-.72-.91-.63-.79-1.63-1.26-2.67-1.26-.55 0-1.09.14-1.55.39-4.58 2.53-6.46 13.11-7.12 18.36L6.46 106.3c1.02-7.19 3.17-15.02 5.32-17.05.45.61.79 1.24 1.14 1.9.93 1.73 1.99 3.69 4.89 4.61a9.34 9.34 0 0 0 9.93-2.82c1.84-2.14 2.6-4.95 2.16-7.92-.43-2.84-2.29-5.28-4.97-6.52-1.39-.64-2.63-.96-3.78-.96-1.61 0-2.79.58-3.94 1.14-.6.29-1.22.6-1.95.84-.65-3.1 2.22-10.81 4.95-16.44 3.48 1.76 11.08 5.3 16.13 5.3 1.25 0 2.34-.21 3.23-.63 1.49-.7 2.26-2.51 1.76-4.12-1.11-3.57-1.38-6.2.69-8.3.96-1 2.3-1.55 3.74-1.55m0-2c-1.88 0-3.76.69-5.19 2.15-2.94 2.99-2.29 6.71-1.17 10.3.2.63-.1 1.43-.7 1.71-.65.31-1.46.44-2.38.44-6.14 0-17-6.02-17-6.02s-7.77 14.9-5.85 20.22c.23.62.86 1.04 1.5 1.04.13 0 .26-.02.38-.05 2.56-.7 3.78-2.03 5.78-2.03.81 0 1.74.21 2.94.77 2.02.94 3.51 2.81 3.84 5.01.78 5.2-3.04 8.88-7.27 8.88-.74 0-1.49-.11-2.23-.35-3.27-1.04-3.27-3.72-5.45-6.33-.27-.32-.7-.51-1.12-.51-.21 0-.42.05-.61.15-4.85 2.74-6.98 20.53-6.98 20.53l47.34 15.06s1.47-16.56 6.36-19.26c.18-.1.38-.14.59-.14.42 0 .85.19 1.11.51 2.13 2.66 2.83 3.97 6.08 5.04.65.21 1.35.31 2.08.31 2.17 0 4.5-.91 5.77-2.51 3.52-4.4 1.38-10.3-3.38-11.82-.97-.31-1.8-.44-2.56-.44-1.73 0-3.17.65-5.31 1.31-.15.05-.31.07-.47.07-.67 0-1.33-.41-1.56-1.06-1.87-5.33 6.35-19.36 6.35-19.36s-17.39-1.49-20.01-6.41c-.29-.54-.09-1.29.39-1.66 2.22-1.73 4.62-2.89 5.66-5.71.94-2.56.6-5.65-1.4-7.6a7.989 7.989 0 0 0-5.53-2.24z" fill="#424242" opacity=".2"/></svg>