<svg viewBox="0 0 128 128" width="128" height="128" xmlns="http://www.w3.org/2000/svg"><path d="M91.39 10.74c-.64-.39-1.29-.76-1.94-1.12-.79 7.82-4.58 36.67-18.95 54.56-12.72 15.84-28.81 23.29-36.2 26.06-.12.52-.24 1.05-.34 1.63l-.78 6.42.06.14s24.36-6.59 41.73-29.74c17.05-22.72 19.54-48 19.9-55.05-1.27-1.25-2.47-2.28-3.48-2.9z" fill="#212121" opacity=".2"/><linearGradient id="a" x1="88.902" x2="75.815" y1="72.491" y2="33.866" gradientUnits="userSpaceOnUse"><stop stop-color="#00695C" offset=".467"/><stop stop-color="#212121" offset="1"/></linearGradient><path d="M89.07 22.61l23.84 51.49S97.04 93.04 69.67 85c-3.42-12.65-1.21-18.89-1.18-31.78.01-3.28.2-6.59 1.5-9.73s1.14-24.53.84-26.86l18.24 5.98z" fill="url(#a)"/><linearGradient id="b" x1="100.32" x2="89.169" y1="74.777" y2="82.718" gradientUnits="userSpaceOnUse"><stop stop-color="#FFCA28" offset=".199"/><stop stop-color="#F9A825" offset="1"/></linearGradient><path d="M76.99 90.6c-2.65 0-5.52-.2-8.64-.63l.99-3.83c17.15 2.41 25.17-3.29 32.24-8.32 3.44-2.45 6.54-4.74 10.44-5.62l1.71 3.71c-2.69.61-5.37 2.51-8.48 4.72-6.05 4.31-14.02 9.97-28.26 9.97z" fill="url(#b)"/><linearGradient id="c" x1="44.693" x2="44.693" y1="7.008" y2="62.234" gradientUnits="userSpaceOnUse"><stop stop-color="#B93221" offset=".229"/><stop stop-color="#B33121" offset=".328"/><stop stop-color="#A22F21" offset=".462"/><stop stop-color="#862C21" offset=".615"/><stop stop-color="#5F2821" offset=".783"/><stop stop-color="#2D2221" offset=".96"/><stop stop-color="#212121" offset="1"/></linearGradient><path d="M64.67 41.89l1.09-27.11c-8.5 1.85-13.35-3.14-14.65-4.96-1.54-2.16-2.3-4.61-3.84-4.06-2.55.91-6.68 2.58-10.59 4.97-3.78 2.32-10.22 10.41-12.67 13.58-.57.74-.5 1.78.16 2.43l8.49 8.54c.71.71 1.86.73 2.59.03l6.1-5.81 1.03 4.3c1.19 4.97 1.58 7.18 1.49 9.39l20.8-1.3z" fill="url(#c)"/><linearGradient id="d" x1="55.17" x2="55.17" y1="6.284" y2="62.614" gradientTransform="matrix(-1 0 0 1 138.75 0)" gradientUnits="userSpaceOnUse"><stop stop-color="#B93221" offset=".229"/><stop stop-color="#B33121" offset=".328"/><stop stop-color="#A22F21" offset=".462"/><stop stop-color="#862C21" offset=".615"/><stop stop-color="#5F2821" offset=".783"/><stop stop-color="#2D2221" offset=".96"/><stop stop-color="#212121" offset="1"/></linearGradient><path d="M63.4 41.89l-.68-25.9C66 16.83 78.3 4.94 78.3 4.94s6.83 1.97 13.09 5.8c3.78 2.32 10.22 10.41 12.67 13.58.57.74.5 1.78-.16 2.43l-8.49 8.54c-.71.71-1.86.73-2.59.03l-6.1-5.81-1.03 4.3c-1.19 4.97-1.58 7.18-1.49 9.39l-20.8-1.31z" fill="url(#d)"/><linearGradient id="e" x1="64.669" x2="64.669" y1="94.964" y2="47.753" gradientUnits="userSpaceOnUse"><stop stop-color="#4DB6AC" offset="0"/><stop stop-color="#00897B" offset="1"/></linearGradient><path d="M44.26 40.24c0 1.2-.12 2.18-.31 3.01-.23.99-3.26 18.1-6.34 35.6-.96 5.43-2.76 7.98-3.65 13.02l-3.08 25.29c6.42 4.13 13.99 1.22 18.31 2.22 4.32 1.01 8.46 4.13 16.03 4.13s9.63-3.12 13.95-4.13 10.19 1.99 19.3-3.43L84.42 39.81c.11-.23-40.16.43-40.16.43z" fill="url(#e)"/><linearGradient id="f" x1="30.736" x2="98.656" y1="117.63" y2="117.63" gradientUnits="userSpaceOnUse"><stop stop-color="#FFCA28" offset=".056"/><stop stop-color="#FFEE58" offset=".518"/><stop stop-color="#FFCA28" offset=".947"/></linearGradient><path d="M65.22 124c-5.61 0-9.54-1.57-12.7-2.83-1.46-.58-2.73-1.09-3.95-1.37-1.11-.26-2.84-.14-4.68-.02-4.01.26-8.96.53-13.14-2.19l.73-4.99c3.53 2.27 8.23 2.74 12.04 2.49 2.26-.15 4.4-.29 6.29.15 1.6.37 3.09.97 4.67 1.6 3.03 1.21 6.17 2.46 10.73 2.46 4.24 0 6.4-1.08 8.69-2.23 1.38-.69 2.81-1.41 4.63-1.83 1.73-.4 3.48-.31 5.34-.22 3.6.18 8.17-.42 13.8-3.77l.99 5.19c-6.88 4.1-11.15 3.47-15.07 3.27-1.52-.08-2.82-.15-3.8.08-1.25.29-2.32.83-3.57 1.45-2.45 1.23-5.49 2.76-11 2.76z" fill="url(#f)"/><path d="M77.72 42.45c-.25-1.11-.15-2.83.31-4.91H67.32v6.91h11.12c-.35-.9-.62-1.58-.72-2z" fill="#F48FB1"/><radialGradient id="g" cx="57.956" cy="16.807" r="10.322" gradientTransform="matrix(1.0155 0 0 1.0166 -.367 -2.054)" gradientUnits="userSpaceOnUse"><stop stop-color="#E57373" offset="0"/><stop stop-color="#E86968" offset=".405"/><stop stop-color="#EF5350" offset="1"/></radialGradient><path d="M60.12 14.08c-6.49-.87-8.88-5.95-9.88-8.04-.3-.62-1-.92-1.65-.7L45.3 6.51s2 5.38 5.07 8.12c6.09 5.45 15.1 5.28 20.46 2.01l.84-6.41c-4.35 3.3-5.95 4.6-11.55 3.85z" fill="url(#g)"/><path d="M91.39 10.74c-.64-.39-1.29-.76-1.94-1.12-.79 7.82-4.58 36.67-18.95 54.56-12.72 15.84-28.81 23.29-36.2 26.06-.12.52-.24 1.05-.34 1.63l-.78 6.42.06.14s24.36-6.59 41.73-29.74c17.05-22.72 19.54-48 19.9-55.05-1.27-1.25-2.47-2.28-3.48-2.9z" fill="#212121" opacity=".2"/><path d="M73.7 5.95C68.77 19.1 43.95 34.78 37.97 39.07c-.59.42-1.01.73-.7 1.38l3.76 7.77-4.06 4.65 2.41 7.82-3.45 5.53-2 26.42s23.22-10.28 36.62-32.1c12.3-20.02 19.3-33.98 19.66-50.44.02-.74-1.2-2.04-2.05-2.44l-9.81-3.07c-1.19-.21-4.29.4-4.65 1.36z" fill="#80DDD2"/><linearGradient id="h" x1="36.962" x2="78.361" y1="23.165" y2="23.165" gradientUnits="userSpaceOnUse"><stop stop-color="#FFEE58" offset=".061"/><stop stop-color="#FFF59D" offset=".536"/><stop stop-color="#FFEE58" offset=".958"/></linearGradient><path d="M78.36 4.61s-1.12-.38-2.46-.58c-.94-.14-1.96.24-2.43.91-14.89 21.05-29.98 29.44-36.1 33.83-.4.28-.52.82-.31 1.26l1.11 2.3c.01 0 24.47-11.29 40.19-37.72z" fill="url(#h)"/><linearGradient id="i" x1="33.861" x2="90.675" y1="50.13" y2="50.13" gradientUnits="userSpaceOnUse"><stop stop-color="#FFEE58" offset=".057"/><stop stop-color="#FFF59D" offset=".536"/><stop stop-color="#FFEE58" offset=".951"/></linearGradient><path d="M87.88 7.59s-1.9 33-18.65 53.85C52.15 82.7 34.28 88.16 34.28 88.16l-.42 4.52s20.98-4.95 38.34-28.1C92.24 37.86 90.64 10.3 90.64 10.3c.03-1.17-.97-2.12-2.76-2.71z" fill="url(#i)"/><path fill="#FFF59D" d="M44.11 76.38l-3.46-4.23 3.43-4.18 3.46 4.22zM71.69 43.05l-3.46-4.23 3.43-4.18 3.46 4.23zM60.65 61.29l-3.46-4.23 3.44-4.18 3.45 4.22zM79.47 23.78l-3.46-4.23 3.43-4.18 3.46 4.23z"/><path fill="#FFEE58" d="M44.1 108.36l-3.46-4.19 3.46-4.2 3.45 4.2zM84.09 108.36l-3.46-4.19 3.46-4.2 3.46 4.2z"/><path fill="#FFCA28" d="M97.73 72.09l-3.46-4.19 3.46-4.2 3.46 4.2z"/><path fill="#FFEE58" d="M64.09 114.53l-3.45-4.19 3.45-4.2 3.46 4.2z"/><path d="M36.97 52.88l3.77-5.25 26.58-20.87c-9.34 14.23-30.35 26.12-30.35 26.12zM39.38 60.7l21.56-16.8s-4.55 8.6-9.91 12.59c-6.95 6-15.1 9.74-15.1 9.74l3.45-5.53z" fill="#26A69A"/><radialGradient id="j" cx="30.519" cy="30.28" r="6.943" gradientTransform="matrix(1.0155 0 0 1.0166 -.367 -2.054)" gradientUnits="userSpaceOnUse"><stop stop-color="#E57373" offset="0"/><stop stop-color="#E86968" offset=".405"/><stop stop-color="#EF5350" offset="1"/></radialGradient><path d="M37.62 33.06l-11.3-11.44c-.6.76-1.9 2.17-2.31 2.7-.57.74-.5 1.78.16 2.43l8.49 8.54c.71.71 1.86.73 2.59.03l2.37-2.26z" fill="url(#j)"/><radialGradient id="k" cx="47.947" cy="30.277" r="6.965" gradientTransform="matrix(-1.0155 0 0 1.0166 146.13 -2.054)" gradientUnits="userSpaceOnUse"><stop stop-color="#E57373" offset="0"/><stop stop-color="#E86968" offset=".405"/><stop stop-color="#EF5350" offset="1"/></radialGradient><path d="M90.44 33.1l11.45-11.53c.6.76 1.76 2.26 2.17 2.79.57.74.5 1.78-.16 2.43l-8.49 8.54c-.71.71-1.86.73-2.59.03l-2.38-2.26z" fill="url(#k)"/><path d="M75.51 6c.03 0 .07 0 .1.01 1.13.16 2.1.49 2.11.49l.02.01.03.01 9.61 3.01.07.04.12.05c2.2.86 3.11 3.08 3.11 3.08s1.65 1.29 1.89 1.52l.03.03s4.31 3.63 9.15 10.37l.06.08c.21.27.41.52.58.75l-9.89 9.63 17.72 37.98.78 1.68c-2.24.97-4.44 2.53-6.89 4.27-3.03 2.15-6.8 4.83-11.62 6.77-.88.35-1.39 1.28-1.22 2.22l4.36 23.67.51 2.83.09-.05.19.99c-4.01 2.15-6.89 2.46-9.19 2.46-.9 0-1.77-.05-2.62-.1-.31-.02-.61-.04-.92-.05-.72-.04-1.47-.08-2.16-.08-.89 0-1.59.07-2.2.21-1.48.35-2.71.96-4.01 1.61-2.38 1.19-5.07 2.54-10.11 2.54-5.23 0-8.8-1.43-11.96-2.69-1.54-.61-2.86-1.14-4.24-1.46-.61-.14-1.32-.21-2.25-.21s-1.93.07-3.02.14c-1.22.08-2.42.15-3.65.15-2.94 0-5.26-.45-7.18-1.4l.35-2.41 1.9-15.59.69-5.62v-.06l.42-4.54 1.62-21.44 3.19-5.12.48-.77-.27-.87-2.12-6.88 3.19-4.45.69-.97-.52-1.07-3.31-6.84c.67-.46 1.43-.97 2.27-1.54.36-.24 1.21-.82 1.98-1.34a2.6 2.6 0 0 0 1.07-2.74c-.1-.41-.18-.78-.22-.95l-1.03-4.3-.81-3.38-2.52 2.4-4.76 4.53-1.24 1.18-8.3-8.34c.18-.23.38-.48.61-.78l.04-.05c4.95-6.33 9.11-10.76 11.4-12.17 3.4-2.08 7-3.6 9.42-4.5l.02-.01h.01l.03-.01c.23-.09.46-.17.68-.25l.12-.02.69-.23c1.22 2.48 4.14 7.71 11.17 8.65 1.12.15 2.09.22 2.97.22 1.84 0 3.4-.33 4.92-1.03l.4-.19.28-.34c2.32-2.75 4.56-5.66 6.64-8.61.06-.05.24-.13.45-.13m0-2c-.82 0-1.63.36-2.04.94-2.2 3.1-4.4 5.93-6.57 8.51-1.21.56-2.45.84-4.07.84-.8 0-1.69-.07-2.71-.2-6.49-.87-8.88-5.95-9.88-8.04a1.37 1.37 0 0 0-1.23-.78c-.14 0-.29.02-.43.07l-1.08.37c-.08.01-.15.03-.23.06-.24.09-.51.19-.77.28l-.05.02c-2.56.96-6.25 2.52-9.76 4.67-3.46 2.12-9.11 9.03-11.93 12.64-.02.03-.04.05-.06.08-.24.3-.46.59-.65.84 0 .01-.01.01-.02.02-.03.04-.05.08-.07.11-.1.15-.19.32-.24.49-.03.11-.05.21-.07.32-.01.11-.01.22-.01.33a1.855 1.855 0 0 0 .54 1.19l8.49 8.54c.36.36.84.55 1.31.55.22 0 .45-.04.66-.12.22-.08.43-.21.61-.39l1.34-1.28 4.76-4.53 1.03 4.3c.11.47.22.91.32 1.34-2.15 1.47-3.96 2.65-5.32 3.62-.4.28-.52.82-.31 1.26l.21.42 3.47 7.17-3.77 5.25 2.41 7.82-3.45 5.53-1.66 21.93-.42 4.51-.69 5.62-1.9 15.59-.54 3.71c2.94 1.91 6.26 2.34 9.36 2.34 1.32 0 2.59-.08 3.79-.16 1.03-.07 2.02-.13 2.89-.13.69 0 1.3.04 1.79.15 1.23.29 2.49.79 3.95 1.37 3.16 1.26 7.09 2.83 12.7 2.83 5.51 0 8.56-1.53 11-2.75 1.24-.62 2.32-1.16 3.57-1.45.5-.12 1.09-.16 1.74-.16.63 0 1.32.04 2.06.07 1.16.06 2.36.16 3.64.16 3.04 0 6.59-.55 11.43-3.43l-.99-5.19a.21.21 0 0 0-.06.04l-4.37-23.67c4.99-2.01 8.79-4.69 12.03-6.99 3.1-2.21 5.78-4.11 8.48-4.72l-1.71-3.71-16.96-36.64c.12-.07.24-.16.34-.26l8.49-8.54a1.855 1.855 0 0 0 .54-1.19c.01-.11 0-.22-.01-.33-.02-.22-.09-.43-.19-.63-.05-.1-.11-.2-.18-.29 0-.01-.01-.01-.02-.02-.19-.25-.42-.54-.65-.84-.02-.03-.04-.05-.06-.08-1.99-2.55-5.4-6.74-8.45-9.74-.31-.3-.61-.59-.91-.86a.138.138 0 0 0-.04-.03c-.27-.25-.54-.48-.8-.7-.04-.03-.07-.07-.11-.1-.24-.2-.46-.38-.69-.55l-.16-.13c-.27-.2-.53-.38-.78-.53s-.5-.29-.74-.44v-.01c.03-1.07-.83-1.95-2.35-2.55-.04-.02-.08-.05-.12-.07L78.37 4.6s-1.12-.38-2.46-.58c-.14-.01-.27-.02-.4-.02z" fill="#212121" opacity=".2"/></svg>