<svg viewBox="0 0 128 128" width="128" height="128" xmlns="http://www.w3.org/2000/svg" xmlns:xlink="http://www.w3.org/1999/xlink"><linearGradient id="a" x1="49.408" x2="49.408" y1="43.912" y2="29.757" gradientUnits="userSpaceOnUse"><stop stop-color="#536D78" offset=".47"/><stop stop-color="#37474F" offset=".821"/></linearGradient><path d="M46.96 43.91c-.66-.47-3.82-3.6-6.07-5.91.68-.82 4.02-3.78 7.16-6.39l8.32-1.85 1.57 8.09c-4.73 2.81-9.99 5.78-10.98 6.06z" fill="url(#a)"/><path d="M55.96 30.36l1.41 7.24c-4.31 2.57-8.97 5.2-10.32 5.75-.85-.71-3.22-3.05-5.46-5.34 1.07-1.12 3.97-3.68 6.68-5.94l7.69-1.71m.79-1.2l-8.94 1.99s-7.45 6.21-7.53 6.95c0 0 5.92 6.08 6.57 6.33.01 0 .03.01.05.01 1 0 11.59-6.34 11.59-6.34l-1.74-8.94z" fill="#455A64"/><linearGradient id="b" x1="57.453" x2="65.018" y1="89.772" y2="108.56" gradientUnits="userSpaceOnUse"><stop stop-color="#546E7A" offset=".302"/><stop stop-color="#37474F" offset=".836"/></linearGradient><path fill="url(#b)" d="M40.88 53.56l3.19-1.48 23 56.63-3.19 1.48z"/><path d="M43.8 52.75l22.62 55.7-2.28 1.06-22.62-55.7 2.28-1.06m.54-1.35l-4.09 1.9 23.38 57.56 4.09-1.9L44.34 51.4z" fill="#455A64"/><defs><filter id="c" x="47.9" y="72.05" width="10.49" height="14" filterUnits="userSpaceOnUse"><feFlood flood-color="#fff" result="back"/><feBlend in="SourceGraphic" in2="back"/></filter></defs><mask id="d" x="47.9" y="72.05" width="10.49" height="14" maskUnits="userSpaceOnUse"><image transform="matrix(.24 0 0 .24 45.709 69.94)" width="62" height="76" overflow="visible" xlink:href="8A86603EBEEC1016.jpg" filter="url(#c)"/></mask><g mask="url(#d)"><linearGradient id="e" x1="47.904" x2="58.397" y1="79.048" y2="79.048" gradientUnits="userSpaceOnUse"><stop stop-color="#212121" offset=".019"/><stop stop-color="#212121" stop-opacity="0" offset="1"/></linearGradient><path d="M47.9 72.05l4.47 11.15c3.69.05 6.03 2.85 6.03 2.85-.22-.55-4.89-12.07-4.89-12.07l-5.61-1.93z" fill="url(#e)"/></g><path d="M41.47 66.53c3.67 0 7.01-1.45 9.56-3.83-.32-1.67.92-2.94 2.56-5.42.6-1.15 1.34-1.69 1.91-2.41.26-1.14.41-2.32.41-3.54 0-2.07-.4-4.05-1.11-5.85-3.31-6.75-11.34-11.39-19.45-7.43-6.52 3.19-9.15 10.33-7.63 17.94 1.88 6.11 7.32 10.54 13.75 10.54z" fill="#fff"/><path d="M65.48 98.75c-4.06-12.69-4.11-22.84-7.21-27.61s-6.07-4.8-7.15-8.03c-.05-.14-.06-.28-.09-.41-2.55 2.37-5.89 3.83-9.56 3.83-6.43 0-11.87-4.43-13.74-10.54.61 3.06 1.88 6.2 3.87 9.19 3.17 4.77 21.58 32.09 24.84 36.92.29.43.83.62 1.33.45l6.99-2.34c.6-.2.92-.85.72-1.46zm-7.34-2.88L46.7 73.71s8.27 2.48 10.17 5.49c2.61 4.13 4.19 15.48 4.19 15.48l-2.92 1.19z" fill="#fff"/><path d="M46.7 73.71l11.44 22.16 2.92-1.2s-1.58-11.34-4.19-15.48c-1.9-3-10.17-5.48-10.17-5.48z" fill="none"/><linearGradient id="f" x1="69.561" x2="100.95" y1="107.96" y2="170.34" gradientUnits="userSpaceOnUse"><stop stop-color="#41677A" offset="0"/><stop stop-color="#456A7D" offset=".22"/><stop stop-color="#527485" offset=".448"/><stop stop-color="#668493" offset=".68"/><stop stop-color="#839AA6" offset=".913"/><stop stop-color="#90A4AE" offset="1"/></linearGradient><path d="M65.48 98.75c-4.06-12.69-4.11-22.84-7.21-27.61s-6.07-4.8-7.15-8.03c-.05-.14-.06-.28-.09-.41-.32-1.67.92-2.94 2.56-5.42.6-1.15 1.34-1.69 1.91-2.41.26-1.14.41-2.32.41-3.54 0-2.07-.4-4.05-1.11-5.85-3.31-6.75-11.34-11.39-19.45-7.43-6.52 3.19-9.15 10.33-7.63 17.94.61 3.06 1.88 6.2 3.87 9.19 3.17 4.77 21.58 32.09 24.84 36.92.29.43.83.62 1.33.45l6.99-2.34c.61-.2.93-.85.73-1.46zm-7.34-2.88L46.7 73.71s8.27 2.48 10.17 5.49c2.61 4.13 4.19 15.48 4.19 15.48l-2.92 1.19z" fill="url(#f)" opacity=".53"/><linearGradient id="g" x1="43.949" x2="39.438" y1="37.897" y2="64.027" gradientUnits="userSpaceOnUse"><stop stop-color="#eee" offset="0"/><stop stop-color="#eee" stop-opacity="0" offset=".881"/></linearGradient><path d="M41.47 66.53c3.67 0 7.01-1.45 9.56-3.83-.32-1.67.92-2.94 2.56-5.42.6-1.15 1.34-1.69 1.91-2.41.26-1.14.41-2.32.41-3.54 0-2.07-.4-4.05-1.11-5.85-3.31-6.75-11.34-11.39-19.45-7.43-6.52 3.19-9.15 10.33-7.63 17.94 1.88 6.11 7.32 10.54 13.75 10.54z" fill="url(#g)"/><path d="M55.51 54.87c.57-.72.97-1.63.87-3.5-.11-2.03-.66-4.04-1.57-5.89.71 1.8 1.11 3.78 1.11 5.85 0 1.22-.16 2.4-.41 3.54z" fill="#fff"/><linearGradient id="h" x1="61.374" x2="74.913" y1="62.537" y2="89.45" gradientUnits="userSpaceOnUse"><stop stop-color="#41677A" offset="0"/><stop stop-color="#456A7D" offset=".22"/><stop stop-color="#527485" offset=".448"/><stop stop-color="#668493" offset=".68"/><stop stop-color="#839AA6" offset=".913"/><stop stop-color="#90A4AE" offset="1"/></linearGradient><path d="M55.51 54.87c.57-.72.97-1.63.87-3.5-.11-2.03-.66-4.04-1.57-5.89.71 1.8 1.11 3.78 1.11 5.85 0 1.22-.16 2.4-.41 3.54z" fill="url(#h)" opacity=".53"/><linearGradient id="i" x1="56.414" x2="51.902" y1="40.049" y2="66.179" gradientUnits="userSpaceOnUse"><stop stop-color="#eee" offset="0"/><stop stop-color="#eee" stop-opacity="0" offset=".881"/></linearGradient><path d="M51.03 62.7c2.18-2.03 3.77-4.75 4.47-7.83-.57.72-1.31 1.26-1.91 2.41-1.63 2.48-2.88 3.75-2.56 5.42z" fill="url(#i)"/><g opacity=".53"><defs><filter id="j" x="36.06" y="58.07" width="28.04" height="37.23" filterUnits="userSpaceOnUse"><feFlood flood-color="#fff" result="back"/><feBlend in="SourceGraphic" in2="back"/></filter></defs><mask id="k" x="36.06" y="58.07" width="28.04" height="37.23" maskUnits="userSpaceOnUse"><image transform="matrix(.24 0 0 .24 33.949 56.02)" width="134" height="172" overflow="visible" xlink:href="8A86603EBEEC101A.jpg" filter="url(#j)"/></mask><g mask="url(#k)"><linearGradient id="l" x1="45.398" x2="52.918" y1="62.98" y2="76.963" gradientUnits="userSpaceOnUse"><stop stop-color="#41677A" offset=".371"/><stop stop-color="#41677A" stop-opacity=".3" offset="1"/></linearGradient><path d="M58.27 71.14c-3.1-4.77-6.07-4.8-7.15-8.03-.25-.74-.19-1.38.07-2.04l-4.44-3-10.69 3.39 5.92 7.42 4.72 4.82s8.27 2.48 10.17 5.49c2.61 4.13 4.19 15.48 4.19 15.48l1.11.63 1.93-1.35c-2.73-10.42-3.13-18.65-5.83-22.81z" fill="url(#l)"/></g></g><linearGradient id="m" x1="74.806" x2="46.386" y1="92.731" y2="79.452" gradientUnits="userSpaceOnUse"><stop stop-color="#212121" offset=".019"/><stop stop-color="#212121" stop-opacity="0" offset="1"/></linearGradient><path d="M58.27 71.14c-2.93-4.51-5.75-4.79-6.95-7.53l-2 .34c.75 2.05 2.1 3.13 3.41 4.18 1.18.94 2.51 2 3.88 4.1.94 1.45 1.59 3.62 2.19 6.32-4.36-7.49-16.81-9.66-16.81-9.66l15.48 27.9 4.71-1.49 1.18 3.29-5.62 1.88L34.81 66.4l-2.15.36 23.79 35.36c.28.42.81.6 1.29.44l7.05-2.36c.58-.2.9-.83.71-1.42-4.07-12.7-4.12-22.86-7.23-27.64zm-.13 24.73L46.7 73.71s8.27 2.48 10.17 5.49c2.61 4.13 4.19 15.48 4.19 15.48l-2.92 1.19z" fill="url(#m)" opacity=".55"/><linearGradient id="n" x1="32.034" x2="96.908" y1="41.155" y2="41.155" gradientUnits="userSpaceOnUse"><stop stop-color="#90A4AE" offset="0"/><stop stop-color="#8CA1AB" offset=".141"/><stop stop-color="#8098A4" offset=".283"/><stop stop-color="#6C8896" offset=".425"/><stop stop-color="#507384" offset=".566"/><stop stop-color="#4B6F81" offset=".587"/><stop stop-color="#41677A" offset=".763"/></linearGradient><path d="M96.91 45.3l-8.75-5.55c.99-2.25.75-4.86.16-7.25-1-4.05-2.99-7.93-6.08-10.73s-7.34-4.44-11.48-3.96c-2.18.26-4.26 1.08-6.22 2.07-8.07 4.09-27.81 17.64-27.81 17.64s2.74-1.05 4.91-.87l6.58-4.14c2.49-1.39 4.28.33 2.26 2.35-.74.74-11.09 6.79-12.55 7.64-5.66 3.29-7.57 10.54-4.28 16.2 2.87 4.94 8.76 7.03 13.98 5.29.75-.26 49.28-18.69 49.28-18.69z" fill="url(#n)"/><defs><filter id="o" x="32.04" y="17.72" width="55.16" height="38.96" filterUnits="userSpaceOnUse"><feFlood flood-color="#fff" result="back"/><feBlend in="SourceGraphic" in2="back"/></filter></defs><mask id="p" x="32.04" y="17.72" width="55.16" height="38.96" maskUnits="userSpaceOnUse"><image transform="matrix(.24 0 0 .24 29.869 15.7)" width="249" height="180" overflow="visible" xlink:href="8A86603EBEEC101D.jpg" filter="url(#o)"/></mask><g mask="url(#p)"><linearGradient id="q" x1="17.934" x2="114.53" y1="37.205" y2="37.205" gradientUnits="userSpaceOnUse"><stop stop-color="#eee" offset="0"/><stop stop-color="#eee" stop-opacity="0" offset="1"/></linearGradient><path d="M82.23 21.77c-3.09-2.8-7.34-4.44-11.48-3.96-2.18.26-4.26 1.08-6.22 2.07-8.07 4.09-27.81 17.64-27.81 17.64s2.74-1.05 4.91-.87l6.58-4.14c2.49-1.39 4.28.33 2.26 2.35-.74.74-11.09 6.79-12.55 7.64-5.01 2.91-7.08 8.93-5.21 14.19l54.48-27.6c-1.11-2.77-2.75-5.32-4.96-7.32z" fill="url(#q)"/></g><path d="M70.68 33.43s-.12 4.94 1.64 9.08c2.19 5.15 8.81 8.58 8.81 8.58l8.82-3.23s-7.6-.14-12.69-4.73c-3.9-3.52-6.58-9.7-6.58-9.7z" fill="#455A64" opacity=".49"/><path d="M54.9 56.74l37.37-12.03-5.18-3.28-1.44-.91.68-1.56c.65-1.49.67-3.45.05-5.98-.98-4.01-2.88-7.37-5.49-9.74-2.47-2.24-5.63-3.53-8.67-3.53-.42 0-.83.02-1.24.07-1.66.2-3.43.79-5.56 1.87-3.45 1.75-9.14 5.3-14.46 8.75.33-.07-1.44-.33-1.13-.33 1.45 0 2.67.73 3.18 1.91.27.63.71 2.29-1.1 4.23-.68.73-1.35 2.98-4.21 4.92 6.35.24 12.93 1.6 12.93 1.6s-2.4 7.94-5.73 14.01z" fill="none"/><path fill="#212121" opacity=".39" d="M72.23 19.71z"/><path fill="#212121" d="M45.87 41.09z"/><g fill="none"><path d="M43.89 64.58c-4.08 0-8.05-2.11-10.25-5.89-3.29-5.66-1.37-12.91 4.28-16.2.7-.4 3.4-1.98 6.13-3.6-.85-.21-1.72-.32-2.59-.32-1.76 0-3.52.42-5.23 1.26-3.01 1.47-5.03 3.75-6.01 6.77-1.53 4.72-1.16 11.33 3.08 17.56 3.43 5.04 24.43 36.31 24.43 36.31l5.62-1.88-1.18-3.29-4.71 1.49-15.48-27.9s12.45 2.17 16.81 9.66c-.6-2.71-1.25-4.87-2.19-6.32-1.36-2.1-2.7-3.16-3.88-4.1-1.36-1.08-2.76-2.2-3.49-4.38-.04-.12-.05-.22-.08-.34-.91.34-1.46.55-1.54.57-1.21.41-2.47.6-3.72.6z"/><path d="M56.37 51.37c.2 3.76-1.58 3.61-2.78 5.92-.84 1.27-1.58 2.22-2.06 3.08 11.49-4.4 40.73-15.65 40.73-15.65l-5.18-3.28-1.44-.91.68-1.56c.65-1.49.67-3.45.05-5.98-.98-4.01-2.88-7.37-5.49-9.74-2.47-2.24-5.63-3.53-8.67-3.53-.42 0-.83.02-1.24.07-1.66.2-3.43.79-5.56 1.87-3.45 1.75-9.14 5.3-14.46 8.75.33-.07 1.54.4 2.05 1.58.27.63 1.05 2.21-1.1 4.23-.24.23-1.7 1.15-3.55 2.3 4.56 2.63 7.75 7.66 8.02 12.85z"/><path d="M49.85 32.06c-.52 0-1.14.16-1.8.53L41.7 36.6c1.61.03 3.16.36 4.62.93 2.12-1.28 3.87-2.38 4.15-2.68 1.45-1.55.81-2.79-.62-2.79zM51.88 56.27c.52-.97 1.11-1.59 1.58-2.09.71-.76 1.01-1.07.93-2.71-.26-5.08-3.63-9.68-8.01-11.75-3.44 2.1-7.25 4.37-7.46 4.49a9.816 9.816 0 0 0-4.58 6c-.67 2.55-.32 5.2 1.01 7.48a9.9 9.9 0 0 0 8.54 4.91c1.05 0 2.09-.17 3.09-.5.08-.03.83-.31 2.08-.79.27-1.36 1.09-2.55 1.96-3.79.27-.39.56-.8.86-1.25zM46.7 73.71l11.44 22.16 2.92-1.2s-1.58-11.34-4.19-15.48c-1.9-3-10.17-5.48-10.17-5.48z"/></g><circle cx="43.19" cy="53.76" r="6.06" fill="#455A64" opacity=".6"/><circle cx="42.82" cy="52.49" r="5.65" fill="#A5AFB3"/><defs><filter id="r" x="37.19" y="46.85" width="10.53" height="10.4" filterUnits="userSpaceOnUse"><feFlood flood-color="#fff" result="back"/><feBlend in="SourceGraphic" in2="back"/></filter></defs><mask id="s" x="37.19" y="46.85" width="10.53" height="10.4" maskUnits="userSpaceOnUse"><image transform="matrix(.24 0 0 .24 35.149 44.74)" width="61" height="62" overflow="visible" xlink:href="8A86603EBEEC101E.jpg" filter="url(#r)"/></mask><g mask="url(#s)"><linearGradient id="t" x1="30.688" x2="40.988" y1="54.315" y2="54.315" gradientTransform="matrix(.9563 .1634 -.1684 .9855 17.102 -7.216)" gradientUnits="userSpaceOnUse"><stop stop-color="#eee" offset=".307"/><stop stop-color="#eee" stop-opacity="0" offset=".881"/></linearGradient><path d="M38.58 54.19c.01-3.18 2.53-5.77 5.62-5.79 1.34-.01 2.56.47 3.52 1.27-.83-1.51-2.59-2.76-4.66-2.81-3.08-.08-6.02 2.13-5.86 5.98.08 1.8 1.18 3.49 2.56 4.41-.62-.93-1.18-1.84-1.18-3.06z" fill="url(#t)"/></g><linearGradient id="u" x1="87.839" x2="87.839" y1="30.812" y2="9.72" gradientTransform="rotate(-9.747 74.485 36.766)" gradientUnits="userSpaceOnUse"><stop stop-color="#78909C" offset="0"/><stop stop-color="#90A4AE" offset=".483"/><stop stop-color="#BDBDBD" offset="1"/></linearGradient><path d="M84.08 4.74C67.63 7.56 61.02 22.16 61.02 22.16s6.2-2.66 7.59 3.56c2.76 16.1 12.33 23.93 24.01 21.93 11.68-2.01 19.53-13.1 17.52-24.78S99.44 2.1 84.08 4.74z" fill="url(#u)"/><g fill="none"><path d="M49.16 63.41c-.91.34-1.46.55-1.54.57-1.22.41-2.48.6-3.73.6-4.08 0-8.05-2.11-10.25-5.89-3.29-5.66-1.37-12.91 4.28-16.2.7-.4 3.4-1.98 6.13-3.6-.85-.21-1.72-.32-2.59-.32-1.76 0-3.52.42-5.23 1.26-3.01 1.47-5.03 3.75-6.01 6.77-1.53 4.72-1.16 11.33 3.08 17.56 3.43 5.04 24.43 36.31 24.43 36.31l5.62-1.88-1.18-3.29-4.71 1.49-15.48-27.9s12.45 2.17 16.81 9.66c-.6-2.71-1.25-4.87-2.19-6.32-1.36-2.1-2.7-3.16-3.88-4.1-1.36-1.08-2.76-2.2-3.49-4.38-.03-.12-.04-.23-.07-.34zM50.47 34.85c1.45-1.55.81-2.8-.62-2.8-.52 0-1.14.16-1.8.53l-6.32 4c-.03 0 2.59.03 4.61.93 2.11-1.27 3.85-2.36 4.13-2.66zM72.23 17.72c3.66 0 7.28 1.57 10.01 4.04 3.09 2.8 5.09 6.68 6.08 10.73.59 2.39.83 4.99-.16 7.25l7.79 4.94c3.59-1.36 6.69-3.75 8.96-6.96 3-4.25 4.17-9.41 3.29-14.54-1.82-10.6-8.91-16.93-18.95-16.93-1.54 0-3.16.14-4.82.43-10.43 1.8-16.7 8.76-19.62 12.98.05.01.09.02.13.03 1.84-.9 3.78-1.64 5.81-1.88.49-.06.99-.09 1.48-.09z"/><path d="M46.7 73.71l11.44 22.16 2.92-1.2s-1.58-11.34-4.19-15.48c-1.9-3-10.17-5.48-10.17-5.48zM68.62 25.72c-.57-2.55-1.95-3.6-3.38-3.96-3.46 1.78-9.04 5.26-14.26 8.65.33-.07 1.54.4 2.05 1.58.27.63 1.05 2.21-1.1 4.23-.24.23-1.7 1.15-3.55 2.3a733.314 733.314 0 0 1-9.45 5.71 9.816 9.816 0 0 0-4.58 6c-.67 2.55-.32 5.2 1.01 7.48a9.9 9.9 0 0 0 8.54 4.91c1.05 0 2.09-.17 3.09-.5.08-.03.83-.31 2.08-.79.68-.26 1.51-.58 2.47-.94 7.87-3.02 24.09-9.25 33.51-12.88-8.1-1.87-14.3-9.36-16.43-21.79z"/><path d="M87.09 41.42l-1.44-.91.68-1.56c.65-1.49.67-3.45.05-5.98-.98-4.01-2.88-7.37-5.49-9.74-2.47-2.24-5.63-3.53-8.67-3.53-.42 0-.83.02-1.24.07-1.05.12-2.15.43-3.35.89 1.43.95 2.45 2.52 2.92 4.61l.02.1c2.21 12.85 9.1 20.53 18.44 20.58l3.25-1.25-5.17-3.28z"/></g><path d="M110.15 22.86c-1.77-10.3-8.75-18.58-20.91-18.58-1.63 0-3.34.15-5.16.46-14.69 2.52-21.53 14.43-22.82 16.94-8.94 5.19-24.44 15.77-24.35 15.71-.52.18-1.03.4-1.55.66-9.14 4.47-10.74 16.8-3.76 27.14 1.9 2.82 21.65 32.18 24.88 36.99.26.39.76.56 1.21.41l7.16-2.4c.55-.18.84-.78.66-1.33-4.09-12.73-4.13-22.92-7.25-27.71-3.1-4.77-6.07-4.8-7.15-8.03-.05-.14-.06-.28-.09-.42 8.05-3.04 28.3-10.73 39.01-14.79.85-.04 1.71-.12 2.59-.27 11.69-2 19.53-13.1 17.53-24.78zm-62.1 9.73c.66-.37 1.28-.53 1.8-.53 1.43 0 2.08 1.24.62 2.8-.28.3-2.03 1.38-4.14 2.66-2.02-.9-4.63-.93-4.61-.93l6.33-4zm4.68 35.54c1.18.94 2.51 2 3.88 4.1.94 1.45 1.59 3.62 2.19 6.32-4.36-7.49-16.81-9.66-16.81-9.66l15.48 27.9 4.71-1.49 1.18 3.29-5.62 1.88s-21-31.27-24.43-36.31c-4.23-6.23-4.6-12.84-3.08-17.56.98-3.02 3-5.3 6.01-6.77 1.71-.84 3.47-1.26 5.23-1.26.88 0 1.75.12 2.59.32-2.73 1.62-5.44 3.2-6.13 3.6-5.66 3.29-7.57 10.54-4.28 16.2 2.2 3.78 6.17 5.89 10.25 5.89 1.25 0 2.51-.2 3.73-.6.07-.02.62-.23 1.54-.57.03.11.04.22.08.34.71 2.18 2.12 3.29 3.48 4.38zm8.33 26.54l-2.92 1.2L46.7 73.71s8.27 2.48 10.17 5.49c2.61 4.13 4.19 15.47 4.19 15.47zm-9.52-34.31c-.95.37-1.79.68-2.47.94-1.25.48-2.01.76-2.08.79-1 .33-2.04.5-3.09.5a9.9 9.9 0 0 1-8.54-4.91c-1.32-2.28-1.68-4.93-1.01-7.48s2.3-4.68 4.58-6a733.314 733.314 0 0 0 9.45-5.71c1.86-1.14 3.31-2.07 3.55-2.3 2.15-2.02 1.37-3.6 1.1-4.23-.51-1.18-1.72-1.64-2.05-1.58 5.23-3.39 10.8-6.87 14.26-8.65 1.43.36 2.81 1.41 3.38 3.96 2.14 12.44 8.34 19.93 16.43 21.77-9.43 3.65-25.64 9.88-33.51 12.9zm53.36-22.63a19.4 19.4 0 0 1-8.96 6.96c-1.17.44-2.39.78-3.65 1-1.08.19-2.16.28-3.19.28h-.08c-9.34-.05-16.23-7.73-18.44-20.58l-.02-.1c-.47-2.09-1.48-3.66-2.92-4.61-.78-.52-1.68-.85-2.69-.99l-.13-.03C67.73 15.44 74 8.48 84.41 6.69c1.66-.29 3.29-.43 4.82-.43 10.05 0 17.13 6.33 18.95 16.93.89 5.13-.28 10.29-3.28 14.54z" fill="#212121" opacity=".2"/><defs><filter id="v" x="64.81" y="6.26" width="42.29" height="15.99" filterUnits="userSpaceOnUse"><feFlood flood-color="#fff" result="back"/><feBlend in="SourceGraphic" in2="back"/></filter></defs><mask id="w" x="64.81" y="6.26" width="42.29" height="15.99" maskUnits="userSpaceOnUse"><image transform="matrix(.24 0 0 .24 62.749 4.18)" width="194" height="84" overflow="visible" xlink:href="8A86603EBEEC101C.jpg" filter="url(#v)"/></mask><g mask="url(#w)"><radialGradient id="x" cx="79.449" cy="5.472" r="16.196" gradientUnits="userSpaceOnUse"><stop stop-color="#eee" offset="0"/><stop stop-color="#eee" stop-opacity="0" offset="1"/></radialGradient><path d="M107.11 18.99c-2.8-8.05-9.23-12.73-17.87-12.73-1.54 0-3.16.14-4.82.43C74 8.48 67.73 15.44 64.81 19.66c.05.01.09.02.13.03.77.1 1.47.32 2.11.65.81.26 1.5.74 1.91 1.54.1.12.2.25.29.38 3.17-5.23 10.58-12.23 20.25-12.19 8.33.03 13.85 4.32 17.61 8.92z" fill="url(#x)"/></g><circle cx="92.16" cy="26.59" r="15.71" fill="#eee" opacity=".51"/><linearGradient id="y" x1="90.833" x2="82.424" y1="17.36" y2="30.792" gradientUnits="userSpaceOnUse"><stop stop-color="#eee" offset=".307"/><stop stop-color="#eee" stop-opacity="0" offset=".881"/></linearGradient><path d="M80.19 31.93c-1.47-8.55 4.27-16.67 12.82-18.14 3.7-.64 7.32.08 10.36 1.79-3.49-3.54-8.59-5.39-13.86-4.48-8.55 1.47-14.29 9.59-12.82 18.14.83 4.85 3.81 8.79 7.78 11.03-2.17-2.2-3.72-5.06-4.28-8.34z" fill="url(#y)"/><linearGradient id="z" x1="67.824" x2="48.264" y1="115.3" y2="122.21" gradientUnits="userSpaceOnUse"><stop stop-color="#78909C" offset=".134"/><stop stop-color="#90A4AE" offset=".484"/><stop stop-color="#BDBDBD" offset="1"/></linearGradient><path d="M75.04 109.02L59.9 110.1c-1 .42-1.22 2-1.45 2.34-.91 1.32-2.48 2.49-3.79 3.39-3.17 2.18-6.91 3.03-10.73 2.66-1.19-.11-2.46-.07-3.47.56-1.36.84-1.55 4.22 3.96 4.8 6.62.7 10.73-1.22 14.72-2.69 3.63-1.34 5.25-.67 8.78-.31 3.35.34 7.61 1.45 9.42-2.56 1.34-2.96.37-6.28-.36-8.07a1.95 1.95 0 0 0-1.94-1.2z" fill="url(#z)"/><path d="M67.91 120.85c3.35.34 7.61 1.45 9.42-2.56.18-.4.29-.8.37-1.21-.28.32-2.31.86-4.67-.31-3.14-1.56-2.83-4.27-6.58-4.05-3.74.22-7.03 6.91-16.05 8.98-6.02 1.38-10.49-.67-10.73-.81.15 1.22 1.38 2.61 4.74 2.97 6.62.7 10.73-1.22 14.72-2.69 3.64-1.35 5.25-.68 8.78-.32z" fill="#41677A" opacity=".53"/><path d="M75.18 110.01c.38 0 .72.23.87.59.65 1.59 1.57 4.65.38 7.28-.75 1.66-2.02 2.37-4.22 2.37-.94 0-1.94-.13-2.92-.25-.43-.05-.86-.11-1.28-.15-.7-.07-1.32-.15-1.9-.23-1.06-.14-1.97-.26-2.95-.26-1.42 0-2.77.27-4.38.86-.41.15-.82.31-1.23.46-3.01 1.14-6.11 2.32-10.39 2.32-.86 0-1.75-.05-2.65-.14-2.17-.23-3.61-.97-3.84-1.98-.11-.48.11-.86.3-.98.5-.31 1.15-.46 1.99-.46.27 0 .55.01.86.05.6.06 1.21.09 1.81.09 3.49 0 6.8-1.01 9.58-2.92 1.45-.99 3.06-2.21 4.05-3.64.14-.21.22-.44.33-.75.12-.35.33-.96.59-1.18l14.92-1.07.08-.01m0-1c-.05 0-.09 0-.14.01L59.9 110.1c-1 .42-1.22 2-1.45 2.34-.91 1.32-2.48 2.49-3.79 3.39-2.7 1.85-5.8 2.74-9.02 2.74-.57 0-1.14-.03-1.71-.08-.32-.03-.64-.05-.96-.05-.89 0-1.77.15-2.52.61-1.36.84-1.55 4.22 3.96 4.8.97.1 1.88.15 2.75.15 5.07 0 8.56-1.59 11.97-2.84 1.63-.6 2.86-.8 4.03-.8 1.44 0 2.8.29 4.74.49 1.36.14 2.86.4 4.29.4 2.1 0 4.05-.57 5.13-2.96 1.34-2.96.37-6.28-.36-8.07-.29-.73-1-1.21-1.78-1.21z" fill="#212121" opacity=".27"/><linearGradient id="A" x1="43.676" x2="61.947" y1="124.03" y2="116.16" gradientUnits="userSpaceOnUse"><stop stop-color="#eee" stop-opacity="0" offset="0"/><stop stop-color="#eee" offset=".411"/><stop stop-color="#eee" stop-opacity="0" offset=".881"/></linearGradient><path d="M50.4 121.69c9.02-2.07 12.31-8.76 16.05-8.98s3.44 2.49 6.58 4.05c2.36 1.18 2.3-.75 2.58-1.07.78-3.97-1.17-6.04-2.11-6.53 0 0-13.83 1.5-15.05 3.27-.91 1.32-2.48 2.49-3.79 3.39-3.17 2.18-6.91 3.03-10.73 2.66-1.19-.11-2.46-.07-3.47.56-.53.33-.88 1.05-.78 1.83.23.15 4.7 2.2 10.72.82z" fill="url(#A)"/><g opacity=".48"><linearGradient id="B" x1="73.223" x2="47.492" y1="117.26" y2="115.69" gradientUnits="userSpaceOnUse"><stop stop-color="#212121" offset=".019"/><stop stop-color="#212121" stop-opacity="0" offset="1"/></linearGradient><path d="M75.18 110c.38 0 .72.23.87.59.65 1.59 1.57 4.65.38 7.28-.75 1.67-2.02 2.38-4.23 2.38-.94 0-1.95-.13-2.92-.25-.43-.05-.86-.11-1.28-.15-.7-.07-1.32-.15-1.9-.23-1.06-.14-1.97-.26-2.95-.26-1.42 0-2.77.27-4.38.86-.41.15-.82.31-1.23.46-3.01 1.14-6.11 2.32-10.39 2.32-.86 0-1.75-.05-2.65-.14-2.17-.23-3.61-.97-3.84-1.99-.11-.48.11-.87.3-.99.5-.31 1.15-.46 1.99-.46.27 0 .55.01.86.05.6.06 1.21.09 1.81.09 3.49 0 6.8-1.01 9.58-2.92 1.45-.99 3.06-2.2 4.05-3.64.14-.21.22-.44.33-.74.12-.35.33-.96.6-1.18l14.92-1.07.08-.01m0-.99c-.05 0-.09 0-.14.01L59.9 110.1c-1 .42-1.22 2-1.45 2.34-.91 1.32-2.48 2.49-3.79 3.39-2.7 1.85-5.8 2.74-9.02 2.74-.57 0-1.14-.03-1.71-.08-.32-.03-.64-.05-.96-.05-.89 0-1.77.15-2.52.61-1.36.84-1.55 4.22 3.96 4.8.97.1 1.88.15 2.75.15 5.07 0 8.56-1.59 11.97-2.84 1.63-.6 2.86-.8 4.03-.8 1.44 0 2.8.29 4.74.49 1.36.14 2.86.4 4.29.4 2.1 0 4.05-.57 5.13-2.96 1.34-2.96.37-6.28-.36-8.07-.29-.73-1-1.21-1.78-1.21z" fill="url(#B)"/></g><path d="M66.83 105.36c-3.31 0-6.06 2.38-6.65 5.52l-2.05.63-.99 2.99s1.06-.49 1.96.29 2.58 4.12 7.74 4.12c3.99 0 6.77-3.03 6.77-6.77a6.78 6.78 0 0 0-6.78-6.78z" fill="#37474F" opacity=".55"/><linearGradient id="C" x1="71.403" x2="62.358" y1="115.16" y2="108.13" gradientUnits="userSpaceOnUse"><stop stop-color="#546E7A" offset="0"/><stop stop-color="#78909C" offset="1"/></linearGradient><path d="M72.43 106.04a7.673 7.673 0 0 0-6.44-3.55s-1.11-.05-2.61.41-2.49 1.26-2.49 1.26l-.5-1.28a7.634 7.634 0 0 0-3.17 2.48c-1.99 2.69-1.98 6.6.03 9.29.61-.49.92-.96 1.75-.65.56.21.89.7 1.27 1.13.46.51.98.97 1.55 1.35a7.659 7.659 0 0 0 6.94.72c4.39-1.72 6.19-7.18 3.67-11.16z" fill="url(#C)"/><linearGradient id="D" x1="62.448" x2="60.768" y1="105.58" y2="116.73" gradientUnits="userSpaceOnUse"><stop stop-color="#eee" stop-opacity="0" offset=".002"/><stop stop-color="#eee" offset=".46"/><stop stop-color="#eee" stop-opacity="0" offset="1"/></linearGradient><path d="M66 102.5c-1.78 0-3.34-.43-5.11.18a7.68 7.68 0 0 0-3.66 2.69c-1.99 2.69-1.98 6.6.03 9.29.15-.12.29-.24.42-.35l.01-.01c.01-.01.03-.02.04-.03.36-.3.69-.48 1.28-.26.31.12.55.33.77.56.47.44.92 1 1.35 1.38.1.09.21.16.32.24.76.49 1.78.78 2.69.75.43-.01.82-.2 1.24-.24-2.42-.32-4.55-1.83-5.31-4.2-.73-2.28-.06-5.03 1.33-6.95 2.43-3.38 6.94-2.55 7.56-2.43-.93-.4-1.94-.62-2.96-.62z" fill="url(#D)" opacity=".95"/><path d="M72.43 106.04a7.673 7.673 0 0 0-6.44-3.55c-.27 0-.52-.02-.78-.04-.02 0-.03.01-.05.01-1.11.22-2.13.62-2.81.92.21-.02 6.46-.92 9.24 3.19 1.09 1.61 1.28 3.67.65 5.58-.62 1.91-2.02 3.41-3.84 4.12-.76.3-1.57.45-2.4.45-1.31 0-2.56-.37-3.63-1.07-.48-.32-.94-.71-1.36-1.18-.07-.07-.13-.15-.2-.23-.34-.41-.77-.91-1.47-1.17-.29-.11-.56-.16-.83-.16-.41 0-.74.12-1.02.29-1.19-2.26-1.01-5.16.52-7.24.69-.93 1.63-1.66 2.69-2.13l-.35-.93a7.662 7.662 0 0 0-3.14 2.46c-1.99 2.69-1.98 6.6.03 9.29.48-.38.77-.75 1.27-.75.14 0 .3.03.48.1.56.21.89.7 1.27 1.13.46.51.98.97 1.55 1.35 1.25.82 2.71 1.23 4.18 1.23.94 0 1.88-.17 2.76-.52 4.4-1.71 6.2-7.17 3.68-11.15z" fill="#212121" opacity=".25"/><ellipse cx="67.09" cy="110.67" rx="4.4" ry="4.32" fill="#455A64" opacity=".67"/><ellipse cx="66.29" cy="109.89" rx="3.6" ry="3.54" fill="#eee" opacity=".51"/><path d="M66.29 106.35c.19 0 .38.01.57.04 1.97.31 3.3 2.12 2.99 4.05-.28 1.74-1.81 2.98-3.55 2.98-.19 0-.38-.01-.57-.04-1.97-.31-3.3-2.12-2.99-4.05.27-1.74 1.81-2.98 3.55-2.98m0-1c-2.27 0-4.18 1.61-4.54 3.82-.19 1.19.09 2.38.8 3.36.72 1 1.8 1.65 3.02 1.84.24.04.49.06.73.06 2.27 0 4.18-1.61 4.54-3.82.19-1.19-.09-2.38-.8-3.36-.72-1-1.8-1.65-3.02-1.84-.25-.04-.49-.06-.73-.06z" fill="#212121" opacity=".27"/><linearGradient id="E" x1="69.764" x2="67.854" y1="104.99" y2="108.04" gradientTransform="matrix(.9734 .0135 -.0134 .9657 -.482 5.487)" gradientUnits="userSpaceOnUse"><stop stop-color="#eee" offset=".307"/><stop stop-color="#eee" stop-opacity="0" offset=".881"/></linearGradient><path d="M63.58 110.97c-.3-1.87 1.01-3.62 2.93-3.92.83-.13 1.63.04 2.31.42-.77-.78-1.9-1.19-3.08-1.01-1.91.3-3.22 2.05-2.93 3.92.17 1.06.82 1.92 1.7 2.42-.48-.49-.81-1.11-.93-1.83z" fill="url(#E)"/><g fill="#37474F"><path d="M64.73 102.49c.09-.02.15-.04.15-.04-.03 0-.05 0-.07-.01l-.08.05zM60.89 104.16l-.52-1.26c-.85.35-1.43.78-1.73 1.02-1.22 1.47-1.9 3.31-1.9 5.35 0 .55.44.99.99.99s.99-.44.99-.99c0-1.55.35-3.33 1.77-4.76.13-.12.26-.23.4-.35z"/></g><linearGradient id="F" x1="71.952" x2="64.63" y1="111.38" y2="109.81" gradientUnits="userSpaceOnUse"><stop stop-color="#212121" offset=".019"/><stop stop-color="#212121" stop-opacity="0" offset="1"/></linearGradient><path d="M66 102.5c-1.77 0-2.94.49-3.76 1.11v1.33c.72-.75 1.78-1.45 3.76-1.45 3.65 0 6.62 2.97 6.62 6.62s-2.97 6.62-6.62 6.62a6.55 6.55 0 0 1-3.76-1.18v1.17c1.11.64 2.39 1.01 3.76 1.01 4.2 0 7.61-3.41 7.61-7.61S70.2 102.5 66 102.5z" fill="url(#F)" opacity=".62"/><linearGradient id="G" x1="64.695" x2="101.78" y1="51.411" y2="59.129" gradientUnits="userSpaceOnUse"><stop stop-color="#212121" stop-opacity="0" offset="0"/><stop stop-color="#212121" offset="1"/></linearGradient><path d="M110.15 22.86c-1.77-10.3-8.75-18.58-20.91-18.58-1.63 0-3.34.15-5.16.46-14.69 2.52-21.53 14.43-22.82 16.94-2.07 1.2-4.48 2.69-6.97 4.26l2.04 1.04c3.42-2.14 6.63-4.06 8.91-5.23 1.43.36 2.81 1.41 3.38 3.96 2.14 12.44 8.34 19.93 16.43 21.77-9.42 3.62-25.63 9.86-33.51 12.88-.95.37-1.79.68-2.47.94-1.25.48-2.01.76-2.08.79-1 .33-2.04.5-3.09.5-1.72 0-3.37-.46-4.83-1.27l-1.11 1.66c1.81 1.04 3.86 1.6 5.94 1.6 1.25 0 2.51-.2 3.73-.6.07-.02.62-.23 1.54-.57.03.11.04.22.08.34.73 2.18 2.13 3.3 3.49 4.38 1.18.94 2.51 2 3.88 4.1.94 1.45 1.59 3.62 2.19 6.32C54.45 71.06 42 68.89 42 68.89l15.48 27.9 4.71-1.49 1.18 3.29-5.62 1.88S41.51 76.29 35.26 67.03l-1.2 1.79c5.84 8.68 19.77 29.39 22.44 33.36.26.39.76.56 1.21.41l7.16-2.4c.55-.18.84-.78.66-1.33-4.09-12.73-4.13-22.92-7.25-27.71-3.1-4.77-6.07-4.8-7.15-8.03-.05-.14-.06-.28-.09-.42 8.05-3.04 28.3-10.73 39.01-14.79.85-.04 1.71-.12 2.59-.27 11.67-2 19.51-13.1 17.51-24.78zM58.14 95.87L46.7 73.71s8.27 2.48 10.17 5.49c2.61 4.13 4.19 15.48 4.19 15.48l-2.92 1.19zm46.76-58.14a19.4 19.4 0 0 1-8.96 6.96c-1.17.44-2.39.78-3.65 1-1.08.19-2.16.28-3.19.28h-.08c-9.34-.05-16.23-7.73-18.44-20.58l-.02-.1c-.47-2.09-1.48-3.66-2.92-4.61-.78-.52-1.68-.85-2.69-.99l-.13-.03C67.73 15.44 74 8.48 84.41 6.69c1.66-.29 3.29-.43 4.82-.43 10.05 0 17.13 6.33 18.95 16.93.89 5.13-.28 10.29-3.28 14.54z" fill="url(#G)" opacity=".47"/></svg>