<svg viewBox="0 0 128 128" width="128" height="128" xmlns="http://www.w3.org/2000/svg"><linearGradient id="a" x1="63.992" x2="63.992" y1="19.717" y2="107.7" gradientUnits="userSpaceOnUse"><stop stop-color="#FEE133" offset=".5"/><stop stop-color="#FEDE32" offset=".612"/><stop stop-color="#FCD32F" offset=".708"/><stop stop-color="#FAC12B" offset=".797"/><stop stop-color="#F7A924" offset=".883"/><stop stop-color="#F6A323" offset=".9"/></linearGradient><path d="M63.99 119.89c-27.93 0-58-17.49-58-55.89s30.07-55.89 58-55.89c15.48 0 29.81 5.12 40.36 14.43 11.54 10.19 17.64 24.52 17.64 41.46 0 16.86-6.1 31.17-17.64 41.39-10.57 9.35-24.91 14.5-40.36 14.5z" fill="url(#a)"/><path d="M63.99 10.11c14.99 0 28.86 4.95 39.03 13.93 11.1 9.8 16.97 23.61 16.97 39.96 0 16.27-5.87 30.07-16.97 39.89-10.21 9.03-24.07 14-39.03 14-15.04 0-28.9-4.91-39.04-13.82C13.86 94.32 7.99 80.46 7.99 64c0-16.54 5.86-30.42 16.96-40.15 10.11-8.86 23.97-13.74 39.04-13.74m0-4c-31.15 0-60 20.01-60 57.89 0 37.68 28.85 57.89 60 57.89s60-20.73 60-57.89c0-37.37-28.85-57.89-60-57.89z" fill="#EB8F00"/><g fill="#EB8F00" stroke="#EB8F00" stroke-miterlimit="10"><path d="M79.8 30.45c-.05-.01-.09-.01-.14-.02-2.19-.22-2.52-3.42-.09-3.66 1.9-.15 3.88-.02 5.86.43 5.43 1.21 10 4.53 12.69 8.6 1.31 2.06-1.41 3.8-2.93 2.21-3.9-4-9.4-6.84-15.39-7.56zM48.2 30.45c.05-.01.09-.01.14-.02 2.19-.22 2.52-3.42.09-3.66-1.9-.15-3.88-.02-5.86.43-5.43 1.21-10 4.53-12.69 8.6-1.31 2.06 1.41 3.8 2.93 2.21 3.9-4 9.4-6.84 15.39-7.56z"/></g><path d="M43.65 55.13c1.97 0 3.87.2 5.48.57.96.22 1.95-.2 2.4-1.08.71-1.39 1.13-3.07 1.13-5.01 0-5.87-3.81-9.42-8-9.42s-8 3.54-8 9.42c0 1.73.33 3.25.9 4.54.39.87 1.3 1.39 2.24 1.25 1.22-.18 2.52-.27 3.85-.27zM84.35 55.13c-1.97 0-3.87.2-5.48.57-.96.22-1.95-.2-2.4-1.08-.71-1.39-1.13-3.07-1.13-5.01 0-5.87 3.81-9.42 8-9.42s8 3.54 8 9.42c0 1.73-.33 3.25-.9 4.54-.39.87-1.3 1.39-2.24 1.25-1.22-.18-2.52-.27-3.85-.27z" fill="#242424"/><g fill="#242424"><path d="M63.93 70.07h-.12c-3.66 0-6.54.15-15.5-1.78-1.63-.35-2.93 1.74-.54 3.48 4.83 3.52 10.54 4.6 16.16 4.6v-6.3zM64.07 70.07h.12c3.66 0 6.54.15 15.5-1.78 1.63-.35 2.93 1.74.54 3.48-4.83 3.52-10.54 4.6-16.16 4.6v-6.3z"/></g><path d="M57.36 98.69c.41-1.16-4.84-1.06-4.36-1.85 6-10 5-29 5-29 0-6-.21-8.97 3.65-9.4 5.35-.6 8.35 3.4 8.35 9.4 0 8.08-3 20-3 20 .61 1.38 6.29 3.78 7.52 4.41-2.35.9-8.28 1.44-10.3 2.94a94.196 94.196 0 0 1-6.86 3.5z" fill="#FEE133"/><path d="M82.25 109.81c.61-.07 1.4-.66 1.4-1.17l.23-6.38c0-.51-1.04-1.52-1.65-1.59-.74-.09-1.86.86-1.86 1.46l.23 6.45c.02.59.92 1.31 1.65 1.23z" fill="#EDA600"/><linearGradient id="b" x1="31.362" x2="31.362" y1="79.656" y2="123.5" gradientTransform="matrix(-1 0 0 1 101.94 0)" gradientUnits="userSpaceOnUse"><stop stop-color="#FEE133" offset=".378"/><stop stop-color="#FEDE32" offset=".524"/><stop stop-color="#FCD32F" offset=".649"/><stop stop-color="#FAC12B" offset=".766"/><stop stop-color="#F7A924" offset=".878"/><stop stop-color="#F6A323" offset=".9"/></linearGradient><path d="M55.13 88.87c3.23-4.85 8.99-7.21 14.61-7.79 4.96-.52 11.09-.42 12.55 5.35.49 1.92.69 3.92.59 5.9 2.7-.88 6.12-.26 7.59 2.18.73 1.21 1.54 6.62-.59 9.12-.99 1.17-5.88 2.87-7.37 2.53.22 1.75.87 7.97-3.55 13.21-2.99 3.54-7.98 4.64-12.42 4.33-4.53-.31-9.1-2.34-12.04-5.87-5-6-7.38-16.95.63-28.96z" fill="url(#b)"/><path d="M53.5 91.83c5.5-10.5 5.5-23.5 5.5-23.5 0-5-.86-9.57 3-10 5.35-.6 7 4 7.5 9.5.73 8.05-.5 13.67-.5 13.67" fill="none" stroke="#EB8F00" stroke-linecap="round" stroke-linejoin="round" stroke-miterlimit="10" stroke-width="3"/><radialGradient id="c" cx="30.645" cy="83.954" r="0" gradientTransform="matrix(-1.1638 .2342 .3789 1.3142 80.532 -33.554)" gradientUnits="userSpaceOnUse"><stop stop-color="#FFB300" offset="0"/><stop stop-color="#FFCA28" offset=".689"/><stop stop-color="#FFB300" offset="1"/></radialGradient><path d="M90.45 92.07c.6 0 3.99 15.67 3.99 15.67l-9.38 11.83-10.87-5.96-4.85-17.19-3.52-.53.22-1.54-1.26-6.27 23.08-1.01 2.59 5z" fill="none"/><path d="M61 85.33s4.96-3.46 13-4c8.95-.6 9.17 7.15 8.91 10.25a.92.92 0 0 0 1.09.98c1.42-.25 3.63-.33 4.92.35 4.08 2.17 3.33 10-.71 11.79-3.29 1.46-6.21.38-6.21.38 1.08 4 1.88 9.75-4.5 15.25-5.24 4.52-17.78 4.14-23-2.12-5-6-6-14.38-1-26.38" fill="none" stroke="#EB8F00" stroke-linecap="round" stroke-miterlimit="10" stroke-width="3"/><path d="M62.25 92.58s6.99-2.33 14-2.33c3.83 0 6.83 2.42 6.75 5.92-.04 1.89-.9 3.43-2.25 4.75" fill="none" stroke="#EB8F00" stroke-linecap="round" stroke-miterlimit="10" stroke-width="3"/><path d="M62.92 101s5.17-1.42 10.67-1.67c3.96-.18 7.33 1.75 7.5 6.42.14 3.92-2.5 6.33-5.5 7.5-2.39.93-6.23 1.59-7.25-1.33-1.33-3.83 5-5 5-5" fill="none" stroke="#EB8F00" stroke-linecap="round" stroke-miterlimit="10" stroke-width="3"/><path d="M63.99 119.89c-27.93 0-58-17.49-58-55.89s30.07-55.89 58-55.89c15.48 0 29.81 5.12 40.36 14.43 11.54 10.19 17.64 24.52 17.64 41.46 0 16.86-6.1 31.17-17.64 41.39-10.57 9.35-24.91 14.5-40.36 14.5z" fill="url(#a)"/><path d="M63.99 10.11c14.99 0 28.86 4.95 39.03 13.93 11.1 9.8 16.97 23.61 16.97 39.96 0 16.27-5.87 30.07-16.97 39.89-10.21 9.03-24.07 14-39.03 14-15.04 0-28.9-4.91-39.04-13.82C13.86 94.32 7.99 80.46 7.99 64c0-16.54 5.86-30.42 16.96-40.15 10.11-8.86 23.97-13.74 39.04-13.74m0-4c-31.15 0-60 20.01-60 57.89 0 37.68 28.85 57.89 60 57.89s60-20.73 60-57.89c0-37.37-28.85-57.89-60-57.89z" fill="#EB8F00"/><path d="M43.65 55.13c1.97 0 3.87.2 5.48.57.96.22 1.95-.2 2.4-1.08.71-1.39 1.13-3.07 1.13-5.01 0-5.87-3.81-9.42-8-9.42s-8 3.54-8 9.42c0 1.73.33 3.25.9 4.54.39.87 1.3 1.39 2.24 1.25 1.22-.18 2.52-.27 3.85-.27zM84.35 55.13c-1.97 0-3.87.2-5.48.57-.96.22-1.95-.2-2.4-1.08-.71-1.39-1.13-3.07-1.13-5.01 0-5.87 3.81-9.42 8-9.42s8 3.54 8 9.42c0 1.73-.33 3.25-.9 4.54-.39.87-1.3 1.39-2.24 1.25-1.22-.18-2.52-.27-3.85-.27z" fill="#242424"/><g fill="#242424"><path d="M63.05 71.78h-.1c-3.04 0-5.43.13-12.86-1.49-1.35-.29-2.43 1.46-.45 2.91 4.01 2.94 8.75 3.85 13.41 3.85v-5.27zM63.17 71.78h.1c3.04 0 5.43.13 12.86-1.49 1.35-.29 2.43 1.46.45 2.91-4.01 2.94-8.75 3.85-13.41 3.85v-5.27z"/></g><path d="M55.48 96.52c.44-1.26-5.26-1.15-4.74-2.02 6.52-10.87 5.43-31.51 5.43-31.51 0-6.52-.22-9.75 3.97-10.22 5.81-.65 9.07 3.7 9.07 10.22 0 8.78-3.26 21.73-3.26 21.73.66 1.49 6.83 4.11 8.17 4.79-2.56.97-9 1.56-11.19 3.19a96.928 96.928 0 0 1-7.45 3.82z" fill="#FEE133"/><path d="M82.53 108.6c.66-.08 1.53-.72 1.53-1.27l.25-6.94c0-.56-1.13-1.66-1.79-1.73-.8-.09-2.02.94-2.02 1.59l.25 7.01c0 .65.98 1.44 1.78 1.34z" fill="#EDA600"/><linearGradient id="d" x1="32.094" x2="32.094" y1="75.839" y2="123.47" gradientTransform="matrix(-1 0 0 1 101.94 0)" gradientUnits="userSpaceOnUse"><stop stop-color="#FEE133" offset=".378"/><stop stop-color="#FEDF33" offset=".686"/><stop stop-color="#FDD831" offset=".797"/><stop stop-color="#FBCD2E" offset=".876"/><stop stop-color="#F9BC29" offset=".939"/><stop stop-color="#F6A624" offset=".994"/><stop stop-color="#F6A323" offset="1"/></linearGradient><path d="M53.06 85.86c3.51-5.27 9.77-7.83 15.88-8.47 5.39-.56 12.05-.46 13.64 5.81.53 2.09.75 4.26.64 6.41 2.94-.95 6.65-.28 8.24 2.37.79 1.31 1.67 7.19-.64 9.91-1.08 1.27-6.39 3.12-8.01 2.74.24 1.9.94 8.66-3.85 14.36-3.24 3.85-8.67 5.04-13.49 4.71-4.92-.34-9.89-2.55-13.08-6.38-5.45-6.52-8.03-18.42.67-31.46z" fill="url(#d)"/><path d="M51.29 89.07c5.98-11.41 5.98-25.53 5.98-25.53 0-5.43-.93-10.4 3.26-10.87 5.81-.65 7.61 4.35 8.15 10.32.79 8.74-.54 14.85-.54 14.85" fill="none" stroke="#DD8821" stroke-linecap="round" stroke-linejoin="round" stroke-miterlimit="10" stroke-width="3.26"/><radialGradient id="e" cx="30.815" cy="80.51" r="0" gradientTransform="matrix(-1.1638 .2342 .3789 1.3142 81.832 -32.511)" gradientUnits="userSpaceOnUse"><stop stop-color="#FFB300" offset="0"/><stop stop-color="#FFCA28" offset=".689"/><stop stop-color="#FFB300" offset="1"/></radialGradient><path d="M91.43 89.33c.65 0 4.34 17.02 4.34 17.02L85.58 119.2l-11.81-6.48-5.27-18.67-3.83-.57.24-1.67L63.54 85l25.08-1.09 2.81 5.42z" fill="none"/><path d="M59.44 82.01s5.38-3.76 14.13-4.35c9.72-.65 9.97 7.77 9.68 11.14-.06.66.53 1.18 1.18 1.07 1.55-.27 3.94-.36 5.34.38 4.44 2.35 3.62 10.87-.77 12.81-3.58 1.59-6.75.41-6.75.41 1.18 4.35 2.04 10.59-4.89 16.57-5.7 4.91-19.32 4.5-24.99-2.31-5.43-6.52-6.52-15.62-1.09-28.66" fill="none" stroke="#DD8821" stroke-linecap="round" stroke-miterlimit="10" stroke-width="3.26"/><path d="M60.8 89.89s7.59-2.54 15.21-2.54c4.17 0 7.42 2.63 7.33 6.43-.05 2.05-.97 3.73-2.44 5.16" fill="none" stroke="#DD8821" stroke-linecap="round" stroke-miterlimit="10" stroke-width="3.26"/><path d="M61.52 99.03s5.61-1.54 11.59-1.81c4.3-.2 7.97 1.9 8.15 6.97.15 4.26-2.72 6.88-5.98 8.15-2.6 1.01-6.77 1.72-7.88-1.45-1.45-4.17 5.43-5.43 5.43-5.43" fill="none" stroke="#DD8821" stroke-linecap="round" stroke-miterlimit="10" stroke-width="3.26"/></svg>