<svg viewBox="0 0 128 128" width="128" height="128" xmlns="http://www.w3.org/2000/svg" xmlns:xlink="http://www.w3.org/1999/xlink"><linearGradient id="a" x1="52.5" x2="52.5" y1="3.937" y2="3.937" gradientUnits="userSpaceOnUse"><stop stop-color="#D5ECFD" offset="0"/><stop stop-color="#A9C9E3" offset="1"/></linearGradient><linearGradient id="b" x1="64" x2="64" y1="10.721" y2="123.65" gradientUnits="userSpaceOnUse"><stop stop-color="#fff" offset="0"/><stop stop-color="#F8FCFF" offset=".39"/><stop stop-color="#E5F3FD" offset=".956"/><stop stop-color="#E3F2FD" offset=".999"/></linearGradient><path d="M101.67 84.94l15.5-5.81c.48-.18.72-.71.54-1.19-2.96-7.65-23.56-58.09-26.24-60.09-2.51-1.88-17.21-5.66-20.89-6.35-.48-.09-6.26 20.97-6.26 20.97-.24.93-1.57.92-1.79-.02 0 0-5.57-21.06-6.06-20.95-3.64.81-17.46 4.12-19.95 5.99-2.67 2.01-23.28 51.36-26.23 59.01-.18.48.06 1.01.54 1.19l15.5 5.81a.93.93 0 0 0 1.19-.54S37.97 57.48 37.97 58.5v58.34c0 .3.14.58.39.75 1.79 1.23 9.59 6.16 19.81 6.16 25.96 0 30.9-4.93 31.72-6.16.1-.15.15-.33.15-.51V58.5c0-1.03 10.45 25.9 10.45 25.9.17.48.71.72 1.18.54z" fill="url(#b)"/><path d="M56.16 5.99h14.61l.92 11.67-8.38 19.96-7.99-19.4s.84-12.09.84-12.23z" fill="#90A4AE"/><defs><path id="c" d="M101.67 85.19l15.5-5.81c.48-.18.72-.71.54-1.19-2.96-7.65-26.24-60.09-26.24-60.09s-17.21-7.66-20.89-8.35c-.48-.09-6.26 22.97-6.26 22.97-.24.93-1.57.92-1.79-.02 0 0-5.57-23.06-6.06-22.95-3.64.81-19.95 7.99-19.95 7.99S13.24 69.1 10.29 76.75c-.18.48.06 1.01.54 1.19l15.5 5.81a.93.93 0 0 0 1.19-.54s10.45-25.48 10.45-24.46v58.34c0 .3.14.58.39.75 1.79 1.23 9.59 6.16 19.81 6.16 25.96 0 30.9-4.93 31.72-6.16.1-.15.15-.33.15-.51V58.75c0-1.03 10.45 25.9 10.45 25.9.17.48.71.72 1.18.54z"/></defs><clipPath id="d"><use xlink:href="#c"/></clipPath><g clip-path="url(#d)"><path d="M48.15 103.8h-9.79a2.86 2.86 0 0 1-2.86-2.86V84.93H51v16.02c0 1.57-1.28 2.85-2.85 2.85z" fill="none" stroke="#CFD8DC" stroke-miterlimit="10" stroke-width="2"/></g><path clip-path="url(#d)" fill="none" stroke="#CFD8DC" stroke-miterlimit="10" d="M35 88.17h15.5"/><g clip-path="url(#d)"><path d="M88.81 103.8h-9.79a2.86 2.86 0 0 1-2.86-2.86V84.93h15.5v16.02a2.842 2.842 0 0 1-2.85 2.85z" fill="none" stroke="#CFD8DC" stroke-miterlimit="10" stroke-width="2"/></g><path clip-path="url(#d)" fill="none" stroke="#CFD8DC" stroke-miterlimit="10" d="M75.67 88.17h15.5"/><path clip-path="url(#d)" fill="none" stroke="#E2E7EA" stroke-miterlimit="10" stroke-width=".75" d="M8.25 71l23.5 8.5M120.75 72l-23.5 8.5"/><path d="M79.38 53.89h-3.13c-1.92 0-3.47-1.55-3.47-3.47v-7.88h10.08v7.88a3.48 3.48 0 0 1-3.48 3.47z" fill="none" stroke="#CFD8DC" stroke-miterlimit="10" stroke-width="1.022"/><path d="M57.36 20.12c0 .11.02.22.06.33l5.98 15.67 6.28-15.66c.04-.11.07-.22.07-.34l.96-8.23H56.4l.96 8.23z" fill="none"/><linearGradient id="e" x1="63.398" x2="63.398" y1="31.346" y2="40.884" gradientUnits="userSpaceOnUse"><stop stop-color="#D5ECFD" offset="0"/><stop stop-color="#A9C9E3" offset="1"/></linearGradient><path fill="url(#e)" d="M63.4 36.12z"/><path d="M78.59 12.83a.97.97 0 0 0-.21-.46l-6.75-7.9-.89 7.42h-.03l-.96 8.23c0 .12-.02.23-.07.34L63 35.3l-5.59-14.85a.92.92 0 0 1-.06-.33l-.96-8.23h-.13l-.86-7.33-6.67 7.81c-.11.13-.19.29-.21.46l-1.42 9.61c-.08.56.36 1.07.93 1.05l3.86-.1c.82-.02 1.25.96.68 1.56l-2.45 2.55c-.36.38-.34.98.05 1.32l10.81 9.62c.29.26-1.36 4.14-1.36 4.14l.15 80.25h1l-.15-80.25L76.9 28.82c.41-.34.44-.96.07-1.34l-2.43-2.53c-.57-.59-.14-1.58.68-1.56l3.85.1c.57.01 1.02-.49.93-1.05l-1.41-9.61z" fill="#CDD6DA"/><linearGradient id="f" x1="63.509" x2="63.509" y1="4.205" y2="38.514" gradientUnits="userSpaceOnUse"><stop stop-color="#D5ECFD" offset="0"/><stop stop-color="#A9C9E3" offset="1"/></linearGradient><path d="M56.4 11.89l-.13-1.09c0-.51.41-.92.92-.92h12.72c.51 0 .92.41.92.92l-.13 1.09h.03l.89-7.42-.16-.19a.925.925 0 0 0-.7-.32h-7.12c-.04-.04-.06.02-.09.09-.03-.07-.05-.12-.09-.09h-7.12c-.27 0-.52.12-.7.32l-.24.28.88 7.32h.12z" fill="url(#f)"/><path d="M71.46 4.27a.925.925 0 0 0-.7-.32h-7.12c-.04-.04-.06.02-.09.09-.03-.07-.05-.12-.09-.09h-7.12c-.27 0-.52.12-.7.32l-.24.29.88 7.32h14.47l.89-7.42-.18-.19z" fill="#ECEFF1"/><circle cx="64" cy="56.64" r="1.27" fill="#CFD8DC"/><circle cx="64" cy="76.53" r="1.27" fill="#CFD8DC"/><circle cx="64" cy="96.43" r="1.27" fill="#CFD8DC"/><path fill="#CFD8DC" d="M72.67 42.25H83v2.58H72.67z"/><path d="M69.8 6.949999999999999l5.9 6.91v.03l.3 1.95 1.9.51c7.4 1.99 10.7 3.28 11.6 3.79 3.04 4.3 19.53 43.99 24.64 56.92l-11.6 4.35c-.94-2.41-2.64-6.76-4.35-11.08-1.49-3.78-2.7-6.79-3.58-8.95-2.01-4.9-2.42-5.91-4.57-5.91l-3.01.03v60.73c-1.41 1.1-7.51 4.51-28.88 4.51-8.13 0-14.67-3.47-17.2-5.04V58.5l-.01-3.03h-3c-2.1 0-2.57 1.08-4.55 5.63-.89 2.04-2.09 4.89-3.59 8.46-1.7 4.05-3.38 8.15-4.32 10.43l-11.63-4.36C19 62.71 35.47 23.99 38.49 19.79c.58-.32 2.87-1.37 10.7-3.43l1.92-.5.29-1.96.01-.04 5.9-6.91H69.8M70.76 3.95H56.34c-.27 0-.52.12-.7.32l-.25.29-6.67 7.81c-.11.13-.19.29-.21.46l-.09.63c-4.96 1.3-10.42 2.92-11.9 4.02-2.67 2.02-23.28 51.37-26.23 59.02-.18.48.06 1.01.54 1.19l15.5 5.81a.914.914 0 0 0 1.18-.54s10.04-24.49 10.44-24.49c.01 0 .01.01.01.03v58.34c0 .3.14.58.39.75 1.79 1.23 9.59 6.16 19.81 6.16 25.96 0 30.9-4.93 31.72-6.16.1-.15.15-.33.15-.51V58.5c0-.02 0-.03.01-.03.38 0 10.44 25.93 10.44 25.93.14.37.49.6.86.6.11 0 .22-.02.32-.06l15.5-5.81c.48-.18.72-.71.54-1.19-2.96-7.65-23.56-58.09-26.24-60.09-1.52-1.14-7.5-2.97-12.8-4.39l-.09-.63a.97.97 0 0 0-.21-.46l-6.75-7.9-.16-.19a.882.882 0 0 0-.69-.33z" fill="#424242" opacity=".2"/></svg>