<svg viewBox="0 0 128 128" width="128" height="128" xmlns="http://www.w3.org/2000/svg"><ellipse transform="rotate(-17.127 62.937 66.116)" cx="62.94" cy="66.11" rx="53.62" ry="23.82" fill="#BF4900"/><ellipse transform="rotate(-17.127 62.916 66.034)" cx="62.91" cy="66.04" rx="53.59" ry="23.8" fill="#C04900"/><ellipse transform="rotate(-17.127 62.89 65.956)" cx="62.89" cy="65.96" rx="53.57" ry="23.79" fill="#C14A00"/><ellipse transform="rotate(-17.127 62.864 65.877)" cx="62.87" cy="65.88" rx="53.54" ry="23.78" fill="#C24A00"/><ellipse transform="rotate(-17.127 62.84 65.795)" cx="62.84" cy="65.8" rx="53.51" ry="23.77" fill="#C34B00"/><ellipse transform="rotate(-17.127 62.817 65.717)" cx="62.82" cy="65.72" rx="53.49" ry="23.76" fill="#C44B00"/><ellipse transform="rotate(-17.127 62.792 65.639)" cx="62.79" cy="65.64" rx="53.46" ry="23.74" fill="#C54B00"/><ellipse transform="rotate(-17.127 62.766 65.56)" cx="62.77" cy="65.56" rx="53.43" ry="23.73" fill="#C64C00"/><ellipse transform="rotate(-17.127 62.745 65.479)" cx="62.74" cy="65.48" rx="53.4" ry="23.72" fill="#C74C00"/><ellipse transform="rotate(-17.127 62.719 65.4)" cx="62.72" cy="65.4" rx="53.38" ry="23.71" fill="#C84C00"/><ellipse transform="rotate(-17.127 62.693 65.322)" cx="62.69" cy="65.32" rx="53.35" ry="23.7" fill="#C94D00"/><ellipse transform="rotate(-17.127 62.671 65.244)" cx="62.67" cy="65.24" rx="53.32" ry="23.68" fill="#CA4D00"/><ellipse transform="rotate(-17.127 62.646 65.162)" cx="62.65" cy="65.16" rx="53.29" ry="23.67" fill="#CB4E00"/><ellipse transform="rotate(-17.127 62.62 65.083)" cx="62.62" cy="65.08" rx="53.27" ry="23.66" fill="#CC4E00"/><ellipse transform="rotate(-17.127 62.595 65.005)" cx="62.6" cy="65" rx="53.24" ry="23.65" fill="#CD4E00"/><ellipse transform="rotate(-17.127 62.573 64.927)" cx="62.57" cy="64.93" rx="53.21" ry="23.63" fill="#CE4F00"/><ellipse transform="rotate(-17.127 62.548 64.845)" cx="62.55" cy="64.85" rx="53.18" ry="23.62" fill="#CF4F00"/><ellipse transform="rotate(-17.127 62.522 64.766)" cx="62.52" cy="64.77" rx="53.16" ry="23.61" fill="#D05000"/><ellipse transform="rotate(-17.127 62.497 64.688)" cx="62.5" cy="64.69" rx="53.13" ry="23.6" fill="#D15000"/><ellipse transform="rotate(-17.127 62.475 64.606)" cx="62.47" cy="64.61" rx="53.1" ry="23.59" fill="#D25000"/><ellipse transform="rotate(-17.127 62.45 64.528)" cx="62.45" cy="64.53" rx="53.07" ry="23.57" fill="#D35100"/><ellipse transform="rotate(-17.127 62.424 64.45)" cx="62.43" cy="64.45" rx="53.05" ry="23.56" fill="#D45100"/><ellipse transform="rotate(-17.127 62.402 64.371)" cx="62.4" cy="64.37" rx="53.02" ry="23.55" fill="#D55100"/><ellipse transform="rotate(-17.127 62.377 64.29)" cx="62.38" cy="64.29" rx="52.99" ry="23.54" fill="#D65200"/><ellipse transform="rotate(-17.127 62.351 64.21)" cx="62.35" cy="64.21" rx="52.97" ry="23.53" fill="#D75200"/><ellipse transform="rotate(-17.127 62.33 64.133)" cx="62.33" cy="64.13" rx="52.94" ry="23.51" fill="#D85300"/><ellipse transform="rotate(-17.127 62.304 64.054)" cx="62.3" cy="64.05" rx="52.91" ry="23.5" fill="#D95300"/><ellipse transform="rotate(-17.127 62.279 63.972)" cx="62.28" cy="63.97" rx="52.88" ry="23.49" fill="#DA5300"/><ellipse transform="rotate(-17.127 62.253 63.894)" cx="62.25" cy="63.89" rx="52.86" ry="23.48" fill="#DB5400"/><ellipse transform="rotate(-17.127 62.23 63.816)" cx="62.23" cy="63.82" rx="52.83" ry="23.46" fill="#DC5400"/><ellipse transform="rotate(-17.127 62.205 63.737)" cx="62.21" cy="63.74" rx="52.8" ry="23.45" fill="#d50"/><ellipse transform="rotate(-17.127 62.18 63.655)" cx="62.18" cy="63.66" rx="52.77" ry="23.44" fill="#DE5500"/><ellipse transform="rotate(-17.127 62.155 63.577)" cx="62.16" cy="63.58" rx="52.75" ry="23.43" fill="#DF5500"/><ellipse transform="rotate(-17.127 62.133 63.499)" cx="62.13" cy="63.5" rx="52.72" ry="23.42" fill="#DF5600"/><ellipse transform="rotate(-17.127 62.108 63.417)" cx="62.11" cy="63.42" rx="52.69" ry="23.4" fill="#E05600"/><ellipse transform="rotate(-17.127 62.082 63.338)" cx="62.08" cy="63.34" rx="52.66" ry="23.39" fill="#E15600"/><ellipse transform="rotate(-17.127 62.06 63.26)" cx="62.06" cy="63.26" rx="52.64" ry="23.38" fill="#E25700"/><ellipse transform="rotate(-17.127 62.034 63.182)" cx="62.03" cy="63.18" rx="52.61" ry="23.37" fill="#E35700"/><ellipse transform="rotate(-17.127 62.01 63.1)" cx="62.01" cy="63.1" rx="52.58" ry="23.36" fill="#E45800"/><ellipse transform="rotate(-17.127 61.987 63.022)" cx="61.99" cy="63.02" rx="52.56" ry="23.34" fill="#E55800"/><ellipse transform="rotate(-17.127 61.962 62.943)" cx="61.96" cy="62.94" rx="52.53" ry="23.33" fill="#E65800"/><ellipse transform="rotate(-17.127 61.936 62.865)" cx="61.94" cy="62.86" rx="52.5" ry="23.32" fill="#E75900"/><ellipse transform="rotate(-17.127 61.911 62.783)" cx="61.91" cy="62.78" rx="52.47" ry="23.31" fill="#E85900"/><ellipse transform="rotate(-17.127 61.889 62.705)" cx="61.89" cy="62.71" rx="52.45" ry="23.29" fill="#E95A00"/><ellipse transform="rotate(-17.127 61.863 62.626)" cx="61.86" cy="62.63" rx="52.42" ry="23.28" fill="#EA5A00"/><ellipse transform="rotate(-17.127 61.838 62.548)" cx="61.84" cy="62.55" rx="52.39" ry="23.27" fill="#EB5A00"/><ellipse transform="rotate(-17.127 61.816 62.466)" cx="61.81" cy="62.47" rx="52.36" ry="23.26" fill="#EC5B00"/><ellipse transform="rotate(-17.127 61.79 62.388)" cx="61.79" cy="62.39" rx="52.34" ry="23.25" fill="#ED5B00"/><ellipse transform="rotate(-17.127 61.765 62.31)" cx="61.77" cy="62.31" rx="52.31" ry="23.23" fill="#EE5B00"/><ellipse transform="rotate(-17.127 61.74 62.227)" cx="61.74" cy="62.23" rx="52.28" ry="23.22" fill="#EF5C00"/><ellipse transform="rotate(-17.127 61.718 62.15)" cx="61.72" cy="62.15" rx="52.25" ry="23.21" fill="#F05C00"/><ellipse transform="rotate(-17.127 61.692 62.07)" cx="61.69" cy="62.07" rx="52.23" ry="23.2" fill="#F15D00"/><ellipse transform="rotate(-17.127 61.667 61.992)" cx="61.67" cy="61.99" rx="52.2" ry="23.19" fill="#F25D00"/><ellipse transform="rotate(-17.127 61.645 61.91)" cx="61.64" cy="61.91" rx="52.17" ry="23.17" fill="#F35D00"/><ellipse transform="rotate(-17.127 61.62 61.832)" cx="61.62" cy="61.83" rx="52.15" ry="23.16" fill="#F45E00"/><ellipse transform="rotate(-17.127 61.594 61.754)" cx="61.59" cy="61.75" rx="52.12" ry="23.15" fill="#F55E00"/><ellipse transform="rotate(-17.127 61.572 61.676)" cx="61.57" cy="61.67" rx="52.09" ry="23.14" fill="#F65F00"/><ellipse transform="rotate(-17.127 61.547 61.594)" cx="61.55" cy="61.6" rx="52.06" ry="23.12" fill="#F75F00"/><ellipse transform="rotate(-17.127 61.521 61.515)" cx="61.52" cy="61.52" rx="52.04" ry="23.11" fill="#F85F00"/><ellipse transform="rotate(-17.127 61.496 61.437)" cx="61.5" cy="61.44" rx="52.01" ry="23.1" fill="#F96000"/><ellipse transform="rotate(-17.127 61.474 61.359)" cx="61.47" cy="61.36" rx="51.98" ry="23.09" fill="#FA6000"/><ellipse transform="rotate(-17.127 61.449 61.277)" cx="61.45" cy="61.28" rx="51.95" ry="23.08" fill="#FB6000"/><ellipse transform="rotate(-17.127 61.423 61.198)" cx="61.42" cy="61.2" rx="51.93" ry="23.06" fill="#FC6100"/><ellipse transform="rotate(-17.127 61.397 61.12)" cx="61.4" cy="61.12" rx="51.9" ry="23.05" fill="#FD6100"/><ellipse transform="rotate(-17.127 61.376 61.038)" cx="61.37" cy="61.04" rx="51.87" ry="23.04" fill="#FE6200"/><ellipse transform="rotate(-17.127 61.35 60.96)" cx="61.35" cy="60.96" rx="51.84" ry="23.03" fill="#FF6200"/><path d="M84.21 37.37c5.53 0 10.28.68 14.54 2.09 3.32 1.09 5.64 2.41 7.1 4.01 1.98 2.18 4.38 5.05 5.28 7.89.23.71.35 1.4.36 2.03.03 1.79-.47 3.73-1.48 5.75-3.26 6.49-9.8 11.35-14.44 14.44-7.54 5.02-16.49 9.14-26.6 12.24-4.52 1.39-9.08 2.49-13.55 3.29-5.87 1.04-11.09 1.55-15.96 1.55-4.4 0-8.54-.43-12.29-1.29-8.13-1.86-12.48-5.51-12.92-10.86-.32-3.88.03-7.19 1.01-9.58 2.62-6.38 8.98-11.29 13.54-14.43 7.43-5.12 16.38-9.3 26.59-12.43 5.63-1.73 11.27-2.99 16.76-3.76 4.45-.64 8.4-.94 12.06-.94m0-3.13c-4.22 0-8.43.39-12.49.96-5.84.82-11.61 2.14-17.25 3.87-9.66 2.96-19.11 7.11-27.45 12.85-5.81 4-11.92 9.14-14.66 15.82-1.38 3.37-1.53 7.45-1.24 11.03.68 8.26 8.04 11.98 15.35 13.65 4.24.97 8.6 1.37 12.99 1.37 5.55 0 11.13-.64 16.5-1.6 4.7-.84 9.35-1.98 13.92-3.38 9.63-2.95 19.03-7.04 27.42-12.63 6.02-4.01 12.2-9.06 15.5-15.63 1.13-2.25 1.86-4.68 1.81-7.21-.02-.99-.2-1.96-.5-2.92-1.08-3.4-3.69-6.57-5.95-9.05-2.18-2.4-5.4-3.88-8.43-4.87-4.95-1.65-10.23-2.26-15.52-2.26z" fill="#424242" opacity=".2"/><ellipse transform="rotate(-17.127 61.179 58.737)" cx="61.18" cy="58.74" rx="37.74" ry="15.31" fill="#E05600"/><ellipse transform="rotate(-17.127 59.543 59.092)" cx="59.54" cy="59.09" rx="30.88" ry="11.86" fill="#FF7017"/><path d="M22.51 78.91c.97.92 2.04 1.45 3.19 1.87 1.12.44 2.32.7 3.5.96 2.37.5 4.79.77 7.27.98 2.46.2 4.93.29 7.44.29 2.51.05 5.06-.09 7.69.08-2.41 1.04-4.9 1.79-7.48 2.28-2.58.47-5.24.62-7.88.45-2.62-.17-5.3-.59-7.81-1.62-1.26-.5-2.47-1.16-3.55-2.01-.55-.42-1.03-.93-1.47-1.46-.41-.56-.75-1.17-.9-1.82z" fill="#FFBA8F"/><path d="M89.25 14.75c4.78.32 9.54 1.22 14.13 2.81 4.57 1.6 9.02 3.88 12.77 7.2 1.84 1.68 3.52 3.58 4.85 5.71 1.3 2.15 2.33 4.48 2.87 6.92.58 2.43.7 4.93.52 7.37-.21 2.44-.79 4.8-1.57 7.07.13-2.4.3-4.76.09-7.08-.16-2.31-.59-4.58-1.3-6.73-1.44-4.29-4.07-8.06-7.46-11.03-1.65-1.55-3.55-2.83-5.5-4.03-1.93-1.26-4.05-2.21-6.14-3.24-4.24-1.93-8.72-3.44-13.26-4.97z" fill="#BFBFBF"/><path d="M4.75 41.23c-.95.31-1.21-.89-.54-1.37 1-.72 2.49-1.12 3.62-1.6 2.46-1.06 4.94-2.07 7.43-3.05 4.9-1.93 9.85-3.75 14.84-5.46 6.63-2.27 13.36-4.36 20.22-5.8 11.31-2.37 22.91-3.84 34.47-2.6 6.07.65 21.14 2.32 30.09 13.78 4.17 5.33 4.95 12.97 3.62 19.38-.24-5.15-.96-9.74-3.23-14.18-6.6-12.96-28.59-15.51-38.34-15.5-8.88.01-17.77 1.16-26.48 2.88-5.85 1.15-11.68 2.49-17.4 4.17-9.53 2.78-18.87 6.23-28.3 9.35z" fill="#7E7D7D"/><path d="M65.37 104.29c.78-.12 1.03 1.01.28 1.26-8.1 2.62-17.06 3.08-25.38 2.25-8.99-.9-18.22-3.99-25.1-10.02-2.9-2.53-5.63-5.86-7-9.59-.27-.72.7-1.24 1.13-.6 1.79 2.65 4.19 4.94 6.67 6.82 3.88 2.95 8.38 5.09 12.95 6.74 8.3 3 17.09 3.96 25.88 3.92 3.54-.01 7.08-.26 10.57-.78z" fill="#8C8C8C"/><path d="M55.67 114.52c-1.56.59-3.17 1.1-4.8 1.54-1.65.29-3.3.71-4.99.82-1.69.15-3.39.28-5.09.17-.85-.05-1.71-.03-2.55-.17l-2.54-.36c-3.36-.65-6.66-1.74-9.65-3.42-2.97-1.66-5.75-3.82-7.62-6.65 2.74 1.93 5.65 3.35 8.62 4.54 2.99 1.15 6.06 1.98 9.18 2.58 1.58.24 3.14.53 4.75.64.8.06 1.59.21 2.4.21.8.02 1.61.07 2.42.12.81.08 1.62.02 2.43.03l2.46.02c1.64-.02 3.29-.12 4.98-.07z" fill="#BFBFBF"/></svg>