<svg viewBox="0 0 128 128" width="128" height="128" xmlns="http://www.w3.org/2000/svg" xmlns:xlink="http://www.w3.org/1999/xlink"><linearGradient id="a" x1="22.74" x2="40.74" y1="20.481" y2="43.148" gradientUnits="userSpaceOnUse"><stop stop-color="#BABBB6" offset="0"/><stop stop-color="#B7B8B3" offset=".274"/><stop stop-color="#ACADA9" offset=".503"/><stop stop-color="#9B9C98" offset=".715"/><stop stop-color="#838480" offset=".917"/><stop stop-color="#777875" offset=".996"/></linearGradient><path d="M19.52 30.8c-.7-2.84-1.19-6.14.62-8.45 1.24-1.58 3.33-2.31 5.34-2.33s3.97.58 5.87 1.25a82.593 82.593 0 0 1 17.36 8.48c1.54.99 3.15 2.17 3.7 3.91.78 2.49-.89 5.05-2.62 7.02-3.88 4.43-12.86 14.1-19.64 11.81-6.9-2.33-9.16-15.71-10.63-21.69z" fill="url(#a)"/><path d="M25.66 34.56c-.44-1.77-.74-3.82.39-5.26.77-.98 2.07-1.44 3.32-1.45s2.47.36 3.65.78c3.79 1.33 7.42 3.11 10.79 5.28.96.62 1.96 1.35 2.3 2.43.49 1.55-.55 3.15-1.63 4.37-2.41 2.76-7.99 8.78-12.21 7.35-4.29-1.45-5.7-9.78-6.61-13.5z" fill="#3E3A37"/><linearGradient id="b" x1="107.17" x2="87.838" y1="20.272" y2="42.272" gradientUnits="userSpaceOnUse"><stop stop-color="#BABBB6" offset="0"/><stop stop-color="#B7B8B3" offset=".274"/><stop stop-color="#ACADA9" offset=".503"/><stop stop-color="#9B9C98" offset=".715"/><stop stop-color="#838480" offset=".917"/><stop stop-color="#777875" offset=".996"/></linearGradient><path d="M108.48 30.8c.7-2.84 1.19-6.14-.62-8.45-1.24-1.58-3.33-2.31-5.34-2.33s-3.97.58-5.87 1.25a82.593 82.593 0 0 0-17.36 8.48c-1.54.99-3.15 2.17-3.7 3.91-.78 2.49.89 5.05 2.62 7.02 3.88 4.43 12.86 14.1 19.64 11.81 6.9-2.33 9.16-15.71 10.63-21.69z" fill="url(#b)"/><path d="M102.34 34.56c.44-1.77.74-3.82-.39-5.26-.77-.98-2.07-1.44-3.32-1.45s-2.47.36-3.65.78a51.395 51.395 0 0 0-10.79 5.28c-.96.62-1.96 1.35-2.3 2.43-.49 1.55.55 3.15 1.63 4.37 2.41 2.76 7.99 8.78 12.21 7.35 4.29-1.45 5.7-9.78 6.61-13.5z" fill="#3E3A37"/><path d="M25.58 23.02c1.57 0 3.29.56 4.78 1.08 5.87 2.06 11.5 4.81 16.73 8.17.71.46 2.18 1.41 2.46 2.29s-.44 2.35-2.01 4.15c-4.45 5.08-10.71 11.13-15.22 11.13-.44 0-.83-.06-1.21-.19-4.54-1.53-6.97-12.14-8.14-17.24-.2-.85-.38-1.64-.54-2.32-.51-2.05-.96-4.58.07-5.88.56-.71 1.71-1.17 3.01-1.18l.07-.01m0-3h-.1c-2.01.02-4.11.75-5.34 2.33-1.81 2.31-1.32 5.61-.62 8.45 1.47 5.98 3.73 19.36 10.64 21.69.7.24 1.42.35 2.16.35 6.42 0 13.99-8.18 17.48-12.15 1.73-1.97 3.4-4.53 2.62-7.02-.55-1.74-2.15-2.92-3.7-3.91a82.605 82.605 0 0 0-17.36-8.48c-1.87-.66-3.8-1.26-5.78-1.26zM102.42 23.02h.07c1.3.01 2.45.46 3.01 1.18 1.02 1.31.58 3.83.07 5.88-.17.69-.35 1.47-.54 2.32-1.17 5.1-3.6 15.71-8.14 17.24-.37.13-.77.19-1.21.19-4.51 0-10.77-6.05-15.22-11.13-1.57-1.79-2.29-3.26-2.01-4.15.28-.88 1.75-1.83 2.46-2.29a79.775 79.775 0 0 1 16.73-8.17c1.49-.51 3.21-1.07 4.78-1.07m0-3c-1.98 0-3.91.59-5.78 1.25a82.593 82.593 0 0 0-17.36 8.48c-1.54.99-3.15 2.17-3.7 3.91-.78 2.49.89 5.05 2.62 7.02 3.48 3.97 11.06 12.15 17.48 12.15.74 0 1.46-.11 2.16-.35 6.91-2.33 9.16-15.71 10.64-21.69.7-2.84 1.19-6.14-.62-8.45-1.24-1.58-3.33-2.31-5.34-2.33-.03.01-.07.01-.1.01z" fill="#8A8A8A"/><linearGradient id="c" x1="64" x2="64" y1="25.492" y2="111" gradientUnits="userSpaceOnUse"><stop stop-color="#BABBB6" offset="0"/><stop stop-color="#B7B8B3" offset=".274"/><stop stop-color="#ACADA9" offset=".503"/><stop stop-color="#9B9C98" offset=".715"/><stop stop-color="#838480" offset=".917"/><stop stop-color="#777875" offset=".996"/></linearGradient><path d="M64 25.49c-17.54 0-42.67 18.37-59.16 52.57-1.35 2.81-1.06 6.17.75 8.69 3.25 4.54 9.98 11.59 22.86 17.16 21.87 9.45 49.22 9.45 71.09 0 12.88-5.56 19.62-12.62 22.86-17.16a8.61 8.61 0 0 0 .75-8.69C106.67 43.86 81.54 25.49 64 25.49z" fill="url(#c)"/><defs><path id="d" d="M64 25.49c-17.54 0-42.67 18.37-59.16 52.57-1.35 2.81-1.06 6.17.75 8.69 3.25 4.54 9.98 11.59 22.86 17.16 21.87 9.45 49.22 9.45 71.09 0 12.88-5.56 19.62-12.62 22.86-17.16a8.61 8.61 0 0 0 .75-8.69C106.67 43.86 81.54 25.49 64 25.49z"/></defs><clipPath id="e"><use xlink:href="#d"/></clipPath><g clip-path="url(#e)"><linearGradient id="f" x1="64" x2="64" y1="43.123" y2="108.47" gradientUnits="userSpaceOnUse"><stop stop-color="#fff" offset=".319"/><stop stop-color="#FCFCFC" offset=".538"/><stop stop-color="#F1F1F1" offset=".722"/><stop stop-color="#E0E0E0" offset=".892"/><stop stop-color="#D1D1D1" offset=".999"/></linearGradient><path d="M78.51 44.86C69.11 46.25 65.23 57.99 64 71.82c-1.23-13.83-5.11-25.56-14.51-26.96-12.76-1.89-37.37 19.84-32.81 55.75l47.55 18.27 47.09-18.27c4.55-35.91-20.05-57.64-32.81-55.75z" fill="url(#f)"/></g><path d="M31.66 67.19c3.45-4.18 8-7.56 13.19-8.7s11.03.25 14.66 4.27 4.44 10.74 1.24 15.13c-1.18 1.62-2.78 2.84-4.36 4.04-2.97 2.25-5.94 4.51-8.92 6.76-2.87 2.18-5.89 4.42-9.41 5.01-3.24.54-6.68-.47-9.17-2.69-8.26-7.37-2.96-16.89 2.77-23.82zM97.17 67.19c-3.45-4.18-8-7.56-13.19-8.7s-11.03.25-14.66 4.27c-3.62 4.02-4.44 10.74-1.24 15.13 1.18 1.62 2.78 2.84 4.36 4.04 2.97 2.25 5.94 4.51 8.92 6.76 2.87 2.18 5.89 4.42 9.41 5.01 3.24.54 6.68-.47 9.17-2.69 8.26-7.37 2.96-16.89-2.77-23.82z" clip-path="url(#e)" fill="#54504A"/><path d="M66.73 62.68c.46-16.53 15.34-34.33 15.34-34.33L64.15 23.7v-.08l-.15.04-.15-.04v.08l-17.92 4.65s14.89 17.79 15.34 34.33c.46 16.53-3.04 29.92-3.04 29.92h11.54s-3.49-13.39-3.04-29.92z" clip-path="url(#e)" fill="#757575"/><circle cx="50.62" cy="71.65" r="5.34"/><circle cx="78.2" cy="71.65" r="5.34"/><g fill="none" stroke="#404040" stroke-linecap="round" stroke-linejoin="round" stroke-miterlimit="10" stroke-width="2"><path d="M63.93 94.55c.07 4-3.12 7.3-7.12 7.36-1.83.03-3.51-.62-4.8-1.72"/><path d="M63.89 94.55c.07 4 3.36 7.19 7.36 7.12a7.23 7.23 0 0 0 4.74-1.87"/></g><linearGradient id="g" x1="64" x2="64" y1="84.333" y2="95.354" gradientUnits="userSpaceOnUse"><stop stop-color="#4D4D4D" offset=".163"/><stop stop-color="#373737" offset=".367"/><stop stop-color="#0F0F0F" offset=".784"/><stop offset="1"/></linearGradient><path d="M68.26 95.29l2.4-3.77c2.14-3.36-.27-7.76-4.26-7.76h-4.8c-3.98 0-6.39 4.4-4.26 7.76l2.4 3.77c1.99 3.11 6.53 3.11 8.52 0z" fill="url(#g)"/><path d="M64 28.49c8.31 0 18.27 4.53 28.04 12.75 11.05 9.3 20.88 22.48 28.42 38.12.87 1.8.68 4.02-.48 5.64-3.22 4.5-9.59 10.96-21.61 16.15C88 105.63 76.12 108 64 108s-24-2.37-34.36-6.84C17.62 95.97 11.25 89.51 8.03 85.01c-1.16-1.62-1.35-3.84-.48-5.64 7.54-15.64 17.36-28.82 28.42-38.12C45.73 33.02 55.69 28.49 64 28.49m0-3c-17.54 0-42.67 18.37-59.16 52.57-1.35 2.81-1.06 6.17.75 8.69 3.25 4.54 9.98 11.59 22.86 17.16C39.39 108.64 51.7 111 64 111s24.61-2.36 35.55-7.09c12.88-5.56 19.62-12.62 22.86-17.16a8.61 8.61 0 0 0 .75-8.69C106.67 43.86 81.54 25.49 64 25.49z" fill="#8A8A8A"/></svg>