<svg viewBox="0 0 128 128" width="128" height="128" xmlns="http://www.w3.org/2000/svg" xmlns:xlink="http://www.w3.org/1999/xlink"><defs><path id="a" d="M4 4h120v120H4z"/></defs><clipPath id="b"><use xlink:href="#a"/></clipPath><g clip-path="url(#b)"><path fill="#E7E7E7" d="M32.46 114.67l-5.54-61.94 36.79.77v61.93z"/><path d="M28.6 54.29l33.58.7v58.87l-28.31-.69-5.27-58.88m-3.35-3.12l5.81 65 34.17.83V52l-39.98-.83z" fill="#AFAFB0"/><path fill="#E7E7E7" d="M64.3 53.5l36.78-.77-5.54 61.94-31.24.76z"/><path d="M99.4 54.29l-5.27 58.88-28.31.69V54.99l33.58-.7m3.35-3.12zm0 0L62.77 52v65l34.17-.83 5.81-65z" fill="#AFAFB0"/></g><g clip-path="url(#b)"><linearGradient id="c" x1="64" x2="64" y1="97.5" y2="130.5" gradientUnits="userSpaceOnUse"><stop stop-color="#00BFA5" offset="0"/><stop stop-color="#00B29A" offset=".705"/><stop stop-color="#00AB94" offset="1"/></linearGradient><path d="M13.5 130.5v-9.44c0-16.24 25.36-23.53 50.5-23.56h.13c25.03 0 50.37 8.09 50.37 23.56v9.44h-101z" fill="url(#c)"/><path d="M64.13 99c12.9 0 25.42 2.19 34.36 6 6.62 2.83 14.51 7.91 14.51 16.05V129H15v-7.94c0-15.2 24.61-22.03 49-22.06h.13m0-3H64c-25.49.03-52 7.28-52 25.06V132h104v-10.94C116 104.3 89.74 96 64.13 96z" fill="#009984"/></g><linearGradient id="d" x1="63.573" x2="63.573" y1="105.23" y2="140.41" gradientUnits="userSpaceOnUse"><stop stop-color="#00897B" offset="0"/><stop stop-color="#004D40" offset=".921"/></linearGradient><path d="M22.69 104.73l16.64 7.28L45 124h36.83l7.84-13.04 14.78-6.47S91.02 95.45 63.99 96c-30.15.6-41.3 8.73-41.3 8.73z" clip-path="url(#b)" fill="url(#d)"/><g clip-path="url(#b)"><linearGradient id="e" x1="64.151" x2="63.903" y1="106.94" y2="83.47" gradientUnits="userSpaceOnUse"><stop stop-color="#87CEAC" offset=".069"/><stop stop-color="#84CDAB" offset=".306"/><stop stop-color="#7BC8A8" offset=".462"/><stop stop-color="#6CC0A2" offset=".596"/><stop stop-color="#57B69B" offset=".716"/><stop stop-color="#3CA891" offset=".828"/><stop stop-color="#1A9785" offset=".931"/><stop stop-color="#00897B" offset="1"/></linearGradient><path d="M63.99 118.54c-2.34-1.9-10.67-8.64-17.66-13.72-7.07-5.14-9.53-11.53-6.58-17.1 1.59-3.01 4.32-4.53 8.09-4.53 5.57 0 11.47 3.28 11.53 3.31.15.08.32.13.49.13.14 0 .29-.03.42-.09l3.7-1.72 3.7 1.72c.13.06.28.09.42.09.17 0 .34-.04.49-.13.06-.03 5.96-3.31 11.53-3.31 3.78 0 6.5 1.52 8.09 4.53 2.95 5.57.49 11.96-6.58 17.1-6.96 5.08-15.3 11.82-17.64 13.72z" fill="url(#e)"/><path d="M80.14 84.19c3.43 0 5.79 1.31 7.21 4 2.69 5.09.35 11-6.28 15.82-6.48 4.71-14.11 10.84-17.08 13.24-2.97-2.41-10.59-8.53-17.07-13.24-6.63-4.82-8.98-10.74-6.28-15.82 1.43-2.69 3.78-4 7.21-4 5.3 0 10.99 3.15 11.04 3.18.3.17.64.26.98.26.29 0 .58-.06.84-.19L64 85.91l3.28 1.52c.27.12.55.19.84.19.34 0 .68-.09.98-.26.06-.02 5.75-3.17 11.04-3.17m0-2c-5.91 0-12.02 3.44-12.02 3.44L64 83.71l-4.12 1.92s-6.11-3.44-12.02-3.44c-3.5 0-6.94 1.21-8.98 5.06-2.84 5.37-1.38 12.38 6.88 18.38S64 119.83 64 119.83s10-8.2 18.25-14.2 9.72-13.01 6.88-18.38c-2.05-3.85-5.48-5.06-8.99-5.06z" fill="#26A69A"/></g><g clip-path="url(#b)"><path d="M58.77 102.18a8.644 8.644 0 0 1-2.85-6.41v-4.7h16.16v4.7c0 2.44-1.04 4.78-2.85 6.41l-5.23 4.7-5.23-4.7z" fill="#C48E6A"/><path d="M71.08 92.08v3.7c0 2.16-.92 4.22-2.52 5.66l-4.56 4.1-4.56-4.1a7.638 7.638 0 0 1-2.52-5.66v-3.7h14.16m2-2H54.92v5.7c0 2.73 1.16 5.33 3.19 7.15l5.9 5.31 5.9-5.31a9.602 9.602 0 0 0 3.19-7.15v-5.7h-.02z" fill="#B07853"/></g><g clip-path="url(#b)"><path d="M39.5 72.07c-2.66-.6-9.53-2.96-14.11-11.86-2.94-5.71-3.66-15.82-3.83-19.92L39.5 51v21.07z" fill="#C48E6A"/><path d="M22.65 42.11l15.85 9.45v19.19c-3-.95-8.43-3.63-12.22-11.01-2.48-4.8-3.33-12.94-3.63-17.63M20.5 38.5s.12 14.62 4 22.17c6 11.67 16 12.59 16 12.59V50.43l-20-11.93z" fill="#B07853"/><path d="M88.5 51l17.95-10.71c-.18 4.1-.9 14.21-3.83 19.92-4.58 8.9-11.45 11.26-14.11 11.86V51z" fill="#C48E6A"/><path d="M105.35 42.11c-.29 4.69-1.15 12.82-3.63 17.64-3.8 7.38-9.23 10.06-12.22 11.01V51.57l15.85-9.46m2.15-3.61l-20 11.93v22.82s10-.92 16-12.59c3.88-7.54 4-22.16 4-22.16z" fill="#B07853"/></g><g clip-path="url(#b)"><linearGradient id="f" x1="64" x2="64" y1="94.591" y2="12.825" gradientUnits="userSpaceOnUse"><stop stop-color="#CCA47A" offset=".002"/><stop stop-color="#D6B088" offset=".258"/><stop stop-color="#DEB892" offset=".59"/><stop stop-color="#E0BB95" offset="1"/></linearGradient><path d="M64 95.27c-15.66 0-32.52-12.14-32.52-38.81 0-12.38 3.56-23.79 10.02-32.13 6.05-7.8 14.25-12.27 22.5-12.27s16.45 4.47 22.5 12.27c6.46 8.34 10.02 19.75 10.02 32.13 0 12.09-3.51 22.19-10.14 29.21-5.86 6.19-13.81 9.6-22.38 9.6z" fill="url(#f)"/><path d="M64 13.07c7.94 0 15.85 4.33 21.71 11.88 6.33 8.16 9.81 19.35 9.81 31.52 0 11.83-3.41 21.7-9.87 28.52-5.67 5.99-13.36 9.29-21.65 9.29s-15.98-3.3-21.65-9.29c-6.46-6.82-9.87-16.69-9.87-28.52 0-12.16 3.49-23.35 9.81-31.52C48.15 17.4 56.06 13.07 64 13.07m0-2c-17.4 0-33.52 18.61-33.52 45.39 0 26.64 16.61 39.81 33.52 39.81S97.52 83.1 97.52 56.46c0-26.78-16.12-45.39-33.52-45.39z" fill="#BA8F63"/></g><path d="M39.99 50.73s.13-.19.38-.51c.07-.08.12-.16.22-.26.11-.11.23-.22.37-.34s.28-.24.43-.38c.15-.13.31-.23.48-.35.17-.11.34-.24.53-.35.19-.1.4-.21.6-.32.21-.12.43-.21.66-.3s.47-.18.71-.27c.49-.14 1-.29 1.54-.36.53-.1 1.08-.11 1.63-.14.55.03 1.09.03 1.63.14.53.07 1.05.22 1.54.36.24.08.48.17.71.27.23.09.45.18.66.3.21.11.41.22.6.32.19.11.36.24.53.35.17.12.33.22.47.34s.27.24.4.35c.12.11.24.21.34.31s.18.21.26.29c.31.36.46.57.46.57.51.7.35 1.69-.36 2.19-.43.31-.96.37-1.43.21l-.29-.1s-.19-.07-.49-.2c-.08-.03-.15-.07-.25-.11-.1-.03-.19-.07-.3-.11-.21-.08-.44-.17-.7-.25-.13-.04-.26-.09-.4-.13-.14-.03-.28-.07-.43-.11l-.22-.06c-.08-.01-.15-.03-.23-.04-.16-.03-.31-.07-.47-.1-.33-.04-.66-.11-1-.12-.34-.04-.69-.03-1.03-.05-.35.02-.7.01-1.03.05-.34.02-.67.09-1 .12-.16.03-.31.07-.47.1-.08.01-.16.03-.23.04l-.22.06c-.15.04-.29.07-.43.11s-.27.09-.4.13-.25.08-.37.11c-.1.04-.2.07-.29.1l-.27.09c-.1.04-.2.1-.29.14-.36.18-.57.27-.57.27-.83.34-1.77-.05-2.11-.87-.24-.48-.16-1.06.13-1.49z" clip-path="url(#b)" fill="#AB872F"/><ellipse cx="47.56" cy="58.81" rx="4.93" ry="5.1" clip-path="url(#b)" fill="#4A261F"/><path d="M86.05 53.13s-.22-.09-.57-.27c-.09-.04-.19-.1-.29-.14-.09-.02-.18-.06-.27-.09s-.19-.07-.29-.1c-.12-.04-.24-.07-.37-.11s-.26-.09-.4-.13-.28-.07-.43-.11l-.22-.06c-.08-.01-.15-.03-.23-.04-.16-.03-.31-.07-.47-.1-.33-.04-.66-.11-1-.12-.34-.04-.69-.03-1.03-.05-.35.02-.7.01-1.03.05-.34.02-.67.09-1 .12-.16.03-.31.07-.47.1-.08.01-.16.03-.23.04l-.22.06c-.15.04-.29.08-.43.11-.14.04-.27.09-.4.13-.26.07-.49.16-.7.25-.11.04-.2.08-.3.11-.09.04-.17.08-.25.11-.3.13-.49.2-.49.2l-.28.1c-.82.29-1.72-.15-2-.97-.17-.5-.08-1.03.21-1.44 0 0 .16-.22.46-.57.08-.09.16-.19.26-.29s.22-.2.34-.31.26-.23.4-.35.31-.22.47-.34c.17-.12.34-.24.53-.35.19-.1.4-.21.6-.32.21-.12.43-.21.66-.3s.46-.18.71-.27c.49-.14 1-.29 1.54-.36.53-.1 1.08-.11 1.63-.14.55.03 1.09.03 1.63.14.53.06 1.05.22 1.54.36.24.08.48.17.71.27.23.09.45.18.66.3.21.11.41.22.6.32.19.11.36.24.53.35.17.12.32.22.48.35.15.13.3.26.43.38s.26.23.37.34c.09.1.15.18.22.26.25.31.38.51.38.51.5.74.31 1.74-.43 2.25-.49.28-1.07.32-1.56.12z" clip-path="url(#b)" fill="#AB872F"/><ellipse cx="80.44" cy="58.81" rx="4.93" ry="5.1" clip-path="url(#b)" fill="#4A261F"/><path d="M67.86 68.06c-.11-.04-.21-.07-.32-.08h-7.07c-.11.01-.22.04-.32.08-.64.26-.99.92-.69 1.63s1.71 2.69 4.55 2.69 4.25-1.99 4.55-2.69c.29-.71-.06-1.37-.7-1.63z" clip-path="url(#b)" fill="#C48E6A"/><path d="M72.42 76.14c-3.19 1.89-13.63 1.89-16.81 0-1.83-1.09-3.7.58-2.94 2.24.75 1.63 6.45 5.42 11.37 5.42s10.55-3.79 11.3-5.42c.75-1.66-1.09-3.33-2.92-2.24z" clip-path="url(#b)" fill="#5B3026"/><g clip-path="url(#b)"><defs><path id="g" d="M64 4.03h-.04c-45.43.24-36.12 52.14-36.12 52.14s5.1 8.99 5.1 8.81c-.03-1.41.46-6.89.46-6.89l-2.68-2.92s3.89-25.44 6.79-24.91c4.45.81 26.54 2 26.57 2 7.83 0 14.92-.36 19.37-1.17 2.9-.53 9.64 1.7 10.68 4.45 1.33 3.54 3.13 19.71 3.13 19.71l-2.68 2.83s.49 5.51.46 6.89c0 .18 5.1-8.81 5.1-8.81S109.44 4.27 64 4.03z"/></defs></g><g clip-path="url(#b)"><radialGradient id="h" cx="64.26" cy="4.244" r="48.85" gradientUnits="userSpaceOnUse"><stop stop-color="#fff" offset="0"/><stop stop-color="#F8F8F8" offset=".424"/><stop stop-color="#E7E7E7" offset=".995"/></radialGradient><path d="M64.02 4h-.04c-45.43.24-36.13 52.14-36.13 52.14s5.1 8.99 5.1 8.81c-.16-7.25 2.74-20.09 4.8-25.55a6.075 6.075 0 0 1 6.79-3.83c4.45.81 11.55 1.81 19.37 1.81h.16c7.83 0 14.92-1 19.37-1.81 2.9-.53 5.76 1.08 6.79 3.83 2.06 5.47 4.96 18.3 4.8 25.55 0 .18 5.1-8.81 5.1-8.81S109.45 4.24 64.02 4z" fill="url(#h)"/><path d="M64.02 4.03h-.04c-45.43.24-36.13 52.14-36.13 52.14s5 8.81 5.1 8.81c-.03-1.48.07-3.2.26-5.03-.12-.29-2.46-4.75-2.48-4.79-.24-1.6-.93-6.98-.55-13.56.41-7.04 2.17-16.96 8.22-24.22 5.67-6.8 14.27-10.28 25.56-10.35H64c11.32.06 19.93 3.54 25.6 10.35 10.81 12.96 8.18 34.33 7.67 37.79-.02.04-2.46 4.58-2.49 4.65.2 1.89.31 3.65.27 5.17.09 0 5.1-8.81 5.1-8.81s9.3-51.91-36.13-52.15z" fill="#AFAFB0"/></g><g fill="#212121"><path d="M64 48.4z"/><path d="M99.25 38.99c-3.86.17-7.37-1.63-11.07-3.52 3.49-1.12 3.2-1.56 11.24-2.68.39-.05-.71-2.45-.98-2.47-.59-.06-.96-.67-1.58-.64-4.15.21-8.96 1.61-13.64 3.47-3.01-1.15-6.04-1.66-8.87-1.43-5.17.4-10.35 4.14-10.35 4.14s-5.18-3.73-10.35-4.14c-2.83-.23-5.86.29-8.87 1.43-4.68-1.86-9.49-3.27-13.64-3.47-.62-.03-.99.58-1.58.64-.27.03-1.37 2.42-.98 2.47 8.04 1.12 7.75 1.57 11.24 2.68-3.69 1.89-7.21 3.69-11.07 3.52-.4-.02-3.54 1.34-1.23 1.93 4.65 1.17 9.93-.87 13.68-2.78.83-.43 1.67-.85 2.52-1.26 7.06 1.62 20.2 11.45 20.2 11.45l.08.07.09-.07s13.14-9.83 20.2-11.45c.85.41 1.69.83 2.52 1.26 3.74 1.91 9.03 3.96 13.68 2.78 2.3-.59-.84-1.95-1.24-1.93zm-35.09 4.18c-.09.05-.13.08-.16.1-.02-.02-.07-.04-.16-.1-2.61-1.77-8.3-5.21-14.76-8.18 1.49-.3 2.96-.41 4.35-.28 5.89.54 10.57 4.74 10.57 4.74s4.68-4.2 10.57-4.75c1.39-.13 2.86-.02 4.35.28-6.46 2.98-12.15 6.41-14.76 8.19z" opacity=".35"/></g><path d="M100.18 30.63c-.37-1.44-1.23-1.89-1.5-1.92-.59-.06-1.19-.08-1.81-.08-11.36.06-28.07 10.3-32.89 13.6-4.81-3.31-21.53-13.54-32.89-13.6-.62 0-1.23.02-1.81.08-.27.03-1.13.48-1.5 1.92-.34 1.34.1 2.24.49 2.19.5-.06 1.01-.1 1.53-.12 11.11-.4 27.13 9.44 33 13.7l1.17.97 1.22-1C71.1 42.08 87.07 32.3 98.15 32.7c.52.02 1.03.06 1.53.12.39.05.84-.85.5-2.19z" fill="#97B4C2"/><linearGradient id="i" x1="73.35" x2="73.35" y1="47.362" y2="39.921" gradientTransform="matrix(-1 0 0 1 137.35 0)" gradientUnits="userSpaceOnUse"><stop stop-color="#00BFA5" offset="0"/><stop stop-color="#00B29A" offset=".705"/><stop stop-color="#00AB94" offset="1"/></linearGradient><path d="M64 42.24c.03-.01 3.32-2.1 5.86-2.31 1.43-.12 3.89 1 3.89 1L64 47.36l-9.75-6.43s2.46-1.12 3.89-1c2.54.21 5.84 2.29 5.86 2.31z" fill="url(#i)"/><path d="M101.53 39.38c-.16-1.22-.72-1.59-1.03-1.54-.41.06-.81.1-1.21.12-3.86.17-7.39-1.64-11.09-3.53-1.05-.53-2.1-1.07-3.16-1.57-3.58-1.67-7.27-2.45-10.67-2.18-5.17.41-10.35 4.14-10.35 4.14-.01 0-.02-.01-.03-.01s-.02.01-.03.01c0 0-5.18-3.73-10.35-4.14-3.39-.27-7.08.51-10.67 2.18-1.06.5-2.11 1.03-3.16 1.57-3.7 1.89-7.22 3.7-11.09 3.53-.4-.02-.8-.06-1.21-.12-.31-.05-.87.32-1.03 1.54-.15 1.16.48 1.48.75 1.51.36.05.7.07 1.08.08.29.01.59.01.93.01 4.35 0 8.19-1.96 11.94-3.88 1.01-.52 2.03-1.04 3.07-1.52 3.12-1.46 6.3-2.17 9.18-1.91 5.89.54 10.57 4.75 10.57 4.75l.03-.03.03.02s4.68-4.2 10.57-4.75c2.88-.26 6.06.45 9.18 1.91 1.03.48 2.05 1 3.07 1.52 3.75 1.91 7.59 3.88 11.94 3.88.34 0 .64 0 .93-.01.37-.01.72-.03 1.08-.08.26-.03.88-.35.73-1.5z" fill="#97B4C2"/><g fill="#E0F2F1"><path d="M23.12 104.73s6.3 1.81 9.14 2.88c1.41.55 2.82 1.1 4.22 1.69 1.39.59 2.79 1.17 4.17 1.8l.03.01c.21.1.38.27.47.47.93 2.01 5.5 11.33 5.8 12.41h-3.44l-4.21-11.33c-5.8-2.28-14.16-6.22-16.18-7.93z"/><path d="M37.54 113.84c-7.33-4.03-10.6 1.65-10.6 1.65s3.71 1.52 5.86 1.09c3.35-.67 4.74-2.74 4.74-2.74zM45.9 118.26c4.96-5.8 1.62-9.82 1.62-9.82s-2.4 1.14-2.89 3.83c-.63 3.54 1.27 5.99 1.27 5.99zM38.68 108.73c.27-6.69-4.06-7.61-4.06-7.61s-.94 2.39.08 4.54c1.17 2.46 3.98 3.07 3.98 3.07zM104.88 104.73s-6.3 1.81-9.14 2.88c-1.41.55-2.82 1.1-4.22 1.69-1.39.59-2.79 1.17-4.17 1.8l-.03.01c-.21.1-.38.27-.47.47-.93 2.01-5.5 11.33-5.8 12.41h3.44l4.21-11.33c5.8-2.28 14.16-6.22 16.18-7.93z"/><path d="M90.46 113.84c7.33-4.03 10.6 1.65 10.6 1.65s-3.71 1.52-5.86 1.09c-3.35-.67-4.74-2.74-4.74-2.74zM82.1 118.26c-4.96-5.8-1.62-9.82-1.62-9.82s2.27 1.17 2.89 3.83c.82 3.54-1.27 5.99-1.27 5.99zM89.32 108.73c-.27-6.69 4.06-7.61 4.06-7.61s.94 2.39-.08 4.54c-1.17 2.46-3.98 3.07-3.98 3.07z"/></g></svg>