<svg viewBox="0 0 128 128" width="128" height="128" xmlns="http://www.w3.org/2000/svg" xmlns:xlink="http://www.w3.org/1999/xlink"><path d="M53.51 36.52c-.19-.23-.41-.44-.7-.45-.48-.01-1.23-.1-1.82-.48-.17-.11-.32-.27-.43-.45.41-.09 1.01-.34 1.37-1.15.59-1.32-.25-2.49-1.22-3.59-1.59-1.8-3.38-6.22-1.14-10.52.42-.06 6.53.03 8.08.03h6.6v19.56c-7.25.01-8.68-.5-10.74-2.95zM74.99 36.52c.19-.23.41-.44.7-.45.48-.01 1.23-.1 1.82-.48.17-.11.32-.27.43-.45-.41-.09-.98-.35-1.37-1.15-.59-1.22.09-2.34 1.22-3.59 1.27-1.4 3.38-6.22 1.14-10.52-.42-.06-6.53.03-8.08.03h-6.6v19.56c7.25.01 8.68-.5 10.74-2.95z" fill="#D32F2F"/><g fill="#B71C1C"><path d="M78.47 20.61l.09.19c1.99 3.98-.2 7.89-1.17 8.94-1.09 1.17-2.09 2.57-1.31 4.15.2.41.46.74.78.98-.43.16-.91.2-1.19.21-.57.01-.94.44-1.1.62-1.25 1.44-2.19 2.15-4.8 2.47 0 0-1.35.72-2.29.97v.35c4.57-.17 6.04-.85 7.91-3.02.14-.17.24-.24.3-.24.58-.01 1.41-.12 2.09-.55.24-.15.46-.37.61-.62l.43-.71-.79-.16c-.44-.09-.76-.36-.99-.82-.38-.77-.07-1.54 1.12-2.83 1.49-1.6 3.4-5.71 1.46-9.91v-.02h-1.15zM50.31 30.53c1 1.09 1.53 1.95 1.12 2.85-.2.45-.52.71-.98.8l-.79.16.43.71c.16.26.37.47.61.62.68.43 1.51.53 2.09.55.07 0 .16.08.31.24 1.86 2.15 3.33 2.84 7.85 3.01v-.36c-.79-.23-2.23-.95-2.23-.95-2.61-.31-3.55-1.02-4.8-2.47-.16-.18-.53-.61-1.1-.62-.28-.01-.75-.04-1.18-.2.33-.25.59-.58.78-1 .82-1.79-.57-3.31-1.32-4.13-1.41-1.55-2.94-5.19-1.4-8.85l.11-.25-.02-.04h-1.22c.01.02.02.04.02.07-1.58 4.09.14 8.12 1.72 9.86z"/></g><linearGradient id="a" x1="179.62" x2="207.89" y1="-53.292" y2="-67.974" gradientTransform="scale(-1 1) rotate(-12.075 697.107 1351.551)" gradientUnits="userSpaceOnUse"><stop stop-color="#80FFEE" offset="0"/><stop stop-color="#85FCED" offset=".156"/><stop stop-color="#93F1E8" offset=".34"/><stop stop-color="#ABE1E1" offset=".539"/><stop stop-color="#CCC9D8" offset=".748"/><stop stop-color="#F7ACCB" offset=".962"/><stop stop-color="#FFA6C9" offset="1"/></linearGradient><path d="M96.81 87c-11.83 0-30.23-14.57-32.94-22.34-.85-2.44.16-3.24.49-3.51 1.4-1.11 3.83-1.7 7.03-1.7 5.66 0 13.29 1.87 19.93 4.89 7.22 3.28 12.32 7.45 13.99 11.43 1.3 3.1.56 6.1-2.2 8.91-1.5 1.55-3.62 2.32-6.3 2.32z" fill="url(#a)"/><path d="M71.39 60.17c11.61 0 29.83 7.7 33.26 15.89 1.2 2.85.52 5.51-2.05 8.13-1.36 1.39-3.31 2.09-5.79 2.09-11.34 0-29.68-14.45-32.26-21.85-.68-1.96.03-2.52.26-2.71 1.28-1.01 3.55-1.55 6.58-1.55m0-1.43c-3.21 0-5.86.58-7.47 1.86-6.61 5.25 18.29 27.12 32.89 27.12 2.72 0 5.08-.76 6.81-2.52 12.49-12.71-16.56-26.46-32.23-26.46z" fill="#55BFD9"/><g fill="none" stroke="#87CDDE" stroke-linecap="round" stroke-linejoin="round" stroke-miterlimit="10" stroke-width=".956"><path d="M103.21 82.83c-8.97-10.2-18.44-16.9-30.71-22.73-.28-.13-.6-.33-.58-.64.01-.31.64-.29.51-.01M96.32 86.14c-3.77-1.3-4.84-2.69-7.9-5.25a236.927 236.927 0 0 1-22.76-21.71l.49.34M96.1 85.69c-1-4.95-2.88-9.73-5.51-14.04"/></g><linearGradient id="b" x1="193.42" x2="236.03" y1="-122.28" y2="-82.166" gradientTransform="scale(-1 1) rotate(-14.277 661.84 1183.17)" gradientUnits="userSpaceOnUse"><stop stop-color="#80FFEE" offset="0"/><stop stop-color="#85FCED" offset=".156"/><stop stop-color="#93F1E8" offset=".34"/><stop stop-color="#ABE1E1" offset=".539"/><stop stop-color="#CCC9D8" offset=".748"/><stop stop-color="#F7ACCB" offset=".962"/><stop stop-color="#FFA6C9" offset="1"/></linearGradient><path d="M68.88 64.48c-4.84 0-7.75-1.07-8.19-3.02-.66-2.9.84-6.77 4.36-11.17C73.5 39.67 92.7 27.8 105.72 27.8c6.28 0 10.36 2.67 12.13 7.95.99 2.95.36 6.02-1.88 9.13-8.04 11.18-34.11 19.6-47.09 19.6z" fill="url(#b)"/><path d="M105.73 27.08v1.43c5.94 0 9.79 2.51 11.45 7.46.91 2.72.31 5.57-1.78 8.49-7.92 11.01-33.68 19.3-46.52 19.3-4.34 0-7.14-.92-7.5-2.46-.6-2.64.89-6.4 4.22-10.56 8.36-10.49 27.3-22.22 40.13-22.22v-1.44m-.01 0c-18.43 0-48.43 22.77-45.74 34.54.57 2.48 3.97 3.57 8.89 3.57 17.68 0 54.86-14.19 49.66-29.68-2.01-6.01-6.79-8.43-12.81-8.43z" fill="#55BFD9"/><g fill="none" stroke="#87CDDE" stroke-linecap="round" stroke-linejoin="round" stroke-miterlimit="10" stroke-width=".956"><path d="M113.6 31c-18.27 6.95-35.83 18.02-49.45 31.7M116.92 36.91c-15.38 12.46-32.65 21.47-51.93 26.91M98.24 29.81c-4.23 2.82-6.92 8.2-8.67 12.91M113.75 31.67c-4.72 3.95-8.3 9.17-10.26 14.94M91.42 53.37c-5.97 1.22-10.37 1.32-15.62-.61"/></g><linearGradient id="c" x1="1663.1" x2="1691.4" y1="264.08" y2="249.39" gradientTransform="rotate(-12.075 2.586 7918.056)" gradientUnits="userSpaceOnUse"><stop stop-color="#80FFEE" offset="0"/><stop stop-color="#85FCED" offset=".156"/><stop stop-color="#93F1E8" offset=".34"/><stop stop-color="#ABE1E1" offset=".539"/><stop stop-color="#CCC9D8" offset=".748"/><stop stop-color="#F7ACCB" offset=".962"/><stop stop-color="#FFA6C9" offset="1"/></linearGradient><path d="M31.19 87c-2.68 0-4.8-.78-6.3-2.31-2.76-2.81-3.5-5.81-2.2-8.91 1.67-3.99 6.77-8.15 13.99-11.43 6.64-3.02 14.28-4.89 19.93-4.89 3.19 0 5.62.59 7.03 1.7.33.26 1.35 1.07.49 3.51C61.42 72.43 43.01 87 31.19 87z" fill="url(#c)"/><path d="M56.61 60.17c3.03 0 5.3.54 6.58 1.55.23.19.95.75.26 2.71-2.58 7.41-20.92 21.85-32.26 21.85-2.48 0-4.42-.7-5.79-2.09-2.58-2.62-3.25-5.28-2.05-8.13 3.43-8.18 21.64-15.89 33.26-15.89m0-1.43c-15.67 0-44.71 13.75-32.23 26.46 1.73 1.76 4.09 2.52 6.81 2.52 14.6 0 39.51-21.87 32.89-27.12-1.61-1.28-4.26-1.86-7.47-1.86z" fill="#55BFD9"/><g fill="none" stroke="#87CDDE" stroke-linecap="round" stroke-linejoin="round" stroke-miterlimit="10" stroke-width=".956"><path d="M24.79 82.83c8.97-10.2 18.44-16.9 30.71-22.73.28-.13.6-.33.58-.64s-.64-.29-.51-.01M31.68 86.14c3.77-1.3 4.84-2.69 7.9-5.25 8.06-6.72 15.66-13.98 22.76-21.71l-.49.34M31.9 85.69c1-4.95 2.88-9.73 5.51-14.04"/></g><linearGradient id="d" x1="1663.8" x2="1706.4" y1="250.2" y2="290.31" gradientTransform="rotate(-14.655 -8.963 6557.345)" gradientUnits="userSpaceOnUse"><stop stop-color="#80FFEE" offset="0"/><stop stop-color="#85FCED" offset=".156"/><stop stop-color="#93F1E8" offset=".34"/><stop stop-color="#ABE1E1" offset=".539"/><stop stop-color="#CCC9D8" offset=".748"/><stop stop-color="#F7ACCB" offset=".962"/><stop stop-color="#FFA6C9" offset="1"/></linearGradient><path d="M58.83 62.7c-6.89 0-16.76-2.15-25.75-5.6-10.13-3.89-17.7-8.77-21.29-13.73-2.23-3.08-2.87-6.13-1.91-9.07 1.75-5.33 5.86-8.03 12.23-8.03 13.08 0 32.31 11.78 40.77 22.32 3.49 4.34 4.99 8.16 4.36 11.05-.46 1.97-3.44 3.06-8.41 3.06z" fill="url(#d)"/><path d="M22.1 26.98c12.88 0 31.85 11.64 40.21 22.05 3.3 4.11 4.8 7.82 4.21 10.44-.35 1.57-3.22 2.51-7.69 2.51-12.85 0-38.6-8.17-46.46-19.04-2.09-2.88-2.7-5.72-1.81-8.43 1.64-4.99 5.52-7.53 11.54-7.53m0-1.43c-6.08 0-10.91 2.44-12.91 8.52-5.07 15.46 31.87 29.35 49.64 29.35 5.04 0 8.54-1.12 9.09-3.63 2.6-11.76-27.37-34.24-45.82-34.24z" fill="#55BFD9"/><g fill="none" stroke="#87CDDE" stroke-linecap="round" stroke-linejoin="round" stroke-miterlimit="10" stroke-width=".956"><path d="M14.1 29.52c18.31 6.83 35.95 17.78 49.66 31.37M10.82 35.45c15.46 12.36 32.79 21.26 52.11 26.56M29.45 28.23c4.25 2.79 6.98 8.16 8.76 12.85M13.96 30.2c4.74 3.92 8.36 9.11 10.36 14.87M36.42 51.74c5.97 1.18 10.37 1.25 15.62-.72"/></g><linearGradient id="e" x1="46.617" x2="57.724" y1="95.729" y2="95.729" gradientTransform="rotate(5.463 50.985 97.928)" gradientUnits="userSpaceOnUse"><stop stop-color="#FFB504" offset="0"/><stop stop-color="#FFB300" offset=".102"/><stop stop-color="#FFCA28" offset=".47"/></linearGradient><path d="M50.58 88.82c-1.64.3-3.18 1.64-3.43 3.29-.12.82.12 1.64.36 2.43.65 2.11 1.33 4.2 2.04 6.28.39 1.14.96 2.43 2.13 2.71.78.19 1.61-.17 2.18-.74.57-.56.92-1.31 1.23-2.05 1.43-3.44 3.13-4.92 3.18-8.65.07-4.74-4.17-3.9-7.69-3.27z" fill="url(#e)" stroke="#EDA600" stroke-linecap="round" stroke-linejoin="round" stroke-miterlimit="10"/><linearGradient id="f" x1="68.826" x2="67.637" y1="65.986" y2="93.825" gradientUnits="userSpaceOnUse"><stop stop-color="#FFB504" offset="0"/><stop stop-color="#FFCA28" offset=".47"/></linearGradient><path d="M59.43 96.84c-3.04 0-4.78-1.71-5.12-3.29-.27-1.26.3-2.34 1.53-2.89l12.96-4.4c.2-.07.34-.26.34-.48 0-.42-2.18-6.29-4.05-11.24l7.65-13.57c2.09 4.59 6.8 18.37 8.39 25.73.64 2.98-.54 6.46-4.62 7.52-4.78 1.24-9.37 1.86-16.18 2.57-.3.04-.61.05-.9.05z" fill="url(#f)"/><path d="M72.69 62.09c2.21 5.25 6.5 17.97 7.96 24.72.44 2.05.04 5.81-4.25 6.93-4.75 1.23-9.32 1.85-16.1 2.56-.29.03-.58.05-.86.05-2.76 0-4.33-1.5-4.63-2.89-.22-1.02.22-1.86 1.21-2.31l12.95-4.4c.41-.14.68-.53.68-.96 0-.21-.01-.59-4-11.2l7.04-12.5m.09-2.2L64.54 74.5s4.09 10.86 4.1 11.29l-13 4.42c-3.64 1.62-1.84 7.13 3.79 7.13.31 0 .63-.02.96-.05 6.38-.67 11.23-1.28 16.25-2.58 4.5-1.17 5.63-5.09 4.98-8.11-1.73-8.01-7.1-23.4-8.84-26.71z" fill="#EDA600"/><linearGradient id="g" x1="59.552" x2="48.741" y1="68.583" y2="120.01" gradientUnits="userSpaceOnUse"><stop stop-color="#FFCA28" offset=".53"/><stop stop-color="#FFB504" offset="1"/></linearGradient><path d="M45.8 123.56c-.26 0-.49-.05-.69-.16-.83-.44-1.03-1.64-1.11-2.75-.17-2.18-.3-4.39-.4-6.58-.04-.88-.05-1.6.22-2.23.6-1.41 2.38-1.84 3.38-1.97.21-.03.38-.19.43-.4l3.22-15.87 1.48-24.32 10.56-8.47c.89 4.44 1.76 9.12 2.06 13.52-.08.32-.16.85-.3 1.76-.54 3.56-1.79 11.9-4.15 20.1-2.21 7.7-8.37 19.14-8.43 19.26-.03.06-2.18 4.37-3.61 6.25-.42.55-.92 1.17-1.56 1.54-.34.21-.73.32-1.1.32z" fill="url(#g)"/><path d="M62.56 61.72c.82 4.16 1.61 8.51 1.89 12.61-.09.39-.18.93-.29 1.69-.54 3.55-1.79 11.87-4.14 20.04-2.2 7.65-8.33 19.05-8.4 19.19-.02.04-2.15 4.31-3.55 6.16-.39.51-.85 1.09-1.41 1.41-.27.16-.59.25-.86.25-.17 0-.33-.03-.46-.1-.62-.33-.78-1.43-.85-2.35-.17-2.18-.3-4.39-.4-6.57-.04-.81-.05-1.48.18-2.01.52-1.23 2.26-1.58 2.99-1.67a1 1 0 0 0 .85-.79l3.22-15.87c.01-.05.02-.09.02-.14l1.46-24.03 9.75-7.82m.35-1.56l-11.06 8.87-1.49 24.47-3.22 15.87c-1.56.2-3.18.85-3.78 2.27-.32.76-.3 1.62-.26 2.45.1 2.2.23 4.4.4 6.6.09 1.2.32 2.59 1.38 3.16.29.15.6.22.93.22.47 0 .96-.15 1.37-.39.69-.4 1.22-1.04 1.7-1.67 1.47-1.94 3.65-6.32 3.65-6.32s6.21-11.51 8.47-19.36c3.12-10.86 4.32-21.95 4.47-21.95-.3-4.5-1.21-9.32-2.14-13.95l-.42-.27z" fill="#EDA600"/><linearGradient id="h" x1="84.241" x2="84.241" y1="24.833" y2="109.57" gradientTransform="scale(-1 1) rotate(86.744 18.944 -8.713)" gradientUnits="userSpaceOnUse"><stop stop-color="#FFCA28" offset=".264"/><stop stop-color="#FFB300" offset="1"/></linearGradient><path d="M31.32 74.76c-.39 0-.79-.05-1.2-.15-1.99-.48-3.65-1.11-4.99-1.62-.56-.21-1.07-.41-1.51-.56-.48-.16-.71-.68-.65-1.06.08-.52.64-.59.97-.59.28 0 .61.05.98.16.34.1.61.15.84.15.64 0 .79-.41.83-.54.23-.92-1.49-1.86-1.69-1.96-.32-.17-.72-.25-1.21-.25-.75 0-1.61.19-2.45.37-.72.15-1.39.3-1.88.3-.33 0-.42-.07-.44-.08-.26-.24-.3-.51-.29-.65 0-.17.06-.29.11-.33.98-.87 3.35-1.77 5.63-1.77.12 0 .23 0 .35.01.85.04 2.03.68 3.18 1.31 1.35.74 2.75 1.5 3.96 1.5.22 0 .44-.03.64-.08.21-.06.21-.06 7.89-13.71l5.65-10.03 9.86 4.19c-6.5 7.68-18.27 21.55-19 22.23-1.86 1.69-3.44 3.16-5.58 3.16z" fill="url(#h)"/><path d="M46.24 45.78l8.85 3.76c-7.37 8.71-17.83 21.01-18.55 21.69-1.76 1.63-3.27 3.03-5.22 3.03-.35 0-.71-.04-1.08-.13-1.96-.47-3.61-1.1-4.93-1.6-.57-.22-1.07-.41-1.52-.56-.24-.08-.35-.36-.32-.52s.31-.18.48-.18c.24 0 .52.05.84.14.39.11.7.17.98.17.79 0 1.19-.47 1.3-.91.3-1.22-1.4-2.23-1.94-2.51-.39-.21-.86-.31-1.44-.31-.8 0-1.69.19-2.55.38-.66.14-1.34.29-1.77.29-.07 0-.12 0-.16-.01-.09-.11-.09-.2-.09-.25.93-.78 3.16-1.59 5.24-1.59.11 0 .22 0 .33.01.74.03 1.87.65 2.97 1.25 1.41.77 2.86 1.56 4.19 1.56.27 0 .52-.03.76-.09.4-.1.4-.1 1.29-1.67l1.76-3.12 5.15-9.15 5.43-9.68M45.82 44.54l-5.86 10.41c-3.62 6.43-7.59 13.47-7.59 13.47-.16.04-.33.06-.51.06-2.09 0-5.13-2.72-7.12-2.8-.12-.01-.25-.01-.37-.01-2.33 0-4.86.92-5.95 1.89-.35.31-.43 1.13.18 1.7.17.16.43.22.77.22 1.12 0 2.99-.67 4.32-.67.38 0 .72.05.98.19 1.22.64 1.92 1.58 1.09 1.58-.17 0-.4-.04-.7-.13-.43-.13-.8-.18-1.12-.18-1.98 0-1.76 2.18-.47 2.61 1.5.5 3.69 1.51 6.54 2.19.46.11.89.16 1.31.16 2.34 0 4.06-1.6 5.9-3.3.97-.9 19.47-22.77 19.47-22.77l-10.87-4.62z" fill="#EDA600"/><linearGradient id="i" x1="73.105" x2="73.105" y1="42.306" y2="84.536" gradientTransform="translate(16.744)" gradientUnits="userSpaceOnUse"><stop stop-color="#FFCA28" offset=".264"/><stop stop-color="#FFB300" offset="1"/></linearGradient><path d="M88.67 64.46c-1.26 0-2.52-.66-3.21-1.69L75.18 50.75l8.3-4.29 5.63 9.37a.49.49 0 0 0 .67.17l5.04-3.03c.3-.18.87-.55 1.57-1 1.68-1.09 4.22-2.73 5.07-3.06a2.297 2.297 0 0 1 .84-.17c.54 0 1.07.2 1.46.55.08.08.16.15.23.23 1.36 1.49-.09 3.09-1.98 4.87l-.36.34c-.94.91-7.49 6.41-10.52 8.8-.2.15-.42.29-.68.4-.04.02-.07.04-.1.06-.1.08-.17.13-.18.13-.42.22-.94.34-1.5.34z" fill="url(#i)"/><path d="M83.3 47.1l5.39 8.98c.18.31.51.47.84.47.17 0 .34-.04.5-.14l5.04-3.03c.31-.18.88-.56 1.58-1.01 1.56-1.01 4.18-2.71 4.98-3.02.12-.05.22-.08.31-.1.11-.02.23-.04.34-.04.42 0 .83.16 1.13.43.07.06.14.13.2.19.97 1.06.1 2.24-1.96 4.19l-.36.34c-.94.9-7.46 6.38-10.47 8.76-.17.13-.37.25-.58.35-.07.03-.14.07-.2.12-.05.04-.08.06-.11.08-.38.19-.81.29-1.27.29-1.1 0-2.21-.58-2.81-1.47a.55.55 0 0 0-.07-.09l-9.83-11.5 7.35-3.8m.37-1.28l-9.25 4.78 10.65 12.45c.8 1.19 2.22 1.91 3.62 1.91.61 0 1.22-.14 1.77-.43 0 0 .08-.05.21-.15.27-.12.54-.28.78-.46 3.08-2.44 9.6-7.91 10.56-8.83 1.52-1.46 4.3-3.78 2.36-5.89-.08-.09-.17-.17-.26-.26a2.698 2.698 0 0 0-2.81-.48c-1.25.48-5.64 3.46-6.71 4.1l-5.04 3.03-5.88-9.77z" fill="#EDA600"/><linearGradient id="j" x1="68.366" x2="68.366" y1="72.642" y2="29.198" gradientTransform="matrix(1 -.00862 .00862 1 -4.708 7.213)" gradientUnits="userSpaceOnUse"><stop stop-color="#FFAB00" offset="0"/><stop stop-color="#FF8D00" offset=".172"/><stop stop-color="#FF6A00" offset=".408"/><stop stop-color="#FF5100" offset=".631"/><stop stop-color="#FF4200" offset=".835"/><stop stop-color="#FF3D00" offset="1"/></linearGradient><path d="M83.93 46.4s-2.94-7.47-20.29-7.32c-17.34.15-19.58 7.66-19.58 7.66l7.64 6.98.14 15.76 10.49 6.46c.79.39 2.09.6 2.97.6.91-.01 2.14-.61 2.94-1.05l8.22-6.23-.14-15.76 7.61-7.1z" fill="url(#j)"/><path d="M63.65 40.08c13.6 0 17.92 4.52 19.02 6.12l-7.09 6.63c-.21.19-.32.47-.32.75l.32 15.39-7.9 5.72c-.76.54-1.75.84-2.79.84-.75 0-1.47-.16-2.04-.45l-10.11-6.17V53.7c0-.28-.12-.55-.32-.74l-7.13-6.56c.89-1.59 4.7-6.32 18.36-6.32m0-1c-17.52 0-19.57 7.57-19.57 7.57l7.66 7.04v15.77l10.62 6.48c.72.38 1.61.58 2.53.58 1.17 0 2.39-.33 3.38-1.03l8.33-6.03-.33-15.91 7.67-7.17c-.01.01-2.78-7.3-20.29-7.3z" fill="#D84315"/><defs><path id="k" d="M83.68 46.44s-4.26-6.42-19.94-6.43c-17.35 0-17.88 6.75-17.88 6.75l6.55 6.93 24.78-.21 6.49-7.04z"/></defs><clipPath id="l"><use xlink:href="#k"/></clipPath><g clip-path="url(#l)"><linearGradient id="m" x1="69.118" x2="69.118" y1="31.049" y2="44.4" gradientTransform="matrix(1 -.00862 .00862 1 -4.708 7.213)" gradientUnits="userSpaceOnUse"><stop stop-color="#FFCA28" offset=".44"/><stop stop-color="#E49800" offset="1"/></linearGradient><path d="M64.62 47.87c-6.92 0-10.64-4.3-10.67-7.41-.01-1.51 1.05-2.96 3-4.08 2.04-1.17 4.77-1.84 7.69-1.86h.17c5.83 0 10.59 2.58 10.62 5.76.01 1.67-1.01 3.52-2.73 4.95-2.03 1.68-4.85 2.62-7.94 2.64h-.14z" fill="url(#m)"/><path d="M64.82 35.02c5.46 0 10.1 2.41 10.12 5.26.01 1.52-.94 3.23-2.55 4.56-1.94 1.6-4.65 2.5-7.63 2.53h-.14c-6.51 0-10.14-4.09-10.17-6.91-.01-1.32.97-2.61 2.75-3.64 1.97-1.13 4.61-1.77 7.44-1.79l.18-.01m0-1h-.18c-6.21.05-11.22 2.94-11.19 6.45.03 3.48 4.16 7.91 11.17 7.91h.14c7.09-.06 11.2-4.59 11.17-8.1-.02-3.48-4.98-6.26-11.11-6.26z" fill="#EDA600"/></g><path d="M63.6 43.71c-1.9 0-3.45-1.47-3.45-3.28v-4.11h7.69v4.11c0 1.81-1.55 3.28-3.45 3.28h-.79z" fill="#E49800"/><path d="M67.34 36.82v3.61c0 1.53-1.32 2.78-2.95 2.78h-.79c-1.63 0-2.95-1.25-2.95-2.78v-3.61h6.69m1-1h-8.68v4.61c0 2.09 1.77 3.78 3.95 3.78h.79c2.18 0 3.95-1.69 3.95-3.78v-4.61h-.01z" fill="#C78500"/><path d="M110.46 21.27l-.09-.03-9.15 40.97a.482.482 0 1 0 .94.22v-.01l8.3-41.15z" fill="#6D4C41" stroke="#6D4C41" stroke-miterlimit="10"/><path d="M110.08 23.75c-.09-.07-.2-.1-.3-.1-.05 0-.1.01-.16.02l-3.08 1 1.08-3.05a.5.5 0 0 0-.07-.46l-1.91-2.62 3.25.08c.16 0 .31-.08.41-.21l1.9-2.62.92 3.1c.05.16.17.28.33.33l3.08 1-2.66 1.84c-.13.09-.22.25-.22.41v3.24l-2.57-1.96z" fill="#FFD600"/><path d="M111.01 16.91l.64 2.13c.09.32.34.56.65.67l2.12.68-1.83 1.26c-.27.19-.43.5-.43.82v2.22l-1.77-1.35a.981.981 0 0 0-.92-.16l-2.11.69.74-2.1c.11-.31.06-.65-.13-.92l-1.31-1.8 2.22.05h.02a1 1 0 0 0 .81-.41l1.3-1.78m.38-2.22l-2.49 3.44-4.25-.1 2.5 3.44-1.41 4.01 4.04-1.32 3.38 2.58v-4.25l3.5-2.41-4.04-1.31-1.23-4.08z" fill="#E6A900"/><path d="M103.61 53.84c-1.88 0-3.38-1.09-4.03-2.9-.68-1.92-.15-3.29.42-4.09.93-1.33 2.54-2.02 3.65-2.02.4 0 .73.09.93.26.94.79 3.65 6.49 3.41 7.52l-2.55.91c-.62.21-1.23.32-1.83.32z" fill="#FFCA28"/><path d="M103.65 45.33c.32 0 .52.07.6.14.96.85 2.99 5.42 3.22 6.8l-2.2.79c-.55.2-1.11.3-1.65.3-1.68 0-2.98-.94-3.56-2.57-.49-1.38-.37-2.6.36-3.64.82-1.2 2.25-1.82 3.23-1.82m0-1c-2.31 0-6.06 2.51-4.54 6.78.77 2.16 2.54 3.24 4.5 3.24.65 0 1.32-.12 1.98-.35l2.64-.94c1.19-.42-2.32-7.48-3.34-8.34-.29-.27-.73-.4-1.24-.39z" fill="#EDA600"/><radialGradient id="n" cx="1147.8" cy="-222.47" r="3.877" gradientTransform="matrix(-1.0122 .2784 .1016 .3682 1293.5 -186.29)" gradientUnits="userSpaceOnUse"><stop stop-color="#FFCA28" offset=".599"/><stop stop-color="#FFB300" offset="1"/></radialGradient><path d="M105.18 52.35c.18.65.84 1.03 1.49.85l1.65-.45c.65-.18 1.03-.84.85-1.49-.18-.65-.84-1.03-1.49-.85l-1.65.45c-.65.18-1.03.85-.85 1.49z" fill="url(#n)" stroke="#EDA600" stroke-linecap="round" stroke-linejoin="round" stroke-miterlimit="10"/><radialGradient id="o" cx="1093.9" cy="-244.71" r="3.642" gradientTransform="matrix(-.8648 .3887 .1274 .2771 1084.4 -312.51)" gradientUnits="userSpaceOnUse"><stop stop-color="#FFCA28" offset=".599"/><stop stop-color="#FFB300" offset="1"/></radialGradient><path d="M103.49 46.22l.08.2c.23.55.84.82 1.36.61l2.54-1.06c.52-.22.75-.84.52-1.39l-.08-.2c-.23-.55-.84-.82-1.36-.61l-2.54 1.06c-.56.51-.76.9-.52 1.39z" fill="url(#o)" stroke="#EDA600" stroke-linecap="round" stroke-linejoin="round" stroke-miterlimit="10"/><radialGradient id="p" cx="1112.6" cy="-228.23" r="3.089" gradientTransform="matrix(-1.0088 .2913 .1084 .3832 1255.4 -187.13)" gradientUnits="userSpaceOnUse"><stop stop-color="#FFCA28" offset=".599"/><stop stop-color="#FFB300" offset="1"/></radialGradient><path d="M104.83 50.45c.2.67.91 1.05 1.58.85l2.23-.67c.67-.2 1.05-.91.85-1.58a1.27 1.27 0 0 0-1.58-.85l-2.23.67c-.67.2-1.05.91-.85 1.58z" fill="url(#p)" stroke="#EDA600" stroke-linecap="round" stroke-linejoin="round" stroke-miterlimit="10"/><path d="M104.55 50.74c.22-.05.38-.12.56-.26l-.78 3.89-1.85.06.93-4.17c.3.27.66.59 1.14.48z" fill="#6D4C41"/><radialGradient id="q" cx="1089" cy="-189.9" r="4.084" fx="1089.9" fy="-193.9" gradientTransform="matrix(-.9918 .3483 .1106 .3176 1209.4 -272.05)" gradientUnits="userSpaceOnUse"><stop stop-color="#FFCA28" offset=".599"/><stop stop-color="#FFB300" offset="1"/></radialGradient><path d="M104.01 48.47c.23.64.94.98 1.58.75l2.66-.95c.64-.23.98-.94.75-1.58a1.24 1.24 0 0 0-1.58-.75l-2.66.95c-.64.23-.98.93-.75 1.58z" fill="url(#q)" stroke="#EDA600" stroke-linecap="round" stroke-linejoin="round" stroke-miterlimit="10"/><path d="M101.02 46.39c.37-.64 1.4-1.22 2.24-1.09.83.12 1 .7 1.16.86.06.06.89 2.47 1.06 2.76.39.7-.27 1.22-.79 1.29-.51.07-1.08-.26-1.29-.73-.74-1.66-1.44-1.4-1.99-1.37-.35.02-.63-.13-.85-.33.18-.25.35-1.2.46-1.39z" fill="#FFCA28"/><path d="M101.37 47.56l.14-.01c.75-.08 1.62-.01 2.39 1.71.11.25.45.44.71.41.16-.02.34-.14.4-.25.02-.03.52-.29-.07-1.52-.22-.47-1.32-2.55-1.25-2.59.02-.17.44-.42.98.64.06.12.1.1.66 1.35.27.59.54 1.22.62 1.36.23.41.25.86.05 1.25-.22.43-.65.7-1.04.81-.07.02-.15.04-.22.05-.75.1-1.5-.15-1.87-1.05-.48-1.15-.84-1.1-1.26-1.06l-.19.02c-.55.04-.97-.2-1.28-.49.11-.05 1.01-.61 1.23-.63z" fill="#EDA600"/><path d="M54.03 29.56c-1.91-.04-3.43-1.74-3.39-3.8.04-2.01 1.6-3.65 3.47-3.65l20.29.42c1.91.04 3.43 1.74 3.39 3.8-.04 2.01-1.6 3.65-3.47 3.65l-20.29-.42z" fill="#E59600"/><path d="M54.11 22.61h.06l2.73.06 14.77.31 2.73.06c.78.02 1.5.36 2.05.97.56.63.86 1.45.85 2.32-.04 1.74-1.37 3.16-2.97 3.16h-.06l-2.73-.06-14.77-.31-2.73-.06c-.78-.02-1.5-.36-2.05-.97a3.41 3.41 0 0 1-.85-2.32c.04-1.74 1.37-3.16 2.97-3.16m0-1c-2.15 0-3.93 1.85-3.97 4.14-.05 2.32 1.7 4.26 3.88 4.31l2.73.06 14.77.31 2.73.06h.08c2.15 0 3.93-1.85 3.97-4.14.05-2.32-1.7-4.26-3.88-4.31l-2.73-.06-14.77-.31-2.73-.06h-.08z" fill="#D18100"/><linearGradient id="r" x1="45.436" x2="45.436" y1="53.489" y2="23.479" gradientTransform="rotate(1.146 793.235 933.031)" gradientUnits="userSpaceOnUse"><stop stop-color="#FFB300" offset="0"/><stop stop-color="#FFB809" offset=".102"/><stop stop-color="#FFC21A" offset=".371"/><stop stop-color="#FFC825" offset=".659"/><stop stop-color="#FFCA28" offset="1"/></linearGradient><path d="M63.96 38.29c-3.14-.07-6.02-1.37-8.11-3.68-2.38-2.62-3.59-6.36-3.49-10.8.21-10.05 6.3-16.05 12.07-16.05h.18c7.35.15 11.73 8.71 11.56 16.55-.2 9.66-6.15 13.98-11.96 13.98h-.25z" fill="url(#r)"/><path d="M64.42 8.25h.17c2.86.06 5.68 1.69 7.74 4.46 2.24 3.02 3.43 7.14 3.34 11.58-.2 9.32-5.9 13.5-11.46 13.5h-.23c-3-.06-5.75-1.31-7.75-3.52-2.29-2.53-3.45-6.14-3.36-10.45.19-9.75 6.02-15.57 11.55-15.57m0-1c-6.37 0-12.36 6.73-12.57 16.54-.21 9.86 5.84 14.86 12.1 14.99h.25c6.17 0 12.26-4.75 12.46-14.47.21-9.91-5.61-16.92-12.05-17.06h-.19z" fill="#ED9E00"/><path d="M67.58 21.78c.35-.44 1.16-1.07 2.69-1.03s2.3.72 2.62 1.18c.14.2.1.43-.01.57-.1.13-.39.24-.7.12s-.92-.45-1.95-.49c-1.03-.02-1.66.28-1.98.38s-.6-.03-.69-.16c-.1-.14-.13-.37.02-.57zM55.65 21.43c.35-.44 1.16-1.07 2.69-1.03s2.3.72 2.62 1.18c.14.2.1.43-.01.57-.1.13-.39.24-.7.12s-.92-.45-1.95-.49c-1.03-.02-1.66.28-1.98.38s-.6-.03-.69-.16c-.1-.14-.13-.37.02-.57z" fill="#6D4C41"/><ellipse transform="rotate(-88.802 58.155 24.796)" cx="58.16" cy="24.8" rx="1.89" ry="1.82" fill="#404040"/><ellipse transform="rotate(-88.802 70.32 25.05)" cx="70.32" cy="25.05" rx="1.89" ry="1.82" fill="#404040"/><path d="M65.6 28.37a.266.266 0 0 0-.12-.03l-2.62-.05c-.04 0-.08.01-.12.03-.24.09-.38.33-.27.6.11.26.61 1.01 1.66 1.03s1.59-.7 1.7-.96c.13-.27 0-.51-.23-.62z" fill="#E59600"/><path d="M67.22 31.4c-1.19.68-5.06.6-6.22-.13-.67-.42-1.37.18-1.11.81.26.61 2.34 2.06 4.17 2.1 1.82.04 3.93-1.32 4.22-1.92.3-.62-.37-1.25-1.06-.86z" fill="#795548"/><radialGradient id="s" cx="-620.33" cy="-271.31" r="22.273" gradientTransform="matrix(.5771 0 0 .401 422.56 126.57)" gradientUnits="userSpaceOnUse"><stop stop-color="#FF8F00" offset="0"/><stop stop-color="#D32F2F" offset="1"/></radialGradient><path d="M52.42 28.52c-.25-1.03-.46-2.53-.35-4.51l.02-.35-.32-.15c-.02-.01-2.46-1.85-3.18-3.43-1.16-2.53 1.46-3.98 1.46-3.98-.23-.7-.98-2.1 0-4.31.77-1.73 3.5-1.42 3.99-1.42h.1l.94.07-.45-.83c-.05-.09-1.06-1.99.12-3.17.38.76 1.22 1.59 2.78 1.59.75 0 1.63-.19 2.6-.58.28-.11.61-.29 1.03-.53 1.29-.72 3.25-1.81 5.59-1.81.89 0 1.77.16 2.62.48 1.57.59 3.85 2.62 3.78 4.22l-.03.65.64-.12c.08-.02.16-.02.24-.02 1.24 0 3.08 1.65 3.96 3.13.02.03 1.61 2.79.69 6.86-.18.79-.59 1.77-.95 2.62-.38.9-.7 1.68-.75 2.21-.09 1-.38 2-.67 2.84-.01-.07-.01-.13-.02-.2-.16-1.96-.34-4.18-.64-5.71-.89-4.55-3.48-5.04-4.56-5.04h-.08c-.42-.93-1.52-2.21-3.54-2.21-.46 0-.96.07-1.47.19-1.8.45-3.08 1.41-4.44 2.42-.57.42-1.16.86-1.81 1.27-3.09 1.97-5.86 2.6-5.88 2.61l-.46.1.06.47c.07.63-.49 3.89-1.02 6.64z" fill="url(#s)"/><path d="M48.72 18.23c.12-1.09 1.72-1.98 1.72-1.98s-.7-2.55.13-4.05c1.4-2.5 5.15-1.16 5.15-1.16s-1.38-2.1-.97-3.65c0 0 1.43 1.16 2.76 1.16.82 0 1.76-.21 2.79-.61.31-.12.66-.31 1.1-.56 1.25-.69 3.13-1.74 5.34-1.74.83 0 1.66.12 2.44.45 3.64 1.56 3.39 5.02 3.39 5.02s3.28-.47 4.93 2.62c.79 1.46 1.44 3.97.96 6.89l1.16.11c.81-3.58-.2-6.67-.7-7.52-2.26-3.88-5.16-3.38-5.27-3.36.09-1.95-2.45-4.1-4.11-4.73-.98-.37-1.92-.51-2.8-.51-3.24 0-5.77 1.96-6.82 2.37-.99.39-1.78.54-2.41.54-2.24 0-2.51-1.9-2.51-1.9-1.52.9-1.78 2.81-1.12 4.19 0 0-2.27-.67-3.84 1.14s-.74 4.77-.74 4.77-1.93.85-1.75 3.75c.13 2.08 1.3 2.93 1.3 2.93l.65-1.06c0-.01-1.01-.9-.78-3.11z" fill="#B71C1C"/></svg>