<svg viewBox="0 0 128 128" width="128" height="128" xmlns="http://www.w3.org/2000/svg"><linearGradient id="a" x1="64" x2="64" y1="17.402" y2="105.39" gradientUnits="userSpaceOnUse"><stop stop-color="#FEE133" offset=".5"/><stop stop-color="#FEDE32" offset=".612"/><stop stop-color="#FCD32F" offset=".708"/><stop stop-color="#FAC12B" offset=".797"/><stop stop-color="#F7A924" offset=".883"/><stop stop-color="#F6A323" offset=".9"/></linearGradient><path d="M64 117.58c-27.93 0-58-17.49-58-55.9S36.07 5.79 64 5.79c15.48 0 29.81 5.13 40.36 14.43C115.9 30.41 122 44.75 122 61.69c0 16.86-6.1 31.17-17.64 41.39-10.57 9.35-24.91 14.5-40.36 14.5z" fill="url(#a)"/><path d="M64 7.79c14.99 0 28.86 4.95 39.03 13.93 11.1 9.8 16.97 23.61 16.97 39.96 0 16.27-5.87 30.07-16.97 39.89-10.21 9.03-24.07 14-39.03 14-15.04 0-28.9-4.91-39.04-13.82C13.86 92.01 8 78.15 8 61.69c0-16.54 5.86-30.42 16.96-40.15C35.07 12.67 48.93 7.79 64 7.79m0-4c-31.15 0-60 20.01-60 57.9 0 37.68 28.85 57.89 60 57.89s60-20.73 60-57.89c0-37.38-28.85-57.9-60-57.9z" fill="#EB8F00"/><g fill="#EB8F00" stroke="#EB8F00" stroke-miterlimit="10"><path d="M82.36 24.45l-.14-.03c-2.16-.41-2.2-3.63.24-3.65 1.91.02 3.87.33 5.8.95 5.3 1.69 9.56 5.41 11.87 9.71 1.12 2.17-1.75 3.66-3.11 1.93-3.54-4.34-8.76-7.66-14.66-8.91zM44.51 30.41c.04-.01.09-.02.13-.04 2.13-.55 1.98-3.76-.46-3.63-1.9.14-3.84.57-5.73 1.3-5.19 2.01-9.21 5.98-11.25 10.42-.99 2.23 1.97 3.54 3.23 1.74 3.25-4.54 8.26-8.17 14.08-9.79z"/></g><path d="M64 97.31c-13.25 0-22.71-7.8-25.55-12.14-1.1-1.67-1.31-3.49-.58-4.86.56-1.03 1.57-1.62 2.78-1.62.4 0 .83.07 1.25.2 6.68 2.09 12.52 5.14 22.1 5.14 9.69 0 15.44-3.05 22.1-5.14.43-.13.85-.2 1.25-.2 1.21 0 2.22.59 2.78 1.62.74 1.37.52 3.18-.58 4.86C86.71 89.5 77.25 97.31 64 97.31z" fill="#242424"/><g fill="#242424"><path d="M29.91 58.48c-1.61-1.49-1.36-4.01.51-5.34 2.37-1.69 5.81-3.75 9.68-4.8 3.87-1.06 7.87-1.04 10.77-.79 2.28.2 3.78 2.24 3.15 4.34-.51 1.69-2.24 2.83-4.07 2.67-2.19-.2-5.22-.23-8 .53-2.79.76-5.37 2.33-7.16 3.62-1.51 1.08-3.59.97-4.88-.23zM98.09 58.48c1.61-1.49 1.36-4.01-.51-5.34-2.37-1.69-5.81-3.75-9.68-4.8-3.87-1.06-7.87-1.04-10.77-.79-2.28.2-3.78 2.24-3.15 4.34.51 1.69 2.24 2.83 4.07 2.67 2.19-.2 5.22-.23 8 .53 2.79.76 5.37 2.33 7.16 3.62 1.51 1.08 3.59.97 4.88-.23z"/></g><path d="M75.31 122.21c-1.84 0-3.13-.48-3.94-1.47-2.24-2.72-1-9.03-.48-11.72.3-1.56 1.23-6.31-1.3-9.78-1.42-1.94-3.61-3.13-6.53-3.53 1.13.02 2.15.21 3.23.42 1.18.22 2.41.46 3.8.46.83 0 1.64-.08 2.46-.25 3.35-.69 4.34-1.34 5.45-2.26.4-.33.79-.65 1.61-1.05-.65 1.28-1.2 2.88-1.45 4.86-.31 2.38.41 5.21 1.25 8.49.34 1.35.7 2.74.98 4.14.9 4.35.54 8.1-.97 10.02-.83 1.06-2.04 1.61-3.69 1.67h-.42z" fill="#5F7AFF"/><path d="M76.2 97.41l-.03.21c-.36 2.76.44 5.91 1.29 9.24.34 1.32.69 2.69.96 4.04.76 3.67.53 6.96-.59 8.38-.31.4-.84.86-2.19.91-.12 0-.23.01-.35.01-1.79 0-2.25-.55-2.4-.74-1.09-1.32-1.1-4.7-.06-10.07.33-1.71 1.33-6.79-1.34-10.9.48-.05.95-.12 1.43-.22 1.39-.26 2.43-.54 3.28-.86m6.45-7.15c-.93 0-2.18.17-3.6.82-3.28 1.5-1.86 2.26-6.91 3.3-.73.15-1.41.21-2.06.21-2.48 0-4.49-.88-7.23-.88-.7 0-1.44.06-2.25.2-4.34.76-5.41 2.22-5.41 2.22s2.97 1.02 7.32 1.53c8.01.94 7 8.03 6.43 10.99-1.11 5.71-2.62 15.57 6.38 15.57.16 0 .33 0 .5-.01 6.92-.27 7.9-7.48 6.54-14.1-.96-4.65-2.58-9.06-2.21-11.97.74-5.7 4.18-7.67 4.18-7.67s-.65-.21-1.68-.21z" fill="#4864ED"/></svg>