<svg viewBox="0 0 128 128" width="128" height="128" xmlns="http://www.w3.org/2000/svg"><linearGradient id="a" x1="-18.406" x2="120.55" y1="49.429" y2="49.429" gradientTransform="rotate(45.001 40.396 73.087)" gradientUnits="userSpaceOnUse"><stop stop-color="#F4E9D1" offset="0"/><stop stop-color="#DCC699" offset="1"/></linearGradient><path d="M38.1 5.85c-8.36-3.13-18.84 1.78-20.21 11.86-.48 3.53-7.25-.22-11.87 7.03-6.96 10.93 4.27 21.91 15.62 20.79 5.45-.54 8.33-1.23 12.51 2.95l51.79 51.79c.7.7-7.93 9.74 1.88 20.18 4 4.25 9.72 4.65 14.86 1.57 6.67-4 7.33-10 7.33-10s13.33-2.5 15.11-15.04c1.13-7.94-5.33-13.33-15.28-12.71-5.85.37-11.5 1.75-11.5 1.75s-54.6-55.63-54.65-55.69c.27.27 3.4-6.25 3.55-6.9 1.07-4.5.15-9.14-2.73-12.83-1.79-2.3-4.02-3.86-6.41-4.75z" fill="url(#a)"/><path d="M32.87 7.91c1.45 0 2.86.25 4.18.74 2.01.75 3.72 2.02 5.09 3.77 2.26 2.9 3.05 6.5 2.21 10.17-.21.53-1.09 2.45-2 4.19a6.574 6.574 0 0 0 1.15 7.63L96.19 88.1l1.2 1.22 1.66-.4c.05-.01 5.48-1.33 10.97-1.67.46-.03.91-.04 1.35-.04 4.06 0 7.33 1.19 9.2 3.34 1.38 1.59 1.91 3.61 1.57 5.99-1.45 10.2-12.25 12.43-12.69 12.52l-2.18.37-.25 2.21c-.03.19-.69 4.67-5.9 7.79-1.73 1.04-3.56 1.59-5.27 1.59-2.21 0-4.23-.91-5.86-2.64-6.31-6.71-3.46-12.29-1.92-15.29.63-1.22 1.67-3.27-.02-4.96L36.26 46.34c-2.97-2.97-5.83-4.23-9.57-4.23-1.31 0-2.68.14-4.14.3-.39.04-.8.08-1.22.12-.43.04-.88.06-1.32.06-4.92 0-9.86-2.75-12.02-6.69-1.17-2.13-2.03-5.52.54-9.56 1.94-3.05 4.14-3.38 6.46-3.72 1.87-.28 5.34-.8 5.85-4.51.93-6.69 6.75-10.2 12.03-10.2m0-3c-6.99 0-13.89 4.75-14.98 12.79-.48 3.53-7.25-.22-11.87 7.03C-.61 35.15 9.26 45.6 20.03 45.6c.54 0 1.07-.03 1.61-.08 1.96-.19 3.59-.41 5.06-.41 2.63 0 4.77.68 7.45 3.35l51.79 51.79c.7.7-7.93 9.74 1.88 20.18 2.27 2.41 5.09 3.58 8.04 3.58 2.26 0 4.59-.68 6.82-2.02 6.67-4 7.33-10 7.33-10s13.33-2.5 15.11-15.04c1.07-7.52-4.68-12.76-13.74-12.76-.5 0-1.01.02-1.54.05-5.85.37-11.5 1.75-11.5 1.75s-42.93-43.72-52.7-53.68a3.581 3.581 0 0 1-.63-4.15c.97-1.88 2.13-4.36 2.22-4.75 1.07-4.5.15-9.14-2.73-12.83-1.78-2.28-4.01-3.84-6.4-4.73a14.96 14.96 0 0 0-5.23-.94z" fill="#BDAA86"/><g fill="none" stroke="#BDAA86" stroke-miterlimit="10" stroke-width="3"><path d="M14.57 20.91l13.78-2.01"/><path d="M14.57 20.91l13.78-2.01" stroke-linecap="round" stroke-linejoin="round"/></g><path d="M108.44 111.5l1.29-10.01" fill="none" stroke="#BDAA86" stroke-linecap="round" stroke-linejoin="round" stroke-miterlimit="10" stroke-width="3"/></svg>