<svg viewBox="0 0 128 128" width="128" height="128" xmlns="http://www.w3.org/2000/svg" xmlns:xlink="http://www.w3.org/1999/xlink"><linearGradient id="a" x1="68.874" x2="68.874" y1="90.388" y2="82.943" gradientUnits="userSpaceOnUse"><stop stop-color="#141111" offset="0"/><stop stop-color="#4E4545" offset="1"/></linearGradient><path d="M51.12 90.16A2.228 2.228 0 0 1 49 87.94l.29-3.36c.17-1.35 1.16-2.14 2.72-2.14l28.57.58 8.16 8.96-37.62-1.82z" fill="url(#a)"/><path d="M52 82.94l28.36.58 7.2 7.91-36.42-1.76c-.91-.04-1.62-.78-1.64-1.69l.28-3.32c.19-1.49 1.47-1.72 2.22-1.72m.01-1c-1.73 0-3.01.91-3.22 2.6l-.29 3.4c0 1.45 1.14 2.65 2.6 2.72l38.84 1.88-9.12-10.02-28.81-.58z" fill="#655C5A"/><linearGradient id="b" x1="89.689" x2="81.966" y1="75.464" y2="75.464" gradientUnits="userSpaceOnUse"><stop stop-color="#141111" offset="0"/><stop stop-color="#4E4545" offset="1"/></linearGradient><path d="M81.36 82.28l.88-19.03c0-2.34.43-3.52 2.79-3.52h2.23c2 0 2.46.22 2.46 2.35l-.23 29.12-8.13-8.92z" fill="url(#b)"/><path d="M87.26 60.23c1.77 0 1.96.06 1.96 1.85L89 89.92l-7.13-7.82.87-18.87c0-2.38.47-3 2.29-3h2.23m0-1h-2.23c-2.79 0-3.29 1.56-3.29 4l-.89 19.24 9.12 10.02.24-30.4c.01-2.47-.74-2.86-2.95-2.86z" fill="#655C5A"/><linearGradient id="c" x1="73.193" x2="73.193" y1="88.082" y2="93.7" gradientUnits="userSpaceOnUse"><stop stop-color="#141111" offset="0"/><stop stop-color="#4E4545" offset="1"/></linearGradient><path d="M59.73 90.1a2.24 2.24 0 0 1-2.13-2.23l.29-3.36c.17-1.35 1.16-2.14 2.72-2.14l20.01.58 8.15 8.95-29.04-1.8z" fill="url(#c)"/><path d="M60.61 82.88l19.79.57 7.18 7.88-27.83-1.73c-.91-.04-1.62-.78-1.64-1.69l.28-3.32c.19-1.48 1.46-1.71 2.22-1.71m.01-1c-1.73 0-3.01.91-3.22 2.6l-.29 3.4c0 1.45 1.14 2.65 2.6 2.72l30.28 1.88-9.12-10.02-20.25-.58z" fill="#655C5A"/><path fill="none" stroke="#F31612" stroke-linejoin="round" stroke-miterlimit="10" stroke-width="4" d="M77.72 99.55v-7.14"/><linearGradient id="d" x1="39.884" x2="23.534" y1="116.58" y2="111.58" gradientUnits="userSpaceOnUse"><stop stop-color="#141111" offset="0"/><stop stop-color="#1F1B1B" offset=".275"/><stop stop-color="#3C3535" offset=".758"/><stop stop-color="#4E4545" offset="1"/></linearGradient><path d="M41.17 118.84c-.18 0-.36-.03-.53-.08l-15.98-5.19a1.704 1.704 0 0 1-1.1-2.16 1.717 1.717 0 0 1 2.16-1.11l15.98 5.19c.9.29 1.39 1.26 1.1 2.16-.22.71-.88 1.19-1.63 1.19z" fill="url(#d)"/><path d="M25.19 110.72c.13 0 .25.02.38.06l15.98 5.19c.31.1.56.32.71.6.15.29.17.62.07.93a1.216 1.216 0 0 1-1.54.78l-15.98-5.19a1.21 1.21 0 0 1-.78-1.53c.17-.51.63-.84 1.16-.84m0-1c-.93 0-1.8.6-2.11 1.53-.38 1.16.26 2.41 1.42 2.79l15.98 5.19c.23.07.46.11.69.11.93 0 1.8-.6 2.11-1.53.38-1.16-.26-2.41-1.42-2.79l-15.98-5.19c-.23-.08-.46-.11-.69-.11z" fill="#655C5A"/><radialGradient id="e" cx="43.018" cy="117.55" r="7.37" gradientTransform="translate(4)" gradientUnits="userSpaceOnUse"><stop stop-color="#AFB8B6" offset=".341"/><stop stop-color="#A4AEAD" offset=".453"/><stop stop-color="#869295" offset=".649"/><stop stop-color="#57656F" offset=".904"/><stop stop-color="#43535F" offset="1"/></radialGradient><path d="M46.8 123.44c-3.33 0-6.03-2.71-6.03-6.03s2.71-6.03 6.03-6.03c3.33 0 6.03 2.71 6.03 6.03s-2.71 6.03-6.03 6.03z" fill="url(#e)"/><path d="M46.8 111.88c3.05 0 5.53 2.48 5.53 5.53s-2.48 5.53-5.53 5.53-5.53-2.48-5.53-5.53 2.48-5.53 5.53-5.53m0-1c-3.61 0-6.53 2.93-6.53 6.53s2.93 6.53 6.53 6.53c3.61 0 6.53-2.93 6.53-6.53s-2.93-6.53-6.53-6.53z" fill="#2F3B4B"/><path fill="none" stroke="#F31612" stroke-linecap="round" stroke-linejoin="round" stroke-miterlimit="10" stroke-width="3" d="M90.76 61.06l-.78 31.42M88.96 93.06l-32.82-1.91c-8.36 0-12.02 3.02-15.15 12.83l-4.78 13.87"/><path fill="none" stroke="#B80000" stroke-miterlimit="10" d="M75.72 92.41h4v7.14h-4z"/><path d="M88.96 93.06l-32.82-1.91c-8.36 0-12.02 3.02-15.15 12.83l-4.78 13.87" fill="none" stroke="#F31612" stroke-linecap="round" stroke-linejoin="round" stroke-miterlimit="10" stroke-width="3"/><path d="M40.25 105.98c3.62 0 6.55 2.93 6.55 6.55v4.88" fill="none" stroke="#F31612" stroke-linecap="round" stroke-linejoin="round" stroke-miterlimit="10" stroke-width="3"/><path d="M89.57 61.71l-.26 29.73-33.17-1.79c-9.09 0-13.27 3.5-16.56 13.84l-.57 1.64c-.15.21-.23.47-.25.74l-3.96 11.49c-.27.78.15 1.64.93 1.91a1.511 1.511 0 0 0 1.91-.93l3.7-10.73c2.26.5 3.96 2.51 3.96 4.92v4.88c0 .83.67 1.5 1.5 1.5s1.5-.67 1.5-1.5v-4.88c0-3.72-2.54-6.85-5.98-7.77l.11-.33c2.91-9.14 5.99-11.78 13.63-11.79l32.82 1.91c1.17 0 1.67-.12 2.24-.79.59-.71.68-1.91.68-2.17l.38-30.19c0-1.08-.36-1.8-1.31-1.8-.76.02-1.3.41-1.3 2.11z" fill="none" stroke="#B80000" stroke-miterlimit="10"/><radialGradient id="f" cx="60.76" cy="71.314" r="23.868" gradientTransform="translate(4)" gradientUnits="userSpaceOnUse"><stop stop-color="#FA6E6B" offset="0"/><stop stop-color="#F96360" offset=".197"/><stop stop-color="#F74643" offset=".542"/><stop stop-color="#F31613" offset=".993"/><stop stop-color="#F31612" offset="1"/></radialGradient><path d="M88.96 93.79s2.16.12 2.16-1.97.34-15.09.34-15.09c-3.17-2.91-32.45-12.37-40.07 15.72l4.22-.45 12.51.69c2.2-3.66 5.83-6.01 11.6-5.79 4.15.14 7.98 2.68 9.24 6.89z" fill="url(#f)"/><defs><path id="g" d="M51.96 93.01l.37-1.33 13.01.3 1.85-.81.62 2.68 21.74.73-.59-1.31 1.8-4.93-.06-.87-1.13-2.59 1.27-8.11 1.09.6-.15-3.8-13.6-3.22-17.62 3.81-8.5 7.82-1.73 11.31z"/></defs><clipPath id="h"><use xlink:href="#g"/></clipPath><path d="M90.95 92.44l.82-15.62c-1.8-1.63-11.11-6.09-20.95-3.57-7.97 2.05-16.29 6.76-20.08 20.3l17.38-.25c2.56-7.33 17.31-10.86 20.76 1.24.23.82 1.42-2.69 2.07-2.1z" clip-path="url(#h)" fill="none" stroke="#B80000" stroke-miterlimit="10"/><path d="M46.77 119.07c-.76 0-1.35-.49-1.47-1.23l-.32-3.32c-.02-.14.03-.24.08-.29.09-.1.23-.16.38-.16h2.54c.15 0 .28.06.37.16.05.05.1.14.09.26l-.12 3.42c-.01.59-.77 1.16-1.55 1.16z" fill="#2F2829"/><path d="M47.93 114.57l-.12 3.35c0 .24-.5.65-1.04.65-.5 0-.88-.31-.97-.78l-.32-3.22h2.45m.04-1h-2.54c-.58 0-1.03.47-.95 1l.33 3.35c.17.99.97 1.65 1.96 1.65s2.04-.74 2.04-1.65l.12-3.39c.05-.51-.39-.96-.96-.96z" fill="#141111"/><radialGradient id="i" cx="73.722" cy="99.55" r="1.106" gradientTransform="translate(4)" gradientUnits="userSpaceOnUse"><stop stop-color="#6E7D85" offset="0"/><stop stop-color="#50606B" offset=".619"/><stop stop-color="#43535F" offset="1"/></radialGradient><circle cx="77.72" cy="99.55" r="1.11" fill="url(#i)"/><path d="M77.72 98.94c.33 0 .61.27.61.61s-.27.61-.61.61-.61-.27-.61-.61.28-.61.61-.61m0-1a1.609 1.609 0 1 0 0 3.22 1.609 1.609 0 1 0 0-3.22z" fill="#8A9799"/><path fill="none" stroke="#8A9799" stroke-miterlimit="10" d="M77.72 78.84v41.42M92.37 84.91l-29.29 29.28M92.37 114.19L63.08 84.91M57.01 99.55h41.42"/><radialGradient id="j" cx="63.763" cy="86.001" r="40.144" gradientTransform="translate(4)" gradientUnits="userSpaceOnUse"><stop stop-color="#AFB8B6" offset=".017"/><stop stop-color="#A4AEAD" offset=".183"/><stop stop-color="#869295" offset=".475"/><stop stop-color="#57656F" offset=".857"/><stop stop-color="#43535F" offset="1"/></radialGradient><path d="M77.72 123.44c-13.17 0-23.89-10.72-23.89-23.89s10.72-23.89 23.89-23.89 23.89 10.72 23.89 23.89-10.71 23.89-23.89 23.89zm0-44.13c-11.16 0-20.24 9.08-20.24 20.24s9.08 20.24 20.24 20.24 20.24-9.08 20.24-20.24-9.08-20.24-20.24-20.24z" fill="url(#j)"/><path d="M77.72 76.16c12.9 0 23.39 10.49 23.39 23.39s-10.49 23.39-23.39 23.39-23.39-10.49-23.39-23.39 10.49-23.39 23.39-23.39m0 44.13c11.44 0 20.74-9.31 20.74-20.74s-9.31-20.74-20.74-20.74-20.74 9.31-20.74 20.74 9.3 20.74 20.74 20.74m0-45.13c-13.47 0-24.39 10.92-24.39 24.39s10.92 24.39 24.39 24.39 24.39-10.92 24.39-24.39-10.92-24.39-24.39-24.39zm0 44.13c-10.9 0-19.74-8.84-19.74-19.74s8.84-19.74 19.74-19.74 19.74 8.84 19.74 19.74c.01 10.9-8.83 19.74-19.74 19.74z" fill="#2F3B4B"/><circle cx="77.72" cy="99.55" r="3.57" fill="#2F2829" stroke="#141111" stroke-linecap="round" stroke-linejoin="round" stroke-miterlimit="10"/><circle cx="77.72" cy="99.55" r="1.11" fill="url(#i)"/><path d="M77.72 98.94c.33 0 .61.27.61.61s-.27.61-.61.61-.61-.27-.61-.61.28-.61.61-.61m0-1a1.609 1.609 0 1 0 0 3.22 1.609 1.609 0 1 0 0-3.22z" fill="#8A9799"/><path fill="none" stroke="#8A9799" stroke-miterlimit="10" d="M77.72 78.84v41.42M92.37 84.91l-29.29 29.28M92.37 114.19L63.08 84.91M57.01 99.55h41.42"/><path d="M77.72 123.44c-13.17 0-23.89-10.72-23.89-23.89s10.72-23.89 23.89-23.89 23.89 10.72 23.89 23.89-10.71 23.89-23.89 23.89zm0-44.13c-11.16 0-20.24 9.08-20.24 20.24s9.08 20.24 20.24 20.24 20.24-9.08 20.24-20.24-9.08-20.24-20.24-20.24z" fill="url(#j)"/><path d="M77.72 76.16c12.9 0 23.39 10.49 23.39 23.39s-10.49 23.39-23.39 23.39-23.39-10.49-23.39-23.39 10.49-23.39 23.39-23.39m0 44.13c11.44 0 20.74-9.31 20.74-20.74s-9.31-20.74-20.74-20.74-20.74 9.31-20.74 20.74 9.3 20.74 20.74 20.74m0-45.13c-13.47 0-24.39 10.92-24.39 24.39s10.92 24.39 24.39 24.39 24.39-10.92 24.39-24.39-10.92-24.39-24.39-24.39zm0 44.13c-10.9 0-19.74-8.84-19.74-19.74s8.84-19.74 19.74-19.74 19.74 8.84 19.74 19.74c.01 10.9-8.83 19.74-19.74 19.74z" fill="#2F3B4B"/><circle cx="77.72" cy="99.55" r="3.57" fill="#2F2829" stroke="#655C5A" stroke-linecap="round" stroke-linejoin="round" stroke-miterlimit="10"/><path d="M77.72 82.82c9.22 0 16.73 7.5 16.73 16.73s-7.5 16.73-16.73 16.73-16.73-7.5-16.73-16.73 7.51-16.73 16.73-16.73m0-1c-9.79 0-17.73 7.94-17.73 17.73s7.94 17.73 17.73 17.73 17.73-7.94 17.73-17.73-7.94-17.73-17.73-17.73z" fill="#141111"/></svg>