<svg viewBox="0 0 128 128" width="128" height="128" xmlns="http://www.w3.org/2000/svg" xmlns:xlink="http://www.w3.org/1999/xlink"><linearGradient id="a" x1="64.406" x2="64.406" y1="100.06" y2="122.18" gradientUnits="userSpaceOnUse"><stop stop-color="#572C00" offset="0"/><stop stop-color="#522C02" offset=".403"/><stop stop-color="#452A08" offset=".854"/><stop stop-color="#402A0A" offset=".974"/></linearGradient><path d="M83.31 123.65c0-1.29.9-2.34 2.01-2.34.99 0 1.81.84 1.98 1.95 1.45-.23 3.15-.54 5.02-.92.03-1.26.91-2.28 2-2.28.84 0 1.55.6 1.86 1.45 1.64-.37 3.34-.79 5.06-1.24.11-1.13.92-2.02 1.92-2.02.68 0 1.28.41 1.62 1.03 1.03-.31 2.06-.62 3.06-.95a1.87 1.87 0 0 1-.03-.34c0-1.12.78-2.03 1.74-2.03.71 0 1.32.5 1.59 1.21.87-.32 1.71-.66 2.53-1 .08-1.03.82-1.84 1.72-1.84.44 0 .84.2 1.15.51 1.65-.83 3.1-1.71 4.25-2.64-.15-.3-.24-.64-.24-1.02 0-1.12.78-2.03 1.74-2.03.33 0 .64.12.91.31.15-.3.27-.6.35-.9.04-.15.09-.3.16-.44.37-.7 1.55-3.47-.31-6.91-.35-.64-.99-1.08-1.72-1.14l-42.45-3.63c-.08-.01-.16-.01-.24-.01l-69.3 1.88c-.74.02-1.42.43-1.8 1.07l-1.8 3.13c-.09.16-.2.31-.33.44-.35.33-1.22 1.57-1.3 5.63-.1 5.07-.19 7.27.96 8.61l.02.02c.76.89 2.09.98 3 .24.34-.28.75-.44 1.2-.44 1.13 0 2.06 1.05 2.06 2.34 0 .26-.05.51-.12.75.97.21 2.11.43 3.46.66.84.14 1.68-.23 2.15-.95.37-.57.97-.93 1.64-.93 1.14 0 2.06 1.05 2.06 2.34 0 .12-.02.23-.03.35 1.25.12 2.47.2 3.65.25.76.03 1.44-.39 1.84-1.05.39-.63 1.03-1.05 1.76-1.05.72 0 1.36.41 1.75 1.03.43.69 1.25 1.03 2.07.98.6-.04 1.17-.09 1.71-.14.78-.07 1.5-.53 1.82-1.25.35-.81 1.09-1.37 1.94-1.37.47 0 .9.17 1.25.46.79.11 1.55.21 2.34.31 1.79-.92 5.1-2.06 12.68-1.28 10.34 1.05 25.07 5.26 29 5.36.17 0 .4 0 .68-.02a.37.37 0 0 1-.04-.15z" fill="url(#a)"/><path d="M85.06 116.21c-5.66.28-11.43-.52-16.96-1.54-5.2-.96-10.2-2.79-15.37-3.75-11.43-2.12-23.09-1.6-34.64-2.42-3.24-.23-14.94-1.37-11.83-7.42.13-.24.27-.49.45-.7.17.22 4.15 5.3 13.45 5.43 1.66.02 3.53.03 5.52.04 9.95.04 23.58.1 30.69 2.31 6.82 2.12 24.97 7.67 34.68 4.45 14.21-4.73 28.69-8.44 29.51-10.51.66-1.68.64-3.34.62-5.04 1.31 1.05 2.12 2.95 1.86 4.63-.23 1.45-1.23 2.7-2.42 3.55-4.05 2.9-9.75 4.42-14.43 5.99-6.04 2.03-12.16 4.07-18.52 4.79-.86.08-1.73.15-2.61.19z" fill="#FFE9CC"/><linearGradient id="b" x1="63.405" x2="63.405" y1="29.904" y2="113.84" gradientUnits="userSpaceOnUse"><stop stop-color="#FFD4A1" offset="0"/><stop stop-color="#F3C68E" offset=".171"/><stop stop-color="#D19F57" offset=".712"/><stop stop-color="#C48F41" offset=".974"/></linearGradient><path d="M121.06 95.9c-1.87-8.61-7.89-8.76-17.37-9.9S71.25 75.66 64.22 62.6 53.6 37.48 52.16 32.45c-1.44-5.02-5.4-1.1-6.16-.95 0 0-2.4 2.13-7.25 3.25 1.15 5.38 3.29 7.82-.51 11.63-7.78 7.3-19.69 3.88-30.48 3.71.39 5.77.21 10.66-.38 16.96-.86 9.19-4.31 32.3.29 35.17 6.65 4.15 14.4 4.56 21.98 4.3 17.59-.61 42.34 6.51 46.87 7.04 8.43.99 16.84-.67 26.41-3.73 15.92-5.1 20-5.32 18.13-13.93z" fill="url(#b)"/><path d="M38.48 46.6c3.34-3.39 4.14-7.99 3.65-12.77a2.997 2.997 0 0 0-3.5-2.64c-2.67.46-5.76.77-9.2.77-21.93 0-24.06-1.25-24.06 9.41 0 2.31.08 4.47.19 6.53.08 1.54 1.32 2.76 2.86 2.85 10.84.59 22.34 3.21 30.06-4.15z" fill="#6E4631"/><circle cx="48.86" cy="45.27" r="3" fill="#6B452C"/><circle cx="52.43" cy="54.01" r="3" fill="#6B452C"/><circle cx="56.46" cy="61.92" r="3" fill="#6B452C"/><circle cx="61.54" cy="68.84" r="3" fill="#6B452C"/><circle cx="67.38" cy="75.92" r="3" fill="#6B452C"/><circle cx="74.46" cy="82.13" r="3" fill="#6B452C"/><path d="M48.86 45.95c-.33 0-.64-.19-.78-.5-.2-.43-.01-.94.43-1.14l6.6-3.01c.43-.2.94-.01 1.14.43.2.43.01.94-.43 1.14l-6.6 3.01c-.12.04-.24.07-.36.07zM52.31 54.56c-.33 0-.64-.19-.78-.5-.2-.43-.01-.94.43-1.14l6.6-3.01c.43-.2.94-.01 1.14.43.2.43.01.94-.43 1.14l-6.6 3.01c-.12.04-.24.07-.36.07zM56.41 62.85c-.33 0-.64-.19-.78-.5-.2-.43-.01-.94.43-1.14l6.6-3.01c.43-.2.94-.01 1.14.43.2.43.01.94-.43 1.14l-6.6 3.01c-.12.04-.24.07-.36.07zM61.92 69.49c-.3 0-.6-.16-.76-.45a.858.858 0 0 1 .34-1.17l5.74-3.16c.42-.23.94-.08 1.17.34s.08.94-.34 1.17l-5.74 3.16a.81.81 0 0 1-.41.11zM67.91 76.26c-.23 0-.47-.1-.64-.28-.32-.35-.29-.9.06-1.22l4.78-4.34c.35-.32.9-.29 1.22.06s.29.9-.06 1.22l-4.78 4.34c-.17.15-.38.22-.58.22zM74.76 82.45c-.19 0-.38-.06-.53-.19a.86.86 0 0 1-.14-1.21l3.78-4.77a.86.86 0 1 1 1.35 1.07l-3.78 4.77c-.17.22-.43.33-.68.33z" fill="#FFE2B0"/><defs><path id="c" d="M121.06 95.9c-1.87-8.61-7.89-8.76-17.37-9.9S71.25 75.66 64.22 62.6 53.6 37.48 52.16 32.45c-1.44-5.02-2.63-3.45-3.4-3.3 0 0-2.76 1.45-7.61 2.57 1.15 5.38.89 10.85-2.92 14.66-7.78 7.3-19.69 3.88-30.48 3.71.39 5.77.21 10.66-.38 16.96-.86 9.19-4.31 32.3.29 35.17 6.65 4.15 14.4 4.56 21.98 4.3 17.59-.61 42.34 6.51 46.87 7.04 8.43.99 16.84-.67 26.41-3.73 15.93-5.1 20.01-5.32 18.14-13.93z"/></defs><clipPath id="d"><use xlink:href="#c"/></clipPath><path d="M32.59 112.23l-1.72-.03c.25-12.63-3.45-21.68-11.01-26.9-7.91-5.46-17.7-4.8-18.88-4.33.07-.03.27-.16.37-.43l-1.62-.58c.13-.36.31-.86 3.51-.99 1.48-.06 3.85-.02 6.69.51 8.68 1.6 23.16 7.97 22.66 32.75z" clip-path="url(#d)" fill="#8C6200" opacity=".6" stroke="#8C6200" stroke-miterlimit="10"/><path d="M49.24 33.11c.02.05.03.11.05.17.58 2.03 1.51 5.19 2.85 9.06.1.28.24.55.41.79.01.29.07.59.17.87.86 2.39 1.79 4.81 2.78 7.18.12.28.27.53.46.76.03.29.11.58.23.86 1.01 2.36 2.09 4.7 3.22 6.97.13.27.31.52.5.73.05.29.15.58.28.85.49.95.94 1.83 1.4 2.67.56 1.03 1.22 2.07 2.02 3.16.2.27.44.5.7.68.12.3.28.58.49.83 1.33 1.58 2.89 3.15 4.66 4.66.24.21.51.37.8.49.17.26.38.49.63.69 1.75 1.39 3.7 2.76 5.78 4.05.2.13.42.23.64.3.17.16.35.31.56.43 9.55 5.68 19.9 8.99 25.47 9.67.6.07 1.19.14 1.76.21 8.92 1.05 11.8 1.65 13.04 7.35.08.35.14.7.2 1.08.11.7.47 1.35 1.02 1.81.41.35.71.97.74 1.51.03.65.28 1.28.7 1.78.84 1.6.64 2.9.43 3.57-2 .48-3.52 2.31-3.67 4.54-.33.21-.69.42-1.06.64-.36-.09-.73-.14-1.1-.14-1.59 0-2.99.81-3.85 2.09-.61-.3-1.29-.46-1.99-.46-1.86 0-3.48 1.15-4.25 2.81-.66-.33-1.38-.51-2.15-.51-1.78 0-3.34.99-4.21 2.51-.52.13-1.05.26-1.58.39a4.812 4.812 0 0 0-3.04-1.09c-1.87 0-3.49 1.07-4.35 2.68-.35.07-.7.13-1.04.19-.91-1.01-2.19-1.63-3.61-1.63-1.71 0-3.22.92-4.13 2.32-1.93-.31-4.97-.97-8.14-1.67-5.87-1.29-13.17-2.9-19.1-3.5-1.77-.18-3.43-.27-4.94-.27-4.31 0-6.88.74-8.53 1.45l-.81-.11c-.71-.37-1.5-.57-2.3-.57-1.83 0-3.52 1.04-4.44 2.68-.28.03-.57.05-.86.07-.97-1.25-2.42-1.98-3.98-1.98-1.59 0-3.07.77-4.04 2.07-.25-.01-.5-.03-.75-.04-.85-1.71-2.54-2.87-4.49-2.87-1.47 0-2.86.68-3.81 1.83-.2-.04-.4-.07-.6-.11-.69-2.09-2.57-3.59-4.78-3.59-.74 0-1.46.17-2.13.5-.13-1.12-.09-3.27-.05-5.22l.01-.65c.05-2.5.43-3.47.53-3.68.49-.54.76-1.24.77-1.98 0-.04.01-.18.14-.45.05-.07.09-.14.14-.21.54-.86.61-1.93.19-2.85-1.93-4.22-.28-19.08.6-27.06.22-1.96.41-3.66.54-5.08.63-6.69.75-11.58.42-16.86a3.031 3.031 0 0 0-2.23-2.72c-.13-2.33-.18-4.35-.18-6.37 0-3.45.27-5.04.92-5.49 1.29-.89 5.47-.96 9.65-.96 1.29 0 2.7.01 4.25.02 1.88.01 3.96.03 6.25.03 3.29 0 6.55-.27 9.7-.82.14.91.68 1.71 1.48 2.16.46.26.97.4 1.49.4.38 0 .76-.07 1.12-.22 2.2-.89 3.64-1.87 4.32-2.38.28-.14.54-.31.81-.48.2-.15.55-.38.87-.54M49.7 29.9c-1.55 0-3.22 1.51-3.69 1.6 0 0-1.3 1.15-3.9 2.2a2.997 2.997 0 0 0-2.96-2.55c-.17 0-.34.01-.51.04-2.67.46-5.76.77-9.2.77-4.18 0-7.64-.05-10.5-.05-12.17 0-13.56.82-13.56 9.45 0 2.31.08 4.47.19 6.53.07 1.33 1 2.41 2.23 2.74.34 5.53.16 10.31-.41 16.4-.77 8.24-3.62 27.68-.88 33.67-.08.12-.16.23-.23.36-.35.69-.51 1.31-.51 1.87-.35.33-1.22 1.57-1.3 5.63-.1 5.07-.19 7.27.96 8.61l.02.02c.42.49 1.01.74 1.61.74.49 0 .98-.17 1.39-.5.34-.28.75-.44 1.2-.44 1.13 0 2.05 1.05 2.05 2.34 0 .26-.05.51-.12.75.97.21 2.11.43 3.46.66a2.138 2.138 0 0 0 2.15-.95c.37-.57.97-.93 1.64-.93 1.14 0 2.06 1.05 2.06 2.34 0 .12-.02.23-.03.35 1.25.12 2.47.2 3.65.25h.08c.73 0 1.38-.42 1.76-1.05.39-.63 1.03-1.05 1.76-1.05.72 0 1.36.41 1.75 1.03.4.64 1.14.98 1.9.98.06 0 .11 0 .17-.01.6-.04 1.17-.09 1.71-.14.78-.07 1.5-.53 1.82-1.25.35-.81 1.09-1.37 1.94-1.37.47 0 .9.17 1.25.46.79.11 1.55.21 2.34.31 1.37-.71 3.64-1.54 8.05-1.54 1.34 0 2.87.08 4.63.26 10.34 1.05 25.07 5.26 29 5.36h.09c.16 0 .36-.01.59-.03 0-.04-.01-.08-.01-.12 0-1.29.9-2.34 2.01-2.34.99 0 1.81.84 1.98 1.95 1.45-.23 3.15-.54 5.02-.92.03-1.26.91-2.28 2-2.28.84 0 1.55.6 1.86 1.45 1.64-.37 3.34-.79 5.06-1.24.11-1.13.92-2.02 1.92-2.02.68 0 1.28.41 1.62 1.03 1.03-.31 2.06-.62 3.06-.95a1.87 1.87 0 0 1-.03-.34c0-1.12.78-2.03 1.74-2.03.71 0 1.32.5 1.59 1.21.87-.32 1.71-.66 2.53-1 .08-1.03.82-1.84 1.72-1.84.44 0 .84.2 1.15.51 1.65-.83 3.1-1.71 4.25-2.64-.15-.3-.24-.64-.24-1.02 0-1.12.78-2.03 1.74-2.03.33 0 .64.12.91.31.15-.3.27-.6.35-.9.04-.15.09-.3.16-.44.37-.7 1.55-3.47-.31-6.91-.09-.16-.19-.3-.31-.43-.07-1.38-.76-2.77-1.79-3.64-.06-.39-.14-.8-.23-1.24-1.87-8.61-7.89-8.76-17.37-9.9-5.48-.66-15.48-4.03-24.3-9.27a.835.835 0 0 0-.32-.58.815.815 0 0 0-.51-.18c-.11 0-.22.02-.32.06-1.92-1.2-3.78-2.48-5.5-3.85l.52-.47c.35-.32.38-.86.06-1.22a.843.843 0 0 0-.64-.28.86.86 0 0 0-.58.22l-.71.64c-1.59-1.36-3.05-2.8-4.31-4.31l.99-.54c.42-.23.57-.75.34-1.17a.859.859 0 0 0-.76-.45c-.14 0-.28.03-.41.11l-1.24.68a22.79 22.79 0 0 1-1.79-2.8c-.47-.87-.92-1.74-1.36-2.61l.51-.23c.43-.2.62-.71.43-1.14a.85.85 0 0 0-.78-.5c-.12 0-.24.03-.36.08l-.57.26c-1.16-2.35-2.21-4.63-3.15-6.83l.33-.15c.43-.2.62-.71.43-1.14a.85.85 0 0 0-.78-.5c-.12 0-.24.03-.36.08l-.29.13c-1.04-2.51-1.95-4.88-2.73-7.05l.28-.13c.43-.2.62-.71.43-1.14a.85.85 0 0 0-.78-.5c-.12 0-.24.03-.36.08l-.14.07c-1.32-3.81-2.23-6.91-2.8-8.9-.58-1.95-1.52-2.56-2.5-2.56z" fill="#424242" opacity=".2"/></svg>