<svg viewBox="0 0 128 128" width="128" height="128" xmlns="http://www.w3.org/2000/svg"><g fill="none" stroke="#3E2723" stroke-linecap="round" stroke-miterlimit="10"><path d="M123.48 21.71c-7.92-.94-11.38 3.38-11.38 3.38M123.48 27.59c-5.94-2.81-10.9-.62-10.9-.62M120.88 34.28c-2.74-4.91-8.31-4.56-8.31-4.56"/></g><g fill="none" stroke="#3E2723" stroke-linecap="round" stroke-miterlimit="10"><path d="M62.26 21.71c7.92-.94 11.38 3.38 11.38 3.38M62.26 27.59c5.94-2.81 10.9-.62 10.9-.62M64.86 34.28c2.74-4.91 8.31-4.56 8.31-4.56"/></g><radialGradient id="a" cx="39.221" cy="86.868" r="27.286" gradientUnits="userSpaceOnUse"><stop stop-color="#825545" offset=".496"/><stop stop-color="#B06A51" offset="1"/><stop stop-color="#7E5344" offset="1"/></radialGradient><path d="M57.58 102.48s8.33-7.89 3.45-17.16-17.79-2.87-20.89-1.46c0 0 5.29-9.69 5.71-15.58.18-2.54-3.19-5.57-7.01.6-3.4 5.49-9.39 14.5-12.63 20.95-1.41 2.82 1.97 5.87 4.15 6.65s7.53.57 9.84.56" fill="url(#a)"/><linearGradient id="b" x1="42.358" x2="33.628" y1="69.516" y2="86.111" gradientUnits="userSpaceOnUse"><stop stop-color="#4E342E" offset=".437"/><stop stop-color="#553931" stop-opacity=".747" offset=".58"/><stop stop-color="#6A463A" stop-opacity=".37" offset=".791"/><stop stop-color="#845746" stop-opacity="0" offset="1"/></linearGradient><path d="M38.84 68.88c-2.56 4.13-5.22 8.2-7.75 12.35-1.16 1.9-6.81 9.96-2.2 10.83.76.14 1.55.01 2.3-.2 2.29-.64 4.38-1.96 5.94-3.75.7-.8 1.3-1.7 1.89-2.58 3.24-4.86 6.42-11.34 6.83-17.24.18-2.55-3.19-5.58-7.01.59z" fill="url(#b)" opacity=".93"/><path d="M57.58 102.48s8.33-7.89 3.45-17.16-17.79-2.87-20.89-1.46c0 0 5.29-9.69 5.71-15.58.18-2.54-3.19-5.57-7.01.6-3.4 5.49-9.39 14.5-12.63 20.95-1.41 2.82 1.97 5.87 4.15 6.65s7.53.57 9.84.56" fill="none" stroke="#3C251F" stroke-miterlimit="10" stroke-width="2"/><path d="M74.64 21.79c-2.09 0-3.84-1.63-4-3.72-.08-1.07.27-2.1.97-2.91s1.67-1.3 2.74-1.38c.1-.01.2-.01.3-.01 2.09 0 3.84 1.63 4 3.72.08 1.07-.26 2.1-.97 2.91-.7.81-1.67 1.3-2.74 1.38-.11 0-.2.01-.3.01z" fill="#4E342E"/><path d="M74.65 14.51c1.7 0 3.12 1.33 3.25 3.02.06.87-.22 1.71-.79 2.37s-1.36 1.06-2.23 1.12c-.08.01-.16.01-.24.01-1.7 0-3.12-1.33-3.25-3.02a3.266 3.266 0 0 1 3.02-3.49c.08 0 .16-.01.24-.01m0-1.5c-.12 0-.23 0-.35.01a4.758 4.758 0 0 0-4.4 5.09 4.758 4.758 0 0 0 4.74 4.42c.12 0 .23 0 .35-.01a4.758 4.758 0 0 0 4.4-5.09 4.758 4.758 0 0 0-4.74-4.42z" fill="#3C251F"/><path d="M110.2 21.79c-2.09 0-3.84-1.63-4-3.72-.08-1.07.27-2.1.97-2.91s1.67-1.3 2.74-1.38c.1-.01.2-.01.3-.01 2.09 0 3.84 1.63 4 3.72.08 1.07-.26 2.1-.97 2.91-.7.81-1.67 1.3-2.74 1.38-.11 0-.21.01-.3.01z" fill="#4E342E"/><path d="M110.21 14.51c1.7 0 3.12 1.33 3.25 3.02a3.266 3.266 0 0 1-3.02 3.49c-.08.01-.16.01-.24.01-1.7 0-3.12-1.33-3.25-3.02a3.266 3.266 0 0 1 3.02-3.49c.08 0 .16-.01.24-.01m0-1.5c-.12 0-.23 0-.35.01a4.758 4.758 0 0 0-4.4 5.09 4.758 4.758 0 0 0 4.74 4.42c.12 0 .23 0 .35-.01a4.758 4.758 0 0 0 4.4-5.09 4.758 4.758 0 0 0-4.74-4.42z" fill="#3C251F"/><radialGradient id="c" cx="27.258" cy="54.592" r="85.635" fx="26.076" fy="52.953" gradientTransform="matrix(.057 -.9984 1.0613 .0606 -32.233 78.498)" gradientUnits="userSpaceOnUse"><stop stop-color="#825545" offset=".207"/><stop stop-color="#B06A51" offset=".483"/><stop stop-color="#B06A51" offset="1"/><stop stop-color="#7E5344" offset="1"/></radialGradient><path d="M113.96 29.33c.4-11.74-8.79-22.09-20.53-22.36-11.87-.28-21.57 9.26-21.57 21.06 0 1.75.55 6.39 1.13 9.35 1.85 9.36-1.25 28.83-7.97 38.07-13.4 18.47-34.52 21.93-45.54-.65-4.56-9.34 1-25.5 6.56-31.09.94-.95-.01-2.55-1.3-2.22C17.39 43.36 5 52.73 5 76c0 17.43 15.15 44.89 49.75 44.89 29.8 0 59.24-16.96 58.49-81.89.1-3.42.61-6.33.72-9.67z" fill="url(#c)"/><path d="M113.88 29.48c.4-11.74-8.79-22.09-20.53-22.36-11.87-.28-21.57 9.26-21.57 21.06 0 1.75.55 6.39 1.13 9.35 1.85 9.36-1.25 28.83-7.97 38.07-13.4 18.47-36.02 20.9-45.54-.65-4.2-9.51-.02-24.51 6.56-31.09.94-.94-.01-2.55-1.3-2.22C17.31 43.51 5 52.73 5 76c0 17.43 15.07 45.04 49.67 45.04 29.8 0 59.24-16.96 58.49-81.89.1-3.42.61-6.33.72-9.67z" fill="none" stroke="#3C251F" stroke-miterlimit="10" stroke-width="2"/><circle cx="82.67" cy="23" r="2.57"/><circle cx="103.05" cy="23" r="2.57"/><linearGradient id="d" x1="84.329" x2="84.329" y1="25.025" y2="96.126" gradientUnits="userSpaceOnUse"><stop stop-color="#F9F3DF" offset=".162"/><stop stop-color="#EDE2CF" offset=".33"/><stop stop-color="#CFBAA9" offset=".771"/><stop stop-color="#C4AB9B" offset="1"/></linearGradient><path d="M106.34 45.59c1.08-5.42 3.52-8.31 3.81-13.7.15-2.78-1.51-5.16-3.81-6.33-2.11-1.06-5.42-.32-8.03.17-1.72.33-3.57.8-5.39.9-1.82-.1-3.66-.57-5.39-.9-2.61-.49-5.92-1.23-8.03-.17-2.3 1.16-3.95 3.54-3.81 6.33.29 5.39 2.84 8.25 3.81 13.7 4.66 26.33-16.94 36.87-20.36 44.86-2.22 5.18 1.02 7.98 14.5 3.26 19.28-6.75 27.1-20.01 32.7-48.12z" fill="url(#d)"/><linearGradient id="e" x1="92.922" x2="92.922" y1="28.979" y2="21.957" gradientUnits="userSpaceOnUse"><stop offset="0"/><stop stop-color="#18100E" offset=".351"/><stop stop-color="#4E342E" offset="1"/></linearGradient><path d="M93.02 29.11c-1.68 0-3.92-1.29-3.92-2.87v-.08c0-1.58 2.39-3.68 2.91-3.96.51-.28 1.29-.21 1.88-.02s2.86 2.41 2.86 3.98v.04c-.01 1.58-2.05 2.91-3.73 2.91z" fill="url(#e)"/><path d="M102.73 28.51c.25 1.29-.12 2.75-1.03 3.88-1.02 1.01-2.44 1.61-3.88 1.6a5.48 5.48 0 0 1-3.88-1.61 5.522 5.522 0 0 1-1.61-3.88h1.15a5.48 5.48 0 0 1-1.61 3.88 5.522 5.522 0 0 1-3.88 1.61 5.48 5.48 0 0 1-3.88-1.61c-.88-1.14-1.27-2.59-1.03-3.88.23 1.28.9 2.39 1.84 3.06.8.81 1.92 1.27 3.06 1.27s2.26-.46 3.06-1.27a4.33 4.33 0 0 0 1.27-3.06h1.15c0 1.14.46 2.26 1.27 3.06.8.81 1.92 1.27 3.06 1.27s2.26-.46 3.06-1.27c.96-.67 1.64-1.76 1.88-3.05z"/><radialGradient id="f" cx="91.257" cy="32.999" r="22.807" gradientTransform="matrix(1 0 0 1.0377 0 -1.243)" gradientUnits="userSpaceOnUse"><stop stop-color="#825545" offset=".442"/><stop stop-color="#B06A51" offset=".793"/><stop stop-color="#B06A51" offset="1"/><stop stop-color="#7E5344" offset="1"/></radialGradient><path d="M88.71 31.46c.4-.47 1.3-1.3 2.61-.84 1.04.37 1.5 1.54 1.5 3.47 0 16.2-11.93 32.18-22.24 29.01-5.32-1.63-6.4-9.01.09-12.82 2.62-1.53 12.05-3.75 15.37-10.75 1.31-2.74.58-5.6 2.67-8.07z" fill="url(#f)" stroke="#3C251F" stroke-miterlimit="10" stroke-width="2"/><radialGradient id="g" cx="101.6" cy="34.166" r="24.65" fx="101.42" fy="33.82" gradientTransform="matrix(-1 0 0 1 195.5 0)" gradientUnits="userSpaceOnUse"><stop stop-color="#825545" offset=".442"/><stop stop-color="#B06A51" offset=".793"/><stop stop-color="#B06A51" offset="1"/><stop stop-color="#7E5344" offset="1"/></radialGradient><path d="M97.03 31.46c-.4-.47-1.3-1.3-2.61-.84-1.04.37-1.5 1.54-1.5 3.47 0 16.2 11.93 32.18 22.24 29.01 5.32-1.63 6.4-9.01-.09-12.82-2.62-1.53-12.05-3.75-15.37-10.75-1.3-2.74-.57-5.6-2.67-8.07z" fill="url(#g)" stroke="#3C251F" stroke-miterlimit="10" stroke-width="2"/><radialGradient id="h" cx="54.894" cy="84.953" r="31.404" gradientUnits="userSpaceOnUse"><stop stop-color="#825545" offset=".207"/><stop stop-color="#B06A51" offset=".483"/><stop stop-color="#B06A51" offset="1"/><stop stop-color="#7E5344" offset="1"/></radialGradient><path d="M72.5 109.07s8.33-7.89 3.45-17.16-17.79-2.87-20.89-1.46c0 0 5.29-9.69 5.71-15.58.18-2.54-3.19-5.57-7.01.6-3.4 5.49-9.39 14.5-12.63 20.95-1.41 2.82 1.97 5.87 4.15 6.65s7.53.57 9.84.56" fill="url(#h)"/><linearGradient id="i" x1="61.46" x2="47.452" y1="69.823" y2="94.402" gradientUnits="userSpaceOnUse"><stop stop-color="#4E342E" offset=".437"/><stop stop-color="#553931" stop-opacity=".747" offset=".58"/><stop stop-color="#6A463A" stop-opacity=".37" offset=".791"/><stop stop-color="#845746" stop-opacity="0" offset="1"/></linearGradient><path d="M53.77 75.47c-2.56 4.13-5.22 8.2-7.75 12.35-1.16 1.9-6.81 9.96-2.2 10.83.76.14 1.55.01 2.3-.2 2.29-.64 4.38-1.96 5.94-3.75.7-.8 1.3-1.7 1.89-2.58 3.24-4.86 6.42-11.34 6.83-17.24.17-2.55-3.2-5.59-7.01.59z" fill="url(#i)" opacity=".79"/><path d="M72.5 109.07s8.33-7.89 3.45-17.16-17.79-2.87-20.89-1.46c0 0 5.29-9.69 5.71-15.58.18-2.54-3.19-5.57-7.01.6-3.4 5.49-9.39 14.5-12.63 20.95-1.41 2.82.89 6.06 4.15 6.65 2.28.41 7.53.57 9.84.56" fill="none" stroke="#3C251F" stroke-linecap="round" stroke-miterlimit="10" stroke-width="2"/></svg>