<svg viewBox="0 0 128 128" width="128" height="128" xmlns="http://www.w3.org/2000/svg"><linearGradient id="a" x1="88.252" x2="88.252" y1="90.782" y2="119" gradientUnits="userSpaceOnUse"><stop stop-color="#DEA43C" offset=".002"/><stop stop-color="#FFC559" offset="1"/></linearGradient><path d="M79.97 122.84c-.17 0-.27-.09-.32-.14s-.12-.17-.11-.33c0 0 .05-.47.07-.71.22-2.49.57-4.74 2.43-4.83.99-.05 1.71-.06 2.23-.07 1.12-.02 2.28-.03 2.33-1.4.04-1.02.04-1.15-.11-1.71-.05-.18-.13-.46-.24-.95-.55-2.55-1.8-5.71-3.13-9.04-2.63-6.63-5.61-14.14-4.65-20.14.57-3.56 7.54-4.09 11.65-4.09 3.37 0 6.55.34 8.07.53-.61 6.06-3.91 38.71-4.5 42.54-.03.21-.21.35-.42.35h-13.3z" fill="url(#a)"/><path d="M90.14 80.42c2.72 0 5.3.22 6.97.4-.77 7.68-3.61 35.74-4.32 41.02H80.6c0-.03.01-.06.01-.09.25-2.82.65-3.88 1.49-3.92.97-.05 1.67-.06 2.19-.07 1.05-.02 3.23-.05 3.32-2.37.04-1.05.05-1.3-.15-2.01-.05-.17-.12-.43-.22-.9-.57-2.63-1.83-5.82-3.18-9.2-2.58-6.51-5.51-13.88-4.59-19.61.33-2.04 4.31-3.25 10.67-3.25m0-2c-5.67 0-12 .92-12.64 4.93-1.51 9.43 6.19 22.18 7.79 29.55.36 1.65.38.95.33 2.42-.02.61-.37.34-3.61.51-3.22.17-3.22 4.42-3.44 6.43-.09.84.57 1.58 1.42 1.58h13.32c.7 0 1.3-.51 1.41-1.2.66-4.28 4.6-43.56 4.6-43.56s-4.37-.66-9.18-.66z" fill="#D3914F"/><linearGradient id="b" x1="118.22" x2="109.18" y1="94.503" y2="78.382" gradientUnits="userSpaceOnUse"><stop stop-color="#FFECB3" offset=".33"/><stop stop-color="#FFC559" offset="1"/></linearGradient><path d="M122.65 103.02c-.04 0-.08 0-.13-.01-6.97-1.12-12.84-11.96-14.61-26.96l-.02-.2-7.95-13.77c10.96 5.29 13.64 15.32 16.02 24.25 1.53 5.74 2.98 11.16 6.49 14.5.69.66.82 1.43.64 1.87-.13.32-.36.32-.44.32z" fill="url(#b)"/><path d="M102.64 64.76c7.94 5.31 10.18 13.68 12.35 21.83 1.57 5.88 3.05 11.44 6.77 14.96.12.12.21.23.27.34-6.24-1.62-11.47-11.89-13.13-25.96l-.05-.41-.21-.36-6-10.4M97.58 60l9.33 16.17c1.77 15.02 7.65 26.58 15.44 27.83.1.02.2.02.29.02 1.61 0 2.17-2.32.49-3.92-8.96-8.51-3.8-32.1-25.55-40.1z" fill="#D3914F"/><linearGradient id="c" x1="49.998" x2="49.998" y1="84.215" y2="113.98" gradientUnits="userSpaceOnUse"><stop stop-color="#DEA43C" offset=".002"/><stop stop-color="#FFC559" offset="1"/></linearGradient><path d="M43.25 122.84c-.17 0-.27-.09-.32-.14a.408.408 0 0 1-.1-.31c.22-1.97 1.28-4.46 2.27-4.58 1.95-.24 2.42-.3 2.68-.5.25-.06.7-.27.9-.94.9-2.94-3.09-22.82-7.12-27.28-.1-.11-.16-.19-.21-.26.3-.15.87-.33 1.28-.45 1.25-.38 2.68-.8 3.34-1.95.84-1.45 2.26-2.48 3.81-2.75.29-.05.58-.08.87-.08 2.05 0 4.29 1.29 5.71 3.28 4.13 5.82 1.75 32.3-.06 35.16l-.07.11c-.16.26-.39.62-.5.62l-12.48.07z" fill="url(#c)"/><path d="M50.65 84.6c1.74 0 3.66 1.12 4.89 2.86 3.81 5.37 1.58 31.17-.09 34.05l-.07.11c-.03.04-.06.1-.09.15l-11.37.07c.29-1.45.96-2.78 1.36-3.04 1.72-.21 2.45-.3 2.92-.58.43-.15 1.11-.55 1.42-1.55.91-2.96-2.6-21.34-6.64-27.35 1.35-.41 3-.92 3.85-2.39.68-1.18 1.87-2.05 3.12-2.27.23-.04.47-.06.7-.06m0-2c-.35 0-.7.03-1.05.09-1.88.33-3.54 1.59-4.5 3.24-1.12 1.94-6.56 1.31-4.29 3.83 4.06 4.49 8.13 26.23 6.72 26.58-.9.22.66.09-2.56.48-1.78.22-2.92 3.48-3.14 5.46-.09.83.57 1.56 1.42 1.56l12.49-.07c.7 0 1.04-.6 1.41-1.19 1.96-3.09 4.45-30.05.03-36.27-1.51-2.12-3.98-3.71-6.53-3.71z" fill="#D3914F"/><linearGradient id="d" x1="59.493" x2="59.493" y1="123" y2="18.965" gradientUnits="userSpaceOnUse"><stop stop-color="#FFECB3" offset="0"/><stop stop-color="#FFD884" offset=".279"/><stop stop-color="#FFCA65" offset=".505"/><stop stop-color="#FFC559" offset=".631"/><stop stop-color="#FFC861" offset=".697"/><stop stop-color="#FFD276" offset=".798"/><stop stop-color="#FFE199" offset=".921"/><stop stop-color="#FFECB3" offset="1"/></linearGradient><path d="M18.76 123c-.16 0-.27-.09-.32-.14a.408.408 0 0 1-.1-.31c.22-1.96 1.31-4.46 2.27-4.58 1.95-.24 2.42-.3 2.68-.5.73-.18 1.55-.42 8.4-29.78l.13-.55-.4-.39c-1.33-1.3-4.07-5.22-5.99-9.88-2.48-6.02-1.51-18.39-1.29-20.81.07-.77-.45-1.47-1.18-1.58-.71-.11-1.25-.38-1.63-.63 1.46-1.92 4.4-6.51 3.73-11.48l-.13-.94-.95.08c-.02 0-1.81.15-4.16.15-5.16 0-8.82-.68-10.31-1.91-.68-.56-1.19-1.34-1.59-2.03-1.9-3.22-2.4-5.96-2.89-9.48-.09-.65.32-1.24.95-1.39 3.32-.75 8.03-2.06 11.72-3.28 2.15-.71 3.25-2.56 4.14-4.04.35-.59.68-1.14 1.02-1.53 1.76-2.03 4.24-3.06 7.38-3.06.89 0 1.84.08 2.82.25 4.13.7 8.21 2.22 11.78 4.4 2.68 1.64 3.31 6.35 3.44 9.02.12 2.41-.01 4.44-.12 6.22-.13 1.97-.23 3.53.08 4.81.41 1.69.98 2.95 1.38 3.7-1.02.8-1.64 1.09-1.64 1.09l-.69.32.13.76c.01.08.37 2.01 2.44 3.29 1.3.81 2.93 1.58 4.66 2.4.79.37 1.59.75 2.39 1.15 7.05 3.51 14.43 5.57 21.36 5.95 1.34.07 2.71.08 3.74.08l3.46-.01c4.84 0 9.91.22 14 2.85 8.66 5.58 13.53 24.86 14.46 57.3.02.77.04 1.44.06 1.98.03.77-.21 1.48-.65 1.94-.33.35-.75.52-1.25.52l-10.1.01c-1.64 0-2.01-.24-2.09-.34-.11-.14-.17-.62.19-2.11.03-.11.15-.43.25-.71.09-.25.17-.47.2-.57.56-1.79 1.48-1.94 2.45-1.94.15 0 .73.02.86.02.36 0 1.2 0 1.67-.69.48-.7.23-1.59-.07-2.38-1.14-2.93-6.98-17.65-10.72-20.94-.16-.16-4.84-4.6-13.52-4.6-2.27 0-4.64.31-7.03.93-.54.14-1.37.57-2.62 1.21-3.57 1.84-10.22 5.26-17.05 5.26-2.63 0-5.24-.27-7.74-.8l-.83-.18-.31.79c-3.78 9.63-12.57 24.35-13.77 26.24l-.07.11c-.16.26-.39.62-.5.62l-12.53.11z" fill="url(#d)"/><path d="M30.23 15.94c.84 0 1.73.08 2.66.24 4.01.67 7.96 2.15 11.43 4.27 1.67 1.02 2.75 4.02 2.96 8.22.12 2.36-.01 4.35-.12 6.11-.13 2.06-.24 3.68.11 5.11.31 1.3.72 2.36 1.08 3.16-.5.35-.78.49-.78.49l-1.41.64.26 1.52c.04.25.49 2.47 2.9 3.97 1.34.84 3 1.62 4.75 2.46.78.37 1.58.75 2.37 1.14 7.17 3.57 14.69 5.67 21.75 6.06 1.37.08 2.75.09 3.8.09.57 0 1.15 0 1.73-.01.58 0 1.15-.01 1.73-.01 4.69 0 9.6.21 13.45 2.7 5.18 3.34 9.16 12.51 11.5 26.5 1.98 11.81 2.33 24.09 2.5 29.98.02.78.04 1.44.06 1.99.02.49-.13.95-.37 1.21-.14.15-.31.21-.53.22l-10.1.01c-.56 0-.92-.03-1.15-.06.03-.23.09-.58.22-1.11.04-.14.14-.4.23-.63.1-.27.19-.52.22-.62.38-1.23.8-1.23 1.49-1.23h.01c.14 0 .28 0 .42.01.16 0 .31.01.45.01.43 0 1.72 0 2.49-1.12.84-1.22.27-2.68.03-3.31-1.61-4.14-7.13-17.89-10.96-21.3-.54-.51-5.47-4.88-14.22-4.88-2.36 0-4.81.32-7.28.96-.65.17-1.47.59-2.83 1.29-3.5 1.8-10.01 5.15-16.6 5.15-2.56 0-5.1-.26-7.54-.78l-1.66-.35-.62 1.58c-3.74 9.54-12.49 24.19-13.68 26.07l-.07.11c-.03.04-.06.1-.09.15l-11.38.05c.29-1.45.96-2.78 1.36-3.04 1.68-.21 2.42-.3 2.89-.56 1.29-.34 1.75-1.02 5.48-16.02 1.78-7.16 3.46-14.38 3.48-14.46l.26-1.1-.81-.79c-1.23-1.2-3.92-5.07-5.76-9.55-1.86-4.5-1.82-13.77-1.22-20.34.12-1.29-.77-2.46-2.02-2.66-.09-.01-.18-.03-.27-.05 1.61-2.39 3.82-6.62 3.2-11.2l-.25-1.88-1.89.16c-.02 0-1.78.14-4.08.14-4.78 0-8.4-.63-9.67-1.68-.56-.47-1.01-1.15-1.37-1.77-1.81-3.06-2.27-5.59-2.76-9.1-.02-.13.06-.25.17-.27 3.35-.75 8.1-2.08 11.82-3.31 2.5-.82 3.76-2.94 4.68-4.48.33-.55.63-1.06.91-1.38 1.61-1.83 3.77-2.72 6.64-2.72m0-2c-2.88 0-5.88.81-8.13 3.41-1.29 1.49-2.13 4.42-4.71 5.28-3.44 1.13-8.1 2.46-11.63 3.25a2.238 2.238 0 0 0-1.72 2.5c.53 3.81 1.07 6.55 3.02 9.85.5.84 1.06 1.66 1.82 2.29 2.16 1.79 7.25 2.14 10.94 2.14 2.42 0 4.24-.15 4.24-.15.67 4.98-2.64 9.74-4.12 11.47 0 0 .97 1.19 2.85 1.49.23.04.37.27.35.51-.23 2.49-1.2 15.05 1.37 21.28 1.88 4.57 4.68 8.72 6.21 10.21 0 0-6.71 28.8-7.66 29.03-.9.22.66.09-2.56.48-1.78.22-2.92 3.48-3.14 5.46-.09.83.57 1.56 1.42 1.56l12.49-.07c.7 0 1.04-.6 1.41-1.19 1.23-1.94 10.08-16.78 13.85-26.41 2.6.55 5.28.82 7.95.82 9.29 0 18.1-6.03 19.93-6.5 2.48-.64 4.75-.89 6.78-.89 8.38 0 12.87 4.36 12.87 4.36 3.76 3.31 10.08 19.62 10.44 20.55.59 1.52.16 1.7-.66 1.7-.26 0-.55-.02-.87-.02-1.19 0-2.66.25-3.41 2.63-.07.21-.43 1.14-.48 1.34-.7 2.88-.35 3.68 2.87 3.68l10.11-.01c1.85 0 2.97-1.65 2.9-3.49-.32-8.91-.61-50.82-14.98-60.08-4.28-2.76-9.44-3.01-14.54-3.01-1.16 0-2.32.01-3.46.01-1.25 0-2.48-.02-3.69-.08-7.24-.4-14.53-2.65-20.97-5.85-2.51-1.25-5.13-2.37-6.96-3.51-1.71-1.07-1.98-2.62-1.98-2.62s.96-.43 2.52-1.77c0 0-1.07-1.5-1.71-4.17-.53-2.2.33-5.74.07-10.85-.16-3.13-.92-7.99-3.92-9.82a34.337 34.337 0 0 0-12.14-4.54c-.93-.16-1.94-.27-2.97-.27z" fill="#D3914F"/><linearGradient id="e" x1="24.746" x2="35.305" y1="74.661" y2="65.83" gradientUnits="userSpaceOnUse"><stop stop-color="#FFEBC0" stop-opacity=".971" offset=".294"/><stop stop-color="#FFF8E1" stop-opacity=".971" offset="1"/></linearGradient><path d="M40.27 60c-4.37 2.12-8.37 0-8.37 0 2.66-1.75 4-5.63 4-5.63-2.26.97-2.36 1.13-4.75 1.71-3.47.08-5.71.42-5.71.42-1.16 3.79-3.67 14.56-.94 20.75 1.95 4.41 4.56 8.52 6.1 10.1.98-4.43 2.98-9.76 5.63-13.05 0 0-3.92.27-6.25 2.88 1.17-9.87 9.21-9.33 10.29-17.18z" fill="url(#e)"/><path d="M32.59 88.14c1.2-4.76 1.55-9.18 1.63-10.44.01-.1-.13-.15-.18-.06-1.05 1.72-2.91 7.22-2.91 7.22-1.4-1.77-3.21-4.83-4.8-8.41-2.73-6.17-1.24-17.13-.27-20.19.24-.76-2.89-.72-2.89-.72-.14 1.08-2.26 13.61 1.32 21.72 2 4.52 4.68 8.72 6.21 10.21l1.89.67z" fill="#D3914F"/><linearGradient id="f" x1="67.813" x2="67.813" y1="95.417" y2="89.831" gradientUnits="userSpaceOnUse"><stop stop-color="#FFEBC0" stop-opacity=".971" offset=".294"/><stop stop-color="#FFF8E1" stop-opacity=".971" offset="1"/></linearGradient><path d="M83 87c-9.88-3.59-17.97.57-20 1.76 1.01-3.41 1.39-6.4 1.39-6.4-5.12 3.82-10.64 4.41-16.34 5.6L46 96.01s4.45 1.14 8.47 1.14c9.29 0 18.1-6.03 19.93-6.5 8.68-2.23 12.3-1.82 15.22-.05 0 0-3.15-2.34-6.62-3.6z" fill="url(#f)"/><linearGradient id="g" x1="65.52" x2="68.467" y1="93.065" y2="93.065" gradientUnits="userSpaceOnUse"><stop stop-color="#FFECB3" offset=".33"/><stop stop-color="#FFC559" offset="1"/></linearGradient><path d="M65.52 93.71c1.04-.43 2.03-.88 2.95-1.29-.91.43-1.9.87-2.95 1.29z" fill="url(#g)"/><path d="M81.43 87.78c-2.73 0-6.12.62-10.3 2.34-3.65 1.5-10.04 5.17-16.66 5.17-2.61 0-5.15-.28-7.58-.8-.18.58-.38 1.22-.56 1.79 2.66.58 5.4.87 8.14.87 9.29 0 18.1-6.03 19.93-6.5 2.48-.64 4.75-.9 6.78-.9 3.79 0 7.74.77 9.88 1.75-.94-.85-3.75-3.72-9.63-3.72z" fill="#D3914F"/><linearGradient id="h" x1="40.088" x2="40.088" y1="97.733" y2="49.143" gradientUnits="userSpaceOnUse"><stop stop-color="#6D473B" offset=".118"/><stop stop-color="#8D6E63" offset=".788"/></linearGradient><path d="M58.27 64.93l.55-12.46a.749.749 0 0 0-.24-.58l-3.41-2.53a.779.779 0 0 0-1.32.54l-.47 13-30.88-.01c-.51 0-.94.4-.97.91l-.18 2.92a.97.97 0 0 0 .96 1.03l30.94.19-.59 28.57c-.02.72.6 1.29 1.32 1.22l2.45-.25c.6-.06 1.06-.56 1.07-1.16l.77-31.39z" fill="url(#h)"/><path d="M54.84 50.36l2.98 2.2-.55 12.34-.77 31.39c0 .1-.08.18-.18.19l-2.47.25c-.07 0-.12-.04-.14-.06a.184.184 0 0 1-.06-.14l.59-28.57.02-1.01-1.01-.01-30.91-.16.15-2.89 30.88.01h.96l.04-.96.47-12.58m-.2-1.22c-.39 0-.77.3-.78.76l-.48 13-30.88-.01c-.51 0-.94.4-.97.91l-.18 2.92a.97.97 0 0 0 .96 1.03l30.94.19-.59 28.57c-.02.68.53 1.22 1.19 1.22.04 0 .08 0 .12-.01l2.45-.25c.6-.06 1.06-.56 1.07-1.16l.77-31.39v-.01l.55-12.46a.749.749 0 0 0-.24-.58l-3.41-2.53a.769.769 0 0 0-.52-.2z" fill="#212121" opacity=".2"/><path fill="none" stroke="#9E9E9E" stroke-miterlimit="10" stroke-width="2" d="M48.81 60.91l-4.5 4.02"/><circle cx="43.69" cy="65.55" r="1.86" fill="#BDBDBD"/><path d="M43.69 63.69h.1c1.03.05 1.82.93 1.77 1.96-.05 1-.87 1.77-1.86 1.77h-.1a1.868 1.868 0 0 1-1.77-1.96c.05-1 .87-1.77 1.86-1.77m0-.75c-1.39 0-2.54 1.09-2.61 2.48-.04.7.2 1.37.67 1.89s1.11.82 1.81.86h.14c1.39 0 2.54-1.09 2.61-2.48.04-.7-.2-1.37-.67-1.89s-1.11-.82-1.81-.86h-.14z" fill="#424242"/><path d="M45.08 98.57c-.09 0-.18-.01-.27-.04-.53-.15-1.06-.6-.91-1.13 2-4.55 4.2-12.13 4.92-14.7.04-.15.27-.11.26.04-.06 3.47-.33 6.08-.94 8.37-.79 2.98-1.92 6.4-2.11 6.74-.21.39-.51.72-.95.72z" fill="#D3914F"/><ellipse transform="rotate(-47.509 24.371 24.714)" cx="24.37" cy="24.71" rx="2.36" ry="2.09"/><linearGradient id="i" x1="6.103" x2="8.161" y1="23.644" y2="28.523" gradientTransform="matrix(.9906 -.1616 .1601 .9818 -4.236 3.992)" gradientUnits="userSpaceOnUse"><stop stop-color="#424242" stop-opacity=".971" offset="0"/><stop offset="1"/></linearGradient><path d="M4.68 32.14s5.29-1.59 5.28-6.1c0-.63-.59-1.09-1.19-.92-1.01.28-2.47.67-3.24.86-1.1.26-1.7.69-1.49 2.4.19 1.49.64 3.76.64 3.76z" fill="url(#i)"/><linearGradient id="j" x1="34.516" x2="41.389" y1="32.924" y2="21.93" gradientTransform="rotate(-8.082 24.06 28.252)" gradientUnits="userSpaceOnUse"><stop stop-color="#D3914F" offset="0"/><stop stop-color="#D3914F" stop-opacity="0" offset="1"/></linearGradient><path d="M32.29 18.29c.63-2.75 12.96 3.41 12.32 9.77-.71 7.02-8.07 10.73-11.43 9.15-3.72-1.76-1.27-17.26-.89-18.92z" fill="url(#j)"/><path d="M44.61 27.22c.03 1.45-.3 2.94-.93 4.31-.65 1.36-1.6 2.6-2.77 3.6a10.998 10.998 0 0 1-4.06 2.25c-.77.23-1.59.35-2.5.25-.23-.03-.46-.07-.71-.15-.24-.07-.57-.23-.78-.41-.46-.36-.72-.79-.92-1.19-.72-1.61-.8-3.1-.91-4.59-.04-1.48-.03-2.95.1-4.4.1-1.45.28-2.89.48-4.32.21-1.43.49-2.85.67-4.28.27 1.44.24 2.9.32 4.34l.1 4.3c.06 1.43.08 2.85.23 4.23.12 1.36.31 2.81.8 3.83.11.24.25.44.36.53.07.05.06.06.17.09.1.04.22.06.34.08.52.08 1.15-.01 1.77-.14 1.25-.28 2.47-.89 3.58-1.65 2.23-1.52 3.91-3.86 4.66-6.68z" opacity=".2"/><linearGradient id="k" x1="19.57" x2="50.001" y1="51.9" y2="51.9" gradientTransform="matrix(.9238 -.0221 .0239 .9997 2.53 .754)" gradientUnits="userSpaceOnUse"><stop stop-color="#00897B" offset="0"/><stop stop-color="#4DB6AC" offset=".634"/><stop stop-color="#00897B" offset="1"/></linearGradient><path d="M22.19 58.09l-.23-1.47c-.1-.66.31-1.29.93-1.43 2.2-.48 7.4-1.79 13.43-4.5 5.28-2.37 9.22-4.78 10.94-5.9.54-.35 1.25-.18 1.61.38l.79 1.24a1.3 1.3 0 0 1-.36 1.77c-1.82 1.18-5.92 3.69-11.47 6.19-6.43 2.89-11.88 4.25-14.21 4.75-.68.15-1.32-.33-1.43-1.03z" fill="url(#k)"/><path d="M47.87 45.61c.05 0 .11.04.15.1l.79 1.24c.08.13.05.32-.06.39-1.9 1.24-5.91 3.67-11.34 6.12-6.44 2.9-11.95 4.24-14.04 4.69-.07 0-.16-.08-.18-.21l-.23-1.47c-.02-.15.06-.28.15-.3 2.03-.44 7.43-1.78 13.62-4.56 5.27-2.37 9.2-4.75 11.07-5.97a.09.09 0 0 1 .07-.03m0-1c-.21 0-.42.06-.61.18-1.72 1.11-5.66 3.52-10.94 5.9-6.02 2.71-11.23 4.02-13.43 4.5-.62.14-1.03.76-.93 1.43l.23 1.47c.1.62.6 1.06 1.17 1.06.08 0 .16-.01.24-.03 2.34-.5 7.79-1.86 14.21-4.75 5.56-2.5 9.65-5.01 11.47-6.19.57-.37.74-1.17.36-1.77l-.79-1.24c-.22-.36-.6-.56-.98-.56z" fill="#212121" opacity=".2"/><linearGradient id="l" x1="62.586" x2="94.747" y1="37.411" y2="8.387" gradientUnits="userSpaceOnUse"><stop stop-color="#BDBDBD" offset=".154"/><stop stop-color="#E0E0E0" offset=".517"/><stop stop-color="#BDBDBD" offset=".872"/><stop stop-color="#9E9E9E" offset="1"/></linearGradient><path d="M100.32 4.01h-.01L86.69 4c-1.51.18-3.04.32-5.89 3.46-2.31 2.55-24.05 24.61-31.4 32.58 0 0 .29 1.66 1.51 3.53 0 0-1.01.85-2.13 1.48l.42.72 32.55-34.32c1.01-1.11 1.61-2.19 3.12-2.22l8.63.18c.78-.01 1.19.93.65 1.49L48.6 58.09c-1.13 1.05-1.19 2.49-.16 3.4 1.11.89 2.6.17 3.23-.62 5.89-7.38 41.46-43.09 50.5-53.87.88-1.05-.49-3.14-1.85-2.99z" fill="url(#l)"/><linearGradient id="m" x1="92.665" x2="92.665" y1="8.986" y2="4.338" gradientUnits="userSpaceOnUse"><stop stop-color="#6D473B" offset=".118"/><stop stop-color="#8D6E63" offset=".788"/></linearGradient><path d="M100.44 4.01h-.01L86.69 4c-3.31.45-4.33 5.41-3.56 5.39l11.41.23s1.73-3.13 3.58-4.09c.88-.45 2.95-1.19 4.32.5l-.31-.92c.01.01-.59-1.23-1.69-1.1z" fill="url(#m)"/><path d="M100.46 4c-.05 0-.09 0-.14.01h-.01L86.79 4c-1.51.18-3.04.32-5.89 3.46-2.04 2.26-21.92 22.5-31.52 32.6.07.23.19.61.33 1C59.96 30.26 79.68 10.3 81.65 8.14c2.55-2.82 3.84-2.97 5.2-3.13l13.45.01h.1l.06-.02c.25 0 .66.31.87.76.12.25.14.5.06.6-4.68 5.6-16.41 17.82-27.76 29.64-10.22 10.65-19.87 20.7-22.74 24.24-.45.55-.91.67-1.23.67-.31 0-.5-.11-.54-.16-.55-.51-.47-1.25.2-1.97L94.87 11.6c.53-.54.67-1.34.38-2.04s-.97-1.15-1.74-1.15l-8.78-.05c-1.69.03-2.57 1.07-3.35 1.98-.15.18-.31.37-.49.56L50.48 42.8l.43.76s-1.13.87-1.67 1.18c-.16.09-.44.28-.46.3s.42.72.42.72l32.42-34.19c1.01-1.11 1.61-2.19 3.12-2.22l8.76.05h.02c.77 0 1.17.93.63 1.49L48.6 58.09c-1.19 1.28-.99 2.62-.16 3.4.26.25.71.42 1.23.42.64 0 1.38-.28 2-1.04 5.95-7.34 41.46-43.09 50.5-53.87.85-1.01-.39-3-1.71-3z" fill="#212121" opacity=".2"/><linearGradient id="n" x1="50.661" x2="54.413" y1="53.672" y2="57.424" gradientUnits="userSpaceOnUse"><stop stop-color="#6D473B" offset=".118"/><stop stop-color="#8D6E63" offset=".788"/></linearGradient><path d="M57.5 56.98l-3.22 3.84-4.1-4.1a.881.881 0 0 1 0-1.24l2.29-2.29c.34-.34.9-.34 1.24 0l3.79 3.79z" fill="url(#n)"/><path d="M54.46 60.32l-3.65-3.65c-.32-.32-.35-.8-.08-1.08l1.84-1.84c.28-.28.76-.24 1.08.08l3.37 3.37" fill="none" opacity=".2" stroke="#212121" stroke-linecap="round" stroke-miterlimit="10"/></svg>