<svg viewBox="0 0 128 128" width="128" height="128" xmlns="http://www.w3.org/2000/svg"><path d="M31.26 10.84c9.35 0 19.52 6.81 20.49 17.83 1.87 21.08-19.79 19.52-26.97 31.98-3.97 6.88-4.64 16.4-1.61 24.34 1.75-4.75 10.86-6.21 22.61-6.21 18.91 0 44.67 3.79 57.65 3.79.73 0 1.43-.01 2.07-.04-1.52 3.38-5.49 4.71-6.14 5.17 2.11 1.11 4.09 1.53 5.89 1.53 5.48 0 9.2-3.88 9.26-3.89-.51 5.22-5.53 9.89-11.47 10.4 1.66 1.68 3.74 2.3 5.85 2.3 1.53 0 3.08-.33 4.52-.81 2.7-.92 5.42-2.89 7.93-5.57.27 12.85-17.56 26.71-39.33 28.04-7.02.43-19.52 1.47-31.41 1.47-10.82 0-21.13-.86-26.34-3.82C12.91 110.89 6.37 98.19 6.7 83.96c.77-32.61 19.66-32.42 32.66-46.82 4.45-4.92.99-14.4-5.64-14.4-.86 0-1.78.16-2.74.51-4.45 1.63-7.97 6.43-8.13 6.52-.33.2-.65.37-.97.51-.08.1-.19.19-.35.29-.36.34-.72.58-1.06.75-.12.22.05.03-.18.48-1.85 3.52-8.8 7.99-12.07 7.99-.58 0-1.05-.14-1.35-.45-1.18-2.4 2.51-3.35 6.18-8.26 1.04-1.91 1.95-3.4 1.84-3.74-.54-1.97-.66-4.24.93-5.26.01 0 .02.01.03.01.14-.45.31-.9.51-1.35 2.25-4.9 7.48-9.83 14.69-9.9h.21m0-2h-.2c-8.46.08-14.17 6.01-16.49 11.06-.14.3-.26.61-.38.93-1.07.96-2.19 2.86-1.34 6.48-.2.41-.57 1.08-.89 1.64-.18.33-.37.67-.57 1.03-1.35 1.77-2.71 3-3.8 3.98-1.81 1.62-3.85 3.46-2.49 6.25.09.19.21.36.36.51.47.49 1.33 1.07 2.79 1.07 4.08 0 11.71-4.99 13.84-9.06.01-.01.01-.03.02-.04.23-.16.46-.34.68-.53.1-.07.19-.14.27-.21.3-.15.58-.3.86-.48.3-.18.45-.37.73-.7 2.45-2.93 4.82-4.84 7.04-5.65.7-.26 1.39-.39 2.05-.39 2.07 0 3.91 1.37 4.93 3.66.97 2.18 1.1 5.31-.78 7.4-3.64 4.03-7.86 6.94-11.94 9.75C15.78 52.55 5.27 59.8 4.7 83.91c-.35 14.98 6.76 28.46 18.56 35.17 4.83 2.75 13.77 4.08 27.32 4.08 9.67 0 19.65-.68 26.94-1.17 1.7-.12 3.25-.22 4.59-.3 10.72-.66 21.02-4.24 28.99-10.09 7.91-5.8 12.36-13.09 12.22-19.99-.02-.81-.53-1.54-1.29-1.83a1.94 1.94 0 0 0-.71-.13c-.54 0-1.08.22-1.46.64-2.34 2.51-4.8 4.25-7.11 5.04-1.36.46-2.65.7-3.83.71 4.12-2.17 7.13-6.11 7.56-10.5a1.99 1.99 0 0 0-.63-1.66 1.982 1.982 0 0 0-1.7-.51c-.58.1-.92.41-1.1.58-1.08.99-3.99 3.28-7.82 3.28-.35 0-.7-.02-1.05-.06 1.19-.92 2.37-2.16 3.12-3.81a2.005 2.005 0 0 0-1.83-2.82h-.08c-.61.02-1.28.04-2 .04-5.79 0-14.4-.79-23.51-1.62-11.11-1.02-23.71-2.17-34.14-2.17-11.09 0-18.11 1.26-21.8 4.02-1.49-6.53-.6-13.73 2.53-19.15 2.47-4.28 6.95-6.79 11.69-9.44 7.88-4.41 16.81-9.4 15.54-23.72-.5-5.64-3.29-10.77-7.85-14.43-4.09-3.33-9.42-5.23-14.59-5.23z" fill="#98C7E3"/><linearGradient id="a" x1="64.012" x2="64.012" y1="17.989" y2="122.26" gradientUnits="userSpaceOnUse"><stop stop-color="#fff" offset=".124"/><stop stop-color="#FCFDFE" offset=".397"/><stop stop-color="#F2F8FC" offset=".619"/><stop stop-color="#E1EFF7" offset=".822"/><stop stop-color="#CBE4F2" offset=".999"/></linearGradient><path d="M31.08 10.84c9.4-.09 19.69 6.73 20.67 17.83 1.87 21.08-19.79 19.52-26.97 31.98-3.97 6.88-4.64 16.4-1.61 24.34 4.73-12.81 63.07-1.7 82.34-2.46-1.52 3.38-5.49 4.71-6.14 5.17 8.53 4.48 15.07-2.35 15.15-2.36-.51 5.22-5.53 9.89-11.47 10.4 2.86 2.89 6.95 2.66 10.37 1.49 2.7-.92 5.42-2.89 7.93-5.57.27 12.85-17.56 26.71-39.33 28.04-13.42.82-46.81 3.86-57.74-2.35C12.91 110.89 6.37 98.19 6.7 83.96c.77-32.61 19.66-32.42 32.66-46.82 5.02-5.57-.05-16.94-8.37-13.89-4.45 1.63-7.97 6.43-8.13 6.52-6.15 3.77-9.16-3.18-6.47-9.04 2.25-4.89 7.48-9.83 14.69-9.89z" clip-rule="evenodd" fill="url(#a)" fill-rule="evenodd"/><path d="M24.91 20.75c-.51.54-1.21 1.28-1.22 1.41-.15 3.18-3.33.64-2.71 5.63.33 1.07 1.89 1.99.57 2.8-2.77 2.55-5.01.1-6.32-2.24-.76-2.14-1.26-5.06.62-6.26.4-.05 1.07.48 1.63.66 1.15.56 1.91.87 2.37.72 1.28-.41-.04-2.69 3.06-2.09.12.02.9.35 1.41-.19l.59-.44z" clip-rule="evenodd" fill="#1A1A1A" fill-rule="evenodd"/><path d="M21.82 22.01c-.25.02-.6.74-.04.7.13-.01.23-.71.04-.7z" clip-rule="evenodd" fill="#fff" fill-rule="evenodd"/><path d="M14.91 27.34c.11.34-.8 1.83-1.84 3.74-3.68 4.91-7.36 5.86-6.18 8.26 1.99 2.07 11.24-3.39 13.42-7.53.24-.46.04-.24.2-.5.07-1.27-1.44-.57-2.72-.94-.96-.28-2.35-3.81-2.88-3.03z" clip-rule="evenodd" fill="#FFA8A8" fill-rule="evenodd"/><path d="M115.48 66.87c-22.65-13.65-51.7-5.86-74.14 4.04-1.71.76-3.42 1.53-5.11 2.33-4.05 1.9-11.75 4.91-12.29 10.11-.24 2.29 1.13 4.43 2.66 6.15 5.79 6.51 14.25 8.95 22.48 10.72 7.92 1.71 16.06 2.72 24.16 2.8 5.46.06 24.88-.13 20.33-10.47 13.5.25 19.28-5.71 10.11-12.33 2.77 2 12.94.29 15.64-1.21.8-.44 1.56-1.03 1.98-1.85 1.75-3.43-3.14-8.68-5.82-10.29z" fill="#F8FCFF" stroke="#98C7E3" stroke-linejoin="round" stroke-miterlimit="10" stroke-width="2.196"/><path d="M89.42 62.02c5.93 2.66 9.83 8.52-17.14 10.63 21.45.71 13.85 6.1-4.65 7.36 24.42 3.97-11.21 9.89-30.74 9.09 5.17 1.84 47.44 1.31 41.85-8.13 9.22-1.41 12.96-5.74 6.49-8.74 20.38-2.28 9.84-9.63 4.19-10.21z" fill="#98C7E3"/></svg>