<svg viewBox="0 0 128 128" width="128" height="128" xmlns="http://www.w3.org/2000/svg"><linearGradient id="a" x1="64.074" x2="64.074" y1="19.743" y2="107.8" gradientUnits="userSpaceOnUse"><stop stop-color="#FEE133" offset=".5"/><stop stop-color="#FEDE32" offset=".612"/><stop stop-color="#FCD32F" offset=".708"/><stop stop-color="#FAC12B" offset=".797"/><stop stop-color="#F7A924" offset=".883"/><stop stop-color="#F6A323" offset=".9"/></linearGradient><path d="M64.07 120c-27.96 0-58.05-17.5-58.05-55.94 0-38.43 30.09-55.94 58.05-55.94 15.49 0 29.84 5.13 40.39 14.44 11.55 10.19 17.66 24.54 17.66 41.5 0 16.88-6.11 31.2-17.66 41.42C93.88 114.85 79.54 120 64.07 120z" fill="url(#a)"/><path d="M64.07 10.12c15.01 0 28.88 4.95 39.07 13.94 11.11 9.8 16.98 23.63 16.98 40 0 16.29-5.87 30.09-16.98 39.92C92.92 113.02 79.05 118 64.07 118c-15.05 0-28.93-4.91-39.07-13.83C13.9 94.41 8.03 80.54 8.03 64.06c0-16.55 5.87-30.45 16.97-40.18 10.12-8.87 23.99-13.76 39.07-13.76m0-4C32.9 6.12 4.03 26.14 4.03 64.06 4.03 101.78 32.9 122 64.07 122c31.18 0 60.05-20.74 60.05-57.94 0-37.4-28.87-57.94-60.05-57.94z" fill="#EB8F00"/><radialGradient id="b" cx="25.701" cy="61.378" r="19.444" gradientTransform="matrix(.9791 0 0 .9301 2.087 5.741)" gradientUnits="userSpaceOnUse"><stop stop-color="#ED7770" offset="0"/><stop stop-color="#ED7770" stop-opacity="0" offset=".9"/></radialGradient><circle cx="27.25" cy="62.83" r="17.5" fill="url(#b)" opacity=".8"/><radialGradient id="c" cx="100.77" cy="61.378" r="19.444" gradientTransform="matrix(.9791 0 0 .9301 2.087 5.741)" gradientUnits="userSpaceOnUse"><stop stop-color="#ED7770" offset="0"/><stop stop-color="#ED7770" stop-opacity="0" offset=".9"/></radialGradient><circle cx="100.75" cy="62.83" r="17.5" fill="url(#c)" opacity=".8"/><path d="M100.69 65.04C90.42 71 77.74 74.53 64 74.53S37.58 71 27.31 65.04c-1.89-1.09-3.87 1.27-2.46 2.92 9.3 10.87 23.38 17.8 39.15 17.8s29.85-6.93 39.15-17.8c1.42-1.66-.57-4.02-2.46-2.92z" fill="#242424"/><g fill="#242424"><path d="M49.56 44.12s-.05-.07-.16-.2l-.42-.54c-.15-.16-.33-.35-.54-.57-.21-.24-.47-.49-.73-.75-.27-.25-.55-.51-.84-.72-.28-.23-.59-.4-.84-.54-.26-.16-.5-.2-.65-.25-.08-.03-.15-.03-.21-.04-.03.01-.06-.01-.09 0l-.04.01h-.03c.12 0-.27.01.27-.01l-.55.02c-.14 0-.05.01-.04.01.03 0 .05 0 .07-.01.08-.03 0 0-.02 0a.26.26 0 0 0-.11.03c-.16.05-.4.09-.65.25-.25.14-.56.31-.84.54-.28.22-.57.47-.84.72-.52.51-.98 1.02-1.3 1.39-.33.38-.51.6-.51.6l-.23.27c-1.37 1.6-3.89 1.87-5.62.61-1.18-.86-1.69-2.2-1.47-3.48 0 0 .07-.41.27-1.12.21-.71.56-1.72 1.25-2.91.69-1.18 1.69-2.57 3.38-3.84.83-.62 1.84-1.24 3.04-1.66.29-.11.6-.21.92-.29.33-.08.59-.17 1.04-.23l.62-.09c.19-.02.47-.05.51-.05l.55-.04.31-.01h.09l.13.01.26.01.51.03c.34.03.67.09 1 .14.65.12 1.3.29 1.89.51a11.1 11.1 0 0 1 3.04 1.66c1.69 1.27 2.69 2.66 3.38 3.84.35.59.61 1.15.8 1.64.21.47.36.97.48 1.34.11.36.11.55.16.72.03.16.04.25.04.25.37 2.02-1.12 3.93-3.31 4.26-1.59.25-3.1-.39-3.97-1.51zM87.06 44.12s-.05-.07-.16-.2l-.42-.54c-.15-.16-.33-.35-.54-.57-.21-.24-.47-.49-.73-.75-.27-.25-.55-.51-.84-.72-.28-.23-.59-.4-.84-.54-.26-.16-.5-.2-.65-.25-.08-.03-.15-.03-.21-.04-.03.01-.06-.01-.09 0l-.04.01h-.04c.12 0-.27.01.27-.01l-.55.02c-.14 0-.05.01-.04.01.03 0 .05 0 .07-.01.08-.03 0 0-.02 0a.26.26 0 0 0-.11.03c-.16.05-.4.09-.65.25-.25.14-.56.31-.84.54-.28.22-.57.47-.84.72-.52.51-.98 1.02-1.3 1.39-.33.38-.51.6-.51.6l-.23.27c-1.37 1.6-3.89 1.87-5.62.61-1.18-.86-1.69-2.2-1.47-3.48 0 0 .07-.41.27-1.12.21-.71.56-1.72 1.25-2.91.69-1.18 1.69-2.57 3.38-3.84.83-.62 1.84-1.24 3.04-1.66.29-.11.6-.21.92-.29.33-.08.59-.17 1.04-.23l.62-.09c.19-.02.47-.05.51-.05l.55-.04.31-.01h.09l.13.01.26.01.51.03c.34.03.67.09 1 .14.65.12 1.3.29 1.89.51a11.1 11.1 0 0 1 3.04 1.66c1.69 1.27 2.69 2.66 3.38 3.84.35.59.61 1.15.8 1.64.21.47.36.97.48 1.34.11.36.11.55.16.72.03.16.04.25.04.25.37 2.02-1.12 3.93-3.31 4.26-1.59.25-3.1-.39-3.96-1.51z"/></g><path d="M88.42 121.72c-1.15-2.01-11.26-20.36-5.15-30.95 1.71-2.96 4.93-4.8 8.42-4.8 1.71 0 3.37.46 4.81 1.33 3.07 1.78 4.95 5.02 4.93 8.47l-.01 3.44 3-1.69a9.81 9.81 0 0 1 4.82-1.25c1.73 0 3.42.45 4.87 1.31 2.27 1.33 3.89 3.43 4.57 5.93s.34 5.1-.95 7.32c-6.1 10.59-26.76 10.89-29.1 10.89h-.21z" fill="#CC1775"/><path d="M91.69 87.97c1.34 0 2.65.36 3.77 1.04l.06.04c2.45 1.42 3.91 3.93 3.9 6.72l-.02 6.88 5.99-3.38c1.15-.65 2.48-.99 3.84-.99 1.38 0 2.71.36 3.87 1.04 1.81 1.06 3.1 2.73 3.64 4.73.54 1.98.27 4.04-.75 5.81-2.74 4.75-9.12 7.15-13.99 8.32-5.15 1.24-10.08 1.5-12.41 1.55-2.32-4.32-9.6-19.26-4.59-27.94 1.36-2.37 3.92-3.82 6.69-3.82m0-4c-4.03 0-8.01 2.1-10.15 5.8-7.02 12.18 4.78 32.33 5.29 33.18.16.25.38.46.64.59.21.1.44.17.68.17h.5c3.58 0 24.26-.5 30.82-11.89 1.56-2.68 1.97-5.82 1.15-8.85s-2.77-5.55-5.49-7.14c-1.82-1.07-3.86-1.58-5.89-1.58s-4.05.52-5.81 1.51c.01-4.06-2.11-7.99-5.9-10.19-1.81-1.08-3.84-1.6-5.84-1.6z" fill="#B3005C"/><path d="M111.15 39.48c-2.24-.61-22.59-6.5-25.8-18.44-.67-2.49-.28-5.21 1.06-7.48s3.44-3.85 5.92-4.46c.89-.24 1.77-.35 2.64-.35 2.63 0 5.1 1.02 6.95 2.88l2.42 2.44.92-3.31c.93-3.33 3.67-6.04 6.98-6.9a9.911 9.911 0 0 1 7.52.98c2.28 1.31 3.9 3.41 4.56 5.92 3.21 11.93-11.44 27-13.17 28.72z" fill="#CC1775"/><path d="M114.84 5.52c1.37 0 2.72.36 3.92 1.05a7.625 7.625 0 0 1 3.62 4.71c2.64 9.81-8.44 22.39-11.83 25.95-4.72-1.42-20.64-6.9-23.27-16.7-.53-1.97-.22-4.14.85-5.94 1.06-1.8 2.72-3.06 4.68-3.54l.08-.02a8.28 8.28 0 0 1 2.09-.28c2.07 0 4.08.84 5.53 2.29l4.85 4.88 1.84-6.63c.74-2.66 2.92-4.81 5.56-5.5a8.19 8.19 0 0 1 2.08-.27m0-4c-1.03 0-2.07.13-3.1.4-4.13 1.08-7.31 4.38-8.4 8.3-2.18-2.2-5.18-3.47-8.37-3.47-1.03 0-2.07.13-3.12.41-6.27 1.54-10.11 8.16-8.43 14.4 3.68 13.71 26.5 19.67 27.46 19.92a1.695 1.695 0 0 0 .88-.04c.22-.07.43-.19.61-.36.72-.69 17.58-17.1 13.88-30.85-.8-3.03-2.75-5.56-5.5-7.14a11.912 11.912 0 0 0-5.91-1.57z" fill="#B3005C"/><path d="M33.95 97.7c-2.33-.16-23.23-1.86-28.7-12.83-1.14-2.28-1.3-5-.45-7.47s2.58-4.42 4.87-5.5c1.43-.71 2.91-1.06 4.43-1.06 1.92 0 3.78.56 5.37 1.63l2.86 1.91.24-3.43c.24-3.41 2.37-6.58 5.41-8.07 1.4-.69 2.87-1.04 4.39-1.04 1.05 0 2.09.17 3.1.5 2.47.82 4.45 2.54 5.59 4.84 5.48 10.96-5.75 28.47-7.11 30.52z" fill="#CC1775"/><path d="M32.39 63.85c.83 0 1.66.14 2.47.4 1.96.65 3.53 2.01 4.43 3.85 4.49 8.99-3.77 23.37-6.37 27.52-4.89-.46-21.4-2.65-25.88-11.63-.9-1.8-1.03-3.96-.35-5.92.68-1.95 2.04-3.5 3.83-4.34l.06-.04c1.12-.55 2.3-.83 3.51-.83 1.53 0 3 .45 4.26 1.29l5.72 3.82.49-6.86c.19-2.72 1.88-5.23 4.31-6.42 1.13-.57 2.31-.84 3.52-.84m0-4c-1.8 0-3.6.42-5.27 1.24-3.81 1.86-6.24 5.7-6.53 9.72a11.644 11.644 0 0 0-6.48-1.96c-1.77 0-3.58.4-5.29 1.25C3.03 72.83.6 80.03 3.46 85.77c6.28 12.6 29.64 13.9 30.63 13.94h.05c.28 0 .56-.07.8-.21.2-.11.38-.27.52-.47.56-.82 13.71-20.09 7.4-32.73a11.511 11.511 0 0 0-6.75-5.86c-1.22-.39-2.47-.59-3.72-.59z" fill="#B3005C"/></svg>