<svg viewBox="0 0 128 128" width="128" height="128" xmlns="http://www.w3.org/2000/svg" xmlns:xlink="http://www.w3.org/1999/xlink"><linearGradient id="a" x1="41.631" x2="80.921" y1="87.79" y2="87.79" gradientTransform="rotate(-40.531 50.086 62.626)" gradientUnits="userSpaceOnUse"><stop stop-color="#E32012" offset=".002"/><stop stop-color="#FF2414" offset=".286"/><stop stop-color="#B81A0F" offset=".997"/></linearGradient><path d="M25.86 43.9l66.69 78c2.76 3.22 11.68.12 19.92-6.93 8.25-7.05 12.7-15.38 9.94-18.6l-66.69-78L25.86 43.9z" fill="url(#a)"/><ellipse transform="rotate(-40.531 40.782 31.128)" cx="40.79" cy="31.13" rx="19.64" ry="7.68" fill="#C41C10"/><ellipse transform="rotate(-40.531 40.782 31.128)" cx="40.79" cy="31.13" rx="17.03" ry="6.66" fill="#AD190E"/><path d="M41.3 31.74c-.46.4-1.16.34-1.56-.12-3.41-3.98-7.33-7.69-12.97-7.85a1.106 1.106 0 0 1 .07-2.21c6.52.19 11.03 4.47 14.59 8.63.39.45.34 1.15-.13 1.55z" fill="#1A1A1A"/><path d="M52.39 20.09c.78 0 1.09.18 1.13.22l66.69 78c.12.14.4 1.49-1.21 4.5-1.68 3.15-4.74 6.74-8.4 9.87-6.05 5.17-11.67 7.48-14.55 7.48-.79 0-1.1-.18-1.14-.22l-66.69-78c-.62-.73.76-6.28 8.33-13.24.27-.25.49-.54.65-.86.34-.12.66-.3.95-.54 5.94-4.98 11.43-7.21 14.24-7.21m0-3c-4 0-10.23 2.94-16.17 7.92-2.59-1.95-5.63-3.36-9.3-3.47h-.03c-.6 0-1.09.47-1.11 1.08s.46 1.12 1.07 1.14c2.97.09 5.47 1.16 7.67 2.74-7.36 6.77-11.18 14.35-8.58 17.39l66.69 78c.74.86 1.92 1.27 3.42 1.27 4.08 0 10.47-3.04 16.5-8.2 8.25-7.05 12.7-15.38 9.94-18.6l-66.69-78c-.74-.86-1.92-1.27-3.41-1.27z" fill="#424242" opacity=".2"/><defs><path id="b" d="M25.86 43.9l66.69 78c2.76 3.22 11.68.12 19.92-6.93 8.25-7.05 12.7-15.38 9.94-18.6l-66.69-78L25.86 43.9z"/></defs><clipPath id="c"><use xlink:href="#b"/></clipPath><path d="M118.52 90.46c.98 2.98-2.22 11.85-10.9 19.27-8.67 7.42-17.94 9.2-20.73 7.77l-1.96 1.68c3.72 2.94 14.51.58 24.18-7.69s13.68-18.57 11.36-22.69l-1.95 1.66z" clip-path="url(#c)" fill="#fc0"/><path d="M114.81 85.38c2.17 3.1-2.13 13.11-10.92 20.62s-19.34 10.21-22.07 7.58l-.96.82c3.17 3.22 14.04.61 23.69-7.63s13.91-18.58 11.22-22.21l-.96.82zM63.69 25.45c1.49 2.69-2.91 10.68-12.1 18.53S33.83 54.94 31.4 53.05l-2.28 1.34c3.49 3.37 13.82-.1 23.91-8.73s15.05-18.22 12.27-22.2l-1.61 1.99z" clip-path="url(#c)" fill="#fc0"/><radialGradient id="d" cx="34.813" cy="12.249" r="17.965" gradientTransform="rotate(-27.183 49.415 28.888)" gradientUnits="userSpaceOnUse"><stop stop-color="#fff" offset="0"/><stop stop-color="#FFF7EF" offset=".132"/><stop stop-color="#FFE3C4" offset=".392"/><stop stop-color="#FFC280" offset=".751"/><stop stop-color="#FFA94D" offset="1"/></radialGradient><path fill="url(#d)" d="M46.85 24.11l-9.97 1.03 4.55 8.93-8.67-5.04-1.56 9.9-4.06-9.17-7.08 7.09 2.11-9.79-9.9 1.57 7.47-6.69-8.94-4.55 9.97-1.02-4.55-8.93 8.67 5.04 1.56-9.9 4.06 9.16 7.08-7.09-2.11 9.8 9.9-1.57-7.47 6.69z"/><circle cx="18.05" cy="4.65" r="1.28" fill="#C41C10"/><circle cx="32.43" cy="4.5" r="1.28" fill="#C41C10"/><circle cx="12.26" cy="30.75" r="1.28" fill="#C41C10"/><circle cx="22.19" cy="38.56" r="1.28" fill="#C41C10"/><circle cx="49.65" cy="25" r="1.28" fill="#FF2415"/><circle cx="7.59" cy="17.01" r="1.28" fill="#FF5015"/><path d="M43.21 6.3L37 12.27l5.26-6.82c.22-.28.62-.33.9-.12s.33.62.12.9c-.02.03-.04.05-.07.07zM50.45 17.05c-3.49.75-6.96 1.2-10.4 1.94 3.33-1.15 6.77-2.03 10.05-3.16h.01c.33-.12.7.06.81.4.12.33-.06.7-.4.81-.02-.01-.05 0-.07.01zM22.05 2.34c.63 2.49 1.06 4.99 1.69 7.46-1.03-2.33-1.88-4.74-2.89-7.05-.14-.32 0-.7.33-.84.32-.14.7 0 .84.33.01.03.03.06.03.1zM11.48 10.76l7.83 4.98-8.44-3.86c-.32-.15-.46-.53-.32-.85.15-.32.53-.46.85-.32.03.02.05.03.08.05zM8.03 23.41l9.81-1.35-9.52 2.59-.03.01a.652.652 0 0 1-.79-.45c-.09-.34.11-.69.45-.79.02 0 .05 0 .08-.01zM14.35 33.38l5.85-4.14-5.02 5.11c-.25.25-.65.26-.91.01s-.26-.65-.01-.91c.02-.02.06-.05.09-.07zM25.48 39.4L27 30.81l-.24 8.72c-.01.35-.3.63-.66.62a.639.639 0 0 1-.62-.66v-.09zM38.21 40.29l-4.54-10.1 5.67 9.51c.18.3.08.7-.22.88s-.7.08-.88-.22a.488.488 0 0 1-.03-.07z" fill="#FF7A0D"/><path d="M27.07 7.34l2.19 4.95c.18.41.55.7.99.79.08.02.17.02.25.02.36 0 .7-.14.96-.4l3.83-3.83-1.14 5.29c-.09.44.03.89.34 1.22.26.27.62.42.99.42.07 0 .14-.01.21-.02l5.35-.85-4.03 3.61a1.355 1.355 0 0 0 .29 2.22l4.83 2.46-5.39.55c-.45.05-.84.31-1.05.7s-.22.87-.02 1.27l2.46 4.82-4.68-2.72c-.21-.12-.45-.18-.68-.18a1.364 1.364 0 0 0-1.34 1.14l-.85 5.35-2.19-4.95c-.18-.41-.55-.7-.99-.79-.08-.02-.17-.02-.25-.02-.36 0-.7.14-.96.4l-3.83 3.83 1.14-5.29c.09-.44-.03-.89-.34-1.22-.26-.27-.62-.42-.99-.42-.07 0-.14.01-.21.02l-5.35.85 4.03-3.61a1.355 1.355 0 0 0-.29-2.22l-4.83-2.46 5.39-.55c.45-.05.84-.31 1.05-.7s.22-.87.02-1.27l-2.46-4.82 4.68 2.72c.21.12.45.18.68.18a1.364 1.364 0 0 0 1.34-1.14l.85-5.35m-.62-4.76l-1.56 9.9-8.67-5.03 4.55 8.93-9.97 1.02 8.93 4.55-7.47 6.69 9.9-1.57-2.11 9.8 7.08-7.09 4.05 9.17 1.56-9.9 8.67 5.03-4.55-8.93 9.97-1.02-8.93-4.55 7.47-6.69-9.9 1.57 2.11-9.8-7.08 7.09-4.05-9.17zm11.14 2.07z" fill="#424242" opacity=".2"/></svg>