<svg viewBox="0 0 128 128" width="128" height="128" xmlns="http://www.w3.org/2000/svg" xmlns:xlink="http://www.w3.org/1999/xlink"><path d="M120.79 73.29H7.21C5.44 73.29 4 71.85 4 70.08V57.37c0-1.77 1.44-3.21 3.21-3.21h113.58c1.77 0 3.21 1.44 3.21 3.21v12.71c0 1.77-1.44 3.21-3.21 3.21z" fill="#333"/><path d="M34.48 82.06H18.16c-6.07 0-11.03-4.96-11.03-11.03V57.96c0-6.07 4.96-11.03 11.03-11.03h16.31c6.07 0 11.03 4.96 11.03 11.03v13.07c.01 6.07-4.96 11.03-11.02 11.03zM109.84 82.06H93.52c-6.07 0-11.03-4.96-11.03-11.03V57.96c0-6.07 4.96-11.03 11.03-11.03h16.31c6.07 0 11.03 4.96 11.03 11.03v13.07c0 6.07-4.96 11.03-11.02 11.03z"/><path d="M109.08 44.61c-2.33-1.83-7.61-4.2-23.71-5.49-9.4-.75-18.53-.83-21.1-.84h-.55c-2.57.01-11.7.08-21.1.84-16.23 1.3-21.47 3.69-23.77 5.53-.97.55-2.25 1.65-3.3 3.81-1.54 3.17-2.2 7.88-1.96 14 .06 1.53.09 2.97.11 4.36.19 10.5.36 19.58 17.48 21.45 1.71.19 3.28.37 4.71.53 4.62.53 7.97.91 10.64.91 5 0 8.05-1.4 10.88-5.01 1.36-1.73 5.5-7.01 6.58-7.01s5.22 5.28 6.58 7.01c2.83 3.61 5.88 5.01 10.88 5.01 2.67 0 6.01-.38 10.63-.91 1.44-.16 3-.34 4.72-.53 17.12-1.87 17.29-10.94 17.48-21.45.03-1.4.05-2.84.11-4.36.51-12.6-2.98-16.59-5.31-17.85zm.24 17.74c-.51 12.86 1.4 19.86-13.75 21.51s-18.46 2.67-22.15-2.04c-4.66-5.95-6.87-8.3-9.42-8.3s-4.76 2.35-9.42 8.3c-3.69 4.71-7 3.69-22.15 2.04S19.19 75.2 18.68 62.35c-.51-12.86 3.44-14 3.44-14 5.8-5.33 37.26-5.59 41.63-5.6h.5c4.37.01 35.82.27 41.63 5.6 0 0 3.95 1.15 3.44 14z" fill="#546E7A"/><defs><path id="b" d="M105.88 48.35c-5.8-5.33-37.26-5.59-41.63-5.6h-.5c-4.37.01-35.82.27-41.63 5.6 0 0-3.95 1.15-3.44 14 .51 12.86-1.4 19.86 13.75 21.51s18.46 2.67 22.15-2.04c4.66-5.95 6.87-8.3 9.42-8.3s4.76 2.35 9.42 8.3c3.69 4.71 7 3.69 22.15 2.04s13.24-8.66 13.75-21.51-3.44-14-3.44-14z"/></defs><linearGradient id="a" x1="18.638" x2="109.36" y1="64" y2="64" gradientUnits="userSpaceOnUse"><stop stop-color="#ADD7FB" offset=".003"/><stop stop-color="#F7FCFF" offset=".486"/><stop stop-color="#F0F9FF" offset=".606"/><stop stop-color="#DDEFFD" offset=".78"/><stop stop-color="#BDDFFB" offset=".987"/><stop stop-color="#BBDEFB" offset="1"/></linearGradient><use fill="url(#a)" xlink:href="#b"/><clipPath id="c"><use xlink:href="#b"/></clipPath><path clip-path="url(#c)" fill="#E3F2FD" d="M34.77 94.51H12.11l28.11-59.33h22.66z"/><path clip-path="url(#c)" fill="#E3F2FD" opacity=".48" d="M48.99 94.51H43.3l28.11-59.33h5.69z"/><path clip-path="url(#c)" fill="#F2F2F2" opacity=".89" d="M78.59 94.51h-1.42l28.11-59.33h1.42z"/><path d="M64.27 41.28c2.55.01 11.57.08 20.86.83 11.77.94 19.2 2.58 22.09 4.85l.2.16.23.12c.36.2.92.62 1.51 1.51l.72 1.08 1.28.22c2.82.48 5.19 2.45 6.2 5.15l.73 1.96h2.71c.12 0 .21.09.21.21v12.71c0 .12-.09.21-.21.21h-2.59l-.5 2.38c-.7 3.33-3.55 5.93-6.93 6.33l-1.28.15-.77 1.03c-2.08 2.77-6.08 4.44-12.22 5.11-1.72.19-3.29.37-4.73.53-4.52.52-7.79.89-10.29.89-4.11 0-6.26-.97-8.52-3.87-5.47-6.98-7.03-8.15-8.94-8.15s-3.47 1.18-8.94 8.16c-2.26 2.89-4.41 3.86-8.52 3.86-2.5 0-5.77-.37-10.3-.89l-.06-.01c-1.42-.16-2.98-.34-4.67-.53-6.14-.67-10.14-2.34-12.22-5.11l-.77-1.03-1.31-.14c-3.38-.39-6.23-2.99-6.93-6.33l-.5-2.38h-2.6c-.12 0-.21-.09-.21-.21V57.37c0-.12.09-.21.21-.21h2.71l.73-1.96c1-2.7 3.38-4.67 6.2-5.15l1.27-.21.72-1.07c.58-.87 1.15-1.3 1.52-1.51l.2-.12.17-.14c2.87-2.29 10.31-3.94 22.13-4.88 9.3-.75 18.33-.82 20.86-.83l.55-.01m.01-3h-.55c-2.57.01-11.7.08-21.1.84-16.23 1.3-21.47 3.69-23.77 5.53-.74.42-1.65 1.16-2.52 2.44-3.93.66-7.16 3.41-8.52 7.06h-.61A3.229 3.229 0 0 0 4 57.37v12.71c0 1.77 1.44 3.21 3.21 3.21h.16c.97 4.58 4.8 8.14 9.52 8.69 2.4 3.19 6.66 5.46 14.3 6.29 1.71.19 3.28.37 4.71.53 4.62.53 7.97.91 10.64.91 5 0 8.05-1.4 10.88-5.01 1.36-1.73 5.5-7.01 6.58-7.01s5.22 5.28 6.58 7.01c2.83 3.61 5.88 5.01 10.88 5.01 2.67 0 6.01-.38 10.63-.91 1.44-.16 3-.34 4.72-.53 7.64-.83 11.9-3.11 14.3-6.3 4.72-.55 8.56-4.1 9.52-8.69h.16c1.77 0 3.21-1.44 3.21-3.21v-12.7c0-1.77-1.44-3.21-3.21-3.21h-.62c-1.35-3.65-4.58-6.4-8.51-7.06-.86-1.3-1.79-2.06-2.58-2.49-2.33-1.83-7.61-4.2-23.71-5.49-9.4-.75-18.52-.83-21.09-.84z" fill="#eee" opacity=".2"/></svg>