<svg viewBox="0 0 128 128" width="128" height="128" xmlns="http://www.w3.org/2000/svg"><path d="M107.06 18.39c-1.39-5.07-8.12-12.24-8.12-12.24s-.3.15-.49 3.12-1.16 6.89-3.43 8.73c-.77.63-1.82 1.43-2.96 2.45-.01-.06-.02-.12-.04-.18-.9-3.79.92-8.68 1.32-8.8s-.46-2.32-5.19 2.1-7.78 17.53-3.79 19.45c.01 0 .02.01.03.01-1.14 3.13-1.51 4.72-1.13 7.09.24 1.53.45 3.11.6 4.35-2.05.79-3.49 4.59-4.16 7.26-1.82-1.2-4.65.85-6.65 2.72-.55-2.03-1.13-3.74-1.69-5.06 1.15-.63 1.94-1.83 1.94-3.24 0-2.04-1.66-3.7-3.7-3.7-1.34 0-2.51.72-3.16 1.79-.04-.02-.08-.05-.12-.07 0-3.57.06-11.46.45-19.35.27-5.33.69-10.65 1.36-14.6.17-.99.34-1.89.54-2.67.19-.79.4-1.47.62-2.01.2-.55.45-.94.62-1.19.24-.22.34-.35.34-.35l-.32.35c-.19.25-.44.64-.66 1.18-.24.53-.46 1.21-.68 2-.22.78-.43 1.68-.62 2.67-.78 3.94-1.36 9.26-1.78 14.59-.59 7.46-.87 14.94-.99 18.75-.81-.43-1.38-.69-1.38-.69s-.89.41-2.05 1.06c-.11-3.69-.39-11.41-1-19.12-.42-5.33-1-10.65-1.78-14.59-.2-.98-.4-1.88-.62-2.67s-.44-1.46-.68-2c-.22-.54-.47-.93-.66-1.18-.2-.23-.32-.35-.32-.35s.11.13.31.36c.18.25.42.65.62 1.19.22.54.43 1.22.62 2.01.2.79.38 1.69.54 2.67.67 3.94 1.09 9.27 1.36 14.6.36 7.26.44 14.51.45 18.41-.62-.48-1.4-.78-2.25-.78-2.04 0-3.7 1.66-3.7 3.7 0 1.29.66 2.42 1.66 3.08-.55 1.28-1.13 2.97-1.68 4.96-1.98-1.79-4.64-3.6-6.37-2.46-.67-2.68-2.12-6.47-4.16-7.26.15-1.24.36-2.82.6-4.35.38-2.37.02-3.96-1.13-7.09.01 0 .02-.01.03-.01 3.99-1.92.94-15.03-3.79-19.45s-5.59-2.22-5.19-2.1 2.22 5.02 1.32 8.8c-.01.06-.02.12-.04.18-1.14-1.02-2.19-1.83-2.96-2.45-2.27-1.84-3.24-5.76-3.43-8.73s-.49-3.12-.49-3.12-6.73 7.18-8.12 12.24c-1.39 5.07 1.12 12.59 5.87 21.73 3.32 6.4 7.69 8.51 10.02 9.19-.18.46-.29.89-.31 1.26-.07 1.86 6.16 8.42 9.51 10.26.01.13.02.21.02.21s2.42 4 6.15 6.2c-.15 1.27-.27 2.55-.36 3.86-2.84-.17-7.54-.58-8.87-1.42-.49-.31-.72-.28-.78-.08-.67-.33-1.35-.72-1.87-1.13-1.52-1.19-2.21-3.55-2.59-4.1-.09-.14-.26-.17-.47-.14-.47-1.45-1.27-2.44-1.27-2.44s-.65-1.36-1.36-1.94c0-.01.01-.02.02-.03.56-1.49.94-3.05 1.14-4.63-.97.81-1.65 1.95-1.96 3.17-.09.36-.27 1.02-.22 1.49-.37.54 0 1.75 0 1.75s-.03-.21.34 1.38c.22.96 1.3 2.09 2.12 2.85.44 1.02 1.37 2.77 3.03 4.28 1.31 1.2 2.84 1.8 4.01 2.11l.12.22s3.72 1.4 8.48.72c-.03.51-.05 1.01-.07 1.51-2.49 1.03-5.51 2.14-6.75 2.03-.58-.05-.77.08-.73.29-.75.01-1.53-.02-2.18-.15-1.59-.31-3.04-1.61-3.81-2.21-.14-.32-.31-.63-.5-.92-.65-1-1.52-1.85-2.38-2.68-.2-.2-.42-.4-.69-.51a.751.751 0 0 0-.26-.05c-.33-1.36-.8-2.69-1.4-3.96-.38 1.21-.34 2.53.06 3.72.1.3.27.85.51 1.23.05.63.5 1.34.76 1.75.49.76 1.06 1.51 1.8 2.07.1.07.23.15.37.24-.1.16-.16.28-.16.28s2.05 2.16 5.35 3.04c1.72.46 3.35.31 4.53.05.12.09.21.14.21.14s2.33-.27 5.19-1.65c-.01.63-.01 1.24-.01 1.82-1.96 1.25-4.12 2.48-5.14 2.6-.54.06-.69.21-.63.4-.68.15-1.4.26-2.01.27-1.79.02-3.6-1.29-4.18-1.47-.1-.03-.19.01-.29.07-.31-.34-.66-.65-1.03-.92-.97-.7-2.08-1.18-3.19-1.65-.26-.11-.53-.23-.82-.22-.09 0-.17.02-.26.04a20.27 20.27 0 0 0-2.73-3.19c.08 1.26.59 2.48 1.39 3.46.2.25.56.7.92.97.28.57.95 1.07 1.34 1.35.73.53 1.53 1.03 2.43 1.28.26.07.69.14 1.14.19-.04.11-.07.2-.07.2s2.19 1.58 5.34 1.78c1.64.1 3.11-.34 4.15-.79.13.06.21.09.21.09s1.54-.5 3.51-1.76c.04.97.11 1.86.19 2.67-.32.37-.66.71-.99.98-1.45 1.19-3.78 1.32-4.37 1.55-.1.04-.15.13-.19.24-.48-.07-.96-.1-1.45-.07-1.25.07-2.47.41-3.68.75-.29.08-.58.17-.82.36-.07.06-.13.13-.18.2-1.41-.41-2.86-.69-4.32-.8.9.97 2.11 1.63 3.41 1.9.33.07.91.2 1.38.18.6.28 1.48.25 1.99.22.95-.05 1.92-.17 2.82-.55.26-.11.65-.35 1.05-.6l.07.21s2.82-.16 5.51-2.06c.04-.03.08-.06.11-.09.39 1.94.92 2.88 1.51 2.65.13.42.32.79.58 1.13-.21.55-.36 1.11-.39 1.68-.07 1.42.56 2.55 1.59 3.27-.43.8-.71 1.67-.75 2.56-.07 1.56.63 2.77 1.74 3.46-.62.95-1.03 2.08-1.08 3.22-.06 1.6.62 2.84 1.7 3.52-.36.16-.71.31-1 .42-1.92.73-3.83 1.56-5.6 2.6-.79.47-1.56.98-2.26 1.58-.52.45-1.29.98-1.46 1.71-.21.86.71 1.88 1.16 2.54 1.22 1.76 2.85 3.44 4.94 4.1.27.08.54.15.82.2.44.07.85.01 1.24-.16-.02.2-.01.38.05.5.72 1.49 8.16 2.38 8.37.94.12-.85-.19-4.34-.47-7.07.39.33.76.57 1.11.7.46.17.93.07 1.41-.23-.28 2.71-.58 6.11-.46 6.94.21 1.44 7.65.55 8.37-.93.04-.08.06-.2.06-.33.19.02.38.02.58-.01.28-.05.55-.11.82-.2 2.09-.66 3.72-2.34 4.94-4.1.45-.65 1.37-1.68 1.16-2.54-.18-.73-.94-1.26-1.46-1.72-.7-.6-1.47-1.11-2.26-1.58-1.77-1.05-3.67-1.88-5.6-2.6-.36-.13-.78-.33-1.23-.52 1.37-.58 2.28-1.94 2.2-3.77-.05-1.14-.45-2.27-1.08-3.22 1.11-.69 1.8-1.9 1.74-3.46-.04-.89-.32-1.76-.75-2.56 1.03-.72 1.66-1.85 1.59-3.27-.03-.57-.17-1.14-.39-1.68.25-.33.45-.7.57-1.1.52-.07.98-1.07 1.32-2.9.13.11.27.22.42.32 2.69 1.91 5.51 2.06 5.51 2.06l.07-.21c.4.25.8.48 1.05.6.9.38 1.87.5 2.82.55.51.03 1.39.06 1.99-.22.47.02 1.05-.11 1.38-.18 1.29-.26 2.51-.93 3.41-1.9-1.46.11-2.91.39-4.32.8a.697.697 0 0 0-.18-.2c-.24-.19-.53-.28-.82-.36-1.21-.34-2.43-.69-3.68-.75-.48-.03-.97 0-1.45.07-.04-.11-.09-.2-.19-.24-.59-.23-2.92-.36-4.37-1.55-.43-.36-.88-.84-1.3-1.34.07-.76.12-1.62.16-2.53 2.12 1.43 3.85 1.98 3.85 1.98s.08-.03.21-.09c1.04.45 2.52.89 4.15.79 3.15-.2 5.34-1.78 5.34-1.78s-.03-.08-.07-.2c.45-.05.88-.12 1.14-.19.89-.26 1.69-.75 2.43-1.28.39-.29 1.06-.79 1.34-1.35.36-.27.72-.72.92-.97.8-.97 1.31-2.19 1.39-3.46a20.27 20.27 0 0 0-2.73 3.19c-.09-.02-.17-.04-.26-.04-.29 0-.56.11-.82.22-1.1.47-2.22.95-3.19 1.65-.37.27-.72.58-1.03.92-.09-.06-.19-.1-.29-.07-.58.18-2.39 1.49-4.18 1.47-.61-.01-1.33-.12-2.01-.27.07-.19-.09-.34-.63-.4-1.08-.12-3.44-1.5-5.49-2.82 0-.57 0-1.16-.01-1.78 3.02 1.53 5.54 1.83 5.54 1.83s.08-.06.21-.14c1.18.26 2.82.41 4.53-.05 3.3-.89 5.35-3.04 5.35-3.04s-.06-.11-.16-.28c.15-.09.28-.17.37-.24.74-.56 1.31-1.31 1.8-2.07.26-.41.71-1.11.76-1.75.24-.38.41-.93.51-1.23.4-1.2.43-2.52.05-3.72-.61 1.26-1.07 2.6-1.4 3.96-.09.01-.18.02-.26.05-.27.1-.48.31-.69.51-.86.84-1.73 1.68-2.38 2.68-.19.29-.35.6-.5.92-.77.6-2.21 1.9-3.81 2.21-.65.13-1.43.16-2.18.15.04-.21-.15-.34-.73-.29-1.31.11-4.56-1.11-7.11-2.18l-.06-1.42c4.93.79 8.83-.67 8.83-.67l.12-.22c1.17-.31 2.69-.92 4.01-2.11 1.66-1.51 2.59-3.25 3.03-4.28.83-.76 1.9-1.89 2.12-2.85.37-1.59.34-1.38.34-1.38s.37-1.21 0-1.75c.05-.47-.13-1.14-.22-1.49a6.144 6.144 0 0 0-1.96-3.17c.19 1.58.58 3.14 1.14 4.63 0 .01.01.02.02.03-.71.58-1.36 1.94-1.36 1.94s-.8 1-1.27 2.44c-.21-.03-.38 0-.47.14-.37.55-1.07 2.91-2.59 4.1-.52.41-1.2.79-1.87 1.13-.06-.21-.29-.23-.78.08-1.39.87-6.44 1.28-9.22 1.44-.09-1.25-.21-2.48-.34-3.69 3.91-2.15 6.48-6.39 6.48-6.39s.01-.09.02-.21c3.35-1.84 9.58-8.39 9.51-10.26-.02-.37-.13-.8-.31-1.26 2.33-.69 6.7-2.79 10.02-9.19 4.83-9.14 7.35-16.66 5.95-21.73zM59.7 112c.03.04.05.08.08.12-.05.08-.11.16-.17.24l.09-.36z" fill="none" stroke="#AA1914" stroke-linecap="round" stroke-linejoin="round" stroke-miterlimit="10" stroke-width="3"/><linearGradient id="a" x1="67.694" x2="67.694" y1="4" y2="47.501" gradientUnits="userSpaceOnUse"><stop stop-color="#F0442D" offset="0"/><stop stop-color="#E92021" offset=".724"/><stop stop-color="#CE2021" offset=".975"/></linearGradient><path d="M65.13 46.15s.22-10.7 1.06-21.36c.42-5.33 1-10.65 1.78-14.59.2-.98.4-1.88.62-2.67s.44-1.46.68-2c.22-.54.47-.93.66-1.18l.32-.35s-.11.13-.31.36c-.18.25-.42.65-.62 1.19-.22.54-.43 1.22-.62 2.01-.2.79-.38 1.69-.54 2.67-.67 3.94-1.09 9.27-1.36 14.6-.54 10.66-.45 21.33-.45 21.33l-1.22-.01z" fill="url(#a)"/><linearGradient id="b" x1="59.276" x2="59.276" y1="4" y2="47.501" gradientUnits="userSpaceOnUse"><stop stop-color="#F0442D" offset="0"/><stop stop-color="#E92021" offset=".724"/><stop stop-color="#CE2021" offset=".975"/></linearGradient><path d="M61.84 46.15s-.22-10.7-1.06-21.36c-.42-5.33-1-10.65-1.78-14.59-.2-.98-.4-1.88-.62-2.67s-.44-1.46-.68-2c-.22-.54-.47-.93-.66-1.18-.21-.23-.33-.35-.33-.35s.11.13.31.36c.18.25.42.65.62 1.19.22.54.43 1.22.62 2.01.2.79.38 1.69.54 2.67.67 3.94 1.09 9.27 1.36 14.6.54 10.66.45 21.33.45 21.33l1.23-.01z" fill="url(#b)"/><path d="M36.08 75.3c-.74-.56-1.31-1.31-1.8-2.07-.39-.61-1.21-1.88-.5-2.57.21-.21.56-.23.83-.12.27.1.48.31.69.51.86.84 1.73 1.68 2.38 2.68.57.88.97 1.88.98 2.93 0 .03-1.95-.9-2.58-1.36z" fill="#EF2922"/><path d="M47.96 78.35s-3.02 1.4-6.32.51-5.35-3.04-5.35-3.04.93-1.75 1.51-1.43 2.28 2.1 4.18 2.47 4.96-.05 4.96-.05l1.02 1.54z" fill="#DE2021"/><path d="M55.45 73.01s-8.27 3.9-10.56 3.7 1.49 2.34 1.49 2.34 5-.57 9.35-4.39l-.28-1.65z" fill="#EB2A2A"/><path d="M32.95 66.53c.69 1.44 1.21 2.95 1.54 4.51.1.46-.09 1.14-.66.79-.41-.25-.68-1.16-.82-1.58a5.988 5.988 0 0 1-.06-3.72z" fill="#D42021"/><path d="M44.95 72.56s-3.33-.14-5.86-2.44-3.37-5.15-3.37-5.15 1.62-1.13 1.99-.58 1.07 2.91 2.59 4.1 4.43 2.22 4.43 2.22l.22 1.85z" fill="#DE2021"/><path d="M37.06 66.69s-2.74-2.1-3.11-3.69-.34-1.38-.34-1.38-.57-1.8.34-2c.9-.2 2.05 2.18 2.05 2.18s1.44 1.8 1.6 4.07c.14 2.28-.54.82-.54.82z" fill="#EF2922"/><path d="M54.05 71.23s-9.14-.31-11.09-1.53.26 2.76.26 2.76 4.71 1.78 10.33.37l.5-1.6z" fill="#EB2A2A"/><path d="M49.48 82.74s-2.56 1.82-5.71 1.62-5.34-1.78-5.34-1.78.59-1.76 1.17-1.57c.58.18 2.39 1.49 4.18 1.47s4.53-.96 4.53-.96l1.17 1.22z" fill="#DE2021"/><path d="M55.55 76.53s-7.01 5.06-9.13 5.3 1.71 1.84 1.71 1.84 4.49-1.44 7.92-5.7l-.5-1.44z" fill="#EB2A2A"/><path d="M35.78 55.2c-.19 1.58-.58 3.14-1.14 4.63-.16.44-.69.91-.99.31-.21-.43.05-1.34.16-1.77.32-1.22 1-2.36 1.97-3.17z" fill="#D42021"/><path d="M37.36 82.2c-.89-.26-1.69-.75-2.43-1.28-.59-.43-1.8-1.32-1.39-2.22.12-.27.44-.41.73-.41s.56.11.82.22c1.1.47 2.22.95 3.19 1.65.85.61 1.58 1.41 1.97 2.38.02.03-2.13-.13-2.89-.34z" fill="#EF2922"/><path d="M31.28 75.14c1.16 1.09 2.19 2.32 3.06 3.66.26.39.32 1.1-.33.98-.47-.08-1.05-.84-1.33-1.18-.81-.97-1.31-2.2-1.4-3.46z" fill="#D42021"/><path d="M55.64 82.01s-.89 3.17-3.58 5.08-5.51 2.06-5.51 2.06-.67-1.82-.08-2.05 2.92-.36 4.37-1.55 3.06-3.76 3.06-3.76l1.74.22z" fill="#EB2A2A"/><path d="M45.42 89.55c-.9.38-1.87.5-2.82.55-.76.04-2.33.11-2.59-.89-.08-.3.09-.63.33-.82s.53-.28.82-.36c1.21-.34 2.43-.69 3.68-.75 1.09-.06 2.21.1 3.17.64.02.01-1.84 1.3-2.59 1.63z" fill="#EF2922"/><path d="M35.83 87.79c1.66.13 3.31.45 4.89.97.47.15.99.68.37 1.02-.44.24-1.4.01-1.86-.08-1.29-.27-2.51-.93-3.4-1.91z" fill="#D42021"/><path d="M91.92 75.3c.74-.56 1.31-1.31 1.8-2.07.39-.61 1.21-1.88.5-2.57-.21-.21-.56-.23-.83-.12-.27.1-.48.31-.69.51-.86.84-1.73 1.68-2.38 2.68-.57.88-.97 1.88-.98 2.93 0 .03 1.95-.9 2.58-1.36z" fill="#EF2922"/><path d="M80.04 78.35s3.02 1.4 6.32.51 5.35-3.04 5.35-3.04-.93-1.75-1.51-1.43-2.28 2.1-4.18 2.47-4.96-.05-4.96-.05l-1.02 1.54z" fill="#DE2021"/><path d="M72.55 73.01s8.27 3.9 10.56 3.7-1.49 2.34-1.49 2.34-5-.57-9.35-4.39l.28-1.65z" fill="#EB2A2A"/><path d="M95.05 66.53c-.69 1.44-1.21 2.95-1.54 4.51-.1.46.09 1.14.66.79.41-.25.68-1.16.82-1.58.41-1.19.44-2.52.06-3.72z" fill="#D42021"/><path d="M83.05 72.56s3.33-.14 5.86-2.44 3.37-5.15 3.37-5.15-1.62-1.13-1.99-.58-1.07 2.91-2.59 4.1-4.43 2.22-4.43 2.22l-.22 1.85z" fill="#DE2021"/><path d="M90.94 66.69s2.74-2.1 3.11-3.69.34-1.38.34-1.38.57-1.8-.34-2c-.9-.2-2.05 2.18-2.05 2.18s-1.44 1.8-1.6 4.07c-.14 2.28.54.82.54.82z" fill="#EF2922"/><path d="M73.95 71.23s9.14-.31 11.09-1.53-.26 2.76-.26 2.76-4.71 1.78-10.33.37l-.5-1.6z" fill="#EB2A2A"/><path d="M78.52 82.74s2.56 1.82 5.71 1.62 5.34-1.78 5.34-1.78-.59-1.76-1.17-1.57c-.58.18-2.39 1.49-4.18 1.47s-4.53-.96-4.53-.96l-1.17 1.22z" fill="#DE2021"/><path d="M72.45 76.53s7.01 5.06 9.13 5.3-1.71 1.84-1.71 1.84-4.49-1.44-7.92-5.7l.5-1.44z" fill="#EB2A2A"/><path d="M92.22 55.2c.19 1.58.58 3.14 1.14 4.63.16.44.69.91.99.31.21-.43-.05-1.34-.16-1.77-.32-1.22-1-2.36-1.97-3.17z" fill="#D42021"/><path d="M90.64 82.2c.89-.26 1.69-.75 2.43-1.28.59-.43 1.8-1.32 1.39-2.22-.12-.27-.44-.41-.73-.41s-.56.11-.82.22c-1.1.47-2.22.95-3.19 1.65-.85.61-1.58 1.41-1.97 2.38-.02.03 2.13-.13 2.89-.34z" fill="#EF2922"/><path d="M96.72 75.14a19.888 19.888 0 0 0-3.06 3.66c-.26.39-.32 1.1.33.98.47-.08 1.05-.84 1.33-1.18.81-.97 1.31-2.2 1.4-3.46z" fill="#D42021"/><path d="M72.36 82.01s.89 3.17 3.58 5.08 5.51 2.06 5.51 2.06.67-1.82.08-2.05-2.92-.36-4.37-1.55-3.06-3.76-3.06-3.76l-1.74.22z" fill="#EB2A2A"/><path d="M82.58 89.55c.9.38 1.87.5 2.82.55.76.04 2.33.11 2.59-.89.08-.3-.09-.63-.33-.82s-.53-.28-.82-.36c-1.21-.34-2.43-.69-3.68-.75-1.09-.06-2.21.1-3.17.64-.02.01 1.84 1.3 2.59 1.63z" fill="#EF2922"/><path d="M92.17 87.79c-1.66.13-3.31.45-4.89.97-.47.15-.99.68-.37 1.02.44.24 1.4.01 1.86-.08 1.29-.27 2.51-.93 3.4-1.91z" fill="#D42021"/><path d="M65.78 112.73s-1.06 9.09-.85 10.54c.21 1.44 7.65.55 8.37-.93s-4.8-10.37-5.82-11.05c-1.02-.69-1.7 1.44-1.7 1.44z" fill="#88271A"/><path d="M68.54 108.26c.93 0 2.15.67 3 .99 1.92.73 3.83 1.56 5.6 2.6.79.47 1.56.98 2.26 1.58.52.45 1.29.98 1.46 1.72.21.86-.71 1.88-1.16 2.54-1.22 1.76-2.85 3.44-4.94 4.1-.27.08-.54.15-.82.2-4.5.76-6.63-12.62-6.63-12.62l1.23-1.11z" fill="#ED3528"/><path d="M62.49 112.38s1.06 9.09.85 10.54c-.21 1.44-7.65.55-8.37-.93-.72-1.49 4.8-10.37 5.82-11.05s1.7 1.44 1.7 1.44z" fill="#88271A"/><path d="M59.07 107.92c-.93 0-2.15.67-3 .99-1.92.73-3.83 1.56-5.6 2.6-.79.47-1.56.98-2.26 1.58-.52.45-1.29.98-1.46 1.72-.21.86.71 1.88 1.16 2.54 1.22 1.76 2.85 3.44 4.94 4.1.27.08.54.15.82.2 4.5.76 6.63-12.62 6.63-12.62l-1.23-1.11zM48.68 54.45c.36-.37-1.63-9.9-5.2-10.12-3.57-.23-6.87 4.03-6.96 6.25s8.8 11.13 11.06 10.74c2.26-.38 1.1-6.87 1.1-6.87z" fill="#ED3528"/><path d="M38.46 49.66s-6.91-.38-11.65-9.53c-4.75-9.15-7.26-16.67-5.87-21.73 1.39-5.07 8.12-12.24 8.12-12.24s.3.15.49 3.12 1.16 6.89 3.43 8.73 6.93 5.19 9.18 11.18 3.08 7.76 2.57 10.95c-.51 3.18-.86 6.63-.86 6.63l-5.41 2.89z" fill="#DB1F1F"/><path d="M37.11 26.79s-2.04-2.74-1.14-6.52c.9-3.79-.92-8.68-1.32-8.8s.46-2.32 5.19 2.1 7.78 17.53 3.79 19.45c-3.99 1.93-6.52-6.23-6.52-6.23z" fill="#BD1F1F"/><path d="M57.29 56.92s-6.03-7.3-9.07-5.15-2.17 9.28-2.17 9.28 4.75 7.88 11.19 7.61.05-11.74.05-11.74z" fill="#CD1B1D"/><path d="M79.32 54.45c-.36-.37 1.63-9.9 5.2-10.12 3.57-.23 6.87 4.03 6.96 6.25s-8.8 11.13-11.06 10.74c-2.26-.38-1.1-6.87-1.1-6.87z" fill="#ED3528"/><path d="M89.54 49.66s6.91-.38 11.65-9.53c4.75-9.15 7.26-16.67 5.87-21.73-1.39-5.07-8.12-12.24-8.12-12.24s-.3.15-.49 3.12-1.16 6.89-3.43 8.73-6.93 5.19-9.18 11.18-3.08 7.76-2.57 10.95c.51 3.18.86 6.63.86 6.63l5.41 2.89z" fill="#DB1F1F"/><path d="M90.89 26.79s2.04-2.74 1.14-6.52c-.9-3.79.92-8.68 1.32-8.8s-.46-2.32-5.19 2.1-7.78 17.53-3.79 19.45c3.99 1.93 6.52-6.23 6.52-6.23z" fill="#BD1F1F"/><path d="M70.71 56.92s6.03-7.3 9.07-5.15 2.17 9.28 2.17 9.28-4.75 7.88-11.19 7.61-.05-11.74-.05-11.74z" fill="#CD1B1D"/><linearGradient id="c" x1="63.946" x2="63.946" y1="106.83" y2="116.24" gradientUnits="userSpaceOnUse"><stop stop-color="#FF5842" offset="0"/><stop stop-color="#E92021" offset=".724"/><stop stop-color="#CE2021" offset=".975"/></linearGradient><path d="M57.11 107.2c-.1.51 4.15 8.33 6.87 9.35s6.12-7.65 6.8-9.35H57.11z" fill="url(#c)"/><path d="M69.15 92.41c-4.15-.38-6.25-.38-10.4 0-3.01.28-5.35-1.41-5.22-4.07s2.57-5.31 5.45-5.58c3.97-.36 5.98-.36 9.95 0 2.88.26 5.32 2.91 5.45 5.58.12 2.66-2.22 4.35-5.23 4.07z" fill="#AA271A"/><path d="M68.97 96.54c-4.01-.38-6.04-.38-10.05 0-2.91.28-5.17-1.41-5.04-4.07.12-2.66 2.48-5.31 5.27-5.58 3.84-.36 5.78-.36 9.61 0 2.78.26 5.14 2.91 5.27 5.58.11 2.66-2.15 4.34-5.06 4.07z" fill="#CD1B1D"/><linearGradient id="d" x1="63.946" x2="63.946" y1="93" y2="101.51" gradientUnits="userSpaceOnUse"><stop stop-color="#F0442D" offset="0"/><stop stop-color="#E92021" offset=".724"/><stop stop-color="#CE2021" offset=".975"/></linearGradient><path d="M68.55 102.36c-3.68-.38-5.54-.38-9.21 0-2.67.28-4.74-1.41-4.62-4.07.11-2.66 2.27-5.31 4.83-5.58 3.52-.36 5.29-.36 8.81 0 2.55.26 4.71 2.91 4.83 5.58.1 2.66-1.97 4.35-4.64 4.07z" fill="url(#d)"/><path d="M68.22 109.04c-3.41-.38-5.14-.38-8.55 0-2.48.28-4.4-1.41-4.29-4.07s2.11-5.31 4.48-5.58c3.26-.36 4.91-.36 8.18 0 2.37.26 4.37 2.91 4.48 5.58.1 2.66-1.82 4.35-4.3 4.07z" fill="#CD1B1D"/><linearGradient id="e" x1="63.826" x2="63.826" y1="43.329" y2="80.863" gradientUnits="userSpaceOnUse"><stop stop-color="#FC4D35" offset="0"/><stop stop-color="#E92021" offset=".599"/><stop stop-color="#B01B1C" offset=".977"/></linearGradient><path d="M75.93 72.85c-.67-12.4-3.9-23.8-5.97-25.98s-6.13-4.02-6.13-4.02-4.06 1.84-6.13 4.02-5.3 13.57-5.97 25.98c-.67 12.4.84 18.94 2.52 16.26.53-.84 1.66-1.54 2.97-2.12 4.19-1.84 9.03-1.84 13.23 0 1.31.58 2.44 1.28 2.97 2.12 1.67 2.68 3.18-3.85 2.51-16.26z" fill="url(#e)"/><circle cx="58.38" cy="46.16" r="3.7" fill="#fff"/><circle cx="58.34" cy="46.2" r="1.93"/><circle cx="69.62" cy="46.16" r="3.7" fill="#fff"/><circle cx="69.58" cy="46.2" r="1.93"/></svg>