<svg viewBox="0 0 128 128" width="128" height="128" xmlns="http://www.w3.org/2000/svg" xmlns:xlink="http://www.w3.org/1999/xlink"><radialGradient id="a" cx="-270.47" cy="-474.43" r="12.11" gradientTransform="matrix(-.7119 .7599 -.6505 -.6094 -416.42 8.16)" gradientUnits="userSpaceOnUse"><stop stop-color="#454140" offset="0"/><stop stop-color="#312D2D" offset="1"/></radialGradient><path d="M93.78 83.97c4.16 3.36 3.77 10.78-.7 15.55-4.46 4.77-11.21 4.54-15.47 1.71-4.66-3.1-5.52-12.61-1.06-17.37 4.46-4.77 12.88-3.4 17.23.11z" fill="url(#a)"/><linearGradient id="b" x1="67.622" x2="84.625" y1="110.1" y2="110.1" gradientTransform="translate(-10.53 -2.104)" gradientUnits="userSpaceOnUse"><stop stop-color="#FFD29C" offset="0"/><stop stop-color="#FFD39E" offset=".024"/><stop stop-color="#FCD8AF" offset=".316"/><stop stop-color="#FADCBA" offset=".629"/><stop stop-color="#F9DDBD" offset="1"/></linearGradient><path d="M58.98 123.5c-1.04 0-1.89-.56-1.89-1.02 0-.62 1.09-1.01 2-1.23l8.97-.95c.26-.03.46-.25.45-.51L67.7 92.5h6.39l-.86 28.48c0 1.4-1.07 2.52-2.33 2.52H58.98z" fill="url(#b)"/><path d="M73.58 93l-.85 28v.07c0 1.05-.84 1.93-1.83 1.93H58.98c-.8 0-1.34-.38-1.39-.52 0-.08.27-.42 1.56-.73l8.97-.96c.52-.06.91-.5.89-1.02L68.21 93h5.37m1.03-1zm0 0h-7.43l.83 27.79-9.03.96c-1.44.34-2.39.86-2.39 1.72s1.16 1.52 2.39 1.52H70.9c1.56 0 2.83-1.35 2.83-2.93V121l.88-29z" fill="#EDBD82"/><linearGradient id="c" x1="98.868" x2="132.09" y1="80.834" y2="92.766" gradientTransform="translate(-10.53 -2.104)" gradientUnits="userSpaceOnUse"><stop stop-color="#FFB300" offset="0"/><stop stop-color="#FFCA28" offset=".754"/></linearGradient><ellipse cx="85.08" cy="77.56" rx="3.71" ry="3.76" fill="url(#c)"/><path d="M113.58 87.74c-.15-.14-.29.02-.14.16.94.85 1.34 2.14 1.11 3.39-.02.13.11.15.13.06.04-.13.14-.11.42-.13.07-1.24-.57-2.62-1.52-3.48z" fill="#EDA600"/><linearGradient id="d" x1="91.818" x2="133.54" y1="86.299" y2="86.299" gradientTransform="translate(-10.53 -2.104)" gradientUnits="userSpaceOnUse"><stop stop-color="#FFD29C" offset="0"/><stop stop-color="#FFD39E" offset=".024"/><stop stop-color="#FCD8AF" offset=".316"/><stop stop-color="#FADCBA" offset=".629"/><stop stop-color="#F9DDBD" offset="1"/></linearGradient><path d="M122.35 88.09c-.39-.19-2.64-1.09-3.29-1.35a.192.192 0 0 1-.11-.25c.03-.1.13-.15.23-.13l1.99.45c.49.11.9.05 1.08-.37.23-.53-.07-.99-.62-1.15l-3.25-1.07s-2.07-.72-2.92-1.01a2.68 2.68 0 0 0-2.06.16l-9.88-5.1c-.28-.15-.57-.28-.89-.35l-16.77-4.03c-2.01-.43-4.06.87-4.48 2.9s.82 4.03 2.78 4.45l16.75 3.11 9.93 3.89c.1 1.49 1.15 2.17 1.55 2.7.54.72 1.38 2.29 1.29 2.96-.06.43.65.76.94.67.35-.11.69-.62.79-1.27.06-.38-.56-1.3-.71-1.84-.02-.08.01-.15.06-.2.04-.02.11-.03.21-.03h.02c1 .59 4.68 2.72 4.68 2.72.49.3 1.07.22 1.3-.32.18-.42-.06-.87-.47-1.11 0 0-2.88-2.14-2.88-2.18l3.9 1.75c.43.2.86.19 1.11-.2.31-.48.03-1.02-.49-1.26l-3.96-1.98c-.1-.05-.15-.16-.11-.25.04-.1.15-.14.25-.1 0 0 2.98 1.1 3.41 1.26s1.01.17 1.22-.37c.21-.55-.13-.88-.6-1.1z" fill="url(#d)"/><path d="M114.49 95.09c-.34 0-.69-.17-.92-.36-.29-.25-.44-.57-.39-.9.05-.4-.58-1.78-1.19-2.59-.08-.1-.19-.21-.31-.34-.46-.47-1.12-1.16-1.3-2.31l-9.65-3.78-16.66-3.08c-.02 0-.05-.01-.07-.02-2.19-.51-3.59-2.75-3.11-5.03.23-1.1.88-2.05 1.84-2.68.97-.63 2.12-.85 3.23-.61l16.78 4.04c.32.07.66.2 1.02.4l9.65 4.98c1-.4 1.86-.19 2.21-.08.86.29 2.93 1.02 2.93 1.02l3.24 1.06c.42.12.75.39.92.74.16.33.16.71 0 1.08-.11.25-.35.61-.87.7.34.14.61.25.72.31 1.16.55.98 1.39.84 1.72-.19.48-.61.76-1.12.79l.07.03c.42.2.73.54.85.95.1.35.04.72-.17 1.04-.37.57-1.04.71-1.74.38l-.05-.02c.29.38.37.87.18 1.31-.15.36-.43.61-.78.73-.39.12-.84.06-1.24-.18 0 0-2.43-1.4-3.88-2.24.23.47.42.89.36 1.24-.13.82-.58 1.49-1.13 1.67-.08.02-.17.03-.26.03zM84.3 80.76l16.7 3.1 10.02 3.92c.18.07.3.24.32.43.07.98.62 1.54 1.06 2 .15.16.29.3.39.43.42.55 1.52 2.36 1.39 3.33.03.01.23.12.32.12.06-.02.33-.32.41-.86-.01-.1-.21-.51-.32-.75-.15-.3-.3-.61-.37-.88-.07-.25.01-.52.2-.7a.42.42 0 0 1 .14-.09c.13-.06.26-.07.38-.08.05-.01.1 0 .15.01.06.01.12.04.17.07.97.57 4.66 2.7 4.66 2.7.16.09.31.12.42.09.05-.01.11-.05.17-.17.08-.18-.08-.38-.27-.49-3.12-2.31-3.12-2.31-3.12-2.61a.504.504 0 0 1 .71-.46l3.9 1.75c.37.17.46.04.49-.01.06-.1.05-.17.04-.22a.587.587 0 0 0-.32-.32l-3.97-1.99a.694.694 0 0 1-.38-.79c.01-.03.01-.06.03-.1.07-.17.2-.3.37-.38a.72.72 0 0 1 .54-.01s2.98 1.09 3.4 1.26c.11.04.48.16.57-.09.05-.12.1-.25-.34-.45-.31-.15-1.95-.81-3.26-1.34a.688.688 0 0 1-.39-.88c.12-.34.47-.53.81-.45l1.99.45c.43.1.48-.02.51-.08.04-.1.05-.19.01-.25-.04-.09-.16-.17-.31-.22l-3.27-1.07c-.01 0-2.07-.73-2.93-1.02-.25-.09-.92-.25-1.68.13-.14.07-.31.07-.45 0l-9.88-5.1c-.29-.16-.53-.26-.77-.31l-16.78-4.04c-.84-.18-1.72-.01-2.46.47s-1.24 1.21-1.41 2.04c-.37 1.76.71 3.5 2.4 3.86-.02.04 0 .05.01.05zm30.87 10.57zm2.97-2.57h.01-.01zm.93-1.91z" fill="#EDBD82"/><linearGradient id="e" x1="78.964" x2="95.52" y1="70.714" y2="95.548" gradientTransform="translate(-10.53 -2.104)" gradientUnits="userSpaceOnUse"><stop stop-color="#F78C1F" offset="0"/><stop stop-color="#F37F20" offset=".494"/><stop stop-color="#ED6D23" offset="1"/></linearGradient><path d="M76.61 87.08l5.99-4.19c3.38-2.37 4.23-7.07 1.89-10.49L71.16 52.87 52.92 65.64l13.33 19.53c2.34 3.43 6.98 4.28 10.36 1.91z" fill="url(#e)"/><ellipse cx="70.9" cy="91.62" rx="3.71" ry="3.76" fill="#FAC01B"/><linearGradient id="f" x1="87.985" x2="104.54" y1="64.7" y2="89.534" gradientTransform="translate(-10.53 -2.104)" gradientUnits="userSpaceOnUse"><stop stop-color="#F78C1F" offset="0"/><stop stop-color="#F37F20" offset=".494"/><stop stop-color="#ED6D23" offset="1"/></linearGradient><path d="M80.38 76.56c-.51 2.45 1.04 4.86 3.46 5.38l8.14 1.52 1.76-8.47-8.05-1.94c-2.42-.52-4.8 1.05-5.31 3.51z" fill="url(#f)"/><linearGradient id="g" x1="70.398" x2="86.954" y1="76.424" y2="101.26" gradientTransform="translate(-10.53 -2.104)" gradientUnits="userSpaceOnUse"><stop stop-color="#F78C1F" offset="0"/><stop stop-color="#F37F20" offset=".494"/><stop stop-color="#ED6D23" offset="1"/></linearGradient><path d="M70.9 82.99c2.48 0 4.48 2.03 4.48 4.54l-.21 8.38h-8.55l-.21-8.38c0-2.51 2.01-4.54 4.49-4.54z" fill="url(#g)"/><path d="M70.9 54.27l12.76 18.7c.11.16.2.32.3.48.17.31.5.5.85.51.24 0 .46.03.64.07l7.11 1.71-1.36 6.56-7.09-1.32c-.04-.01-.1-.03-.13-.04a.908.908 0 0 0-.23-.03c-.27 0-.53.11-.73.31-.3.32-.63.61-.99.86l-5.99 4.19c-.33.23-.69.43-1.07.6-.35.16-.58.5-.59.89l-.18 7.14h-6.6l-.19-7.38c0-.45.09-.9.26-1.34.14-.35.07-.74-.17-1.02-.17-.19-.31-.38-.43-.56L54.3 65.89l16.6-11.62m.26-1.4L52.92 65.64l13.33 19.53c.16.23.32.44.5.65-.21.53-.33 1.1-.33 1.71l.21 8.38h8.55l.2-8.12c.43-.19.84-.42 1.24-.7l5.99-4.19c.42-.3.8-.63 1.15-.99l.09.03 8.14 1.52 1.76-8.47-8.05-1.94c-.29-.06-.57-.09-.86-.09-.11-.19-.22-.38-.34-.56L71.16 52.87z" fill="#DA6727"/><path d="M85.69 73.05c-.29-.06-1.07-.47-1.2-.65L71.16 52.87 52.92 65.64l13.33 19.53c.16.23.16 1.8.16 2.4l.21 8.43h8.55l.2-8.17c.43-.19.84-.44 1.24-.72l5.99-4.21c.42-.3.96-.63 1.3-.99.03.01.25.02.25.02l7.77 1.88 1.9-9.11-8.13-1.65z" fill="none"/><ellipse cx="66.54" cy="57.53" rx="6.04" ry="6.12" fill="#FAC01B"/><linearGradient id="h" x1="81.041" x2="85.791" y1="54.445" y2="15.945" gradientTransform="translate(-10.53 -2.104)" gradientUnits="userSpaceOnUse"><stop stop-color="#FFD29C" offset="0"/><stop stop-color="#FFD39E" offset=".024"/><stop stop-color="#FCD8AF" offset=".316"/><stop stop-color="#FADCBA" offset=".629"/><stop stop-color="#F9DDBD" offset="1"/></linearGradient><path d="M85.51 6.65c.02-.97-.7-1.05-1.95-1.16l-9.64-.85c-1.62-.14-3.06 1.08-3.2 2.74l-.4 3.7h-.03L67.43 33.3 60.69 56l11.69 3.07 5.04-23.38 1.5-22.35.95-.32c.51.04 2.05.49 2.42-.24.29-.58-.12-.88-.28-.93.17.05.83.17 1.05-.36.28-.69-.44-.97-.44-.97s.94.23 1.22-.43c.31-.72-.61-1.02-.61-1.02s1.15.26 1.34-.44c.16-.57-.17-.84-.48-.96.71.08 1.4-.19 1.42-1.02z" fill="url(#h)"/><path d="M72.38 59.57c-.04 0-.08-.01-.13-.02l-11.69-3.07a.495.495 0 0 1-.35-.63l6.74-22.7 2.84-22.14c.01-.06.02-.11.05-.16l.38-3.53c.08-.92.51-1.77 1.22-2.37s1.6-.9 2.53-.81l9.64.85c1.2.11 2.44.21 2.41 1.67-.02.59-.28.94-.5 1.12-.13.11-.28.2-.45.27.05.22.05.46-.02.71-.11.4-.37.62-.69.74.06.2.07.46-.07.78-.15.35-.42.55-.7.66.04.19.04.44-.08.73-.13.32-.36.52-.63.63.02.19-.01.43-.15.7-.47.93-1.79.7-2.57.57-.09-.02-.17-.03-.24-.04l-.52.18-1.47 22.02-5.05 23.45a.5.5 0 0 1-.23.32c-.09.04-.18.07-.27.07zm-11.06-3.92L72 58.45l4.93-22.87 1.49-22.28c.01-.2.15-.37.34-.44l.95-.33c.06-.02.13-.03.21-.03.1.01.25.03.42.06.91.16 1.42.15 1.51-.03s.03-.22-.01-.23c-.26-.08-.4-.36-.32-.62s.37-.41.63-.33c0 0 .38.09.45-.07.03-.08.09-.22-.16-.32a.503.503 0 0 1 .31-.95s.53.11.64-.14c.03-.08.02-.1.02-.11-.04-.09-.24-.2-.32-.23-.25-.08-.4-.35-.33-.61s.33-.41.59-.36c.27.06.71.05.75-.08.05-.19.04-.28-.18-.37a.503.503 0 0 1-.3-.59c.06-.24.29-.41.54-.37.31.03.57-.02.71-.14.03-.01.13-.1.14-.37.01-.42-.05-.53-1.5-.66l-9.64-.85c-.64-.05-1.29.15-1.79.58s-.82 1.04-.87 1.71l-.4 3.71c-.01.07-.03.13-.05.18l-2.84 22.05-6.6 22.29zm24.19-49z" fill="#EDBD82"/><ellipse cx="58.74" cy="62.77" rx="6.04" ry="6.12" fill="#FAC01B"/><linearGradient id="i" x1="63.273" x2="17.413" y1="66.314" y2="45.586" gradientTransform="translate(-10.53 -2.104)" gradientUnits="userSpaceOnUse"><stop stop-color="#FFD29C" offset="0"/><stop stop-color="#FFD39E" offset=".024"/><stop stop-color="#FCD8AF" offset=".316"/><stop stop-color="#FADCBA" offset=".629"/><stop stop-color="#F9DDBD" offset="1"/></linearGradient><path d="M36.66 50.79l-21.14-8.22-2.98-1.74c-1.5-.67-2.79.02-3.45 1.53L5.4 51.35c-.51 1.16-.67 1.85.18 2.3.72.39 1.29.22 1.56-.46-.04.34.11.44.68.58.69.16 1.04-.85 1.04-.85s-.19.83.58.9c.71.06.98-.97.98-.97s-.16.84.58.92c.56.06.79-.82.83-1-.03.17-.12.84.52.86.81.02.98-1.67 1.19-2.15l.36-.83 20.29 9.93.02-.05c.16.07.3.15.47.2v.01l22.31 7.88 3.47-11.69c-.02 0-23.77-6.13-23.8-6.14z" fill="url(#i)" stroke="#EDBD82" stroke-linecap="round" stroke-linejoin="round" stroke-miterlimit="10"/><path d="M76.59 85.85c-.88-1.05-.76-2.64.28-3.53a2.417 2.417 0 0 1 3.45.29l1.44 1.72-3.74 3.24-1.43-1.72z" fill="#EDC391"/><path d="M78.45 82.23c.57 0 1.11.25 1.48.7l1.12 1.34-2.98 2.58-1.1-1.32c-.71-.84-.61-2.12.22-2.83.36-.3.8-.47 1.26-.47m0-1c-.68 0-1.36.24-1.91.72-1.24 1.07-1.39 2.97-.33 4.23l1.76 2.1 4.49-3.89-1.76-2.1a2.91 2.91 0 0 0-2.25-1.06z" fill="#D9AC77"/><defs><path id="j" d="M69.54 93.52l19.35-16.76 16.49 19.67-19.35 16.75z"/></defs><clipPath id="k"><use xlink:href="#j"/></clipPath><g clip-path="url(#k)"><path d="M79.66 100c-.79 0-1.55-.36-2.08-1-.96-1.15-.89-2.82.16-3.72l11.58-10.03c.43-.37.96-.56 1.54-.56.79 0 1.55.36 2.08 1 .96 1.15.89 2.82-.15 3.72L81.2 99.44a2.3 2.3 0 0 1-1.54.56z" fill="#EDC391"/><path d="M90.86 85.19c.64 0 1.26.3 1.7.82.79.94.74 2.3-.1 3.03l-1.56 1.35-8.46 7.32-1.56 1.35c-.33.29-.75.44-1.21.44-.64 0-1.26-.3-1.7-.82-.79-.94-.74-2.3.1-3.03l1.56-1.35 8.46-7.32 1.56-1.35c.33-.29.75-.44 1.21-.44m0-1c-.67 0-1.33.22-1.86.69l-1.56 1.35-8.46 7.32-1.56 1.35c-1.25 1.08-1.34 3.07-.21 4.42.65.77 1.57 1.18 2.47 1.18.67 0 1.33-.22 1.86-.69l1.56-1.35 8.46-7.32 1.56-1.35c1.25-1.08 1.34-3.07.21-4.42-.66-.78-1.58-1.18-2.47-1.18z" fill="#D9AC77"/><linearGradient id="l" x1="103.94" x2="90.4" y1="105.65" y2="90.577" gradientTransform="matrix(1 -.00459 .00459 1 -10.25 -2.934)" gradientUnits="userSpaceOnUse"><stop stop-color="#F9DDBD" offset="0"/><stop stop-color="#FADCBA" offset=".37"/><stop stop-color="#FCD8AF" offset=".684"/><stop stop-color="#FFD39E" offset=".976"/><stop stop-color="#FFD29C" offset="1"/></linearGradient><path d="M89.55 104.76c-3.41 0-7.09-1.96-9.83-5.23-4.72-5.63-3.38-11.22-.14-14.03a8.272 8.272 0 0 1 5.4-2.03c2.05 0 5.13.76 8.18 4.4 3.79 4.52 5.31 11.63 1.15 15.23-1.26 1.09-2.9 1.66-4.76 1.66z" fill="url(#l)"/><path d="M84.97 83.97c1.94 0 4.88.73 7.8 4.22 3.64 4.34 5.13 11.13 1.2 14.53-1.16 1-2.69 1.53-4.43 1.53-3.27 0-6.8-1.89-9.45-5.05-2.07-2.46-3.09-5.11-2.96-7.66a7.946 7.946 0 0 1 2.76-5.67c1.44-1.22 3.24-1.9 5.08-1.9m0-1c-2.16 0-4.16.8-5.73 2.16-3.58 3.1-4.73 8.99.08 14.73 3.05 3.64 6.88 5.41 10.22 5.41 1.95 0 3.72-.6 5.08-1.78 3.69-3.19 3.74-10.16-1.09-15.93-2.7-3.25-5.76-4.59-8.56-4.59z" fill="#EDBD82"/><radialGradient id="m" cx="90.587" cy="91.546" r="1.702" gradientUnits="userSpaceOnUse"><stop stop-color="#454140" offset=".09"/><stop stop-color="#454140" offset="1"/></radialGradient><path d="M92.36 90.34s.01.07.01.18v.1c0 .04-.01.09-.02.14s-.02.1-.02.16a.75.75 0 0 1-.04.16c-.01.06-.03.11-.05.17s-.05.12-.07.18-.05.12-.09.18c-.03.06-.07.12-.1.19-.08.12-.16.25-.26.36-.09.12-.21.22-.32.33-.12.09-.24.19-.37.27s-.26.14-.39.21c-.07.03-.13.05-.2.07-.06.02-.13.04-.19.06-.06.01-.13.03-.19.04s-.12.02-.18.02-.11.01-.16.01h-.28a.36.36 0 0 1-.11-.02c-.13-.02-.2-.04-.2-.04a.449.449 0 0 1-.32-.54c.04-.15.14-.26.26-.31l.08-.03s.05-.02.14-.05c.02-.01.05-.01.07-.02.03-.01.05-.02.08-.03.06-.02.12-.04.19-.08.03-.02.07-.03.11-.04.04-.02.07-.04.11-.06l.12-.06c.04-.02.08-.04.12-.07.08-.05.16-.1.23-.16.08-.05.15-.12.23-.18.07-.07.15-.13.21-.2.07-.07.13-.14.19-.21l.08-.11c.01-.02.03-.03.04-.05s.02-.04.04-.05c.02-.04.05-.07.07-.1s.04-.07.06-.1l.06-.09a.3.3 0 0 0 .04-.08c.01-.02.03-.05.04-.07.01-.03.02-.06.04-.08.04-.1.07-.16.07-.16.11-.23.38-.31.61-.2.15.07.24.21.26.36z" fill="url(#m)"/><radialGradient id="n" cx="83.614" cy="97.581" r="1.7" gradientUnits="userSpaceOnUse"><stop stop-color="#454140" offset=".09"/><stop stop-color="#454140" offset="1"/></radialGradient><path d="M82.16 98.27s.06-.02.17-.05c.03-.01.06-.01.09-.02.02-.01.05-.02.07-.03.03-.01.05-.02.08-.03s.06-.03.1-.04c.03-.02.07-.03.11-.04.04-.02.07-.04.11-.06l.12-.06c.04-.02.08-.04.12-.07.08-.05.16-.1.23-.16.08-.05.15-.12.23-.18.07-.07.15-.13.21-.2.07-.07.13-.14.19-.21l.08-.11c.01-.02.03-.03.04-.05s.02-.04.04-.05c.02-.04.05-.07.07-.1s.04-.07.06-.1c.04-.06.08-.13.1-.18a.3.3 0 0 0 .04-.08c.01-.02.02-.05.03-.07.04-.08.07-.13.07-.13l.04-.07a.44.44 0 0 1 .6-.16c.13.08.2.21.22.35 0 0 .01.07.01.21v.11c0 .04-.01.08-.02.13s-.01.1-.02.15-.02.1-.04.16c-.01.06-.03.11-.05.17s-.05.12-.07.18-.05.12-.09.18c-.03.06-.07.12-.1.19-.08.12-.16.25-.26.36-.09.12-.21.22-.32.33-.12.09-.24.19-.37.27-.12.08-.26.14-.39.21-.07.03-.13.05-.2.07-.06.02-.13.04-.19.06-.06.01-.13.03-.19.04s-.12.02-.18.02-.11.01-.16.01h-.16c-.05 0-.1 0-.14-.01-.04 0-.06-.01-.09-.02-.11-.02-.17-.04-.17-.04a.467.467 0 0 1-.32-.56.46.46 0 0 1 .3-.32z" fill="url(#n)"/><g fill="#312D2D"><ellipse transform="rotate(-28.959 89.116 89.773)" cx="89.11" cy="89.77" rx="1.38" ry="1.44"/><ellipse transform="rotate(-28.959 82.15 95.805)" cx="82.15" cy="95.8" rx="1.38" ry="1.44"/></g><path d="M80.32 90.61c.33-.99 2.55-2.91 3.56-3.09.58-.1.68-.8.22-1.02-.45-.22-2.35.01-3.39.92s-1.55 2.75-1.41 3.24c.14.5.83.52 1.02-.05z" fill="#444"/><path d="M83.32 91.43c.03-.01.06-.02.08-.04l1.5-1.3c.02-.02.04-.05.05-.08.09-.17.04-.38-.15-.48s-.85-.27-1.45.25-.54 1.21-.48 1.41c.08.22.27.3.45.24z" fill="#DBA689"/></g><radialGradient id="o" cx="1773.2" cy="-884" r="16.338" gradientTransform="matrix(-.4395 .374 -.2599 -.3054 638.81 -835.92)" gradientUnits="userSpaceOnUse"><stop stop-color="#454140" offset="0"/><stop stop-color="#312D2D" offset="1"/></radialGradient><path d="M91.13 85.14c2.27 1.36 2.45 1.71 3.15 2.42 0 0 1.19.11 1.53.2.69.18 1.33.54 1.83 1.04 1.01 1.02 1.42 2.6 1.01 3.98 1.58.32 2.88 1.71 3.1 3.31 0 0-1.36-.84-2.31-.38-1.3.63-1.38 1.33-1.38 1.33 1.36.24 2.74 2.03 1.89 3.48 0 0-.9-1.07-2.16-.46-1.05.51-1.3 1.3-1.58 2.3-.3 1.08-1.09 2.17-1.94 2.89-.5.43-1.09.73-1.71.99-2.47 1.02-4.46-.95-4.46-.95s-1.23 1.61-4.16.64c-.02-.01-2.2-.49-3.69-3.54-.27-.54-.57-1.49-.84-1.77-.78-.8-2.02-3.64-2.02-3.64s2.82 2.25 3.72 2.97c2.69 2.14 4.39 1.17 5 .65l.04-.04c.69.32 1.92.52 3.06-.45.26-.22.51-.5.74-.82.8-1.12 1.07-2.28 1.35-3.5.12-.51.24-1.04.41-1.59.8-2.6 2.06-4.28 2.07-4.3l.22-.29-.78-.99c-.49-.71-2.09-3.48-2.09-3.48z" fill="url(#o)"/><path d="M95.81 87.75c.69.18 1.33.54 1.83 1.04 1.01 1.02 1.42 2.6 1.01 3.98 1.58.32 2.88 1.71 3.1 3.31 0 0-2.4-1.26-3.68.95 0 0 2.39 1.3 2 3.26 0 0-1.21-.69-2.27-.24-1.07.46-1.3 1.3-1.58 2.3-.3 1.08-1.09 2.17-1.94 2.89-.5.43-1.09.73-1.71.99-2.47 1.02-4.46-.95-4.46-.95s-1.41 1.91-4.34.93c-.02-.01-2.36-1-3.52-3.84" fill="none" stroke="#1F1A1A" stroke-linecap="round" stroke-miterlimit="10"/><path d="M92.03 83.23c.53.06 2.24.4 2.24.4 1.05.98 2.11 2.62 2 4.79l-1-.33c.03-2.48-2.04-4.07-3.28-4.63l.04-.23zM74.49 96.08c.87 2.6 2.76 5.87 6.13 6.08l-.03 1 .03-.5-.07.5c-3.12-.19-5.01-2.43-6.14-4.79l.08-2.29z" fill="#1F1A1A"/><path d="M55.79 69.03a.47.47 0 0 0-.25-.19l-10.77-3.65 3.73-12.33 10.99 3.1a.492.492 0 0 0 .62-.34l3.42-12.09 12.32 3.23-2.33 10.2c-.03.13 0 .28.07.39l3.06 4.5-17.71 11.83-3.15-4.65z" fill="#7C7C7C"/><path d="M63.87 44.13l11.37 2.98-2.23 9.72c-.06.27-.01.56.15.79l2.78 4.08-16.87 11.29-2.87-4.24a.994.994 0 0 0-.51-.39l-10.31-3.49 3.45-11.4 10.52 2.97a.993.993 0 0 0 1.23-.69l3.29-11.62m-.69-1.22l-3.55 12.57-11.47-3.24-4.01 13.26 11.23 3.8 3.42 5.07 18.54-12.4L74 57.06l2.44-10.67-13.26-3.48z" fill="#5B5B5B"/></svg>