<svg viewBox="0 0 128 128" width="128" height="128" xmlns="http://www.w3.org/2000/svg" xmlns:xlink="http://www.w3.org/1999/xlink"><circle cx="45.62" cy="119.26" r="4.74" fill="#424242"/><circle cx="45.62" cy="119.26" r="2.55" fill="#BDBDBD"/><circle cx="84.26" cy="119.26" r="4.74" fill="#424242"/><circle cx="84.26" cy="119.26" r="2.55" fill="#BDBDBD"/><linearGradient id="a" x1="54.08" x2="54.08" y1="36" y2="6.487" gradientUnits="userSpaceOnUse"><stop stop-color="#E0E0E0" offset="0"/><stop stop-color="#757575" offset=".999"/></linearGradient><path fill="url(#a)" d="M52.51 9.93h3.15v26.45h-3.15z"/><linearGradient id="b" x1="73.62" x2="73.62" y1="36" y2="6.487" gradientUnits="userSpaceOnUse"><stop stop-color="#E0E0E0" offset="0"/><stop stop-color="#757575" offset=".999"/></linearGradient><path fill="url(#b)" d="M72.05 9.93h3.15v26.45h-3.15z"/><linearGradient id="c" x1="63.872" x2="63.872" y1="5.25" y2="13.508" gradientUnits="userSpaceOnUse"><stop stop-color="#424242" offset=".001"/><stop offset="1"/></linearGradient><path d="M51.41 8.46v5.69h5.38V9.16h14.03v4.33h5.51V8.46c0-1-.62-1.9-1.56-2.23-1.75-.61-5.12-1.39-10.89-1.39s-9.15.79-10.89 1.39c-.96.33-1.58 1.23-1.58 2.23z" fill="url(#c)"/><linearGradient id="d" x1="64" x2="64" y1="25.796" y2="120.06" gradientUnits="userSpaceOnUse"><stop stop-color="#90A4AE" offset="0"/><stop stop-color="#889DA7" offset=".237"/><stop stop-color="#738A95" offset=".602"/><stop stop-color="#546E7A" offset="1"/></linearGradient><path d="M88.75 119.02h-49.5c-4.06 0-7.37-3.32-7.37-7.37v-79c0-4.06 3.32-7.37 7.37-7.37h49.51c4.06 0 7.37 3.32 7.37 7.37v79c0 4.05-3.32 7.37-7.38 7.37z" fill="url(#d)"/><path d="M45.86 105.99h-.08c-1.35 0-2.46-1.11-2.46-2.46V40.76c0-1.35 1.11-2.46 2.46-2.46h.08c1.35 0 2.46 1.11 2.46 2.46v62.77c0 1.35-1.1 2.46-2.46 2.46zM58.07 105.99h-.08c-1.35 0-2.46-1.11-2.46-2.46V40.76c0-1.35 1.11-2.46 2.46-2.46h.08c1.35 0 2.46 1.11 2.46 2.46v62.77c-.01 1.35-1.11 2.46-2.46 2.46zM70.27 105.99h-.08c-1.35 0-2.46-1.11-2.46-2.46V40.76c0-1.35 1.11-2.46 2.46-2.46h.08c1.35 0 2.46 1.11 2.46 2.46v62.77c0 1.35-1.11 2.46-2.46 2.46zM82.47 105.99h-.08c-1.35 0-2.46-1.11-2.46-2.46V40.76c0-1.35 1.11-2.46 2.46-2.46h.08c1.35 0 2.46 1.11 2.46 2.46v62.77c0 1.35-1.11 2.46-2.46 2.46z" fill="#B0BEC5" opacity=".7"/><defs><path id="e" d="M88.75 118.56h-49.5c-4.06 0-7.37-3.32-7.37-7.37v-79c0-4.06 3.32-7.37 7.37-7.37h49.51c4.06 0 7.37 3.32 7.37 7.37v79c0 4.05-3.32 7.37-7.38 7.37z"/></defs><clipPath id="f"><use xlink:href="#e"/></clipPath><g clip-path="url(#f)"><path d="M32.38 34.3H29.5c-6.07 0-11.04-4.97-11.04-11.04v-2.89c0-6.07 4.97-11.04 11.04-11.04h2.89c6.07 0 11.04 4.97 11.04 11.04v2.89c0 6.07-4.97 11.04-11.05 11.04zM98.86 34.3h-2.89c-6.07 0-11.04-4.97-11.04-11.04v-2.89c0-6.07 4.97-11.04 11.04-11.04h2.89c6.07 0 11.04 4.97 11.04 11.04v2.89c0 6.07-4.96 11.04-11.04 11.04z" fill="#455A64"/><path d="M32.38 134.68H29.5c-6.07 0-11.04-4.97-11.04-11.04v-2.89c0-6.07 4.97-11.04 11.04-11.04h2.89c6.07 0 11.04 4.97 11.04 11.04v2.89c0 6.07-4.97 11.04-11.05 11.04zM98.86 134.68h-2.89c-6.07 0-11.04-4.97-11.04-11.04v-2.89c0-6.07 4.97-11.04 11.04-11.04h2.89c6.07 0 11.04 4.97 11.04 11.04v2.89c0 6.07-4.96 11.04-11.04 11.04z" fill="#37474F"/></g><circle cx="81.06" cy="46.9" r="6.44" fill="#DCEDC8"/><path d="M81.06 41.46c3 0 5.44 2.44 5.44 5.44s-2.44 5.44-5.44 5.44-5.44-2.44-5.44-5.44 2.44-5.44 5.44-5.44m0-2c-4.11 0-7.44 3.33-7.44 7.44s3.33 7.44 7.44 7.44 7.44-3.33 7.44-7.44-3.33-7.44-7.44-7.44z" fill="#2CA94F"/><path d="M47.37 81.46c-1 0-1.79-.28-2.34-.83-1.86-1.86-.51-6.36 2.95-9.82 2.33-2.33 5.19-3.78 7.48-3.78 1 0 1.79.28 2.34.83 1.86 1.86.51 6.36-2.95 9.82-2.33 2.33-5.2 3.78-7.48 3.78z" fill="#BBDEFB"/><path d="M55.46 68.08c.72 0 1.26.18 1.61.52.56.56.68 1.67.32 3.04-.46 1.75-1.65 3.69-3.27 5.31-2.11 2.11-4.76 3.47-6.74 3.47-.72 0-1.26-.18-1.61-.52-1.27-1.27-.28-5.12 2.95-8.35 2.1-2.11 4.75-3.47 6.74-3.47m0-2.07c-2.47 0-5.59 1.46-8.21 4.08-3.93 3.93-5.25 8.98-2.95 11.28.77.77 1.84 1.13 3.07 1.13 2.47 0 5.59-1.46 8.21-4.08 3.93-3.93 5.25-8.98 2.95-11.28-.77-.77-1.84-1.13-3.07-1.13z" fill="#4480F7"/><path fill="#FAFAFA" d="M43.41 39.435l17.832-4.375 2.066 8.42-17.832 4.375z"/><path d="M60.51 36.27l1.59 6.47-15.89 3.9-1.59-6.47 15.89-3.9m1.47-2.42L42.2 38.7l2.54 10.36 19.77-4.85-2.53-10.36z" fill="#EC4431"/><path d="M68.6 59.98c-.08 0-.15-.01-.23-.03l-12.52-2.97a.995.995 0 0 1-.74-1.2l1.5-6.32c.11-.45.52-.77.98-.77.08 0 .15.01.23.03l12.52 2.97a.996.996 0 0 1 .74 1.2l-1.5 6.32c-.11.45-.52.77-.98.77z" fill="#FFF9C4"/><path d="M57.59 49.69l12.51 2.97-1.5 6.32-12.52-2.97 1.51-6.32m-.01-2.01c-.9 0-1.73.62-1.95 1.54l-1.5 6.32c-.25 1.07.41 2.15 1.48 2.41l12.52 2.97c.15.04.31.05.46.05.9 0 1.73-.62 1.95-1.54l1.5-6.32c.25-1.07-.41-2.15-1.48-2.41l-12.52-2.97c-.15-.03-.3-.05-.46-.05z" fill="#FBBE00"/><path d="M88.75 28.27c2.41 0 4.37 1.96 4.37 4.37v79c0 2.34-1.9 4.29-4.24 4.36l-3.07.09.16 3.07c0 .07.01.14.02.21-.06.91-.82 1.62-1.74 1.62s-1.68-.72-1.74-1.62c.01-.07.01-.14.02-.21l.16-3.15H47.18l.16 3.15c0 .07.01.14.02.21-.06.9-.82 1.62-1.74 1.62s-1.68-.72-1.74-1.62c.01-.07.01-.14.02-.21l.16-3.15h-4.82c-2.41 0-4.37-1.96-4.37-4.37v-79c0-2.41 1.96-4.37 4.37-4.37h49.51M63.87 4.83c-5.78 0-9.15.79-10.89 1.39-.94.33-1.56 1.23-1.56 2.23v5.69h1.09v11.13H39.25c-4.06 0-7.37 3.32-7.37 7.37v79c0 4.06 3.32 7.37 7.37 7.37h1.66c0 .08-.02.16-.02.24 0 2.62 2.12 4.74 4.74 4.74s4.74-2.12 4.74-4.74c0-.08-.02-.16-.02-.24h29.21c0 .08-.02.16-.02.24 0 2.62 2.12 4.74 4.74 4.74s4.74-2.12 4.74-4.74c0-.09-.02-.17-.03-.25 3.95-.12 7.15-3.38 7.15-7.36v-79c0-4.06-3.32-7.37-7.37-7.37H75.19V13.49h1.14V8.46c0-1-.62-1.9-1.56-2.23-1.75-.61-5.12-1.4-10.9-1.4zm-8.22 20.44V14.14h1.14V9.16h14.03v4.33h1.22v11.78H55.65z" fill="#424242" opacity=".2"/></svg>