<svg viewBox="0 0 128 128" width="128" height="128" xmlns="http://www.w3.org/2000/svg" xmlns:xlink="http://www.w3.org/1999/xlink"><defs><path id="a" d="M4 4h120v120H4z"/></defs><clipPath id="b"><use xlink:href="#a"/></clipPath><g clip-path="url(#b)" opacity=".45"><path d="M18.04 143.5c-11-1-23-1-32-10-5-5-9-11-11-18-2-8-4-16-3-24 1-7 3-14 6-21 2-4 5-8 8-11 7-6 14-11 22-15 16-8 15-28 3-39-1-1-2-1-3-2-1-2-3-5-2-6 2-10 15-3 23-4 5 0 10 3 14 6 12 9 18 23 18 38-1 7-1 15-4 22l-6 12c-1 2-2 3-4 5-5 4-9 8-14 11-8 4-18 8-20 18-3 13 8 22 14 32v3c-2 2-5 4-9 3z" fill="#83D3F7"/></g><g clip-path="url(#b)" opacity=".45"><path d="M93.04-6.5c10 0 20 2 30 2 27 9 35 41 33 67-1 5-2 10-4 15-1 2-2 5-3 7-10 19-29 28-46 39-16 16-2 39 13 51 1 1 3 4 2 6-11 7-25 1-37 1-3 0-6-2-9-3-8-4-13-10-18-18-4-7-6-14-8-22-2-11-1-21 1-32 2-5 3-9 5-14 3-6 7-11 12-16 9-9 20-14 31-21s13-21 8-32c-2-3-3-6-5-9-5-6-12-9-14-16-1-3 5-5 9-5z" fill="#3BBCF7"/></g><g clip-path="url(#b)"><path d="M13 131v-9.94c0-7.8 5.32-13.94 15.82-18.26C37.87 99.07 50.37 97.02 64 97h.13c25.28 0 50.87 8.26 50.87 24.06V131H13z" fill="#ECEFF1"/><path d="M64.13 98c13.03 0 25.69 2.22 34.75 6.09 6.9 2.94 15.12 8.28 15.12 16.97V130H14v-8.94c0-7.35 5.12-13.18 15.2-17.34 8.93-3.68 21.29-5.71 34.8-5.72h.13m0-2H64c-25.49.03-52 7.28-52 25.06V132h104v-10.94C116 104.3 89.74 96 64.13 96z" fill="#B0BEC5"/></g><g clip-path="url(#b)"><defs><path id="c" d="M12 121.06V132h104v-10.94c0-16.79-26.35-25.09-52-25.06-25.49.03-52 7.28-52 25.06z"/></defs><clipPath id="d"><use xlink:href="#c"/></clipPath><g clip-path="url(#d)"><path d="M74.18 136.33H53.82c-6.46 0-8.65-1.19-9.36-8.33l-4.36-10.56c-.74-7.51 3.27-21.6 23.94-21.6s24.61 14.09 23.87 21.6L86.38 128c-.71 7.14-5.74 8.33-12.2 8.33z" fill="#3C2B24"/></g></g><g clip-path="url(#b)"><radialGradient id="e" cx="65.284" cy="47.866" r="23.207" gradientUnits="userSpaceOnUse"><stop stop-color="#444140" offset="0"/><stop stop-color="#232020" offset="1"/></radialGradient><path d="M93.38 87.11c.53-.58 1.11-1.11 1.91-1.13 1.32-.03 3.36-.25 4.97-1.22.47-.28.87-.67 1.17-1.14-1.13-.23-2.68-.89-3.73-2.93-1.6-3.1.25-5.95 3.32-9.12 3.46-3.57 9.21-15.82 3.1-26.74-1.15-.17-17.81.08-22.03.08H64.1v49.71c19.76 0 23.67-1.29 29.28-7.51z" fill="url(#e)"/><radialGradient id="f" cx="59.319" cy="52.699" r="23.25" gradientUnits="userSpaceOnUse"><stop stop-color="#444140" offset="0"/><stop stop-color="#232020" offset="1"/></radialGradient><path d="M34.82 87.11c-.53-.58-1.11-1.11-1.91-1.13-1.32-.03-3.36-.25-4.97-1.22a3.54 3.54 0 0 1-1.17-1.14c1.13-.23 2.75-.86 3.73-2.93 1.6-3.35-.67-6.33-3.32-9.12-4.33-4.57-9.21-15.82-3.1-26.74 1.15-.17 17.81.08 22.03.08H64.1v49.71c-19.76 0-23.67-1.29-29.28-7.51z" fill="url(#f)"/><path d="M102.88 46.67l.26.5c5.42 10.4-.55 20.63-3.19 23.36-2.96 3.05-5.7 6.73-3.58 10.85.55 1.07 1.27 1.93 2.13 2.56-1.18.42-2.47.52-3.24.54-1.56.04-2.56 1.15-2.99 1.63-3.4 3.77-5.97 5.63-13.09 6.45 0 0-3.69 1.89-6.24 2.53V96c12.46-.45 16.47-2.23 21.56-7.88.39-.44.65-.63.83-.64 1.58-.04 3.84-.32 5.7-1.43.67-.4 1.24-.96 1.67-1.63l1.17-1.85-2.14-.43c-1.19-.24-2.07-.94-2.69-2.14-1.04-2.01-.2-4.01 3.07-7.39 4.05-4.18 9.28-14.94 3.97-25.89 0 0 0-.02.01-.05h-3.21zM26.09 72.6c2.71 2.86 4.17 5.1 3.06 7.44-.56 1.17-1.43 1.86-2.67 2.1l-2.14.43 1.17 1.85c.42.67 1 1.23 1.67 1.63 1.86 1.11 4.13 1.39 5.7 1.43.18 0 .44.2.83.64 5.07 5.62 9.06 7.42 21.39 7.88v-.95c-2.15-.6-6.08-2.48-6.08-2.48-7.12-.82-9.69-2.68-13.09-6.45-.43-.48-1.43-1.59-2.99-1.63-.76-.02-2.04-.12-3.21-.53.89-.65 1.61-1.53 2.13-2.61 2.22-4.67-1.56-8.66-3.59-10.8-3.84-4.05-8.03-13.55-3.8-23.12l.29-.65-.05-.09h-3.32c.02.06.04.11.07.17-4.37 10.67.32 21.2 4.63 25.74z" fill="#1F1D1B"/></g><g clip-path="url(#b)"><path d="M36.67 72.26c-5.36 0-9.71-4.67-9.71-10.41s4.36-10.41 9.71-10.41h54.65c5.36 0 9.71 4.67 9.71 10.41s-4.36 10.41-9.71 10.41H36.67z" fill="#3C2B24"/><path d="M91.33 52.43c4.8 0 8.71 4.22 8.71 9.41s-3.91 9.41-8.71 9.41H36.67c-4.8 0-8.71-4.22-8.71-9.41s3.91-9.41 8.71-9.41h54.66m0-2H36.67c-5.89 0-10.71 5.14-10.71 11.41 0 6.28 4.82 11.41 10.71 11.41h54.65c5.89 0 10.71-5.14 10.71-11.41.01-6.27-4.81-11.41-10.7-11.41z" fill="#291B16"/></g><g clip-path="url(#b)"><path d="M62.32 89.75c-10.38-.75-19.71 2.28-24.19 8.67-5 7.12 2.56 24.47 7.58 33.17 6.5 11.25 14.49 9.74 14.46 3.29-.03-7.3-13.3-20.37-10.12-30.88 2-6.62 14.3-6.55 12.36-6.33 6.32-.7-.09-7.92-.09-7.92z" fill="#ECEFF1" stroke="#B0BEC5" stroke-linecap="round" stroke-linejoin="round" stroke-miterlimit="10" stroke-width="2"/></g><g clip-path="url(#b)"><path d="M65.44 89.75c10.38-.75 19.71 2.28 24.19 8.67 5 7.12-2.56 24.47-7.58 33.17-6.5 11.25-14.49 9.74-14.46 3.29.03-7.3 13.3-20.37 10.12-30.88-2-6.62-14.3-6.55-12.36-6.33-6.32-.7.09-7.92.09-7.92z" fill="#ECEFF1" stroke="#B0BEC5" stroke-linecap="round" stroke-linejoin="round" stroke-miterlimit="10" stroke-width="2"/></g><g clip-path="url(#b)"><path d="M64 90.08h-9.08v9.98c0 4.51 3.7 8.17 8.26 8.17h1.65c4.56 0 8.26-3.66 8.26-8.17v-9.98H64z" fill="#3C2B24"/></g><g clip-path="url(#b)" fill="none" stroke="#291B16" stroke-miterlimit="10" stroke-width="2"><path d="M54.94 94.25v10.56M73.06 94.25v10.56"/></g><g clip-path="url(#b)"><linearGradient id="g" x1="64" x2="64" y1="94.591" y2="12.825" gradientUnits="userSpaceOnUse"><stop stop-color="#5C4037" offset="0"/><stop stop-color="#63463D" offset=".158"/><stop stop-color="#6D5047" offset=".533"/><stop stop-color="#70534A" offset="1"/></linearGradient><path d="M64 95.27c-15.66 0-32.52-12.14-32.52-38.81 0-12.38 3.56-23.79 10.02-32.13 6.04-7.8 14.24-12.27 22.5-12.27 8.25 0 16.45 4.47 22.5 12.27 6.46 8.34 10.02 19.75 10.02 32.13 0 12.09-3.51 22.19-10.14 29.21-5.86 6.19-13.81 9.6-22.38 9.6z" fill="url(#g)"/><path d="M64 13.07c7.94 0 15.85 4.33 21.71 11.88 6.33 8.16 9.81 19.35 9.81 31.52 0 11.83-3.41 21.7-9.87 28.52-5.67 5.99-13.36 9.29-21.65 9.29s-15.98-3.3-21.65-9.29c-6.46-6.82-9.87-16.69-9.87-28.52 0-12.16 3.49-23.35 9.81-31.52C48.15 17.4 56.06 13.07 64 13.07m0-2c-17.4 0-33.52 18.61-33.52 45.39 0 26.64 16.61 39.81 33.52 39.81S97.52 83.1 97.52 56.46c0-26.78-16.12-45.39-33.52-45.39z" fill="#4A2F27"/></g><g clip-path="url(#b)"><g fill="#1A1717"><path d="M54.98 50.82c-.93-1.23-3.07-3.01-7.23-3.01s-6.31 1.79-7.23 3.01c-.41.54-.31 1.17-.02 1.55.26.35 1.04.68 1.9.39s2.54-1.16 5.35-1.18c2.81.02 4.49.89 5.35 1.18s1.64-.03 1.9-.39c.29-.38.39-1.01-.02-1.55zM87.48 50.82c-.93-1.23-3.07-3.01-7.23-3.01s-6.31 1.79-7.23 3.01c-.41.54-.31 1.17-.02 1.55.26.35 1.04.68 1.9.39s2.54-1.16 5.35-1.18c2.81.02 4.49.89 5.35 1.18s1.64-.03 1.9-.39c.29-.38.39-1.01-.02-1.55z"/></g><path d="M67.86 68.06c-.11-.04-.21-.07-.32-.08h-7.07c-.11.01-.22.04-.32.08-.64.26-.99.92-.69 1.63s1.71 2.69 4.55 2.69 4.25-1.99 4.55-2.69c.29-.71-.06-1.37-.7-1.63z" fill="#33251F"/><path d="M72.42 76.14c-3.19 1.89-13.63 1.89-16.81 0-1.83-1.09-3.7.58-2.94 2.24.75 1.63 6.45 5.42 11.37 5.42s10.55-3.79 11.3-5.42c.75-1.66-1.09-3.33-2.92-2.24z" fill="#795548"/></g><g clip-path="url(#b)"><defs><path id="h" d="M64 4.03h-.04c-45.43.24-36.12 52.14-36.12 52.14s5.1 8.99 5.1 8.81c-.03-1.41.46-6.89.46-6.89l-2.68-2.92s3.89-25.44 6.79-24.91c4.45.81 26.54 2 26.57 2 7.83 0 14.92-.36 19.37-1.17 2.9-.53 9.64 1.7 10.68 4.45 1.33 3.54 3.13 19.71 3.13 19.71l-2.68 2.83s.49 5.51.46 6.89c0 .18 5.1-8.81 5.1-8.81S109.44 4.27 64 4.03z"/></defs></g><g clip-path="url(#b)"><radialGradient id="i" cx="64.326" cy="33.52" r="36.373" gradientTransform="matrix(1 0 0 .8642 0 4.552)" gradientUnits="userSpaceOnUse"><stop stop-color="#444140" offset="0"/><stop stop-color="#232020" offset="1"/></radialGradient><path d="M52.25 10.65C39.98 15 38.76 7.3 38.76 7.3c-6.66 3.32-2.28 10.45-2.28 10.45s-6.75-.5-9.64 5.34c-3.02 6.11-.36 10.78-.36 10.78S19.98 38 22.53 45.5c1.69 4.98 6.75 6.98 6.75 6.98-.62 10.74 2.77 15.95 2.77 15.95s4.21-18.45 3.81-21.27c0 0 7.76-1.54 16.57-6.58 5.95-3.41 10.02-7.41 16.71-8.91 10.18-2.29 12.45 5.08 12.45 5.08s9.42-1.81 12.26 11.27c1.17 5.38 1.67 14.37 2.31 19.84-.06-.48 3.5-6.4 4.12-12.4.23-2.23 3.61-7.67 4.63-11.72 2.21-8.8-.69-15.74-2.06-17.81-2.5-3.79-8.49-9-12.97-8.24.23-4.8-3.55-9.25-8.1-10.78-12.45-4.18-25.87 2.44-29.53 3.74z" fill="url(#i)"/></g><path d="M21.11 45.98c.08.22.17.45.27.68l2.28 2.89 1.1-2.79-.32-.63c-.21-.42-.36-.77-.48-1.11-2.13-6.26 3.11-9.73 3.33-9.88l1.18-.76-.68-1.23c-.09-.17-2.21-4.12.4-9.38 2.33-4.71 7.75-3.73 7.98-3.69l2.95.59-1.31-2.71c-.1-.22-2.19-4.67.33-8.01.55 1.01 1.43 2.15 2.84 3 2.85 1.73 6.8 1.72 11.75-.03.79-.28 1.68-.76 2.8-1.38 4.53-2.47 12.11-6.61 24.12-2.81 4.34 1.38 8.92 5.17 8.74 8.89l-.09 1.87 1.84-.31c3.6-.6 9.1 4.01 11.47 7.59 1.22 1.84 3.98 9.5 1.92 17.71-.11.45-.26.94-.46 1.5l-.22.62.04.08 1.09 1.9 2.11-1.9c.05-.23.27-1.14.35-1.46 2.24-8.93-.56-17.42-2.32-20.09-2.44-3.7-7.91-8.64-12.82-8.97-.79-4.72-5.84-8.72-10.73-10.27-13.25-4.21-21.86.49-26.49 3.02-.96.53-1.79.98-2.36 1.18-3.97 1.41-7.13 1.52-9.15.32-1.97-1.17-2.32-3.23-2.33-3.31l-.34-2.44-2.01 1.41c-4.24 2.99-4.4 7.63-3.6 10.88-2.93.12-6.77 1.36-8.8 5.47-2.42 4.9-1.56 8.99-.86 10.95-2.52 2.15-5.54 6.65-3.52 12.61z" clip-path="url(#b)" fill="#1F1D1B"/><g clip-path="url(#b)" fill="#1A1717"><path d="M72.32 76.14c-3.15 1.87-13.46 1.87-16.61 0-1.81-1.07-3.65.57-2.9 2.21.74 1.61 6.37 5.36 11.23 5.36 4.87 0 10.42-3.75 11.16-5.36.75-1.64-1.08-3.29-2.88-2.21zM47.63 60.3c-2.06 0-3.9-.5-5.18-1.29-.55-.34-.87-.14-.77.5.37 2.48 2.9 4.4 5.95 4.4 3.06 0 5.58-1.92 5.95-4.4.1-.64-.22-.84-.77-.5-1.28.79-3.12 1.29-5.18 1.29zM80.25 60.3c-2.06 0-3.9-.5-5.18-1.29-.55-.34-.87-.14-.77.5.37 2.48 2.9 4.4 5.95 4.4 3.06 0 5.58-1.92 5.95-4.4.1-.64-.22-.84-.77-.5-1.28.79-3.13 1.29-5.18 1.29z"/></g><g clip-path="url(#b)" opacity=".3"><path d="M97.04 156.5c-8-1-17 1-24-5-11-9-17-22-17-36 0-7 2-14 5-21 2-4 5-8 8-11 4.79-4.79 11.53-8.71 17.52-11.77 5.74-2.94 10.61-5.51 12.6-12.26 1.69-5.73.6-12.03-2.07-17.38-1.64-3.28-3.84-6.25-6.32-8.95-2.05-2.24-3.89-3.98-6.06-6.94-2.72-3.72 4.61-3.29 7.66-3.21 6.14.17 11.67 1.66 17.08 4.62 9.22 5.05 15.16 14.19 18.15 24.07 1.93 6.37 2.79 13.15 2.44 19.81-2.04 14.29-11.23 24.77-23.6 31.13-6.69 3.45-13.86 7.05-17.68 13.54-8.82 14.97 6.52 26.47 14.27 37.33 0 0-1 1-1 2-.99 1.01-2.99 1.01-4.99 1.01z" fill="#fff"/></g><g clip-path="url(#b)" opacity=".35"><path d="M25.04 152.75c-12-2-22-11-24-23-3-9-2-18 4-27 4-5 8-10 13-13 2-1 3-1 5-2l6-6c5-8-2-15-4-23 0-1 1-2 2-3 7-5 15 0 21 5 5 4 9 10 10 16 3 10 1 19-4 28-1 2-3 3-4 5-6 6-15 8-20 15-4 7 0 14 3 20 2 5-3 10-8 8z" fill="#fff"/></g></svg>