<svg viewBox="0 0 128 128" width="128" height="128" xmlns="http://www.w3.org/2000/svg"><linearGradient id="a" x1="16.5" x2="122" y1="94.989" y2="94.989" gradientUnits="userSpaceOnUse"><stop stop-color="#CDE5B1" offset=".005"/><stop stop-color="#fff" offset=".646"/><stop stop-color="#F7FBF2" offset=".702"/><stop stop-color="#E1F0D1" offset=".804"/><stop stop-color="#BFDE9B" offset=".94"/><stop stop-color="#AED581" offset="1"/></linearGradient><path d="M9 84.69l-.29 19.71h.06c0 10.74 24.6 19.45 54.94 19.45s54.94-8.71 54.94-19.45h.06l-.23-19.09s1.96-19.19-54.1-19.19C7.46 66.12 8.88 84.8 9 84.69z" fill="url(#a)"/><path d="M154.21 31.5c0 .6.08 1.19.19 1.77v-3.54a8.72 8.72 0 0 0-.19 1.77zM154.4 29.66v.06c0-.02.01-.04.01-.06 0 .01-.01 0-.01 0z" fill="#424242" opacity=".2"/><ellipse cx="63.71" cy="105.31" rx="54.94" ry="18.54" fill="#D6EABF"/><ellipse cx="50.43" cy="108.56" rx="12.92" ry="4.82" fill="#009245"/><ellipse cx="66.63" cy="94.96" rx="7.87" ry="3.63" fill="#00C853"/><ellipse cx="21" cy="98.16" rx="3.94" ry="1.82" fill="#7CB342"/><ellipse cx="18.75" cy="102.09" rx="2.65" ry="1.22" fill="#8BC34A"/><ellipse cx="25.1" cy="105.05" rx="2.65" ry="1.22" fill="#7CB342"/><ellipse cx="31.35" cy="110.71" rx="4.52" ry="2.09" fill="#64DD17"/><ellipse cx="17.06" cy="107.32" rx="2.82" ry="1.3" fill="#7CB342"/><ellipse cx="71.67" cy="107.87" rx="5.03" ry="2.32" fill="#009245"/><ellipse cx="85.08" cy="99.98" rx="7.31" ry="2.71" fill="#AED581"/><ellipse cx="98.8" cy="104.09" rx="5.03" ry="2.32" fill="#00C853"/><ellipse cx="103.56" cy="112.22" rx="2.52" ry="1.16" fill="#7CB342"/><ellipse cx="94.57" cy="111.43" rx="4.23" ry="1.95" fill="#7CB342"/><ellipse cx="86.1" cy="107.41" rx="4.23" ry="1.95" fill="#64DD17"/><path d="M100.28 27.17l-.38-.37-2.8-2.8-29.63 29.64-.46 2.94c6.26-3.58 12.62-7.03 19.23-9.76l16.84-16.84-2.8-2.81z" fill="#E3F2FD"/><path d="M66.76 58.15l-3.94 4.83 1.27 1.27 4.83-3.94 4.51-.71 12.8-12.8c-6.61 2.73-17.99 2.52-19.23 9.76l-.24 1.59z" fill="#64DD17"/><linearGradient id="b" x1="94.223" x2="121.56" y1="32.874" y2="5.242" gradientUnits="userSpaceOnUse"><stop stop-color="#29ABE2" offset="0"/><stop stop-color="#0071BC" offset="1"/></linearGradient><path d="M90.1 24.58c-1.24 1.24.53 5.02 3.95 8.44s7.2 5.19 8.44 3.95c.76-.76.38-2.49-.82-4.51l21.07-20.05-.04-.04c1.6-1.96 1.5-4.84-.32-6.67s-4.71-1.92-6.67-.32l-.04-.04L94.61 25.4c-2.01-1.21-3.74-1.59-4.51-.82z" fill="url(#b)"/><path d="M118.88 6.17c.79 0 1.53.31 2.09.86 1.08 1.08 1.16 2.8.19 3.99-.04.05-.08.11-.12.16L100.3 30.93a1.99 1.99 0 0 0-.34 2.47c.46.78.71 1.37.83 1.77-.55-.16-1.36-.53-2.36-1.2a1.982 1.982 0 0 0-2.52.25L72.48 57.65l-3.73.58.22-1.43.36-2.29 23.42-23.42c.67-.67.78-1.73.25-2.52-.71-1.06-1.05-1.85-1.2-2.36.44.13 1.04.39 1.77.83a2.013 2.013 0 0 0 2.41-.27l20.74-19.74c.08-.05.17-.11.25-.17.54-.45 1.22-.69 1.91-.69m0-2c-1.12 0-2.25.38-3.17 1.13l-.04-.04-21.06 20.05c-1.31-.78-2.5-1.22-3.38-1.22-.48 0-.86.13-1.13.4-.85.85-.29 2.88 1.24 5.18L67.47 53.55l-.46 2.94-.25 1.57-3.94 4.83 1.27 1.27 4.83-3.94 4.51-.71 23.88-23.88c1.57 1.05 3.02 1.64 4.05 1.64.48 0 .86-.13 1.13-.4.76-.76.38-2.49-.82-4.51l21.07-20.05-.04-.04c1.6-1.96 1.5-4.84-.32-6.67a5.028 5.028 0 0 0-3.5-1.43z" fill="#424242" opacity=".2"/><path d="M53.16 79.48l-.09.65c-.3 2.59.05 5.68 2.85 6.74 2.29.87 4.65-.38 5.84-2.37 1.56-2.63.9-5.89.24-8.69-.77-3.25-1.2-6.21-.5-9.51-4.5 2.82-7.55 7.96-8.34 13.18z" fill="#64DD17"/><path d="M64.37 68.78c14.27 0 39.58 1.44 48.77 11.06 2.6 2.72 2.68 4.92 2.68 5.24-.02.12-.01.13-.01.27l.23 18.51c-.04.18-.06.36-.06.55 0 7.95-21.47 16.8-52.29 16.8s-52.29-8.85-52.29-16.8c0-.18-.02-.36-.05-.54l.29-19.13c0-.12 0-.25-.02-.37.03-.39.29-2.27 2.61-4.62 9.47-9.55 35.48-10.97 50.14-10.97m0-2.66C7.63 66.12 8.87 84.69 9 84.69l-.29 19.71h.06c0 10.74 24.6 19.45 54.94 19.45s54.94-8.71 54.94-19.45h.06l-.23-19.09c-.01 0 1.96-19.19-54.11-19.19z" fill="#424242" opacity=".2"/><path d="M47.3 113.83c3.62 1.3 6.81 4.6 10.78 4.7.65.02 1.29-.04 1.92-.13V98.67s-6.46-.08-18.33-1.33c-12.22-1.29-15.92-3.83-15.92-3.83 0 .34.12 10.52.19 16.91 5.22 5.67 14.39.91 21.36 3.41zM95.12 112.36c.88 5.55 7.32 2.83 9.65-.3 2.98-3.98 1.85-20.44 1.85-20.44l-12.48 3.84c-.03 5.64.12 11.44.98 16.9z" fill="#fff" opacity=".45"/><path d="M63.71 96.91c-25.92 0-44.98-5.41-51.47-11.6v1.61c0 .47.22.91.61 1.17C22 94.32 41.1 99.44 63.71 99.44c22.27 0 41.15-5.43 50.46-11.52.4-.26.63-.71.63-1.18v-1.08c-6.84 6.04-25.66 11.25-51.09 11.25z" fill="#fff" opacity=".94"/><path d="M59.19 70.93c.11 1.88.47 3.66.87 5.35.64 2.7 1.13 5.29-.01 7.2-.6 1.02-1.62 1.67-2.6 1.67-.27 0-.55-.05-.81-.15-1.34-.51-1.87-2.07-1.58-4.65.02-.19.05-.39.08-.58.5-3.28 1.96-6.42 4.05-8.84m2.31-4.62zm0 0c-4.5 2.82-7.55 7.95-8.34 13.17l-.09.65c-.3 2.59.05 5.68 2.85 6.74.51.19 1.02.28 1.52.28 1.76 0 3.4-1.1 4.32-2.65 1.56-2.63.9-5.89.24-8.69-.77-3.24-1.19-6.21-.5-9.5z" fill="#424242" opacity=".2"/></svg>