<svg viewBox="0 0 128 128" width="128" height="128" xmlns="http://www.w3.org/2000/svg" xmlns:xlink="http://www.w3.org/1999/xlink"><defs><path id="a" d="M4 4h120v120H4z"/></defs><clipPath id="b"><use xlink:href="#a"/></clipPath><g clip-path="url(#b)"><path d="M47.57 119.76c-4.74-.32-17.43-2.03-20.07-6.08-8.4-12.85-6.17-29.37-3.81-46.87 1.08-8 2.2-16.28 2.2-24.16 0-1.5.35-36.39 38.15-37.01 15.86.26 27.1 6.42 33.34 18.31 4.64 8.83 4.75 17.7 4.75 18.68 0 7.9 1.12 16.18 2.2 24.18 2.36 17.49 4.59 34.02-3.81 46.87-2.64 4.05-15.33 5.75-20.07 6.08l-16.44-.02-16.44.02z" fill="#E8E8E8"/><path d="M64 7.14c15.31.26 26.09 6.15 32.05 17.5 4.47 8.51 4.58 17.04 4.58 18 0 7.99 1.12 16.31 2.21 24.37 2.32 17.21 4.51 33.46-3.58 45.85-1.74 2.65-11.12 4.86-18.87 5.4L64 118.23l-16.38.02c-7.74-.54-17.13-2.74-18.87-5.4-8.1-12.38-5.9-28.64-3.58-45.85 1.09-8.05 2.21-16.38 2.21-24.39 0-.94.11-9.47 4.58-17.98C37.92 13.29 48.7 7.4 64 7.14m0-3c-39.93.65-39.62 37.91-39.62 38.51 0 24.56-10.89 52.35 1.86 71.85 3.65 5.58 21.28 6.76 21.28 6.76l16.48-.03 16.49.02s17.63-1.18 21.28-6.76c12.75-19.5 1.86-47.29 1.86-71.85 0-.59.31-37.85-39.63-38.5z" fill="#B0B0B0"/></g><g clip-path="url(#b)"><linearGradient id="c" x1="64" x2="64" y1="105.29" y2="127.3" gradientUnits="userSpaceOnUse"><stop stop-color="#651FFF" offset="0"/><stop stop-color="#5914F2" offset=".705"/><stop stop-color="#530EEB" offset="1"/></linearGradient><path d="M13.5 130.5v-9.44c0-16.24 25.36-23.53 50.5-23.56h.13c25.03 0 50.37 8.09 50.37 23.56v9.44h-101z" fill="url(#c)"/><path d="M64.13 99c12.9 0 25.42 2.19 34.36 6 6.62 2.83 14.51 7.91 14.51 16.05V129H15v-7.94c0-15.2 24.61-22.03 49-22.06h.13m0-3H64c-25.49.03-52 7.28-52 25.06V132h104v-10.94C116 104.3 89.74 96 64.13 96z" fill="#4A00ED"/></g><linearGradient id="d" x1="63.573" x2="63.573" y1="125.99" y2="99" gradientUnits="userSpaceOnUse"><stop stop-color="#391184" offset=".079"/><stop stop-color="#431A8E" offset=".192"/><stop stop-color="#572CA5" offset=".48"/><stop stop-color="#6336B2" offset=".755"/><stop stop-color="#673AB7" offset="1"/></linearGradient><path d="M22.69 104.73l16.64 7.28L45 124h36.83l7.84-13.04 14.78-6.47S91.02 95.45 63.99 96c-30.15.6-41.3 8.73-41.3 8.73z" clip-path="url(#b)" fill="url(#d)"/><g clip-path="url(#b)"><linearGradient id="e" x1="64.151" x2="63.903" y1="106.94" y2="83.47" gradientUnits="userSpaceOnUse"><stop stop-color="#9FA8DA" offset="0"/><stop stop-color="#929CD5" offset=".341"/><stop stop-color="#7986CB" offset=".814"/></linearGradient><path d="M63.99 118.54c-2.34-1.9-10.67-8.64-17.66-13.72-7.07-5.14-9.53-11.53-6.58-17.1 1.59-3.01 4.32-4.53 8.09-4.53 5.57 0 11.47 3.28 11.53 3.31l.45.25L64 84.81l4.17 1.94.45-.25c.06-.03 5.96-3.31 11.53-3.31 3.78 0 6.5 1.52 8.09 4.53 2.95 5.57.49 11.96-6.58 17.1-6.99 5.08-15.33 11.82-17.67 13.72z" fill="url(#e)"/><path d="M80.14 84.19c3.43 0 5.79 1.31 7.21 4 2.69 5.09.35 11-6.28 15.82-6.48 4.71-14.11 10.84-17.08 13.24-2.97-2.41-10.59-8.53-17.07-13.24-6.63-4.82-8.98-10.74-6.28-15.82 1.43-2.69 3.78-4 7.21-4 5.3 0 10.99 3.15 11.04 3.18l.89.5.93-.43 1.28-.6v.32l2.1-1.21 3.18 1.48.93.43.89-.5c.07-.02 5.76-3.17 11.05-3.17m0-2c-5.91 0-12.02 3.44-12.02 3.44L64 83.71l-4.12 1.92s-6.11-3.44-12.02-3.44c-3.5 0-6.94 1.21-8.98 5.06-2.84 5.37-1.38 12.38 6.88 18.38S64 119.83 64 119.83s10-8.2 18.25-14.2 9.72-13.01 6.88-18.38c-2.05-3.85-5.48-5.06-8.99-5.06z" fill="#7E57C2"/></g><g clip-path="url(#b)"><path d="M58.77 102.18a8.644 8.644 0 0 1-2.85-6.41v-4.7h16.16v4.7c0 2.44-1.04 4.78-2.85 6.41l-5.23 4.7-5.23-4.7z" fill="#3C2B24"/><path d="M71.08 92.08v3.7c0 2.16-.92 4.22-2.52 5.66l-4.56 4.1-4.56-4.1a7.638 7.638 0 0 1-2.52-5.66v-3.7h14.16m2-2H54.92v5.7c0 2.73 1.16 5.33 3.19 7.15l5.9 5.31 5.9-5.31a9.602 9.602 0 0 0 3.19-7.15v-5.7h-.02z" fill="#291B16"/></g><g clip-path="url(#b)"><defs><path id="f" d="M64 4.03h-.04c-45.43.24-36.12 52.14-36.12 52.14s5.1 8.99 5.1 8.81c-.03-1.41.46-6.89.46-6.89l-2.68-2.92s3.89-25.44 6.79-24.91c4.45.81 26.54 2 26.57 2 7.83 0 14.92-.36 19.37-1.17 2.9-.53 9.64 1.7 10.68 4.45 1.33 3.54 3.13 19.71 3.13 19.71l-2.68 2.83s.49 5.51.46 6.89c0 .18 5.1-8.81 5.1-8.81S109.44 4.27 64 4.03z"/></defs></g><g clip-path="url(#b)"><path d="M39.5 72.07c-2.66-.6-9.53-2.96-14.11-11.86-2.94-5.71-3.66-15.82-3.83-19.92L39.5 51v21.07z" fill="#3C2B24"/><path d="M22.65 42.11l15.85 9.45v19.19c-3-.95-8.43-3.63-12.22-11.01-2.48-4.8-3.33-12.94-3.63-17.63M20.5 38.5s.12 14.62 4 22.17c6 11.67 16 12.59 16 12.59V50.43l-20-11.93z" fill="#291B16"/><path d="M88.5 51l17.95-10.71c-.18 4.1-.9 14.21-3.83 19.92-4.58 8.9-11.45 11.26-14.11 11.86V51z" fill="#3C2B24"/><path d="M105.35 42.11c-.29 4.69-1.15 12.82-3.63 17.64-3.8 7.38-9.23 10.06-12.22 11.01V51.57l15.85-9.46m2.15-3.61l-20 11.93v22.82s10-.92 16-12.59c3.88-7.54 4-22.16 4-22.16z" fill="#291B16"/></g><g clip-path="url(#b)"><linearGradient id="g" x1="64.49" x2="64.49" y1="94.708" y2="17.885" gradientUnits="userSpaceOnUse"><stop stop-color="#5C4037" offset="0"/><stop stop-color="#63463D" offset=".158"/><stop stop-color="#6D5047" offset=".533"/><stop stop-color="#70534A" offset="1"/></linearGradient><path d="M64.49 95.27c-2.3 0-4.91-.5-7.56-1.43-11.34-4.01-24.57-16.34-24.57-37.89 0-28.72 17.31-38.91 32.13-38.91s32.13 10.19 32.13 38.91c0 21.58-13.26 33.9-24.61 37.9-2.63.93-5.23 1.42-7.52 1.42z" fill="url(#g)"/><path d="M64.49 18.04c8.41 0 16.06 3.25 21.55 9.15 6.27 6.73 9.58 16.68 9.58 28.77 0 21.06-12.9 33.07-23.94 36.96-2.53.89-5.01 1.36-7.19 1.36-2.19 0-4.69-.48-7.23-1.38-11.03-3.9-23.9-15.92-23.9-36.94 0-12.09 3.31-22.03 9.58-28.77 5.49-5.9 13.14-9.15 21.55-9.15m0-2c-17.2 0-33.13 12.79-33.13 39.91 0 21.79 13.49 34.67 25.23 38.83 2.8.99 5.5 1.49 7.9 1.49 2.38 0 5.07-.49 7.85-1.47 11.76-4.14 25.28-17.03 25.28-38.84 0-27.13-15.93-39.92-33.13-39.92z" fill="#4A2F27"/><defs><path id="h" d="M30.9 88.85l-1.5-51.44c0-16.95 15.78-29.85 32.73-29.85h4.93c16.95 0 32.54 12.9 32.54 29.85l-1.5 51.18-67.2.26z"/></defs><clipPath id="i"><use xlink:href="#h"/></clipPath><g clip-path="url(#i)"><radialGradient id="j" cx="-47.713" cy="-123.13" r="48.206" gradientTransform="matrix(.796 0 0 .796 102.47 97.597)" gradientUnits="userSpaceOnUse"><stop stop-color="#fff" offset="0"/><stop stop-color="#F8F8F8" offset=".436"/><stop stop-color="#E8E8E8" offset=".995"/></radialGradient><path d="M102.38 42.65S103.4 7.08 64.57 7.08 26.6 42.65 26.6 42.65s.33 45.48 3.2 51.39 7.2 5.71 7.2 5.71-2.03-26.54-2.26-39.04c-.06-2.92-.94-13.73 5.16-15.09 22.36-5.02 34.49-14.95 34.49-14.95 4.66 5.94 14.1 12.25 17.79 14.92 3.03 2.19 2.61 11.2 2.55 15.03l-3.05 39.06s4.68.37 7.65-5.64c2.96-6.02 3.05-51.39 3.05-51.39z" fill="url(#j)"/></g><path d="M68.8 68.05c-.1-.04-.21-.07-.32-.08H61.5c-.11.01-.21.04-.32.08-.63.26-.98.91-.68 1.61s1.69 2.66 4.49 2.66 4.19-1.96 4.49-2.66c.3-.69-.04-1.35-.68-1.61z" fill="#33251F"/><g fill="#1A1717"><ellipse cx="48.24" cy="58.87" rx="4.87" ry="5.04"/><ellipse cx="80.74" cy="58.87" rx="4.87" ry="5.04"/><path d="M55.47 49.82c-.93-1.23-3.07-3.01-7.23-3.01s-6.31 1.79-7.23 3.01c-.41.54-.31 1.17-.02 1.55.26.35 1.04.68 1.9.39s2.54-1.16 5.35-1.18c2.81.02 4.49.89 5.35 1.18s1.64-.03 1.9-.39c.29-.38.39-1.01-.02-1.55zM87.97 49.82c-.93-1.23-3.07-3.01-7.23-3.01s-6.31 1.79-7.23 3.01c-.41.54-.31 1.17-.02 1.55.26.35 1.04.68 1.9.39s2.54-1.16 5.35-1.18c2.81.02 4.49.89 5.35 1.18s1.64-.03 1.9-.39c.29-.38.39-1.01-.02-1.55z"/></g><path d="M72.81 76.14c-3.15 1.87-13.46 1.87-16.61 0-1.81-1.07-3.65.57-2.9 2.21.74 1.61 6.37 5.36 11.23 5.36s10.42-3.75 11.16-5.36c.75-1.64-1.07-3.29-2.88-2.21z" fill="#1A1717"/></g><g fill="#212121"><path d="M64 48.4z"/><path d="M103.67 38.38c-1.13.21-2.98.59-3.39.61-3.97.17-7.59-1.63-11.39-3.52 3.59-1.12 12.87-2.76 13.38-2.7.4.05.12-2.99-.15-3.02-.6-.06-3.65-.11-4.29-.08-4.27.21-9.22 1.61-14.04 3.47-3.1-1.15-6.22-1.66-9.13-1.43-5.32.41-10.65 4.14-10.65 4.14H64v-.01h-.02v.01h-.01s-5.33-3.73-10.65-4.14c-2.91-.23-6.03.29-9.13 1.43-4.82-1.86-9.77-3.27-14.04-3.47-.64-.03-3.69.02-4.29.08-.28.03-.56 3.07-.15 3.02.51-.06 9.79 1.58 13.38 2.7-3.8 1.89-7.42 3.69-11.39 3.52-.41-.02-2.26-.4-3.39-.61-.32-.06-.23 1.79.05 1.85 0 0 .91 1.38 3.36 1.52 4.46.25 8.94-1.7 12.79-3.62.86-.43 1.72-.85 2.59-1.26 4.01 1.56 7.94 3.51 11.35 5.4l9.44 6.05.09.07.01-.01.01.02.09-.07 9.44-6.05c3.41-1.89 7.34-3.84 11.35-5.4.87.41 1.73.83 2.59 1.26 3.85 1.91 8.33 3.86 12.79 3.62 2.45-.14 3.36-1.52 3.36-1.52.28-.07.37-1.92.05-1.86zm-39.5 4.79c-.09.05-.14.08-.17.1 0 0-.01 0-.01.01 0 0-.01 0-.01-.01-.02-.01-.08-.05-.17-.1-2.68-1.77-8.54-5.21-15.19-8.18 1.54-.3 3.04-.41 4.48-.28 6.06.54 10.87 4.75 10.87 4.75l.02-.01.02.01s4.82-4.2 10.87-4.75c1.43-.13 2.94-.02 4.48.28-6.65 2.97-12.51 6.4-15.19 8.18z" opacity=".36"/></g><path d="M64 42.22c-.01 0-.01.01-.02.01-4.81-3.31-21.4-13.02-32.89-13.6-.62-.03-3.58.02-4.17.08-.27.03-1.13.48-1.5 1.92-.34 1.34.1 2.24.49 2.19.5-.06 2.79-.1 3.89-.12 11.11-.26 27.13 9.44 33 13.7l1.17.97.03-.02v-5.13zM64 42.22c.01 0 .01.01.02.01 4.81-3.31 21.4-13.02 32.89-13.6.62-.03 3.58.02 4.17.08.27.03 1.13.48 1.5 1.92.34 1.34-.1 2.24-.49 2.19-.5-.06-2.79-.1-3.89-.12-11.11-.26-27.13 9.44-33 13.7l-1.17.97-.03-.02v-5.13z" fill="#97B4C2"/><linearGradient id="k" x1="73.35" x2="73.35" y1="47.362" y2="39.921" gradientTransform="matrix(-1 0 0 1 137.35 0)" gradientUnits="userSpaceOnUse"><stop stop-color="#651FFF" offset="0"/><stop stop-color="#5914F2" offset=".705"/><stop stop-color="#530EEB" offset="1"/></linearGradient><path d="M64 42.24c.03-.01 3.32-2.1 5.86-2.31 1.43-.12 3.89 1 3.89 1L64 47.36l-9.75-6.43s2.46-1.12 3.89-1c2.54.21 5.84 2.29 5.86 2.31z" fill="url(#k)"/><path d="M63.97 34.82s-5.18-3.73-10.35-4.14c-3.39-.27-7.08.51-10.67 2.18-1.06.5-2.11 1.03-3.16 1.57-3.7 1.89-7.22 3.7-11.09 3.53-.4-.02-2.5-.46-3.6-.67-.31-.06-1.25 0-1.4 1.22-.15 1.16.86 1.77 1.12 1.83.74.18 2.17.63 3.46.63.29 0 .59.01.93.01 4.35 0 8.19-1.96 11.94-3.88 1.01-.52 2.03-1.04 3.07-1.52 3.12-1.46 6.3-2.17 9.18-1.91 5.89.54 10.57 4.75 10.57 4.75l.03-.03V34.8c-.01.01-.02.01-.03.02zM64.03 34.82s5.18-3.73 10.35-4.14c3.39-.27 7.08.51 10.67 2.18 1.06.5 2.11 1.03 3.16 1.57 3.7 1.89 7.22 3.7 11.09 3.53.4-.02 2.5-.46 3.6-.67.31-.06 1.25 0 1.4 1.22.15 1.16-.86 1.77-1.12 1.83-.74.18-2.17.63-3.46.63-.29 0-.59.01-.93.01-4.35 0-8.19-1.96-11.94-3.88-1.01-.52-2.03-1.04-3.07-1.52-3.12-1.46-6.3-2.17-9.18-1.91-5.89.54-10.57 4.75-10.57 4.75l-.03-.03V34.8c.01.01.02.01.03.02z" fill="#97B4C2"/><g fill="#EDE7F6"><path d="M23.12 104.73s6.3 1.81 9.14 2.88c1.41.55 2.82 1.1 4.22 1.69 1.39.59 2.79 1.17 4.17 1.8l.03.01c.21.1.38.27.47.47.93 2.01 5.5 11.33 5.8 12.41h-3.44l-4.21-11.33c-5.8-2.28-14.16-6.22-16.18-7.93z"/><path d="M37.54 113.84c-7.33-4.03-10.6 1.65-10.6 1.65s3.71 1.52 5.86 1.09c3.35-.67 4.74-2.74 4.74-2.74zM45.9 118.26c4.96-5.8 1.62-9.82 1.62-9.82s-2.4 1.14-2.89 3.83c-.63 3.54 1.27 5.99 1.27 5.99zM38.68 108.73c.27-6.69-4.06-7.61-4.06-7.61s-.94 2.39.08 4.54c1.17 2.46 3.98 3.07 3.98 3.07zM104.88 104.73s-6.3 1.81-9.14 2.88c-1.41.55-2.82 1.1-4.22 1.69-1.39.59-2.79 1.17-4.17 1.8l-.03.01c-.21.1-.38.27-.47.47-.93 2.01-5.5 11.33-5.8 12.41h3.44l4.21-11.33c5.8-2.28 14.16-6.22 16.18-7.93z"/><path d="M90.46 113.84c7.33-4.03 10.6 1.65 10.6 1.65s-3.71 1.52-5.86 1.09c-3.35-.67-4.74-2.74-4.74-2.74zM82.1 118.26c-4.96-5.8-1.62-9.82-1.62-9.82s2.27 1.17 2.89 3.83c.82 3.54-1.27 5.99-1.27 5.99zM89.32 108.73c-.27-6.69 4.06-7.61 4.06-7.61s.94 2.39-.08 4.54c-1.17 2.46-3.98 3.07-3.98 3.07z"/></g></svg>