<svg viewBox="0 0 128 128" width="128" height="128" xmlns="http://www.w3.org/2000/svg" xmlns:xlink="http://www.w3.org/1999/xlink"><linearGradient id="a" x1="92.711" x2="71.401" y1="47.445" y2="30.083" gradientTransform="rotate(5.025 -624.88 57.905)" gradientUnits="userSpaceOnUse"><stop stop-color="#BA8D68" offset=".309"/><stop stop-color="#A47B62" offset=".813"/></linearGradient><path d="M74.01 105.97c-4.87-2.38-6.36-5.48-7.25-8.47-.95-3.23-3.18-9.82-3.78-11.59l11.51-4.66 3.87 14.86c.03.12.1.22.21.29l17.58 11.83-.53 6.73-21.61-8.99z" fill="url(#a)"/><path d="M74.15 81.93l3.72 14.31c.06.24.21.44.41.58l17.33 11.67-.45 5.75-20.94-8.71c-4.44-2.18-6.01-4.84-6.99-8.16-.89-3.01-2.87-8.92-3.64-11.16l10.56-4.28m.68-1.35l-12.48 5.05s2.82 8.25 3.93 12.02c.92 3.12 2.47 6.31 7.53 8.79l22.24 9.26.6-7.71-17.81-12-4.01-15.41z" fill="#91674D"/><path d="M88.8 112.14c-.09-.93-.21-4.17 2.03-7.49l6.49 3.68-.92 7.2-7.6-3.39z" fill="#E0E0E0"/><path d="M91 105.35l5.75 3.26-.79 6.16-6.67-2.98c-.05-1.08.02-3.7 1.71-6.44m-.33-1.39c-3.13 4.29-2.36 8.54-2.36 8.54l8.51 3.8 1.06-8.25-7.21-4.09z" fill="#CCC7BD"/><path d="M65.84 94.57c-1.6-3.69-3.88-9.42-4.03-10.97l14.3-7.51c-.05 6.42 2.46 10.39 3.38 11.64-1.56 1.31-7.73 6.21-13.65 6.84z" fill="#616161"/><path d="M75.59 76.96c.15 5.49 2.14 9.13 3.19 10.68-1.92 1.57-7.34 5.64-12.62 6.37-1.72-4.01-3.45-8.51-3.78-10.11l13.21-6.94m1.06-1.74zm0 0l-15.37 8.07c-.23 1.63 4.22 11.84 4.22 11.84 7.18-.54 14.7-7.33 14.7-7.33s-3.91-4.44-3.55-12.58z" fill="#4F4F4F"/><linearGradient id="b" x1="-433.14" x2="-454.94" y1="-551.75" y2="-575.13" gradientTransform="rotate(72.806 -635.524 97.962)" gradientUnits="userSpaceOnUse"><stop stop-color="#BA8D68" offset=".309"/><stop stop-color="#A47B62" offset=".813"/></linearGradient><path d="M44.95 108.09c-.84-2.09-5.56-13.93-6.39-17.01-1.5-5.58 1.02-8.96 3.89-10.26l22.22-10.06 4.03 12.53-19.33 6.39c-.25.08-.39.35-.33.6.65 2.47 2.95 14.9 3.48 17.75l-7.57.06z" fill="url(#b)"/><path d="M64.37 71.45l3.71 11.52-18.86 6.23c-.5.17-.79.69-.65 1.2.61 2.32 2.68 13.46 3.36 17.13l-6.63.06c-1.1-2.76-5.46-13.71-6.24-16.64-1.42-5.28.93-8.46 3.61-9.67l21.7-9.83m.61-1.38l-22.73 10.3c-2.88 1.3-5.77 4.87-4.16 10.84.92 3.43 6.53 17.38 6.53 17.38l8.5-.08s-2.84-15.54-3.59-18.37l19.8-6.54-4.35-13.53z" fill="#91674D"/><path d="M43.49 104.4c.83-.6 3.49-2.29 7.32-2.29.24 0 .48.01.72.02l1.51 7.92-6.83 2.49-2.72-8.14z" fill="#E0E0E0"/><path d="M50.81 102.64h.29l1.34 7.07-5.91 2.15-2.42-7.26c1.01-.67 3.38-1.96 6.7-1.96m0-1.05c-4.91 0-7.93 2.63-7.93 2.63l3 9 7.75-2.83-1.66-8.75c-.4-.04-.79-.05-1.16-.05z" fill="#CCC7BD"/><path d="M39.49 119.89c-.69 0-1.17-.39-1.24-.6l-.42-1.29a3.736 3.736 0 0 1 1.18-4.04l5.25-3.16c.04-.02.07-.05.1-.08s2.89-2.86 7.18-2.86c.28 0 .56.01.85.04.37.36 1.51 1.54 1.9 2.77l.61 2.23c.23 1.06-.3 1.88-.63 1.99l-14.41 4.98c-.09 0-.23.02-.37.02z" fill="#4568AD"/><path d="M51.54 108.38c.2 0 .41.01.62.02.5.5 1.34 1.48 1.62 2.38l.61 2.22c.17.81-.2 1.33-.3 1.39l-14.34 4.96c-.09.02-.17.03-.26.03-.41 0-.68-.19-.75-.27l-.41-1.25c-.4-1.24-.02-2.58.96-3.43l5.24-3.16c.07-.05.14-.1.21-.16.02-.05 2.71-2.73 6.8-2.73m0-1.05c-4.58 0-7.55 3.02-7.55 3.02l-5.31 3.2a4.272 4.272 0 0 0-1.34 4.61l.42 1.29c.15.47.86.96 1.73.96.18 0 .36-.02.54-.06l14.4-4.98c.64-.21 1.26-1.31.98-2.62l-.62-2.25c-.52-1.64-2.17-3.11-2.17-3.11-.37-.04-.73-.06-1.08-.06z" fill="#315499"/><path d="M58.91 89.15c-1.14-1.82-5.94-9.1-10.49-11.07l5.57-2.87c.21-.11.32-.33.27-.56l-.79-4.12.23-3.74 18.56-4.72 2.54 5.56c1.98 3.52 3.97 11.12-2.51 14.95-3.16 1.86-11.43 5.67-13.38 6.57z" fill="#7C7C7C"/><path d="M71.97 62.68l2.36 5.16c.01.03.03.05.04.08 1.87 3.33 3.79 10.59-2.34 14.2-2.96 1.75-10.43 5.21-12.93 6.36-1.39-2.15-5.43-8.03-9.54-10.4l4.66-2.41c.41-.21.64-.67.55-1.13L54 70.49l.2-3.29 17.77-4.52m.58-1.23L53.2 66.38l-.26 4.18.8 4.18-6.68 3.45c5.26 1.05 11.65 11.62 11.65 11.62s10.21-4.63 13.86-6.79c6.72-3.97 4.87-11.8 2.72-15.62l-2.74-5.95z" fill="#5B5B5B"/><path d="M103.9 122c-1.1 0-2.15-.48-2.86-1.32l-4.5-5.23c-.16-.66-.9-4.16-.53-8.62.1-.18.49-.82 1.58-1.4l2.19-.63c.17-.04.36-.06.55-.06.79 0 1.35.39 1.45.67l5.16 14.34c.21.84-.29 1.53-.55 1.62l-1.28.43c-.41.13-.81.2-1.21.2z" fill="#4568AD"/><path d="M100.31 105.27c.57 0 .91.25.96.33l5.14 14.28c.12.53-.14.93-.24 1.01l-1.25.42c-.33.11-.68.17-1.03.17-.95 0-1.85-.42-2.47-1.14l-4.41-5.13c-.19-.86-.83-4.11-.5-8.21.13-.2.48-.64 1.26-1.07l2.1-.61c.15-.04.3-.05.44-.05m0-1.05c-.22 0-.45.02-.69.08l-2.24.64c-1.53.79-1.89 1.75-1.89 1.75-.44 5.15.57 9 .57 9l4.58 5.32a4.3 4.3 0 0 0 3.26 1.51c.45 0 .91-.07 1.36-.22l1.28-.43c.56-.19 1.15-1.18.87-2.29l-5.16-14.34c-.18-.52-.95-1.02-1.94-1.02z" fill="#315499"/><linearGradient id="c" x1="47.317" x2="49.621" y1="90.674" y2="90.674" gradientUnits="userSpaceOnUse"><stop stop-color="#BA8D68" offset=".309"/><stop stop-color="#A47B62" offset=".813"/></linearGradient><path d="M47.32 87.75c2.09 1.73 2.16 4.8 2.3 5.84" fill="url(#c)" stroke="#91674D" stroke-linecap="round" stroke-linejoin="round" stroke-miterlimit="10"/><path d="M47.68 115.09c-4.39 1.71-7.46 3.03-8.73 4.03-1.33.91-.17 1.54 1.13 1.18l12.3-3.7c2.33-.79 3.18-1.8 3.08-2.92-.1-1.11-3.66-.2-7.78 1.41z" fill="#294B7C"/><path d="M53.74 74.74c10.04-7.05 22.57-5.08 22.57-5.08-1.54-4.2-4.48-9.59-4.48-9.59S53 65.04 52.64 67.62s1.1 7.12 1.1 7.12z" opacity=".2"/><linearGradient id="d" x1="35.421" x2="60.291" y1="99.519" y2="99.519" gradientTransform="rotate(-3.341 -631.044 108.498)" gradientUnits="userSpaceOnUse"><stop stop-color="#BA8D68" offset=".309"/><stop stop-color="#A47B62" offset=".813"/></linearGradient><path fill="url(#d)" d="M35.69 71.68l-1.42-2.06L54.15 48.5l4.17 6.23-19.54 17.2z"/><path d="M54.08 49.3l3.58 5.35-19.05 16.76-2.64-.21-1.05-1.53L54.08 49.3m.13-1.6L33.63 69.57l1.78 2.59 3.54.28 20.03-17.63-4.77-7.11z" fill="#91674D"/><defs><path id="e" d="M38.91 71l-3.61-1.5.87-1.01s-.89-1.14-1.51-.69c-1.15.83-4.81 1.8-6.15 3.33 0 0-5.23 5.29-5.22 6.01 0 .21 3.48 7.02 3.94 7.14 8.75 2.17 12.84-4.23 13.21-4.65 1.4-1.62.44-6.24.25-8.18-.03-.3-.84-1.4-.84-1.4l-.94.95z"/></defs><clipPath id="f"><use xlink:href="#e"/></clipPath><path d="M33.57 71.99s-1.56 2.52-2.1 5.73c-.22 1.33.23 2.52.4 2.74.55.71 1.53.88 1.85.29.27-.51-.4-1.36-.39-1.86.01-.6.36-1.08.36-1.08.21.62 1.62 1.94 2.1 1.81 1.33-.37-.72-2.04-.62-3.14.26-2.86 1.37-4.72 1.37-4.72l-2.97.23z" clip-path="url(#f)" fill="#99674F" stroke="#875740" stroke-linecap="round" stroke-linejoin="round" stroke-miterlimit="10"/><linearGradient id="g" x1="-39.312" x2="-29.588" y1="-412.15" y2="-412.15" gradientTransform="rotate(39.986 -672.177 -72.074)" gradientUnits="userSpaceOnUse"><stop stop-color="#BA8D68" offset="0"/><stop stop-color="#B78A67" offset=".449"/><stop stop-color="#AD8264" offset=".809"/><stop stop-color="#A47B62" offset="1"/></linearGradient><path d="M38.22 78.46c-1.48-.86-.81-4.35-3.6-3.55-2.04.58-2.96 5.06-4.68 6.5-1.67 1.4-3.06.26-2.64-.27 0 0 .91-1.65 1.98-3.41 1.28-2.13 1.74-6.07 5.43-8.54.65-.44 1.23-.65 1.82-.65.63 0 1.28.25 2.06.74.51.32.98 1.08 1.05 1.71.19 1.75-.16 1.58-.51 3.8-.22 1.36.47 1.89.43 2.86-.02.56-.67 1.2-1.34.81z" clip-path="url(#f)" fill="url(#g)" stroke="#91674D" stroke-linecap="round" stroke-linejoin="round" stroke-miterlimit="10"/><radialGradient id="h" cx="56.195" cy="49.08" r="7.964" gradientUnits="userSpaceOnUse"><stop stop-color="#00BFA5" offset="0"/><stop stop-color="#00B29A" offset=".104"/><stop stop-color="#009682" offset=".263"/></radialGradient><path d="M56.7 58.24c-1.11-1.58-3.86-5.04-7.05-5.8 1.5-1.8 5.96-6.93 12.09-12.01.6-.49.83-.52.88-.52.79.93-2.39 10.08-5.92 18.33z" fill="url(#h)"/><path d="M62.19 40.71c-.13 2.37-2.76 9.76-5.61 16.53-1.24-1.63-3.47-4.1-6.07-5.05 1.83-2.15 6-6.78 11.54-11.37.06-.04.1-.07.14-.11m.43-1.29c-.28 0-.67.2-1.2.63-7.7 6.38-12.72 12.76-12.72 12.76 4.27.28 8.09 6.48 8.09 6.48s8.62-19.87 5.83-19.87z" fill="#007F6A"/><circle cx="73.45" cy="41.59" r="4.37" fill="#FBC11B"/><linearGradient id="i" x1="131.75" x2="148.35" y1="-62.753" y2="-29.209" gradientTransform="rotate(-13.34 417.61 330.448)" gradientUnits="userSpaceOnUse"><stop stop-color="#BA8D68" offset=".55"/><stop stop-color="#A47B62" offset=".83"/><stop stop-color="#99674F" offset="1"/></linearGradient><path d="M69.85 15.84c-3.05-4.19-9.46-7.14-14.49-5.92-5.63 1.37-8.4 5.71-8.82 10.98-.15 1.91.05 3.79.47 5.1.05.16.45 1.3.5 1.66.32 1.39-2.29 2.99-2.5 4.56-.15 1.18 2.34 1.74 2.55 1.94 1.03.98-.1 5.89 6.62 6.07 2.34.06 2.79-.22 2.79-.22l.47 7.63s5.02 1.17 9.33-.53c4.92-1.94 1.85-7.7 1.85-7.7s-2.07-3.28-.43-6.58c2.13-4.29 3.62-14.29 1.66-16.99z" fill="url(#i)"/><linearGradient id="j" x1="44.804" x2="71.749" y1="30.662" y2="27.406" gradientUnits="userSpaceOnUse"><stop stop-color="#91674D" offset="0"/><stop stop-color="#875740" offset="1"/></linearGradient><path d="M57.78 10.65c4.08 0 8.82 2.43 11.26 5.78 1.62 2.22.3 11.81-1.75 15.96-1.78 3.59.19 7.08.45 7.52.12.24 1.29 2.65.62 4.47-.3.82-.94 1.42-1.96 1.82-1.44.57-3.13.85-5.03.85-1.25 0-2.32-.13-2.98-.23l-.42-6.85c-.02-.35-.23-.67-.54-.83-.14-.07-.3-.11-.46-.11a.99.99 0 0 0-.42.09c-.08.02-.51.13-1.7.13-.19 0-.41 0-.64-.01-4.22-.12-4.71-2.14-5.13-3.92-.18-.76-.34-1.43-.82-1.88-.19-.18-.42-.27-.79-.41-.81-.31-1.29-.55-1.44-.74.1-.44.61-1.06 1.07-1.61.78-.93 1.66-1.99 1.41-3.2-.06-.34-.24-.9-.49-1.64l-.05-.14c-.4-1.25-.56-3.01-.42-4.72.25-3.1 1.62-8.53 8.05-10.09.68-.16 1.42-.24 2.18-.24m0-1c-.83 0-1.64.09-2.42.28-5.63 1.37-8.4 5.71-8.82 10.98-.15 1.91.05 3.79.47 5.1.05.16.45 1.3.5 1.66.32 1.39-2.29 2.99-2.5 4.56-.15 1.18 2.34 1.74 2.55 1.94 1.03.98-.1 5.89 6.62 6.07.24.01.46.01.66.01 1.77 0 2.13-.23 2.13-.23l.47 7.63s1.68.39 3.93.39c1.64 0 3.58-.21 5.4-.92 4.92-1.94 1.85-7.7 1.85-7.7s-2.07-3.28-.43-6.58c2.13-4.3 3.63-14.3 1.67-17-2.58-3.53-7.56-6.19-12.08-6.19z" fill="url(#j)"/><path d="M48.46 36.91c.93-.02 1.83-.3 2.57-.94.81-.7.17-1.36-.78-.87-.57.3-1.4.49-2.17.4l.38 1.41z" fill="#5D4037"/><ellipse transform="rotate(-6.102 51.727 28.144)" cx="51.72" cy="28.14" rx="1.23" ry="1.89" fill="#49362E"/><path d="M50.55 25.53c-1.12.55-1.53-.18-1.25-.87.21-.51.86-1.02 2.28-1 1.34.03 2.01.68 2.44 1.07s.47.85.18.94c-.41.14-2.27-.82-3.65-.14z" fill="#613E31"/><radialGradient id="k" cx="88.081" cy="-72.113" r="12.406" gradientTransform="matrix(1.0331 -.1066 .1086 .9943 -27.939 96.551)" gradientUnits="userSpaceOnUse"><stop stop-color="#6D4C41" offset="0"/><stop stop-color="#523329" offset="1"/></radialGradient><path d="M59.94 27.13l.88-1.62c.56-.93 1.08-1.73 1.9-1.63 2.44.28 2.43 4.58-.3 5.81 0 0 .78 3.15 3.87 3.66.32.05.61.08.86.08.82.01 1.41-.67 1.54-1.48.85-5.04 2.59-4.22 3.17-10.05.79-8.01-6.68-12.55-13.43-12.41-2.63.05-5.3.69-7.6 1.99-.98.54-4.35 2.72-4.97 4.46-.8 2.24.65 3.97.65 3.97s6.95-1.13 10.22-.71c.43.06.92.15 1.14.52.1.16.25 1.24.27 1.43.36 2.43.28 3.98 1.14 5.46.14.23.66.52.66.52z" fill="url(#k)"/><path d="M58.74 8.97h-.31c-2.86.06-5.57.77-7.84 2.05-.04.02-4.36 2.52-5.21 4.74-.91 2.38.16 3.66.41 3.89.21.19.49.24.74.24.28 0 .51-.07.51-.07-.65-.58-1.19-2.31-.69-3.71.54-1.51 3.66-3.6 4.74-4.19 2.13-1.2 4.67-1.87 7.36-1.92h.3c3.89 0 8.01 1.53 10.38 4.09 1.95 2.11 2.83 4.78 2.54 7.73-.3 3.05-.92 4.19-1.57 5.41-.59 1.09-1.19 2.21-1.59 4.61-.09.51-1.12 1.57-1.04 1.57 1.1-.04 1.87-.36 2.05-1.4.38-2.24.91-3.24 1.48-4.3.67-1.25 1.37-2.54 1.69-5.79s-.65-6.2-2.81-8.52c-2.56-2.78-6.97-4.43-11.14-4.43z" fill="#402821"/><radialGradient id="l" cx="95.47" cy="-98.744" r="11.68" gradientTransform="rotate(9.25 -580.911 -69.442)" gradientUnits="userSpaceOnUse"><stop stop-color="#CED7DB" offset="0"/><stop stop-color="#BFCBD0" offset=".303"/><stop stop-color="#99ABB4" offset=".88"/><stop stop-color="#90A4AE" offset="1"/></radialGradient><circle cx="94.06" cy="15.09" r="11.66" fill="url(#l)"/><path d="M94.05 4.43c.57 0 1.16.05 1.73.14 2.81.46 5.27 1.98 6.93 4.29s2.33 5.13 1.87 7.94c-.85 5.18-5.26 8.94-10.5 8.94-.58 0-1.16-.05-1.73-.14-2.81-.46-5.27-1.98-6.93-4.29s-2.33-5.13-1.87-7.94c.84-5.18 5.26-8.94 10.5-8.94m0-1c-5.61 0-10.56 4.07-11.49 9.79-1.04 6.36 3.28 12.35 9.63 13.38.64.1 1.27.15 1.89.15 5.61 0 10.56-4.07 11.49-9.79 1.04-6.36-3.28-12.35-9.63-13.38-.64-.1-1.27-.15-1.89-.15z" fill="#607C8A"/><linearGradient id="m" x1="93.556" x2="77.003" y1="-78.791" y2="-66.376" gradientTransform="rotate(9.667 -575.307 -29.408)" gradientUnits="userSpaceOnUse"><stop stop-color="#BA8D68" offset=".309"/><stop stop-color="#A47B62" offset=".813"/></linearGradient><path d="M68.59 47.51c-.55-.81-2.19-3.47-1.65-5.68.26-1.07 1.02-1.91 2.26-2.5 4.72-2.24 14.96-2.9 15.06-2.9.12-.01.22-.05.31-.13l9.19-8.43 4.83-1.05.26 2.42c-.8 1.18-6 8.85-7.1 10.22-.18.22-.35.45-.53.68-1.25 1.66-2.55 3.37-7.85 4.6-3.89.91-12.98 2.46-14.78 2.77z" fill="url(#m)"/><path d="M98.15 27.42l.18 1.68c-1.06 1.57-5.92 8.73-6.97 10.03-.18.23-.36.46-.53.69-1.2 1.59-2.44 3.23-7.57 4.42-3.69.87-12.07 2.31-14.43 2.71-.73-1.13-1.81-3.31-1.39-5.02.23-.93.88-1.64 1.99-2.17 4.63-2.2 14.78-2.85 14.88-2.86.23-.01.45-.11.61-.26L94 28.32l4.15-.9m.88-1.21l-5.51 1.2-9.28 8.52s-10.38.64-15.25 2.95c-5.57 2.65-.62 9.18-.62 9.18s10.75-1.8 15.12-2.83c6.21-1.44 7.15-3.58 8.66-5.46 1.21-1.51 7.23-10.4 7.23-10.4l-.35-3.16z" fill="#91674D"/><linearGradient id="n" x1="97.36" x2="98.471" y1="78.042" y2="84.46" gradientTransform="rotate(-4.836 -591.912 29.268)" gradientUnits="userSpaceOnUse"><stop stop-color="#BA8D68" offset=".309"/><stop stop-color="#A47B62" offset=".813"/></linearGradient><path d="M93.84 27.93c.82-2.89 2.89-3.47 2.89-3.47s-1.05-2.61-1.45-3.44-.12-1.4.03-1.48c.5-.28 1.02-.01 1.17.18.67.81 1.68 2.21 1.68 2.21.43-.17-.24-2.43-.58-3.95-.2-.89.86-1.86 1.63-.28.64 1.31 1.45 3.77 1.45 3.77.15-1-.04-2.58-.23-4.57-.09-.93.29-1.34.9-1.4.45-.04.84.08 1.16 1.93.09.55.25 3.69.25 3.69.87-.45 1.09-2.87 1.16-4.44.05-1.1 1.5-1.38 1.69.28.39 3.37-1.35 6.24-2.15 7.58-.42.7-3.06 3.75-5.01 5.06" fill="url(#n)" stroke="#91674D" stroke-linecap="round" stroke-linejoin="round" stroke-miterlimit="10"/><radialGradient id="o" cx="18.408" cy="-179.75" r="18.514" gradientTransform="rotate(19.49 -623.024 54.748)" gradientUnits="userSpaceOnUse"><stop stop-color="#00BFA5" offset=".364"/><stop stop-color="#00B29A" offset=".812"/><stop stop-color="#00AB94" offset="1"/></radialGradient><path d="M53.98 73.75c-.76-2.78-2.98-11.89-1.59-18.67 1.54-7.54 3.07-9.69 5.06-11.91 3.07-3.42 6.34-4.35 8.73-5.03.47-.13.91-.26 1.31-.39 3.38-1.11 10.91-1.37 13.27-1.42-1.97 5.58-1.89 9.93-1.8 11.32-3.74.82-4.45 1.9-4.57 2.37-.41.81-3.45 7.5 3.95 15.15-4.04.25-17.47 1.58-24.36 8.58z" fill="url(#o)"/><path d="M80.05 36.85c-1.6 4.86-1.68 8.72-1.61 10.41-3.37.81-4.31 1.87-4.52 2.58-.55 1.07-3.35 7.42 3.34 14.92-1.87.15-4.75.49-7.99 1.19-6.61 1.44-11.66 3.74-15.04 6.85-.88-3.42-2.62-11.5-1.37-17.62 1.52-7.42 3-9.52 4.94-11.67 2.98-3.32 6.04-4.18 8.5-4.88.48-.14.92-.26 1.33-.4 3.04-.99 9.54-1.29 12.42-1.38m1.43-1.03zm0 0s-10.02.1-14.15 1.46c-2.48.82-6.49 1.36-10.26 5.56-2.16 2.4-3.65 4.7-5.18 12.14-1.69 8.29 1.84 19.76 1.84 19.76 7.65-8.7 25.77-9.12 25.77-9.12-8.76-8.29-4.64-15.43-4.64-15.43s.08-1.22 4.63-2.14c.01 0-.63-5.25 1.99-12.23z" fill="#009984"/><linearGradient id="p" x1="92.711" x2="71.401" y1="47.445" y2="30.083" gradientTransform="rotate(5.025 -624.88 57.905)" gradientUnits="userSpaceOnUse"><stop stop-color="#E0BB95" offset=".31"/><stop stop-color="#CCA47A" offset=".814"/></linearGradient><path d="M74.01 105.97c-4.87-2.38-6.36-5.48-7.25-8.47-.95-3.23-3.18-9.82-3.78-11.59l11.51-4.66 3.87 14.86c.03.12.1.22.21.29l17.58 11.83-.53 6.73-21.61-8.99z" fill="url(#p)"/><path d="M74.15 81.93l3.72 14.31c.06.24.21.44.41.58l17.33 11.67-.45 5.75-20.94-8.71c-4.44-2.18-6.01-4.84-6.99-8.16-.89-3.01-2.87-8.92-3.64-11.16l10.56-4.28m.68-1.35l-12.48 5.05s2.82 8.25 3.93 12.02c.92 3.12 2.47 6.31 7.53 8.79l22.24 9.26.6-7.71-17.81-12-4.01-15.41z" fill="#BA8F63"/><path d="M88.8 112.14c-.09-.93-.21-4.17 2.03-7.49l6.49 3.68-.92 7.2-7.6-3.39z" fill="#E0E0E0"/><path d="M91 105.35l5.75 3.26-.79 6.16-6.67-2.98c-.05-1.08.02-3.7 1.71-6.44m-.33-1.39c-3.13 4.29-2.36 8.54-2.36 8.54l8.51 3.8 1.06-8.25-7.21-4.09z" fill="#CCC7BD"/><path d="M65.84 94.57c-1.6-3.69-3.88-9.42-4.03-10.97l14.3-7.51c-.05 6.42 2.46 10.39 3.38 11.64-1.56 1.31-7.73 6.21-13.65 6.84z" fill="#616161"/><path d="M75.59 76.96c.15 5.49 2.14 9.13 3.19 10.68-1.92 1.57-7.34 5.64-12.62 6.37-1.72-4.01-3.45-8.51-3.78-10.11l13.21-6.94m1.06-1.74zm0 0l-15.37 8.07c-.23 1.63 4.22 11.84 4.22 11.84 7.18-.54 14.7-7.33 14.7-7.33s-3.91-4.44-3.55-12.58z" fill="#4F4F4F"/><linearGradient id="q" x1="-433.14" x2="-454.94" y1="-551.75" y2="-575.13" gradientTransform="rotate(72.806 -635.524 97.962)" gradientUnits="userSpaceOnUse"><stop stop-color="#E0BB95" offset=".31"/><stop stop-color="#CCA47A" offset=".814"/></linearGradient><path d="M44.95 108.09c-.84-2.09-5.56-13.93-6.39-17.01-1.5-5.58 1.02-8.96 3.89-10.26l22.22-10.06 4.03 12.53-19.33 6.39c-.25.08-.39.35-.33.6.65 2.47 2.95 14.9 3.48 17.75l-7.57.06z" fill="url(#q)"/><path d="M64.37 71.45l3.71 11.52-18.86 6.23c-.5.17-.79.69-.65 1.2.61 2.32 2.68 13.46 3.36 17.13l-6.63.06c-1.1-2.76-5.46-13.71-6.24-16.64-1.42-5.28.93-8.46 3.61-9.67l21.7-9.83m.61-1.38l-22.73 10.3c-2.88 1.3-5.77 4.87-4.16 10.84.92 3.43 6.53 17.38 6.53 17.38l8.5-.08s-2.84-15.54-3.59-18.37l19.8-6.54-4.35-13.53z" fill="#BA8F63"/><path d="M43.49 104.4c.83-.6 3.49-2.29 7.32-2.29.24 0 .48.01.72.02l1.51 7.92-6.83 2.49-2.72-8.14z" fill="#E0E0E0"/><path d="M50.81 102.64h.29l1.34 7.07-5.91 2.15-2.42-7.26c1.01-.67 3.38-1.96 6.7-1.96m0-1.05c-4.91 0-7.93 2.63-7.93 2.63l3 9 7.75-2.83-1.66-8.75c-.4-.04-.79-.05-1.16-.05z" fill="#CCC7BD"/><path d="M39.49 119.89c-.69 0-1.17-.39-1.24-.6l-.42-1.29a3.736 3.736 0 0 1 1.18-4.04l5.25-3.16c.04-.02.07-.05.1-.08s2.89-2.86 7.18-2.86c.28 0 .56.01.85.04.37.36 1.51 1.54 1.9 2.77l.61 2.23c.23 1.06-.3 1.88-.63 1.99l-14.41 4.98c-.09 0-.23.02-.37.02z" fill="#4568AD"/><path d="M51.54 108.38c.2 0 .41.01.62.02.5.5 1.34 1.48 1.62 2.38l.61 2.22c.17.81-.2 1.33-.3 1.39l-14.34 4.96c-.09.02-.17.03-.26.03-.41 0-.68-.19-.75-.27l-.41-1.25c-.4-1.24-.02-2.58.96-3.43l5.24-3.16c.07-.05.14-.1.21-.16.02-.05 2.71-2.73 6.8-2.73m0-1.05c-4.58 0-7.55 3.02-7.55 3.02l-5.31 3.2a4.272 4.272 0 0 0-1.34 4.61l.42 1.29c.15.47.86.96 1.73.96.18 0 .36-.02.54-.06l14.4-4.98c.64-.21 1.26-1.31.98-2.62l-.62-2.25c-.52-1.64-2.17-3.11-2.17-3.11-.37-.04-.73-.06-1.08-.06z" fill="#315499"/><path d="M58.91 89.15c-1.14-1.82-5.94-9.1-10.49-11.07l5.57-2.87c.21-.11.32-.33.27-.56l-.79-4.12.23-3.74 18.56-4.72 2.54 5.56c1.98 3.52 3.97 11.12-2.51 14.95-3.16 1.86-11.43 5.67-13.38 6.57z" fill="#7C7C7C"/><path d="M71.97 62.68l2.36 5.16c.01.03.03.05.04.08 1.87 3.33 3.79 10.59-2.34 14.2-2.96 1.75-10.43 5.21-12.93 6.36-1.39-2.15-5.43-8.03-9.54-10.4l4.66-2.41c.41-.21.64-.67.55-1.13L54 70.49l.2-3.29 17.77-4.52m.58-1.23L53.2 66.38l-.26 4.18.8 4.18-6.68 3.45c5.26 1.05 11.65 11.62 11.65 11.62s10.21-4.63 13.86-6.79c6.72-3.97 4.87-11.8 2.72-15.62l-2.74-5.95z" fill="#5B5B5B"/><path d="M103.9 122c-1.1 0-2.15-.48-2.86-1.32l-4.5-5.23c-.16-.66-.9-4.16-.53-8.62.1-.18.49-.82 1.58-1.4l2.19-.63c.17-.04.36-.06.55-.06.79 0 1.35.39 1.45.67l5.16 14.34c.21.84-.29 1.53-.55 1.62l-1.28.43c-.41.13-.81.2-1.21.2z" fill="#4568AD"/><path d="M100.31 105.27c.57 0 .91.25.96.33l5.14 14.28c.12.53-.14.93-.24 1.01l-1.25.42c-.33.11-.68.17-1.03.17-.95 0-1.85-.42-2.47-1.14l-4.41-5.13c-.19-.86-.83-4.11-.5-8.21.13-.2.48-.64 1.26-1.07l2.1-.61c.15-.04.3-.05.44-.05m0-1.05c-.22 0-.45.02-.69.08l-2.24.64c-1.53.79-1.89 1.75-1.89 1.75-.44 5.15.57 9 .57 9l4.58 5.32a4.3 4.3 0 0 0 3.26 1.51c.45 0 .91-.07 1.36-.22l1.28-.43c.56-.19 1.15-1.18.87-2.29l-5.16-14.34c-.18-.52-.95-1.02-1.94-1.02z" fill="#315499"/><path d="M47.32 87.75c2.09 1.73 2.16 4.8 2.3 5.84" fill="none" stroke="#BA8F63" stroke-linecap="round" stroke-linejoin="round" stroke-miterlimit="10"/><path d="M47.68 115.09c-4.39 1.71-7.46 3.03-8.73 4.03-1.33.91-.17 1.54 1.13 1.18l12.3-3.7c2.33-.79 3.18-1.8 3.08-2.92-.1-1.11-3.66-.2-7.78 1.41z" fill="#294B7C"/><path d="M53.74 74.74c10.04-7.05 22.57-5.08 22.57-5.08-1.54-4.2-4.48-9.59-4.48-9.59S53 65.04 52.64 67.62s1.1 7.12 1.1 7.12z" opacity=".2"/><linearGradient id="r" x1="35.421" x2="60.291" y1="99.519" y2="99.519" gradientTransform="rotate(-3.341 -631.044 108.498)" gradientUnits="userSpaceOnUse"><stop stop-color="#E0BB95" offset=".31"/><stop stop-color="#CCA47A" offset=".814"/></linearGradient><path fill="url(#r)" d="M35.69 71.68l-1.42-2.06L54.15 48.5l4.17 6.23-19.54 17.2z"/><path d="M54.08 49.3l3.58 5.35-19.05 16.76-2.64-.21-1.05-1.53L54.08 49.3m.13-1.6L33.63 69.57l1.78 2.59 3.54.28 20.03-17.63-4.77-7.11z" fill="#BA8F63"/><defs><path id="s" d="M38.91 71l-3.61-1.5.87-1.01s-.89-1.14-1.51-.69c-1.15.83-4.81 1.8-6.15 3.33 0 0-5.23 5.29-5.22 6.01 0 .21 3.48 7.02 3.94 7.14 8.75 2.17 12.84-4.23 13.21-4.65 1.4-1.62.44-6.24.25-8.18-.03-.3-.84-1.4-.84-1.4l-.94.95z"/></defs><clipPath id="t"><use xlink:href="#s"/></clipPath><path d="M33.57 71.99s-1.56 2.52-2.1 5.73c-.22 1.33.23 2.52.4 2.74.55.71 1.53.88 1.85.29.27-.51-.4-1.36-.39-1.86.01-.6.36-1.08.36-1.08.21.62 1.62 1.94 2.1 1.81 1.33-.37-.72-2.04-.62-3.14.26-2.86 1.37-4.72 1.37-4.72l-2.97.23z" clip-path="url(#t)" fill="#C48E6A" stroke="#B07853" stroke-linecap="round" stroke-linejoin="round" stroke-miterlimit="10"/><linearGradient id="u" x1="-39.312" x2="-29.588" y1="-412.15" y2="-412.15" gradientTransform="rotate(39.986 -672.177 -72.074)" gradientUnits="userSpaceOnUse"><stop stop-color="#E0BB95" offset="0"/><stop stop-color="#DEB892" offset=".41"/><stop stop-color="#D6B088" offset=".742"/><stop stop-color="#CCA47A" offset=".998"/></linearGradient><path d="M38.22 78.46c-1.48-.86-.81-4.35-3.6-3.55-2.04.58-2.96 5.06-4.68 6.5-1.67 1.4-3.06.26-2.64-.27 0 0 .91-1.65 1.98-3.41 1.28-2.13 1.74-6.07 5.43-8.54.65-.44 1.23-.65 1.82-.65.63 0 1.28.25 2.06.74.51.32.98 1.08 1.05 1.71.19 1.75-.16 1.58-.51 3.8-.22 1.36.47 1.89.43 2.86-.02.56-.67 1.2-1.34.81z" clip-path="url(#t)" fill="url(#u)" stroke="#BA8F63" stroke-linecap="round" stroke-linejoin="round" stroke-miterlimit="10"/><path d="M56.7 58.24c-1.11-1.58-3.86-5.04-7.05-5.8 1.5-1.8 5.96-6.93 12.09-12.01.6-.49.83-.52.88-.52.79.93-2.39 10.08-5.92 18.33z" fill="url(#h)"/><path d="M62.19 40.71c-.13 2.37-2.76 9.76-5.61 16.53-1.24-1.63-3.47-4.1-6.07-5.05 1.83-2.15 6-6.78 11.54-11.37.06-.04.1-.07.14-.11m.43-1.29c-.28 0-.67.2-1.2.63-7.7 6.38-12.72 12.76-12.72 12.76 4.27.28 8.09 6.48 8.09 6.48s8.62-19.87 5.83-19.87z" fill="#007F6A"/><circle cx="73.45" cy="41.59" r="4.37" fill="#FBC11B"/><linearGradient id="v" x1="131.75" x2="148.35" y1="-62.753" y2="-29.209" gradientTransform="rotate(-13.34 417.61 330.448)" gradientUnits="userSpaceOnUse"><stop stop-color="#E0BB95" offset=".55"/><stop stop-color="#CCA47A" offset=".83"/><stop stop-color="#C48E6A" offset="1"/></linearGradient><path d="M69.85 15.84c-3.05-4.19-9.46-7.14-14.49-5.92-5.63 1.37-8.4 5.71-8.82 10.98-.15 1.91.05 3.79.47 5.1.05.16.45 1.3.5 1.66.32 1.39-2.29 2.99-2.5 4.56-.15 1.18 2.34 1.74 2.55 1.94 1.03.98-.1 5.89 6.62 6.07 2.34.06 2.79-.22 2.79-.22l.47 7.63s5.02 1.17 9.33-.53c4.92-1.94 1.85-7.7 1.85-7.7s-2.07-3.28-.43-6.58c2.13-4.29 3.62-14.29 1.66-16.99z" fill="url(#v)"/><linearGradient id="w" x1="44.804" x2="71.749" y1="30.662" y2="27.406" gradientUnits="userSpaceOnUse"><stop stop-color="#BA8F63" offset="0"/><stop stop-color="#B07853" offset=".998"/></linearGradient><path d="M57.78 10.65c4.08 0 8.82 2.43 11.26 5.78 1.62 2.22.3 11.81-1.75 15.96-1.78 3.59.19 7.08.45 7.52.12.24 1.29 2.65.62 4.47-.3.82-.94 1.42-1.96 1.82-1.44.57-3.13.85-5.03.85-1.25 0-2.32-.13-2.98-.23l-.42-6.85c-.02-.35-.23-.67-.54-.83-.14-.07-.3-.11-.46-.11a.99.99 0 0 0-.42.09c-.08.02-.51.13-1.7.13-.19 0-.41 0-.64-.01-4.22-.12-4.71-2.14-5.13-3.92-.18-.76-.34-1.43-.82-1.88-.19-.18-.42-.27-.79-.41-.81-.31-1.29-.55-1.44-.74.1-.44.61-1.06 1.07-1.61.78-.93 1.66-1.99 1.41-3.2-.06-.34-.24-.9-.49-1.64l-.05-.14c-.4-1.25-.56-3.01-.42-4.72.25-3.1 1.62-8.53 8.05-10.09.68-.16 1.42-.24 2.18-.24m0-1c-.83 0-1.64.09-2.42.28-5.63 1.37-8.4 5.71-8.82 10.98-.15 1.91.05 3.79.47 5.1.05.16.45 1.3.5 1.66.32 1.39-2.29 2.99-2.5 4.56-.15 1.18 2.34 1.74 2.55 1.94 1.03.98-.1 5.89 6.62 6.07.24.01.46.01.66.01 1.77 0 2.13-.23 2.13-.23l.47 7.63s1.68.39 3.93.39c1.64 0 3.58-.21 5.4-.92 4.92-1.94 1.85-7.7 1.85-7.7s-2.07-3.28-.43-6.58c2.13-4.3 3.63-14.3 1.67-17-2.58-3.53-7.56-6.19-12.08-6.19z" fill="url(#w)"/><path d="M48.46 36.91c.93-.02 1.83-.3 2.57-.94.81-.7.17-1.36-.78-.87-.57.3-1.4.49-2.17.4l.38 1.41z" fill="#6D4C41"/><ellipse transform="rotate(-6.102 51.727 28.144)" cx="51.72" cy="28.14" rx="1.23" ry="1.89" fill="#5D4037"/><path d="M50.55 25.53c-1.12.55-1.53-.18-1.25-.87.21-.51.86-1.02 2.28-1 1.34.03 2.01.68 2.44 1.07s.47.85.18.94c-.41.14-2.27-.82-3.65-.14z" fill="#AB872F"/><radialGradient id="x" cx="88.081" cy="-72.113" r="12.406" gradientTransform="matrix(1.0331 -.1066 .1086 .9943 -27.939 96.551)" gradientUnits="userSpaceOnUse"><stop stop-color="#BFA055" offset="0"/><stop stop-color="#AB872F" offset="1"/></radialGradient><path d="M59.94 27.13l.88-1.62c.56-.93 1.08-1.73 1.9-1.63 2.44.28 2.43 4.58-.3 5.81 0 0 .78 3.15 3.87 3.66.32.05.61.08.86.08.82.01 1.41-.67 1.54-1.48.85-5.04 2.59-4.22 3.17-10.05.79-8.01-6.68-12.55-13.43-12.41-2.63.05-5.3.69-7.6 1.99-.98.54-4.35 2.72-4.97 4.46-.8 2.24.65 3.97.65 3.97s6.95-1.13 10.22-.71c.43.06.92.15 1.14.52.1.16.25 1.24.27 1.43.36 2.43.28 3.98 1.14 5.46.14.23.66.52.66.52z" fill="url(#x)"/><path d="M69.88 13.39c-2.62-2.83-7.19-4.5-11.45-4.42-2.86.06-5.57.77-7.84 2.05-.04.02-4.36 2.52-5.21 4.74-.91 2.38.16 3.66.41 3.89.45.41 1.24.17 1.24.17-.65-.58-1.19-2.31-.69-3.71.54-1.51 3.66-3.6 4.74-4.19 2.13-1.2 4.67-1.87 7.36-1.92 3.97-.08 8.25 1.46 10.67 4.09 1.95 2.11 2.83 4.78 2.54 7.73-.3 3.05-.92 4.19-1.57 5.41-.59 1.09-1.19 2.21-1.59 4.61-.09.51-1.12 1.57-1.04 1.57 1.1-.04 1.87-.36 2.05-1.4.38-2.24.91-3.24 1.48-4.3.67-1.25 1.37-2.54 1.69-5.79.33-3.26-.64-6.21-2.79-8.53z" fill="#8F7635"/><circle cx="94.06" cy="15.09" r="11.66" fill="url(#l)"/><path d="M94.05 4.43c.57 0 1.16.05 1.73.14 2.81.46 5.27 1.98 6.93 4.29s2.33 5.13 1.87 7.94c-.85 5.18-5.26 8.94-10.5 8.94-.58 0-1.16-.05-1.73-.14-2.81-.46-5.27-1.98-6.93-4.29s-2.33-5.13-1.87-7.94c.84-5.18 5.26-8.94 10.5-8.94m0-1c-5.61 0-10.56 4.07-11.49 9.79-1.04 6.36 3.28 12.35 9.63 13.38.64.1 1.27.15 1.89.15 5.61 0 10.56-4.07 11.49-9.79 1.04-6.36-3.28-12.35-9.63-13.38-.64-.1-1.27-.15-1.89-.15z" fill="#607C8A"/><linearGradient id="y" x1="93.556" x2="77.003" y1="-78.791" y2="-66.376" gradientTransform="rotate(9.667 -575.307 -29.408)" gradientUnits="userSpaceOnUse"><stop stop-color="#E0BB95" offset=".31"/><stop stop-color="#CCA47A" offset=".814"/></linearGradient><path d="M68.59 47.51c-.55-.81-2.19-3.47-1.65-5.68.26-1.07 1.02-1.91 2.26-2.5 4.72-2.24 14.96-2.9 15.06-2.9.12-.01.22-.05.31-.13l9.19-8.43 4.83-1.05.26 2.42c-.8 1.18-6 8.85-7.1 10.22-.18.22-.35.45-.53.68-1.25 1.66-2.55 3.37-7.85 4.6-3.89.91-12.98 2.46-14.78 2.77z" fill="url(#y)"/><path d="M98.15 27.42l.18 1.68c-1.06 1.57-5.92 8.73-6.97 10.03-.18.23-.36.46-.53.69-1.2 1.59-2.44 3.23-7.57 4.42-3.69.87-12.07 2.31-14.43 2.71-.73-1.13-1.81-3.31-1.39-5.02.23-.93.88-1.64 1.99-2.17 4.63-2.2 14.78-2.85 14.88-2.86.23-.01.45-.11.61-.26L94 28.32l4.15-.9m.88-1.21l-5.51 1.2-9.28 8.52s-10.38.64-15.25 2.95c-5.57 2.65-.62 9.18-.62 9.18s10.75-1.8 15.12-2.83c6.21-1.44 7.15-3.58 8.66-5.46 1.21-1.51 7.23-10.4 7.23-10.4l-.35-3.16z" fill="#BA8F63"/><linearGradient id="z" x1="97.36" x2="98.471" y1="78.042" y2="84.46" gradientTransform="rotate(-4.836 -591.912 29.268)" gradientUnits="userSpaceOnUse"><stop stop-color="#E0BB95" offset=".31"/><stop stop-color="#CCA47A" offset=".814"/></linearGradient><path d="M93.84 27.93c.82-2.89 2.89-3.47 2.89-3.47s-1.05-2.61-1.45-3.44-.12-1.4.03-1.48c.5-.28 1.02-.01 1.17.18.67.81 1.68 2.21 1.68 2.21.43-.17-.24-2.43-.58-3.95-.2-.89.86-1.86 1.63-.28.64 1.31 1.45 3.77 1.45 3.77.15-1-.04-2.58-.23-4.57-.09-.93.29-1.34.9-1.4.45-.04.84.08 1.16 1.93.09.55.25 3.69.25 3.69.87-.45 1.09-2.87 1.16-4.44.05-1.1 1.5-1.38 1.69.28.39 3.37-1.35 6.24-2.15 7.58-.42.7-3.06 3.75-5.01 5.06" fill="url(#z)" stroke="#BA8F63" stroke-linecap="round" stroke-linejoin="round" stroke-miterlimit="10"/><path d="M53.98 73.75c-.76-2.78-2.98-11.89-1.59-18.67 1.54-7.54 3.07-9.69 5.06-11.91 3.07-3.42 6.34-4.35 8.73-5.03.47-.13.91-.26 1.31-.39 3.38-1.11 10.91-1.37 13.27-1.42-1.97 5.58-1.89 9.93-1.8 11.32-3.74.82-4.45 1.9-4.57 2.37-.41.81-3.45 7.5 3.95 15.15-4.04.25-17.47 1.58-24.36 8.58z" fill="url(#o)"/><path d="M80.05 36.85c-1.6 4.86-1.68 8.72-1.61 10.41-3.37.81-4.31 1.87-4.52 2.58-.55 1.07-3.35 7.42 3.34 14.92-1.87.15-4.75.49-7.99 1.19-6.61 1.44-11.66 3.74-15.04 6.85-.88-3.42-2.62-11.5-1.37-17.62 1.52-7.42 3-9.52 4.94-11.67 2.98-3.32 6.04-4.18 8.5-4.88.48-.14.92-.26 1.33-.4 3.04-.99 9.54-1.29 12.42-1.38m1.43-1.03zm0 0s-10.02.1-14.15 1.46c-2.48.82-6.49 1.36-10.26 5.56-2.16 2.4-3.65 4.7-5.18 12.14-1.69 8.29 1.84 19.76 1.84 19.76 7.65-8.7 25.77-9.12 25.77-9.12-8.76-8.29-4.64-15.43-4.64-15.43s.08-1.22 4.63-2.14c.01 0-.63-5.25 1.99-12.23z" fill="#009984"/><path d="M74.01 105.97c-4.87-2.38-6.36-5.48-7.25-8.47-.95-3.23-3.18-9.82-3.78-11.59l11.51-4.66 3.87 14.86c.03.12.1.22.21.29l17.58 11.83-.53 6.73-21.61-8.99z" fill="url(#a)"/><path d="M74.15 81.93l3.72 14.31c.06.24.21.44.41.58l17.33 11.67-.45 5.75-20.94-8.71c-4.44-2.18-6.01-4.84-6.99-8.16-.89-3.01-2.87-8.92-3.64-11.16l10.56-4.28m.68-1.35l-12.48 5.05s2.82 8.25 3.93 12.02c.92 3.12 2.47 6.31 7.53 8.79l22.24 9.26.6-7.71-17.81-12-4.01-15.41z" fill="#91674D"/><path d="M88.8 112.14c-.09-.93-.21-4.17 2.03-7.49l6.49 3.68-.92 7.2-7.6-3.39z" fill="#E0E0E0"/><path d="M91 105.35l5.75 3.26-.79 6.16-6.67-2.98c-.05-1.08.02-3.7 1.71-6.44m-.33-1.39c-3.13 4.29-2.36 8.54-2.36 8.54l8.51 3.8 1.06-8.25-7.21-4.09z" fill="#CCC7BD"/><path d="M65.84 94.57c-1.6-3.69-3.88-9.42-4.03-10.97l14.3-7.51c-.05 6.42 2.46 10.39 3.38 11.64-1.56 1.31-7.73 6.21-13.65 6.84z" fill="#616161"/><path d="M75.59 76.96c.15 5.49 2.14 9.13 3.19 10.68-1.92 1.57-7.34 5.64-12.62 6.37-1.72-4.01-3.45-8.51-3.78-10.11l13.21-6.94m1.06-1.74zm0 0l-15.37 8.07c-.23 1.63 4.22 11.84 4.22 11.84 7.18-.54 14.7-7.33 14.7-7.33s-3.91-4.44-3.55-12.58z" fill="#4F4F4F"/><path d="M44.95 108.09c-.84-2.09-5.56-13.93-6.39-17.01-1.5-5.58 1.02-8.96 3.89-10.26l22.22-10.06 4.03 12.53-19.33 6.39c-.25.08-.39.35-.33.6.65 2.47 2.95 14.9 3.48 17.75l-7.57.06z" fill="url(#b)"/><path d="M64.37 71.45l3.71 11.52-18.86 6.23c-.5.17-.79.69-.65 1.2.61 2.32 2.68 13.46 3.36 17.13l-6.63.06c-1.1-2.76-5.46-13.71-6.24-16.64-1.42-5.28.93-8.46 3.61-9.67l21.7-9.83m.61-1.38l-22.73 10.3c-2.88 1.3-5.77 4.87-4.16 10.84.92 3.43 6.53 17.38 6.53 17.38l8.5-.08s-2.84-15.54-3.59-18.37l19.8-6.54-4.35-13.53z" fill="#91674D"/><path d="M43.49 104.4c.83-.6 3.49-2.29 7.32-2.29.24 0 .48.01.72.02l1.51 7.92-6.83 2.49-2.72-8.14z" fill="#E0E0E0"/><path d="M50.81 102.64h.29l1.34 7.07-5.91 2.15-2.42-7.26c1.01-.67 3.38-1.96 6.7-1.96m0-1.05c-4.91 0-7.93 2.63-7.93 2.63l3 9 7.75-2.83-1.66-8.75c-.4-.04-.79-.05-1.16-.05z" fill="#CCC7BD"/><path d="M39.49 119.89c-.69 0-1.17-.39-1.24-.6l-.42-1.29a3.736 3.736 0 0 1 1.18-4.04l5.25-3.16c.04-.02.07-.05.1-.08s2.89-2.86 7.18-2.86c.28 0 .56.01.85.04.37.36 1.51 1.54 1.9 2.77l.61 2.23c.23 1.06-.3 1.88-.63 1.99l-14.41 4.98c-.09 0-.23.02-.37.02z" fill="#4568AD"/><path d="M51.54 108.38c.2 0 .41.01.62.02.5.5 1.34 1.48 1.62 2.38l.61 2.22c.17.81-.2 1.33-.3 1.39l-14.34 4.96c-.09.02-.17.03-.26.03-.41 0-.68-.19-.75-.27l-.41-1.25c-.4-1.24-.02-2.58.96-3.43l5.24-3.16c.07-.05.14-.1.21-.16.02-.05 2.71-2.73 6.8-2.73m0-1.05c-4.58 0-7.55 3.02-7.55 3.02l-5.31 3.2a4.272 4.272 0 0 0-1.34 4.61l.42 1.29c.15.47.86.96 1.73.96.18 0 .36-.02.54-.06l14.4-4.98c.64-.21 1.26-1.31.98-2.62l-.62-2.25c-.52-1.64-2.17-3.11-2.17-3.11-.37-.04-.73-.06-1.08-.06z" fill="#315499"/><path d="M58.91 89.15c-1.14-1.82-5.94-9.1-10.49-11.07l5.57-2.87c.21-.11.32-.33.27-.56l-.79-4.12.23-3.74 18.56-4.72 2.54 5.56c1.98 3.52 3.97 11.12-2.51 14.95-3.16 1.86-11.43 5.67-13.38 6.57z" fill="#7C7C7C"/><path d="M71.97 62.68l2.36 5.16c.01.03.03.05.04.08 1.87 3.33 3.79 10.59-2.34 14.2-2.96 1.75-10.43 5.21-12.93 6.36-1.39-2.15-5.43-8.03-9.54-10.4l4.66-2.41c.41-.21.64-.67.55-1.13L54 70.49l.2-3.29 17.77-4.52m.58-1.23L53.2 66.38l-.26 4.18.8 4.18-6.68 3.45c5.26 1.05 11.65 11.62 11.65 11.62s10.21-4.63 13.86-6.79c6.72-3.97 4.87-11.8 2.72-15.62l-2.74-5.95z" fill="#5B5B5B"/><path d="M103.9 122c-1.1 0-2.15-.48-2.86-1.32l-4.5-5.23c-.16-.66-.9-4.16-.53-8.62.1-.18.49-.82 1.58-1.4l2.19-.63c.17-.04.36-.06.55-.06.79 0 1.35.39 1.45.67l5.16 14.34c.21.84-.29 1.53-.55 1.62l-1.28.43c-.41.13-.81.2-1.21.2z" fill="#4568AD"/><path d="M100.31 105.27c.57 0 .91.25.96.33l5.14 14.28c.12.53-.14.93-.24 1.01l-1.25.42c-.33.11-.68.17-1.03.17-.95 0-1.85-.42-2.47-1.14l-4.41-5.13c-.19-.86-.83-4.11-.5-8.21.13-.2.48-.64 1.26-1.07l2.1-.61c.15-.04.3-.05.44-.05m0-1.05c-.22 0-.45.02-.69.08l-2.24.64c-1.53.79-1.89 1.75-1.89 1.75-.44 5.15.57 9 .57 9l4.58 5.32a4.3 4.3 0 0 0 3.26 1.51c.45 0 .91-.07 1.36-.22l1.28-.43c.56-.19 1.15-1.18.87-2.29l-5.16-14.34c-.18-.52-.95-1.02-1.94-1.02z" fill="#315499"/><path d="M47.32 87.75c2.09 1.73 2.16 4.8 2.3 5.84" fill="url(#c)" stroke="#91674D" stroke-linecap="round" stroke-linejoin="round" stroke-miterlimit="10"/><path d="M47.68 115.09c-4.39 1.71-7.46 3.03-8.73 4.03-1.33.91-.17 1.54 1.13 1.18l12.3-3.7c2.33-.79 3.18-1.8 3.08-2.92-.1-1.11-3.66-.2-7.78 1.41z" fill="#294B7C"/><path d="M53.74 74.74c10.04-7.05 22.57-5.08 22.57-5.08-1.54-4.2-4.48-9.59-4.48-9.59S53 65.04 52.64 67.62s1.1 7.12 1.1 7.12z" opacity=".2"/><path fill="url(#d)" d="M35.69 71.68l-1.42-2.06L54.15 48.5l4.17 6.23-19.54 17.2z"/><path d="M54.08 49.3l3.58 5.35-19.05 16.76-2.64-.21-1.05-1.53L54.08 49.3m.13-1.6L33.63 69.57l1.78 2.59 3.54.28 20.03-17.63-4.77-7.11z" fill="#91674D"/><defs><path id="A" d="M38.91 71l-3.61-1.5.87-1.01s-.89-1.14-1.51-.69c-1.15.83-4.81 1.8-6.15 3.33 0 0-5.23 5.29-5.22 6.01 0 .21 3.48 7.02 3.94 7.14 8.75 2.17 12.84-4.23 13.21-4.65 1.4-1.62.44-6.24.25-8.18-.03-.3-.84-1.4-.84-1.4l-.94.95z"/></defs><clipPath id="B"><use xlink:href="#A"/></clipPath><path d="M33.57 71.99s-1.56 2.52-2.1 5.73c-.22 1.33.23 2.52.4 2.74.55.71 1.53.88 1.85.29.27-.51-.4-1.36-.39-1.86.01-.6.36-1.08.36-1.08.21.62 1.62 1.94 2.1 1.81 1.33-.37-.72-2.04-.62-3.14.26-2.86 1.37-4.72 1.37-4.72l-2.97.23z" clip-path="url(#B)" fill="#99674F" stroke="#875740" stroke-linecap="round" stroke-linejoin="round" stroke-miterlimit="10"/><path d="M38.22 78.46c-1.48-.86-.81-4.35-3.6-3.55-2.04.58-2.96 5.06-4.68 6.5-1.67 1.4-3.06.26-2.64-.27 0 0 .91-1.65 1.98-3.41 1.28-2.13 1.74-6.07 5.43-8.54.65-.44 1.23-.65 1.82-.65.63 0 1.28.25 2.06.74.51.32.98 1.08 1.05 1.71.19 1.75-.16 1.58-.51 3.8-.22 1.36.47 1.89.43 2.86-.02.56-.67 1.2-1.34.81z" clip-path="url(#B)" fill="url(#g)" stroke="#91674D" stroke-linecap="round" stroke-linejoin="round" stroke-miterlimit="10"/><path d="M56.7 58.24c-1.11-1.58-3.86-5.04-7.05-5.8 1.5-1.8 5.96-6.93 12.09-12.01.6-.49.83-.52.88-.52.79.93-2.39 10.08-5.92 18.33z" fill="url(#h)"/><path d="M62.19 40.71c-.13 2.37-2.76 9.76-5.61 16.53-1.24-1.63-3.47-4.1-6.07-5.05 1.83-2.15 6-6.78 11.54-11.37.06-.04.1-.07.14-.11m.43-1.29c-.28 0-.67.2-1.2.63-7.7 6.38-12.72 12.76-12.72 12.76 4.27.28 8.09 6.48 8.09 6.48s8.62-19.87 5.83-19.87z" fill="#007F6A"/><circle cx="73.45" cy="41.59" r="4.37" fill="#FBC11B"/><path d="M69.85 15.84c-3.05-4.19-9.46-7.14-14.49-5.92-5.63 1.37-8.4 5.71-8.82 10.98-.15 1.91.05 3.79.47 5.1.05.16.45 1.3.5 1.66.32 1.39-2.29 2.99-2.5 4.56-.15 1.18 2.34 1.74 2.55 1.94 1.03.98-.1 5.89 6.62 6.07 2.34.06 2.79-.22 2.79-.22l.47 7.63s5.02 1.17 9.33-.53c4.92-1.94 1.85-7.7 1.85-7.7s-2.07-3.28-.43-6.58c2.13-4.29 3.62-14.29 1.66-16.99z" fill="url(#i)"/><path d="M57.78 10.65c4.08 0 8.82 2.43 11.26 5.78 1.62 2.22.3 11.81-1.75 15.96-1.78 3.59.19 7.08.45 7.52.12.24 1.29 2.65.62 4.47-.3.82-.94 1.42-1.96 1.82-1.44.57-3.13.85-5.03.85-1.25 0-2.32-.13-2.98-.23l-.42-6.85c-.02-.35-.23-.67-.54-.83-.14-.07-.3-.11-.46-.11a.99.99 0 0 0-.42.09c-.08.02-.51.13-1.7.13-.19 0-.41 0-.64-.01-4.22-.12-4.71-2.14-5.13-3.92-.18-.76-.34-1.43-.82-1.88-.19-.18-.42-.27-.79-.41-.81-.31-1.29-.55-1.44-.74.1-.44.61-1.06 1.07-1.61.78-.93 1.66-1.99 1.41-3.2-.06-.34-.24-.9-.49-1.64l-.05-.14c-.4-1.25-.56-3.01-.42-4.72.25-3.1 1.62-8.53 8.05-10.09.68-.16 1.42-.24 2.18-.24m0-1c-.83 0-1.64.09-2.42.28-5.63 1.37-8.4 5.71-8.82 10.98-.15 1.91.05 3.79.47 5.1.05.16.45 1.3.5 1.66.32 1.39-2.29 2.99-2.5 4.56-.15 1.18 2.34 1.74 2.55 1.94 1.03.98-.1 5.89 6.62 6.07.24.01.46.01.66.01 1.77 0 2.13-.23 2.13-.23l.47 7.63s1.68.39 3.93.39c1.64 0 3.58-.21 5.4-.92 4.92-1.94 1.85-7.7 1.85-7.7s-2.07-3.28-.43-6.58c2.13-4.3 3.63-14.3 1.67-17-2.58-3.53-7.56-6.19-12.08-6.19z" fill="url(#j)"/><path d="M48.46 36.91c.93-.02 1.83-.3 2.57-.94.81-.7.17-1.36-.78-.87-.57.3-1.4.49-2.17.4l.38 1.41z" fill="#5D4037"/><ellipse transform="rotate(-6.102 51.727 28.144)" cx="51.72" cy="28.14" rx="1.23" ry="1.89" fill="#49362E"/><path d="M50.55 25.53c-1.12.55-1.53-.18-1.25-.87.21-.51.86-1.02 2.28-1 1.34.03 2.01.68 2.44 1.07s.47.85.18.94c-.41.14-2.27-.82-3.65-.14z" fill="#613E31"/><path d="M59.94 27.13l.88-1.62c.56-.93 1.08-1.73 1.9-1.63 2.44.28 2.43 4.58-.3 5.81 0 0 .78 3.15 3.87 3.66.32.05.61.08.86.08.82.01 1.41-.67 1.54-1.48.85-5.04 2.59-4.22 3.17-10.05.79-8.01-6.68-12.55-13.43-12.41-2.63.05-5.3.69-7.6 1.99-.98.54-4.35 2.72-4.97 4.46-.8 2.24.65 3.97.65 3.97s6.95-1.13 10.22-.71c.43.06.92.15 1.14.52.1.16.25 1.24.27 1.43.36 2.43.28 3.98 1.14 5.46.14.23.66.52.66.52z" fill="url(#k)"/><path d="M58.74 8.97h-.31c-2.86.06-5.57.77-7.84 2.05-.04.02-4.36 2.52-5.21 4.74-.91 2.38.16 3.66.41 3.89.21.19.49.24.74.24.28 0 .51-.07.51-.07-.65-.58-1.19-2.31-.69-3.71.54-1.51 3.66-3.6 4.74-4.19 2.13-1.2 4.67-1.87 7.36-1.92h.3c3.89 0 8.01 1.53 10.38 4.09 1.95 2.11 2.83 4.78 2.54 7.73-.3 3.05-.92 4.19-1.57 5.41-.59 1.09-1.19 2.21-1.59 4.61-.09.51-1.12 1.57-1.04 1.57 1.1-.04 1.87-.36 2.05-1.4.38-2.24.91-3.24 1.48-4.3.67-1.25 1.37-2.54 1.69-5.79s-.65-6.2-2.81-8.52c-2.56-2.78-6.97-4.43-11.14-4.43z" fill="#402821"/><circle cx="94.06" cy="15.09" r="11.66" fill="url(#l)"/><path d="M94.05 4.43c.57 0 1.16.05 1.73.14 2.81.46 5.27 1.98 6.93 4.29s2.33 5.13 1.87 7.94c-.85 5.18-5.26 8.94-10.5 8.94-.58 0-1.16-.05-1.73-.14-2.81-.46-5.27-1.98-6.93-4.29s-2.33-5.13-1.87-7.94c.84-5.18 5.26-8.94 10.5-8.94m0-1c-5.61 0-10.56 4.07-11.49 9.79-1.04 6.36 3.28 12.35 9.63 13.38.64.1 1.27.15 1.89.15 5.61 0 10.56-4.07 11.49-9.79 1.04-6.36-3.28-12.35-9.63-13.38-.64-.1-1.27-.15-1.89-.15z" fill="#607C8A"/><path d="M68.59 47.51c-.55-.81-2.19-3.47-1.65-5.68.26-1.07 1.02-1.91 2.26-2.5 4.72-2.24 14.96-2.9 15.06-2.9.12-.01.22-.05.31-.13l9.19-8.43 4.83-1.05.26 2.42c-.8 1.18-6 8.85-7.1 10.22-.18.22-.35.45-.53.68-1.25 1.66-2.55 3.37-7.85 4.6-3.89.91-12.98 2.46-14.78 2.77z" fill="url(#m)"/><path d="M98.15 27.42l.18 1.68c-1.06 1.57-5.92 8.73-6.97 10.03-.18.23-.36.46-.53.69-1.2 1.59-2.44 3.23-7.57 4.42-3.69.87-12.07 2.31-14.43 2.71-.73-1.13-1.81-3.31-1.39-5.02.23-.93.88-1.64 1.99-2.17 4.63-2.2 14.78-2.85 14.88-2.86.23-.01.45-.11.61-.26L94 28.32l4.15-.9m.88-1.21l-5.51 1.2-9.28 8.52s-10.38.64-15.25 2.95c-5.57 2.65-.62 9.18-.62 9.18s10.75-1.8 15.12-2.83c6.21-1.44 7.15-3.58 8.66-5.46 1.21-1.51 7.23-10.4 7.23-10.4l-.35-3.16z" fill="#91674D"/><path d="M93.84 27.93c.82-2.89 2.89-3.47 2.89-3.47s-1.05-2.61-1.45-3.44-.12-1.4.03-1.48c.5-.28 1.02-.01 1.17.18.67.81 1.68 2.21 1.68 2.21.43-.17-.24-2.43-.58-3.95-.2-.89.86-1.86 1.63-.28.64 1.31 1.45 3.77 1.45 3.77.15-1-.04-2.58-.23-4.57-.09-.93.29-1.34.9-1.4.45-.04.84.08 1.16 1.93.09.55.25 3.69.25 3.69.87-.45 1.09-2.87 1.16-4.44.05-1.1 1.5-1.38 1.69.28.39 3.37-1.35 6.24-2.15 7.58-.42.7-3.06 3.75-5.01 5.06" fill="url(#n)" stroke="#91674D" stroke-linecap="round" stroke-linejoin="round" stroke-miterlimit="10"/><path d="M53.98 73.75c-.76-2.78-2.98-11.89-1.59-18.67 1.54-7.54 3.07-9.69 5.06-11.91 3.07-3.42 6.34-4.35 8.73-5.03.47-.13.91-.26 1.31-.39 3.38-1.11 10.91-1.37 13.27-1.42-1.97 5.58-1.89 9.93-1.8 11.32-3.74.82-4.45 1.9-4.57 2.37-.41.81-3.45 7.5 3.95 15.15-4.04.25-17.47 1.58-24.36 8.58z" fill="url(#o)"/><path d="M80.05 36.85c-1.6 4.86-1.68 8.72-1.61 10.41-3.37.81-4.31 1.87-4.52 2.58-.55 1.07-3.35 7.42 3.34 14.92-1.87.15-4.75.49-7.99 1.19-6.61 1.44-11.66 3.74-15.04 6.85-.88-3.42-2.62-11.5-1.37-17.62 1.52-7.42 3-9.52 4.94-11.67 2.98-3.32 6.04-4.18 8.5-4.88.48-.14.92-.26 1.33-.4 3.04-.99 9.54-1.29 12.42-1.38m1.43-1.03zm0 0s-10.02.1-14.15 1.46c-2.48.82-6.49 1.36-10.26 5.56-2.16 2.4-3.65 4.7-5.18 12.14-1.69 8.29 1.84 19.76 1.84 19.76 7.65-8.7 25.77-9.12 25.77-9.12-8.76-8.29-4.64-15.43-4.64-15.43s.08-1.22 4.63-2.14c.01 0-.63-5.25 1.99-12.23z" fill="#009984"/><linearGradient id="C" x1="92.711" x2="71.401" y1="47.445" y2="30.083" gradientTransform="rotate(5.025 -624.88 57.905)" gradientUnits="userSpaceOnUse"><stop stop-color="#F9DDBD" offset=".31"/><stop stop-color="#FFD29C" offset=".814"/></linearGradient><path d="M74.01 105.97c-4.87-2.38-6.36-5.48-7.25-8.47-.95-3.23-3.18-9.82-3.78-11.59l11.51-4.66 3.87 14.86c.03.12.1.22.21.29l17.58 11.83-.53 6.73-21.61-8.99z" fill="url(#C)"/><path d="M74.15 81.93l3.72 14.31c.06.24.21.44.41.58l17.33 11.67-.45 5.75-20.94-8.71c-4.44-2.18-6.01-4.84-6.99-8.16-.89-3.01-2.87-8.92-3.64-11.16l10.56-4.28m.68-1.35l-12.48 5.05s2.82 8.25 3.93 12.02c.92 3.12 2.47 6.31 7.53 8.79l22.24 9.26.6-7.71-17.81-12-4.01-15.41z" fill="#EDBD82"/><path d="M88.8 112.14c-.09-.93-.21-4.17 2.03-7.49l6.49 3.68-.92 7.2-7.6-3.39z" fill="#E0E0E0"/><path d="M91 105.35l5.75 3.26-.79 6.16-6.67-2.98c-.05-1.08.02-3.7 1.71-6.44m-.33-1.39c-3.13 4.29-2.36 8.54-2.36 8.54l8.51 3.8 1.06-8.25-7.21-4.09z" fill="#CCC7BD"/><path d="M65.84 94.57c-1.6-3.69-3.88-9.42-4.03-10.97l14.3-7.51c-.05 6.42 2.46 10.39 3.38 11.64-1.56 1.31-7.73 6.21-13.65 6.84z" fill="#616161"/><path d="M75.59 76.96c.15 5.49 2.14 9.13 3.19 10.68-1.92 1.57-7.34 5.64-12.62 6.37-1.72-4.01-3.45-8.51-3.78-10.11l13.21-6.94m1.06-1.74zm0 0l-15.37 8.07c-.23 1.63 4.22 11.84 4.22 11.84 7.18-.54 14.7-7.33 14.7-7.33s-3.91-4.44-3.55-12.58z" fill="#4F4F4F"/><linearGradient id="D" x1="-433.14" x2="-454.94" y1="-551.75" y2="-575.13" gradientTransform="rotate(72.806 -635.524 97.962)" gradientUnits="userSpaceOnUse"><stop stop-color="#F9DDBD" offset=".31"/><stop stop-color="#FFD29C" offset=".814"/></linearGradient><path d="M44.95 108.09c-.84-2.09-5.56-13.93-6.39-17.01-1.5-5.58 1.02-8.96 3.89-10.26l22.22-10.06 4.03 12.53-19.33 6.39c-.25.08-.39.35-.33.6.65 2.47 2.95 14.9 3.48 17.75l-7.57.06z" fill="url(#D)"/><path d="M64.37 71.45l3.71 11.52-18.86 6.23c-.5.17-.79.69-.65 1.2.61 2.32 2.68 13.46 3.36 17.13l-6.63.06c-1.1-2.76-5.46-13.71-6.24-16.64-1.42-5.28.93-8.46 3.61-9.67l21.7-9.83m.61-1.38l-22.73 10.3c-2.88 1.3-5.77 4.87-4.16 10.84.92 3.43 6.53 17.38 6.53 17.38l8.5-.08s-2.84-15.54-3.59-18.37l19.8-6.54-4.35-13.53z" fill="#EDBD82"/><path d="M43.49 104.4c.83-.6 3.49-2.29 7.32-2.29.24 0 .48.01.72.02l1.51 7.92-6.83 2.49-2.72-8.14z" fill="#E0E0E0"/><path d="M50.81 102.64h.29l1.34 7.07-5.91 2.15-2.42-7.26c1.01-.67 3.38-1.96 6.7-1.96m0-1.05c-4.91 0-7.93 2.63-7.93 2.63l3 9 7.75-2.83-1.66-8.75c-.4-.04-.79-.05-1.16-.05z" fill="#CCC7BD"/><path d="M39.49 119.89c-.69 0-1.17-.39-1.24-.6l-.42-1.29a3.736 3.736 0 0 1 1.18-4.04l5.25-3.16c.04-.02.07-.05.1-.08s2.89-2.86 7.18-2.86c.28 0 .56.01.85.04.37.36 1.51 1.54 1.9 2.77l.61 2.23c.23 1.06-.3 1.88-.63 1.99l-14.41 4.98c-.09 0-.23.02-.37.02z" fill="#4568AD"/><path d="M51.54 108.38c.2 0 .41.01.62.02.5.5 1.34 1.48 1.62 2.38l.61 2.22c.17.81-.2 1.33-.3 1.39l-14.34 4.96c-.09.02-.17.03-.26.03-.41 0-.68-.19-.75-.27l-.41-1.25c-.4-1.24-.02-2.58.96-3.43l5.24-3.16c.07-.05.14-.1.21-.16.02-.05 2.71-2.73 6.8-2.73m0-1.05c-4.58 0-7.55 3.02-7.55 3.02l-5.31 3.2a4.272 4.272 0 0 0-1.34 4.61l.42 1.29c.15.47.86.96 1.73.96.18 0 .36-.02.54-.06l14.4-4.98c.64-.21 1.26-1.31.98-2.62l-.62-2.25c-.52-1.64-2.17-3.11-2.17-3.11-.37-.04-.73-.06-1.08-.06z" fill="#315499"/><path d="M58.91 89.15c-1.14-1.82-5.94-9.1-10.49-11.07l5.57-2.87c.21-.11.32-.33.27-.56l-.79-4.12.23-3.74 18.56-4.72 2.54 5.56c1.98 3.52 3.97 11.12-2.51 14.95-3.16 1.86-11.43 5.67-13.38 6.57z" fill="#7C7C7C"/><path d="M71.97 62.68l2.36 5.16c.01.03.03.05.04.08 1.87 3.33 3.79 10.59-2.34 14.2-2.96 1.75-10.43 5.21-12.93 6.36-1.39-2.15-5.43-8.03-9.54-10.4l4.66-2.41c.41-.21.64-.67.55-1.13L54 70.49l.2-3.29 17.77-4.52m.58-1.23L53.2 66.38l-.26 4.18.8 4.18-6.68 3.45c5.26 1.05 11.65 11.62 11.65 11.62s10.21-4.63 13.86-6.79c6.72-3.97 4.87-11.8 2.72-15.62l-2.74-5.95z" fill="#5B5B5B"/><path d="M103.9 122c-1.1 0-2.15-.48-2.86-1.32l-4.5-5.23c-.16-.66-.9-4.16-.53-8.62.1-.18.49-.82 1.58-1.4l2.19-.63c.17-.04.36-.06.55-.06.79 0 1.35.39 1.45.67l5.16 14.34c.21.84-.29 1.53-.55 1.62l-1.28.43c-.41.13-.81.2-1.21.2z" fill="#4568AD"/><path d="M100.31 105.27c.57 0 .91.25.96.33l5.14 14.28c.12.53-.14.93-.24 1.01l-1.25.42c-.33.11-.68.17-1.03.17-.95 0-1.85-.42-2.47-1.14l-4.41-5.13c-.19-.86-.83-4.11-.5-8.21.13-.2.48-.64 1.26-1.07l2.1-.61c.15-.04.3-.05.44-.05m0-1.05c-.22 0-.45.02-.69.08l-2.24.64c-1.53.79-1.89 1.75-1.89 1.75-.44 5.15.57 9 .57 9l4.58 5.32a4.3 4.3 0 0 0 3.26 1.51c.45 0 .91-.07 1.36-.22l1.28-.43c.56-.19 1.15-1.18.87-2.29l-5.16-14.34c-.18-.52-.95-1.02-1.94-1.02z" fill="#315499"/><path d="M47.32 87.75c2.09 1.73 2.16 4.8 2.3 5.84" fill="none" stroke="#EDBD82" stroke-linecap="round" stroke-linejoin="round" stroke-miterlimit="10"/><path d="M47.68 115.09c-4.39 1.71-7.46 3.03-8.73 4.03-1.33.91-.17 1.54 1.13 1.18l12.3-3.7c2.33-.79 3.18-1.8 3.08-2.92-.1-1.11-3.66-.2-7.78 1.41z" fill="#294B7C"/><path d="M53.74 74.74c10.04-7.05 22.57-5.08 22.57-5.08-1.54-4.2-4.48-9.59-4.48-9.59S53 65.04 52.64 67.62s1.1 7.12 1.1 7.12z" opacity=".2"/><linearGradient id="E" x1="35.421" x2="60.291" y1="99.519" y2="99.519" gradientTransform="rotate(-3.341 -631.044 108.498)" gradientUnits="userSpaceOnUse"><stop stop-color="#F9DDBD" offset=".31"/><stop stop-color="#FFD29C" offset=".814"/></linearGradient><path fill="url(#E)" d="M35.69 71.68l-1.42-2.06L54.15 48.5l4.17 6.23-19.54 17.2z"/><path d="M54.08 49.3l3.58 5.35-19.05 16.76-2.64-.21-1.05-1.53L54.08 49.3m.13-1.6L33.63 69.57l1.78 2.59 3.54.28 20.03-17.63-4.77-7.11z" fill="#EDBD82"/><defs><path id="F" d="M38.91 71l-3.61-1.5.87-1.01s-.89-1.14-1.51-.69c-1.15.83-4.81 1.8-6.15 3.33 0 0-5.23 5.29-5.22 6.01 0 .21 3.48 7.02 3.94 7.14 8.75 2.17 12.84-4.23 13.21-4.65 1.4-1.62.44-6.24.25-8.18-.03-.3-.84-1.4-.84-1.4l-.94.95z"/></defs><clipPath id="G"><use xlink:href="#F"/></clipPath><path d="M33.57 71.99s-1.56 2.52-2.1 5.73c-.22 1.33.23 2.52.4 2.74.55.71 1.53.88 1.85.29.27-.51-.4-1.36-.39-1.86.01-.6.36-1.08.36-1.08.21.62 1.62 1.94 2.1 1.81 1.33-.37-.72-2.04-.62-3.14.26-2.86 1.37-4.72 1.37-4.72l-2.97.23z" clip-path="url(#G)" fill="#EDC391" stroke="#D9AC77" stroke-linecap="round" stroke-linejoin="round" stroke-miterlimit="10"/><linearGradient id="H" x1="-39.312" x2="-29.588" y1="-412.15" y2="-412.15" gradientTransform="rotate(39.986 -672.177 -72.074)" gradientUnits="userSpaceOnUse"><stop stop-color="#F9DDBD" offset=".262"/><stop stop-color="#FFD29C" offset="1"/></linearGradient><path d="M38.22 78.46c-1.48-.86-.81-4.35-3.6-3.55-2.04.58-2.96 5.06-4.68 6.5-1.67 1.4-3.06.26-2.64-.27 0 0 .91-1.65 1.98-3.41 1.28-2.13 1.74-6.07 5.43-8.54.65-.44 1.23-.65 1.82-.65.63 0 1.28.25 2.06.74.51.32.98 1.08 1.05 1.71.19 1.75-.16 1.58-.51 3.8-.22 1.36.47 1.89.43 2.86-.02.56-.67 1.2-1.34.81z" clip-path="url(#G)" fill="url(#H)" stroke="#EDBD82" stroke-linecap="round" stroke-linejoin="round" stroke-miterlimit="10"/><path d="M56.7 58.24c-1.11-1.58-3.86-5.04-7.05-5.8 1.5-1.8 5.96-6.93 12.09-12.01.6-.49.83-.52.88-.52.79.93-2.39 10.08-5.92 18.33z" fill="url(#h)"/><path d="M62.19 40.71c-.13 2.37-2.76 9.76-5.61 16.53-1.24-1.63-3.47-4.1-6.07-5.05 1.83-2.15 6-6.78 11.54-11.37.06-.04.1-.07.14-.11m.43-1.29c-.28 0-.67.2-1.2.63-7.7 6.38-12.72 12.76-12.72 12.76 4.27.28 8.09 6.48 8.09 6.48s8.62-19.87 5.83-19.87z" fill="#007F6A"/><circle cx="73.45" cy="41.59" r="4.37" fill="#FBC11B"/><linearGradient id="I" x1="131.97" x2="148.13" y1="-62.307" y2="-29.66" gradientTransform="rotate(-13.34 417.61 330.448)" gradientUnits="userSpaceOnUse"><stop stop-color="#F9DDBD" offset=".548"/><stop stop-color="#EDBD82" offset=".996"/></linearGradient><path d="M61.37 47.55c-1.57 0-2.86-.2-3.46-.31L57.47 40a.48.48 0 0 0-.27-.41.465.465 0 0 0-.23-.06.56.56 0 0 0-.27.08c-.01 0-.43.15-1.86.15-.2 0-.42 0-.65-.01-4.61-.13-5.18-2.54-5.61-4.3-.17-.69-.31-1.28-.68-1.63-.12-.11-.29-.18-.63-.31-.5-.19-1.83-.69-1.76-1.21.08-.59.65-1.27 1.2-1.93.75-.9 1.52-1.83 1.29-2.81-.04-.27-.25-.91-.47-1.57l-.05-.14c-.42-1.3-.58-3.14-.44-4.91.44-5.58 3.44-9.32 8.44-10.53.72-.18 1.5-.26 2.3-.26 4.23 0 9.14 2.52 11.67 5.99 1.75 2.4.43 12.16-1.71 16.48-1.74 3.51.36 6.93.46 7.07 0 0 1.42 2.73.63 4.87-.35.95-1.1 1.66-2.24 2.1-1.5.59-3.25.89-5.22.89z" fill="url(#I)"/><path d="M57.78 10.65c4.08 0 8.82 2.43 11.26 5.78 1.62 2.22.3 11.81-1.75 15.96-1.78 3.59.19 7.08.45 7.52.12.24 1.29 2.65.62 4.47-.3.82-.94 1.42-1.96 1.82-1.44.57-3.13.85-5.03.85-1.25 0-2.32-.13-2.98-.23l-.42-6.85c-.02-.35-.23-.67-.54-.83-.14-.07-.3-.11-.46-.11a.99.99 0 0 0-.42.09c-.08.02-.51.13-1.7.13-.19 0-.41 0-.64-.01-4.22-.12-4.71-2.14-5.13-3.92-.18-.76-.34-1.43-.82-1.88-.19-.18-.42-.27-.79-.41-.81-.31-1.29-.55-1.44-.74.1-.44.61-1.06 1.07-1.61.78-.93 1.66-1.99 1.41-3.2-.06-.34-.24-.9-.49-1.64l-.05-.14c-.4-1.25-.56-3.01-.42-4.72.25-3.1 1.62-8.53 8.05-10.09.68-.16 1.42-.24 2.18-.24m0-1c-.83 0-1.64.09-2.42.28-5.63 1.37-8.4 5.71-8.82 10.98-.15 1.91.05 3.79.47 5.1.05.16.45 1.3.5 1.66.32 1.39-2.29 2.99-2.5 4.56-.15 1.18 2.34 1.74 2.55 1.94 1.03.98-.1 5.89 6.62 6.07.24.01.46.01.66.01 1.77 0 2.13-.23 2.13-.23l.47 7.63s1.68.39 3.93.39c1.64 0 3.58-.21 5.4-.92 4.92-1.94 1.85-7.7 1.85-7.7s-2.07-3.28-.43-6.58c2.13-4.3 3.63-14.3 1.67-17-2.58-3.53-7.56-6.19-12.08-6.19z" fill="#EDBD82"/><path d="M48.46 36.91c.93-.02 1.83-.3 2.57-.94.81-.7.17-1.36-.78-.87-.57.3-1.4.49-2.17.4l.38 1.41z" fill="#795548"/><ellipse transform="rotate(-6.102 51.727 28.144)" cx="51.72" cy="28.14" rx="1.23" ry="1.89" fill="#312D2D"/><radialGradient id="J" cx="51.795" cy="24.694" r="1.967" gradientUnits="userSpaceOnUse"><stop stop-color="#454140" offset=".09"/><stop stop-color="#454140" offset="1"/></radialGradient><path d="M50.55 25.53c-1.12.55-1.53-.18-1.25-.87.21-.51.86-1.02 2.28-1 1.34.03 2.01.68 2.44 1.07s.47.85.18.94c-.41.14-2.27-.82-3.65-.14z" fill="url(#J)"/><radialGradient id="K" cx="88.081" cy="-72.113" r="12.406" gradientTransform="matrix(1.0331 -.1066 .1086 .9943 -27.939 96.551)" gradientUnits="userSpaceOnUse"><stop stop-color="#454140" offset="0"/><stop stop-color="#312D2D" offset="1"/></radialGradient><path d="M59.94 27.13l.88-1.62c.56-.93 1.08-1.73 1.9-1.63 2.44.28 2.43 4.58-.3 5.81 0 0 .78 3.15 3.87 3.66.32.05.61.08.86.08.82.01 1.41-.67 1.54-1.48.85-5.04 2.59-4.22 3.17-10.05.79-8.01-6.68-12.55-13.43-12.41-2.63.05-5.3.69-7.6 1.99-.98.54-4.35 2.72-4.97 4.46-.8 2.24.65 3.97.65 3.97s6.95-1.13 10.22-.71c.43.06.92.15 1.14.52.1.16.25 1.24.27 1.43.36 2.43.28 3.98 1.14 5.46.14.23.66.52.66.52z" fill="url(#K)"/><path d="M69.88 13.39c-2.62-2.83-7.19-4.5-11.45-4.42-2.86.06-5.57.77-7.84 2.05-.04.02-4.36 2.52-5.21 4.74-.91 2.38.16 3.66.41 3.89.45.41 1.24.17 1.24.17-.65-.58-1.19-2.31-.69-3.71.54-1.51 3.66-3.6 4.74-4.19 2.13-1.2 4.67-1.87 7.36-1.92 3.97-.08 8.25 1.46 10.67 4.09 1.95 2.11 2.83 4.78 2.54 7.73-.3 3.05-.92 4.19-1.57 5.41-.59 1.09-1.19 2.21-1.59 4.61-.09.51-1.12 1.57-1.04 1.57 1.1-.04 1.87-.36 2.05-1.4.38-2.24.91-3.24 1.48-4.3.67-1.25 1.37-2.54 1.69-5.79.33-3.26-.64-6.21-2.79-8.53z" fill="#1F1A1A"/><circle cx="94.06" cy="15.09" r="11.66" fill="url(#l)"/><path d="M94.05 4.43c.57 0 1.16.05 1.73.14 2.81.46 5.27 1.98 6.93 4.29s2.33 5.13 1.87 7.94c-.85 5.18-5.26 8.94-10.5 8.94-.58 0-1.16-.05-1.73-.14-2.81-.46-5.27-1.98-6.93-4.29s-2.33-5.13-1.87-7.94c.84-5.18 5.26-8.94 10.5-8.94m0-1c-5.61 0-10.56 4.07-11.49 9.79-1.04 6.36 3.28 12.35 9.63 13.38.64.1 1.27.15 1.89.15 5.61 0 10.56-4.07 11.49-9.79 1.04-6.36-3.28-12.35-9.63-13.38-.64-.1-1.27-.15-1.89-.15z" fill="#607C8A"/><linearGradient id="L" x1="93.556" x2="77.003" y1="-78.791" y2="-66.376" gradientTransform="rotate(9.667 -575.307 -29.408)" gradientUnits="userSpaceOnUse"><stop stop-color="#F9DDBD" offset=".31"/><stop stop-color="#FFD29C" offset=".814"/></linearGradient><path d="M68.59 47.51c-.55-.81-2.19-3.47-1.65-5.68.26-1.07 1.02-1.91 2.26-2.5 4.72-2.24 14.96-2.9 15.06-2.9.12-.01.22-.05.31-.13l9.19-8.43 4.83-1.05.26 2.42c-.8 1.18-6 8.85-7.1 10.22-.18.22-.35.45-.53.68-1.25 1.66-2.55 3.37-7.85 4.6-3.89.91-12.98 2.46-14.78 2.77z" fill="url(#L)"/><path d="M98.15 27.42l.18 1.68c-1.06 1.57-5.92 8.73-6.97 10.03-.18.23-.36.46-.53.69-1.2 1.59-2.44 3.23-7.57 4.42-3.69.87-12.07 2.31-14.43 2.71-.73-1.13-1.81-3.31-1.39-5.02.23-.93.88-1.64 1.99-2.17 4.63-2.2 14.78-2.85 14.88-2.86.23-.01.45-.11.61-.26L94 28.32l4.15-.9m.88-1.21l-5.51 1.2-9.28 8.52s-10.38.64-15.25 2.95c-5.57 2.65-.62 9.18-.62 9.18s10.75-1.8 15.12-2.83c6.21-1.44 7.15-3.58 8.66-5.46 1.21-1.51 7.23-10.4 7.23-10.4l-.35-3.16z" fill="#EDBD82"/><linearGradient id="M" x1="97.36" x2="98.471" y1="78.042" y2="84.46" gradientTransform="rotate(-4.836 -591.912 29.268)" gradientUnits="userSpaceOnUse"><stop stop-color="#F9DDBD" offset=".31"/><stop stop-color="#FFD29C" offset=".814"/></linearGradient><path d="M93.84 27.93c.82-2.89 2.89-3.47 2.89-3.47s-1.05-2.61-1.45-3.44-.12-1.4.03-1.48c.5-.28 1.02-.01 1.17.18.67.81 1.68 2.21 1.68 2.21.43-.17-.24-2.43-.58-3.95-.2-.89.86-1.86 1.63-.28.64 1.31 1.45 3.77 1.45 3.77.15-1-.04-2.58-.23-4.57-.09-.93.29-1.34.9-1.4.45-.04.84.08 1.16 1.93.09.55.25 3.69.25 3.69.87-.45 1.09-2.87 1.16-4.44.05-1.1 1.5-1.38 1.69.28.39 3.37-1.35 6.24-2.15 7.58-.42.7-3.06 3.75-5.01 5.06" fill="url(#M)" stroke="#EDBD82" stroke-linecap="round" stroke-linejoin="round" stroke-miterlimit="10"/><path d="M53.98 73.75c-.76-2.78-2.98-11.89-1.59-18.67 1.54-7.54 3.07-9.69 5.06-11.91 3.07-3.42 6.34-4.35 8.73-5.03.47-.13.91-.26 1.31-.39 3.38-1.11 10.91-1.37 13.27-1.42-1.97 5.58-1.89 9.93-1.8 11.32-3.74.82-4.45 1.9-4.57 2.37-.41.81-3.45 7.5 3.95 15.15-4.04.25-17.47 1.58-24.36 8.58z" fill="url(#o)"/><path d="M80.05 36.85c-1.6 4.86-1.68 8.72-1.61 10.41-3.37.81-4.31 1.87-4.52 2.58-.55 1.07-3.35 7.42 3.34 14.92-1.87.15-4.75.49-7.99 1.19-6.61 1.44-11.66 3.74-15.04 6.85-.88-3.42-2.62-11.5-1.37-17.62 1.52-7.42 3-9.52 4.94-11.67 2.98-3.32 6.04-4.18 8.5-4.88.48-.14.92-.26 1.33-.4 3.04-.99 9.54-1.29 12.42-1.38m1.43-1.03zm0 0s-10.02.1-14.15 1.46c-2.48.82-6.49 1.36-10.26 5.56-2.16 2.4-3.65 4.7-5.18 12.14-1.69 8.29 1.84 19.76 1.84 19.76 7.65-8.7 25.77-9.12 25.77-9.12-8.76-8.29-4.64-15.43-4.64-15.43s.08-1.22 4.63-2.14c.01 0-.63-5.25 1.99-12.23z" fill="#009984"/></svg>