<svg viewBox="0 0 128 128" width="128" height="128" xmlns="http://www.w3.org/2000/svg" xmlns:xlink="http://www.w3.org/1999/xlink"><path d="M8.66 117.28v3.21c0 .46.3.87.74.99 1.98.56 7.68 2 14.13 2 6.16 0 11.53-.11 13.67-.17.56-.01 1-.47 1-1.03 0-.57.45-1.03 1.02-1.03 2.96-.03 11.68-.08 16.36.4 5.7.58 22.21 2.99 31.06 2.42 10.54-.69 19.39-3.72 24.32-5.89 4.92-2.17 8.81-3.22 12.24-7.39.84-1.02.91-2.96.63-3.88-.15-.46-.7-1.17-1.19-1.12L9.6 116.25c-.53.05-.94.5-.94 1.03z" fill="#734F2B"/><linearGradient id="a" x1="64" x2="64" y1="95.928" y2="125" gradientUnits="userSpaceOnUse"><stop stop-color="#87FFDE" offset="0"/><stop stop-color="#63B59D" offset="1"/></linearGradient><path d="M7.55 90.07c-4.69.74-5.07 25.2.87 27.52s15.64 2.46 29.26 2.46 25.41 1.38 29.5 1.98c8.74 1.28 24.46 1.78 35.07-1.84 10.42-3.55 18.62-6.95 21.42-11.2 0 0 2.61-4.34-6.57-8.21-7.2-3.03-13.03-4.15-24.72-2.8-11.68 1.35-26.55 1.26-37.95-.58s-39.59-8.49-46.88-7.33z" fill="url(#a)"/><defs><path id="b" d="M7.55 90.07c-4.69.74-5.07 25.2.87 27.52s15.64 2.46 29.26 2.46 25.44 1.21 29.5 1.98 24.91 1.93 35.15-2.12 18.54-6.66 21.34-10.91c0 0 2.61-4.34-6.57-8.21-7.2-3.03-13.03-4.15-24.72-2.8-11.68 1.35-26.55 1.26-37.95-.58s-39.59-8.5-46.88-7.34z"/></defs><clipPath id="c"><use xlink:href="#b"/></clipPath><linearGradient id="d" x1="15.773" x2="91.82" y1="81.944" y2="108.75" gradientUnits="userSpaceOnUse"><stop stop-color="#72D1B4" offset="0"/><stop stop-color="#66BBA1" offset=".198"/><stop stop-color="#488472" offset=".738"/><stop stop-color="#3C6E5F" offset="1"/></linearGradient><path d="M7.9 89.73c-1.5.56-4.42 1.32 18.43 8.45 22.83 7.13 46.83 12.07 60.93 8.21s14.92-9.34 6.13-8.72c-6.86.49-79.25-8.44-79.25-8.44s-4.25-.25-6.24.5z" clip-path="url(#c)" fill="url(#d)"/><path d="M9.75 93.01c6.25 0 19.99 2.73 31.02 4.92 5.33 1.06 9.93 1.97 13.27 2.51 6.24 1 13.66 1.54 21.45 1.54 6.02 0 12.01-.32 17.31-.94 3.18-.37 5.9-.55 8.32-.55 6.2 0 10.3 1.2 14.89 3.13 3.89 1.64 5.16 3.31 5.07 4.03-.02.15-.03.3-.02.46.01.43-.08.77-.13.88-2.35 2.84-4.96 3.92-8.57 5.43-.81.34-1.65.69-2.53 1.08-3.3 1.46-12.17 4.92-23.3 5.64-.83.05-1.79.08-2.83.08-6.91 0-16.59-1.17-23-1.94-1.9-.23-3.54-.43-4.73-.55-3.52-.36-9.12-.43-13.2-.43-1.46 0-2.69.01-3.49.02-1.5.02-2.81.86-3.49 2.1-2.6.06-7.13.13-12.17.13-4.89 0-9.32-.87-11.87-1.51v-1.3c0-1.25-.78-2.37-1.95-2.81-.06-.02-.11-.04-.19-.07-.37-.24-1.49-1.83-2.12-6.17-1.02-6.97.07-13.92 1.12-15.65.29-.01.66-.03 1.14-.03m0-3c-.82 0-1.53.04-2.1.13-4.69.74-5.07 25.2.87 27.52l.24.09v2.81c0 .46.3.87.74.99 1.98.56 7.68 2 14.13 2 6.16 0 11.53-.11 13.67-.17.56-.01 1-.47 1-1.03 0-.57.45-1.03 1.02-1.03.8-.01 2.02-.02 3.46-.02 3.91 0 9.48.07 12.9.42 5.1.52 18.85 2.5 28.03 2.5 1.08 0 2.1-.03 3.03-.09 10.54-.69 19.39-3.72 24.32-5.89 4.92-2.17 8.81-3.22 12.24-7.39.59-.71.79-1.87.77-2.82.19-1.52-.44-4.46-6.88-7.18-5.17-2.18-9.63-3.37-16.05-3.37-2.53 0-5.36.18-8.67.57-5.22.6-11.07.92-16.97.92-7.3 0-14.67-.48-20.98-1.5-10.49-1.67-35.23-7.46-44.77-7.46z" fill="#424242" opacity=".2"/></svg>