<svg viewBox="0 0 128 128" width="128" height="128" xmlns="http://www.w3.org/2000/svg"><path d="M110.91 75.89c.02 0 .11-.05.17-.08.07-.04.14-.08.21-.13.14-.09.28-.19.41-.3.27-.22.53-.46.78-.73.5-.53.94-1.12 1.34-1.76.79-1.27 1.4-2.69 1.87-4.15-.22 1.52-.57 3.05-1.17 4.51-.3.73-.66 1.45-1.11 2.13-.23.34-.47.67-.75.98-.14.16-.29.31-.45.46-.08.07-.16.15-.25.22-.1.08-.17.14-.31.23l-.74-1.38zm1.47 4.06c.69-.31 1.28-.65 1.89-1.02.6-.37 1.17-.77 1.72-1.21 1.09-.87 2.08-1.87 2.82-3.02-.95.99-2.06 1.75-3.24 2.37-.59.31-1.2.58-1.82.81-.61.23-1.26.44-1.85.58l.48 1.49zm1.81 3.35c.18.03.28.04.41.04h.36c.23-.01.46-.04.68-.09.44-.09.86-.23 1.25-.42.79-.37 1.45-.89 2.03-1.47.58-.57 1.08-1.22 1.45-1.93s.64-1.48.7-2.26c-.17.77-.55 1.46-1 2.07-.46.61-1.01 1.14-1.62 1.59-.61.44-1.28.77-1.96.95-.34.09-.68.14-1.02.14-.17 0-.33-.01-.49-.03-.08-.01-.15-.03-.23-.04-.06-.02-.16-.04-.17-.05l-.39 1.5zm-2.39 5.77c.84.04 1.61-.01 2.41-.11.79-.11 1.57-.29 2.31-.59.72-.3 1.4-.66 2.07-1.04.66-.39 1.3-.8 1.91-1.25-.68.34-1.37.63-2.08.9-.7.26-1.42.49-2.13.65-.7.15-1.42.19-2.14.17-.71-.03-1.46-.11-2.11-.27l-.24 1.54zm-2.01 1.47c.15.26.28.44.44.64.15.19.32.37.49.54.35.34.73.64 1.15.88s.87.42 1.34.53c.23.05.47.09.7.1l.65.05c1.73.13 3.46.22 5.18.3-1.7-.31-3.4-.63-5.09-.98l-.63-.13c-.19-.05-.38-.11-.56-.19-.36-.15-.69-.35-.98-.6-.29-.24-.55-.53-.77-.84-.11-.16-.21-.32-.3-.48s-.18-.35-.22-.48l-1.4.66zm-3.02 3.22c.23.53.48.93.77 1.36.29.41.62.8.98 1.16.71.71 1.6 1.27 2.51 1.6.9.35 1.82.58 2.75.76.93.17 1.86.3 2.79.35-.92-.17-1.82-.41-2.71-.7-.88-.29-1.74-.63-2.54-1.06-.8-.42-1.44-1-1.96-1.7-.26-.35-.48-.72-.67-1.1-.18-.38-.35-.81-.44-1.16l-1.48.49zm-2.23 5.7c.81.3 1.65.66 2.45 1.04.81.38 1.61.79 2.38 1.25s1.52.95 2.21 1.52 1.34 1.21 1.8 2c-.35-.84-.91-1.6-1.53-2.28s-1.32-1.3-2.04-1.88-1.47-1.12-2.25-1.63-1.56-.99-2.39-1.44l-.63 1.42zm-.63 3.12c.48.45.97.94 1.44 1.44s.92 1.01 1.35 1.55c.43.53.84 1.08 1.21 1.66s.7 1.19.92 1.85c-.09-.69-.31-1.37-.57-2.02-.26-.66-.57-1.29-.9-1.92a32.441 32.441 0 0 0-2.27-3.6l-1.18 1.04zm-1.82 3.43c.37.41.75.93 1.07 1.44.33.52.62 1.06.87 1.63.49 1.13.8 2.37.75 3.65.32-1.24.27-2.59 0-3.88-.14-.65-.33-1.29-.56-1.91-.24-.63-.5-1.22-.86-1.85l-1.27.92zm-1.82 3.4c.33.49.65 1.11.91 1.71.26.61.48 1.25.65 1.9.33 1.3.46 2.68.31 4.06.41-1.33.56-2.75.47-4.18-.04-.71-.14-1.43-.3-2.13-.16-.71-.35-1.39-.66-2.12l-1.38.76zm-3.6 2.36c.15.52.25 1.15.31 1.74.06.6.09 1.21.07 1.82-.04 1.22-.25 2.46-.7 3.64.68-1.06 1.17-2.27 1.48-3.53.15-.63.26-1.27.33-1.93.06-.66.1-1.29.06-2.01l-1.55.27zm-2.96-.52c-.13.75-.32 1.54-.54 2.29-.22.76-.47 1.51-.78 2.24-.3.73-.69 1.42-1.14 2.08-.23.33-.47.64-.75.93-.28.28-.58.57-.97.67.41-.04.77-.28 1.1-.52.33-.25.63-.53.92-.83.57-.59 1.09-1.25 1.53-1.96.44-.7.83-1.44 1.19-2.19.35-.76.67-1.51.96-2.32l-1.52-.39zm-3.9-1.84c-.3.54-.7 1.11-1.12 1.62s-.89.98-1.42 1.36c-.26.19-.54.35-.84.48-.31.14-.63.25-.96.34-.65.17-1.35.28-2.03.09.63.32 1.38.37 2.1.32.36-.03.72-.08 1.07-.16.37-.08.73-.21 1.06-.37.68-.32 1.29-.76 1.85-1.23.57-.48 1.07-.98 1.57-1.58l-1.28-.87zm-3.23-4.62c-.79.58-1.44 1.19-2.08 1.86-.63.67-1.2 1.39-1.68 2.17-.24.39-.46.79-.66 1.2-.19.42-.35.82-.52 1.24-.16.41-.32.83-.45 1.26-.07.21-.13.43-.18.64-.02.11-.05.22-.06.33s-.03.23.03.33c-.05-.1-.01-.21.01-.32.03-.11.06-.21.1-.31.08-.2.17-.4.27-.6.19-.39.4-.78.62-1.16s.44-.77.68-1.12c.24-.36.5-.7.78-1.02.56-.65 1.18-1.24 1.85-1.77.66-.52 1.39-1.02 2.09-1.38l-.8-1.35zm.75-6.93c-.83.13-1.56.34-2.31.6-.74.26-1.45.58-2.13.96-1.35.76-2.55 1.85-3.23 3.19.91-1.21 2.2-2 3.56-2.49.68-.25 1.39-.42 2.09-.54s1.45-.18 2.11-.17l-.09-1.55zm2.27-3.79a6.21 6.21 0 0 0-1.22-.19c-.39-.03-.78-.03-1.16 0-.77.05-1.52.19-2.24.4-1.44.43-2.74 1.16-3.88 2.05 1.28-.67 2.65-1.13 4.04-1.28.69-.08 1.38-.08 2.05 0 .34.04.67.1.98.18.16.04.32.09.47.14.14.05.32.11.4.16l.56-1.46zm18.63-19.43c-.05-.81-.07-1.65-.04-2.47.02-.83.08-1.66.22-2.46.07-.4.16-.8.29-1.18.13-.37.32-.77.49-1.14.36-.75.76-1.5 1.29-2.17-.62.58-1.14 1.27-1.63 1.97-.24.36-.47.7-.69 1.1-.21.4-.37.81-.51 1.22-.28.83-.47 1.68-.63 2.53-.15.86-.27 1.7-.35 2.59l1.56.01zm-5.34.48c-.38-.61-.71-1.35-.95-2.06-.24-.73-.38-1.48-.33-2.22.01-.19.04-.36.08-.55l.14-.59c.1-.39.21-.78.32-1.17.23-.78.49-1.55.79-2.31-.42.7-.8 1.43-1.16 2.16-.18.37-.35.74-.51 1.12l-.24.57c-.08.2-.15.42-.2.63-.2.87-.17 1.76-.04 2.61.14.86.36 1.67.7 2.52l1.4-.71zm-4.25 3.93c-.53-.69-1.04-1.43-1.52-2.17s-.94-1.5-1.26-2.29c-.33-.75-.28-1.65-.14-2.52.15-.87.41-1.74.75-2.57-.44.78-.82 1.61-1.09 2.49-.14.44-.24.89-.29 1.36-.05.46-.03.98.09 1.45.22.93.58 1.78.94 2.62.38.84.77 1.66 1.21 2.48l1.31-.85zm-1.13 2.82c-.85-.22-1.72-.5-2.56-.82s-1.66-.68-2.41-1.15c-.37-.23-.72-.5-1-.81-.26-.32-.52-.72-.73-1.11-.42-.79-.74-1.67-.84-2.59-.03.93.16 1.86.48 2.75.17.45.35.87.62 1.3.28.42.64.77 1 1.08.74.62 1.55 1.12 2.38 1.58s1.67.87 2.57 1.24l.49-1.47zm-1.68 3.99c-.36-.05-.79-.16-1.18-.27-.4-.12-.8-.26-1.19-.43-.78-.33-1.53-.75-2.21-1.26s-1.3-1.12-1.82-1.82-.94-1.48-1.23-2.32c.17.87.47 1.73.9 2.53s.99 1.54 1.64 2.19c.65.66 1.39 1.23 2.18 1.71.4.24.81.46 1.23.66.43.2.84.38 1.35.53l.33-1.52zm-1.32 3.69c-.84-.25-1.72-.56-2.56-.89-.85-.34-1.68-.72-2.48-1.15s-1.59-.91-2.34-1.44-1.48-1.1-2.11-1.78c.53.76 1.19 1.44 1.86 2.09.69.64 1.41 1.24 2.17 1.8.77.56 1.56 1.06 2.38 1.54.83.47 1.65.91 2.54 1.31l.54-1.48zm-1.08 3.03c-.43-.44-.84-.76-1.3-1.08-.45-.32-.91-.6-1.4-.85-.96-.5-2-.86-3.05-1.04-1.06-.21-2.16-.17-3.18.07s-2 .66-2.85 1.24c.91-.48 1.91-.78 2.91-.9s2.02-.04 2.95.26c.95.31 1.83.77 2.63 1.34.4.28.78.59 1.13.93.35.33.7.7.94 1.04l1.22-1.01z" fill="#9B59B6"/><path d="M112.06 92.32c-.82.68-1.46 1.45-2.05 2.25-.58.8-1.09 1.64-1.53 2.51-.45.87-.84 1.77-1.14 2.71s-.54 1.92-.59 2.99c-.25 5.92-5.26 10.52-11.18 10.27s-10.52-5.26-10.27-11.18c.14-3.21 1.71-6.06 4.03-7.93.84-.67 1.48-1.44 2.07-2.24.58-.8 1.08-1.64 1.51-2.52.44-.87.81-1.78 1.12-2.72.3-.95.54-1.92.61-2.98.37-5.87 5.42-10.33 11.28-9.96 5.87.37 10.33 5.42 9.96 11.28-.19 3.03-1.66 5.71-3.82 7.52z" fill="#AA47D1"/><g fill="#ECBFFF"><path d="M104.63 93c-.36-.18-.62-.55-.64-.98l-.32-5.42c-.04-.65.46-1.2 1.1-1.24.65-.04 1.2.46 1.24 1.1l.32 5.42c.04.65-.46 1.2-1.1 1.24a1.1 1.1 0 0 1-.6-.12zM93.31 99.9c-.44-.22-.71-.71-.63-1.22.1-.64.69-1.08 1.33-.99l4.89.73c.64.1 1.08.69.99 1.33-.1.64-.69 1.08-1.33.99l-4.89-.73c-.13-.02-.25-.06-.36-.11z"/></g><path d="M89.19 102.84c-.34.67-1.17.94-1.84.6s-.94-1.16-.6-1.84c.34-.67 1.17-.94 1.84-.6.67.35.94 1.17.6 1.84zm4.26 4.14c-.87-.44-1.92-.09-2.36.77-.44.87-.09 1.92.77 2.36.87.44 1.92.09 2.36-.77s.09-1.92-.77-2.36zm6.81.39c-.48-.24-1.07-.05-1.31.43s-.05 1.07.43 1.31 1.07.05 1.31-.43.05-1.07-.43-1.31zm4.23-6.62c-.48-.24-1.07-.05-1.31.43s-.05 1.07.43 1.31 1.07.05 1.31-.43a.96.96 0 0 0-.43-1.31zM96.7 89.34c-.48-.24-1.07-.05-1.31.43s-.05 1.07.43 1.31 1.07.05 1.31-.43.05-1.06-.43-1.31zm10.7-6.4c-.48-.24-1.07-.05-1.31.43s-.05 1.07.43 1.31 1.07.05 1.31-.43.05-1.07-.43-1.31zm4.57-5.57a2.154 2.154 0 0 0-2.89.94c-.54 1.06-.11 2.35.94 2.89s2.35.11 2.89-.94c.55-1.06.12-2.35-.94-2.89zm-7.5-1.62c-.48-.24-1.07-.05-1.31.43s-.05 1.07.43 1.31 1.07.05 1.31-.43a.983.983 0 0 0-.43-1.31zm-4.75 5.05c-.67-.34-1.5-.07-1.84.6s-.07 1.5.6 1.84 1.5.07 1.84-.6c.34-.68.07-1.5-.6-1.84zm12.55 6.36c-.87-.44-1.92-.09-2.36.77-.44.87-.09 1.92.77 2.36.87.44 1.92.09 2.36-.77s.09-1.92-.77-2.36zm-9.66 6.94c-.48-.24-1.07-.05-1.31.43s-.05 1.07.43 1.31 1.07.05 1.31-.43a.969.969 0 0 0-.43-1.31zm-7.6.3a2.154 2.154 0 0 0-2.89.94c-.54 1.06-.11 2.35.94 2.89 1.06.54 2.35.11 2.89-.94.54-1.06.11-2.35-.94-2.89z" fill="#D89EF0"/><path d="M18.77 51.66c.34-.11.7.08.81.41l1.35 4.16c.11.34-.08.7-.41.81-.34.11-.7-.08-.81-.41l-1.35-4.16a.63.63 0 0 1 .41-.81zm4.13-1.78l2.61 3.51c.21.28.62.35.9.13a.64.64 0 0 0 .13-.9l-2.61-3.51a.632.632 0 0 0-.9-.13c-.28.21-.34.61-.13.9zm2.84-3.26l3.62 2.46c.29.2.7.12.9-.17s.12-.69-.17-.9l-3.62-2.47c-.29-.2-.7-.12-.9.17-.2.31-.12.71.17.91zm1.66-3.87l4.12 1.46a.643.643 0 0 0 .43-1.21l-4.12-1.46c-.34-.12-.7.06-.82.39s.06.7.39.82zm.82-4.3l4.3.81c.35.07.69-.16.75-.51a.64.64 0 0 0-.51-.75l-4.3-.81a.633.633 0 0 0-.75.51c-.07.35.16.69.51.75zm.33-4.42l4.34.58c.35.05.68-.2.72-.55.05-.35-.2-.68-.55-.72l-4.34-.58c-.35-.05-.68.2-.72.55-.05.35.2.68.55.72zm.35-5.36l4.29.86a.648.648 0 0 0 .25-1.27l-4.29-.86a.648.648 0 0 0-.76.51c-.06.35.16.69.51.76zm1.04-5.34l4 1.78a.645.645 0 0 0 .52-1.18l-4-1.78c-.33-.14-.71 0-.85.33s.01.71.33.85zm2.99-5.43l2.99 3.2c.24.26.65.27.91.03s.27-.65.03-.91l-2.99-3.2a.646.646 0 0 0-.91-.03c-.25.24-.27.65-.03.91zm6.66-4.23l.55 4.34c.05.35.37.6.72.56s.6-.37.56-.72l-.55-4.34a.644.644 0 1 0-1.28.16zm6.31-.08l-1.31 4.18c-.11.34.08.7.42.81s.7-.08.81-.42l1.31-4.18c.11-.34-.08-.7-.42-.81s-.7.08-.81.42zm4.12 1.33l-2.23 3.77c-.18.31-.08.7.23.88s.7.08.88-.23l2.23-3.77c.18-.31.08-.7-.23-.88-.3-.18-.7-.08-.88.23zm1.96.85l.9 4.28c.07.35.41.57.76.5s.57-.42.5-.76l-.9-4.28c-.07-.35-.41-.57-.76-.5s-.57.41-.5.76zm1.62-1.28l4.37.25a.647.647 0 0 0 .07-1.29l-4.37-.25a.647.647 0 0 0-.68.61c-.01.36.26.66.61.68zm-.95-1.91l2.34-3.7c.19-.3.1-.7-.2-.89s-.7-.1-.89.2l-2.33 3.7c-.19.3-.1.7.2.89.29.19.69.1.88-.2zm-3.23-1.41l1.65-4.05a.644.644 0 0 0-1.19-.49l-1.65 4.05a.644.644 0 0 0 1.19.49zm-4.02-.95l.85-4.29a.648.648 0 0 0-1.27-.25l-.85 4.29a.648.648 0 0 0 1.27.25zm-4.4-.09l-.2-4.37a.645.645 0 0 0-1.29.06l.2 4.37c.02.36.32.63.67.61a.64.64 0 0 0 .62-.67zm-4.47 1.11l-1.47-4.12a.647.647 0 0 0-.82-.39c-.34.12-.51.49-.39.82l1.47 4.12c.12.34.49.51.82.39.34-.12.51-.48.39-.82zm-4.31 2.72l-2.72-3.43a.63.63 0 0 0-.9-.1.64.64 0 0 0-.1.91l2.72 3.43c.22.28.63.33.91.1.27-.23.31-.63.09-.91zm-3.49 4.19l-3.6-2.49a.654.654 0 0 0-.9.16c-.2.29-.13.69.16.9l3.6 2.49c.29.2.69.13.9-.16.2-.29.13-.69-.16-.9zm-1.91 4.25l-4.08-1.58a.64.64 0 0 0-.83.37c-.13.33.04.71.37.83l4.08 1.58c.33.13.7-.04.83-.37.12-.33-.04-.7-.37-.83zm-.99 4.5l-4.28-.9c-.35-.07-.69.15-.76.5s.15.69.5.76l4.28.91c.35.07.69-.15.76-.5s-.15-.69-.5-.77zm-.42 4.62l-4.34-.6c-.35-.05-.68.2-.73.55s.2.68.55.73l4.34.6c.35.05.68-.2.73-.55s-.2-.68-.55-.73zm-.36 5.91l-4.3-.82a.633.633 0 0 0-.75.51c-.07.35.16.69.51.75l4.3.82c.35.07.69-.16.75-.51a.643.643 0 0 0-.51-.75zm-1.09 5.45l-3.89-2a.645.645 0 1 0-.59 1.15l3.89 2a.645.645 0 1 0 .59-1.15zm-3.07 4.42l-2.36-3.68a.635.635 0 0 0-.89-.19c-.3.19-.39.59-.19.89L19.8 48c.19.3.59.39.89.19.3-.19.39-.59.2-.89zm-3.8 2.16l-3.33-2.84c-.27-.23-.68-.2-.91.07s-.2.68.07.91l3.33 2.84c.27.23.68.2.91-.07.24-.28.2-.68-.07-.91zm-.5 1.99l-3.63 2.44a.645.645 0 0 0 .72 1.07l3.63-2.44c.3-.2.37-.6.17-.89-.2-.3-.6-.38-.89-.18z" fill="#8C2E1C"/><path d="M53.88 10.71c-5.44-3.11-17.86-6.13-25.97 4.68-4.21 5.61-4.53 12.09-4.82 17.8-.38 7.61-.84 11.69-6.43 14.03a3.881 3.881 0 0 0-2.29 2.75c-.16.75-.1 1.55.22 2.31.83 1.97 3.09 2.9 5.06 2.07 10.34-4.34 10.8-13.45 11.17-20.78.25-5.05.49-9.82 3.28-13.54 5.91-7.88 14.94-3.17 15.96-2.6 1.85 1.05 4.2.4 5.26-1.45 1.05-1.85.41-4.21-1.44-5.27z" fill="#FF3838"/><path d="M47.35 27.09c.39-.25.91-.13 1.17.26l3.93 6.17c.25.39.13.91-.26 1.16s-.91.13-1.17-.26l-3.93-6.17a.842.842 0 0 1 .26-1.16zm2.3-.12l1.34 7.19c.09.46.53.76.98.67.46-.09.76-.53.67-.98l-1.34-7.19a.833.833 0 0 0-.98-.67c-.46.08-.76.52-.67.98zm3.19-.38l-.47 7.3c-.03.46.32.87.79.9.46.03.87-.32.9-.79l.47-7.3c.03-.47-.32-.87-.79-.9s-.87.33-.9.79zm3.9.53l-2.12 7c-.13.45.12.92.56 1.05.45.13.92-.12 1.05-.56l2.12-7a.845.845 0 0 0-.56-1.05.83.83 0 0 0-1.05.56zm4.43 1.71l-3.61 6.36a.84.84 0 0 0 .32 1.15c.4.23.92.09 1.15-.32l3.61-6.36a.84.84 0 0 0-.32-1.15.857.857 0 0 0-1.15.32zm4.71 3.2l-4.85 5.47c-.31.35-.28.88.07 1.19s.88.28 1.19-.07l4.85-5.47a.84.84 0 0 0-.07-1.19.832.832 0 0 0-1.19.07zm4.79 4.92l-5.77 4.49c-.37.29-.43.82-.15 1.18.29.37.82.43 1.18.15l5.77-4.49c.37-.29.43-.82.15-1.18a.835.835 0 0 0-1.18-.15zm4.66 6.9l-6.4 3.54c-.41.23-.56.74-.33 1.15s.74.56 1.15.33l6.4-3.54c.41-.23.56-.74.33-1.15a.857.857 0 0 0-1.15-.33zm2.74 5.05l-6.23 3.83a.843.843 0 1 0 .88 1.44l6.23-3.82c.4-.24.52-.76.28-1.16a.831.831 0 0 0-1.16-.29zm2.39 3.77l-6.15 3.96a.84.84 0 0 0-.25 1.17c.25.39.77.51 1.17.25l6.15-3.95a.84.84 0 0 0 .25-1.17.856.856 0 0 0-1.17-.26zm2.16 3.04l-5.75 4.52c-.37.29-.43.82-.14 1.19s.82.43 1.18.14l5.75-4.52c.37-.29.43-.82.14-1.18a.827.827 0 0 0-1.18-.15zm2.74 3.48l-5.74 4.52c-.37.29-.43.82-.14 1.19s.82.43 1.19.14l5.75-4.52c.37-.29.43-.82.14-1.18-.31-.38-.84-.44-1.2-.15zm3.11 3.97l-6.38 3.57c-.41.23-.55.74-.33 1.15.23.41.74.55 1.15.33l6.39-3.57a.84.84 0 0 0 .32-1.15.832.832 0 0 0-1.15-.33zm1.85 6.22l-7.29-.62a.84.84 0 0 0-.91.77c-.04.46.3.87.77.91l7.29.62c.46.04.87-.3.91-.77a.848.848 0 0 0-.77-.91zm-1.94 6.16l-5.7-4.58a.854.854 0 0 0-1.19.13c-.29.36-.23.89.13 1.19l5.7 4.58c.36.29.89.23 1.19-.13.29-.37.23-.9-.13-1.19zm-5.26 4.12l-2.03-7.02a.848.848 0 0 0-1.63.47l2.03 7.02c.13.45.6.71 1.05.58.45-.14.71-.61.58-1.05zm-6.4.41l2.19-6.98c.14-.44-.11-.92-.55-1.06s-.92.11-1.06.55l-2.19 6.98c-.14.44.11.92.55 1.06.45.14.92-.1 1.06-.55zm-5.67-3.32l5.75-4.52c.37-.29.43-.82.14-1.18a.844.844 0 0 0-1.19-.14L70 75.43c-.37.29-.43.82-.14 1.18.3.37.83.43 1.19.14zm-2.73-3.47l5.75-4.52c.37-.29.43-.82.14-1.19s-.82-.43-1.18-.14l-5.75 4.52a.844.844 0 0 0 1.04 1.33zm-2.74-3.48l5.75-4.52c.37-.29.43-.82.14-1.18a.834.834 0 0 0-1.18-.14l-5.75 4.52c-.37.29-.43.82-.14 1.19.28.35.81.42 1.18.13zm-3.87-3.81l5.02-5.32c.32-.34.3-.87-.03-1.19a.848.848 0 0 0-1.19.03l-5.02 5.32c-.32.34-.3.87.03 1.19s.87.31 1.19-.03zm-3.17-3.04l5.16-5.19c.33-.33.33-.87 0-1.19a.839.839 0 0 0-1.19 0l-5.16 5.19c-.33.33-.33.87 0 1.19.33.33.86.33 1.19 0zm-3.52-3.54l5.35-4.99c.34-.32.36-.85.04-1.19s-.85-.36-1.19-.04l-5.35 4.99a.84.84 0 0 0-.04 1.19c.31.34.85.36 1.19.04zm-5.28-6.22l5.95-4.25c.38-.27.47-.8.2-1.18s-.8-.47-1.18-.2l-5.95 4.25c-.38.27-.47.8-.2 1.18.28.38.81.47 1.18.2zm-3.53-5.59l6.58-3.19c.42-.2.59-.71.39-1.13s-.71-.59-1.13-.39l-6.58 3.19c-.42.2-.59.71-.39 1.13.21.42.71.6 1.13.39zm-2.04-5.03l7.1-1.74c.45-.11.73-.57.62-1.02s-.57-.73-1.02-.62l-7.1 1.74c-.45.11-.73.57-.62 1.02.11.46.57.73 1.02.62zm-.75-4.5l7.31.11c.47.01.85-.36.86-.83s-.36-.85-.83-.86l-7.31-.11a.847.847 0 0 0-.86.83c-.01.47.36.85.83.86zm.36-3.92l6.99 2.15c.44.14.92-.11 1.05-.56a.83.83 0 0 0-.56-1.05l-6.99-2.15a.83.83 0 0 0-1.05.56c-.14.45.11.92.56 1.05zM45 30.98l6.09 4.04c.39.26.91.15 1.17-.24s.15-.91-.24-1.17l-6.09-4.05a.842.842 0 0 0-1.17.24c-.25.39-.14.92.24 1.18z" fill="#04A17D"/><path d="M49.46 30.28c-2.09 1.33-6.04 13.85 10.62 30.23 2.44 2.4 7.38 5.79 7.38 5.79l5.95 7.55c2.53 3.21 7.18 3.76 10.39 1.23s3.76-7.18 1.24-10.39l-6.6-8.38c-1.05-1.71-2.22-3.86-3.57-6.52-10.08-19.97-23.32-20.85-25.41-19.51z" fill="#04A17D"/><path d="M62.05 39.33c2.17 1.34 3.81 7.31 2.47 9.49-1.34 2.17-5.15-.28-7.32-1.62a4.623 4.623 0 0 1 4.85-7.87z" fill="#F7CA18"/><path d="M63.11 52.29c.87.54 1.14 1.67.6 2.54s-1.67 1.14-2.54.6-1.14-1.67-.6-2.54c.53-.87 1.67-1.14 2.54-.6zm7.11 10.17c1.3.8 3.01.4 3.81-.91a2.765 2.765 0 1 0-4.71-2.9c-.8 1.3-.4 3.01.9 3.81zm6.96 5.74c-.36.58-.18 1.34.4 1.69a1.234 1.234 0 1 0 1.3-2.1c-.58-.35-1.34-.17-1.7.41zM52.43 35.57c-.54.87-.27 2.01.6 2.54.87.54 2.01.27 2.54-.6.54-.87.27-2.01-.6-2.54-.87-.54-2.01-.27-2.54.6zm16.61 15.31c-.36.58-.18 1.34.4 1.69.58.36 1.34.18 1.69-.4.36-.58.18-1.34-.4-1.69-.57-.36-1.33-.18-1.69.4z" fill="#fff" opacity=".59"/><path d="M60.43 41.95c1.3.8 1.78 2.39 1.07 3.55s-2.35 1.45-3.65.64c-1.3-.8-1.78-2.39-1.07-3.55.72-1.15 2.35-1.44 3.65-.64z" fill="#fff" opacity=".36"/><path d="M105.51 50.23L102 54.78c-.22.29-.64.34-.93.12s-.34-.64-.12-.93l3.51-4.55c.22-.29.64-.34.93-.12s.35.64.12.93zm-1.76-2.55a.664.664 0 0 0-.93-.09l-4.43 3.66c-.28.23-.32.65-.09.93s.65.32.93.09l4.43-3.66c.28-.23.32-.65.09-.93zm-1.72-2.63a.662.662 0 0 0-.89-.28l-5.1 2.67c-.32.17-.45.57-.28.9.17.32.57.45.9.28l5.1-2.67a.69.69 0 0 0 .27-.9zm-1.58-3.91a.664.664 0 0 0-.83-.44l-5.5 1.69a.664.664 0 1 0 .39 1.27l5.5-1.69c.35-.11.55-.48.44-.83zm-1.18-5.43a.657.657 0 0 0-.75-.56l-5.69.81c-.36.05-.62.39-.56.75.05.36.39.62.75.56l5.69-.81c.36-.05.61-.39.56-.75zm-1.2-3.97c.36-.07.6-.41.53-.78a.669.669 0 0 0-.78-.53l-5.65 1.07c-.36.07-.6.42-.53.78s.42.6.78.53l5.65-1.07zm-.73-3.57c.36-.08.59-.43.51-.79s-.43-.59-.79-.51l-5.63 1.19c-.36.08-.59.43-.51.79s.43.59.79.51l5.63-1.19zm-.88-3.36c.35-.11.54-.48.44-.83a.672.672 0 0 0-.83-.44l-5.49 1.72c-.35.11-.54.48-.43.83s.48.54.83.43l5.48-1.71zm-.6-4.16a.659.659 0 0 0-.83-.43l-5.49 1.72c-.35.11-.54.48-.44.83.11.35.48.54.83.43l5.49-1.72c.35-.1.55-.48.44-.83zM95 17.83a.665.665 0 0 0-.75-.56l-5.69.83c-.36.05-.61.39-.56.75s.39.61.75.56l5.69-.83a.65.65 0 0 0 .56-.75zm-5.86-3.5l5.18 2.5c.33.16.73.02.89-.31s.02-.73-.31-.89l-5.18-2.5c-.33-.16-.73-.02-.89.31s-.02.73.31.89zm6.05.97a.666.666 0 0 0 1.15-.67l-2.91-4.96a.668.668 0 0 0-.91-.24c-.32.19-.42.59-.24.91l2.91 4.96zm2.25-.07c.37.03.69-.24.72-.61l.47-5.73c.03-.37-.24-.69-.61-.72s-.69.24-.71.61l-.47 5.73c-.03.37.24.69.6.72zm1.23.49c.29.23.71.18.93-.11l3.56-4.51c.23-.29.18-.71-.11-.93a.657.657 0 0 0-.93.11l-3.56 4.52c-.22.27-.17.69.11.92zm.77 1.12c.11.35.48.54.83.44l5.49-1.72c.35-.11.54-.48.44-.83a.672.672 0 0 0-.83-.44l-5.49 1.72c-.36.11-.55.48-.44.83zm1.04 3.32c.11.35.48.54.83.43l5.49-1.72c.35-.11.54-.48.44-.83a.672.672 0 0 0-.83-.44l-5.49 1.72c-.36.12-.55.5-.44.84zm1.04 3.33c.11.35.48.54.83.44l5.49-1.72c.35-.11.54-.48.44-.83a.672.672 0 0 0-.83-.44l-5.49 1.72c-.36.1-.55.48-.44.83zm2.21 4.72c.16.33.56.47.89.31l5.18-2.5c.33-.16.47-.56.31-.89s-.56-.47-.89-.31l-5.18 2.5c-.33.16-.47.56-.31.89zm1.4 2.97c.15.33.54.48.88.33l5.24-2.37c.33-.15.48-.54.33-.88a.667.667 0 0 0-.88-.33l-5.24 2.37c-.34.16-.48.55-.33.88zm1.47 3.38c.14.34.53.5.86.37l5.33-2.17c.34-.14.5-.53.36-.86a.671.671 0 0 0-.86-.37l-5.33 2.17c-.33.13-.49.52-.36.86zm1.79 5.28c.09.35.45.57.81.47l5.56-1.46a.66.66 0 0 0 .47-.81.655.655 0 0 0-.81-.47l-5.56 1.46c-.35.09-.56.45-.47.81zm.74 4.05c.03.37.35.64.72.6l5.73-.51c.36-.03.63-.35.6-.72s-.35-.64-.72-.6l-5.73.5c-.36.04-.63.37-.6.73zm6.43 3.04l-5.71-.71a.662.662 0 0 0-.74.58c-.04.36.21.7.58.74l5.71.71c.36.05.69-.21.74-.58a.677.677 0 0 0-.58-.74zm-.71 3.52l-5.34-2.13a.656.656 0 0 0-.86.37c-.14.34.03.73.37.86l5.34 2.13a.663.663 0 0 0 .49-1.23zm-5.9-.75a.657.657 0 0 0-.93.12c-.11.14-.15.31-.13.47a.637.637 0 0 0-.46.11l-.06.06c-.09.02-.17.07-.24.12a.66.66 0 0 0-.36-.44.67.67 0 0 0-.88.33l-2.38 5.23c-.15.33 0 .73.33.88s.73.01.88-.33l2.01-4.42-.87 4.8c-.06.36.17.71.53.77.36.07.71-.17.77-.53l.43-2.4.5 2.44c.07.36.43.59.78.52.08-.02.14-.05.21-.09.07 0 .15 0 .22-.03.35-.12.53-.5.41-.84l-.92-2.68-.09-.43 1.89 2.65c.21.3.63.37.93.15.3-.21.37-.63.15-.93l-2.76-3.86 3.73 2.91c.29.23.71.17.93-.12.23-.29.17-.71-.12-.93l-4.5-3.53z" fill="#FF9D00"/><path d="M108.23 54.49c1.91-.39 8.31-8.49.65-25.19-1.12-2.45-3.81-6.32-3.81-6.32l-2.26-7.22a5.81 5.81 0 0 0-7.29-3.81 5.819 5.819 0 0 0-3.81 7.29l2.5 8c.29 1.55.55 3.46.8 5.79 1.83 17.51 11.31 21.86 13.22 21.46z" fill="#FFDB26"/><path d="M105.73 35.59a3.95 3.95 0 0 1-7-3.66c1.01-1.93 4.47-3.64 6.4-2.63 1.93 1.02 1.61 4.36.6 6.29z" fill="#fb0"/><circle cx="101.66" cy="34.32" r="2.26" fill="#fff" opacity=".36"/><path d="M96.33 17.31a1.13 1.13 0 1 1-2.258-.038 1.13 1.13 0 0 1 2.258.038zm3.34 2.31c-1.25-.02-2.27.97-2.3 2.21-.02 1.25.97 2.27 2.21 2.3 1.25.02 2.27-.97 2.3-2.21.03-1.25-.97-2.27-2.21-2.3zm-.7 7.32a.553.553 0 0 0-.57.55c-.01.31.24.57.55.57.31.01.57-.24.57-.55a.56.56 0 0 0-.55-.57zm3.42 13.6a1.976 1.976 0 0 0-.07 3.95 1.976 1.976 0 0 0 .07-3.95zm4.85-2.74c-.62-.01-1.14.48-1.15 1.11-.01.62.48 1.14 1.11 1.15.62.01 1.14-.48 1.15-1.11 0-.62-.49-1.13-1.11-1.15zm.14 7.34a2.53 2.53 0 0 0-2.58 2.49 2.53 2.53 0 0 0 2.49 2.58 2.53 2.53 0 0 0 2.58-2.49c.03-1.4-1.08-2.56-2.49-2.58z" fill="#fff" opacity=".59"/><path d="M97.58 13.629999999999999c.13.06.27.1.42.13.44.09.87.26 1.27.5.13.08.27.14.41.19.08.12.17.24.28.35.34.34.61.73.8 1.17.07.16.16.31.26.44 0 .2.03.41.09.61l.64 2.06c.07.22.17.42.31.6-.01.22.02.45.09.67l.64 2.06c.07.23.18.44.33.63-.01.41.11.82.35 1.16.15.22.95 1.39 1.81 2.77.12.19.26.36.43.49.04.21.12.42.23.61.38.65.69 1.21.93 1.69.09.19.21.35.35.49.02.21.07.42.16.63.37.83.67 1.56.92 2.23.08.2.19.39.32.56 0 .21.04.43.11.64.51 1.47.92 2.94 1.22 4.35.04.21.12.41.23.59-.03.21-.03.42 0 .63.18 1.08.29 2.14.34 3.14.01.21.05.42.12.61-.06.19-.1.4-.1.61-.01.71-.06 1.41-.14 2.06-.03.2-.02.41.02.6-.09.17-.16.36-.21.56-.08.42-.19.83-.3 1.23-.06.19-.08.39-.08.58-.12.15-.22.32-.29.5-.1.24-.19.47-.3.69-.08.17-.14.35-.17.53-.14.12-.26.26-.36.42-.08.12-.16.24-.24.35-.1.14-.18.28-.25.44-.13.07-.25.16-.37.25a.18.18 0 0 1-.07.05c-.06-.01-.12-.01-.18-.01h-.1a1.81 1.81 0 0 0-.41-.23 3.39 3.39 0 0 1-.39-.18c-.17-.08-.34-.14-.52-.18-.12-.14-.26-.26-.42-.37-.26-.17-.52-.36-.78-.57a2.16 2.16 0 0 0-.51-.29c-.1-.17-.22-.33-.37-.47-.37-.34-.73-.72-1.08-1.13-.14-.16-.29-.29-.46-.39a2.02 2.02 0 0 0-.29-.54c-.44-.59-.88-1.23-1.28-1.92-.11-.18-.24-.34-.39-.48-.03-.2-.1-.4-.2-.59-.49-.95-.94-1.96-1.33-3.02-.08-.21-.18-.39-.31-.55 0-.21-.03-.42-.1-.62a35.81 35.81 0 0 1-1.11-4.43c-.04-.22-.12-.42-.22-.61.04-.21.04-.43 0-.64-.14-.88-.25-1.68-.33-2.46l-.05-.46-.03-.26c-.03-.23-.09-.45-.19-.66.05-.22.06-.45.03-.69-.1-.82-.21-1.59-.32-2.29-.04-.23-.11-.46-.23-.66.04-.23.04-.46 0-.7l-.01-.08-.03-.16a.977.977 0 0 0-.06-.23l-.49-1.58c-.07-.22-.17-.42-.31-.6.01-.22-.02-.44-.09-.67l-.64-2.06c-.07-.22-.17-.42-.31-.6.01-.22-.02-.45-.09-.67l-.58-1.87-.03-.14c-.04-.15-.09-.29-.16-.42.03-.14.04-.29.04-.44-.01-.46.06-.92.21-1.36.05-.15.08-.29.1-.44.1-.1.2-.22.28-.35.24-.39.56-.73.93-1.01.12-.09.23-.2.33-.31.14-.03.28-.07.42-.13.15-.07.28-.12.41-.16.32-.1.66-.16 1.02-.17.14.04.29.02.43-.02M97.97 8.18c-.34 0-.63.26-.66.61l-.24 2.91c-.51.02-1.03.1-1.55.26-.21.07-.42.15-.61.23l-1.47-2.52a.656.656 0 0 0-.9-.24c-.32.19-.42.59-.24.91l1.48 2.52c-.57.43-1.05.95-1.42 1.54l-2.63-1.27a.727.727 0 0 0-.29-.07.668.668 0 0 0-.29 1.27l2.63 1.27a5.81 5.81 0 0 0-.32 2.08l-2.89.42a.665.665 0 0 0 .1 1.32c.03 0 .06 0 .1-.01l2.89-.42.06.25.58 1.84-2.74.86c-.35.11-.54.48-.44.83.09.28.35.47.63.47.07 0 .13-.01.2-.03l2.74-.86.64 2.06-2.74.86c-.35.11-.54.48-.43.83.09.28.35.47.63.47.07 0 .13-.01.2-.03l2.74-.86.49 1.58c.01.07.03.15.04.23l-2.81.59c-.36.08-.59.43-.51.79.07.31.34.53.65.53.05 0 .09 0 .14-.01l2.76-.58c.11.69.21 1.43.31 2.23l-2.61.49c-.36.07-.6.42-.53.78.06.32.34.54.65.54.04 0 .08 0 .12-.01l2.52-.48c.03.24.05.46.08.7.09.89.21 1.74.34 2.57l-2.53.36c-.36.05-.62.39-.56.75.05.33.33.57.66.57.03 0 .06 0 .09-.01l2.57-.37c.32 1.7.72 3.26 1.18 4.67l-2.63.81a.664.664 0 0 0 .19 1.3c.06 0 .13-.01.19-.03l2.68-.82c.44 1.19.92 2.27 1.43 3.25l-2.59 1.35c-.32.17-.45.57-.28.9.12.23.35.36.59.36.1 0 .21-.02.31-.08l2.62-1.37c.46.78.93 1.48 1.41 2.11l-2.3 1.9c-.28.23-.32.65-.09.93.13.16.32.24.51.24.15 0 .3-.05.42-.15l2.29-1.89c.41.47.82.89 1.22 1.27l-1.78 2.31a.666.666 0 1 0 1.06.81l1.74-2.25c.31.25.62.47.92.67l-1.14 2.51a.67.67 0 0 0 .6.94c.25 0 .49-.14.6-.39l1.09-2.39c.18.09.35.17.51.24l-.46 2.53a.661.661 0 1 0 1.3.23l.43-2.39h.01l.5 2.43c.06.31.34.53.65.53.04 0 .09 0 .13-.01.08-.02.14-.05.21-.09h.01c.07 0 .14-.01.21-.03.35-.12.53-.5.41-.84l-.8-2.34c.07-.05.15-.11.22-.18l1.47 2.05a.664.664 0 0 0 .92.16c.3-.21.37-.63.15-.93l-1.64-2.29c.1-.14.21-.29.31-.45l2.3 1.79c.12.09.26.14.41.14.2 0 .39-.09.52-.26.23-.29.17-.71-.12-.93l-2.46-1.91c.12-.25.24-.53.35-.81l2.97 1.18c.08.03.16.05.25.05.26 0 .51-.16.62-.42a.656.656 0 0 0-.37-.86l-3.03-1.21c.13-.44.25-.9.35-1.4l3.22.4c.03 0 .06.01.08.01.33 0 .62-.25.66-.58.04-.36-.21-.7-.58-.74l-3.17-.4c.09-.71.14-1.47.16-2.28l3.04-.27c.36-.03.63-.35.6-.72a.664.664 0 0 0-.66-.61h-.06l-2.94.26a27.03 27.03 0 0 0-.36-3.39l2.61-.68a.66.66 0 0 0 .47-.81.67.67 0 0 0-.64-.5c-.06 0-.11.01-.17.02l-2.52.66c-.3-1.43-.72-2.96-1.29-4.59l2.17-.88c.34-.14.5-.53.36-.86a.647.647 0 0 0-.61-.41c-.08 0-.17.02-.25.05l-2.12.86c-.29-.75-.61-1.53-.96-2.32l2.03-.92c.33-.15.48-.54.33-.88a.654.654 0 0 0-.61-.39.66.66 0 0 0-.27.06l-2.04.92c-.28-.57-.63-1.19-1-1.81l2.13-1.03c.33-.16.47-.56.31-.89a.658.658 0 0 0-.89-.31l-2.24 1.08c-.86-1.38-1.66-2.56-1.86-2.85l2.72-.85c.35-.11.54-.48.44-.83a.672.672 0 0 0-.63-.47c-.07 0-.13.01-.2.03l-2.74.86-.64-2.06 2.74-.86c.35-.11.54-.48.44-.83a.672.672 0 0 0-.63-.47c-.07 0-.13.01-.2.03l-2.74.86-.64-2.06 2.74-.86c.35-.11.54-.48.44-.83a.672.672 0 0 0-.63-.47c-.07 0-.13.01-.2.03l-2.78.87c-.3-.68-.72-1.28-1.22-1.78l1.81-2.29c.23-.29.18-.71-.11-.93a.668.668 0 0 0-.93.11l-1.81 2.29c-.59-.36-1.24-.63-1.93-.76l.24-2.9a.664.664 0 0 0-.61-.72h-.06z" fill="#424242" opacity=".2"/><path d="M42.98 81.46c.4.69.17 1.57-.52 1.96L34.59 88c-.69.4-1.57.17-1.96-.52-.4-.69-.17-1.57.52-1.96l7.87-4.57c.68-.41 1.56-.17 1.96.51zm2.56 5.66l-5.5 7.25c-.48.63-.36 1.53.28 2.01.63.48 1.53.35 2.01-.28l5.5-7.25c.48-.63.36-1.53-.28-2.01-.63-.47-1.53-.35-2.01.28zm6.09 3.42l-1.9 8.9c-.17.78.33 1.54 1.11 1.71s1.54-.33 1.7-1.11l1.9-8.9c.17-.78-.33-1.54-1.11-1.7-.77-.17-1.53.32-1.7 1.1zm8.23.7l.86 9.06a1.436 1.436 0 1 0 2.86-.28l-.86-9.06a1.436 1.436 0 1 0-2.86.28zm12.7 3.54l-6.75 6.1a1.438 1.438 0 0 0 1.93 2.13l6.75-6.1a1.438 1.438 0 0 0-1.93-2.13zm4.71 12.48l-8.9-1.89c-.78-.16-1.54.33-1.7 1.11s.33 1.54 1.11 1.7l8.9 1.89c.78.16 1.54-.33 1.7-1.11.16-.77-.34-1.54-1.11-1.7zm-7.03 10.96L66.33 110a1.43 1.43 0 0 0-1.91-.68 1.43 1.43 0 0 0-.68 1.91l3.91 8.22a1.433 1.433 0 1 0 2.59-1.23zm-11.12 2.31l-.01-9.1a1.44 1.44 0 0 0-2.88 0l.01 9.1a1.44 1.44 0 0 0 2.88 0zm-10.65-.76l1.84-8.91c.16-.78-.34-1.54-1.12-1.7s-1.54.34-1.7 1.12l-1.85 8.91c-.16.78.34 1.54 1.12 1.7.79.16 1.55-.34 1.71-1.12zm-9.86-2.88l3.81-8.27c.33-.72.02-1.57-.7-1.91-.72-.33-1.57-.02-1.91.7L36 115.69c-.33.72-.02 1.57.7 1.91.72.33 1.58.01 1.91-.71zm-8.88-5.03l5.61-7.17c.49-.63.38-1.53-.25-2.02s-1.53-.38-2.02.25l-5.61 7.17c-.49.63-.38 1.53.25 2.02.63.48 1.53.37 2.02-.25zm-7.34-6.74l7.01-5.8c.61-.51.7-1.41.19-2.02s-1.41-.7-2.02-.19l-7.01 5.8c-.61.51-.7 1.41-.19 2.02.5.61 1.4.69 2.02.19zm-5.96-8.37l8-4.34c.7-.38.96-1.25.58-1.95s-1.25-.96-1.95-.58l-8 4.34c-.7.38-.96 1.25-.58 1.95s1.25.96 1.95.58zm-4.77-10.61l8.68-2.73c.76-.24 1.18-1.04.94-1.8s-1.05-1.18-1.8-.94L10.8 83.4c-.76.24-1.18 1.04-.94 1.8s1.05 1.18 1.8.94zM9.12 76.08l9.03-1.14c.79-.1 1.34-.82 1.24-1.61s-.82-1.34-1.61-1.24l-9.03 1.14c-.79.1-1.34.82-1.24 1.61.11.78.83 1.34 1.61 1.24zm1.93-11.4l7.14 5.64c.62.49 1.53.39 2.02-.24.49-.62.38-1.53-.24-2.02l-7.14-5.64c-.62-.49-1.53-.39-2.02.24s-.39 1.53.24 2.02zm11.39-6.73l-.29 9.09c-.03.79.6 1.46 1.39 1.48.79.03 1.46-.6 1.48-1.39l.29-9.09c.03-.79-.6-1.46-1.39-1.48s-1.45.6-1.48 1.39zm12.12 5.09l-7.45 5.22a1.43 1.43 0 0 0-.35 2c.45.65 1.35.81 2 .35l7.45-5.22c.65-.46.81-1.35.35-2a1.45 1.45 0 0 0-2-.35zm3.34 8.11l-8.93 1.76c-.78.15-1.29.91-1.13 1.69.15.78.91 1.29 1.69 1.13l8.93-1.76a1.43 1.43 0 0 0 1.13-1.69c-.15-.78-.91-1.28-1.69-1.13z" fill="#0B88CF"/><path d="M72.68 104.56a10.039 10.039 0 0 0-11.07-8.92c-1.32.14-2.6.21-3.82.21-9 0-15.53-3.73-19.99-11.39-3.63-6.25-4.37-12.67-4.39-12.94-.54-5.11-4.84-8.98-10-8.98a9.97 9.97 0 0 0-7.8 3.72 10.004 10.004 0 0 0-2.19 7.38c.06.58.66 5.83 3.05 12.37 3.17 8.65 8.16 15.9 14.43 20.97 7.39 5.97 16.39 9 26.75 9 1.98 0 4.05-.11 6.13-.34 5.49-.59 9.49-5.56 8.9-11.08z" fill="#30A9FF"/><path d="M26.76 74.51c0 1.85-1.5 3.35-3.35 3.35-1.62 0-2.98-1.16-3.29-2.69 0-.02-.01-.04-.01-.07-.04-.19-.06-.39-.06-.6a3.35 3.35 0 0 1 3.71-3.33c.02 0 .03.01.05.01.1.01.2.03.3.05h.02c.22.05.44.12.64.21 1.18.54 1.99 1.71 1.99 3.07zm4.72 12.75c-.2-.09-.42-.16-.64-.21h-.02c-.1-.02-.2-.04-.3-.05-.02 0-.03-.01-.05-.01a3.35 3.35 0 0 0-3.71 3.33c0 .2.02.4.06.6 0 .02.01.04.01.07a3.359 3.359 0 0 0 3.29 2.69c1.85 0 3.35-1.5 3.35-3.35a3.387 3.387 0 0 0-1.99-3.07zm10.54 11.02c-.2-.09-.42-.16-.64-.21h-.02c-.1-.02-.2-.04-.3-.05-.02-.01-.04-.02-.06-.02a3.35 3.35 0 0 0-3.71 3.33c0 .2.02.4.06.6 0 .02.01.04.01.07a3.359 3.359 0 0 0 3.29 2.69c1.85 0 3.35-1.5 3.35-3.35 0-1.37-.81-2.54-1.98-3.06zm19.15 4.79c-.2-.09-.42-.16-.64-.21h-.02c-.1-.02-.2-.04-.3-.05-.02 0-.03-.01-.05-.01a3.35 3.35 0 0 0-3.71 3.33c0 .2.02.4.06.6 0 .02.01.04.01.07a3.359 3.359 0 0 0 3.29 2.69c1.85 0 3.35-1.5 3.35-3.35 0-1.38-.82-2.55-1.99-3.07z" fill="#fff" opacity=".36"/><path d="M26.76 65.89a1.44 1.44 0 1 1-1.44-1.44c.8.01 1.44.65 1.44 1.44zm2.63 3.36c-.4 0-.72.32-.72.72s.32.72.72.72.72-.32.72-.72-.32-.72-.72-.72zm2.4 7.66c-.66 0-1.2.54-1.2 1.2s.54 1.2 1.2 1.2 1.2-.54 1.2-1.2-.54-1.2-1.2-1.2zm5.74 10.54c-.93 0-1.68.75-1.68 1.68s.75 1.68 1.68 1.68 1.68-.75 1.68-1.68-.75-1.68-1.68-1.68zm-4.07-4.32a.48.48 0 1 0 0 .96.48.48 0 0 0 0-.96zm10.06 10.54a1.44 1.44 0 1 0 0 2.88 1.44 1.44 0 0 0 0-2.88zm5.99 2.87c-.4 0-.72.32-.72.72s.32.72.72.72.72-.32.72-.72a.73.73 0 0 0-.72-.72zm4.55.48a1.44 1.44 0 1 0 1.44 1.44c-.01-.79-.65-1.44-1.44-1.44zm6.22.96a.96.96 0 1 0 0 1.92.96.96 0 0 0 0-1.92zm7.9 1.44c-.93 0-1.68.75-1.68 1.68s.75 1.68 1.68 1.68 1.68-.75 1.68-1.68-.75-1.68-1.68-1.68zm.72 6.7a.96.96 0 1 0 1.92 0 .96.96 0 0 0-1.92 0zm-5.27 6.47c0 .93.75 1.68 1.68 1.68s1.68-.75 1.68-1.68-.75-1.68-1.68-1.68c-.92 0-1.68.75-1.68 1.68zm-5.74.24a.96.96 0 1 0 1.92 0 .96.96 0 0 0-1.92 0zm-8.14-.24c0 .93.75 1.68 1.68 1.68s1.68-.75 1.68-1.68-.75-1.68-1.68-1.68-1.68.75-1.68 1.68zm-6.23-1.68a.96.96 0 1 0 1.92 0 .96.96 0 0 0-1.92 0zm-6.7-2.39a1.44 1.44 0 1 0 0-2.88 1.44 1.44 0 0 0 0 2.88zm-6.71-8.14a.96.96 0 1 0-.96.96c.53-.01.96-.44.96-.96zm-3.59-3.36c.4 0 .72-.32.72-.72s-.32-.72-.72-.72-.72.32-.72.72.32.72.72.72zm-6.7-9.1c.93 0 1.68-.75 1.68-1.68s-.75-1.68-1.68-1.68-1.68.75-1.68 1.68.75 1.68 1.68 1.68zm-2.4-8.14c.4 0 .72-.32.72-.72s-.32-.72-.72-.72-.72.32-.72.72.32.72.72.72zm-1.44-9.1c-.66 0-1.2.54-1.2 1.2s.54 1.2 1.2 1.2 1.2-.54 1.2-1.2-.53-1.2-1.2-1.2zm2.4-3.83c-.4 0-.72.32-.72.72s.32.72.72.72.72-.32.72-.72-.32-.72-.72-.72z" fill="#fff" opacity=".35"/><path d="M42.790000000000006 9.82c.52 0 1.06.02 1.59.07.06 0 .11.01.17.01.14 0 .29-.02.42-.05.18.09.38.15.58.17.98.14 1.96.35 2.93.62.18.05.37.08.55.08h.05c.16.12.34.21.53.28.77.27 1.52.57 2.21.9.19.09.39.15.58.18.14.15.3.28.48.38.63.36.83.94.89 1.26.02.11.05.22.09.32-.03.1-.05.2-.07.3-.03.24-.11.47-.22.66-.19.32-.46.58-.79.75-.09.05-.18.1-.26.15h-.09c-.08 0-.17.01-.25.02s-.17.02-.25.02c-.32 0-.62-.08-.92-.25-.23-.13-.48-.21-.73-.24-.17-.17-.38-.31-.61-.41-.86-.38-1.76-.69-2.67-.93-.17-.05-.35-.07-.52-.07-.07 0-.15 0-.22.01-.21-.13-.44-.22-.69-.26-.93-.17-1.85-.25-2.74-.25-.68 0-1.35.05-2 .15-.27.04-.51.13-.73.26-.08-.01-.16-.01-.24-.01-.18 0-.36.02-.54.07-2.02.56-3.84 1.63-5.4 3.18-.19.19-.33.4-.43.63-.22.12-.41.28-.58.48l-.05.06c-.13.16-.26.32-.39.49-.78 1.04-1.41 2.17-1.92 3.46-.1.24-.14.49-.14.73-.15.19-.26.41-.33.64-.36 1.17-.63 2.45-.82 3.89-.03.24-.02.47.03.69-.1.21-.16.43-.19.66-.14 1.37-.21 2.8-.28 4.03-.01.23.02.45.07.65-.08.2-.13.42-.14.64-.05.94-.11 2.05-.21 3.17-.02.22 0 .43.04.63-.09.19-.15.39-.17.6-.14 1.17-.32 2.2-.54 3.16-.05.2-.06.4-.05.6-.11.17-.2.35-.25.54a16.38 16.38 0 0 1-1.15 2.9c-.09.18-.15.36-.19.55-.14.13-.27.27-.37.44-.58.93-1.28 1.79-2.07 2.55-.14.13-.26.29-.35.45-.18.07-.35.17-.5.3-1.02.82-2.22 1.55-3.56 2.16-.16.07-.31.17-.44.27-.13 0-.26.02-.4.05s-.28.05-.42.05c-.45 0-.89-.17-1.23-.47-.08-.07-.16-.13-.25-.19-.04-.1-.08-.2-.14-.3l-.09-.15-.02-.03c-.15-.35-.18-.74-.1-1.11.03-.14.08-.28.15-.43.04-.09.08-.17.11-.26.1-.07.19-.14.28-.23.21-.2.39-.33.57-.41.85-.36 1.61-.76 2.31-1.22.23-.15.42-.35.57-.57.25-.09.48-.22.69-.4.95-.85 1.68-1.81 2.25-2.95.12-.25.19-.51.21-.77.17-.19.3-.42.38-.66.39-1.12.67-2.41.86-3.94.03-.24.02-.47-.03-.69.1-.21.16-.43.18-.66.11-1.26.19-2.62.25-3.91l.02-.46.01-.21c.01-.22-.01-.44-.07-.65.08-.2.13-.41.14-.63.08-1.33.17-2.41.28-3.39.02-.21.01-.42-.03-.63.09-.19.15-.39.18-.6.17-1.2.4-2.31.68-3.37.05-.2.07-.4.07-.6.12-.16.21-.35.27-.54.37-1.14.83-2.24 1.38-3.26.1-.18.16-.37.2-.56.15-.13.28-.28.38-.45.33-.53.62-.96.91-1.35.55-.73 1.14-1.41 1.8-2.08.14-.14.26-.3.35-.48.18-.08.34-.19.49-.32 1.05-.92 2.17-1.68 3.34-2.26.18-.09.33-.2.47-.33.19-.02.39-.06.57-.14 1.08-.44 2.22-.76 3.4-.95.2-.03.39-.09.57-.18.13.03.26.04.39.04.06 0 .12 0 .19-.01.58-.06 1.16-.08 1.73-.08m-2.63-4.68h-.03c-.36.02-.63.32-.62.67l.1 2.26c-1.28.21-2.56.56-3.83 1.07l-.72-2.03a.646.646 0 0 0-.83-.39c-.34.12-.51.49-.39.82l.76 2.12c-1.29.64-2.56 1.49-3.77 2.55l-1.34-1.69a.654.654 0 0 0-.91-.1.64.64 0 0 0-.1.91l1.4 1.77c-.68.69-1.35 1.44-1.99 2.29-.37.49-.7.99-1.01 1.5l-1.77-1.23a.618.618 0 0 0-.37-.11c-.2 0-.41.1-.53.28-.2.29-.13.69.16.9l1.86 1.29c-.63 1.17-1.12 2.37-1.51 3.58l-2.01-.78a.649.649 0 0 0-.83.37c-.13.33.04.71.37.83l2.1.81c-.32 1.2-.56 2.41-.73 3.61L21.55 26c-.04-.01-.09-.01-.13-.01a.642.642 0 0 0-.13 1.27l2.2.47c-.13 1.18-.22 2.35-.29 3.5l-2.12-.29c-.03 0-.06-.01-.09-.01-.32 0-.59.23-.64.56-.05.35.2.68.55.73l2.22.31-.03.68c-.07 1.39-.14 2.66-.25 3.82l-2.09-.4c-.04-.01-.08-.01-.12-.01-.3 0-.57.22-.63.52-.07.35.16.69.51.75l2.19.42c-.17 1.33-.41 2.5-.76 3.54l-1.87-.96a.643.643 0 0 0-.86.28c-.16.32-.04.71.28.87l1.97 1.01a7.69 7.69 0 0 1-1.79 2.35l-1.13-1.77a.645.645 0 0 0-.89-.2c-.3.19-.39.59-.19.89l1.19 1.86c-.58.38-1.23.73-1.98 1.05-.47.2-.86.5-1.2.83l-1.69-1.44a.651.651 0 0 0-.84.99l1.75 1.49c-.14.28-.24.58-.31.88-.16.75-.1 1.55.22 2.31.06.14.14.25.2.38l-1.83 1.23c-.29.2-.37.6-.17.89a.65.65 0 0 0 .9.17l1.92-1.29a3.863 3.863 0 0 0 3.44.87l.68 2.09a.652.652 0 0 0 .81.42c.34-.11.52-.47.41-.81l-.7-2.15c1.55-.71 2.87-1.52 3.99-2.43l1.28 1.73c.13.17.32.26.52.26.13 0 .27-.04.38-.13a.64.64 0 0 0 .13-.9l-1.35-1.81c.95-.91 1.74-1.9 2.38-2.94l1.78 1.21c.11.08.24.11.36.11.21 0 .41-.1.53-.28.2-.29.12-.69-.17-.9l-1.87-1.27c.54-1.05.96-2.14 1.29-3.25l2.02.72c.07.03.14.04.22.04.27 0 .51-.17.61-.43.12-.34-.06-.7-.39-.82l-2.12-.75c.26-1.12.45-2.25.58-3.38l2.11.4a.651.651 0 0 0 .75-.51.64.64 0 0 0-.51-.75l-2.21-.42c.1-1.1.16-2.19.22-3.25l2.12.28c.03 0 .06.01.09.01.32 0 .6-.24.64-.56.05-.35-.2-.68-.55-.72l-2.22-.3c.07-1.34.14-2.65.27-3.93l2.09.42c.04.01.09.01.13.01.3 0 .57-.21.63-.52a.648.648 0 0 0-.51-.76l-2.19-.44c.17-1.24.4-2.43.75-3.57l1.93.86c.08.04.17.06.26.06.25 0 .48-.14.59-.38.14-.32 0-.71-.33-.85l-2.04-.91c.42-1.06.96-2.06 1.66-2.99.13-.17.26-.32.39-.48l1.44 1.54a.656.656 0 0 0 .91.03c.26-.24.27-.65.03-.91l-1.52-1.62c1.43-1.42 2.98-2.25 4.53-2.68l.27 2.09c.04.32.32.56.64.56.03 0 .05 0 .08-.01.35-.04.6-.37.56-.72l-.28-2.2c.58-.09 1.14-.12 1.7-.12.83 0 1.64.08 2.39.22l-.63 2.02a.644.644 0 0 0 .61.84c.27 0 .53-.18.61-.45l.67-2.12c.95.25 1.76.56 2.38.83l-1.08 1.83c-.18.31-.08.7.23.88.1.06.22.09.33.09.22 0 .44-.11.56-.32l1.13-1.92c.01 0 .01.01.02.01.59.34 1.24.49 1.88.49.17 0 .33-.01.5-.03l.45 2.15c.06.3.33.51.63.51.04 0 .09 0 .13-.01.35-.07.57-.42.5-.76l-.47-2.25c.67-.33 1.25-.85 1.64-1.55.25-.44.4-.9.46-1.37l2.19.13h.04c.34 0 .62-.26.64-.61a.641.641 0 0 0-.61-.68l-2.31-.13c-.21-1.06-.84-2.03-1.86-2.61a.076.076 0 0 0-.04-.02L55 8.88a.646.646 0 0 0-.54-.99c-.21 0-.42.11-.55.3l-1.2 1.91c-.73-.35-1.55-.69-2.43-.99l.81-1.99a.644.644 0 0 0-1.19-.49l-.85 2.09a23.8 23.8 0 0 0-3.2-.68l.42-2.11a.648.648 0 0 0-.51-.76c-.04-.01-.08-.01-.12-.01-.3 0-.57.21-.63.52l-.44 2.21c-.58-.05-1.16-.07-1.76-.07-.63 0-1.26.03-1.9.09l-.1-2.15a.663.663 0 0 0-.65-.62zM23.64 65.28999999999999c.3.18.64.3 1 .37 1.51.27 2.87 1 3.91 2.11.25.27.54.48.85.63.04.35.14.69.3 1.02.38.76.62 1.58.72 2.43.01.05.03.27.08.6.08.55.31 1.06.66 1.48-.16.51-.19 1.07-.06 1.6.53 2.22 1.54 5.59 3.34 9.06.26.49.64.9 1.11 1.18.02.54.18 1.08.48 1.55 1.41 2.18 3.03 4.07 4.82 5.64a3 3 0 0 0 1.53.71c.23.52.61.97 1.1 1.28 1.93 1.26 4.09 2.22 6.4 2.87.27.07.54.11.81.11.29 0 .58-.04.85-.12.42.36.94.61 1.51.69 1.55.24 3.14.35 4.74.35.8 0 1.66-.04 2.72-.11.48-.04.94-.19 1.35-.43.36.17.75.28 1.16.3 1.54.07 2.98.63 4.16 1.61.28.23.6.41.93.52.08.34.22.67.43.97a6.89 6.89 0 0 1 1.16 3.18c.04.37.05.77.02 1.21-.02.36.02.72.12 1.05-.23.26-.41.57-.54.91a7.132 7.132 0 0 1-2.72 3.45c-.3.2-.56.45-.77.74h-.16c-.29 0-.59.04-.88.13-.44.14-.89.23-1.32.28-1.34.14-2.78.24-4.41.28-.5.01-.96.15-1.37.37-.4-.22-.86-.34-1.34-.36-2.19-.06-4.35-.27-6.41-.63a3.23 3.23 0 0 0-1.4.09c-.34-.29-.76-.51-1.23-.62a37.92 37.92 0 0 1-5.61-1.84 2.95 2.95 0 0 0-1.15-.23c-.07 0-.14 0-.21.01-.27-.36-.62-.67-1.05-.88-1.72-.87-3.39-1.89-4.96-3.03-.38-.28-.81-.45-1.25-.53a3.01 3.01 0 0 0-.83-1.12 37.863 37.863 0 0 1-4.05-3.97c-.32-.37-.72-.63-1.14-.8a3.06 3.06 0 0 0-.57-1.26 44.928 44.928 0 0 1-3.4-5.08 2.97 2.97 0 0 0-.97-1.02c0-.46-.1-.92-.33-1.35-.94-1.84-1.77-3.77-2.48-5.71-.15-.4-.28-.79-.42-1.18-.16-.47-.42-.87-.76-1.19.09-.46.08-.94-.06-1.41-.76-2.64-1.19-4.82-1.41-6.18-.08-.46-.25-.87-.5-1.23.15-.36.23-.75.22-1.16-.01-1.23.32-2.46.95-3.55.19-.32.31-.66.36-1.01a3 3 0 0 0 .89-.59 7.018 7.018 0 0 1 4.07-1.9c.36-.03.7-.14 1.01-.29M23.87 56.56c-.77 0-1.41.61-1.44 1.39l-.15 4.65c-2.21.25-4.23 1.2-5.81 2.71l-3.66-2.89c-.26-.21-.58-.31-.89-.31a1.44 1.44 0 0 0-.89 2.57l3.66 2.89a9.92 9.92 0 0 0-1.36 5.08l-4.59.58c-.79.1-1.34.82-1.24 1.61.09.73.71 1.26 1.42 1.26.06 0 .12 0 .18-.01l4.54-.58c.25 1.5.7 3.79 1.49 6.52L10.8 83.4a1.43 1.43 0 0 0-.94 1.8c.19.61.76 1.01 1.37 1.01.14 0 .29-.02.43-.07l4.36-1.37c.14.41.29.82.44 1.24.77 2.1 1.65 4.11 2.63 6.04l-4.02 2.18a1.436 1.436 0 0 0 1.36 2.53l4.03-2.19c1.11 1.92 2.32 3.72 3.63 5.41l-3.54 2.92c-.61.51-.7 1.41-.19 2.02a1.432 1.432 0 0 0 2.02.19l3.54-2.93c1.37 1.55 2.83 2.98 4.37 4.28l-2.83 3.62c-.49.62-.38 1.53.25 2.02a1.425 1.425 0 0 0 2.01-.24l2.82-3.61a40.48 40.48 0 0 0 5.36 3.28l-1.9 4.16c-.33.72-.02 1.57.7 1.91.19.09.4.13.6.13.54 0 1.06-.31 1.31-.84l1.92-4.17c1.94.81 3.96 1.48 6.06 1.99l-.93 4.48a1.438 1.438 0 0 0 1.41 1.73c.67 0 1.26-.47 1.41-1.15l.93-4.49c2.21.38 4.49.61 6.84.67v4.58a1.44 1.44 0 0 0 2.88 0v-4.59c1.52-.04 3.07-.13 4.64-.3.65-.07 1.28-.21 1.89-.39l2 4.21c.25.52.76.82 1.3.82.21 0 .42-.04.62-.14.72-.34 1.02-1.2.68-1.91l-2-4.21c1.77-1.18 3.13-2.91 3.87-4.91l4.56.97a1.43 1.43 0 0 0 1.7-1.11c.16-.78-.33-1.54-1.11-1.7l-4.56-.97c.04-.57.04-1.14-.03-1.73-.18-1.68-.77-3.21-1.65-4.53l3.46-3.12c.59-.53.63-1.44.1-2.03-.28-.31-.67-.47-1.07-.47-.34 0-.69.12-.96.37l-3.46 3.13a10.052 10.052 0 0 0-5.93-2.3l-.44-4.64c-.07-.74-.7-1.3-1.43-1.3-.05 0-.09 0-.14.01-.79.08-1.37.78-1.29 1.57l.43 4.51c-.85.06-1.69.11-2.5.11-1.5 0-2.92-.11-4.28-.32l.94-4.4a1.424 1.424 0 0 0-1.41-1.73c-.66 0-1.26.46-1.4 1.14l-.94 4.39c-2.02-.57-3.88-1.4-5.57-2.5l2.71-3.58c.48-.63.36-1.53-.28-2.01-.26-.2-.56-.29-.87-.29-.43 0-.86.2-1.15.57l-2.71 3.58c-1.58-1.39-3.01-3.05-4.27-5.01l3.9-2.27c.69-.4.92-1.28.52-1.96a1.443 1.443 0 0 0-1.96-.53l-3.9 2.27c-1.62-3.11-2.56-6.16-3.09-8.37l4.43-.87a1.43 1.43 0 0 0 1.13-1.69c-.13-.68-.74-1.16-1.41-1.16-.09 0-.19.01-.28.03l-4.43.87c-.04-.28-.06-.46-.07-.5-.13-1.24-.49-2.4-1.02-3.46l3.82-2.67c.65-.46.81-1.35.35-2a1.438 1.438 0 0 0-2-.35l-3.81 2.67c-1.46-1.55-3.4-2.63-5.58-3.01l.15-4.65c.03-.79-.6-1.46-1.39-1.48-.03-.03-.05-.03-.07-.03z" fill="#424242" opacity=".2"/><path d="M51.19 31.75c.2.08.42.12.65.13.19.01.38.02.59.04.07.01.13.01.2.01.19 0 .37-.03.55-.08.2.14.44.24.69.3.4.09.81.2 1.23.33.2.06.4.09.6.09.06 0 .11 0 .17-.01.18.18.4.33.65.44.61.25 1.23.55 1.84.87.24.13.5.21.76.23.15.22.34.4.58.55.81.51 1.63 1.09 2.44 1.74.22.18.47.3.72.37.11.24.27.46.48.65 1.03.92 2.04 1.94 3 3.03.19.22.42.38.66.5.07.27.2.52.37.73 1.15 1.42 2.28 3.04 3.36 4.81.15.25.35.45.58.61.03.28.11.55.26.8.57.99 1.07 1.91 1.52 2.8.09.18.18.34.26.51l.15.3c.14.27.33.5.56.67.01.29.09.58.23.85.49.92.96 1.79 1.4 2.57.15.26.36.49.6.66.03.29.12.58.28.85l.05.09.1.17c.04.07.09.13.13.19l1.3 1.65c.19.24.42.42.67.55.07.28.19.55.38.78l1.69 2.15c.19.24.42.42.67.55.07.28.19.55.38.78l1.51 1.92.04.06.1.14c.13.18.28.33.45.46.02.21.06.42.15.62.25.6.39 1.25.41 1.91.01.22.05.44.12.63-.1.18-.18.38-.22.6-.13.64-.37 1.24-.72 1.8-.12.19-.2.39-.25.59-.19.09-.36.22-.51.37a5.196 5.196 0 0 1-1.72 1.14c-.21.09-.39.2-.55.34-.1-.01-.2-.02-.3-.02-.11 0-.22.01-.33.03-.29.05-.58.07-.87.07-.35 0-.7-.03-1.05-.1-.13-.02-.25-.04-.38-.04-.09 0-.18.01-.26.02-.15-.14-.33-.26-.53-.35a5.37 5.37 0 0 1-1.64-1.14c-.17-.17-.37-.31-.57-.41-.07-.26-.19-.5-.36-.72l-1.69-2.15c-.19-.24-.42-.42-.67-.55-.07-.28-.19-.55-.38-.78l-1.69-2.15c-.19-.24-.43-.43-.7-.57-.12-.46-.4-.87-.8-1.15-.28-.2-1.78-1.24-3.42-2.49-.23-.18-.49-.3-.77-.36-.13-.25-.31-.47-.53-.65-.75-.6-1.39-1.15-1.9-1.62-.2-.19-.44-.33-.68-.41-.1-.26-.25-.5-.45-.71-.82-.83-1.51-1.57-2.12-2.25a2 2 0 0 0-.67-.49c-.07-.26-.21-.52-.39-.74a47.56 47.56 0 0 1-3.46-4.67c-.15-.24-.35-.44-.58-.59a2 2 0 0 0-.26-.78c-.72-1.22-1.34-2.45-1.85-3.64-.11-.25-.27-.48-.47-.67.02-.26-.02-.54-.12-.8-.32-.87-.58-1.74-.78-2.57-.06-.26-.18-.51-.34-.72.06-.25.07-.52.03-.79-.09-.55-.16-1.1-.2-1.64-.02-.27-.09-.52-.21-.75.1-.23.16-.49.16-.75.01-.39.02-.71.05-.99.02-.26-.01-.51-.08-.75.14-.21.24-.44.29-.69.04-.19.09-.38.14-.56.06-.23.09-.47.07-.7.16-.15.29-.32.39-.51.04-.08.08-.15.13-.22.02-.03.04-.06.06-.1.04-.01.07-.01.11-.02.17-.04.35-.11.51-.2M53.68 25.8c-.44 0-.81.34-.84.79l-.21 3.34c-.25-.02-.49-.04-.72-.05l-.6-3.22a.844.844 0 0 0-.83-.69c-.05 0-.1 0-.16.01-.46.08-.76.53-.67.98l.56 3.04h-.01l-1.69-2.66a.842.842 0 0 0-1.16-.26c-.39.25-.51.77-.26 1.17l1.73 2.72c-.07.11-.14.23-.21.37l-2.67-1.77a.808.808 0 0 0-.47-.14c-.27 0-.54.13-.7.38-.26.39-.15.91.24 1.17l2.98 1.98c-.06.21-.12.44-.17.68l-3.54-1.09a.727.727 0 0 0-.25-.04c-.36 0-.69.23-.81.6-.14.45.11.92.56 1.05l3.79 1.16c-.03.36-.05.74-.05 1.13l-4.07-.06h-.01c-.46 0-.84.37-.84.83-.01.47.36.85.83.86l4.14.06c.04.58.12 1.19.22 1.82l-4.01.98c-.45.11-.73.57-.62 1.02.09.39.44.64.82.64.07 0 .13-.01.2-.02l3.95-.96c.21.89.49 1.82.85 2.78l-3.49 1.69a.847.847 0 0 0 .37 1.61c.12 0 .25-.03.37-.09l3.38-1.64c.53 1.23 1.18 2.52 1.96 3.86l-2.79 1.99c-.38.27-.47.8-.2 1.18.16.23.42.35.69.35.17 0 .34-.05.49-.16l2.69-1.92c1.01 1.57 2.2 3.19 3.61 4.87l-2.18 2.03a.84.84 0 0 0-.04 1.19c.17.18.39.27.62.27.21 0 .41-.07.58-.23l2.13-1.99c.68.76 1.42 1.54 2.19 2.33l-2 2.01c-.33.33-.33.87 0 1.19a.832.832 0 0 0 1.19 0l2-2.02c.59.55 1.29 1.13 2 1.71l-2.07 2.19c-.32.34-.3.87.03 1.19a.848.848 0 0 0 1.19-.03l2.18-2.3c1.64 1.25 3.13 2.29 3.5 2.55l-2.85 2.24a.844.844 0 0 0 1.04 1.33l2.87-2.26 1.69 2.15-2.87 2.26a.844.844 0 0 0 1.04 1.33l2.87-2.26 1.69 2.15-2.87 2.26c-.37.29-.43.82-.14 1.18a.843.843 0 0 0 1.18.14l2.91-2.29c.66.67 1.43 1.2 2.26 1.56l-1.11 3.54a.85.85 0 0 0 .8 1.1c.36 0 .69-.23.81-.59l1.11-3.54c.47.09.95.14 1.43.14.4 0 .81-.03 1.21-.1l1.03 3.56c.11.37.44.61.81.61.08 0 .16-.01.24-.03.45-.13.71-.6.58-1.05l-1.03-3.57a7.179 7.179 0 0 0 2.35-1.57l2.89 2.32c.16.13.34.19.53.19.25 0 .49-.11.66-.31.29-.36.23-.89-.13-1.19l-2.89-2.33c.48-.76.82-1.6.99-2.47l3.7.32h.07a.84.84 0 0 0 .07-1.68l-3.7-.32a7.46 7.46 0 0 0-.56-2.62l3.24-1.81a.84.84 0 0 0 .32-1.15.829.829 0 0 0-.74-.43c-.14 0-.28.03-.41.11l-3.24 1.81c-.06-.09-.12-.18-.19-.27l-1.52-1.93 2.87-2.26c.37-.29.43-.82.14-1.18a.843.843 0 0 0-1.18-.14l-2.87 2.26-1.69-2.15 2.87-2.26c.37-.29.43-.82.14-1.18a.843.843 0 0 0-1.18-.14l-2.87 2.26-1.3-1.65c-.05-.08-.1-.17-.15-.25l3.08-1.98a.84.84 0 0 0 .25-1.17.842.842 0 0 0-1.16-.26l-3.02 1.94c-.44-.77-.89-1.6-1.37-2.51l2.88-1.77c.4-.24.52-.76.28-1.16a.845.845 0 0 0-.72-.4c-.15 0-.3.04-.44.12l-2.78 1.7c-.14-.27-.27-.52-.41-.8-.51-1.02-1.04-1.98-1.57-2.9l2.84-1.57c.41-.23.56-.74.33-1.15a.838.838 0 0 0-1.15-.33l-2.89 1.6a48.166 48.166 0 0 0-3.51-5.02l2.76-2.15c.37-.29.43-.82.15-1.18a.873.873 0 0 0-.67-.33c-.18 0-.36.06-.52.18l-2.81 2.19a35.77 35.77 0 0 0-3.17-3.21l2.46-2.78a.84.84 0 0 0-.63-1.4c-.23 0-.47.1-.63.28l-2.49 2.81c-.89-.71-1.77-1.34-2.63-1.87l1.87-3.3a.84.84 0 0 0-.32-1.15.877.877 0 0 0-.42-.11c-.29 0-.58.15-.73.43l-1.87 3.28c-.7-.37-1.37-.69-2.02-.96l1.07-3.55a.845.845 0 0 0-.56-1.05c-.08-.02-.16-.04-.24-.04-.36 0-.7.24-.81.6l-1.05 3.46c-.48-.15-.95-.28-1.39-.38l.22-3.5a.843.843 0 0 0-.79-.9c-.01.02-.03.02-.04.02zM105.27 75.49c.17 0 .34.01.52.02.23.01.47.05.7.08.09.01.19.02.28.02.11 0 .22-.01.32-.03.17.11.35.19.55.25.96.28 1.86.72 2.68 1.31.16.12.34.21.53.27.09.17.21.32.36.46.37.36.72.74 1.01 1.15.09.13.2.24.32.34.04.15.11.29.19.43.45.77.77 1.61.96 2.51.04.18.1.35.18.51-.03.18-.04.36-.03.55.04.5.05.92.03 1.3-.05.8-.22 1.61-.51 2.41-.06.16-.09.32-.11.48-.1.12-.19.26-.26.4-.44.89-1.03 1.69-1.75 2.39-.13.12-.23.26-.32.41-.16.08-.32.18-.46.31-.71.64-1.36 1.37-2.07 2.33-.27.37-.5.73-.72 1.08-.12.18-.2.38-.25.59-.15.14-.28.31-.39.49l-.1.18c-.08.14-.16.28-.23.42-.42.81-.8 1.68-1.12 2.6-.07.21-.11.43-.11.65-.13.19-.23.4-.29.63-.25.94-.39 1.8-.43 2.65-.01.3-.04.61-.09.95-.03.17-.03.35-.01.52-.09.15-.17.32-.22.5a8.675 8.675 0 0 1-1.34 2.79c-.07.1-.14.21-.19.32-.1.08-.2.17-.28.27-.43.5-.93.95-1.46 1.34-.13.09-.24.2-.35.32-.15.04-.3.11-.44.19-.8.46-1.66.79-2.57.97-.18.04-.35.1-.51.18-.12-.02-.24-.03-.37-.03-.05 0-.11 0-.16.01-.3.02-.56.04-.8.04-.1 0-.19 0-.29-.01-.23-.01-.47-.04-.71-.07a1.655 1.655 0 0 0-.57.01c-.16-.09-.33-.16-.51-.21-.92-.23-1.8-.62-2.62-1.17-.16-.1-.33-.18-.5-.24-.1-.15-.22-.29-.37-.41a8.868 8.868 0 0 1-2.29-3.01c-.08-.18-.19-.35-.33-.5 0-.2-.03-.4-.09-.6-.29-.96-.42-1.94-.38-2.92.03-.63.12-1.27.29-1.88.06-.21.08-.41.07-.62.15-.16.27-.35.35-.55.37-.86.88-1.66 1.5-2.37.17-.19.3-.41.38-.64.23-.08.44-.19.63-.35.03-.03.07-.05.1-.08.67-.54 1.29-1.17 1.9-1.94.16-.2.28-.43.35-.66.19-.13.35-.3.49-.5.29-.43.52-.79.72-1.14.12-.21.2-.45.24-.69.18-.16.33-.37.45-.6.4-.81.75-1.66 1.05-2.53.08-.25.12-.5.11-.74.15-.2.26-.44.32-.69.22-.86.34-1.61.39-2.36.02-.3.06-.62.12-.96.03-.17.04-.33.02-.5.09-.15.16-.3.21-.47.25-.84.63-1.64 1.13-2.38.11-.16.19-.32.24-.5.15-.1.29-.22.42-.36.84-.95 1.9-1.72 3.05-2.23.17-.07.33-.17.47-.28.18 0 .37-.03.55-.08.8-.21 1.62-.33 2.42-.33m5.2-10.28c-.62.58-1.14 1.27-1.63 1.97-.24.36-.47.7-.69 1.1-.21.4-.37.81-.51 1.22-.28.83-.47 1.68-.63 2.53-.09.52-.17 1.04-.24 1.57-.29-.04-.57-.08-.86-.1-.22-.01-.43-.02-.64-.02-1.03 0-2.04.16-2.99.43-.12-.29-.25-.58-.34-.87-.23-.73-.38-1.48-.33-2.22.01-.19.04-.36.08-.55l.14-.59c.1-.39.21-.78.32-1.17.23-.78.49-1.55.79-2.31-.42.7-.8 1.43-1.16 2.16-.18.37-.35.74-.51 1.12l-.24.57c-.08.2-.15.42-.2.63-.2.87-.17 1.76-.04 2.61.06.36.14.71.23 1.05a10.68 10.68 0 0 0-3.76 2.74c-.05-.08-.11-.16-.16-.24-.48-.74-.94-1.5-1.26-2.29-.33-.75-.28-1.65-.14-2.52.15-.87.41-1.74.75-2.57-.44.78-.82 1.61-1.09 2.49-.14.44-.24.89-.29 1.36-.05.46-.03.98.09 1.45.22.93.58 1.78.94 2.62.11.25.23.5.35.75-.6.89-1.08 1.87-1.39 2.93-.04-.01-.08-.03-.12-.04-.84-.32-1.66-.68-2.41-1.15-.37-.23-.72-.5-1-.81-.26-.32-.52-.72-.73-1.11-.42-.79-.74-1.67-.84-2.59-.03.93.16 1.86.48 2.75.17.45.35.87.62 1.3.28.42.64.77 1 1.08.74.62 1.55 1.12 2.38 1.58.11.06.22.11.33.17-.07.39-.12.78-.14 1.19-.04.7-.17 1.35-.33 1.99-.28-.1-.57-.19-.85-.31-.78-.33-1.53-.75-2.21-1.26s-1.3-1.12-1.82-1.82-.94-1.48-1.23-2.32c.17.87.47 1.73.9 2.53s.99 1.54 1.64 2.19c.65.66 1.39 1.23 2.18 1.71.32.2.66.37 1 .54-.27.79-.59 1.56-.95 2.3a24.278 24.278 0 0 1-3.5-1.53c-.8-.43-1.59-.91-2.34-1.44s-1.48-1.1-2.11-1.78c.53.76 1.19 1.44 1.86 2.09.69.64 1.41 1.24 2.17 1.8.77.56 1.56 1.06 2.38 1.54.3.17.6.33.91.5-.2.35-.42.69-.64 1.02-.32-.2-.63-.41-.96-.58-.96-.5-1.99-.86-3.05-1.04-.47-.09-.94-.14-1.42-.14-.6 0-1.19.07-1.76.2-1.02.24-2 .66-2.85 1.24.91-.48 1.91-.78 2.91-.9.3-.04.59-.05.89-.05.71 0 1.4.1 2.06.32.95.31 1.83.77 2.63 1.34.28.2.54.43.8.66-.47.59-.99 1.15-1.63 1.66-.02.02-.04.04-.07.06-.1-.02-.19-.03-.29-.05-.2-.03-.4-.05-.59-.06-.2-.01-.39-.02-.58-.02s-.39.01-.58.02c-.77.05-1.52.19-2.24.4-1.44.43-2.74 1.16-3.88 2.05 1.28-.67 2.65-1.13 4.04-1.28a8.893 8.893 0 0 1 2.05 0c.28.03.56.09.83.15-.76.86-1.38 1.83-1.84 2.9-.39.1-.77.22-1.15.35-.74.26-1.45.58-2.13.96-1.35.76-2.55 1.85-3.23 3.19.91-1.21 2.2-2 3.56-2.49.68-.25 1.39-.42 2.09-.54.11-.02.23-.03.34-.04-.2.74-.32 1.52-.36 2.32-.05 1.25.12 2.45.47 3.58-.44.38-.87.77-1.27 1.2-.63.67-1.2 1.39-1.68 2.17-.24.39-.46.79-.66 1.2-.19.42-.35.82-.52 1.24-.16.41-.32.83-.45 1.26-.07.21-.13.43-.18.64-.02.11-.05.22-.06.33s-.03.23.03.33c-.05-.1-.01-.21.01-.32.03-.11.06-.21.1-.31.08-.2.17-.4.27-.6.19-.39.4-.78.62-1.16s.44-.77.68-1.12c.24-.36.5-.7.78-1.02.56-.65 1.18-1.24 1.85-1.77.31-.25.64-.49.98-.71a10.77 10.77 0 0 0 2.81 3.7c-.13.18-.26.36-.4.52-.42.51-.89.98-1.42 1.36-.26.19-.54.35-.84.48-.31.14-.63.25-.96.34-.41.11-.84.19-1.27.19-.25 0-.51-.03-.76-.1.5.26 1.08.34 1.65.34.15 0 .3-.01.44-.01.36-.03.72-.08 1.07-.16.37-.08.73-.21 1.06-.37.68-.32 1.29-.76 1.85-1.23.22-.18.42-.38.62-.57.98.64 2.06 1.14 3.23 1.43-.07.27-.14.55-.21.81-.22.76-.47 1.51-.78 2.24-.3.73-.69 1.42-1.14 2.08-.23.33-.47.64-.75.93-.28.28-.58.57-.97.67.41-.04.77-.28 1.1-.52.33-.25.63-.53.92-.83.57-.59 1.09-1.25 1.53-1.96a22.008 22.008 0 0 0 1.63-3.18c.29.04.57.07.87.08.13.01.25.01.37.01.32 0 .64-.02.96-.04.02.17.05.33.07.5.06.6.09 1.21.07 1.82-.04 1.22-.25 2.46-.7 3.64.68-1.06 1.17-2.27 1.48-3.53.15-.63.26-1.27.33-1.93.02-.23.03-.46.05-.69 1.13-.23 2.19-.64 3.17-1.2.17.46.33.92.45 1.4.33 1.3.46 2.68.31 4.06.41-1.33.56-2.75.47-4.18-.04-.64-.13-1.27-.26-1.9.66-.48 1.26-1.03 1.8-1.65.43 1.06.69 2.19.64 3.38.32-1.24.27-2.59 0-3.88l-.06-.22c.74-1.02 1.3-2.18 1.65-3.43.11.13.22.25.33.38.43.53.84 1.08 1.21 1.66s.7 1.19.92 1.85c-.09-.69-.31-1.37-.57-2.02-.26-.66-.57-1.29-.9-1.92-.22-.41-.46-.8-.7-1.2.06-.38.1-.77.12-1.16.03-.78.17-1.51.36-2.22.77.37 1.52.76 2.25 1.19.77.46 1.52.95 2.21 1.52s1.34 1.21 1.8 2c-.35-.84-.91-1.6-1.53-2.28s-1.32-1.3-2.04-1.88-1.47-1.12-2.25-1.63l-.09-.06c.28-.81.61-1.59 1-2.34.1-.19.21-.37.31-.55.66.59 1.43 1.06 2.23 1.35.9.35 1.82.58 2.75.76.93.17 1.86.3 2.79.35-.92-.17-1.82-.41-2.71-.7-.88-.29-1.74-.63-2.54-1.06-.8-.42-1.44-1-1.95-1.69.21-.33.42-.66.65-.98.52-.71 1.09-1.39 1.78-2.01.02.01.05.03.07.05.42.24.87.42 1.34.53.23.05.47.09.7.1l.65.05c1.73.13 3.46.22 5.18.3-1.7-.31-3.4-.63-5.09-.98l-.63-.13c-.19-.05-.38-.11-.56-.19-.3-.13-.58-.3-.84-.5.87-.84 1.6-1.83 2.15-2.94.59-.11 1.17-.25 1.73-.48.72-.3 1.4-.66 2.07-1.04.66-.39 1.3-.8 1.91-1.25-.68.34-1.37.63-2.08.9-.7.26-1.42.49-2.13.65-.34.07-.68.12-1.03.15.34-.94.57-1.93.63-2.97.03-.54.01-1.08-.03-1.6.36-.09.72-.21 1.05-.36.79-.37 1.45-.89 2.03-1.47.58-.57 1.08-1.22 1.45-1.93s.64-1.48.7-2.26c-.17.77-.55 1.46-1 2.07-.46.61-1.01 1.14-1.62 1.59-.61.44-1.28.77-1.96.95-.28.07-.56.11-.84.13-.24-1.1-.64-2.15-1.19-3.1.53-.34 1.04-.69 1.53-1.07 1.09-.87 2.08-1.87 2.82-3.02-.95.99-2.06 1.75-3.24 2.37-.56.29-1.14.55-1.73.78-.37-.51-.79-.98-1.25-1.42.02-.02.05-.04.07-.07.28-.32.53-.65.75-.99.45-.68.81-1.4 1.11-2.13.6-1.46.95-2.99 1.17-4.51-.47 1.46-1.07 2.88-1.87 4.15-.4.63-.84 1.23-1.34 1.76-.25.26-.51.51-.78.73l-.21.15c-.98-.72-2.1-1.27-3.3-1.62-.02-.58-.03-1.17-.01-1.75.02-.83.08-1.66.22-2.46.07-.4.16-.8.29-1.18.13-.37.32-.77.49-1.14.41-.73.81-1.48 1.33-2.15zm10.02 20.86z" fill="#424242" opacity=".2"/></svg>