<svg viewBox="0 0 128 128" width="128" height="128" xmlns="http://www.w3.org/2000/svg"><linearGradient id="a" x1="-226.5" x2="-226.5" y1="-223.06" y2="-223.06" gradientUnits="userSpaceOnUse"><stop stop-color="#D5ECFD" offset="0"/><stop stop-color="#A9C9E3" offset="1"/></linearGradient><linearGradient id="b" x1="63.694" x2="63.694" y1="32.958" y2="86.513" gradientTransform="rotate(180 63.715 65.095)" gradientUnits="userSpaceOnUse"><stop offset="0"/><stop stop-color="#030303" offset=".234"/><stop stop-color="#0E0E0E" offset=".436"/><stop stop-color="#202020" offset=".626"/><stop stop-color="#393939" offset=".809"/><stop stop-color="#595959" offset=".986"/><stop stop-color="#5C5C5C" offset="1"/></linearGradient><path d="M63.71 40.19c7.13 0 1.62 57.14 0 57.14-1.47 0-7.12-57.14 0-57.14z" fill="url(#b)"/><path d="M62.58 28.6l1-22.93 1 22.93z"/><radialGradient id="c" cx="61.414" cy="27.922" r="5.19" gradientUnits="userSpaceOnUse"><stop stop-color="#8F8F8F" offset="0"/><stop offset="1"/></radialGradient><ellipse cx="63.7" cy="30.49" rx="4.9" ry="4.08" fill="url(#c)"/><path d="M69.56 39.58c0 4.1-2.62 12.09-5.85 12.09s-5.85-7.99-5.85-12.09 2.62-7.42 5.85-7.42 5.85 3.32 5.85 7.42z"/><path d="M30.53 3.9c1.6.96 3.04 2.08 4.41 3.26a51.26 51.26 0 0 1 3.93 3.73c1.23 1.32 2.24 2.84 3.3 4.33a26.64 26.64 0 0 0 3.56 4.08l.1.1.03.18c.31 1.85.83 3.67 1.29 5.5.22.92.41 1.83.58 2.76l.49 2.77-.74-1.12c1.28.66 2.56 1.31 3.79 2.05 1.23.73 2.44 1.51 3.63 2.32 1.2.8 2.36 1.65 3.51 2.53 1.14.89 2.27 1.81 3.34 2.83l-.15.26c-1.42-.4-2.78-.92-4.13-1.45-1.34-.55-2.67-1.12-3.96-1.75-1.3-.61-2.59-1.26-3.84-1.96-1.26-.69-2.47-1.47-3.68-2.23l-.7-.44-.05-.68-.19-2.8c-.06-.94-.1-1.87-.1-2.82 0-1.89.07-3.78-.07-5.65l.13.28a26.133 26.133 0 0 0-3.92-3.73c-1.44-1.12-2.91-2.2-4.17-3.49-1.25-1.3-2.44-2.66-3.55-4.09s-2.17-2.91-3.06-4.56l.22-.21zM61.87 40.69c-1.69 1.21-3.46 2.25-5.24 3.26-1.79.99-3.59 1.95-5.43 2.82l.58-.51a49.992 49.992 0 0 1-4.35 6.65c-1.62 2.12-3.24 4.23-4.6 6.5-1.39 2.26-2.58 4.63-3.73 7.02-1.14 2.41-2.36 4.76-3.67 7.06l-.07.13-.17.17c-1.56 1.57-3.12 3.14-4.73 4.66s-3.27 2.98-4.96 4.41-3.41 2.83-5.17 4.18-3.55 2.68-5.43 3.9l-.2-.22c1.36-1.79 2.8-3.48 4.28-5.14 1.47-1.66 3-3.27 4.54-4.86s3.12-3.14 4.75-4.63c1.64-1.49 3.31-2.93 4.99-4.38l-.25.3c1.44-2.22 2.95-4.4 4.56-6.53 1.59-2.13 3.13-4.29 4.49-6.57 1.38-2.26 2.49-4.68 3.62-7.09 1.12-2.42 2.4-4.73 3.87-6.94l.25-.37.33-.14c1.87-.8 3.78-1.53 5.71-2.21 1.93-.67 3.89-1.3 5.91-1.77l.12.3zM63.29 45.81c-.97 1.9-2.04 3.73-3.15 5.53s-2.26 3.57-3.44 5.31c-1.2 1.73-2.38 3.48-3.66 5.15-1.27 1.68-2.62 3.3-4.03 4.89l.17-.75c.15 1.67.29 3.34.49 5s.46 3.31.76 4.95c.6 3.28 1.44 6.52 2.28 9.76l.05.18-.09.33c-.86 3.09-1.87 6.13-2.89 9.17a262.6 262.6 0 0 1-3.18 9.06l-1.77 4.46c-.63 1.47-1.22 2.96-1.87 4.42-1.27 2.94-2.61 5.86-4.07 8.73l-.06.11-.01.01c-.62.66-1.25 1.33-1.9 1.97l-.24-.18c.44-.81.9-1.59 1.36-2.38l-.07.12c.76-3.13 1.65-6.21 2.59-9.28.46-1.54.97-3.05 1.46-4.58l1.56-4.54c1.1-3.01 2.27-5.98 3.48-8.95 1.2-2.97 2.41-5.93 3.77-8.84l-.05.51c-.34-3.33-.67-6.66-1.26-9.94-.28-1.64-.62-3.28-1-4.9-.39-1.62-.84-3.24-1.27-4.86l-.09-.32.26-.43c1.09-1.81 2.23-3.59 3.45-5.31 1.21-1.72 2.52-3.37 3.81-5.04 1.31-1.65 2.65-3.28 4.03-4.88 1.39-1.6 2.81-3.17 4.32-4.67l.26.19zM96.57 4.1c-.89 1.64-1.95 3.13-3.06 4.56s-2.3 2.79-3.55 4.09c-1.26 1.29-2.74 2.37-4.17 3.49a27.152 27.152 0 0 0-3.92 3.73l.13-.28c-.14 1.87-.07 3.76-.07 5.65 0 .94-.04 1.88-.1 2.82l-.19 2.8-.05.68-.7.44c-1.21.77-2.42 1.55-3.68 2.23a76.95 76.95 0 0 1-3.84 1.96c-1.3.63-2.62 1.2-3.96 1.75-1.35.54-2.71 1.05-4.13 1.45l-.15-.26c1.07-1.02 2.2-1.94 3.34-2.83 1.15-.88 2.32-1.73 3.51-2.53 1.19-.81 2.4-1.59 3.63-2.32 1.23-.74 2.51-1.39 3.79-2.05l-.74 1.12.49-2.77c.17-.92.36-1.84.58-2.76.46-1.83.98-3.65 1.29-5.5l.03-.18.1-.1c1.31-1.24 2.51-2.59 3.56-4.08 1.06-1.48 2.07-3.01 3.3-4.33 1.24-1.31 2.54-2.55 3.93-3.73 1.38-1.18 2.81-2.3 4.41-3.26l.22.21zM65.13 40.42c2.02.47 3.97 1.1 5.91 1.77 1.93.68 3.84 1.41 5.71 2.21l.33.14.25.37c1.47 2.2 2.76 4.52 3.87 6.94 1.12 2.41 2.24 4.83 3.62 7.09 1.36 2.27 2.9 4.43 4.49 6.57 1.6 2.12 3.12 4.3 4.56 6.53l-.25-.3c1.68 1.45 3.35 2.89 4.99 4.38 1.63 1.49 3.21 3.04 4.75 4.63s3.07 3.19 4.54 4.86c1.48 1.66 2.93 3.35 4.28 5.14l-.2.22c-1.88-1.22-3.67-2.55-5.43-3.9-1.77-1.35-3.48-2.76-5.17-4.18-1.69-1.43-3.36-2.89-4.96-4.41s-3.16-3.09-4.73-4.66l-.17-.17-.07-.13c-1.3-2.31-2.53-4.66-3.67-7.06-1.15-2.4-2.35-4.77-3.73-7.02-1.36-2.27-2.99-4.38-4.6-6.5a51.683 51.683 0 0 1-4.35-6.65l.58.51c-1.84-.87-3.65-1.83-5.43-2.82-1.78-1.01-3.54-2.05-5.24-3.26l.12-.3zM63.83 45.63c1.52 1.5 2.94 3.07 4.32 4.67s2.72 3.23 4.03 4.88c1.29 1.67 2.6 3.32 3.81 5.04 1.22 1.71 2.36 3.49 3.45 5.31l.26.43-.09.32c-.44 1.62-.88 3.23-1.27 4.86s-.72 3.26-1 4.9c-.58 3.29-.92 6.61-1.26 9.94l-.05-.51c1.36 2.91 2.57 5.87 3.77 8.84 1.21 2.96 2.38 5.94 3.48 8.95l1.56 4.54c.48 1.53 1 3.04 1.46 4.58.95 3.06 1.83 6.15 2.59 9.28l-.07-.12c.46.78.93 1.57 1.36 2.38l-.24.18c-.65-.64-1.28-1.31-1.9-1.97l-.01-.01-.06-.11c-1.46-2.87-2.79-5.79-4.07-8.73-.65-1.47-1.25-2.95-1.87-4.42l-1.77-4.46c-1.12-3-2.17-6.02-3.18-9.06-1.02-3.03-2.03-6.07-2.89-9.17l-.09-.33.05-.18c.84-3.24 1.68-6.48 2.28-9.76.31-1.64.56-3.29.76-4.95s.34-3.33.49-5l.17.75c-1.4-1.58-2.76-3.2-4.03-4.89-1.28-1.67-2.46-3.42-3.66-5.15-1.18-1.75-2.34-3.51-3.44-5.31-1.11-1.8-2.18-3.63-3.15-5.53l.26-.19z"/><linearGradient id="d" x1="15.113" x2="64.369" y1="41.435" y2="41.435" gradientUnits="userSpaceOnUse"><stop stop-color="#5C5C5C" offset="0"/><stop offset="1"/></linearGradient><path d="M63.31 41.86s-25.69-6.12-37.37-6.93-11.28 3.13-10.46 5.84 17.67 10.6 41.18 5.71c-.01 0 11.13-.81 6.65-4.62z" fill="url(#d)"/><linearGradient id="e" x1="63.954" x2="113.21" y1="41.435" y2="41.435" gradientUnits="userSpaceOnUse"><stop offset="0"/><stop stop-color="#5C5C5C" offset="1"/></linearGradient><path d="M65.02 41.86s25.69-6.12 37.37-6.93 11.28 3.13 10.46 5.84c-.82 2.72-17.67 10.6-41.18 5.71.01 0-11.14-.81-6.65-4.62z" fill="url(#e)"/><circle cx="59.25" cy="28.13" r="3.25" fill="#fff" stroke="#999" stroke-miterlimit="10" stroke-width=".667"/><circle cx="59.25" cy="28.13" r="1.48"/><circle cx="68.25" cy="28.13" r="3.25" fill="#fff" stroke="#999" stroke-miterlimit="10" stroke-width=".667"/><circle cx="68.25" cy="28.13" r="1.48"/><path d="M63.63 28.37l.63.09c1.36.18 2.38 1.06 2.38 2.03 0 .68-.5 1.17-.8 1.4l-1.92 1.49 1.83 1.6c.54.47 1 1.12 1.32 1.88l.29.69.13.79c.07.41.11.83.11 1.24 0 .27-.02.62-.06 1.05l-.28 2.76 2.71-.61c6.91-1.56 23.9-5.25 32.6-5.86.99-.07 1.92-.1 2.76-.1 4.45 0 5.52.97 5.74 1.27.26.35.24.96-.05 1.98-1.18 1.51-10.33 5.97-24.37 5.97-2.43 0-4.92-.13-7.39-.4l-2.32-.25-.02-.03-.95-.15a74.3 74.3 0 0 1-3.85-.69l-.13-.03-.13-.01c-.01 0-1.52-.11-3.13-.44l-1.7-.35-.58 1.64c-.13.36-.26.71-.4 1.04l-1.25-2 .2 4.05-.45.78.52.58.11 2.27c.5 10.09-.4 23.68-1.4 33.15-1.03-9.88-1.96-24.17-1.37-34.14l.12-1.97.2-.23-.17-.32.32-5.48-1.66 2.71c-.04-.1-.08-.2-.11-.31l-.57-1.57-1.64.28c-1.28.22-2.34.3-2.35.3l-.13.01-.13.03c-1.75.36-3.51.66-5.38.91l-.97.13-.02.04-2.25.19c-1.97.17-3.95.26-5.9.26-14.04 0-23.19-4.46-24.37-5.98-.29-1.02-.31-1.63-.05-1.98.22-.3 1.29-1.27 5.74-1.27.84 0 1.77.04 2.76.1 8.17.57 23.36 3.78 31.68 5.65l2.67.6-.24-2.72c-.03-.36-.05-.65-.05-.87 0-.35.03-.71.08-1.08l.11-.72.25-.68c.33-.87.81-1.6 1.4-2.12l1.83-1.6-1.93-1.48c-.3-.23-.81-.72-.81-1.4 0-.94.93-1.79 2.22-2.02l.57-.1M96.41 3.9c-1.6.96-3.04 2.08-4.41 3.26a51.26 51.26 0 0 0-3.93 3.73c-1.23 1.32-2.24 2.84-3.3 4.33a26.64 26.64 0 0 1-3.56 4.08l-.1.1-.03.18c-.31 1.85-.83 3.67-1.29 5.5-.22.92-.41 1.83-.58 2.76l-.35 1.96c-1.08.55-2.15 1.11-3.19 1.73-1.23.73-2.44 1.51-3.63 2.32-1.06.71-2.09 1.46-3.12 2.24-.44-1.05-1.08-1.94-1.85-2.61.96-.75 1.57-1.8 1.57-2.98 0-2.03-1.78-3.7-4.11-4.02l-.9-20.81-.91 20.83c-2.21.4-3.87 2.03-3.87 3.99 0 1.19.62 2.24 1.59 2.99-.84.74-1.51 1.74-1.96 2.92-.01-.01-.02-.01-.03-.02-1.15-.88-2.32-1.73-3.51-2.53-1.19-.81-2.4-1.59-3.63-2.32-1.04-.62-2.11-1.18-3.19-1.73l-.35-1.96c-.17-.92-.36-1.84-.58-2.76-.46-1.83-.98-3.65-1.29-5.5l-.03-.18-.1-.1a27.195 27.195 0 0 1-3.56-4.08c-1.06-1.48-2.07-3.01-3.3-4.33a49.572 49.572 0 0 0-3.93-3.73c-1.38-1.18-2.81-2.3-4.41-3.26l-.21.2c.89 1.64 1.95 3.13 3.06 4.56s2.3 2.79 3.55 4.09c1.26 1.29 2.74 2.37 4.17 3.49 1.4 1.08 2.65 2.29 3.79 3.6.12 1.82.07 3.66.06 5.5 0 .94.04 1.88.1 2.82l.19 2.8.05.68.7.44c1.21.77 2.42 1.55 3.68 2.23 1.26.69 2.54 1.34 3.84 1.96 1.3.63 2.62 1.2 3.96 1.75.16.07.33.12.5.19-.07.45-.1.91-.1 1.38 0 .32.02.68.05 1.04-8.18-1.83-23.64-5.11-31.98-5.69-1.06-.07-2.03-.11-2.9-.11-8.71 0-8.31 3.48-7.57 5.95.63 2.1 10.82 7.27 26.25 7.27 1.94 0 3.97-.08 6.07-.26-.76 1.32-1.46 2.68-2.11 4.07-1.12 2.41-2.24 4.83-3.62 7.09-1.36 2.27-2.9 4.43-4.49 6.57-1.55 2.05-3.02 4.16-4.41 6.31-1.64 1.42-3.29 2.83-4.89 4.29-1.63 1.49-3.21 3.04-4.75 4.63s-3.07 3.19-4.54 4.86c-1.48 1.66-2.93 3.35-4.28 5.14l.2.22c1.88-1.22 3.67-2.55 5.43-3.9 1.77-1.35 3.48-2.76 5.17-4.18 1.69-1.43 3.36-2.89 4.96-4.41s3.16-3.09 4.73-4.66l.17-.17.07-.13c1.3-2.31 2.53-4.66 3.67-7.06 1.15-2.4 2.35-4.77 3.73-7.02 1.36-2.27 2.99-4.38 4.6-6.5 1.35-1.76 2.58-3.59 3.69-5.5 1.8-.24 3.64-.54 5.52-.93 0 0 1.14-.08 2.54-.32.31.86.68 1.68 1.07 2.42-.52.57-1.03 1.14-1.53 1.72-1.38 1.6-2.72 3.23-4.03 4.88-1.29 1.67-2.6 3.32-3.81 5.04a79.148 79.148 0 0 0-3.45 5.31l-.26.43.09.32c.44 1.62.88 3.23 1.27 4.86s.72 3.26 1 4.9c.56 3.18.9 6.39 1.22 9.61-1.33 2.85-2.52 5.75-3.69 8.66-1.21 2.96-2.38 5.94-3.48 8.95l-1.56 4.54c-.48 1.53-1 3.04-1.46 4.58-.95 3.06-1.83 6.14-2.59 9.26-.44.75-.88 1.5-1.3 2.26l.24.18c.65-.64 1.28-1.31 1.9-1.97l.01-.01.06-.11c1.46-2.87 2.79-5.79 4.07-8.73.65-1.47 1.25-2.95 1.87-4.42l1.77-4.46c1.12-3 2.17-6.02 3.18-9.06 1.02-3.03 2.03-6.07 2.89-9.17l.09-.33-.05-.18c-.84-3.24-1.68-6.48-2.28-9.76-.31-1.64-.56-3.29-.76-4.95-.18-1.49-.31-3-.45-4.5 1.32-1.5 2.61-3.04 3.81-4.63 1.28-1.67 2.46-3.42 3.66-5.15 1.18-1.75 2.34-3.51 3.44-5.31.08-.13.15-.26.23-.39-.97 16.55 2.28 46.38 3.34 46.38 1.15 0 4.24-28.65 3.42-45.38.99 1.58 2.01 3.15 3.05 4.69 1.2 1.73 2.38 3.48 3.66 5.15 1.2 1.59 2.48 3.13 3.81 4.63-.13 1.5-.27 3.01-.45 4.5-.2 1.66-.46 3.31-.76 4.95-.6 3.28-1.44 6.52-2.28 9.76l-.05.18.09.33c.86 3.09 1.87 6.13 2.89 9.17a262.6 262.6 0 0 0 3.18 9.06l1.77 4.46c.63 1.47 1.22 2.96 1.87 4.42 1.27 2.94 2.61 5.86 4.07 8.73l.06.11.01.01c.62.66 1.25 1.33 1.9 1.97l.24-.18c-.41-.77-.86-1.52-1.3-2.26-.76-3.12-1.64-6.21-2.59-9.26-.46-1.54-.97-3.05-1.46-4.58l-1.56-4.54c-1.1-3.01-2.27-5.98-3.48-8.95-1.17-2.91-2.36-5.81-3.69-8.66.33-3.22.66-6.44 1.22-9.61.28-1.64.62-3.28 1-4.9.39-1.62.84-3.24 1.27-4.86l.09-.32-.26-.43A84.601 84.601 0 0 0 76 60.24c-1.21-1.72-2.52-3.37-3.81-5.04-1.31-1.65-2.65-3.28-4.03-4.88-.39-.45-.8-.89-1.2-1.34.51-.87.95-1.89 1.33-2.95 1.76.36 3.38.48 3.38.48 1.34.28 2.66.51 3.96.71 1.14 1.99 2.41 3.89 3.81 5.72 1.62 2.12 3.24 4.23 4.6 6.5 1.39 2.26 2.58 4.63 3.73 7.02 1.14 2.41 2.36 4.76 3.67 7.06l.07.13.17.17c1.56 1.57 3.12 3.14 4.73 4.66s3.27 2.98 4.96 4.41 3.41 2.83 5.17 4.18 3.55 2.68 5.43 3.9l.2-.22c-1.36-1.79-2.8-3.48-4.28-5.14-1.47-1.66-3-3.27-4.54-4.86s-3.12-3.14-4.75-4.63c-1.6-1.46-3.25-2.87-4.89-4.29-1.4-2.15-2.86-4.26-4.41-6.31-1.59-2.13-3.13-4.29-4.49-6.57-1.38-2.26-2.49-4.68-3.62-7.09A54.33 54.33 0 0 0 79 47.64c2.65.28 5.19.41 7.6.41 15.43 0 25.62-5.17 26.25-7.27.74-2.47 1.14-5.95-7.57-5.95-.87 0-1.83.03-2.9.11-8.67.6-25.02 4.12-32.9 5.9.04-.44.07-.87.07-1.25 0-.54-.05-1.07-.13-1.57 1.34-.54 2.66-1.12 3.95-1.74 1.3-.61 2.59-1.26 3.84-1.96 1.26-.69 2.47-1.47 3.68-2.23l.7-.44.05-.68.19-2.8c.06-.94.1-1.87.1-2.82 0-1.84-.06-3.68.06-5.5 1.15-1.31 2.4-2.53 3.79-3.6 1.44-1.12 2.91-2.2 4.17-3.49 1.25-1.3 2.44-2.66 3.55-4.09s2.17-2.91 3.06-4.56l-.15-.21z" fill="#eee" opacity=".2"/></svg>