<svg viewBox="0 0 128 128" width="128" height="128" xmlns="http://www.w3.org/2000/svg" xmlns:xlink="http://www.w3.org/1999/xlink"><defs><path id="a" d="M4 4h120v120H4z"/></defs><clipPath id="b"><use xlink:href="#a"/></clipPath><g clip-path="url(#b)"><radialGradient id="c" cx="1669.3" cy="-93.638" r="88.176" gradientTransform="matrix(-1 0 0 1 1788.9 0)" gradientUnits="userSpaceOnUse"><stop stop-color="#554138" offset=".001"/><stop stop-color="#3C2C23" offset="1"/></radialGradient><path d="M120.93-69.1c73.42 0 72.83 67.89 72.83 68.97 0 43.97-3.36 106.08-20.96 130.52-6.97 9.69-20.46 10.22-20.46 10.22l-30.38-.05-30.38.05s-7.41 1.04-14.39-8.64C59.59 107.53 44.09 43.83 46.71 4c.07-1.08.8-73.1 74.22-73.1z" fill="url(#c)"/><path d="M120.93-69.1c73.42 0 72.83 67.89 72.83 68.97 0 43.97-3.36 106.08-20.96 130.52-6.97 9.69-20.46 10.22-20.46 10.22l-30.38-.05-30.38.05s-.23.03-.65.03c-1.96 0-7.99-.7-13.73-8.68C59.59 107.53 44.09 43.83 46.71 4c.07-1.08.8-73.1 74.22-73.1m0-6c-40.28 0-59.9 20.73-69.28 38.12C42.16-19.36 40.88-1.44 40.72 3.64v.05c-2.65 40.7 12.99 105.95 31.6 131.79 7.26 10.08 15.43 11.17 18.6 11.17.37 0 .68-.01.93-.03l30.11-.04 30.37.05h.24c.67-.03 16.51-.79 25.1-12.71 8.45-11.73 14.56-32.15 18.16-60.69 2.61-20.64 3.93-45.31 3.93-73.33.01-3.33-.53-33.02-21.63-54.17-13.77-13.83-33.01-20.83-57.2-20.83z" fill="#291D15"/><linearGradient id="d" x1="119.99" x2="119.99" y1="89.786" y2="116.56" gradientUnits="userSpaceOnUse"><stop stop-color="#651FFF" offset="0"/><stop stop-color="#5B17F2" offset=".536"/><stop stop-color="#500EE3" offset="1"/></linearGradient><path d="M42.11 155.68v-15.56c0-8.53 5.23-21.02 30.17-32.11 17.62-7.83 37.81-11.4 49.11-11.4 36.78 0 76.47 16.27 76.47 42.56v16.51H42.11z" fill="url(#d)"/><path d="M121.39 98.11c18.56 0 37.34 4.14 51.51 11.35 19.39 9.87 23.46 21.61 23.46 29.72v15.01H43.61v-14.06c0-15.42 18.34-25.87 29.28-30.74 17.42-7.75 37.35-11.28 48.5-11.28m0-3c-24.89 0-80.78 15.75-80.78 45.01v17.06h158.76v-18.01c-.01-27.62-40.96-44.06-77.98-44.06z" fill="#4A00ED"/><linearGradient id="e" x1="74.241" x2="87.225" y1="113.72" y2="119.76" gradientUnits="userSpaceOnUse"><stop stop-color="#262626" offset=".197"/><stop stop-color="#262626" stop-opacity="0" offset="1"/></linearGradient><path d="M80.59 127.47l15.33-28.9c-14.56 4.01-28.72 7.54-39.97 16.58-2.07 6.4-4.22 13.08-4.22 13.34 0 .51 28.86-1.02 28.86-1.02z" fill="url(#e)" opacity=".35"/><linearGradient id="f" x1="34.061" x2="20.734" y1="124.03" y2="160.59" gradientTransform="matrix(1.0971 .0332 -.0336 1.1112 13.94 -19.569)" gradientUnits="userSpaceOnUse"><stop stop-color="#6D2BFF" offset="0"/><stop stop-color="#611EF6" offset=".521"/><stop stop-color="#530EEB" offset="1"/></linearGradient><path d="M16.85 143.34l16.11-30.45c1.57-2.17 3.5-4.36 5.9-4.36.58 0 1.18.12 1.8.37.05.02.1.04.16.05 8.43 2.33 22.66 6.8 24.94 8.85 1.71 1.54 1.3 3.25.34 6.38l-12.76 30.87-36.49-11.71z" fill="url(#f)"/><path d="M38.86 110.03c.39 0 .8.09 1.25.27.1.04.21.08.31.1 10.32 2.86 22.57 6.93 24.34 8.52.91.82.9 1.58-.07 4.75L52.48 153.2l-33.46-10.74 15.22-28.77c1.26-1.74 2.9-3.66 4.62-3.66m0-3c-3.24 0-5.57 2.82-7.18 5.06l-16.99 32.12 39.51 12.68 13.32-32.21c.95-3.07 1.75-5.75-.75-8-3.4-3.06-25.55-9.18-25.55-9.18-.84-.32-1.62-.47-2.36-.47z" fill="#4A00ED"/><path d="M119.25 109.38c-8.2 0-14.86-6.7-14.86-14.95V75.85h33v18.58c0 8.24-6.67 14.95-14.86 14.95h-3.28z" fill="#7A4C32"/><path d="M135.88 77.35v17.08c0 7.41-5.99 13.45-13.36 13.45h-3.27c-7.37 0-13.36-6.03-13.36-13.45V77.35h29.99m3-3h-36v20.08c0 9.08 7.33 16.45 16.36 16.45h3.27c9.04 0 16.36-7.36 16.36-16.45V74.35h.01z" fill="#663B22"/><path d="M70.82 50.25c-9.69 0-17.58-8.44-17.58-18.82S61.13 12.6 70.82 12.6h97.33c9.69 0 17.58 8.44 17.58 18.82s-7.89 18.82-17.58 18.82H70.82z" fill="#7A4C32"/><path d="M168.15 14.1c8.87 0 16.08 7.77 16.08 17.32s-7.21 17.32-16.08 17.32H70.82c-8.87 0-16.08-7.77-16.08-17.32S61.95 14.1 70.82 14.1h97.33m0-3H70.82c-10.49 0-19.08 9.15-19.08 20.32s8.59 20.32 19.08 20.32h97.33c10.49 0 19.08-9.15 19.08-20.32s-8.58-20.32-19.08-20.32z" fill="#663B22"/><linearGradient id="g" x1="122.36" x2="122.36" y1="-51.292" y2="94.884" gradientTransform="rotate(180 120.91 19.366)" gradientUnits="userSpaceOnUse"><stop stop-color="#8D5738" offset=".006"/><stop stop-color="#97603D" offset=".219"/><stop stop-color="#A26941" offset=".577"/><stop stop-color="#A56C43" offset="1"/></linearGradient><path d="M119.49 91.24c-14.2 0-28.53-7.96-39.3-21.85-11.53-14.87-18.24-35.3-18.9-57.54-.64-21.6 5.51-39.7 17.81-52.36 10.49-10.8 25.21-17 40.39-17 28.03 0 58.2 21.72 58.2 69.4 0 22.12-6.36 42.5-17.91 57.39-10.83 13.95-25.51 21.96-40.29 21.96z" fill="url(#g)"/><path d="M119.49-56.01c14.93 0 28.77 5.94 38.97 16.72 11.6 12.26 17.73 29.96 17.73 51.18 0 21.78-6.25 41.84-17.6 56.47-10.53 13.58-24.79 21.37-39.1 21.37-13.74 0-27.63-7.75-38.11-21.27C70.04 53.85 63.44 33.73 62.79 11.8c-.63-21.18 5.38-38.91 17.39-51.27 10.2-10.51 24.53-16.54 39.31-16.54m0-3c-30.12 0-61.1 23.48-59.7 70.9 1.42 47.99 29.92 80.85 59.7 80.85 30.99 0 59.7-33.15 59.7-80.85-.01-47.44-29.58-70.9-59.7-70.9z" fill="#875334"/><ellipse cx="90.21" cy="28.78" rx="8.78" ry="9.09" fill="#42312C"/><ellipse cx="148.76" cy="28.78" rx="8.78" ry="9.09" fill="#404040"/><path d="M103.43 12.77c-1.65-2.19-5.47-5.37-12.88-5.37s-11.23 3.18-12.88 5.37c-.73.97-.55 2.08-.04 2.76.47.63 1.85 1.21 3.39.69 1.53-.52 4.52-2.07 9.53-2.1 5.01.04 8 1.58 9.53 2.1s2.92-.06 3.39-.69c.5-.68.69-1.8-.04-2.76z" fill="#42312C"/><path d="M161.3 12.77c-1.65-2.19-5.47-5.37-12.88-5.37s-11.23 3.18-12.88 5.37c-.73.97-.55 2.08-.04 2.76.47.63 1.85 1.21 3.39.69 1.53-.52 4.52-2.07 9.53-2.1 5.01.04 8 1.58 9.53 2.1s2.92-.06 3.39-.69c.51-.68.69-1.8-.04-2.76z" fill="#6D4C41"/><path d="M126.36 45.25c-.19-.08-.38-.12-.57-.15h-12.6c-.19.02-.38.07-.57.15-1.14.46-1.77 1.65-1.23 2.91s3.05 4.8 8.1 4.8c5.06 0 7.56-3.54 8.1-4.8s-.09-2.45-1.23-2.91z" fill="#875334"/><path d="M134.48 59.65c-5.67 3.37-24.27 3.37-29.95 0-3.26-1.94-6.59 1.03-5.24 3.99 1.33 2.91 11.48 9.66 20.25 9.66s18.79-6.75 20.12-9.66c1.36-2.96-1.92-5.93-5.18-3.99z" fill="#473530"/><radialGradient id="h" cx="180.21" cy="-71.355" r="66.768" gradientTransform="matrix(0 1 -.9288 0 53.569 -251.56)" gradientUnits="userSpaceOnUse"><stop stop-color="#554138" offset=".001"/><stop stop-color="#3C2C23" offset="1"/></radialGradient><path d="M183.87 4.12c0-23.5-15.43-62.93-62.74-62.93-48.92 0-66.06 48.92-65.3 66.05.48 10.99 3.37 19.96 5.35 24.92.42 1.06 1.98.82 2.06-.32.38-5.4 1.59-14.23 5.5-18.62 5.89-6.62 21.78-9.96 31.13-14.4 21.64-10.28 39.76-19.62 39.76-19.62 5.89 12.86 24.31 25.41 30.92 30.18 5.43 3.92 4.67 20.05 4.57 26.91l-5.45 53.78s.31 12.78 5.62 2.01 8.58-70.57 8.58-87.96z" fill="url(#h)"/><linearGradient id="i" x1="90.37" x2="97.246" y1="77.954" y2="75.464" gradientUnits="userSpaceOnUse"><stop stop-color="#262626" offset=".197"/><stop stop-color="#262626" stop-opacity="0" offset="1"/></linearGradient><path d="M94.77 71.12c-3.31-5.56-8.94-1.62-8.94-1.62l-3.19 5.12c4.25 4.67 8.92 8.52 13.85 11.46-2.7-8.32.65-10.98-1.72-14.96z" fill="url(#i)" opacity=".35"/><linearGradient id="j" x1="45.051" x2="78.863" y1="109.82" y2="85.804" gradientUnits="userSpaceOnUse"><stop stop-color="#8D5738" offset="0"/><stop stop-color="#97603D" offset=".215"/><stop stop-color="#A26941" offset=".575"/><stop stop-color="#A56C43" offset="1"/></linearGradient><path d="M57.21 118.12c-.34 0-.69-.01-1.04-.02-7.58-.29-14.42-5.06-17.01-11.88-2.2-5.79-.76-11.71 3.96-16.24 3.84-3.69 8.98-5.38 13.94-7.01 2.82-.93 5.48-1.8 7.89-3.02 8.4-4.24 10.76-6.72 15.06-11.23 1.53-1.72 3.2-2.61 4.85-2.61 1.25 0 2.43.51 3.34 1.43 1.55 1.57 1.26 4.46.2 6.39-5.06 9.18-12.12 13.09-12.19 13.12-.47.26-.73.79-.64 1.31.01.05.91 5.38.31 10.88-.79 7.05-4.25 18.88-18.67 18.88z" fill="url(#j)"/><path d="M84.85 67.36c1.23 0 2.06.66 2.45 1.05 1.18 1.2.69 3.64-.01 4.91-4.86 8.82-11.62 12.59-11.68 12.63-.95.51-1.46 1.57-1.28 2.63.01.05.88 5.19.3 10.53-.73 6.63-3.96 17.77-17.42 17.77-.33 0-.66-.01-1-.02-7.09-.27-13.48-4.72-15.89-11.08-2.02-5.3-.68-10.73 3.66-14.9 3.64-3.49 8.63-5.13 13.46-6.72 2.87-.94 5.57-1.83 8.06-3.09 8.25-4.17 10.68-6.53 15.4-11.48l.06-.06c1.26-1.43 2.6-2.17 3.89-2.17m0-2.5c-1.81 0-3.83.84-5.75 3-4.42 4.64-6.63 6.89-14.72 10.97-6.59 3.33-15.88 4.24-22.13 10.24-12.27 11.77-1.68 29.69 13.87 30.28.37.01.73.02 1.09.02 13.77 0 18.83-10.28 19.9-19.99.63-5.76-.32-11.23-.32-11.23s7.37-3.97 12.69-13.62c1.19-2.16 1.7-5.73-.4-7.87-1.06-1.08-2.56-1.8-4.23-1.8z" fill="#875334"/><path d="M44.09 89.19c4.54-3.04 11.16-1.75 13.29 7.68 2.04 9.01-7.46 13.07-10.43 8.12-2.75-4.58 2.17-6.75 2.17-6.75" fill="none" stroke="#875334" stroke-linecap="round" stroke-linejoin="round" stroke-miterlimit="10" stroke-width="2.5"/><path d="M58.1 103.21c5.46 2.31 10.65-3.32 7.84-11.39-4.53-12.98-15.68-5.76-15.68-5.76" fill="none" stroke="#875334" stroke-linecap="round" stroke-linejoin="round" stroke-miterlimit="10" stroke-width="2.5"/><path d="M57.95 82.72s13.63-7.78 17.54 5.31c2.43 8.12-4.92 13.89-8.88 10.74" fill="none" stroke="#875334" stroke-linecap="round" stroke-linejoin="round" stroke-miterlimit="10" stroke-width="2.5"/><linearGradient id="k" x1="63.974" x2="79.774" y1="101.2" y2="102.2" gradientTransform="rotate(-28.626 72.724 103.163)" gradientUnits="userSpaceOnUse"><stop stop-color="#8D5738" offset="0"/><stop stop-color="#97603D" offset=".215"/><stop stop-color="#A26941" offset=".575"/><stop stop-color="#A56C43" offset="1"/></linearGradient><path d="M78.22 98.51c1.72 3.04.79 7.36-3.92 9.35-4.03 1.7-8.31 1.3-9.98-1.77-1.68-3.07.08-7.26 3.92-9.35 3.84-2.1 7.91-1.88 9.98 1.77z" fill="url(#k)" stroke="#875334" stroke-linecap="round" stroke-linejoin="round" stroke-miterlimit="10" stroke-width="2.5"/></g><g clip-path="url(#b)"><path d="M19.2 33.14c0 32.01 19.62 42.4 19.62 42.4" fill="none" stroke="#646464" stroke-linejoin="round" stroke-miterlimit="10" stroke-width="4"/><path fill="#646464" d="M41.14 66.27L30.9 77.87l13.55 2.96z"/></g></svg>