<svg viewBox="0 0 128 128" width="128" height="128" xmlns="http://www.w3.org/2000/svg" xmlns:xlink="http://www.w3.org/1999/xlink"><defs><path id="a" d="M4 4h120v120H4z"/></defs><clipPath id="b"><use xlink:href="#a"/></clipPath><g clip-path="url(#b)"><radialGradient id="c" cx="66.117" cy="45.866" r="23.207" gradientUnits="userSpaceOnUse"><stop stop-color="#444140" offset="0"/><stop stop-color="#232020" offset="1"/></radialGradient><path d="M93.38 87.11c.53-.58 1.11-1.11 1.91-1.13 1.32-.03 3.36-.25 4.97-1.22.47-.28.87-.67 1.17-1.14-1.13-.23-2.68-.89-3.73-2.93-1.6-3.1.25-5.95 3.32-9.12 3.46-3.57 9.21-15.82 3.1-26.74-1.15-.17-17.81.08-22.03.08H64.1v49.71c19.76 0 23.67-1.29 29.28-7.51z" fill="url(#c)"/><radialGradient id="d" cx="64.819" cy="46.199" r="23.25" gradientUnits="userSpaceOnUse"><stop stop-color="#444140" offset="0"/><stop stop-color="#232020" offset="1"/></radialGradient><path d="M34.82 87.11c-.53-.58-1.11-1.11-1.91-1.13-1.32-.03-3.36-.25-4.97-1.22a3.54 3.54 0 0 1-1.17-1.14c1.13-.23 2.75-.86 3.73-2.93 1.6-3.35-.67-6.33-3.32-9.12-4.33-4.57-9.21-15.82-3.1-26.74 1.15-.17 17.81.08 22.03.08H64.1v49.71c-19.76 0-23.67-1.29-29.28-7.51z" fill="url(#d)"/><path d="M102.88 46.67l.26.5c5.42 10.4-.55 20.63-3.19 23.36-2.96 3.05-5.7 6.73-3.58 10.85.55 1.07 1.27 1.93 2.13 2.56-1.18.42-2.47.52-3.24.54-1.56.04-2.56 1.15-2.99 1.63-3.4 3.77-5.97 5.63-13.09 6.45 0 0-3.69 1.89-6.24 2.53V96c12.46-.45 16.47-2.23 21.56-7.88.39-.44.65-.63.83-.64 1.58-.04 3.84-.32 5.7-1.43.67-.4 1.24-.96 1.67-1.63l1.17-1.85-2.14-.43c-1.19-.24-2.07-.94-2.69-2.14-1.04-2.01-.2-4.01 3.07-7.39 4.05-4.18 9.28-14.94 3.97-25.89 0 0 0-.02.01-.05h-3.21zM26.09 72.6c2.71 2.86 4.17 5.1 3.06 7.44-.56 1.17-1.43 1.86-2.67 2.1l-2.14.43 1.17 1.85c.42.67 1 1.23 1.67 1.63 1.86 1.11 4.13 1.39 5.7 1.43.18 0 .44.2.83.64 5.07 5.62 9.06 7.42 21.39 7.88v-.95c-2.15-.6-6.08-2.48-6.08-2.48-7.12-.82-9.69-2.68-13.09-6.45-.43-.48-1.43-1.59-2.99-1.63-.76-.02-2.04-.12-3.21-.53.89-.65 1.61-1.53 2.13-2.61 2.22-4.67-1.56-8.66-3.59-10.8-3.84-4.05-8.03-13.55-3.8-23.12l.29-.65-.05-.09h-3.32c.02.06.04.11.07.17-4.37 10.67.32 21.2 4.63 25.74z" fill="#1F1D1B"/></g><g clip-path="url(#b)"><linearGradient id="e" x1="64" x2="64" y1="77.943" y2="130.31" gradientUnits="userSpaceOnUse"><stop stop-color="#F78C1F" offset="0"/><stop stop-color="#F37F20" offset=".494"/><stop stop-color="#ED6D23" offset="1"/></linearGradient><path d="M13.5 130.5v-9.44c0-16.23 25.36-23.53 50.5-23.56h.13c25.03 0 50.36 8.09 50.36 23.56v9.44H13.5z" fill="url(#e)"/><path d="M64.13 99c12.9 0 25.42 2.19 34.36 6 6.62 2.83 14.51 7.91 14.51 16.05V129H15v-7.94c0-15.2 24.61-22.03 49-22.06h.13m0-3H64c-25.49.03-52 7.28-52 25.06V132h104v-10.94C116 104.3 89.74 96 64.13 96z" fill="#DA6727"/></g><g clip-path="url(#b)"><path d="M63.17 107.23c-4 0-7.26-3.22-7.26-7.17v-8.98h16.16v8.98c0 3.96-3.26 7.17-7.26 7.17h-1.64z" fill="#3C2B24"/><path d="M71.08 92.08v7.98c0 3.4-2.81 6.17-6.26 6.17h-1.65c-3.45 0-6.26-2.77-6.26-6.17v-7.98h14.17m2-2H54.92v9.98c0 4.51 3.7 8.17 8.26 8.17h1.65c4.56 0 8.26-3.66 8.26-8.17v-9.98h-.01z" fill="#291B16"/></g><g clip-path="url(#b)"><path d="M36.67 72.26c-5.36 0-9.71-4.67-9.71-10.41s4.36-10.41 9.71-10.41h54.65c5.36 0 9.71 4.67 9.71 10.41s-4.36 10.41-9.71 10.41H36.67z" fill="#3C2B24"/><path d="M91.33 52.43c4.8 0 8.71 4.22 8.71 9.41s-3.91 9.41-8.71 9.41H36.67c-4.8 0-8.71-4.22-8.71-9.41s3.91-9.41 8.71-9.41h54.66m0-2H36.67c-5.89 0-10.71 5.14-10.71 11.41 0 6.28 4.82 11.41 10.71 11.41h54.65c5.89 0 10.71-5.14 10.71-11.41.01-6.27-4.81-11.41-10.7-11.41z" fill="#291B16"/></g><g clip-path="url(#b)"><linearGradient id="f" x1="64" x2="64" y1="94.592" y2="12.826" gradientUnits="userSpaceOnUse"><stop stop-color="#5C4037" offset="0"/><stop stop-color="#63463D" offset=".158"/><stop stop-color="#6D5047" offset=".533"/><stop stop-color="#70534A" offset="1"/></linearGradient><path d="M64 95.27c-15.66 0-32.52-12.14-32.52-38.81 0-12.38 3.56-23.79 10.02-32.13 6.04-7.8 14.25-12.27 22.5-12.27s16.45 4.47 22.5 12.27c6.46 8.34 10.02 19.75 10.02 32.13 0 12.09-3.51 22.19-10.14 29.21-5.86 6.19-13.81 9.6-22.38 9.6z" fill="url(#f)"/><path d="M64 13.07c7.94 0 15.85 4.33 21.71 11.88 6.33 8.16 9.81 19.35 9.81 31.52 0 11.83-3.41 21.7-9.87 28.52-5.67 5.99-13.36 9.29-21.65 9.29s-15.98-3.3-21.65-9.29c-6.46-6.82-9.87-16.69-9.87-28.52 0-12.16 3.49-23.35 9.81-31.52C48.15 17.4 56.06 13.07 64 13.07m0-2c-17.4 0-33.52 18.61-33.52 45.39 0 26.64 16.61 39.81 33.52 39.81S97.52 83.1 97.52 56.46c0-26.78-16.12-45.39-33.52-45.39z" fill="#4A2F27"/></g><g clip-path="url(#b)"><g fill="#1A1717"><path d="M54.98 51.82c-.93-1.23-3.07-3.01-7.23-3.01s-6.31 1.79-7.23 3.01c-.41.54-.31 1.17-.02 1.55.26.35 1.04.68 1.9.39s2.54-1.16 5.35-1.18c2.81.02 4.49.89 5.35 1.18s1.64-.03 1.9-.39c.29-.38.39-1.01-.02-1.55zM87.48 51.82c-.93-1.23-3.07-3.01-7.23-3.01s-6.31 1.79-7.23 3.01c-.41.54-.31 1.17-.02 1.55.26.35 1.04.68 1.9.39s2.54-1.16 5.35-1.18c2.81.02 4.49.89 5.35 1.18s1.64-.03 1.9-.39c.29-.38.39-1.01-.02-1.55z"/></g><path d="M67.86 68.06c-.11-.04-.21-.07-.32-.08h-7.07c-.11.01-.22.04-.32.08-.64.26-.99.92-.69 1.63s1.71 2.69 4.55 2.69 4.25-1.99 4.55-2.69c.29-.71-.06-1.37-.7-1.63z" fill="#E59600"/></g><g clip-path="url(#b)"><defs><path id="g" d="M64 4.03h-.04c-45.43.24-36.12 52.14-36.12 52.14s5.1 8.99 5.1 8.81c-.03-1.41.46-6.89.46-6.89l-2.68-2.92s3.89-25.44 6.79-24.91c4.45.81 26.54 2 26.57 2 7.83 0 14.92-.36 19.37-1.17 2.9-.53 9.64 1.7 10.68 4.45 1.33 3.54 3.13 19.71 3.13 19.71l-2.68 2.83s.49 5.51.46 6.89c0 .18 5.1-8.81 5.1-8.81S109.44 4.27 64 4.03z"/></defs></g><g clip-path="url(#b)"><radialGradient id="h" cx="64.326" cy="33.52" r="36.373" gradientTransform="matrix(1 0 0 .8642 0 4.552)" gradientUnits="userSpaceOnUse"><stop stop-color="#444140" offset="0"/><stop stop-color="#232020" offset="1"/></radialGradient><path d="M52.25 10.65C39.98 15 38.76 7.3 38.76 7.3c-6.66 3.32-2.28 10.45-2.28 10.45s-6.75-.5-9.64 5.34c-3.02 6.11-.36 10.78-.36 10.78S19.98 38 22.53 45.5c1.69 4.98 6.75 6.98 6.75 6.98-.62 10.74 2.77 15.95 2.77 15.95s4.21-18.45 3.81-21.27c0 0 7.76-1.54 16.57-6.58 5.95-3.41 10.02-7.41 16.71-8.91 10.18-2.29 12.45 5.08 12.45 5.08s9.42-1.81 12.26 11.27c1.17 5.38 1.67 14.37 2.31 19.84-.06-.48 3.5-6.4 4.12-12.4.23-2.23 3.61-7.67 4.63-11.72 2.21-8.8-.69-15.74-2.06-17.81-2.5-3.79-8.49-9-12.97-8.24.23-4.8-3.55-9.25-8.1-10.78-12.45-4.18-25.87 2.44-29.53 3.74z" fill="url(#h)"/><path d="M21.11 45.98c.08.22.17.45.27.68l2.28 2.89 1.1-2.79-.32-.63c-.21-.42-.36-.77-.48-1.11-2.13-6.26 3.11-9.73 3.33-9.88l1.18-.76-.68-1.23c-.09-.17-2.21-4.12.4-9.38 2.33-4.71 7.75-3.73 7.98-3.69l2.95.59-1.31-2.71c-.1-.22-2.19-4.67.33-8.01.55 1.01 1.43 2.15 2.84 3 2.85 1.73 6.8 1.72 11.75-.03.79-.28 1.68-.76 2.8-1.38 4.53-2.47 12.11-6.61 24.12-2.81 4.34 1.38 8.92 5.17 8.74 8.89l-.09 1.87 1.84-.31c3.6-.6 9.1 4.01 11.47 7.59 1.22 1.84 3.98 9.5 1.92 17.71-.11.45-.26.94-.46 1.5l-.22.62.04.08 1.09 1.9 2.11-1.9c.05-.23.27-1.14.35-1.46 2.24-8.93-.56-17.42-2.32-20.09-2.44-3.7-7.91-8.64-12.82-8.97-.79-4.72-5.84-8.72-10.73-10.27-13.25-4.21-21.86.49-26.49 3.02-.96.53-1.79.98-2.36 1.18-3.97 1.41-7.13 1.52-9.15.32-1.97-1.17-2.32-3.23-2.33-3.31l-.34-2.44-2.01 1.41c-4.24 2.99-4.4 7.63-3.6 10.88-2.93.12-6.77 1.36-8.8 5.47-2.42 4.9-1.56 8.99-.86 10.95-2.52 2.15-5.54 6.65-3.52 12.61z" fill="#1F1D1B"/></g><path d="M82.02 128l-17.8-48.34c1.99-.87 4.4-2.02 5.39-2.49 8.83-4.24 5.13-11.17 4.73-15.77-.25-2.83.56-8.35 2.23-9.95 1.66-1.59-.19-3.56-1.1-3.9-1.08-.41-2.83-.01-4.37 1.86s-1.01 4.46-1.65 6.08c-.21.52-.94.52-1.15 0-1.4-3.44-6.7-16.01-6.7-16.01-.69-1.71-2.29-2.66-3.87-1.79-1.26.69-1.48 2.26-.91 3.69l4.29 11.51c.06.15 0 .32-.13.38h-.01c-.14.07-.32.01-.4-.14l-6.88-12.5c-.71-1.36-1.94-2.27-3.3-1.81-1.69.57-2.06 2.41-1.21 4.05l6.22 12.72c.16.31.07.67-.21.84 0 0-.01 0-.01.01-.28.17-.66.06-.84-.25 0 0-5.46-8.63-6.22-9.89-.77-1.26-2.22-2.41-3.78-1.49s-1.31 2.41-.55 3.87c.65 1.24 4.61 7.94 5.76 9.87.17.29.08.66-.2.84-.27.17-.61.11-.81-.13l-4.17-5.05c-1.04-1.25-2.17-1.91-3.43-1.22-1.56.86-1.69 2.59-.6 4.08l6.2 9.09s3.87 5.87 5.47 8.31c1.2 1.84 2.42 3.14 3.57 4.07L72.52 128h9.5z" clip-path="url(#b)" fill="#4E342E" opacity=".35"/><g clip-path="url(#b)"><path d="M67.81 68.05c-.1-.04-.21-.07-.32-.08H60.5c-.11.01-.21.04-.32.08-.63.26-.98.91-.68 1.61s1.69 2.66 4.49 2.66 4.19-1.96 4.49-2.66c.31-.69-.03-1.35-.67-1.61z" fill="#E59600"/><g fill="#1A1717"><path d="M47.63 60.3c-2.06 0-3.9-.5-5.18-1.29-.55-.34-.87-.14-.77.5.37 2.48 2.9 4.4 5.95 4.4 3.06 0 5.58-1.92 5.95-4.4.1-.64-.22-.84-.77-.5-1.28.79-3.12 1.29-5.18 1.29zM80.25 60.3c-2.06 0-3.9-.5-5.18-1.29-.55-.34-.87-.14-.77.5.37 2.48 2.9 4.4 5.95 4.4 3.06 0 5.58-1.92 5.95-4.4.1-.64-.22-.84-.77-.5-1.28.79-3.13 1.29-5.18 1.29z"/></g><path d="M73.85 81.76c0 1.01-4.46 1.22-9.95 1.22s-9.95-.23-9.95-1.22c0-1.04 4.46-1.68 9.95-1.68s9.95.62 9.95 1.68z" fill="#1A1717"/></g><g clip-path="url(#b)"><path d="M80.21 44.3c-1.08-.41-2.83-.01-4.37 1.86s-1.01 4.46-1.65 6.08c-.21.52-.94.52-1.15 0-1.4-3.44-6.7-16.01-6.7-16.01-.69-1.71-2.29-2.66-3.87-1.79-1.26.69-1.48 2.26-.91 3.69l4.29 11.51c.06.15 0 .32-.13.38h-.01c-.14.07-.32.01-.4-.14l-6.88-12.5c-.71-1.36-1.94-2.27-3.3-1.81-1.69.57-2.06 2.41-1.21 4.05l6.22 12.72c.16.31.07.67-.21.84 0 0-.01 0-.01.01-.28.17-.66.06-.84-.25 0 0-5.46-8.63-6.22-9.89-.77-1.26-2.22-2.41-3.78-1.49s-1.31 2.41-.55 3.87c.65 1.24 4.61 7.94 5.76 9.87.17.29.08.66-.2.84-.27.17-.61.11-.81-.13l-4.17-5.05c-1.04-1.25-2.17-1.91-3.43-1.22-1.56.86-1.69 2.59-.6 4.08l6.2 9.09s3.87 5.87 5.47 8.31c4.19 6.42 8.65 6.46 9.52 6.26 1.3-.29 6.52-2.78 8.09-3.54 8.83-4.24 5.13-11.17 4.73-15.77-.25-2.83.56-8.35 2.23-9.95s-.19-3.58-1.11-3.92z" fill="#70534A"/><path d="M65.7 78.49c-1.69 0-5.83-.69-9.79-6.75-1.59-2.44-5.46-8.31-5.47-8.31l-6.19-9.07c-.75-1.02-1.05-2.19-.81-3.26.21-.95.83-1.75 1.75-2.25 1.09-.6 2.79-.83 4.68 1.46l1.11 1.34c-1.5-2.55-2.96-5.05-3.34-5.78-1.61-3.09-.11-4.58.93-5.19 2.04-1.21 4.06.05 5.15 1.83.29.47 1.26 2.02 2.35 3.75l-3.04-6.22c-.6-1.16-.71-2.46-.28-3.52.37-.91 1.1-1.59 2.07-1.91 1.71-.58 3.48.32 4.51 2.3l2.2 4.01-.91-2.44c-.8-2-.24-4.03 1.37-4.91.9-.49 1.9-.58 2.82-.25 1.07.38 1.97 1.31 2.46 2.55.04.1 4.42 10.49 6.25 14.9.03-.24.06-.49.08-.75.14-1.37.32-3.08 1.48-4.48 1.96-2.38 4.18-2.65 5.49-2.16.8.3 2.06 1.37 2.36 2.82.21 1-.12 1.98-.92 2.74-1.27 1.22-2.17 6.26-1.92 9.14.07.82.26 1.75.46 2.73.88 4.33 2.1 10.25-5.76 14.02-3.12 1.5-7.08 3.34-8.3 3.61-.02-.01-.3.05-.79.05zM46.68 50.43c-.24 0-.4.09-.52.16-.42.23-.68.55-.76.93-.11.5.07 1.11.49 1.68l6.22 9.12c.01.01 3.89 5.89 5.48 8.33 4.21 6.45 8.42 5.84 8.46 5.83.78-.18 3.73-1.47 7.88-3.46 6.45-3.09 5.54-7.53 4.66-11.82-.21-1.04-.42-2.03-.5-2.96-.23-2.68.43-8.74 2.53-10.76.39-.37.39-.67.34-.9-.13-.62-.8-1.23-1.1-1.35-.73-.27-2.05.1-3.25 1.56-.77.94-.9 2.2-1.03 3.42-.09.86-.17 1.66-.46 2.4-.24.61-.83 1.02-1.49 1.02h-.01c-.66 0-1.25-.4-1.5-1.01-1.39-3.39-6.64-15.87-6.7-16-.29-.72-.76-1.24-1.29-1.43-.38-.14-.78-.09-1.18.13-.82.45-.82 1.55-.46 2.44l4.3 11.53c.25.61-.03 1.34-.63 1.63-.64.31-1.39.05-1.72-.58l-6.87-12.48c-.16-.31-.97-1.73-2.1-1.35-.42.14-.71.4-.85.77-.21.52-.13 1.21.21 1.87l6.23 12.74c.39.76.13 1.71-.6 2.14-.77.45-1.76.18-2.22-.6-.21-.33-5.45-8.62-6.22-9.87-.19-.32-1.22-1.86-2.42-1.15-.43.25-1.14.68-.17 2.55.42.81 2.46 4.3 5.73 9.82.45.76.22 1.72-.53 2.2-.69.44-1.6.29-2.12-.34l-4.17-5.05c-.76-.93-1.29-1.16-1.66-1.16zm12.58 2.34s0 .01.01.01l-.01-.01zm.67-.4c0 .01.01.01.01.01l-.01-.01zm4.97-2.4c0 .01.01.02.01.03l-.01-.03zm1.27-.61l.01.02s0-.01-.01-.02z" fill="#4A2F27"/></g><g clip-path="url(#b)"><defs><path id="i" d="M109.36 128h-30.8L61.54 81.41a3 3 0 0 1 1.5-4.04l16.58-7.29c1.44-.64 3.13-.05 3.86 1.35L107 112.38l-4.7 2.48 7.06 13.14z"/></defs><clipPath id="j"><use xlink:href="#i"/></clipPath><g clip-path="url(#j)"><linearGradient id="k" x1="88.059" x2="88.059" y1="75.914" y2="130.09" gradientUnits="userSpaceOnUse"><stop stop-color="#F78C1F" offset="0"/><stop stop-color="#F37F20" offset=".494"/><stop stop-color="#ED6D23" offset="1"/></linearGradient><path d="M79.6 126.5L62.95 80.9c-.02-.04-.04-.09-.06-.13-.18-.37-.2-.79-.05-1.17s.43-.69.8-.85l16.58-7.29c.19-.08.4-.13.6-.13.56 0 1.07.31 1.33.8l31.22 54.37H79.6z" fill="url(#k)"/><path d="M80.82 72.83c.02.03.03.06.05.1L110.78 125H80.65l-16.3-44.62a2.03 2.03 0 0 0-.11-.26l16.58-7.29m0-3c-.4 0-.82.08-1.21.26l-16.58 7.29a3 3 0 0 0-1.5 4.04L78.56 128h37.41L83.48 71.43a3.003 3.003 0 0 0-2.66-1.6z" fill="#DA6727"/></g></g></svg>