<svg viewBox="0 0 128 128" width="128" height="128" xmlns="http://www.w3.org/2000/svg"><radialGradient id="a" cx="50" cy="32.309" r="43.892" gradientUnits="userSpaceOnUse"><stop stop-color="#fff" offset=".121"/><stop stop-color="#ECF0F8" offset=".687"/><stop stop-color="#E3E9F5" offset=".907"/></radialGradient><path d="M53 9.25s-18.09-5.23-24.78 2.14-7.03 16.07-7.7 21.43 2.34 16.74 4.35 21.76S30.23 67.97 29.89 74s0 21.76 1.34 25.11 7.37 22.77 13.73 24.44 8.37-1.34 8.37-7.7 2.01-42.52 13.39-41.18C78.1 76 77.43 89.39 77.77 96.09c.33 6.7 3.38 28.41 9.07 27.74s12.69-15.69 13.03-28.41-3.01-18.41 0-28.12 8.04-20.42 7.7-29.13c-.33-8.7.33-20.42-7.37-26.78S84.46 7.37 84.46 7.37 66.75 11.75 53 9.25z" fill="url(#a)"/><path d="M76.85 22.16c.26-.04.52-.1.78-.16.72-.18 1.45-.47 1.92-1.04 2.74-3.36-5.21-3.57-6.6-3.62-5-.17-9.98-.6-14.94-1.28-1.17-.16-7.17-2.17-7.31-.1-.05.66.44 1.24.95 1.67 1.68 1.4 3.87 2 6 2.49 4.79 1.1 9.67 1.82 14.57 2.14 1.55.1 3.12.16 4.63-.1z" fill="#BACBE8"/><path d="M88.16 9.95c2.55 0 6.37.65 10.13 3.75 5.78 4.77 6 13.66 6.19 21.5.03 1.06.05 2.09.09 3.08.22 5.84-2.37 13.15-4.88 20.21-.93 2.61-1.88 5.31-2.69 7.91-2 6.46-1.46 11.27-.83 16.84.39 3.4.82 7.25.69 12.09-.32 12.24-6.96 24.47-10.12 25.46-.48-.45-2.16-2.51-3.9-10.35-1.28-5.79-1.95-11.85-2.08-14.51-.03-.59-.05-1.22-.07-1.9-.24-7.28-.7-20.83-13.62-22.35-.32-.04-.64-.06-.96-.06-6.33 0-10.71 6.77-13.4 20.7-1.94 10.05-2.38 20.61-2.38 23.52 0 5.16-1.27 5.16-2.3 5.16-.63 0-1.41-.12-2.31-.36-.37-.1-2.4-.93-5.78-7.8-2.2-4.46-4.01-9.54-5.09-12.57-.37-1.03-.63-1.77-.84-2.28-.95-2.38-1.52-16.82-1.13-23.83.37-6.69-3.14-15.46-5.23-20.7-2.03-5.08-4.73-15.75-4.16-20.28.07-.54.13-1.11.2-1.71.57-5.13 1.36-12.15 6.74-18.07 2.29-2.52 6.67-3.05 9.94-3.05 5.62 0 10.99 1.51 11.04 1.53.07.02.14.04.21.05 3.08.64 6.69.97 10.72.97 11.29 0 22.32-2.51 22.78-2.61l.15-.04c.02 0 1.15-.3 2.89-.3m0-3c-2.25 0-3.7.42-3.7.42S73.43 9.91 62.35 9.91c-3.48 0-6.96-.25-10.1-.91 0 0-5.73-1.64-11.87-1.64-4.54 0-9.32.9-12.16 4.03-6.7 7.37-7.03 16.07-7.7 21.43s2.34 16.74 4.35 21.76S30.23 67.97 29.89 74c-.33 6.03 0 21.76 1.34 25.11s7.37 22.77 13.73 24.44c1.17.31 2.19.46 3.07.46 3.96 0 5.3-2.96 5.3-8.16 0-6.25 1.94-41.22 12.78-41.22.2 0 .4.01.61.04C78.1 76 77.43 89.39 77.77 96.09c.33 6.59 3.28 27.76 8.81 27.76.09 0 .17 0 .26-.02 5.69-.67 12.69-15.69 13.03-28.41.33-12.72-3.01-18.41 0-28.12s8.04-20.42 7.7-29.13.33-20.42-7.37-26.78c-4.44-3.67-8.98-4.44-12.04-4.44z" fill="#BACBE8"/></svg>