<svg viewBox="0 0 128 128" width="128" height="128" xmlns="http://www.w3.org/2000/svg"><linearGradient id="a" x1="64" x2="64" y1="19.698" y2="107.72" gradientUnits="userSpaceOnUse"><stop stop-color="#FEE133" offset=".5"/><stop stop-color="#FEDE32" offset=".612"/><stop stop-color="#FCD32F" offset=".708"/><stop stop-color="#FAC12B" offset=".797"/><stop stop-color="#F7A924" offset=".883"/><stop stop-color="#F6A323" offset=".9"/></linearGradient><path d="M64 119.92c-27.95 0-58.02-17.5-58.02-55.92S36.05 8.08 64 8.08c15.49 0 29.83 5.13 40.38 14.44 11.55 10.19 17.65 24.53 17.65 41.48 0 16.87-6.1 31.19-17.65 41.41-10.58 9.35-24.92 14.51-40.38 14.51z" fill="url(#a)"/><path d="M64 10.08c15 0 28.87 4.95 39.05 13.94 11.1 9.8 16.97 23.62 16.97 39.98 0 16.28-5.87 30.08-16.98 39.91-10.21 9.03-24.08 14.01-39.05 14.01-15.04 0-28.92-4.91-39.06-13.83C13.84 94.33 7.98 80.47 7.98 64c0-16.55 5.87-30.44 16.96-40.17C35.05 14.97 48.93 10.08 64 10.08m0-4C32.84 6.08 3.98 26.1 3.98 64c0 37.7 28.86 57.92 60.02 57.92s60.02-20.73 60.02-57.92c0-37.39-28.86-57.92-60.02-57.92z" fill="#EB8F00"/><path d="M74.34 24.51c.9-.75 1.85-1.46 2.8-2.16.98-.67 2.06-1.25 3.11-1.84 2.25-1.03 4.62-2.01 7.48-2.09.67-.09 1.44.06 2.16.11.72.03 1.46.3 2.18.52.18.06.36.11.54.18l.51.26 1.01.55c.63.42 1.24.9 1.76 1.41 1.05 1.05 1.82 2.26 2.4 3.47.26.61.52 1.22.69 1.83.19.6.33 1.23.41 1.64l.05.26c.23 1.22-.58 2.39-1.79 2.61-.98.18-1.94-.31-2.39-1.15-.33-.63-.55-1.06-.8-1.48-.24-.43-.49-.82-.74-1.19a8.939 8.939 0 0 0-1.66-1.82c-.13-.14-.31-.2-.46-.3-.16-.09-.28-.22-.45-.29-.16-.06-.32-.13-.48-.2l-.23-.11c-.08-.02-.18-.03-.26-.05-.67-.2-1.42-.29-2.24-.24-1.64-.02-3.51.65-5.38 1.27-.93.43-1.89.77-2.83 1.21-.95.46-1.9.93-2.9 1.34l-.18.08a2.25 2.25 0 0 1-2.94-1.21c-.39-.95-.11-1.99.63-2.61zM45.63 38.54c-.81.18-1.35.26-2.02.31-.64.05-1.27.07-1.91.04-1.26-.04-2.57-.25-3.76-.56-2.01-.45-3.99-.79-5.7-.82-.84.02-1.6.08-2.19.29-.6.2-1.08.46-1.58.95-1.03.95-1.98 2.75-2.96 4.62l-.01.02a2.257 2.257 0 0 1-3.06.94 2.268 2.268 0 0 1-1.17-2.39c.2-1.14.49-2.29.94-3.47.45-1.17 1.05-2.4 2.03-3.56.95-1.15 2.33-2.17 3.81-2.7 1.48-.55 2.94-.7 4.29-.67 2.69.07 5.01.77 7.2 1.57.9.35 1.75.57 2.68.75.46.08.92.15 1.38.19.43.04.98.07 1.26.08l.4.02c1.23.05 2.18 1.08 2.14 2.31a2.303 2.303 0 0 1-1.77 2.08z" fill="#EB8F00"/><path d="M43.98 91.28c1.78-1.98 6.57-4.33 13.33-4.16 8.88.22 13.74 4.2 13.74 4.2 2.89 2.44 1.59 6.13-1.52 5.77-4.98-.58-4.74-1.51-13.68-1.67-6.51-.11-9.62.9-9.9.91-1.77.06-2.5-.56-2.84-1.78-.28-1.02.01-2.3.87-3.27z" fill="#242424"/><path d="M82.32 43.78c4.42 0 8.45 3.74 8.45 9.94s-4.02 9.94-8.45 9.94c-4.42 0-8.45-3.74-8.45-9.94s4.03-9.94 8.45-9.94z" fill="#303030"/><path d="M37.23 45.49c-4.19 0-8 3.54-8 9.42s3.81 9.42 8 9.42 8-3.54 8-9.42-3.81-9.42-8-9.42z" fill="#242424"/><circle cx="79.56" cy="53.68" r="20.59" fill="#ccc" fill-opacity=".5" stroke="#404040" stroke-miterlimit="10" stroke-width="3.5"/><path d="M106.49 49.88h-5.56v9h5.56c2.69 0 5.44-1.66 5.44-4.35v-.37c0-2.7-2.75-4.28-5.44-4.28zm-.47 7.71c-1.9 0-3.45-1.49-3.45-3.33s1.54-3.33 3.45-3.33 3.45 1.49 3.45 3.33-1.54 3.33-3.45 3.33z" fill="#404040"/><path d="M94.82 52.46c-.36-3.77-2.1-7.3-4.87-9.68-2.76-2.38-6.38-3.68-10.03-3.66-3.65-.03-7.29 1.19-10.09 3.53-2.82 2.32-4.57 5.85-4.93 9.62a.48.48 0 0 1-.52.43.473.473 0 0 1-.43-.45c-.09-2.01.29-4.07 1.05-5.98.79-1.91 2.01-3.64 3.53-5.07 3.04-2.88 7.26-4.33 11.4-4.32 4.15.01 8.35 1.56 11.34 4.48 1.49 1.45 2.68 3.2 3.46 5.1.75 1.92 1.12 3.97 1.03 5.98a.47.47 0 0 1-.49.45.465.465 0 0 1-.45-.43z" fill="#fff"/><path d="M106.13 70.75h-.05c-.28 0-.5-.22-.5-.5v-4.62c0-.28.22-.5.5-.5h.05c.28 0 .5.22.5.5v4.62c0 .28-.23.5-.5.5zM106.13 78.44h-.05c-.28 0-.5-.22-.5-.5v-4.62c0-.28.22-.5.5-.5h.05c.28 0 .5.22.5.5v4.62c0 .28-.23.5-.5.5zM106.13 86.14h-.05c-.28 0-.5-.22-.5-.5v-4.62c0-.28.22-.5.5-.5h.05c.28 0 .5.22.5.5v4.62c0 .27-.23.5-.5.5zM106.13 93.83h-.05c-.28 0-.5-.22-.5-.5V88.7c0-.28.22-.5.5-.5h.05c.28 0 .5.22.5.5v4.62c0 .28-.23.51-.5.51zM106.13 101.52h-.05c-.28 0-.5-.22-.5-.5V96.4c0-.28.22-.5.5-.5h.05c.28 0 .5.22.5.5v4.62c0 .27-.23.5-.5.5zM106.13 109.21h-.05c-.28 0-.5-.23-.5-.5v-4.62c0-.27.22-.5.5-.5h.05c.28 0 .5.23.5.5v4.62c0 .27-.23.5-.5.5zM106.13 116.9h-.05c-.28 0-.5-.23-.5-.5v-4.62c0-.27.22-.5.5-.5h.05c.28 0 .5.23.5.5v4.62c0 .28-.23.5-.5.5zM106.13 62.65h-.05c-.28 0-.5-.23-.5-.5v-4.62c0-.27.22-.5.5-.5h.05c.28 0 .5.23.5.5v4.62c0 .27-.23.5-.5.5z" fill="#404040"/><circle cx="106.1" cy="64.1" r="2.61" fill="none" stroke="#404040" stroke-miterlimit="10"/><circle cx="106.1" cy="71.75" r="2.61" fill="none" stroke="#404040" stroke-miterlimit="10"/><circle cx="106.1" cy="79.41" r="2.61" fill="none" stroke="#404040" stroke-miterlimit="10"/><circle cx="106.1" cy="87.06" r="2.61" fill="none" stroke="#404040" stroke-miterlimit="10"/><circle cx="106.1" cy="94.72" r="2.61" fill="none" stroke="#404040" stroke-miterlimit="10"/><circle cx="106.1" cy="102.38" r="2.61" fill="none" stroke="#404040" stroke-miterlimit="10"/><circle cx="106.1" cy="110.03" r="2.61" fill="none" stroke="#404040" stroke-miterlimit="10"/><circle cx="106.1" cy="117.69" r="2.61" fill="none" stroke="#404040" stroke-miterlimit="10"/></svg>