<svg xmlns="http://www.w3.org/2000/svg" viewBox="0 0 128 128" width="128" height="128"><path d="M70.72 21.55H57.28c-.89 0-1.62-.73-1.62-1.62V5.62c0-.89.73-1.62 1.62-1.62h13.43c.89 0 1.62.73 1.62 1.62v14.31c.01.89-.72 1.62-1.61 1.62z" fill="#553a30"/><path d="M72.31 8.29l-16.65-.05v.78h3.67c.48 1.59 2.38 2.79 4.67 2.79s4.19-1.19 4.67-2.79l3.64.05v-.78z" fill="#785f55"/><linearGradient id="a" gradientUnits="userSpaceOnUse" x1="42.47" y1="56.255" x2="85.52" y2="56.255" gradientTransform="matrix(1 0 0 -1 0 128)"><stop offset=".115" stop-color="#e6e4d0"/><stop offset=".302" stop-color="#dedcc9"/><stop offset=".593" stop-color="#c8c6b5"/><stop offset=".792" stop-color="#b5b3a4"/></linearGradient><path d="M81.49 124H46.51c-2.23 0-4.04-1.81-4.04-4.04v-83.6c0-9.32 7.55-16.87 16.87-16.87h9.31c9.32 0 16.87 7.55 16.87 16.87v83.61c0 2.22-1.8 4.03-4.03 4.03z" fill="url(#a)"/><linearGradient id="b" gradientUnits="userSpaceOnUse" x1="42.49" y1="53.34" x2="71.93" y2="53.34" gradientTransform="matrix(1 0 0 -1 0 128)"><stop offset=".126" stop-color="#fffde7"/><stop offset=".343" stop-color="#f7f5e0"/><stop offset=".681" stop-color="#e1dfcc"/><stop offset=".878" stop-color="#d1cfbd"/></linearGradient><path d="M68.36 110.61H42.49v-71.9h25.87c1.97 0 3.57 1.6 3.57 3.57v64.76c0 1.97-1.6 3.57-3.57 3.57z" fill="url(#b)"/><path opacity=".6" fill="#f57f17" d="M42.49 97.12h29.44v6.37H42.49z"/><path opacity=".6" fill="#f9a825" d="M42.49 46.82h29.44v2.87H42.49z"/><linearGradient id="c" gradientUnits="userSpaceOnUse" x1="77.22" y1="53.34" x2="102.97" y2="53.34" gradientTransform="matrix(1 0 0 -1 0 128)"><stop offset=".122" stop-color="#d1cfbd"/><stop offset=".319" stop-color="#e1dfcc"/><stop offset=".657" stop-color="#f7f5e0"/><stop offset=".874" stop-color="#fffde7"/></linearGradient><path d="M79.12 110.61h6.4v-71.9h-6.4c-1.05 0-1.89.85-1.89 1.89v68.1c-.01 1.06.84 1.91 1.89 1.91z" fill="url(#c)"/></svg>