<svg viewBox="0 0 128 128" width="128" height="128" xmlns="http://www.w3.org/2000/svg"><radialGradient id="a" cx="63.579" cy="-2.078" r="21.79" gradientTransform="matrix(-1 0 0 1 127.46 0)" gradientUnits="userSpaceOnUse"><stop stop-color="#554138" offset=".006"/><stop stop-color="#3C2C23" offset="1"/></radialGradient><path d="M63.75 4c18.19 0 18.04 16.82 18.04 17.08 0 10.89-.83 26.28-5.19 32.33-1.73 2.4-5.07 2.53-5.07 2.53L64 55.93l-7.53.01s-3.34-.13-5.07-2.53c-4.36-6.05-5.19-21.44-5.19-32.33C46.22 20.82 45.56 4 63.75 4z" fill="url(#a)"/><path d="M63.75 6c5.03 0 8.97 1.39 11.7 4.13 4.3 4.31 4.34 10.68 4.34 10.95 0 15.78-1.71 26.85-4.81 31.16-1.06 1.47-3.25 1.68-3.5 1.7L64 53.93l-7.46.01c-.29-.02-2.46-.24-3.51-1.7-3.1-4.31-4.81-15.38-4.81-31.16v-.07c-.01-.69-.02-6.81 4.05-10.96C54.9 7.36 58.76 6 63.75 6m0-2C45.56 4 46.21 20.82 46.21 21.08c0 10.89.83 26.28 5.19 32.33 1.73 2.4 5.07 2.53 5.07 2.53l7.53-.01 7.53.01s3.34-.13 5.07-2.53c4.36-6.05 5.19-21.44 5.19-32.33 0-.26.14-17.08-18.04-17.08z" fill="#291D15"/><linearGradient id="b" x1="52.563" x2="37.494" y1="58.323" y2="91.642" gradientTransform="scale(-1 1) rotate(-9.474 -48.73 839.887)" gradientUnits="userSpaceOnUse"><stop stop-color="#8D5738" offset="0"/><stop stop-color="#97603D" offset=".216"/><stop stop-color="#A26941" offset=".573"/><stop stop-color="#A56C43" offset="1"/></linearGradient><path d="M86.55 90.45c-.14 0-.19-.04-.2-.05-.1-.1-.34-.62-.24-2.98.05-1.12-.57-2.47-1.2-3.12-.37-.39-.77-.58-1.2-.58-.08 0-.22.02-.29.03-1.08.25-1.1 1.39-1.12 2.23-.01.52-.02 1.11-.18 1.57-.01 0-.05.02-.13.02-.05 0-.49-.01-.51-.48 0-.09-.02-.22-.06-.4-.07-.33-.22-1.01-.14-2.42.08-1.6.28-3.64 1.06-5.2.11-.22.14-.48.07-.71l-5.3-19.09-2-6.52c.85-.41 2.39-1.03 3.93-1.03 1.97 0 3.32 1.01 4.11 3.1 1.35 3.55 2.19 7.86 2.64 13.57.33 4.15.9 8.03 1.23 9.06.09.29.17.53.23.74.32 1.03.43 1.41 1.75 4.18.62 1.3.37 2.61.05 4.27-.11.56-.21 1.13-.3 1.74-.12.96-1.42 2.07-2.2 2.07z" fill="url(#b)"/><path d="M79.05 52.7c1.04 0 2.35.28 3.17 2.45 1.32 3.46 2.14 7.68 2.58 13.29.34 4.36.93 8.21 1.28 9.29.09.29.16.52.23.72.35 1.15.51 1.6 1.8 4.31.45.96.29 1.96-.03 3.65-.11.56-.22 1.15-.3 1.78-.04.3-.36.68-.67.93a16 16 0 0 1 .01-1.69c.05-1.27-.58-2.93-1.48-3.86-.7-.73-1.43-.89-1.92-.89-.17 0-.35.02-.51.06-.34.08-.61.2-.84.36.12-1.24.35-2.57.88-3.63.22-.44.27-.95.14-1.43l-5.3-19.09c0-.02-.01-.03-.01-.05l-1.73-5.65c.74-.26 1.73-.55 2.7-.55m0-2c-2.62 0-5.13 1.54-5.13 1.54l2.23 7.29 5.3 19.09c-.89 1.77-1.08 3.97-1.17 5.6-.1 1.98.2 2.68.21 2.92.04.95.81 1.44 1.51 1.44.47 0 .92-.23 1.08-.69.46-1.32-.02-3.02.57-3.16.02-.01.05-.01.07-.01.59 0 1.44 1.62 1.4 2.66-.08 2 .02 3.35.64 3.82.23.17.51.25.8.25 1.29 0 3-1.47 3.2-2.97.34-2.48 1.14-4.48.15-6.56-1.55-3.27-1.38-3.1-1.93-4.79-.26-.82-.84-4.47-1.19-8.83-.39-4.97-1.12-9.69-2.71-13.85-1.09-2.91-3.09-3.75-5.03-3.75z" fill="#875334"/><linearGradient id="c" x1="33.617" x2="33.653" y1="90.016" y2="90.016" gradientTransform="scale(-1 1) rotate(-9.474 -48.73 839.887)" gradientUnits="userSpaceOnUse"><stop stop-color="#FFB300" offset="0"/><stop stop-color="#FFCA28" offset=".401"/></linearGradient><path d="M90.9 86.81c.01-.15.01-.26.01-.26s.01.28-.01.26z" fill="url(#c)"/><path d="M90.91 86.55s0 .11-.01.26c.02 0 .01-.26.01-.26z" fill="#EDA600"/><linearGradient id="d" x1="47.822" x2="32.94" y1="57.354" y2="90.759" gradientTransform="rotate(-9.474 17.648 38.807)" gradientUnits="userSpaceOnUse"><stop stop-color="#8D5738" offset="0"/><stop stop-color="#97603D" offset=".216"/><stop stop-color="#A26941" offset=".573"/><stop stop-color="#A56C43" offset="1"/></linearGradient><path d="M41.45 90.45c-.78 0-2.08-1.11-2.21-2.1-.08-.6-.19-1.18-.3-1.74-.31-1.66-.56-2.97.05-4.27 1.31-2.76 1.43-3.15 1.75-4.18.06-.21.14-.44.23-.74.33-1.03.9-4.92 1.23-9.06.45-5.71 1.29-10.02 2.64-13.57.79-2.08 2.14-3.1 4.11-3.1 1.55 0 3.09.62 3.93 1.03l-1.99 6.5-5.31 19.11a.97.97 0 0 0 .07.71c.78 1.56.98 3.6 1.06 5.2.08 1.41-.07 2.09-.14 2.42-.04.18-.06.31-.06.4-.02.47-.46.48-.51.48-.08 0-.13-.02-.14-.03-.15-.44-.16-1.04-.17-1.56-.01-.84-.03-1.99-1.12-2.23-.07-.02-.22-.03-.29-.03-.43 0-.83.2-1.2.58-.63.65-1.25 2-1.2 3.12.1 2.36-.14 2.88-.25 2.99 0 .03-.05.07-.18.07z" fill="url(#d)"/><path d="M48.95 52.7c.97 0 1.96.29 2.72.59l-1.73 5.65c-.01.02-.01.03-.01.05l-5.3 19.09c-.13.48-.08.99.14 1.43.53 1.05.76 2.39.88 3.63-.23-.16-.5-.29-.84-.36a2.22 2.22 0 0 0-.51-.06c-.49 0-1.22.15-1.92.89-.89.93-1.53 2.59-1.48 3.86.03.78.03 1.32.01 1.69-.32-.26-.63-.63-.67-.93-.09-.64-.2-1.22-.3-1.78-.32-1.69-.48-2.7-.03-3.65 1.29-2.71 1.45-3.16 1.8-4.31.06-.2.13-.44.23-.72.35-1.08.93-4.93 1.28-9.29.44-5.61 1.26-9.83 2.58-13.29.8-2.21 2.11-2.49 3.15-2.49m0-2c-1.94 0-3.94.84-5.04 3.74-1.58 4.16-2.31 8.88-2.71 13.85-.35 4.36-.92 8.01-1.19 8.83-.55 1.69-.37 1.52-1.93 4.79-.98 2.09-.18 4.09.16 6.57.2 1.49 1.91 2.97 3.2 2.97.3 0 .57-.08.8-.25.62-.47.72-1.82.64-3.82-.04-1.04.81-2.66 1.4-2.66.02 0 .05 0 .07.01.59.14.11 1.84.57 3.16.16.46.6.69 1.08.69.7 0 1.46-.49 1.51-1.44.01-.24.31-.94.21-2.92-.09-1.63-.28-3.82-1.17-5.6l5.3-19.09 2.23-7.29s-2.5-1.54-5.13-1.54z" fill="#875334"/><linearGradient id="e" x1="28.923" x2="28.959" y1="89.232" y2="89.232" gradientTransform="rotate(-9.474 17.648 38.807)" gradientUnits="userSpaceOnUse"><stop stop-color="#FFB300" offset="0"/><stop stop-color="#FFCA28" offset=".401"/></linearGradient><path d="M37.1 86.81c-.01-.15-.01-.26-.01-.26s-.01.28.01.26z" fill="url(#e)"/><path d="M37.09 86.55s-.01.26.01.26c-.01-.15-.01-.26-.01-.26z" fill="#EDA600"/><path d="M70.24 121.41l-4.79-35.06c-.14-.76-.75-1.27-1.45-1.27s-1.31.51-1.44 1.22l-4.8 35.11-5.76.24-.96-46.03h25.91L76 121.65l-5.76-.24z" fill="#7C7C7C"/><path d="M75.93 76.61l-.92 43.99-3.9-.16-4.68-34.23c0-.03-.01-.06-.02-.1-.22-1.18-1.24-2.04-2.43-2.04s-2.2.86-2.43 2.04c-.01.03-.01.06-.02.1l-4.68 34.23-3.9.16-.92-43.99h23.9m2.05-2zm0 0H50.02l1 48.08 7.61-.32 4.91-35.89c.04-.24.24-.41.46-.41s.42.17.46.41l4.91 35.89 7.61.32 1-48.08z" fill="#5B5B5B"/><g fill="#2B2D2D"><path d="M73.02 124h4.45c.82-.02 1.41-.96 1.17-1.78-.74-2.49-2.99-4.32-5.62-4.32-2.68 0-4.96 1.9-5.66 4.46-.22.82.39 1.63 1.21 1.63h4.45zM54.98 124h-4.45c-.82-.02-1.41-.96-1.17-1.78.74-2.49 2.99-4.32 5.62-4.32 2.68 0 4.96 1.9 5.66 4.46.22.82-.39 1.63-1.21 1.63h-4.45z"/></g><linearGradient id="f" x1="63.462" x2="63.462" y1="44.814" y2="77" gradientTransform="matrix(-1 0 0 1 127.46 0)" gradientUnits="userSpaceOnUse"><stop stop-color="#a0f" offset="0"/><stop stop-color="#A100F2" offset=".419"/><stop stop-color="#9000D9" offset="1"/></linearGradient><path d="M51.04 77V60.72c0-.4-.24-.76-.6-.92l-6.5-2.82c2.16-5.74 4.08-9.38 10.7-11.14 2.52-.67 5.74-1.03 9.32-1.03h.16c3.6 0 6.71.35 9.27 1.03 6.58 1.75 8.49 5.4 10.66 11.15l-6.41 2.82c-.36.16-.6.52-.6.92V77h-26z" fill="url(#f)"/><path d="M64.13 45.81c3.46 0 6.58.34 9.01.99 5.8 1.54 7.67 4.58 9.64 9.65l-5.54 2.44c-.73.32-1.19 1.04-1.19 1.83V76h-24V60.72c0-.8-.47-1.52-1.2-1.83l-5.62-2.44c1.97-5.05 3.85-8.09 9.68-9.64 2.44-.65 5.57-.99 9.06-.99h.08l.08-.01m0-2h-.16c-3.96 0-7.18.42-9.57 1.06-7.55 2.01-9.46 6.56-11.71 12.65l7.37 3.2V78h28V60.72l7.28-3.2c-2.25-6.09-4.12-10.64-11.67-12.65-2.41-.64-5.58-1.06-9.54-1.06z" fill="#7F00BF"/><path d="M63.34 49.85c-2.23 0-4.04-1.72-4.04-3.84v-4.8h9v4.8c0 2.12-1.82 3.84-4.05 3.84h-.91z" fill="#7A4C32"/><path d="M67.8 41.72v4.3c0 1.84-1.59 3.34-3.55 3.34h-.91c-1.95 0-3.55-1.5-3.55-3.34v-4.3h8.01m1-1h-10v5.3c0 2.4 2.04 4.34 4.55 4.34h.91c2.51 0 4.55-1.94 4.55-4.34v-5.3h-.01z" fill="#663B22"/><linearGradient id="g" x1="63.598" x2="63.598" y1="43.224" y2="8.753" gradientTransform="matrix(-1 0 0 1 127.46 0)" gradientUnits="userSpaceOnUse"><stop stop-color="#8D5738" offset="0"/><stop stop-color="#97603D" offset=".216"/><stop stop-color="#A26941" offset=".573"/><stop stop-color="#A56C43" offset="1"/></linearGradient><path d="M63.87 43.47c-1.01 0-2.15-.22-3.32-.62-5.02-1.77-10.88-7.21-10.88-16.75 0-12.7 7.65-17.2 14.19-17.2 6.55 0 14.19 4.51 14.19 17.2 0 9.53-5.85 14.97-10.86 16.75-1.16.4-2.31.62-3.32.62z" fill="url(#g)"/><path d="M63.87 9.39c6.32 0 13.69 4.37 13.69 16.7 0 9.26-5.67 14.56-10.52 16.28-1.12.39-2.21.6-3.17.6-.95 0-2.04-.21-3.15-.6-4.86-1.71-10.54-7-10.54-16.28-.01-12.32 7.37-16.7 13.69-16.7m0-1c-7.63 0-14.69 5.67-14.69 17.7 0 9.67 6 15.39 11.21 17.23 1.23.43 2.43.65 3.48.65 1.06 0 2.26-.22 3.5-.66 5.21-1.84 11.19-7.56 11.19-17.22 0-12.03-7.07-17.7-14.69-17.7z" fill="#875334"/><g fill="#42312C"><ellipse cx="71.21" cy="28.33" rx="2.16" ry="2.24"/><ellipse cx="56.79" cy="28.33" rx="2.16" ry="2.24"/></g><path d="M62.31 32.4c.05-.02.09-.03.14-.04h3.1c.05.01.09.02.14.04.28.11.44.4.3.71-.13.31-.75 1.18-1.99 1.18s-1.86-.87-1.99-1.18c-.14-.3.02-.59.3-.71z" fill="#875334"/><g fill="#42312C"><path d="M68 24.32c.41-.54 1.36-1.34 3.21-1.34 1.84 0 2.8.79 3.21 1.34.18.24.14.52.01.69-.12.16-.46.3-.84.17s-1.13-.51-2.37-.52c-1.25.01-1.99.39-2.37.52s-.73-.02-.84-.17a.54.54 0 0 1-.01-.69zM53.59 24.32c.41-.54 1.36-1.34 3.21-1.34s2.8.79 3.21 1.34c.18.24.14.52.01.69-.12.16-.46.3-.84.17s-1.13-.51-2.37-.52c-1.25.01-1.99.39-2.37.52s-.73-.02-.84-.17a.54.54 0 0 1-.01-.69z"/></g><radialGradient id="h" cx="153.53" cy="3.441" r="16.514" gradientTransform="matrix(0 1 -.9288 0 67.196 -150.09)" gradientUnits="userSpaceOnUse"><stop stop-color="#554138" offset=".006"/><stop stop-color="#3C2C23" offset="1"/></radialGradient><path d="M79.69 22.14c0-5.82-3.82-15.59-15.54-15.59-12.12 0-15.84 11.34-15.84 15.59 0 12.82 1.15 19.17 2.42 21.79.24.5.96.73 1.19-.47 0 0-.9-7.77-1-13.31-.02-1.29-.42-6.09 2.29-6.69 9.92-2.23 15.53-7.49 15.53-7.49 1.46 3.19 6.02 6.29 7.66 7.48 1.35.97 1.16 4.97 1.13 6.67l-1.35 13.32s.08 3.17 1.39.5c1.31-2.68 2.12-17.5 2.12-21.8z" fill="url(#h)"/><path d="M60.31 35.99c1.4.83 5.97.83 7.37 0 .8-.48 1.62.25 1.29.98-.33.72-2.82 2.38-4.98 2.38s-4.62-1.66-4.95-2.38c-.34-.73.47-1.46 1.27-.98z" fill="#473530"/></svg>