<svg viewBox="0 0 128 128" width="128" height="128" xmlns="http://www.w3.org/2000/svg"><linearGradient id="a" x1="64" x2="64" y1="19.717" y2="107.7" gradientUnits="userSpaceOnUse"><stop stop-color="#FEE133" offset=".5"/><stop stop-color="#FEDE32" offset=".612"/><stop stop-color="#FCD32F" offset=".708"/><stop stop-color="#FAC12B" offset=".797"/><stop stop-color="#F7A924" offset=".883"/><stop stop-color="#F6A323" offset=".9"/></linearGradient><path d="M64 119.89C36.07 119.89 6 102.4 6 64S36.07 8.11 64 8.11c15.48 0 29.81 5.12 40.36 14.43C115.9 32.72 122 47.06 122 64c0 16.86-6.1 31.17-17.64 41.39-10.58 9.35-24.91 14.5-40.36 14.5z" fill="url(#a)"/><path d="M64 10.11c14.99 0 28.86 4.95 39.03 13.93C114.13 33.83 120 47.65 120 64c0 16.27-5.87 30.07-16.97 39.89-10.21 9.03-24.07 14-39.03 14-15.04 0-28.9-4.91-39.04-13.82C13.86 94.32 8 80.46 8 64c0-16.54 5.86-30.42 16.96-40.15C35.07 14.99 48.93 10.11 64 10.11m0-4c-31.15 0-60 20-60 57.89 0 37.68 28.85 57.89 60 57.89s60-20.73 60-57.89c0-37.37-28.85-57.89-60-57.89z" fill="#EB8F00"/><path d="M27.12 45.57c.37-.84.71-1.43 1.14-2.09.43-.63.9-1.24 1.44-1.81a12.47 12.47 0 0 1 3.95-2.86c1.55-.71 3.34-1.06 5.07-.98 1.74.08 3.38.55 4.81 1.23l.96.48c.26.14.53.27.8.39.53.25 1.06.49 1.6.71 1.07.44 2.15.78 3.2 1.01.53.11 1.05.19 1.56.24.25.02.51.04.75.03.3 0 .34-.01.54-.03.34-.04.77-.2 1.19-.42.41-.19.93-.53 1.22-.75l.2-.15a2.233 2.233 0 1 1 2.9 3.38c-.66.66-1.2 1.1-1.9 1.58-.69.44-1.45.86-2.37 1.13-.43.14-1.04.23-1.39.28-.4.05-.8.08-1.2.1-.79.04-1.57-.01-2.32-.09-1.52-.16-2.96-.52-4.33-.98-.69-.23-1.36-.47-2.02-.76-.63-.25-1.39-.64-1.78-.77-1.9-.78-3.57-.85-5.26-.27-.84.31-1.7.78-2.54 1.41-.41.32-.83.66-1.22 1.04-.38.35-.81.82-1.1 1.1l-.31.31c-.87.87-2.28.87-3.15 0-.64-.66-.79-1.65-.44-2.46z" fill="#EB8F00"/><g fill="#242424"><path d="M83.5 46.05c3.69 0 7.04 4.33 7.04 11.5s-3.35 11.5-7.04 11.5-7.04-4.33-7.04-11.5 3.35-11.5 7.04-11.5zM44.5 51c3.69 0 7.04 3.4 7.04 9.03s-3.35 9.03-7.04 9.03-7.04-3.4-7.04-9.03S40.81 51 44.5 51z"/></g><path d="M94.63 35.73c-.79-1.09-1.34-2.13-1.93-3.03-.56-.9-1.13-1.66-1.66-2.14-.27-.22-.52-.38-.74-.5-.23-.09-.45-.16-.71-.18-.52-.06-1.26.03-2.09.31-.84.26-1.74.64-2.65 1.14-.92.46-1.83 1.03-2.76 1.61-1.85 1.17-3.69 2.48-5.61 3.75l-.02.02c-1.04.69-2.44.41-3.13-.63-.57-.87-.47-1.98.18-2.73 1.59-1.82 3.35-3.5 5.31-5.03 1.97-1.52 4.13-2.93 6.9-3.85 1.39-.41 3.01-.72 4.81-.41.9.17 1.79.49 2.59.95.79.47 1.46 1.05 2.01 1.66 1.08 1.23 1.71 2.5 2.21 3.67.48 1.18.86 2.29 1.19 3.24l.04.12a2.25 2.25 0 0 1-1.39 2.87c-.95.31-1.98-.05-2.55-.84z" fill="#EB8F00"/><path fill="none" stroke="#242424" stroke-linecap="round" stroke-linejoin="round" stroke-miterlimit="10" stroke-width="8" d="M53 92h22"/></svg>