<svg viewBox="0 0 128 128" width="128" height="128" xmlns="http://www.w3.org/2000/svg" xmlns:xlink="http://www.w3.org/1999/xlink"><linearGradient id="a" x1="64" x2="64" y1="9.896" y2="119.11" gradientUnits="userSpaceOnUse"><stop stop-color="#FF1908" offset=".001"/><stop stop-color="#F71A09" offset=".273"/><stop stop-color="#E01B0E" offset=".703"/><stop stop-color="#CC1D11" offset="1"/></linearGradient><path fill="url(#a)" d="M36.22 9h55.56v110H36.22z"/><defs><path id="b" d="M36.22 9h55.56v110H36.22z"/></defs><clipPath id="c"><use xlink:href="#b"/></clipPath><path d="M84.31 24.79H43.69c-5.17 0-9.4-4.23-9.4-9.4V9.23c0-5.17 4.23-9.4 9.4-9.4H84.3c5.17 0 9.4 4.23 9.4 9.4v6.16c.01 5.17-4.22 9.4-9.39 9.4z" clip-path="url(#c)" fill="#A1001E"/><path d="M71.69 28.52c.53-.98.83-3.09.83-4.24 0-4.15-3.82-7.52-8.53-7.52s-8.53 3.37-8.53 7.52c0 1.16.3 3.27.83 4.24h15.4z" clip-path="url(#c)" fill="#A1001E"/><path clip-path="url(#c)" fill="none" stroke="#C40024" stroke-linecap="round" stroke-linejoin="round" stroke-miterlimit="10" stroke-width="1.915" d="M52.83 28.35h22.34"/><path d="M88.96 11.82v104.36H39.04V11.82h49.92M91.78 9H36.22v110h55.56V9z" fill="#424242" opacity=".2"/><linearGradient id="d" x1="49.373" x2="78.627" y1="51.305" y2="80.028" gradientUnits="userSpaceOnUse"><stop stop-color="#FFD500" offset=".001"/><stop stop-color="#FFCD00" offset=".308"/><stop stop-color="#FFB600" offset=".796"/><stop stop-color="#fa0" offset="1"/></linearGradient><path d="M64 48c9.76 0 17.67 7.91 17.67 17.67S73.76 83.33 64 83.33s-17.67-7.91-17.67-17.67S54.24 48 64 48m0-2.84c-11.31 0-20.51 9.2-20.51 20.51s9.2 20.5 20.51 20.5 20.51-9.2 20.51-20.51-9.2-20.5-20.51-20.5z" fill="url(#d)"/><linearGradient id="e" x1="50.82" x2="78.756" y1="65.396" y2="65.396" gradientUnits="userSpaceOnUse"><stop stop-color="#FFD500" offset=".001"/><stop stop-color="#FBCD00" offset=".115"/><stop stop-color="#F1B600" offset=".297"/><stop stop-color="#E39700" offset=".485"/><stop stop-color="#EAA700" offset=".592"/><stop stop-color="#F9C800" offset=".856"/><stop stop-color="#FFD500" offset="1"/></linearGradient><linearGradient id="f" x1="50.346" x2="79.23" y1="65.396" y2="65.396" gradientUnits="userSpaceOnUse"><stop stop-color="#FFD500" offset=".001"/><stop stop-color="#FBCD00" offset=".115"/><stop stop-color="#F1B600" offset=".297"/><stop stop-color="#E39700" offset=".485"/><stop stop-color="#EAA700" offset=".592"/><stop stop-color="#F9C800" offset=".856"/><stop stop-color="#FFD500" offset="1"/></linearGradient><path d="M67.64 71.81c-.71-.43-1.06-.8-1.06-1.09 0-.21.25-.51.74-.9.56-.43 1.11-.98 1.62-1.64 1.72-2.36 3.14-4.07 4.24-5.13 1.01-.97 2.1-1.8 3.27-2.48 1.01-.58 1.69-.86 2.04-.86.17 0 .25.04.25.13-1.5 1.13-2.85 2.4-4.05 3.78-.86.89-2.21 2.64-4.06 5.25-.65.87-.97 1.36-.97 1.46 0 .12.09.18.28.18s.43-.05.73-.14c1.38-.47 2.68-.86 3.9-1.19.46-.16.76-.23.89-.23.29 0 .69.13 1.2.38.58.32.87.59.86.82 0 .18-.23.29-.69.33-1.63.11-3.08.34-4.33.69-.95.17-1.89.49-2.84.95-.31.16-.54.24-.69.24-.19 0-.64-.18-1.33-.55zm3.52 5.72c-1.07-.27-1.87-.56-2.4-.88-.47-.37-.7-.87-.7-1.49.01-.79.34-1.19.99-1.18.28 0 .58.13.9.37.6.44 1.44 1.37 2.53 2.79.14.15.21.26.21.33-.05.19-.15.28-.31.28-.37-.02-.78-.08-1.22-.22zm-.33-12.12c-.56-.73-.83-1.22-.83-1.47 0-.09.06-.34.18-.75.14-.54.22-1.92.24-4.12l-.11-3.55c0-.43.13-.99.39-1.69.16-.52.35-.78.55-.78.27 0 .52.3.74.88.38.88.57 1.5.56 1.86-.02.14-.11.44-.25.92-.33.93-.51 2.93-.53 5.99-.01 1.08.16 2.15.49 3.22 0 .23-.16.34-.48.33-.14.02-.46-.27-.95-.84zm-.92-1.34c-.56-.14-1.1-.3-1.63-.48-.7-.27-1.16-.52-1.38-.75a.966.966 0 0 1-.25-.65c0-.25.07-.53.19-.85.15-.23.33-.34.56-.34.09 0 .23.06.41.18.3.17.67.52 1.12 1.05.6.67 1.05 1.12 1.35 1.35.24.17.36.29.36.38 0 .12-.05.19-.14.19a6.24 6.24 0 0 1-.59-.08zm-4.12.66s-.16-.06-.49-.19c-.72-.26-1.07-.56-1.07-.91 0-.44-.01-.9-.05-1.39-.25-2.94-.37-4.97-.37-6.09 0-.34.06-.62.16-.82.11-.22.23-.33.38-.33.17 0 .33.14.5.41.25.35.38.73.4 1.12l.3 2.77c.12 1.44.24 2.45.38 3.03.09.6.32 1.15.69 1.65.14.14.22.23.21.29 0 .31-.14.47-.4.47-.43-.01-.64-.01-.64-.01zm-.25-.14l-.37-.06c-.27-.06-.46-.09-.59-.1-.29 0-3.49.41-9.61 1.24-.37.07-.76.17-1.16.29-.25.09-.41.13-.47.13-.17 0-.75-.34-1.76-1-.51-.35-.77-.68-.77-.96 0-.15.07-.36.2-.61.19-.49.32-1.21.4-2.13l.25-3.23c.09-1.53.42-2.66.99-3.39.5-.64.95-.96 1.34-.96l.19 3.06c-.13 0-.25.23-.36.7-.19 1.03-.29 2.63-.31 4.78-.01.87.07 1.48.24 1.83.17.15.52.22 1.06.23.68 0 1.96-.07 3.82-.23 1.86-.19 3.45-.42 4.76-.69.37-.1.63-.15.78-.15.4 0 .82.12 1.28.35.37.25.56.46.56.62 0 .19-.09.28-.28.28h-.19zm-1.52 6.98s-.15-.06-.45-.17c-.65-.23-.97-.51-.97-.83 0-.19-.01-.39-.04-.59-.19-1.26-.29-2.13-.29-2.6 0-.31.05-.56.15-.75.1-.2.21-.3.34-.3.15 0 .3.12.45.37.22.32.35.66.36 1.02l.27 1.23c.1.64.22 1.09.34 1.34.08.26.28.51.6.73.12.06.19.1.19.13 0 .29-.12.43-.37.43-.38-.01-.58-.01-.58-.01zm-9 4.95c-.38-.17-.57-.38-.57-.62 0-.17.2-.31.59-.4.45-.17 1.46-.38 3.02-.64 2.36-.35 3.9-.53 4.61-.52.85.01 1.44.11 1.77.3.33.23.49.44.49.61 0 .14-.29.22-.86.24-1.35.13-2.83.36-4.44.68-1.12.21-2.03.43-2.73.66-.25.09-.41.14-.49.14-.36-.01-.82-.16-1.39-.45zm-.92-14.89c-.6-.22-.9-.41-.9-.56 0-.25.37-.44 1.1-.59.83-.06 1.53-.12 2.1-.17.51-.06 1.82-.21 3.92-.45 1.15-.12 1.97-.18 2.48-.17.47 0 .86.05 1.17.15.47.16.7.33.7.52 0 .28-.37.43-1.1.46-2.41.23-4.75.53-7.03.91-.67.09-1.04.14-1.1.14-.23 0-.67-.08-1.34-.24zm1.14 11.32s-.26-.17-.77-.51c-.64-.45-.97-.79-.96-1.01 0-.06.08-.15.23-.28.22-.15.39-.39.52-.69.26-.5.55-1.21.85-2.14.1-.23.33-.42.7-.56.3-.07.54-.11.73-.11.06 0 .15.04.28.12.07.15.11.24.11.26 0 .03-.03.11-.08.23-.16.43-.31.97-.45 1.62-.14.59-.21 1.02-.21 1.3 0 .3.29.46.89.46.34 0 1.26-.14 2.77-.42 2.05-.39 3.12-.58 3.21-.58.32 0 .59.1.81.3.23.18.34.33.34.45 0 .16-.13.25-.39.26h-.39c-1.02.06-2.2.19-3.54.4-1.25.22-2.37.46-3.36.72-.43.13-.73.19-.9.19-.26-.01-.39-.01-.39-.01zM55 57.65s-.28-.14-.85-.42c-.44-.3-.67-.56-.67-.76 0-.14.14-.21.41-.21 1.1.01 2.11-.03 3.02-.12l4.26-.28c.78-.06 1.37-.09 1.79-.09.53 0 .89.1 1.08.3.19.19.28.37.28.54 0 .24-.15.36-.46.36-2.24.08-4.33.25-6.27.51-1.07.12-1.79.17-2.14.17H55zm1.29 11.05s-.26-.13-.79-.39c-.41-.28-.62-.51-.61-.7 0-.14.1-.21.3-.21.81.01 1.55-.04 2.22-.12l3.13-.29c.57-.07 1.01-.1 1.31-.1.49 0 .82.09.99.27.18.18.26.35.26.5 0 .22-.14.33-.42.33-1.6.09-3.08.27-4.46.53-.76.12-1.27.18-1.52.18-.27.01-.41 0-.41 0zm2.53-4.62c-.41-.21-.61-.44-.61-.69 0-.17.03-.34.1-.53.08-.38.13-.69.13-.94l.07-5.34 1.48.01.4 5.99c.02.29.12.6.3.93.14.17.21.29.21.37 0 .37-.2.56-.59.55-.41 0-.9-.12-1.49-.35zm-3.66-6.96c-.48-.18-.81-.26-.98-.26L54 53.79c.22 0 .38.17.5.51.35.97.67 1.74.98 2.31.14.23.2.38.2.47 0 .14-.07.21-.21.21-.04 0-.14-.05-.31-.17z" fill="url(#e)" stroke="url(#f)" stroke-miterlimit="10" stroke-width=".947"/></svg>