<svg viewBox="0 0 128 128" width="128" height="128" xmlns="http://www.w3.org/2000/svg" xmlns:xlink="http://www.w3.org/1999/xlink"><defs><path id="a" d="M4 4h120v120H4z"/></defs><clipPath id="b"><use xlink:href="#a"/></clipPath><g clip-path="url(#b)"><linearGradient id="c" x1="4" x2="124" y1="93.072" y2="93.072" gradientUnits="userSpaceOnUse"><stop stop-color="#3A3233" offset=".003"/><stop stop-color="#2D2728" offset=".333"/><stop stop-color="#0B0909" offset=".941"/><stop stop-color="#070606" offset="1"/></linearGradient><path d="M4 74.82s23.95-9.01 60-8.84c17.58.08 37.33 3.02 60 8.84 0 0-23.39 45.35-60 45.35S7.92 83.79 4 74.82z" fill="url(#c)"/></g><g clip-path="url(#b)"><linearGradient id="d" x1="63.864" x2="63.864" y1="67.478" y2="109.96" gradientUnits="userSpaceOnUse"><stop stop-color="#F70000" offset=".003"/><stop stop-color="#F30000" offset=".235"/><stop stop-color="#E90000" offset=".443"/><stop stop-color="#D60000" offset=".642"/><stop stop-color="#BD0000" offset=".834"/><stop stop-color="#A00000" offset="1"/></linearGradient><path d="M63.83 110.33c-30.67 0-50.61-21.85-57.69-34.67 5.85-1.92 27.19-8.19 56.82-8.19 19.81 0 39.52 2.76 58.63 8.2-5.11 7.14-26.84 34.66-57.76 34.66z" fill="url(#d)"/><path d="M62.97 65.98v3c18.95 0 37.81 2.54 56.12 7.56-6.71 8.86-27.14 32.29-55.25 32.29-14.91 0-28.45-5.01-40.25-14.88-7.85-6.57-12.77-13.53-15.17-17.44 2.7-.83 6.97-2.03 12.52-3.22 9.22-1.97 24-4.32 42.03-4.32v-2.99m-.01 0C27.41 65.98 4 74.82 4 74.82c3.92 7.81 23.23 37.01 59.83 37.01S124 74.82 124 74.82a215.328 215.328 0 0 0-61.04-8.84z" fill="#BF0000"/></g><g clip-path="url(#b)"><radialGradient id="e" cx="71.117" cy="61.199" r="23.207" gradientUnits="userSpaceOnUse"><stop stop-color="#5B3127" offset="0"/><stop stop-color="#3D1C16" offset="1"/></radialGradient><path d="M93.38 87.11c.53-.58 1.11-1.11 1.91-1.13 1.32-.03 3.36-.25 4.97-1.22.47-.28.87-.67 1.17-1.14-1.13-.23-2.68-.89-3.73-2.93-1.6-3.1.25-5.95 3.32-9.12 3.46-3.57 9.21-15.82 3.1-26.74-1.15-.17-17.81.08-22.03.08H64.1v49.71c19.76 0 23.67-1.29 29.28-7.51z" fill="url(#e)"/></g><g clip-path="url(#b)"><radialGradient id="f" cx="50.985" cy="64.699" r="23.25" gradientUnits="userSpaceOnUse"><stop stop-color="#5B3127" offset="0"/><stop stop-color="#3D1C16" offset="1"/></radialGradient><path d="M34.82 87.11c-.53-.58-1.11-1.11-1.91-1.13-1.32-.03-3.36-.25-4.97-1.22a3.54 3.54 0 0 1-1.17-1.14c1.13-.23 2.75-.86 3.73-2.93 1.6-3.35-.67-6.33-3.32-9.12-4.33-4.57-9.21-15.82-3.1-26.74 1.15-.17 17.81.08 22.03.08H64.1v49.71c-19.76 0-23.67-1.29-29.28-7.51z" fill="url(#f)"/></g><g clip-path="url(#b)" fill="#2B1512"><path d="M102.88 46.67l.26.5c5.42 10.4-.55 20.63-3.19 23.36-2.96 3.05-5.7 6.73-3.58 10.85.55 1.07 1.27 1.93 2.13 2.56-1.18.42-2.47.52-3.24.54-1.56.04-2.56 1.15-2.99 1.63-3.4 3.77-5.97 5.63-13.09 6.45 0 0-3.69 1.89-6.24 2.53V96c12.46-.45 16.47-2.23 21.56-7.88.39-.44.65-.63.83-.64 1.58-.04 3.84-.32 5.7-1.43.67-.4 1.24-.96 1.67-1.63l1.17-1.85-2.14-.43c-1.19-.24-2.07-.94-2.69-2.14-1.04-2.01-.2-4.01 3.07-7.39 4.05-4.18 9.28-14.94 3.97-25.89 0 0 0-.02.01-.05h-3.21zM26.09 72.6c2.71 2.86 4.17 5.1 3.06 7.44-.56 1.17-1.43 1.86-2.67 2.1l-2.14.43 1.17 1.85c.42.67 1 1.23 1.67 1.63 1.86 1.11 4.13 1.39 5.7 1.43.18 0 .44.2.83.64 5.07 5.62 9.06 7.42 21.39 7.88v-.95c-2.15-.6-6.08-2.48-6.08-2.48-7.12-.82-9.69-2.68-13.09-6.45-.43-.48-1.43-1.59-2.99-1.63-.76-.02-2.04-.12-3.21-.53.89-.65 1.61-1.53 2.13-2.61 2.22-4.67-1.56-8.66-3.59-10.8-3.84-4.05-8.03-13.55-3.8-23.12l.29-.65-.05-.09h-3.32c.02.06.04.11.07.17-4.37 10.67.32 21.2 4.63 25.74z"/></g><g clip-path="url(#b)"><linearGradient id="g" x1="64" x2="64" y1="91.576" y2="130.5" gradientUnits="userSpaceOnUse"><stop stop-color="#3A3233" offset=".003"/><stop stop-color="#2D2728" offset=".333"/><stop stop-color="#0B0909" offset=".941"/><stop stop-color="#070606" offset="1"/></linearGradient><path d="M13.5 130.5v-9.51c0-18.86 31.78-22.51 41.52-23.18a1.5 1.5 0 0 0 1.4-1.5v-4.74h15.16v4.76c0 .79.61 1.44 1.39 1.5 19.16 1.42 41.53 8.34 41.53 23.16v9.51h-101z" fill="url(#g)"/><path d="M70.08 93.08v3.26c0 1.57 1.21 2.88 2.78 2.99 11.4.85 21.61 3.35 28.75 7.04 7.56 3.91 11.39 8.83 11.39 14.62V129H15v-8.01c0-6.13 3.84-11.18 11.4-15 7.06-3.57 16.99-5.88 28.72-6.68a3.002 3.002 0 0 0 2.79-2.99v-3.24h12.17m3-3H54.92v6.24C32.49 97.86 12 105.21 12 120.99V132h104v-11.01c0-14.91-20.39-22.98-42.92-24.65v-6.26z" fill="#2E2629"/></g><g clip-path="url(#b)"><path fill="#F8F8F7" d="M51.06 97.17l.27 26.83h25l.53-26.83L72.93 96l.15-5.92H54.92l.18 5.91z"/><path d="M42.73 103.52S49 110.37 64 110.37c15.33 0 21.24-6.85 21.24-6.85" fill="none" stroke="#FFCB13" stroke-linecap="round" stroke-linejoin="round" stroke-miterlimit="10" stroke-width="2"/><path d="M42.73 103.52S49 118.87 64 118.87c15.33 0 21.25-15.35 21.25-15.35" fill="none" stroke="#FFCB13" stroke-linecap="round" stroke-linejoin="round" stroke-miterlimit="10" stroke-width="2"/><g fill="#F19102"><circle cx="42.75" cy="104.52" r="3.69"/><circle cx="85.25" cy="104.52" r="3.69"/></g></g><path d="M12 120.99V132h104v-11.01C116 104.1 89.81 95.97 64 96c-25.65.03-52 7.1-52 24.99z" clip-path="url(#b)" fill="none"/><path d="M12.54 121.29v11.01h102.93v-11.01c0-16.89-25.69-25.65-51.55-25.6-25.63.06-51.38 7.71-51.38 25.6z" clip-path="url(#b)" fill="none"/><g clip-path="url(#b)"><path d="M36.67 72.26c-5.36 0-9.71-4.67-9.71-10.41s4.36-10.41 9.71-10.41h54.65c5.36 0 9.71 4.67 9.71 10.41s-4.36 10.41-9.71 10.41H36.67z" fill="#8E4A30"/><path d="M91.33 52.43c4.8 0 8.71 4.22 8.71 9.41s-3.91 9.41-8.71 9.41H36.67c-4.8 0-8.71-4.22-8.71-9.41s3.91-9.41 8.71-9.41h54.66m0-2H36.67c-5.89 0-10.71 5.14-10.71 11.41 0 6.28 4.82 11.41 10.71 11.41h54.65c5.89 0 10.71-5.14 10.71-11.41.01-6.27-4.81-11.41-10.7-11.41z" fill="#793A24"/></g><g clip-path="url(#b)"><linearGradient id="h" x1="64" x2="64" y1="94.591" y2="12.825" gradientUnits="userSpaceOnUse"><stop stop-color="#9B6344" offset="0"/><stop stop-color="#A96F46" offset=".257"/><stop stop-color="#B37748" offset=".588"/><stop stop-color="#B67A48" offset="1"/></linearGradient><path d="M64 95.27c-15.66 0-32.52-12.14-32.52-38.81 0-12.38 3.56-23.79 10.02-32.13 6.05-7.8 14.25-12.27 22.5-12.27s16.45 4.47 22.5 12.27c6.46 8.34 10.02 19.75 10.02 32.13 0 12.09-3.51 22.19-10.14 29.21-5.86 6.19-13.81 9.6-22.38 9.6z" fill="url(#h)"/><path d="M64 13.07c7.94 0 15.85 4.33 21.71 11.88 6.33 8.16 9.81 19.35 9.81 31.52 0 11.83-3.41 21.7-9.87 28.52-5.67 5.99-13.36 9.29-21.65 9.29s-15.98-3.3-21.65-9.29c-6.46-6.82-9.87-16.69-9.87-28.52 0-12.16 3.49-23.35 9.81-31.52C48.15 17.4 56.06 13.07 64 13.07m0-2c-17.4 0-33.52 18.61-33.52 45.39 0 26.64 16.61 39.81 33.52 39.81S97.52 83.1 97.52 56.46c0-26.78-16.12-45.39-33.52-45.39z" fill="#844C2F"/></g><path d="M67.86 68.06c-.11-.04-.21-.07-.32-.08h-7.07c-.11.01-.22.04-.32.08-.64.26-.99.92-.69 1.63s1.71 2.69 4.55 2.69 4.25-1.99 4.55-2.69c.29-.71-.06-1.37-.7-1.63z" clip-path="url(#b)" fill="#8E4A30"/><path d="M72.42 76.14c-3.19 1.89-13.63 1.89-16.81 0-1.83-1.09-3.7.58-2.94 2.24.75 1.63 6.45 5.42 11.37 5.42s10.55-3.79 11.3-5.42c.75-1.66-1.09-3.33-2.92-2.24z" clip-path="url(#b)" fill="#4A261F"/><g clip-path="url(#b)"><defs><path id="i" d="M72.42 76.14c-3.19 1.89-13.63 1.89-16.81 0-1.83-1.09-3.7.58-2.94 2.24.75 1.63 6.45 5.42 11.37 5.42s10.55-3.79 11.3-5.42c.75-1.66-1.09-3.33-2.92-2.24z"/></defs><clipPath id="j"><use xlink:href="#i"/></clipPath><g clip-path="url(#j)" fill="#fff"><path d="M55.33 75.66l1 4.99 2.34-3.94zM72.67 75.66l-1 4.99-2.34-3.94z"/></g></g><g clip-path="url(#b)"><ellipse cx="47.56" cy="58.81" rx="4.93" ry="5.1" fill="#351F19"/><ellipse cx="80.44" cy="58.81" rx="4.93" ry="5.1" fill="#351F19"/><g fill="#5B3127"><path d="M54.98 49.82c-.93-1.23-3.07-3.01-7.23-3.01s-6.31 1.79-7.23 3.01c-.41.54-.31 1.17-.02 1.55.26.35 1.04.68 1.9.39s2.54-1.16 5.35-1.18c2.81.02 4.49.89 5.35 1.18s1.64-.03 1.9-.39c.29-.38.39-1.01-.02-1.55zM87.48 49.82c-.93-1.23-3.07-3.01-7.23-3.01s-6.31 1.79-7.23 3.01c-.41.54-.31 1.17-.02 1.55.26.35 1.04.68 1.9.39s2.54-1.16 5.35-1.18c2.81.02 4.49.89 5.35 1.18s1.64-.03 1.9-.39c.29-.38.39-1.01-.02-1.55z"/></g></g><g clip-path="url(#b)"><radialGradient id="k" cx="64.326" cy="33.52" r="36.373" gradientTransform="matrix(1 0 0 .8642 0 4.552)" gradientUnits="userSpaceOnUse"><stop stop-color="#5B3127" offset="0"/><stop stop-color="#3D1C16" offset="1"/></radialGradient><path d="M102.85 25.94c-2.5-3.79-8.49-9-12.97-8.24.23-4.8-3.55-9.25-8.1-10.78-12.44-4.19-25.87 2.44-29.53 3.74C39.98 15 38.76 7.3 38.76 7.3c-6.66 3.32-2.28 10.45-2.28 10.45s-6.75-.5-9.64 5.34c-3.02 6.11-.36 10.78-.36 10.78S19.98 38 22.53 45.5c1.69 4.98 6.75 6.98 6.75 6.98-.62 10.74 2.77 15.95 2.77 15.95s.2-11.35 1.75-20.41c2.26-13.2 7.7-16.86 14.73-17.89 6.36-.93 15.29 8.08 15.29 8.08v-.01l.01.01s8.94-9.01 15.29-8.08c7.03 1.03 11.89 4.8 14.73 17.89 1.17 5.38 2.31 13.73 2.31 19.84 0-.48 3.5-6.4 4.12-12.4.23-2.23 3.61-7.67 4.63-11.72 2.21-8.79-.69-15.73-2.06-17.8z" fill="url(#k)"/></g><path d="M21.11 45.98c.08.22.17.45.27.68l2.28 2.89 1.1-2.79-.32-.63c-.21-.42-.36-.77-.48-1.11-2.13-6.26 3.11-9.73 3.33-9.88l1.18-.76-.68-1.23c-.09-.17-2.21-4.12.4-9.38 2.33-4.71 7.75-3.73 7.98-3.69l2.95.59-1.31-2.71c-.1-.22-2.19-4.67.33-8.01.55 1.01 1.43 2.15 2.84 3 2.85 1.73 6.8 1.72 11.75-.03.79-.28 1.68-.76 2.8-1.38 4.53-2.47 12.11-6.61 24.12-2.81 4.34 1.38 8.92 5.17 8.74 8.89l-.09 1.87 1.84-.31c3.6-.6 9.1 4.01 11.47 7.59 1.22 1.84 3.98 9.5 1.92 17.71-.11.45-.26.94-.46 1.5l-.22.62.04.08 1.09 1.9 2.11-1.9c.05-.23.27-1.14.35-1.46 2.24-8.93-.56-17.42-2.32-20.09-2.44-3.7-7.91-8.64-12.82-8.97-.79-4.72-5.84-8.72-10.73-10.27-13.25-4.21-21.86.49-26.49 3.02-.96.53-1.79.98-2.36 1.18-3.97 1.41-7.13 1.52-9.15.32-1.97-1.17-2.32-3.23-2.33-3.31l-.34-2.44-2.01 1.41c-4.24 2.99-4.4 7.63-3.6 10.88-2.93.12-6.77 1.36-8.8 5.47-2.42 4.9-1.56 8.99-.86 10.95-2.52 2.15-5.54 6.65-3.52 12.61z" clip-path="url(#b)" fill="#2B1512"/></svg>