<svg viewBox="0 0 128 128" width="128" height="128" xmlns="http://www.w3.org/2000/svg"><linearGradient id="a" x1="107.41" x2="108.4" y1="54.172" y2="35.633" gradientUnits="userSpaceOnUse"><stop stop-color="#6D4C41" offset=".101"/><stop stop-color="#836358" offset=".629"/><stop stop-color="#8D6E63" offset="1"/></linearGradient><path d="M98.08 58.05c-7.28-39.09 8.77-41.55 11.17-42.51s2.95 2.84 4.86 4.58c2.06 1.88 2.31 5.11 1.5 7.78s-2.48 4.97-3.86 7.39c-6.01 10.59 7.69 18.4 6.09 49.21" fill="url(#a)" stroke="#6D4C41" stroke-linejoin="round" stroke-miterlimit="10" stroke-width="2"/><linearGradient id="b" x1="43.399" x2="43.638" y1="36.486" y2="23.826" gradientUnits="userSpaceOnUse"><stop stop-color="#6D4C41" offset=".101"/><stop stop-color="#836358" offset=".629"/><stop stop-color="#8D6E63" offset="1"/></linearGradient><path d="M33.95 35.26c6.02-9.72 2.91-20.76 1.23-26.76-.37-1.32-.78-2.78-.84-3.47.69-.09 1.37-.13 2.03-.13 11.69 0 14.63 14.06 15.1 16.88 1.4 8.38 2.5 18.28.25 28.64L33.95 35.26z" fill="url(#b)"/><path d="M36.37 3.9v2c10.89 0 13.67 13.36 14.12 16.04 1.31 7.84 2.35 17.01.59 26.61l-15.84-13.5c5.65-9.89 2.59-20.81.9-26.82-.21-.76-.46-1.62-.62-2.3.29-.02.57-.02.84-.02l.01-2.01m0 0c-.83 0-1.69.06-2.6.2-2.63.39 8.19 17.51-1.13 31.35l19.7 16.79c2.74-11 1.64-21.62.13-30.63-.91-5.37-4.64-17.71-16.1-17.71z" fill="#6D4C41"/><linearGradient id="c" x1="64.626" x2="62.876" y1="15.382" y2="25.257" gradientUnits="userSpaceOnUse"><stop stop-color="#999834" offset=".001"/><stop stop-color="#736D30" offset=".519"/><stop stop-color="#6B662D" offset=".723"/><stop stop-color="#595525" offset="1"/></linearGradient><path d="M122.14 35.9c-.66-.08-83.2-14.27-118.06-25V8.68c0-2.39 3.33-4.61 5.68-4.57l.9-.04c7.8 2.33 18.84 4.54 29.76 6.39.66.11.06 1.68 1.35 2.29l6.91-.96c34.17 5.76 72.67 8.19 73.21 8.25 0 0 1.73 1.51 1.73 8.18s-1.48 7.68-1.48 7.68z" fill="url(#c)"/><g fill="#595525"><path d="M38.76 12.17s9.2 1.5 9.6 1.56c28.3 4.77 73.9 8.64 74.64 8.66-.49-1.81-1.1-2.35-1.1-2.35-.54-.07-39.05-2.49-73.21-8.25-.54-.09-1.1-.13-1.65-.13l-5.67.99c-1.29-.62-.28-2.09-.94-2.2C29.5 8.6 18.46 6.39 10.66 4.06c0 0-1.84-.38-3.52.74l4.93 1.35c7.97 2.41 26.69 6.02 26.69 6.02zM6.23 9.71s-2.14-.68-2.14-.59v1.78c34.86 10.73 117.4 24.92 118.06 25 0 0 .42-.29.81-1.56-.65-.36-83.91-14.79-116.73-24.63z"/></g><g fill="#212121"><path d="M47.03 11.66c-.53-.28-4.87 1.28-5.67 4.22s0 4.39 0 4.39l-7.98-1.82 1.88-5.56 6.44-1.22 5.33-.01zM114.33 25.04c-.53-.28-4.87 1.28-5.67 4.22s0 4.39 0 4.39l-7.36-1.45s4.53-6.16.56-13.78l4.89.5 7.58 6.12zM93.58 18.42s-1.29 3.5-1 7.16c.29 3.67.48 5.09.48 5.09l-4.48-.92s.58-7.67.67-7.83c.08-.17 4.33-3.5 4.33-3.5z" opacity=".2"/></g><radialGradient id="d" cx="58.387" cy="88.089" r="56.722" gradientUnits="userSpaceOnUse"><stop stop-color="#BCAAA4" offset=".319"/><stop stop-color="#AB948C" offset=".708"/><stop stop-color="#A1887F" offset="1"/></radialGradient><path d="M115.75 75.75l.62-3.06c-1.62-5.22-5-11.79-8.05-15.63-6.61-8.33-15.07-11.98-18.6-22.27C85.58 22.7 92 17.5 92 17.5s-4.18-4.82-10.85-3.07c-3.26.74-9.12 5.88-8.57 24.4.42 14 12.49 30.6 12.49 30.6-9.49 6.32-17.07 4.48-21.55.77-8.12-6.72-9.05-22.73-11.8-27.73-7.19-13.06-22.48-11.52-28.59-8.57 0 0-14.03 4.01-14.03 23.75 0 24.1 10.5 38.84 15.92 44.97 15.19 17.21 28.91 18.5 28.91 18.5l-1.29-3.25s8.15 4.97 16.98 4.44l-2.03-2.9c6.49 2.82 17.42 1.33 17.42 1.33l-2.58-1.98s12.46-.4 24.66-10.61c12.1-10.12 15.5-28.5 15.87-35.17.11-1.9-1.07-2.61-2.62-1.83-1.64.83-3.58 3.22-4.59 4.6z" fill="url(#d)" stroke="#6D4C41" stroke-miterlimit="10" stroke-width="2"/><path d="M14.18 48.95c.13-.7.22-1.44.44-2.2.94-3.16 3.28-5.82 6.16-7.4 1.61-.88 3.42-1.45 5.25-1.4 2.15.05 4.2.93 6.34 1.05 1.84.1 3.67-.22 5.48-.59 8.57-1.73 12.17 6.19 13.35 12.17 1.51 7.72-3.95 19.33-19.86 18.84-13.29-.41-19.06-10.51-17.16-20.47z" fill="#EFEBE9"/><linearGradient id="e" x1="14.213" x2="11.759" y1="58.472" y2="59.761" gradientUnits="userSpaceOnUse"><stop stop-color="#6D4C41" offset="0"/><stop stop-color="#6D4C41" stop-opacity="0" offset="1"/></linearGradient><path d="M18.6 46.95c-2.87 1.85-4.65 4.75-5.48 8.74-1.57 7.58 2.06 11.54 2.06 11.54s.81-5.2 3.35-8.83c3.26-4.66 9.14-3.89 8.83-9.19-.16-3.05-4.01-5.32-8.76-2.26z" fill="url(#e)"/><linearGradient id="f" x1="44.588" x2="31.578" y1="46.387" y2="63.42" gradientTransform="matrix(-1 0 0 1 86.056 0)" gradientUnits="userSpaceOnUse"><stop stop-color="#6D4C41" offset=".71"/><stop stop-color="#6D4C41" stop-opacity="0" offset="1"/></linearGradient><path d="M47.49 46.95c2.87 1.85 4.77 4.72 5.48 8.74 1 5.71.22 9.09-2.06 11.54.43-.46-1.89-6.68-3.35-8.83-3.19-4.7-9.14-3.89-8.83-9.19.16-3.05 4.01-5.32 8.76-2.26z" fill="url(#f)"/><path d="M24.45 55.17l4.3.33c1.39.09 2.77.1 4.14.06 1.37-.05 2.74-.15 4.13-.32l4.27-.6c-1.16.95-2.5 1.64-3.92 2.12s-2.91.76-4.42.8c-1.51.05-3.02-.14-4.46-.53-1.44-.38-2.82-.98-4.04-1.86z"/><g fill="none" stroke="#000" stroke-linecap="round" stroke-miterlimit="10" stroke-width="2.145"><path d="M20.31 51.71c.95-1.3 3.12-2.4 4.7-2.25M45.43 51.71c-.95-1.3-3.12-2.4-4.7-2.25"/></g><linearGradient id="g" x1="32.869" x2="32.869" y1="54.082" y2="47.997" gradientUnits="userSpaceOnUse"><stop offset=".213"/><stop stop-color="#090605" offset=".337"/><stop stop-color="#211714" offset=".539"/><stop stop-color="#47322B" offset=".791"/><stop stop-color="#6D4C41" offset="1"/></linearGradient><path d="M35.4 49.2h-5.07c-.52 0-.97.34-1.11.84l-.5 1.77c-.14.48.06 1 .48 1.28l3.03 2c.39.25.89.25 1.27 0l3.03-2c.42-.28.61-.79.48-1.28l-.5-1.77c-.14-.49-.59-.84-1.11-.84z" fill="url(#g)"/><linearGradient id="h" x1="48.844" x2="81.092" y1="75.025" y2="13.011" gradientUnits="userSpaceOnUse"><stop stop-color="#BCAAA4" offset=".319"/><stop stop-color="#AB948C" offset=".708"/><stop stop-color="#A1887F" offset="1"/></linearGradient><path d="M66.54 73.78c8.02-18.02 4.29-34.68 5.59-43.57 1.78-12.18 7.12-15.32 7.12-15.32s-4.3-6.28-12.56-1.77c-13.5 7.37-7.35 33.5-17 42.47-3.46 3.22-7.47 5.8-10.76 9.2-3.28 3.39-5.95 11-4.18 15.37" fill="url(#h)" stroke="#6D4C41" stroke-linecap="round" stroke-linejoin="round" stroke-miterlimit="10" stroke-width="2"/><path d="M28.99 22.61c-.24 0-.47-.04-.69-.12-.54-.2-.9-.61-1.18-.98-1.99-2.64-2.62-6.29-1.69-9.77 1.1-4.14 4.56-6.81 8.81-6.81 1.61 0 3.22.38 4.79 1.12 2.23 1.06 3.48 2.58 3.32 4.05-.06.55-.43 1.88-2.6 2.4-3.12.74-6.87 4.19-8.04 7.39l-.08.21c-.17.49-.37 1.05-.77 1.55-.47.61-1.18.96-1.87.96z" fill="#D7CCC8"/><path d="M34.23 5.94c1.41 0 2.9.33 4.36 1.03 3.3 1.57 3.69 3.92.92 4.57-3.55.84-7.5 4.59-8.75 8.02-.19.51-.35 1.05-.69 1.48-.27.33-.69.58-1.1.58-.11 0-.23-.02-.34-.06-.31-.12-.53-.38-.73-.64-1.88-2.5-2.33-5.88-1.53-8.91 1.04-3.84 4.2-6.07 7.86-6.07m0-2c-4.72 0-8.56 2.96-9.78 7.55-1 3.78-.31 7.75 1.86 10.63.34.46.84 1.02 1.63 1.31.33.12.68.19 1.04.19 1 0 1.99-.5 2.66-1.33.51-.63.74-1.3.94-1.84l.07-.2c1.05-2.87 4.54-6.09 7.33-6.76 1.94-.46 3.19-1.68 3.36-3.26.2-1.92-1.25-3.81-3.88-5.06-1.71-.82-3.47-1.23-5.23-1.23z" fill="#6D4C41"/><path d="M38.6 6.97c-3.03.74-8.41 4.88-9.67 15.33M33.76 5.72c-4.22 2.08-7.69 10.78-6.05 15.89" fill="none" stroke="#6D4C41" stroke-linecap="round" stroke-linejoin="round" stroke-miterlimit="10"/><path d="M108.22 34.44c-.34 0-.65-.06-.92-.18-.85-.38-1.35-1.34-1.25-2.39.06-.63.32-1.17.54-1.65l.09-.2c1.38-3.02 1.29-6.74-.22-9.7-.42-.81-.33-1.83.22-2.74.76-1.25 2.19-2 3.81-2 .65 0 1.32.12 1.99.35 2.79.97 4.7 2.64 5.52 4.82.87 2.32.49 5.04-1.12 7.86-1.78 3.13-4.79 5.29-8.06 5.77-.19.04-.4.06-.6.06z" fill="#D7CCC8"/><path d="M110.49 16.58c.51 0 1.07.09 1.66.3 5.53 1.92 6.58 6.47 3.86 11.24-1.55 2.72-4.24 4.82-7.34 5.28-.15.02-.31.04-.46.04-.18 0-.35-.02-.51-.1-.5-.22-.72-.84-.66-1.38s.32-1.04.55-1.53c1.51-3.32 1.42-7.32-.24-10.57-.63-1.22.71-3.28 3.14-3.28m0-2c-1.98 0-3.72.93-4.67 2.48-.73 1.2-.83 2.59-.25 3.72 1.38 2.69 1.46 6.07.2 8.82l-.09.19c-.24.52-.54 1.17-.63 1.97-.15 1.48.59 2.85 1.84 3.41.4.18.85.27 1.33.27.29 0 .56-.03.75-.06 3.57-.53 6.85-2.87 8.78-6.27 1.75-3.08 2.16-6.09 1.18-8.7-.65-1.73-2.24-4.07-6.13-5.42-.77-.27-1.55-.41-2.31-.41z" fill="#6D4C41"/><path d="M110.23 16.59c1.24 1.22 3.18 8.75-3.24 17.08M114.72 18.03c1.55 4.44-1.63 13.52-6.39 16.01" fill="none" stroke="#6D4C41" stroke-linecap="round" stroke-linejoin="round" stroke-miterlimit="10"/></svg>