<svg viewBox="0 0 128 128" width="128" height="128" xmlns="http://www.w3.org/2000/svg"><linearGradient id="a" x1="63" x2="63" y1="968.72" y2="1056.7" gradientTransform="translate(0 -950)" gradientUnits="userSpaceOnUse"><stop stop-color="#FEE133" offset=".5"/><stop stop-color="#FEDE32" offset=".612"/><stop stop-color="#FCD32F" offset=".708"/><stop stop-color="#FAC12B" offset=".797"/><stop stop-color="#F7A924" offset=".883"/><stop stop-color="#F6A323" offset=".9"/></linearGradient><path d="M63 118.9c-27.9 0-58-17.5-58-55.9S35.1 7.1 63 7.1c15.5 0 29.8 5.1 40.4 14.4C114.9 31.7 121 46.1 121 63s-6.1 31.2-17.6 41.4c-10.6 9.3-25 14.5-40.4 14.5z" fill="url(#a)"/><path d="M63 9.1c15 0 28.9 4.9 39 13.9 11.1 9.8 17 23.6 17 40 0 16.3-5.9 30.1-17 39.9-10.2 9-24.1 14-39 14-15 0-28.9-4.9-39-13.8C12.9 93.3 7 79.5 7 63s5.9-30.4 17-40.2C34.1 14 47.9 9.1 63 9.1m0-4C31.9 5.1 3 25.1 3 63c0 37.7 28.9 57.9 60 57.9s60-20.7 60-57.9c0-37.4-28.8-57.9-60-57.9z" fill="#EB8F00"/><path d="M86 47.7c9.6 0 17.4 7.8 17.4 17.4S95.6 82.4 86 82.4 68.6 74.6 68.6 65 76.4 47.7 86 47.7" fill="#fff"/><g fill="#EB8F00" stroke="#EB8F00" stroke-miterlimit="10" stroke-width="1.181"><path d="M27.4 39.8c-2.2.4-2.3 3.6.1 3.7 4.9.1 10.2-1.7 14.3-5.4 1.5-1.3 2.8-2.9 3.7-4.5 1.2-2.2-1.6-3.7-3-2.1l-.1.1c-4 4.4-9.5 7.3-15 8.2zM86.1 31.5l-.1-.1c-1.4-1.6-4.2-.1-3 2.1.9 1.6 2.2 3.2 3.7 4.5 4.1 3.8 9.4 5.6 14.3 5.4 2.4-.1 2.3-3.3.1-3.7-5.4-.8-11-3.7-15-8.2z"/></g><path d="M56 97s7.1-3.6 15 0" fill="none" stroke="#242424" stroke-linecap="round" stroke-linejoin="round" stroke-miterlimit="10" stroke-width="8"/><path d="M43 47.7c9.6 0 17.4 7.8 17.4 17.4S52.6 82.4 43 82.4 25.6 74.6 25.6 65 33.4 47.7 43 47.7" fill="#fff"/><circle cx="42.7" cy="62.8" r="15.4" fill="#242424"/><ellipse transform="rotate(-40.01 48.135 68.62)" cx="48.13" cy="68.62" rx="2.6" ry="2.4" fill="#fff"/><ellipse transform="rotate(-36.665 38.705 58.006)" cx="38.7" cy="58" rx="9" ry="7.3" fill="#fff"/><circle cx="85.7" cy="62.8" r="15.4" fill="#242424"/><ellipse transform="rotate(-40.01 91.216 68.568)" cx="91.21" cy="68.56" rx="2.6" ry="2.4" fill="#fff"/><ellipse transform="rotate(-36.665 81.71 58.017)" cx="81.71" cy="58.01" rx="9" ry="7.3" fill="#fff"/></svg>