<svg viewBox="0 0 128 128" width="128" height="128" xmlns="http://www.w3.org/2000/svg" xmlns:xlink="http://www.w3.org/1999/xlink"><radialGradient id="a" cx="48.542" cy="-285.67" r="58.471" gradientTransform="rotate(90 -103.168 -99.002)" gradientUnits="userSpaceOnUse"><stop stop-color="#F4FF81" offset=".005"/><stop stop-color="#F1FE7B" offset=".146"/><stop stop-color="#E7FB69" offset=".339"/><stop stop-color="#D8F74D" offset=".561"/><stop stop-color="#C2F025" offset=".804"/><stop stop-color="#AEEA00" offset="1"/></radialGradient><circle cx="64.17" cy="64.04" r="60" fill="url(#a)"/><defs><circle id="b" cx="64.17" cy="64.04" r="60"/></defs><defs><circle id="c" cx="64.17" cy="64.04" r="60"/></defs><clipPath id="d"><use xlink:href="#c"/></clipPath><g clip-path="url(#d)"><path d="M69.63-167.53c-.99.61-2.06.69-3.17-.34-1.63-1.49-.95-3.16-.29-3.9.29-.31.75-.79 1.28-1.05.06-.03.13-.05.2-.09a.487.487 0 0 1-.22-.09c-.56-.24-1.06-.68-1.32-.92-.72-.7-1.34-2.34 0-3.91.9-1.04 1.77-1.12 2.69-.68.91.45 1.88 1.5 2.84 2.51.97 1.02 1.81 1.6 2.4 1.93.58.32.91.4.91.4s-1.16.62-2.68 3.13c-.79 1.27-1.67 2.38-2.64 3.01z" fill="#E44C25"/><path d="M54.97-170.5c-2.05 2.02-4.54 3.76-6.27 1.27-1.26-1.81-.21-3.29.6-3.86.36-.25.92-.62 1.5-.76.06-.01.13-.02.21-.03a.558.558 0 0 1-.2-.14c-.49-.34-.88-.88-1.07-1.18-.55-.82-.77-2.55.9-3.8 2.19-1.65 3.5.55 4.95 3.04.72 1.23 1.4 1.95 1.9 2.4s.8.59.8.59-.32.09-.9.44c-.57.35-1.39 1-2.42 2.03z" fill="#D74527"/><path d="M65.94-172.83s-.96.97-2.43 1.49c-1.47.42-3.47.47-5.15-1.58l-.06-.11c.96-.84 1.9-1.28 2.78-1.43.87-.15 1.68-.01 2.4.26 1.41.45 2.46 1.37 2.46 1.37z" fill="#BDBDBD"/><path d="M44.16-173.72c-.81-.43-1.6-1.15-2.17-2.29l-.04-.13c1.15-.63 2.15-.81 3.02-.73.88.06 1.65.36 2.28.77 1.28.84 2.09 1.92 2.09 1.92s-1.17.78-2.71.87c-.78.05-1.65-.01-2.47-.41z" fill="#9E9E9E"/><path d="M79.7-176.06c.75.06 1.43.27 1.92.45.49.19.8.35.8.35s-.17.3-.53.69c-.34.39-.85.88-1.51 1.29-1.31.85-3.28 1.18-5.37-.33l-.09-.09c1.49-2.19 3.27-2.45 4.78-2.36z" fill="#BDBDBD"/><path d="M89.99-178.37c.57.15.9.16.96.16 0 0-.24.22-.59.8-.35.57-.8 1.52-1.28 2.88-.47 1.37-1.05 2.72-1.85 3.56-.83.8-1.86 1.1-3.17.41-1.94-1.07-1.66-2.85-1.19-3.73.21-.39.55-.96 1-1.35.05-.05.11-.09.17-.13-.09-.01-.16-.01-.24-.03-.59-.09-1.18-.39-1.48-.57-.86-.5-1.84-1.95-.91-3.81.62-1.25 1.46-1.51 2.45-1.25 1 .23 2.14.96 3.33 1.76 1.23.8 2.16 1.12 2.8 1.3z" fill="#E44C25"/><path d="M26.8-183.06c1.26-.34 2.28-.3 3.12-.01.84.28 1.51.75 2.04 1.31.51.55.9 1.15 1.17 1.59.27.45.4.77.4.77s-.33.11-.85.19c-.53.1-1.23.14-1.99 0-.76-.13-1.59-.4-2.29-.99-.69-.6-1.27-1.48-1.58-2.73l-.02-.13z" fill="#9E9E9E"/><path d="M96.36-179.09c-.54.57-1.27 1.03-2.16 1.24-.88.22-1.93.2-3.14-.33l-.11-.07c.49-1.19 1.12-1.99 1.84-2.51.71-.53 1.52-.74 2.25-.87 1.49-.23 2.84.15 2.84.15s-.43 1.29-1.52 2.39z" fill="#BDBDBD"/><path d="M34.16-180.3c-.33-.94-.14-2.68 1.78-3.48.64-.28 1.16-.32 1.59-.19.44.11.8.4 1.1.81.6.81.99 2.18 1.39 3.5.41 1.35.89 2.26 1.26 2.82s.64.75.64.75-.34.03-.97.22c-.64.19-1.59.59-2.83 1.36-1.28.78-2.57 1.38-3.73 1.49-1.16.12-2.14-.33-2.68-1.75-.78-2.07.59-3.25 1.51-3.6.41-.15 1.04-.38 1.63-.36.08 0 .13 0 .21.02a.95.95 0 0 1-.16-.19c-.37-.44-.63-1.06-.74-1.4zM22.71-182.35c-1.38.42-2.81.75-3.95.6-1.14-.17-1.98-.84-2.21-2.29-.28-2.2 1.32-3.04 2.28-3.17.44-.05 1.1-.14 1.68-.01.08.02.13.03.2.06-.04-.07-.09-.14-.11-.21-.29-.52-.41-1.17-.44-1.52-.1-1.01.48-2.66 2.53-3 1.38-.26 2.09.28 2.49 1.23.41.93.5 2.3.56 3.74.19 2.83 1.04 3.91 1.04 3.91s-1.29-.29-4.07.66z" fill="#BE3A26"/><path d="M105.56-186.24s-.76 1.07-1.01 4c-.16 1.44-.42 2.87-1.02 3.87-.6.96-1.54 1.49-2.98 1.1-2.12-.61-2.26-2.4-2-3.35.12-.42.31-1.07.66-1.54.04-.06.07-.11.14-.16-.09.01-.16.02-.25.02-.59.04-1.23-.11-1.56-.21-.95-.3-2.25-1.49-1.76-3.5.32-1.37 1.08-1.81 2.12-1.79 1.02-.01 2.31.45 3.65.96 2.69.94 4.01.6 4.01.6z" fill="#E44C25"/><path d="M105.54-186.29c.39-2.57 1.85-3.65 3.27-4.19.73-.25 1.41-.38 1.93-.42.53-.05.88-.04.88-.04s-.14 1.38-.99 2.67c-.43.64-1.02 1.27-1.83 1.68-.84.4-1.86.58-3.14.34l-.12-.04z" fill="#BDBDBD"/><path d="M18.35-190.83c.8 1.26 1 2.65 1 2.65s-1.35.13-2.81-.43c-1.42-.58-2.92-1.88-2.96-4.49l.02-.12c2.59-.12 3.95 1.08 4.75 2.39z" fill="#9E9E9E"/><path d="M13.91-196.23s.61 2.03-.6 3.3c-1.21 1.02-3.26.28-3.26.28-5.64 3.44-8.98-1.34-9.95-6.77-.5-2.71-.46-5.55-.24-7.67.12-1.06.27-1.94.4-2.55.13-.62.24-.95.24-.95s1.26.49 3.18 1.23c1.86.74 4.25 1.68 6.4 2.78 4.25 2.22 7.56 4.96 3.83 10.35zM122.78-200.09c-.58 1.42-1.89 2.91-4.5 2.94l-.13-.02c-.11-2.59 1.12-3.94 2.42-4.74 1.3-.77 2.67-.97 2.67-.97s.13 1.37-.46 2.79z" fill="#E44C25"/><path d="M127.34-200.04c-2.2.26-3.03-1.34-3.15-2.31-.05-.44-.13-1.1.01-1.67a.76.76 0 0 1 .08-.21c-.08.04-.14.09-.21.12-.54.27-1.19.38-1.54.41-1 .09-2.65-.49-2.97-2.55-.46-2.74 2.16-2.88 5-3 2.85-.13 3.9-1 3.9-1s-.22 1.31.64 4.08c.86 2.78 1.2 5.74-1.76 6.13z" fill="#E44C25"/></g><g clip-path="url(#d)"><path d="M.23-99.35c-.61.2-.95.32-.95.32s-.06-.38-.13-1c-.07-.63-.14-1.52-.15-2.58-.03-2.13.19-4.95.95-7.6 1.46-5.31 5.19-9.75 10.55-5.97 0 0 2.1-.64 3.31.65.94 1.26.26 3.21.26 3.21 3.45 5.59-.09 7.98-4.64 9.88-2.27.93-4.81 1.7-6.77 2.33-1.02.32-1.85.58-2.43.76z" fill="#E44C25"/><path d="M106.84-119.78c-.6-.65-1.05-1.56-1.24-2.85v-.13c2.55-.48 4.15.73 5 2.04.44.64.68 1.33.82 1.84.14.5.18.85.18.85s-1.36.07-2.76-.43a4.73 4.73 0 0 1-2-1.32z" fill="#BDBDBD"/><path d="M16.52-120.33c1.47-.57 2.84-.45 2.84-.45s-.18 1.36-.98 2.62c-.78 1.29-2.12 2.49-4.72 2.37l-.12-.03c.02-2.6 1.54-3.92 2.98-4.51z" fill="#9E9E9E"/><path d="M97.9-121.15c-1.04.01-1.81-.43-2.12-1.8-.49-2.01.8-3.2 1.75-3.5.41-.12 1.04-.3 1.63-.25.07.01.14.02.21.04-.05-.06-.1-.13-.14-.19-.34-.49-.57-1.14-.65-1.48-.27-.95-.12-2.75 2.01-3.35 1.41-.39 2.37.13 2.97 1.1.58 1 .84 2.43.99 3.87.29 2.93 1.02 3.99 1.02 3.99s-1.34-.35-4 .62c-1.34.5-2.65.96-3.67.95z" fill="#E44C25"/><path d="M20.16-120.06c.04-.43.14-1.07.42-1.59.04-.07.08-.12.13-.18-.09.02-.16.04-.25.04-.58.13-1.25.07-1.61.02-.98-.13-2.56-.98-2.28-3.18.21-1.46 1.06-2.11 2.2-2.27 1.15-.15 2.56.18 3.94.61 2.81.91 4.07.65 4.07.65s-.87 1.1-1.03 3.91c-.08 1.44-.16 2.82-.58 3.75-.41.95-1.11 1.49-2.5 1.23-2.04-.33-2.61-1.99-2.51-2.99z" fill="#BE3A26"/><path d="M97.88-127.49s-1.34.38-2.81.16c-.73-.12-1.52-.33-2.23-.85-.72-.51-1.34-1.33-1.83-2.52l-.02-.12c1.2-.55 2.25-.57 3.14-.34.9.22 1.64.69 2.19 1.25 1.11 1.13 1.56 2.42 1.56 2.42z" fill="#BDBDBD"/><path d="M29.97-125.92c-.83.28-1.83.33-3.11-.01l-.12-.05c.3-1.25.89-2.13 1.6-2.74.7-.6 1.54-.87 2.3-1.01.77-.14 1.49-.1 2.01-.01.53.09.86.19.86.19s-.13.32-.38.77c-.27.43-.64 1.02-1.16 1.58-.5.54-1.16 1-2 1.28z" fill="#9E9E9E"/><path d="M55.59-133c-1.46 2.5-2.78 4.69-4.97 3.04-1.67-1.25-1.44-2.98-.89-3.81.23-.35.6-.9 1.08-1.24.06-.04.12-.07.19-.11-.09-.02-.16-.03-.24-.06-.58-.14-1.15-.49-1.45-.7-.81-.58-1.86-2.06-.6-3.87 1.72-2.48 4.21-.74 6.25 1.3 1.05 1.02 1.86 1.66 2.43 2.01.58.35.89.45.89.45s-.31.14-.81.58c-.49.45-1.17 1.16-1.88 2.41z" fill="#D74527"/><path d="M68.78-130.48c-.92.45-1.8.36-2.69-.67-1.35-1.58-.72-3.21 0-3.91.3-.3.79-.75 1.34-.98.07-.03.13-.05.21-.06-.07-.04-.15-.06-.21-.12-.53-.26-1.01-.73-1.25-.99-.66-.74-1.33-2.41.3-3.91 1.11-1.02 2.19-.94 3.16-.32s1.85 1.74 2.61 3c.79 1.25 1.45 2.04 1.93 2.51.47.47.76.62.76.62s-1.37.28-3.31 2.32c-.98 1.01-1.94 2.06-2.85 2.51zM89.09-134.44c.48 1.36.93 2.3 1.29 2.87.34.58.59.8.59.8s-.34-.02-.99.16c-.64.17-1.57.5-2.77 1.32-1.19.79-2.35 1.52-3.34 1.75-1.01.26-1.84 0-2.45-1.26-.94-1.85.04-3.31.9-3.81.36-.21.94-.52 1.53-.6.07-.01.13-.02.21-.02a.845.845 0 0 1-.18-.15c-.45-.4-.8-.98-.97-1.3-.47-.87-.75-2.66 1.19-3.72 1.31-.7 2.35-.4 3.16.41.79.83 1.36 2.18 1.83 3.55z" fill="#E44C25"/><path d="M40.97-133.11c.62.19.96.24.96.24s-.28.18-.65.75c-.38.56-.86 1.46-1.25 2.81-.42 1.34-.8 2.7-1.4 3.51-.62.81-1.42 1.16-2.7.62-1.91-.8-2.1-2.54-1.78-3.48.14-.41.38-1.03.76-1.48.05-.05.1-.1.16-.15-.09 0-.16.01-.25 0-.59 0-1.23-.2-1.56-.32-.93-.36-2.29-1.54-1.51-3.62.27-.7.64-1.16 1.1-1.44.46-.27 1-.34 1.58-.29 1.15.11 2.44.72 3.7 1.5 1.26.76 2.19 1.16 2.84 1.35z" fill="#BE3A26"/><path d="M80.34-135.68c.67.41 1.19.91 1.54 1.3s.54.69.54.69-.3.16-.79.35c-.49.18-1.16.39-1.9.46-1.49.09-3.26-.17-4.72-2.36l-.05-.11c2.06-1.51 4.06-1.19 5.38-.33z" fill="#BDBDBD"/><path d="M44.1-135.22c.83-.41 1.7-.47 2.49-.43 1.55.1 2.74.86 2.74.86s-.79 1.09-2.05 1.92c-.63.41-1.39.71-2.26.76-.87.09-1.86-.1-3.01-.73l-.11-.09c.6-1.15 1.38-1.86 2.2-2.29z" fill="#9E9E9E"/><path d="M65.93-136.13s-1.02.92-2.42 1.36c-1.42.55-3.21.52-5.14-1.18l-.08-.1c1.67-2.05 3.7-1.99 5.18-1.57a7.1 7.1 0 0 1 2.46 1.49z" fill="#BDBDBD"/></g><path d="M64.17 7.04c31.43 0 57 25.57 57 57s-25.57 57-57 57-57-25.57-57-57 25.57-57 57-57m0-3c-33.14 0-60 26.86-60 60s26.86 60 60 60 60-26.86 60-60-26.86-60-60-60z" fill="#424242" opacity=".2"/><defs><circle id="e" cx="64.17" cy="64.04" r="60"/></defs><clipPath id="f"><use xlink:href="#e"/></clipPath><g clip-path="url(#f)"><path d="M46.49 63.7c0 29.3-22.88 53.14-51 53.14s-51-23.84-51-53.14 22.88-53.14 51-53.14 51 23.84 51 53.14m2.79 0c0-30.89-24.08-55.93-53.79-55.93S-58.3 32.81-58.3 63.7s24.08 55.93 53.79 55.93S49.28 94.59 49.28 63.7zM134.57 10.56c28.12 0 51 23.84 51 53.14s-22.88 53.14-51 53.14-51-23.84-51-53.14 22.87-53.14 51-53.14m0-2.79c-29.71 0-53.79 25.04-53.79 55.93s24.08 55.93 53.79 55.93 53.79-25.04 53.79-55.93-24.09-55.93-53.79-55.93z" fill="#424242" opacity=".36"/></g><g clip-path="url(#f)" fill="#D50000"><path d="M113.1 113.53l.05.02s1.56-1.38 3-2.81c1.45-1.43 2.77-2.9 2.77-2.9l-2.71-1.12s-.37.36-.92.89c-.55.51-1.28 1.17-2.04 1.82-1.52 1.31-3.15 2.56-3.15 2.56h.01l-.04.01s-.16 2.04-.2 4.14c-.02 1.05-.03 2.11-.01 2.9l.05 1.29 3.63 1.51s-.22-2.12-.32-4.19c-.11-2.07-.09-4.09-.09-4.09l-.03-.03zM121.41 116.52l.05.01s1.28-1.54 2.46-3.26c1.18-1.68 2.23-3.39 2.23-3.39s-2.88-.53-2.85-.62c0 0-1.16 1.6-2.44 3.17-1.27 1.57-2.68 3.1-2.68 3.1h.01l-.04.01s.2 2.02.52 4.07c.31 2.05.76 4.14.76 4.14s.93.32 1.91.47l1.94.38s-.59-2.02-1.05-4.02c-.48-1.97-.79-4.05-.79-4.05l-.03-.01zM130.11 117.98h.05s.99-1.79 1.85-3.6c.43-.9.84-1.8 1.13-2.52.29-.71.48-1.18.48-1.18s-.18 0-.46.01c-.28.02-.64-.02-1-.05-.73-.07-1.46-.13-1.46-.13s-.86 1.81-1.86 3.6c-.49.9-1.02 1.8-1.42 2.46l-.68 1.06h.01l-.03.02s.14.5.35 1.26c.22.74.53 1.69.87 2.67.67 1.94 1.48 3.89 1.48 3.89s.98.08 1.97.17c.49.04.98.09 1.35.07.37 0 .62-.01.62-.01s-.23-.46-.57-1.16c-.33-.68-.76-1.66-1.16-2.63-.81-1.95-1.48-3.89-1.48-3.89l-.04-.04zM138.94 117.97l.05-.01s.67-1.97 1.2-3.92c.54-1.95.95-3.89.95-3.89l-2.91.36-.35 1.22c-.22.75-.52 1.7-.86 2.63-.66 1.88-1.46 3.77-1.46 3.77h.01l-.03.02s.88 1.86 1.89 3.71c.5.93 1.03 1.85 1.44 2.49.41.66.69 1.1.69 1.1l3.91-.48s-1.25-1.73-2.37-3.48c-1.13-1.75-2.12-3.51-2.12-3.51l-.04-.01zM147.63 116.42l.05-.01s.34-1.98.5-4.05c.19-2.05.24-4.05.24-4.05s-2.75.98-2.78.89c0 0-.2 1.96-.53 3.96-.32 2-.77 4.02-.77 4.02h.01l-.02.03s1.18 1.65 2.49 3.27c1.3 1.62 2.73 3.21 2.73 3.21s.97-.19 1.89-.55c.93-.32 1.87-.64 1.87-.64s-1.53-1.46-2.92-2.96c-1.4-1.46-2.71-3.11-2.71-3.11l-.05-.01zM155.91 113.35l.04-.02s-.03-2.05-.19-4.04c-.07-.98-.18-1.99-.28-2.76-.1-.76-.17-1.26-.17-1.26s-.16.09-.39.24-.55.33-.89.47c-.66.31-1.33.61-1.33.61s.16 1.99.19 4.04c.02 1.02.01 2.06 0 2.84-.03.75-.06 1.26-.06 1.26h.01l-.02.03s.37.37.93.92c.55.52 1.31 1.2 2.09 1.87 1.55 1.35 3.22 2.64 3.22 2.64s.89-.42 1.79-.83c.22-.1.45-.21.65-.31.2-.12.38-.22.54-.32.32-.19.53-.31.53-.31s-.43-.29-1.07-.73a43.84 43.84 0 0 1-2.32-1.69c-1.67-1.28-3.23-2.63-3.23-2.63l-.04-.02zM163.55 108.93l.04-.03s-.4-2.03-.9-3.98c-.49-1.96-1.09-3.84-1.09-3.84l-2.37 1.74.3 1.23c.17.73.41 1.77.58 2.74.36 1.96.61 3.99.61 3.99h.01l-.01.04s1.69 1.18 3.49 2.28c.91.57 1.78 1.04 2.47 1.42.69.37 1.15.61 1.15.61l3.16-2.33s-1.95-.88-3.79-1.85c-1.85-.96-3.6-2-3.6-2l-.05-.02zM170.35 103.3l.03-.04s-.75-1.95-1.59-3.81c-.83-1.87-1.75-3.64-1.75-3.64L165.06 98s.78 1.8 1.47 3.7c.7 1.89 1.3 3.86 1.3 3.86l.01-.01-.01.04s1.85.86 3.79 1.63c1.94.78 3.96 1.46 3.96 1.46l2.66-2.88s-2.05-.54-4.01-1.17c-1.97-.62-3.85-1.34-3.85-1.34l-.03.01zM176.06 96.56l.03-.04s-.26-.44-.64-1.09c-.4-.66-.89-1.49-1.48-2.36-1.14-1.72-2.35-3.33-2.35-3.33s-.39.63-.77 1.26c-.18.33-.44.6-.6.82-.17.22-.28.37-.28.37s1.08 1.67 2.09 3.44c1.02 1.76 1.95 3.62 1.95 3.62l.01-.01v.04s1.95.53 3.97.95c2.02.44 4.11.77 4.11.77l.37-.49c.21-.3.53-.67.78-1.09.52-.83 1.03-1.66 1.03-1.66s-2.09-.19-4.11-.48c-1-.13-2.06-.34-2.82-.49-.76-.16-1.27-.26-1.27-.26l-.02.03zM180.62 89l.02-.04s-1.3-1.59-2.66-3.07c-.68-.74-1.36-1.46-1.88-1.99-.55-.53-.91-.89-.91-.89s-.07.17-.17.43c-.12.25-.29.58-.46.91-.33.66-.66 1.33-.66 1.33s1.36 1.48 2.66 3.08c.66.8 1.28 1.6 1.72 2.21.45.61.74 1.02.74 1.02v-.01l.01.04s.52.05 1.29.13c.79.08 1.83.16 2.84.2 2.04.1 4.14.08 4.14.08s.43-.88.86-1.75c.21-.44.43-.88.59-1.21.15-.33.23-.57.23-.57s-.52.03-1.29.08c-.8.03-1.85.06-2.9.07-2.1.02-4.14-.07-4.14-.07l-.03.02zM183.96 80.83l.01-.05s-1.56-1.37-3.16-2.62c-1.6-1.26-3.22-2.4-3.22-2.4l-.78 2.86 1 .8c.59.48 1.33 1.13 2.07 1.8 1.49 1.34 2.94 2.79 2.94 2.79V84l.01.04s2.05-.11 4.13-.33c1.04-.11 2.1-.24 2.87-.36.76-.13 1.27-.21 1.27-.21l1.03-3.76s-2.07.47-4.11.82c-2.04.36-4.05.6-4.05.6l-.01.03zM185.91 72.21l.01-.05-1.07-.67c-.64-.4-1.5-.91-2.42-1.41-1.8-1-3.62-1.88-3.62-1.88s-.05.74-.11 1.49c-.01.37-.08.74-.13 1.01s-.08.46-.08.46 1.73.98 3.44 2.08c1.71 1.09 3.4 2.3 3.4 2.3v-.01l.02.03s1.98-.44 3.97-.99c2-.55 4.01-1.22 4.01-1.22l.1-.6c.06-.36.15-.84.18-1.33.08-.97.15-1.94.15-1.94s-1.94.79-3.87 1.46c-.95.34-1.95.65-2.71.87-.75.21-1.25.36-1.25.36l-.02.04zM186.47 63.4v-.05s-1.89-.82-3.78-1.52c-1.89-.71-3.77-1.3-3.77-1.3l.06 2.98s1.89.7 3.78 1.52c.96.41 1.86.84 2.53 1.17.68.34 1.13.57 1.13.57v-.01l.02.03 1.21-.48a49.9 49.9 0 0 0 2.62-1.12c1.86-.85 3.71-1.82 3.71-1.82l-.09-3.88s-1.84 1.08-3.69 2.05-3.71 1.83-3.71 1.83l-.02.03zM185.75 54.6l-.01-.05s-.5-.12-1.26-.31c-.76-.18-1.77-.4-2.77-.6-2.01-.4-3.99-.69-3.99-.69s.16.73.32 1.45l.22 1c.07.27.09.46.09.46s1.93.41 3.88.94c1.95.52 3.91 1.16 3.91 1.16v-.01l.03.03s1.76-1.02 3.51-2.17c1.75-1.13 3.48-2.38 3.48-2.38s-.02-.24-.11-.6c-.08-.36-.18-.83-.28-1.31l-.42-1.9s-1.62 1.35-3.27 2.58c-.82.62-1.65 1.21-2.27 1.65-.62.43-1.05.72-1.05.72l-.01.03zM183.57 46.04l-.02-.05s-2.04-.21-4.03-.3c-.98-.05-2.03-.06-2.79-.06-.76.01-1.27.01-1.27.01s.07.17.19.43c.11.26.27.59.37.95.23.71.45 1.42.45 1.42a79.43 79.43 0 0 0 6.84.63c.78.1 1.27.19 1.27.19v-.01l.03.02s.41-.32.98-.82c.58-.49 1.35-1.16 2.11-1.86 1.52-1.38 3-2.88 3-2.88s-.3-.93-.6-1.85c-.14-.47-.34-.91-.48-1.25s-.24-.56-.24-.56-.34.39-.86.97-1.2 1.33-1.95 2.08c-1.48 1.5-3 2.89-3 2.89v.05zM180.12 37.91l-.02-.04s-2.07.13-4.07.37c-2.01.23-3.96.57-3.96.57l1.43 2.6s.51-.05 1.26-.14c.75-.07 1.81-.18 2.79-.22 1.99-.1 4.04-.1 4.04-.1v-.01l.03.02s1.38-1.53 2.71-3.17c.68-.82 1.27-1.63 1.73-2.26.45-.63.76-1.05.76-1.05l-1.89-3.41s-1.14 1.8-2.34 3.5c-1.2 1.71-2.45 3.3-2.45 3.3l-.02.04zM175.45 30.41l-.03-.04s-.49.1-1.25.3c-.75.19-1.75.46-2.73.74-1.97.57-3.85 1.23-3.85 1.23s.47.57.95 1.14c.24.28.48.57.66.78.19.21.28.37.28.37s1.9-.53 3.88-.95c1.97-.44 4.01-.77 4.01-.77v-.01l.04.01s1.1-1.71 2.12-3.53c1.03-1.81 1.99-3.72 1.99-3.72s-.12-.21-.37-.49l-.85-1.04c-.62-.75-1.25-1.5-1.25-1.5s-.81 1.95-1.71 3.8c-.45.93-.91 1.84-1.26 2.51s-.61 1.12-.61 1.12l-.02.05zM169.57 23.82l-.03-.03s-1.89.76-3.7 1.6c-1.86.9-3.63 1.87-3.63 1.87s.57.47 1.15.93c.52.52 1.04 1.05 1.04 1.05s1.81-.84 3.7-1.6 3.87-1.44 3.87-1.44l-.01-.01h.04s.79-1.85 1.49-3.79c.71-1.93 1.33-3.96 1.33-3.96l-1.39-1.37c-.75-.63-1.51-1.25-1.51-1.25s-.47 2.04-1.04 4c-.61 2.02-1.32 3.96-1.32 3.96l.01.04zM162.73 18.25l-.04-.03s-1.76 1.08-3.41 2.23c-.83.57-1.63 1.16-2.22 1.6s-.99.77-.99.77.17.07.39.23c.23.16.53.36.84.57l1.22.82s1.65-1.15 3.41-2.23c.89-.55 1.74-1.01 2.41-1.38l1.12-.6-.01-.01h.04s.12-.5.31-1.26c.17-.75.42-1.8.6-2.8.37-2.01.63-4.09.63-4.09s-.81-.55-1.63-1.09c-.41-.27-.82-.54-1.12-.75s-.53-.32-.53-.32-.02.5-.1 1.31c-.07.79-.18 1.85-.31 2.88-.26 2.08-.63 4.09-.63 4.09l.02.06zM155.06 13.86l-.05-.02s-1.56 1.38-3 2.81c-1.45 1.43-2.77 2.9-2.77 2.9l2.71 1.12s.37-.36.92-.89c.55-.51 1.28-1.17 2.04-1.82 1.52-1.31 3.15-2.56 3.15-2.56h-.01l.04-.01s.16-2.04.2-4.14c.02-1.05.03-2.11.01-2.9l-.05-1.29-3.63-1.51s.22 2.12.32 4.19c.11 2.07.09 4.09.09 4.09l.03.03zM146.75 10.88l-.05-.01s-1.28 1.54-2.46 3.26c-1.18 1.68-2.23 3.39-2.23 3.39s2.88.53 2.85.62c0 0 1.16-1.6 2.44-3.17 1.27-1.57 2.68-3.1 2.68-3.1h-.01l.04-.01s-.2-2.02-.52-4.07c-.31-2.05-.76-4.14-.76-4.14s-.93-.32-1.91-.47l-1.94-.38s.59 2.02 1.05 4.02c.48 1.97.79 4.05.79 4.05l.03.01zM138.05 9.41H138s-.99 1.79-1.85 3.6c-.43.9-.84 1.8-1.13 2.52-.29.71-.48 1.18-.48 1.18s.18 0 .46-.01c.28-.02.64.02 1 .05.73.07 1.46.13 1.46.13s.86-1.81 1.86-3.6c.49-.9 1.02-1.8 1.42-2.46l.68-1.06h-.01l.03-.02s-.14-.5-.35-1.26c-.22-.74-.53-1.69-.87-2.67-.67-1.94-1.48-3.89-1.48-3.89s-.98-.08-1.97-.17c-.49-.04-.98-.09-1.35-.07-.37 0-.62.01-.62.01s.23.46.57 1.16c.33.68.76 1.66 1.16 2.63.81 1.95 1.48 3.89 1.48 3.89l.04.04zM129.22 9.42l-.05.01s-.67 1.97-1.2 3.92c-.54 1.95-.95 3.89-.95 3.89l2.91-.36.35-1.22c.22-.75.52-1.7.86-2.63.66-1.88 1.46-3.77 1.46-3.77h-.01l.03-.02s-.88-1.86-1.89-3.71c-.5-.93-1.03-1.85-1.44-2.49-.41-.66-.69-1.1-.69-1.1l-3.91.48s1.25 1.73 2.37 3.48c1.13 1.75 2.12 3.51 2.12 3.51l.04.01zM120.53 10.97l-.05.01s-.34 1.98-.5 4.05c-.19 2.05-.24 4.05-.24 4.05s2.75-.98 2.78-.89c0 0 .2-1.96.53-3.96.32-2 .77-4.02.77-4.02h-.01l.02-.03s-1.18-1.65-2.49-3.27c-1.3-1.62-2.73-3.21-2.73-3.21s-.97.19-1.89.55c-.93.32-1.87.64-1.87.64s1.53 1.46 2.92 2.96c1.4 1.46 2.71 3.11 2.71 3.11l.05.01zM112.26 14.05l-.04.02s.03 2.05.19 4.04c.07.98.18 1.99.28 2.76.1.76.17 1.26.17 1.26s.16-.09.39-.24.55-.33.89-.47c.67-.31 1.33-.61 1.33-.61s-.16-1.99-.19-4.04c-.02-1.02-.01-2.06 0-2.84.03-.75.06-1.26.06-1.26h-.01l.02-.03s-.37-.37-.93-.92c-.55-.52-1.31-1.2-2.09-1.87-1.55-1.35-3.22-2.64-3.22-2.64s-.89.42-1.79.83c-.22.1-.45.21-.65.31-.2.12-.38.22-.54.32-.32.19-.53.31-.53.31s.43.29 1.07.73c.63.43 1.48 1.03 2.32 1.69 1.67 1.28 3.23 2.63 3.23 2.63l.04.02z"/></g><g clip-path="url(#f)" fill="#D50000"><path d="M-56.81 55.67v-.05s-.43-.28-1.06-.7-1.47-1-2.31-1.6c-1.67-1.2-3.32-2.51-3.32-2.51l-.38 1.91c-.09.48-.19.95-.26 1.31-.08.36-.1.6-.1.6s1.76 1.22 3.53 2.31c1.77 1.11 3.56 2.1 3.56 2.1v-.01l.02.03s1.95-.68 3.89-1.24c1.94-.57 3.86-1.02 3.86-1.02s.01-.19.08-.46c.06-.27.13-.64.2-1 .15-.73.29-1.46.29-1.46s-1.97.33-3.97.77c-1 .22-2 .46-2.76.66-.75.2-1.25.33-1.25.33l-.02.03zM-54.8 47.06l.01-.05s-1.55-1.35-3.06-2.83c-.77-.74-1.46-1.47-1.99-2.04s-.88-.96-.88-.96-.09.23-.23.56c-.14.34-.33.79-.46 1.26-.28.93-.57 1.86-.57 1.86s1.51 1.47 3.06 2.82c.77.68 1.55 1.34 2.14 1.82.58.48 1 .8 1 .8v-.01l.02.03s.49-.1 1.27-.21c.77-.12 1.79-.27 2.81-.39 2.03-.25 4.03-.39 4.03-.39s.21-.71.42-1.43c.09-.36.24-.7.35-.96s.18-.43.18-.43-.51.01-1.27.01c-.76.01-1.8.04-2.79.12-1.99.13-4.02.38-4.02.38l-.02.04zM-51.53 38.86l.02-.04s-1.29-1.57-2.52-3.25c-1.24-1.67-2.41-3.45-2.41-3.45l-1.82 3.45s.31.41.78 1.04c.48.62 1.08 1.41 1.78 2.23 1.36 1.61 2.77 3.11 2.77 3.11v-.01l.01.04s2.04-.05 4.04.01c.98.02 2.04.1 2.79.16.76.07 1.27.11 1.27.11l1.38-2.63s-1.95-.3-3.97-.49c-2.01-.2-4.08-.29-4.08-.29l-.04.01zM-47.01 31.27l.03-.04s-.27-.45-.63-1.11c-.37-.67-.85-1.56-1.31-2.48-.93-1.83-1.79-3.77-1.79-3.77s-.61.76-1.22 1.53c-.3.38-.61.77-.83 1.05-.24.28-.36.49-.36.49s1 1.89 2.07 3.67c1.06 1.8 2.2 3.49 2.2 3.49v-.01.04s2.05.29 4.03.68c1.99.38 3.9.87 3.9.87s.09-.17.27-.38c.17-.22.41-.5.64-.79l.92-1.16s-1.9-.62-3.88-1.15c-.99-.26-1.99-.51-2.75-.68-.77-.18-1.25-.27-1.25-.27l-.04.02zM-41.27 24.55l.03-.04s-.75-1.92-1.4-3.93c-.61-1.94-1.12-3.97-1.12-3.97l-1.48 1.28-1.36 1.4s.66 2.01 1.41 3.93c.74 1.93 1.57 3.76 1.57 3.76l.01-.01v.04s1.99.63 3.9 1.35 3.74 1.52 3.74 1.52.51-.53 1.02-1.07l1.12-.96s-1.78-.94-3.67-1.8c-1.82-.81-3.73-1.52-3.73-1.52l-.04.02zM-34.54 18.84l.04-.03s-.41-2-.71-4.08c-.15-1.04-.28-2.08-.37-2.88s-.12-1.3-.12-1.3-.22.11-.52.32-.7.49-1.11.77c-.8.56-1.61 1.12-1.61 1.12s.3 2.08.72 4.08c.19.99.47 2.04.65 2.78.2.75.33 1.25.33 1.25l.01-.01-.01.04s.45.23 1.13.57c.68.36 1.54.8 2.44 1.33 1.78 1.04 3.46 2.15 3.46 2.15s.6-.42 1.21-.85c.3-.21.6-.43.83-.59.22-.17.39-.24.39-.24s-.41-.33-1.01-.75c-.6-.43-1.42-1-2.26-1.56-1.67-1.11-3.45-2.15-3.45-2.15l-.04.03zM-26.96 14.29l.04-.02s-.06-2.02.01-4.1c.05-2.07.23-4.19.23-4.19l-3.6 1.59s-.01.52-.02 1.29c0 .79.03 1.86.07 2.9.09 2.1.29 4.14.29 4.14h.01l-.01.04s1.66 1.21 3.21 2.49c.78.64 1.53 1.28 2.08 1.78.56.52.93.87.93.87l2.69-1.18s-1.35-1.45-2.83-2.84c-1.47-1.4-3.06-2.75-3.06-2.75l-.04-.02zM-18.71 11.13l.05-.02s.27-2.08.71-4.06c.42-2.01.97-4.04.97-4.04s-.96.21-1.93.42c-.97.18-1.9.51-1.9.51s-.4 2.09-.68 4.15c-.29 2.06-.44 4.08-.44 4.08h.01l-.02.03s1.44 1.5 2.75 3.05c1.32 1.54 2.51 3.12 2.51 3.12-.02-.09 2.84-.68 2.84-.68s-1.08-1.68-2.3-3.34c-1.22-1.69-2.53-3.2-2.53-3.2l-.04-.02zM-10.04 9.48l.05-.01s.63-1.95 1.4-3.92c.38-.99.79-1.97 1.11-2.66.33-.7.54-1.17.54-1.17h-.62c-.35 0-.84.06-1.33.11-.98.1-1.96.21-1.96.21s-.77 1.97-1.4 3.92c-.32.98-.61 1.95-.82 2.68-.19.76-.32 1.27-.32 1.27h.01l-.02.03.7 1.05c.42.65.96 1.54 1.47 2.42 1.04 1.77 1.93 3.56 1.93 3.56l1.45-.16c.36-.04.73-.09 1-.08h.46l-.5-1.17c-.31-.72-.73-1.61-1.18-2.5A71.67 71.67 0 0 0-10 9.5l-.04-.02zM-1.21 9.31l.05.01S-.2 7.54.89 5.77C1.97 4 3.19 2.24 3.19 2.24l-3.92-.4s-.27.44-.67 1.11c-.39.65-.9 1.58-1.38 2.52-.97 1.87-1.81 3.75-1.81 3.75h.01l-.03.02s.84 1.87 1.54 3.74c.36.93.68 1.86.91 2.61.23.73.38 1.22.38 1.22l2.91.3S.68 15.19.09 13.24c-.57-1.94-1.28-3.9-1.28-3.9l-.02-.03zM7.52 10.68l.05.01s1.27-1.67 2.64-3.16c1.36-1.53 2.86-3.02 2.86-3.02l-1.88-.6c-.93-.33-1.9-.51-1.9-.51s-1.4 1.61-2.66 3.26C5.35 8.31 4.21 9.98 4.21 9.98h.01l-.04.02s.5 2.02.86 4.01c.37 1.99.62 3.95.62 3.95.03-.1 2.8.83 2.8.83s-.1-2-.33-4.04c-.21-2.07-.59-4.04-.59-4.04l-.02-.03zM15.86 13.58l.04.02s1.52-1.38 3.17-2.69c.83-.67 1.66-1.29 2.28-1.74.64-.45 1.06-.75 1.06-.75s-.21-.12-.54-.3a8.52 8.52 0 0 0-1.21-.6l-1.8-.8s-1.65 1.32-3.17 2.7c-.76.69-1.5 1.39-2.05 1.91-.55.56-.91.93-.91.93h.01l-.04.01s.03.5.08 1.25c.03.78.06 1.81.06 2.84.01 2.05-.1 4.05-.1 4.05l1.34.58c.17.07.34.14.49.21.15.09.29.17.41.23.24.14.4.23.4.23l.15-1.26c.09-.77.18-1.78.22-2.77.11-1.99.1-4.04.1-4.04l.01-.01zM17.08 113.11l-.04.02s.06 2.02-.01 4.1c-.05 2.07-.23 4.19-.23 4.19l3.6-1.59s.01-.52.02-1.29c0-.79-.03-1.86-.07-2.9-.09-2.1-.29-4.14-.29-4.14h-.01l.01-.04s-1.66-1.21-3.21-2.49c-.78-.64-1.53-1.28-2.08-1.78-.56-.52-.93-.87-.93-.87l-2.69 1.18s1.35 1.45 2.83 2.84c1.47 1.4 3.06 2.75 3.06 2.75l.04.02zM8.83 116.27l-.05.02s-.27 2.08-.71 4.06c-.42 2.01-.97 4.04-.97 4.04s.96-.21 1.93-.42c.97-.18 1.9-.51 1.9-.51s.4-2.09.68-4.15c.29-2.06.44-4.08.44-4.08h-.01l.02-.03s-1.44-1.5-2.75-3.05c-1.32-1.54-2.51-3.12-2.51-3.12.02.09-2.84.68-2.84.68s1.08 1.68 2.3 3.34c1.22 1.69 2.53 3.2 2.53 3.2l.04.02zM.15 117.91l-.05.01s-.63 1.95-1.4 3.92c-.38.99-.79 1.97-1.11 2.66-.33.7-.54 1.17-.54 1.17h.62c.37.01.86-.04 1.35-.09.98-.1 1.96-.21 1.96-.21s.77-1.97 1.4-3.92c.32-.98.61-1.95.82-2.68.19-.76.32-1.27.32-1.27h-.01l.02-.03-.7-1.05c-.42-.65-.96-1.54-1.47-2.42-1.04-1.77-1.93-3.56-1.93-3.56l-1.45.16c-.36.04-.73.09-1 .08h-.46l.5 1.17c.31.72.73 1.61 1.18 2.5a71.67 71.67 0 0 0 1.93 3.56h.02zM-8.67 118.09l-.05-.01s-.96 1.78-2.05 3.55c-1.08 1.77-2.3 3.53-2.3 3.53l3.92.4s.27-.44.67-1.11c.39-.65.9-1.58 1.38-2.52.97-1.87 1.81-3.75 1.81-3.75h-.01l.03-.02s-.84-1.87-1.54-3.74c-.36-.93-.68-1.86-.91-2.61-.23-.73-.38-1.22-.38-1.22l-2.91-.3s.45 1.92 1.04 3.87c.57 1.94 1.28 3.9 1.28 3.9l.02.03zM-17.4 116.72l-.05-.01s-1.27 1.67-2.64 3.16c-1.36 1.53-2.86 3.02-2.86 3.02l1.88.6c.93.33 1.9.51 1.9.51s1.4-1.61 2.66-3.26c1.28-1.65 2.42-3.32 2.42-3.32h-.01l.03-.02s-.5-2.02-.86-4.01c-.37-1.99-.62-3.95-.62-3.95-.03.1-2.8-.83-2.8-.83s.1 2 .33 4.04c.21 2.07.59 4.04.59 4.04l.03.03zM-25.74 113.81l-.04-.02s-1.52 1.38-3.17 2.69c-.83.67-1.66 1.29-2.28 1.74-.64.45-1.06.75-1.06.75s.21.12.54.3c.32.19.75.42 1.21.6l1.8.8s1.65-1.32 3.17-2.7c.76-.69 1.5-1.39 2.05-1.91.55-.56.91-.93.91-.93h-.01l.04-.01s-.03-.5-.08-1.25c-.03-.78-.06-1.81-.06-2.84-.01-2.05.1-4.05.1-4.05l-1.34-.58c-.17-.07-.34-.14-.49-.21-.15-.09-.29-.17-.41-.23-.24-.14-.4-.23-.4-.23l-.15 1.26c-.09.77-.18 1.78-.22 2.77-.11 1.99-.1 4.04-.1 4.04l-.01.01zM-33.47 109.55l-.04-.03s-1.73 1.08-3.56 2.07a78.53 78.53 0 0 1-3.75 1.93l3.21 2.27s.45-.25 1.13-.64c.68-.4 1.54-.88 2.44-1.47a78.88 78.88 0 0 0 3.44-2.35h-.01l.04-.01s.21-2.04.53-4c.15-.97.37-2.01.52-2.75.17-.74.28-1.24.28-1.24l-2.41-1.69s-.56 1.89-1.01 3.86c-.46 1.96-.82 4-.82 4l.01.05zM-40.4 104.06l-.03-.04s-1.87.76-3.82 1.42c-1.95.67-3.99 1.25-3.99 1.25l2.71 2.82s2.01-.73 3.93-1.54c1.93-.81 3.76-1.71 3.76-1.71l-.01-.01h.04s.56-1.99 1.22-3.89c.65-1.91 1.4-3.73 1.4-3.73l-2.04-2.14s-.88 1.79-1.67 3.67c-.8 1.87-1.51 3.84-1.51 3.84l.01.06zM-46.25 97.44l-.03-.04s-.51.11-1.27.28c-.75.16-1.81.39-2.81.54-2.01.34-4.1.56-4.1.56s.53.82 1.07 1.64c.25.42.59.78.8 1.07l.38.48s2.09-.38 4.1-.85c2.02-.47 3.95-1.04 3.95-1.04l-.01-.01.04.01s.9-1.88 1.88-3.66c.97-1.79 2.02-3.48 2.02-3.48s-.12-.14-.29-.36c-.16-.22-.43-.49-.61-.81-.4-.62-.8-1.25-.8-1.25s-1.17 1.64-2.28 3.38c-.57.88-1.04 1.72-1.43 2.39-.37.66-.62 1.11-.62 1.11l.01.04zM-50.97 89.97l-.02-.04s-2.04.13-4.14.15c-1.05.01-2.1 0-2.9-.01-.78-.03-1.29-.06-1.29-.06s.09.22.24.56l.61 1.19c.45.87.9 1.73.9 1.73s2.1-.02 4.14-.16c1.01-.06 2.04-.16 2.83-.25.77-.1 1.29-.16 1.29-.16v-.01l.04.01.72-1.04c.43-.61 1.02-1.43 1.67-2.24 1.27-1.62 2.6-3.13 2.6-3.13s-.34-.66-.69-1.31c-.17-.33-.35-.66-.47-.9-.12-.25-.18-.43-.18-.43s-.36.36-.89.91a68 68 0 0 0-1.84 2.03c-1.33 1.51-2.59 3.13-2.59 3.13l-.03.03zM-54.48 81.86l-.01-.05s-2.01-.2-4.06-.52c-2.05-.31-4.12-.74-4.12-.74l1.11 3.74s.51.07 1.28.18c.77.1 1.84.21 2.88.3 2.09.18 4.14.25 4.14.25v-.01l.03.02s1.42-1.49 2.88-2.86c.73-.69 1.46-1.35 2.03-1.84.59-.49.98-.82.98-.82l-.84-2.85s-1.6 1.18-3.17 2.47c-1.57 1.28-3.11 2.69-3.11 2.69l-.02.04zM-56.6 73.29l-.01-.05-1.26-.33c-.76-.2-1.77-.49-2.72-.81-1.94-.63-3.9-1.38-3.9-1.38s.1.97.19 1.94c.03.49.13.96.2 1.32s.11.6.11.6 2.03.63 4.03 1.13c2.01.52 3.99.91 3.99.91v-.01l.03.02s1.66-1.25 3.35-2.38c1.69-1.14 3.39-2.15 3.39-2.15s-.04-.18-.09-.46c-.05-.27-.14-.64-.16-1.01l-.14-1.48s-1.79.91-3.58 1.95c-.91.52-1.75 1.05-2.38 1.46-.63.42-1.06.7-1.06.7l.01.03zM-57.35 64.49v-.05s-1.87-.82-3.74-1.75c-1.87-.92-3.73-1.97-3.73-1.97l-.01 3.88s1.87.93 3.75 1.75c.92.41 1.91.79 2.64 1.07l1.22.45v-.01l.03.03s.45-.24 1.12-.59 1.55-.8 2.51-1.23c1.87-.86 3.75-1.6 3.75-1.6v-2.99s-1.87.63-3.74 1.38c-1.87.74-3.75 1.6-3.75 1.6l-.05.03z"/></g><g fill="#D50000"><path d="M98.6 103.36l.04.05 6.92-1.96c1.32-.37 1.81-1.98.92-3.03-.47-.55-1.21-.78-1.91-.59l-8.5 2.25.01.01-.04-.01-3.96 8.12c-.33.67-.23 1.48.26 2.04l.16.18c.89 1.04 2.57.8 3.13-.45l2.98-6.57-.01-.04zM91.15 94.08l.03.05 7.06-1.34c1.35-.25 1.97-1.82 1.18-2.93-.42-.59-1.14-.88-1.85-.76l-8.67 1.49.01.01-.04-.02-4.66 7.73c-.39.64-.35 1.45.08 2.06l.14.2c.8 1.12 2.48 1.03 3.16-.17l3.55-6.28.01-.04zM85.61 82.37l.03.05 7.19-.11c1.37-.02 2.25-1.45 1.66-2.69a1.87 1.87 0 0 0-1.69-1.06l-8.8-.02v.01l-.04-.02-5.91 6.83c-.49.57-.6 1.37-.27 2.04l.1.22c.6 1.24 2.27 1.44 3.14.37l4.57-5.58.02-.04z"/></g><path d="M82.74 70.47l.01.06 6.97 1.74c1.33.33 2.55-.83 2.3-2.17-.13-.71-.66-1.28-1.36-1.46l-8.49-2.27v.01l-.03-.03-7.47 5.08c-.62.42-.93 1.17-.79 1.9l.05.24a1.877 1.877 0 0 0 2.94 1.17l5.85-4.22.02-.05zM83.15 58.61l-.01.06 5.84 4.18c1.11.8 2.68.17 2.94-1.17a1.88 1.88 0 0 0-.72-1.86l-7.06-5.24v.01l-.02-.04-8.81 1.97c-.73.16-1.29.74-1.43 1.48l-.05.24c-.26 1.35.97 2.51 2.3 2.17l7-1.76.02-.04zM85.16 46.16l-.02.06 5.45 4.68a1.879 1.879 0 0 0 2.47-2.83l-6.57-5.84v.01l-.01-.04-8.95 1.18c-.74.1-1.36.63-1.56 1.35l-.07.23c-.37 1.32.75 2.58 2.1 2.37l7.12-1.14.04-.03zM90.54 34.51l-.03.05 4.57 5.55c.87 1.06 2.54.86 3.14-.38.31-.65.23-1.42-.22-1.98l-5.48-6.88-.01.01-.01-.05-9.02-.36c-.75-.03-1.44.39-1.77 1.06l-.1.22a1.88 1.88 0 0 0 1.67 2.69l7.21.09.05-.02zM98 25.24l-.04.04 2.99 6.53c.57 1.24 2.24 1.48 3.13.44.47-.55.58-1.31.3-1.97l-3.52-8.06-.01.01.01-.05-8.63-2.67c-.72-.22-1.49 0-1.98.57l-.16.18c-.89 1.04-.4 2.66.92 3.03l6.95 1.94.04.01z" fill="#D50000"/><g fill="#D50000"><path d="M31.37 103.36l-.04.05-6.92-1.96c-1.32-.37-1.81-1.98-.92-3.03.47-.55 1.21-.78 1.91-.59l8.5 2.25-.01.01.04-.01 3.96 8.12c.33.67.23 1.48-.26 2.04l-.16.18c-.89 1.04-2.57.8-3.13-.45l-2.98-6.57.01-.04zM38.83 94.08l-.03.05-7.06-1.34c-1.34-.25-1.97-1.82-1.18-2.93.42-.59 1.14-.88 1.85-.76l8.67 1.49-.01.01.04-.02 4.66 7.73c.39.64.35 1.45-.08 2.06l-.14.2a1.873 1.873 0 0 1-3.16-.17l-3.55-6.28-.01-.04zM44.36 82.37l-.03.05-7.19-.11c-1.37-.02-2.25-1.45-1.66-2.69.31-.65.97-1.06 1.69-1.06l8.79-.01v.01l.04-.02 5.91 6.83c.49.57.6 1.37.27 2.04l-.1.22a1.869 1.869 0 0 1-3.14.37l-4.57-5.58-.01-.05z"/></g><path d="M47.23 70.47l-.01.06-6.97 1.74c-1.33.33-2.55-.83-2.3-2.17.13-.71.66-1.28 1.36-1.46l8.49-2.27v.01l.03-.03 7.47 5.08c.62.42.93 1.17.79 1.9l-.05.24a1.877 1.877 0 0 1-2.94 1.17l-5.85-4.22-.02-.05zM46.83 58.61l.01.06L41 62.85c-1.11.8-2.68.17-2.94-1.17-.14-.71.15-1.43.72-1.86l7.06-5.24v.01l.02-.04 8.81 1.97c.73.16 1.29.74 1.43 1.48l.05.24c.26 1.35-.97 2.51-2.3 2.17l-7-1.76-.02-.04zM44.81 46.16l.02.06-5.45 4.68a1.879 1.879 0 0 1-2.47-2.83l6.57-5.84v.01l.01-.04 8.95 1.18c.74.1 1.36.63 1.56 1.35l.07.23c.37 1.32-.75 2.58-2.1 2.37l-7.12-1.14-.04-.03zM39.43 34.51l.03.05-4.57 5.55c-.87 1.06-2.54.86-3.14-.38-.31-.65-.23-1.42.22-1.98l5.48-6.88.01.01.01-.05 9.02-.36c.75-.03 1.44.39 1.77 1.06l.1.22a1.88 1.88 0 0 1-1.67 2.69l-7.21.09-.05-.02zM31.97 25.24l.04.04-2.99 6.53c-.57 1.24-2.24 1.48-3.13.44-.47-.55-.58-1.31-.3-1.97l3.52-8.06.01.01-.01-.05 8.63-2.67c.72-.22 1.49 0 1.98.57l.16.18c.89 1.04.4 2.66-.92 3.03l-6.95 1.94-.04.01z" fill="#D50000"/></svg>