<svg viewBox="0 0 128 128" width="128" height="128" xmlns="http://www.w3.org/2000/svg"><g fill="#A37DC7"><path d="M17.76 14.75c1.62 0 2.95 1.5 4.22 2.49.16.12.31.23.47.34a23.85 23.85 0 0 0 5.31 2.62c1.81.63 6.63 1.18 7.06 3.4.27 1.44-1.11 2.69-2.16 3.41-.33.22-.69.44-1.06.65-1.97 1.1-4.57 1.97-6.8 1.97-.34 0-.67-.02-1-.06-4-.53-7.47-3.62-8.73-7.43-.27-.82-.44-1.67-.49-2.54-.11-2.04.8-4.52 2.82-4.81.12-.04.24-.04.36-.04m0-2.89c-.25 0-.51.02-.77.05-3.69.52-5.49 4.42-5.3 7.82.06 1.09.27 2.2.63 3.29 1.63 4.94 6.09 8.71 11.09 9.38.44.06.9.09 1.38.09 2.52 0 5.59-.87 8.21-2.33.5-.28.92-.54 1.3-.79 3.5-2.41 3.61-4.99 3.35-6.32-.67-3.54-4.83-4.55-7.58-5.22-.53-.13-1.08-.26-1.36-.36-1.64-.57-3.21-1.34-4.67-2.3-.09-.06-.19-.13-.28-.21-.23-.18-.47-.38-.71-.59-1.25-1.06-2.95-2.51-5.29-2.51zM110.24 14.75c.12 0 .24.01.36.03 2.03.28 2.93 2.77 2.82 4.81-.05.87-.22 1.72-.49 2.54-1.26 3.81-4.73 6.89-8.73 7.43-.32.04-.65.06-1 .06-2.23 0-4.83-.87-6.8-1.97-.38-.21-.74-.43-1.06-.65-1.04-.72-2.43-1.97-2.16-3.41.42-2.22 5.24-2.77 7.06-3.4a23.85 23.85 0 0 0 5.31-2.62c.16-.1.31-.22.47-.34 1.27-.98 2.6-2.48 4.22-2.48m0-2.89c-2.34 0-4.04 1.45-5.28 2.51-.24.21-.48.41-.71.59-.09.07-.19.14-.28.21-1.46.96-3.03 1.73-4.67 2.3-.29.1-.83.23-1.36.36-2.75.67-6.91 1.68-7.58 5.22-.25 1.33-.15 3.91 3.35 6.32.37.26.8.52 1.3.79 2.62 1.46 5.69 2.33 8.21 2.33.47 0 .94-.03 1.38-.09 5-.67 9.45-4.44 11.09-9.38.36-1.09.57-2.2.63-3.29.19-3.4-1.61-7.3-5.3-7.82-.27-.03-.53-.05-.78-.05z"/></g><g fill="#C9BDA2"><path d="M26.99 107.25c.31 0 .63.04.95.14l.41.12a3.37 3.37 0 0 1 2.29 4.19l-1.41 4.8a3.384 3.384 0 0 1-3.24 2.43c-.31 0-.63-.04-.95-.14l-.41-.12a3.37 3.37 0 0 1-2.29-4.19l1.41-4.8a3.375 3.375 0 0 1 3.24-2.43m0-1.92c-2.34 0-4.43 1.57-5.09 3.81l-1.41 4.8c-.4 1.36-.24 2.79.44 4.03s1.8 2.15 3.16 2.54l.41.12c.49.14.99.21 1.49.21 2.34 0 4.43-1.57 5.09-3.81l1.41-4.8c.4-1.36.24-2.79-.44-4.03s-1.8-2.14-3.16-2.54l-.41-.12c-.49-.14-.99-.21-1.49-.21zM101.01 107.25c1.46 0 2.81.96 3.24 2.43l1.41 4.8c.52 1.79-.5 3.67-2.29 4.19l-.41.12c-.32.09-.64.14-.95.14-1.46 0-2.81-.96-3.24-2.43l-1.41-4.8c-.52-1.79.5-3.67 2.29-4.19l.41-.12c.32-.09.64-.14.95-.14m0-1.92c-.5 0-1 .07-1.49.21l-.41.12c-2.8.82-4.42 3.77-3.6 6.58l1.41 4.8a5.337 5.337 0 0 0 5.09 3.81c.5 0 1-.07 1.49-.21l.41-.12c1.36-.4 2.48-1.3 3.16-2.54s.83-2.67.44-4.03l-1.41-4.8a5.334 5.334 0 0 0-5.09-3.82z"/></g><g fill="#F7F1E3"><path d="M25.04 118.79l-.41-.12a3.37 3.37 0 0 1-2.29-4.19l1.41-4.8a3.37 3.37 0 0 1 4.19-2.29l.41.12a3.37 3.37 0 0 1 2.29 4.19l-1.41 4.8a3.37 3.37 0 0 1-4.19 2.29zM102.96 118.79l.41-.12a3.37 3.37 0 0 0 2.29-4.19l-1.41-4.8a3.37 3.37 0 0 0-4.19-2.29l-.41.12a3.37 3.37 0 0 0-2.29 4.19l1.41 4.8a3.37 3.37 0 0 0 4.19 2.29z"/></g><linearGradient id="a" x1="14.568" x2="34.854" y1="21.21" y2="21.21" gradientUnits="userSpaceOnUse"><stop stop-color="#E4C7FF" offset="0"/><stop stop-color="#997FB3" offset="1"/></linearGradient><path d="M31.6 27.65c.38-.21.74-.43 1.06-.65 1.04-.72 2.43-1.97 2.16-3.41-.42-2.22-5.24-2.77-7.06-3.4a23.85 23.85 0 0 1-5.31-2.62c-.16-.1-.31-.22-.47-.34-1.36-1.06-2.8-2.72-4.58-2.46-2.03.28-2.93 2.77-2.82 4.81.05.87.22 1.72.49 2.54 4.43 3.97 10.55 5.81 16.53 5.53z" fill="url(#a)"/><path d="M15.07 22.12c1.26 3.81 4.73 6.89 8.73 7.43 2.42.32 5.52-.63 7.8-1.9-5.98.28-12.1-1.56-16.53-5.53z" fill="#F7F1E3"/><linearGradient id="b" x1="93.146" x2="113.43" y1="21.21" y2="21.21" gradientUnits="userSpaceOnUse"><stop stop-color="#997FB3" offset="0"/><stop stop-color="#E4C7FF" offset="1"/></linearGradient><path d="M96.4 27.65c-.38-.21-.74-.43-1.06-.65-1.04-.72-2.43-1.97-2.16-3.41.42-2.22 5.24-2.77 7.06-3.4a23.85 23.85 0 0 0 5.31-2.62c.16-.1.31-.22.47-.34 1.36-1.06 2.8-2.72 4.58-2.46 2.03.28 2.93 2.77 2.82 4.81-.05.87-.22 1.72-.49 2.54-4.43 3.97-10.55 5.81-16.53 5.53z" fill="url(#b)"/><path d="M112.93 22.12c-1.26 3.81-4.73 6.89-8.73 7.43-2.42.32-5.52-.63-7.8-1.9 5.98.28 12.1-1.56 16.53-5.53z" fill="#F7F1E3"/><linearGradient id="c" x1="64" x2="64" y1="10.827" y2="78.082" gradientUnits="userSpaceOnUse"><stop stop-color="#E4C7FF" offset="0"/><stop stop-color="#997FB3" offset="1"/></linearGradient><path d="M68.28 100.46h-8.56c-24.54 0-44.61-16.72-44.61-41.25v-3.52c0-24.54 20.08-44.61 44.61-44.61h8.56c24.54 0 44.61 20.08 44.61 44.61v3.52c0 24.53-20.07 41.25-44.61 41.25z" fill="url(#c)"/><linearGradient id="d" x1="64" x2="64" y1="72.133" y2="143.24" gradientUnits="userSpaceOnUse"><stop stop-color="#DECEF2" offset=".001"/><stop stop-color="#CBBBDF" offset=".515"/><stop stop-color="#BDADD1" offset=".997"/></linearGradient><path d="M64 115.24c-39.73 0-57.67-13.91-57.67-27.48S21.99 59.81 64 59.81s57.67 14.37 57.67 27.95-17.94 27.48-57.67 27.48z" fill="url(#d)"/><path d="M68.28 11.07c24.54 0 44.61 20.08 44.61 44.61v3.52c0 3.98-.54 7.74-1.52 11.27 7.17 5.02 10.3 11.23 10.3 17.28 0 13.57-17.94 27.48-57.67 27.48S6.33 101.32 6.33 87.75c0-6.05 3.12-12.26 10.3-17.28-.99-3.53-1.52-7.3-1.52-11.27v-3.52c0-24.54 20.08-44.61 44.61-44.61h8.56m0-2.88h-8.56c-26.19 0-47.5 21.31-47.5 47.5v3.52c0 3.45.38 6.84 1.14 10.11-6.41 5.06-9.91 11.54-9.91 18.44 0 15.11 18.72 30.36 60.55 30.36 18.76 0 34.36-3.11 45.12-9 13.43-7.35 15.43-16.54 15.43-21.36 0-6.9-3.5-13.39-9.91-18.44.75-3.27 1.14-6.66 1.14-10.11v-3.52c0-26.19-21.31-47.5-47.5-47.5z" fill="#A37DC7"/><circle cx="38.39" cy="54.5" r="3.49"/><circle cx="89.61" cy="54.5" r="3.49"/><linearGradient id="e" x1="16.835" x2="30.062" y1="61.578" y2="72.496" gradientUnits="userSpaceOnUse"><stop stop-color="#F5EDFF" offset="0"/><stop stop-color="#DBCBEF" offset="1"/></linearGradient><path d="M26.2 81.47c-6.29-1.91-10.07-7.81-8.44-13.18s8.05-8.18 14.34-6.27 10.07 7.81 8.44 13.18-8.05 8.18-14.34 6.27z" fill="url(#e)"/><linearGradient id="f" x1="26.368" x2="35.359" y1="67.302" y2="74.724" gradientUnits="userSpaceOnUse"><stop stop-color="#3B393D" offset=".213"/><stop stop-color="#343235" offset=".397"/><stop stop-color="#1F1E20" offset=".676"/><stop offset=".998"/></linearGradient><path d="M28.9 73.72c-2.61-1.89-3.85-4.64-2.76-6.13 1.08-1.5 4.08-1.18 6.69.72 2.61 1.89 3.85 4.64 2.76 6.13-1.08 1.49-4.08 1.17-6.69-.72z" fill="url(#f)"/><linearGradient id="g" x1="1160.1" x2="1173.3" y1="61.578" y2="72.496" gradientTransform="matrix(-1 0 0 1 1271.2 0)" gradientUnits="userSpaceOnUse"><stop stop-color="#F5EDFF" offset="0"/><stop stop-color="#DBCBEF" offset="1"/></linearGradient><path d="M101.8 81.47c6.29-1.91 10.07-7.81 8.44-13.18s-8.05-8.18-14.34-6.27-10.07 7.81-8.44 13.18 8.05 8.18 14.34 6.27z" fill="url(#g)"/><linearGradient id="h" x1="1169.6" x2="1178.6" y1="67.302" y2="74.724" gradientTransform="matrix(-1 0 0 1 1271.2 0)" gradientUnits="userSpaceOnUse"><stop stop-color="#3B393D" offset=".213"/><stop stop-color="#343235" offset=".397"/><stop stop-color="#1F1E20" offset=".676"/><stop offset=".998"/></linearGradient><path d="M99.1 73.72c2.61-1.89 3.85-4.64 2.76-6.13-1.08-1.5-4.08-1.18-6.69.72-2.61 1.89-3.85 4.64-2.76 6.13 1.08 1.49 4.08 1.17 6.69-.72z" fill="url(#h)"/><g fill="#9785AB"><path d="M37.76 88.79c-1.08 0-1.96.88-1.96 1.96s.88 1.96 1.96 1.96 1.96-.88 1.96-1.96-.88-1.96-1.96-1.96zM36.5 97.4c-1.08 0-1.96.88-1.96 1.96s.88 1.96 1.96 1.96 1.96-.88 1.96-1.96c0-1.09-.88-1.96-1.96-1.96zM30.62 91.87c-1.08 0-1.96.88-1.96 1.96s.88 1.96 1.96 1.96 1.96-.88 1.96-1.96-.88-1.96-1.96-1.96zM43.63 95.09c-1.08 0-1.96.88-1.96 1.96s.88 1.96 1.96 1.96 1.96-.88 1.96-1.96c0-1.09-.87-1.96-1.96-1.96zM92.2 90.75c0-1.08-.88-1.96-1.96-1.96s-1.96.88-1.96 1.96.88 1.96 1.96 1.96c1.09 0 1.96-.88 1.96-1.96zM91.5 97.4c-1.08 0-1.96.88-1.96 1.96s.88 1.96 1.96 1.96 1.96-.88 1.96-1.96c0-1.09-.87-1.96-1.96-1.96zM97.38 91.87c-1.08 0-1.96.88-1.96 1.96s.88 1.96 1.96 1.96 1.96-.88 1.96-1.96-.88-1.96-1.96-1.96zM84.37 95.09c-1.08 0-1.96.88-1.96 1.96s.88 1.96 1.96 1.96 1.96-.88 1.96-1.96a1.963 1.963 0 0 0-1.96-1.96z"/></g></svg>