<svg viewBox="0 0 128 128" width="128" height="128" xmlns="http://www.w3.org/2000/svg"><radialGradient id="a" cx="67.659" cy="78.443" r="70.987" gradientTransform="matrix(1 0 0 .8094 0 15.44)" gradientUnits="userSpaceOnUse"><stop stop-color="#B93221" offset=".234"/><stop stop-color="#B33124" offset=".334"/><stop stop-color="#A4302D" offset=".46"/><stop stop-color="#8A2E3D" offset=".601"/><stop stop-color="#662A52" offset=".752"/><stop stop-color="#37266D" offset=".91"/><stop stop-color="#1A237E" offset="1"/></radialGradient><path d="M4.75 83.36c0-21.25 102.91-8.06 102.78-4.81-.23 5.45-3.35 7.61-8.2 12.83-8.53 9.2-9.47 13.67-19.68 22.71-9.78 8.66-20.35 9.91-31.97 9.91-20.32 0-42.93-19.39-42.93-40.64z" fill="url(#a)"/><radialGradient id="b" cx="94.649" cy="77.108" r="90.551" gradientUnits="userSpaceOnUse"><stop stop-color="#FDD835" offset="0"/><stop stop-color="#FAB93B" offset=".098"/><stop stop-color="#EF5350" offset=".425"/><stop stop-color="#E94340" offset=".802"/><stop stop-color="#E53935" offset="1"/></radialGradient><path d="M106.27 76.37c1.52.64 1.81 2.93.31 3.62-6.94 3.19-14.5 9.35-18.03 12.07-8.18 6.34-22.56 14.34-38.28 14.34-25.14 0-45.53-10.66-45.53-23.82 0-13.15 17.61-23.25 42.75-23.82 16.94-.38 30.76 6.33 39.56 9.78 7.08 2.76 14.82 5.98 19.22 7.83z" fill="url(#b)"/><g fill="#8BC34A"><path d="M57.26 104.69a2.866 2.866 0 0 1-.43-5.7l.52-.08a2.88 2.88 0 0 1 3.31 2.35 2.88 2.88 0 0 1-2.35 3.31l-.61.1c-.15.01-.29.02-.44.02zM37.66 104.21c-.16 0-.32-.01-.48-.04l-.58-.1a2.862 2.862 0 0 1-2.33-3.32c.27-1.56 1.75-2.62 3.32-2.33l.55.09c1.56.26 2.62 1.74 2.35 3.3a2.88 2.88 0 0 1-2.83 2.4zM76.31 98.03c-1.02 0-2.01-.54-2.52-1.5a2.872 2.872 0 0 1 1.16-3.89l.47-.26c1.39-.77 3.13-.27 3.9 1.11s.27 3.13-1.11 3.9l-.53.29c-.44.23-.91.35-1.37.35zM18.4 98.05c-.54 0-1.09-.15-1.57-.47-.18-.12-.36-.24-.53-.36-1.3-.9-1.63-2.69-.73-3.99s2.69-1.63 3.99-.72c.14.09.28.19.42.28a2.87 2.87 0 0 1 .82 3.97c-.55.83-1.47 1.29-2.4 1.29zM93.14 86.74c-.96 0-1.9-.48-2.44-1.36-.84-1.35-.42-3.11.92-3.95l.51-.31c1.35-.82 3.12-.39 3.94.96s.39 3.12-.96 3.94l-.47.29c-.46.29-.98.43-1.5.43zM11.28 79.23c-.43 0-.87-.1-1.28-.3a2.865 2.865 0 0 1-1.28-3.85c.1-.2.21-.41.32-.61.77-1.39 2.51-1.89 3.9-1.12s1.89 2.51 1.12 3.9c-.07.13-.14.27-.21.4-.5 1-1.51 1.58-2.57 1.58zM86.59 74.92c-.34 0-.69-.06-1.04-.19l-.52-.2c-1.48-.56-2.22-2.22-1.66-3.7s2.22-2.23 3.7-1.66l.55.21a2.866 2.866 0 0 1-1.03 5.54zM68.68 68.6c-.28 0-.55-.04-.83-.12l-.54-.16c-1.52-.45-2.38-2.05-1.93-3.57s2.05-2.38 3.57-1.92l.56.17c1.52.46 2.37 2.06 1.91 3.58a2.868 2.868 0 0 1-2.74 2.02zM27.12 68.12c-1.22 0-2.34-.78-2.73-2-.48-1.51.35-3.12 1.86-3.6l.58-.18c1.52-.46 3.12.39 3.58 1.91s-.39 3.12-1.91 3.58l-.51.16c-.29.09-.58.13-.87.13zM48.16 65.08a2.87 2.87 0 0 1-.05-5.74l.61-.01h.01a2.866 2.866 0 0 1 .02 5.73l-.54.01c-.01.01-.03.01-.05.01z"/></g><path d="M67.44 102.1c-1.18.02-2.29-.69-2.73-1.85-.56-1.48.19-3.14 1.67-3.7l.52-.2a2.87 2.87 0 1 1 2.06 5.36l-.55.21c-.33.11-.65.17-.97.18zM84.8 92.51c-.88 0-1.74-.4-2.3-1.16a2.86 2.86 0 0 1 .59-4.01l.44-.33c1.27-.94 3.08-.68 4.03.59.94 1.27.69 3.06-.59 4l-.03.02-.43.32c-.51.39-1.11.57-1.71.57zM78.61 71.95c-.35 0-.7-.06-1.04-.2l-.52-.2a2.863 2.863 0 0 1-1.65-3.7 2.86 2.86 0 0 1 3.7-1.65l.55.21c1.48.58 2.2 2.24 1.63 3.72a2.86 2.86 0 0 1-2.67 1.82zM55.45 62.6a2.864 2.864 0 0 1 3.23-2.45l.59.08a2.87 2.87 0 1 1-.35 5.71c-.15 0-.31-.01-.47-.03l-.54-.08a2.878 2.878 0 0 1-2.46-3.23M10.83 90.36c-1.07 0-2.1-.6-2.59-1.64-.1-.22-.2-.44-.29-.66-.61-1.46.09-3.14 1.55-3.75s3.14.09 3.75 1.55c.05.13.11.26.17.39.68 1.43.07 3.14-1.36 3.82-.4.2-.82.29-1.23.29zM98.94 80.24c-.6 0-1.2-.18-1.71-.56-.25-.12-.48-.27-.68-.44-.32-.01-.65-.08-.96-.2l-.53-.21c-1.47-.58-2.19-2.25-1.61-3.72s2.25-2.19 3.72-1.61l.54.21c.31.13.59.3.84.51.32.01.65.08.96.2.46.18.89.44 1.27.76 1.21 1.02 1.38 2.83.36 4.04-.56.67-1.37 1.02-2.2 1.02zm-1.55-.5zM27.66 101.82c-.31 0-.62-.05-.93-.16l-.56-.2a2.88 2.88 0 0 1-1.75-3.66 2.88 2.88 0 0 1 3.66-1.75l.52.18c1.5.52 2.29 2.15 1.78 3.65a2.88 2.88 0 0 1-2.72 1.94zM47.24 105.31h-.1l-.59-.02a2.858 2.858 0 0 1-2.75-2.98c.06-1.58 1.39-2.8 2.98-2.75l.56.02a2.87 2.87 0 0 1 2.77 2.96 2.883 2.883 0 0 1-2.87 2.77zM17.92 71.99c-.94 0-1.87-.47-2.42-1.32-.86-1.33-.47-3.11.87-3.96.18-.11.36-.23.54-.34 1.35-.82 3.12-.4 3.94.96.82 1.35.4 3.12-.96 3.94-.15.09-.29.18-.43.27-.47.31-1.01.45-1.54.45zM37.08 65.6c-1.4 0-2.63-1.03-2.84-2.46-.23-1.57.86-3.02 2.43-3.25l.58-.08c1.57-.22 3.02.88 3.23 2.45.22 1.57-.88 3.02-2.45 3.23l-.55.08c-.13.02-.26.03-.4.03z" fill="#FFEE58"/><radialGradient id="c" cx="72.914" cy="79.104" r="70.734" gradientTransform="matrix(1 0 0 .9813 0 1.817)" gradientUnits="userSpaceOnUse"><stop stop-color="#C62828" offset="0"/><stop stop-color="#851515" offset=".398"/><stop stop-color="#821414" offset=".543"/><stop stop-color="#791515" offset=".581"/><stop stop-color="#3A1E1E" offset=".866"/><stop stop-color="#212121" offset="1"/></radialGradient><path d="M97.52 78.47s-14.9 7.22-18.75 10.04c-6.41 4.7-17.68 10.64-29.99 10.64-19.7 0-35.45-8.64-35.45-16.75 0-11.01 16.39-16.75 31.6-16.75 14.18 0 24.97 4.21 31.86 6.77 8.35 3.09 20.73 6.05 20.73 6.05z" fill="url(#c)"/><path d="M97.52 78.47s-14.9 7.22-18.75 10.04c-6.41 4.7-17.68 10.64-29.99 10.64-19.7 0-35.45-8.64-35.45-16.75 0-11.01 16.39-16.75 31.6-16.75 14.18 0 24.97 4.21 31.86 6.77 8.35 3.09 20.73 6.05 20.73 6.05z" fill="url(#c)"/><path d="M15.7 87.97c5.11 6.05 17.92 11.17 33.08 11.17 12.31 0 23.58-5.94 29.99-10.64 1.78-1.31 4.28-2.69 8.22-4.73-3.23-.93-8-2.7-10.16-3.5-6.9-2.55-15.51-7.23-29.69-7.23-14.34.01-29.74 5.11-31.44 14.93z" fill="#4E342E"/><path d="M47.5 61.76c15.32 0 28.22 5.34 36.76 8.87.57.24 1.13.47 1.66.69 4.51 1.85 9.41 4.15 13.34 5.99 1.98.93 3.73 1.75 5.2 2.41-.33 2.64-1.68 4.1-4.95 7.41-.71.72-1.51 1.53-2.36 2.43-3.61 3.81-5.86 6.76-8.03 9.62-3.03 3.98-5.64 7.41-11.44 12.44-8.62 7.48-17.87 8.98-30 8.98-8.83 0-18.84-4.13-26.77-11.05-8.36-7.3-13.16-16.7-13.16-25.79 0-5.68 3.72-11.04 10.49-15.1 7.41-4.45 17.8-6.9 29.26-6.9m0-3c-25.14 0-42.75 11.19-42.75 24.99 0 21.68 23.52 39.84 42.93 39.84 11.62 0 22.19-1.23 31.97-9.71 10.21-8.86 11.15-13.24 19.68-22.26 4.53-4.79 7.56-6.95 8.12-11.58.35-1-.09-2.32-1.17-2.8-4.4-1.94-12.14-5.8-19.22-8.7-8.81-3.62-22.62-9.78-39.56-9.78z" fill="#212121" opacity=".2"/><linearGradient id="d" x1="103.6" x2="103.6" y1="14.491" y2="68.685" gradientUnits="userSpaceOnUse"><stop stop-color="#FF9100" offset=".255"/><stop stop-color="#EF6C00" offset=".714"/><stop stop-color="#DD2C00" offset="1"/></linearGradient><path d="M121.23 57.1C119.84 38.57 103.6 4 103.6 4S87.36 38.57 85.97 57.1c-1.46 19.41 13 22.05 17.63 22.05s19.09-2.63 17.63-22.05z" fill="url(#d)"/><linearGradient id="e" x1="103.6" x2="103.6" y1="66.88" y2="42.623" gradientUnits="userSpaceOnUse"><stop stop-color="#FFB300" offset="0"/><stop stop-color="#FFB504" offset=".025"/><stop stop-color="#FFCE28" offset=".311"/><stop stop-color="#FFE042" offset=".577"/><stop stop-color="#FFEA52" offset=".815"/><stop stop-color="#FFEE58" offset="1"/></linearGradient><path d="M114.67 60.17C113.51 46.19 103.6 27.2 103.6 27.2s-9.91 19-11.07 32.97C91.46 73 99.41 76.52 103.6 76.52s12.14-3.52 11.07-16.35z" fill="url(#e)"/><linearGradient id="f" x1="103.6" x2="103.6" y1="67.385" y2="51.329" gradientUnits="userSpaceOnUse"><stop stop-color="#FFEE58" offset="0"/><stop stop-color="#FFFDE7" offset=".925"/></linearGradient><path d="M110.93 62.94c-.77-9.25-7.33-21.82-7.33-21.82s-6.56 12.57-7.33 21.82c-.71 8.49 4.56 10.83 7.33 10.83s8.03-2.33 7.33-10.83z" fill="url(#f)"/><path d="M103.6 11.34c4.63 10.64 13.65 32.78 14.64 45.99.47 6.25-.81 11.05-3.8 14.28-4.11 4.42-10.16 4.55-10.84 4.55s-6.73-.13-10.84-4.55c-2.99-3.22-4.27-8.03-3.8-14.28.99-13.21 10.01-35.35 14.64-45.99m0-7.34S87.36 38.57 85.97 57.1c-1.46 19.41 13 22.05 17.63 22.05s19.09-2.64 17.63-22.05C119.84 38.57 103.6 4 103.6 4z" fill="#BF360C" opacity=".35"/><radialGradient id="g" cx="103.5" cy="69.19" r="38.794" gradientUnits="userSpaceOnUse"><stop stop-color="#6D4C41" offset="0"/><stop stop-color="#CCBD97" offset=".38"/><stop stop-color="#FFF9C4" offset=".597"/></radialGradient><path d="M49.83 90.67c-6.09.58-15.91.05-15.25-2.42.75-2.78 7.44-3.16 11.98-3.67 1.72-.19 2.79-1.6 2.43-3.3 0 0-.17-3.29-4.23-3.24-3.45.04-8.69.82-11.97 2.18-6.2 2.56-8.06 6.79-7.48 10.21.42 2.48 1.71 4.3 3.52 5.63 0 0 20.39 7.62 39.78-1.27 3.69-1.69 7.33-3.42 10.78-5.47 10.82-6.44 14.87-8.11 24.85-14.72.54-.35 1.34-1.04 1.7-2.1.9-2.64.8-6.63-.39-6.57-2.5.13-4.76 1.59-5.8 2.04-10.94 4.79-31.78 20.96-49.92 22.7z" fill="url(#g)"/><path d="M104.54 68.12c.07.95-.04 2.48-.48 3.75-.18.54-.65.91-.91 1.08-6.19 4.1-9.97 6.22-14.76 8.91-2.78 1.56-5.94 3.34-10.01 5.76-3.46 2.06-7.13 3.78-10.59 5.37-5.97 2.74-12.68 4.13-19.93 4.13-9.3 0-16.61-2.33-18.05-2.82-1.39-1.1-2.21-2.47-2.51-4.19-.54-3.18 1.8-6.18 6.27-8.03 3.06-1.27 8.07-1.99 11.23-2.02h.06c1.66 0 2.09.76 2.15 1.34v.1l.04.2c.04.17.05.42-.08.61-.12.16-.33.26-.61.3-.46.05-.95.1-1.45.15-5.26.54-11.21 1.16-12.24 4.98-.24.88-.06 1.77.51 2.51 1.34 1.75 5.32 2.64 11.83 2.64 1.75 0 3.49-.08 5.03-.23 13.1-1.25 27.16-9.54 38.46-16.2 4.77-2.81 8.88-5.24 12.08-6.63.25-.11.55-.26.91-.45.78-.41 1.88-.97 3.05-1.26m1.05-2.17h-.03c-2.5.13-4.76 1.59-5.8 2.04-10.95 4.77-31.79 20.94-49.93 22.68-1.46.14-3.14.22-4.84.22-5.37 0-10.91-.76-10.41-2.63.75-2.78 7.44-3.16 11.98-3.67 1.72-.19 2.79-1.6 2.43-3.3 0 0-.16-3.24-4.15-3.24h-.08c-3.45.04-8.69.82-11.97 2.18-6.2 2.56-8.06 6.79-7.48 10.21.42 2.48 1.71 4.3 3.52 5.63 0 0 8.14 3.04 19.02 3.04 6.35 0 13.62-1.03 20.77-4.31 3.69-1.69 7.33-3.42 10.78-5.47 10.82-6.44 14.87-8.11 24.85-14.72.54-.35 1.34-1.04 1.7-2.1.9-2.61.8-6.56-.36-6.56z" fill="#212121" opacity=".2"/><path d="M77.85 80.27c-2.4 1.32-4.86 2.62-7.37 3.83 2.51-1.15 5.2-2.49 7.37-3.83z" fill="#8C795D" opacity=".6"/><path d="M69.83 92.96c-4.25 0-7.25 0-8.9-1.79-1.38-1.5.74-3.1 1.58-3.65-4.27 1.59-8.55 2.74-12.68 3.14-6.09.58-15.91.05-15.25-2.42.75-2.78 7.44-3.16 11.98-3.67 1.72-.19 2.79-1.6 2.43-3.3 0 0-.17-3.29-4.23-3.24-3.45.04-8.69.82-11.97 2.18-6.2 2.56-8.06 6.79-7.48 10.21.41 2.41 1.65 4.2 3.37 5.52 2.78.99 5.82 1.78 9.11 2.32l.18.03c.8.13 1.61.25 2.44.35.03 0 .07.01.1.01 1.58.19 3.21.32 4.88.39 2.06.08 4.25.07 6.52-.1 9.27-1 17.92-5.98 17.92-5.98z" fill="#70614C" opacity=".6"/><path d="M71.86 78.31c-4.21-1.15-8.47-1.99-12.76-2.6-2.14-.3-4.29-.55-6.44-.68-1.07-.09-2.15-.15-3.22-.18-1.07-.06-2.15-.04-3.22-.03-4.3-.01-8.56.48-12.75 1.3-4.18.9-8.31 2.13-12.2 4.15 1.62-1.49 3.55-2.63 5.54-3.59 2-.96 4.09-1.72 6.24-2.29 2.15-.58 4.34-.95 6.54-1.21 2.21-.21 4.42-.29 6.63-.27 4.42.09 8.81.58 13.11 1.49 4.3.92 8.53 2.15 12.53 3.91z" fill="#FEF6E0"/><linearGradient id="h" x1="13.326" x2="91.284" y1="82.395" y2="82.395" gradientUnits="userSpaceOnUse"><stop stop-color="#FF9E80" offset=".342"/><stop stop-color="#F7CB4D" offset="1"/></linearGradient><path d="M78.84 87.91c-5.46 2.71-15.09 9.37-30.06 9.23-18.53-.18-33.45-8.07-33.45-14.75 0-9.23 15.05-14.75 29.6-14.75 13.28 0 23.57 3.82 30.37 6.35l.8.3c2.85 1.05 4.7 1.62 7.81 2.53l2.17-1.4c-3.44-.98-6.11-1.83-9.29-3-6.9-2.55-17.68-6.77-31.86-6.77-15.21 0-31.6 5.73-31.6 16.75 0 8.11 15.75 16.75 35.45 16.75 12.31 0 23.93-5.51 30.62-9.81 3.48-2.23 11.88-6.81 11.88-6.81s-6.98 2.67-12.44 5.38z" fill="url(#h)"/><path d="M4.91 86.45c.09 1.13.64 2.14 1.23 3.07.61.93 1.29 1.81 2.05 2.63 1.51 1.63 3.22 3.08 5.03 4.36 3.64 2.55 7.65 4.54 11.82 6.04 8.36 3 17.32 4.12 26.17 3.98 4.42-.12 8.82-.66 13.06-1.83 4.23-1.2 8.31-2.93 12.13-5.18 3.85-2.21 7.46-4.87 11.25-7.32 3.78-2.43 7.53-4.91 11.34-7.29-3.57 2.74-7.2 5.38-10.8 8.06-3.6 2.66-7.09 5.52-10.95 7.93-3.84 2.43-8.04 4.38-12.44 5.66-4.41 1.26-8.99 1.86-13.55 1.92-9.08.08-18.23-1.25-26.71-4.6-4.22-1.69-8.26-3.87-11.82-6.69-1.78-1.41-3.43-2.98-4.87-4.73-.72-.88-1.38-1.8-1.92-2.8s-1.02-2.07-1.02-3.21z" fill="#3E2723"/></svg>