<svg viewBox="0 0 128 128" width="128" height="128" xmlns="http://www.w3.org/2000/svg"><circle cx="38.1" cy="89.92" r="34.07" fill="#3E2723"/><linearGradient id="a" x1="59.717" x2="22.369" y1="72.405" y2="109.75" gradientTransform="translate(-4.02 -.077)" gradientUnits="userSpaceOnUse"><stop stop-color="#fff" offset="0"/><stop stop-color="#FFF8E1" offset="1"/></linearGradient><path d="M38.1 116.85c-14.85 0-26.93-12.08-26.93-26.93S23.26 62.99 38.1 62.99s26.93 12.08 26.93 26.93-12.08 26.93-26.93 26.93z" fill="url(#a)"/><path d="M38.1 63.99c14.3 0 25.93 11.63 25.93 25.93S52.4 115.85 38.1 115.85s-25.93-11.63-25.93-25.93S23.81 63.99 38.1 63.99m0-2c-15.43 0-27.93 12.5-27.93 27.93s12.5 27.93 27.93 27.93 27.93-12.5 27.93-27.93-12.5-27.93-27.93-27.93z" fill="#BDBDBD"/><circle cx="38.1" cy="89.92" r="29.36" fill="none" stroke="#BDBDBD" stroke-dasharray="7.1711,8.1955" stroke-miterlimit="10" stroke-width="5"/><path fill="none" stroke="#6D4C41" stroke-linecap="round" stroke-miterlimit="10" stroke-width="4" d="M28.22 89.29l10.49 10.49"/><path fill="#9E9E9E" d="M17.79 115.6l-5.39-5.4 8.12-10.54 7.82 7.82z"/><path d="M20.71 102.68l4.6 4.6-7.35 5.66-2.91-2.91 5.66-7.35m-.19-3.02L12.4 110.2l5.39 5.39 10.55-8.12-7.82-7.81z" fill="#212121" opacity=".2"/><path d="M5.16 98.63c1.1-.12 10.46-.52 10.02-9.65-.31-6.62 2.07-9.63 6.33-13.79 5.28-5.16-.75-12.86-1.55-14.12-2.47 1.56-5.01 3.63-7.16 6.02-7.99 8.88-10.43 20.78-7.64 31.54z" fill="#6D4C41"/><path d="M19.61 63.84c2.78 4.52 2.97 7.76.63 10.04-4.25 4.16-7.23 7.68-6.88 15.18.19 4.02-2.28 6.55-6.56 7.47l.44 1.82c3.42-.67 8.25-2.74 7.93-9.38-.31-6.62 2.07-9.63 6.33-13.79 4.13-4.04 1.39-9.53-.38-12.36l-1.51 1.02z" fill="#BC9082"/><path d="M38.08 57.84c9.75 0 18.86 4.35 24.98 11.92 11.11 13.76 8.96 34-4.8 45.11-5.69 4.59-12.84 7.13-20.14 7.13-9.75 0-18.86-4.35-24.98-11.92-5.38-6.67-7.84-15.03-6.94-23.55.91-8.52 5.08-16.18 11.74-21.56 5.7-4.6 12.85-7.13 20.14-7.13m0-2c-7.52 0-15.09 2.48-21.39 7.57-14.64 11.83-16.92 33.28-5.1 47.93C18.33 119.67 28.18 124 38.13 124c7.52 0 15.09-2.48 21.39-7.57 14.64-11.83 16.92-33.28 5.1-47.93-6.74-8.33-16.59-12.66-26.54-12.66z" fill="#212121" opacity=".2"/><linearGradient id="b" x1="60.7" x2="123.62" y1="71.393" y2="8.476" gradientTransform="translate(-4.02 -.077)" gradientUnits="userSpaceOnUse"><stop stop-color="#6D4C41" offset=".22"/><stop stop-color="#725044" offset=".357"/><stop stop-color="#7F5A4E" offset=".51"/><stop stop-color="#956C5E" offset=".67"/><stop stop-color="#B48574" offset=".835"/><stop stop-color="#DBA48F" offset="1"/></linearGradient><path d="M60.77 77.54l47.34-50.41c1.61-1.61 2.43-5.21.24-7.5-2.35-2.47-6.18-1.56-7.79.04L50.46 67.2s3.44 2.86 5.5 4.92c2.13 2.12 4.81 5.42 4.81 5.42z" fill="url(#b)"/><path d="M105.6 19.57c.8 0 1.46.27 2.01.81 1.1 1.1.21 4.22-.91 5.33l-.04.04-45.81 48.79c-1.05-1.22-2.46-2.82-3.46-3.83-1.02-1.02-2.68-2.49-3.93-3.58l48.49-46 .04-.04c.73-.73 2.25-1.52 3.61-1.52m0-2c-2.02 0-4.02 1.1-5.03 2.11l-50.1 47.53s3.78 3.19 5.5 4.92 4.8 5.42 4.8 5.42l47.34-50.41c1.61-1.61 3.06-6.01.91-8.16-1.02-1.02-2.22-1.41-3.42-1.41z" fill="#212121" opacity=".2"/><path d="M120.51 7.45c-3.47-3.5-9.29-4.81-12.4-1.68-1.43 1.45-1.94 3.16-2.23 5.44-.18 1.45-.8 2.09-2.18 2.47a5.904 5.904 0 0 0-3.25 2.24c-1 1.36-1.36 3.06-1.09 4.79l7.56 7.63c2 .32 4.43.17 5.87-1.29a6.07 6.07 0 0 0 1.54-2.7c.37-1.38 1.02-1.99 2.44-2.18 2.26-.29 3.97-.8 5.4-2.24 3.11-3.13 1.81-8.98-1.66-12.48z" fill="#4E342E"/><path d="M112.7 6c2.19 0 4.64 1.1 6.39 2.86 2.66 2.68 3.94 7.38 1.67 9.67-.93.94-2.08 1.39-4.23 1.67-2.23.29-3.54 1.45-4.12 3.65-.19.7-.53 1.31-1.02 1.8-.72.73-2.03.84-2.75.84-.25 0-.51-.01-.77-.04l-6.58-6.65c-.04-1 .23-1.95.78-2.7a3.96 3.96 0 0 1 2.16-1.49c2.2-.6 3.36-1.92 3.64-4.15.27-2.18.72-3.34 1.66-4.28.96-.97 2.26-1.18 3.17-1.18m0-2c-1.74 0-3.38.55-4.59 1.77-1.43 1.45-1.94 3.16-2.23 5.44-.18 1.45-.8 2.09-2.18 2.47a5.904 5.904 0 0 0-3.25 2.24c-1 1.36-1.36 3.06-1.09 4.79l7.56 7.63c.55.09 1.12.14 1.7.14 1.55 0 3.12-.37 4.17-1.43a6.07 6.07 0 0 0 1.54-2.7c.37-1.38 1.02-1.99 2.44-2.18 2.26-.29 3.97-.8 5.4-2.24 3.11-3.14 1.81-8.99-1.67-12.49-2.11-2.12-5.09-3.44-7.8-3.44z" fill="#212121" opacity=".32"/></svg>