<svg viewBox="0 0 128 128" width="128" height="128" xmlns="http://www.w3.org/2000/svg"><path d="M60.55 98.3c-16.79 4.83-26.01-18.83-29.53-27.27C24 54.17 5.69 42.41 7.04 30s16.6-11.17 16.6-11.17" fill="none" stroke="#BDBDBD" stroke-linejoin="round" stroke-miterlimit="10" stroke-width="6"/><path d="M59.5 98.3c16.89-4.48 11.39-28.91 10.07-37.96-2.63-18.08 7.04-37.57-.49-47.52S49.1 11.76 49.1 11.76" fill="none" stroke="#BDBDBD" stroke-linejoin="round" stroke-miterlimit="10" stroke-width="6"/><linearGradient id="a" x1="95.493" x2="122.31" y1="38.451" y2="38.451" gradientTransform="rotate(-13.109 73.806 63.159)" gradientUnits="userSpaceOnUse"><stop stop-color="#9E9E9E" offset=".244"/><stop stop-color="#fff" offset=".558"/><stop stop-color="#9E9E9E" offset=".89"/></linearGradient><circle cx="102.38" cy="31.13" r="13.41" fill="url(#a)"/><path d="M102.4 17.72v2c5.32 0 9.89 3.63 11.1 8.82 1.43 6.13-2.4 12.27-8.52 13.7-.86.2-1.73.3-2.6.3-5.32 0-9.89-3.63-11.1-8.82-1.43-6.13 2.4-12.27 8.52-13.7.86-.2 1.73-.3 2.6-.3v-2m-.01 0c-1.01 0-2.03.11-3.05.35-7.21 1.68-11.7 8.89-10.02 16.1 1.44 6.19 6.95 10.37 13.05 10.37 1.01 0 2.03-.11 3.05-.35 7.21-1.68 11.7-8.89 10.02-16.1-1.44-6.19-6.95-10.37-13.05-10.37z" fill="#212121" opacity=".22"/><path d="M69.39 58.93c-.89 6.74 10.14 31.36-6.97 38.1-19.16 7.56-26.31-20.55-31.39-26" fill="none" stroke="#424242" stroke-linejoin="round" stroke-miterlimit="10" stroke-width="8"/><path d="M32.63 73.54s10.77 11.36 23.4 6.15C68 74.75 69.86 61.64 69.86 61.64" fill="none" stroke="#424242" stroke-linejoin="round" stroke-miterlimit="10" stroke-width="5"/><path d="M60.42 96.03c9.59 21.97 24.29 25.08 35.15 23.19 9.54-1.67 22.17-10.22 22.14-25.72-.04-18.68-12.5-17.5-19.25-29.47-8.41-14.92 3.05-28.62 3.05-28.62" fill="none" stroke="#424242" stroke-linejoin="round" stroke-miterlimit="10" stroke-width="8"/><g fill="#424242"><circle cx="27.87" cy="18.8" r="4.77"/><path d="M27.87 18.8l-4.91 3.95c-1.12.9-2.78.11-2.79-1.32l-.04-5.19c-.01-1.44 1.65-2.25 2.78-1.36l4.96 3.92z"/></g><path d="M27.87 14.04v1c2.06 0 3.75 1.68 3.77 3.74.02 2.08-1.66 3.78-3.77 3.8-1.13 0-2.19-.52-2.92-1.42l-.63-.78-.78.62-1.21.98c-.13.11-.28.16-.44.16-.35 0-.72-.27-.73-.71l-.04-5.19c0-.2.07-.37.2-.5a.75.75 0 0 1 .53-.22c.16 0 .3.05.44.16l1.24.98.78.62.62-.78c.72-.91 1.78-1.44 2.91-1.45l.03-1.01m0 0h-.04c-1.5.01-2.82.73-3.69 1.82l-1.24-.98c-.33-.26-.7-.37-1.06-.37-.89 0-1.73.71-1.72 1.73l.04 5.19c.01 1.02.84 1.71 1.73 1.71.37 0 .74-.12 1.07-.38l1.21-.98a4.75 4.75 0 0 0 3.7 1.79h.04a4.767 4.767 0 0 0 4.73-4.8c-.03-2.62-2.16-4.73-4.77-4.73z" fill="#212121"/><g fill="#424242"><circle cx="45.18" cy="13.95" r="4.77"/><path d="M45.18 13.95l6.25.85c1.42.19 2.44-1.34 1.71-2.58l-2.65-4.46c-.74-1.24-2.58-1.07-3.08.27l-2.23 5.92z"/></g><path d="M49.01 7.92c.15 0 .43.05.61.35l2.65 4.46c.19.31.08.58.01.72-.13.23-.36.37-.61.37-.04 0-.07 0-.11-.01l-1.54-.21-.99-.13-.13.99c-.16 1.16-.81 2.16-1.79 2.74-.58.35-1.25.53-1.92.53-1.32 0-2.57-.71-3.24-1.84a3.772 3.772 0 0 1 1.31-5.16c.57-.34 1.22-.52 1.88-.52.46 0 .92.08 1.36.25l.94.35.35-.94.55-1.48a.69.69 0 0 1 .67-.47m0-1c-.67 0-1.34.38-1.61 1.11l-.55 1.48c-.55-.2-1.12-.31-1.71-.31-.81 0-1.64.21-2.39.66a4.76 4.76 0 0 0-1.66 6.53 4.764 4.764 0 0 0 6.53 1.66c1.3-.77 2.08-2.07 2.27-3.46l1.54.21c.08.01.16.02.24.02 1.29 0 2.16-1.43 1.46-2.59l-2.65-4.46c-.34-.58-.9-.85-1.47-.85zM98.79 35.74l3.09 2.58c-2.52 3.84-7.75 13.95-1.67 24.73 2.33 4.13 5.46 6.62 8.5 9.04 5.4 4.3 10.98 8.74 11.01 21.41.04 17.26-14.21 26.02-23.79 27.69-1.9.33-3.82.5-5.7.5-15.52 0-24.64-11.17-29.55-20.54l-.66-1.25-1.4.2c-.89.13-1.63.19-2.28.19-12.06 0-19.46-14.26-23.88-22.8-.9-1.74-1.84-3.55-2.63-4.87a.346.346 0 0 1 .05-.42l2.5-2.33c.06-.06.14-.09.23-.09.06 0 .18.02.26.14.96 1.5 2.02 3.54 3.04 5.51l.22.43.4.28c2.85 2.01 7.36 4.42 12.65 4.42 2.28 0 4.53-.45 6.68-1.34 7.05-2.91 10.52-8.64 12.19-12.94l.21-.53-.1-.56c-.41-2.2-.76-4.16-.89-5.79 0-.03-.01-.12.08-.21.03-.03.11-.11.28-.11h.01l3.41.45c.15.02.26.14.28.3.18 1.52.57 3.58.91 5.39 1.93 10.35 4.85 26-6.62 32.5l-1.73.98.96 1.73c4.37 7.87 12.33 17.24 25.41 17.24 1.63 0 3.31-.15 4.99-.44 8.25-1.44 20.51-8.95 20.48-23.75-.02-10.75-4.41-14.25-9.5-18.29-3.18-2.53-6.78-5.4-9.49-10.21-7.38-13.01-.84-25 2.05-29.24M49.16 81.58c-2.15 0-4.37-.39-6.58-1.16l-5.22-1.81 2.85 4.74c2.07 3.43 4.05 6.07 6.05 8.07 3.27 3.26 6.58 4.84 10.12 4.84 1.7 0 3.43-.36 5.29-1.09 8.97-3.54 8.88-13.54 7.79-21.85l-.66-5.06-2.96 4.16c-2.5 3.52-5.74 6.12-9.64 7.73-2.27.95-4.65 1.43-7.04 1.43m49.28-48.74c-.54.65-13.12 16.02-3.47 33.15 2.9 5.15 6.67 8.14 9.99 10.79 5.06 4.03 8.72 6.94 8.74 16.73.03 13.55-11.24 20.45-18.82 21.77-1.47.26-3.03.41-4.65.41-7.61 0-16.57-3.45-23.67-16.22 12.71-7.2 9.55-24.2 7.61-34.61-.34-1.82-.71-3.81-.89-5.27-.13-1.06-.95-1.9-2-2.04l-3.41-.45c-.1-.01-.21-.02-.31-.02-1.32 0-2.42 1.12-2.31 2.48.14 1.71.49 3.71.92 6-1.48 3.8-4.62 9.14-11.09 11.81-2.04.84-4.03 1.19-5.92 1.19-4.74 0-8.84-2.17-11.5-4.05-1.15-2.22-2.15-4.14-3.13-5.67-.45-.7-1.19-1.06-1.95-1.06-.57 0-1.14.2-1.59.63l-2.5 2.33c-.81.75-.97 1.96-.4 2.91.76 1.27 1.68 3.05 2.58 4.78 4.53 8.74 12.38 23.87 25.65 23.87.83 0 1.69-.08 2.56-.21 9.28 17.68 21.93 21.61 31.32 21.61 2.23 0 4.27-.22 6.05-.53 10.25-1.79 25.49-11.17 25.45-29.67-.03-13.64-6.26-18.6-11.76-22.97-3.02-2.4-5.87-4.67-8-8.46-6.91-12.25 2.25-23.62 2.64-24.09l-6.14-5.14zM49.16 83.58c2.48 0 5.11-.46 7.83-1.58 4.86-2.01 8.21-5.18 10.51-8.42 1.2 9.2.58 16.92-6.55 19.73-1.6.63-3.11.95-4.56.95-3.04 0-5.84-1.39-8.71-4.26-2.16-2.15-4.06-4.87-5.75-7.69 2.19.76 4.62 1.27 7.23 1.27z" fill="#212121"/><path d="M21.72 17.78l-.16 2.02c-11.53.34-13.27 7.94-13.52 10.31-.72 6.62 4.62 13.18 10.8 20.79 4.69 5.77 10.01 12.31 13.11 19.75.27.64.56 1.37.88 2.17l.08.21c6.41 16.06 14.58 24.55 23.61 24.55.75 0 1.5-.06 2.26-.18l.56 1.94c-.97.17-1.92.26-2.84.26-13.65 0-22.34-18.07-25.44-25.83l-.1-.24c-.31-.77-.59-1.48-.85-2.1-2.99-7.17-7.99-13.32-12.82-19.26-6.2-7.62-12.05-14.81-11.23-22.26 1.18-10.94 12.37-12.05 15.66-12.13m.48-2.01c-6.56 0-16.92 2.8-18.14 13.9-.9 8.28 5.2 15.79 11.67 23.74 4.74 5.83 9.65 11.86 12.53 18.77.28.68.59 1.46.94 2.32 3.71 9.3 12.87 27.09 27.3 27.09 1.68 0 3.46-.25 5.35-.79l-1.66-5.77c-1.26.36-2.48.53-3.67.53-9.47 0-16.78-10.86-21.75-23.29-.36-.89-.68-1.7-.97-2.4-3.21-7.71-8.63-14.37-13.41-20.24-5.9-7.25-10.99-13.52-10.36-19.31.86-7.84 9.37-8.54 12.36-8.54.57 0 .94.03 1.02.03l.49-5.98c-.54-.04-1.1-.06-1.7-.06z" fill="#424242" opacity=".2"/><path d="M59.85 5.1v2c4.08 0 7.45 1.72 10.02 5.12 4.53 5.98 3.2 15.16 1.8 24.87-1.1 7.58-2.23 15.42-1.11 23.11.1.71.23 1.51.37 2.39l.02.11c.88 5.46 2.21 13.72 1.13 21.14-1.12 7.71-4.53 12.58-10.42 14.82l-.52-1.96c4.82-1.97 7.79-6.18 8.84-12.56 1.07-6.52.03-14.72-1-21.13l-.03-.21c-.14-.85-.26-1.63-.36-2.32-1.16-7.97.05-16.32 1.11-23.69 1.4-9.7 2.61-18.07-1.41-23.38-2.15-2.83-5.11-4.33-8.57-4.33-3.35 0-6.48 1.39-8.33 2.42L50.2 9.87c2.59-1.48 6.1-2.77 9.65-2.77v-2m0 0c-4.94 0-9.69 2.21-12.5 4.22l3.49 4.88c.27-.19 4.42-3.11 8.87-3.11 2.43 0 4.95.87 6.97 3.54 3.52 4.64 2.36 12.63 1.03 21.89-1.08 7.5-2.31 16-1.11 24.26.11.75.25 1.61.4 2.56 2.39 14.88 3.05 29.07-8.27 32.07l1.54 5.8C78.4 96.39 74.7 73.42 72.93 62.38c-.15-.91-.28-1.74-.39-2.47-1.08-7.4.04-15.1 1.11-22.54C75.11 27.23 76.5 17.64 71.47 11c-3.33-4.39-7.54-5.9-11.62-5.9z" fill="#424242" opacity=".2"/><linearGradient id="b" x1="105.7" x2="114.97" y1="31.33" y2="44.497" gradientTransform="rotate(-13.109 73.806 63.159)" gradientUnits="userSpaceOnUse"><stop stop-color="#9E9E9E" offset=".244"/><stop stop-color="#fff" offset=".558"/><stop stop-color="#9E9E9E" offset=".89"/></linearGradient><circle cx="103.88" cy="30.48" r="8.05" fill="url(#b)"/><path d="M103.88 24.43c2.82 0 5.24 1.92 5.89 4.68.37 1.57.1 3.2-.76 4.57a6.054 6.054 0 0 1-5.14 2.86c-2.82 0-5.24-1.92-5.89-4.68-.37-1.57-.1-3.2.76-4.57a6.027 6.027 0 0 1 3.76-2.7c.46-.11.92-.16 1.38-.16m0-2a8.05 8.05 0 0 0-7.84 9.88 8.051 8.051 0 0 0 7.83 6.23 8.05 8.05 0 0 0 7.84-9.88 8.043 8.043 0 0 0-7.83-6.23z" fill="#424242"/></svg>