<svg viewBox="0 0 128 128" width="128" height="128" xmlns="http://www.w3.org/2000/svg"><path fill="#3F2923" d="M72.06 106.21l-3.05-2.95V56.43l3.05-.16zM54.25 124.02l-3.66-3.55V73.64l3.66.44zM34.87 106.21l-3.04-2.95.01-94.61 3.04-2.67zM72.66 5.98L69 9.53v43.35l3.66-.44z"/><path fill="#3F2923" d="M37.58 20.32h36.83v2.6H37.58zM37.58 34.61h36.83v2.6H37.58z"/><path d="M73.42 14.59v37.45L70 51.92V36.21H38.58v-2.77H70V21.92H38.58V14.6h34.84m1-1.01H37.58v9.32H69v9.52H37.58v4.77H69v15.68l5.41.2V13.59h.01z" fill="#212121" opacity=".2"/><linearGradient id="a" x1="55.702" x2="55.702" y1="5.977" y2="106.21" gradientUnits="userSpaceOnUse"><stop stop-color="#D19966" offset="0"/><stop stop-color="#C99262" offset=".028"/><stop stop-color="#A2734E" offset=".17"/><stop stop-color="#936747" offset=".244"/><stop stop-color="#8D6344" offset=".775"/><stop stop-color="#664731" offset="1"/></linearGradient><path d="M72.07 5.98H34.86v100.23h4.48V34.65h32.73v71.55h4.48V5.98h-4.48zM39.34 28.54v-8.22h32.73v8.22H39.34z" fill="url(#a)"/><path d="M75.55 63.39v41.81h-3.08l-2.45-2.37V63.39h5.53m1-1h-7.53v40.87l3.05 2.94.01-.11v.11h4.48V62.39h-.01z" fill="#212121" opacity=".2"/><linearGradient id="b" x1="56.45" x2="56.45" y1="132.51" y2="82.475" gradientUnits="userSpaceOnUse"><stop stop-color="#D19966" offset="0"/><stop stop-color="#C99262" offset=".028"/><stop stop-color="#A2734E" offset=".17"/><stop stop-color="#936747" offset=".244"/><stop stop-color="#664731" offset="1"/></linearGradient><path fill="url(#b)" d="M54.21 74.08h4.48v49.94h-4.48z"/><linearGradient id="c" x1="97.244" x2="97.244" y1="132.51" y2="82.475" gradientUnits="userSpaceOnUse"><stop stop-color="#D19966" offset="0"/><stop stop-color="#C99262" offset=".028"/><stop stop-color="#A2734E" offset=".17"/><stop stop-color="#936747" offset=".244"/><stop stop-color="#664731" offset="1"/></linearGradient><path fill="url(#c)" d="M95 74.08h4.48v49.94H95z"/><path fill="#3F2923" d="M95.04 124.02l-3.66-3.55V73.64l3.66.44zM33.4 53.08v10.03l20.77 17.92.38-9.19z"/><path fill="#664731" d="M54.25 71.73h45.24v9.3H54.25z"/><path d="M75.55 6.98v65.75h22.94v50.28h-3.07l-3.03-2.97.12-39.02v-1H57.69v42.99h-3.04l-3.07-2.98V77.48l-.35-.3-11.25-9.71-1.65-1.43v39.16h-3.08l-2.44-2.37V9.14l2.41-2.16h40.33M38.34 29.54h34.73V19.32H38.34v10.22m15.7 43.19h16.3V57.38l1.78-.1.95-.05V33.65H38.34V58.8l.34.3 15.08 13.38.28.25M76.55 5.98H34.86L31.83 8.7v94.57l3.03 2.94h4.48V68.23l11.25 9.71v42.53l3.62 3.52v.04h4.48v-43H91.5l-.12 39.44 3.62 3.56h4.48V71.74H76.55V5.98zM39.34 28.54v-8.22h32.73v8.22H39.34zm15.08 43.19L39.34 58.35v-23.7h32.73v21.63l-2.73.15v15.3H54.42z" fill="#212121" opacity=".2"/><linearGradient id="d" x1="38.833" x2="38.833" y1="-3.563" y2="38.854" gradientUnits="userSpaceOnUse"><stop stop-color="#D19966" offset="0"/><stop stop-color="#C99262" offset=".028"/><stop stop-color="#A2734E" offset=".17"/><stop stop-color="#936747" offset=".244"/><stop stop-color="#8D6344" offset=".775"/><stop stop-color="#664731" offset="1"/></linearGradient><path fill="url(#d)" d="M38.34 6.87h.98v45.55h-.98z"/><linearGradient id="e" x1="72.576" x2="72.576" y1="-3.563" y2="38.854" gradientUnits="userSpaceOnUse"><stop stop-color="#D19966" offset="0"/><stop stop-color="#C99262" offset=".028"/><stop stop-color="#A2734E" offset=".17"/><stop stop-color="#936747" offset=".244"/><stop stop-color="#8D6344" offset=".775"/><stop stop-color="#664731" offset="1"/></linearGradient><path fill="url(#e)" d="M72.09 6.87h.98v45.55h-.98z"/><path fill="#936747" d="M100.17 74.56H56.34L34.86 56.59v-4.17l43.59 3.51 21.72 14.64z"/><path fill="#664731" d="M56.34 74.56L34.86 56.59v-4.17l43.59 3.51-21.89 14.64z"/><path d="M35.86 53.5l42.25 3.4 21.07 14.2v2.45H56.7L35.86 56.12V53.5m-1-1.08v4.17l21.48 17.97h43.84v-3.99L78.45 55.93l-43.59-3.51z" fill="#212121" opacity=".2"/><linearGradient id="f" x1="67.577" x2="67.577" y1="68.482" y2="49.556" gradientUnits="userSpaceOnUse"><stop stop-color="#D19966" offset="0"/><stop stop-color="#936747" offset="1"/></linearGradient><path fill="url(#f)" d="M100.17 70.57h-43.6L34.98 52.42h41.7z"/><path d="M76.34 53.42l20.91 16.15H56.94L37.72 53.42h38.62m.34-1h-41.7l21.59 18.15h43.6L76.68 52.42z" fill="#212121" opacity=".2"/></svg>