<svg viewBox="0 0 128 128" width="128" height="128" xmlns="http://www.w3.org/2000/svg" xmlns:xlink="http://www.w3.org/1999/xlink"><linearGradient id="a" x1="75.496" x2="105.56" y1="85.46" y2="112.56" gradientTransform="rotate(33.654 78.067 85.35)" gradientUnits="userSpaceOnUse"><stop stop-color="#DB3236" offset="0"/><stop stop-color="#B71C1C" offset="1"/></linearGradient><path d="M84.65 124c-4.15-4.82-3.39-10.5-2.14-16.25 1.14-5.26.76-8.05-3.05-11.76-4.11-4.01-9.61-6.35-11.04-12.32-.77-3.24-.7-6.21.76-9.83l1.21 1.12c-1.02 3.37-1.66 8.4 3.07 13.02 4 3.91 10.6 5.44 13.32 10.71 3.05 5.89-3.25 16.81 2.5 20.5.24.15-3.56 3.8-4.63 4.81z" fill="url(#a)"/><path d="M69.7 84.49c.68 1.56 1.71 2.97 3.09 4.23 1.62 1.49 3.59 2.66 5.48 3.79 3.11 1.86 6.06 3.61 7.63 6.65 1.19 2.31.75 5.73.32 9.04-.55 4.25-1.12 8.63 1.68 11.19-.71.76-2 2.04-3.15 3.14-3.14-4.33-2.4-9.36-1.27-14.56 1.15-5.28.95-8.53-3.33-12.69-1.22-1.19-2.56-2.24-3.85-3.25-2.78-2.19-5.43-4.26-6.6-7.54m-.23-9.21c-.48 0-1.11.55-1.23 1.23-.43 2.5-.34 4.99.18 7.16 1.43 5.97 6.93 8.31 11.04 12.32 3.81 3.71 4.19 6.51 3.05 11.76-1.25 5.74-2.01 11.43 2.14 16.25 1.07-1.01 4.87-4.66 4.64-4.81-5.75-3.69.55-14.61-2.5-20.5-2.73-5.27-9.2-6.94-13.32-10.71-3.89-3.57-4.15-7.83-3.49-11.33.18-.99-.12-1.37-.51-1.37z" fill="#424242" opacity=".2"/><linearGradient id="b" x1="74.578" x2="127.3" y1="84.836" y2="49.639" gradientTransform="scale(1 -1) rotate(6.292 1524.825 18.397)" gradientUnits="userSpaceOnUse"><stop stop-color="#9CCC65" offset="0"/><stop stop-color="#98C963" offset=".211"/><stop stop-color="#8DBE5B" offset=".403"/><stop stop-color="#7BAD4F" offset=".588"/><stop stop-color="#61943D" offset=".767"/><stop stop-color="#407527" offset=".942"/><stop stop-color="#33691E" offset="1"/></linearGradient><path d="M122.16 99.43c-1.45-9.08-8.75-17.65-18.64-16.31-4.46.61-8.61 3.55-13.21 2.2-4.42-1.3-7.54-5.06-11.71-6.89-2.19-.96-5.06-1.44-7.1-1.06-1.4.26-2.44.62-3.27 1.09-.75.43.62 1.07.89.96 2.19-.87 4.55-1.13 6.89-.33 4 1.36 6.71 5.07 10.08 7.45 3.62 2.55 7.55 3.16 11.85 2.33 3.8-.73 7.63-1.83 11.25.24 3.73 2.13 5.83 6.93 6.04 11.08 2.32-.25 4.62-.51 6.93-.76z" fill="url(#b)"/><path d="M81.38 81.24c.66.44 1.31.91 1.98 1.4 2.11 1.53 4.29 3.1 6.94 3.88.9.27 1.82.4 2.79.4 2.23 0 4.35-.7 6.4-1.38 1.54-.51 3-.99 4.5-1.2.64-.09 1.29-.13 1.92-.13 8.17 0 13.93 7.37 15.5 14.65l-4.87.54c-.48-4.01-2.58-8.68-6.48-10.9-1.57-.89-3.29-1.33-5.28-1.33-1.87 0-3.74.38-5.55.75-.39.08-.77.16-1.16.23-1.14.22-2.25.33-3.3.33-2.89 0-5.45-.82-7.85-2.51-1.15-.81-2.21-1.78-3.34-2.8-.72-.65-1.44-1.31-2.2-1.93m-8.14-3.8c-.55 0-1.08.04-1.56.13-1.34.25-2.34.61-3.17 1.04l.76 1.03c1.34-.52 2.68-.82 4.04-.82.96 0 1.92.15 2.89.48 4.02 1.37 6.75 5.1 10.13 7.48 2.64 1.86 5.44 2.69 8.43 2.69 1.14 0 2.3-.12 3.49-.35 2.18-.42 4.37-.96 6.52-.96 1.62 0 3.22.31 4.78 1.2 3.75 2.14 5.86 6.96 6.07 11.14 2.32-.26 4.64-.51 6.96-.77-1.36-8.48-7.79-16.53-16.68-16.53-.67 0-1.36.05-2.06.14-3.66.5-7.11 2.56-10.77 2.56-.82 0-1.66-.1-2.51-.35-4.44-1.31-7.58-5.08-11.76-6.92-1.67-.73-3.76-1.19-5.56-1.19z" fill="#424242" opacity=".2"/><linearGradient id="c" x1="74.613" x2="122.9" y1="75.358" y2="97.644" gradientTransform="rotate(27.841 77.506 82.811)" gradientUnits="userSpaceOnUse"><stop stop-color="#F4C20D" offset="0"/><stop stop-color="#F57F17" offset="1"/></linearGradient><path d="M103.09 114.14c1.13-3.89 2.58-8.14 1.89-12.24-.67-3.99-4.01-6.74-7.72-7.94-4.19-1.36-8.71-.78-12.98-1.72-4.43-.98-10.51-3.45-14.56-14.4l.97-.87c1.16 2.2 1.89 4.72 3.45 6.66 3.06 3.81 6.99 6.21 11.92 6.55 4.8.34 9.47-.38 14.13 1.18 4.37 1.47 8 4.36 9.58 8.8 1.76 4.97.88 10.4.13 15.47-2.27-.49-4.54-.99-6.81-1.49z" fill="url(#c)"/><path d="M79.55 89.57c2.05 1.08 4.28 1.71 6.67 1.87 1.56.11 3.11.11 4.61.11 3.24 0 6.29 0 9.35 1.03 3.15 1.06 7.27 3.34 9 8.23 1.57 4.42.94 9.28.24 14.01l-4.74-1.04.01-.03c1.07-3.62 2.28-7.72 1.61-11.7-.67-3.99-3.83-7.27-8.43-8.77-2.48-.81-5.06-.97-7.55-1.12-1.95-.12-3.79-.23-5.6-.63-1.61-.35-3.38-.9-5.17-1.96m-8.7-12.4l-.98.87c4.07 11 10.18 13.49 14.64 14.47 4.29.94 8.84.36 13.05 1.73 3.73 1.21 7.08 3.97 7.76 7.98.7 4.12-.76 8.4-1.9 12.31l6.84 1.5c.75-5.1 1.64-10.55-.13-15.55-1.58-4.46-5.23-7.37-9.63-8.84-4.69-1.57-9.38-.85-14.21-1.19-4.95-.35-8.9-2.76-11.98-6.59-1.56-1.94-2.3-4.47-3.46-6.69z" fill="#424242" opacity=".2"/><linearGradient id="d" x1="31.575" x2="31.278" y1="25.662" y2="8.028" gradientTransform="rotate(8.754 53.605 56.757)" gradientUnits="userSpaceOnUse"><stop stop-color="#9CCC65" offset="0"/><stop stop-color="#98C963" offset=".211"/><stop stop-color="#8DBE5B" offset=".403"/><stop stop-color="#7BAD4F" offset=".588"/><stop stop-color="#61943D" offset=".767"/><stop stop-color="#407527" offset=".942"/><stop stop-color="#33691E" offset="1"/></linearGradient><path fill="url(#d)" d="M33.54 27.71L16.47 4l44.6 5.1z"/><linearGradient id="e" x1="26.747" x2="3.966" y1="33.387" y2="31.185" gradientTransform="rotate(8.754 53.605 56.757)" gradientUnits="userSpaceOnUse"><stop stop-color="#F4C20D" offset="0"/><stop stop-color="#F09300" offset="1"/></linearGradient><path fill="url(#e)" d="M7.13 45.57L16.47 4l17.07 23.71z"/><linearGradient id="f" x1="33.541" x2="72.322" y1="45.332" y2="45.332" gradientUnits="userSpaceOnUse"><stop stop-color="#F05455" offset="0"/><stop stop-color="#DB3236" offset="1"/></linearGradient><path fill="url(#f)" d="M72.32 81.57L33.54 27.71 61.07 9.1z"/><linearGradient id="g" x1="45.687" x2="39.39" y1="42.06" y2="73.159" gradientTransform="rotate(8.754 53.605 56.757)" gradientUnits="userSpaceOnUse"><stop stop-color="#3B78E7" offset=".258"/><stop stop-color="#1C3AA9" offset=".893"/></linearGradient><path fill="url(#g)" d="M72.32 81.57l-65.19-36 26.41-17.86z"/><path fill="none" stroke="#212121" stroke-miterlimit="10" stroke-width="2" d="M35.43 66.04L5.16 122.9"/><path d="M19.48 8.21l38.23 4.37 9.59 61.76-55.77-30.79 7.95-35.34m-3.12-4.38L6.97 45.61 72.5 81.79 61.19 8.95 16.36 3.83z" fill="#424242" opacity=".2"/><defs><path id="h" d="M72.32 81.57l-65.19-36L16.47 4l44.6 5.1z"/></defs><clipPath id="i"><use xlink:href="#h"/></clipPath><path clip-path="url(#i)" fill="none" stroke="#8D6E63" stroke-miterlimit="10" stroke-width="2" d="M16.47 4l55.85 77.57M7.13 45.57L61.07 9.1"/><path d="M9.85 44.48s7.24 28.53 29.25 20.09 20.49-53.8 20.49-53.8" fill="none" stroke="#212121" stroke-linecap="round" stroke-miterlimit="10" stroke-width="2"/></svg>