<svg viewBox="0 0 128 128" width="128" height="128" xmlns="http://www.w3.org/2000/svg"><radialGradient id="a" cx="62.2" cy="4187.9" r="45.175" gradientTransform="translate(0 -4124)" gradientUnits="userSpaceOnUse"><stop stop-color="#E53935" offset=".475"/><stop stop-color="#C62828" offset=".913"/></radialGradient><path d="M62.2 12.3c6.2 17.5 13.4 26.4 25.5 38.5 8 8 12.1 17.9 12.1 27.2 0 20.8-16.8 37.6-37.6 37.6S24.6 98.8 24.6 78c0-9.3 4.2-19.3 12.1-27.2 12.2-12.2 19.4-21 25.5-38.5z" fill="url(#a)"/><path d="M62.2 20.5C67.9 33.7 74.7 42 85.6 52.9 92.7 60 96.8 69.2 96.8 78c0 19.1-15.5 34.6-34.6 34.6-19 0-34.5-15.6-34.5-34.6 0-8.8 4.1-18 11.2-25.1C49.8 42 56.6 33.7 62.2 20.5m0-8.2C56 29.8 48.8 38.7 36.7 50.8c-8 8-12.1 17.9-12.1 27.2 0 20.8 16.8 37.6 37.6 37.6S99.8 98.8 99.8 78c0-9.3-4.2-19.3-12.1-27.2-12.1-12.2-19.3-21-25.5-38.5z" fill="#424242" opacity=".2"/></svg>