<svg xmlns="http://www.w3.org/2000/svg" viewBox="0 0 128 128" width="128" height="128"><linearGradient id="a" gradientUnits="userSpaceOnUse" x1="64.005" y1="47.664" x2="64.005" y2="78.652"><stop offset="0" stop-color="#616161"/><stop offset=".827" stop-color="#212121"/></linearGradient><path d="M77.33 80H50.67C49.19 80 48 78.81 48 77.33V50.67A2.67 2.67 0 0150.67 48h26.67a2.67 2.67 0 012.67 2.67v26.67A2.676 2.676 0 0177.33 80z" fill="url(#a)"/><linearGradient id="b" gradientUnits="userSpaceOnUse" x1="47.914" y1="64" x2="79.807" y2="64"><stop offset=".001" stop-color="#bfbebe"/><stop offset=".3" stop-color="#212121" stop-opacity="0"/><stop offset=".7" stop-color="#212121" stop-opacity="0"/><stop offset="1" stop-color="#bfbebe"/></linearGradient><path d="M77.33 80H50.67C49.19 80 48 78.81 48 77.33V50.67A2.67 2.67 0 0150.67 48h26.67a2.67 2.67 0 012.67 2.67v26.67A2.676 2.676 0 0177.33 80z" opacity=".3" fill="url(#b)"/><linearGradient id="c" gradientUnits="userSpaceOnUse" x1="9.625" y1="127.764" x2="41.635" y2="127.764" gradientTransform="rotate(90 76.7 115.07)"><stop offset=".001" stop-color="#bfbebe"/><stop offset=".3" stop-color="#212121" stop-opacity="0"/><stop offset=".7" stop-color="#212121" stop-opacity="0"/><stop offset="1" stop-color="#bfbebe"/></linearGradient><path d="M48 77.32V50.66c0-1.48 1.19-2.67 2.67-2.67h26.66A2.67 2.67 0 0180 50.66v26.67C80 78.8 78.82 80 77.33 80H50.67A2.678 2.678 0 0148 77.32z" opacity=".3" fill="url(#c)"/></svg>