<svg xmlns="http://www.w3.org/2000/svg" viewBox="0 0 128 128" width="128" height="128"><linearGradient id="a" gradientUnits="userSpaceOnUse" x1="64" y1="19.664" x2="64" y2="106.124"><stop offset="0" stop-color="#616161"/><stop offset=".827" stop-color="#212121"/></linearGradient><path d="M102 108H26c-3.31 0-6-2.69-6-6V26c0-3.31 2.69-6 6-6h76c3.31 0 6 2.69 6 6v76c0 3.31-2.69 6-6 6z" fill="url(#a)"/><linearGradient id="b" gradientUnits="userSpaceOnUse" x1="64" y1="19.478" x2="64" y2="107.098"><stop offset=".001" stop-color="#bfbebe"/><stop offset=".15" stop-color="#212121" stop-opacity="0"/><stop offset=".85" stop-color="#212121" stop-opacity="0"/><stop offset="1" stop-color="#bfbebe"/></linearGradient><path d="M102 108H26c-3.31 0-6-2.69-6-6V26c0-3.31 2.69-6 6-6h76c3.31 0 6 2.69 6 6v76c0 3.31-2.69 6-6 6z" opacity=".3" fill="url(#b)"/><linearGradient id="c" gradientUnits="userSpaceOnUse" x1="150.697" y1="276.391" x2="150.697" y2="189.643" gradientTransform="matrix(0 1 1 0 -169.192 -86.698)"><stop offset=".001" stop-color="#bfbebe"/><stop offset=".15" stop-color="#212121" stop-opacity="0"/><stop offset=".85" stop-color="#212121" stop-opacity="0"/><stop offset="1" stop-color="#bfbebe"/></linearGradient><path d="M20 102V26c0-3.31 2.69-6 6-6h76c3.31 0 6 2.69 6 6v76c0 3.31-2.69 6-6 6H26c-3.31 0-6-2.69-6-6z" opacity=".2" fill="url(#c)"/></svg>