<svg viewBox="0 0 128 128" width="128" height="128" xmlns="http://www.w3.org/2000/svg"><linearGradient id="a" x1="64.495" x2="64.495" y1="19.717" y2="107.7" gradientUnits="userSpaceOnUse"><stop stop-color="#FEE133" offset=".5"/><stop stop-color="#FEDE32" offset=".612"/><stop stop-color="#FCD32F" offset=".708"/><stop stop-color="#FAC12B" offset=".797"/><stop stop-color="#F7A924" offset=".883"/><stop stop-color="#F6A323" offset=".9"/></linearGradient><path d="M64.5 119.89c-27.93 0-58-17.49-58-55.89s30.07-55.89 58-55.89c15.48 0 29.81 5.12 40.36 14.43C116.39 32.72 122.5 47.06 122.5 64c0 16.86-6.1 31.17-17.64 41.39-10.58 9.35-24.91 14.5-40.36 14.5z" fill="url(#a)"/><path d="M64.5 10.11c14.99 0 28.86 4.95 39.03 13.93 11.1 9.8 16.97 23.61 16.97 39.96 0 16.27-5.87 30.07-16.97 39.89-10.21 9.03-24.07 14-39.03 14-15.04 0-28.9-4.91-39.04-13.82C14.36 94.32 8.5 80.46 8.5 64c0-16.54 5.86-30.42 16.96-40.15 10.1-8.86 23.97-13.74 39.04-13.74m0-4c-31.15 0-60 20.01-60 57.89 0 37.68 28.85 57.89 60 57.89s60-20.73 60-57.89c0-37.37-28.85-57.89-60-57.89z" fill="#EB8F00"/><path d="M63.97 96.66c-12.74 0-21.82-6.61-24.55-10.77-1.06-1.61-1.26-3.35-.55-4.67.53-.99 1.51-1.56 2.67-1.56.39 0 .79.07 1.2.19 6.42 2.01 13.78 3.07 21.28 3.07 7.46 0 14.79-1.06 21.19-3.07.41-.13.81-.19 1.2-.19 1.16 0 2.14.57 2.67 1.56.71 1.31.5 3.06-.55 4.67-2.74 4.16-11.82 10.77-24.56 10.77z" fill="#242424"/><radialGradient id="b" cx="25.701" cy="66.546" r="19.444" gradientTransform="matrix(.9791 0 0 .9301 2.087 7.934)" gradientUnits="userSpaceOnUse"><stop stop-color="#ED7770" offset="0"/><stop stop-color="#ED7770" stop-opacity="0" offset=".9"/></radialGradient><circle cx="27.25" cy="69.83" r="17.5" fill="url(#b)" opacity=".8"/><radialGradient id="c" cx="100.77" cy="66.546" r="19.444" gradientTransform="matrix(.9791 0 0 .9301 2.087 7.934)" gradientUnits="userSpaceOnUse"><stop stop-color="#ED7770" offset="0"/><stop stop-color="#ED7770" stop-opacity="0" offset=".9"/></radialGradient><circle cx="100.75" cy="69.83" r="17.5" fill="url(#c)" opacity=".8"/><path d="M49.61 36.61c2.28.39 3.43-2.63 1.09-3.52-1.75-.65-3.73-1.01-5.73-1.07-5.6-.26-10.79 1.82-14.46 5.03-1.84 1.65.37 4.04 2.27 2.9 4.84-2.82 10.88-4.23 16.83-3.34zM79.19 36.61c-2.28.39-3.43-2.63-1.09-3.52 1.75-.65 3.73-1.01 5.73-1.07 5.6-.26 10.79 1.82 14.46 5.03 1.84 1.65-.37 4.04-2.27 2.9-4.85-2.82-10.88-4.23-16.83-3.34z" fill="#EB8F00" stroke="#EB8F00" stroke-miterlimit="10"/><g fill="#242424"><path d="M50.15 59.1s-.06-.08-.18-.22c-.06-.07-.13-.16-.21-.27-.09-.11-.18-.23-.26-.29l-.62-.62c-.25-.25-.55-.52-.86-.79-.64-.54-1.4-1.04-2.2-1.39-.81-.34-1.62-.53-2.45-.52.35-.01.09 0 .17 0h-.29l-.29.01c-.26 0-.21.02-.29.03-.07-.01-.35.06-.54.09-.4.1-.82.22-1.22.39-.8.35-1.56.85-2.2 1.39-.63.54-1.16 1.07-1.51 1.47-.36.41-.57.64-.57.64l-.3.34a3.323 3.323 0 0 1-4.69.28c-1.04-.92-1.36-2.36-.93-3.6 0 0 .04-.11.11-.32.08-.21.17-.53.35-.91.33-.78.89-1.87 1.82-3.08.91-1.21 2.25-2.51 4.03-3.54.9-.49 1.89-.96 2.97-1.25.56-.13 1.04-.26 1.74-.34.3-.04.74-.09.87-.09l.76-.04c1.14.02 2.28.18 3.37.47 1.08.28 2.07.75 2.97 1.25 1.78 1.03 3.12 2.33 4.03 3.54.47.6.84 1.18 1.13 1.7.29.5.53 1.01.72 1.44.11.22.16.38.2.5.04.13.08.24.11.33l.09.27c.57 1.77-.4 3.67-2.17 4.24a3.41 3.41 0 0 1-3.66-1.11zM93.48 59.1s-.06-.08-.18-.22c-.06-.07-.13-.16-.21-.27-.09-.11-.18-.23-.26-.29l-.62-.62c-.25-.25-.55-.52-.86-.79-.64-.54-1.4-1.04-2.2-1.39-.81-.34-1.62-.53-2.45-.52.35-.01.09 0 .17 0h-.29l-.29.01c-.26 0-.21.02-.29.03-.07-.01-.35.06-.54.09-.4.1-.82.22-1.22.39-.8.35-1.56.85-2.2 1.39-.63.54-1.16 1.07-1.52 1.47-.36.41-.57.64-.57.64l-.3.34a3.323 3.323 0 0 1-4.69.28c-1.04-.92-1.36-2.36-.93-3.6 0 0 .04-.11.11-.32.08-.21.17-.53.35-.91.33-.78.89-1.87 1.82-3.08.91-1.21 2.25-2.51 4.03-3.54.9-.49 1.89-.96 2.97-1.25.56-.13 1.04-.26 1.74-.34.3-.04.73-.09.87-.09l.76-.04c1.14.02 2.28.18 3.37.47 1.08.28 2.07.75 2.97 1.25 1.78 1.03 3.12 2.33 4.03 3.54.47.6.84 1.18 1.13 1.7.29.5.53 1.01.72 1.44.11.22.16.38.2.5.04.13.08.24.11.33l.09.27c.57 1.77-.4 3.67-2.17 4.24-1.35.43-2.8-.06-3.65-1.11z"/></g></svg>