<svg viewBox="0 0 128 128" width="128" height="128" xmlns="http://www.w3.org/2000/svg"><radialGradient id="a" cx="44.5" cy="89" r="30.537" gradientUnits="userSpaceOnUse"><stop stop-color="#757575" offset="0"/><stop stop-color="#1A1A1A" offset="1"/></radialGradient><path d="M93.12 111.75c1.56-1.56 2.76-3.72 2.76-7.69 0-3.96-5.76-6.84-10.45-9.61-4.68-2.76-4.92-6.12-4.8-8.29.12-2.16 2.16-3.36 2.28-5.16s-3.96-1.32-6.84-3.72-3.48-20.9-3.24-23.78 2.04-2.64 5.16-3.72 4.56-1.08 4.56-3.24-3.24-3.06-8.47-4.68-3.78-7.56-3.78-7.56c-.18-.18-12.43-.18-12.61 0 0 0 1.44 5.94-3.78 7.57s-8.47 2.52-8.47 4.68 1.44 2.16 4.56 3.24 4.92.84 5.16 3.72-.36 21.38-3.24 23.78-6.97 1.92-6.84 3.72 2.16 3 2.28 5.16-.12 5.52-4.8 8.29c-4.68 2.76-10.45 5.64-10.45 9.61 0 3.96 1.2 6.12 2.76 7.69 0 0-2.52 1.44-2.52 3.72v6.12S38.24 124 64 124s31.64-2.4 31.64-2.4v-6.12c0-2.29-2.52-3.73-2.52-3.73z" fill="url(#a)"/><linearGradient id="b" x1="64" x2="64" y1="113.25" y2="122.25" gradientUnits="userSpaceOnUse"><stop stop-color="#757575" offset="0"/><stop stop-color="#6D6D6D" offset=".052"/><stop stop-color="#494949" offset=".328"/><stop stop-color="#2F2F2F" offset=".586"/><stop stop-color="#202020" offset=".817"/><stop stop-color="#1A1A1A" offset="1"/></linearGradient><path d="M93.5 112s-6.25 1.5-30 1.5-29-1.5-29-1.5c-.7.5-2.14 1.75-2.14 3.47v6.12S38.24 124 64 124s31.64-2.4 31.64-2.4v-6.12c0-1.73-1.44-2.98-2.14-3.48z" fill="url(#b)"/><linearGradient id="c" x1="64" x2="64" y1="76.583" y2="86.596" gradientUnits="userSpaceOnUse"><stop stop-color="#696969" offset=".002"/><stop stop-color="#1A1A1A" offset="1"/></linearGradient><path d="M82.91 81.01c.12-1.8-3.96-1.32-6.84-3.72a2.56 2.56 0 0 1-.27-.29H52.21c-.09.11-.18.21-.27.29-2.88 2.4-6.97 1.92-6.84 3.72s2.16 3 2.28 5.16c.03.45.03.96-.01 1.49h33.29c-.04-.54-.04-1.04-.01-1.49.1-2.16 2.14-3.36 2.26-5.16z" fill="url(#c)"/><linearGradient id="d" x1="64" x2="64" y1="34.75" y2="49.852" gradientUnits="userSpaceOnUse"><stop stop-color="#757575" offset="0"/><stop stop-color="#1A1A1A" offset="1"/></linearGradient><path d="M50.01 49.79c2.2.76 3.74.87 4.55 1.88h18.88c.8-1.01 2.35-1.12 4.55-1.88 3.12-1.08 4.56-1.08 4.56-3.24s-3.24-3.06-8.47-4.68-3.78-7.57-3.78-7.57c-.18-.18-12.43-.18-12.61 0 0 0 1.44 5.94-3.78 7.57s-8.47 2.52-8.47 4.68 1.45 2.16 4.57 3.24z" fill="url(#d)"/><radialGradient id="e" cx="59.75" cy="15.25" r="21.408" gradientUnits="userSpaceOnUse"><stop stop-color="#757575" offset=".151"/><stop stop-color="#1C1C1C" offset=".998"/></radialGradient><circle cx="64" cy="21.55" r="17.55" fill="url(#e)"/><path d="M64 7c8.03 0 14.55 6.53 14.55 14.55 0 6.05-3.65 11.37-9.3 13.56l-2.45.95.62 2.52.01.05.01.06c.23.91.59 1.76 1.08 2.53.37.58.76 1.07 1.21 1.5.94.9 2.11 1.58 3.47 2l.75.23.21.06c1.39.43 3.12.97 4.31 1.45-.44.14-.93.29-1.46.48-.21.07-.42.14-.62.2l-.22.07-.35.1-.41.12c-1.54.44-3.14.89-4.31 2.36-.73.92-1.14 2.05-1.26 3.46-.11 1.31-.14 20.92 3.62 25.62.22.28.45.51.69.72 1.66 1.39 3.5 2.02 4.95 2.46-.64.97-1.37 2.24-1.46 3.95-.02.27-.02.56-.02.9 0 .35.01.67.04 1 .3 3.79 2.41 6.87 6.26 9.14.49.29.99.58 1.49.87 2.98 1.72 7.48 4.33 7.48 6.15 0 3.24-.95 4.63-1.88 5.56l-2.8 2.76 3.4 1.95c.02.01.08.05.15.1l.18.14.16.13.04.03c.05.04.09.09.14.14l.04.05c.04.05.09.1.13.15l.03.04c.03.04.06.09.1.16.02.03.04.06.05.1l.01.02c0 .02.01.04.01.06l.01.02v3.8c-2.97.59-9.88 1.53-24.08 1.7-1.46.02-2.98.03-4.58.03s-3.12-.01-4.56-.03c-14.2-.17-21.11-1.11-24.08-1.7v-3.76l.01-.07c0-.02.01-.03.01-.05l.01-.03c.01-.03.03-.06.07-.12.02-.04.05-.08.07-.11l.01-.01.03-.04.13-.16.03-.04.18-.18c.05-.05.11-.09.19-.16.05-.04.1-.08.15-.11.07-.05.12-.08.12-.08l3.4-1.95-2.77-2.77c-.93-.93-1.88-2.32-1.88-5.56 0-1.83 4.5-4.43 7.48-6.15.5-.29 1-.58 1.49-.87 3.85-2.27 5.95-5.34 6.26-9.14.03-.32.04-.65.04-1.04 0-.27-.01-.52-.02-.77v-.07l-.01-.1c-.03-.44-.11-.82-.18-1.11-.16-.65-.41-1.28-.77-1.93-.15-.28-.32-.56-.51-.84 1.45-.44 3.29-1.08 4.96-2.46.25-.2.47-.44.7-.72 3.76-4.69 3.72-24.31 3.62-25.61-.12-1.42-.53-2.55-1.26-3.46-1.17-1.46-2.76-1.92-4.31-2.36l-.77-.22-.22-.07c-.2-.06-.4-.13-.62-.2-.53-.18-1.02-.34-1.46-.48 1.19-.48 2.92-1.02 4.31-1.45l.29-.09.66-.21c1.8-.56 3.24-1.54 4.29-2.91.68-.89 1.18-1.94 1.47-3.11l.03-.12.62-2.52-2.45-.95c-5.65-2.19-9.3-7.51-9.3-13.56C49.45 13.53 55.97 7 64 7m0-3c-9.69 0-17.55 7.86-17.55 17.55 0 7.46 4.66 13.81 11.22 16.36 0 .02-.01.04-.01.06a5.57 5.57 0 0 1-.94 2.03c-.6.79-1.49 1.46-2.79 1.87-.33.1-.65.2-.96.3-4.35 1.35-7.12 2.24-7.47 4-.03.13-.04.26-.04.39 0 .27.02.51.07.72.32 1.46 1.76 1.58 4.5 2.53.25.09.48.16.72.23.08.03.16.05.25.07.13.04.26.08.38.11 1.49.43 2.58.67 3.21 1.46.34.42.55.99.62 1.84.2 2.78-.36 20.18-3 23.48-.09.11-.18.21-.27.29-1.62 1.35-3.62 1.79-5.04 2.24-1.1.35-1.86.7-1.8 1.49.01.23.06.44.13.65s.16.41.26.61c.21.4.48.79.75 1.18.2.29.38.59.56.9.2.37.37.75.48 1.18.05.21.09.42.11.64.01.22.02.45.02.69v.03c0 .25-.01.5-.03.77-.16 2.05-1.08 4.61-4.79 6.79-4.68 2.76-10.45 5.64-10.45 9.61 0 3.96 1.2 6.12 2.76 7.69 0 0-.15.09-.38.25-.08.06-.17.12-.26.2-.02.02-.04.03-.06.05-.09.07-.18.15-.28.24l-.03.03c-.1.09-.2.2-.31.31-.03.03-.05.06-.08.09-.1.11-.19.22-.28.33-.01.01-.02.03-.03.04-.1.13-.19.26-.27.41-.02.04-.04.08-.07.12-.08.14-.15.29-.22.44 0 .01-.01.02-.01.03-.06.16-.11.33-.15.5l-.03.13c-.03.18-.06.36-.06.56v6.12s5.17 2.11 27.04 2.37c1.46.02 2.99.03 4.6.03s3.14-.01 4.6-.03c21.87-.26 27.04-2.37 27.04-2.37v-6.12c0-.19-.02-.38-.06-.56l-.03-.13c-.04-.17-.09-.34-.15-.5 0-.01-.01-.02-.01-.03-.06-.15-.14-.3-.22-.44a.746.746 0 0 0-.07-.12c-.09-.14-.18-.28-.27-.41-.01-.01-.02-.03-.03-.04-.09-.12-.19-.23-.28-.33-.03-.03-.05-.06-.08-.09-.1-.11-.21-.21-.31-.31l-.03-.03c-.1-.09-.19-.17-.28-.24-.02-.02-.04-.03-.06-.05-.1-.08-.18-.14-.26-.2-.23-.16-.38-.25-.38-.25 1.56-1.56 2.76-3.72 2.76-7.69 0-3.96-5.76-6.84-10.45-9.61-3.71-2.19-4.63-4.75-4.79-6.79-.02-.27-.03-.52-.03-.77v-.03c0-.24.01-.48.02-.69.12-2.16 2.16-3.36 2.28-5.16.01-.11 0-.22-.03-.31-.36-1.44-4.12-1.16-6.82-3.41a2.56 2.56 0 0 1-.27-.29c-2.65-3.3-3.2-20.7-2.97-23.49.07-.85.28-1.42.62-1.84.63-.79 1.71-1.03 3.21-1.46.12-.04.25-.07.38-.11.08-.02.16-.05.25-.07.23-.07.47-.15.72-.23 1.17-.41 2.11-.66 2.82-.93.24-.09.45-.18.64-.28.56-.3.91-.68 1.04-1.31.05-.21.07-.45.07-.72 0-.14-.01-.27-.04-.39-.35-1.76-3.12-2.65-7.47-4-.31-.1-.63-.19-.96-.3-.98-.3-1.72-.76-2.29-1.3-.3-.29-.54-.61-.75-.93-.34-.53-.56-1.1-.7-1.66 0-.02-.01-.04-.01-.06 6.56-2.54 11.22-8.9 11.22-16.36C81.55 11.86 73.69 4 64 4z" fill="#eee" opacity=".2"/></svg>