<svg viewBox="0 0 128 128" width="128" height="128" xmlns="http://www.w3.org/2000/svg" xmlns:xlink="http://www.w3.org/1999/xlink"><radialGradient id="a" cx="66.828" cy="122.28" r="11.86" gradientTransform="scale(-1 1) rotate(-45 18.674 222.429)" gradientUnits="userSpaceOnUse"><stop stop-color="#CCCED4" offset="0"/><stop stop-color="#918F99" offset="1"/></radialGradient><path d="M5.66 118.87l3.37 3.37c2.33 2.33 6.15 2.33 8.49 0 2.33-2.33 2.33-6.15 0-8.49l-3.37-3.37c-2.33-2.33-6.15-2.33-8.49 0-2.33 2.34-2.33 6.16 0 8.49z" fill="url(#a)"/><path fill="#A85B24" d="M19.384 117.893l-9.37-9.37 19.7-19.7 9.37 9.37z"/><path d="M88.85 23.78l-1.19-4.96 14.05-15.4 21.74.84.2-.2.01.21-84.68 84.66-7.99-7.99 53.36-58.5 4.5 1.34z" fill="#90B4BB"/><radialGradient id="b" cx="72.302" cy="91.177" r="17.615" gradientTransform="scale(-1 1) rotate(-45 18.674 222.429)" gradientUnits="userSpaceOnUse"><stop stop-color="#CCCED4" offset="0"/><stop stop-color="#918F99" offset="1"/></radialGradient><path d="M14.06 80.3c5.86-5.64 13.85-7.67 13.85-7.67 2.84 5.87 10.72 13.08 12.44 14.61l.02-.02s.06.06.15.17c.11.09.17.15.17.15l-.02.02c1.53 1.72 8.74 9.6 14.61 12.44 0 0-2.02 7.99-7.67 13.85 0 0-4.53-10-14.01-19.54-9.54-9.48-19.54-14.01-19.54-14.01z" fill="url(#b)"/><linearGradient id="c" x1="64.244" x2="64.244" y1="-22.539" y2="91.868" gradientTransform="scale(-1 1) rotate(-45 18.674 222.429)" gradientUnits="userSpaceOnUse"><stop stop-color="#E5ECED" offset="0"/><stop stop-color="#BFD8D5" offset="1"/></linearGradient><path d="M123.86 4.26l-.2.2.84 21.74-47.3 43.14-4.18-2.6 1.36 5.17-27.41 25-7.99-7.99 84.68-84.68.2.02z" fill="url(#c)"/><path d="M42.53 85.23l.15.15c.8.8 2.11.8 2.91 0l66.1-66.1c.8-.8.8-2.11 0-2.91l-.15-.15c-.8-.8-2.11-.8-2.91 0l-66.1 66.1c-.8.8-.8 2.11 0 2.91z" fill="#7B9AA1"/><path d="M33.3 96.23h11.58c.83 0 1.5-.67 1.5-1.5V82.91c0-.83-.67-1.5-1.5-1.5H33.3c-.83 0-1.5.67-1.5 1.5v11.82c-.01.83.67 1.5 1.5 1.5z" fill="#FFEB3B"/><linearGradient id="d" x1="34.578" x2="40.203" y1="83.212" y2="90.212" gradientUnits="userSpaceOnUse"><stop stop-color="#30753F" offset="0"/><stop stop-color="#30773E" offset=".408"/><stop stop-color="#327E3B" offset=".593"/><stop stop-color="#348B36" offset=".733"/><stop stop-color="#379D2E" offset=".851"/><stop stop-color="#3CB525" offset=".953"/><stop stop-color="#3EC21F" offset="1"/></linearGradient><path d="M35.86 92.96h6.46c.46 0 .84-.38.84-.84v-6.59c0-.46-.38-.84-.84-.84h-6.46c-.46 0-.84.38-.84.84v6.59c0 .46.37.84.84.84z" fill="url(#d)"/><g fill="#777982"><circle cx="47.96" cy="104.62" r="1.81"/><circle cx="23.36" cy="80.02" r="1.81"/></g><defs><path id="e" transform="rotate(-134.999 24.547 103.358)" d="M17.92 89.43h13.25v27.86H17.92z"/></defs><clipPath id="f"><use xlink:href="#e"/></clipPath><g clip-path="url(#f)" fill="none" stroke="#754C24" stroke-miterlimit="10" stroke-width="2.711"><path d="M36.3 105.42L23.09 92.21M31.4 110.32L18.19 97.11M26.5 115.22l-13.21-13.21"/></g><path d="M102.35 5.65l19.17.74.74 19.17-45.49 41.49-2.9-1.8c-.32-.2-.69-.3-1.06-.3-.42 0-.84.13-1.19.39-.66.49-.95 1.32-.75 2.12l1.05 4-24.85 22.67c-.42.39-.66.94-.65 1.51s.27 1.12.7 1.49c2.01 1.71 3.87 3.07 5.55 4.06-.69 2.03-2.22 5.82-4.85 9.3-1.52-2.78-4.31-7.36-8.43-12.33-.36-.43-.88-.7-1.45-.72h-.09c-.53 0-1.04.21-1.41.59L18.37 116.1c-.04.02-.09.03-.13.05-.75.33-1.23 1.09-1.2 1.91.05 1.15-.36 2.21-1.14 2.99-.75.75-1.76 1.16-2.83 1.16s-2.08-.41-2.83-1.16l-3.37-3.37a4.008 4.008 0 0 1 0-5.66c.74-.74 1.74-1.15 2.82-1.15h.25a2.001 2.001 0 0 0 1.88-1.33l18.07-18.07c.4-.4.61-.95.58-1.51s-.29-1.09-.72-1.45c-4.97-4.12-9.56-6.91-12.33-8.43 3.48-2.64 7.27-4.16 9.3-4.85.99 1.68 2.35 3.54 4.06 5.55.37.44.91.69 1.49.7h.03c.56 0 1.1-.24 1.48-.65l51-55.91 3.29.98c.19.06.38.08.57.08.5 0 1-.19 1.38-.55.52-.49.74-1.22.57-1.92l-.94-3.93 12.7-13.93m-.85-2.04l-14.05 15.4 1.19 4.96-4.5-1.34L32.3 79.49c-1.84-2.17-3.56-4.49-4.6-6.65 0 0-7.99 2.02-13.85 7.67 0 0 6.86 3.11 14.63 9.55L9.8 108.73l.14.14h-.25c-1.54 0-3.07.57-4.24 1.73-2.33 2.33-2.33 6.15 0 8.49l3.37 3.37c1.17 1.17 2.7 1.75 4.24 1.75s3.08-.58 4.24-1.75c1.23-1.23 1.79-2.87 1.73-4.48l.14.14 18.67-18.67c6.44 7.77 9.55 14.63 9.55 14.63 5.64-5.86 7.67-13.85 7.67-13.85-2.15-1.04-4.48-2.76-6.65-4.6l25.75-23.49-1.36-5.17 4.18 2.6 47.3-43.14-.84-21.74.2-.2-.21-.01-.01-.21-.2.2-21.72-.86z" fill="#424242" opacity=".2"/><radialGradient id="g" cx="66.828" cy="122.28" r="11.86" gradientTransform="rotate(-45.001 82.881 67.418)" gradientUnits="userSpaceOnUse"><stop stop-color="#88898D" offset="0"/><stop stop-color="#504F54" offset="1"/></radialGradient><path d="M122.75 118.87l-3.37 3.37c-2.33 2.33-6.15 2.33-8.49 0-2.33-2.33-2.33-6.15 0-8.49l3.37-3.37c2.33-2.33 6.15-2.33 8.49 0 2.33 2.34 2.33 6.16 0 8.49z" fill="url(#g)"/><linearGradient id="h" x1="65.675" x2="74.963" y1="107.67" y2="107.67" gradientTransform="rotate(-45.001 82.881 67.418)" gradientUnits="userSpaceOnUse"><stop stop-color="#88898D" offset="0"/><stop stop-color="#504F54" offset="1"/></linearGradient><path fill="url(#h)" d="M118.4 108.53l-9.37 9.37-19.7-19.71 9.37-9.37z"/><path d="M39.56 23.78l1.19-4.96L26.7 3.41l-21.74.83-.2-.2v.21l84.68 84.68 7.99-7.99-53.36-58.5-4.51 1.34z" fill="#90B4BB"/><linearGradient id="i" x1="72.302" x2="72.302" y1="82.968" y2="95.622" gradientTransform="rotate(-45.001 82.881 67.418)" gradientUnits="userSpaceOnUse"><stop stop-color="#88898D" offset="0"/><stop stop-color="#504F54" offset="1"/></linearGradient><path d="M114.35 80.3c-5.86-5.64-13.85-7.67-13.85-7.67-2.84 5.87-10.72 13.08-12.44 14.61l-.02-.02s-.06.06-.15.17c-.11.09-.17.15-.17.15l.02.02C86.21 89.28 79 97.16 73.13 100c0 0 2.02 7.99 7.67 13.85 0 0 4.53-10 14.01-19.54 9.54-9.48 19.54-14.01 19.54-14.01z" fill="url(#i)"/><linearGradient id="j" x1="64.244" x2="64.244" y1="-22.539" y2="91.868" gradientTransform="rotate(-45.001 82.881 67.418)" gradientUnits="userSpaceOnUse"><stop stop-color="#E5ECED" offset="0"/><stop stop-color="#BFD8D5" offset="1"/></linearGradient><path d="M4.55 4.26l.2.2-.84 21.74 47.3 43.14 4.18-2.6-1.36 5.17 27.41 25 7.99-7.99L4.76 4.25l-.21.01z" fill="url(#j)"/><path d="M85.89 85.23l-.15.15c-.8.8-2.11.8-2.91 0l-66.1-66.1c-.8-.8-.8-2.11 0-2.91l.15-.15c.8-.8 2.11-.8 2.91 0l66.1 66.1c.8.8.8 2.11 0 2.91z" fill="#7B9AA1"/><path d="M95.12 96.23H83.54c-.83 0-1.5-.67-1.5-1.5V82.91c0-.83.67-1.5 1.5-1.5h11.58c.83 0 1.5.67 1.5 1.5v11.82c0 .83-.67 1.5-1.5 1.5z" fill="#FFEB3B"/><linearGradient id="k" x1="85.471" x2="93.181" y1="92.677" y2="84.967" gradientUnits="userSpaceOnUse"><stop stop-color="#DB0000" offset="0"/><stop stop-color="#D90101" offset=".377"/><stop stop-color="#D20503" offset=".549"/><stop stop-color="#C50B07" offset=".679"/><stop stop-color="#B3150C" offset=".788"/><stop stop-color="#9B2113" offset=".883"/><stop stop-color="#7F301B" offset=".969"/><stop stop-color="#72361F" offset="1"/></linearGradient><path d="M92.55 92.96H86.1c-.46 0-.84-.38-.84-.84v-6.59c0-.46.38-.84.84-.84h6.46c.46 0 .84.38.84.84v6.59c-.01.46-.38.84-.85.84z" fill="url(#k)"/><g fill="#393A3E"><circle cx="80.45" cy="104.62" r="1.81"/><circle cx="105.05" cy="80.02" r="1.81"/></g><defs><path id="l" transform="rotate(-45.001 103.867 103.364)" d="M97.24 89.43h13.25v27.86H97.24z"/></defs><clipPath id="m"><use xlink:href="#l"/></clipPath><g clip-path="url(#m)" fill="none" stroke="#4D4D4D" stroke-miterlimit="10" stroke-width="2.711"><path d="M92.11 105.42l13.21-13.21M97.01 110.32l13.21-13.21M101.91 115.22l13.21-13.21"/></g><path d="M25.65 5.65l12.71 13.93-.94 3.93c-.17.7.05 1.43.57 1.92.38.36.87.55 1.38.55.19 0 .38-.03.57-.08l3.29-.98 51 55.91c.38.42.92.65 1.48.65h.03a2.03 2.03 0 0 0 1.49-.7c1.71-2.01 3.07-3.87 4.06-5.55 2.02.69 5.81 2.21 9.3 4.86-2.78 1.52-7.36 4.31-12.34 8.43-.43.36-.7.88-.72 1.45-.03.56.19 1.11.58 1.51l18.07 18.07c.02.04.03.09.05.13.32.73 1.04 1.2 1.83 1.2h.25c1.08 0 2.08.41 2.82 1.15a4.008 4.008 0 0 1 0 5.66l-3.37 3.37c-.75.75-1.76 1.16-2.83 1.16s-2.08-.41-2.83-1.16c-.78-.78-1.19-1.84-1.14-2.99a1.999 1.999 0 0 0-1.33-1.96L91.57 98.02a2 2 0 0 0-1.41-.59h-.09c-.56.03-1.09.29-1.45.72-4.12 4.97-6.91 9.56-8.43 12.33-2.64-3.48-4.16-7.27-4.85-9.3 1.68-.99 3.54-2.35 5.55-4.06.44-.37.69-.91.7-1.49a2.02 2.02 0 0 0-.65-1.51L56.07 71.46l1.05-4a2.004 2.004 0 0 0-3-2.21l-2.9 1.8-45.48-41.5.74-19.16 19.17-.74m.85-2.04l-21.74.84-.2-.2-.01.21-.21.01.2.2-.83 21.74L51 69.54l4.18-2.6-1.36 5.17L79.57 95.6c-2.17 1.84-4.49 3.56-6.65 4.6 0 0 2.02 7.99 7.67 13.85 0 0 3.11-6.86 9.55-14.63l18.67 18.67.14-.14c-.06 1.62.5 3.26 1.73 4.48 1.17 1.17 2.7 1.75 4.24 1.75s3.08-.58 4.24-1.75l3.37-3.37c2.33-2.33 2.33-6.15 0-8.49-1.17-1.17-2.7-1.73-4.24-1.73h-.25l.14-.14-18.66-18.64c7.77-6.44 14.63-9.55 14.63-9.55-5.86-5.64-13.85-7.67-13.85-7.67-1.04 2.15-2.76 4.48-4.6 6.65L43.85 22.64l-4.5 1.34 1.19-4.96L26.5 3.61z" fill="#424242" opacity=".2"/><circle cx="90.83" cy="87" r=".88" fill="#fff"/><circle cx="37.33" cy="86.83" r=".88" fill="#fff"/></svg>