<svg viewBox="0 0 128 128" width="128" height="128" xmlns="http://www.w3.org/2000/svg" xmlns:xlink="http://www.w3.org/1999/xlink"><linearGradient id="a" x1="72.217" x2="87.093" y1="141.52" y2="171.59" gradientTransform="rotate(-11.858 -577.22 226.72)" gradientUnits="userSpaceOnUse"><stop stop-color="#FFCA28" offset=".545"/><stop stop-color="#FFB300" offset=".834"/><stop stop-color="#E59600" offset=".995"/></linearGradient><path d="M60.38 12.18c-2.71-3.93-8.54-6.81-13.21-5.8-5.23 1.12-7.88 5.06-8.39 9.91-.19 1.76-.05 3.49.31 4.71.04.15.39 1.2.42 1.54.26 1.29-2.19 2.7-2.41 4.15-.17 1.09 2.11 1.66 2.3 1.85.93.92-.24 5.6 5.95 5.75 2.38.06 1.9-.03 2.62.17 1.63.45 3.41 4.92 3.41 4.92s.81 1.9 4.82.44c4.58-1.67 4.15-4.2 4.15-4.2s-3.88-4.83-1.83-8.88c1.99-3.95 3.6-12.04 1.86-14.56z" fill="url(#a)"/><linearGradient id="b" x1="36.878" x2="61.803" y1="24.626" y2="22.273" gradientUnits="userSpaceOnUse"><stop stop-color="#EDA600" offset="0"/><stop stop-color="#D18900" offset=".871"/></linearGradient><path d="M49.13 7.17c3.82 0 8.2 2.34 10.43 5.57 1.18 1.72.43 8.87-1.94 13.55-2.03 4.01.88 8.5 1.73 9.67-.07.47-.53 1.84-3.5 2.92-.9.33-1.68.49-2.31.49-.91 0-1.21-.34-1.26-.42-.49-1.22-2.12-4.92-4.05-5.46l-.13-.04c-.47-.13-.56-.14-1.25-.14-.31 0-.76-.01-1.47-.03-3.81-.1-4.19-1.98-4.54-3.64-.15-.74-.28-1.37-.74-1.82-.19-.18-.4-.27-.75-.41-.68-.28-1.1-.5-1.25-.66.12-.38.6-.94 1-1.39.75-.86 1.6-1.82 1.39-2.98-.04-.32-.2-.85-.41-1.54l-.04-.13c-.34-1.15-.44-2.77-.27-4.33.3-2.83 1.69-7.76 7.61-9.04.55-.11 1.14-.17 1.75-.17m0-1c-.67 0-1.33.06-1.96.2-5.23 1.12-7.88 5.06-8.39 9.91-.19 1.76-.05 3.49.31 4.71.04.15.39 1.2.42 1.54.26 1.29-2.19 2.7-2.41 4.15-.17 1.09 2.11 1.66 2.3 1.85.93.92-.24 5.6 5.95 5.75 2.38.06 1.9-.03 2.62.17 1.63.45 3.41 4.92 3.41 4.92s.42.99 2.17.99c.67 0 1.54-.15 2.66-.55 4.58-1.67 4.15-4.2 4.15-4.2s-3.88-4.83-1.83-8.88c2-3.95 3.61-12.04 1.87-14.57-2.36-3.38-7.03-5.99-11.27-5.99z" fill="url(#b)"/><path d="M40.16 31.08c.86.01 1.69-.23 2.39-.8.76-.62.19-1.25-.7-.82-.53.26-1.3.41-2.01.31l.32 1.31z" fill="#795548"/><ellipse transform="rotate(-4.606 43.363 23.068)" cx="43.37" cy="23.07" rx="1.13" ry="1.74" fill="#49362E"/><path d="M42.37 20.55c-1.11.32-1.36-.41-.99-1 .27-.43.95-.79 2.23-.53 1.21.24 1.71.95 2.04 1.37s.28.85 0 .89c-.38.05-1.92-1.12-3.28-.73z" fill="#613E31"/><radialGradient id="c" cx="41.481" cy="7.788" r="13.237" gradientTransform="rotate(4.956 57.125 7.59)" gradientUnits="userSpaceOnUse"><stop stop-color="#5B3127" offset="0"/><stop stop-color="#40211B" offset="1"/></radialGradient><path d="M63.45 12.39c-1.66-3.64-5.02-4.1-5.02-4.1s-1.57-5.73-9.77-3.97c-2.51.54-4.04 2.24-5.52 3.04-1.27.68-2.64.63-3.03-1.63-1.69 1.01-2.38 2.48-1.32 4.81-1.63.49-2.16 1.97-2.41 3.65-.28 1.86.8 3.53 2.52 4.2.29-1.85 2.34-2.76 3.99-2.85 1.46-.07 3 .14 4.32-.47.51-.23.97-.58 1.46-.86.11-.01.18-.01.18-.01 1.83.87-.31 5.18 1.79 7.54.42.47.73.27.73.27l.74-1.2c.56-.83 1.08-1.55 1.83-1.42 2.24.38 2.03 4.35-.55 5.35-.26.1 1.05 2.15 1.17 2.26 1.59 1.46 2.09 1.83 4.16 1.82 1.9-.02 3.38-1.84 3.38-1.84s-2.37-.97.32-3.61c2.66-2.61.77-5.37.77-5.37s1.55-2.79.26-5.61z" fill="url(#c)"/><path d="M51.58 3.53c-.9 0-1.9.1-3.01.35-1.81.39-3.11 1.33-4.25 2.15-.49.36-.95.69-1.39.93-.26.14-.68.33-1.08.33-.16 0-.31-.03-.45-.1-.5-.25-.72-.97-.82-1.53L40.47 5l-.58.34c-1.93 1.15-2.5 2.81-1.69 4.94-1.45.73-2.07 2.34-2.26 3.84-.26 2.04.82 3.92 2.81 4.7l.28-.89c-1.28-.7-2.34-2.23-2.18-3.67.21-1.91.91-2.92 2.09-3.27l.51-.15-.22-.48c-.78-1.7-.59-2.91.6-3.86.24.75.63 1.26 1.16 1.52.26.13.55.19.86.19.47 0 .98-.15 1.52-.44.49-.27.98-.62 1.5-.99 1.07-.77 2.27-1.65 3.9-2 1.06-.23 2.01-.33 2.85-.33 5.19 0 6.32 3.78 6.38 3.97l.08.29.3.04c.13.02 3.14.49 4.67 3.83 1.17 2.56-.22 5.16-.23 5.18l-.13.25.16.23c.07.1 1.63 2.49-.71 4.79-1.59 1.57-1.56 2.68-1.25 3.34.14.29.35.54.58.72-.84 1.29-3.51 1.46-3.51 1.46.35.24.86.29 1.24.29.25 0 .43-.02.48-.02 2.91-.22 3.48-2.39 3.48-2.39s-.21.06-.47.06c-.37 0-.85-.12-1.03-.71-.16-.52.29-1.26 1.13-2.09 2.43-2.38 1.39-4.93.97-5.72.36-.77 1.3-3.23.14-5.77-1.48-3.24-4.21-4.11-5.1-4.31-.42-1-2.14-4.36-7.22-4.36z" fill="#301712"/><path d="M36.76 60.66s-11.86 1.61-12.59 2.27-.09 1.53.62 1.63c.72.11 1.98.1 1.98.1-.5.47-.45 1.2.08 1.31C29.38 66.5 37.13 62 37.13 62l-.37-1.34z" fill="#E59600" stroke="#D18100" stroke-linecap="round" stroke-linejoin="round" stroke-miterlimit="10"/><linearGradient id="d" x1="31.543" x2="54.636" y1="54.47" y2="54.47" gradientUnits="userSpaceOnUse"><stop stop-color="#FFCA28" offset="0"/><stop stop-color="#FFB300" offset="1"/></linearGradient><path d="M33.66 65.46c-.73 0-1.69-1.31-2.02-2.74-.17-.77-.17-1.68.38-1.94l10.76-5.71a.47.47 0 0 0 .12-.09l-.09.07c.05-.04.17-.15.2-.2l6.02-11.36 5.61 2.97-6.79 12.49c-.05.04-.09.08-.12.14-.33.61-.86 1.08-1.52 1.38-.04.02-.07.04-.1.06L33.97 65.4c-.13.04-.22.06-.31.06z" fill="url(#d)"/><path d="M49.23 44.16l4.72 2.5-6.51 11.96c-.06.06-.12.14-.16.22-.28.51-.72.91-1.28 1.16-.05.02-.1.05-.14.08l-12.09 4.84-.06.03c-.03.01-.04.01-.05.01-.35 0-1.22-.97-1.53-2.35-.19-.83-.05-1.3.14-1.4l10.74-5.71.09-.06c.03-.02.06-.04.08-.06.11-.09.2-.19.26-.31l5.79-10.91m-.42-1.35l-6.25 11.81c-.01 0-.01.01-.02.01L31.8 60.34c-1.84.88-.01 5.63 1.86 5.63.16 0 .32-.04.48-.11l12.27-4.92-.01-.02c.76-.34 1.37-.9 1.76-1.59l.03.02 7.12-13.09-6.5-3.45z" fill="#EDA600"/><defs><path id="e" d="M33.59 59.76l1.4-.77s-1.34-.3-2.16-.12c-.43.1-.84.25-1.31.42-.88.32-1.98.71-3.75.93-2.66.31-5.92.19-5.95.19-.05 0-.1 0-.14.01-.58.15-1.01.54-1.16 1.06-.14.48-.01.98.33 1.35 1.01 1.06 4.63 1.25 6.81 1.12.62-.04 1.71-.08 2.6-.12.16-.01.23.1.25.15s.06.17-.04.28c-.4.47-.92.89-1.54 1.25-.77.44-1.14.93-1.11 1.47.04.72.78 1.15 1.22 1.34.34.15.81.16 1.34.06 1.94-.35 4.76-2.05 5.73-3 .38-.38.91-1.41.91-1.41l-1.33.43-2.1-4.64z"/></defs><clipPath id="f"><use xlink:href="#e"/></clipPath><linearGradient id="g" x1="76.623" x2="56.508" y1="43.979" y2="57.312" gradientTransform="rotate(10.166 5.573 -98.972)" gradientUnits="userSpaceOnUse"><stop stop-color="#FFB300" offset="0"/><stop stop-color="#FFCA28" offset="1"/></linearGradient><path d="M36.33 60.83c-1.08-1.27-1.81-1.22-3.03-.95-1.17.26-2.46.72-5.09 1.03-2.64.31-5.81.18-5.81.18-.82.21-1.03 1.04-.57 1.53.73.77 3.74 1.07 6.18.93.6-.04 1.66-.08 2.51-.11.64-.02 1.01.72.59 1.21-.35.41-.87.88-1.61 1.31-1.7.97-.34 1.68.06 1.86 1.23.54 4.36-1.21 5.54-2.37 1.09-1.08 2.19-3.5 1.23-4.62z" clip-path="url(#f)" fill="url(#g)" stroke="#EDA600" stroke-linecap="round" stroke-linejoin="round" stroke-miterlimit="10"/><path d="M43.27 50.09l4.68-9.24c.8-1.58 2.4-2.56 4.17-2.56.74 0 1.45.17 2.11.51l1.07.54a4.668 4.668 0 0 1 2.05 6.28l-4.68 9.24-9.4-4.77z" fill="#ED6D23"/><path d="M52.13 38.79c.66 0 1.29.15 1.88.45l1.07.54a4.177 4.177 0 0 1 1.83 5.61l-4.46 8.8-8.51-4.31 4.46-8.8a4.176 4.176 0 0 1 3.73-2.29m0-1c-1.89 0-3.71 1.04-4.62 2.84l-4.91 9.69 10.29 5.22 4.91-9.69c1.29-2.55.27-5.66-2.27-6.95l-1.07-.54a5.04 5.04 0 0 0-2.33-.57z" fill="#DA6727"/><circle cx="65.86" cy="64.89" r="6.7" fill="#FBC11B"/><path d="M81.94 92.82a.455.455 0 0 0-.19-.08 5.118 5.118 0 0 1-3.49-2.07.5.5 0 0 0-.07-.08L61.16 68.94l9.98-7.29 14.35 21.22c.07.11.18.18.31.21l23.72 5.2-1.46 7.81-26.12-3.27z" fill="#E59600"/><path d="M71.02 62.37l14.06 20.79c.14.21.36.36.61.42l23.25 5.1-1.28 6.87-25.53-3.2c-.1-.05-.21-.08-.32-.1-1.28-.17-2.4-.84-3.15-1.87-.03-.04-.06-.08-.1-.11L61.87 69.04l9.15-6.67m.24-1.42l-10.82 7.9 17.4 22.12h.01c.95 1.3 2.35 2.07 3.83 2.27l-.01.06 26.81 3.36 1.63-8.75-24.2-5.3-14.65-21.66z" fill="#D18100"/><path fill="#BDBDBD" d="M101.36 95.25l1.57-8.41 6.59 1.44-1.45 7.81z"/><path d="M103.33 87.44l5.61 1.23-1.28 6.87-5.71-.71 1.38-7.39m-.8-1.2l-1.76 9.44 7.7.96 1.63-8.75-7.57-1.65z" fill="#ABA79F"/><circle cx="66.2" cy="65.1" r="6.7" fill="#FBC11B"/><linearGradient id="h" x1="45.932" x2="71.142" y1="89.95" y2="89.95" gradientUnits="userSpaceOnUse"><stop stop-color="#FFB300" offset="0"/><stop stop-color="#FFCA28" offset="1"/></linearGradient><path d="M48.73 117.68l-2.69-24.33c-.4-3.62.41-7.34 2.29-10.47l12.39-20.67 10.43 6.63-14.82 21.54c-.05.08-.08.17-.09.27l-.85 27.04-6.66-.01z" fill="url(#h)"/><path d="M60.87 62.9l9.56 6.08L55.92 90.1c-.11.16-.17.34-.18.54l-.83 26.56-5.74-.02-2.64-23.89c-.39-3.52.4-7.12 2.22-10.16L60.87 62.9m-.33-1.39L47.89 82.62a17.258 17.258 0 0 0-2.35 10.78l2.74 24.78 7.61.02.86-27.53 15.1-21.97-11.31-7.19z" fill="#EDA600"/><path fill="#E0E0E0" d="M48.44 116.16l-.68-7.44 7.99.02-.34 7.44z"/><path d="M48.31 109.22l6.91.02-.29 6.43-6.03-.02-.59-6.43m-1.1-1l.77 8.43 7.9.02.39-8.43-9.06-.02z" fill="#CCC7BD"/><path d="M59.78 69.24a.21.21 0 0 0-.04-.06c-1.18-1.61-1.66-3.58-1.35-5.55s1.36-3.7 2.98-4.88a7.426 7.426 0 0 1 4.4-1.44c2.38 0 4.64 1.15 6.04 3.07l8.08 11.69-11.48 8.38-8.63-11.21z" fill="#646464"/><path d="M65.77 57.82c2.22 0 4.33 1.07 5.62 2.84l7.81 11.3-10.69 7.81-8.31-10.8a.304.304 0 0 0-.05-.07c-2.27-3.1-1.58-7.47 1.52-9.73 1.2-.89 2.62-1.35 4.1-1.35m0-1c-1.63 0-3.27.5-4.69 1.53-3.55 2.59-4.33 7.58-1.74 11.13l8.97 11.66 12.27-8.96-8.37-12.1a7.96 7.96 0 0 0-6.44-3.26z" fill="#4F4F4F"/><path d="M52.65 73.16l7.28-12.13c.01-.02.03-.03.04-.05a7.44 7.44 0 0 1 6.31-3.46c1.42 0 2.8.4 4 1.17 1.68 1.07 2.85 2.73 3.28 4.68s.08 3.95-.99 5.63l-7.93 11.79-11.99-7.63z" fill="#7C7C7C"/><path d="M66.28 58.02c1.32 0 2.61.38 3.73 1.09 3.24 2.06 4.2 6.38 2.16 9.6l-7.66 11.4L53.33 73l7.02-11.68c.02-.02.03-.04.05-.07a6.928 6.928 0 0 1 5.88-3.23m0-1c-2.63 0-5.21 1.31-6.73 3.69l-7.57 12.61 12.82 8.15 8.21-12.21c2.36-3.71 1.26-8.64-2.45-11a8.032 8.032 0 0 0-4.28-1.24z" fill="#5B5B5B"/><radialGradient id="i" cx="55.021" cy="46.359" r="14.702" gradientUnits="userSpaceOnUse"><stop stop-color="#F78C1F" offset=".367"/><stop stop-color="#F37F21" offset=".68"/><stop stop-color="#ED6D23" offset="1"/></radialGradient><path d="M55.85 67.56c-.79 0-1.45-.57-1.53-1.32-.85-8.01-1.97-12.76-4.31-21.01-1.43-5.06.79-9.5 5.66-11.29.74-.27 1.53-.41 2.34-.41 3.01 0 5.73 1.77 6.77 4.41 3.59 8.02 6.97 15.84 8.87 23.55.19.78-.29 1.58-1.08 1.78-2.59.69-5.31 1.38-8.03 2.08-2.83.73-5.64 1.45-8.29 2.15-.11.04-.25.06-.4.06z" fill="url(#i)"/><path d="M58.03 34.02c2.76 0 5.35 1.69 6.33 4.14 3.71 8.29 6.94 15.77 8.84 23.44.13.51-.2 1.04-.72 1.18-2.59.69-5.32 1.39-8.04 2.08-2.77.71-5.64 1.45-8.28 2.15-.1.03-.19.04-.29.04-.54 0-.98-.37-1.03-.87-.86-8.05-1.98-12.81-4.32-21.1-1.36-4.79.75-8.99 5.36-10.69.66-.24 1.39-.37 2.15-.37m0-1c-.86 0-1.71.14-2.52.44-4.97 1.84-7.53 6.41-5.97 11.9 2.3 8.12 3.44 12.94 4.29 20.93.11 1.03 1.01 1.77 2.03 1.77.18 0 .36-.02.55-.07 5.19-1.38 11.04-2.83 16.32-4.23 1.04-.28 1.69-1.34 1.43-2.39-1.95-7.87-5.37-15.74-8.89-23.61-1.18-2.97-4.22-4.74-7.24-4.74z" fill="#DA6727"/><linearGradient id="j" x1="63.254" x2="96.42" y1="51.045" y2="51.045" gradientUnits="userSpaceOnUse"><stop stop-color="#FFB300" offset=".007"/><stop stop-color="#FFCA28" offset="1"/></linearGradient><path d="M96.13 60.08c-.31-.78-.8-1.58-1.37-2.52-.55-.9-4.34-5.09-5.37-5.34-.19-.7-7.94-10.28-7.94-10.28-.47-.58-1.07-.98-1.73-1.2l-14.28-4.5-2.18 7.08 13.16 4.06s8.05 7.75 8.06 7.78c.8 2.45-.24 6.1.5 7.08.64.86 1.45.15 1.75-.58.58-1.42-.23-3.04.83-2.58 1.82.78 1.08 6.5 2.5 6.75.67.12.74-1.77.56-3.22-.08-.67-.42-1.74-.37-1.84.13-.21.99.93 1.39 2.41.32 1.21-.04 2.53.92 2.56.73.03.65-1.7.25-3.25-.31-1.22-.92-2.13-.75-2.16.31-.05.85.69 1.26 1.74.47 1.21.77 2.46 1.18 2.33.61-.2.6-1.89.12-3.06-.38-.94-.92-1.75-.78-1.71 1.39.33 1.74 3.15 2.08 3.02.57-.2.67-1.4.21-2.57z" fill="url(#j)" stroke="#EDA602" stroke-linecap="round" stroke-linejoin="round" stroke-miterlimit="10"/><path d="M59.25 43.89c-1.2-.35-2.19-1.14-2.79-2.23s-.74-2.35-.4-3.55l.36-1.23a4.692 4.692 0 0 1 5.79-3.2l10.06 2.9-2.95 10.21-10.07-2.9z" fill="#ED6D23"/><path d="M60.9 33.99c.39 0 .78.06 1.16.16l9.58 2.77-2.67 9.25-9.58-2.77a4.175 4.175 0 0 1-2.86-5.16l.36-1.23a4.188 4.188 0 0 1 4.01-3.02m0-1c-2.25 0-4.31 1.47-4.97 3.74l-.36 1.23c-.79 2.74.79 5.61 3.53 6.4l10.54 3.04 3.22-11.17-10.53-3.03c-.47-.14-.96-.21-1.43-.21z" fill="#DA6727"/><path d="M40.99 123.36a.514.514 0 0 1-.52-.5v-1.26c.01-1.44.89-2.71 2.25-3.23l5.39-2.04h7.61c.43.52 1.68 2.17 1.68 3.57v2.8c0 .17-.07.33-.19.46-.12.12-.29.19-.47.19l-15.75.01z" fill="#4568AD"/><path d="M55.49 116.82c.54.7 1.42 2.04 1.42 3.07v2.8c0 .04-.01.07-.04.1-.02.02-.06.05-.12.05l-15.77.02.01-1.26a3 3 0 0 1 1.92-2.77l5.3-2.01h7.28m.47-1h-7.93l-5.48 2.07c-1.54.6-2.55 2.06-2.57 3.69l-.01 1.27c0 .55.45 1 1.01 1l15.76-.02c.64 0 1.16-.51 1.16-1.15v-2.8c.01-1.89-1.94-4.06-1.94-4.06z" fill="#315499"/><path d="M113.22 104.6l-1.24-.24a3.498 3.498 0 0 1-2.76-2.8l-1.01-5.67 1.4-7.48c.52-.28 2.01-1.04 3.31-1.04.17 0 .34.01.51.04l2.75.51c.35.07.58.41.52.77l-2.89 15.5c-.05.24-.25.42-.49.42-.03 0-.06-.01-.1-.01z" fill="#325599"/><path d="M112.92 87.87c.15 0 .29.01.42.04l2.75.51c.04.01.07.03.09.06s.04.07.02.12l-2.89 15.51-1.24-.24a2.996 2.996 0 0 1-2.37-2.4l-1-5.58 1.34-7.16c.7-.35 1.9-.86 2.88-.86m0-1c-1.76 0-3.76 1.22-3.76 1.22l-1.46 7.8 1.03 5.76c.3 1.62 1.55 2.89 3.16 3.2l1.24.24c.06.01.13.02.19.02.47 0 .9-.34.99-.83l2.89-15.5c.12-.63-.29-1.23-.91-1.35l-2.75-.51c-.21-.04-.41-.05-.62-.05z" fill="#224487"/><radialGradient id="k" cx="19.497" cy="77.152" r="12.221" gradientUnits="userSpaceOnUse"><stop stop-color="#FB8C00" offset=".017"/><stop stop-color="#F47900" offset=".442"/><stop stop-color="#EF6C00" offset=".838"/></radialGradient><path d="M34.85 80.96c0 6.07-5.07 11-11.33 11-6.25 0-11.32-4.93-11.32-11s5.07-11 11.32-11c6.26 0 11.33 4.92 11.33 11z" fill="url(#k)"/><defs><path id="l" d="M34.85 80.96c0 6.07-5.07 11-11.33 11-6.25 0-11.32-4.93-11.32-11s5.07-11 11.32-11c6.26 0 11.33 4.92 11.33 11z"/></defs><clipPath id="m"><use xlink:href="#l"/></clipPath><g clip-path="url(#m)"><radialGradient id="n" cx="17.566" cy="75.77" r="15.891" gradientUnits="userSpaceOnUse"><stop stop-color="#FFA726" offset=".017"/><stop stop-color="#FC950D" offset=".494"/><stop stop-color="#FB8C00" offset=".838"/></radialGradient><path d="M21.16 92.57s-6.61-7.09-4.01-17.33c1.08-4.26 4.56-5.5 4.56-5.5h2.4s-4.76.91-5.75 6.19c-1.81 9.69 6.36 16.92 6.36 16.92l-3.56-.28z" fill="url(#n)"/><path d="M16.06 72.13s-.24 1.88 2.27 1.88c5.27 0 8.21-3.43 12.43-2.35l-2.2-1.1s-1.26-.24-2.37.11c-1.1.35-4.99 2.36-7.43 2.4-2.6.04-1.56-1.77-1.56-1.77l-1.14.83zM11.81 84.37s.98-5.86 5.45-6.34c3.77-.41 6.44 1.37 8.99 3.22 4.61 3.34 6.78 7.58 6.78 7.58l-1.58 2.36s-1.21-3.8-6.55-8.77c-2.01-1.87-4.78-3.34-7.65-3.06-4.51.44-3.91 8.06-3.91 8.06l-1.53-3.05z" fill="url(#n)"/><radialGradient id="o" cx="18.536" cy="76.366" r="19.528" gradientUnits="userSpaceOnUse"><stop stop-color="#FFA726" offset=".017"/><stop stop-color="#FC950D" offset=".494"/><stop stop-color="#FB8C00" offset=".838"/></radialGradient><path d="M11.41 77.72s1.7-2.24 6.32-2.63c10.79-.93 18.23 6.74 18.23 6.74l.58 3.65s-8.48-10.02-18.89-9.22c-5.03.39-6.24 3.47-6.24 3.47v-2.01z" fill="url(#o)"/></g><path d="M34.85 80.96c0 6.07-5.07 11-11.33 11-6.25 0-11.32-4.93-11.32-11s5.07-11 11.32-11c6.26 0 11.33 4.92 11.33 11z" fill="none" stroke="#D95A1E" stroke-linecap="round" stroke-linejoin="round" stroke-miterlimit="10"/></svg>