<svg viewBox="0 0 128 128" width="128" height="128" xmlns="http://www.w3.org/2000/svg" xmlns:xlink="http://www.w3.org/1999/xlink"><defs><path id="a" d="M4 4h120v120H4z"/></defs><clipPath id="b"><use xlink:href="#a"/></clipPath><radialGradient id="c" cx="25.719" cy="78.534" r="122.64" gradientTransform="matrix(.9091 -.4166 .0629 .1373 -2.604 78.464)" gradientUnits="userSpaceOnUse"><stop stop-color="#E1F5FE" offset=".334"/><stop stop-color="#B3E5FC" offset="1"/></radialGradient><path d="M102.12 51.29c-13.53 14.13-18.9 17.56-54.7 34.87-17.84 8.62-36.27 9.22-42.22 13.08-23.23 15.1-.89 18.65-.89 18.65h46.38l87.11-34.41-5.35-69.87c0 .01-11.89 18.44-30.33 37.68z" clip-path="url(#b)" fill="url(#c)" stroke="#B3E5FC" stroke-linecap="round" stroke-linejoin="round" stroke-miterlimit="10"/><g clip-path="url(#b)"><radialGradient id="d" cx="52.732" cy="91.108" r="157.91" gradientTransform="matrix(.8866 -.4625 .2243 .4299 -14.453 76.33)" gradientUnits="userSpaceOnUse"><stop stop-color="#fff" offset=".214"/><stop stop-color="#B3E5FC" offset="1"/></radialGradient><path d="M128 128H0v-12.32s13.72-8.48 29.28-17.63c18.73-11 46.38-12.78 77-42.81 12.05-11.81 32.41-19.03 32.41-19.03L128 128z" fill="url(#d)"/></g><path clip-path="url(#b)" fill="none" stroke="#94CDE8" stroke-linecap="round" stroke-linejoin="round" stroke-miterlimit="10" stroke-width="3" d="M128 46.43V128H0v-12.32"/><g clip-path="url(#b)"><path d="M43.48 113.7c25.83-14.26 51.66-28.53 77.49-42.79 3.67-2.03 7.33-4.05 11-6.08 4.23-2.33.45-8.81-3.79-6.48-25.83 14.26-51.66 28.53-77.49 42.79-3.67 2.03-7.33 4.05-11 6.08-4.23 2.34-.45 8.82 3.79 6.48z" fill="#B3E5FC"/><linearGradient id="e" x1="29.022" x2="115.67" y1="89.501" y2="89.501" gradientUnits="userSpaceOnUse"><stop stop-color="#FB8C00" offset=".171"/><stop stop-color="#F67F00" offset=".563"/><stop stop-color="#EF6C00" offset=".983"/></linearGradient><path d="M115.44 67.61c-.49-.89-1.6-1.21-2.49-.72l-73.59 40.68c-1.49.82-5.41-2.05-6.97-2.25s-3.04.75-3.32 2.26c-.3 1.61.81 3.12 2.41 3.34 0 0 5.86 2.1 7.47 1.21l75.77-42.02a1.84 1.84 0 0 0 .72-2.5z" fill="url(#e)" stroke="#DB6300" stroke-linecap="round" stroke-linejoin="round" stroke-miterlimit="10"/><path d="M46.52 39.2c-1.58-1.13-2.95-2.11-3.18-4.08-.28-2.32-1.91-3.66-4.49-3.66-.59 0-1.01.08-1.03.08-.14.03-.27.11-.34.24s-.09.28-.04.42l1.64 4.72c-1.2-.15-2.9-1.65-4.56-3.09-2.19-1.92-4.45-3.9-6.55-3.9-.35 0-.68.06-1 .16-.05.02-.09.04-.13.07l-9.99 7.21c-.12.1-.19.1-.21.1-.01 0-.04 0-.1-.06-.14-.17-.27-.59-.17-1.26.29-1.91 1.8-4.46 1.81-4.48.06-.1.08-.21.06-.33-.03-.34-1.14-8.54 6.97-13.48 2.77-1.69 6.01-2.62 9.11-2.62 3.35 0 6.41 1.06 8.85 3.05 5.81 4.75 6.1 14 3.39 20.94l-.04-.03z" fill="#039BE5"/><path d="M34.32 15.74c3.23 0 6.18 1.02 8.54 2.94 5.46 4.46 5.87 13.07 3.47 19.76-1.31-.95-2.3-1.82-2.48-3.38-.31-2.57-2.17-4.1-4.99-4.1-.63 0-1.07.08-1.12.09a.97.97 0 0 0-.68.48c-.15.25-.18.56-.08.83l1.3 3.74c-1-.54-2.26-1.64-3.41-2.65-2.26-1.98-4.6-4.02-6.88-4.02-.4 0-.79.06-1.16.19-.09.03-.18.08-.26.13l-9.71 7.01c-.01-.14-.01-.31.02-.53.28-1.81 1.73-4.28 1.75-4.31.12-.2.16-.43.13-.66-.01-.08-1.13-8.2 6.72-12.99 2.68-1.63 5.82-2.53 8.84-2.53m0-1c-3.25 0-6.54.97-9.37 2.7-8.5 5.19-7.18 13.99-7.18 13.99s-1.56 2.64-1.88 4.66c-.17 1.13.21 1.89.76 1.89.16 0 .33-.06.5-.2l9.99-7.22c.27-.09.55-.14.83-.14 3.62 0 8.36 7 11.3 7 .17 0 .33-.02.49-.07l-1.85-5.33s.38-.07.94-.07c1.33 0 3.66.41 3.99 3.22.29 2.45 2.17 3.53 3.94 4.83 2.97-7.02 3.02-16.94-3.3-22.1-2.67-2.18-5.9-3.16-9.16-3.16z" fill="#0089CC"/><path d="M29.81 50.43c-1.35-.07-2.3-.8-3.39-1.76-.95-.83-1.6-.85-2.36-.89-.35-.02-.75-.03-1.25-.14-.6-.13-1.01-.84-.88-1.52.27-1.42 0-2.42-.22-2.94.59-.48 1.85-1.49 2.45-1.97 1.89-1.54 3.71-3.16 5.42-4.81.3-.29.58-.6.86-.92.34-.37.65-.73 1-1.04.44-.39.98-.7 1.55-1.01.3-.17.6-.34.88-.52 1.64-1.04 3.45-1.86 5.2-2.65.76-.34 1.52-.69 2.28-1.05 1.09-.52 2.51-1.25 3.83-2.18.24-.17.46-.39.7-.63.36-.36.82-.82 1.14-.82.06 0 .11.01.17.04.51.25.82 2.07.95 2.85.05.31.1.58.14.77.13.54.44 1.21.78 1.92.55 1.16 1.23 2.61.93 3.3-.31.73-1.25 1.34-2.17 1.93-.63.41-1.22.79-1.67 1.24l-.24.24c-.86.87-1.93 1.94-2.31 3.16-.01.04-.26 3.92-.17 5.61-3.26.42-6.45 1.29-9.47 2.59l-.43.19c-1.15.5-2.34 1.02-3.52 1.02-.05 0-.12 0-.2-.01z" fill="#4568AD"/><path d="M46.989999999999995 26.099999999999998c.32.4.58 1.94.67 2.46.05.32.1.6.15.8.14.59.47 1.29.81 2.02.4.84 1.13 2.41.93 2.9-.25.59-1.17 1.18-1.98 1.71-.63.4-1.27.82-1.75 1.31l-.24.24c-.9.9-2.02 2.03-2.43 3.36-.01.03-.25 3.31-.19 5.32-3.16.45-6.24 1.31-9.17 2.57l-.43.19c-1.15.5-2.24.98-3.33.98h-.19c-1.19-.06-2.07-.75-3.09-1.63-1.08-.94-1.88-.98-2.66-1.01-.35-.02-.71-.03-1.17-.13-.3-.07-.58-.49-.5-.94.24-1.27.09-2.24-.11-2.87.65-.52 1.65-1.33 2.17-1.75 1.9-1.55 3.74-3.18 5.46-4.84.32-.31.61-.63.89-.94.33-.36.64-.71.96-1 .39-.36.91-.64 1.46-.95.31-.17.62-.35.91-.53 1.61-1.02 3.41-1.83 5.14-2.62.77-.35 1.53-.69 2.29-1.05 1.1-.53 2.54-1.27 3.9-2.22.27-.19.52-.44.77-.69.18-.24.54-.59.73-.69m.04-1.02c-.79 0-1.51 1.11-2.13 1.54-1.18.83-2.46 1.51-3.75 2.13-2.52 1.22-5.16 2.22-7.53 3.73-.82.52-1.78.93-2.5 1.58-.67.6-1.23 1.35-1.88 1.97a87.362 87.362 0 0 1-5.39 4.79c-.79.64-2.76 2.23-2.76 2.23s.73 1.02.36 2.98c-.18.96.42 1.92 1.27 2.1 1.59.34 2.15-.16 3.39.92 1.1.95 2.17 1.8 3.69 1.88.08 0 .16.01.24.01 1.44 0 2.81-.67 4.15-1.24 3.12-1.34 6.43-2.22 9.8-2.61-.08 0-.04-5.38.12-5.9.38-1.21 1.55-2.31 2.43-3.2 1.05-1.07 3.35-1.91 3.94-3.33.58-1.37-1.35-4.11-1.69-5.54-.21-.88-.43-3.49-1.36-3.95-.14-.06-.27-.09-.4-.09zm-3.05 22.01z" fill="#315499"/><path d="M38.82 33.76L48 26.29a1.343 1.343 0 0 0-1.52-2.21l-9.78 6.17-.56-.92a2.856 2.856 0 0 0-3.74-1.06l-4.32 2.21 6.97 12.81 4.47-3.64c1.1-.9 1.37-2.47.64-3.69l-1.34-2.2z" fill="#444"/><path d="M17.15 37.78c.31-.22 6.8-4.85 10.47-7.45 1.32-.94 3.15-.53 3.95.87l4.22 7.35c.92 1.6.38 3.64-1.2 4.59l-4.2 2.51c-2.69 1.24-6.02-.89-6.02-.89-.92-.57-2.05-.66-3.05-.26l-.18.07-.31.22-1.17-1.81.4-.25-1.75-2.99-.4.26-1.23-1.89.47-.33z" fill="#E3F2FD"/><linearGradient id="f" x1="18.293" x2="31.186" y1="38.817" y2="38.817" gradientUnits="userSpaceOnUse"><stop stop-color="#90CAF9" offset=".365"/><stop stop-color="#42A5F5" offset=".987"/></linearGradient><path d="M18.29 39.76c.3-.22 4.67-3.15 7.44-5.03 1.06-.72 2.5-.39 3.15.71l2 3.4c.61 1.04.28 2.38-.75 3.01l-1.91 1.09c-.64.39-1.43.44-2.11.15 0 0-3.83-1.97-6.02-.38l-1.8-2.95z" fill="url(#f)"/><radialGradient id="g" cx="56.822" cy="54.31" r="17.243" gradientUnits="userSpaceOnUse"><stop stop-color="#616161" offset="0"/><stop stop-color="#6E6E6E" offset=".57"/><stop stop-color="#7B7B7B" offset="1"/></radialGradient><path d="M53.54 63.33l.5-.27c.14-.07.24-.21.26-.37s-.03-.31-.14-.43c-.13-.13-.26-.27-.38-.42-2.23-2.7-1.85-6.71.84-8.94.69-.57 1.49-.98 2.36-1.23.1-.03.19-.09.25-.17L85.4 37.61l.77 1.06c2.22 3.06 2.95 6.91 1.97 10.31-.82 2.84-2.71 4.98-5.3 6.01l-14.06 5.74c-.13.05-.23.15-.28.28s-.04.27.01.4l7.75 16.35-11.42 6.22-11.3-20.65z" fill="url(#g)"/><path d="M85.24 38.25l.52.72c2.13 2.93 2.84 6.62 1.89 9.87-.78 2.69-2.56 4.71-5.01 5.69l-14.05 5.74c-.25.1-.45.31-.55.56-.1.26-.09.54.03.79l7.55 15.92-10.58 5.76-10.82-19.76.06-.03a.991.991 0 0 0 .24-1.58c-.12-.12-.24-.25-.35-.38-1-1.2-1.46-2.72-1.32-4.28a5.84 5.84 0 0 1 2.09-3.96c.64-.53 1.37-.91 2.18-1.13.15-.04.28-.12.39-.22l27.73-13.71m.32-1.27l-28.73 14.2.03.04c-.91.25-1.78.68-2.55 1.32-2.91 2.41-3.32 6.73-.91 9.64.13.16.27.3.41.45l-.95.51 11.79 21.52 12.27-6.69-7.95-16.78 14.05-5.74c6.27-2.5 8.02-10.92 3.55-17.07l-1.01-1.4z" fill="#5B5B5B"/><path d="M-36.38 69.7c-3.15 0-5.14-2.81-5.84-4.02-.99-1.7-1.12-2.94-1.01-3.15 5.23-3.6 6.11-4.97 5.81-5.92-.27-.86-1.49-.97-2.53-.97-.98 0-2.15.11-3.39.22-.91.08-1.83.17-2.67.21-.71 0-1.05-1.43-1.25-2.28-.04-.18-.08-.35-.12-.49-1.47-5.46 1.13-10.59 7.72-15.24l.4-.28c2.08-1.56 4.75-2.38 7.72-2.38 2.74 0 5.61.68 8.3 1.97 8.36 4.01 6.42 12.88 5.2 16.51-1.37 4.07-4.97 6.88-5.01 6.91-.12.1-.2.25-.19.41.01.31 0 7.53-12.74 8.49-.14 0-.27.01-.4.01z" fill="#039BE5"/><path d="M-31.55 35.9c2.67 0 5.46.66 8.08 1.92 8 3.83 6.12 12.39 4.94 15.9-1.32 3.92-4.8 6.65-4.84 6.67-.25.2-.4.5-.39.82 0 .07.05 7.05-12.27 7.98-.12.01-.24.01-.36.01-2.07 0-3.61-1.37-4.54-2.51-1.28-1.57-1.83-3.26-1.84-3.85 5.36-3.73 6.2-5.16 5.83-6.37-.41-1.32-2.23-1.32-3.01-1.32-1 0-2.18.11-3.43.23-.9.08-1.82.17-2.66.21-.32-.14-.63-1.46-.73-1.9-.04-.19-.09-.36-.13-.51-1.41-5.24 1.13-10.19 7.53-14.7l.41-.29c1.99-1.5 4.56-2.29 7.41-2.29m0-1c-2.89 0-5.7.75-8.02 2.48-1.36 1.02-10.77 6.85-8.3 16.05.28 1.03.58 3.15 1.83 3.15h.05c1.96-.09 4.36-.43 6.04-.43 2.89 0 3.64 1.01-3.61 6.01-1.06.73 1.92 8.04 7.17 8.04.14 0 .29-.01.43-.02 13.41-1.01 13.2-9 13.2-9s3.73-2.87 5.17-7.15c2.04-6.04 1.96-13.56-5.45-17.12-2.63-1.26-5.61-2.01-8.51-2.01z" fill="#0089CC"/><radialGradient id="h" cx="30.77" cy="42.276" r="10.826" gradientTransform="matrix(.9853 .0436 -.048 1.0831 3.325 -3.245)" gradientUnits="userSpaceOnUse"><stop stop-color="#F78C1F" offset=".362"/><stop stop-color="#F37F21" offset=".678"/><stop stop-color="#ED6D23" offset="1"/></radialGradient><path d="M28.94 51.1c-1.19-5.15 5.35-13 9.44-16.02.45-.33 1.03-.77 1.71-1.28 2.56-1.93 7.9-5.94 8.77-6.04.3 0 .39.12.54 1.02.12.7.26 1.56.99 2.06l.6.41c1.52 1.04 1.94 1.3 2.22 1.33.09.01.12.03.12.03.12.55-2.02 3.16-3.3 4.71-1.17 1.42-2.38 2.88-3.02 3.98-1.53 2.61-2.12 4.81-2.76 7.75-1.06-.13-2.15-.19-3.23-.19-4.54 0-8.24 1.12-10.45 1.79-.7.21-1.3.39-1.63.45z" fill="url(#h)"/><path d="M48.79 28.31c.04.16.08.39.11.56.13.75.3 1.77 1.2 2.39l.61.41c1.07.73 1.61 1.09 1.96 1.26-.44.91-1.98 2.78-3.04 4.08-1.18 1.43-2.4 2.92-3.06 4.05-1.49 2.54-2.1 4.68-2.72 7.45-.94-.1-1.89-.15-2.84-.15-4.62 0-8.36 1.13-10.59 1.81-.37.11-.76.23-1.08.32-.64-4.93 5.48-12.16 9.34-15.01.45-.33 1.04-.77 1.71-1.28 2.16-1.62 7.1-5.33 8.4-5.89m.08-1.05h-.04c-1.1.03-8.21 5.54-10.75 7.42-3.87 2.85-11.18 11.14-9.56 16.81.02.08.11.12.26.12 1.14 0 5.86-2.25 12.22-2.25 1.16 0 2.37.07 3.62.25.66-3.06 1.21-5.32 2.8-8.05 1.8-3.08 8.23-9.2 5.83-9.47-.23-.03-1.39-.84-2.59-1.66-1.19-.81-.35-3.17-1.79-3.17z" fill="#DA6727"/><radialGradient id="i" cx="70.955" cy="43.238" r="17.012" gradientTransform="matrix(.4257 -.9107 1.2036 .515 -16.633 68.415)" gradientUnits="userSpaceOnUse"><stop stop-color="#F78C1F" offset=".363"/><stop stop-color="#F37F21" offset=".678"/><stop stop-color="#ED6D23" offset="1"/></radialGradient><path d="M57.23 52.69c-1.61-.74-12.33-5.74-15.81-9.8-1.3-1.51-1.71-3.09-1.24-4.69.6-1.99 2.45-3.49 3.56-3.81 5.03-1.44 10.65-2.17 16.69-2.17 11.75 0 21.23 2.79 21.32 2.82 2.09.74 4.09 2.72 4.95 4.32L57.23 52.69z" fill="url(#i)"/><path d="M60.43 31.73v1c11.67 0 21.08 2.77 21.13 2.79 1.8.64 3.51 2.22 4.43 3.63l-28.76 13c-2.14-.99-12.14-5.74-15.44-9.58-1.18-1.37-1.56-2.79-1.14-4.22.54-1.79 2.24-3.19 3.22-3.47 4.99-1.43 10.55-2.15 16.55-2.15l.01-1m0 0c-5.33 0-11.14.56-16.83 2.19-2.07.59-6.43 4.79-2.56 9.3s16.19 10.02 16.19 10.02l30.14-13.63c-.77-1.82-3.05-4.18-5.48-5.05 0 .01-9.5-2.83-21.46-2.83z" fill="#DA6727"/><path d="M60.37 96.07c-.54 0-1.04-.29-1.3-.76l-1.69-2.97c-.09-.14-1.75-2.82.97-5.01l4.1-2.67c.86-.59 1.13-1.75.62-2.65l-3.83-6.73 12.92-7.3 8.59 15.22c.2.35.25.75.14 1.14s-.36.71-.71.9L61.1 95.89c-.22.12-.48.18-.73.18z" fill="#4568AD"/><path d="M71.98 68.66l8.35 14.78c.13.23.16.5.09.76s-.24.47-.47.6l-19.1 10.64c-.15.08-.31.13-.48.13-.36 0-.69-.19-.87-.5l-1.69-2.97c-.01-.01-.02-.03-.03-.04-.15-.25-1.43-2.44.84-4.31l4.11-2.68c1.07-.73 1.41-2.18.77-3.3l-3.58-6.29 12.06-6.82m.38-1.36l-13.79 7.8 4.08 7.16c.39.68.19 1.54-.46 1.98l-4.14 2.7c-3.12 2.51-1.09 5.65-1.09 5.65l1.69 2.97a1.99 1.99 0 0 0 1.74 1.01c.33 0 .66-.08.97-.25l19.1-10.64a2 2 0 0 0 .76-2.73L72.36 67.3z" fill="#315499"/><linearGradient id="j" x1="50.001" x2="109" y1="62.697" y2="35.03" gradientUnits="userSpaceOnUse"><stop stop-color="#EF6C00" offset=".267"/><stop stop-color="#F67F00" offset=".546"/><stop stop-color="#FB8C00" offset=".806"/></linearGradient><path d="M37.85 70.2c-.56 0-1.1-.31-1.35-.85-.36-.75-.04-1.64.71-2l70.93-33.87c.75-.36 1.64-.04 2 .71s.04 1.64-.71 2L38.5 70.05c-.21.1-.43.15-.65.15z" fill="url(#j)"/><path d="M105.07 43.13l-4.66-3.71c-.26-.21-.4-.54-.37-.87l.52-5.75c.09-1.03 1.5-1.26 1.91-.31l4.14 9.46c.42.95-.72 1.83-1.54 1.18z" fill="#616161"/><linearGradient id="k" x1="30.101" x2="43.907" y1="69.406" y2="69.406" gradientUnits="userSpaceOnUse"><stop stop-color="#FFEB3B" offset="0"/><stop stop-color="#FBC02D" offset="1"/></linearGradient><path d="M43.91 70.66l-3.84-6.6s-.2.04-.52.11l-4.32-1.45c-.3-.1-.61-.07-.89.05-.01 0-.02 0-.03.01-.04.02-.07.04-.11.06-.25.12-.47.3-.6.57l-.86 1.56c-.16.33-.27 1.1-.14 1.42-.54.34-1.88 1.24-2.16 1.81-.31.65-.46 1.24-.28 1.59.92 1.78 3.19 5.5 4.56 6.08s2.52.16 3.21-.19c2.14-.8 5.98-5.02 5.98-5.02z" fill="url(#k)"/><path d="M36.13 76.65c-.53 0-1.06-.11-1.58-.33-1.62-.69-4.02-4.79-4.81-6.31-.24-.47-.15-1.13.27-2.03.22-.47.91-1.09 2.06-1.84-.03-.49.1-1.1.24-1.4l.87-1.58c.16-.32.45-.6.83-.78.02-.02.07-.04.11-.06l.11-.04a1.7 1.7 0 0 1 1.18-.04l4.19 1.41.38-.08c.22-.05.43.05.54.24l3.83 6.6c.11.19.08.43-.06.59-.16.18-3.94 4.32-6.15 5.15-.68.33-1.35.5-2.01.5zm-1.27-13.49a.71.71 0 0 0-.31.07l-.1.03c-.2.11-.32.23-.39.37l-.87 1.58c-.11.22-.17.84-.12 1 .08.22 0 .48-.2.6-1.2.76-1.85 1.35-1.97 1.6-.33.7-.33 1.06-.29 1.15 1.08 2.08 3.19 5.37 4.31 5.85.9.38 1.81.32 2.79-.17 1.73-.65 4.69-3.71 5.57-4.64l-3.47-5.96-.16.03c-.09.02-.18.02-.27-.01l-4.32-1.45a.351.351 0 0 0-.2-.05z" fill="#E8AD1A"/><radialGradient id="l" cx="50.456" cy="52.802" r="15.471" gradientUnits="userSpaceOnUse"><stop stop-color="#F78C1F" offset=".366"/><stop stop-color="#F37F21" offset=".679"/><stop stop-color="#ED6D23" offset="1"/></radialGradient><path d="M45.37 70.62c-1.81 0-4.03-1.12-4.93-2.5-1.28-1.95-.73-5.38 1.06-6.55l7.98-4.19a.52.52 0 0 0 .27-.4.501.501 0 0 0-.2-.44c-3.49-2.65-11.62-9.44-11.79-15.2-.05-1.86.7-3.43 2.31-4.8 1.2-1.02 2.52-1.54 3.92-1.54 8.65 0 18.46 18.79 18.56 18.98 1.06 2.12.73 4.63-.85 6.4l-.06.09c-.17.3-.4.55-.71.75l-13.85 8.96c-.46.29-1.03.44-1.71.44z" fill="url(#l)"/><path d="M43.99 35.49c7.26 0 16.13 14.75 18.11 18.7.97 1.93.66 4.23-.78 5.85-.05.05-.09.11-.12.17-.13.23-.31.42-.54.57L46.8 69.75c-.36.24-.86.36-1.43.36-1.66 0-3.69-1.02-4.52-2.28-1.12-1.7-.65-4.79.88-5.84l7.98-4.19c.3-.16.5-.46.53-.8s-.12-.67-.39-.88c-3.43-2.61-11.43-9.27-11.59-14.82-.05-1.7.65-3.14 2.13-4.41 1.12-.94 2.3-1.4 3.6-1.4m0-1c-1.46 0-2.89.5-4.24 1.66-7.59 6.48 4.11 16.69 9.5 20.78l-8.03 4.21c-2.08 1.37-2.57 5.16-1.2 7.25 1 1.52 3.35 2.73 5.35 2.73.73 0 1.42-.16 1.98-.53l13.85-8.97c.38-.25.67-.57.87-.92 1.66-1.86 2.11-4.6.93-6.96-.29-.56-10.12-19.25-19.01-19.25z" fill="#DA6727"/><path d="M-41.54 37.26l.24-.09a.51.51 0 0 0 .33-.45c.1-2.9.44-6.3.82-6.89 2.02-.57 5.23-1.17 8.07-1.71 1.36-.26 2.65-.5 3.68-.72.94 1.53 1.12 2.95 1.14 5.11.01 1.22-.2 4.17-2.26 5.38-1.22.71-4.07.99-4.8 1.05-.47-.32-1.67-1.1-2.41-1.1-.07 0-.14.01-.21.02-.71.15-.86.34-1.16.89-.06.12-.14.26-.24.44-.65 1.12-2.39 1.29-3.21 1.3v-3.23z" fill="#616161"/><path d="M-28.64 27.97c.73 1.32.87 2.59.89 4.55.02 2.35-.74 4.2-2.02 4.95-.88.51-3.03.85-4.41.97-.65-.44-1.75-1.08-2.54-1.08-.11 0-.21.01-.31.03-.9.19-1.16.51-1.5 1.15-.06.11-.13.25-.23.42-.42.73-1.52.96-2.27 1.03V37.6c.34-.16.56-.49.57-.87.09-2.55.37-5.59.69-6.48 2.02-.55 5.08-1.13 7.8-1.64 1.2-.23 2.35-.45 3.33-.64M-28.15 26.84c-3.16.68-9.08 1.64-12.21 2.53-.86.28-1.1 7.32-1.1 7.32l-.57.21v4.09s.15.01.4.01c.87 0 2.93-.15 3.74-1.55.51-.87.39-.95 1.07-1.09.03-.01.07-.01.11-.01.72 0 2.27 1.11 2.27 1.11s3.67-.25 5.19-1.13c1.83-1.07 2.53-3.47 2.51-5.82-.03-2.2-.19-3.83-1.41-5.67z" fill="#4F4F4F"/><path d="M-33.08 39.15c-3.08 1.14-4.48-1.08-5.88-.79-.68.14-.97.97-1.48 1.84-1.04 1.79-2.24.57-2.95-.75-.25-.47-.78-2.54-.78-2.54l.57-.21s.24-7.04 1.1-7.32c3.13-.89 7.4-1.57 10.57-2.25 1.22 1.84 1.95 4.73 2.03 6.94.16 4.21-2.31 4.76-3.18 5.08z" fill="#E3F2FD"/><linearGradient id="m" x1="-25.131" x2="-16.786" y1="15.591" y2="15.591" gradientTransform="matrix(1.4199 -.3613 .2868 1.1271 -12.942 8.47)" gradientUnits="userSpaceOnUse"><stop stop-color="#90CAF9" offset=".365"/><stop stop-color="#42A5F5" offset=".987"/></linearGradient><path d="M-33.95 36.36c-2.22.79-4.73-1.08-6.07-.58s-1 2.12-2.02 2.52c-.75.29-1.57-1.6-1.57-1.6l-1.47-5.19 11.79-2.6c.94 1.86 1.77 6.58-.66 7.45z" fill="url(#m)"/><path d="M238.47 63.33l.5-.27c.14-.07.24-.21.26-.37s-.03-.31-.14-.43c-.13-.13-.26-.27-.38-.42-2.23-2.7-1.85-6.71.84-8.94.69-.57 1.49-.98 2.36-1.23.1-.03.19-.09.25-.17l28.16-13.91.77 1.06c2.22 3.06 2.95 6.91 1.97 10.31-.82 2.84-2.71 4.98-5.3 6.01l-14.06 5.74c-.13.05-.23.15-.28.28s-.04.27.01.4l7.75 16.35-11.42 6.22-11.29-20.63z" fill="#616161"/><path d="M270.18 38.25l.52.72c2.13 2.93 2.84 6.62 1.89 9.87-.78 2.69-2.56 4.71-5.01 5.69l-14.05 5.74c-.25.1-.45.31-.55.56-.1.26-.09.54.03.79l7.55 15.92-10.57 5.76-10.82-19.76.06-.03a.991.991 0 0 0 .24-1.58c-.12-.12-.24-.25-.35-.38-1-1.2-1.46-2.72-1.32-4.28a5.84 5.84 0 0 1 2.09-3.96c.64-.53 1.37-.91 2.18-1.13.15-.04.28-.12.39-.22l27.72-13.71m.31-1.27l-28.73 14.2.03.04c-.91.25-1.78.68-2.55 1.32-2.91 2.41-3.32 6.73-.91 9.64.13.16.27.3.41.45l-.95.51 11.79 21.52 12.27-6.69-7.95-16.78 14.05-5.74c6.27-2.5 8.02-10.92 3.55-17.07l-1.01-1.4z" fill="#4F4F4F"/><linearGradient id="n" x1="299.28" x2="299.28" y1="-115.49" y2="-92.046" gradientTransform="rotate(-36.194 474.273 91.318)" gradientUnits="userSpaceOnUse"><stop stop-color="#FFCA28" offset=".545"/><stop stop-color="#FFB300" offset=".834"/><stop stop-color="#E59600" offset=".995"/></linearGradient><path d="M220.68 17.93c-4.65-2.59-10.99-.95-15.27 2.22-5.92 4.38-6.32 10.89-2.79 17.11 0 0 2.62 3.96 3.26 5.04.04.07-.45.3-.65.56-.45.59-.46 1.4-.01 1.99 1.6 2.11 5.46 7.96 11.48 4.25 3.84-2.37 9.86-3.75 11.24-2.5l1.45-4.95s-3.99-.25-1.52-8.46c1.68-5.58-3.31-13.1-7.19-15.26z" fill="url(#n)"/><linearGradient id="o" x1="203.75" x2="227.48" y1="42.834" y2="25.472" gradientUnits="userSpaceOnUse"><stop stop-color="#EDA600" offset="0"/><stop stop-color="#D18900" offset=".871"/></linearGradient><path d="M215.44 17.65c1.78 0 3.38.39 4.76 1.15 3.71 2.06 8.19 9.2 6.72 14.09-1.14 3.81-1.13 6.6.05 8.28.38.54.81.88 1.2 1.1l-.87 2.96c-.36-.08-.77-.11-1.24-.11-2.75 0-7 1.34-9.89 3.12-1.14.7-2.25 1.06-3.3 1.06-3.07 0-5.34-3.04-6.56-4.67l-.29-.39a.646.646 0 0 1-.01-.76c.04-.04.16-.12.22-.16.91-.62.66-1.28.51-1.53-.63-1.06-3.01-4.67-3.27-5.06-3.52-6.24-2.6-11.99 2.53-15.78 2.8-2.07 6.33-3.3 9.44-3.3m0-1c-3.52 0-7.22 1.42-10.03 3.5-5.92 4.38-6.32 10.89-2.79 17.11 0 0 2.62 3.96 3.26 5.04.04.07-.45.3-.65.56-.45.59-.46 1.4-.01 1.99 1.23 1.62 3.8 5.46 7.65 5.46 1.16 0 2.44-.35 3.83-1.21 2.85-1.76 6.9-2.97 9.36-2.97.86 0 1.53.15 1.88.47l1.45-4.95s-3.99-.25-1.52-8.46c1.67-5.58-3.32-13.1-7.19-15.26-1.6-.89-3.4-1.28-5.24-1.28z" fill="url(#o)"/><defs><path id="p" d="M208.74 44.9l-3.09 1.01s1.12.91 2.08 1.9c1.96 2.02 4.89 3.72 8.97 1.29.37-.22-4.79-4.33-4.79-4.33l-3.17.13z"/></defs><clipPath id="q"><use xlink:href="#p"/></clipPath><g clip-path="url(#q)"><path d="M204.86 49.39c2.44 1.04 6.11.42 7.19-2.25.41-1.02-.71-1.45-1.12-.44-.73 1.79-3.98 2.03-5.52 1.37-1.01-.43-1.56.89-.55 1.32z" fill="#795548"/></g><ellipse transform="rotate(-24.508 209.427 40.419)" cx="209.44" cy="40.41" rx="1.26" ry="2.28" fill="#404040"/><path d="M207.11 38.07c-1.29.9-2.01.31-1.83-.47.13-.58.83-1.29 2.66-1.71 1.73-.4 2.76.03 3.41.29s.83.7.48.88c-.48.25-3.12-.11-4.72 1.01z" fill="#6D4C41"/><radialGradient id="r" cx="236.1" cy="-30.228" r="15.799" gradientTransform="matrix(.9174 -.4555 .4443 .8816 2.697 160.53)" gradientUnits="userSpaceOnUse"><stop stop-color="#6D4C41" offset="0"/><stop stop-color="#543930" offset="1"/></radialGradient><path d="M220.07 38.98l-1.85-5.33s4.46-.82 4.93 3.14c.32 2.69 3.04 4.68 4.24 4.45l.72-.08c-.38-4.08 3.62-7.07.38-16.83-3.09-9.32-13.97-10.94-23.23-5.29-8.5 5.19-6.86 15.88-6.86 15.88s-.81 1.18-1.05 2.6c-.17.98.95 1.67 1.74 1.06l8.37-6.41c3.89-1.33 9.52 7.78 12.61 6.81z" fill="url(#r)"/><radialGradient id="s" cx="209.94" cy="33.926" r="13.534" gradientTransform="matrix(.9853 .0436 -.048 1.0831 3.324 -3.238)" gradientUnits="userSpaceOnUse"><stop stop-color="#F78C1F" offset=".362"/><stop stop-color="#F37F21" offset=".678"/><stop stop-color="#ED6D23" offset="1"/></radialGradient><path d="M213.01 50.41c-.86 0-1.66-.07-2.39-.2-2.32-.42-4.64-3.4-5.46-4.56 1.68-.88 7.14-3.98 12.51-9.59.88-.92 2.99-2.15 5.23-3.46 2.99-1.75 6.37-3.73 8.02-5.64.38-.43.9-.67 1.46-.67.78 0 1.46.44 1.78 1.14.98 2.14 1.76 5.93 1.64 7.96-.34 5.72-11.2 12.29-11.31 12.35 0 0-6.06 2.67-11.48 2.67z" fill="url(#s)"/><path d="M232.38 26.79c.45 0 1.04.22 1.32.85.95 2.08 1.71 5.76 1.6 7.72-.26 4.5-7.99 10.09-11.01 11.92-.6.26-6.23 2.63-11.28 2.63-.83 0-1.6-.06-2.3-.19-1.77-.32-3.71-2.45-4.81-3.89 2.12-1.15 7.1-4.18 12.13-9.42.83-.87 2.91-2.09 5.12-3.38 3.02-1.77 6.44-3.77 8.15-5.74.28-.32.66-.5 1.08-.5m0-1c-.67 0-1.35.27-1.84.85-2.83 3.27-11.11 6.87-13.23 9.08-6.43 6.71-12.88 9.75-12.88 9.75s2.98 4.67 6.1 5.24c.8.15 1.63.21 2.48.21 5.59 0 11.74-2.74 11.74-2.74s11.2-6.7 11.55-12.75c.13-2.18-.69-6.02-1.69-8.19a2.415 2.415 0 0 0-2.23-1.45z" fill="#DA6727"/><radialGradient id="t" cx="143.36" cy="201.92" r="17.012" gradientTransform="matrix(.4257 -.9107 1.2036 .515 -53.507 52.637)" gradientUnits="userSpaceOnUse"><stop stop-color="#F78C1F" offset=".363"/><stop stop-color="#F37F21" offset=".678"/><stop stop-color="#ED6D23" offset="1"/></radialGradient><path d="M242.16 52.69c-1.61-.74-12.33-5.74-15.81-9.8-1.3-1.51-1.71-3.09-1.24-4.69.6-1.99 2.45-3.49 3.56-3.81 5.03-1.44 10.65-2.17 16.69-2.17 11.75 0 21.23 2.79 21.32 2.82 2.09.74 4.09 2.72 4.95 4.32l-29.47 13.33z" fill="url(#t)"/><path d="M245.36 31.73v1c11.67 0 21.08 2.77 21.13 2.79 1.8.64 3.51 2.22 4.43 3.63l-28.76 13c-2.14-.99-12.14-5.74-15.44-9.58-1.18-1.37-1.56-2.79-1.14-4.22.54-1.79 2.24-3.19 3.22-3.47 4.99-1.43 10.55-2.15 16.55-2.15l.01-1m0 0c-5.33 0-11.14.56-16.83 2.19-2.07.59-6.43 4.79-2.56 9.3s16.19 10.02 16.19 10.02l30.14-13.63c-.77-1.82-3.05-4.18-5.48-5.05.01.01-9.49-2.83-21.46-2.83z" fill="#DA6727"/><path d="M245.31 96.07c-.54 0-1.04-.29-1.3-.76l-1.69-2.97c-.09-.14-1.75-2.82.97-5.01l4.1-2.67c.86-.59 1.13-1.75.62-2.65l-3.83-6.73 12.92-7.3 8.59 15.22c.2.35.25.75.14 1.14s-.36.71-.71.9l-19.09 10.64c-.22.13-.47.19-.72.19z" fill="#4568AD"/><path d="M256.91 68.66l8.35 14.78c.13.23.16.5.09.76s-.24.47-.47.6l-19.1 10.64c-.15.08-.31.13-.48.13-.36 0-.69-.19-.87-.5l-1.69-2.97c-.01-.01-.02-.03-.03-.04-.15-.25-1.43-2.44.84-4.31l4.11-2.68c1.07-.73 1.41-2.18.77-3.3l-3.58-6.29 12.06-6.82m.38-1.36l-13.79 7.8 4.08 7.16c.39.68.19 1.54-.46 1.98l-4.14 2.7c-3.12 2.51-1.09 5.65-1.09 5.65l1.69 2.97a1.99 1.99 0 0 0 1.74 1.01c.33 0 .66-.08.97-.25l19.1-10.64a2 2 0 0 0 .76-2.73l-8.86-15.65z" fill="#315499"/><linearGradient id="u" x1="234.94" x2="293.94" y1="62.697" y2="35.03" gradientUnits="userSpaceOnUse"><stop stop-color="#EF6C00" offset=".267"/><stop stop-color="#F67F00" offset=".546"/><stop stop-color="#FB8C00" offset=".806"/></linearGradient><path d="M222.79 70.2c-.56 0-1.1-.31-1.35-.85-.36-.75-.04-1.64.71-2l70.93-33.87c.75-.36 1.64-.04 2 .71s.04 1.64-.71 2l-70.93 33.87c-.22.09-.44.14-.65.14z" fill="url(#u)"/><path d="M290.01 43.13l-4.66-3.71c-.26-.21-.4-.54-.37-.87l.52-5.75c.09-1.03 1.5-1.26 1.91-.31l4.14 9.46c.42.95-.73 1.83-1.54 1.18z" fill="#616161"/><linearGradient id="v" x1="215.04" x2="228.84" y1="69.406" y2="69.406" gradientUnits="userSpaceOnUse"><stop stop-color="#FFEB3B" offset="0"/><stop stop-color="#FBC02D" offset="1"/></linearGradient><path d="M228.84 70.66l-3.84-6.6s-.2.04-.52.11l-4.32-1.45c-.3-.1-.61-.07-.89.05-.01 0-.02 0-.03.01-.04.02-.07.04-.11.06-.25.12-.47.3-.6.57l-.86 1.56c-.16.33-.27 1.1-.14 1.42-.54.34-1.88 1.24-2.16 1.81-.31.65-.46 1.24-.28 1.59.92 1.78 3.19 5.5 4.56 6.08s2.52.16 3.21-.19c2.15-.8 5.98-5.02 5.98-5.02z" fill="url(#v)"/><path d="M221.06 76.65c-.53 0-1.06-.11-1.58-.33-1.62-.69-4.02-4.79-4.81-6.31-.24-.47-.15-1.13.27-2.03.22-.47.91-1.09 2.06-1.84-.03-.49.1-1.1.24-1.4l.87-1.58c.16-.32.45-.6.83-.78.02-.02.07-.04.11-.06l.11-.04a1.7 1.7 0 0 1 1.18-.04l4.19 1.41.38-.08c.22-.05.43.05.54.24l3.83 6.6c.11.19.08.43-.06.59-.16.18-3.94 4.32-6.15 5.15-.67.33-1.34.5-2.01.5zm-1.26-13.49a.71.71 0 0 0-.31.07l-.1.03c-.2.11-.32.23-.39.37l-.87 1.58c-.11.22-.17.84-.12 1 .08.22 0 .48-.2.6-1.2.76-1.85 1.35-1.97 1.6-.33.7-.33 1.06-.29 1.15 1.08 2.08 3.19 5.37 4.31 5.85.9.38 1.81.32 2.79-.17 1.73-.65 4.69-3.71 5.57-4.64l-3.47-5.96-.16.03c-.09.02-.18.02-.27-.01L220 63.21a.351.351 0 0 0-.2-.05z" fill="#E8AD1A"/><radialGradient id="w" cx="235.39" cy="52.802" r="15.471" gradientUnits="userSpaceOnUse"><stop stop-color="#F78C1F" offset=".366"/><stop stop-color="#F37F21" offset=".679"/><stop stop-color="#ED6D23" offset="1"/></radialGradient><path d="M230.3 70.62c-1.81 0-4.03-1.12-4.93-2.5-1.28-1.95-.73-5.38 1.06-6.55l7.98-4.19a.52.52 0 0 0 .27-.4.501.501 0 0 0-.2-.44c-3.49-2.65-11.62-9.44-11.79-15.2-.05-1.86.7-3.43 2.31-4.8 1.2-1.02 2.52-1.54 3.92-1.54 8.65 0 18.46 18.79 18.56 18.98 1.06 2.12.73 4.63-.85 6.4l-.06.09c-.17.3-.4.55-.71.75l-13.85 8.96c-.45.29-1.03.44-1.71.44z" fill="url(#w)"/><path d="M228.92 35.49c7.26 0 16.13 14.75 18.11 18.7.97 1.93.66 4.23-.78 5.85-.05.05-.09.11-.12.17-.13.23-.31.42-.54.57l-13.86 8.97c-.36.24-.86.36-1.43.36-1.66 0-3.69-1.02-4.52-2.28-1.12-1.7-.65-4.79.88-5.84l7.98-4.19c.3-.16.5-.46.53-.8s-.12-.67-.39-.88c-3.43-2.61-11.43-9.27-11.59-14.82-.05-1.7.65-3.14 2.13-4.41 1.13-.94 2.3-1.4 3.6-1.4m0-1c-1.46 0-2.89.5-4.24 1.66-7.59 6.48 4.11 16.69 9.5 20.78l-8.03 4.21c-2.08 1.37-2.57 5.16-1.2 7.25 1 1.52 3.35 2.73 5.35 2.73.73 0 1.42-.16 1.98-.53l13.85-8.97c.38-.25.67-.57.87-.92 1.66-1.86 2.11-4.6.93-6.96-.28-.56-10.11-19.25-19.01-19.25z" fill="#DA6727"/><path d="M205.05 45.71c-.08-4.65.3-12.32 1.7-13.39 1.8-1.39 5.54-3.17 6.47-3.6.77.4 3.58 2.04 4.79 5.33 1.24 3.38 1.19 5.18 1.16 5.58-.41.65-2.97 4.62-5.61 5.54-.54.19-1.01.28-1.44.28-.79 0-1.3-.32-1.84-.65-.51-.32-1.04-.64-1.75-.64-.53.01-.81.23-.97.41-.33.38-.43.98-.31 1.83.12.88-.36 1.74-1.17 2.11l-1.03-2.8z" fill="#616161"/><path d="M213.2 29.28c.92.52 3.28 2.07 4.33 4.94 1.12 3.05 1.16 4.76 1.14 5.25-.86 1.37-3.15 4.48-5.29 5.23-.48.17-.9.25-1.27.25-.65 0-1.06-.25-1.57-.58-.54-.34-1.16-.72-2.01-.72h-.06c-.66.01-1.07.33-1.29.59-.42.5-.56 1.23-.42 2.22.07.47-.1.94-.43 1.27l-.77-2.11c-.11-6.3.58-12.19 1.51-12.9 1.63-1.27 4.94-2.88 6.13-3.44m.02-1.12s-4.65 2.12-6.78 3.76-1.89 13.88-1.89 13.88l1.23 3.36.45-.19c1.04-.45 1.67-1.53 1.51-2.65-.12-.84-.03-1.66.74-1.67h.04c1.24 0 1.86 1.3 3.59 1.3.45 0 .97-.09 1.6-.31 3.08-1.08 5.93-5.85 5.93-5.85s.32-1.85-1.17-5.92-5.25-5.71-5.25-5.71z" fill="#4F4F4F"/><path d="M214.91 35.97c-2.32-5.34-3.83-7.03-9.01-3.72-.55.35-8.32 7.49-8.32 7.49l5.16 8.91s1.49 1.6 3.04.51c.65-.45.32-1.42-.23-2.88-.23-.61.07-1.3.67-1.54.4-.16 1-.21 3 .54s3.62.78 5.79-.99c2.54-2.05 1.6-4.39-.1-8.32z" fill="#E3F2FD"/><linearGradient id="x" x1="197.12" x2="210.94" y1="60.47" y2="60.47" gradientTransform="rotate(-6.264 25.99 38.858)" gradientUnits="userSpaceOnUse"><stop stop-color="#90CAF9" offset=".365"/><stop stop-color="#42A5F5" offset=".987"/></linearGradient><path d="M211.42 37.9c-1.39-3.07-1.82-5.38-6.27-2.16-.41.3-6.75 5.41-6.75 5.41l2.7 4.66s1.3 2.14 2.17 1.68c.87-.47.8-1.08.75-2.35-.04-1.03.07-2.69 2.04-2.28 1.78.37 3.23 1.24 4.81.68 1.92-.68 1.67-3.17.55-5.64z" fill="url(#x)"/><path fill="#616161" stroke="#4F4F4F" stroke-linecap="round" stroke-linejoin="round" stroke-miterlimit="10" d="M215.78 32.19l15.35-8.22.13 2.1-11.89 9.11z"/><path d="M253.04 63.33l.5-.27c.14-.07.24-.21.26-.37s-.03-.31-.14-.43c-.13-.13-.26-.27-.38-.42-2.23-2.7-1.85-6.71.84-8.94.69-.57 1.49-.98 2.36-1.23.1-.03.19-.09.25-.17l28.16-13.91.77 1.06c2.22 3.06 2.95 6.91 1.97 10.31-.82 2.84-2.71 4.98-5.3 6.01l-14.06 5.74c-.13.05-.23.15-.28.28s-.04.27.01.4l7.75 16.35-11.42 6.22-11.29-20.63z" fill="#616161"/><path d="M284.75 38.25l.52.72c2.13 2.93 2.84 6.62 1.89 9.87-.78 2.69-2.56 4.71-5.01 5.69l-14.05 5.74c-.25.1-.45.31-.55.56-.1.26-.09.54.03.79l7.55 15.92-10.57 5.76-10.82-19.76.06-.03a.991.991 0 0 0 .24-1.58c-.12-.12-.24-.25-.35-.38-1-1.2-1.46-2.72-1.32-4.28a5.84 5.84 0 0 1 2.09-3.96c.64-.53 1.37-.91 2.18-1.13.15-.04.28-.12.39-.22l27.72-13.71m.31-1.27l-28.73 14.2.03.04c-.91.25-1.78.68-2.55 1.32-2.91 2.41-3.32 6.73-.91 9.64.13.16.27.3.41.45l-.95.51 11.79 21.52 12.27-6.69-7.95-16.78 14.05-5.74c6.27-2.5 8.02-10.92 3.55-17.07l-1.01-1.4z" fill="#4F4F4F"/><linearGradient id="y" x1="311.04" x2="311.04" y1="-106.88" y2="-83.442" gradientTransform="rotate(-36.194 474.273 91.318)" gradientUnits="userSpaceOnUse"><stop stop-color="#FFCA28" offset=".545"/><stop stop-color="#FFB300" offset=".834"/><stop stop-color="#E59600" offset=".995"/></linearGradient><path d="M235.25 17.93c-4.65-2.59-10.99-.95-15.27 2.22-5.92 4.38-6.32 10.89-2.79 17.11 0 0 2.62 3.96 3.26 5.04.04.07-.45.3-.65.56-.45.59-.46 1.4-.01 1.99 1.6 2.11 5.46 7.96 11.48 4.25 3.84-2.37 9.86-3.75 11.24-2.5l1.45-4.95s-3.99-.25-1.52-8.46c1.68-5.58-3.31-13.1-7.19-15.26z" fill="url(#y)"/><linearGradient id="z" x1="218.32" x2="242.04" y1="42.834" y2="25.472" gradientUnits="userSpaceOnUse"><stop stop-color="#EDA600" offset="0"/><stop stop-color="#D18900" offset=".871"/></linearGradient><path d="M230.01 17.65c1.78 0 3.38.39 4.76 1.15 3.71 2.06 8.19 9.2 6.72 14.09-1.14 3.81-1.13 6.6.05 8.28.38.54.81.88 1.2 1.1l-.87 2.96c-.36-.08-.77-.11-1.24-.11-2.75 0-7 1.34-9.89 3.12-1.14.7-2.25 1.06-3.3 1.06-3.07 0-5.34-3.04-6.56-4.67l-.29-.39a.646.646 0 0 1-.01-.76c.04-.04.16-.12.22-.16.91-.62.66-1.28.51-1.53-.63-1.06-3.01-4.67-3.27-5.06-3.52-6.24-2.6-11.99 2.53-15.78 2.8-2.07 6.33-3.3 9.44-3.3m0-1c-3.52 0-7.22 1.42-10.03 3.5-5.92 4.38-6.32 10.89-2.79 17.11 0 0 2.62 3.96 3.26 5.04.04.07-.45.3-.65.56-.45.59-.46 1.4-.01 1.99 1.23 1.62 3.8 5.46 7.65 5.46 1.16 0 2.44-.35 3.83-1.21 2.85-1.76 6.9-2.97 9.36-2.97.86 0 1.53.15 1.88.47l1.45-4.95s-3.99-.25-1.52-8.46c1.67-5.58-3.32-13.1-7.19-15.26-1.6-.89-3.4-1.28-5.24-1.28z" fill="url(#z)"/><defs><path id="A" d="M223.31 44.9l-3.09 1.01s1.12.91 2.08 1.9c1.96 2.02 4.89 3.72 8.97 1.29.37-.22-4.79-4.33-4.79-4.33l-3.17.13z"/></defs><clipPath id="B"><use xlink:href="#A"/></clipPath><g clip-path="url(#B)"><path d="M219.43 49.39c2.44 1.04 6.11.42 7.19-2.25.41-1.02-.71-1.45-1.12-.44-.73 1.79-3.98 2.03-5.52 1.37-1.01-.43-1.56.89-.55 1.32z" fill="#795548"/></g><ellipse transform="rotate(-24.508 223.998 40.42)" cx="224.01" cy="40.41" rx="1.26" ry="2.28" fill="#404040"/><path d="M221.68 38.07c-1.29.9-2.01.31-1.83-.47.13-.58.83-1.29 2.66-1.71 1.73-.4 2.76.03 3.41.29.65.25.83.7.48.88-.48.25-3.12-.11-4.72 1.01z" fill="#6D4C41"/><radialGradient id="C" cx="251.83" cy="-23.213" r="14.656" gradientTransform="matrix(.9174 -.4555 .4443 .8816 2.694 160.52)" gradientUnits="userSpaceOnUse"><stop stop-color="#6D4C41" offset="0"/><stop stop-color="#543930" offset="1"/></radialGradient><path d="M234.64 38.98l-1.85-5.33s4.46-.82 4.93 3.14c.32 2.69 3.04 4.68 4.24 4.45l.72-.08c-.38-4.08 3.63-7.07.38-16.83-2.82-8.46-11.06-9.67-18.11-7.15-8.09 2.89-12.67 10.6-9.12 17.52l6.2-2.52c3.89-1.34 9.52 7.77 12.61 6.8z" fill="url(#C)"/><defs><path id="D" d="M218.49 28.73l21.59 2.53.87 7.53s-.42 2.09-.12 2.28c.49.31 1.84.11 1.84.11-.38-4.08 3.63-7.07.38-16.83-2.82-8.46-11.06-9.67-18.11-7.15-8.09 2.89-12.67 10.6-9.12 17.52l1.92-.78-.88-1.71 1.63-3.5z"/></defs><clipPath id="E"><use xlink:href="#D"/></clipPath><g clip-path="url(#E)"><path d="M231.35 18.03c3.41 0 7.88 1.21 9.8 6.95 1.96 5.87 1.06 8.9.27 11.57-.2.69-.41 1.38-.56 2.1-.52-.48-1.05-1.22-1.16-2.09-.37-3.07-2.66-4.98-5.98-4.98-.7 0-1.21.09-1.3.1l-2.29.42.76 2.2.23.65c-.27-.23-.52-.45-.74-.64-2.4-2.1-4.88-4.27-7.54-4.27-.51 0-1.01.08-1.49.25l-.1.04-4.34 1.76c-.52-1.83-.42-3.73.32-5.59 1.28-3.25 4.41-6.03 8.37-7.44 1.94-.67 3.92-1.03 5.75-1.03m0-2c-2.13 0-4.32.42-6.41 1.17-8.09 2.89-12.67 10.6-9.12 17.52l6.2-2.52c.27-.09.55-.14.83-.14 3.62 0 8.36 7 11.3 7 .17 0 .33-.02.49-.07l-1.85-5.33s.38-.07.94-.07c1.33 0 3.66.41 3.99 3.22.3 2.55 2.75 4.46 4.03 4.46.07 0 .14-.01.2-.02l.72-.08c-.38-4.08 3.63-7.07.38-16.83-1.99-5.95-6.65-8.31-11.7-8.31z" fill="#452B22"/></g><path d="M226.38 50.23c-3.15 0-5.14-2.81-5.84-4.02-.99-1.7-1.12-2.94-1.01-3.15 5.23-3.6 6.11-4.97 5.81-5.92-.27-.86-1.49-.97-2.53-.97-.98 0-2.15.11-3.39.22-.91.08-1.83.17-2.67.21-.71 0-1.05-1.43-1.25-2.28-.04-.18-.08-.35-.12-.49-2.18-8.12 3.23-13.23 5.66-15.04 2.24-1.68 5.81-2.64 9.79-2.64 3.21 0 6.37.64 8.69 1.74 8.36 4.01 6.42 12.88 5.2 16.51-1.38 4.08-4.97 6.88-5 6.91-.13.1-.2.25-.2.41.01.31 0 7.53-12.74 8.49-.14.02-.27.02-.4.02z" fill="#039BE5"/><path d="M230.83 16.66c3.14 0 6.22.62 8.47 1.69 8 3.83 6.12 12.39 4.94 15.9-1.32 3.92-4.8 6.65-4.84 6.67-.25.2-.4.5-.39.82 0 .07.05 7.05-12.27 7.98-.12.01-.24.01-.36.01-2.07 0-3.61-1.37-4.54-2.51-1.28-1.57-1.83-3.26-1.84-3.85 5.36-3.73 6.2-5.16 5.83-6.37-.41-1.32-2.23-1.32-3.01-1.32-1 0-2.18.11-3.43.23-.9.08-1.82.17-2.66.21-.32-.14-.63-1.46-.73-1.9-.04-.19-.09-.36-.13-.51-2.1-7.83 3.13-12.76 5.48-14.51 2.15-1.62 5.6-2.54 9.48-2.54m0-1c-3.79 0-7.58.86-10.09 2.74-1.36 1.02-8.31 6.37-5.85 15.57.28 1.03.58 3.15 1.83 3.15h.05c1.96-.09 4.36-.43 6.04-.43 2.89 0 3.64 1.01-3.61 6.01-1.06.73 1.92 8.04 7.17 8.04.14 0 .29-.01.43-.02 13.41-1.01 13.2-9 13.2-9s3.73-2.87 5.17-7.15c2.04-6.04 1.96-13.56-5.45-17.12-2.42-1.16-5.65-1.79-8.89-1.79z" fill="#0089CC"/><path d="M224.43 43.18c-1.67 0-2.99-.25-3.5-.35l-2.97-6.08a.508.508 0 0 1 0-.45c.11-.26.38-.48.71-.59l9.24-3.03c.35-.09.75-.14 1.14-.14 2.19 0 4.09 1.49 4.64 3.63.65 2.54.97 3.82-3.52 5.86-1.68.77-3.61 1.15-5.74 1.15z" fill="#0089CC"/><path d="M229.05 33.05c1.96 0 3.66 1.34 4.15 3.25.61 2.41.87 3.41-3.25 5.28-1.61.73-3.47 1.1-5.53 1.1-1.41 0-2.56-.18-3.15-.29l-2.86-5.85c0-.04.1-.24.42-.35l9.21-3.02c.33-.08.67-.12 1.01-.12m0-1c-.43 0-.86.05-1.3.16l-9.24 3.03c-.86.28-1.32 1.08-1 1.73l3.08 6.29s1.61.42 3.84.42c1.76 0 3.9-.26 5.95-1.19 4.65-2.11 4.52-3.6 3.8-6.44-.62-2.4-2.77-4-5.13-4z" fill="#039BE5"/><radialGradient id="F" cx="224.85" cy="33.331" r="13.463" gradientTransform="matrix(.9853 .0436 -.048 1.0831 3.324 -3.237)" gradientUnits="userSpaceOnUse"><stop stop-color="#F78C1F" offset=".362"/><stop stop-color="#F37F21" offset=".678"/><stop stop-color="#ED6D23" offset="1"/></radialGradient><path d="M227.58 50.41c-.86 0-1.66-.07-2.39-.2-2.18-.4-4.37-3.06-5.3-4.34 2.37-.32 9.09-1.69 14.45-7.3.6-.62 1.52-1.56 2.59-2.65 2.75-2.79 6.51-6.6 8.55-8.96.38-.43.9-.67 1.46-.67.78 0 1.46.44 1.78 1.14.98 2.14 1.76 5.93 1.64 7.96-.34 5.72-11.2 12.29-11.31 12.35.01 0-6.05 2.67-11.47 2.67z" fill="url(#F)"/><path d="M246.95 26.79c.45 0 1.04.22 1.32.85.95 2.08 1.71 5.76 1.6 7.72-.26 4.5-7.99 10.09-11.01 11.92-.6.26-6.23 2.63-11.28 2.63-.83 0-1.6-.06-2.3-.19-1.61-.29-3.36-2.08-4.49-3.48 2.93-.52 8.98-2.17 13.91-7.32.6-.62 1.52-1.56 2.59-2.65 2.75-2.79 6.52-6.61 8.57-8.98.29-.32.67-.5 1.09-.5m0-1c-.67 0-1.35.27-1.84.85-2.83 3.27-9.01 9.38-11.13 11.59-6.43 6.71-14.99 7.24-14.99 7.24s2.98 4.67 6.1 5.24c.8.15 1.63.21 2.48.21 5.59 0 11.74-2.74 11.74-2.74s11.2-6.7 11.55-12.75c.13-2.18-.69-6.02-1.69-8.19a2.392 2.392 0 0 0-2.22-1.45z" fill="#DA6727"/><radialGradient id="G" cx="149.07" cy="214.42" r="17.012" gradientTransform="matrix(.4257 -.9107 1.2036 .515 -56.412 51.394)" gradientUnits="userSpaceOnUse"><stop stop-color="#F78C1F" offset=".363"/><stop stop-color="#F37F21" offset=".678"/><stop stop-color="#ED6D23" offset="1"/></radialGradient><path d="M256.73 52.69c-1.61-.74-12.33-5.74-15.81-9.8-1.3-1.51-1.71-3.09-1.24-4.69.6-1.99 2.45-3.49 3.56-3.81 5.03-1.44 10.65-2.17 16.69-2.17 11.75 0 21.23 2.79 21.32 2.82 2.09.74 4.09 2.72 4.95 4.32l-29.47 13.33z" fill="url(#G)"/><path d="M259.93 31.73v1c11.67 0 21.08 2.77 21.13 2.79 1.8.64 3.51 2.22 4.43 3.63l-28.76 13c-2.14-.99-12.14-5.74-15.44-9.58-1.18-1.37-1.56-2.79-1.14-4.22.54-1.79 2.24-3.19 3.22-3.47 4.99-1.43 10.55-2.15 16.55-2.15l.01-1m0 0c-5.33 0-11.14.56-16.83 2.19-2.07.59-6.43 4.79-2.56 9.3s16.19 10.02 16.19 10.02l30.14-13.63c-.77-1.82-3.05-4.18-5.48-5.05.01.01-9.49-2.83-21.46-2.83z" fill="#DA6727"/><path d="M259.88 96.07c-.54 0-1.04-.29-1.3-.76l-1.69-2.97c-.09-.14-1.75-2.82.97-5.01l4.1-2.67c.86-.59 1.13-1.75.62-2.65l-3.83-6.73 12.92-7.3 8.59 15.22c.2.35.25.75.14 1.14s-.36.71-.71.9L260.6 95.89c-.22.12-.47.18-.72.18z" fill="#4568AD"/><path d="M271.48 68.66l8.35 14.78c.13.23.16.5.09.76s-.24.47-.47.6l-19.1 10.64c-.15.08-.31.13-.48.13-.36 0-.69-.19-.87-.5l-1.69-2.97c-.01-.01-.02-.03-.03-.04-.15-.25-1.43-2.44.84-4.31l4.11-2.68c1.07-.73 1.41-2.18.77-3.3l-3.58-6.29 12.06-6.82m.38-1.36l-13.79 7.8 4.08 7.16c.39.68.19 1.54-.46 1.98l-4.14 2.7c-3.12 2.51-1.09 5.65-1.09 5.65l1.69 2.97a1.99 1.99 0 0 0 1.74 1.01c.33 0 .66-.08.97-.25l19.1-10.64a2 2 0 0 0 .76-2.73l-8.86-15.65z" fill="#315499"/><linearGradient id="H" x1="249.51" x2="308.51" y1="62.697" y2="35.03" gradientUnits="userSpaceOnUse"><stop stop-color="#EF6C00" offset=".267"/><stop stop-color="#F67F00" offset=".546"/><stop stop-color="#FB8C00" offset=".806"/></linearGradient><path d="M237.36 70.2c-.56 0-1.1-.31-1.35-.85-.36-.75-.04-1.64.71-2l70.93-33.87c.75-.36 1.64-.04 2 .71s.04 1.64-.71 2L238 70.05c-.21.1-.43.15-.64.15z" fill="url(#H)"/><path d="M304.58 43.13l-4.66-3.71c-.26-.21-.4-.54-.37-.87l.52-5.75c.09-1.03 1.5-1.26 1.91-.31l4.14 9.46c.42.95-.73 1.83-1.54 1.18z" fill="#616161"/><linearGradient id="I" x1="229.61" x2="243.41" y1="69.406" y2="69.406" gradientUnits="userSpaceOnUse"><stop stop-color="#FFEB3B" offset="0"/><stop stop-color="#FBC02D" offset="1"/></linearGradient><path d="M243.41 70.66l-3.84-6.6s-.2.04-.52.11l-4.32-1.45c-.3-.1-.61-.07-.89.05-.01 0-.02 0-.03.01-.04.02-.07.04-.11.06-.25.12-.47.3-.6.57l-.86 1.56c-.16.33-.27 1.1-.14 1.42-.54.34-1.88 1.24-2.16 1.81-.31.65-.46 1.24-.28 1.59.92 1.78 3.19 5.5 4.56 6.08s2.52.16 3.21-.19c2.15-.8 5.98-5.02 5.98-5.02z" fill="url(#I)"/><path d="M235.63 76.65c-.53 0-1.06-.11-1.58-.33-1.62-.69-4.02-4.79-4.81-6.31-.24-.47-.15-1.13.27-2.03.22-.47.91-1.09 2.06-1.84-.03-.49.1-1.1.24-1.4l.87-1.58c.16-.32.45-.6.83-.78.02-.02.07-.04.11-.06l.11-.04a1.7 1.7 0 0 1 1.18-.04l4.19 1.41.38-.08c.22-.05.43.05.54.24l3.83 6.6c.11.19.08.43-.06.59-.16.18-3.94 4.32-6.15 5.15-.67.33-1.34.5-2.01.5zm-1.26-13.49a.71.71 0 0 0-.31.07l-.1.03c-.2.11-.32.23-.39.37l-.87 1.58c-.11.22-.17.84-.12 1 .08.22 0 .48-.2.6-1.2.76-1.85 1.35-1.97 1.6-.33.7-.33 1.06-.29 1.15 1.08 2.08 3.19 5.37 4.31 5.85.9.38 1.81.32 2.79-.17 1.73-.65 4.69-3.71 5.57-4.64l-3.47-5.96-.16.03c-.09.02-.18.02-.27-.01l-4.32-1.45a.351.351 0 0 0-.2-.05z" fill="#E8AD1A"/><radialGradient id="J" cx="249.96" cy="52.802" r="15.471" gradientUnits="userSpaceOnUse"><stop stop-color="#F78C1F" offset=".366"/><stop stop-color="#F37F21" offset=".679"/><stop stop-color="#ED6D23" offset="1"/></radialGradient><path d="M244.87 70.62c-1.81 0-4.03-1.12-4.93-2.5-1.28-1.95-.73-5.38 1.06-6.55l7.98-4.19a.52.52 0 0 0 .27-.4.501.501 0 0 0-.2-.44c-3.49-2.65-11.62-9.44-11.79-15.2-.05-1.86.7-3.43 2.31-4.8 1.2-1.02 2.52-1.54 3.92-1.54 8.65 0 18.46 18.79 18.56 18.98 1.06 2.12.73 4.63-.85 6.4l-.06.09c-.17.3-.4.55-.71.75l-13.85 8.96c-.45.29-1.03.44-1.71.44z" fill="url(#J)"/><path d="M243.49 35.49c7.26 0 16.13 14.75 18.11 18.7.97 1.93.66 4.23-.78 5.85-.05.05-.09.11-.12.17-.13.23-.31.42-.54.57l-13.86 8.97c-.36.24-.86.36-1.43.36-1.66 0-3.69-1.02-4.52-2.28-1.12-1.7-.65-4.79.88-5.84l7.98-4.19c.3-.16.5-.46.53-.8s-.12-.67-.39-.88c-3.43-2.61-11.43-9.27-11.59-14.82-.05-1.7.65-3.14 2.13-4.41 1.13-.94 2.3-1.4 3.6-1.4m0-1c-1.46 0-2.89.5-4.24 1.66-7.59 6.48 4.11 16.69 9.5 20.78l-8.03 4.21c-2.08 1.37-2.57 5.16-1.2 7.25 1 1.52 3.35 2.73 5.35 2.73.73 0 1.42-.16 1.98-.53l13.85-8.97c.38-.25.67-.57.87-.92 1.66-1.86 2.11-4.6.93-6.96-.28-.56-10.11-19.25-19.01-19.25z" fill="#DA6727"/><path d="M217.91 43.61l.24-.09a.51.51 0 0 0 .33-.45c.1-2.9.44-6.3.82-6.89 2.02-.57 5.23-1.17 8.07-1.71 1.36-.26 2.65-.5 3.68-.72.94 1.53 1.12 2.95 1.14 5.11.01 1.22-.2 4.17-2.26 5.38-1.22.71-4.07.99-4.8 1.05-.47-.32-1.67-1.1-2.41-1.1-.07 0-.14.01-.21.02-.71.15-.86.34-1.16.89-.06.12-.14.26-.24.44-.65 1.12-2.39 1.29-3.21 1.3v-3.23z" fill="#616161"/><path d="M230.81 34.32c.73 1.32.87 2.59.89 4.55.02 2.35-.74 4.2-2.02 4.95-.88.51-3.03.85-4.41.97-.65-.44-1.75-1.08-2.54-1.08-.11 0-.21.01-.31.03-.9.19-1.16.51-1.5 1.15-.06.11-.13.25-.23.42-.42.73-1.52.96-2.27 1.03v-2.37c.34-.16.56-.49.57-.87.09-2.55.37-5.59.69-6.48 2.02-.55 5.08-1.13 7.8-1.64 1.19-.24 2.35-.46 3.33-.66M231.29 33.2c-3.16.68-9.08 1.64-12.21 2.53-.86.28-1.1 7.32-1.1 7.32l-.57.21v4.09s.15.01.4.01c.87 0 2.93-.15 3.74-1.55.51-.87.39-.95 1.07-1.09.03-.01.07-.01.11-.01.72 0 2.27 1.11 2.27 1.11s3.67-.25 5.19-1.13c1.83-1.07 2.53-3.47 2.51-5.82-.02-2.21-.18-3.84-1.41-5.67z" fill="#4F4F4F"/><path d="M226.36 45.5c-3.08 1.14-4.48-1.08-5.88-.79-.68.14-.97.97-1.48 1.84-1.04 1.79-2.24.57-2.95-.75-.25-.47-.78-2.54-.78-2.54l.57-.21s.24-7.04 1.1-7.32c3.13-.89 7.4-1.57 10.57-2.25 1.22 1.84 1.95 4.73 2.03 6.94.16 4.22-2.3 4.76-3.18 5.08z" fill="#E3F2FD"/><linearGradient id="K" x1="145.41" x2="153.76" y1="75.897" y2="75.897" gradientTransform="matrix(1.4199 -.3613 .2868 1.1271 -12.942 8.47)" gradientUnits="userSpaceOnUse"><stop stop-color="#90CAF9" offset=".365"/><stop stop-color="#42A5F5" offset=".987"/></linearGradient><path d="M225.49 42.71c-2.22.79-4.73-1.08-6.07-.58s-1 2.12-2.02 2.52c-.75.29-1.57-1.6-1.57-1.6l-1.47-5.19 11.79-2.6c.94 1.86 1.77 6.59-.66 7.45z" fill="url(#K)"/><path d="M230.08 33c.44.15.44.77 0 .93-4.67 1.65-9.4 3.14-14.21 4.22-.52.12-.97.19-1.36.23-1.28.14-2.28-1.22-1.62-2.33.03-.05.06-.1.1-.13 1.03-1.09 1.26-2.03 2.73-2.37 1.66-.39 3.54-.37 5.23-.53 9.03-.88 9.13-.02 9.13-.02z" fill="#BDBDBD"/></g><g clip-path="url(#b)" fill="#fff"><path d="M104.48 77.78c.01-.01.02-.01.03-.03 1.23-1.08.39-3.2-1.31-2.93-.05 0-.09.01-.13.02-.98.24-1.63 1.08-1.91 2.01-.14.48-.26.96-.36 1.45-.05.24-.11.49-.13.73-.01.14.06.39.22.42.23.05.65-.14.87-.22.98-.31 1.94-.75 2.72-1.45zM116.51 65.88c.01-.01.01-.02.03-.03 1.1-1.22 3.21-.35 2.91 1.35 0 .04-.02.09-.03.13-.25.98-1.1 1.62-2.04 1.89-.48.14-.97.25-1.46.34-.24.05-.49.1-.73.12-.14.01-.39-.07-.42-.23-.05-.23.15-.65.23-.86.34-.98.8-1.94 1.51-2.71zM98.54 65.13c.01-.01.01-.02.01-.04.68-1.69-1.22-3.38-2.77-2.25l-.12.09c-.85.72-1.09 1.89-.9 2.96.1.55.22 1.09.37 1.62.08.26.14.54.24.79.06.14.26.35.43.31.26-.06.57-.46.75-.65.82-.83 1.55-1.76 1.99-2.83zM111.88 55.83c.01-.01.01-.02.02-.03 1.1-1.16.1-3.14-1.53-2.73-.04.01-.09.02-.13.04-.93.31-1.49 1.19-1.68 2.11-.1.48-.17.96-.23 1.44-.02.24-.06.48-.06.72 0 .13.1.37.25.39.23.03.61-.19.82-.28.95-.41 1.84-.92 2.54-1.66zM110.62 64.96l.03-.03c1.37-1.48.07-3.96-1.97-3.41-.05.01-.11.03-.16.05-1.16.41-1.86 1.53-2.08 2.7-.11.6-.2 1.21-.25 1.82-.03.3-.07.61-.07.91.01.16.13.46.32.48.29.04.78-.25 1.03-.37 1.16-.54 2.28-1.21 3.15-2.15z"/></g></svg>