<svg viewBox="0 0 128 128" width="128" height="128" xmlns="http://www.w3.org/2000/svg"><linearGradient id="a" x1="64.026" x2="64.026" y1="4126.2" y2="4245.4" gradientTransform="translate(0 -4122)" gradientUnits="userSpaceOnUse"><stop stop-color="#757575" offset="0"/><stop stop-color="#6C6C6C" offset=".21"/><stop stop-color="#525252" offset=".558"/><stop stop-color="#424242" offset=".744"/><stop stop-color="#424242" offset="1"/></linearGradient><path d="M36 124c-.7 0-1.4-.1-2.1-.2-4.3-.8-7.9-3.8-9.3-8l-20-60c-2.1-6.3 1.3-13.1 7.6-15.2s13.1 1.3 15.2 7.6l13 39 62.2-78.6c4.1-5.2 11.7-6.1 16.9-2s6.1 11.7 2 16.9l-76 96c-2.4 2.9-5.9 4.5-9.5 4.5z" fill="url(#a)"/><path d="M112 7c2 0 4 .7 5.6 1.9 1.9 1.5 3.1 3.6 3.3 6 .3 2.4-.4 4.7-1.9 6.6l-76 96c-1.7 2.2-4.3 3.4-7.1 3.4-.5 0-1-.1-1.6-.1-3.3-.6-5.9-2.9-7-6l-20-60c-1.6-4.7 1-9.8 5.7-11.4 1.1-.2 2-.4 3-.4 3.9 0 7.3 2.5 8.5 6.2l13 39c.3 1.1 1.2 1.8 2.3 2 .2 0 .3.1.5.1.9 0 1.8-.4 2.3-1.1l62.2-78.6c1.9-2.4 4.4-3.6 7.2-3.6m0-3c-3.5 0-7.1 1.6-9.4 4.6L40.4 87.2l-13-38.9C25.7 43.2 21 40 16 40c-1.3 0-2.5.2-3.8.6-6.3 2.1-9.7 8.9-7.6 15.2l20 60c1.4 4.2 5 7.3 9.3 8 .7.1 1.4.2 2.1.2 3.6 0 7.1-1.7 9.4-4.6l76-96c4.1-5.2 3.2-12.7-2-16.9-2.2-1.6-4.8-2.5-7.4-2.5z" fill="#eee" opacity=".2"/></svg>