<svg viewBox="0 0 128 128" width="128" height="128" xmlns="http://www.w3.org/2000/svg"><linearGradient id="a" x1="64.05" x2="64.05" y1="4125.2" y2="4246.8" gradientTransform="translate(0 -4122)" gradientUnits="userSpaceOnUse"><stop stop-color="#757575" offset="0"/><stop stop-color="#6C6C6C" offset=".21"/><stop stop-color="#525252" offset=".558"/><stop stop-color="#424242" offset=".744"/><stop stop-color="#424242" offset="1"/></linearGradient><path d="M122.8 16.5L111.5 5.2c-1.6-1.6-4.1-1.6-5.7 0L65.7 45.6c-.8.8-2 .8-2.8 0L22.1 5.2c-1.6-1.6-4.1-1.6-5.7 0L5.2 16.5c-1.6 1.6-1.6 4.1 0 5.7l40.7 40.4c.8.8.8 2 0 2.8L5.2 105.9c-1.6 1.6-1.6 4.1 0 5.7l11.3 11.3c1.6 1.6 4.1 1.6 5.7 0l40.7-40.4c.8-.8 2-.8 2.8 0l40.2 40.4c1.6 1.6 4.1 1.6 5.7 0l11.3-11.3c1.6-1.6 1.6-4.1 0-5.7L82.6 65.4c-.8-.8-.8-2 0-2.8l40.2-40.4c1.6-1.6 1.6-4.2 0-5.7z" fill="url(#a)"/><path d="M108.7 7c.2 0 .4 0 .7.3l11.3 11.3c.2.2.3.5.3.7 0 .1 0 .5-.3.7L80.5 60.5c-.9.9-1.5 2.2-1.5 3.5 0 1.3.5 2.6 1.5 3.5l40.2 40.4c.4.4.4 1 0 1.4l-11.3 11.3c-.2.2-.6.3-.7.3-.2 0-.4 0-.7-.3L67.8 80.3c-.9-.9-2.2-1.5-3.5-1.5s-2.6.5-3.5 1.5L20 120.7c-.2.2-.5.3-.7.3-.1 0-.5 0-.7-.3L7.3 109.4c-.4-.4-.4-1 0-1.4L48 67.5c.9-.9 1.5-2.2 1.5-3.5s-.5-2.6-1.5-3.5L7.3 20c-.3-.2-.3-.5-.3-.7 0-.1 0-.5.3-.7L18.6 7.3c.3-.3.6-.3.7-.3s.5 0 .7.3l40.7 40.4c.9.9 2.2 1.5 3.5 1.5s2.6-.5 3.5-1.5L108 7.3c.2-.3.5-.3.7-.3m0-3c-1 0-2.1.4-2.8 1.2L65.7 45.6c-.4.4-.9.6-1.4.6s-1-.2-1.4-.6L22.1 5.2c-.7-.8-1.8-1.2-2.8-1.2s-2 .4-2.8 1.2L5.2 16.5c-1.6 1.6-1.6 4.1 0 5.7l40.7 40.4c.8.8.8 2.1 0 2.8L5.2 105.9c-1.6 1.6-1.6 4.1 0 5.7l11.3 11.3c.8.8 1.8 1.2 2.8 1.2s2-.4 2.8-1.2l40.7-40.4c.4-.4.9-.6 1.4-.6.5 0 1 .2 1.4.6l40.2 40.4c.8.8 1.8 1.2 2.8 1.2s2.1-.4 2.8-1.2l11.3-11.3c1.6-1.6 1.6-4.1 0-5.7L82.6 65.4c-.8-.8-.8-2 0-2.8l40.2-40.4c1.6-1.6 1.6-4.1 0-5.7L111.5 5.2c-.8-.8-1.8-1.2-2.8-1.2z" fill="#eee" opacity=".2"/></svg>