<svg viewBox="0 0 128 128" width="128" height="128" xmlns="http://www.w3.org/2000/svg"><g fill="url(#a)"><radialGradient id="a" cx="63.744" cy="4125.6" r="120.58" gradientTransform="translate(0 -4122)" gradientUnits="userSpaceOnUse"><stop stop-color="#757575" offset="0"/><stop stop-color="#6C6C6C" offset=".21"/><stop stop-color="#525252" offset=".558"/><stop stop-color="#424242" offset=".744"/><stop stop-color="#424242" offset="1"/></radialGradient><circle cx="64" cy="106" r="18"/><circle cx="64" cy="22" r="18"/><path d="M120 52H8c-2.2 0-4 1.8-4 4v16c0 2.2 1.8 4 4 4h112c2.2 0 4-1.8 4-4V56c0-2.2-1.8-4-4-4z"/></g><g fill="#eee" opacity=".2"><path d="M64 91c8.3 0 15 6.7 15 15s-6.7 15-15 15-15-6.7-15-15 6.7-15 15-15m0-3c-9.9 0-18 8.1-18 18s8.1 18 18 18 18-8.1 18-18-8.1-18-18-18zM64 7c8.3 0 15 6.7 15 15s-6.7 15-15 15-15-6.7-15-15S55.7 7 64 7m0-3c-9.9 0-18 8.1-18 18s8.1 18 18 18 18-8.1 18-18S73.9 4 64 4zM120 55c.6 0 1 .5 1 1v16c0 .6-.4 1-1 1H8c-.6 0-1-.4-1-1V56c0-.5.4-1 1-1h112m0-3H8c-2.2 0-4 1.8-4 4v16c0 2.2 1.8 4 4 4h112c2.2 0 4-1.8 4-4V56c0-2.2-1.8-4-4-4z"/></g></svg>