<svg viewBox="0 0 128 128" width="128" height="128" xmlns="http://www.w3.org/2000/svg"><linearGradient id="a" x1="64" x2="64" y1="4126" y2="4246" gradientTransform="translate(0 -4122)" gradientUnits="userSpaceOnUse"><stop stop-color="#757575" offset="0"/><stop stop-color="#6C6C6C" offset=".21"/><stop stop-color="#525252" offset=".558"/><stop stop-color="#424242" offset=".744"/><stop stop-color="#424242" offset="1"/></linearGradient><path d="M120 52H78c-1.1 0-2-.9-2-2V8c0-2.2-1.8-4-4-4H56c-2.2 0-4 1.8-4 4v42c0 1.1-.9 2-2 2H8c-2.2 0-4 1.8-4 4v16c0 2.2 1.8 4 4 4h42c1.1 0 2 .9 2 2v42c0 2.2 1.8 4 4 4h16c2.2 0 4-1.8 4-4V78c0-1.1.9-2 2-2h42c2.2 0 4-1.8 4-4V56c0-2.2-1.8-4-4-4z" fill="url(#a)"/><path d="M72 7c.6 0 1 .4 1 1v42c0 2.8 2.2 5 5 5h42c.6 0 1 .5 1 1v16c0 .6-.4 1-1 1H78c-2.8 0-5 2.2-5 5v42c0 .6-.4 1-1 1H56c-.5 0-1-.4-1-1V78c0-2.8-2.2-5-5-5H8c-.6 0-1-.4-1-1V56c0-.5.4-1 1-1h42c2.8 0 5-2.2 5-5V8c0-.6.5-1 1-1h16m0-3H56c-2.2 0-4 1.8-4 4v42c0 1.1-.9 2-2 2H8c-2.2 0-4 1.8-4 4v16c0 2.2 1.8 4 4 4h42c1.1 0 2 .9 2 2v42c0 2.2 1.8 4 4 4h16c2.2 0 4-1.8 4-4V78c0-1.1.9-2 2-2h42c2.2 0 4-1.8 4-4V56c0-2.2-1.8-4-4-4H78c-1.1 0-2-.9-2-2V8c0-2.2-1.8-4-4-4z" fill="#eee" opacity=".2"/></svg>