<svg viewBox="0 0 128 128" width="128" height="128" xmlns="http://www.w3.org/2000/svg"><linearGradient id="a" x1="29.175" x2="98.825" y1="4151.1" y2="4220.8" gradientTransform="translate(0 -4122)" gradientUnits="userSpaceOnUse"><stop stop-color="#757575" offset="0"/><stop stop-color="#6C6C6C" offset=".21"/><stop stop-color="#525252" offset=".558"/><stop stop-color="#424242" offset=".744"/><stop stop-color="#424242" offset="1"/></linearGradient><path d="M120 52H8c-2.2 0-4 1.8-4 4v16c0 2.2 1.8 4 4 4h112c2.2 0 4-1.8 4-4V56c0-2.2-1.8-4-4-4z" fill="url(#a)"/><path d="M120 55c.6 0 1 .5 1 1v16c0 .6-.4 1-1 1H8c-.6 0-1-.4-1-1V56c0-.5.4-1 1-1h112m0-3H8c-2.2 0-4 1.8-4 4v16c0 2.2 1.8 4 4 4h112c2.2 0 4-1.8 4-4V56c0-2.2-1.8-4-4-4z" fill="#eee" opacity=".2"/></svg>