<svg viewBox="0 0 128 128" width="128" height="128" xmlns="http://www.w3.org/2000/svg"><radialGradient id="a" cx="63.95" cy="4186" r="53.564" gradientTransform="translate(0 -4122)" gradientUnits="userSpaceOnUse"><stop stop-color="#757575" offset="0"/><stop stop-color="#6C6C6C" offset=".21"/><stop stop-color="#525252" offset=".558"/><stop stop-color="#424242" offset=".744"/><stop stop-color="#424242" offset="1"/></radialGradient><path d="M62.6 24.3C36.1 14.4 19 17.7 7 20.9c-1.8.5-3 2.1-3 3.9V35c0 2.8 2.7 4.7 5.3 3.8 5.6-1.9 15.8-3.8 31.1-1.2.8.1 1.1 1.1.5 1.7-10.4 10.6-15 24.6-12.9 40.6 2.3 17.3 17.7 30.4 36.1 30.4 18.1 0 33.5-13.1 35.8-30.4 2.1-16-2.5-30-12.9-40.6-.6-.6-.3-1.6.5-1.7 15.2-2.6 25.5-.7 31.1 1.2 2.6.9 5.3-1 5.3-3.8V24.8c0-1.8-1.2-3.4-3-3.9-12-3.2-29.1-6.4-55.6 3.4-.8.4-1.8.4-2.7 0zm19 53.1c-1.2 9-9.8 14.3-17.7 14.3-7.6 0-16.3-5.3-17.4-14.3-1.9-14.2 3.9-25 17.1-32 .3-.2.7-.2 1 0 13.1 7.1 18.8 17.8 17 32z" fill="url(#a)"/><path d="M98.8 20.7c8.6 0 15.7 1.5 21.5 3.1.4.1.8.5.8 1V35c0 .6-.5 1-1 1-.1 0-.2 0-.3-.1-5.2-1.7-11.3-2.6-18-2.6-4.6 0-9.5.4-14.6 1.3-1.5.2-2.7 1.3-3.1 2.7-.5 1.4-.1 3 1 4.1 9.9 10 14 23.2 12.1 38.1-2.1 15.9-16.2 27.8-32.9 27.8-16.8 0-31-12-33.1-27.8-2-14.9 2.2-28.1 12.1-38.1 1.1-1.1 1.4-2.6 1-4.1-.5-1.4-1.7-2.5-3.1-2.7-5.1-.9-10-1.3-14.6-1.3-6.7 0-12.7.9-17.9 2.6-.5.1-.6.1-.7.1-.5 0-1-.4-1-1V24.8c0-.5.3-.9.8-1 5.8-1.5 12.8-3.1 21.4-3.1 10.2 0 20.7 2.1 32.3 6.4.8.3 1.6.5 2.5.5s1.7-.1 2.5-.5c11.5-4.3 22.1-6.4 32.3-6.4m-34.9 74c11.9 0 19.5-8.7 20.6-16.9 2-15.3-4.4-27.5-18.6-35.1-.6-.3-1.2-.5-1.9-.5s-1.3.2-1.9.5c-14.2 7.6-20.7 19.7-18.6 35.1C44.9 88.4 55 94.7 63.9 94.7m34.9-77c-9.1 0-20.1 1.6-33.4 6.6-.5.2-.9.3-1.4.3s-1-.1-1.4-.3c-13.3-5-24.2-6.6-33.4-6.6-9 0-16.2 1.6-22.2 3.2-1.8.5-3 2.1-3 3.9V35c0 2.3 1.9 4 4 4 .4 0 .9-.1 1.3-.2 3.7-1.2 9.3-2.5 17-2.5 4.1 0 8.8.3 14.1 1.2.8.1 1.1 1.1.5 1.7-10.4 10.6-15 24.6-12.9 40.6 2.3 17.3 17.7 30.4 36.1 30.4 18.1 0 33.5-13.1 35.8-30.4 2.1-16-2.5-30-12.9-40.6-.6-.6-.3-1.6.5-1.7 5.3-.9 10-1.2 14.1-1.2 7.7 0 13.3 1.2 17 2.5.4.1.9.2 1.3.2 2.1 0 4-1.7 4-4V24.7c0-1.8-1.2-3.4-3-3.9-5.9-1.5-13.1-3.1-22.1-3.1zm-34.9 74c-7.6 0-16.3-5.3-17.4-14.3-1.9-14.2 3.9-25 17.1-32 .2-.1.3-.1.5-.1s.3 0 .5.1c13.2 7.1 18.9 17.8 17.1 32-1.3 9-9.9 14.3-17.8 14.3z" fill="#eee" opacity=".2"/></svg>