<svg viewBox="0 0 128 128" width="128" height="128" xmlns="http://www.w3.org/2000/svg"><linearGradient id="a" x1="-4014" x2="-4014" y1="4165.2" y2="4206.9" gradientTransform="matrix(-1 0 0 1 -3950.4 -4122)" gradientUnits="userSpaceOnUse"><stop stop-color="#616161" offset="0"/><stop stop-color="#505050" offset=".323"/><stop stop-color="#242424" offset=".961"/><stop stop-color="#212121" offset="1"/></linearGradient><path d="M63.6 64.2c2.3 0 4.7 2.6 7.4 5.7 4.6 5 10.2 11.3 20.1 11.3 3.6 0 7.1-.7 10.3-2.1s6.8-3.9 10.8-7.7c4.5-4.2 6.6-5.6 7.6-6.1l1.5-.6c2.8-.8 4.8-3.4 4.8-6.4V54c0-1.8-.7-3.5-2-4.7-1.3-1.3-2.9-2-4.7-2-.5 0-1 .1-1.5.2-1.8.4-3.5 1-5.2 1.9-3.5 1.7-7.2 4.5-11.4 8.6-4.3 4.1-7 5.4-8.6 5.7h-.2l-1.5.1c-4.4 0-7.3-3.3-10.6-7.1-4-4.6-8.6-9.8-16.8-9.8s-12.8 5.2-16.8 9.8c-3.3 3.8-6.2 7.1-10.6 7.1l-1.6-.1h-.2c-1.6-.3-4.3-1.5-8.6-5.7-4.2-4.1-8-6.9-11.4-8.6-1.7-.8-3.4-1.5-5.2-1.9-.5-.1-1-.2-1.5-.2-1.8 0-3.4.7-4.7 2s-2 3-2 4.7v4.2c0 3 2 5.6 4.8 6.4.5.2 1 .3 1.5.6 1 .5 3.1 2 7.6 6.1 4.1 3.8 7.6 6.3 10.9 7.7 3.2 1.4 6.7 2.1 10.4 2.1 9.9 0 15.5-6.2 20.1-11.3 2.6-3 5-5.6 7.3-5.6z" fill="url(#a)"/><path d="M63.6 49.8c6.9 0 10.6 4.3 14.6 8.8 3.5 4 7 8.1 12.8 8.2h.2l1.6-.1c.2 0 .4 0 .5-.1 2.8-.6 6.2-2.7 10.1-6.5 4-3.9 7.5-6.5 10.7-8 1.5-.7 3.1-1.3 4.6-1.7.3-.1.5-.1.8-.1.9 0 1.8.4 2.5 1.1s1.1 1.6 1.1 2.6v4.2c0 1.6-1.1 3.1-2.6 3.5-.7.2-1.4.5-2.1.8-1.7.9-4.4 3-8.3 6.6-3.8 3.6-7.1 5.9-10 7.2-2.9 1.2-5.9 1.9-9.2 1.9-8.5 0-13.5-5.5-17.9-10.3-3.2-3.6-6.1-6.7-9.7-6.7s-6.4 3.1-9.7 6.7c-4.4 4.8-9.3 10.3-17.9 10.3-3.2 0-6.3-.6-9.1-1.9-2.9-1.3-6.2-3.6-10-7.2-3.9-3.6-6.6-5.7-8.3-6.6-.7-.3-1.3-.6-2.1-.8-1.1-.5-2.2-1.9-2.2-3.5V54c0-1 .4-1.9 1.1-2.6s1.6-1.1 2.5-1.1c.3 0 .6 0 .8.1 1.6.4 3.1.9 4.6 1.7 3.2 1.5 6.7 4.2 10.7 8 3.9 3.7 7.3 5.9 10.1 6.5.2 0 .3.1.5.1l1.6.1h.2c5.8-.1 9.4-4.2 12.8-8.2 4.1-4.5 7.8-8.8 14.7-8.8m0 14.4c2.3 0 4.7 2.6 7.4 5.7 4.6 5 10.2 11.3 20.1 11.3 3.6 0 7.1-.7 10.3-2.1s6.8-3.9 10.9-7.7c4.5-4.2 6.6-5.6 7.6-6.1l1.5-.6c2.8-.8 4.8-3.4 4.8-6.4V54c0-1.8-.7-3.5-1.9-4.7-1.3-1.3-2.9-2-4.7-2-.5 0-1 .1-1.5.2-1.8.4-3.5 1-5.2 1.9-3.5 1.7-7.2 4.5-11.4 8.6-4.3 4.1-7 5.4-8.6 5.7h-.2l-1.7.1c-4.4 0-7.3-3.3-10.6-7.1-4-4.6-8.6-9.8-16.8-9.8s-12.8 5.2-16.8 9.8c-3.3 3.8-6.2 7.1-10.6 7.1l-1.6-.1h-.2c-1.6-.3-4.3-1.5-8.6-5.7-4.2-4.1-8-6.9-11.4-8.6-1.7-.8-3.4-1.5-5.2-1.9-.5-.1-1-.2-1.5-.2-1.8 0-3.4.7-4.7 2s-2 3-2 4.7v4.2c0 3 2 5.6 4.8 6.4.5.2 1 .3 1.5.6 1 .5 3.1 2 7.6 6.1 4.1 3.8 7.6 6.3 10.9 7.7 3.2 1.4 6.7 2.1 10.4 2.1 9.9 0 15.5-6.2 20.1-11.3 2.6-3 5-5.6 7.3-5.6z" fill="#eee" opacity=".2"/></svg>